ply
format ascii 1.0
element vertex 701
property float x
property float y
property float z
element face 0
property list uchar int vertex_indices
end_header
-0.20158025368603094 0.2002324929926046 -0.04700190818354838
-0.20344304784687384 0.21046976954671226 -0.04273344075724833
-0.20357775434406622 0.20857851416798912 -0.04779092466876261
-0.1947644923582874 0.21168349892827354 -0.04395918047473185
-0.19710065170677527 0.21862565190526329 -0.04066524899050944
-0.19960866614731176 0.2155225148889669 -0.045411417842361856
-0.1968278412476383 0.21228365809651695 -0.05215890204951518
-0.20006385191830023 0.22267101914616905 -0.048276583314392496
-0.2031280223980747 0.21729390532704673 -0.05302179849192851
-0.2074777309552036 0.20060818106862388 -0.04806081450030558
-0.20907988890560492 0.20904027135106407 -0.04248074686572306
-0.20941240831764563 0.20928137213918052 -0.048572192550156046
-0.20118464275749548 0.21525649935933433 -0.04592124617144816
-0.2050583933249317 0.22151158959599815 -0.04149986302897685
-0.20594402893932684 0.2188666334840902 -0.047857503056976725
-0.20156714066418036 0.21708415658208213 -0.05138788616702311
-0.2049401973143421 0.22780709178181968 -0.047094414592239786
-0.20809377476127966 0.22292803437444053 -0.052103559136841227
-0.20388747497948034 0.19489132077428184 -0.0459119478468632
-0.20460605367573126 0.2029873004648336 -0.0410238007311558
-0.20287671431454046 0.20473097474309288 -0.045914570451233316
-0.20116270824821814 0.21128450543614707 -0.04318461811587565
-0.20409655317219122 0.2185076943132528 -0.039467761874649454
-0.20367195948513372 0.21647183806630454 -0.044975141644928385
-0.2016353283778034 0.21527920872899375 -0.04812474048182719
-0.20428417369278296 0.22599505097600303 -0.04459528124377482
-0.2067242388382755 0.22135125310155235 -0.048863808274719644
-0.19887752577217443 0.1284035614225515 -0.09573834633872264
-0.19892503067406042 0.13599987537595115 -0.09230337536380046
-0.19797438129337652 0.13278122455808006 -0.09624035155818217
-0.19414451464565619 0.12998546869489036 -0.09058759605929606
-0.1952164743796192 0.13817541510793052 -0.08774224913165324
-0.1957188223257862 0.13331948430272422 -0.09184880054042094
-0.1968569134131275 0.13131813914510093 -0.09624234831378214
-0.19522945329101904 0.14479653746816 -0.09273132181212657
-0.19897821291836126 0.13564332039090476 -0.09657394385382884
-0.1930785302773319 0.12483097822400413 -0.09379605448291056
-0.19449501975925787 0.12929271371098838 -0.08886797225520365
-0.19523644193561895 0.12955145747395835 -0.09466975426718943
-0.18963965519817694 0.12919356138440452 -0.09063247835681193
-0.1910421077862583 0.13304262072774253 -0.08731959259555094
-0.19346251830013617 0.1315243414137014 -0.09311079478308909
-0.19191783412845953 0.13560925633641563 -0.09074477350756877
-0.1935583327666126 0.1473065486642965 -0.08698670065448039
-0.19530284150989874 0.14023088128300987 -0.09173468744799845
-0.19237214073093756 0.11871843249532066 -0.09578406310126536
-0.19023248299511297 0.12277810485097251 -0.09248280024573557
-0.1922482971802555 0.12496178061696372 -0.0960026631359791
-0.19270878776462896 0.12367879063817344 -0.09075627720401042
-0.19200113161953314 0.12816439778539024 -0.08832691109225504
-0.19618375345619543 0.12819965393277488 -0.09214241302058451
-0.1946894650116764 0.12764574796887718 -0.09181810414836161
-0.19551621123703344 0.13948513776990257 -0.08854419982478373
-0.19825172170551641 0.13355170399876914 -0.09226880466983073
-0.19775800153168066 0.12765427143308006 -0.09575026726767771
-0.19809229418190344 0.13516085059377037 -0.09214834368273966
-0.19718248888405188 0.13215027959081016 -0.09630335366770976
-0.1936230187073551 0.12967737228604637 -0.0908747414355015
-0.1948393408909641 0.13733218819829307 -0.08796013391062968
-0.19562272473724707 0.13298638374539695 -0.09219891822383158
-0.19623407467754705 0.1314695945474752 -0.09544373548075907
-0.19488556429298742 0.14496086747380577 -0.09185648953959696
-0.1984249626055561 0.13571439892979942 -0.09584211802527659
-0.19341985627563818 0.12516273767682395 -0.0933994749788975
-0.19412502392681463 0.13006682903500877 -0.08929214870974772
-0.19490147873314245 0.12949107796880088 -0.09441244101569407
-0.18865622326286657 0.12839536578389488 -0.09108821547076457
-0.19035851701649054 0.13295893580647788 -0.08785129582926982
-0.19298872097881659 0.13096247822972618 -0.09286547696635478
-0.19113108261974676 0.1320484748575338 -0.0922090510134434
-0.19120186313541754 0.14407403976651512 -0.08874855434939616
-0.19463602944763525 0.13632531673642478 -0.09294737374827616
-0.1947255109206043 0.2474111786577352 -0.08391870057627909
-0.19516153379829748 0.2570801249239095 -0.07948748266741984
-0.19468079253586157 0.2540666332933553 -0.08276880776927226
-0.1871046398535572 0.25549100548955284 -0.07983548438594096
-0.1895735983506046 0.2599742284509786 -0.0759405294661259
-0.1911956642523609 0.2577593198511251 -0.08012149727389567
-0.1915674482241474 0.25425158650609336 -0.08701244986102336
-0.19489937766941412 0.261440025875295 -0.08290306723162882
-0.19611055895241125 0.2566050163004049 -0.0877442756895756
-0.19325716539772375 0.2560164800378927 -0.0859502652888035
-0.19460312768371923 0.2637421956750997 -0.08125684654757731
-0.19272014244945868 0.2632759681436666 -0.0851025680308079
-0.18720385178478582 0.26325015933247886 -0.08378509676501505
-0.18833943947704657 0.26575724990102134 -0.0793359676604008
-0.19097543999107702 0.2648931613657125 -0.084513286710236
-0.19003398462684973 0.26133947283955894 -0.08732650673434489
-0.1929538373604618 0.26625929982396446 -0.08359716332003825
-0.19407292946728094 0.2633621564600118 -0.08844406402156108
-0.1948858921185337 0.25509934336873374 -0.08460063731715434
-0.1956061844483219 0.2624684444162496 -0.07969621813342326
-0.19326767071636541 0.26301406533452354 -0.0833659867052769
-0.19042195125969275 0.26315181166859947 -0.08250267303035014
-0.19128195687683447 0.2658777704927572 -0.07797224319026225
-0.19336659952553137 0.2653521767351278 -0.08256075775668376
-0.1930194322720371 0.261699306080068 -0.08521823084399455
-0.19570529207142218 0.2663931122514852 -0.08148131763980143
-0.1963359092131458 0.2637557855341085 -0.08609447872683756
-0.19387285157593115 0.2514349094125875 -0.08442191278979533
-0.1947512303248249 0.2604141703340658 -0.07983107364222758
-0.1930523936405979 0.2586936822626241 -0.08337588107630961
-0.1868594710484348 0.2595276704523214 -0.08158759272143595
-0.18868247910889013 0.26310877711507163 -0.07723317539736979
-0.19120417281540258 0.2616733184549459 -0.08198345696971171
-0.19085453196915014 0.25780646712514244 -0.08651853597209208
-0.19398088499458654 0.26412861258717857 -0.08248085773036234
-0.19469701990040167 0.25990145117970787 -0.08742959296748393
-0.1949769084111057 0.2517108193132528 -0.0867011049990391
-0.19510644420536383 0.25370113761159263 -0.08586050069377177
-0.19388396784218176 0.2558824291917928 -0.08388636505648844
-0.19477066143902166 0.25484161288472496 -0.08470476663157694
-0.19510088607223852 0.25631974847050987 -0.08327559626147502
-0.19418871148975714 0.2580134144518026 -0.08227209246203654
-0.19282172366531714 0.2551030984613546 -0.08032141125247233
-0.19386753186138495 0.25714205414983116 -0.07858065760180705
-0.19273234650047644 0.25813023955556236 -0.07860849297091715
-0.19514351829441412 0.14697794825764976 -0.044095287681076456
-0.19567362710388525 0.15232043177815757 -0.04036665952250712
-0.19661818190964087 0.15171306044789634 -0.044180373311493326
-0.18922663971336706 0.14903556019994102 -0.041929731727096964
-0.19205151244552954 0.15511910826894126 -0.0388398567442631
-0.19245941683204992 0.15203438908788047 -0.04302359616801493
-0.19091127559097631 0.1510802975389608 -0.045370558858368326
-0.19039845212849005 0.16183786303731285 -0.04190168774173014
-0.1941527400866352 0.1549819579813131 -0.04579792416140788
-0.19073752805145605 0.14190207631322227 -0.04067341482684367
-0.1926246260062061 0.14613874466153465 -0.035494397044632364
-0.19525921090992315 0.1473106315824636 -0.04111240303561442
-0.18619087084682806 0.14654641062947593 -0.038817177176926065
-0.18902545913608892 0.15036957175465904 -0.0351428786520695
-0.18983395143898352 0.148541974136556 -0.040941397309753824
-0.1874453549042545 0.15223054797383628 -0.03968329227015727
-0.1893219773426853 0.16169451386662803 -0.03577224409625285
-0.1908906970873676 0.15617440850468955 -0.04057602083728068
-0.19206580265911444 0.1385491660329946 -0.042853663325760294
-0.19150024398716314 0.14181901724072776 -0.03903589642092936
-0.19359068318756445 0.14459656388493858 -0.042400787234756876
-0.19169901057632788 0.14387156278821311 -0.03924957907244914
-0.19199694439323767 0.14732627780171714 -0.03653127944514506
-0.19430163248928412 0.14725150377484642 -0.04054508602664225
-0.19217717393787725 0.1464851966592916 -0.04127560055300944
-0.19304986044319494 0.15567545802327476 -0.0379274884466862
-0.19528126462849005 0.1513658633920797 -0.04167855775401347
-0.19277012094410284 0.18843870074483238 -0.09110365307376139
-0.19225711866768225 0.20145713002415977 -0.08797059452578776
-0.19212464734466894 0.19740842492314659 -0.09258943295523875
-0.18420028432758673 0.1972533932420858 -0.0863000253443455
-0.1847620283022724 0.20918862731191 -0.08374936378047221
-0.1878876362696491 0.2026126256677755 -0.08818833029315226
-0.18647819503696783 0.1973492971155294 -0.09568471705958598
-0.18593553944977148 0.21262352378102622 -0.09302097058341258
-0.19053575142773016 0.20296780974599204 -0.09702603018328898
-0.18976241096409185 0.18653874308797203 -0.08864621317431681
-0.19155092283638342 0.1969053617212423 -0.0824489990477299
-0.18955537423046454 0.19728039414616905 -0.08933601772830241
-0.18374028548153265 0.20256261737080894 -0.08391297853038066
-0.18674643083961828 0.21102033765050254 -0.08005474007174723
-0.18706032380016668 0.20772491605016075 -0.08633250987574809
-0.1831966464176975 0.20435928017827354 -0.08982736861750834
-0.18519009395988806 0.219853328773702 -0.08665926253840678
-0.18881298347862585 0.21137349517079673 -0.09087733423754923
-0.18933947130592688 0.1816894283983358 -0.08807540929362528
-0.18960323676021917 0.19114022166463218 -0.08265308535144084
-0.18733551844509466 0.19354556710454307 -0.0883531669382786
-0.18560641750248297 0.19918553740712486 -0.08208678162142985
-0.1875398580685459 0.20820705802174888 -0.07893837487742655
-0.18661379560383184 0.2055415979120382 -0.08464870846316569
-0.18508645638378485 0.20130633027287803 -0.08772871887728922
-0.18605822070988043 0.21687804372044883 -0.08538804447695963
-0.18922891959102972 0.20889984280797325 -0.08909801638171427
-0.18796471997650488 0.27178828627797447 -0.0388948420290684
-0.1880182151451908 0.27189563424321495 -0.038479427457306314
-0.1890511785403095 0.2721173039171346 -0.040132532477829386
-0.18537178381832464 0.2725801935884603 -0.03836701309725993
-0.18548543497475012 0.2726707330438741 -0.037970850825760294
-0.18801048144253119 0.27292107255193077 -0.04007689154193156
-0.1858676497593723 0.2704763880464681 -0.0402756432299351
-0.18639893576057776 0.27092437655659996 -0.03958434855983012
-0.18860347315224035 0.271491455146993 -0.04244510328814738
-0.186610964383205 0.2717105022165426 -0.03709186112925761
-0.18661746128948553 0.27174274832936607 -0.036968539119217325
-0.18787888928802832 0.2719189396593221 -0.038617024779770304
-0.18364719792755468 0.27202521474095664 -0.036684582591507364
-0.18367486938389166 0.272052990505422 -0.036551366210434366
-0.18687247976215704 0.27241538674565635 -0.03851066029116862
-0.18475396677406652 0.269661473343099 -0.038565526366684366
-0.1851381783142887 0.2699971070978292 -0.038057486176941324
-0.18736409887226446 0.27059839875432334 -0.04081417119548075
-0.18825226768406256 0.27057688147755943 -0.035666624665710855
-0.18830017491730078 0.2705573907587179 -0.035744587541077066
-0.18901478990467413 0.27110068709584556 -0.03632734215304606
-0.18725472434910162 0.2711746564600118 -0.0351009765867924
-0.18727491542251928 0.27115451009007774 -0.035210023284408976
-0.18866833790691717 0.2715961805078634 -0.03619665896937602
-0.18793229504974707 0.27013670117589317 -0.036785582662079264
-0.18813526376636847 0.27032642276021324 -0.03647131717250102
-0.19004708274753912 0.2711035481187948 -0.03872324025676005
-0.1865206484452091 0.2713512054178365 -0.03676412498996012
-0.18651428564937933 0.2713575831148275 -0.036735782981369425
-0.18795101090820654 0.27155052334996543 -0.03834084665820353
-0.18356685086639746 0.271427499363149 -0.036300520062897135
-0.18357580646427496 0.2714367380830892 -0.03625584638163798
-0.1869926874295078 0.271847056457723 -0.038166085839722086
-0.18496408804806097 0.2689389458391317 -0.03828186786219828
-0.18531903370769842 0.2692518106195577 -0.03781879937693827
-0.18753659471424444 0.26986061246129356 -0.04054443037554972
-0.18541101857574804 0.2744735351297506 -0.03177986538455241
-0.18276318653972967 0.2703868618700155 -0.035533318877670694
-0.18493889018448217 0.2743226161691793 -0.031977901816818644
-0.19012087329777105 0.27239434630605064 -0.0373960832361912
-0.18836362406166418 0.2667831054422506 -0.04251391685054057
-0.18917026862057074 0.27102779061528526 -0.03743828332469218
-0.18593144163044317 0.27433942467900596 -0.032283852458450724
-0.18320582553299292 0.2701347342226156 -0.036230693221542765
-0.185466361488422 0.27412311942311607 -0.03245488798663371
-0.20150615021141394 0.17882637889119468 -0.06062693393275492
-0.20019697889240606 0.19149653823109947 -0.05760703480288737
-0.20196199163349493 0.18533496768208824 -0.06155402457759135
-0.19001430019291266 0.17838423163625083 -0.056724677443954874
-0.18928026899250372 0.19166545779439292 -0.05385688936755412
-0.19291615232380255 0.1832467785570272 -0.05850807821795695
-0.192534831608852 0.17891441495152793 -0.06665817892596476
-0.19061913832577093 0.19339178712102256 -0.06402600801036112
-0.1960177098170124 0.18428288609715782 -0.06791711843058817
-0.2013238345042072 0.1731406322214254 -0.059449891210052896
-0.20290989920051916 0.18421016843053184 -0.05362231528804057
-0.20367084189804419 0.18261693627568565 -0.05975149071261637
-0.1953315262451969 0.18239413411351524 -0.05435589945361369
-0.19707330807598455 0.19161956221791587 -0.05103359615847819
-0.1994458113566242 0.18738441378804527 -0.05711210763499491
-0.19465775534065588 0.18488322407933555 -0.06025625264689677
-0.1953329567566715 0.20042495639058433 -0.05723006522700541
-0.19869310900123938 0.19132529408665977 -0.06250507628962748
-0.202005428518375 0.1699352732393392 -0.058729658484909464
-0.20257620259674414 0.18030284554692588 -0.05362291133448832
-0.20280897363575323 0.17933564097615562 -0.05887449777171366
-0.19688901051433905 0.1797276011201986 -0.052714447141144205
-0.19808672114761694 0.1899451485368856 -0.04978133237406962
-0.2002284054413639 0.18564616353246055 -0.0551854172949528
-0.19622310742290838 0.18201165110799156 -0.0592389205698704
-0.1963555489435993 0.19792615086766563 -0.056335935950729776
-0.19976709529312475 0.18904142291280113 -0.061114172101471353
-0.2007134978428684 0.1175920835230001 -0.0476710597281193
-0.20286167904289587 0.11971558840009056 -0.04530067241236918
-0.2033782277956806 0.11794294626447044 -0.05030373728320353
-0.1970116470709644 0.11733068735333763 -0.04495559132144206
-0.1989441935673557 0.11926262290211997 -0.04260281717822306
-0.2006519560471378 0.11690856725903831 -0.04712162411257975
-0.19750809415729864 0.11797617585393272 -0.04772407805964701
-0.19870891913326605 0.124302791664327 -0.04504774010226481
-0.20112468048485144 0.11922611505719505 -0.04873777425334208
-0.20143127187641485 0.11514042527409873 -0.04366592562243693
-0.20295789584072454 0.11653308779927574 -0.041839341283295084
-0.20341759666355475 0.11568610579701744 -0.046763787627670694
-0.19898602112682684 0.1150586477014669 -0.041949133038971353
-0.2005328361645542 0.11635171086522422 -0.0400467613939976
-0.2031457100764118 0.11538274795743308 -0.04453347122714274
-0.19992594167145117 0.11601688177319847 -0.042404423118088175
-0.1996582125082813 0.12047027260991416 -0.04018224275157206
-0.2015088920250736 0.11693610460492454 -0.04369227087542765
-0.20465676232727392 0.11688532144757591 -0.047611544490311075
-0.20548915609272345 0.11780517012807212 -0.046817461610290934
-0.20342662676723822 0.11669926554890953 -0.05078760778949015
-0.20270691558273657 0.11634396226140342 -0.04566157853648417
-0.2034593348160587 0.11722193867894493 -0.044730852008316446
-0.20348489030750616 0.11613385588857017 -0.048252920270416666
-0.20410370572956427 0.11588637740346275 -0.04618621861979716
-0.2040067736759983 0.12019883305760704 -0.04470817244097941
-0.20616399988087042 0.11757691414090476 -0.04711211717173808
-0.20092779144199713 0.11699716956349693 -0.04728559649035685
-0.20318263515385016 0.11907278210851036 -0.04483790195033305
-0.2040132556811176 0.11751352460118614 -0.04998085892245524
-0.19694660350235327 0.1168591848108419 -0.04487664496943705
-0.19893252595814093 0.11869780928822837 -0.04247621691272013
-0.20112347349079474 0.1166046133730062 -0.04712192213580363
-0.19713258489521368 0.11736749322148643 -0.04794035351321452
-0.19835920378120764 0.12341039092274986 -0.04514665401026957
-0.2006144200220905 0.11851035268040977 -0.049011210561249186
-0.2027325008765064 0.11852313787671409 -0.04948846495196574
-0.20401929065140112 0.12075700075360618 -0.04791928327128642
-0.20436629399212225 0.11829365999432884 -0.05157656467005961
-0.19845552488716467 0.11759762675496421 -0.04537359869525187
-0.19970686479957922 0.12002532393666587 -0.0438352922205662
-0.20145407065304144 0.11712862760754905 -0.047315279603454996
-0.20038906976135595 0.11818661005231224 -0.049463162780258585
-0.20154362663181646 0.12596394331189475 -0.04712815082118266
-0.2027146194830738 0.11921788961621604 -0.05014015233561747
-0.2012625758305393 0.20607935101720176 -0.0802691677813267
-0.20133699222954138 0.22219126136037193 -0.07645479834124796
-0.2005139265909992 0.21501176268788658 -0.08079723513171427
-0.19021071239860876 0.2169527283403524 -0.07781098282382243
-0.19347998246105536 0.2288826575967916 -0.07298527157351725
-0.19718490287216528 0.22194098145696006 -0.0784039596323704
-0.1934307192221485 0.21597390086385093 -0.08746157085940592
-0.19831269725712164 0.23271905095311485 -0.08234612143084757
-0.2019599054709278 0.22235809476109825 -0.08760512864634745
-0.20281660303028448 0.21272205025883995 -0.08063350117251628
-0.20376579209717138 0.22667055041524253 -0.074670175672028
-0.2021631275072895 0.2229031792375692 -0.08131493127391093
-0.19221481427105291 0.22664921195241294 -0.07718245184466593
-0.19723704203518255 0.23608522326680503 -0.07147807872340434
-0.19991513832958563 0.23138760239812217 -0.0787713924650883
-0.19416126355083807 0.22877399832936607 -0.08518678939387553
-0.19793042286785467 0.24325005919667564 -0.07954398787066691
-0.2013706390515171 0.23432122380467735 -0.08537034189746134
-0.20410468920620306 0.203068660804952 -0.0782223144774174
-0.20395062610061987 0.21672944934102378 -0.07288406288668864
-0.20050534352215155 0.21470932872029624 -0.07834352052256816
-0.19849043830784185 0.22063170582982383 -0.07424102222964518
-0.20126712068470343 0.23068623454305015 -0.06961802637622111
-0.2029737506762348 0.22608553082677207 -0.07555208599612467
-0.19916257008465155 0.22311125905248008 -0.08162264025256388
-0.20158798738869055 0.23778663785191856 -0.07662923133418315
-0.20467142506988867 0.22885494143697105 -0.08158425486132853
-0.20190167173298224 0.20716558606358848 -0.07942778861567729
-0.2032854829684101 0.22211484820576988 -0.07410864031359904
-0.20169873281868322 0.21728782565327964 -0.07980615890071147
-0.1915783707753025 0.22161357314320884 -0.07759682333514445
-0.19576710208805426 0.2316496244165548 -0.07234967744395487
-0.19862566634567602 0.22594361216756187 -0.07890794670626872
-0.19370579465778692 0.22221873910161338 -0.08552030718371623
-0.1983266298428379 0.23698573024007163 -0.08020625507876628
-0.20151075467022284 0.22788976342412315 -0.08564911282107585
-0.18865000947864874 0.14966057450505577 -0.07542769110247843
-0.1884846661940418 0.1541846266481527 -0.0731917420630192
-0.1871305231705509 0.15336631448003135 -0.07620827353045695
-0.18653197332771643 0.15199659974309288 -0.07105288898989909
-0.1866163139000736 0.15687810094090782 -0.06915832555339091
-0.1862668071642719 0.15477310330602012 -0.07269687449977152
-0.18764340623768194 0.15297363908025108 -0.074360618949387
-0.186282572592815 0.16332553536626182 -0.07176090276286357
-0.18917970105560644 0.15751718194218955 -0.07487911975428813
-0.18650160476120337 0.1475232711526998 -0.07331566011950724
-0.1887135778323017 0.15095208794804893 -0.0684106746916508
-0.18875249966534002 0.15161018283101402 -0.0738754967455601
-0.18397745236309393 0.15173451812001548 -0.07038299238726847
-0.1858902101174198 0.1550044885370382 -0.06711811816737406
-0.18862963959129675 0.1545837393495687 -0.07294852531001322
-0.18340728923233374 0.15735475928517662 -0.07059482729480021
-0.18483681723030432 0.16695849806996665 -0.06745548045680277
-0.1877713774100147 0.16293071419926963 -0.07175556814715617
-0.18358447894008978 0.1397676935884603 -0.07661853230044596
-0.18303143724354132 0.14205159456464134 -0.07433391606852763
-0.1837476615563236 0.14544828445645652 -0.07646549737498515
-0.1844014053002201 0.1443998387548574 -0.07172379887149088
-0.18424430235775335 0.14728273660870872 -0.06993652379557841
-0.1877367471114002 0.14928107173177085 -0.0727582076792454
-0.1851737473860584 0.1484218707773336 -0.07110498344943278
-0.18585479005726202 0.15642880112859092 -0.06851209199473612
-0.18888038143070562 0.155272828647817 -0.07178379094645732
-0.1883466516390644 0.14904372603627525 -0.075463632703278
-0.18816800161751135 0.15348021895619712 -0.07314280664965861
-0.18716601773651464 0.1529583206865438 -0.07622853910968058
-0.18647399290951117 0.15174691588612876 -0.0712231198553776
-0.18653087064178808 0.15635566622945152 -0.06929443275973551
-0.18664923056515081 0.1546581259462484 -0.07296053564593546
-0.1873533700362049 0.1533606520387777 -0.07396368181750529
-0.18606476231964453 0.16365371854039512 -0.07126517093226664
-0.18898111328037603 0.15794430882665 -0.0746098557715153
-0.20097276314648016 0.24107365519734703 -0.05940366780802958
-0.20540705069454535 0.24691473157140098 -0.05402044451281779
-0.20766824230106695 0.2445289960596212 -0.06027794873759501
-0.183449280704578 0.24525360972615562 -0.059635857701752115
-0.19065783664139135 0.24714748770924888 -0.05315543210551493
-0.19916926070602758 0.2477662435266622 -0.060375283122513224
-0.19037832065971716 0.24372790963383995 -0.06308765208766215
-0.1984726314202152 0.24831329495641075 -0.05780852830455058
-0.2027194176569782 0.24668036610814414 -0.06474892294451945
-0.19655713185222967 0.2555017939302572 -0.06067080295130961
-0.20373484238537176 0.26096181781026206 -0.05436102545306437
-0.20495432361515387 0.2601241341325887 -0.061294029117081095
-0.18086118742378576 0.2612383237573751 -0.0626125732664799
-0.18838163956554754 0.26234214217397056 -0.0559219518904423
-0.1966217134848438 0.26297991187306724 -0.06353990232989543
-0.18733286603840216 0.2598766556474813 -0.06466920173213236
-0.19475100680740698 0.2635722628328451 -0.05981243646189921
-0.19833035513313635 0.26215879828664146 -0.06684793031260722
-0.19950768097790106 0.24489753157826744 -0.0585576096777653
-0.20449225350769384 0.2505349388811239 -0.053010950446579386
-0.2032060001746021 0.25006954581471763 -0.058903942466232706
-0.19015672549160345 0.25274484069081626 -0.05913342034861796
-0.19538339718731268 0.25443516881200157 -0.05411649739787333
-0.19958306595238073 0.2539795509073385 -0.060274521470520426
-0.19316871210487707 0.25115286023351036 -0.06176952517077677
-0.19964596375377996 0.2547351589891561 -0.05704090988681071
-0.20256282135399206 0.2533357015344747 -0.06340206658885233
-0.1964272384301029 0.25512378127309165 -0.06254942214534037
-0.20374524339588507 0.2606734505388387 -0.05616311228320353
-0.20509165271671637 0.25977872521611534 -0.06311957037493937
-0.1806559537306629 0.26080177933904014 -0.06441108381793254
-0.1881223742619358 0.2618423572275289 -0.0577050546412205
-0.19652177139671667 0.2625324598047384 -0.06533862149760478
-0.18719088777454718 0.259493278572286 -0.0665156642203068
-0.19470099851044043 0.26319711119862876 -0.061646381974670816
-0.19833180054577215 0.2617871037218221 -0.06869784987017863
-0.19975836321266516 0.17754130274983726 -0.03936077153727763
-0.20109924420269354 0.1924095621797689 -0.03409771120593302
-0.201858145441135 0.18702165991994224 -0.03948579227969401
-0.19145463153274878 0.19188963086339317 -0.03541565930888407
-0.19367354854496344 0.20323346764775596 -0.03131831681773417
-0.1971129451647602 0.19738505990239463 -0.0368806818728184
-0.19388863190563543 0.1936321726534017 -0.044471094966385294
-0.19544744237812384 0.20838688523503623 -0.040301303029510904
-0.2002298061505161 0.19976954371663413 -0.045534948468658853
-0.20295212909134253 0.17435787827702842 -0.03672913706347697
-0.20549344762714727 0.18565295846196495 -0.029947171569321085
-0.205284876073917 0.18436329276295982 -0.03675703203723185
-0.19632105275543554 0.19329332024785362 -0.033366451621506144
-0.19992534562500341 0.20299636037083946 -0.028247723937485147
-0.2014461730376087 0.19877229840489707 -0.03555003798053019
-0.1968668524876438 0.19702308089467369 -0.040144572616074015
-0.19999450191410406 0.21252249390813194 -0.03560591733500712
-0.20388704284580572 0.20490555674764 -0.041178266168091227
-0.2015587662115894 0.1688427201006063 -0.035419146180603434
-0.2037761484042011 0.17983256489964805 -0.02896238362834208
-0.20275807126911505 0.17944185645314537 -0.03499675786540263
-0.19706599160583838 0.1901241412851461 -0.03184233105227702
-0.20103984817417486 0.20056782872411094 -0.02694408094928019
-0.20157558962257727 0.1965045204851278 -0.033701489329788614
-0.19761787101181372 0.19272981793614707 -0.0387405554060673
-0.20050927742870672 0.20825921208592735 -0.034276525140259195
-0.20370064422043188 0.20088283927174888 -0.03952858841464274
-0.19452030702980383 0.19108550460072837 -0.06043154990718119
-0.19748513146789892 0.2013177743646749 -0.05536187684581034
-0.1980444614544712 0.19850878627034507 -0.06105063355014079
-0.18583805605324133 0.19956140429707847 -0.0577912727598881
-0.1894013856306873 0.20654432685109458 -0.05352882540271037
-0.19388997301014288 0.2037940493318685 -0.05886940157458537
-0.18848596259506567 0.20312254340382896 -0.06462926662013285
-0.19175591811092718 0.21281479508611045 -0.06013644731089823
-0.19596481069477423 0.20759533555241905 -0.06535656249568217
-0.19932088002117498 0.1934801212045797 -0.05669043457553141
-0.20270135744961126 0.20070050866338096 -0.050677160382721353
-0.20387577756794317 0.20038084895345054 -0.05777756369158976
-0.1896334563151203 0.2057813277933248 -0.056449870229217936
-0.19555091604145391 0.21036289841862998 -0.05071292316958659
-0.1970164899483524 0.2081050744745382 -0.05798200762316935
-0.19072015329750402 0.20761983306142173 -0.061869601369354654
-0.19517224773319586 0.21661018044682823 -0.05645419156596415
-0.1992760126248203 0.21244691521855674 -0.06225315725848429
-0.19436043247135504 0.21676473529073081 -0.09814378118560069
-0.1951997403755985 0.22824888140889488 -0.09470468258902781
-0.19330560907276495 0.22560022980901084 -0.09926415479228251
-0.18683702989967688 0.22582154185506187 -0.09527010715052836
-0.18908960863502844 0.2325176468584188 -0.0917001763586735
-0.1911082391396366 0.22916256100865684 -0.09631508088156931
-0.1881642316237293 0.22624306590291343 -0.10324763751075022
-0.1921257053271137 0.2369289270136007 -0.09885082638308756
-0.19453236206920965 0.23082946450444541 -0.1035862813000416
-0.1945988212481342 0.22068201215001426 -0.10120573139235728
-0.19556122764500006 0.23000030429097496 -0.09584938979193919
-0.1937327359572254 0.2303978672716268 -0.10152887797400706
-0.1886326645270191 0.23152457387181602 -0.09793087339446299
-0.19187265380771978 0.23699782998296104 -0.09362574911162608
-0.19353569790275915 0.23508750111790977 -0.09957263863131754
-0.18812277659328802 0.23301278264256797 -0.10340931510970347
-0.19187438234241827 0.2420785895082601 -0.098377952933762
-0.19393196448238714 0.2370843759271749 -0.10354339575812571
-0.1948006127730213 0.21548454673024497 -0.0990113118891453
-0.19411594911964758 0.22354702861043296 -0.09441047406241648
-0.19122196480186804 0.22668050439092002 -0.09877794480368846
-0.1918159697905384 0.22826926619740806 -0.09549177682444804
-0.19470886632355078 0.2343339195940145 -0.09160841500804179
-0.1947470729008518 0.23324142605992637 -0.09614850080058329
-0.19188333794029577 0.23140584141942344 -0.09910839295432322
-0.19470238431843145 0.23996190936299644 -0.0947660008673405
-0.1963361923352085 0.23546980530949913 -0.09898794686839335
-0.19352769597919806 0.21749775321217857 -0.09812765812918894
-0.19477502747925146 0.2291374674532064 -0.09339618182227366
-0.19244605049045904 0.22744243056508384 -0.09876021242186778
-0.18698127314003332 0.22843997390004478 -0.09527398145243876
-0.18920245512874945 0.23446433455678306 -0.09162671363398783
-0.19144046052845343 0.23179279477330528 -0.09666659927413218
-0.18688416227253302 0.22877334267827354 -0.1020468423371052
-0.19111998125465735 0.2391750684473165 -0.097273016930077
-0.19333836182506903 0.2333835235330709 -0.10217226541087382
-0.20531032725723608 0.21559147746297203 -0.042235801578018595
-0.20765413090141638 0.22928975732060752 -0.036462287068817545
-0.20604830726536139 0.22569833905431114 -0.04169170057818644
-0.1966888283148609 0.23634724528523765 -0.04140205180690043
-0.20080633207710608 0.2439840307924398 -0.03613520658061259
-0.2036826734200321 0.24049817235204063 -0.04218811786219828
-0.19920986637028082 0.2349796763155111 -0.04918197786853068
-0.2060201738730274 0.24686365039082847 -0.04259784019038432
-0.2086093549385868 0.24059550673695884 -0.048874656320068766
-0.2013044629946552 0.23184882313939414 -0.04612402117297404
-0.20365902527721746 0.24397997767659507 -0.03922028338954203
-0.20177060111912115 0.24240593821736656 -0.045499751925918985
-0.1937654440060459 0.25443135411473594 -0.045143643975708414
-0.1979715053692661 0.26120309741231285 -0.03952227032229655
-0.20090371116550787 0.2587649694177755 -0.046394089818451334
-0.19513888403328283 0.25446640164586387 -0.05147955811068766
-0.20092770203502996 0.26546995551320396 -0.04446742928073161
-0.20350235446842535 0.25990532548161827 -0.051114867091629435
-0.2033627454892002 0.22286020428868614 -0.04264892137095683
-0.20415977879913672 0.2343111506197103 -0.03657547628924601
-0.20122782632263525 0.23401622683736167 -0.04178972041651957
-0.1986593578711353 0.24562119157048545 -0.04154814279124491
-0.20186654969604834 0.25297592789861045 -0.036597530007812906
-0.20320485278519018 0.25047974498006187 -0.04247365391299479
-0.19972860559376104 0.24582545668813072 -0.04755483067080729
-0.20453801497372015 0.25684486539098106 -0.04098002111956828
-0.20672484978588446 0.2516401282045492 -0.04693273699328654
-0.2078330938473545 0.17379038245412193 -0.03879008686587565
-0.20764131590278967 0.1724161973688253 -0.03912142908618205
-0.20762370273025854 0.173322247574056 -0.04020027315661662
-0.2067542646780811 0.17328267008992515 -0.037344316602203775
-0.20650955780895575 0.1722171178552755 -0.03768379485652201
-0.20657440766247137 0.17255638749333702 -0.03878347075030558
-0.20566890880020483 0.1721507182809957 -0.04044486081645243
-0.20569166287334784 0.17453675181599937 -0.03990904486224406
-0.20589777573498114 0.172842728206838 -0.04137332236811869
-0.20853924497516974 0.17410706193181358 -0.038428852916214395
-0.20850701376350744 0.1739978066179403 -0.03851793205783122
-0.20769513889702185 0.17410712153645835 -0.04069227969691508
-0.20685934766682013 0.1740714183542379 -0.03731841838404887
-0.20685365542324408 0.1740336290094503 -0.037343809962723185
-0.20648491128834112 0.17371641308995567 -0.03940350806758158
-0.20603951558025702 0.17417036206456504 -0.03823674714610331
-0.20567533120067938 0.17668436677190147 -0.03775380051181071
-0.20576306923778875 0.1749469509813436 -0.039690176606628824
-0.2071888123408161 0.17201887280675254 -0.0368349055056309
-0.20800442739876135 0.169435905525411 -0.03730143106028788
-0.20792224749477728 0.1717585793230184 -0.037702898145172525
-0.2072229509011112 0.17197941453191123 -0.03628684079692118
-0.20800603672417028 0.16941873938771568 -0.03673542535350077
-0.20791381343754156 0.1716098657343038 -0.0371798077826237
-0.20692084475906714 0.16946797282430015 -0.0372808078531956
-0.2068921004191242 0.17060600430699668 -0.03701255714938395
-0.20796635493191107 0.17084299237462364 -0.03805215156123393
-0.19954795881660803 0.17442773492070518 -0.090385268092606
-0.19910350188167913 0.1806678047868856 -0.08772517240092509
-0.20087399825008734 0.17977945716115318 -0.09147931134745829
-0.19196185215862616 0.17357360036107383 -0.08857173717066996
-0.19274249419124945 0.1799256673547872 -0.08628861105487101
-0.1946041707650028 0.17654173285695396 -0.08991132175967448
-0.19370944544227942 0.17518250853749595 -0.09410248196170085
-0.19334286197574957 0.1858499518129476 -0.0915417770151829
-0.19580204531105383 0.1783932915422567 -0.0949364999537205
-0.1961598221913181 0.17032097489568077 -0.08645401394412272
-0.19890369221123083 0.17668877751561485 -0.08118144667193644
-0.20086143657120092 0.17684136540623985 -0.08734462654635661
-0.1898696099177204 0.17582647711964927 -0.08557460701510661
-0.19381989284904821 0.18031750828954063 -0.08175335323855631
-0.19378350421341284 0.1777618399355062 -0.08748502528712504
-0.18939207240494116 0.18299542577000938 -0.08710301911875956
-0.1914858196631275 0.19141327054234825 -0.08323437964961283
-0.19366875037105902 0.18630908639165245 -0.08811188733622782
-0.19642787918003424 0.16357617289754234 -0.08847836649462931
-0.19580763324650152 0.1675748100969442 -0.08497581875369303
-0.19859534248264654 0.1707115641328939 -0.08866820728823893
-0.19535276039989813 0.1698049774858602 -0.08554611599490397
-0.19619309648426397 0.17385094077321372 -0.08314229047343485
-0.1965156321183048 0.17305867583485923 -0.08695534861132853
-0.19499353810699804 0.1762497893068441 -0.08669064438388102
-0.19616973146351202 0.18379478366109214 -0.08400748169467204
-0.19657857462318762 0.17971949488850913 -0.08754749095484965
-0.19837391122730597 0.14236180693837486 -0.058856765389892984
-0.19968448325546606 0.14706905395718894 -0.05532620346591227
-0.19949058934601172 0.1444977095815786 -0.05973533785388224
-0.1913855497494541 0.14336596638890586 -0.05714974796817057
-0.19353668137939795 0.14815826923581443 -0.054045597672913004
-0.1940011207714878 0.14514570147725425 -0.05872840678736918
-0.19173992916496618 0.14518426568242393 -0.06043354666278117
-0.19178749367149694 0.15563617856236778 -0.05668349063441508
-0.19554309293182714 0.14858059794637046 -0.06112713611171
-0.19520987316521032 0.13911588699551902 -0.054853777051422525
-0.19866387292297705 0.1424014142248281 -0.04965020215556376
-0.2014459048167072 0.1426196268293508 -0.0563525954489445
-0.1863893543139301 0.14186026365491233 -0.05517388379618876
-0.19094635292442663 0.14499779255124412 -0.05087311065242045
-0.19408447786720617 0.14386467845174156 -0.05768589174792521
-0.18800449117573126 0.1482401958200582 -0.05564553535029643
-0.18976200863273962 0.15662251622411094 -0.051430771708939005
-0.19266636415871008 0.15190731198521934 -0.056806246400329996
-0.19464987262638433 0.13500981242390953 -0.05934561288401835
-0.19614615782650335 0.13851855904790245 -0.055492470622513224
-0.19556201740654333 0.138826238224233 -0.059698949218246866
-0.1936285768404804 0.13911457569333396 -0.056671122670624186
-0.1956059311285816 0.14236261160107933 -0.05363194143817179
-0.19606074437054022 0.14147629053326927 -0.05856306350276225
-0.19344408556373938 0.14192037493916831 -0.057255099177811075
-0.19443469985874517 0.14990650326939903 -0.053792277932617594
-0.1967556600228153 0.1463570764753469 -0.057819286942932535
-0.19593249007614477 0.14059548289510093 -0.056171099305603434
-0.1977719341173969 0.14462058455678306 -0.05210466182276957
-0.19891601547153814 0.1431220045778402 -0.05753050243899577
-0.18698630973251684 0.14174251467915855 -0.05602867400691264
-0.18993513032348974 0.14588372618886314 -0.052449474692795206
-0.19212752326877935 0.14375235349866233 -0.057980428100082804
-0.1885369692698322 0.144974338123525 -0.05762953555629008
-0.1881363664522968 0.15425561578008018 -0.05393330252215617
-0.19253809496315344 0.1481476894113668 -0.05866969621226542
-0.19587003930958136 0.20711259753438316 -0.09063894546077006
-0.19765391692074163 0.2176878324243673 -0.0867754617933964
-0.19804681583793982 0.21367429406377159 -0.09243384993121379
-0.18329074725063665 0.2094836703035482 -0.088340590358231
-0.1871537838831745 0.21674303920003257 -0.08362529671237223
-0.1926578406945072 0.21381001383992515 -0.08944014704272502
-0.1865366522923313 0.21006654412480674 -0.09493837750003092
-0.18991158648880346 0.22076712758275352 -0.09062297141597025
-0.19420982643516882 0.21481172950002037 -0.09576563036486857
-0.19898310049923285 0.2075867524835714 -0.08859689033076518
-0.20093022033127172 0.2153546682092794 -0.0831540325884556
-0.20186000808628424 0.214276837417806 -0.09030837810084574
-0.18677362545879705 0.21445213467809043 -0.08698729670092814
-0.1931092713728748 0.2197809091302999 -0.08113471663043254
-0.19578268870266302 0.2175325623247274 -0.08852619922206156
-0.18828934177311285 0.21633957535954795 -0.09300121164366953
-0.1923068885460697 0.22599433572026573 -0.08788908517405741
-0.19580630704315527 0.22086392552586875 -0.09348014986560099
-0.19843601926716192 0.19785897643300376 -0.08872715628192179
-0.1995243106737934 0.20590262324544273 -0.08410487568423503
-0.19764590009601934 0.20673744590016685 -0.08961562311694377
-0.1939291481629215 0.20953075797292076 -0.08521864807650797
-0.19643974050434454 0.21501939208241783 -0.08175537979647868
-0.19733810171039923 0.2130403986665853 -0.0871077576880192
-0.1936009947911106 0.21061991364690147 -0.09066108858630412
-0.19568940743358954 0.2199969759676107 -0.08702571189448588
-0.19877606376560553 0.21516244322987876 -0.09123064076945536
-0.20239153250606878 0.23343520076009117 -0.07329527533099406
-0.20589743300827368 0.2433523407671102 -0.06843615567729228
-0.20505003377350195 0.23864595801564537 -0.07358930504367106
-0.18742632612140997 0.23907934338780723 -0.07084194815203898
-0.1935491685524784 0.24389939219685874 -0.06501753127619975
-0.1985484783306919 0.24228601367207847 -0.07133249437854045
-0.19402004524620398 0.23798857838841758 -0.07733575499102824
-0.2008072559491001 0.2459863296243795 -0.07220269238993876
-0.20344161733539923 0.24131815345021568 -0.07825324928805583
-0.19714186831863745 0.24689804227086387 -0.07295231020495646
-0.20091339692028387 0.2547005882951864 -0.06742764508769267
-0.1994005118265949 0.25307260663243614 -0.07360310351893656
-0.18431316062363012 0.25383667857381187 -0.07334033644244425
-0.19100969776066168 0.257556068012441 -0.06699294841334574
-0.19515189274700506 0.2562322488519796 -0.07427311933085673
-0.18912908181103094 0.25268499762746177 -0.07689012086436503
-0.19437031194122656 0.25874428660603843 -0.07224253809497111
-0.19705386206062658 0.25528781325551353 -0.0783475438360905
-0.19856525703819616 0.2383898368570455 -0.07103247439906352
-0.20140468820484503 0.24676119000645957 -0.0659704605345463
-0.19892489656360968 0.24586098105641685 -0.07107932364985697
-0.19163439914139135 0.24876891286107383 -0.06958178675219767
-0.19460059448631628 0.2518391481134542 -0.0647337833647465
-0.1972899858609043 0.2503050437662252 -0.0708370605711674
-0.19384930774124487 0.2464886775705465 -0.07379985845134013
-0.19815833612831457 0.2523748746606954 -0.06940011179492228
-0.2000215028181873 0.2488292923662313 -0.07494540011927836
-0.19656342014225348 0.24383478076192222 -0.07341731584117167
-0.20041891678722723 0.2517948022577413 -0.06825695431277506
-0.1992917631522022 0.24948232085439048 -0.07397515571162455
-0.18281893178375586 0.24880080134602867 -0.0732711950545048
-0.1894750271693073 0.25228999764653526 -0.06711478030726664
-0.19410229965599402 0.25117080123158775 -0.07422102487132304
-0.18805269643219336 0.24861531169148765 -0.07714829838320963
-0.19352118417175634 0.2546511760446676 -0.07270891463801615
-0.19632364555748327 0.25121627957555137 -0.0786807934050297
-0.1819967602148853 0.12055672914716087 -0.06933910644099467
-0.18013407036217077 0.11988385231229148 -0.07146761810824626
-0.18503151580246313 0.11933194310399375 -0.07152084505603068
-0.1830120806351505 0.12098233611317954 -0.0698306957487797
-0.18110070868881567 0.12014349014493308 -0.07188657915637248
-0.1855288122549854 0.11959757120343528 -0.07202495133921855
-0.1798629586354099 0.12007628590794883 -0.07086862123057597
-0.1792235796109043 0.11934517533513389 -0.07171634829089396
-0.18134167536648138 0.11977653414937339 -0.07188926136538737
-0.18284892782123907 0.12268252880307517 -0.06915200746104472
-0.1807242457524143 0.12240748316975913 -0.07093350088641398
-0.1838855121985279 0.12075706035825096 -0.07201863324687235
-0.18306846662910803 0.1227713397237905 -0.06925172603175395
-0.18094351633938177 0.12245293171140037 -0.0710058609251713
-0.18407049521358831 0.12083281786176048 -0.0721095899347996
-0.18136869117172583 0.12166477949353538 -0.06935147440478556
-0.18074977144153936 0.12111596972676597 -0.07004813349292033
-0.18394745632561071 0.11873899609776817 -0.06748227274462931
-0.1800894562855564 0.1169749668333181 -0.07125280296847575
-0.18415704115780218 0.11658735782834373 -0.06974268949076884
-0.1858405743494831 0.12016384513112388 -0.06971115863368266
-0.18193125471027716 0.11800836236211143 -0.07337142026469462
-0.18463223918827398 0.11768149049016319 -0.07213012373492472
-0.18561719104202612 0.11817403347226463 -0.0688487986330723
-0.1836677317276798 0.11601014644833885 -0.07093630230471842
-0.18468530222328527 0.11709012300702415 -0.07008785998866313
-0.1814854864731632 0.12078084261151634 -0.06925726926371806
-0.17971995219143255 0.11992465169164024 -0.07135073339984171
-0.1849485312357746 0.11961712152692161 -0.07117749249980204
-0.18258326991947516 0.12132461578580223 -0.0700423816446995
-0.18077593788059576 0.12025223881932579 -0.07205675041720622
-0.18553620323093756 0.12000857503148399 -0.07197339332148783
-0.1796817903176151 0.1204343310091146 -0.0710206428770756
-0.17901460572632177 0.11963989050122581 -0.07196975743815653
-0.18157143637092932 0.12019555480214439 -0.07192934548899882
-0.18238281949909552 0.12233890802594505 -0.06890291965052836
-0.1806128297701679 0.12052016169759117 -0.07114372646853678
-0.18621203049572332 0.120961385080541 -0.0702947477106785
-0.1834667150631748 0.12342293770047508 -0.07105700171038859
-0.18150625869186743 0.12142707617017112 -0.07325614488169901
-0.18694931014927252 0.12206165702077232 -0.07246954238459818
-0.18059718355091436 0.1222782304975637 -0.07307697331950419
-0.17985188707264288 0.12134225876065574 -0.07423291599795573
-0.18414331718834265 0.1222590974065908 -0.07334060466334574
