ply
format ascii 1.0
element vertex 560
property float x
property float y
property float z
element face 0
property list uchar int vertex_indices
end_header
0.14032395437804834 -0.22502867667940774 0.1543087860341335
0.13794751719085352 -0.214822066715037 0.1605564554925228
0.1394356663569607 -0.21878266124991097 0.15593119466259725
0.1507714565142788 -0.21360610215929665 0.158681293367889
0.14544676498023645 -0.2091024944093577 0.16354163491680868
0.1454028065547146 -0.21248981147078194 0.15814598405316121
0.1458666200980343 -0.21430389373568215 0.1511860688920284
0.14246820167152063 -0.20845791487959542 0.15666841471150167
0.14037500575629847 -0.2126376756933085 0.15066053473904378
0.13782046989051477 -0.21145148365763344 0.1516508659119869
0.13300191119758265 -0.20499530225065865 0.15746801102116353
0.1352898950919308 -0.20649432926443734 0.15179054939701803
0.15041186169234888 -0.2022122868802897 0.15180384123280294
0.14352076009360926 -0.19961403100756325 0.1576134165520931
0.1430270250186123 -0.20164571492937722 0.15079738700344808
0.1455863888606228 -0.20485450117853798 0.1478039821381832
0.14074237898437159 -0.2008411416318766 0.15243842208340413
0.13969375446883814 -0.20356142311361947 0.14604177081539876
0.13821269825545923 -0.21505035250452675 0.1518877347703243
0.1338233228072323 -0.2105796316173426 0.1573506196732784
0.13706477240172998 -0.20886523812082924 0.15329649054959066
0.1430975075110592 -0.2047406414058558 0.15281500422909505
0.14087449267951624 -0.20398118882445015 0.157403399586227
0.13957475379554407 -0.20386138348845162 0.15226491296246297
0.1409315343245663 -0.20644466369417824 0.1506190797086025
0.13628737882224695 -0.2039159068372599 0.15457769238903768
0.13657532886115686 -0.20509023754862465 0.14926867687657125
0.1617934282168545 -0.30207587569025673 0.1343248983617092
0.16035749271957056 -0.3012986907270304 0.1355949541325832
0.16020615652648584 -0.3012465962674967 0.1355036696191097
0.16397960737792627 -0.3013455399778239 0.13436864817097433
0.16293533400146143 -0.3009668716695658 0.13593827688648946
0.16120238855926172 -0.3011265525129191 0.13583384954884298
0.1641321356639065 -0.3004207739141337 0.1326376994843746
0.1646564777239956 -0.2997237273958079 0.13530444109394796
0.16285635784713404 -0.3000548013952128 0.13245477282955892
0.16286744431106226 -0.29815237014559426 0.13415469729855306
0.1618258531436123 -0.29776488034990944 0.13514440262272603
0.16085846975890772 -0.29837308614519753 0.1351454457040096
0.16558070734588282 -0.2973901161458842 0.133668025373962
0.16457517698852198 -0.29731632559565224 0.13484769070103414
0.1619597847804226 -0.29813344567087807 0.13517900311901815
0.16569133356658594 -0.2993819841649882 0.13384737575009115
0.16631354645339624 -0.2994272240903727 0.13531338179066427
0.16441603258697168 -0.2990937361028544 0.13283376896336324
0.16220076635924952 -0.29726086347368874 0.13605236017658956
0.1628215487345852 -0.29776896326807656 0.13533185923054464
0.16517414406386988 -0.2975049146917216 0.13653801882221944
0.16210575655547754 -0.2973268458154551 0.13607545697644002
0.16276236132232325 -0.2978343197610728 0.1353443166013027
0.16513665274230616 -0.29754663794306435 0.1365228494401241
0.1644838030680813 -0.2964627274778239 0.1363787552113796
0.1641728456362881 -0.2965370842721812 0.13546236360028036
0.16780849054900782 -0.2972146996763102 0.13678075873806722
0.13105167702285425 -0.29362515895632424 0.16727360093548543
0.12743430093375818 -0.2911320456769816 0.170791467070129
0.12722341970054285 -0.2921105155256144 0.16787536942913778
0.13607906058875696 -0.2910519072320811 0.16792680823757894
0.13174145177451746 -0.28988124220637 0.1722778280968929
0.12993614629356043 -0.29079688875940957 0.1691132386918331
0.13629271343795435 -0.2866146394517771 0.16586389148190267
0.13307293013183252 -0.2835779616144053 0.169617732405212
0.1296259637221493 -0.28478570072916665 0.16542824113323934
0.13435818508712427 -0.28937248676088967 0.17005767428829915
0.1318549688204922 -0.2883573004510752 0.1735952099557186
0.13118981078712122 -0.28939001052645363 0.1710949143166805
0.14098219827262537 -0.2870043346193186 0.16953762376263387
0.13720380023566858 -0.287564826896464 0.17491092288449056
0.13406320170013086 -0.2884631583001963 0.1713947852845455
0.1366234298094906 -0.28667606203821816 0.1691251000161434
0.13529654100982325 -0.2844339141157023 0.172788639902618
0.1322926159247555 -0.28512765257624306 0.16802509629681356
0.12860568121520655 -0.2908299991395823 0.16791643702938802
0.1277118201598324 -0.29042757838038125 0.16921820247128255
0.13099564865676538 -0.29060660093096413 0.16952170932247884
0.13160710290519373 -0.2891400882509104 0.1672201355691219
0.1307223911627926 -0.28906203596857705 0.16884299123242147
0.13161121562568323 -0.2904700764921061 0.16990294063046224
0.13169770196525232 -0.2899050542619578 0.16797586286022909
0.13111846402732508 -0.2889573404100291 0.17039044702008016
0.1314449186667599 -0.2889071831014506 0.168782611727264
0.16561724499313013 -0.2592283317354075 0.1326890488858486
0.16619803265182154 -0.2507986852434031 0.13578908646061666
0.16930379227248804 -0.25067819445398964 0.1322140892739559
0.16976245001403467 -0.25152034848002114 0.13700540864422567
0.16884018734542505 -0.244613526156222 0.13963462912991292
0.16963364437667505 -0.24837626307276406 0.1360362669225002
0.1696216638430752 -0.2530034908559672 0.12958415353253133
0.16775878027526514 -0.2419103214052073 0.13291179144337423
0.16634227589217798 -0.24790981202391305 0.12922512495472677
0.16491343334762232 -0.25472198217180886 0.12885074818089254
0.1647402818545498 -0.24833391397265114 0.1334725817437435
0.1673732574328579 -0.24660716741350808 0.12893905246212728
0.16783507422057764 -0.2466153332498423 0.13200493657543905
0.16546829298583643 -0.24180342047480263 0.1361745496983791
0.16613240793792383 -0.24324102490214028 0.13145171606495626
0.16956337050048487 -0.24733723490503945 0.1275153061146999
0.16647924736587183 -0.2396883496549479 0.13178630673840291
0.16580756262389795 -0.24373133271006264 0.12735637032940633
0.1663519318446316 -0.25902466266421 0.1286352475877071
0.16654022291747705 -0.2555983790662638 0.13159637653782613
0.1709050710543789 -0.2487222382333628 0.12995981180622823
0.1658401663645901 -0.25064615695742287 0.13189955556347616
0.1658263380870022 -0.24801015644339242 0.13428219163372762
0.16882951811401026 -0.24526299326685586 0.13292645418598897
0.16806109503356592 -0.24849547236231484 0.13090540969326742
0.16586543873397486 -0.24559072940615334 0.13389991724446065
0.16544176891891138 -0.24660475342539467 0.13154645764782674
0.13400848463622705 -0.25344435661104836 0.14630701148464925
0.13084529594031946 -0.24165640561846413 0.15054975950672872
0.13331137851325647 -0.24893705337313332 0.14630200469448812
0.14941670254317896 -0.24887303798464455 0.1501191457505489
0.1411029572829403 -0.238084686687266 0.15508126223042257
0.14200015619842188 -0.2457889297511927 0.14997251832440145
0.1425562079295315 -0.24955177097586312 0.1421758731599117
0.13847954825011866 -0.23735870211390175 0.14657633507206685
0.1370770807608761 -0.2464564570691935 0.14179362857296712
0.13241388157455103 -0.2416220882442347 0.1474980612988735
0.12913145378677027 -0.2365857043769709 0.15233012044384725
0.1310009534701504 -0.23892329423693337 0.14695461595013387
0.14725192144958155 -0.23820884316233315 0.1479979356522823
0.13879232362357752 -0.23397753923205056 0.15452401840641744
0.13767515376655237 -0.23700381605890908 0.1476736565823818
0.1404465909346737 -0.2414683231618754 0.14301156008198507
0.13872052982894556 -0.23525403230456032 0.1476453145737911
0.13615681484786646 -0.24024872272280373 0.14137991273358114
0.13124542192069666 -0.24816356389788308 0.14563878381207235
0.12836836532203333 -0.24341986863878884 0.15069963538601644
0.13086428001968042 -0.24294683127669014 0.1468096872563625
0.13588075593558924 -0.24093504040506997 0.14687134826138265
0.13101797059623377 -0.23805944412020363 0.15169112884953267
0.13297789052573816 -0.23986431746748604 0.14723368489697225
0.13637455061523096 -0.24533937661913552 0.14386471116497762
0.13363717750159876 -0.24108968465593972 0.14776029193356283
0.13328860953895227 -0.2435323277023188 0.14339547359898336
0.13111059621421473 -0.24774120538500466 0.146006812691238
0.12813388064948694 -0.2429571279790751 0.1512303849454189
0.1305012579306759 -0.24251684336928048 0.14709873998120077
0.13620062426177637 -0.24017679481772103 0.1470197042222286
0.13081987455932276 -0.23725215881136574 0.151989718317535
0.1327685292109646 -0.23911908059385933 0.1473781367535854
0.13655455664245264 -0.24487717240122475 0.14412959420635946
0.133690851484219 -0.24059253721502938 0.14801843965008504
0.13336272791473047 -0.24311835854319253 0.14353038871243246
0.16676356152145044 -0.2165458479431025 0.13000484311535604
0.16515620306579248 -0.21157257049349465 0.13440447056248433
0.166355806146542 -0.21370500116614022 0.1308003267045284
0.17675800875274317 -0.21288874535826363 0.13285901153042562
0.17153127745238916 -0.20946764736441292 0.13692932331516988
0.17234368876067774 -0.21190556674269356 0.1320738395447994
0.17282594994155542 -0.21440398483542122 0.12723409140064962
0.1696887190684475 -0.21036030142573037 0.1312171419854427
0.1694358761653103 -0.2129690030124537 0.12660940492108114
0.16516228273955957 -0.21153338043955483 0.12651588523342855
0.16151143864242212 -0.20756271271971383 0.13122316205456502
0.1640083964213528 -0.20836291997698464 0.12672828638508565
0.17499764517394678 -0.2088205346372477 0.1270638605351711
0.17121161774245874 -0.20716519444254555 0.1313111385102535
0.16907079771606104 -0.2077046909835688 0.125453492044952
0.171365993772427 -0.21095634787348427 0.12415706121876485
0.16676910475341455 -0.20799504010943093 0.12750630581333883
0.16650463894454615 -0.2095767238643519 0.12212710583164937
0.16306104019729273 -0.2135279753711573 0.12872763478710897
0.1612104351863064 -0.21086866944101967 0.13210396969273336
0.16366411999313013 -0.20943313627508797 0.12975945079281576
0.16858347014037744 -0.21079771011141457 0.12883978092625387
0.16773762062636988 -0.20999920158651986 0.1323152979607845
0.16627599552718775 -0.2090947160032145 0.12878938519909627
0.16696234301177637 -0.21201382367876687 0.1282259424920345
0.16462029770461695 -0.21087990491655983 0.13043128454640157
0.1644092376574673 -0.21097990660933175 0.12636952602818258
0.13438333824721949 -0.28860838501719155 0.1434716781373287
0.1334474559172787 -0.27858917205599465 0.14858492219403036
0.13303925350753443 -0.2811951765325419 0.14343278610661275
0.14112226918784754 -0.2776834496763102 0.14695920550778158
0.13590501502601282 -0.2681348749902598 0.1518152853245998
0.1354942794188656 -0.27410380332735695 0.14630683267071493
0.13780109838096277 -0.2778067120817057 0.13970284664585836
0.13708786920158045 -0.264611227205073 0.1438313325639034
0.13395472124663965 -0.2729849943426005 0.13905497395947225
0.1342343564376034 -0.2804924675729624 0.1419700285191799
0.13222681239692347 -0.2754244336393229 0.14917849504902608
0.1311545248374142 -0.2748578914907328 0.14256297552540548
0.14033286527244226 -0.2689188846853129 0.1435675820107723
0.13326032713500635 -0.26447723596361794 0.14932869875386007
0.1347163493975796 -0.26774842827585854 0.14346407854511983
0.13874469951240198 -0.27120370953348794 0.1384314497704769
0.1356902296885647 -0.26134480326441445 0.14411481225445516
0.1342067594870724 -0.2675077745225779 0.13817890489056356
0.13529478267280237 -0.2869652041700236 0.13851418101742513
0.13394938663093225 -0.28298710077074685 0.14509811007931478
0.13573168471900598 -0.27883042185572304 0.14144461357548482
0.13508321598617212 -0.2731482514646403 0.1410818597073818
0.13175551847068445 -0.26952571957377114 0.14586829149678
0.1351324494227566 -0.26976744621065774 0.1431706150765682
0.13415305570212976 -0.2738646992948405 0.13868605101063497
0.13356836393920557 -0.2671059498098246 0.14353131258442647
0.13269837454406397 -0.26968164532450356 0.13953869545414693
0.13479437187759058 -0.2576976248529307 0.17737778031780965
0.13434537008849756 -0.23693671613005318 0.18408079945996053
0.13397003964034693 -0.24655857472685494 0.17958166205837972
0.14530991271583216 -0.23341756849554696 0.18171896541073568
0.140132981096188 -0.21820090501574196 0.18768473470165975
0.13985018685905115 -0.22961403219965615 0.1815498670335079
0.14093603447524683 -0.23455007164744057 0.17160673940136678
0.1363819713935055 -0.21683159261015572 0.17805327975704915
0.13423250869361536 -0.22906274884012856 0.17208083474591024
0.1322867746695675 -0.235502375057017 0.17752869927838094
0.1291672165736355 -0.22444443195131936 0.18490990006878621
0.12809680656043665 -0.2293685653713099 0.1779199441666866
0.14569963768569605 -0.21641485183504738 0.17912652099087484
0.13682233050910608 -0.2085071185138575 0.18554117286160238
0.1361104424342312 -0.21433223574427285 0.1776121457810665
0.14152191833106653 -0.22017650096682229 0.1712482174630428
0.135387229476849 -0.2079534211662165 0.17807187640621908
0.132794695650021 -0.21643715887335457 0.1704126199479366
0.13133068636504786 -0.24268261878756203 0.17567541205837972
0.1294738228663601 -0.23286531656054177 0.183422823786285
0.1296489711150326 -0.23320419876841225 0.17776878678753621
0.13640196875182764 -0.22053172974852242 0.17762984836056478
0.13180510953513758 -0.21555630653170266 0.18345131480648763
0.13151942447272913 -0.21796461730269112 0.17706986272289998
0.13651924089042322 -0.2241754510906092 0.17168500029995687
0.12978132322875635 -0.21411810605791726 0.17850251996472127
0.12937234595863 -0.2193028607871882 0.17213596904232747
0.15385903671828882 -0.25204662769106545 0.12663342559292562
0.15411432341186182 -0.2416296282317988 0.1310316225285793
0.15799732760039942 -0.2409266957548014 0.12825032079174764
0.1576866085871853 -0.23993986635473885 0.13014714920475728
0.15696229294387476 -0.23348419158724465 0.13416342937901266
0.15690015510169641 -0.23545664339331307 0.1310742696519161
0.156494247470776 -0.24058347730902352 0.12305956089451558
0.15334554270354883 -0.23032010882166543 0.12843101227238424
0.15233676389304773 -0.23480878560808816 0.12436341249897725
0.15406419590560572 -0.24267335026529946 0.12390713894322164
0.1525986667021908 -0.23563065915373482 0.12924670183613546
0.1554808791026272 -0.2337786087301127 0.12521933519795186
0.156834321771542 -0.2314689287450663 0.12593766057446248
0.15441878393737452 -0.2271684089210383 0.13037460052922017
0.15558149174300806 -0.22815905301836648 0.12606953585102804
0.15628345564452784 -0.23314420669344582 0.12197317683651693
0.15322532013503687 -0.22723655193117775 0.1268236240144039
0.1519071634158291 -0.22941632359293618 0.12235998117878683
0.12844504669753687 -0.224731592228686 0.1327881118054653
0.12596519545165674 -0.21646633534697213 0.13842456543400533
0.1275400693759121 -0.21876601665285744 0.1338750919099117
0.13895650461761133 -0.2138307818677775 0.1362065275903011
0.1331991727694668 -0.21008391468790688 0.1411549648041988
0.1338536317691006 -0.2129087129142634 0.13554113113835103
0.13428391769973413 -0.21536989300516762 0.12994047009899862
0.13142444447127954 -0.2110979536083094 0.13477667176678426
0.12927119687644617 -0.2138138243463389 0.12918927276089437
0.12860034659949915 -0.21421615569857277 0.1289583941693569
0.12270282462684291 -0.20891034393576302 0.13482280576184041
0.12459887817947048 -0.2092160859611384 0.12908678257420308
0.1393114204749264 -0.2050170132425181 0.12866159284069784
0.13268055275527613 -0.203026292612826 0.1339317461247707
0.13213403776733057 -0.20437843888071694 0.12755291664555318
0.13529818013755457 -0.20918926387098946 0.12588255608036764
0.12916459396926538 -0.20564034371641793 0.13040780031636007
0.12875513986198084 -0.20770920603541054 0.12406237924053914
0.12886356071082727 -0.21660239784983315 0.1292836269135738
0.12457244351951259 -0.21288800030020394 0.13439907634213216
0.12662424400893824 -0.21011844067839303 0.13079844915821798
0.13326452926246302 -0.20696666627195992 0.12980311119511373
0.1304673726901211 -0.20636908500460305 0.1332206925149227
0.12998740628806726 -0.20577695756224312 0.12943389022305257
0.13224526003448145 -0.20944335847166695 0.1287759741540218
0.1277708883628048 -0.2079161831643931 0.13213427865460164
0.12805365279761927 -0.20815731375483193 0.1275364061589504
0.14171318963615076 -0.27699304907587685 0.13182639086201436
0.1394538457736172 -0.2738666066434733 0.13496725761845357
0.13966156796065943 -0.27514894097117104 0.131716360687759
0.14759128049461023 -0.27435792773035683 0.1332272192235256
0.14405168846694605 -0.2723722287919871 0.13754027092411764
0.14305942014304773 -0.2739218601491801 0.1337157388921047
0.14930795386878626 -0.2772376069333903 0.12939815723850973
0.1463098700389065 -0.27295283763674416 0.13271700346424825
0.1435075576647915 -0.27498687594202675 0.12863494956448324
0.14207439378348963 -0.27483115880755105 0.13000514113857992
0.1391706939086117 -0.27272353856829323 0.1337850292916561
0.13929511860458033 -0.273661417653834 0.13006799423649557
0.14899046972839014 -0.27123589604166665 0.12947287166073568
0.144649582658688 -0.27063955157068886 0.13483338558628805
0.14312841251937525 -0.2719038256910197 0.13043930137112386
0.14785857752410547 -0.2756157049444071 0.12794943654492147
0.14627804115859644 -0.2729927131440989 0.1311570903058315
0.14425905302611963 -0.2742036709096781 0.12646289670422323
0.1396749492034115 -0.2733671197202555 0.12935142719700582
0.13903053358642237 -0.2726861068513743 0.13104744756176717
0.1402228350981869 -0.271358145168101 0.13047905766918905
0.14177717522231714 -0.27095396607187905 0.12965916597798116
0.140735107217709 -0.2707305678632609 0.13175975286915548
0.14263727024642603 -0.27098445384768166 0.1309243341679836
0.1458015020236172 -0.27426896779802956 0.12845741713001974
0.14493663862792627 -0.27313406555918374 0.13083185756161458
0.144549268041531 -0.27273972122934975 0.12843584024861104
0.14821084097472803 -0.3041298815515391 0.1495112677808071
0.14394398287383692 -0.2996403106954447 0.15325914823963888
0.14359908059684412 -0.30062065809038796 0.14971121156170614
0.15587286904899256 -0.3002569505479685 0.15056010091259725
0.15044059113113062 -0.2971974739339701 0.15476529800846822
0.14768634990302698 -0.29861210077074685 0.15079097950413473
0.1558388645991482 -0.2995223829057566 0.1455095311398769
0.1528031106337704 -0.29437888949183144 0.1500992974038387
0.15030999735442774 -0.2979010769632212 0.14574526750996358
0.14678935960380213 -0.29747225134638466 0.15051286423161275
0.1429563041075863 -0.29594518034723916 0.15430455410435445
0.14188997701255457 -0.2963957616594187 0.14932533109143026
0.15713303044883387 -0.29426239221361794 0.1485194464917446
0.1507516081675686 -0.29350141971377053 0.15395917499020345
0.14772229150382654 -0.2944915720727793 0.1489764651055599
0.15676658109275476 -0.29739017575052895 0.1467755337949062
0.15151642516700403 -0.2935717233922831 0.15058936679318197
0.14956422403899805 -0.29538865177897133 0.14542015397503621
0.14526735499946253 -0.30122084706095376 0.1493426760430599
0.143615829502026 -0.30032597272661843 0.15150978171780355
0.1446379597529568 -0.29961822717455544 0.14871396624996908
0.14809932068435328 -0.2969768175390116 0.1486259897942806
0.14540530994979517 -0.2960372993257395 0.15103196108296163
0.14556063965407984 -0.2969344088342539 0.1493264337773586
0.15053661421386377 -0.2991942891385905 0.14750148856594808
0.1470054860457577 -0.2967332133558146 0.1504846414323116
0.14886214092818872 -0.29790948121813454 0.14753793680622823
0.13542242601958887 -0.26806981652048745 0.16173686587765462
0.12952842072097437 -0.2623256274965159 0.1658786138291622
0.12982903674689905 -0.26517592160967507 0.1615724762673641
0.14668669060317652 -0.2638936170842997 0.16380407416775472
0.13938106850234644 -0.2610744365957133 0.16974981629803426
0.1367569144114651 -0.263215644052302 0.16429378592922933
0.14658440903274195 -0.2659732231405131 0.15785594785168416
0.13960196331588404 -0.25892497389582314 0.1628491481538082
0.13612236336318628 -0.2627044746187083 0.157155414461639
0.13449846461860315 -0.262548250844752 0.16158767545178182
0.12931169823257105 -0.25952155678538 0.16644259297802694
0.12944861010162012 -0.2614316174295298 0.16076185309841878
0.1476880188330807 -0.2587531337049357 0.16041674220516927
0.14020575836745874 -0.25837348192003884 0.16772290074780233
0.13664941743461267 -0.2594238200691096 0.16062488162472494
0.14454271153060572 -0.26426072209147133 0.15769412124111898
0.14004241183845179 -0.2598498591688029 0.16142316663220174
0.13711376741973536 -0.26216752617624917 0.15577804052784688
0.12954710677711145 -0.2628148028161875 0.15911259257748372
0.12756778553573267 -0.2609624990728251 0.1625996431107784
0.12787573293296473 -0.26109318225649514 0.1591298779244686
0.13565738752929346 -0.2584505805280558 0.15830888354733236
0.13137890652267115 -0.2575365433004252 0.16321881616070516
0.13188316181747095 -0.25905839889315285 0.1595788797135616
0.13580329969970362 -0.2635554799344889 0.15679558122112996
0.13381748155204432 -0.26078094332483925 0.16025735938503988
0.13260935500709192 -0.26209752052096047 0.15588881576016195
0.12813221171943323 -0.2064461985137812 0.17406292760327108
0.1250418002947964 -0.2044875153806559 0.17738242948010213
0.12826134518233911 -0.20557439117697396 0.1746257742638851
0.13719703510848658 -0.20319589762953438 0.17364378774121053
0.13158373788444178 -0.2014904895332209 0.17777021729901082
0.1327111299380459 -0.20279246359137215 0.17459770047619588
0.13590707138625757 -0.20639613061216988 0.17138733470394857
0.1329303260192074 -0.20513869612482705 0.17486782872631795
0.13129316524116175 -0.20536951511171975 0.1710277994866634
0.12987597540465967 -0.20308013050821938 0.17090859019711263
0.1263171906813778 -0.20164634077814736 0.17409743869259603
0.12830584004966394 -0.20197915821341195 0.17116351926281698
0.13800068453399317 -0.20100624649790444 0.16956945264294393
0.13275023058501856 -0.19989079027441659 0.17341049516155965
0.13283546522704737 -0.2007619717624537 0.17037864530041463
0.13689022019950525 -0.20299351005819954 0.16802944743588216
0.13364736989585535 -0.2021320739295832 0.17092831933453329
0.13285734013167994 -0.20232930569914498 0.16722097003414876
0.12870635346023218 -0.2027855941560618 0.16991957032635457
0.12687389806357996 -0.20192314474848427 0.17152210080578573
0.12840940311996119 -0.20030064671305337 0.17138149344876058
0.13115658119765894 -0.20085581927565255 0.17018504941418416
0.12919257834998743 -0.20053472905424752 0.1716866096253658
0.1305993373736538 -0.2000397124793879 0.17063268029644735
0.13240485147086756 -0.20315241604117074 0.1687610348458553
0.13056420043555872 -0.20274129300383248 0.17018367850735433
0.12967451170531885 -0.20218260376719155 0.16808785998776204
0.12839211777297632 -0.20262922137049355 0.16946800553753621
0.1267359729155697 -0.20186213939455666 0.170952280401733
0.1286433513507046 -0.20018532662657418 0.1709782084222103
0.13042168572990076 -0.20093576400545754 0.16981669270947225
0.128777521406094 -0.20063195913103737 0.1711678107972408
0.13034837201682703 -0.2000081965234629 0.17034937941982992
0.13183237866012232 -0.20273403613833108 0.1681426962609554
0.1300471301421322 -0.2023198285606257 0.16955699527218587
0.12919040278045313 -0.20173109858301796 0.16765215003445394
0.15037508562652246 -0.26199410646227517 0.14902861916973836
0.1498496706828274 -0.25469417660502114 0.1526509424443508
0.15124510482398645 -0.25540284602907815 0.1484392186398769
0.15518193200675623 -0.255261776736056 0.15261160337879903
0.15224276736823694 -0.24824864952829995 0.1554355522389675
0.1541245456084408 -0.2525268176105372 0.15160303318455465
0.15513532117454187 -0.2515250572469584 0.1540292998547817
0.15398223951903955 -0.2564752229955546 0.14558809006169088
0.1518853779181637 -0.24573115794924416 0.14864711964085348
0.15106539681998865 -0.25179521529940285 0.14483197534039266
0.1511784072264828 -0.26057024090555825 0.1449723740811611
0.14967175081817286 -0.255283606937205 0.1502979000802303
0.1498544986590542 -0.2545082548168055 0.14503856503918416
0.1547501261576809 -0.25150505988863625 0.14755370223477132
0.15049524859038965 -0.24688310711649575 0.15176217758610494
0.15247188762275354 -0.24946047156122841 0.14696129167034871
0.15558929995147364 -0.2544288614299647 0.14288248622372396
0.1521006698950924 -0.2457635381725184 0.14717196428730733
0.15142990902511255 -0.25008304207590737 0.14267470443203695
0.15312122062293665 -0.2630321213510386 0.14391048753216512
0.15141774967757837 -0.2608692178037516 0.14824517571881063
0.15433530763236658 -0.2558147141244761 0.14563610160305746
0.15218921259490625 -0.25356405763891854 0.14636715257122762
0.15048165873138086 -0.25116085796621956 0.1495819886918331
0.15318684533683435 -0.24951775162485756 0.14704235398724325
0.1544982369288601 -0.25402423529890694 0.14407314860775716
0.15215479091254847 -0.25030763237742104 0.14750923716976888
0.15239464000312464 -0.2506897130515925 0.14521413052037008
0.14109228805152552 -0.24846736877230324 0.14807041490032918
0.13923792794791834 -0.23916800110605874 0.15410008037045247
0.139545845542828 -0.2403892555740229 0.1494696041341091
0.14733357981292383 -0.2277198710945002 0.15170468890621908
0.1447394366606869 -0.22418893664148964 0.1569842001195217
0.1417733903273739 -0.22630481212404885 0.15053158009007223
0.1451395626410641 -0.22976735024717965 0.14422502124264486
0.1393436069831051 -0.22201861231592812 0.1503941019768978
0.13795490816680567 -0.2266391941812388 0.14414616429760702
0.1381686802252926 -0.23135226755407967 0.1429649492497707
0.13354762152282373 -0.224788246443545 0.1500886281724239
0.13345144942847864 -0.22458995669153847 0.14396439993336446
0.1464009161338009 -0.21407910971907296 0.143261690973785
0.1393692965850033 -0.21147027402189889 0.1493562360997463
0.13732640698997156 -0.21295071928766884 0.14209680759861715
0.1425183887824215 -0.21839318959978737 0.13963048660710103
0.1375634546622433 -0.21396694867876687 0.1446042259927059
0.13631941631881372 -0.21685702889231362 0.1377828320260311
0.162407892499844 -0.29670382826594033 0.14045705401852376
0.16205771521178858 -0.2890301474836222 0.14509363973095663
0.1606381113871731 -0.29138959734705605 0.13914441072895772
0.17088224247542994 -0.2914906868245951 0.14463262760594137
0.1668222720965542 -0.28336469619539895 0.1480458875890041
0.1662371332987942 -0.28856430738238015 0.142644574284103
0.16735954836455957 -0.28649712889460244 0.14627643430187948
0.16963382319060938 -0.29221261828211464 0.13695915543987996
0.16686137274352686 -0.2785455116536967 0.1393542190785671
0.1647756870135464 -0.2868048378732554 0.13513051474049337
0.16375465944854395 -0.2931282946374766 0.13786547386601217
0.16269798830596582 -0.2878131100442759 0.14354108774616964
0.16188188150970118 -0.2874185570981852 0.13691701495602376
0.17079307392684595 -0.2853247651365153 0.14039730036213643
0.1656977112635769 -0.28086568205622353 0.1456354757542873
0.16574754074660913 -0.28344805329111733 0.13929237925961263
0.17074682072250025 -0.2862615415361277 0.1350410779710079
0.16735257462112085 -0.27567766397265114 0.1395716866250301
0.16526891544906275 -0.2816045412328593 0.13447495305493123
0.14449219659415857 -0.253383753588473 0.14557560288861043
0.14189587787238733 -0.2430748024490229 0.15052627527668722
0.14310159042922632 -0.24786287336615243 0.1450806161160732
0.1580271895274319 -0.24741126387385048 0.14856209361508138
0.1512735958441891 -0.2403234073427073 0.15386494004681356
0.1493676479205288 -0.2446557113435618 0.1474353274102474
0.15201576307860987 -0.24769833474424996 0.14176978671505697
0.14914880946723597 -0.23902995674875893 0.14672776067211873
0.14540751532165186 -0.24485923140314736 0.14059176051571615
0.14299564317313807 -0.24384344904688515 0.14323629939511068
0.13895194486228601 -0.23646880476740517 0.14883001649334676
0.1396563227519192 -0.2387844452169291 0.1422746678586269
0.15633882835952417 -0.23755104630259194 0.14297791326000936
0.14762486771194117 -0.23254556744364419 0.14940931403591878
0.14493046954719202 -0.23501176922587075 0.14164706075146444
0.14976741627303736 -0.24147318094042458 0.13951223099186666
0.14531041935531275 -0.2345836886670939 0.14412312710240133
0.14430870369521753 -0.2394846656825892 0.13745956623509176
0.14254008487311975 -0.24892422347334542 0.14076836907818563
0.14019768193809168 -0.24329288094309487 0.14594416820957906
0.14358358338920252 -0.24180125980642952 0.1412455936665798
0.14631192639915125 -0.24042810290125527 0.14229874813511617
0.14363308504668848 -0.23770026653078713 0.14736862981274373
0.1432704801901974 -0.23829410760668435 0.14209150278523214
0.1456864352568783 -0.2440400251653544 0.13943769538357503
0.14238994077293055 -0.2397074827459208 0.14363675320103414
0.14203118041602747 -0.24175733118323006 0.1386310061211849
0.14128695682136194 -0.28569324105051674 0.1669338544602657
0.1373519773825802 -0.2836226949003092 0.1703450282807613
0.1347926135405697 -0.2841626235750071 0.16738732659771688
0.1489431138381161 -0.28293068497446694 0.1666301687951351
0.1435080345019497 -0.2825797924306742 0.1718099316354061
0.1384092147692837 -0.2829446324613444 0.16825987899258382
0.14994408444015161 -0.28071696846750893 0.16490294539883382
0.14721755937186853 -0.27916122763422646 0.1691691478486324
0.14237495020476953 -0.2797232994344584 0.16433103883221395
0.1411855991229214 -0.2815102168825022 0.1684682568307186
0.13743450001327173 -0.2801682779100291 0.172170062899139
0.1342561419352688 -0.28111441223887124 0.16882081830456502
0.14972414330093042 -0.2788283356931559 0.16722049319699056
0.1443991239413418 -0.27972148149279275 0.17313077056362874
0.1389127548083462 -0.28008062927988686 0.16882874572232015
0.14840285733787195 -0.28205634444025673 0.1667142113442684
0.1452616329535641 -0.28032623021868386 0.17057814204647787
0.14070250347701685 -0.2801723012235514 0.1647414764161373
0.13465036705581324 -0.2821721860673777 0.1661057671304012
0.13345317796317713 -0.2816243895795695 0.16764922940685995
0.13276110843269007 -0.28226749389437356 0.16724224889233358
0.13760139301864283 -0.27983142226008095 0.16557540500118978
0.1361220653399624 -0.27977742045191445 0.16782756650402791
0.1342353399142422 -0.28100706427363076 0.16763695085003621
0.13934441164580957 -0.2835593053605906 0.16593833768322713
0.13805927589980738 -0.2824291416910044 0.16813679540112264
0.13669084266273157 -0.2825849780347697 0.16509469354107625
0.16374327496139185 -0.24909005849627175 0.12949862086727865
0.16185875490752832 -0.23815233795908608 0.13400115573361165
0.1639875347956814 -0.24159587710169472 0.13001965486958272
0.17250623062698023 -0.23892213194636025 0.13295068347409017
0.16834952190963404 -0.2324457445648066 0.1375517746205593
0.16739548996535913 -0.23654345958498635 0.13245569670155294
0.16938819244949 -0.2403413334396235 0.12534483277752645
0.1665151889666714 -0.23185084550646462 0.13026999437763936
0.16366072252837793 -0.23715978651312508 0.1251064141984249
0.16166641071883814 -0.2395631202962748 0.12632649147465475
0.1585275705203213 -0.23218036978510537 0.13154788815930135
0.15940012291518824 -0.23315761773852028 0.1259630819554592
0.1706173594340481 -0.23188005178240456 0.12697916233494527
0.1640078599795498 -0.2272337505128733 0.13227175676777608
0.16346480206100122 -0.22978867380884804 0.12575395905926473
0.1669429118975796 -0.23580525605944314 0.12317257130100973
0.16242476061431543 -0.23019064753321328 0.12757923209622152
0.1611188824519314 -0.23333699791697182 0.12195878231480367
0.16194005564300196 -0.24144632904795327 0.12697275483563192
0.15943111733047144 -0.236426589777743 0.13213210308506734
0.16348709419814722 -0.23371059983042397 0.1276235779519344
0.16521002606002466 -0.2330790886190287 0.1279861828084255
0.16233630732146875 -0.23067773669031777 0.13231809937908895
0.16353865221587793 -0.23064274876383462 0.12817152345135457
0.16541733101455347 -0.23500616638926186 0.12612416350796468
0.1613363798007168 -0.23169269948271431 0.13043784105732686
0.16127445057479517 -0.23275483935145058 0.12579514586880453
0.15417571619598047 -0.23367024748591103 0.13896130526020772
0.1508860464438595 -0.2211537489202372 0.14522211754276998
0.1513743276938595 -0.2267782071140162 0.1396266719098354
0.16962929323760645 -0.22192941396502175 0.14200421178295858
0.16092278317062036 -0.21515112905768075 0.14783283078625448
0.16063173369018213 -0.21978685050276436 0.14158742630436666
0.16195853308288233 -0.22167415707377114 0.1349017819161678
0.15790041044799463 -0.21460960595873513 0.1405780812497402
0.15494011596290247 -0.21981784491804757 0.1339748700852657
0.1505537207469143 -0.2167427220847956 0.13486211502506978
0.14497082189170496 -0.20872741728094735 0.14119588339283712
0.14598201469031946 -0.21106110303667702 0.13459753000691183
0.16814829662887232 -0.2083087691572062 0.13431425893261678
0.1580279047831692 -0.20451283245352425 0.14100923144772298
0.1550911839350857 -0.2065455445554606 0.1326485773320461
0.158191161905209 -0.2124664017465464 0.1314515968556667
0.15146191671935694 -0.2073270806577555 0.13614725077107198
0.14971189454642908 -0.2106891551521174 0.1289305289979244
0.15203778699485437 -0.22132171480921425 0.13491888844921834
0.14691882089225428 -0.21514887898234047 0.14143537485554464
0.15076889351455347 -0.21393385319975533 0.1361798843140865
0.1585997517451443 -0.20955084054735817 0.1353922685380245
0.155917334113995 -0.20850552408960976 0.1407224436993862
0.15311791256515161 -0.20823159604338326 0.13461907708599813
0.1552144761428036 -0.21338999061850228 0.13393970334484823
0.1491104836806454 -0.2100943156984202 0.13825934135868795
0.14966966465560572 -0.21172757237223305 0.13229631388142354
