ply
format ascii 1.0
element vertex 317
property float x
property float y
property float z
element face 0
property list uchar int vertex_indices
end_header
0.09818445399848598 -0.18687587766913094 0.10059588158085592
0.09327481940833705 -0.17134211747912087 0.10793896520092733
0.09044133380500453 -0.18200099258688607 0.1018430193658138
0.12244306758491176 -0.18859869032171883 0.10008861625149496
0.11893679455367702 -0.17492368607786812 0.10674711072399862
0.11041583374587673 -0.18516103713778176 0.09995289647534139
0.11430932835189479 -0.18757486133841195 0.09312399232342489
0.11360122517196315 -0.17058838694361367 0.09788303577854879
0.10549105957595485 -0.18283912329939522 0.09335168206646688
0.09716816500274318 -0.1933546939399592 0.10702358686878927
0.09377537921516078 -0.18311174004343667 0.11460079753353841
0.09045203283874172 -0.1884582766797892 0.10679765546276815
0.11379035070983547 -0.19185727625158944 0.10809989774182088
0.10780073956100124 -0.1822349110153071 0.11391996347859151
0.10159285620299953 -0.18796740262774148 0.1067258318658138
0.10638933137504238 -0.18617243855265297 0.10369335615589864
0.10516597584334987 -0.16954047768381753 0.10863645875408895
0.09955643371192592 -0.18173831491736092 0.103140761494186
0.09785776094047206 -0.1926687338855616 0.10388856136753805
0.09562365964500087 -0.1832051703241221 0.11125304305508382
0.09351404265014308 -0.1881882080343119 0.10448553168728597
0.1105309601172604 -0.19031885056761422 0.10624395811512716
0.10646717504111904 -0.18053914397028603 0.111600895761993
0.10115845755187648 -0.18640808551577248 0.10493989789440877
0.10528461888877529 -0.18611869006422677 0.1014353832001949
0.10452522591201442 -0.16926064877775826 0.1059578260178829
0.09876309588996547 -0.18106466322210946 0.10106201970532186
0.09937255338279384 -0.18860858469275155 0.10599844658329732
0.09220473722068447 -0.17544555454519906 0.11325453722431905
0.08689783767310756 -0.1823882290628306 0.10477452480747945
0.12486593679038661 -0.1887087353971354 0.10516237223103292
0.11721979335395473 -0.1812413760927073 0.11283292376950033
0.10736738399116176 -0.1858589479234568 0.10417162382557638
0.11343778923598903 -0.1851693817880503 0.09998317563488729
0.11063526824561733 -0.16967244236735024 0.10600974166348226
0.10338939980117458 -0.18140092282560982 0.09944047534420736
0.10057313994018215 -0.07655216543940224 0.10750021541073568
0.09724714115707057 -0.06549621908930459 0.111888160347488
0.09704549864379543 -0.07128374069002785 0.10759078466847188
0.1167357142314114 -0.07200117199686684 0.1101157268281246
0.1091695304259457 -0.06519476859835305 0.11548115813687093
0.1053819532736935 -0.06812028377321877 0.11020480596974142
0.11486025408355373 -0.0746112593915812 0.10076459252789266
0.10516439632026332 -0.06452990858820595 0.10673283541157491
0.1022769089087643 -0.0695332118776194 0.10121222341015584
0.10691826299277919 -0.062241060426508565 0.10792525613262899
0.10238741592017787 -0.052601409843241353 0.1131570538277889
0.10044573501197475 -0.05521876900461831 0.10743554437115438
0.11983521536437648 -0.057168794563089986 0.10833468043759115
0.11213363960830348 -0.052276415517603536 0.11393945419743307
0.10898004726020473 -0.05464674322870888 0.10751133167698629
0.11742188290206569 -0.05938245146540322 0.10261141264393575
0.10959340885726589 -0.051459831884180685 0.10869624221279867
0.10555108145324367 -0.05504624336031594 0.10250209772541768
0.10574464753715175 -0.06554780690935769 0.10935314500286825
0.1017033632144131 -0.05551902740267434 0.11435388529255636
0.10112555578796047 -0.05821175663736977 0.10909300053074605
0.11691098168937343 -0.05931179015902199 0.11005168163731344
0.1101422186240353 -0.054212761810099264 0.11530866229489095
0.10765417173949855 -0.056768221547876974 0.1093370219464565
0.11521290496436733 -0.061241609742914815 0.1040998598332668
0.10785250619498866 -0.05315802781847634 0.10999928915455587
0.10424442843047756 -0.056950283935343404 0.10403590404942281
0.10685931399909633 -0.06257952540186562 0.10600476467564351
0.10217811421004909 -0.052871508291041036 0.11124139034703023
0.10019530609695095 -0.055607778718744894 0.10551099979832418
0.11996294811813014 -0.05772028653887429 0.10641955339863546
0.11222513273803371 -0.05284227221277871 0.11205505335285909
0.10893987372962612 -0.05518974154261269 0.10561641061260946
0.11756275847999233 -0.059834582498346944 0.10061367356732137
0.10963858917800563 -0.05188114731577553 0.10674475634052999
0.10548652962295192 -0.055451405933176656 0.10051589214756734
0.109057861123959 -0.1356638649013392 0.0881205400223995
0.11026634529678005 -0.1185422816779963 0.09228171908810384
0.1071013386592068 -0.12510421662596383 0.08914341533138997
0.11034535125342983 -0.11811323254374184 0.09063883626415975
0.12063406661597866 -0.1341256329324595 0.09204118454411275
0.12125794843284267 -0.11836565821436562 0.09504829847767599
0.1163452740058102 -0.12803667574194588 0.09169708692982442
0.11932768181411403 -0.13580012111929574 0.08380418026402242
0.12050356224624294 -0.11913825361994423 0.08660056197598226
0.11446355537025112 -0.1294910290744654 0.0838209291692043
0.10939918712226528 -0.14157733111647286 0.09221394860699422
0.10688881829826015 -0.12625430314806618 0.09945349895909078
0.10481317595092433 -0.13002355187204995 0.0928144356007839
0.11670331910697597 -0.12871728627947487 0.09640212857678182
0.11332102373687404 -0.11672378866938271 0.10065936052754171
0.11130528405753749 -0.12371760397223153 0.0946902831788326
0.11548324183074611 -0.12301367311743416 0.08983667695477254
0.11406176045982021 -0.10606317012575783 0.09382962191059835
0.11007045463172573 -0.11729946522978463 0.08888899290516622
0.1082166905745663 -0.14557024626997628 0.09263210499241598
0.10684763148872035 -0.131035325815951 0.09985857212498433
0.10555328682510036 -0.1336261609104029 0.09402837359860189
0.113118159328381 -0.13142162351874032 0.09755273663952596
0.11002658561317104 -0.11864895909098305 0.10138656699612386
0.10901914790717739 -0.12569109885958352 0.0960449179406429
0.11293579891769069 -0.12663827626970925 0.09050082170918233
0.11175461367217678 -0.10937048285273232 0.094204415916946
0.10855256274787563 -0.12028717785147347 0.08993442857220418
0.0915894682749905 -0.1547496893909327 0.10598256194546468
0.09035070494262355 -0.143736941507136 0.1119729181523586
0.08896731093970912 -0.14959919243124642 0.10849552357151754
0.10312973216621059 -0.15350289433268227 0.10914676392033346
0.10094876841155666 -0.14169622748163857 0.11332522833302267
0.09778343394843715 -0.14900663285521187 0.10872890555813558
0.1005439336642422 -0.15234254091051735 0.10146852338269002
0.10053454593269008 -0.13632903783587136 0.10552286112263448
0.09526874378768581 -0.14676214545038857 0.1016279658074642
0.09505383924094814 -0.16069982736376442 0.1105814775223995
0.09164665893165248 -0.1535396405961863 0.11878811323597677
0.08933796242324489 -0.15426444797781624 0.11143108212902791
0.1011274035319485 -0.15246888785628 0.11362515890553243
0.09445016339866298 -0.14370050816801705 0.11843236291363485
0.09228612736312526 -0.14836925058630623 0.11163716518833883
0.10003306225387233 -0.1472011932638041 0.10927872860386617
0.09718899682609218 -0.13130312948492684 0.11411260569050558
0.09438173726646083 -0.14157512574461617 0.10827227437451131
0.09240167096702236 -0.16428072541025796 0.10861062014057882
0.09102805212585109 -0.15769238560465493 0.116232802509811
0.0903665895804562 -0.15754890232351937 0.11146717274143941
0.09567417458144802 -0.15639695315626778 0.11304308974697835
0.09321408227531093 -0.14849512069491067 0.11737047636463888
0.09060062721816677 -0.15145775466231026 0.11179604136898763
0.09556867436019557 -0.15382730751303353 0.10818975174381978
0.09397785619346279 -0.1373255827930323 0.11286040151074178
0.09008251384345668 -0.146656019380366 0.10795559489681966
0.1171082134589352 -0.16887199669150033 0.08345272147610433
0.11754431084243434 -0.16048595099714913 0.08980401360943563
0.11669944480506557 -0.16312761395243325 0.08572255575611837
0.12129457548705715 -0.1633920052554957 0.09047787392094381
0.12082465246764797 -0.1524049022701136 0.09471081697895772
0.11817862347213405 -0.1589242795017115 0.08979307615711934
0.12020774439422267 -0.16155522852209725 0.08332135283901937
0.1209638293131985 -0.14531147270468392 0.08762468898251302
0.11622591570464748 -0.1554341593292109 0.08363886678173788
0.12334810451118129 -0.17636646120814004 0.08701466524555929
0.12067745879737514 -0.1701283880975596 0.09553276503041036
0.12061755612937587 -0.1695424893405787 0.08859609568073995
0.12612073377219812 -0.1666490861680857 0.09206365549519308
0.12320305660812038 -0.16043311147955575 0.09671117865994222
0.12053038433639186 -0.16270306496885933 0.09002899134114034
0.1251432474002041 -0.15924800722864785 0.08984487259342916
0.12192233160583156 -0.1434080281761042 0.09473695361569173
0.12048508480636257 -0.15264968364504494 0.08902510011151082
0.12114139154998439 -0.18067917018202462 0.08469470345928914
0.12220020845977443 -0.17616876750258126 0.09200592839672811
0.12156646207420009 -0.17339210002688088 0.08751093351795919
0.12116162732688564 -0.17056412785319008 0.09144710504963643
0.12100358561126369 -0.16408064751890816 0.09560575091793783
0.11631556109038967 -0.16460481076506295 0.09071885549977071
0.12045578912345546 -0.16579933254984536 0.08855958783581502
0.11869059756843227 -0.1502602228429667 0.09304227435543783
0.11530579880324977 -0.15773598640230813 0.08852361643269308
0.12161956981269496 -0.1724094131496302 0.08537750446751363
0.12094883874503749 -0.16488097398546853 0.09237285458996541
0.12018142894355434 -0.16618160693911233 0.08724932873204
0.1250255580290951 -0.16519430070189156 0.09055848920300252
0.12324421361533779 -0.1565793135669581 0.09494378173306234
0.12028585628120082 -0.16086756973532357 0.08940409624531515
0.12399365261642116 -0.1622548231389872 0.08587496483280904
0.1241582508429684 -0.14605912356642403 0.09035109484150655
0.11863412216750759 -0.1558168360498301 0.08587547147228963
0.0985760565146603 -0.0891618558671824 0.11306776606991537
0.09716727093307155 -0.08378489105967202 0.1160572072263027
0.09541781500426906 -0.08506990759638466 0.11140127980664022
0.10837854698745387 -0.08769158809450783 0.11496089899494893
0.10631786540595668 -0.08468971936968483 0.11886542046025045
0.10080172375289577 -0.08547733514574685 0.11410521471455343
0.10721425965873378 -0.0896394678857676 0.10876872146084554
0.10290561870185512 -0.08326916187075295 0.11297776305630453
0.09897174194900173 -0.08588512032297768 0.10827290022328145
0.10166166976539272 -0.08312923996714272 0.11188640201046712
0.09921585277167934 -0.07838316052225747 0.11617981398060567
0.0978104348525204 -0.07867865054873147 0.11045934760525472
0.11025633171645778 -0.07914353697565712 0.11301620805218465
0.10617818192092555 -0.07601012079981484 0.1174801489110256
0.1029734785899319 -0.07722933380869546 0.1118089457745815
0.10837917283622402 -0.08092759340075173 0.10866119468167074
0.10526184991447109 -0.07578946440485634 0.11257054412319906
0.10168032601920741 -0.07781387656000771 0.10759227478459127
0.09848501041976589 -0.08962611644533791 0.11453693115666158
0.09709494069663661 -0.08490519016054787 0.11819355690434225
0.09700356677619594 -0.0843812355306498 0.1134813627000118
0.10426457480041164 -0.08439765661028542 0.11646824085667379
0.10021306828109401 -0.08047131984499611 0.11985604965641744
0.09983687356559413 -0.08233241527346291 0.11524151766255147
0.10339586690513271 -0.08631922095087685 0.11186300718739278
0.1009331519946255 -0.08095462410715737 0.1151731511349941
0.09812520698157924 -0.08314670412806191 0.11089258396580465
0.11029951528159755 -0.187545193126475 0.07991116249516256
0.10741992548553127 -0.18384252279070534 0.08328830206349142
0.1066656287058987 -0.18641511886385598 0.07839097583248861
0.11745070174781459 -0.18751095025805153 0.08234729373409994
0.11467872813789028 -0.1842090466525904 0.08551566803410299
0.11211799338904994 -0.18703083484438576 0.08099304640248067
0.11621488884536403 -0.18712945072916665 0.07816337549641378
0.1145907516822018 -0.17801216035154976 0.08206232392742879
0.11066647127715724 -0.18454085080889382 0.07783352339222677
0.1091138000830807 -0.190551904728686 0.08592068159535177
0.10580124214736598 -0.1877910473850123 0.08955310785725362
0.1046093280657925 -0.18902306049135842 0.08363391959622152
0.11500208333579677 -0.1897003182676188 0.08664005005314596
0.11238079026786464 -0.1875265219714991 0.08985658490612752
0.10805918530074733 -0.18846082477835335 0.08438630902722127
0.11250888064948696 -0.18742269068030037 0.08563088381245382
0.11332412317840236 -0.1813617476728312 0.08900203311398275
0.10992242649642604 -0.18589056818751015 0.08438458049252279
0.10767378166762966 -0.19069143920210518 0.08218576514675863
0.105344402347485 -0.1881373950746409 0.08467023575260885
0.10754163817016262 -0.1899407932069651 0.0799403687711025
0.11215470985023158 -0.19051232724455514 0.0834104021783138
0.11028360084144252 -0.18830998032358803 0.08580737316563375
0.1097464437827267 -0.1898548582103602 0.08162870013668783
0.10990236953345912 -0.18978766887453713 0.08269797766163595
0.11027224615661281 -0.18355324654844918 0.08508955442860372
0.10831083611098903 -0.18779261200693764 0.0817917784447933
0.11054654673186916 -0.18880337267187752 0.08239539468243368
0.10665892318336147 -0.1852515467908732 0.08622013533070333
0.1048335905417599 -0.18711776821879067 0.08039398992016561
0.11998664096442836 -0.18810124485758462 0.08271106088116414
0.11675454929916042 -0.185569314053332 0.08635952079251058
0.11186556771842616 -0.18714597611693062 0.08099355304196126
0.11766828850356716 -0.1882821747568003 0.07914774620487935
0.11648096397964137 -0.18065696745184578 0.083301415085342
0.11320974186507839 -0.18643438606527962 0.07847439253285177
0.10972185686675685 -0.187392143299853 0.07924302422955282
0.10707094029037136 -0.1836694309022776 0.08249335491612203
0.1066171999320187 -0.1863934972789637 0.07785098755314596
0.11674167469588893 -0.18749251752165474 0.08191301429226644
0.11412652090636867 -0.18404240696695962 0.08497752749874837
0.11201037720290798 -0.18708076863554635 0.08064477646305807
0.1153740461215176 -0.18693376868036904 0.07788049185230977
0.1136844332560696 -0.17753627686766305 0.08172245824291952
0.10978101447669643 -0.1842713186052195 0.07762487733319051
0.10082452252952236 -0.16642454057005562 0.10155611240818746
0.09822432950584072 -0.14929155795839943 0.11037986481144674
0.0943699653491177 -0.1589218804147593 0.10513805353596456
0.12060202911941188 -0.1655112185981623 0.103054513573196
0.11740874007789272 -0.14892534702089943 0.10923766100361593
0.11131821826545375 -0.16023105173376717 0.10316490137532003
0.11576654270736354 -0.16301671951082863 0.0950128933186794
0.11488156274406093 -0.14553954987791695 0.09949853026821859
0.1073939378604092 -0.15673170774248757 0.09570612513973958
0.1087311382636227 -0.17840528278616585 0.10751314961865194
0.1038030262335934 -0.16718749492434182 0.11784311139538534
0.10037334517089504 -0.17013038485315957 0.10868071520283468
0.11813210204688686 -0.16719023673800149 0.1112688382859493
0.11065666631309169 -0.15633946447638192 0.11730753385975606
0.10673494890777248 -0.1627348491456858 0.10934640967800863
0.11547400311080593 -0.15811235993174233 0.10606821382000692
0.11232044056502956 -0.13981310813692727 0.11200275027706869
0.10759385183898586 -0.1521409132984034 0.10528834664776571
0.10631458715049404 -0.17910605459479012 0.10313438379719503
0.10338442281333583 -0.1680812963750712 0.11362623178913839
0.1016445036276974 -0.17097906558779397 0.1065015693898464
0.11399264887420314 -0.16904657869604744 0.10793282592251546
0.10901429012862819 -0.1561689802911631 0.11376931273892171
0.10528250292388576 -0.16362938075331368 0.10667439305737264
0.11173253015128749 -0.16188610880640664 0.10269998514607198
0.10953398302642482 -0.1425210961606852 0.10807161533787496
0.10461108640281337 -0.1546418794896952 0.10281290614559896
0.10135267928687709 -0.11058391421106972 0.11027850711300619
0.1013609047278561 -0.10706059425142922 0.11102520430042989
0.10096232846824306 -0.10671970038679757 0.10725354158833272
0.10745893672553676 -0.10998268215922036 0.1131396194691921
0.10726346329299587 -0.1067978420760981 0.11427258455708272
0.10374488190261501 -0.10736237256792702 0.11122550570919759
0.10607280090896266 -0.10992790549067177 0.10701142752125509
0.1053884799822964 -0.10327553539541878 0.10867570841267354
0.10286493853179592 -0.10700703947809853 0.10524289810612447
0.09871234253493923 -0.1101022192743174 0.11036400997593648
0.09888495758620876 -0.10737871914175667 0.11212094628765829
0.09872384623138088 -0.1060930469539515 0.10756068432286031
0.10479332760421413 -0.10802006511953988 0.11291815841152913
0.10307912782279628 -0.10474441736010232 0.11480062210514791
0.10230513170806545 -0.10592202632692971 0.11039607727482564
0.10554443553535121 -0.1083198615815989 0.10836540663197286
0.10362832501975673 -0.10104907839564004 0.11031030619099386
0.10112123445121425 -0.1042968758848063 0.106608619331863
0.09976662949172634 -0.11425065784720101 0.11208697164013631
0.10004295662490505 -0.1122285106685511 0.1129971941705013
0.10088323310462612 -0.10946947126654305 0.1095431348080898
0.10367863133994716 -0.0994501539972178 0.11233030760243184
0.10337074354735988 -0.11130445986059823 0.11528148257687337
0.10273061946479457 -0.10869289725092568 0.11626370751812704
0.10233314589110988 -0.10843178420332589 0.11290897929623372
0.10357226685134548 -0.11163581698206582 0.1104560097451473
0.10237218693343776 -0.10479832976130166 0.11191253864720113
0.10072331384269374 -0.10762427537707009 0.10882850491955526
0.09815345958320278 -0.14322170405653634 0.1059888204331661
0.09752621010390895 -0.12940440862444558 0.1108786662812496
0.09475688890067714 -0.13527700095442452 0.10655449831440694
0.11275784925071376 -0.14533903985289254 0.1071741482014919
0.11208950236884731 -0.1330609151628367 0.11125951015904195
0.10681619003860134 -0.14042939036158242 0.10647897922947652
0.10913701609222072 -0.1441687920596949 0.09875281655743368
0.10950155809966701 -0.12906512408522286 0.10293405258610494
0.10293682173339504 -0.1387977281120173 0.09862630569889791
0.10069237903205532 -0.15198243944910683 0.11074926459744222
0.09687124446479457 -0.14138705818918862 0.11790465319111593
0.0934219534739651 -0.14299545972613015 0.11028568947270162
0.10930343226043361 -0.1424947062042109 0.11266671621754415
0.1038759227141537 -0.1343401947524897 0.1175055702920223
0.10134209946242946 -0.13862901716498055 0.11082794272854574
0.10723488286582607 -0.13628473668364205 0.10814400517895467
0.10488514855949062 -0.1232286521699778 0.11260982358410604
0.10134984806625026 -0.1321015337016932 0.10694133245899923
0.09848900393096584 -0.15636306791571297 0.10919555032208211
0.09649135426131862 -0.14584035961893715 0.11605750524952657
0.09449656561462062 -0.14625881402758278 0.11008076870396383
0.103542404924313 -0.14605514495638527 0.11269642913296468
0.1004669244631924 -0.13693801849154152 0.11681731545880086
0.09889532879439968 -0.1411669531371943 0.11111851537182577
0.10397090271560329 -0.14255611388949074 0.10747926437809713
0.10258157805053371 -0.1277999707963816 0.11152102553799398
0.09941394880859035 -0.13697869866160073 0.10671006643727071
