ply
format ascii 1.0
element vertex 180
property float x
property float y
property float z
element face 0
property list uchar int vertex_indices
end_header
0.10837321237174648 0.029531466076100684 0.10565306746914632
0.10841007784454006 0.047201948473180155 0.11099182569935567
0.10318528369514125 0.03747283131810508 0.10484646761372335
0.12562130645362513 0.02939300448628745 0.1083018680806423
0.1256734605178036 0.04400702030392967 0.11463164293720968
0.11458717540351528 0.03536977083417259 0.10767655575230367
0.12260569885818141 0.03222237736913047 0.09934677684262044
0.12082235768882411 0.049073206493581156 0.10533734166577108
0.11097280934898036 0.03908522636624656 0.0994994541402126
0.1022781308039822 0.021837638923848487 0.11306094133808858
0.09937419251052516 0.03667478472920738 0.11980061733677633
0.09523432210532802 0.03132216841908775 0.1118336518998409
0.11890350535956996 0.028475480386937476 0.11452185118153341
0.1125184769972958 0.04034181148740135 0.12098007404759176
0.10639317587463039 0.03477566153737388 0.11309163773014791
0.11455048874465602 0.03623913438054405 0.10732402408077962
0.11053960279075283 0.05245413095685325 0.11265354359104879
0.10489927486030239 0.04255269677373252 0.10618411505177267
0.10274248078910488 0.018981682369435645 0.11137725913479574
0.10035015896407741 0.034320282051289897 0.117859919905212
0.09768162921516078 0.02887745411130271 0.11075614893391378
0.116038161073605 0.02758421213361106 0.11381479108288534
0.1108860249861874 0.04026149422856651 0.11923374736263997
0.10641719654647487 0.03369833738538108 0.11215226852848775
0.11318438008872646 0.03464867384167991 0.10638760530903585
0.10994558290092128 0.05119689018460594 0.11128552758648641
0.10461767271606105 0.041014271089757304 0.10525967681362874
0.11218171075431484 -0.030248326947962426 0.10393248999073751
0.10896061614600795 -0.02698780386713662 0.10729407274677999
0.10843216136542934 -0.029110921314036035 0.10265304648831136
0.11954672888366359 -0.030519289663111352 0.1055886944527889
0.11642967418281215 -0.027666015317713403 0.10892512404873617
0.11348580077735561 -0.030029309680735253 0.10495414340451009
0.11723648265449184 -0.029808146646296167 0.10309024655773885
0.11520807698814052 -0.022899670293604516 0.1071443756814266
0.11127074316589015 -0.027474982431208276 0.1031426986451412
0.11193736151305812 -0.03362937062052407 0.10993586981251485
0.10848693803397792 -0.03155956952837624 0.11320944631054647
0.10690777257529872 -0.03237621276644387 0.10775848233654745
0.11712594584075588 -0.032997203758036275 0.11030982935383565
0.11430417255012172 -0.03141633956698098 0.11327855789616353
0.10979919389335292 -0.03205872862604775 0.10839258634999044
0.11520914987174648 -0.031804306199823995 0.10904844605877645
0.1148540253981747 -0.026959134032999658 0.11262240016415365
0.11289812878219264 -0.030700279166971826 0.10810019576504476
0.11031793311683315 -0.03330786316660561 0.10605292522862203
0.10790510729400295 -0.031237734248911523 0.10840927565052755
0.10987292483894008 -0.032485378673349996 0.10407551133587606
0.11315317705718654 -0.03331137984064736 0.10753493511631734
0.11097885922042507 -0.03141279309061684 0.10968064272358663
0.11103315905181545 -0.03300152509478249 0.10615949833348043
0.11150343969909328 -0.03301514475611367 0.10672931873753316
0.11124293759910243 -0.028147531440531396 0.1092711588139797
0.10977320626823085 -0.03134618490008034 0.10613747441723592
0.11301873878089565 -0.03151173680094399 0.10633834207012899
0.10884754613486904 -0.028611166169916772 0.11004286014988668
0.10688244060126918 -0.029986453941141748 0.10449477040722616
0.12224175289718288 -0.031030697515284204 0.10618521773770101
0.11902444318381923 -0.02926187007692971 0.10988049709751851
0.11352156356422084 -0.030194444349085473 0.104992648005035
0.11946802095023769 -0.031212610891138696 0.10317411029293783
0.11762161806670803 -0.025326711824213647 0.10746820771649129
0.11500425890533107 -0.02971924631861367 0.1027667721505428
0.11155237511245387 -0.029967112233912133 0.10315572226002462
0.10857598737327236 -0.026662511518274926 0.1064187189336086
0.10841943577376979 -0.028956247260843896 0.10200222337200887
0.11883513883201259 -0.03035406558779397 0.10495402419522054
0.11583383635131496 -0.027327490737711572 0.10820700728848226
0.11303423598853725 -0.029824180295740747 0.10441856586888082
0.11636911586372035 -0.029549015453135156 0.1027898093457485
0.11428119495956081 -0.02240888564852395 0.106814016937759
0.11014296368209499 -0.027068180730616235 0.10294317209675558
0.10818918303100246 0.08173598558636985 0.11512621247723348
0.10579251006690639 0.09330611140462242 0.11964016163304098
0.10854579762069362 0.08983527333470664 0.11504529917195089
0.11690651134101528 0.0927871039602407 0.11810879909947164
0.11417712524978298 0.09775738627644859 0.12249501550152547
0.1108213539466061 0.0956281593534597 0.11745988333180196
0.11445467427817958 0.09059767634602867 0.11017604672863729
0.10804824784843105 0.09949173242780052 0.11561854684307821
0.10588018849937099 0.09477551490994773 0.11006506288006551
0.11219670132247585 0.09243019134732566 0.11435042822315938
0.11067669347373622 0.10177417309018455 0.11940850818112142
0.1123472328528561 0.10134740383359275 0.11469947302296407
0.11860977367011684 0.1050961187574514 0.11582051718189962
0.11509101346580165 0.10975735099049888 0.12050478661015279
0.11346109465209621 0.10772924334737144 0.11476953828289754
0.1173576886996426 0.10324298054906211 0.11053140962078817
0.11188374713508266 0.11059530288907371 0.115860750317123
0.11000792935935634 0.10692768008443199 0.11032216751530416
0.11142744377700466 0.08891947777005516 0.11549713218167074
0.11046596125213283 0.09817336709233604 0.1201622983212734
0.11328898624030727 0.09817911894055686 0.11599733436062581
0.11650611713973659 0.10227851779195152 0.11710624897434957
0.11370738104430812 0.10713745863171897 0.12147410714581258
0.11252589777557033 0.10521204979153953 0.11628629767849691
0.11540566638557094 0.10067577869626365 0.11172499263241537
0.11056123927680629 0.10811196477147422 0.11693625652745016
0.1089820440158047 0.10439415485593162 0.11164491379215963
0.11217661455718654 0.08858604938718162 0.11397405469372518
0.10991688326446193 0.09861360699864707 0.11872275674298055
0.11207075670806545 0.09705876023503623 0.11412112915470846
0.11923472837058681 0.09969310672017417 0.11589251959278829
0.11587555960265773 0.10410158545705162 0.1204933723206783
0.11369662240592616 0.1020530632230886 0.11491449677899129
0.11762745932189601 0.09795730025502525 0.10995977127506978
0.11201150969115871 0.1051958969328054 0.11507086956455953
0.10973827794639247 0.10150946886273704 0.10960115992977865
0.10881965116111415 0.08070720941754661 0.11281906568959005
0.10932319120017665 0.08486072928639732 0.11413856351330526
0.10941402867881435 0.08746551186772666 0.11504652106716878
0.10965235785094875 0.08825345546933494 0.11625423037960775
0.1091906006678738 0.09169338853093467 0.11789881193592794
0.10934411243049282 0.09217931539746604 0.1180645724530483
0.11120148256866115 0.08982043177815757 0.11889561021282918
0.11033852652160304 0.09333126456471763 0.12083139026119954
0.1105483944758572 0.09328858763905845 0.12029205763294942
0.10281901315299648 -0.008665961911951684 0.09779356920674093
0.10254355028716701 0.00831417948933921 0.10573275887921102
0.09849764660445827 -0.0005873867776743404 0.1019895573849941
0.1153330977305569 -0.0028304883745066158 0.10408138239338643
0.1153069610938229 0.015043990919316626 0.10852064692929037
0.11062409237472194 0.0027926436159261235 0.10354285442784078
0.11300240710822719 0.0005614927503713139 0.09496306383564718
0.11375691250411647 0.017326520988667823 0.09871782863095052
0.10789902762023586 0.007448571035588599 0.09515570604756124
0.10849802449790615 -0.021195126464640283 0.10235207283451803
0.10562144473640102 -0.00586537807253518 0.11307020986035116
0.10372682169524806 -0.011574340751444482 0.10615025961354024
0.11412172273246425 -0.006613088538920068 0.109803279280212
0.11139749244300502 0.00947164208623252 0.11574949824764974
0.1065321739062466 5.482346745810593e-05 0.10819052660420186
0.11323942497817653 0.000976311275685645 0.10335864627316244
0.11160956576911586 0.022991525242055274 0.10845579707577474
0.10600196078864711 0.010852771112645484 0.10346358025028951
0.1068625326499142 -0.022823227336680078 0.09966366493656881
0.10523979619590419 -0.008465958526407861 0.10998963320210225
0.10317464426604885 -0.013357950141703271 0.10441394650891073
0.111843186174313 -0.009226722409998559 0.10805254185154683
0.10953130081740993 0.008916871854985572 0.11410178744747884
0.10564403489677089 -0.00091235130098977 0.10718207561924703
0.11082501963225978 -0.002944810083185815 0.10135929787113912
0.1095301683291592 0.019651638576711036 0.10632969939663656
0.10419719174949306 0.008118557045186377 0.10184999310925252
0.10278396562186855 0.04638622910710655 0.1132360001797939
0.10154925540534633 0.06751106888982139 0.11934052908375509
0.09995641068069118 0.05927200824948631 0.1138865848775173
0.11390249684898036 0.06895341188641868 0.11549391353085287
0.11078058436957973 0.08140175254079185 0.12133802974179037
0.10544361427871364 0.07435293705197654 0.11448349559262044
0.11108021691886562 0.06697778613301597 0.10525168979122884
0.10506899908630031 0.0860175362321981 0.11238270008518941
0.10003300264922756 0.07556708366605125 0.10588662826969869
0.1066409225806393 0.05798445851537071 0.11237870657398946
0.10449610904304164 0.07615874917241416 0.11979799473240621
0.10501684502212184 0.0694346299860128 0.11306076252415426
0.11734806254951137 0.08218597085210166 0.11420704925015218
0.11265053108779567 0.09457339555951438 0.12070890271618612
0.10860650495139736 0.08848403603764854 0.11303516232922323
0.11426894620505947 0.08445210964413963 0.1059258481259609
0.10882352546302455 0.10279508144589744 0.1134183903928066
0.10504968718139308 0.0923961868974813 0.10656585299923665
0.10409347966758388 0.04985048086377464 0.11477427685215719
0.10262017205802577 0.06700353533955894 0.12173109257176168
0.10432113960830348 0.061320321867192606 0.11591543757870443
0.11260701969710964 0.07547681243153892 0.1164711316819454
0.10785989717094081 0.08849145681592308 0.12275745475247152
0.10552175596801418 0.08241208107205711 0.1156793435807491
0.10978450134841579 0.07643945724698387 0.10844736301853902
0.1050215537890591 0.09418143541547142 0.11538343632176168
0.10150341943351406 0.08463497669431053 0.10918982827618368
0.10618515566436428 0.05494834692212425 0.1122710903878475
0.10318620756713527 0.07420022995206199 0.11972569429829366
0.10235716656295436 0.06744311959477745 0.11276691162541158
0.11791070059386867 0.07949067861768089 0.11357670032933004
0.11316423371879238 0.08993126661511741 0.1198713978524471
0.10846002653686183 0.0843659511301168 0.11203171813442953
0.11566744998542446 0.079048143932546 0.10476203763439901
0.10847424224464076 0.096455769846166 0.11236899101689107
0.10451920584289211 0.0868802538606771 0.1054734190697933
