ply
format ascii 1.0
element vertex 388
property float x
property float y
property float z
element face 0
property list uchar int vertex_indices
end_header
-0.1793051851581212 -0.048882879465969184 0.14704915589358727
-0.18076478369938095 -0.0471363143624383 0.14996516412761132
-0.1800460559915181 -0.04713229104891596 0.14794322556521813
-0.17655185290085038 -0.04708046481028376 0.1479989857104055
-0.17660357483135422 -0.046625353545101264 0.1505339116480581
-0.1791380686353322 -0.04647699758425532 0.1471721500780813
-0.1757404101680394 -0.047569580525310615 0.14544963544871728
-0.17844303377376755 -0.04539612695589838 0.14809235638644616
-0.1793347341607686 -0.04597068592921076 0.14453920430209558
-0.1796416086743947 -0.04564804598704157 0.14521673029925744
-0.18141988344894608 -0.044493504017742255 0.14808755821254174
-0.17928705044494828 -0.04398901030436335 0.14609390205409448
-0.17500573821769913 -0.04493982359782038 0.1457135648157827
-0.17658000119434555 -0.044554032534511664 0.14808174675967614
-0.1779214484284993 -0.044595517367275336 0.14501923030879418
-0.17659593053566178 -0.04570806786433039 0.14428522891070764
-0.17873414285885056 -0.04431960746661005 0.14661591953303735
-0.18049735255943497 -0.04431793853655634 0.14295786327388207
-0.18466255493866165 -0.04699740573778925 0.14529984897639672
-0.18534876831279953 -0.0466480331124383 0.14630186265971581
-0.18210637994514664 -0.044465191811473945 0.14637764996554772
-0.18113555439220627 -0.04544300600901423 0.14559191173579614
-0.18199085124241074 -0.04537520572558222 0.14647331542041223
-0.17972164281116684 -0.044482119530590156 0.14626672572162072
-0.18310624786125382 -0.048082150668056586 0.14620667404200952
-0.18399404414402207 -0.047697968930156806 0.14699810451533715
-0.18616444297538956 -0.04696304366007624 0.1454074651625387
-0.1799813849519368 -0.044816769808681586 0.14593442982699792
-0.18172952957855423 -0.043834544867427924 0.14857986277606408
-0.1791203809569951 -0.04317680761233149 0.14669099158313195
-0.17446394689785202 -0.043924667090328315 0.14606436795260827
-0.17674220033394059 -0.04347042009249506 0.14831861561801354
-0.17725964315639695 -0.04363910123720942 0.1455634207155935
-0.17651458509670456 -0.04525182411089716 0.14512195891406457
-0.1785889459441777 -0.04407770201578913 0.14727833575274865
-0.18067437835441788 -0.04391241833582697 0.1436611384775869
-0.18619797058807572 -0.15098852679148492 0.12207680648829858
-0.18616833217846115 -0.14946737155333337 0.12287991947200219
-0.185488630611765 -0.1489109323920327 0.12218591279055993
-0.18602431245552262 -0.1509016232194024 0.12527110880877892
-0.18681918509708603 -0.14898199602976617 0.126276043119692
-0.18555990286575516 -0.14959048494711694 0.1253637046244375
-0.1844391567300435 -0.15222965940848168 0.12242725199725549
-0.18503624625908097 -0.14800225958243188 0.12452217644717614
-0.18429024942623337 -0.15043716892615136 0.12299686378505151
-0.1842071009467717 -0.15232761964217004 0.12450292414691369
-0.18525357969509323 -0.15157798692599114 0.12618103331592004
-0.18603966065155228 -0.15197827681914147 0.12241816228892724
-0.18369056709514817 -0.15066076084986504 0.1255499393370382
-0.18479763396488388 -0.15008778139963921 0.12699001735713403
-0.18474099465118607 -0.15126860901728448 0.12333959049251
-0.18275706895099839 -0.14845184251681146 0.1263383299734823
-0.18436156638370713 -0.14568106099978265 0.1285399169352285
-0.18626593478428086 -0.15251744553461846 0.12390258616473596
-0.1858589244674321 -0.15297818943873223 0.12328275746371667
-0.18667333253132065 -0.15287330016508874 0.12235438531901757
-0.18604773708091935 -0.15217690929785546 0.12444930976893823
-0.18567902274833878 -0.15260604783907708 0.1239366204169027
-0.18591686018215378 -0.15283932551756677 0.12272816604640405
-0.18750139005886277 -0.14949768051520165 0.12844195670154016
-0.18821764417396744 -0.1483960525693017 0.12925982183482568
-0.18617830105529984 -0.14883931741133508 0.12730139202144067
-0.1862898064445134 -0.15075441464796838 0.1225303978350393
-0.18706395157085617 -0.14928423628226098 0.12352943128611962
-0.1856862498115178 -0.14934241041556176 0.12192257946994225
-0.18503366835819443 -0.1504067705573159 0.1239770621683828
-0.18591060169445237 -0.1488143132628518 0.12507629102733056
-0.18467784353004654 -0.14974794551745232 0.12337073391940515
-0.1855949354957219 -0.14926853045836266 0.12426516121890466
-0.18555295892463883 -0.145582385510357 0.12622680968310754
-0.1844108147214528 -0.1483853684367257 0.12427520460154931
-0.20328103430973252 -0.12115196153536616 0.12237360781695764
-0.20104098745094498 -0.10053948327914057 0.12678652709987084
-0.2011315269063588 -0.10847490295782862 0.12398671812083642
-0.19414571352707108 -0.10255790516749201 0.12504070705439965
-0.19654015131698807 -0.08435813352480707 0.12886348074939172
-0.2003508848737355 -0.0947195218504983 0.1250190407660238
-0.19629626401172837 -0.10185388490572748 0.1153548926737539
-0.1994029028009053 -0.08232929572478113 0.11905488080050866
-0.20365789957748612 -0.09343277677908716 0.11577239340808312
-0.20420563646064957 -0.10827746257201014 0.1203382284071676
-0.20509407349334915 -0.09331273302450953 0.12786972230937402
-0.20397913881050309 -0.09619059428587733 0.1210021049406759
-0.19438295491443833 -0.0894031451644021 0.12473714059855859
-0.20007174142109116 -0.08010526761427698 0.13042205280330102
-0.20252314635025223 -0.08436695501223383 0.1230046421911947
-0.1954828841279622 -0.08531384930029688 0.11842754191424767
-0.19985469110714157 -0.06885445877924738 0.12449988431003015
-0.2029044521640416 -0.07962933942690668 0.11832561797168176
-0.20570210047470291 -0.11422111853972254 0.1192272276308767
-0.2065403950999852 -0.10225259527579127 0.12753343290355126
-0.20257622428642472 -0.10019149646178065 0.12124409979846398
-0.20177346893058976 -0.09328997895136652 0.12430920905139367
-0.20571461745010575 -0.08419025704279719 0.1294387847807638
-0.20575091667877396 -0.08634937569514094 0.12382146424319665
-0.20203701086746415 -0.08725050851717768 0.12101909226443688
-0.20521863229976853 -0.07325375840082941 0.1262826294329397
-0.2079994422982808 -0.08156263098135767 0.12146052426364343
-0.20232031174408158 -0.11259181067362604 0.12026101058986108
-0.20209220476852616 -0.09380479916945277 0.1271879941847555
-0.20129923947559555 -0.10032945141211329 0.12104683822657983
-0.19242816098438462 -0.09389091297999201 0.12430774873759667
-0.1965272171090718 -0.07961226269617853 0.12951451248195092
-0.20016599126564225 -0.0874023215474206 0.12278002208735864
-0.19454995222793778 -0.08915723130122004 0.11674013442065637
-0.19770756788955887 -0.07094425722971735 0.12198245233561913
-0.20197469421135147 -0.08221765622511683 0.11675029701259057
-0.18530244060264786 -0.11991118654623804 0.14045080250766198
-0.18551852234111985 -0.12065505251303492 0.14026528305079858
-0.184070755321848 -0.11964765951052485 0.1405224770930044
-0.18501010962234696 -0.12038023039713679 0.14160597032573144
-0.18518905766712387 -0.12088390454665003 0.1413783699896566
-0.18387635477291306 -0.12020642325297175 0.14158951944377343
-0.1843783450912114 -0.12386360034361658 0.139902409973406
-0.1844224227260228 -0.12212764486685572 0.14050239032771508
-0.18290457554565628 -0.12285438939944086 0.14013462966945092
-0.18380074628101548 -0.11883433923140345 0.14010458892848413
-0.18376687594162186 -0.11894073352232752 0.14000716513659875
-0.18252663739429673 -0.11931624278441248 0.13907146162059228
-0.18298790283905228 -0.11843254432097254 0.1405307025339834
-0.1828817469667073 -0.11850977703944025 0.1403868169214956
-0.18183114059673508 -0.11913736924544154 0.13953780836131494
-0.18261985905872544 -0.11789999172106562 0.14089455908801476
-0.1835400653670903 -0.11655675634756861 0.14193513697650353
-0.18119524844394883 -0.11731480821982203 0.14026713079478662
-0.1850487632344838 -0.12108369931593714 0.1387630969908468
-0.18384448118911942 -0.12169642016306696 0.13683795637156884
-0.1829810483049031 -0.12245083615198908 0.13846572941806237
-0.18500985630260666 -0.12113603219404993 0.13869398540522973
-0.18383455701576432 -0.12176848217860041 0.1367932230856649
-0.18295674451099594 -0.12251237794771967 0.13842680758502404
-0.18672974832760056 -0.12154404088869868 0.13961645669009606
-0.1862602276395436 -0.12200347349062739 0.13914707011248986
-0.18333474226700028 -0.12164898976698695 0.13906910723712365
-0.18475312419639786 -0.11906156703844843 0.13969996279742639
-0.18457366951214035 -0.11980076894179163 0.13927530950572412
-0.18355137534843644 -0.1192742960156518 0.1392385632422201
-0.18418685026870926 -0.11930268272772608 0.14054944819476525
-0.18403310008751114 -0.11976537868395624 0.14008250540759484
-0.18348761327968796 -0.11946960553541956 0.14000287360217492
-0.1850967002700444 -0.1201338844002801 0.14073764986064355
-0.1851727855991002 -0.1183919535578805 0.14163458055522363
-0.18310495146022995 -0.11943296358004389 0.14078023737933557
-0.19125236995922287 -0.06596792504206477 0.1231007844832174
-0.1927752984355565 -0.051062680930049995 0.12886264628436486
-0.19420239754425248 -0.05892825886622248 0.12457039660479943
-0.18060768075691422 -0.05839527413264094 0.12719773954417626
-0.18374757893787583 -0.051823295802028754 0.13184278911616723
-0.1870340896438237 -0.056619979590328315 0.12602352804210107
-0.18541101046310624 -0.05754319593325434 0.11947408026721398
-0.18984374829040726 -0.04722452923670588 0.12383427924182336
-0.1909679365943547 -0.05570165082827387 0.11860105103518884
-0.19136169977890213 -0.051055826395900825 0.12154781526591699
-0.1964843762706395 -0.04391450449839411 0.1272485227015249
-0.1939543230126973 -0.045455344170482734 0.12198862141635339
-0.1767603350471135 -0.04690612122431574 0.12100922769572656
-0.18238811619983872 -0.0450073556603509 0.1268125445273153
-0.1878915024589177 -0.045072294920833686 0.119426575365328
-0.182156835276949 -0.04629544183626948 0.11830487555529992
-0.18781210907207688 -0.04173807069674311 0.1222281426813833
-0.18922123738037308 -0.04465160533800898 0.11637645668055932
-0.19608733483062943 -0.05455122157946406 0.12075727886226098
-0.19986571796642502 -0.04975000783816157 0.12636094993617455
-0.19599524565445145 -0.04840383693590937 0.12220540350940148
-0.18826698191868027 -0.047943271845729926 0.12107491201426904
-0.19127551146255692 -0.04727078244105158 0.12569775885608117
-0.1936365557502385 -0.04696355029955683 0.12050142592456262
-0.19029944070087632 -0.049177326411159614 0.12014376825358788
-0.19558348186718186 -0.04625061914339838 0.12394869035746972
-0.19599423237549027 -0.04760623738184748 0.11874213522937219
-0.19130939670311173 -0.05139575168505488 0.12133428162600915
-0.19632053800331314 -0.04404345914736567 0.12704062170054833
-0.1940020663331624 -0.0456811563672143 0.12182131117846887
-0.17678325303302964 -0.04718843862429438 0.12092026776339929
-0.18240261502968033 -0.04522753521815119 0.12668379849460046
-0.1878469330857869 -0.04536897704020319 0.11933371132876794
-0.18218581803547104 -0.04653296634569941 0.11807658976581017
-0.18778497405754288 -0.04191131159678278 0.12197723692920129
-0.18922907539116104 -0.04488305017367182 0.11617859906222741
-0.1872872156690236 -0.07870467767134486 0.12914725846316735
-0.1885362608026143 -0.06889028117075739 0.13170304602649133
-0.18794295616852005 -0.07302881047144709 0.12893771833445947
-0.17823617585407456 -0.07556412383929072 0.13024103349711816
-0.18125869758831223 -0.07019922897234736 0.1337836057570211
-0.18354455061660965 -0.07308203741923151 0.12956261343028466
-0.18032114632831772 -0.07518700525179682 0.12438147968318383
-0.18332656152950486 -0.06641707584276972 0.12786277836825768
-0.18474218674408158 -0.0724266843499261 0.12397157854106347
-0.18572776444660385 -0.07197649046793757 0.12668767279651086
-0.188212920505869 -0.06721884772196589 0.1310407192137472
-0.18609597213970383 -0.06752214595690546 0.12690788215663354
-0.1775285793136235 -0.0696970300377923 0.1271744043257467
-0.18190926738487442 -0.06728697583094416 0.13104274577166955
-0.18273519404636582 -0.06820092365160761 0.12608030146624963
-0.17885858245598038 -0.06822884842768488 0.1244052917387716
-0.1821176005195256 -0.0638030247391778 0.12754726118113915
-0.18336540885673722 -0.06589431330576716 0.12322738474872033
-0.1894215089868184 -0.07496432229891596 0.12486973113086144
-0.19063094683395584 -0.07180867359057246 0.1285138101008169
-0.1883148891519185 -0.06925899550333796 0.12649219936396996
-0.18421614595161637 -0.07043633624926386 0.1266265184309713
-0.18670146592365464 -0.06920472547426997 0.1297994226839773
-0.1852877927611943 -0.06892795130625544 0.1269026369478933
-0.18541169591652115 -0.07037661239519892 0.1263276905443899
-0.1886609686206456 -0.06788475081339655 0.1290817231562368
-0.18926991947399338 -0.06843937203303156 0.12566685384776513
-0.1870217514823552 -0.07460362479105768 0.1264579862978689
-0.18956508167492112 -0.0688594953717309 0.1305122048285238
-0.18743138440357407 -0.06977797314539728 0.12678384489085595
-0.17992516287075241 -0.07200361058131037 0.12703811830546777
-0.1836156291555043 -0.06919748350992976 0.131003883543276
-0.18498510547386368 -0.0704752282799798 0.12586107558276574
-0.1805672539065953 -0.07067308589831171 0.12365773028399865
-0.1839794559072133 -0.0652179794015008 0.1269922823336355
-0.1848724079917546 -0.06828672453776179 0.12279697960879724
-0.18913989194141587 -0.1119815634192544 0.13046720332171838
-0.18936711974846085 -0.10349205896273432 0.13348978466060082
-0.1883741808723088 -0.10388348266497431 0.1293002337839834
-0.18263265915619095 -0.10503049954787073 0.13374077981975
-0.18435085244880875 -0.09739335641279993 0.13597958988215844
-0.1854244066070195 -0.1009576992692071 0.1322817177202932
-0.18339562841163834 -0.10432869955912409 0.12813436693217675
-0.18404648133026322 -0.0933249221743661 0.1307655245688192
-0.18712895043598374 -0.09999921187773524 0.12737238115336816
-0.18346272834049424 -0.11382063493147669 0.1287300855543844
-0.18677828140960892 -0.10889969035998164 0.13533863133456628
-0.18524216540561875 -0.10612600311652003 0.12917262023951928
-0.17807171173797806 -0.10175328716650782 0.13063507980372827
-0.18178013392196854 -0.09891407951727686 0.13512021011378686
-0.1810415429662343 -0.09971752032652674 0.12971520132090966
-0.1769056809733983 -0.09859042629614649 0.12769242829348962
-0.1796313864778157 -0.09251476094141779 0.1323311597731344
-0.18314563163028916 -0.09501544401064692 0.1284457415964834
-0.1843098146508809 -0.11618285641089258 0.12316339916255395
-0.1865993482659932 -0.11487338706866083 0.1292677790549032
-0.18500338919864853 -0.10813019439593134 0.1264177531626455
-0.18382013269172867 -0.1047588215769845 0.12687229818370263
-0.18604509957538803 -0.10313030347243128 0.13022556609179894
-0.18465091713176926 -0.10157949492350397 0.12782776063945214
-0.18464172311531266 -0.10052800938502131 0.12695946997668664
-0.18664275534855088 -0.09706614181414423 0.13077300495173852
-0.18777005799518784 -0.09778552517309962 0.12832084006335656
-0.19907129235969742 -0.11271452173605738 0.12425768083598535
-0.19447449274765213 -0.0928140954674798 0.12920930689837853
-0.1931850654672261 -0.09855734571829615 0.1251743108656637
-0.19467056222664078 -0.08801674112692652 0.12606036371257226
-0.19587131269680222 -0.0728190319241601 0.13131975835826318
-0.1981582088063832 -0.08203569814577875 0.12675431078936975
-0.19772418268429 -0.08628799781218348 0.11738365596797387
-0.19850957818733414 -0.06983143851176081 0.1221477062132589
-0.2022856367419835 -0.08054342135802088 0.1180704802897207
-0.2009874326776143 -0.09203382596388636 0.11895337409045617
-0.20058045216308792 -0.07819097504034815 0.12590440815951745
-0.19695553608642777 -0.07854040727034388 0.1196106345083944
-0.19690952130066117 -0.07076711222544489 0.12203159636523644
-0.20076838560806473 -0.06254995629206477 0.12833183712031762
-0.20253014989601334 -0.06534475848093806 0.12195539182689111
-0.1972092730592366 -0.06554792091265498 0.11836752003695886
-0.19996947475181778 -0.05389095112696467 0.12400003975894372
-0.2020882112573262 -0.06211886569872675 0.11808407014872949
-0.20246929355369767 -0.0958772377671319 0.11602279252078454
-0.19991313346134384 -0.08635009095087824 0.12221991724040429
-0.19689704902874192 -0.080104731172474 0.1182649702456228
-0.20196934469448288 -0.0741644577683526 0.11883321112658898
-0.20501219161258896 -0.0677233414353448 0.12490585154559533
-0.20354593225227555 -0.06757549211397944 0.120339182081484
-0.20385715790497025 -0.06694624587908564 0.11980604833629052
-0.20671347208725174 -0.059246964901836494 0.12497493332889001
-0.2077514422725316 -0.0638442115487176 0.12034487432506005
-0.2010046137164708 -0.09511155650034724 0.11876699036624352
-0.19963659771190842 -0.07961181566134272 0.12547683424022119
-0.1965231341909047 -0.0813469962777215 0.11941870755221765
-0.19667539425598343 -0.0727364496888238 0.12186681932475488
-0.20009240933166703 -0.06304547950640498 0.1280795306589834
-0.20188929565654953 -0.06711424157038508 0.12179225391414086
-0.19741017051445206 -0.06778667137041865 0.11720108694102685
-0.19971435197101792 -0.05433834359064875 0.12266030615832726
-0.2023517233918782 -0.06385887429133234 0.11694776720073144
-0.18528524466263016 -0.08073624238386927 0.13604834383990685
-0.1828718227933522 -0.0650738851727563 0.14165433949496667
-0.18303199537502488 -0.06913504764452753 0.13712784356143395
-0.18017763324485978 -0.06113804146662531 0.13920873111751
-0.18239045568214615 -0.053117938488872626 0.14440679258372704
-0.18376636930214127 -0.058167703598888496 0.1388921708491079
-0.18478107877479752 -0.06033024951830683 0.13340449041392724
-0.1862857235263463 -0.05006677672282038 0.13788684910800378
-0.18801947363125046 -0.05829647943392573 0.13246681994464318
-0.1847346467565175 -0.06533385083094416 0.13162618583705346
-0.18539311416851242 -0.054652758091838935 0.13826676911380212
-0.18178755470024308 -0.05347178146258173 0.13284089869525353
-0.18059009738670548 -0.04848811790362177 0.1334901124861471
-0.18303695746170243 -0.04454565808192072 0.1398307055857412
-0.18559608288513382 -0.045238085240276435 0.1337891787913076
-0.1823634845803853 -0.04726836845293818 0.13144641822841088
-0.18633757956730088 -0.04172203704729853 0.1360799343016378
-0.18661383219467362 -0.04548297092333613 0.13043242401149194
-0.18885168858276566 -0.06885112091913996 0.1277600497629873
-0.18779449589954575 -0.06011614963427363 0.1346795529749624
-0.18459593184696396 -0.055817611664684394 0.13110238021876733
-0.18725556560264786 -0.052488990277202704 0.131596323910021
-0.188952569444048 -0.04978013798609553 0.13660007423427026
-0.18956846423851212 -0.048829056471737006 0.13284980958964746
-0.19037442334400376 -0.04986921712771235 0.13226946896579186
-0.1941422862599965 -0.046177663058193305 0.13684516853358666
-0.18461308308349808 -0.06821117565050898 0.13172772234942834
-0.18473373778568467 -0.05631176397219477 0.1381151646998159
-0.1815704596828099 -0.056272514313610175 0.1328533262636892
-0.1800746364186879 -0.05063084527865229 0.1336354286101095
-0.18238173850284775 -0.04577935501948176 0.13962733453776757
-0.18486237951027115 -0.04737941190615473 0.13370212620761315
-0.1824516398500081 -0.049681373089702704 0.1308561236288778
-0.18625842459903916 -0.04291478559389887 0.13572606152560632
-0.18649840780006607 -0.04785761997118769 0.12986734217669885
-0.19297962315784653 -0.12230936452761469 0.1221901149180166
-0.1933250618766423 -0.11402147278204737 0.1243638665106527
-0.19403885730015 -0.11489795908346949 0.12079375690486352
-0.18939017184482773 -0.1181812511385995 0.12527274793651025
-0.18981446750866135 -0.11163381502047358 0.12705948657061975
-0.18981057830558976 -0.11575572952643214 0.12409969872500817
-0.1897278768609639 -0.11641850337401209 0.1194595069315664
-0.18926337786422928 -0.10613463088885126 0.12159678048159997
-0.19131799467312058 -0.11352708205595789 0.11871054476764123
-0.19158165581928452 -0.12123111650362788 0.12206351465251367
-0.19602890737758835 -0.11772047743216334 0.12760802811648767
-0.19583692081676682 -0.11591940388098536 0.121859756174349
-0.1881404561589833 -0.11405957505122004 0.1234699160483114
-0.19077168830143174 -0.11264272794142542 0.12678482836749475
-0.19022262521492203 -0.11361198887244044 0.12206279939677636
-0.18610857852207383 -0.11261182293310938 0.12073626822497766
-0.187956173498499 -0.10812779530897913 0.12393366998698632
-0.18971683510051926 -0.11013043686762629 0.12029820388820092
-0.19026722439037522 -0.12292443975821314 0.1161437601473562
-0.1916674418042775 -0.12295929357424555 0.11961635655429284
-0.1926742834638234 -0.11917760238066492 0.11862572735812585
-0.1905123633931752 -0.11648801729098139 0.119221177759432
-0.19207902677761277 -0.11610122784987269 0.12123483127620141
-0.19182280131088456 -0.11587434276953516 0.11996018594767968
-0.19100566633449753 -0.11490365132704554 0.11957305377986352
-0.19146088190780838 -0.11308676764384089 0.1215543121721975
-0.19171423145042618 -0.11264386042967615 0.1195818156626455
-0.1850984139035817 -0.08204726144686518 0.14472955173518579
-0.18281715043293198 -0.06666291520014582 0.14814671582248132
-0.1834637565206166 -0.07202953860178767 0.14541247195269982
-0.1796229375194188 -0.06885541245356379 0.14736932224299829
-0.1811299068521138 -0.05930528804674921 0.1513859600451223
-0.1824971777986165 -0.06570718452349482 0.14769231981303613
-0.18162391014801224 -0.06987706586733637 0.13953780836131494
-0.18310761876808365 -0.057453401535900214 0.14361178583171288
-0.1854828191588994 -0.06664688155070124 0.13963120883967797
-0.17836726136909684 -0.07117987439051447 0.14586531824138085
-0.17998539336429795 -0.059731103629024604 0.14983811682727258
-0.18230367131935318 -0.06799850627795039 0.14594420498874108
-0.18279812165008744 -0.06937582060709772 0.14143112010028283
-0.18332867749439438 -0.059466518610866645 0.14629929965999047
-0.18025842734085282 -0.05903355047121821 0.14191832846667687
-0.17812869377838333 -0.0574050025643426 0.14297607249286096
-0.18033272453056534 -0.053711511343868354 0.14759927696254174
-0.1819843990396138 -0.05513317152872858 0.1427943379309408
-0.17929529078708847 -0.05506417915240107 0.1397883266833059
-0.1830340964387532 -0.04752222463503657 0.14404713815715234
-0.1832247567962285 -0.05264488622561274 0.13943874544169824
-0.18462704547153672 -0.06955406829729853 0.13883733457591454
-0.18497629888759812 -0.06255225107088862 0.1445883185293905
-0.18182520993457993 -0.0587480144204217 0.14108141964938561
-0.18226954766021927 -0.05767742559328852 0.1416600913431875
-0.1849058610986348 -0.05537647768870173 0.14630004471805017
-0.18394051917301377 -0.0547904150189477 0.14303180283572595
-0.18425500818000992 -0.05549529954806147 0.14169138378169457
-0.18748735316501816 -0.0511680321396905 0.1456631988909475
-0.18764317460762223 -0.05324707195177851 0.14188784069087426
-0.18481834657894333 -0.0731479601563531 0.14197075075175683
-0.18528017826782425 -0.06156543657198725 0.14680960482623498
-0.18220855720745285 -0.06271661087885676 0.14248844689395349
-0.1800654424022313 -0.060939230173976996 0.14339559978511254
-0.182109404880869 -0.05565593406573115 0.14796277588870446
-0.18380010553108414 -0.058371134251506904 0.14323496526744287
-0.18163165875183304 -0.059585757702739814 0.13917091197040002
-0.18479294009910782 -0.050758399218471625 0.14355519122149865
-0.1855496508668538 -0.0570528285206872 0.13903107947375695
-0.18246330745922287 -0.07503721877947626 0.14135944551494042
-0.18199246056781967 -0.07050783202067194 0.14321800774600427
-0.1791167301725026 -0.06540492936983881 0.1442935735609762
-0.18445715733276566 -0.06603763267412958 0.14255344575908105
-0.1850497318099614 -0.06341976687327204 0.14512398547198693
-0.1848804397176381 -0.06240222617998896 0.1458865076925985
-0.18518336542354782 -0.06492093965426264 0.14411520666148583
-0.1867989344190236 -0.0607905165852624 0.14731231040027062
-0.1865566862414952 -0.06152845188990412 0.14623766845729272
