ply
format ascii 1.0
element vertex 412
property float x
property float y
property float z
element face 0
property list uchar int vertex_indices
end_header
-0.058193717677461704 0.16353037193402473 0.25940710014369406
-0.058289383132326206 0.16971328094586555 0.26138639158275045
-0.059131358344423374 0.16862546637639228 0.2590926260378591
-0.05453893967376908 0.16593181326970283 0.2618353337671987
-0.05526689120041092 0.17132367923840705 0.2639734715845815
-0.05558065005050858 0.16824942067250434 0.2618244261172048
-0.05449924298034867 0.16626205280408088 0.2555258840944997
-0.05527222581611832 0.17562829688176337 0.25848138040568747
-0.05662879772888382 0.1691429837046546 0.255873438778185
-0.061359916407930454 0.16653355196103278 0.2611428470041982
-0.06519440241562088 0.16957762077435676 0.26516455120112814
-0.06500435300575455 0.1697785480318946 0.26017397350337423
-0.056242500026094516 0.1704807205496711 0.2609621257212392
-0.06014016695724686 0.17221941784009162 0.26412862247493185
-0.05928710528122147 0.17076402142628852 0.25995033687617697
-0.055584077317583164 0.1706344707308692 0.2587501377489797
-0.05681309529052933 0.17426031067952338 0.26151430315043844
-0.058512572724687656 0.172350279837696 0.25772088474299826
-0.060496364314424594 0.1654355747996253 0.2564474911120168
-0.061246101338731845 0.1655668838320655 0.2585822910692922
-0.06200558372245987 0.16689505413159553 0.2572760552790395
-0.05960277147995194 0.16896393135174934 0.25773298448588766
-0.06035873718963822 0.16923039391621772 0.25909375852610983
-0.059720341641771396 0.16855063274487678 0.2577726215746633
-0.058844123561250766 0.16947185233220283 0.25734811729457296
-0.05977034993873795 0.17130314543828193 0.25918090051677145
-0.059216801602708896 0.17115115359410468 0.2569793433573476
-0.10714994796024521 0.22346555426701728 0.26041900819804586
-0.10884605773197373 0.23644118741139594 0.2660825819399587
-0.10880749352680405 0.23103373482808295 0.261719283523821
-0.09622078068958481 0.23458980754002753 0.26339375680949606
-0.10079218872295578 0.23989587262257758 0.26833980983760275
-0.10274158843265732 0.23609053328618232 0.2627130717661611
-0.10098624654518326 0.23381977513417426 0.25642585462596335
-0.10470499523388108 0.24123679831608955 0.2614352673914663
-0.1069930238317128 0.23565714791402045 0.25591218179728903
-0.11002618499504288 0.23597835734471503 0.25551444000270285
-0.11565351911293228 0.24383544161900703 0.26163154548671164
-0.11262129672275742 0.24256335929021064 0.2559756607439748
-0.09851031430469712 0.24408601954564277 0.2556206554796926
-0.10374828108059128 0.2460518999396247 0.2612467379000417
-0.10757241078125199 0.24530553057774726 0.25410747236277975
-0.10417570598827561 0.24079363778218452 0.253449556293749
-0.11017428763614853 0.24527727797612373 0.25749808258082785
-0.11107406445251664 0.24245660737141791 0.2514869541552297
-0.11183372565017899 0.2334498687086982 0.2572045893099538
-0.11567658611046036 0.23843645289525214 0.2628990382578603
-0.11152434774147232 0.2403894586859626 0.2582826585200063
-0.10640339978443344 0.24239384368046943 0.2570953936007253
-0.10889386065708359 0.24340283110722724 0.2621363968279592
-0.1106122625659581 0.24386655524357978 0.2572200865175954
-0.10781078465686997 0.23915534451588813 0.25702482170131125
-0.11283468135105332 0.2416958732901496 0.2606775731470815
-0.1125169587920781 0.24065958693608466 0.2556952208903066
-0.035747562129366 0.23498433068379584 0.2806244463351003
-0.03624669142471512 0.24054949715718452 0.28484910434749044
-0.036123935658800205 0.23985623553380195 0.28231221145656027
-0.031019542891847687 0.2388107700644416 0.2823368877794973
-0.0333420080731984 0.24126165345296088 0.28611582225825705
-0.03459644742714127 0.24048446848973457 0.28198140567805685
-0.03260234423385819 0.2395424766837043 0.2791358203318349
-0.03543788619743546 0.24352001383885566 0.28242248004939474
-0.035984162766801914 0.24126391842946235 0.27833330339457907
-0.03545454569565018 0.24316620066746894 0.2778595060732595
-0.03808328934417923 0.24648796752080146 0.28218483633067526
-0.035237376172411045 0.247664742022602 0.27932148880031027
-0.029131386954652862 0.24598436787709418 0.2787834972765676
-0.030806486089098053 0.24653785660847846 0.28242104953792013
-0.032832060534822544 0.24698965981587592 0.27822553819682516
-0.031162415225374298 0.24594622090443793 0.27754324382808127
-0.03464144893394669 0.2483022136984748 0.28062390989329733
-0.035462234694826206 0.2474470062552375 0.27617293304469503
-0.03929418750511368 0.24114453032597724 0.2768879503634206
-0.04096982308136185 0.2427303119002265 0.28000944561030783
-0.03758421965347489 0.24639933541402045 0.27912610477473654
-0.0352074546407338 0.24521618321522895 0.27818250364329733
-0.036584917981493076 0.24543004468068305 0.28024720853831686
-0.03498512931572159 0.24703799918278876 0.2792611688997976
-0.03765595384346207 0.24481337502583686 0.2792981237795583
-0.03989825077758988 0.2457942290602607 0.28136479562785544
-0.04138645954834183 0.24607228472813789 0.2786567778017751
-0.03531343169914444 0.242970339804737 0.27788603014018454
-0.037947599370348056 0.2464171572028083 0.2822561830904714
-0.03518361278282364 0.24748539164647285 0.2793722719576589
-0.02918017335640152 0.24580263331517402 0.27888101047542013
-0.030731861073839264 0.2463662548361701 0.2825206488993398
-0.03283274598823746 0.24679171279057685 0.27828031486537375
-0.031125311334001617 0.245886497050373 0.27751248783137716
-0.03461334534393509 0.24834477141484443 0.28064298337962545
-0.03537375159965714 0.24739336207493964 0.27615230983760275
-0.03765073843704422 0.23884593680485908 0.27782475656535544
-0.03769910760627945 0.2389761729536933 0.2781026334192983
-0.03617594071136673 0.24138139918431464 0.2817202181246511
-0.0378041011880513 0.2410101814566535 0.27859008020427145
-0.037907664258348545 0.2411581797896308 0.27891999191310324
-0.037171874720918735 0.24310886099919501 0.28216284221675314
-0.04065221973167618 0.2430093212424201 0.27690773910548605
-0.04221249051796158 0.24410998061284248 0.27914225763347067
-0.04254267044769486 0.24531816676243964 0.278559681835436
-0.0784106446097966 0.19185530379399482 0.26499712175395407
-0.08150420017944535 0.21174102261647407 0.2702022165682546
-0.08409469254718979 0.20119499400242988 0.2655636042978994
-0.057863299329149326 0.20510446265324775 0.26556372350718893
-0.0677554053853627 0.21867948010548774 0.2720916838076345
-0.07192069717155655 0.209814719706623 0.265478786888384
-0.0648538214753743 0.20627158120259467 0.2571068376925222
-0.07163742609726151 0.22125481799229804 0.2634779781725637
-0.0777341765950795 0.21089028552159492 0.2570915789034597
-0.0813565743754979 0.21644251778706733 0.2625665635493032
-0.08775337465511521 0.22964125111684028 0.26913064426448263
-0.089445431310999 0.22392695382222358 0.26116257614161886
-0.055812422711717685 0.22510503962620917 0.2600839108851186
-0.0692270440648671 0.2312028928099555 0.2676724762346975
-0.07664925285087784 0.22898720934971992 0.2583366603281728
-0.06594124861465653 0.2273209019003791 0.2544500202563039
-0.07500619121299942 0.23811190560445014 0.26063364452388205
-0.07777250238167008 0.23055683806523505 0.2529406518366567
-0.08380705543266495 0.20952617362126533 0.26211762136485495
-0.08899838157402237 0.22186487153157416 0.26867526477839865
-0.08678648300873001 0.21819847062215034 0.26212078041102804
-0.06982306071029862 0.22531127169713203 0.2605838150408498
-0.07698657043682297 0.22959386542424384 0.26715469068553366
-0.08185957797275742 0.22784995272740546 0.25940227216746725
-0.07422842510448655 0.2240429444609565 0.2567034930613271
-0.08129823632942398 0.23292487099751655 0.26255988782908835
-0.08285104163395127 0.22665380671605292 0.25569218105342306
-0.03922567196594437 0.1325454337893409 0.2580210537340871
-0.038300369460451206 0.1316298468409461 0.2572533459093801
-0.03763524122940262 0.1329220159350318 0.2583258122828237
-0.03918210097061356 0.1324848754702491 0.2581114143755666
-0.03826824255691727 0.13159214690312568 0.2573456138994924
-0.03762945957885941 0.132869683056919 0.25841605371501364
-0.03656316228615006 0.128046981841175 0.2565361828234426
-0.03758228250251969 0.12905683353528205 0.2574402660753957
-0.03618371911750992 0.12950944140538398 0.2572991222765676
-0.04016653128372391 0.13358112409695808 0.25810116237666525
-0.03915894456611832 0.13320028021916572 0.25725733942058004
-0.03746560641037186 0.13198583558186713 0.2560681671526662
-0.03982028790222367 0.13356222942456428 0.2582027286913625
-0.03877556749092301 0.13324206307515327 0.25729942029979147
-0.03731638618217667 0.13195913270100776 0.2562324375536672
-0.03788340516792496 0.13315295413121406 0.25896650260951437
-0.038124237735139926 0.13353731468304816 0.259455141487383
-0.04276264138923844 0.13354214265927497 0.2565914363291494
-0.04033649392830094 0.13255690768346015 0.25408470338847555
-0.03841355868087967 0.13163670137509528 0.2544401258852712
-0.042443398911821445 0.13357629612073127 0.2558843464281789
-0.040022943694459995 0.13246049717053596 0.2532865375902883
-0.03842327423797806 0.13167997434720222 0.2539741367724172
-0.04391330905662735 0.1322716994582099 0.2586441010859243
-0.04299810953842362 0.1313849909602088 0.2573269576456777
-0.03892267175422867 0.13274320200070563 0.2570719689753286
-0.038024280745851596 0.1318732722102088 0.2562588424113027
-0.03730369039283951 0.13236000373944465 0.2567890257265798
-0.03887287207351883 0.13262005880459968 0.2572870225336782
-0.03798154421554764 0.13179852798566047 0.25645953125026144
-0.03733548947082718 0.13224976494893256 0.2569873303797475
-0.03773275442825516 0.13028352692708198 0.2570399612810842
-0.038667236049043735 0.13135459259137336 0.2579203814890615
-0.036521290023195346 0.13105493023976508 0.25737452215220846
-0.041289274175035556 0.20371513798817817 0.26896875804927267
-0.043429766375887 0.21302830412968818 0.2716052503016225
-0.04016742535339554 0.21049921944722358 0.26901989883448996
-0.03480279870735367 0.20853387549504462 0.26912402814891256
-0.03693128057228287 0.21316783860310737 0.27246844476725973
-0.03870207496391495 0.2110320253668708 0.26923483318355
-0.034276191670763095 0.2090861721335334 0.2627714247133962
-0.03822043963180741 0.21669655278310004 0.2665934533503286
-0.03956112690674027 0.21225040391072456 0.2630390495684377
-0.042109404284822544 0.211246125250904 0.26415604061152853
-0.04482058115707596 0.21539073422536079 0.26857983774211325
-0.04325324722038468 0.21628557875737373 0.2647422522928945
-0.0350013417791005 0.21562921240910712 0.2646284074213735
-0.03952268191086014 0.21753513053044501 0.26810681528117575
-0.03835449047790726 0.21631144717320624 0.2641023964312307
-0.035589371402132114 0.21555136874303046 0.26242792314555563
-0.03961047955261429 0.21944015458211127 0.26598775095012106
-0.040908340890276035 0.2181476874648017 0.26201587623622336
-0.046344105679857334 0.21009432509526435 0.26363044685389914
-0.04787084885345658 0.21147274211034003 0.26680183118846335
-0.04553944297538956 0.21508561804875556 0.265348491134905
-0.04240954347358902 0.21601372197255317 0.26490950292613424
-0.04465237684951981 0.21663194134816352 0.26763236230876364
-0.0425282759259816 0.21725916102513496 0.2658547133829824
-0.04093152709709366 0.21420740321263496 0.2646957606699697
-0.04307291336761673 0.2156014366446418 0.2670906752970449
-0.04553243942962845 0.21641104653462592 0.2650018901255361
-0.041834746081697544 0.21089576914891425 0.2642236322787038
-0.04469448753105362 0.21524792149647895 0.26871472305323996
-0.04306623764740189 0.21605669692143623 0.26488065427806295
-0.03485554881797989 0.21534185841664497 0.2647204369929067
-0.03943047352539261 0.2173234744368476 0.26820271915461935
-0.03828424640403946 0.21607016757115546 0.264197585048937
-0.0354457838128682 0.21532737448796455 0.26246154016520895
-0.03944692440735062 0.21930401757344428 0.26601558631923117
-0.04077679343925675 0.21793543532475654 0.2620661825564138
-0.06880262919174393 0.22992812827214423 0.2691048354532949
-0.07014558144317826 0.23790549471959296 0.2742117018130056
-0.06984702177749832 0.23506575062855903 0.27045881456401266
-0.060688768107759555 0.23373626902684394 0.27166789478328146
-0.06302231975303849 0.23667197659596625 0.2758266896631948
-0.06632227130638321 0.2353167457877082 0.27062111801173605
-0.06401417084442337 0.23457889989003364 0.2667494387057058
-0.06751791067825516 0.24032365515813056 0.27040630287196554
-0.06809479423271378 0.2363298459349555 0.265762206974291
-0.07430543430553635 0.23794519141301337 0.26551770872142233
-0.07748909719692429 0.24180942013844672 0.2701891631510488
-0.07436454721199234 0.24205350115880195 0.2661438555147878
-0.0641826731752034 0.2402428908644599 0.26533531850840963
-0.0675064367841359 0.2414074464140815 0.26994734710719503
-0.07055277057396134 0.24146025612935249 0.2642770380404226
-0.0674894792626973 0.2391665501891059 0.26407950824763693
-0.07181381114231308 0.24217169716939155 0.26749014562632956
-0.0724604619334813 0.2406589908896369 0.2622223467257253
-0.07753864355789383 0.23578350976094428 0.2642208308603994
-0.07916570134865006 0.23811673358067695 0.267845091285967
-0.07571067341076096 0.2410983367262763 0.2660161823656789
-0.07259613700615128 0.2397866173087043 0.2648330301668874
-0.07369310088859757 0.23997592166051093 0.267617401542925
-0.07378299959408005 0.24129300549611274 0.26532005971934713
-0.07366513140903672 0.2390984816847724 0.2652721375849477
-0.07653730042682846 0.24031793311223212 0.2677799434092275
-0.07726665266262253 0.24026554062947456 0.26414584821727194
-0.07144406862961014 0.16462730601414863 0.263346013489031
-0.06991371937500199 0.1791433019934577 0.2678095669176809
-0.06731552310692032 0.1763589902220649 0.2635433048632375
-0.06649229355560501 0.1824176831541938 0.2671318025019399
-0.06874120660530289 0.1955961509047431 0.270330545368456
-0.06967032380806168 0.188385538607685 0.26588189310099997
-0.06846189923988541 0.18456678822621528 0.25888347333934225
-0.06942573614822586 0.20103906825169746 0.2621759147074453
-0.07308701105819901 0.19124435618504707 0.25850349372889914
-0.07270236738430222 0.1758840008078498 0.2600082129862539
-0.07314283080803116 0.18572901919469062 0.2667958707239858
-0.07140377588974198 0.18696593478306953 0.26044112152125753
-0.06641084380851944 0.19220911696538154 0.26423442071940817
-0.06991839833961686 0.19780575469121162 0.2691793412592641
-0.07098529167877396 0.19604688122853461 0.26287013000514425
-0.06620395608650406 0.19597917035206977 0.2596749038126699
-0.06986993976341446 0.20812617972478095 0.26492881483104147
-0.07233845122562607 0.20066588357075874 0.25974744266536154
-0.07428262062774857 0.1721548064051551 0.2560912937548391
-0.07502596505390366 0.17719440892323676 0.2630458444979421
-0.0704327268193837 0.1843892259894294 0.25856959527995504
-0.07324003108249863 0.18830739691838447 0.2599151701357595
-0.0754785431216832 0.19378047421559516 0.26445293134715475
-0.07331102021442612 0.1947431488333625 0.26048928207423605
-0.07411310501800736 0.19476913645848457 0.26003759807612814
-0.07655865379081925 0.2021778149901313 0.26417243188884176
-0.07792944141136368 0.19862269595250312 0.26097517913844503
-0.09745201893554886 0.22116791442021552 0.2650847405817739
-0.0974628222774144 0.2244636340437812 0.2685041994478933
-0.09760337002979477 0.2235725446043891 0.2659203380968801
-0.09078181215034684 0.22123669818028632 0.26720922893550314
-0.09229997225509842 0.22347848847493354 0.27051871723201193
-0.09471410938011368 0.22278963759526435 0.2662330240633718
-0.09270711668239792 0.22235225871190253 0.26307040161158957
-0.09451602824436386 0.22642772629841987 0.2655669421580068
-0.09547497757183274 0.22417270377263251 0.26209050125148214
-0.10149723716484269 0.22411542370900336 0.26121443218257345
-0.10293093748794754 0.22648446992024604 0.2649943799402944
-0.10052952595459183 0.22703879311665717 0.2621511787798635
-0.0942194951366063 0.22396343186482612 0.262090799274706
-0.09633191354976853 0.2253053112326545 0.2657381863024465
-0.09784654207931717 0.2252687139807624 0.26122700876262106
-0.09582885034786423 0.22382818892583076 0.2607425422098867
-0.09842549689518174 0.22610764935597602 0.26317047781016745
-0.09893653221832474 0.22508912518605415 0.2589649528887502
-0.10369024105774124 0.22180186942204658 0.26118266290690817
-0.10381748207317551 0.222837500125019 0.26296776241328634
-0.10039551981197556 0.22577326729878608 0.2630807132151357
-0.10071640141712387 0.22290103867634956 0.26215946382548727
-0.100793127496111 0.22312097981557075 0.26371061510112204
-0.09955969877945145 0.2249581737814826 0.26305764621760763
-0.10087712534176071 0.2238506002722663 0.26310527032878317
-0.1021172446797963 0.22432207301243964 0.26408332294490255
-0.10279697604881485 0.22456180289372626 0.26165330118205465
-0.04483071394668778 0.15197678640469733 0.2598463267710439
-0.043856118399965366 0.15428560212239448 0.2601110309984914
-0.045716140944826206 0.1559395416079444 0.2596024841692678
-0.04435947962509354 0.1533620281515998 0.2623827428248159
-0.043522123772966465 0.15581618979558173 0.26297938531901754
-0.044421498257982334 0.15553318694218818 0.2621349663164846
-0.04496688075767716 0.15313013628110114 0.25913339561488546
-0.044789378125536045 0.15953569844350043 0.2610421151545278
-0.044724587876665195 0.15536638334378425 0.2592623800661794
-0.044105444629060825 0.1543274445830268 0.25988042062785544
-0.04526827164398392 0.15541683867558662 0.2624592155840627
-0.047269825417863925 0.1563416345415992 0.2587516278650991
-0.0432546479295369 0.15684058502301398 0.2611692518618337
-0.04414755531059464 0.1576529069243354 0.2629470199969045
-0.04375973768936356 0.15661641195401374 0.25926494306590475
-0.04180905647979935 0.16110607221707526 0.2614605993654958
-0.04314411111580094 0.16453640893086616 0.2636092276003591
-0.04337311216102799 0.1629067583380622 0.2604045838740102
-0.044293854911195835 0.15096934869870368 0.2566199869539968
-0.04428044386612137 0.15096112325772468 0.2565451831248037
-0.04604801960693558 0.1511150820551795 0.25701778835322775
-0.045829568583833774 0.15367840960606757 0.2584500879671804
-0.04573777743087967 0.15363051727399055 0.25821840471293844
-0.0462988955567952 0.15303050711735908 0.2581984371569387
-0.04772922821747025 0.156919531375019 0.2604925603296987
-0.048076335866319736 0.1575935406981391 0.26111155456569113
-0.04596317239509781 0.1580769939719123 0.25979876226451315
-0.04533708520637711 0.15297781661137763 0.2600139350321523
-0.045331720788347324 0.15505825713261787 0.26141714757945456
-0.04709226318107804 0.15582986906155769 0.2594699234392873
-0.044200216014253696 0.15467154219731513 0.2615272373583547
-0.044408683259355625 0.15661933258160773 0.2627027005579702
-0.04439038463340958 0.1558145506678504 0.2604474992182485
-0.0450462145398732 0.15794422462567512 0.2610273928072683
-0.04590425320373734 0.16268642976864997 0.2632967204478017
-0.04533839650856217 0.15959083273991767 0.26069003051783957
-0.059044305760728916 0.17949991658314887 0.26647150224711813
-0.06242099829422196 0.1893439216910285 0.2705957860377065
-0.0620837552140828 0.18585401013478461 0.2656369776156179
-0.04743710585342606 0.18192004397496406 0.2669756383326284
-0.051116351563798984 0.18755274251088325 0.2716047734644643
-0.05572587676750382 0.18501012757405463 0.26614129251506247
-0.049188558537828525 0.1821374221144599 0.2615626425173513
-0.053204868514406284 0.19169758990391914 0.26597833341624655
-0.056550656039583286 0.18597190812215034 0.26118677562739767
-0.057853881795274814 0.18924396470174018 0.2676799268152944
-0.06318390794502457 0.19359963372334663 0.2728880614664785
-0.0642645401548024 0.192747168093769 0.2655386299517385
-0.04226977058159073 0.19448869660481635 0.2649772138025991
-0.05039680429207047 0.19618987277135078 0.27113407558467306
-0.05365416832672318 0.19517856076344672 0.2641214699175588
-0.04448157973991593 0.19501047566518012 0.26124572462108053
-0.050096069056856235 0.20064967110737983 0.26631790107753195
-0.053605739552843173 0.19846939280614082 0.26067721551921286
-0.05355054565178116 0.19198619559392158 0.2725933164980642
-0.05558318324791153 0.2104187531767768 0.27777647680308737
-0.05321148462997635 0.20263152554616157 0.27336185878779806
-0.04092964955078324 0.21074711516484443 0.2730205029871694
-0.0465771896432515 0.2216746731100959 0.27911591238047995
-0.050341103751527866 0.21485256388768378 0.27281284040477194
-0.04626736469970902 0.21199541524037543 0.26586186594035544
-0.05150250025497635 0.22651057675465766 0.27151894277598776
-0.054966483790742954 0.21572827532872382 0.2654714555170766
-0.05344430037246903 0.2158945126830024 0.268189010086321
-0.0579893035482045 0.22674750521763984 0.2750809759524099
-0.055724237639772495 0.2245834989844245 0.26833665079142965
-0.04007575340973099 0.2306945247946662 0.2673630685236684
-0.04802763887153824 0.23530542090520087 0.2743852705385915
-0.05256259866462906 0.2338489814101142 0.26630729145076193
-0.0438463432382222 0.23332446053609077 0.26361995643641867
-0.050624196011888584 0.24135356381520454 0.26939361995723166
-0.0516600651334401 0.23572408393010322 0.2623769015696279
-0.055451904017793735 0.2092297597227973 0.2657763928797475
-0.05855739541755875 0.21818786099538032 0.2730684847262136
-0.05424005218254288 0.22026764586552802 0.2671940893557302
-0.05121878214584549 0.2288395090399665 0.26662498420741476
-0.05646008678184708 0.23194157317265693 0.2725961179163686
-0.0576003236364003 0.23192065194234077 0.2667617172625295
-0.05222937889801224 0.23031567767247382 0.2644230098154775
-0.05754685827003678 0.23558514550313178 0.2699752420809499
-0.05828315444694718 0.23262303307637397 0.26424371904399313
-0.09150799043880661 0.22530632451161567 0.26289677328135885
-0.09176394768463333 0.2379802389441413 0.2675361008074514
-0.09116743930088242 0.2332730217276496 0.2648725480463735
-0.08566683955894669 0.23540484145268623 0.266821023884081
-0.08638607390629013 0.24091302588566962 0.27115398353602804
-0.0888454956601735 0.237291686087696 0.26669549650218405
-0.08871137030826767 0.234145454913227 0.2590156168368093
-0.09084044821964463 0.24294268324956123 0.263345477047228
-0.09233130939708908 0.23641800120457832 0.25907438701655783
-0.09546445735202988 0.23485308125600043 0.2588451475527517
-0.09756459720836838 0.24205463364705268 0.2638615340616933
-0.09475034900413712 0.24156831935033027 0.2601457209017507
-0.08859555848346909 0.2408721370993537 0.26009911006953634
-0.09035237558590134 0.24342971280202094 0.2650290102389089
-0.0926773888658162 0.24251633122548286 0.25973826355006613
-0.09098677762256821 0.23883872464284125 0.25768917507197775
-0.09480598994003495 0.2435824199019355 0.2610663742449514
-0.09530418046222885 0.24083154633626166 0.256592866840624
-0.09674087591873368 0.23231964543446723 0.2607910007860891
-0.09812048502670487 0.23768060639485541 0.2664115399744741
-0.09476334281669815 0.24035572245701972 0.2633122176554433
-0.09430912562118729 0.23933046296223823 0.2630458444979421
-0.09480843373047074 0.24069397881612006 0.2671229214098684
-0.09517266281353196 0.24135016635045234 0.26354831165339865
-0.09327735431896408 0.2383883519469184 0.26270645565059103
-0.09680772252784928 0.2407917304335517 0.2659181327250234
-0.09649251826511582 0.23985039427861396 0.26184010213878073
-0.04665503330932816 0.16442381575688544 0.2628726334002248
-0.04693985410438736 0.1732066793738288 0.26530790037181295
-0.04632059164749344 0.17256786659344855 0.26169228261973776
-0.043509308774339756 0.17147817447766486 0.2663836450007192
-0.044219229895937046 0.17828767731770698 0.2682623834040395
-0.044231538255083164 0.1743687911330146 0.2651147217180959
-0.04304919071899613 0.1751232667265815 0.26141470378901877
-0.042228613574373325 0.18526225522145454 0.26352506584193625
-0.044888798673021396 0.17829190924748603 0.26058929866816916
-0.043558333594667514 0.16418715551480476 0.2630582422640554
-0.04758602805839737 0.16889970734700385 0.26914852565791525
-0.04644072480903824 0.17101117208584968 0.26327532238032736
-0.039463911731111606 0.17428200677022163 0.2646533221628896
-0.04307088680969437 0.17643802598103706 0.26889419263865866
-0.041592781026231845 0.1752273960410041 0.2640708059694997
-0.03887317009674271 0.17818551495656196 0.2622179955866567
-0.041087959487306674 0.18376802638158027 0.26626223033931173
-0.04395732708679398 0.1812073512373847 0.26258623308207907
-0.04390699096428116 0.16201090052708808 0.2578864664461843
-0.04584026761757096 0.16273101404294196 0.2627646297838918
-0.04585802980171402 0.16796337798222724 0.2610285849001638
-0.045311008174287876 0.1716958208380622 0.26184171146418966
-0.04717159696327408 0.1724958045779151 0.2646335334208242
-0.04556736775146683 0.17322089508160773 0.26307040161158957
-0.04641527362571915 0.17492794230565253 0.2621405095484487
-0.04780617781387528 0.17789053156956855 0.2652217716601125
-0.048508380133974155 0.1775057835875434 0.26293354934718527
