ply
format ascii 1.0
element vertex 568
property float x
property float y
property float z
element face 0
property list uchar int vertex_indices
end_header
-0.0272222501824971 0.2618371768294257 0.24749827093150537
-0.029194955308305817 0.2626129908858222 0.24998080438640038
-0.02290040679680069 0.2613690419493598 0.24936610168483178
-0.025240127522813873 0.2622910065947455 0.25189709371592917
-0.029238585908281402 0.26155924037083805 0.24797033971812646
-0.022383306701051788 0.26007717087849797 0.24802535480525414
-0.02345231600509842 0.2630006594954413 0.2494912714388601
-0.024211470563280182 0.2612001223860663 0.24576174921061913
-0.021017972905504303 0.26905029252156437 0.24977743333842675
-0.028640602309572296 0.2619362993536872 0.24933778947856347
-0.030154977519380646 0.2624162955580634 0.2512854308512441
-0.025230113942491608 0.26209139063939274 0.25055074399974264
-0.027453307587968902 0.2627984209357184 0.25307225889232077
-0.03109994955764969 0.2620638532935065 0.24934702819850366
-0.025616441447603302 0.26096682980641545 0.24986749595668237
-0.02591464348541458 0.26318734124287785 0.25134294933345236
-0.025765482861864166 0.2619815392790717 0.24770009225871484
-0.02249798603759964 0.2727159185706061 0.25185936397578634
-0.031512801129686435 0.25979768469914616 0.24927389329936425
-0.03159437008606156 0.25992142394169987 0.24937540000941674
-0.030370060880052643 0.25551240876301945 0.24878543323542993
-0.030990336615907745 0.25948207810506047 0.2510970205691091
-0.031364743192064365 0.25976669028386296 0.25150942510631
-0.031303439814912876 0.25709324315175236 0.2501074046519033
-0.02910218067871292 0.25705670550450505 0.24918204254176538
-0.028996084411012726 0.258583120852558 0.2496671051409475
-0.029195908982622223 0.25880753234013737 0.24686079925563256
-0.025652442653047638 0.268791131526081 0.24933695501353662
-0.031000320393907623 0.26052557662114323 0.24886721080806176
-0.030969653804170685 0.26046984627827824 0.24882566637065331
-0.030016515929567413 0.2561017794905585 0.24840628809001367
-0.030937079865800934 0.2602389378844184 0.2507846326258413
-0.031022165496217804 0.26031088069066227 0.25088160938289084
-0.030694459159242706 0.25733762219533146 0.24986153549220483
-0.02910995908485611 0.2575874252615851 0.24888443655040185
-0.028958354670869903 0.25886356070622624 0.24928170150782983
-0.029632930238115387 0.25945036843403996 0.24674409336116235
-0.026109610278474884 0.269228450804798 0.24896776384379785
0.10463362507118026 0.30930017665013493 0.22689145511653344
0.10465067199958603 0.30936329796895207 0.22690772718455712
0.10647844843162338 0.31087737515553654 0.226439115467333
0.10631462506545822 0.308967642336933 0.22849291271235864
0.10628020338310043 0.30933731034383 0.22859221405055444
0.10733755997909347 0.3099751992522162 0.22820836013820092
0.10839274100555221 0.30553703740224064 0.22586345380809228
0.10738256148589889 0.309473447352497 0.22699808782603662
0.10750004224075119 0.30780642464741886 0.22586470550563256
0.10610436968101303 0.3070567770300788 0.22596180147197167
0.1054555731226329 0.3082207961378974 0.2268850178148977
0.10623767546905319 0.3084784074126166 0.22504931396510522
0.10844820312751571 0.3077922387419623 0.22654074138667504
0.10742723516715805 0.3089499993620795 0.22740435308482568
0.10813352040542404 0.3085026665030402 0.22559278911616723
0.10740842990173141 0.3094908519087714 0.22559904760386865
0.10733371547950546 0.3123873992262763 0.22703140682246606
0.10750269464744369 0.3108559174834174 0.22520011371638696
0.10497611336005966 0.30529623463734806 0.227568265857958
0.10500567726386825 0.30512111619099797 0.22743063873317163
0.10559430293334762 0.30680351689442814 0.2273783654597036
0.10562866501106064 0.30579494670018376 0.22844999736812036
0.10562359861625473 0.3058203382788581 0.22846591180827538
0.1065377252508525 0.30671339467152775 0.2280776471522085
0.10388326219810287 0.3064390344916266 0.22783618873622338
0.10363533667815963 0.3088652415572089 0.2288483352091543
0.10375201277030746 0.3085225744543952 0.22784518903758447
0.017365183155668183 0.31366222336873234 0.24463277763392846
0.017466272633207245 0.31624364092930973 0.2463074893381826
0.015749033014905853 0.3157583995161933 0.2430258960154287
0.023806031267774506 0.3139756841956061 0.2469350666430227
0.022197510521543427 0.3172207398711127 0.24901860660579125
0.01870929769767563 0.31638162568196476 0.2451212376978628
0.02376499346984665 0.314724854975788 0.24297159618403832
0.02197464875472824 0.32196610406026066 0.24501520103480737
0.019986565630567475 0.31883739665135563 0.2408073515322439
0.016269351761472626 0.3125694914160651 0.24896269744899194
0.01575320534004013 0.3148496074973029 0.2518287271883718
0.01325037650359909 0.31492089465245426 0.2473913998034231
0.021840925734174652 0.31462084487065495 0.2506015271570913
0.019668455641401215 0.31776242688283146 0.25355142063167013
0.016421403210294647 0.3168989343939704 0.2488203615572683
0.021945651095045014 0.31596749261006535 0.2482764095690481
0.019280638020170136 0.3229294939337653 0.2503740758326284
0.01833015255225937 0.3200628085432929 0.246078369083666
0.05666356853736679 0.2561529798804206 0.24268811649348657
0.05242025427116195 0.2642742319403571 0.24691027111079614
0.05187198094619552 0.2579532189665717 0.2418149084475271
0.06834196619285385 0.2559114618597907 0.24544459289576928
0.06522804073585312 0.2621304316817206 0.24917119449641625
0.06083192996276657 0.2571720404921454 0.24366014904048364
0.06414165667785446 0.2563111110030097 0.24001091426875512
0.06430691055549423 0.26933997109517277 0.24290525621440331
0.059369977038038174 0.2591959162054938 0.23867362445857446
0.05245846084846298 0.2530248685179633 0.24861436790492455
0.04992946557296554 0.2569461388884467 0.25248741811778463
0.04864736966384689 0.25501977637395085 0.24716531938579003
0.06072923115981857 0.25395321086034 0.24930703348185937
0.05717032722724716 0.25779926016911686 0.2525027961161367
0.05319672397865097 0.25619667008504093 0.24677139228846948
0.056561167757642666 0.2578570170699042 0.24766635602977197
0.056054558079374234 0.2668268008528632 0.25079077190425314
0.05336942843688766 0.26032691434010685 0.24613392061259667
0.05197405390037338 0.25406157210454167 0.24387669271495263
0.05190267733825485 0.25629275277241886 0.24699985689189355
0.05208411387695114 0.25468748047932804 0.24322580999400537
0.05733972362769882 0.25468283131703556 0.24618732637431542
0.05567338637603561 0.2580324335394782 0.2487610549357168
0.052765245955121914 0.256786577254383 0.24414980119731347
0.05503701738609115 0.25569676592930973 0.24345552629496972
0.055359746735227505 0.26515113547429264 0.2460696668055288
0.05217632226241867 0.25903522208317936 0.24238037771251122
0.05321234039558212 0.2544954939185065 0.24809968179728906
0.04907631448997299 0.2596009297667426 0.25214129394557394
0.04706704191459457 0.25730299189671696 0.2461559147265188
0.0633490639139537 0.2554677648840827 0.2481017679598562
0.05860557727111618 0.2594647927580756 0.2516082496073476
0.05484577588332931 0.2574958725272101 0.24540817445781152
0.05856027774108688 0.26034682229146183 0.24653756326701562
0.057276542704236905 0.2690563125906867 0.24996620124843041
0.05541815928710739 0.26225512459859074 0.24487930244471948
0.10540711454643051 0.25777744486912907 0.22441094821956079
0.10273569397224228 0.26121240094289006 0.2275438279536001
0.10203596524490158 0.2588258309660834 0.22300070232417504
0.11204120091689865 0.25780921414479435 0.2266709179308645
0.10946970752967636 0.2608724160490912 0.22961014217402856
0.10709410480750839 0.25825463965520085 0.2254145712282888
0.11089476517928878 0.25816308692082585 0.22278952306773583
0.10938801936401168 0.2666211648283881 0.22640651172664086
0.10574751667274276 0.26056455805882633 0.22248351282145898
0.10430708102477829 0.2549881263075751 0.2299859494593374
0.10123404435409347 0.2575493974982184 0.23335563844706933
0.1001283185888652 0.25640641883000553 0.2278645009424917
0.10976963810218612 0.2557781858740729 0.23065328306224267
0.10733788780463974 0.2577947898207587 0.23363727039363305
0.10332873038543502 0.256928019076435 0.22856247133281152
0.10745667986167709 0.25789105132207096 0.2297170729067556
0.1082130628038768 0.26351379588231266 0.23284446901347558
0.10505729488624374 0.2593124432860297 0.22856086200740258
0.10297122172607223 0.25485872462376774 0.22652107185389916
0.10081022552741806 0.2572280688582343 0.22882586425807397
0.10284864477409164 0.25555502608403385 0.22443794912364404
0.10712810925735275 0.25502490237340153 0.2276571363833181
0.1053923623968486 0.2570679707823676 0.2298808068659536
0.10489406756652633 0.2556347770987433 0.22600423997905175
0.10503869823707382 0.2556971235571784 0.22699624008204858
0.10538184217704574 0.26148080065831364 0.22921484416987817
0.10356214217437545 0.25754790738209904 0.22615557617213647
0.10563629440559189 0.25661026671513737 0.22671556180980126
0.10202979616416732 0.25990527108296574 0.23026370710399072
0.10033642820609848 0.25817399457081974 0.2248587579157583
0.11439373664153854 0.25726156666859806 0.22700833982493798
0.11139541439307968 0.25961046650990666 0.23039304918315331
0.10685991815818588 0.25814782813176335 0.22541504806544702
0.11224311165107528 0.25709377959355534 0.2237027258303396
0.11114164761794845 0.2641675992308539 0.22755604690577905
0.10810693673385421 0.2588079495726508 0.22307800954844872
0.10487120918525497 0.2579194827376288 0.22379105991389672
0.10241195134414474 0.26137297585591496 0.22680639928843896
0.10199102334274093 0.25884585812672795 0.2224996656801931
0.1113834934641246 0.2578263206778449 0.22626805013682763
0.10895740560783188 0.2610269708929938 0.22911095327403466
0.10699423722518722 0.25820832684621037 0.22509145444896142
0.11011468939079086 0.25834470227345646 0.2225270838167898
0.10854726604713241 0.2670626564322394 0.22609126276042382
0.10492604545844833 0.2608145995436591 0.22228997653987329
-0.026644323546754913 0.3085242433844489 0.24979418224360864
-0.026822273213731842 0.3128429575262946 0.256797728004717
-0.02904501982437332 0.3108535332976264 0.252369758548998
-0.013066534478532867 0.3059810324011725 0.2533899516489736
-0.01944765873657425 0.31668823197468937 0.2588481873896352
-0.02290454931961258 0.311836294680683 0.2525776595499746
-0.01793924399124344 0.30569659903630436 0.2461919755366079
-0.021607731063234405 0.3227463884650153 0.25074034637477316
-0.024851386029588775 0.3124588055907172 0.24520611471202294
-0.025661770779954986 0.3053460045157355 0.2505212397005788
-0.026854727942812042 0.30545245841130436 0.25958567565944113
-0.03028798528419693 0.3082137627898139 0.252933141651415
-0.01661792822586258 0.31068896487340153 0.25475632852580465
-0.02320391364799698 0.3171771092711371 0.2598793477442495
-0.02604631014572342 0.31437062457188786 0.2535640568163625
-0.022891674716341095 0.3131222648917121 0.24833821958568017
-0.024827335555421905 0.32549815610036076 0.2531293601420156
-0.02705842681633194 0.31790732577428044 0.2469863862421743
-0.028210375983583526 0.2999095244704169 0.2500930399325124
-0.028705362756120758 0.3008624239264411 0.25805830663707174
-0.03073746391044815 0.30368243888005436 0.2535269827273122
-0.02115339465843399 0.30478524401768864 0.2552403182413808
-0.025858823735582428 0.31160854533299626 0.2598592013743154
-0.028598372418748932 0.30951475337132633 0.25444268888499655
-0.02627090044723709 0.30533116295918644 0.24945634311702172
-0.02797007985817154 0.31760697796925724 0.25395726865794577
-0.030698989112245636 0.31112342312916935 0.24842911666896264
-0.028309051473009186 0.2984957619009894 0.24759632057216088
-0.027678046901094513 0.30052142575368107 0.25329202121760763
-0.028684709746706085 0.3030490203200263 0.25129651731517233
-0.022481982190477447 0.3020501656828803 0.2534154028322927
-0.023886208016740875 0.3083655758200568 0.2577040166285268
-0.026785675961839752 0.30746179059132756 0.2530540794756643
-0.025555227477418976 0.29943036273106755 0.24691259569194238
-0.02657235093818863 0.31248246863469303 0.2511101335909597
-0.02952179737793167 0.30682920649632633 0.24642562574412744
0.019394482891691132 0.2660008592902106 0.2407700390246145
0.01663988403571884 0.2754312677679938 0.24664812988307397
0.014194037239683075 0.26958250239476383 0.24101739830043237
0.026764299194944306 0.26838331654652775 0.24602383083369653
0.021713222782743378 0.2779126091299933 0.2504367203142873
0.018143619816434784 0.2723437471686286 0.2435660333063833
0.024195815842283173 0.2695094271002692 0.24033146804835717
0.024264480393064423 0.2854510469733161 0.24313157505061547
0.01976978353751938 0.2752700372038764 0.23765378898646752
0.018983836691511078 0.26101814940556706 0.243748423519396
0.016220654766691132 0.2667260690031928 0.2504002422716848
0.014732028763425751 0.2640150113402289 0.2449502319720022
0.02103858761085312 0.26667558386906803 0.2504009575274221
0.016910340111387177 0.2742105646429938 0.2542397946741811
0.014070029776227875 0.27071505025014103 0.24756157106425683
0.02013414673103134 0.2684589548407477 0.24599492258098046
0.01902946404708664 0.28483568862065495 0.248991605701708
0.016156847994459076 0.27577923968419255 0.24329971975352685
0.01738759450210373 0.26079093649968327 0.23993521636989038
0.015455718557966156 0.2660635633765143 0.24601632064845483
0.014446701328885956 0.26305174067601383 0.24218165582683007
0.017330016415250702 0.2665448708830756 0.24832600063350121
0.014383043568265839 0.2744181676207465 0.2517022461321584
0.01328891090644638 0.2700732870398444 0.24578720039393823
0.017850841801298065 0.2659241481123847 0.24293321079280297
0.01845803431762497 0.2814655824004096 0.24591451591517846
0.01429846457732956 0.2739335818587226 0.24060779518153588
0.07486125401748459 0.32066791489705265 0.24912851757075707
0.07505797914756576 0.3232511802016181 0.24982517665889184
0.07392644457114975 0.32333867982014836 0.24764680570628564
0.079367663185728 0.3195038361845893 0.25127422517802633
0.08050593308700363 0.3217383547125739 0.25187194055583395
0.07744162849677841 0.3209458513556403 0.24991523927714746
0.07889037899268905 0.3190725965796393 0.2456319898989431
0.078866775553358 0.32515739634617985 0.2473400205996267
0.07623141578925888 0.32164179518803776 0.24470805830027978
0.07114135793937484 0.3212089462576789 0.2504217595484487
0.07053511909736435 0.3241148515044135 0.2518029779818288
0.07022112182868759 0.32433413699254215 0.2483051986124746
0.07835515908492843 0.3198888821898383 0.25079512304332174
0.07734608225120346 0.32230889037236393 0.25231665081050314
0.07521214656127731 0.3216537757216376 0.24919032758738915
0.07583322695983688 0.3217739386855048 0.24793809360530297
0.0754318492819194 0.3266816659270209 0.24987739032771508
0.0737502234388713 0.3236604256926459 0.246397611561083
0.04211026005042831 0.2810918612776679 0.24263250535991113
0.037668462317121426 0.29501157239064396 0.25018840736415304
0.03292733005775253 0.28866373732670964 0.2432908982661001
0.06684952549232284 0.2778278513251227 0.2431274027254812
0.06187894515289108 0.2885473294554633 0.2500907153513662
0.05427771381629745 0.28169601395711125 0.2429622382548086
0.0579571383406047 0.2806386275587958 0.23635309642817895
0.0575521843840007 0.2950846476851386 0.24163716739680688
0.04788261226905624 0.28548990920170964 0.2362061709788076
0.04496442846549789 0.27461951211079777 0.25073796218898214
0.03984510473502914 0.2836502118407172 0.25851899093654074
0.034554894487989346 0.28217988446339787 0.2500029773142568
0.059518929045331875 0.28105270102605046 0.25096779769923605
0.053063418190610806 0.28535329535588444 0.2570064634707204
0.044454242508542935 0.28425490096196354 0.2493404120829336
0.052623267691266934 0.28641431763753117 0.24603074497249047
0.048917944948804776 0.2976345939932746 0.25122505134608664
0.04438370041145126 0.2900245113669318 0.2448325127985708
0.07657953671706955 0.27526431515797795 0.23477416938807885
0.07345908455146591 0.2782629652319831 0.23776679939296166
0.07128804497016708 0.27726566031560124 0.23362630313899438
0.0886319237161998 0.27603667214497746 0.23368167585399072
0.0854903119017009 0.2782449646292609 0.23672830766704003
0.08054118923438827 0.27700208857640446 0.23323011106517236
0.08547198347343246 0.27490847542866886 0.23027455514933984
0.08386840991271774 0.2807963414488715 0.2339408964541189
0.07993843726409713 0.27699386313542546 0.23030745691325585
0.07525804213775436 0.2740117831526679 0.23999744361903588
0.07175078562988083 0.27652668192967594 0.24346828168895165
0.06721746496452133 0.27671366170033634 0.23788940614726464
0.0858640032221202 0.27466481164082707 0.23839735693004052
0.0831671016622905 0.2760283274947089 0.24173938936259667
0.07605751923812668 0.2764962239561957 0.2365949124720327
0.08193978242172043 0.27585022881612004 0.236895498695635
0.08071192673934738 0.2798958940802497 0.24042504734065454
0.07859393529189865 0.276943556815235 0.23611396259334008
0.07275193504585067 0.27328818276509464 0.23714220232036035
0.0707701700140361 0.2749873919783515 0.2392163247492544
0.07030528358711044 0.27486830189809025 0.23581880039241235
0.07742622069610397 0.27399366334065617 0.23715257352855126
0.0758750694204692 0.27532219126805485 0.2389607400324575
0.073267992060316 0.27500825360402287 0.23601793951060693
0.07625814847244064 0.2743964119254035 0.23615795082118432
0.07520529202712814 0.27886389926060856 0.23840325778987329
0.0744945066381816 0.27625607684239567 0.23577475255992333
-0.021733914096223907 0.2770840449629706 0.24093925661113183
-0.029006306607591705 0.28318380549534977 0.24925255483653466
-0.031289104897844394 0.2796035332976264 0.24347775882747094
0.006094362061155243 0.2726675195990485 0.24106377071406762
-0.004138205726015167 0.27682702973469914 0.2497290939715139
-0.011507038552629547 0.27402304843053044 0.24205934709575097
-0.004301522452699737 0.272845975905506 0.2349808782961599
-0.0076550287793751524 0.28372638657674015 0.24182927316691796
-0.01685688324676712 0.27764879897221745 0.2341917724039785
-0.02153152652488907 0.2712300939856452 0.24966597265269677
-0.028472666222917633 0.27290814355000675 0.257999596061968
-0.000345174748766022 0.27190499737843693 0.24880385107066552
-0.013023857552873688 0.27428745463475407 0.25702088779475607
-0.018973563392030792 0.2734750433264655 0.24914866394069116
-0.009409968335496979 0.27352993920430363 0.24451797908809106
-0.0179698509763356 0.2819754405318183 0.2508656949427358
-0.022152040679323273 0.27768050864323796 0.2434999317553274
-0.022476081330644684 0.2717297597227973 0.24403291648890893
-0.02780053444610794 0.2742804212866706 0.251390275421404
-0.030931000192033844 0.27387165263280094 0.24619745916392724
-0.00593573280082901 0.2716643138228339 0.24425303644206445
-0.0163502437661763 0.27604030802830876 0.2506295413401357
-0.022011165101396637 0.27484064534291447 0.24395578807856957
-0.01342818566070755 0.27179013922795475 0.24067926115062158
-0.01831901498542984 0.2803182525931281 0.24585610336329858
-0.02161193319069107 0.27567409709080876 0.23978662199046533
-0.0017800075601216128 0.3006465955077094 0.2354032964136831
-0.004283432443010406 0.31584852173909367 0.24383336013820092
-0.007539753396379547 0.306354276686756 0.237722393932604
0.021937217037809296 0.29652195408925236 0.23629975027110497
0.014621700565946503 0.31269483998402775 0.24368160671260278
0.008310403149259491 0.30218368008717716 0.23583507246043603
0.013104970972669525 0.30241119101628483 0.2285794586565725
0.011019613068235321 0.31959467366322697 0.23405354923274438
0.00393515400184433 0.30851834252461613 0.2278114528086416
-0.00026092358337600737 0.29095184043034733 0.24787711805369775
-0.003134880740511017 0.2990570588408393 0.2575934500124685
-0.008796606738435821 0.29753171637639225 0.24757462448146264
0.015933568995130463 0.2967960162459296 0.24980455345179955
0.007417585175168915 0.3059112949667853 0.2563746542361013
0.0016604917456034848 0.3012354297934455 0.24808740324046533
0.008684869330060883 0.301197342425434 0.24144392913844506
0.004112686436307831 0.31793510153874577 0.24726652807261865
-0.0013361019681568912 0.3081759138403815 0.24026709503199975
0.032123084585798184 0.25949250891789616 0.2430847854044668
0.022987510483396454 0.26929449275120915 0.2500778407480947
0.019782598536146088 0.26278846696004093 0.24318885511424462
0.056285883705747525 0.25873904660329045 0.24464535421397607
0.049178387444150845 0.26306622460469425 0.2514038652804128
0.044505711119306485 0.2573261781035346 0.24385744041469018
0.048678334276807705 0.25534193947896183 0.23558819002177636
0.04790833167327682 0.26661276057347477 0.2419747681048147
0.037663693945539395 0.2577283902464789 0.23478167957332055
0.028063650648725433 0.2546027822791022 0.24921166605021874
0.020708020250928803 0.2617289347945136 0.2553713888552419
0.016157801668775482 0.25935500100239933 0.24840777820613305
0.04756888322128097 0.2558020277319831 0.24848723119761865
0.04026433400405685 0.25822728112324894 0.25445723241832174
0.03225218824638168 0.25696080163106144 0.24719023412730615
0.038429464619291226 0.25623904898747624 0.2447888821985952
0.036644603531492154 0.2648736758528632 0.2500565022852651
0.030520017664564057 0.2586021347342414 0.24364459222819726
0.026877607624662323 0.2553778214751166 0.24538993543651025
0.020299847643506928 0.2632765693961066 0.25156944698359884
0.01634016207946579 0.26054321959599674 0.24514001316096704
0.04520186356796066 0.2561938686667365 0.24522375768687646
0.039520110409391324 0.2603084369002265 0.25040876573588766
0.03161209396613876 0.2582242412863654 0.24447714990641992
0.037787820618284146 0.25513987973317326 0.24050831502940576
0.03676423005355636 0.26519470646962345 0.2451868624117605
0.030442233603132172 0.25812505915745915 0.2399363488581411
-0.002161834914552765 0.257193915396778 0.24828648275401513
-0.006340180117952423 0.26135968402013005 0.25383859581019796
-0.010443602282869415 0.2597110791502875 0.24847072071101586
0.011280293982160492 0.2566838188467902 0.2508143753435842
0.004643763821256561 0.26021086409672917 0.25575321620967306
-0.0007559401582356265 0.25827758744343937 0.24909001297023217
0.0064149456430796815 0.25651078656300724 0.24649190610911767
0.0044635789801005556 0.2653099222479743 0.2506474227335683
0.00039583019508163423 0.25908201172932804 0.24463301605250756
-0.004247669656145172 0.2547061963377875 0.2523167700197927
-0.008056793887483673 0.2573126478491706 0.25787013477351584
-0.011447493512498932 0.2563686890898627 0.25286906665828146
0.003386493246686859 0.25567125514134587 0.25471424764659323
-0.0018461687158222964 0.25854741767033756 0.25898855632808127
-0.0072247428487416075 0.2574695272742194 0.25289213365580954
6.6416670207211474e-06 0.25608449414357365 0.2524548143770925
-0.003700528819429474 0.26348083451375187 0.2555908531573049
-0.004151378352510528 0.2585497422514838 0.2502710790064565
-0.005724225718843536 0.2540563865004462 0.24763363307979028
-0.007771108825075226 0.2571057005225104 0.2517010540392629
-0.01011753507362564 0.2556745333968085 0.24879485076930444
-0.0021678549836750796 0.2547979874907416 0.251032826366686
-0.004740331847536163 0.25813209250554264 0.25418179935481466
-0.0089896959851857 0.2571742458640021 0.2494776815798513
-0.0016492945741291812 0.2541133089362067 0.247890588703417
-0.0037403149198170474 0.2612996621428412 0.25002711719539084
-0.004829589803087311 0.2571568413077277 0.24594652360942285
-0.005636308867799835 0.2536693139372748 0.2479532927897207
-0.00792065687881668 0.25672411158665837 0.2522755832102529
-0.010284696299898224 0.25531142190083683 0.24917924112346093
-0.002088789422380524 0.2546424789725226 0.25132721370723166
-0.005002264459001617 0.2579665704070014 0.2546387881663076
-0.009404991347658233 0.25699036553487004 0.24974190897014062
-0.0017598611901875308 0.253892712145893 0.24835890239741723
-0.004108671624528961 0.2612934632597846 0.2505147427942983
-0.004946176488267975 0.2568736596403998 0.2463370532419912
0.08692833356155197 0.3015316052733344 0.2411686748888723
0.08562323025955001 0.31049560740575016 0.24422007507350366
0.08313521317733566 0.30666594937428654 0.23982572263743798
0.09748884610427658 0.29975640013798893 0.24349295801188867
0.0980804818083171 0.305852465182392 0.24688607162501733
0.09096920065177719 0.30303942397221745 0.24227285093333642
0.09411140851272384 0.3020933194456977 0.23705184167888085
0.09452262095702926 0.3112879915533942 0.2407777876284353
0.08859207801116745 0.3054343982039374 0.2361558050539724
0.08228918484939376 0.29970859721287907 0.24499618715312402
0.08069186977638046 0.3064238949118537 0.2491725057986013
0.07762309483779709 0.3050641341505927 0.24330067342784326
0.09503861836684982 0.2989486975966376 0.2452328771975271
0.09190126828445236 0.3035445733366889 0.24937098926570336
0.08738734893096725 0.3019155187903327 0.24377536481883447
0.09063431195510666 0.30445044472798527 0.24177193349864404
0.08892380766166488 0.3122712893782538 0.24533497995402734
0.08484711817992965 0.3075866027174872 0.24028229421641747
0.021014686148298187 0.2962198181448859 0.24804913705851953
0.019158865730894013 0.3021683020888251 0.25162446207072653
0.01667457393897812 0.2997264190016669 0.24586105054881494
0.032562847654951016 0.29470419123753727 0.25063883966472067
0.029568578522336884 0.2999113126097602 0.2541957468416921
0.023919190685880585 0.29810409978017033 0.24841630167033593
0.030503238957059784 0.29752444460972965 0.2460197777178518
0.02781140379203598 0.30892103150471867 0.2485011786844961
0.02484732441200058 0.30239396527394474 0.2433657020952932
0.02031883172286789 0.29364144042119206 0.2523620099451772
0.019618387739789887 0.29684679940327824 0.25611537403132834
0.016111995499265595 0.29651492074116886 0.25010287469890036
0.02823879889739792 0.29550784066304386 0.25444531148936667
0.02532657555831711 0.2997717185316962 0.2582829565432302
0.021090264837873383 0.29830580189809025 0.25226264900233664
0.027128543179166718 0.29744642212971867 0.2511743277933828
0.024633760969770355 0.30766748622044743 0.2533172339823476
0.022147084992063446 0.30251967146977604 0.24868237680461328
0.08747410349143783 0.2518502397833747 0.2353405923273794
0.08734908274902145 0.25192856028660954 0.23550975030925195
0.08315565757049362 0.2514907045660895 0.23387074178721826
0.08951687387718002 0.25182580187901676 0.2359620899584524
0.0893468814302806 0.2518708033858222 0.23626029199626367
0.08523907832397262 0.25095271304234684 0.23473739332225244
0.08991935424102585 0.25110625460728825 0.23467760986354272
0.08937993220580856 0.2523794098196906 0.2360197276499502
0.08676272205604355 0.2511053605376166 0.234317955436968
0.08540886215461532 0.25220464900120915 0.2379604548838369
0.0854617016722087 0.2521822972594184 0.2379079431917898
0.08195915393127243 0.25140636399373234 0.2361032933619253
0.0867139058519725 0.25194912388905705 0.23832589096095483
0.08675413898719589 0.25194352105244816 0.2382731408503286
0.08271407655967514 0.25116073325261296 0.236535129013323
0.0884059327055339 0.2507800979910773 0.23730134672191064
0.08770387939704696 0.2517667932806891 0.23842251009013574
0.08738684229148666 0.2504393978415412 0.23652708238627831
0.08375605515731613 0.2515515013037604 0.23579454130198876
0.08458947710288803 0.25095485880955876 0.234756884041094
0.08168676070464889 0.25056683257207096 0.23466592735316674
0.08381253055824081 0.25152748063191593 0.23586642450358788
0.08464303187621872 0.2509313149748725 0.23483329719569604
0.08168974093688766 0.25054579213246525 0.23473638004329125
0.08280565909637252 0.249534539729206 0.2363832563784353
0.08258932403816024 0.24982934430226508 0.23668783611323754
0.08141049317611496 0.24943494036778632 0.2362837166216604
0.08661990932716171 0.2518158479033393 0.23590308136012475
0.0864782290865306 0.2518787308035773 0.23604786104228417
0.08220120839370529 0.2512279672919196 0.23422997898127954
0.08900138310684005 0.25169330075368107 0.23617583221461694
0.08884253672851364 0.2517188711462897 0.2363798589136831
0.08465399913085739 0.2508152647314948 0.23462742275264184
0.09102114609969894 0.2507758064566535 0.23440015024211328
0.09026354126228134 0.2518038673697394 0.23569607442881982
0.08883338741554062 0.2505366726218146 0.2336962789919607
0.08497577480567733 0.25039612486943424 0.23678660100963037
0.08513822726501266 0.2502322120963019 0.23663145011928002
0.08071302942527572 0.24994831517323676 0.23594450658824365
0.0873676197935466 0.250651471167652 0.23730939334895532
0.08749800495399276 0.2505245728789252 0.23718863433864038
0.08334794215453903 0.24983786776646796 0.2365971178438894
0.08846336178077499 0.2514619751273078 0.23195516771342675
0.08838384918464462 0.2532082720099372 0.2326366276171438
0.08505680732024948 0.25137829020604313 0.23218208259608666
0.09338581136955063 0.3239293022452277 0.2453542322542898
0.09321522287620346 0.3231769724188727 0.24517923301722924
0.09277921489967147 0.3242568297682685 0.24381273693110864
0.09485619835151474 0.3235974831877631 0.24640303558375756
0.09472000173820297 0.32303713992222965 0.2462692231562368
0.09399857692016403 0.32345687583073796 0.24490725702311913
0.09553435019744674 0.3226832075415534 0.2429382175829641
0.09567883185638229 0.32429247334584416 0.24326312250163476
0.09453200868858139 0.3232279343901557 0.24173974699046533
0.0932902055193309 0.3235015793143195 0.24442726081874291
0.09331202081931869 0.3232934994994086 0.2443367213633291
0.09320699743522445 0.3238540215788764 0.24234270757701318
0.09576296381248275 0.3232572598753852 0.2449625701334707
0.0957715766836528 0.32323329880818547 0.2449458212282888
0.09433444909347335 0.32341717913731755 0.24315583414103906
0.09512981347335617 0.32382308676823796 0.2431976169970266
0.09520631603492538 0.3250707907973212 0.24393498605754296
0.09479432873023788 0.32402317956074894 0.24163222021129052
0.09222265652908126 0.3228596968947333 0.24745469993617455
0.09176349214805404 0.3214259071646613 0.2471033901598684
0.09323915414108078 0.32283758357152165 0.24555939144160668
0.09281777910484115 0.3229573293028754 0.24822556680705468
0.09271925262702743 0.32152389720067204 0.247784969272875
0.09371548465980331 0.3225700779257697 0.2464247316744558
0.09375106863273422 0.3218339605627936 0.24586045450236718
0.09379598073257248 0.3226322455702704 0.24609493917491357
0.0937857585359935 0.3222808761893195 0.2444195122149221
0.03954526356948654 0.316420309096424 0.24331402486827294
0.03889327816261093 0.3230079336462897 0.2461859554674856
0.0367699520994548 0.3215561433134955 0.24183273023631494
0.0495146768499736 0.31692420676335514 0.24591165489222924
0.0472607272077922 0.32300489380940617 0.24889516538646142
0.04304506949676315 0.3205491228400153 0.244161602916979
0.04697772435439865 0.31905149653538883 0.2396619290735952
0.04558011464370529 0.3289678616820258 0.24233597225215356
0.04252448252929489 0.32304488852605046 0.23803466266658227
0.04244800977004806 0.31676041319951237 0.24502247280146996
0.04171251825584213 0.3207533283530158 0.24941706365611474
0.03834512404693405 0.321274451762287 0.24358910030391137
0.049754078905713955 0.32250063851460636 0.245790180626177
0.04558127693427841 0.3268396182356757 0.25013851827647604
0.0431057470251445 0.32484548524007023 0.24449795192744653
0.04877578787101547 0.3232642336188239 0.2421704501536123
0.04528978041900436 0.33250974848851383 0.24536239809062402
0.0431464271952037 0.3279074354468268 0.24074089235331933
-0.00911266036735733 0.3160481972990912 0.2546109527971975
-0.012385134179460602 0.31737177804097355 0.2579058379557363
-0.017258856971132355 0.3177143855391425 0.2545621961977712
-0.0002752286981221011 0.3161473198233527 0.254589316311144
-0.004293386418687897 0.3171546383200568 0.2583389253046743
-0.012335096080171661 0.3169313593207282 0.2554821342852346
-0.002611313540803986 0.31818800404652775 0.2530636758234731
-0.004124943692552643 0.3194090051947516 0.25729828781154074
-0.01091695256935318 0.3194909615813178 0.2527401418116323
-0.007726464946138458 0.3184341712294501 0.25328039831187643
-0.011733506400453644 0.3197062535582465 0.25699448293712057
-0.016574118811952667 0.31994353964909733 0.25314348644282736
-0.00020847149597366362 0.32030313447102726 0.2525356978800527
-0.004671279866563873 0.3206034226714057 0.2568151921656362
-0.012836490352022247 0.3207912965117377 0.25324642366435446
-0.0019708020280476382 0.32068824008092106 0.25163483327891745
-0.004767898995744781 0.32195519641026676 0.25579446262385763
-0.010540161807405548 0.32205402091130436 0.2506644100573293
-0.015778247792589264 0.3149491472540778 0.25477885908152975
-0.01678991742836197 0.31562571957692326 0.2562159866717092
-0.01910949178444107 0.3161393924055976 0.254196044864916
-0.011837188680040436 0.31512659028157414 0.2551948398974172
-0.013151560504304962 0.3158191366492194 0.2567231029894582
-0.017290268618928985 0.3159254117308539 0.2551563352968923
-0.011821989495622711 0.31724607184514225 0.25371896928813376
-0.012965206582414703 0.3188532514868659 0.2557091087725393
-0.016374473054277496 0.3182644768057746 0.2533048958208791
0.058798398296964566 0.29834287598714054 0.23926627344157617
0.05779665283454696 0.3072964473067206 0.24274021095302026
0.056255097906721035 0.3028966112433356 0.23859739011790673
0.07323863677276413 0.29527872040852726 0.2402117223170034
0.07088705472244064 0.30478470757588566 0.24341261095073144
0.0676164584566478 0.2993089480696601 0.2387287587549917
0.0698406057764415 0.296883217841236 0.23359048074748437
0.07009669713271896 0.3098612351714057 0.23679834312465112
0.06508457235587875 0.30132966473683537 0.23236107534434716
0.061990584652555386 0.2929014487563056 0.24158417886760156
0.0592081206251506 0.30054061844929875 0.24700802272822778
0.057339365999830166 0.2992488665877265 0.24073916381862084
0.0695860343386058 0.29789089396580876 0.24403387016322534
0.06530576519264022 0.30436252787694157 0.2476214737322561
0.06270929745925705 0.30155258610829533 0.2418296903994314
0.06826248339904586 0.30002879336461247 0.23960977500941674
0.06666445307029525 0.3118310494719428 0.24277043050792138
0.06437634996665756 0.30422209933385075 0.2375879854586355
