ply
format ascii 1.0
element vertex 735
property float x
property float y
property float z
element face 0
property list uchar int vertex_indices
end_header
0.10084420017494003 0.2609637303648871 0.25558489269282736
0.0970339434553508 0.265378467589466 0.2587298125651113
0.0979947405268077 0.2631324453650397 0.2550877303507558
0.1088548856188182 0.2612353487311286 0.2553089827921621
0.10744872264159958 0.26389019921406925 0.2587411970522634
0.10357975534690658 0.26254021361455143 0.25507479614283957
0.10809072427047531 0.2617233915625495 0.25227474874522604
0.10522514156593124 0.26680081322774113 0.25644015974070944
0.09853815607322494 0.25857072308644474 0.2628878921892873
0.09138014487518112 0.2607074899969977 0.26693212694194235
0.08764895371688644 0.26014476254567326 0.2602552146342031
0.1104691880155925 0.26064401105031193 0.26017802661921896
0.10574146680129806 0.26016198828801335 0.2641594976809255
0.0989565508772258 0.26088612511738957 0.25823121971156515
0.09875192813171188 0.2564171476660651 0.2585778803255788
0.09702631406081955 0.2574688120184821 0.2607454628374807
0.0967352943827037 0.256910495310871 0.25653868621852316
0.10096793941749374 0.25861435368642033 0.25862848466899313
0.09908374718917648 0.2593576832114142 0.2604126901056997
0.09922921232475082 0.2580786867438239 0.25652730173137106
0.10180300049079696 0.26099657252415837 0.25859254306819357
0.09916123322738449 0.2637668175993842 0.2617369264986745
-0.02981210180031021 0.31966691449269474 0.2770294517901174
-0.03109616466270645 0.3209158702193183 0.27906310266520895
-0.03285792895065506 0.32034748032674015 0.2775475353625051
-0.026732001979219513 0.321583621054737 0.2776896328356496
-0.028176401336061554 0.3221370501814765 0.28065311616923727
-0.03184897132621964 0.3217374010382575 0.27868795103099264
-0.024021182734834747 0.31963973477467716 0.2767688006785146
-0.026143108088838653 0.32141845658406437 0.27936827844645895
-0.02902135678039749 0.32103418543919743 0.275660511913561
-0.028998379189836578 0.32193075850590885 0.2762888044741384
-0.030757938105928497 0.3227394147215766 0.2785695762064687
-0.032524142939912876 0.32171063855275334 0.27752244180705465
-0.025496636111604767 0.3244299216566962 0.27620505994822897
-0.0274264258931752 0.3241082949934882 0.2794926733401052
-0.03098187275634964 0.3232630415259284 0.27797293371226706
-0.024890844304430084 0.32031475737675846 0.2766590685274831
-0.025831733424532013 0.3212658090887946 0.2789888948824636
-0.028184656579362945 0.3214067144690436 0.2753369182970754
-0.03204706736313065 0.32264720633610905 0.27545499509837545
-0.03234216995941361 0.3227439446745795 0.27575677341487326
-0.03128272720085343 0.32276754811391056 0.2768993348505727
-0.030462835509645538 0.32317542269810856 0.2751376003649465
-0.030726943690645294 0.3232191129027289 0.27548563188579
-0.030302797038423614 0.32266222670659245 0.27709519571330465
-0.026924137551652984 0.32120638325795353 0.27564853137996115
-0.027018134076463775 0.32141583397969425 0.2763927549746267
-0.0271554035733815 0.3219470901785773 0.27560978836085714
0.015195991318357392 0.25738149121388615 0.2751155466463796
0.011306996863019867 0.26384102538212956 0.27867239421870627
0.007685984890592499 0.2621464653311652 0.2744134039309255
0.02660116128219406 0.2589214964209479 0.27555823034312643
0.02465724519981186 0.26111697390660465 0.28032886690165915
0.018148656408918305 0.25981485083684147 0.2758372992899648
0.02223857812179367 0.25862281754597843 0.27135961956050314
0.022520031254423065 0.265666656046955 0.27630048698451437
0.016954447548520966 0.26025890544041813 0.2716197938349477
0.014083470623624725 0.2588891310988349 0.28090792602565207
0.008277888815534516 0.26248037055119694 0.28440969890620627
0.007743652384412689 0.26081620886906803 0.2793415755655996
0.024428810398710175 0.26098721459492863 0.27935445016887106
0.019720937531125946 0.2613987250624579 0.284000036182665
0.016197587769163056 0.26078950598820866 0.27901398843791403
0.020665432732236786 0.2610183282195014 0.27833431667354025
0.01860025100005905 0.26400964692219914 0.2813403577234975
0.016403044979703827 0.2621873541174811 0.27663933939006247
0.011787440102231903 0.254932693987934 0.2788302273180715
0.010933335344922943 0.25672196581944645 0.2815293044474355
0.010698820870054169 0.2569162769614142 0.2787238330271474
0.016124154846799774 0.25717996790990055 0.2790864676859609
0.013631279986036225 0.25876539185628117 0.28178983634974875
0.013453717749250336 0.2579394502936286 0.2792460293200246
0.012550021927488251 0.2611631079016608 0.27779590791728415
0.0122333424497966 0.2644880338011664 0.2802005977061025
0.011821653168332977 0.26236938670262516 0.27770971960093893
0.05029102734817306 0.3260141535101813 0.2575987548258535
0.04675384930862228 0.32887475922688664 0.26117664283778586
0.04504188470138351 0.32713305190190495 0.25741576856639303
0.058966781418455044 0.32716279461964787 0.2584030599024526
0.0570924835611705 0.32734274104222477 0.26280808156993307
0.05136030487312118 0.3272731228171271 0.25738113826777853
0.06248724035514633 0.3234131260214728 0.2546530932810537
0.059755321066511075 0.32580118611439884 0.2577791184809438
0.05388846568359176 0.3251587672530097 0.2525874943163625
0.04909273556960861 0.3277115745840949 0.2570391864207021
0.04373102955116073 0.3296167178450507 0.26113176054027
0.04159467987312118 0.3286154790221137 0.2561591238405935
0.05814075044883529 0.3296828790007514 0.25615191167857565
0.05260741285575668 0.32951515153035343 0.26068937486674704
0.04780622891677658 0.32936643794163883 0.2552067608263723
0.05820026568664352 0.3247324748335761 0.25562148994471945
0.05413344077361862 0.3269767685233039 0.2578510612871877
0.05183246306670944 0.3262874408064765 0.25276422208812155
0.10690849594367782 0.31164639428242863 0.26093929714229025
0.10592096618903915 0.31877481177434147 0.2628318042185537
0.10723024181617538 0.3163236303625983 0.2597787351038686
0.11064171365989486 0.31403642132863224 0.26328164047267355
0.1101848440576915 0.31894784405812443 0.26560580438640036
0.10932156018508712 0.3156944437323493 0.262329635086321
0.11059960297836105 0.3145719690619391 0.25765430635478415
0.11114459804786483 0.3223101420699042 0.26043629354503073
0.10878026060355941 0.31663744881734074 0.2570654124644033
0.10753485135330001 0.31353693440541447 0.2619031042483083
0.10406711272491256 0.31593238547429264 0.2662322492029897
0.10481184295905868 0.31641583874806584 0.26135736412074484
0.11371254495872299 0.31823431685551823 0.26172691291835226
0.1107004838396434 0.31904273465260685 0.265434202614092
0.1112665193487529 0.3176601453123969 0.2609585494425527
0.11420139245284835 0.3196176214514655 0.2594164580729238
0.11269548110259811 0.3232332392035407 0.26276647752787985
0.11007749609245102 0.32156287863835514 0.25872820323970236
0.10641827754272262 0.3099936766920966 0.25813454097773947
0.10455840400947372 0.31010555461034 0.26124959892299093
0.10481920413268844 0.3119693322478217 0.2599340648081533
0.10770439676536361 0.31528782084569157 0.2597025007632009
0.10581925086272995 0.31508510544881047 0.2623597354319326
0.10707127622855941 0.3149348421393317 0.2607367009546987
0.10658090881599228 0.31706582739934147 0.25984233325984396
0.10603606275810043 0.3187626524268073 0.2620159954455129
0.10485153965247909 0.3188410921393317 0.25966602272059836
0.0057720201422099306 0.2891472502051276 0.28375559753444113
0.0019921319891337583 0.29637228682622135 0.2876399130251638
-0.0004278761933918765 0.29426293805226506 0.2832193941500417
0.01647969655288498 0.29434721901997746 0.28348505205180563
0.012708987515104218 0.29666274026021183 0.2887244791414968
0.009026999991071625 0.29480694964513005 0.28361648029353537
0.015467162649763031 0.29441820815190495 0.2772207826998464
0.011211957256925507 0.30179356768712223 0.2821903199579946
0.007123644869459076 0.29753272965535343 0.2772455186274282
0.0050250249315623476 0.2947550339995307 0.28765040344264425
0.0005191224027995297 0.2978641314803046 0.2920845121767751
-0.0006470722745533755 0.29603778555974186 0.2860769004252187
0.018722917359006806 0.2978445811568183 0.2850810260203115
0.011991705219877167 0.2981499357520026 0.29169541305568136
0.008088167231214447 0.2971569223700446 0.28515523380305685
0.014495547335279389 0.297792903929798 0.2821711868670217
0.01017289928687851 0.30261390641316593 0.28623157447841086
0.006288226168287201 0.3005525989828986 0.2807968825724355
0.052745576422346035 0.27653592064961613 0.27621119922664084
0.049298013966215054 0.28935229018315495 0.2824467391398183
0.0445768790651683 0.28398507073506535 0.2762730688479177
0.071468915264738 0.2757810278235358 0.27673679298427023
0.06854980758918564 0.2837545795737189 0.28315370983149923
0.06001784972442428 0.27940528824910343 0.2763285607722036
0.06493499449981491 0.27826594546422184 0.27073520130183615
0.06312337092651168 0.2914331479369086 0.2762204975512258
0.05669563583625595 0.281863264590351 0.27066856330897726
0.054934944431913296 0.27398525908574284 0.28394251770045675
0.04590507916702072 0.28010838463887394 0.289612886371874
0.040298278849256436 0.27908044293507756 0.2812244266894094
0.07622611097587387 0.27974574998006047 0.28010457462336935
0.064912016909254 0.28115736678227604 0.28771555131938376
0.05767330102218429 0.28108929827794255 0.27903479045894064
0.06933265499366562 0.2827794475851935 0.27668708271052755
0.06221091322196762 0.2891397996245307 0.28258156484630026
0.05736061505569259 0.28609775736912907 0.27574473327662863
-0.020728175122606354 0.26667385533436955 0.2770921558764211
-0.02036884852157791 0.2693154735861701 0.2813050717737905
-0.022315446812975006 0.26978903248891056 0.27719258970286764
-0.01571146078811844 0.27041953042134464 0.2792625398066274
-0.019460741956102447 0.27463268473729313 0.28348666137721457
-0.020661060292589264 0.27195053532704533 0.2794159025576345
-0.017176244933473663 0.2724260611830634 0.2751051754381887
-0.020951096494066315 0.2819989247618598 0.2782828182604543
-0.02165240474449356 0.27595453694447697 0.27445298141505636
-0.02086776920067032 0.2707793040572089 0.2773881525423757
-0.022644911486970978 0.2712429089842719 0.28216767019297995
-0.02362090774284561 0.27219878867253483 0.27821248477961935
-0.016458128173219757 0.27600543931111515 0.27779203361537375
-0.020689879138338165 0.27643149331196964 0.2833790153887502
-0.022121493298875885 0.2749670667944831 0.2791763514902822
-0.020767484385835724 0.27713870242222965 0.27716594642665304
-0.022364590842592316 0.28050028517827214 0.28063451952006735
-0.023329143006670074 0.27881359294041813 0.27671277231242575
-0.021603230912553863 0.26681380704030216 0.275568422737383
-0.020794485289918976 0.26710038617238224 0.2783940405276052
-0.01935378142105301 0.26951586440190495 0.27681421941783346
-0.021642093140947418 0.2720189614592475 0.2765433759119741
-0.023057971675264435 0.27299266293629826 0.27936273521449484
-0.021917198378908233 0.27203869059666813 0.27843725389506735
-0.02259999938713272 0.2722424192725104 0.27585851854350485
-0.024337117154466705 0.2751450462637824 0.2787115544703237
-0.02234071918235977 0.2741621656714362 0.2770526976015798
-0.020253930766450958 0.26832812264546574 0.27794146245982565
-0.019929800708162384 0.2678055091200751 0.281747576656603
-0.020291690308916168 0.270609967261402 0.27933072752025045
-0.01792252488838394 0.2737165017424506 0.2786660761263601
-0.021449450929033356 0.27427517607793034 0.2832886547472707
-0.02086618967758377 0.27306800320729435 0.2810306519892446
-0.021517638642656402 0.2749664707480353 0.27856439060237326
-0.022561017949449615 0.2773480339346808 0.2818136782076589
-0.022113744695055084 0.27666258051976383 0.27912491268184103
0.07210999302161972 0.2582014723120612 0.2651265830424062
0.0711356358934764 0.2609342260657233 0.2663422197726003
0.07204338483108322 0.2599189801512641 0.26479881710078634
0.07408219150794784 0.2576301617918891 0.2684557408716909
0.07279946975005905 0.26060425475224674 0.26964312500026144
0.07268312148345749 0.25869273379429997 0.268394407692217
0.07196527294410507 0.25671129658803166 0.26581412261989035
0.07072084717048446 0.26446860268696964 0.26845490640666403
0.06976171902908126 0.2592841310797614 0.2665604919817678
0.07314309052718918 0.25586044028386296 0.2680277199175588
0.07198109797729293 0.25694798663243473 0.27037840789821066
0.07024198345435897 0.2567176742850226 0.2662342161562673
0.07543679646743576 0.25783752635106266 0.26893567747142233
0.0740861552168254 0.2584327383337897 0.27127968973185934
0.0720589416433696 0.2577861471472663 0.26723295158412375
0.07426061801208297 0.2606324477492255 0.26904636329677023
0.07296037248863022 0.2641115112601203 0.27173012203242697
0.07223346404327194 0.2621164245901984 0.26828050321605124
0.07251533440841476 0.25402646496876896 0.26577394908931173
0.07229914836181442 0.2543574495612067 0.2661976189043752
0.07184615306152145 0.25471239522084416 0.26444393104579367
0.07248499564422409 0.2547287268935126 0.2674732775118581
0.07225921324981491 0.2551899476347846 0.2679265112307302
0.07200789026511947 0.25480925276860417 0.26602238124873556
0.06999304465545456 0.2567596955595893 0.26921653455760397
0.06918489507926742 0.25944822266682804 0.27082484668757834
0.0695659475733165 0.2584235592184943 0.26897823518779196
0.07055249385131637 0.25673531725987614 0.2667239875223867
0.06902822427047531 0.2590888662634772 0.26874476379420675
0.06891938618911544 0.25816088154896916 0.26534759706523336
0.07398053578628341 0.2574607653914374 0.26801889843013205
0.07290815881980697 0.2591490073500556 0.27001636928584494
0.07103520206702987 0.2581130786238593 0.26696002191569723
0.07190528086913864 0.25812750294789494 0.26650440401103415
0.07177584938300888 0.26358281806096256 0.2693993420031301
0.07133215240730087 0.25942616894826115 0.26656400865580954
0.08807253412498275 0.2861301226912421 0.2620356649782888
0.08802040986312668 0.29539959862813175 0.266443666878008
0.08601343206657211 0.29462193682774723 0.26338022655513205
0.09378391079200546 0.29110216334447087 0.26443814939525045
0.09303471020950119 0.29923897221669377 0.2676239580538503
0.09094896487487594 0.29486554101094425 0.26479613489177145
0.09480213693870346 0.28996067479237736 0.2578878373530141
0.09369119576705734 0.3028600735960883 0.2621284098055593
0.09086411766303817 0.29423462584599674 0.2590429157641164
0.09050035051597397 0.2855948729811591 0.26710170215632834
0.08562069706214706 0.291496209651081 0.2728947371866933
0.0820670085359935 0.29226183131322087 0.2661805123713247
0.09849449567092697 0.29333578780278385 0.2663925856974355
0.09201311640037338 0.29710375502690495 0.2706410855677358
0.09169092349304 0.2949156089125556 0.26467257446315207
0.09845101408256332 0.29702114298924626 0.263547417583727
0.09546315244926254 0.3031271620093268 0.26776623434092917
0.0929683106352214 0.29965554907902897 0.2626728386309377
0.0903077083040599 0.2796955032645148 0.2640190095331899
0.08705412916435043 0.28398143485173405 0.27047532505061544
0.08541526965392868 0.28677230313405216 0.2653736442950002
0.09221595100654403 0.2895597739516181 0.2659425706293813
0.08876263670219223 0.29260914757832707 0.2695189685251943
0.08915006689323227 0.2916642947493476 0.2648783893015615
0.09386860899223129 0.29379843905553044 0.26407319015529074
0.09130224160445968 0.29960881903752506 0.26754057115580954
0.0906552927900676 0.29731833174809635 0.2639322847750417
0.009272809546125336 0.3230592532454413 0.25559627717997946
0.007996912520063324 0.3249382896719855 0.2576485843088857
0.008993382971418305 0.32333069279774845 0.25589132017161764
0.009676631014478607 0.3265344424544257 0.2585808009531728
0.01441871694816391 0.3218786044417304 0.25857203907039084
0.012169446270597382 0.32346295550450505 0.260587212505602
0.011383976261747284 0.32238178685292423 0.2574209541704885
0.012755866568220062 0.323550276309101 0.2600612015154592
0.01632231048835556 0.3202425165472907 0.2540637225535146
0.014398570578229828 0.32417576745137394 0.25546717351939596
0.012953455965650482 0.32191937401875675 0.25205504602458395
0.0091663258482341 0.32079463437184513 0.25783842510249533
0.00713949970496933 0.3220006151495856 0.2613157600786916
0.008713032524717255 0.3211125059424323 0.2584689230349294
0.014682288687360687 0.3210514707861823 0.2592677444842092
0.0116687672544841 0.32200442984685124 0.2627692193415395
0.010679300348890228 0.32119929030522526 0.25864422029521383
0.014966453831327362 0.31942295268162907 0.2571287722017995
0.013014967959058685 0.3220827503500861 0.25847345298793234
0.012422885220182343 0.32101207211598576 0.25503658956553854
0.00634035043014328 0.32034098342045964 0.25859504646327414
0.006478096764219208 0.32037555411442936 0.25923198169734396
0.00840261153472702 0.32182007268056095 0.2597768873598806
0.00877838901771347 0.32056163981541813 0.2595905632403127
0.008649255554807587 0.32062482073888005 0.26019841140773214
0.010042633335721893 0.32134007647618473 0.25991064018275656
0.010642405073774262 0.3207314534483832 0.2593883842852346
0.010131056826246185 0.32123660281285465 0.2598792881396047
0.008293773453367157 0.3225138707457465 0.25820535129573263
0.07553508452667038 0.306560210734455 0.25957280105616964
0.0730810122896556 0.3184754176436347 0.2633927435305349
0.0747325973917369 0.3149438424406928 0.2588608831789724
0.07578119210494796 0.32398777440175236 0.26138639158275045
0.08441063336623947 0.3127497358618659 0.26170879310634054
0.0804175990034465 0.32134973242863835 0.26558160490062155
0.07849767379058639 0.31653475001439274 0.26078158325221457
0.08134686521781723 0.31780069306477726 0.2549200028803579
0.08014249376548568 0.33034055665120304 0.25860929197337545
0.07622405461562912 0.3218983931837958 0.2543788523104421
0.07409694365752975 0.31567322447880924 0.2614940375712148
0.07029705814613144 0.3217989130316657 0.2671511740114919
0.06925233773483078 0.3213951511679572 0.25995593971278586
0.08611529640449325 0.323860756903736 0.2606514067080251
0.07891121081603805 0.32675348952397526 0.2665159077074758
0.07773193291915695 0.32480131819829167 0.25954520410563864
0.0846389489580516 0.3272726459799689 0.2564297885325185
0.07924931816352646 0.3351738376913947 0.2621593446161977
0.0763883250166301 0.3309427423773688 0.2564330071833364
0.036656107227933804 0.3106759710608405 0.27874749607112326
0.033248330872190396 0.3212621732054633 0.28271841711070456
0.030480946819913788 0.3164408130942267 0.27805792993571676
0.049353863518369595 0.3157188816367072 0.27928596443202414
0.047290946762693326 0.3201707525549811 0.28513973659541525
0.04096459917320053 0.3173736257849616 0.2789559335139028
0.048822011273038785 0.3137238545714301 0.272717294159197
0.04616367391837875 0.3224412722884101 0.2785563439753286
0.039447660963666836 0.3169797582922858 0.2728822202112905
0.031655724566114346 0.3171199484167975 0.2831966847803823
0.025597627680433197 0.3228733463583869 0.28777199691798605
0.022901471178663178 0.3198104424773139 0.28041511482264914
0.0507205980230693 0.3204936905203742 0.2805983395006887
0.04156910948051254 0.32151662543400944 0.28821837610270895
0.03517451457275192 0.3211303873358649 0.2793962330248586
0.0449290531088237 0.3206888957320136 0.2759906620409719
0.03806823066962997 0.32848214343175114 0.28095251029994406
0.03469398192657272 0.32394229605778874 0.27429973787333883
0.02658772043479721 0.2733127994833869 0.2771552175905935
0.022612269442212982 0.28485988810643376 0.28338837331797995
0.018458749573362274 0.28081636860951603 0.27791922992732443
0.04179381899131576 0.27614080145940006 0.27800124591853537
0.03784685901893417 0.2820269389449042 0.28407334989573874
0.031722332756650845 0.278275184184162 0.2783473104861013
0.03787195257438461 0.27668678000554264 0.27165579504039206
0.036962177078855435 0.28689896300419987 0.27749001688029684
0.02941047720207016 0.2797804994879645 0.27231770462062277
0.026017154972684784 0.27518921330556095 0.2824857801821462
0.018200989287031098 0.2808687014876288 0.28690588182475485
0.015540148537290497 0.27899854615315617 0.28001284307506
0.04239150456680099 0.28074782326802433 0.2789782256510488
0.03407039813293258 0.2813844008742255 0.28566705888774313
0.029161776821744843 0.2807905597983283 0.27845537370707907
0.03715079597724716 0.28140079215153874 0.276403543415331
0.032655562679899136 0.2858343644438666 0.2807247013476125
0.0285236792971019 0.2834928555785102 0.2748878569033376
0.04456010035766403 0.25583796933278263 0.26968043750789084
0.04067891411079208 0.26205747559651554 0.27371531433131613
0.03899475507034103 0.259571902304737 0.26989835208918966
0.05831738881362716 0.2567479534445685 0.2695400089648
0.05523505381835739 0.260544471293537 0.2735775083925954
0.049222494881284634 0.2583397550879401 0.2701857060816518
0.05295672587646286 0.25655441716298283 0.26535778945948996
0.05239483289016525 0.2657489700613898 0.27000713056590475
0.04695984296096603 0.2592427058516425 0.26619893020656027
0.04218059353126327 0.2567289395628852 0.27783947891261496
0.036096807043683926 0.2603689356146735 0.2818316192057363
0.03261905483497421 0.259718112498371 0.27558290666606344
0.055025096457136075 0.25912415221318424 0.275472101631426
0.0492019908834819 0.26007740929707707 0.2799746961024038
0.04431590012801925 0.2599809093771857 0.27423530525233664
0.051053281347883145 0.26090776160344303 0.27347063726451315
0.04861351422561447 0.26384996607884587 0.2776540488627187
0.04602855018867294 0.2615729494391364 0.27259313768412985
0.042515720646512906 0.2513241691885871 0.2730616301920644
0.04122206143630783 0.25245045855626286 0.27647679752376
0.039360399763715664 0.2537394089995307 0.2724494308855764
0.04787942342056076 0.25363051131352604 0.2729006380465261
0.04534786514533798 0.25512420371159733 0.27568703598048605
0.04352351598037521 0.25461428597554386 0.27224629825618185
0.04432165197624008 0.2590809388457221 0.2717995614435903
0.043899740498197476 0.2622789664565009 0.2749944896128408
0.042655761759412686 0.26056813433751286 0.27200847572352804
0.001423861305845184 0.27005528643712223 0.27109604782130636
-0.0008808118890400699 0.27824389174565495 0.2762919635203115
-0.0044743461202259825 0.276971690207569 0.27111202186610617
0.01031708292259018 0.2751302643118781 0.2720320195582143
0.006274517099988861 0.2799174113570136 0.2768487305071584
0.002833719771039886 0.27725952103718937 0.27193480438258566
0.006957288305890961 0.2771668954192084 0.26618569797542013
0.004384513418806 0.2867811246214789 0.27069133228328146
0.001506324331891937 0.28027456238850773 0.26639973825480856
-0.002548520047533112 0.2748745007811469 0.27496152824428
-0.006896827895509796 0.2770135922728461 0.2788287372019521
-0.008103851754533844 0.27648114398106755 0.2733447522547475
0.008492554943693085 0.2787713332472724 0.27238994545009054
0.0014250832010630795 0.2798404021559638 0.27748918241527
-0.0006835205148335269 0.2784717006979865 0.2724052638437978
0.005430008690488739 0.2782585544882697 0.2707076639559499
0.0017632501531962583 0.281829289942829 0.27455496496226706
-0.0008648974488850406 0.2802199049292487 0.2695446581270925
-0.015806381184923248 0.3044419212637824 0.2779725760843984
-0.019456778247224884 0.30636268094166935 0.2811371654894582
-0.021831099469530182 0.30586182311162174 0.2783932656672231
-0.008703742701875763 0.30700474217518986 0.27769082492854513
-0.013745848615037994 0.30733024314030827 0.28249609178569235
-0.018476043422090607 0.3069917483626288 0.2792027563479177
-0.007775161940919952 0.3090583010016364 0.2760885328676931
-0.010304574448930817 0.3105016274748725 0.2800463408854238
-0.014797006327974396 0.3099801464377326 0.27555793231990255
-0.015900407512056427 0.3083224220572394 0.2793959946062795
-0.01938027568565567 0.309567384272663 0.2828301758196584
-0.022328768451082306 0.3086896462737006 0.27972310489680685
-0.007979158837663727 0.310810379534809 0.2782385320093862
-0.01291922159897049 0.30998187497243107 0.28372144407298483
-0.018008862216341095 0.30964868500813664 0.2797304362681142
-0.009204958159792023 0.3078158421812934 0.2777688474085561
-0.012119059045183258 0.3094208164511603 0.28135335153605856
-0.0163485450338002 0.30956362918004215 0.2759387463953725
-0.021963093955385284 0.30770831540211857 0.27720439142253317
-0.023073707301485138 0.3082165642081183 0.2786362738039724
-0.023715768535005646 0.30761998131856144 0.2782586187746755
-0.019225422818529205 0.3098798318205756 0.2767123550799123
-0.020597789962160187 0.3099299593268317 0.2788016766932241
-0.02234811015831192 0.3087892456351203 0.2786248893168203
-0.01760843821274002 0.30642157033070744 0.2770490617182485
-0.018800650317537384 0.3074699564276618 0.27908855384852804
-0.020070110041963653 0.3073253555594367 0.2762664527323476
0.05950939230216781 0.3003144784270209 0.26959347433116354
0.0583405452181224 0.31369780734166325 0.2737070888903371
0.05647471122039596 0.3083653970061225 0.2688364357378713
0.05930345825446884 0.31558435395344914 0.27133613533046164
0.07111933402313034 0.3022121711073798 0.27191573089625753
0.06871109775794784 0.31230514481648625 0.2762176365282766
0.06464573315871994 0.30603956416234196 0.2709288567927114
0.06854962877525131 0.3065873308478278 0.2645786971476308
0.0665052192617778 0.3207473082838935 0.26861858076121725
0.061985935490262906 0.3111749215422553 0.26400458520915426
0.059728528778684536 0.3045496268568915 0.27230006164576925
0.05702608398689071 0.31016402676686466 0.2776390880968801
0.05270126036895553 0.3091609401999396 0.26992112106349386
0.07538207940353195 0.31055062249287785 0.27127003377940573
0.06740012339843551 0.3141747637091559 0.27813815778758444
0.0634498255659465 0.31255238488301457 0.270126220646166
0.0713875549246196 0.31453727915867985 0.2660095066454641
0.06557648948921005 0.3249446673689765 0.2717917532351247
0.06242438725723068 0.31871574357136906 0.2657083839800588
-0.026929263551103668 0.2539440317450446 0.2791373700525991
-0.02933612890945633 0.25447606280430973 0.2809931010630361
-0.029895965535509186 0.2534310145674628 0.2788493604090444
-0.0201649410318013 0.25402789548024357 0.27827232784297384
-0.022299144942628937 0.2538413329420966 0.28069042867686667
-0.02693930693374832 0.2532709760962409 0.27893405860927023
-0.023701403815614776 0.25202637150868595 0.2796030611422292
-0.0235773367475148 0.25213538840398014 0.28243046707179464
-0.028767172772752838 0.25319694712742985 0.2776395649340383
-0.02445280976997574 0.2585935516653937 0.2809396356966726
-0.02645129390464981 0.25847797825917423 0.2821537823107473
-0.027320180613863067 0.2567577286063117 0.28075587457683004
-0.019944403846132355 0.2591339273749274 0.2795817226793996
-0.021764699895250397 0.25865714982136906 0.28125482505824484
-0.026179049689638214 0.2571476025877875 0.2803069323923818
-0.020390753228532867 0.25530605748280705 0.2817761272814504
-0.02068141527878006 0.2554730696974677 0.28353082841899313
-0.026032273251878815 0.256924562007038 0.2788339228060476
-0.02839771338211258 0.25719933941945256 0.2780626983072988
-0.027751837451326446 0.2571396751700324 0.27742361730601706
-0.025701318461763458 0.255970291644184 0.27829575246837057
-0.028396044452058868 0.257224969416706 0.27809959358241476
-0.027754340846407013 0.25717633202656925 0.2774596185114614
-0.02578071184860428 0.2559991402922553 0.27835464185740866
-0.0298315031121846 0.25549375250920475 0.27914493984248556
-0.03000039287315567 0.25552188590153874 0.2786253661539785
-0.029463176209795074 0.2550817055998725 0.2791596025851003
-0.02814826794372757 0.25601857140645207 0.2803716630366079
-0.028213922459947662 0.2560160680113715 0.28042787021663107
-0.02691942878471573 0.254014782458393 0.28090119070079245
-0.027954433638918 0.25645308926686466 0.2802779049303762
-0.028042529303896026 0.2564408703146857 0.2803561062243215
-0.02767163940178116 0.25432949498280705 0.2811369866755239
-0.027632628161775665 0.2541356010733527 0.28208285278346457
-0.027630661208498077 0.2541320247946662 0.28205161994960226
-0.029737804610597687 0.25445836022481144 0.280937132301592
0.08339872531188766 0.27312951520070256 0.26124155229594626
0.08173486165298263 0.28134017422780216 0.2652103871729604
0.07998999528182785 0.2780877275763434 0.2615880937006704
0.09434261492980758 0.27320169642552555 0.2616766662028066
0.09352483920348922 0.2794184608755988 0.2658396334078542
0.08821945957435409 0.2761261983214301 0.2620646924402944
0.0927019076753978 0.27470045521840275 0.25695097154643454
0.09043973259223739 0.2853623552618903 0.2618707389261953
0.08653035334838668 0.2780303879080695 0.2582651943590871
0.08207246236099044 0.2725529594717902 0.26835190958049215
0.07552846841110031 0.2769406957922858 0.27314781850840963
0.07137503794921676 0.27598481610402287 0.2658798665430776
0.09724387101424972 0.2746308369933051 0.2656066388514272
0.09070640377296249 0.2759461922942084 0.2706469268229238
0.08539807371391098 0.2757784052191657 0.2638787598040334
0.09300323895705978 0.278431765585987 0.26375442451503195
0.08999093941940109 0.28264104560002506 0.2681134313967458
0.08160444669021408 0.26823627188786686 0.2642401427653066
0.07865106634391586 0.271504275351612 0.26875513500239767
0.07646598986877243 0.2722209616003913 0.2634034127619497
0.08681183628333847 0.27183931305989445 0.2643774718668691
0.08317356876624862 0.27432166770085514 0.2676830262568227
0.08296635321868698 0.27276264861211 0.26293915218379416
0.08665442041648666 0.2777934594450873 0.26358377641704
0.08465417794479171 0.2828643245993537 0.2672061294939748
0.08326839975608627 0.2798658533392829 0.26317745155360617
0.02124082617057602 0.31970875695332707 0.25968342727687277
0.01911931804908554 0.3268470688162726 0.262802001896166
0.01965999178184311 0.3236204905806464 0.2589530915644399
0.020842458527219696 0.32519494727238835 0.261073109569811
0.031224246542585297 0.3227812571822089 0.26168095773723044
0.026695664446485443 0.3277895970641059 0.2652268380549184
0.026214505951536102 0.3243076129256171 0.2613943190005056
0.03079774550689499 0.3205304665862006 0.25491690343882956
0.026783193867338104 0.3293142242728156 0.25886892980601706
0.023804839174878998 0.3241865558920783 0.254595157566332
0.018662239830625458 0.3227141423521918 0.25841772264506735
0.016112263720167084 0.32756077483281315 0.2626367182162038
0.015601213495862885 0.32595526412114323 0.2568052381899587
0.028460468571317597 0.3262514992056769 0.25831597751643576
0.0233703213144664 0.3289027138052863 0.2639287084963552
0.021115984242093964 0.32736336424931706 0.2576629490282766
0.027316238205564423 0.3238101525603217 0.2542136878397695
0.022825713675153656 0.33057039216145695 0.2581673831370107
0.021240796368253632 0.32665782406911076 0.2530920476343862
0.09737562708152572 0.27927713826283634 0.25637620395686544
0.09711291960967819 0.28278153374776066 0.25854515737559713
0.09640690259231369 0.28218578532323063 0.25621556943919577
0.10120126179946701 0.28066956236943424 0.25832009023692526
0.10028218797935287 0.28407084181889714 0.2607555956270925
0.09902301005615036 0.2824863715468329 0.2583439916994802
0.10120060614837448 0.28302764132603825 0.25592034763362326
0.09978743962539474 0.28958212569340885 0.25941967672374167
0.09936397842658798 0.2849934621153754 0.25646310752894796
0.09794222883476059 0.2797626180945319 0.2619656295206777
0.09379609994186203 0.2817543072997016 0.2658525676157705
0.09220358304275314 0.28144412472829045 0.25981712049510397
0.10488968662513534 0.28263037636861027 0.26100730604197897
0.10099520854247848 0.28340839579686344 0.26458227342631735
0.09942403010619918 0.28241997197255314 0.2591738075640432
0.1049682753492717 0.28598325684651554 0.260349449577593
0.10293381981147567 0.28947900965794743 0.2639327616121999
0.09765845112098495 0.2774878664313239 0.2585568994906179
0.09778898529304306 0.27807580664738835 0.2602627248194448
0.09569510392440597 0.27876990273579777 0.2573725551989309
0.09847613744033615 0.27967380717381657 0.2595230311777822
0.09790935687316696 0.2803330345450324 0.2609614700701467
0.09879347256912033 0.279210619479267 0.25765305465724386
0.09890934399856369 0.2854323907195014 0.26148914999034323
0.09687327913535873 0.2881426139174384 0.2638702959444753
0.012703891317975922 0.3169936461745185 0.28005027479197897
0.011716808598173065 0.3226110263167304 0.2833989233401052
0.010945673506391449 0.3206137342749518 0.2784470886614553
0.0214419024397258 0.3205188436804694 0.28231352275874533
0.018163289349210663 0.32461559012517155 0.28602957433726706
0.0163721101690654 0.32213329508885563 0.28138416713740744
0.021088059466016693 0.31745558217152775 0.2763076395418874
0.01744707993758957 0.3262208028136176 0.2795814842608205
0.015161182205808563 0.3212933464346808 0.27522003358867086
0.011886681835782929 0.32090484336003483 0.2799439401056997
0.009408469717634125 0.3253391309081 0.2846106857683889
0.008753086846006317 0.3242649956046027 0.27816843694713034
0.021938289921415253 0.324343733340351 0.28005784458186544
0.017749424498212738 0.32654111817464054 0.28591239160563864
0.01493104867233078 0.3253514690695685 0.2792564601328603
0.021060790341031952 0.3243442101775092 0.2753085464861623
0.016855801861417694 0.3317967577277106 0.2797772259142629
0.014880921166074677 0.32764070466145695 0.2744696111109487
0.03582834772361557 0.29110800459965885 0.27763676351573385
0.033295656960142056 0.29673903420552433 0.28009128278758444
0.03177395037902633 0.29448073342427433 0.2767886490252248
0.033571477453840176 0.29626714423283756 0.27912461465861715
0.04481508902801315 0.2908400817213935 0.2786850900080434
0.04379936627639572 0.29213570788487614 0.2831281394388906
0.039111609976423184 0.29114340975865544 0.2783608407404653
0.04313516191734115 0.291469924002735 0.2742884129908315
0.04174124769462387 0.29693710044011296 0.2777242631342641
0.037769223969114224 0.29357027247533024 0.27329742616679586
0.03388914040817062 0.29274647667988957 0.27896839088466086
0.029468055288923187 0.2960190100966376 0.2828992576029531
0.029614474098813934 0.293847910910694 0.2774031133082143
0.04479085973991195 0.2937272711096686 0.2781733841326467
0.039559926312101285 0.29450058177098454 0.2836692304041616
0.03613835148109237 0.2938081546126288 0.27760451740291037
0.04172259144080917 0.29355471566304386 0.2761097521212331
0.03933548502219955 0.2971145434676093 0.2787995309260122
0.03594335488570968 0.2956504149733466 0.274026629390978
0.07167109421981613 0.29227935507878483 0.26581722206141867
0.06987851433051864 0.30258356764897526 0.2701787919428579
0.0685021834780101 0.299427859335987 0.2660252422716848
0.08007603458656112 0.2947122974692267 0.2673991889384023
0.07786571554435531 0.3026447220145148 0.271398660602831
0.07562514714492599 0.2978507800398749 0.26730692094829
0.07839503459228317 0.2974240107832831 0.2617471188929311
0.07671561412109176 0.3096685929594916 0.2661806315806142
0.07340815238250534 0.30101632311925114 0.2621830672648183
0.0726324575353984 0.2915806098280829 0.27200269407298483
0.06753417424453537 0.29659026101216496 0.277403470936083
0.06424381903899948 0.2962610645590705 0.27009290164973654
0.08490374259246627 0.29705261424168766 0.2701365322497121
0.07844948343528549 0.29923563435658634 0.27569043344523825
0.07585832051528732 0.2978099508582038 0.26891773647334494
0.08203953079475204 0.3022627754507941 0.26761322921779074
0.07814868859542648 0.30818044379338444 0.27228122657802023
0.07432186178458969 0.3051501436530036 0.266763445797228
-0.021195237119066315 0.32562046483143986 0.25936978763606466
-0.022225831229555206 0.3264704866705817 0.261774477424883
-0.022093449313509064 0.3256153388319892 0.26073562807109274
-0.017142329890596466 0.32568197682484806 0.2610370487597219
-0.01916304655777176 0.3263173623381537 0.26422452634837545
-0.019887868840562897 0.32559578850850285 0.2620136112597219
-0.015829805810319977 0.32403140500172795 0.2598308891680471
-0.01719981857048233 0.3261338992415351 0.26153027719523825
-0.019603882510530548 0.32576971486195744 0.25813090509440817
-0.0208496493886586 0.32737480834111393 0.25848531431224264
-0.022076253373491363 0.3276602549849433 0.26155203289058127
-0.021588508565294342 0.3271881861983222 0.2601653308298818
-0.016626362283098297 0.32774024441823185 0.25967645353343405
-0.01864177413688858 0.32794123128041447 0.26335113948848166
-0.01932517119156082 0.3272213263808173 0.2608936399843923
-0.016966734607088165 0.32513343527898014 0.25873619026210226
-0.017957035977708893 0.32663052514180363 0.2602823347475759
-0.018266354281770782 0.3261972589789313 0.25718003219630636
-0.024777953107225494 0.3300743027029914 0.2585205406573049
-0.02491444774376114 0.3301531596480292 0.2589276999857656
-0.022528831441270904 0.3310475869475287 0.2601355285074941
-0.022509012896883087 0.3300463481245917 0.2585459322359792
-0.022683982331621246 0.33012568190678776 0.25907820171382345
-0.021046493728029327 0.3305628223715705 0.26032095855739035
-0.02001491614090164 0.32904600337132633 0.25912105745341696
-0.020050082881319122 0.3292393012343329 0.25944971746470846
-0.02008775301681717 0.33037399485692204 0.2587453097727529
0.10319208673728744 0.29763298466786564 0.2586908311274282
0.10347753338111679 0.30194126799687565 0.2598214716341726
0.10085659794105331 0.30331819489583195 0.2581008643534414
0.10416858963264267 0.3007546587286872 0.2619085282709829
0.10438307694686691 0.3047940655051154 0.2632209033396474
0.10376026801360885 0.3032436890898627 0.26118421262767233
0.10373383335365097 0.3020668549834174 0.25768089002635397
0.10384985379470626 0.3109641595183295 0.2598381609347097
0.10313635639442245 0.30493538811787785 0.25741380161311544
0.10302245191825668 0.30016862586125553 0.2593607873347036
0.10019704274429123 0.30265121892079533 0.2637318343546621
0.09850960544837753 0.3043932242690009 0.2587894172098867
0.10548647813094894 0.3046620412169379 0.26070916360881247
0.10280918649925033 0.3063892646132392 0.263367232742571
0.10348179511321823 0.30521684125050724 0.2589654297259084
0.10732927493346969 0.30893152192219914 0.259525474968218
0.10556932858718673 0.3128893895445746 0.2624391884234182
0.1047694044519786 0.31123434737309635 0.2589492768671743
0.10312911443008224 0.29789458945378483 0.2556313247111074
0.10299947432769577 0.2977396769820136 0.2567521900561086
0.09991508297218124 0.29963278010472477 0.25734382576014914
0.10193329624427597 0.3022509737311286 0.2583889932062856
0.10149451665176193 0.3023017568884772 0.2591635555651418
0.1003264444280986 0.3023614211378974 0.2586502999689809
0.1014463859011058 0.3043021483717841 0.2592344850924245
0.10054269007934372 0.3055799527464789 0.2606320351984731
0.10184573702110092 0.30613087847813786 0.25898182100322165
-0.0018167538236256412 0.3261355681715888 0.27169531291987814
-0.0035992605279560855 0.3288862629233283 0.2739549250033132
-0.003220264394151764 0.3272571487723273 0.2716655702021352
0.004381235163343353 0.32637684777363957 0.2733603090670339
0.001419271748197479 0.3279848022757453 0.2766411871340505
0.0008362191130046079 0.3265642447768134 0.2733608455088369
0.006263371031415863 0.3235992117224616 0.2698668212321035
0.0035630720068339536 0.32746999695882023 0.2720017403986684
0.0008129434992198178 0.3257046861945075 0.26823174661662497
-0.0032733423303242496 0.327880315333454 0.2711262673762075
-0.0057068807672138976 0.32963549330815495 0.27469324773814596
-0.0049092216085072325 0.328560463934986 0.27140974706675924
0.00331341795219223 0.3291838689146918 0.27175223535563864
-0.0004106206487294009 0.330020002871601 0.2760158748057119
-0.001632694680559235 0.3289222641287726 0.27188998168971457
0.0027451770712260434 0.32670360043629826 0.2694725365069143
0.0007976251055125424 0.32932811215504826 0.2716835112002126
-0.000526909310686188 0.32818489506825627 0.26767688697841086
-0.005346421677934723 0.32642167046651066 0.2724689812090627
-0.005463753421175079 0.3268892093001288 0.27352851337459005
-0.003280643899309235 0.32773279383763493 0.2735492557909719
-0.0030521196912403873 0.3273957295714301 0.2729563087847463
-0.0036066813062306216 0.3275226278601569 0.2743502230074636
-0.0014464897702809146 0.32734500601872624 0.2738432855036489
0.0002910750318888852 0.32582031920537174 0.2722182840731374
-0.0007491750310536197 0.3270118160544318 0.2736383051302663
-0.0017052931378956607 0.32769422963246525 0.271598753395342
0.08071282080901901 0.25499867632970036 0.26764124340083517
0.078852708857191 0.25782888367757023 0.2696916431811086
0.07924723200095932 0.25637178853139103 0.267706033649706
0.08494406513465683 0.25429361298665226 0.26962202495601095
0.08381625584853927 0.25646816924199284 0.2721919388201467
0.08114078215850631 0.2552914543448371 0.2701208562281362
0.08530085853828231 0.25444137290105046 0.26597255176570334
0.08299228123916427 0.25965040162190617 0.2697861165430776
0.08171468548072616 0.2561976833640021 0.26718300289180197
0.08152836136115829 0.252849273234455 0.27221989339854635
0.0780265586782817 0.25381772950276554 0.2750892013933889
0.0738429980684642 0.2538154049216193 0.27016550010707296
0.0867185252119426 0.25556980803593815 0.2713096112635366
0.08372872642768661 0.2553117199240607 0.27438419765498556
0.0787219362665538 0.25549619629964054 0.2697851032641164
0.08394351176513473 0.25612055495366276 0.27048718637492575
0.08157366089118759 0.25859832003697575 0.27385717338588156
0.0785799878050212 0.2514464183150214 0.26943671411540426
0.0779589968134288 0.2520317955313605 0.2706747025873891
0.07923084072364608 0.2511218710242194 0.267917808952593
0.08056783251060287 0.25227170422658146 0.2696110577013723
0.07975312642349044 0.25272833541020573 0.27083790010478415
0.08093553356422226 0.251456610709278 0.268252965870165
0.07918268017066757 0.2529979868231696 0.2701213330652944
0.07812809519065658 0.25516843035802067 0.2725407452013723
0.07984521559966842 0.25347083047017277 0.2700091571238271
0.07970895938171188 0.2541060967741889 0.2694347471621267
0.07678943447364608 0.2557404561339301 0.2723748058703176
0.07435640267623703 0.25529002383336247 0.2682541579630605
0.08660125307334701 0.2550961299239081 0.2686424226191274
0.08388882450355331 0.25556402638539494 0.2719640702631704
0.07941713504089157 0.2554550690947455 0.2680138916399709
0.08301132492317001 0.2556310220061225 0.2678860992815725
0.08132728509200851 0.2590418978033942 0.2713849515345327
0.08025994471801559 0.2564358039198798 0.2678663701441518
0.08489378861678878 0.3124468846617621 0.2592711419489614
0.08386674098266403 0.3213843031226081 0.26172768777873434
0.08376621774925033 0.31946658328160465 0.25801008647944845
0.09098422102226059 0.31330811217412174 0.26104390329387106
0.0898559945036296 0.3197641892729682 0.2631465763476125
0.0891737299372081 0.315915040522663 0.26005571788813986
0.08996206096900741 0.31353967621907414 0.254461941185259
0.0895147281099681 0.32337748244389714 0.25725876993205465
0.08731236628783981 0.31654106810673893 0.25398659414317526
0.08878349832786361 0.31371115878209294 0.25871222919490255
0.08399682811988632 0.31793557837590397 0.26391499942805685
0.08383959106696884 0.3189142866431159 0.25790619558360495
0.09455737046493332 0.3204672260580939 0.2587169975664846
0.08972516230834762 0.3228151722250861 0.2623313636210195
0.0906472759653453 0.3210187478362006 0.2574660152819387
0.09564905933631698 0.3200561924277228 0.255885657730364
0.09321242145789901 0.32436542943104923 0.2592723936465017
0.09146537951720993 0.3222881479559821 0.25522863573100485
0.0891969757486705 0.3115963859854621 0.2531780571367971
0.0868926601816539 0.3120761437712592 0.2574297160532705
0.08702987007392685 0.31505411103352726 0.2547624678042165
0.09013342432273666 0.31828706696614445 0.25529479688670553
0.08782428077949325 0.31898992493733586 0.25788443988826193
0.08863281778587143 0.3188347740469855 0.25557470029857077
0.09081184438957016 0.31883358195409 0.254725453319811
0.08977758459342758 0.3210872931776923 0.25722217268016256
0.08949353865875045 0.32095979884251774 0.25465827888514914
