ply
format ascii 1.0
element vertex 286
property float x
property float y
property float z
element face 0
property list uchar int vertex_indices
end_header
0.12229066662086288 -0.17052010461703118 -0.18787923747036536
0.11860540084136764 -0.16830686494723138 -0.182841810521818
0.11550697259200851 -0.16953823730364617 -0.18786444061729987
0.13262623123420517 -0.171815358251484 -0.18476434343788703
0.1283226864744548 -0.16928923890009698 -0.18071772449944098
0.12228497437728683 -0.17015900477782067 -0.1864520787570246
0.12900581530822555 -0.1717230604590493 -0.18784165674183448
0.1262896018434886 -0.16458889111891564 -0.184742587742544
0.12395289115203659 -0.1687752382458764 -0.1903663604829081
0.11977904609931747 -0.17286176249399957 -0.18489457958672126
0.11672022513641159 -0.1710640566052514 -0.1801783173653849
0.11489724687827865 -0.1726342217625695 -0.1843453823897608
0.12555193475974838 -0.17258770033732232 -0.1817754089209803
0.1222409563471202 -0.1703427807988244 -0.17807083123657783
0.11675825289977829 -0.17076968416586694 -0.18336721056435187
0.12287079862846176 -0.17220137283221063 -0.18342086964581092
0.12102835945380966 -0.16562651857748803 -0.1812088816735514
0.12131818703903 -0.16952987775221642 -0.18599276536438544
0.11838331393493454 -0.1735155956448632 -0.18822084659073432
0.11670529417289535 -0.17158292993918237 -0.18520289951298316
0.1162699418474559 -0.1741937623919564 -0.18759322458241065
0.11994060448898117 -0.17323846384898003 -0.18383422785732825
0.11822729877723495 -0.17075563237086114 -0.1812919407460459
0.11537187866462509 -0.17180580660715875 -0.18551008695099433
0.11953016690505783 -0.17384778723135766 -0.1866775482270487
0.11917578748954574 -0.16772054895773705 -0.1849821388098963
0.11900528840316574 -0.17071411773577508 -0.18959231966469367
0.12160959414733688 -0.16366655394450005 -0.1864773064229258
0.11865615419639389 -0.1730787084998208 -0.1884515016648539
0.11710235051406662 -0.17110211417094048 -0.1857869952294596
0.1168945687223796 -0.1738789008559304 -0.18789740198586066
0.1199293988157634 -0.1730244086684304 -0.1840135931346186
0.11832737497581283 -0.17053829893484887 -0.18172145181629737
0.11582886747611801 -0.17166223391905602 -0.1856017290923365
0.11949652008308212 -0.1737043188513833 -0.1869880884263285
0.11921307019485275 -0.16756946608439263 -0.1853369950625666
0.11901601723922531 -0.17045106753722009 -0.18976798945400794
0.12138709000839035 -0.16373879477396783 -0.1869158923003443
0.1518422918726329 -0.050993628949077704 -0.18740694516632636
0.15113025478614608 -0.048840202540310004 -0.18515926891300757
0.1525054233480815 -0.048419810980709174 -0.18716070347759803
0.15421604685081283 -0.0473751203717309 -0.1854409157607325
0.15283983520759384 -0.04593501254931269 -0.1831179141375788
0.15284123591674606 -0.04657689496889887 -0.18587802642319282
0.15433880261672775 -0.047092415541561225 -0.1894808589789637
0.15174886159194748 -0.04466892048731623 -0.1861626535031565
0.15066971949828903 -0.045494504422100165 -0.189729097423292
0.15123262576354782 -0.04966218039408503 -0.18842271262142737
0.15041243604911606 -0.047806747406871894 -0.186153235969282
0.15161129407180587 -0.04720497891321955 -0.18816219562027534
0.15345334581626693 -0.04621130988016901 -0.1868252932402857
0.15196302108062545 -0.044902004450710395 -0.18446272903416236
0.15194969944251815 -0.045456119030864814 -0.1871263563010462
0.15332662634147445 -0.04579416677370844 -0.19005757862064918
0.15113377146018783 -0.04375392958536921 -0.187066766557432
0.1499398010183696 -0.04433054491892634 -0.19050820463631232
0.14930566720260421 -0.04938424393549738 -0.1887367843959101
0.14861768059028427 -0.048245497197063544 -0.1869144617888697
0.15066578559173385 -0.04639307424441157 -0.18806572550270637
0.15057429246200363 -0.047123320549877265 -0.18761237257454474
0.1498215752054576 -0.04600781962290583 -0.18604384654495795
0.15107610396636764 -0.04562533661738215 -0.18711605959866126
0.14933344296706955 -0.04594779774561701 -0.18995909684631904
0.14762085251106064 -0.04432237908259211 -0.1873446136090525
0.1470931725908641 -0.04430706068888483 -0.18975732022259315
0.12406119279159347 -0.11277350053206263 -0.1937852829072245
0.12083792261375229 -0.10796194538489161 -0.188228431281782
0.1171685116697673 -0.10776873692885218 -0.19415046566460212
0.13203358225120346 -0.10668488606825648 -0.191641557154394
0.12634929589523117 -0.1016140507163125 -0.18575837009880622
0.12164398602737228 -0.10305840536967097 -0.19197225862476905
0.12634446791900436 -0.1044449435175973 -0.19720456295940955
0.12410541943801681 -0.09713756307974634 -0.1924521952245005
0.12064355186713974 -0.1011524276436883 -0.1982924371335276
0.11550148896468918 -0.10356465742007075 -0.19201252156231483
0.11167144350303451 -0.10117826625719843 -0.18551416986916144
0.1084131257940654 -0.10022931560889063 -0.19205002778503974
0.12326132826103012 -0.09652257725611506 -0.19067064219448646
0.11758297256721298 -0.09374380871668635 -0.18479752832386573
0.11408426932586471 -0.09488504394903956 -0.19111009233925422
0.1193170802999858 -0.09527596101179896 -0.19579536014530738
0.11710369161857406 -0.08877011403456507 -0.19091168337795814
0.11460861138595382 -0.0919993446768838 -0.19669430249664863
0.11890303663505356 -0.11647676691428004 -0.19487625652287086
0.11682509950889389 -0.11340906485930262 -0.1890143632266291
0.11471747926963607 -0.11106719836607752 -0.19335709804031928
0.12114578060401718 -0.10660386845484553 -0.19203579717609962
0.1174707966257457 -0.10327383145705042 -0.18756509119007667
0.11523007921470443 -0.10357775554076014 -0.1924388437840708
0.11781957320464889 -0.10853942498579798 -0.1958079218241938
0.11657636932624618 -0.10172735914603052 -0.1922513871762522
0.11591636709464828 -0.10449562236681757 -0.19673887186977942
0.13412278465522567 -0.13576159641161736 -0.18566778593990882
0.13305720261825363 -0.1328117178381997 -0.18157302134964545
0.12969582847846786 -0.13400518164053735 -0.18547106080982764
0.14418115786804 -0.13790711030379113 -0.18202378147575934
0.1403754311014537 -0.133207239359768 -0.17819193297360023
0.13673480920089523 -0.13527350887671288 -0.18364721828434546
0.14195492438567917 -0.13696918651476678 -0.1863862156245478
0.1399728911329631 -0.1269070731104928 -0.18370457285378058
0.13701903394950668 -0.1327649877966958 -0.18917842501137336
0.1386001067568187 -0.13105750843897637 -0.18594858342144568
0.13225814275039474 -0.13870804771796044 -0.18433979445431312
0.13009348086608688 -0.13646418616190728 -0.17932363146278937
0.1273340242315654 -0.1371100620926934 -0.18377559178803046
0.13895913533462326 -0.13777168855086144 -0.17997132533524116
0.1357614951540355 -0.1342736409606057 -0.1760768174502619
0.1317607717920665 -0.13559422656908807 -0.18200205558273871
0.1361346798349742 -0.13569601640120324 -0.18324369483921607
0.1338378744531993 -0.12660052642241296 -0.18074713939163764
0.13306128553642074 -0.13170009121313866 -0.1858051895472773
0.1350230234075908 -0.1262906418742257 -0.18141457730267127
0.1302893417288188 -0.14052519962206658 -0.18462397449944098
0.1300249057222728 -0.13849467799082574 -0.1824332206818827
0.12902235559715072 -0.14027342960253533 -0.184465545353628
0.1344158010889415 -0.14024361237898644 -0.1805055319640406
0.1334140258242015 -0.13704776033774194 -0.17823960178825934
0.13105800322784225 -0.1379464344681817 -0.18213546567890723
0.13191374711288253 -0.1395217256249505 -0.18367757194969733
0.1323078828264598 -0.1325753407181817 -0.18185849779579719
0.13149171642555038 -0.13549692198649224 -0.18654260331127723
0.13312470487846176 -0.13054876789465722 -0.18387112313244422
0.1216131704260234 -0.06127373144045649 -0.19408989244434913
0.11798330716384689 -0.05805528923884211 -0.18966228061649879
0.11678635648978988 -0.05763656660929499 -0.19385028177235206
0.12546124629272262 -0.05467624232188044 -0.19182208472225745
0.11983689240707199 -0.05177525445833979 -0.18745041185352881
0.1198678570200328 -0.0533178226651269 -0.19168323570225318
0.12262644938720504 -0.0547424630822259 -0.19524784677956183
0.12005766801132003 -0.05177030727282343 -0.19139409357044776
0.11881920270217697 -0.053395725935848334 -0.19578941458199103
0.12024527363075058 -0.057277120798976996 -0.19545507722828467
0.11694281868232528 -0.05556122228518305 -0.19139509194824775
0.11498778633369247 -0.05451584622278986 -0.1952544479939707
0.12433921865714828 -0.0512808935345727 -0.19406347268555244
0.11873784236205856 -0.04899994298830805 -0.18958436244461616
0.11801322869552414 -0.050132550448330024 -0.19381036156151374
0.12216144375098983 -0.05141601726427851 -0.1968220352504023
0.12033608130706588 -0.04935858413592158 -0.1927643596503504
0.11800309590591232 -0.05011475846186457 -0.19728225761387427
0.11780583433402816 -0.06030166909113703 -0.1955213873955973
0.11572995356811325 -0.05930433437243281 -0.19220939570400794
0.11434992722762863 -0.05718535944834528 -0.19443080121014197
0.1182274179865245 -0.05448008343592463 -0.19378483587238868
0.11604374222053329 -0.053160883635433295 -0.1909078984830149
0.1159112410951976 -0.05307868883028803 -0.1933643400046595
0.11657499841941635 -0.05426321193590937 -0.1956821709248789
0.11444291047347824 -0.05228088065996943 -0.1925384282443293
0.1143516855646495 -0.05273521706476984 -0.19554543786976417
0.11826607159866134 -0.06048686072245417 -0.1963683842990168
0.11726125649703781 -0.059479959458263496 -0.19417783909771522
0.11734601430190841 -0.05757541224375544 -0.1955164998147257
0.11816963128341476 -0.056504257172496894 -0.1949717878672846
0.11708440951598922 -0.055408604592235663 -0.19293326431248267
0.11775475315345565 -0.05464471146479426 -0.1944564312073954
0.116736169378889 -0.05623067185297785 -0.19721553021404822
0.11410274676574508 -0.05421394869700251 -0.19446325593922217
0.115232582609785 -0.05472586318865595 -0.1968076854321726
0.1389144616533641 -0.07219881579294977 -0.18895106309387763
0.13554548792136947 -0.06832269594088373 -0.185216876802183
0.13516363076461593 -0.06885824367419062 -0.18890236609909614
0.14231338671935836 -0.06648991271868525 -0.18673153513405402
0.13802104763282577 -0.06371290251627741 -0.182908686933256
0.13729062251342575 -0.06514693066492853 -0.18666093343231757
0.14165213279022018 -0.0677664355935174 -0.191323774990774
0.1374779599119548 -0.06355629131213007 -0.18761501008007606
0.13642644457114975 -0.06560928389445124 -0.19147385948631843
0.13625379971755783 -0.06744904086008845 -0.1905945121619471
0.1333416359831218 -0.06504271194353876 -0.18700740033123572
0.13248949817909042 -0.06494910284891901 -0.1906593918177851
0.1404546456743602 -0.06267691418543635 -0.18883604103062232
0.13574006728423874 -0.06027934715166865 -0.18476787501308997
0.13465076259864608 -0.061589040011318305 -0.18872317963574012
0.13941263727439682 -0.06329170629397211 -0.1924301564070948
0.13713541201843063 -0.060027487725170234 -0.18858246797058661
0.13486352137817184 -0.0615081565083581 -0.19281855517361243
0.13409503869308273 -0.06960055992022333 -0.1881288617226847
0.13236712984336654 -0.06770179435625849 -0.18511498266193946
0.132287527840269 -0.06650460526362238 -0.18778536015484412
0.13576480321182052 -0.06507671639338312 -0.18594789796803077
0.13269355468047897 -0.06266463562861262 -0.18282544904682715
0.13331660203231613 -0.06359360381975947 -0.18569726043675025
0.13389452866805832 -0.0644686000050622 -0.18939449184868415
0.13202458194984237 -0.061170078963192084 -0.1862818031880625
0.13167082838310043 -0.06267178818598566 -0.1896035998437174
0.1338337617327098 -0.07126436397448359 -0.18895151012871345
0.13304364256156723 -0.06922797128573237 -0.18680848473045905
0.13342850975288192 -0.06765759751215754 -0.1884994387004145
0.13377114705337326 -0.0675196425618249 -0.1867427259061106
0.1331793325353984 -0.06576967999354182 -0.185045379338003
0.1337196784426097 -0.06552980110064326 -0.18676944368813117
0.13219633273376266 -0.06711924836054621 -0.1913922905299433
0.13010692171348373 -0.0640515463055688 -0.18881704205010016
0.13066651992095749 -0.06533966228380976 -0.19145784073803504
0.13521131448043625 -0.11056969329729853 -0.1843790888163813
0.13375100068343918 -0.10582035049811182 -0.17921316915485938
0.13074272445930282 -0.10646123453989802 -0.18519421213600715
0.14433002046836654 -0.1075744555892068 -0.1810909538838633
0.13955020479453842 -0.1008966492117959 -0.1761422484490641
0.13621788791908065 -0.10388311013594446 -0.18227136426899512
0.13950293831123153 -0.10539204642191706 -0.18782787316773017
0.13844865135444442 -0.09491100177183924 -0.1838556706282862
0.13527079991592209 -0.10116989180460749 -0.18942426436874946
0.13145601324332992 -0.10559711620226679 -0.18445863121483405
0.12971725634826461 -0.10418532058611689 -0.17785665684673865
0.1256749289442424 -0.10214921101942835 -0.1848342000815638
0.13909786514533798 -0.10062802597895441 -0.18151390844318946
0.13466518692268173 -0.09661928579226313 -0.17634588771793921
0.13205831817878524 -0.0986732320489007 -0.18272367411587317
0.13463151029838363 -0.0987383799256402 -0.18712477677795966
0.1331805842329387 -0.08928342923537073 -0.18293613487217505
0.13092132977737228 -0.09403913483038721 -0.18837090128395637
0.13208585552467147 -0.11642687782660303 -0.18639836007092078
0.13095151952995102 -0.11384444698706446 -0.18083913916084846
0.12911477259887497 -0.11120253071204005 -0.18499562436077674
0.1338780777861003 -0.10759178563967524 -0.1821682333323725
0.1316823022772197 -0.10389287039652643 -0.17836956971619208
0.12998437456382553 -0.10452731713667689 -0.1832627236220606
0.13189377955688278 -0.10975328847781 -0.18668012612793525
0.1306545989920024 -0.10013548299685297 -0.18339947157833655
0.131111408989561 -0.10398364827051935 -0.18813868158791144
0.11776193551315109 -0.15370038911715325 -0.1955683707568415
0.11619910172714035 -0.15160485371962365 -0.18957174116108497
0.11431720427764694 -0.15382657215014275 -0.19191406959030707
0.12530237011207382 -0.15259666010752496 -0.190659153399206
0.12139901093734543 -0.14725495144739922 -0.18599203520748694
0.11639156512512008 -0.14895910784617242 -0.19220957451794227
0.1211323993612651 -0.15229005381480035 -0.1960759937140711
0.12031435541404525 -0.13985385760680016 -0.19241403335068305
0.11781417898429672 -0.147209964841755 -0.19807014161083777
0.1185674624849681 -0.14540741607561883 -0.19492587738964637
0.11469068698180954 -0.15784520670786675 -0.1906211107346781
0.11305778793586532 -0.15966279074564751 -0.18347679370377143
0.12107094697250168 -0.1543980614842492 -0.18669277721378882
0.11533128790153305 -0.15038148328676995 -0.1812667726847895
0.11106496624244491 -0.1513734088839608 -0.1879677950713404
0.11438053421272079 -0.151044033616932 -0.19019785815212806
0.11216908268226425 -0.1409633235634881 -0.18638947897884925
0.11251535586608688 -0.14636255070582208 -0.19173878723118384
0.11358362011207382 -0.16061631605044183 -0.19243172102902015
0.113817627947462 -0.16236487790957269 -0.18828858726952155
0.11329021624816696 -0.16259554788485345 -0.1883531540009745
0.11612045339835922 -0.15775806471720513 -0.18782818609211524
0.11300882272018234 -0.15415871903315362 -0.18352321082089026
0.11008429102195541 -0.15470992788687524 -0.18854408257935126
0.11365279130233566 -0.16025636360064324 -0.19081165188286384
0.11277555994285385 -0.15076615676298913 -0.18748383515808661
0.11268537811530868 -0.15430849060431298 -0.19235778146717628
0.11333992652190963 -0.15051608547583398 -0.189589115915037
0.1145449536253337 -0.1584612803162652 -0.19520275586578925
0.115261639874113 -0.1594741420449334 -0.19205142849419196
0.11518334917320053 -0.16047484442606744 -0.1908909409615763
0.1171583490778331 -0.15647297367468652 -0.1901616781327494
0.11494385771049301 -0.1531151013077813 -0.18653187447521766
0.11338635854018966 -0.15385121867075738 -0.19051252597305854
0.11566495470298568 -0.1603594051302987 -0.19337179058525641
0.11540168098701278 -0.15123944744482812 -0.1900621532771357
0.11459490231765548 -0.1540778951348382 -0.1944787233445414
0.11553376487983505 -0.15153362616911706 -0.19276328676674445
0.12462880782378952 -0.1234351025523263 -0.18312266760799964
0.121050293963087 -0.1184452401103097 -0.17711971991989692
0.11953880957855026 -0.12087336942568598 -0.18255560391876777
0.14137899450553695 -0.12659428283587273 -0.18101811700794776
0.13327657751334945 -0.12057652339354334 -0.17527261668179114
0.12895205191863815 -0.12327422961607752 -0.18140204542610724
0.1340074198652629 -0.1237610952557641 -0.1875848799321421
0.13015478424323837 -0.11274654433146296 -0.18263945275280555
0.12518819741500656 -0.1186264084281045 -0.1887835293385752
0.12359946541084091 -0.12412842378035364 -0.18043726974461158
0.11977174453033249 -0.12176040574923334 -0.1735218345496424
0.11516400746597091 -0.12098420426264582 -0.1808438926312693
0.13677367142928878 -0.12286847099676905 -0.1785388022038706
0.12910583190215866 -0.11870733663454829 -0.17269312137100776
0.12491046957267563 -0.12037350997343836 -0.17948212021324714
0.13027348689330856 -0.11925756201163111 -0.18453832262489875
0.12606882623924057 -0.10963673159495173 -0.17944647663567145
0.12311577371848861 -0.11483231946841059 -0.1857944905135401
0.12078272871269027 -0.12964486345663842 -0.18187572353813727
0.11998563579810897 -0.12847422823324975 -0.17620845430824836
0.11605459026588241 -0.12653005883112725 -0.1812524526688822
0.12932529620422165 -0.12766242787257012 -0.17909820669624885
0.12418627313865463 -0.12307231888190089 -0.1744259625050791
0.12059777549995224 -0.1242416428031045 -0.18001495593521674
0.12406315974487106 -0.12529090806856927 -0.1840615748736628
0.12144845299018661 -0.1162714736165124 -0.17999974184963782
0.12015822104705612 -0.12096831962481318 -0.1853829800460108
