ply
format ascii 1.0
element vertex 811
property float x
property float y
property float z
element face 0
property list uchar int vertex_indices
end_header
-0.1670915444676898 -0.13231136960614567 0.18552098527662572
-0.16748162706542236 -0.1281952963553751 0.18649796500913915
-0.16675363083529693 -0.12848056418527012 0.18371114984266576
-0.16532183786082488 -0.1303049282513941 0.1889481927465659
-0.16488666434931976 -0.12700867218602543 0.18993381515257177
-0.1649206986014865 -0.12907176775563603 0.1871638681005698
-0.16396033366370422 -0.1279148266993845 0.18440989509336767
-0.1635181268041156 -0.12093977195847874 0.18639496818296727
-0.16460550923991424 -0.12614124579060917 0.18331099405996618
-0.16814860304045898 -0.13244510752786046 0.18517086759321508
-0.1701670547311328 -0.1307733462535227 0.18868932977430639
-0.16977364917445403 -0.12934830350507145 0.1843652512144309
-0.1645956893746875 -0.128959457703718 0.18613509193174657
-0.166357677180054 -0.12837266487706547 0.18914470926039037
-0.16500785549330932 -0.1290107922040308 0.18499974265806493
-0.16300096710372192 -0.12635689539540654 0.18487767234556493
-0.16380719443011504 -0.12268787188161259 0.18707607045881566
-0.16606422861266357 -0.12401525241959935 0.1836609031271201
-0.1653186341111682 -0.13501230938065892 0.17861736670248327
-0.16536937256503326 -0.13501320345033055 0.17881239310018834
-0.1659454514567874 -0.1332571016036356 0.180618592650817
-0.165795292455437 -0.13161703509915715 0.18073878541700658
-0.16575516362834197 -0.1315863983117426 0.18061173811666784
-0.1653602977578662 -0.13165787918198948 0.1818911518167716
-0.16782162686038238 -0.13006880445111638 0.1829667474340659
-0.16761171420264465 -0.12945372922051793 0.18353871360533056
-0.1680417170112155 -0.1278670982800806 0.18272078886740026
-0.17360068460154754 -0.06280839008916264 0.17584244266264257
-0.1751593609635852 -0.052285547681936086 0.18181214586012182
-0.17502988477397186 -0.056016321607717336 0.17795045033209142
-0.16569608052420837 -0.055345858760961354 0.17877972975485143
-0.168694924313309 -0.05142154855359441 0.18321154371015844
-0.171255554754021 -0.05350085658658391 0.17807731881849584
-0.1688540687148593 -0.055325533577092946 0.17268142953626928
-0.17347326477217895 -0.048259432741292775 0.1771810139726859
-0.17387853165316802 -0.053268189855703175 0.17199746623747167
-0.17649040718722564 -0.051961507030614675 0.17259068146459874
-0.1811725457494281 -0.04649269146550542 0.17825789108984288
-0.1774469574277423 -0.046573992200979054 0.1738526906084281
-0.1664531340186618 -0.04802211684811956 0.17289657250158605
-0.16942508121180755 -0.04702472252477056 0.17778331890814122
-0.17307167847800475 -0.04701083464253789 0.171599456221984
-0.16920725603747588 -0.049529935547002614 0.1707342948030692
-0.1748653461520694 -0.04595127267468816 0.1749452735494834
-0.17594281931567413 -0.047634478040822804 0.16906572237722692
-0.18141877253699523 -0.05433195395100957 0.17151022806875524
-0.18442403872657043 -0.05117752713788396 0.1765112961839896
-0.18048165341067535 -0.047897245117315114 0.17367140308134374
-0.17566841443228942 -0.0482785062276209 0.17239043966047582
-0.17796083887267333 -0.04790985149968511 0.17578632488958654
-0.17802676160979491 -0.046807642408498586 0.17287144914381322
-0.17677235205817443 -0.04946019811261541 0.17261118546240148
-0.1810645123307727 -0.04790597719777471 0.17588193073980626
-0.18219139774489623 -0.04794117374051458 0.1716217185568076
-0.17671998937773925 -0.050312246509679616 0.17299873486273107
-0.18131231864142638 -0.04575186533559209 0.17839921370260534
-0.17713242371726257 -0.045173670478948415 0.17404583945982274
-0.16608395775008422 -0.04630162877667791 0.1728482331346732
-0.16966978808093292 -0.04535752100575811 0.17767263308279332
-0.17257751126933318 -0.04536303443539983 0.1717142845701438
-0.1686084975783847 -0.047971214481481374 0.17135588184110936
-0.1742660959546588 -0.04490032357800847 0.1753361608099204
-0.17559709747481567 -0.04608243269551641 0.16957420960180578
-0.17006958623576385 -0.19731527132619267 0.19003609672300634
-0.17016696532416564 -0.1972267882310236 0.19017372384779271
-0.17243617375540954 -0.19717941743958836 0.1904401566099387
-0.1674163599793933 -0.19754305047620183 0.1901354576658469
-0.16753905614066344 -0.1974232004367197 0.19035557761900243
-0.17021809120822173 -0.1972568438731516 0.19033996120207128
-0.16443082292723876 -0.19850316209424382 0.18696544423811254
-0.1658814956729434 -0.19710656566251164 0.18915466323606786
-0.16981942554164153 -0.19830959601033574 0.1918718601774436
-0.17059909899878722 -0.19823197586167698 0.19235835328810033
-0.1734830995385669 -0.19933653933633214 0.1898397590231162
-0.16655449171710235 -0.19837791783440953 0.1913225437711936
-0.16690404315638763 -0.19835143847096806 0.19154421344511327
-0.17129803796458465 -0.19932874602902775 0.1894858862470847
-0.16633651753115875 -0.19980011446107274 0.18997535958998021
-0.16739296515631896 -0.1991261200391138 0.1912973310064536
-0.17200526197600585 -0.1994412646972025 0.18994841829054174
-0.1698183228557132 -0.19985521895516759 0.18806115642301854
-0.16889951725650054 -0.2015436099253977 0.18835029855482396
-0.17227385540652496 -0.1993782923899973 0.1899269606184226
-0.17008597751307708 -0.1998011575423563 0.188033440263198
-0.16895305712867004 -0.20151519341100102 0.18829516425840673
-0.17241127391505462 -0.2013931827031458 0.19074956432096776
-0.1723543961827777 -0.20147417051423436 0.19063065305464086
-0.16952025492835265 -0.19698309464085942 0.18885240808241185
-0.1701476683204196 -0.19688297373879796 0.18946180597059545
-0.17159087558436614 -0.19788328868974095 0.18899188295118627
-0.16776212652373534 -0.19778464300263768 0.1894103671621543
-0.1681945433204196 -0.19772746724713688 0.18999616161100683
-0.1704032232348941 -0.1987299130641306 0.18943736806623754
-0.16481552620578033 -0.19880094689954167 0.18648365989439306
-0.16654333074736816 -0.1975174502812708 0.18862108245603856
-0.15908343692469817 -0.10471987290013676 0.19619742885343847
-0.1594491263215564 -0.09402355117429143 0.20001951709501561
-0.15542405446219665 -0.09451597494710332 0.1965538646291953
-0.1554936726872943 -0.08790888948071843 0.19649616733305272
-0.15710275967765075 -0.08152100009549504 0.20077756896726903
-0.1592095305507205 -0.0842282132588709 0.19705466285459813
-0.15658394594836456 -0.08854090733159428 0.18971029773466405
-0.1605380584781192 -0.07910102171529179 0.19447324529402074
-0.16228195627379638 -0.0848550157033289 0.19019929424040136
-0.16004849572825652 -0.09171524209607487 0.19106856837980565
-0.16248395641494018 -0.0848043815575922 0.1971392418455344
-0.15892535050559264 -0.08239310545552617 0.19186852231733617
-0.15641922851252776 -0.07755270166028386 0.19237379089109716
-0.16108363469290954 -0.07477581066716557 0.1975623752187949
-0.16072374184775573 -0.07540097398389226 0.19253019347898778
-0.1577325870578311 -0.07494148177731877 0.1900310899328452
-0.16091705461192352 -0.06953528089154606 0.19469199434034642
-0.16253904600787383 -0.07222547692883854 0.18997792258970556
-0.16176807482886535 -0.09018036288846379 0.18852076783888158
-0.1632918973748706 -0.08766889137853032 0.19306603923551854
-0.15972117682147247 -0.08139437002766972 0.1910357858251792
-0.1624795754735492 -0.07678812307942753 0.19068709865324315
-0.16507710118937713 -0.07558774513829594 0.19458738818876561
-0.16165877481150848 -0.0739367560826624 0.19272980943434057
-0.16438822050738555 -0.07500460309613591 0.19136963144056615
-0.16737292309451324 -0.07222303313840275 0.19554344669096288
-0.16836493809867126 -0.0726327256642664 0.19229767575971898
-0.1599882503335498 -0.09239539069760686 0.1913300539564353
-0.16237355371165496 -0.0852943615399683 0.19736180558912572
-0.15883422990489227 -0.0829852179967249 0.19210926547758397
-0.1564407159869693 -0.07809188527692204 0.1926076795171958
-0.16107518573451263 -0.07511838836301213 0.19780711189024267
-0.16070529421019775 -0.07584929031957036 0.1927330876898032
-0.1576923837249301 -0.075437928863653 0.19014338508360204
-0.16084293623614532 -0.06993066830266362 0.19479987874738988
-0.1624356915538333 -0.07271348995793706 0.19012401357405004
-0.1809458096807025 -0.11045380992520695 0.1779417778562766
-0.18152521153140289 -0.10820984406102543 0.1789297546457511
-0.17911007602858764 -0.1073096649133051 0.17776510968916234
-0.17766740520644408 -0.09661212129224186 0.18070394650213537
-0.17912886639285308 -0.10852166576016789 0.18097121372930822
-0.18077666659999114 -0.10650485319722539 0.18247927084677038
-0.17984710236239654 -0.10707672996152287 0.18008009448759374
-0.17881077130484802 -0.10805803103078251 0.17650256410353002
-0.17927842934775573 -0.10355311197865849 0.1782113398622733
-0.18070114751506072 -0.10595058960545903 0.17566574469320592
-0.17932702203440887 -0.10830089015591984 0.17195872321836767
-0.17966235776591521 -0.10705986184705144 0.1740890826296073
-0.17810032864260894 -0.10462128681767827 0.1727975989889365
-0.178626741964104 -0.10448792142499333 0.17483613744489965
-0.17963933547187072 -0.10369729561437016 0.17723829403631505
-0.17791260381388885 -0.10325654906857853 0.17476327076666173
-0.1772064228837512 -0.10419967336285954 0.17390746727697667
-0.1789478917901538 -0.1017436043702448 0.17573282972090062
-0.18120415111232024 -0.10217508239377385 0.17275054112188634
-0.18198696871447784 -0.10615104002583867 0.1687537814687949
-0.181702714163544 -0.10623818201650029 0.16800434246771154
-0.17910639544177276 -0.10303446216214543 0.17096031561605748
-0.18122769494700652 -0.10371285242665654 0.17026180878393468
-0.18096804221320373 -0.10348766607869511 0.1693161810945731
-0.17879432042289 -0.101327981182226 0.17217595234625158
-0.18069839080023986 -0.1020504490815485 0.17260811582319555
-0.1804575582330249 -0.10237809581387883 0.1722267653059226
-0.18402199049639922 -0.10096534652341252 0.17242068901769933
-0.178909625608208 -0.16286946398843175 0.1799096848081809
-0.17965598006892425 -0.1590374664746607 0.18123851075880346
-0.17974578936743957 -0.1597965018235529 0.18001345649473485
-0.17521522541690093 -0.16318690342534428 0.18359736457578954
-0.17583089669394714 -0.15954041046727543 0.18540398135893163
-0.17743104298758727 -0.16091385049451237 0.18398366227857885
-0.17432505984950286 -0.1635005281649912 0.17761669412367162
-0.17577643294978362 -0.1562409357510889 0.18120104923956212
-0.17674322028804046 -0.16077395839322453 0.17873928800337133
-0.17805595298457366 -0.16230661732781773 0.18263552442304906
-0.18129635949778777 -0.15980942113030797 0.18604675784818944
-0.18284982045340759 -0.16029192072976475 0.18072740092985448
-0.17203314204859954 -0.15989088577855473 0.18227873101942357
-0.17455559571433288 -0.15902624590028172 0.18575010553114232
-0.17764561970877868 -0.1594075070105875 0.1808447922777396
-0.17266559203315002 -0.15824316007722264 0.18094176903478917
-0.1746202369515918 -0.15416265589822178 0.18402139201872167
-0.17601100702929717 -0.15682555300820714 0.1795083667349082
-0.17973088820624572 -0.1651770429097498 0.18076817050688085
-0.18001789947200042 -0.16453936261762028 0.18225018039457616
-0.1809172143523715 -0.16419571203816777 0.17981056228391942
-0.17941274841475707 -0.16293724937070256 0.18183121934644994
-0.17979645331549865 -0.16229234201539403 0.18295712128393468
-0.178556021053078 -0.16343186361420994 0.18043158307783422
-0.17856657107520324 -0.15996616644490605 0.18200943723432836
-0.18019745846438628 -0.15713654024232274 0.18405179038755712
-0.17883729537177306 -0.15853137833703404 0.18112913623564061
-0.1583778669421695 -0.16162460608113652 0.1951222206663352
-0.15764183898616058 -0.15743219418156987 0.1964976574491721
-0.1610301991288684 -0.15446868104565983 0.1947509433340293
-0.1571755369489215 -0.15837823910344487 0.19879660859815892
-0.1565981169526599 -0.15434310896027928 0.20027903571836767
-0.1583053876941226 -0.15489130777943974 0.19810573116056737
-0.157974105078461 -0.15773276550401097 0.19442574039213475
-0.15834629138159972 -0.1478849456988657 0.19697419658415136
-0.15899048348117095 -0.1540087865077341 0.19425884738676366
-0.1549935003106616 -0.16202750367749577 0.1973848725866538
-0.157100241381409 -0.15946560663808232 0.20176915183775243
-0.16046017010855895 -0.15766360921491032 0.19645611301176366
-0.15353059371161681 -0.15772486788857823 0.19985953822843847
-0.15583823223757964 -0.15559616250623112 0.20272288575880346
-0.1563992907588504 -0.156553651519903 0.19709018722288427
-0.15193432171988708 -0.14960398835767155 0.20120791450254735
-0.1531920542304538 -0.14428974253762608 0.2040081407140952
-0.15477345486331207 -0.14651687008965855 0.20010129466764745
-0.15223851402449828 -0.16639327568639165 0.19326339021436986
-0.15215700467276794 -0.16532314879525548 0.19427166238539037
-0.15711679657149535 -0.16224434537518864 0.1932962323736411
-0.15419420202422363 -0.1622325883590067 0.19683174148313817
-0.15445822079825622 -0.16130741996396428 0.19770697608702
-0.15758137007403594 -0.16003548664677983 0.19572839990370092
-0.15717294414687377 -0.15208728177178746 0.20230434194319066
-0.1582521607463382 -0.14892622394193059 0.20389220968000707
-0.15714643498110992 -0.14954398138154393 0.2013620521139365
-0.15770785113024932 -0.16209661526311284 0.19553522124998388
-0.15757359166789275 -0.15827948910821324 0.1978220130514365
-0.16071109076190215 -0.1558345214806879 0.1950081373762351
-0.1556777765338443 -0.1592958973132456 0.19768402829878148
-0.15590692659068328 -0.1556649909697855 0.19944057718031225
-0.1581353654449008 -0.15604446394074803 0.1965206648420554
-0.15672280986953002 -0.1544488923035944 0.1971204067777854
-0.1580169757192157 -0.14582469625104313 0.20007900253050145
-0.15825107296157104 -0.1509146497927988 0.19684264913313207
-0.15797054370093566 -0.05866249961484319 0.19977400556318578
-0.15755535264659148 -0.054490174480565846 0.2047015811514121
-0.15889295538115722 -0.05543863339055425 0.20138213887922582
-0.1527274956290744 -0.054155524202474416 0.201738217027114
-0.15488534768271667 -0.0514600829564417 0.20544282451383886
-0.15566964049983245 -0.05264558953870183 0.20097909227125463
-0.1540031840388797 -0.05498787326444036 0.19745061650984105
-0.1566676457707904 -0.050567264982351125 0.20060996070616063
-0.15687661965537292 -0.05324565929997808 0.19645182147733983
-0.1570205201690219 -0.05242079062093145 0.19697550788633642
-0.15874485274005157 -0.05011203450787908 0.20244941964857396
-0.1581848223989032 -0.04888459605801946 0.19962129846327123
-0.15198202033686858 -0.050533141323217214 0.19896105781309423
-0.15244149764228088 -0.05057104987729436 0.2029415155958396
-0.15600436528372985 -0.04951706094373113 0.19811020150892553
-0.15304591854262573 -0.04940929574597722 0.1967670108389121
-0.1561738212888263 -0.0468286828481043 0.19995788589231786
-0.15684812863517028 -0.047978963085302175 0.19507197395078954
-0.16287856896567565 -0.05384859008420354 0.19652906909696874
-0.16386434038329345 -0.052991862722524465 0.19947020068876561
-0.16089690824198943 -0.049985106416829884 0.19981495395414647
-0.1580881287639163 -0.05170678658116704 0.19778970733396825
-0.1585599591319583 -0.05172586006749517 0.199743428380416
-0.1581615765874408 -0.04990475935567266 0.19934884563200292
-0.16201383968043548 -0.05297573966611272 0.19964204087965307
-0.16389049192118865 -0.052010621257909596 0.20148138061277684
-0.15685529609370452 -0.05253999991048223 0.19696954742185888
-0.15863801141429168 -0.05013113779652959 0.20253131643049535
-0.15815820892501098 -0.04901015324223882 0.1996225501608115
-0.15195838709521514 -0.05064013166058904 0.19900540366880712
-0.15233210821795684 -0.05065607590306646 0.2030049349378806
-0.15599754055190307 -0.04961055082906133 0.19812683120481786
-0.15292207499194366 -0.04945611519444829 0.19668386235945043
-0.15610763033080322 -0.04675834936726934 0.19993362680189428
-0.1567211409394763 -0.04800226850140935 0.19502184644453344
-0.16069845457720977 -0.05582850737203008 0.19894377246610936
-0.16070380409407836 -0.0558635847054804 0.1988611008238059
-0.16075037022280914 -0.05385195774663335 0.20260445132963475
-0.16089364488768798 -0.05545281929601079 0.19952926889173803
-0.16088504691767913 -0.05547409815419561 0.1994702602934104
-0.16096098323512298 -0.05356505078900701 0.2026966001104575
-0.16486432750869018 -0.05216520590413457 0.19663325801603612
-0.16642196078944427 -0.051052446790822804 0.19865808740370092
-0.1668104042594455 -0.04970079226125127 0.19798395887129125
-0.15977134903121215 -0.11703601045239811 0.1935035373281699
-0.15946372945952636 -0.11016830367673283 0.19437638774626073
-0.15710711081671935 -0.11180319947827702 0.19271377578489599
-0.15560142298388702 -0.11246430439580327 0.19625005975477514
-0.1562232186381839 -0.1067223207436884 0.198234536797927
-0.1564324607436679 -0.11005425018895512 0.19572011485807714
-0.15573194225478393 -0.11228236121762639 0.18931046977751073
-0.1557588686530612 -0.10329046411145573 0.19200060621015844
-0.15780855317759734 -0.1094807640992487 0.18902979150526342
-0.15823512871909362 -0.1166986481629694 0.19221488490812597
-0.16097095211196166 -0.11287468237508183 0.19611225381605443
-0.15776206155467254 -0.11198624534238225 0.19310120597593602
-0.15460258324790221 -0.11062055391896611 0.19395295634977636
-0.15880500872779113 -0.10825603766072636 0.19783959642164525
-0.1562181373422168 -0.10952293438542729 0.194222667367385
-0.15574501057315093 -0.10762881798375493 0.19212595477812108
-0.15720577140498382 -0.10275685352910405 0.19515500322096166
-0.16008846064257842 -0.10487061304677373 0.1917524124693137
-0.1593670060222171 -0.11896089775193577 0.18941293016187963
-0.1603687514846347 -0.11811089081395512 0.19166443601362523
-0.15830260117697936 -0.11524459285367375 0.19212476268522558
-0.1593442221467517 -0.11319151086438542 0.19182495132200536
-0.16063484152007323 -0.11296397013295537 0.1941935803007346
-0.15754821499037963 -0.11213007135022526 0.1937336708616477
-0.16116444369006377 -0.11073165697682744 0.19314489618055639
-0.16272969146418792 -0.10809006852734929 0.19578204408399877
-0.16422259410071594 -0.10819962186444645 0.1936052824568015
-0.1576025595252536 -0.11621295971501713 0.19166074052564916
-0.1584088464562915 -0.11020329160321599 0.1939245249342185
-0.15572611590075713 -0.11002397102940922 0.19160900369398412
-0.15404617388892394 -0.11036824745763188 0.1935575987409812
-0.15623437960791808 -0.10612991017926579 0.1963564540456992
-0.1553529908244632 -0.10808842939961796 0.19321624294035253
-0.15449334283519012 -0.10653143686879521 0.18965289846174535
-0.15528843899417144 -0.09946709437001591 0.19265893951170263
-0.1575947662179492 -0.10378485483754521 0.1893323446821433
-0.16579538186240417 -0.09159656924832707 0.18741516128294286
-0.1647768129889987 -0.08131289047826176 0.19149021163694677
-0.16375775237727386 -0.08087017697919255 0.18882504955045995
-0.16544138987708312 -0.0802400962792719 0.19056359782926854
-0.16501681109118682 -0.0751044110738123 0.1944663311552268
-0.16685068209815246 -0.07664721769917851 0.19128147617094335
-0.1676614542787097 -0.07867452067960148 0.18599150434248266
-0.16920837362456542 -0.07057332558263188 0.19011739745847997
-0.16995352109122497 -0.07591494483579045 0.18603585019819555
-0.167159896094086 -0.08004280490506535 0.18130556598417577
-0.16763956447291595 -0.0738827244721735 0.18676421895735082
-0.1643769701306842 -0.07000159782994633 0.183281847388671
-0.16521176298308593 -0.07033255262006169 0.18421200767271337
-0.16770501037287933 -0.06797158283818608 0.18886671319715795
-0.1668241878335498 -0.06730126900304204 0.18542472377531347
-0.1671455909793399 -0.06761443180669194 0.18404714122526464
-0.16992602844882232 -0.06289231342900639 0.18801460519544896
-0.17009192307639343 -0.06533658070195561 0.18386165157072362
-0.17189244528460723 -0.08045798105824833 0.17846775904409704
-0.171874593693497 -0.07786905331242924 0.18148005858175573
-0.1681240906302951 -0.07071402234662419 0.18187404528372106
-0.17288478811431152 -0.0713090853177393 0.18247956886999425
-0.173539530236008 -0.07009285254109746 0.18485561862699804
-0.17010753949332458 -0.06678795380223637 0.18463812127821264
-0.17513253887343627 -0.06907885832417851 0.18575415864698705
-0.17717770834613067 -0.06754925412763005 0.18818507447950658
-0.17757576306510192 -0.06754317445386296 0.18595085397474584
-0.16718199451613647 -0.08060287994969731 0.18162564292661962
-0.16753469010043365 -0.07413720650304204 0.18709717050306615
-0.16431563695121032 -0.07042189998258 0.18353215709440526
-0.1652138044421695 -0.07076417965520268 0.18450562015287694
-0.16778821845698577 -0.06822037262547856 0.18927095189802465
-0.16695510943579894 -0.06770085854161625 0.18569187179319677
-0.16717788179564697 -0.06809907717336064 0.18416021123640355
-0.16983997424292785 -0.06328087610829716 0.18809852853529271
-0.17010695834803802 -0.06578987402547246 0.18399504676573095
-0.18088949819255096 -0.12776147884953862 0.17943099990598974
-0.18064049978900176 -0.12206840080846196 0.18110246315710363
-0.17928874095130187 -0.12169612509835606 0.17753283038847265
-0.17584231098342162 -0.1246177212678278 0.18302510038130101
-0.17719244559455138 -0.1189710007392252 0.1845350052427512
-0.17743597527194244 -0.12153063280213719 0.18128920450918493
-0.17541928191828948 -0.12321906847585087 0.1769339825224143
-0.17588944335627776 -0.11379098457921391 0.179212399871276
-0.1789258678739093 -0.11961920125115758 0.17598978534452733
-0.17799952228713256 -0.1298645542346323 0.1772081638883811
-0.179860975343468 -0.12642491919625645 0.18201602354757604
-0.1785916348283313 -0.12342071098912602 0.1768995608400565
-0.17404903073954803 -0.1223218695603693 0.17931572452299413
-0.17590106626200896 -0.12060430211652165 0.1834422136854392
-0.17486039896655303 -0.12105512184728032 0.1787245656561118
-0.17324459155249816 -0.11951745612252598 0.17732060805074987
-0.17500900824713927 -0.11422833366025334 0.18066356435530004
-0.17821488876986724 -0.11653890771497136 0.17705950990431127
-0.17915609081435424 -0.131884764262327 0.17217625036947545
-0.17974754770446044 -0.13183813852895146 0.17470795765631017
-0.1779536416118167 -0.12626824838746434 0.1743150140356284
-0.1792463024442218 -0.12495550078976994 0.17468283429853734
-0.18011270065951568 -0.12426454884637242 0.17669410362951574
-0.17844523091960174 -0.12234118146527653 0.17626810923330602
-0.18112341662097198 -0.12156995696652775 0.1766830767702323
-0.18245736857104522 -0.11912312669385319 0.17895487800352392
-0.18370334406542999 -0.11907235843766575 0.17712298885099706
-0.16771447261023742 -0.1732407019816721 0.18433676019422826
-0.16764026482749206 -0.1708017097197855 0.1857099320005637
-0.16736727555442077 -0.16967972678769475 0.1845904971670371
-0.16767677267241698 -0.1716201559983576 0.1877374435972434
-0.16808282931494933 -0.16891586346257573 0.18907711759321508
-0.16695265074420196 -0.16977230770219212 0.18786714330427465
-0.16616558631110412 -0.17260479492772465 0.1847137595724326
-0.1671356221025012 -0.1667174504481638 0.18764702335111913
-0.16639995177436095 -0.17020341319669133 0.1854839707922202
-0.16824723382640105 -0.17442738575566655 0.18842003598921117
-0.16891532738852721 -0.17353854639161473 0.19118217483274755
-0.1714180221145175 -0.17298437220681553 0.18667445436231908
-0.16566070516753417 -0.1716600762091959 0.1890656735014182
-0.167340080935242 -0.17070495648015385 0.19140962615721044
-0.16702089806246978 -0.17215309602845555 0.18695066228620824
-0.16545061369586211 -0.16709708733189946 0.18940732732527074
-0.16773371000933868 -0.163334857054838 0.19277099624388036
-0.16664932270694 -0.17683150930035954 0.18541387572996434
-0.16662862499404174 -0.1763825820170725 0.18600539222471532
-0.16831723948168975 -0.17550608081448918 0.1845885302137595
-0.16809086104083282 -0.17450736028779393 0.1873395229887229
-0.1681347300593875 -0.17411343319047337 0.18785486474745092
-0.1686271538321994 -0.17427627307999974 0.1860120083402854
-0.17018358011889678 -0.16878117186654454 0.1911328817915183
-0.17171759505915862 -0.16644754571545964 0.1929183985304099
-0.16931192179370147 -0.16752504868138676 0.19019321456663427
-0.1685147841756366 -0.1737595157109583 0.18604258552305517
-0.16940696139979583 -0.17128607196439152 0.18809012428037938
-0.16961617370295745 -0.1708879725419367 0.18531713739149389
-0.16647800405669433 -0.17178695959676152 0.1867351914953452
-0.167971726257088 -0.16943992240060216 0.18868748203031835
-0.16731324394393188 -0.17067010266412144 0.18568561330549535
-0.1673894782845996 -0.1692269103013361 0.18660376325361547
-0.16815661986518127 -0.16422692997086888 0.1894992376875144
-0.16778122981238586 -0.16761907500851994 0.18658850446455297
-0.1676672955338977 -0.1102606610738123 0.18825397744886693
-0.16877662738013488 -0.09860860867131596 0.191695013196395
-0.16687218447375518 -0.10208007259000187 0.18828646198026952
-0.16037101646113616 -0.09880029720891362 0.18922851339094457
-0.16328699489283782 -0.09204425973523503 0.1940344955038291
-0.16577466924834472 -0.09602689308751469 0.18870774760954198
-0.16242827077555877 -0.09675189418424016 0.18252820626013097
-0.1653411795680545 -0.08584856552708989 0.18702725425474462
-0.1675135155503772 -0.09385200900662785 0.18212733522169408
-0.1712143828456424 -0.10069262547124272 0.18763003602735814
-0.17479611535716277 -0.09305563134778386 0.19382927671186742
-0.17188828786063415 -0.09324878019917851 0.18756226554624852
-0.16316818793463927 -0.09213271302808171 0.18913707986585912
-0.16836177905249816 -0.08934729857076054 0.1952253963064414
-0.17055548329997283 -0.09032606644261723 0.18801776424162206
-0.16441289683032256 -0.08678540153134709 0.1858492280554038
-0.1679899205749057 -0.08004423541653996 0.19049427762739476
-0.16938177843737823 -0.08467015189755803 0.18434242263548192
-0.17242528100657684 -0.10628217024434453 0.18329165235273656
-0.17399440308261138 -0.1014028148137415 0.18891678109876928
-0.17063393791365844 -0.09751760525334721 0.18584982410185155
-0.17101423044848663 -0.09400721950162297 0.1865535761427146
-0.17418793936419708 -0.09268435401547795 0.19157741323225316
-0.17299724717784148 -0.09216579360593205 0.18772236362211522
-0.17395719488311034 -0.08936473292935734 0.1874068166326743
-0.17630806167769653 -0.08523031634915715 0.1914528395246726
-0.17733983297991973 -0.08759295506108647 0.18691555515043554
-0.18183332284140807 -0.1427693621598566 0.1785935248445731
-0.18102751274752837 -0.13988528711427098 0.1793487156938773
-0.181644599634888 -0.14031333787072545 0.17814222827665624
-0.17942860325026733 -0.14204266233075505 0.18113950744383153
-0.17943572600531799 -0.1396805898629511 0.1827419783186179
-0.17995918889689666 -0.1409858272754038 0.18083805695288
-0.18043604095626098 -0.14072806698907261 0.1768331910680991
-0.18075817425894958 -0.13446288866628056 0.1790517951559287
-0.18104263742614013 -0.13887130779851323 0.17651371017210302
-0.18404185374427062 -0.141524474450239 0.1795817102503043
-0.18564515908408386 -0.14008953733075505 0.18211556330435094
-0.1848758121316455 -0.14044822318185216 0.17851234331838903
-0.18019555111575347 -0.1392525838099802 0.17995537176840123
-0.18241053422141296 -0.13849047882188206 0.18257499590627965
-0.1814978231971286 -0.13962624532807713 0.17905900731794652
-0.1800816764419101 -0.13808342380154973 0.17860693588964757
-0.18019464214492065 -0.1351995573722208 0.18061602965109166
-0.18204232652831298 -0.13650907141793614 0.17699650779478368
-0.18339174588370544 -0.14201482696164494 0.17551822319738683
-0.1834061255042575 -0.14201940161813145 0.17548299685232457
-0.18360869188952667 -0.14233643872369175 0.17658088460676488
-0.18342005808997375 -0.140541608759054 0.17678342118971166
-0.18338669439006072 -0.14050493700135594 0.17652396217100438
-0.18252437909293395 -0.14157734377015477 0.17710704460851964
-0.18448146780181152 -0.1401022778235758 0.17770839586965856
-0.18470461269068938 -0.13942861122716313 0.17828068986646947
-0.18369254072356445 -0.13880762023557072 0.17696914926283178
-0.17128526766944152 -0.15357592267621403 0.183089056165145
-0.1707345803563617 -0.15180128378499394 0.18394921079389867
-0.1729575206820987 -0.1485657797538126 0.182958760411666
-0.17116695244956237 -0.15122681421864873 0.1856993223737937
-0.17040051122355682 -0.14904839856255894 0.1865419532369834
-0.1718307842795871 -0.14830115003217106 0.18492243543379125
-0.17214929660010558 -0.14863429529298192 0.1837515021871787
-0.1731018086259387 -0.14179512424100285 0.18589273944608983
-0.17247895498919708 -0.14546277684796696 0.18361190810911474
-0.16668591995883209 -0.1524376676760996 0.18333406105749425
-0.16790449221778136 -0.15114707810510045 0.1864951635908347
-0.1704170217101596 -0.14882193071473485 0.18208909884207067
-0.16621413429427367 -0.1484027610503519 0.18552092567198095
-0.16758198638606292 -0.14710656864274388 0.18767044797651586
-0.16754622359919769 -0.14770564002622014 0.18324101820699987
-0.16529801090407592 -0.14261950118173009 0.18630860105268773
-0.16658350427794677 -0.13854835493195897 0.18856183543913183
-0.16705363591361266 -0.14011092049706822 0.18517551675550756
-0.16414923568415862 -0.15581094784367924 0.17848397150747594
-0.16414437790560943 -0.1558137194596613 0.1783632422994834
-0.16707178552794677 -0.15447292787660008 0.1794393445562583
-0.16560983260321838 -0.1526798264466608 0.18071849003546056
-0.16570722659278136 -0.15272180301774388 0.18046001449339208
-0.16713714202094299 -0.15257468385327702 0.18071291700117406
-0.17019894321608764 -0.14669748706448918 0.18453977361433324
-0.1707696725909732 -0.14599036736119633 0.1852279688429099
-0.1685910632197879 -0.14503842157948857 0.1839290048193198
-0.16533760328936797 -0.14263169033158665 0.19633583083860692
-0.1643721272532962 -0.1405934498988474 0.19696436181776342
-0.16588921447444183 -0.13955960733521824 0.1954923059057456
-0.16440344949412566 -0.1413145021878565 0.19878403201811132
-0.16341919799494964 -0.13942171198953038 0.19964686885587987
-0.16377998490977508 -0.14019555909264927 0.19780031696073827
-0.16465907891440612 -0.1397595362149561 0.19574890390150365
-0.16490420301604491 -0.13398256463635808 0.1978212977956992
-0.16460111339736205 -0.13807679278481846 0.19530568376295385
-0.1636842598502658 -0.14070476157296544 0.19674489751570043
-0.16532240410495025 -0.1395555691205347 0.19961879506819066
-0.16622697909522277 -0.13877443534959202 0.19535455957166967
-0.1618684937541507 -0.13798383934129124 0.1975926543783408
-0.16324400504279357 -0.13716057998765355 0.19971249356977758
-0.16223916013884765 -0.13836463851560002 0.19573841348402318
-0.15945744116950256 -0.13487228316892033 0.19684467569105443
-0.1607829143588565 -0.1316791580401743 0.19900123134367284
-0.16122366090464813 -0.13313871187795048 0.1953995014738303
-0.16449597080397826 -0.14287225467790013 0.19343618407957372
-0.164551373321297 -0.1428756968461359 0.19331119313947973
-0.1655553092544101 -0.1428641037427271 0.1942221905302268
-0.16545770664859039 -0.14077415628064519 0.19508115306608495
-0.16537648041892272 -0.14082560999024754 0.194794275910781
-0.1651760150973819 -0.14173189861405736 0.19509063020460424
-0.16628685196089965 -0.13979909879792576 0.19635156646482763
-0.16650005777526122 -0.1392591403209055 0.19684705987684545
-0.16475341816592437 -0.13836121124852543 0.19557402387373266
-0.1631373723332904 -0.07415627998937016 0.19527784839384374
-0.16371230383563262 -0.06603708428967839 0.20121429219953832
-0.16502588589835387 -0.06956022543538457 0.1959604407858115
-0.153022031981232 -0.07210659546483403 0.19780133023969945
-0.1545694430654071 -0.06888863010037785 0.20170293107740697
-0.15818060537028533 -0.07063012880910283 0.1956782723974448
-0.15634411175894958 -0.07108351153958684 0.19256971135847387
-0.15915344257998687 -0.06422763628590947 0.19613698974363622
-0.15965479214835387 -0.0695664243184412 0.19067297235243139
-0.16077257295298797 -0.06607326430905705 0.19392953172437963
-0.16317189832377654 -0.06234314603436834 0.1997483159612876
-0.1622085233514331 -0.0615417913876856 0.19471977010481176
-0.1501581629102252 -0.06496452850926762 0.1946005012106162
-0.15370338757682067 -0.06354376239407902 0.19971815601103124
-0.15789624651122314 -0.06303038758862858 0.19286940351240453
-0.15138580997634155 -0.06160044235814458 0.19171772256605443
-0.15577795704055053 -0.05787407917607671 0.1951256181310874
-0.15672343571830016 -0.059996302553304494 0.1890642429899436
-0.16640634437251312 -0.06876912278760319 0.19106862798445043
-0.16809147198844177 -0.0663158254109705 0.1959854151319724
-0.1653666158502124 -0.06362598700154667 0.19376472488157567
-0.1604697515552066 -0.06602933568585759 0.1929782415937644
-0.16098789473223907 -0.0659438030206049 0.19623182073347387
-0.16211668749499542 -0.06430780453313237 0.19303766742460546
-0.16245382626700622 -0.06456693572629338 0.1933344985555869
-0.1656630893533252 -0.06266760391820317 0.19583950296156225
-0.16639042993235809 -0.06323018235791569 0.19134209409467992
-0.16039184828448516 -0.06668281120885258 0.19323126331083593
-0.16244864066291076 -0.06212183398831731 0.1993186260771018
-0.16229442854571563 -0.062061782308706105 0.19408837810270604
-0.15054557820010406 -0.0656429783784235 0.19413975730650243
-0.15370176335025054 -0.06377857489217167 0.19937805190794286
-0.15805409451174957 -0.06372734469998723 0.1921912814687949
-0.1510495056693576 -0.0620990948163355 0.19043467298261937
-0.15480191608119231 -0.05769109291661626 0.19385365501158056
-0.15614924927401763 -0.060424323507436574 0.18795935168974218
-0.16877311070609313 -0.11167430443395024 0.19467524543516454
-0.1699686755721591 -0.10678949517835026 0.19617936864607152
-0.168827216822388 -0.10843091768849736 0.19365767493955907
-0.16295948227095824 -0.11161133212674504 0.19632313504926976
-0.16586882968592864 -0.10756948155988103 0.19862655654661474
-0.16833556790995818 -0.10898533029187565 0.19452682986967382
-0.16413390238929015 -0.11041309995282536 0.19120953336469945
-0.1654341926162265 -0.10437446398366337 0.19386569514982518
-0.16713183720755798 -0.10821353954900151 0.19003776565306005
-0.16937318046736938 -0.11040278834927922 0.19326052919142064
-0.1710622419898532 -0.10817801518071538 0.19733701005689916
-0.16990649302649719 -0.10797944230664616 0.19326797977201757
-0.16374249358821136 -0.10735329551328068 0.19448892131559667
-0.16744382281947356 -0.10576125545133 0.1982006217550498
-0.16768124302077514 -0.10682919187177067 0.19347653642408666
-0.16396198769259673 -0.10617646140683537 0.19163636222593602
-0.16636675198722106 -0.10249679846394902 0.19472781673185643
-0.16841609378504974 -0.10397561950314885 0.19027678027860936
-0.1720441242043994 -0.11317672891248112 0.18987576022856054
-0.17319455345320922 -0.11247261924374943 0.1921620155882102
-0.1711874713485263 -0.11067178411115056 0.19221518293134984
-0.16999032695937377 -0.10986551208127385 0.19203279271833715
-0.17174216707396728 -0.10944887561429387 0.1944554235052329
-0.16942949195552093 -0.10914930266965275 0.19319675222151098
-0.1711690386121295 -0.1089856879197443 0.1923228289198142
-0.17277445991683227 -0.1070270196877802 0.19432232633344945
-0.1751576622312091 -0.10691380066502934 0.19161675229780492
-0.16667095919299346 -0.05419086975682622 0.18079743638746557
-0.16656134625125152 -0.053354586788305104 0.1839205409597617
-0.16746718784022552 -0.0526461557828272 0.1824571575235587
-0.16355011959719878 -0.05114608568776494 0.18141032114736852
-0.1645513286178134 -0.05073746604550725 0.18416563525907811
-0.16679110725569946 -0.05027743739713079 0.18130410567037877
-0.1628762443845294 -0.05184825820554143 0.17870975390188512
-0.1655976881568454 -0.04984470767606145 0.18147681012861547
-0.16620643039393646 -0.05015262527097112 0.1781776930402976
-0.16714852650809509 -0.05206387800801641 0.178835042865203
-0.1680647244040988 -0.05176218909848577 0.18155673995725927
-0.1669772227590106 -0.050893391796239675 0.18073240772001561
-0.16418088575053436 -0.05126869244206792 0.1797757233690482
-0.16409885485816222 -0.051451231666692555 0.1820471371721488
-0.16690648694682342 -0.050909306236394704 0.17942319169752416
-0.16493485470462066 -0.05129122299779302 0.17805156961195287
-0.16719825168299896 -0.050107295938619435 0.18044898763410863
-0.1690350284163974 -0.04988905353177434 0.17689994827024755
-0.1721594293897174 -0.05199890894521123 0.17781523719541845
-0.17268026967692596 -0.05198925299275762 0.1784707392763358
-0.16846344967532378 -0.04931142491925603 0.17983812943212804
-0.16907554467368346 -0.05053257507909185 0.17800349846594152
-0.16918584306884032 -0.05056047005284673 0.1782474602770072
-0.166665773588898 -0.04912533921826726 0.1794962669920188
-0.17196307678866607 -0.05317088527310735 0.17971892014257726
-0.17199749847102386 -0.05315652055371648 0.17975739494077977
-0.17483351727175933 -0.0523891703568781 0.17870364442579564
-0.16792225440192443 -0.0501853780232752 0.17858026281111058
-0.16949708362269622 -0.04995402259457952 0.18097356811277684
-0.16663515170264465 -0.04891255063641912 0.18022797361128148
-0.16331281860518676 -0.048928733297475636 0.1789430762838584
-0.1643132825677417 -0.04900627894032842 0.18056187883131322
-0.16514417131591064 -0.048818971344121755 0.1790217544149619
-0.16545217831778747 -0.051094348856099904 0.17881027713529882
-0.16713042159724456 -0.05047526521314031 0.18040672794096288
-0.16988543768573028 -0.049965168663152516 0.17729602113478002
-0.1643536796157382 -0.13011155588258153 0.19779387965910253
-0.16474374731230956 -0.12599551243413334 0.19877091899626073
-0.16401575108218414 -0.1262807206593836 0.1959839846204978
-0.1625839581077121 -0.12810511452782994 0.20122108712904271
-0.16214878459620696 -0.12480888826478367 0.20220670953504857
-0.1621828337495349 -0.1268719242297495 0.19943676248304662
-0.16122246881175262 -0.12571501297582036 0.19668278947584447
-0.1607802470510028 -0.1187399582349146 0.19866792217008886
-0.16186762948680145 -0.12394144696820622 0.19558391824476537
-0.16541072328734618 -0.1302453236066187 0.19744382158033666
-0.1674291898791812 -0.12857353252995854 0.20096228376142797
-0.16703579922366363 -0.12714845997918492 0.1966381455969077
-0.1618578394238971 -0.12675964398015385 0.19840798631422338
-0.16361979742694122 -0.12617285115350133 0.20141760364286718
-0.1622700055425189 -0.12681099338162785 0.19727263704054174
-0.16026310225177032 -0.12415708167184239 0.19715056672804174
-0.16106929977584106 -0.12048808796037083 0.19934902444593725
-0.16332636376071197 -0.1218154386960352 0.1959337975095969
-0.1625807543580554 -0.13281249565709477 0.19089029088728246
-0.16263150771308166 -0.1328134195290888 0.19108525768034276
-0.16320757170367461 -0.13105731768239384 0.1928915168356162
-0.1630574276034854 -0.129417221375593 0.1930116201948386
-0.16301726897406799 -0.12938658458817845 0.19288466230146703
-0.1626224180047534 -0.12945805055726414 0.19416401639692601
-0.16508377690959197 -0.12786902052987462 0.19523964181654271
-0.16487384935069305 -0.12725393039811497 0.19581166759245214
-0.16530382235694152 -0.12566728455651646 0.19499371305219945
-0.18097020288157684 -0.17913743419278508 0.17603717103712377
-0.18096798260855895 -0.1791562394582117 0.17603022709600744
-0.18106591303992492 -0.1793098555289591 0.17587996378652868
-0.18021310468363982 -0.17998697919476872 0.17814526811353978
-0.1802192439620517 -0.17970130903352147 0.17826045408956823
-0.1811286916320346 -0.18020075125325566 0.17808208719007787
-0.1787017991130374 -0.18171341282952672 0.17370671883337316
-0.17927471895861846 -0.1786135242663706 0.17540726915113744
-0.17954521973777038 -0.18028065127957707 0.17450086131803808
-0.1822822948281787 -0.1807592020713175 0.17649132862798986
-0.1826315333430789 -0.18046284777749425 0.17689759388677892
-0.18425765236067992 -0.1811932281934107 0.17391870275251683
-0.18054990072894317 -0.18035982114899998 0.1769685830187064
-0.18081557353186828 -0.18020470006097203 0.17739010706655797
-0.18308804531741363 -0.1810035513125742 0.17442417994253454
-0.17949319978404266 -0.18009668154347783 0.17718572273962316
-0.17978632052588683 -0.1784783558331812 0.17854661598913488
-0.17998219628977996 -0.17944807870019322 0.1755141998838645
-0.18479398985553008 -0.17993405027020817 0.17571608081571874
-0.18309573431658965 -0.1813971505843485 0.17373997822515783
-0.18335288365531188 -0.1819808141671503 0.1734176959108573
-0.18485138912844878 -0.17995856268037205 0.17561791196577367
-0.18325915535140258 -0.18141097886193638 0.17367208853475866
-0.1834431548898242 -0.1819742874585474 0.1733287955831748
-0.1839597781484149 -0.18047548396218663 0.17805201664678869
-0.18372691770243865 -0.18106999559033757 0.1775736595701438
-0.18173946042704803 -0.18074668509591466 0.17663303867094335
-0.18228593071151 -0.17943812472451573 0.17629078880064306
-0.1821524610106967 -0.17961710257161503 0.1761514033388358
-0.18179364104914886 -0.1803573326550806 0.17518273845426854
-0.18052722116160613 -0.17983924908269291 0.17745841398947057
-0.1805851866786502 -0.17976414723027592 0.1775152768205863
-0.18090495069670898 -0.18089048130143529 0.17659864679090795
-0.17970585425544006 -0.1806487099610651 0.17543587938062963
-0.17981591423201781 -0.1781123982154215 0.17678345099203405
-0.17945837577033263 -0.17994525594342595 0.1754121865343314
-0.15852176745581847 -0.18451386255849248 0.1923666383337241
-0.15878487725901824 -0.1841957674704874 0.19258234754316625
-0.1581390311305545 -0.18417894405949956 0.19152484193556127
-0.15731860299754363 -0.18480015856850987 0.19347784772627172
-0.1576856484000705 -0.18432372374165898 0.1937966133665305
-0.15769910414862853 -0.18457132143605595 0.19274369731657323
-0.15620028575110656 -0.1851081357680643 0.1924075867246848
-0.15712375541377288 -0.1825109974824274 0.19438771262876806
-0.15648300548243743 -0.1840378747664774 0.19261477246992406
-0.1579837461297534 -0.18749157650102025 0.19589177623503026
-0.15976464350867492 -0.1868912534200037 0.19733289733640966
-0.16021984418082458 -0.1881051616154993 0.19291339174024877
-0.15581793685603362 -0.18656873268712407 0.19584874168150243
-0.1572782208507083 -0.1862106726847971 0.1969781900953513
-0.15861369271922332 -0.18756100101102238 0.19298730149977025
-0.15489649375128967 -0.1858296797953928 0.19623331084959325
-0.1562309821431659 -0.18421342534650212 0.19838450208418187
-0.15928531785655242 -0.18726455731023198 0.19283805146925267
-0.15833188195872527 -0.18778316242326146 0.19146583333723363
-0.1576890011613391 -0.18858637971509343 0.19027576699964818
-0.1593546529595874 -0.18721045119393712 0.1930143024038535
-0.15841278036284667 -0.18773842913735753 0.1916788007330161
-0.1576618810479663 -0.1885987774812067 0.19040647998564061
-0.16004608174014312 -0.18628462714780217 0.1969033862661582
-0.16010599930930358 -0.18617623610127812 0.19703880801908788
-0.15905107160258514 -0.18505499822724705 0.192577638776229
-0.15974567433047515 -0.18445017499554997 0.19314477697126683
-0.1580864598338626 -0.1852041141473139 0.19099793687574682
-0.1574700733010791 -0.185110341139921 0.19336668506376561
-0.15832690497088653 -0.18446217043031102 0.19403753534071264
-0.1573182304685138 -0.1855695502244318 0.19210843101255712
-0.15623583992171508 -0.18442883653272038 0.1929951693128806
-0.15639094610858184 -0.18228518528569584 0.19515744701139745
-0.1771500368897937 -0.09848483962643986 0.17632351175062475
-0.17613145311522704 -0.08820113105405217 0.18039850249998388
-0.17511242230582458 -0.08775844735730534 0.17773334041349706
-0.17679604490447265 -0.0871283368550623 0.17947188869230565
-0.17637145121741515 -0.0819926516496027 0.18337459221594152
-0.17820533712554198 -0.0835354880772913 0.18018979683630285
-0.17901610930609924 -0.08556276125539189 0.17489979520551976
-0.18056301375079375 -0.07746159596074467 0.17902574792616185
-0.1813081761186145 -0.08280321521390324 0.17494411125891027
-0.17851455112147552 -0.08693104548085576 0.17021388664953527
-0.17899421950030547 -0.08077096504796391 0.1756725694250327
-0.17573161025691253 -0.07688983840573674 0.17219022765867528
-0.17656640310931426 -0.0772207931958521 0.17312029853575048
-0.17905965049910766 -0.07485985321629887 0.17777506366483983
-0.17817885776210052 -0.07418953938115483 0.1743329848360282
-0.17850024600672942 -0.07450270218480473 0.17295546189062413
-0.18128066857505065 -0.0697805540047968 0.17692289605848607
-0.18144656320262176 -0.07222482127774602 0.1727700020384055
-0.18324710031199676 -0.08734622163403874 0.16737607970945653
-0.18322923381972533 -0.08475735349286442 0.17038834944479284
-0.17947874565768462 -0.07760229272473698 0.17078236594908056
-0.18423944314170104 -0.07819729609120732 0.17138794913999852
-0.18489418526339751 -0.07698109311688786 0.17376390949003515
-0.1814621945207141 -0.07367619437802678 0.17354647174589452
-0.186487208801987 -0.07596709889996892 0.17466253891699132
-0.1885323633735202 -0.07443749470342045 0.1770933653425437
-0.18893041809249145 -0.07443144483197575 0.17485917464010534
-0.178536649543526 -0.08749109072316533 0.17053393378965673
-0.17888934512782317 -0.08102547688115483 0.17600546136610326
-0.17567029197859985 -0.0773101405583704 0.17244047775976476
-0.176568459469559 -0.07765242023099309 0.17341388121359166
-0.1791428734843753 -0.07510864300359135 0.17817930236570653
-0.17830974956202728 -0.07458909911740666 0.17460019245855626
-0.1785325368230365 -0.07498728794682866 0.17306850209944066
-0.18119462927031738 -0.07016908688176518 0.17700678959600744
-0.18146161337542754 -0.07267811460126286 0.17290333762876806
-0.1737204154317401 -0.06179469389546758 0.17962042346708593
-0.17416882117438537 -0.05598410529721624 0.18421623960249242
-0.1742712219541095 -0.05701908034909612 0.18150592699758825
-0.1683168967549823 -0.05838977856267339 0.18205384269468602
-0.17007943590331298 -0.05583816332448369 0.1859674240659934
-0.17173353930163604 -0.0567294613801325 0.18163774266950902
-0.16983277698207122 -0.05784102840054876 0.17746577516310033
-0.17257809241461974 -0.05317410392392522 0.1809552694868308
-0.17355900605368835 -0.05563807053197271 0.17681980982534704
-0.17710025211024505 -0.057015146442540944 0.1778134192537528
-0.17927032311606628 -0.05385738176930791 0.18197585001699743
-0.17633993526149017 -0.0529193536721552 0.17903954640142736
-0.16991477807212096 -0.05499460858929998 0.17846427217237767
-0.17176580031562072 -0.05403983158696538 0.18248740688078222
-0.17359213133502227 -0.05392112893689519 0.1778003360342246
-0.1716120650355838 -0.055852110811361134 0.17695681110136327
-0.17536446054625732 -0.05309846562970525 0.18031285062544164
-0.17641971607852203 -0.05402507943738347 0.1754393066477042
-0.18197126289057952 -0.05825352234471685 0.17595142975561437
-0.18339897294688445 -0.05660783810246831 0.17882976785414037
-0.17948838670897704 -0.052964712806829274 0.17800218716375646
-0.17775462170291167 -0.05475094480145818 0.17700819030515966
-0.17874341805625182 -0.054445321985372365 0.1789711500715476
-0.17697034378695709 -0.05280661148656255 0.17782000556700048
-0.17891817887473327 -0.05517118734944707 0.1776271547388297
-0.18119714756655914 -0.05424654049504644 0.1796943630289298
-0.18273903031993133 -0.0538821176968897 0.17676193371527013
-0.17708943386721832 -0.05523404044736272 0.17789784923307714
-0.17926705976176482 -0.05249273342717534 0.18184290185682592
-0.17587971289801818 -0.05114912552464849 0.17888824001066503
-0.16914808352637511 -0.053154523798116506 0.1780674542497855
-0.1715999205892108 -0.05223714871037847 0.18200773850195226
-0.17291894157576781 -0.05205133123029119 0.1775409664224845
-0.17083057363677245 -0.054184223838933766 0.17712209478132543
-0.17451060910868865 -0.05193712873090154 0.18022639408819494
-0.1758796383922122 -0.05244430465329534 0.17554239288084325
-0.1581842859571002 -0.10913621945012456 0.20104608789198217
-0.15764793356108886 -0.09948557180989628 0.20276288047544774
-0.1552578022067569 -0.09957220716107731 0.19965753808729467
-0.1541622837369464 -0.09837057752240544 0.20476303354017553
-0.1548429091756366 -0.09111508292783146 0.20695296779386815
-0.15643064280200225 -0.09466757936108952 0.20386687770597753
-0.15421792467284423 -0.09772467178929692 0.19699291244261083
-0.156128983694794 -0.0860522345982874 0.20017586007826146
-0.15827373762774688 -0.0934173719369257 0.1967740441869956
-0.1527950574939273 -0.10439946813214665 0.19611875072233495
-0.15417232711959106 -0.09861912889111882 0.2014906789373618
-0.1517870237414859 -0.09489184183705693 0.19672880426161107
-0.15008928974318725 -0.09381648463834172 0.19967285648100194
-0.15390647550273162 -0.08999549908269291 0.20442924752943334
-0.1522084136788867 -0.09067257804501896 0.19964955106489476
-0.1503245641772769 -0.08938598198521977 0.19812826171629247
-0.15269876619029266 -0.08288767499554997 0.20208040729276952
-0.1545970698182605 -0.08661299509633427 0.19805524602644262
-0.15602908631015044 -0.10536831183064824 0.19276575103514013
-0.15647959311652404 -0.10370635552037602 0.19646803394071874
-0.15348769326853973 -0.09636315269101506 0.19544492021314916
-0.15550742645907623 -0.09573506874669438 0.1966076280187827
-0.15684099097895843 -0.09429010314572697 0.19958291307203588
-0.15378063519644958 -0.09188064498532658 0.19812933459989843
-0.1568621208255313 -0.09076144857037907 0.19894234195463475
-0.1590606083457492 -0.08741372389424687 0.20208654657118139
-0.16127366920161468 -0.08843639058698063 0.19966528669111547
-0.15499659975218993 -0.10849847955335026 0.1982129599165183
-0.15463511248278838 -0.10102754397023564 0.20182196155302343
-0.15286522706198913 -0.09811996979344731 0.19799516454450902
-0.15264643331217986 -0.0966050283395136 0.20177225127928075
-0.1555391957347415 -0.09111025495160466 0.205086925179885
-0.15452159543681365 -0.09289282126057988 0.20120034471266088
-0.1524501403157733 -0.09313118023503666 0.19745472923033056
-0.15432154734778625 -0.08434602183926945 0.20148787751905736
-0.1564557065551303 -0.08943682474721318 0.19775382533781347
