ply
format ascii 1.0
element vertex 621
property float x
property float y
property float z
element face 0
property list uchar int vertex_indices
end_header
-0.1910326143090747 0.15847480731379146 -0.15609282895810786
-0.1931022514884494 0.1616715236223852 -0.15329175338037196
-0.19588099022555572 0.16125995355021114 -0.15858820721395198
-0.17909720142531615 0.1570219440973913 -0.15729612752683345
-0.18111131687808257 0.15976965861689205 -0.1545796607423562
-0.18638072510409576 0.15919226842295284 -0.15969399258382502
-0.18177565534758788 0.15903747516047115 -0.1591730926919717
-0.18201286693263274 0.164786760381571 -0.1567668084789056
-0.18510615428138 0.16111356454264278 -0.16156276211030665
-0.19164944787669402 0.15693074899088497 -0.15326105698831263
-0.1943786402528308 0.16002375321756954 -0.14949443086869899
-0.19692883988070709 0.15991396146189327 -0.15581623360402766
-0.181565653282883 0.1566288514650976 -0.15449593111760798
-0.18543004592108947 0.15947294669520015 -0.15101415559537593
-0.1883640249555133 0.1585367365397131 -0.15703726455457392
-0.1833579202477954 0.16048413949381465 -0.155282086579873
-0.18363238473582488 0.1654138012446081 -0.15258001431710902
-0.1869173308198474 0.16268533902536983 -0.15753496333844844
-0.1526695748155139 0.12879690962206478 -0.19198182865865412
-0.15262150366950256 0.12875676589380855 -0.19203003391511622
-0.15361122389483672 0.12751934366594905 -0.19460918649919215
-0.15142252643752319 0.12842268185984249 -0.1908985142398614
-0.15141535897898895 0.1284163637674963 -0.190905786006524
-0.15309311052012664 0.12707177238833064 -0.19333296164758387
-0.15003037055182677 0.12861440019976253 -0.1921063725639123
-0.1503398229663394 0.1302483423269903 -0.19084947451837245
-0.15172755320716125 0.12876031237017269 -0.1932044987369317
-0.1528861333911441 0.12961513238321895 -0.1909883682418603
-0.1530093808953784 0.12969118790995235 -0.19084145769365016
-0.15522370834994537 0.12876323299776668 -0.1941352848697442
-0.15170397957015258 0.12944484191309566 -0.19027892395742121
-0.15184525747943145 0.12952244716059322 -0.19011204585321131
-0.15449007948088866 0.12844050364863033 -0.19334978505857173
-0.15021434028792602 0.12947395878206844 -0.19012547179944697
-0.15044192572283965 0.1307436569250738 -0.1888661746669549
-0.15042180915522796 0.1292090757406866 -0.1920986090589303
-0.154773141938927 0.1274805112398779 -0.19126272842176142
-0.15320443709540588 0.1262069685972845 -0.19263159379251185
-0.15361861487078887 0.1257743878878271 -0.1940335844445962
-0.15478168030429107 0.127484594158045 -0.19127308472879115
-0.15321276684451324 0.12621096210848445 -0.19264273986108485
-0.15361699064421874 0.1257782621897375 -0.1940464292455453
-0.15450660486865264 0.1264395161188757 -0.190542957632615
-0.15443193514991027 0.12663111524950618 -0.1904390518356103
-0.1550756206100009 0.12614000277887935 -0.19161269709356013
-0.1532276084010623 0.1296680315054571 -0.19245477661378566
-0.15309868355441314 0.12953982191454524 -0.19259162887818995
-0.15399384101081115 0.1283475502051031 -0.19480293139703456
-0.1520696391646884 0.12921524482142085 -0.19118096575029078
-0.15200265844512206 0.1291449113405859 -0.1912455771852273
-0.15360748370337707 0.12786332207094783 -0.19335039600618067
-0.15076532562422973 0.12952509956728572 -0.19284280285127345
-0.1510463466231845 0.13120180802713985 -0.19161138579137507
-0.1531419118230365 0.12981927829157466 -0.19368754967935267
-0.15467910071063262 0.130516980460993 -0.19372802123315516
-0.15449902017760497 0.13029742675196285 -0.1939349834609765
-0.15571057398963195 0.12922510939013118 -0.1958578442025918
-0.15359501143145782 0.1299982114351904 -0.1922882412362832
-0.15347067614245635 0.129840288928858 -0.1924190734315652
-0.15529520412135345 0.12867120342623348 -0.19426328584439936
-0.15235586066889983 0.13029408889185543 -0.194636694042756
-0.15257544418025237 0.13213795857798213 -0.19359221205003443
-0.15499704678702575 0.13068324761759395 -0.19535123452432337
-0.15702062447715026 0.17357474999796504 -0.19397508248574916
-0.15623621245074493 0.17594743209253902 -0.19312884554155055
-0.15800463755774719 0.17684305148493404 -0.19601873204000178
-0.15214314659285766 0.17338389592539424 -0.191957912294938
-0.15264589687037688 0.17636710839640254 -0.19084732875116053
-0.15372258027243835 0.17508906560312862 -0.1937574808288354
-0.15224104722190124 0.1750574155367529 -0.19500305399186793
-0.15221826334643584 0.18284428553949947 -0.1931059275556344
-0.1529212256257556 0.17745560841929073 -0.19628979906327906
-0.15480649073767883 0.17033034997355098 -0.19246538624055567
-0.15637370546508056 0.173592810205332 -0.18900694593675318
-0.15786300202059966 0.17429388003718013 -0.19460535690076533
-0.15172437925982696 0.17312539058100337 -0.19067916914708796
-0.15395153661418182 0.17622685866724605 -0.18807753071077052
-0.15368850131678802 0.17440599637400264 -0.19342779263742152
-0.15031770964312774 0.1794748945749914 -0.19018580660112086
-0.15174260337996703 0.18644708829294795 -0.18738736852891627
-0.15296382804560882 0.18240786033045406 -0.19181007787473384
-0.15477493007827026 0.16527921395670528 -0.19446603104360285
-0.15448888738799316 0.16629988389383907 -0.19370137795694056
-0.15706549187350494 0.16945124106775875 -0.1955623541761178
-0.1550080438439868 0.1674689097918188 -0.19141527160890284
-0.15478482444930297 0.16884476380716915 -0.19059059664495173
-0.15641143520522338 0.17008191781412715 -0.19288720831163111
-0.15560157199549896 0.17190117078196163 -0.19052909955270472
-0.15665402610945922 0.17770159678827877 -0.18892396137006465
-0.15594046910453063 0.1747696443117773 -0.1917447958875436
-0.16023958821940643 0.1829960985697424 -0.16495547339208308
-0.16091598172831756 0.18583745198618526 -0.16331798478849116
-0.1661733498160861 0.18598068194758052 -0.16534884914643946
-0.1548799683635257 0.18334842162500972 -0.16325018450505915
-0.15553296704936248 0.1855326338328039 -0.16114108905084315
-0.16170081098723632 0.18491012292276973 -0.16322298988588038
-0.15608445902514678 0.18295550780665035 -0.1688839857269067
-0.15648205180812103 0.18595010476481075 -0.16572353884465876
-0.16085329254317504 0.184343223146311 -0.16867040738351527
-0.166846494871857 0.1828168674029028 -0.16294640943296138
-0.1692394574468158 0.18520212607752437 -0.1597962443519372
-0.1750319858377002 0.1855585618532812 -0.1641617481399316
-0.15458683272052032 0.1828204436815893 -0.16417016729600611
-0.15634934206652862 0.1837967677630102 -0.16059686884172145
-0.16375536819148284 0.18369472461115474 -0.16478674754388514
-0.1622700055425189 0.18335730271708126 -0.16577667638547602
-0.16344613929438812 0.1857879205263769 -0.1618252013612527
-0.1669903208797 0.1844025297678625 -0.16674371704347316
-0.1717401852195285 0.18026429849039668 -0.16174923524148646
-0.17244653006243926 0.18187863068949336 -0.1606834296870965
-0.17518436511206847 0.18240035014521236 -0.1624982421088952
-0.16537618239569885 0.1802521391428625 -0.16242932423837367
-0.16533863146949035 0.18173093037973995 -0.16134867712743464
-0.16909768779921752 0.18158591227900142 -0.16300367459542933
-0.16659755607295257 0.18004519181620235 -0.16454327747113887
-0.1680124511306308 0.18288338618647212 -0.16193429276235285
-0.16879126032042724 0.18136841493021602 -0.16440697654969874
-0.18911574383425933 0.11785135107409114 -0.15500783070810023
-0.18824855585742217 0.11724815206896419 -0.155947170107438
-0.19152627487826568 0.11622009115587825 -0.1576665554929513
-0.1886844297235034 0.11756307320963497 -0.15440175577886286
-0.18786331613707763 0.11710858779322261 -0.1553893898416299
-0.19129038949656707 0.11602879004847164 -0.15714930638559046
-0.18765107889819366 0.11725798683535213 -0.15552464768178645
-0.18765417833972198 0.11749747829805965 -0.15539290651567164
-0.1888081987683795 0.1163740201510107 -0.15720309957750025
-0.1913990934674762 0.11976561384569759 -0.15363926336057368
-0.19037685890841705 0.1190433247603094 -0.15481773659475032
-0.19309953947711211 0.1177945478476202 -0.15647254034764949
-0.1910958399360202 0.11958668070208187 -0.15334623202569667
-0.19009510775256377 0.11894008951555843 -0.1545595888782281
-0.19296858807254058 0.11768550115000362 -0.15619941696412745
-0.19136072297740203 0.11875835495363826 -0.15269445523507777
-0.19145339329886657 0.1185935779131567 -0.15279599174745265
-0.19073910613703948 0.11755735116373653 -0.15485305234677973
-0.1928552200381778 0.12025547461878414 -0.1550040607143182
-0.1912784238641284 0.11824581461321468 -0.1569285456825036
-0.1921797205989383 0.11738306718241329 -0.15720114752538386
-0.1937441041057132 0.12089398937594051 -0.15641707822568598
-0.1920139898841403 0.11888289885889644 -0.1584377352882165
-0.19152699013400298 0.11789417701136226 -0.15890245780236903
-0.1938387562816165 0.11890691953074092 -0.1560561422992486
-0.19406051536250335 0.1175855143583929 -0.15662956878431025
-0.1952363063876651 0.11766389446627254 -0.15676877543218318
-0.18954021831202728 0.11833593683611507 -0.1553760831046838
-0.1886660714929126 0.11775637107264156 -0.1563766066718835
-0.1922739257400058 0.11677507000338191 -0.1581185375142831
-0.18905008931803924 0.11801585989367122 -0.15479243442304316
-0.1882177253549121 0.11763778763186092 -0.1558921550203103
-0.1919961084907077 0.11660990553270931 -0.1576636795688409
-0.1882213463370822 0.11759958105455989 -0.15555693849809352
-0.1882262190167926 0.11778253751169795 -0.15545279428250972
-0.1888716479127429 0.11664322452913875 -0.15742736205346766
-0.18706327279257995 0.11597067551981563 -0.15333097323663417
-0.1867882569615863 0.11470076876055355 -0.15399127349145594
-0.19120399256396514 0.11442950802218074 -0.15516186401136103
-0.1867887337987445 0.1158370419062292 -0.15291152045018855
-0.18651109536338073 0.11457315521608943 -0.15355866297967616
-0.1910221983974002 0.11428061561953182 -0.15472360595948878
-0.18672537406134826 0.11545321779619808 -0.1573376868654031
-0.18688664932894927 0.11631215052973384 -0.15715882822759333
-0.18979392548251373 0.11425847249399776 -0.15749642893560115
-0.17080218692469817 0.1462187810457861 -0.17630546435601893
-0.17183821995902282 0.147122923902384 -0.17532227083928767
-0.17491501172232848 0.14650226073633785 -0.17844086035974208
-0.16317461033511382 0.14656371312510127 -0.17673609301335994
-0.16423545380282623 0.14727104144465084 -0.17562364682443324
-0.16891552110362273 0.14637095170389766 -0.17823410674817744
-0.16356494625258666 0.1457709117449438 -0.18030736490972224
-0.16400049229312164 0.14825553136240596 -0.1781058375526208
-0.1675420810763858 0.14666194157969112 -0.18120225414521876
-0.17052997251200896 0.1452083035029089 -0.1739130382228631
-0.17224159439254028 0.14632350640665645 -0.17217520519979182
-0.17691720624613982 0.1463049693621313 -0.1765160326648492
-0.16486557920623046 0.1456195159472143 -0.17427290126569453
-0.166302483278992 0.14632136063944454 -0.17247449502237025
-0.17253925998854858 0.14630830722223873 -0.17661685392148677
-0.1653646786992572 0.1444613380945837 -0.17618841573484126
-0.16624949474978667 0.14689654546152706 -0.1740259145189065
-0.16709068020034057 0.14485907988916988 -0.1778725747752923
-0.17324125369239074 0.14443195300470943 -0.17515737458951655
-0.17277140517878753 0.14402938323389644 -0.17558397993333522
-0.17370213170695525 0.14363450246225948 -0.17699222907312098
-0.17215719421553832 0.14429146485697383 -0.1743553493905801
-0.1717518230264209 0.1439282341517126 -0.17471035465486232
-0.1729689051692508 0.14332449870478267 -0.17606715008504573
-0.17077096899199706 0.14353251891504878 -0.17616539344079676
-0.17115084429431182 0.14538455443750972 -0.17507994815595332
-0.17128611703562957 0.14396155314814205 -0.17680848285443965
-0.16968249877143127 0.14478654103647823 -0.17565259978063288
-0.17135859628367645 0.14588565068613643 -0.17400491878278437
-0.1762555350844882 0.1457304997957861 -0.17814759060628596
-0.16139408548522216 0.14512867169748897 -0.1767087791848916
-0.16303988893676025 0.1457346125162756 -0.17473476275689784
-0.16971496840167266 0.145613495878092 -0.17853159353025141
-0.16256708999324065 0.14349598126780147 -0.1791502003360528
-0.16347799797702056 0.14580327706705684 -0.17676820501573268
-0.16517364581275207 0.14394170480143184 -0.1805888776469964
-0.17745360334563476 0.16674483256708736 -0.1759609048057336
-0.179944302636864 0.17118758397471065 -0.17277487262971583
-0.1855895777528308 0.17051321702372188 -0.17736715718991938
-0.16500083704638702 0.16695452170740718 -0.17553227290399256
-0.16637840469527465 0.17009532885920162 -0.1724622909713525
-0.17580659290003997 0.16836446957956905 -0.17649773403890315
-0.17091928024935943 0.1676772280253088 -0.17939295515306178
-0.17165934642005187 0.17338264422785396 -0.17555772408731166
-0.17702392836261016 0.1692602677858984 -0.180707610099389
-0.18167161544013244 0.166151825956217 -0.1699454997468728
-0.18731224139380676 0.17180955844294185 -0.16580793902166072
-0.19138662119555694 0.1703324957407629 -0.17233037099130336
-0.1658485790078662 0.16512114243876094 -0.1719064329553384
-0.16965210040259582 0.1674071593798315 -0.1673840050388116
-0.17847135265517455 0.16740405993830318 -0.173590174763276
-0.17359684010195953 0.168121401838175 -0.17401372536904994
-0.17383169730353576 0.17126149373423213 -0.1702550415683526
-0.1793393005912326 0.1693655891932165 -0.17593597516305629
-0.1813095917289279 0.1831220431841528 -0.1601845090080041
-0.18159485955882293 0.18753529029261226 -0.15816437348611537
-0.18558165033507568 0.18700737195383663 -0.16199507459886256
-0.1710888703649066 0.1813507719553625 -0.15963750228173915
-0.17027547557997924 0.1849750919855749 -0.15762237355001155
-0.177190955478432 0.18378603892695064 -0.16128077253587428
-0.17462485631156188 0.18225211339365596 -0.16399756714589778
-0.1753182669465564 0.18866742091547603 -0.16068484529740992
-0.1797614653890155 0.1850073380983984 -0.16517547413594905
-0.18441520233798248 0.18188983636271114 -0.15742938861139003
-0.18651936550784332 0.18661463694941158 -0.1544762615848321
-0.18780533571887237 0.18546975093256587 -0.15966825827844325
-0.17325050731349212 0.18039590554606075 -0.15776096925027552
-0.17450095315623504 0.18332696395289058 -0.15472977504022303
-0.17923163970160705 0.18234295087229366 -0.15959506377465907
-0.17776846488166076 0.18413573937784786 -0.15964745625741664
-0.17796571155238372 0.1893783851183569 -0.15660685941465083
-0.18179878194976073 0.18610674577128047 -0.16143079742677394
-0.18782384296107513 0.1806033297098791 -0.15685089573152247
-0.1871953864877246 0.182997529081217 -0.1557023142267007
-0.18759353061366302 0.1833731575525915 -0.15917640074975672
-0.17983674605536681 0.17849016623865718 -0.15657684847600642
-0.17991365094828826 0.18129551844965572 -0.1552377705264825
-0.18194843431163055 0.1804192705668127 -0.1585038517404336
-0.18169462283301574 0.18026346402536983 -0.15962348028905574
-0.18201848467040282 0.18593341546427364 -0.157624638526513
-0.1829723378007434 0.1820972605265295 -0.16118366166837397
-0.1594069560353778 0.1591223521746313 -0.1875744973111886
-0.16108344097781402 0.16403872208963985 -0.18545705720670405
-0.16005454559970123 0.16204351621042842 -0.18823032721765223
-0.15065721769976836 0.15903377967249507 -0.18685995682962123
-0.1521951069419406 0.16345364289652461 -0.1845648799825448
-0.15380921562361938 0.16127443747889156 -0.18734667345769587
-0.15021662016558868 0.1594488664187109 -0.1915849064279336
-0.1526751627509616 0.16851628260981197 -0.18788797303922358
-0.15555676420378906 0.16309625344645137 -0.1911809210468072
-0.15862869818854552 0.15700298982035274 -0.18413291022069636
-0.1599950005595706 0.15980107026468868 -0.18052533909566584
-0.1625999321525119 0.1600034876383459 -0.1858217035222787
-0.14991724093604308 0.15761471228968257 -0.1848640058923501
-0.1526172866408847 0.1606874509371435 -0.18162058934457484
-0.15593613286662322 0.159604076913706 -0.18653195246942225
-0.15183950563121063 0.16077167230021114 -0.1861476962257165
-0.15246602495360595 0.16730577187906856 -0.18268164142854396
-0.15453388889479858 0.16297156052958126 -0.18724261864907923
-0.16114206214595062 0.15379888253580684 -0.18482220813520137
-0.16211483975100738 0.15716523366343135 -0.18255761906392756
-0.16181772549796325 0.15744263368021602 -0.1859529678512353
-0.15590753753829223 0.15476209359537715 -0.1843965862680215
-0.1584335674827121 0.1582400246180212 -0.18233015283830348
-0.15775450666594726 0.15683395104776973 -0.18569227203614894
-0.1568829526488803 0.15657288270365352 -0.1861496631789941
-0.15699302752661926 0.16340780692469234 -0.18354175135381404
-0.1583676745479129 0.15939712958704585 -0.18671791896112147
-0.15949821074652892 0.15821302371393794 -0.18619990989453974
-0.1614228000228427 0.16238421635996456 -0.18316992267854396
-0.16247137983489257 0.16127825217615718 -0.18723695620782557
-0.1485131492202304 0.15782934861551876 -0.18702552363164607
-0.15080137153315765 0.161715631059519 -0.18411645933873835
-0.1541802098338626 0.16017973857294673 -0.188019684403016
-0.14973800976920348 0.15800255971323604 -0.190838909595086
-0.15210784574198943 0.16604602771174068 -0.18692124530561152
-0.15447680254626495 0.1610919280565893 -0.19091177627332392
-0.16052139897990447 0.1866806788958227 -0.1743671958137292
-0.16150192518878204 0.19202268557917232 -0.17254466459043208
-0.16209868689227325 0.18913650946985835 -0.17781991407163325
-0.1515334506814502 0.18404418664347286 -0.17170374736077967
-0.15153398712325317 0.1884773417032873 -0.1700237457443017
-0.15613033970046264 0.18613899188410396 -0.1747818355251092
-0.15409482618022186 0.1870732946909582 -0.17671819671876612
-0.15253437658000213 0.19374800162684078 -0.17514967068917933
-0.1571178694551013 0.18921065764795894 -0.17952785536534968
-0.1623034884517215 0.18646181064020748 -0.17221749469525996
-0.16348598499942046 0.19063532786738033 -0.17013021454103175
-0.1647453268353961 0.18976146417032833 -0.17580646917112056
-0.15352762838053924 0.1843894763506567 -0.17172077938802424
-0.1551882733886264 0.1879590793169653 -0.16977808520085994
-0.15792572100806457 0.18659222560297603 -0.17537940189130488
-0.15342193444419128 0.18805706935297603 -0.17385206267125788
-0.15314192672419769 0.19459474521051998 -0.17215982720143977
-0.15722612639117461 0.19102305608164424 -0.17653139576204005
-0.1629399766509555 0.182046179345957 -0.17216003581769648
-0.16263544161963683 0.18412590461145992 -0.1714949075866479
-0.16433731814074737 0.18528819518458003 -0.17510064586885157
-0.15880520244288665 0.1812587423838293 -0.16975047334916774
-0.15794990559268218 0.18316382604014034 -0.1694381152082223
-0.16041688223529083 0.18298161464106197 -0.1734107498813409
-0.15668767293143493 0.18417907195459957 -0.17241593345887843
-0.15578515430140716 0.18994409280192012 -0.1713416044402856
-0.1581836005036853 0.18664741950403804 -0.17524552985913935
-0.16107275684523803 0.18625170426737422 -0.17433939024694148
-0.16203601260829192 0.19140637355219478 -0.17244209989793483
-0.16294276316809875 0.18887150721918697 -0.17776540562398616
-0.15189908047366363 0.1836616440333044 -0.17225748941190425
-0.15211191375899535 0.18792039590250606 -0.17058848485238734
-0.15667235453772765 0.18579751687418575 -0.17535389110334101
-0.15440876384425384 0.1870931430376684 -0.17627585574872676
-0.1528219540898822 0.19352192120920772 -0.17476502701528254
-0.15746755500483733 0.18914556937586421 -0.1791223500657815
-0.16347634394812804 0.13038722114931697 -0.1812341277290124
-0.16496155758548003 0.13167220788370723 -0.17958889052159968
-0.16566310425448638 0.13042647080790157 -0.1828275685001153
-0.1587222327773593 0.1302045627154028 -0.18014260277040187
-0.1603333910291217 0.1314191861666357 -0.17845917388684931
-0.16293179591346008 0.1299337788141882 -0.18119989976175013
-0.15870147545981628 0.13020053940188045 -0.1821675960708398
-0.15972512562918884 0.134121899179331 -0.17969842895753566
-0.163783054548981 0.13195848899256343 -0.1822605644155282
-0.16294493873763305 0.12990776138674373 -0.17742092057950679
-0.1656991501634143 0.13119936423670406 -0.17500147864110652
-0.16844608982253295 0.13066924052607173 -0.17992701277024928
-0.159839521843674 0.13047817783724422 -0.1771210198093194
-0.16201416750598174 0.1314255042589819 -0.17499924346692744
-0.16694953640151244 0.13102651076685543 -0.17958096310384455
-0.15931672950434905 0.13059214191805477 -0.17891319736726466
-0.15995439489531738 0.13326502280604 -0.1758468215156335
-0.16099667151618224 0.13090268211733455 -0.17988695844896022
-0.16507309277701598 0.1274817033327734 -0.17954350158460322
-0.1655165066306613 0.12781575756441707 -0.17905803665406886
-0.1645137925927661 0.12710056143175716 -0.18163745745904628
-0.16382892032313567 0.12734404640566463 -0.17861112102754298
-0.16423415740180236 0.12767270641695613 -0.1781421665836114
-0.16434050698924285 0.12672791319262142 -0.18031946465261164
-0.16505550940680724 0.12684598999392147 -0.17835827812440577
-0.16565225620913726 0.12959099250208492 -0.17689897760636988
-0.16595382590937835 0.12794363932978267 -0.17891887470967952
-0.16254940231490356 0.12881643014322872 -0.17957248434312525
-0.1648114581887744 0.1301541669882452 -0.1774506930995721
-0.16706741948771697 0.1293509943998968 -0.18162806972749415
-0.15726209779429656 0.12893185453783626 -0.17942938849218074
-0.1591674049680255 0.12999737697016353 -0.17742179974801722
-0.1633371820037387 0.12905613022219295 -0.18098915263898555
-0.15631180604148132 0.1284071250475561 -0.18262215599305812
-0.1572627385442279 0.13167584376703853 -0.1797009621549386
-0.16031412382769805 0.12956253128420467 -0.18311609968431178
-0.16395273407149535 0.13064405756365413 -0.1818711076665658
-0.16535721321749908 0.13190442757975215 -0.18029842421300593
-0.1663736512248538 0.1307674093760168 -0.18339558586366358
-0.15916274090457183 0.13040283756624813 -0.18061493977792445
-0.1607770731036685 0.131680492929331 -0.1789813701797265
-0.16335567434478027 0.13016149835955257 -0.1816354607034463
-0.1593149264638446 0.13035896854769344 -0.18256700679547969
-0.16046413381743652 0.13446772532831783 -0.1801391457010049
-0.16460430224585754 0.13221127229105586 -0.1825694058824319
-0.18074352641749603 0.14297110276590938 -0.16709732159860316
-0.18060767253089172 0.14289313989054317 -0.16725767299421015
-0.182547982532265 0.14224505858790035 -0.16971189424283686
-0.17952622075724822 0.14281321006189937 -0.1665151928354043
-0.1794223894660495 0.14275420146357173 -0.16664627835042659
-0.18228436608958465 0.1420988483942663 -0.16898772761113826
-0.1792346497361682 0.1426407142199194 -0.16702250286824885
-0.1799745817964099 0.1440359993494665 -0.1658326600480813
-0.1804156412665866 0.14285058217417354 -0.1680343215156335
-0.1818942685906909 0.14254808860193843 -0.1641992394614953
-0.18222775657820922 0.14267546372782344 -0.16392376169450465
-0.18439320822406036 0.14173788266550655 -0.16705792292840663
-0.1808572073762439 0.14271861749064083 -0.16387409612424556
-0.18102396627116424 0.1427843018091833 -0.16373654350526515
-0.18381151159453613 0.1417743607081091 -0.1666840378928918
-0.18034280439067107 0.1429204388178503 -0.16334909841306391
-0.1807375361506961 0.14363962846171016 -0.1624578599620599
-0.17992698748755676 0.1427385254419958 -0.1651504252839822
-0.18494830628085357 0.14317977862726802 -0.16663113877065364
-0.18374779422927123 0.14225638347040767 -0.16792733117826167
-0.1821672876660846 0.14149076180826778 -0.16950658604390803
-0.18489002783942443 0.14316755967508907 -0.16660102352388087
-0.18369924624610168 0.14224416451822872 -0.1678925965715188
-0.1821587493007205 0.14147198634516353 -0.16945477470643702
-0.18540569742369872 0.14162159400354976 -0.16577876254804316
-0.18536370595145446 0.1415086432017004 -0.16584994539506617
-0.18514842887568694 0.14158839421640987 -0.16682390019185725
-0.18480528493571502 0.14658195214640254 -0.15135634586103144
-0.1848087122027896 0.14658511119257564 -0.15135324641950312
-0.18812939127135497 0.14616752105127925 -0.15291588649041835
-0.181869830686333 0.14642817216288204 -0.15070456907041255
-0.18193153639483672 0.14648729997049922 -0.15064745291955653
-0.18575030167746764 0.14575529532801265 -0.1519377295661706
-0.1814462502782367 0.14595604377161617 -0.15256314620263758
-0.18188489576029998 0.14760470824610347 -0.1510185663390893
-0.18497421940016967 0.1463047309435522 -0.15282209858186427
-0.18804567654776794 0.14748627381693477 -0.14914183959253016
-0.1881448288743518 0.1475670977152502 -0.14905419096238795
-0.19075572093177062 0.1470628424204504 -0.15114056214578334
-0.18639793594527465 0.14718872743021602 -0.14819841727502528
-0.18650596936393005 0.14729059176813716 -0.14809126302488032
-0.1902386506383441 0.1467825813807165 -0.1501321111608285
-0.18364280064749938 0.14677542882334346 -0.15136258944757167
-0.1841443886344455 0.14861691432367916 -0.14991424128301326
-0.1857952286784671 0.14719027715098018 -0.15195489570386592
-0.18991888662028533 0.14630967812906856 -0.14945291623361293
-0.18919919033694488 0.14547825293909664 -0.15027675673253718
-0.19084037442851287 0.14542705254923458 -0.1505872075248498
-0.18950120707202178 0.14610583024393672 -0.14873955294377986
-0.1888176461045764 0.14529556470286006 -0.1495219831157464
-0.19071939190078002 0.14515704350840206 -0.14983936294801417
-0.19055293102908355 0.14414883094202632 -0.14902438864000025
-0.19057276447463256 0.14547789531122798 -0.14863587066419306
-0.19245270987200958 0.14482236342798824 -0.14919754013307276
-0.18768895764994842 0.14792293744455928 -0.1516802524019021
-0.18813912172961456 0.14827013450037593 -0.1511980508256692
-0.19107238550830108 0.1476642532862341 -0.15369482979066554
-0.18475313087153655 0.14773619609247798 -0.15105736896283808
-0.18514327307391387 0.1480839891947424 -0.15056777641065303
-0.189630981284859 0.14750481086145992 -0.15290769085176173
-0.18172920842814666 0.14728403525721187 -0.15476316854245845
-0.1822644134347461 0.14925444560419673 -0.15300550207383815
-0.18471756179976684 0.14782250361811275 -0.15540858253724757
-0.15911928911853057 0.16644156413447017 -0.19435795292146388
-0.1612183709924243 0.17039531903635616 -0.1918234740186471
-0.16197448571372253 0.16932285266291255 -0.19544695958383265
-0.148938443261864 0.16600507932077999 -0.19513433322198573
-0.1506404091899417 0.16939235167872066 -0.19253878936059657
-0.15445282657790405 0.16814011769663448 -0.19608876749761286
-0.1492877115790866 0.1658940954722082 -0.1992222879815835
-0.15224811037230712 0.17236441808115596 -0.19531351968534175
-0.15422148605036956 0.1685682578600561 -0.19920322939641658
-0.15818443496871215 0.164276186994425 -0.18899545714147273
-0.1621746083085559 0.16674626307856197 -0.18492709740884486
-0.16638017793345672 0.1671383424318945 -0.1912204240251321
-0.14748775561499816 0.1652156754053747 -0.1908987228561181
-0.15081634720015746 0.16656434970270748 -0.18729268655069056
-0.15615744491267425 0.166470531991831 -0.1928760920453805
-0.15028374989676696 0.16838598685633296 -0.19209455594308558
-0.15221176644015533 0.1723517222918188 -0.18812356039769831
-0.15463329454112273 0.16967535453211421 -0.1933973495651025
-0.15810310443091613 0.1592192097223913 -0.1920095150161523
-0.15944484968829375 0.16149598794352168 -0.18993604823835078
-0.15926831563163024 0.16185427146326656 -0.19353846356160823
-0.1541857828681491 0.16042256789576168 -0.19188844308145228
-0.15629772444415313 0.16238713698755855 -0.1900912289310235
-0.15553952356028777 0.16140896516214961 -0.19354139909036341
-0.15417302747416717 0.1633141680277502 -0.19170876487977687
-0.15491620798754913 0.1673848672426855 -0.18935718282945338
-0.15541828771281463 0.16521579461466426 -0.19234193012006465
-0.15490258832621795 0.14052588181864376 -0.18525991484410945
-0.15372043450522643 0.13947743611704463 -0.1862860088039178
-0.15379619200873595 0.1391968174494421 -0.18733339652307215
-0.15455616613078338 0.14036125378977413 -0.18485356017835322
-0.15338810880828124 0.1393566771067297 -0.18585262343175593
-0.15376236637282592 0.13903731542002315 -0.18685499474294368
-0.15499999721694213 0.13905603127848262 -0.18491791829354945
-0.1548925151412509 0.14003050761591548 -0.18444540247209254
-0.15502060552287322 0.13911658959757442 -0.18571519002206507
-0.15459033449340087 0.1406873508013403 -0.18487334892041865
-0.15408637722182494 0.14033085542093868 -0.18554421409852687
-0.15374172826457244 0.13927150206934566 -0.18795419379956904
-0.153957854706528 0.14057141976725215 -0.1844823126483697
-0.15342849095511657 0.1402164741076147 -0.18515405699498835
-0.15353095133948547 0.13907170730005855 -0.18741213425882045
-0.15419348676848632 0.13997990327250118 -0.18243797764070216
-0.1544919272248767 0.1407127423800146 -0.18168840452916804
-0.15331208308387023 0.13997650580774898 -0.18399336084611598
-0.15529234309840423 0.1380056186236059 -0.1842107985902566
-0.15363348622966033 0.1358350558794653 -0.1861421380925912
-0.15253163476634246 0.13630265431772823 -0.186612031309678
-0.1552250494544528 0.13827759461771602 -0.18497367843873683
-0.1538369913880847 0.13608432250391597 -0.1868520294118661
-0.15245419343161803 0.1366556330240881 -0.18738233193643275
-0.15629893143820983 0.13505381780039424 -0.18354492530114833
-0.1563801278655551 0.13475484090220088 -0.18362242624051753
-0.1566014995162509 0.13532603221308345 -0.18411303207166377
-0.15522469182658416 0.14157951312433834 -0.185482880919053
-0.15408508082080108 0.14015573697458858 -0.18663268431909266
-0.15427459378886443 0.14019042687784786 -0.1872722272563714
-0.15501132209944946 0.14146149592768306 -0.18515681370980921
-0.15388947327780944 0.14005172686945552 -0.18626483425386134
-0.15424206455397826 0.1400513096369421 -0.18688536330945674
-0.15580315490412933 0.13965708451639766 -0.1856288973975915
-0.15582361419844848 0.14087111192118282 -0.18530890986211482
-0.15653889973807555 0.1400985165156042 -0.18622023507840815
-0.15489653845477325 0.14106923776041622 -0.18515575572736445
-0.15371359487223846 0.13986897902857418 -0.18624658033139888
-0.15385730167079192 0.13974506097208614 -0.18710651144273463
-0.15460258324790221 0.1409162326372778 -0.18477218493707362
-0.1534332742278598 0.13975114064585323 -0.18583277508504573
-0.15380641420531493 0.1395855589426672 -0.18665709242112818
-0.15516347785639983 0.13941944079767818 -0.1850321356941003
-0.1552078982179187 0.14053780274759883 -0.18460673734433833
-0.15556792517352325 0.13967603879343624 -0.1857376460719842
-0.18158848186183196 0.1623964949167883 -0.17464820191152278
-0.1826371212785266 0.16781509356867427 -0.171087733357026
-0.1849879433696292 0.1662535710848486 -0.17655610188729945
-0.16803161402392608 0.15973860459696407 -0.17557806417234126
-0.16964917977500182 0.16479325728785152 -0.1723198358703393
-0.17470119496035796 0.16296983199488277 -0.1776616339374322
-0.17133041818785888 0.16306585507761592 -0.17858802422769252
-0.17137117286372405 0.17209011750589961 -0.1753084127593774
-0.17531524201083404 0.16604149775873775 -0.1803774748731393
-0.17992528875518066 0.15694141822229976 -0.16969931766278926
-0.18332589765238982 0.16235447364222164 -0.16433063790090266
-0.18626696963954192 0.16229057746302242 -0.17155419930703822
-0.16993328531432372 0.15992349820505733 -0.17011668428666774
-0.174878384668114 0.16406310038935298 -0.16566883668191615
-0.17663830121207458 0.16216671901117916 -0.17255338176973048
-0.17070956130671722 0.16628593640696163 -0.17133859440572444
-0.17287237544703704 0.17419404225718135 -0.16711413010842982
-0.17618420322585326 0.16967857318293209 -0.17299453064687434
-0.18079894383597594 0.15409750180613155 -0.1744691644597787
-0.18101882537055236 0.1584100170649206 -0.17108764395005885
-0.18315983911204559 0.15964198546778316 -0.17554435774572077
-0.17718788583922607 0.15756530003916377 -0.1721863959718484
-0.17826300461936218 0.1614126606501257 -0.16970195516832057
-0.1787822057788394 0.15990674929987544 -0.1747532699991006
-0.1754274924581073 0.16160840230356807 -0.17369549617059413
-0.17626456518817168 0.17014146285425777 -0.17096216127164546
-0.17823163767504913 0.16564953761469478 -0.17529081448800746
-0.1672424783294223 0.1791648908175146 -0.16643465205915156
-0.16851463516402465 0.1817727132357275 -0.16456482455022517
-0.17575284441161376 0.18145972924601192 -0.16855072125680629
-0.16070885558772308 0.18015474515329952 -0.16492139443643275
-0.16057787438082916 0.1810354037798559 -0.16240539297349635
-0.17011196513819915 0.1806009455240881 -0.1666041229654092
-0.1650153954808734 0.18139934974085445 -0.1657861535239953
-0.16472893555808288 0.18356979327570552 -0.16303389415033046
-0.1704729606692813 0.1823852105654394 -0.16823891445882502
-0.17076234121966583 0.17640614943873043 -0.16410637542493525
-0.17358788450408202 0.1790658278978979 -0.16125542566068354
-0.17818992932486755 0.178716842702738 -0.16641756042726222
-0.16211062272238952 0.1781072063959753 -0.16380851611383143
-0.1628912647550128 0.17863733010660762 -0.16050647839791957
-0.171864446002724 0.178983275464884 -0.16541450366265956
-0.16758001943278533 0.17948610024820918 -0.163906953184678
-0.16820938487696868 0.18206346469294185 -0.16133823141343775
-0.1737770994489215 0.181077305845133 -0.16677222296483699
-0.1762953211848758 0.17766046958338375 -0.16491798207051936
-0.17640705009150726 0.17875963883768672 -0.16428629204518977
-0.17893445094275695 0.1786155744112646 -0.16696578904874507
-0.1720761020963214 0.17759019570719356 -0.16381888732202235
-0.17193814714598876 0.17882442908655757 -0.16307606443650904
-0.17617429395365936 0.17803758817087764 -0.1657626990962762
-0.17408452530551177 0.1781243725336706 -0.16519140347726527
-0.174463744956734 0.18049669700037593 -0.16362615570314112
-0.17652527590441924 0.17887705998789424 -0.16678949341066066
-0.1647792865817569 0.17774916129480953 -0.18961547955758754
-0.1662567218129657 0.1854444785631811 -0.18646902486570063
-0.16723320980715972 0.18139231639277095 -0.1929499571014184
-0.15155031879592162 0.17317057090174312 -0.18850574537999812
-0.1533271630589984 0.17978895144831294 -0.1853496198344964
-0.15841482182193023 0.17676264481913204 -0.19169761881120387
-0.15435516436743957 0.17883873420130367 -0.19220185920484248
-0.1532838304822467 0.18750554757486934 -0.189948133080079
-0.1587399055545352 0.18210566478144283 -0.1951622281957406
-0.16385463972735625 0.173373345903269 -0.1851362799096841
-0.16626159449267608 0.1789794011629736 -0.18060194596536341
-0.1685353775804065 0.17877150016199703 -0.18790499016530696
-0.15164640148329955 0.17244273858439083 -0.1854223076988
-0.1561866064851306 0.17773819404017085 -0.18104515120275202
-0.1589472403113864 0.17592555718790645 -0.18844941899068537
-0.15167082448649627 0.1764931722201025 -0.18800844892747584
-0.1532317658250354 0.18547898965250606 -0.18494427844770137
-0.15845524867224914 0.18151706891428585 -0.19012374326474848
-0.16547555823970062 0.1686336441553747 -0.18923426315076533
-0.16612135966468078 0.17403650718104 -0.18631740555055323
-0.16750993927169067 0.17440182404886836 -0.19147697731740657
-0.16101379295039397 0.1717583580530798 -0.18565428897626582
-0.1615204026286624 0.1759104176081335 -0.18376970931775752
-0.16351817150759917 0.17484718995463008 -0.18932641193158808
-0.15816868444133025 0.17536139922510738 -0.18829999014623347
-0.15790001650500518 0.18349254565607662 -0.18637398525960627
-0.1610527296845935 0.17961210446726436 -0.19095229253061
-0.17431178291487914 0.12659612732302303 -0.18191825494058314
-0.17562430699515563 0.12734157281290645 -0.18034823879487696
-0.18009282251048309 0.12694898682009334 -0.1823700730491418
-0.16880899270224792 0.12627926903139705 -0.1812842403341073
-0.17028385003257018 0.12646583156954402 -0.17920697376020137
-0.1763248105828784 0.1256898685015356 -0.18098959967382136
-0.17007009287524444 0.12559318976770992 -0.18307644769437495
-0.17150397201228362 0.12781632380854244 -0.17973337218053523
-0.17560627659011108 0.12663853602778072 -0.1823860172916192
-0.17405429084944946 0.12523037629496211 -0.17651512369401637
-0.17612434526133758 0.12591940598856563 -0.17491196736581507
-0.18038254578757507 0.12542945580851192 -0.17839725956208888
-0.16877396007228118 0.12522012429606075 -0.1772273842979211
-0.1705708463971637 0.12530881600748653 -0.17534654483087245
-0.17683763404536468 0.12501141863237972 -0.1783199672389764
-0.16940562029528838 0.12359872894655818 -0.17868816003091517
-0.1715074141805194 0.12567013936411495 -0.1754469488549966
-0.1716653664891742 0.12375331359278316 -0.1788118545699853
-0.17705563803363067 0.12438959317576045 -0.1799780492473382
-0.1773384620730899 0.12452060418497676 -0.17967352911718074
-0.1796284874265216 0.12413308458696956 -0.18058387085683528
-0.17590514918017608 0.12396914201151485 -0.17937045439965907
-0.1761926074807666 0.12409541445147151 -0.1790881966043252
-0.17877919574427825 0.12345388965975398 -0.17972696468122187
-0.17852943738150817 0.12116060095202083 -0.17784047767408076
-0.1801567484920047 0.12280238109003658 -0.17568182095773402
-0.1802684028928302 0.12208223777186031 -0.17735152587182704
-0.17262886067080718 0.12431157069574947 -0.17859350785501185
-0.17482910652804595 0.1250860436476385 -0.1768185113359231
-0.17989454765963775 0.12466332750689144 -0.18013658270127955
-0.1645920534913562 0.1247484429396307 -0.17970796570069972
-0.16657992799926025 0.12463552194010372 -0.17747428163774195
-0.17346237202334625 0.12410307364832515 -0.18017903610952082
-0.16617564459490997 0.12293583588968868 -0.18199471279866877
-0.168201800185921 0.12484962182413692 -0.17854016169793788
-0.17011664410281402 0.12329122858416194 -0.18206817552335444
-0.17782896359610778 0.1277609212912237 -0.18260735913999263
-0.17889524598765594 0.12855419950853939 -0.1814053718734521
-0.18413865168738586 0.12847942548166866 -0.18268456205613795
-0.17102782030749542 0.1281782432116186 -0.18236259266622248
-0.17220607002425414 0.12867105441462154 -0.18073087081201258
-0.17861817379641753 0.1279232545412695 -0.18189736351258937
-0.17302810748267394 0.12742969828020687 -0.18459819897897425
-0.17427932818579894 0.1298525972880041 -0.1814528320718545
-0.17890028258013946 0.12848329978357906 -0.1835101012874383
