ply
format ascii 1.0
element vertex 575
property float x
property float y
property float z
element face 0
property list uchar int vertex_indices
end_header
-0.09657123287368041 0.26362282472025506 -0.1402117525029916
-0.10269419451403838 0.269139353803507 -0.13477238163240138
-0.10149602194476348 0.26716894345652215 -0.13961658522374812
-0.08467998703170043 0.2704926176584875 -0.14045724913366023
-0.09191616972136718 0.27225882249247185 -0.13523196324594203
-0.09390051265406829 0.27094394402872674 -0.14097335085160914
-0.08768696685481292 0.26799923615824334 -0.1440089707065362
-0.09416681130576354 0.2708689017809545 -0.13897488161809626
-0.09608624478030425 0.2694581194437658 -0.14485893294103327
-0.09806131919074279 0.2707005782641088 -0.14545018121488276
-0.10466871758151275 0.27425122695337883 -0.13984589919336024
-0.10423376758742553 0.27403074937235467 -0.1453655575204629
-0.08426042993712646 0.2741459651507055 -0.14690536901242915
-0.09301444490599853 0.27560991483103386 -0.14166536077745143
-0.09662346144366485 0.27501458363901726 -0.1482802246499795
-0.09299213786769134 0.271400575212351 -0.1480896387983102
-0.09918334682631713 0.2735062284983312 -0.14438544854409877
-0.10117590029883605 0.2726243777788793 -0.15063816949613276
-0.1449195553843997 0.18573695855509395 -0.14606492861993495
-0.14670925934958678 0.18679440455805416 -0.14354187890775386
-0.14743806024241668 0.18566471772562618 -0.14484367415197077
-0.14212765892195922 0.1866506381548559 -0.14490459009893122
-0.14376297195601684 0.18682373004328365 -0.14144690975434962
-0.14587732752013427 0.18603754477869625 -0.14341819926984492
-0.14105857511210662 0.19090104537378902 -0.14634830400235835
-0.14196863372969848 0.1924223943270361 -0.14358060702569667
-0.14618619878936034 0.19255286889444942 -0.1477377180743951
-0.14382282992053252 0.18968272643458003 -0.14635414525754634
-0.14514697690654021 0.1897423906840002 -0.14345445379502955
-0.1463856210296176 0.18856299357782955 -0.14371091768033686
-0.13924392660308105 0.19035739140879268 -0.14599452063329402
-0.14118378956961852 0.18974137740503902 -0.14226061746366206
-0.1442423572127841 0.188587550691477 -0.14347789332158747
-0.14257666071105224 0.19182819562327022 -0.1455089513946313
-0.14356694718051177 0.19278723435770626 -0.14286606654412928
-0.14588541885066253 0.19302589135538692 -0.1467090760160226
-0.14810484250235778 0.1892369432963049 -0.14663817629106227
-0.14806225498366576 0.18923968510996456 -0.14672412618882838
-0.1454521675889514 0.1886287375010168 -0.14353952452428523
-0.14682262738394958 0.18953866200815792 -0.14675284072644892
-0.1467782815282367 0.18954951005350704 -0.14684846147782984
-0.14475339253592712 0.18846279816996211 -0.14332217618711177
-0.1443523724858783 0.18881756501566524 -0.145723319499566
-0.14441163440394622 0.18894058900248165 -0.1449513797450799
-0.14524805148291808 0.18986893134485835 -0.1452318643022317
-0.14516384502101165 0.27623093562494866 -0.07913181826360406
-0.14639162619757873 0.27655768828760735 -0.07732253417260827
-0.14602180917906982 0.27670884566675774 -0.07741361006982507
-0.14385278125453216 0.27674365477930657 -0.07897279307134332
-0.14474504788565856 0.27693403201471917 -0.07739709958322229
-0.14533198972392303 0.2769824309862768 -0.07760650560147943
-0.1418937553946994 0.2758598371065771 -0.07994652435071649
-0.14280204077410918 0.2761012359179174 -0.07916036888845147
-0.14369439681220275 0.27657759623896233 -0.08065555140264215
-0.14485725362944823 0.27678758340250603 -0.07998677238710107
-0.14630704720664245 0.2771539135492956 -0.07810612663514795
-0.1460794915740512 0.27731067376505486 -0.07814312621839227
-0.14333158333945495 0.27726060586344353 -0.07992843434102716
-0.1446032633368991 0.2775232239283239 -0.07819954201467218
-0.14514442880797607 0.2775043888605749 -0.07830778404958429
-0.14149501522231323 0.27708983855616204 -0.0808227722335595
-0.14230697949576598 0.27727973895441643 -0.08013834699876489
-0.1433498968665622 0.2777911468065893 -0.0815816138673562
-0.14390441377806884 0.27629632192026726 -0.0819400762010354
-0.1437238266055606 0.27625149922739617 -0.08222869679219903
-0.14188055296588165 0.27797824578653924 -0.07900639518983545
-0.1444143315141223 0.27627796368967644 -0.0819834385801095
-0.14419124622988921 0.2762347503222143 -0.08230053529031457
-0.14216161866832 0.2781292839564001 -0.07901539549119653
-0.14527822633433563 0.2779182835138952 -0.08160572394616784
-0.14442760844874603 0.27777648406397454 -0.08242041513211908
-0.14609343906092864 0.27869755463968865 -0.08195231005437555
-0.1439503093545459 0.27650994496714226 -0.0827148769784707
-0.14390055437731963 0.27642447190653435 -0.08302398666627588
-0.14206941028285247 0.2782363338984167 -0.0795727734256524
-0.14466322560954314 0.2763005538500463 -0.0827996645856637
-0.14453267653632385 0.27619755702387444 -0.08314732357747735
-0.1423149367158435 0.2783477349795019 -0.07960844680555047
-0.14577371974635345 0.2779849215067541 -0.08217643841989221
-0.14480490585017425 0.277823869756571 -0.08312827989347162
-0.14650629063296539 0.27878791528116814 -0.08234863623864831
-0.14114452500987273 0.238844697049967 -0.11365675076730432
-0.1467455734794162 0.24232918458353633 -0.10913253471143426
-0.14637511571097594 0.2406784339464819 -0.11385106190927209
-0.13170249362635833 0.24430627065073604 -0.11326401576287927
-0.13784348567176086 0.24560112195383663 -0.10778365179784478
-0.14039942224669677 0.24431443648707027 -0.11300315603501977
-0.1325706203763507 0.24041712718378658 -0.1168429766584176
-0.1386726756875537 0.24359173016916866 -0.11206767603643121
-0.1410908510272525 0.24225575166117305 -0.11769149348027887
-0.1408181001727603 0.2420018358744299 -0.11724387749917688
-0.14603046675372344 0.24368250804316158 -0.11300759658105554
-0.14712757964778167 0.24284422831904048 -0.11777793511636438
-0.1296486814801715 0.24746895270716304 -0.12005276128537835
-0.13679089744734985 0.2474438591517126 -0.11378533288724603
-0.14193376501250488 0.24698842006098384 -0.11960358068235101
-0.1333383878057025 0.24038976865183467 -0.12071791931874933
-0.13729716439891082 0.24181610780130977 -0.11689806625135125
-0.1405550797765277 0.2414180679834997 -0.1227936510730523
-0.14334943493056518 0.24231630998026485 -0.11990209564454736
-0.1458465119187854 0.2432642026461279 -0.11723521992452325
-0.1471786012237094 0.24423110919367427 -0.11918810650594415
-0.13924215336489898 0.24594337182413692 -0.12039292499311151
-0.14294600089240295 0.24635798173319454 -0.11726983532197656
-0.14203773041415435 0.2454878135241186 -0.11957564100511255
-0.139324482280495 0.24007714228998775 -0.12105553492791833
-0.1423161735122226 0.24104589658152217 -0.11812987074144067
-0.14408413668322784 0.2413095875300085 -0.12197998806722345
-0.12754143376994354 0.27401984172236077 -0.11795496091134729
-0.13113714357066375 0.27625567155253045 -0.11399621412046136
-0.1291257401292346 0.27479351001154534 -0.11808829650170984
-0.1148074676578067 0.27608585791956536 -0.1177468661952752
-0.12093002696681243 0.27763647275339715 -0.11338690563924493
-0.12248579760241729 0.27668875890146843 -0.11834057316072168
-0.11882710059333068 0.27411991792093865 -0.12117818638570489
-0.12351113160300475 0.27626926141153924 -0.11758745357282342
-0.12399153013873321 0.27522290187250725 -0.12222201272733392
-0.12791458864855987 0.27687132792841546 -0.1226098452497262
-0.1324708123986743 0.2788273139513647 -0.11823458120114984
-0.1312469949309848 0.2781890674151098 -0.12309522077329339
-0.1140123118941806 0.27717751698862664 -0.12388061627633752
-0.120436485606911 0.2782174392260229 -0.11921287223584832
-0.12363795538592559 0.2779908819712316 -0.12484199449308099
-0.1213980277364276 0.2767714901484167 -0.12573205575235072
-0.12572285135436279 0.2783353968180334 -0.1228757713723916
-0.1259890307967685 0.2773887558497106 -0.12802151486165705
-0.1286227365319751 0.2753099246538793 -0.12259473547227563
-0.1313886453692935 0.27629775243174187 -0.11971586093194665
-0.1296798994128726 0.2776869578875219 -0.12146694108731927
-0.12359903355288726 0.27763015466105095 -0.12259682163484277
-0.12473876376795989 0.27763474421869866 -0.12042998418100061
-0.12702521284270507 0.2783381982363378 -0.12327439233548822
-0.12518474062133056 0.276793424657694 -0.12371674820668878
-0.12693278093981963 0.2771497412241613 -0.1222421739984292
-0.12845031519580108 0.27752387957941643 -0.12556999072320643
-0.11892585058856231 0.23788476424585933 -0.14763554081208888
-0.11948442061591369 0.24076235728632564 -0.14589466795213404
-0.11584584017443877 0.24057752328287715 -0.14725965902097407
-0.11490742464709502 0.2389897747553503 -0.14580134197957698
-0.11698335011649352 0.241374735406748 -0.14325680479295436
-0.11404862602401 0.23999834494959468 -0.14581862732656184
-0.11434934635806304 0.23811245398890132 -0.15012472018487635
-0.11635815699744445 0.24127769904505367 -0.14751598879583064
-0.11750664909529906 0.2401751323259985 -0.15062681481130305
-0.11796648402858001 0.2390808506525671 -0.15009469434507075
-0.11877974470305663 0.24150497155558223 -0.1478147123742837
-0.11637012262988311 0.24257547097574825 -0.14952909096963587
-0.11442081232714874 0.24097878175150508 -0.14869782969243708
-0.11652618249106628 0.2428028030909216 -0.14580961212403956
-0.11469862957644683 0.24216855006586666 -0.14902558073289576
-0.11347859700370055 0.23872220950495357 -0.15090028092153254
-0.11613127191710693 0.24110633569132442 -0.14834897860772792
-0.1161339988296054 0.24048859315287227 -0.1518454317737359
-0.12034704883742553 0.23899209933649654 -0.14806776389367762
-0.12073456843543273 0.2399057789362585 -0.1469631110120553
-0.1170904745643161 0.244301502279154 -0.14677893265969935
-0.11775011916804534 0.24047458606135005 -0.14748323604352656
-0.11806699236083251 0.24084282355677242 -0.14664479240663233
-0.1148999591653369 0.24350113110911006 -0.1463464860606927
-0.11395178337741119 0.24091995196711177 -0.14713057026155177
-0.11424120863127929 0.24104667144190425 -0.1468623791623849
-0.1160223295276187 0.24219102101694698 -0.1479518328595895
-0.1446965148036502 0.202922586969248 -0.13127487048394862
-0.14552491505789977 0.20815241771113033 -0.12728724524266902
-0.14455560942340118 0.2082604809321081 -0.13126417145021144
-0.1397497763221286 0.20894986825358028 -0.1270649199176568
-0.1440539618318103 0.21485686736475582 -0.12337090715654077
-0.1418028881137393 0.21121967273127193 -0.12705444440133754
-0.1413640638177417 0.20881087022196407 -0.13309562846906367
-0.14158498843360168 0.21842688756357784 -0.12969013199098292
-0.14352045555758697 0.21284890609156246 -0.1337681625772256
-0.1422720958774112 0.20679414706598873 -0.13278571411855403
-0.14406859477210265 0.20949554877649898 -0.12750247761495295
-0.14370676477599365 0.2113868637598669 -0.1322424922872323
-0.13785460193801147 0.21380377250086421 -0.1313650076080102
-0.14286368687796813 0.2163662953890478 -0.12622938200719538
-0.1398401220624469 0.21445990043055171 -0.13008632406480494
-0.13821559746909362 0.21140706973444576 -0.13456242427118006
-0.13984937568354827 0.21660381989847774 -0.12996608659513179
-0.14057898123908263 0.21391177611719722 -0.1343659077573556
-0.1393140663688205 0.20390367942225093 -0.1351673369098443
-0.1402911057059787 0.20468789773356075 -0.1321715329576272
-0.13818615277457458 0.21013236480127925 -0.132612830846383
-0.1409799118821643 0.21249002652536983 -0.13346884295232478
-0.14223004480052215 0.21375692325007076 -0.13061384007222834
-0.1395526190583728 0.21569091515909786 -0.13025339588411036
-0.13666808207679015 0.21106678681742305 -0.13502826437242213
-0.13755306204009277 0.21301258044611568 -0.1313800130773324
-0.1369690557305835 0.21339029508005733 -0.1329856280971307
-0.14361366232085448 0.2419865770853674 -0.09886663302667321
-0.14528831442046386 0.2492567344225561 -0.09408213838823022
-0.1435823549811862 0.24805224376093502 -0.0977363054443139
-0.13713433941054565 0.25319934325586907 -0.09471561655290307
-0.1406364550178073 0.2572583599604284 -0.0901279960561532
-0.14053198297667724 0.2545011086977636 -0.0951703999925393
-0.13947918613600951 0.2520432515658056 -0.10158330842740716
-0.14115508993315917 0.25745881038080803 -0.09651938721425714
-0.14378247757601959 0.2542989297426855 -0.10178478702790918
-0.14385887582946044 0.2508535428560888 -0.10126676306016626
-0.14806902011084777 0.2560136957682287 -0.09572600468881311
-0.1464660276954196 0.25620300012003533 -0.10087757453210534
-0.13769341607737762 0.2599691196001684 -0.10009477183110894
-0.14369178910899383 0.26313406663309685 -0.09506205364949884
-0.14251829286265594 0.260985855630747 -0.10063301667459192
-0.13867209454226714 0.2569471045054113 -0.10422345146424951
-0.1422141452615283 0.26097333865534417 -0.09939180955178918
-0.14364347954440337 0.25884634690653435 -0.10515820130593957
-0.14387826224017364 0.248704258970133 -0.10235556110627832
-0.14681851466346008 0.2519493146456396 -0.09778242453820886
-0.14451667268920165 0.2552478356875097 -0.1006904606509942
-0.14191276927638274 0.2573682709253942 -0.1012000356603402
-0.1441440542523883 0.2588043256319677 -0.09726386412866296
-0.1428722401444934 0.2593236609018957 -0.10024151846654596
-0.14244179030108672 0.2550690217531835 -0.10289912566430749
-0.14529749353575927 0.2573930664576208 -0.09866315767057122
-0.14552275438952667 0.2569955630816137 -0.10285594209916772
-0.11716350515532714 0.23647708135019893 -0.13622205600030604
-0.11665898163962585 0.25134575801264397 -0.1292137567687768
-0.11577558119940978 0.24689680772196407 -0.13405605301149073
-0.1099185903852008 0.2547367258585607 -0.13056904718167964
-0.11183239122081023 0.2613617225207006 -0.12497199222333612
-0.11321842272925597 0.25677139001261345 -0.13111225411184016
-0.11406193276095611 0.2548469348467504 -0.13898173615224543
-0.11689836879420501 0.264281754068247 -0.1335813914228219
-0.11810814936804992 0.25729287104975335 -0.1394400958705682
-0.12069704731154662 0.2546067281283056 -0.139391652195527
-0.12293392022299987 0.2651525183237707 -0.13229858025796595
-0.12005225916552764 0.2638610048807775 -0.137820727078988
-0.11217957337546569 0.2697103066958105 -0.13684207841642085
-0.11482388873744231 0.2732777042902624 -0.13073997840173426
-0.11795356472182494 0.27153224187265984 -0.1380420987296838
-0.11613088448691589 0.26644546227823845 -0.1412878100562829
-0.12043390770602447 0.2724173708475744 -0.13659863814599696
-0.12122229834246856 0.2683810635126745 -0.1430256579805154
-0.11909210284400207 0.25276226239573113 -0.1392266665387887
-0.12106975515532714 0.2602188034571325 -0.13180070266015712
-0.11642969747233611 0.26331794696222893 -0.1362887834001321
-0.11600619157004577 0.26607299285303704 -0.136290929167344
-0.11655143995928985 0.26844919162165276 -0.13039334759004298
-0.11836175223040801 0.26873112159144036 -0.13570705696828547
-0.11884893079447967 0.2643201990641271 -0.13784215494878474
-0.12224337061095458 0.26806480126749627 -0.13330862566716853
-0.12178711195636016 0.2662169976748144 -0.13891292258985224
-0.12906753619361144 0.22423166470896358 -0.1460861180711526
-0.12943936486888152 0.22710204558741207 -0.14441793307550135
-0.12600020666766387 0.22854024606119747 -0.1447871689487237
-0.12668302257704955 0.22538567023645992 -0.14339782938249293
-0.12708818514991027 0.2278624816454565 -0.1415329490590829
-0.12537802358317596 0.22717500167261714 -0.14288560196645442
-0.12636340757060271 0.22651905255686397 -0.1478094224620599
-0.127340223390343 0.2302687807596838 -0.14546022459752742
-0.1283766587560199 0.22898638682734127 -0.1477071855951089
-0.1288533021991275 0.225958053640238 -0.14731297537572566
-0.1297916134183429 0.22867232995401973 -0.14437451109178248
-0.12617998917746764 0.23051029878031368 -0.1455540274072427
-0.1258192171638034 0.22817135291468257 -0.14550232037790004
-0.12718700965094787 0.23001575904261226 -0.14236501499898616
-0.12472526331591827 0.2297748966730749 -0.14428888901956263
-0.12428877850222808 0.22559804158579463 -0.14762721106298152
-0.12590412398028594 0.22872794108759517 -0.1447266553331155
-0.12630737920451385 0.22777826028238887 -0.14779854461438838
-0.12754700680423003 0.22345167832743282 -0.14567863091714564
-0.12778813739466888 0.22424573140513057 -0.1446258936811227
-0.12318968375373107 0.2302060170687353 -0.14338026091344538
-0.1274296005551837 0.2270997806109106 -0.145171082465722
-0.12757333715605956 0.22775119977366085 -0.1443855975557107
-0.1237992455546878 0.23108077483545894 -0.14231967076547328
-0.12155684431243163 0.2261261387385046 -0.14500912174470607
-0.12292790015387756 0.22676438527475948 -0.1434971903253335
-0.12323425312686187 0.22760010199915523 -0.14426588162667933
-0.10784717996764404 0.24096841054331417 -0.15057039901502314
-0.11168814798045379 0.2500758810557043 -0.1457703028608102
-0.10939786930728179 0.2454674883402502 -0.14959741279370967
-0.0940782686059497 0.24587107139002437 -0.14761034294851008
-0.10220725436854583 0.25137365298639885 -0.1429175947595376
-0.1018355449025653 0.2476238055742895 -0.14772189304120723
-0.10126027067351562 0.24537343221079463 -0.15452661260850611
-0.10501999755549651 0.25149941878687493 -0.1498361740995187
-0.10588174660849792 0.24694943862330074 -0.1550035689759988
-0.11007168491530639 0.2470566077746069 -0.1526282344747323
-0.11532750328231078 0.2532011909998571 -0.14725794538743678
-0.11256944735694152 0.2513742490328466 -0.15264751657731715
-0.09606368442225677 0.24895847278010005 -0.15229683264978114
-0.10384058554816467 0.2523763223208105 -0.14687970921285334
-0.10564399858165008 0.2508004351175939 -0.1537624810624856
-0.10285372634577972 0.24692058997522945 -0.15567485138662043
-0.10838710864234191 0.2513451619661962 -0.15166783973462764
-0.10938943525004607 0.24878240065943355 -0.15771419450528804
-0.11204506059336883 0.24535447793375606 -0.15073340281732264
-0.11548807819533569 0.2492596550501501 -0.14600517496354762
-0.11161973674941283 0.25065339045893303 -0.1495517854381341
-0.10562227268862945 0.2497491283930456 -0.1504043851781625
-0.10779223938632232 0.25085676150690667 -0.14617674693353358
-0.10894636412310821 0.25116831498514763 -0.1507938121248025
-0.10662605961013061 0.24726593928705806 -0.15135490044839564
-0.11006302734065276 0.2491671486414587 -0.14838013693578425
-0.11040281851935607 0.24869031148325557 -0.1529823605705041
-0.11818818350482208 0.2709171815432226 -0.13078241690881434
-0.12108182509589416 0.27304691510569207 -0.12697938725240412
-0.11913008590388519 0.2715922041453039 -0.13088879629857722
-0.10543228288340789 0.2710845513857519 -0.13010888442285243
-0.11132314403701049 0.2730747504748022 -0.1259762410808343
-0.11250996192145568 0.2720933003939306 -0.13079836115129176
-0.10937767823386413 0.27130890326868645 -0.1337783102679986
-0.11342657704997283 0.273547951749674 -0.1305097852636117
-0.11325434942889434 0.2723311229265844 -0.13474414393193904
-0.11885606845069152 0.27381372886072747 -0.1347013775993127
-0.12287818988013488 0.27554697232615105 -0.13062719151265803
-0.12147080500769836 0.2750150008715307 -0.13521548256166163
-0.1051643749063037 0.2728562398470556 -0.1354088549304742
-0.11054537792849761 0.274011020234934 -0.1311804567266244
-0.11446034510779601 0.27425772385965935 -0.13682130619771662
-0.11203814645457488 0.27381283479105584 -0.1376514200855035
-0.11525776584792358 0.27510106997858635 -0.13513909920938197
-0.11587516565966827 0.2744479818857824 -0.13994958147294703
-0.12047800024199706 0.27246571021448723 -0.132464161961152
-0.12194016178298217 0.2731011553324377 -0.13016120239980403
-0.12111730476069671 0.2747553034342443 -0.1315636102844018
-0.11473302145648223 0.2734832807100927 -0.13261917874105159
-0.11544502874064666 0.2736392660654699 -0.13059855148084346
-0.11831369598555785 0.2748061461962377 -0.13327433809526149
-0.11528987785029632 0.27390706973444573 -0.13345948502309504
-0.11651730139899474 0.274230484536997 -0.13240107044465724
-0.11830047865557891 0.2747279449022924 -0.13565694436319056
-0.13512554367232543 0.22794592814814205 -0.13607863232381526
-0.13795594473529083 0.23768538670908565 -0.1315333311248559
-0.1358757277314685 0.2334118528879797 -0.13661342009790126
-0.12142283816981536 0.23075700240503902 -0.133273607938363
-0.12895589669394714 0.23821515279184932 -0.12849865004308406
-0.12866650124240142 0.23331356482874507 -0.13419916376359645
-0.12688725789237243 0.23081887202631587 -0.14042723819501582
-0.13044471641230804 0.23912448125254268 -0.1355643038440484
-0.13353983660388213 0.23390216069590206 -0.14138912305123988
-0.13498119612384063 0.233978335431925 -0.13954376324899379
-0.1391098310534976 0.2399970932520544 -0.13377029344327632
-0.13937089939761382 0.23871982531916255 -0.14078047022111598
-0.12187644441771728 0.2400695128954565 -0.14029218897111598
-0.1310706545894168 0.24450630383860225 -0.13395208760984126
-0.13166762490916473 0.24200803475748653 -0.1412825350452203
-0.12595562239337188 0.2348027868784582 -0.14391735836751643
-0.1318822612350009 0.24117356973063106 -0.13906042918451014
-0.1332837005441211 0.23753393130671138 -0.14521155401952449
-0.13356519838023406 0.22824621634852046 -0.14085278555638972
-0.13682025273490173 0.2337068362749731 -0.13474782451875392
-0.13515087564635497 0.23600721793543453 -0.13951650902517024
-0.12943473060775024 0.23768949942957515 -0.1391838107991952
-0.13328018387007934 0.24027502971064205 -0.13456990465409938
-0.13237146635699493 0.23993987279307002 -0.139285034387185
-0.12873659630465728 0.2359324737108862 -0.14146143838651362
-0.1332480420653842 0.23916161494623775 -0.1370347504306573
-0.1330095191781543 0.2381854100741064 -0.1418097530294198
-0.13037255008864623 0.2452180429018652 -0.11999661370999994
-0.1300374229733966 0.25442034440409295 -0.11401509389169397
-0.12920361359763366 0.25253403621088616 -0.11775375053174676
-0.12435499926257354 0.2569063945330297 -0.1146214817453164
-0.12536908288645965 0.26043200927149407 -0.10988195881135644
-0.12720134456801635 0.2585258527315771 -0.11515299126393976
-0.12745767434287292 0.25652677255045525 -0.12165323540456476
-0.13058776755976897 0.26295900779139153 -0.11692545458562555
-0.13106879194426757 0.2587283297098791 -0.12210988148935022
-0.13239734967398864 0.2557208581484472 -0.12252082571275415
-0.13438440461802703 0.2623279138125097 -0.11648286029584588
-0.1316369136159442 0.26242125468622796 -0.12131001695878686
-0.12658519645381194 0.26517463164698235 -0.12011548027284326
-0.12855073412108642 0.26737606959711663 -0.1146987591672677
-0.13016788263964874 0.26635241942774407 -0.12096003338582696
-0.12853228648352844 0.26290619807612053 -0.12394028052575769
-0.13184146185565215 0.2673506780184423 -0.1197690133739251
-0.13222002585578185 0.26465797858606926 -0.12544045492894831
-0.13210112949061614 0.25466984944712273 -0.12074377283342065
-0.13382401664901 0.258292083314768 -0.11644846841581048
-0.12900252242732269 0.26182592349421135 -0.119254819004609
-0.12943780024695617 0.26182258563410393 -0.1197249357391137
-0.13011262913394195 0.2633829756296789 -0.11528789147622766
-0.13006111581969482 0.2641398354090368 -0.11859207495935144
-0.1316243072335742 0.2598720236338293 -0.12054849311597528
-0.13416583438563567 0.26227814393412224 -0.11686535820253076
-0.13370160360980254 0.2616354270495092 -0.12131673738248529
-0.07657412787127715 0.2726038141764318 -0.15084717318303767
-0.07608449061560851 0.27286607461344353 -0.15009397908933345
-0.07532101472068053 0.27444035249125115 -0.14921859547383967
-0.07513506313014251 0.27321118550669304 -0.15043408319242182
-0.07536045809436065 0.2734389348543798 -0.14956141158826533
-0.07512718041587096 0.2746514125384008 -0.14954314276464167
-0.07452511389899474 0.27729422288309685 -0.15164156898744288
-0.07512895365405303 0.2775973125017797 -0.15062583133466426
-0.07651777167964202 0.2784377975977575 -0.15230532631166163
-0.077177088457825 0.27593696551691643 -0.1528060351300973
-0.07700940569091064 0.2761937423266088 -0.15205966576821986
-0.07619866331267577 0.2780691428698217 -0.15121198341138545
-0.07466321786093932 0.27589941459070794 -0.15225296363122645
-0.07461674113917571 0.2760564728296911 -0.15151885792501155
-0.07494161625552398 0.2775074883021032 -0.15164241835363093
-0.07486722965884429 0.27996886210810296 -0.15342380747087184
-0.07520013650107604 0.28010738330256096 -0.15292078897245112
-0.0768358220641635 0.2808869524515783 -0.15461272641904536
-0.07775464256453735 0.27436256842981926 -0.15136238083131495
-0.07760426004576904 0.27384311395060174 -0.15214130923040095
-0.07563721736121398 0.277970079950205 -0.1485001806903619
-0.07705166538405639 0.27448827462565056 -0.15123189136274043
-0.07688626249480468 0.27398789363276116 -0.15208388015515986
-0.07535725434470397 0.27787667947184197 -0.14846438810117427
-0.07902282078910094 0.2770165844477331 -0.14926620468385401
-0.075358640152695 0.27639997439753167 -0.15175809606797877
-0.08035628100085479 0.27735889392267815 -0.1518093560624856
-0.0783694793765567 0.2767826362169897 -0.15041083738095942
-0.07875832517791015 0.2770347638643896 -0.14949784323461238
-0.07654089828181487 0.28062355952631585 -0.1483657275129098
-0.07488484283137542 0.2775438471354162 -0.14998078986890498
-0.07491069634604675 0.27753502564798943 -0.1496462737012643
-0.07504434486079437 0.2802487059153234 -0.14929296716935817
-0.07484121223139983 0.2786235256708776 -0.14940049394853297
-0.07224846978831512 0.2781570597208654 -0.15079045936353389
-0.14830886920142394 0.25583118634592644 -0.09706141695268335
-0.15212338765311462 0.2610469503916418 -0.09156771644838037
-0.15152923365283233 0.2596716328180944 -0.09641893848664941
-0.13948280711817962 0.26658082442652337 -0.09498449310548486
-0.14487237830806 0.26853669124018303 -0.08972067281491937
-0.14599851866412383 0.2670849605120336 -0.09564118727929773
-0.1428814490621112 0.26290250258814446 -0.09960991784818353
-0.14655601580786926 0.26629162269007317 -0.09470408305413903
-0.1482474615161441 0.264426116517893 -0.1006781075883645
-0.14914157589125854 0.265521828702799 -0.10082641884572686
-0.1546248753850482 0.2689053459681188 -0.0950144444394845
-0.15321585138488036 0.2687961502588903 -0.09973435744531335
-0.13911869724440795 0.2730657501734411 -0.10172066733129205
-0.1470306326930545 0.2746375842608129 -0.09606020793206872
-0.14830249150443298 0.27343452411066643 -0.1019997958827752
-0.14247029622245055 0.2681139154947912 -0.1036395345617074
-0.14697099824595672 0.2703232212580358 -0.09958373650796594
-0.14794413347888213 0.26911986308466546 -0.1056495670963067
-0.14988292356181365 0.2632167382754003 -0.10295969888456048
-0.15318122108626586 0.26543325620066277 -0.09875649854428949
-0.15103506644416076 0.267668668798319 -0.10051176592595758
-0.1462560703341983 0.2692507548845922 -0.1023875837016839
-0.14858622451472503 0.26946545081507317 -0.09862521931417169
-0.14881427188563567 0.2698817296541845 -0.1015374575544137
-0.14789329071688873 0.26670659022699944 -0.10306612297780694
-0.15139759679484588 0.26808447080027215 -0.09973098978288354
-0.1517216076438449 0.26801562743555657 -0.10411313816793145
-0.15032890041518432 0.2411904378451025 -0.11666651710756006
-0.15234659214663726 0.24377465682398433 -0.1133002553869027
-0.1511519809548877 0.24493813948999996 -0.11599085375554742
-0.1484492083375476 0.24617487626444454 -0.11458042904622735
-0.15134612818408233 0.2487312002695715 -0.11128032848127069
-0.14929756124663573 0.2475279017008459 -0.11442112073190393
-0.14801576336074096 0.24605852799784297 -0.11871193989999475
-0.15029757817435485 0.24929207997690792 -0.11467081949002923
-0.15120528240847808 0.2480539722956335 -0.1184708242107171
-0.14866749544787627 0.24423718886744136 -0.11943703040368737
-0.15142075319934112 0.2464234872378027 -0.11530665203817071
-0.15162849028754455 0.24819893079172725 -0.11812705442197503
-0.14670745630908233 0.2500070376909887 -0.11791872128732385
-0.14985854526210052 0.25163519816767327 -0.11437598511464776
-0.14794644315886718 0.2508937759913122 -0.11730983003862085
-0.14582866032767516 0.24801856713663692 -0.12074879452474298
-0.14866834481406432 0.2502933187998449 -0.11654961749799432
-0.14985940952944976 0.2498758478678381 -0.1205229972291726
-0.14831909139800292 0.2435920877970373 -0.12011871382482232
-0.15005614956069213 0.24470156865488643 -0.11799233302362146
-0.14923350115466338 0.2488624496973669 -0.11902097508199395
-0.14877000053572875 0.24992341237436885 -0.11976169690377893
-0.1503717859571002 0.2509179158724462 -0.11800924584157647
-0.14881915946650726 0.2529093666590368 -0.11817621335275354
-0.14646718998599273 0.24710667567621822 -0.12126683339364709
-0.14786927004504424 0.24795985656153316 -0.1183509443689126
-0.14829778273749572 0.24890768962275142 -0.11992502853162469
-0.13699559469866973 0.21876949506174678 -0.13707045361287776
-0.13781871994185668 0.2198295636690771 -0.13533919200189296
-0.13703943391490203 0.21930772500406856 -0.13618140563256922
-0.13373645742583495 0.21968800263773555 -0.1364866708207864
-0.13521729012179595 0.2201967878855383 -0.1336351697135705
-0.1348962297027133 0.21925825314890499 -0.13518490537889186
-0.13229684134173614 0.21771693663965816 -0.13778664812333766
-0.13387621541667205 0.21964753108393306 -0.13549137756116572
-0.13546914954829437 0.21903670268427486 -0.13888043805844966
-0.13611311813044769 0.22073048787485713 -0.13846362277753535
-0.137692983943703 0.2215588732279455 -0.13574509963281337
-0.13683807452368957 0.22124457793604488 -0.13725351437814418
-0.13226443131613952 0.22248745398890132 -0.13835772022493067
-0.13400366504836303 0.2225589795626318 -0.13514720544107142
-0.13414865334677917 0.22159481482874507 -0.13683745905645076
-0.13078602750945312 0.2181593223131811 -0.13912748440988246
-0.13196162481951934 0.21949905591379756 -0.1367501829553384
-0.1332441975657962 0.21937936978708858 -0.14036390825994197
-0.13856720526862365 0.22366309600245113 -0.1385979567456979
-0.138786773878815 0.22387367921244258 -0.1383738581825036
-0.13626236816096526 0.22582447963129634 -0.13720849797017756
-0.13748506804156524 0.22448510365854854 -0.13828710362203303
-0.13757393856692535 0.2245525165117895 -0.1381130282569665
-0.13501241405654174 0.22566116290461177 -0.13703686639554682
-0.1315291484181903 0.22279108004938716 -0.13959496363885585
-0.131628673273804 0.22298974233042354 -0.1389765058446664
-0.13190272052932006 0.22428381877314205 -0.13902739331014338
-0.1109864522998355 0.2507634206331884 -0.13473784074075404
-0.11130387683558685 0.2571104212320959 -0.13062427088506404
-0.1092355658595584 0.2565397663630163 -0.13303641125447932
-0.10608636935401183 0.2586743279017126 -0.13181785389669123
-0.10760196645903808 0.26145828204523675 -0.12769795104749385
-0.10841726859259826 0.2600596590555822 -0.13197380944974604
-0.10643106301474792 0.25754237609278313 -0.13766210421807948
-0.10927225251841766 0.26215213971506707 -0.13326647028215113
-0.11099804540324432 0.2599139256991064 -0.13765192672498408
-0.11218398411917907 0.2589981003321325 -0.1380108509946603
-0.11515324910330993 0.26383746104609124 -0.13330902799852076
-0.11146273811507446 0.26452798085581414 -0.13712840422876063
-0.10655472775149566 0.26390892701517693 -0.1366387222696084
-0.10896658499884826 0.2658655090845739 -0.13228673383481684
-0.10921902557063323 0.26506084638010613 -0.13731128618009272
-0.10874092181372863 0.26059866385828606 -0.13938573643453303
-0.11264210541892272 0.2641272588289892 -0.1354204778362054
-0.11295042534518462 0.2625426693476354 -0.14060301229245845
-0.11232612629580718 0.2585446281946813 -0.13614068075902644
-0.11378961404013854 0.26096559005152337 -0.13296424493081752
-0.10942391653704864 0.26505136924158684 -0.13529711112268153
-0.11065400739360076 0.2638782902277624 -0.13528079435117427
-0.11144315798926574 0.2647668762720739 -0.13280809566266719
-0.10979903836894256 0.26619917588602654 -0.13489543542154017
-0.10939003129649383 0.26202190356623284 -0.13581221446283046
-0.11199359198260528 0.26315826611887566 -0.13329056545980159
-0.11211047669100982 0.26342618899714104 -0.1367133472848672
-0.13199528654265624 0.246443574003092 -0.13273846253640834
-0.13473093112158996 0.25415605740915886 -0.12806940719373408
-0.13302276631045562 0.24969405370127315 -0.1326319788385171
-0.11741992433715087 0.2490138454950964 -0.13005145534761134
-0.12379183967757446 0.25406045155893914 -0.12533496960885707
-0.1255503406112216 0.2510486884630834 -0.13119392737634364
-0.12502945562052947 0.24871427255045528 -0.13619377359636012
-0.12680007119822723 0.25440293984781853 -0.1319029693294305
-0.1284524758641742 0.25006092028986565 -0.1374855105567712
-0.13273647030043823 0.2517494602717077 -0.13445003971345607
-0.1372446378057025 0.2576102657831823 -0.1288766477990884
-0.13425160546946746 0.2553057714022314 -0.134594551174714
-0.11654512186694366 0.2522882862604772 -0.13420157775170985
-0.12456304927516204 0.2557317061937963 -0.12803900882489863
-0.12848387261080962 0.25490040021311394 -0.13610485836751643
-0.12495612700629455 0.2509076042689001 -0.13733664795644465
-0.12872460086989623 0.25550175147425286 -0.13388565823323909
-0.12960539360690337 0.2522032900370275 -0.13995342597253504
-0.13330237169909698 0.2486360116518652 -0.13408698782212916
-0.1357972582166217 0.25273508267771355 -0.12914656743295375
-0.13203915556121093 0.2537888331926977 -0.132309577314927
-0.12745235462832671 0.2522565765894567 -0.13307797059304896
-0.1281547655646823 0.2529660506762182 -0.12840130075700465
-0.13041674693274719 0.2536931677378332 -0.13354430243261042
-0.12784054477858764 0.2499923153437292 -0.13401891931779567
-0.13093015154052 0.2521051807917272 -0.13119365915544215
-0.13046075006175262 0.2512033029116308 -0.13586787029988948
-0.1423449923579715 0.22600532012354488 -0.11931300803907098
-0.145717184740784 0.2316033287562048 -0.1156293068815011
-0.1432791163508914 0.22911036448847408 -0.11887498840577783
-0.13418870766806823 0.23188388781916255 -0.11694676324613275
-0.1408912946765445 0.2367181225336706 -0.11253454431779565
-0.1393801828210376 0.2334018989123022 -0.11646339937932672
-0.13535797198462707 0.22919470506083126 -0.1227224682260293
-0.1393549849574588 0.23512822823893184 -0.11839555844552697
-0.140820767480614 0.23155069785486812 -0.12287678465135278
-0.14195344944644195 0.23276889758478755 -0.12081070884950341
-0.14579070707011443 0.23590571122538204 -0.11646181985624017
-0.14356652994799834 0.23488671021830196 -0.12036529824025811
-0.13371063371348602 0.2370439215220129 -0.1209236149478692
-0.14037616153407317 0.23922992186915035 -0.11529066309220971
-0.1408861984794162 0.2376261992968237 -0.12032695755250634
-0.1349843998734973 0.2318358464754736 -0.1235120360542077
-0.13747874994921905 0.23520040946375484 -0.11942822381742181
-0.1395983656232379 0.23339641528498287 -0.1245489184547204
-0.14274519284415466 0.23059148030649776 -0.12199731811769189
-0.1445291300599597 0.23256528811823482 -0.11841498955972375
-0.14303391774344665 0.2344142838038122 -0.11951953813321771
-0.14033135374236327 0.23462325768839473 -0.12082547590024652
-0.14250787695098144 0.23556632237803096 -0.11734289571531
-0.1395194490735553 0.2354187412775671 -0.11899975582845392
-0.1377605607097171 0.23069459634195918 -0.1222859983135003
-0.14064600666213256 0.2326931996859228 -0.11876491352803888
-0.13989843030619842 0.2323546453035986 -0.12198773667104425
