ply
format ascii 1.0
element vertex 222
property float x
property float y
property float z
element face 0
property list uchar int vertex_indices
end_header
-0.002630334097626033 0.28859109120737664 -0.1714498464751977
-0.004766266543152156 0.29073334174524895 -0.16899580404050532
-0.006468306977035823 0.28944457011591546 -0.17404689535386744
0.0022373984272457932 0.2882695837534582 -0.16907466098554316
7.881621670502166e-05 0.29025930600535027 -0.16663227125890437
-0.0027837564532778884 0.2883194728411352 -0.17112705752141658
0.002172846596954045 0.2887563748873388 -0.17282811447866145
0.0010937641079403733 0.2945818944491064 -0.16974759742505732
-0.0018753816669009353 0.290254597238413 -0.1738689903903741
-0.0032297780101321364 0.28542930322062127 -0.16724873229749385
-0.0051128675525210525 0.28703582721125237 -0.16514667019136134
-0.0065192093436740066 0.2862952991045629 -0.17025373026616755
-0.00039852758097869416 0.28551561074625603 -0.16556300863511744
-0.0020241250579379226 0.2868981404818212 -0.1635525886703271
-0.005398910242798152 0.28591710763346306 -0.1682428781677026
-0.0009178926532290604 0.2868661923922216 -0.16624582454450312
-0.00028301377940398713 0.29130179124247185 -0.16375923797376338
-0.0024615337436221267 0.2877369566477453 -0.16788845404870692
-0.00604639549899322 0.2867020412005102 -0.17053920671231929
-0.006907175976517024 0.2876538081682836 -0.1696824942518014
-0.005546819168808284 0.286732081941477 -0.17361528321988765
-0.004074703652145686 0.2862396283663427 -0.1685533289600152
-0.004963617522003474 0.2871864481485998 -0.16760019108541194
-0.005266349512817683 0.28598928885828606 -0.1710238371778268
-0.005378406244995418 0.2863173528231298 -0.1687793199706811
-0.004806678492309871 0.29059869485270134 -0.16739434644468013
-0.006534021097900691 0.28754592376124016 -0.16994879290349665
-0.002804022032501521 0.2876877828158056 -0.17094618722684565
-0.005090873438598933 0.289785687497965 -0.16838195070512477
-0.007076691586258235 0.2886362119234716 -0.17358472093827906
0.0029737840111233567 0.28760171370874993 -0.1692543093848962
0.0006890783722378586 0.28945261674296013 -0.16668415710218135
-0.0027549972121737624 0.28784507947336785 -0.1713808242965478
0.0026388059074856614 0.2879689379252111 -0.17271711572892848
0.0014652202541806077 0.2935684962786352 -0.16943444952256861
-0.0012048592155001784 0.28930795627009026 -0.1737997148919839
-0.005858223635437312 0.2905142946756994 -0.1737987314153451
-0.007523696619751277 0.2927749796427404 -0.17190878733880702
-0.0075966229026339675 0.29075074630152337 -0.17613335594423
-0.001217227179291072 0.29003292756449334 -0.17067902430780116
-0.0028182675426028396 0.2922806187189733 -0.16881575330980006
-0.004356484610321345 0.2895824952639257 -0.17251381918676081
-0.002318005759002986 0.29070955949198357 -0.1738832359004754
-0.003112356859924617 0.29734546380411736 -0.1712672178436059
-0.0069508661811373855 0.2926497502840673 -0.1746421073365945
-0.0627083887641452 0.2914140267885839 -0.1588291440892953
-0.06457919974971038 0.29244155125986687 -0.15699981793649379
-0.06804789205241424 0.29172003703486077 -0.16017927870042506
-0.055890302855255425 0.2920479221857702 -0.158727190344407
-0.05770702262568694 0.2927900596178686 -0.1569220040727395
-0.06459648509669524 0.2922983809031164 -0.1599098806072015
-0.057574461895706475 0.2919271035708105 -0.16051434621102992
-0.058059524494888604 0.29410356717478386 -0.15870401903875056
-0.06202695866275054 0.2917328520334875 -0.1611346517492074
-0.06739219625640136 0.29215825038324944 -0.15543594106919947
-0.06901423235583526 0.2928807778872167 -0.1540378545213479
-0.07195384402919036 0.29196280675303093 -0.15713440522439662
-0.06410158773112518 0.2925889535463964 -0.15547119721658412
-0.06570122738528472 0.293070976308695 -0.1541733060766
-0.07185422976660949 0.292901401094309 -0.1573642705369729
-0.06382356186557037 0.2924795194185888 -0.1561760221410531
-0.06497023602175933 0.2934482737101232 -0.1544147495914239
-0.06688853700804931 0.2920510216272985 -0.1572311137605447
-0.07048724194216949 0.2913440509356176 -0.15739101812131587
-0.07059588630843383 0.29143351750742547 -0.15723537549264613
-0.07045293946910125 0.29042256312739007 -0.15924701735265437
-0.06898198624301177 0.29128504233728997 -0.1568459783483285
-0.06902776261019927 0.291325633100382 -0.1567735885072488
-0.07072211404490691 0.29064691501032464 -0.15856452926881495
-0.0705140938346408 0.2904515905893957 -0.1570322577644128
-0.07129676242518646 0.2917114539660131 -0.15618926927335444
-0.07187799711871368 0.2900690479792272 -0.15723136708028498
-0.03231630821871978 0.2906668825663244 -0.16132231697328273
-0.036248486239197075 0.2937161369837438 -0.15770538791902247
-0.03941849966693145 0.29270822244059197 -0.16374821111447993
-0.022197495896103207 0.2913363023317968 -0.1620131199050683
-0.025731902319671932 0.29347843366037957 -0.15873633965738002
-0.03198556204486114 0.2928324385203039 -0.16433452710397425
-0.022733252245666805 0.29064226584803216 -0.16595586284883204
-0.024397771555664364 0.2967844052828466 -0.1621645455051202
-0.027756731707336727 0.29245084958445183 -0.1671161268640298
-0.0334943344180606 0.2898275895632421 -0.15645108267553035
-0.03753374119448882 0.29211390452753655 -0.1528621976066369
-0.04244966407466155 0.2922527833498632 -0.15929066285379115
-0.02486128707576019 0.2913243814028417 -0.15773879632241908
-0.0282334496562503 0.29262984233271233 -0.154664969890191
-0.03501002093005401 0.2928463860071813 -0.1607849512983102
-0.027721207339050594 0.2947361512697851 -0.15838272020108882
-0.02763528724360687 0.2978012605227148 -0.1548439179349679
-0.03066752453494293 0.29560065703760735 -0.1600825552631158
-0.0370193531100772 0.29207665162455193 -0.161834142057969
-0.039032976824524224 0.2935233755625402 -0.1597599153209466
-0.03912005921054107 0.2928500814951574 -0.16421747848279658
-0.03273294468569976 0.29257095294367425 -0.1615408126998681
-0.034526448446991265 0.29370207028757683 -0.15964355215318385
-0.03704110880542022 0.29323167043100945 -0.16378176852948848
-0.034026156861069023 0.29385292964350335 -0.16150201007611933
-0.033675174910309136 0.29759788947474114 -0.15984745964296046
-0.0352813114707492 0.29542768435846917 -0.16283597692735377
0.003125567239043889 0.30021435456644646 -0.16293405637033168
0.0004231522495724533 0.30157626109491936 -0.16054694995172206
-0.004645745951416316 0.3014383955515539 -0.1648759905982751
0.014407415192840275 0.3010493560351049 -0.1651438389707345
0.01176692942929047 0.3014993711031591 -0.1623643253732461
0.004461903374908147 0.30135202842127434 -0.16612123593576136
0.010783691209075626 0.29925185876261345 -0.16761536046750727
0.008613575499770817 0.30183572011362664 -0.1640212301898736
0.00531001786541718 0.2980368776835119 -0.15767105564363185
0.0019677172119595384 0.29898786979090325 -0.1550735150266427
-0.005087356764557185 0.2996212883509313 -0.1605482910562295
0.015038538974044498 0.2991083903826391 -0.15991296514756861
0.012253035109756168 0.29902953343760125 -0.15700618073232356
0.003522176545379338 0.2997646971262609 -0.16191830381639186
0.010132659476516422 0.29721785025965325 -0.16107567295320216
0.007436920207259831 0.29958683686625115 -0.15789355978257838
0.00040044287991302947 0.298209075502268 -0.16120169207341853
-0.0002901961390994217 0.2984922571695959 -0.16058688506372157
-0.0011998524253390456 0.29782915549646966 -0.16295415803678218
0.003054935734985051 0.2982630177057897 -0.16120823368318263
0.0025991688187100266 0.29847634272944085 -0.16076642915494624
0.001007337373016057 0.2975677295244848 -0.16268827661760035
0.0035414288456417893 0.29758716063868157 -0.16170986637361232
0.001897234719512639 0.2996053739107763 -0.1596380685258645
0.0033191035206295823 0.2979877038515722 -0.16251747950799647
-0.0038050224368594314 0.2845335050142919 -0.17599289759881678
-0.008142094809295956 0.2857932491816198 -0.17252843722589198
-0.014585148293258968 0.28424764113794915 -0.1761783723521966
0.0071786830837704515 0.28601813750635735 -0.17535399541146937
0.005004722874877629 0.2857273264444982 -0.17095490440614405
-0.006179433066131892 0.28343844848047844 -0.17504068359620753
0.0012726674492337083 0.283286516240946 -0.18123599037416163
0.0003018567974545334 0.28548771577250115 -0.17671418830640498
-0.006936233240845027 0.2838331504381811 -0.1821029250312585
-0.009983639914276424 0.2805149598635351 -0.16771633073575679
-0.014644633728744808 0.28192300038706414 -0.1643477593351144
-0.021617721516372982 0.28193551736246697 -0.16968124255426112
0.0034588466103054856 0.28235602813135735 -0.1695567731548089
0.00042458276104706267 0.2820049567736303 -0.1654558245826501
-0.009845416743042294 0.2816835685290014 -0.1704699014116067
-0.0025106777732394362 0.2789335890329992 -0.17244882032163325
-0.0043132414405367995 0.2810896082438146 -0.16833794757611933
-0.007884930569412533 0.27904946046244256 -0.1735356961179513
-0.014319460589172665 0.28269637065302483 -0.17332126840837184
-0.015789042908432308 0.2835574193514501 -0.17168833956010524
-0.019280653197052303 0.2828325076616918 -0.1740472082782525
-0.007952045399429623 0.28272122578989617 -0.17326500162370387
-0.009479474026443783 0.28283727603327385 -0.17104240402467433
-0.01481349368739349 0.28181153970133416 -0.1729931448388833
-0.00874591966319305 0.28184372620951287 -0.17637706443555537
-0.01000193854022247 0.2840963645495092 -0.17315768346078578
-0.013550828892471615 0.28280336099039666 -0.17620886012799922
-0.005977879959823909 0.28410590129267327 -0.17167661234624568
-0.011696498591186825 0.2853958650149023 -0.16773643240220729
-0.02079714437175018 0.28573716121088616 -0.17379216000325862
0.010922570031402287 0.2866702123202001 -0.17375486239679042
0.007464964192626653 0.2857756062067663 -0.16878410324342433
-0.005967568356277766 0.2855481548823034 -0.17490117892511073
0.0009240398819424484 0.2823323650873815 -0.17650502070672694
-0.0009482910220645096 0.2840535088099157 -0.17201507732160273
-0.03733928104090911 0.29470402436625115 -0.1655771349359292
-0.03828505774188262 0.2955201311625158 -0.1647420142579812
-0.04095239539790374 0.29429835515390984 -0.16765036329515162
-0.031536858278992 0.2950514002360021 -0.16474150761850062
-0.032607596117737114 0.2957439466036474 -0.16368583485372248
-0.03569252391505462 0.29377764897715203 -0.16623987898118678
-0.03149960537600738 0.2948630495585119 -0.16866148158796015
-0.03170825143504363 0.29731107192408196 -0.1669083003688592
-0.034797738987686455 0.2944678111590063 -0.1693138544250268
-0.04107449551272613 0.295956615976206 -0.16292463883645716
-0.041854422289612114 0.29660284953486077 -0.16204769059903804
-0.04523200889277679 0.29585475163828484 -0.16559053107984248
-0.03833023806262237 0.29593831735025994 -0.16210367426164332
-0.03908188243556243 0.2962610168970739 -0.16103314503915492
-0.04357818861651641 0.29564816193949334 -0.1646652583766717
-0.035417776304962456 0.2951764507807409 -0.16507957026250544
-0.03584135671305877 0.2970002337015783 -0.1634457622457284
-0.0365175118033908 0.29464513497721306 -0.16624521359689418
-0.04250202675509673 0.29486555295359246 -0.16541517421491328
-0.04213572641062957 0.2945072098292028 -0.16579157754666987
-0.04409558673548919 0.2941446347750341 -0.1668038879323739
-0.0414080729072116 0.29465729432474724 -0.16452252015359584
-0.041086178023102105 0.29435497956644646 -0.16483055695779505
-0.043614458042862236 0.2938682480372106 -0.16583552107103053
-0.04145486255336028 0.29411590533625237 -0.1659763221431512
-0.041496854025604546 0.29555267529856316 -0.16518958553559962
-0.04297862549472076 0.29389095740687005 -0.1661228601623315
-0.040672253567459404 0.2965915842569982 -0.1654599075008172
-0.04185352821994048 0.29740989642511956 -0.16418864473588649
-0.0454344560687564 0.29665112929712883 -0.1681917522836465
-0.03614498277354461 0.29676157670389763 -0.1650910739589471
-0.03726194401431304 0.297138039640299 -0.1635857437539834
-0.0422109772746585 0.2966061873949682 -0.1676595871139306
-0.03348309894252044 0.2957550926722204 -0.1683273677516717
-0.03394125004458648 0.2976188107050573 -0.16647676274068537
-0.03514457841563445 0.29514509873758904 -0.16959439858682337
-0.017675976950409237 0.29132146077524773 -0.1716036562610406
-0.021320115525009457 0.29369092421900383 -0.16860970005281153
-0.02270538707423431 0.2925573034800207 -0.1727577362943429
-0.008738260466339413 0.2918847246683752 -0.17183417722470942
-0.012303333479645077 0.2936270280398046 -0.16884162172563258
-0.016387026507141415 0.29218554931055657 -0.17208170041330043
-0.011325757700683895 0.29134655433069817 -0.1741634969402093
-0.012719224888565365 0.29624051289927117 -0.1705810938764352
-0.01764656205821258 0.29340392785441033 -0.17398454889543238
-0.021606068808319393 0.2909606142557775 -0.16512579366452876
-0.025326382118942562 0.2928198023356115 -0.16187182709462825
-0.029645096260788265 0.29292238192926995 -0.16744661971814814
-0.012358318764450375 0.2918882413424169 -0.1667312298703927
-0.01558301945376617 0.2931552572764074 -0.16370995983369532
-0.023081194359543148 0.2935517473734533 -0.16887590929753962
-0.014693420130493465 0.29167217450510613 -0.16879766330011073
-0.01651586194682342 0.2951817555941259 -0.16492891952283564
-0.018365900713684383 0.29267532067667595 -0.16944009706266108
-0.02411968608546478 0.2904616637743627 -0.16908953234441462
-0.026317637163879696 0.2917347593821203 -0.1670885001111764
-0.026487957436325375 0.2913716478861486 -0.17036812648065272
-0.02045417924571258 0.29102975564371697 -0.16885379597432795
-0.02228472729373199 0.29207879739176384 -0.16711411520726863
-0.02462772627520782 0.29163283543955437 -0.16998907074220362
-0.022035639483215633 0.2906366034067785 -0.16953513666875544
-0.02361158629107696 0.2945236607111608 -0.16700125381238642
-0.024031262594940487 0.29238611894022576 -0.16958396777398768
