ply
format ascii 1.0
element vertex 126
property float x
property float y
property float z
element face 0
property list uchar int vertex_indices
end_header
-0.1731730659787677 0.2912359877146398 0.016149320752547363
-0.17632346947837096 0.29912955003153435 0.020160802752898315
-0.1748835106675647 0.29437995391260735 0.015901365430281738
-0.162713479000809 0.29131240086924187 0.01751504197828589
-0.16492059429335815 0.29800093608271233 0.02148322120420752
-0.16838030119586211 0.29348862605463616 0.01741466775648413
-0.16520830591368896 0.2926923676050817 0.01293767348043738
-0.16719510753798705 0.30407417254816643 0.017775633485243896
-0.1712516804521106 0.2960737987078344 0.01367733731977759
-0.1732900251929782 0.2887525005854284 0.02425191655866919
-0.1797326465432666 0.29280662970911614 0.0295772041391593
-0.18370215197253448 0.29180700021158806 0.021498181970046142
-0.16057063241648895 0.29136622386347405 0.022469946296141723
-0.16733797987151366 0.29332632260691277 0.027965315730498413
-0.1724164297168277 0.29286212163340203 0.020284691007063965
-0.16346685190844756 0.29658931928049675 0.021107384116576294
-0.1664678712670825 0.30296701627146355 0.026449122579024414
-0.173475574452164 0.28381872611414544 0.018376716525481323
-0.1754032482688449 0.28701043563257805 0.022317716033385376
-0.1773806323592685 0.28740519719492547 0.017019697577880005
-0.16925164659667236 0.28641975360285393 0.019104221017287353
-0.17277410228896362 0.28940511184107415 0.022237517983840088
-0.17260108490634185 0.2874266548670446 0.01718527928106604
-0.16993224223304015 0.29140311913859 0.019371994883940796
-0.17179143031287414 0.2979739351786291 0.023338236958907226
-0.1725881357972644 0.293775264791361 0.018924334199355224
-0.17511099179434997 0.2898387952364599 0.01774133101217566
-0.17771665354418975 0.2950340552843725 0.022145249993727783
-0.1807765175883792 0.29324812131296746 0.016429343373702148
-0.16064224739718658 0.29014093118082634 0.016474642903731445
-0.16310289104628783 0.29364270406138054 0.021200993211196045
-0.16994675596404296 0.2922852678812658 0.01557407632582007
-0.16616132457900268 0.2926502271212255 0.014411994368956666
-0.16772962709117156 0.3021962090052282 0.01955840841047583
-0.171350951987984 0.2948852820910131 0.0141978050779563
-0.16429446240115386 0.2892836971796667 0.07291651621572791
-0.16417660911727172 0.28919458823572747 0.07274387136213599
-0.16509903569865447 0.28829461770426384 0.07139224663488684
-0.16220765908408386 0.28894031482111565 0.0732461597036582
-0.16209655602622253 0.2888617558993017 0.07308662787191687
-0.16435665984797698 0.2879660769022619 0.07207552448026953
-0.16043936808753234 0.2880585237063085 0.07174588099233924
-0.16130503614592773 0.28956282573114983 0.07331500306837378
-0.16143315632987243 0.28863394694697014 0.07134718552343665
-0.16551287074733 0.2904238744295751 0.07531113281957923
-0.16697199245143157 0.2907692833460485 0.07616353884451209
-0.16937777002501708 0.2894991679705297 0.0725290264200431
-0.16322291989970428 0.2908669753588354 0.07497779384367285
-0.1643089016263507 0.29098719792734734 0.07567394629232703
-0.16762506564307433 0.2898409410036718 0.07230094924681006
-0.1623611261432193 0.28943896727930657 0.07385594502203284
-0.16301245589900237 0.2901729984797155 0.07540310278646765
-0.16849304338145477 0.288564984372965 0.07264278188459693
-0.1665257771794818 0.2879178567446386 0.070887603909896
-0.16483430166888458 0.28663188653360955 0.07029474631063758
-0.16850734849620086 0.28856689172159783 0.07263258949034034
-0.16654063363719207 0.28792059855829827 0.07087586179487525
-0.1648461182897113 0.2866399331606542 0.07027912989370642
-0.16900921960520965 0.2868393106974279 0.0741539384435874
-0.16904404361891967 0.2868819876230871 0.07420153275244055
-0.16537108619857055 0.288807277253977 0.07304171577207862
-0.16557938953089935 0.2888981147326147 0.07325107708685218
-0.16670219202685577 0.2877767129458105 0.07111171737425147
-0.16339566906142455 0.2885848327196752 0.07317198172323523
-0.16354991098094207 0.2886187477625524 0.07333610311262427
-0.16524408360171539 0.2872798486269628 0.07166916981451331
-0.16133397420096618 0.2878062172449743 0.07218394532911597
-0.16247813006091338 0.28928083615671746 0.07386563077680884
-0.16918988128352386 0.29261333184610955 0.04337171569578467
-0.17062176366496307 0.30067748265635125 0.047715135962889774
-0.17115678985762817 0.29646337466608635 0.042932906300948245
-0.1589302678887866 0.292776410154215 0.04538781300298987
-0.16191628177809936 0.30097562508951775 0.04962528601400672
-0.1646692713086627 0.29577941136728875 0.045141675622389896
-0.1620629390065692 0.29570693211924187 0.041171171815322025
-0.16243967016387206 0.30878138976465813 0.045890667588637454
-0.16664142509150726 0.2991253181017553 0.04152403131239234
-0.16941506763148528 0.2906346364535009 0.051134237201140506
-0.175734337169411 0.29511726336847893 0.057190188319609744
-0.17934859891581756 0.29436004596125237 0.04898221150152503
-0.1573216130321048 0.29433614449869744 0.04991851106397925
-0.16474714477706176 0.29700255828272454 0.05538336292021094
-0.1670729031150363 0.29523760514628045 0.04751280799619971
-0.1593001296107791 0.3028983517206823 0.048993357570098026
-0.16336123247790557 0.310757641366831 0.05489239946119605
-0.1661106308286212 0.2824128909624731 0.04389981284849463
-0.1671036591117404 0.2859693809069311 0.04861594095938025
-0.17102314134288055 0.287543837598673 0.04351625695936499
-0.1635503282134555 0.28727609353434197 0.046061345488951785
-0.1656983902041934 0.2903086586512243 0.049372383506224735
-0.16631742914366943 0.28858137565027825 0.0441546823095542
-0.16468488772559386 0.2943407936609899 0.04644987836592017
-0.16690353651690704 0.30187637048136345 0.05086923495046912
-0.17059801121402007 0.29120833115946404 0.044919529111312015
-0.1728468199555896 0.29693013863932244 0.04985750571005164
-0.17590862115073425 0.2951113029040014 0.04366225853674231
-0.15788144965815765 0.2921646876848852 0.044450142533705814
-0.16049125393080932 0.2966889782465612 0.04912648454420386
-0.16648712356734496 0.29486191707026116 0.043289938123152835
-0.16272990008044463 0.29657477574717156 0.0426021601270896
-0.16314263244319183 0.307356123498789 0.047548570783064945
-0.16437518199134094 0.3050496621645605 0.024322816283629516
-0.16622784336257201 0.3077535672701513 0.02629957452528296
-0.1631168087308429 0.3066846771753942 0.02452281966917334
-0.16113085647273284 0.30459267335306756 0.026389756352828125
-0.16298895676779968 0.30702323155771843 0.028763272912428955
-0.16185572345900756 0.3058798356569921 0.026886918694899658
-0.1588842978065036 0.3046514435328161 0.023206868321822265
-0.16041698654341918 0.30879223781000725 0.02658829942457495
-0.15998620887446624 0.30627626614939324 0.024498918206618408
-0.1637734134976886 0.3022569461382543 0.028970905692504028
-0.16604318817305785 0.3028601451433813 0.03156165137998877
-0.16802444656539184 0.30205047564875237 0.02645290747396765
-0.15929235120463592 0.30510515408884636 0.028254457862303833
-0.1612595578019641 0.30480391221415154 0.031026878507063965
-0.16421794493842345 0.30403972106348626 0.0264358307432395
-0.16084356208491546 0.3071187778032934 0.028184213788436035
-0.16385291119265777 0.31008291678797356 0.03169787779562293
-0.1654155214612506 0.3023161335505163 0.025800862462447265
-0.16572807331729156 0.30271053748499505 0.026598193795607666
-0.16492101152587157 0.30178875165354363 0.024340697677062133
-0.16598680217910033 0.30390268998514763 0.026736983210967163
-0.16634232898402435 0.3041420622385656 0.027417936475203613
-0.1641602029387973 0.3026096864260351 0.024799444825575927
-0.16736532350230438 0.3058812661684667 0.028269150407240966
-0.16908552845168334 0.3076930685557043 0.030200072677062133
