ply
format ascii 1.0
element vertex 607
property float x
property float y
property float z
element face 0
property list uchar int vertex_indices
end_header
0.17430220941853303 -0.1982748017989481 -0.18808836385495845
0.1731222758705594 -0.19707162243951207 -0.1832761530566949
0.17275770406079072 -0.19960848552811986 -0.18647625192887965
0.18005229930233735 -0.1982302175246561 -0.18255301460511866
0.17643966178250092 -0.19426966769326573 -0.17802456661946955
0.17211501697850007 -0.19596024913419133 -0.18450590118653956
0.17497425178837556 -0.19648271364797001 -0.18555899605043116
0.17420922617268342 -0.1863218502484644 -0.1832904283691186
0.17453368405651826 -0.19324357373345738 -0.18850517913587275
0.17705955008816499 -0.181328083702215 -0.18427164003141108
0.17351384858441132 -0.20031790001023655 -0.18527788564450923
0.17230444053959626 -0.2009206072770441 -0.18047452613599482
0.17135231594395417 -0.2014597461901987 -0.18378398463018122
0.17741220096897858 -0.1984709606849039 -0.18093106791265193
0.1748372803146817 -0.19676477772820836 -0.17666052922494593
0.17059119443249482 -0.19753476543057805 -0.18194662675149623
0.17038046221089143 -0.1956701831303919 -0.18190362200029078
0.16946749786686677 -0.18862172526944523 -0.17913629755265895
0.17117600540470856 -0.19266163868535405 -0.18369618698842707
0.1726853440220334 -0.20216789407361394 -0.18914847716577235
0.17157040933918732 -0.20132091207135563 -0.18632874533422175
0.17383642892193574 -0.2044703469954813 -0.18673921272046748
0.17202367286038178 -0.2011100308381403 -0.1832739625859994
0.17087249855351228 -0.19906405670274144 -0.18040659174211207
0.16979472736668366 -0.19989521367181187 -0.1843997155118722
0.16921790341686982 -0.20181202454198247 -0.18545969471223536
0.16958915094685334 -0.19449869854081517 -0.1838821385789651
0.17053638796162385 -0.19710853261578923 -0.1881737475085992
0.1724893639500119 -0.20244197113145238 -0.1887993727613229
0.17139663199734467 -0.2016978816472376 -0.1857710991788644
0.17351617316555756 -0.204676489659437 -0.18642081960923854
0.171909768384216 -0.2012527094565714 -0.1830337260652322
0.17073716620754975 -0.19918314678300267 -0.17997681245095912
0.1692261586601712 -0.19989472193349248 -0.18419571861512843
0.16899688939404267 -0.20169704718221074 -0.1850795809913415
0.16930510501217622 -0.1941503391944254 -0.18351896747834864
0.17028375367474335 -0.19690519137013798 -0.18778320297486964
0.1986589620525815 -0.04228990835774785 -0.16492748901136103
0.19811584452938813 -0.042076136299260915 -0.16414556547887507
0.1980102847034909 -0.04204520148862249 -0.16387534782178584
0.19902165631603974 -0.04198067946065313 -0.16478506371267024
0.19856585959744233 -0.041837181278356374 -0.16397122189290705
0.19797583321881074 -0.041852052637227834 -0.1637686555076379
0.19802834491085786 -0.041829402872213185 -0.1654020462919015
0.1976547429974057 -0.04143794936765081 -0.1645296429086465
0.19643302659344453 -0.04135065836537725 -0.1661419485498208
0.1992920825893857 -0.04336466951001531 -0.16363771900422755
0.19885082940411347 -0.04310652179349309 -0.16286443814523402
0.1985247323925473 -0.043067421146520436 -0.1628211502719659
0.19962419967007416 -0.043042983242162526 -0.16346884414441767
0.1991956422741391 -0.04284470839131719 -0.16263880476243678
0.19850315551113862 -0.042841251321920217 -0.16269790276773158
0.1985247323925473 -0.04260742230046636 -0.16460695013292018
0.1980887840206601 -0.04212912482846624 -0.1635823760915536
0.19707598189663666 -0.04210295838940984 -0.16531260952241603
0.19542934398007172 -0.04130890531171209 -0.16679464921243373
0.1956035683567502 -0.04138984841931707 -0.16704770073182765
0.19674130181622285 -0.04062479300130254 -0.16542319103963557
0.1950869152958371 -0.041691447921880544 -0.16700339957959834
0.19528492192578095 -0.04178994459737188 -0.16730790480859462
0.19634642104458588 -0.04075759214986211 -0.16562718793637934
0.194423515599487 -0.04139783544171697 -0.16681948944814387
0.19449945191693085 -0.04143923086751348 -0.1669267182040948
0.1936438868458249 -0.040917481609472096 -0.16691980406530085
0.19481768111538666 -0.04384359283078557 -0.16543284699208918
0.19518728951763886 -0.04435541791547185 -0.1661574457574624
0.19773628215145844 -0.04269700808156377 -0.1649876449991006
0.19435699681591767 -0.04496827287305242 -0.1669530932594079
0.1947894881184079 -0.04579716486562139 -0.16783238097913447
0.19776727656674165 -0.042956377693303884 -0.1662383441615838
0.19245089988064545 -0.043910171218999684 -0.16831416532285395
0.19261821011852998 -0.04406421942342168 -0.16862206801660243
0.1927181671078183 -0.04316344422925359 -0.16799423739202204
0.1904497335369565 -0.12918021840680485 -0.16486716911084834
0.1897332857067563 -0.12819514734376317 -0.1636232946801919
0.1895647237713315 -0.12818359894383793 -0.16582111164815608
0.1946492383892514 -0.12959825558293706 -0.16365618154294673
0.1935550163204648 -0.12844447357285863 -0.16217432066686335
0.19194223384213227 -0.12808204753030186 -0.1644528572250146
0.19506009320568818 -0.12778487367261296 -0.16559062048680964
0.19394721488308686 -0.12512073976624852 -0.164017340986802
0.1910430977756955 -0.12583547396291142 -0.16670302197225276
0.18716557721447724 -0.12907698316205388 -0.16475938901193324
0.1861537287647702 -0.1282195554457987 -0.16302398487813655
0.18488760690045136 -0.12811013621915227 -0.16590881988294306
0.19256033400845307 -0.12964324218858128 -0.16469327255971614
0.19107212523770112 -0.12864261431325322 -0.16260983690507594
0.18889369468045014 -0.1285552190028513 -0.1651508872199792
0.19278361300778168 -0.12718325419057255 -0.16527207836396876
0.1907171199734189 -0.12482511562932377 -0.16337754472978297
0.18961538771939057 -0.1260873929940546 -0.16585100337751094
0.18412785629582185 -0.13322308225263005 -0.16248919710405055
0.18396427134823579 -0.13297023934949284 -0.16232222959287348
0.18495853642773408 -0.1324622289620722 -0.164489171354844
0.18479611377072114 -0.13253481251824742 -0.1617898409057397
0.18467177848171967 -0.1322919533931101 -0.16160038754232112
0.1857534239704587 -0.13152381343472844 -0.16384937509782496
0.18665941457104462 -0.13199270827401524 -0.16405425116307917
0.18615211943936127 -0.13073126537431126 -0.16304472729451838
0.18631978730511445 -0.13028364939320927 -0.1647618924070138
0.1781836042816617 -0.10429390830624943 -0.1841979835916299
0.17762209872555512 -0.10345145625699406 -0.18304138526208583
0.17806430558514375 -0.10278969568837529 -0.18545541807897273
0.1807775984222867 -0.10382124347318059 -0.18310988590009394
0.17988108496022004 -0.10288956327069645 -0.1816335384536523
0.17905371288609284 -0.1025171832524622 -0.18356884166486445
0.1811723897869565 -0.1030713574372614 -0.18502592190988246
0.18013288478207368 -0.10077046913731938 -0.18343923136480036
0.18006204466175812 -0.10176011485684758 -0.18506657227761927
0.17740033964466828 -0.10385265512097722 -0.18525553390271846
0.17689435581517 -0.10308226508725529 -0.18405026838071528
0.17730479339909333 -0.10232010049451237 -0.18655989214666072
0.1800383518154599 -0.10330405397046452 -0.18424046680219355
0.17925902108502167 -0.10248180789578801 -0.18276641413457576
0.1783991346771695 -0.1021790759049738 -0.18469387933499995
0.18058325747799653 -0.10257818860638981 -0.18600847467668238
0.17918710808110017 -0.1003472761594141 -0.18427269801385585
0.17965172628712434 -0.10120862288106328 -0.18589503213651362
0.1752151141579129 -0.10600384635556584 -0.1838765506435174
0.17526354293179291 -0.10606729549992924 -0.18394816562421504
0.17827336887669343 -0.10409652752507573 -0.18694130226857844
0.1754384229595639 -0.10557460350621586 -0.18382506713159266
0.17547385792088288 -0.10563808245290165 -0.18388228759057704
0.178360123437164 -0.10374399585355168 -0.18659252568967524
0.17752896646809357 -0.1042336778127039 -0.1862494562555093
0.17710809807133454 -0.10340326590169316 -0.18560885533578578
0.17985643843960541 -0.1026130871259058 -0.18539797410257045
0.17542408804249543 -0.10663336081136113 -0.184771290867402
0.1757278929169156 -0.10712551636327153 -0.18522437557466212
0.1784337947781064 -0.10513495964635258 -0.18786462291963282
0.17529301742863435 -0.10711606902707463 -0.18497139856107417
0.17561750511479157 -0.1076363877736414 -0.18544714793451014
0.17851208547901887 -0.10561579031575566 -0.18826102360971156
0.17664830784153718 -0.10493626756299382 -0.18812835857160273
0.1762665698940732 -0.104315783210882 -0.18757157668359462
0.17804901699375886 -0.10358354014981633 -0.18789679452665034
0.18213718036961335 -0.15788763327229863 -0.18298032030351344
0.17991768221211213 -0.15534154636491185 -0.17895480140931788
0.1783802400047757 -0.15560125870335942 -0.1833465908456582
0.18900461892437714 -0.15787863297093754 -0.17986599251516047
0.185912031930206 -0.15500467581380253 -0.1761452321697015
0.18352301816296357 -0.1561406658374155 -0.18058103963620845
0.18576534489941376 -0.15401519400704747 -0.18246493384130183
0.18289845089268464 -0.14673952324021702 -0.17985320731885615
0.1830228159840085 -0.15051607353318577 -0.18417899951226893
0.18500771025967377 -0.14915163380730992 -0.1807696138311166
0.18116237620663422 -0.15953169328797703 -0.18107152625806514
0.1790262351448514 -0.15823539657224064 -0.1765387867379922
0.17752512196850556 -0.15775465530980473 -0.18098119541890803
0.18468757371258515 -0.15586326582063084 -0.17843223258741084
0.18244944910359162 -0.15417535168755894 -0.17448533221967402
0.17913146714520234 -0.15490877194035893 -0.17874976143129054
0.18018542627644318 -0.15184050364125615 -0.17974016711003962
0.17938398222279328 -0.1471649066888178 -0.17697902664430323
0.17919640640568513 -0.14900792700875645 -0.18078517064340296
0.18064813713383454 -0.16483427149880772 -0.18200058385617915
0.1803326497490384 -0.16427915854085332 -0.18024507805593196
0.18118320802998322 -0.16290352804292088 -0.18223308667428675
0.18139790396046418 -0.162400420137533 -0.17893161520250025
0.1809173117096402 -0.16126066012013798 -0.17737539753205958
0.18149210910153168 -0.16039093894589787 -0.18003866717107478
0.17876111368489045 -0.16121229095090275 -0.1810231570888299
0.1788827965671994 -0.1569661454640711 -0.17975326523072901
0.18087898592304963 -0.15664088291753178 -0.18240068003423396
0.1816001127178647 -0.15124491912949925 -0.18007280573136988
0.19142778615307587 -0.17828392548192387 -0.16729733988530818
0.18941165904354829 -0.17471877796281224 -0.1601486866164941
0.18610002497982758 -0.17656875712502842 -0.16552489146478358
0.19934912423443574 -0.17645628316033726 -0.1609438423801202
0.19538368682217377 -0.16987670523751622 -0.15593907877690974
0.1903467963154294 -0.17335994107354527 -0.16397031292207423
0.19446839789700288 -0.17363422674764042 -0.16646078869588557
0.19368543128323334 -0.1577309624635065 -0.16346136376149836
0.19098879794430512 -0.1673183397733057 -0.16981433972604457
0.1936390588695981 -0.1606854007922495 -0.16471511766202632
0.18785466651272553 -0.18395122451413518 -0.1616246615339059
0.18579955796551484 -0.18503111166585332 -0.1529496674228448
0.18159978489231843 -0.1827515320264185 -0.15982512280233088
0.19222398499798554 -0.17730131311047917 -0.15613046929128352
0.1872916410381772 -0.17364212436307316 -0.1503641669441003
0.1823814402039029 -0.17519144279588109 -0.15846500441320124
0.18704487780880708 -0.17480186683762913 -0.1596235398937005
0.185326893132446 -0.1630204723559702 -0.1557972495246667
0.1845830867702939 -0.16902522308457738 -0.1619734530139703
0.18781443337750214 -0.1840252981864298 -0.16658394679315272
0.18778945903134125 -0.18378491265405064 -0.1610595796991128
0.18623556594204682 -0.1837530688725794 -0.1631166402984399
0.19008167485546845 -0.18066356641877537 -0.1603337143350381
0.18856580952954072 -0.1766032235108698 -0.15598111495263758
0.18421622018170136 -0.1769916967831934 -0.16198032244928065
0.1859287212307431 -0.18007145387757664 -0.1633847419906396
0.18588449458431977 -0.16880203349221592 -0.16087109491117182
0.18638630608868378 -0.1725879566155756 -0.16662818834073725
0.1890512297565915 -0.16116438371766453 -0.16286759719140712
0.19834979276013154 -0.08173453373540288 -0.16322033747918788
0.19675387839627045 -0.07983377141583806 -0.16000486060865107
0.19527687529873627 -0.07756480140317326 -0.16241269454248133
0.19850619534802216 -0.07679590148557072 -0.16085875674970332
0.19629420737576264 -0.07448067826856022 -0.15760367259271327
0.19553335408520478 -0.07402050060857182 -0.16058639332540217
0.19480397204708833 -0.07513141197789555 -0.1640152250219125
0.1938666890079953 -0.07163029474843388 -0.16119261726625148
0.19315965871166962 -0.0729265169583643 -0.16441973194368067
0.19708933333706635 -0.08049991292584782 -0.1643179123092431
0.19546081523251313 -0.07904561919797307 -0.16110428318269435
0.19413133363079804 -0.07677137417424565 -0.16345674440152827
0.19760360221218842 -0.07539444727528935 -0.1622439537931222
0.19516046742748994 -0.07332047385800725 -0.15886751457936946
0.19428970317196625 -0.07294109029401188 -0.16176422580964747
0.19414444665264863 -0.07407494945157414 -0.164972147791459
0.19267268876385468 -0.0704969720326746 -0.16189297184236232
0.19253923396420258 -0.07181244654286748 -0.1651434068370599
0.1942062566692807 -0.07990988654721623 -0.16444008692987147
0.1936504433567502 -0.07937037510503178 -0.16232541844136897
0.1927346179897763 -0.07616644663442021 -0.16309840127713862
0.19425489405941743 -0.0757423595868433 -0.16289686307199183
0.19354255894970673 -0.07511323256123906 -0.16077654704339686
0.19317348698925751 -0.07310664219487553 -0.1618269000936288
0.1895460675175168 -0.07374119324315434 -0.1639713560033578
0.18850304583859223 -0.0707939223729456 -0.16179791733510676
0.18999304274868745 -0.07122087044347172 -0.16386022314317408
0.19443424443554658 -0.07932510537732487 -0.1636601005483407
0.19437720279049653 -0.07906502050984746 -0.16332072660215083
0.19388641814541596 -0.07541763348210698 -0.16277383908517543
0.19435681800198334 -0.0789346055470789 -0.16348541423566523
0.1942946503574826 -0.07866164607633 -0.16312599822766963
0.19385351638149995 -0.07511576575864201 -0.16259553179032984
0.1875454376156308 -0.07513895196545964 -0.16502309486158076
0.18696095446896333 -0.07359012527097111 -0.16380443319566432
0.1881179998333432 -0.07276436252225285 -0.16523358866460505
0.18327214221310395 -0.06570371551144963 -0.17619205161817256
0.17917861441921967 -0.062074180074819386 -0.17119889601953212
0.17782880763363618 -0.061601962276586354 -0.17592181905992213
0.18761171798062104 -0.05826353592503911 -0.1736345504213113
0.18126885990452546 -0.05499201578725225 -0.1687044714380044
0.181303877633331 -0.05673160714734441 -0.17347798392064753
0.18441482285809296 -0.05833822054494268 -0.1774979297805566
0.18151785830807465 -0.05498641295064336 -0.17315191671140376
0.18012129167866486 -0.05681943459142095 -0.17810863897092524
0.18172951440167207 -0.06119662088979131 -0.17773159488923732
0.17800520757984895 -0.05926158589948064 -0.1731530342984933
0.17580049137425202 -0.0580826358281458 -0.17750533565766993
0.18634643058132905 -0.054434473940023244 -0.17616224929578486
0.18002958993267792 -0.0518621460877741 -0.1711109940696496
0.17921235064816254 -0.05313944382298833 -0.1758768175531167
0.18389045099568146 -0.05458685321439153 -0.17927314981706324
0.1818319151813962 -0.0522666232072199 -0.17469716712720576
0.17920093635868806 -0.05311938686002141 -0.17979215726144496
0.1789784620220639 -0.06460749668706303 -0.17780636891610804
0.17663742999386567 -0.0634827868424738 -0.17407133325822535
0.17508112291645783 -0.06109314722646123 -0.17657650157697383
0.1794539282734372 -0.05804228348363286 -0.175848013608529
0.17699133257221955 -0.05655461115468389 -0.17260359868295375
0.17684187392544526 -0.05646189612973577 -0.175373799054696
0.177590418856857 -0.057797725626119435 -0.17798771604783717
0.17518599728894013 -0.055562193819173634 -0.17444240197427455
0.1750831196720578 -0.05607455534566289 -0.17783350393064204
0.179497499268768 -0.064816351362356 -0.17876156315095607
0.17836432556462067 -0.06368085307706242 -0.17629120394475642
0.1784599314148404 -0.061533029504903615 -0.1778008703876275
0.17938869098973054 -0.06032505197156316 -0.17718658491857234
0.17816488842320222 -0.05908944768536931 -0.1748876784730691
0.17892088393521088 -0.058227951952108205 -0.1766053949285287
0.17777218322109956 -0.06001653833020574 -0.17971692129857722
0.17480235199284333 -0.05774217409718877 -0.17661308392770472
0.17607652048420686 -0.058319504686483205 -0.17925698205716792
0.1760241280014493 -0.12663876576054936 -0.17789762362725917
0.1735502670223691 -0.12463508112061863 -0.17410158261544886
0.17207099894833344 -0.12471739513505345 -0.1778648410726327
0.1843387077267148 -0.12624206704724675 -0.176933578102662
0.1806615779812314 -0.12424359781373387 -0.1729832504678506
0.17587770919155854 -0.12413642866242772 -0.17683527514226619
0.1821825693066098 -0.12443102461923009 -0.1797113929677743
0.17907141546559113 -0.11990449888337498 -0.17613027140386286
0.17615692715000886 -0.12178092760671025 -0.18064931675679866
0.17784099678349274 -0.12550432545770054 -0.179179272501542
0.17469917635273713 -0.12439095539677983 -0.17505682155378047
0.17156328658413666 -0.12402925951112156 -0.1795527403045434
0.18690355519604462 -0.1249836788855875 -0.17948628112561885
0.1826396475250699 -0.12332382363904362 -0.175310305206849
0.17681156496357697 -0.12347931725610142 -0.1793265406776208
0.18314646581959504 -0.12169330877889042 -0.18105097755677882
0.17822538713764924 -0.11768254203427678 -0.17676510557420436
0.17799340586018342 -0.11984526676762944 -0.18165930256135646
0.17322247127842683 -0.12995120448697453 -0.17938027426488581
0.17198889355015534 -0.12907613379586583 -0.1772956614185113
0.1715772340710141 -0.12871662838090306 -0.18046497449166957
0.17657579879116791 -0.12805632812608128 -0.17919026955850306
0.17516230444264191 -0.1270024435006464 -0.1769561235595483
0.17382531265568513 -0.1264988885604227 -0.1799409751582879
0.17747010688137788 -0.1284176514827097 -0.18101017817743006
0.17560904125523347 -0.12553523046601658 -0.17837817117459956
0.17534120778393525 -0.12606855792630559 -0.18178044900186244
0.19912554721188325 -0.20341440600980168 -0.1589323197294015
0.1966448018963315 -0.20248326224912053 -0.15569349273927394
0.19419350127529877 -0.20487916035283452 -0.1582049940515298
0.20406462649655122 -0.20426904720891362 -0.15648134693391505
0.2007000039036252 -0.20291867417920476 -0.15321419283635798
0.19588150481533784 -0.2037556426011408 -0.1578731898952264
0.20239027242016572 -0.2047140256844843 -0.1568949286628503
0.2013675163204648 -0.20168050689328557 -0.15541813418157283
0.20022996167492646 -0.20378240508664494 -0.1597712998080987
0.19771911601376313 -0.20266057116616612 -0.15750022873170558
0.19568749169659394 -0.20205156070817357 -0.15462345525510493
0.1933180878574826 -0.20435499710667973 -0.156826875059678
0.20119508008312958 -0.20299231571782475 -0.1551207517076272
0.19884826640438813 -0.20202247364152318 -0.15224739059693995
0.19380392531704682 -0.20272016090978032 -0.15653286024816218
0.1992693136150815 -0.20313927096951848 -0.15525939211137477
0.19807388285946625 -0.20055722756017094 -0.15367910906560603
0.19884361724209565 -0.20261689586270695 -0.15808572515733424
0.19701345662426728 -0.2057184533559168 -0.1585530106712121
0.196809727948425 -0.20547395510304814 -0.15827648982293788
0.19655122260403413 -0.2088988081895197 -0.15854773566014949
0.19795127610516328 -0.20627517563928013 -0.15677348419912043
0.19734074572872895 -0.20578705830205327 -0.15607534989602748
0.1960126350338437 -0.20777140123475438 -0.15735744580514613
0.19718309144329804 -0.20648008150685673 -0.15780302032716456
0.19771691064190644 -0.20558976692784672 -0.15747214004285517
0.19680507878613251 -0.2057479725562418 -0.1603455607581872
0.19676979283642548 -0.206128727027067 -0.15820819780118647
0.1964316556866147 -0.20576136870015507 -0.15777953609712306
0.19619132975888032 -0.20921358031857853 -0.15818426653630915
0.19780214528393525 -0.20666743380654698 -0.1564626012731332
0.19701601962399262 -0.2060330466710413 -0.1554613028455514
0.19545026521038789 -0.20793817503083592 -0.1569792096305627
0.1975595543796994 -0.20691504640210515 -0.157582512943818
0.1981823037083127 -0.2059436844073618 -0.157194009869172
0.19715150098156708 -0.20613196057904606 -0.16023411497361842
0.19808794955563325 -0.15617149633992558 -0.16201766475923243
0.19594975213360566 -0.15280498129952794 -0.157758391349389
0.1921979377682187 -0.1529620395385111 -0.16283667728192988
0.20722265939068574 -0.1573938385926569 -0.15784562274701777
0.2044722626621701 -0.15389124614823704 -0.1539966826129693
0.19987883071255463 -0.15497453076470738 -0.15950288519151393
0.20372660855602998 -0.15331592721570378 -0.1613480810809869
0.20122541884732026 -0.14506220383275395 -0.158996007292344
0.1995623300487973 -0.14916045529473668 -0.16405890032537165
0.20234789351773041 -0.1474148438655222 -0.16016458615548793
0.19630487660717744 -0.1573606984101618 -0.1605967347312707
0.19450302819561738 -0.15474910599816685 -0.15604754432923976
0.19102992514920014 -0.15432768625844365 -0.161120167820527
0.20282055835079926 -0.15646262032616978 -0.15637066110856715
0.20024259785961884 -0.153256292768606 -0.15236196562535945
0.19683607320141572 -0.15435073835481053 -0.15807909414060298
0.1983394811565854 -0.15217119021047001 -0.1588211570668954
0.19777210454296845 -0.1444032893859232 -0.15704525157697383
0.19690354565930146 -0.14800296289552098 -0.16162577912099543
0.19966324071240205 -0.14200007481206303 -0.15720911964662257
0.1957096050198056 -0.16084286136258488 -0.16142735525853816
0.19552429417919892 -0.15940223199952488 -0.15975471481568995
0.19534953336071748 -0.15934805137742405 -0.1622800593066949
0.19795884589504975 -0.15926673574078923 -0.15729642555005732
0.19773264626812714 -0.15730240506757145 -0.15571216389424983
0.1958256552631833 -0.15725329084027653 -0.15921801969297114
0.19551314811062592 -0.15819711548913365 -0.16074678942449275
0.19582714537930268 -0.15261852306950932 -0.15931386396176997
0.19646306733441132 -0.15389492673505192 -0.16430617019422236
0.19707627991986054 -0.14894020123113041 -0.16139130934961024
0.18990852336239594 -0.17961129111874943 -0.18319173797853175
0.1878922770435788 -0.176046158500799 -0.17604308470971766
0.18458076218914765 -0.17789613766301518 -0.18141930445916835
0.1978298614437558 -0.17778364879716282 -0.17683824047334376
0.19386442403149384 -0.17120410067666417 -0.1718334768701333
0.18882753352474946 -0.1746873514138544 -0.1798647110152978
0.19294919471096772 -0.17496159238446599 -0.18235518678910914
0.19216610888790864 -0.15905832810033207 -0.17935574695356074
0.1894695351536252 -0.16864572031129246 -0.18570873781926814
0.19211979607891816 -0.16201276642907506 -0.18060953065641108
0.18633534411740083 -0.18527860505212193 -0.17751907452829066
0.18428017596554536 -0.18635849220384007 -0.16884406551606837
0.1800805221016385 -0.18407891256440526 -0.17571953579671565
0.1907047222073056 -0.17862867874730473 -0.17202488228566828
0.18577237824749726 -0.17496950490105992 -0.16625857993848506
0.18086217741322297 -0.17651883823502904 -0.17435940250642482
0.18552561501812714 -0.1761292473756159 -0.17551793798692408
0.18380760053944367 -0.16434786779511815 -0.17169164761789027
0.1830637345726468 -0.17035261852372532 -0.17786786600835505
0.1862951705868222 -0.18535266382325535 -0.1824783448863763
0.18627019624066132 -0.1851122931920374 -0.17695397779233638
0.1847163031513669 -0.18508044941056614 -0.17901102349050227
0.18856241206478852 -0.18199094695676213 -0.17622811242826167
0.187046487134216 -0.17793060404885655 -0.17187551304586116
0.18269689778637666 -0.17831906242001896 -0.17787472054250422
0.18440945844006318 -0.1813988344155634 -0.17927912518270198
0.18436523179363984 -0.17012941403020268 -0.1767654930043954
0.18486704329800385 -0.17391532225240117 -0.18252258643396083
0.18753196696591157 -0.16249177915681248 -0.1787619803834695
0.19093932608914155 -0.116097028680929 -0.16501774534471217
0.190678615372894 -0.11580955547917729 -0.16456810280568782
0.19053437213253754 -0.11516156358350163 -0.16646667465455714
0.1929909179623105 -0.11589011115659123 -0.16376881942041102
0.1927172134335019 -0.11557283563245183 -0.16327371343858424
0.19147433738064545 -0.11545383495915776 -0.16456527158506098
0.19161887864422578 -0.11298319263089543 -0.16573200270421687
0.1910474489147641 -0.1114629463635767 -0.16483154043443385
0.19044669370007294 -0.1121125475846613 -0.16644681140668574
0.18971087436032075 -0.11505510968793278 -0.16598931595571223
0.1894673297817685 -0.11474063558209782 -0.16541782662160578
0.1893871615345456 -0.11417069596875554 -0.16745164140947047
0.19214649895977753 -0.1147019521676386 -0.16507304355390254
0.19182815055203217 -0.11435320539105778 -0.16431071504838649
0.1903162787373044 -0.11435767573941594 -0.16553022608049098
0.19034447173428315 -0.11182349485982304 -0.16639815911538783
0.18978371123623627 -0.11045413775075322 -0.16536270722634974
0.18956126670193452 -0.11105161470998173 -0.16719063266999903
0.1865412781650998 -0.11956044597257023 -0.16276506230123225
0.18666573266339082 -0.12008590561974888 -0.16329177364595118
0.18871201972317475 -0.11821803016293889 -0.16474235698468867
0.18662681083035249 -0.11946504873860722 -0.16269514605291072
0.18675186137509125 -0.11999447209466343 -0.16323182627446833
0.18871088723492402 -0.11813184184659367 -0.16464508220441523
0.18624259929013032 -0.1183596806012476 -0.16419453069455806
0.18628605107617158 -0.11813139481175786 -0.16411890730149928
0.18843134145092744 -0.11649140281308537 -0.1650302474189538
0.18919356564831513 -0.08587774200070744 -0.1735827092815179
0.1875037739689328 -0.08534991306889897 -0.17130660161264125
0.18329291443180817 -0.08510216636289006 -0.17270489677674952
0.19100125531506318 -0.08433752817738896 -0.1728277419496316
0.18912794093441743 -0.08379181785214787 -0.17049708112962428
0.18390213350605744 -0.08378228110898381 -0.17193832144029322
0.1911048481876828 -0.08317556542981511 -0.17371488258130732
0.18923594455075043 -0.08207976383794194 -0.17101345106847468
0.18584730128597993 -0.08235033912289982 -0.17401374027021113
0.18819184998821992 -0.08500116629231816 -0.1748223070789117
0.18637033204388398 -0.0845076994382227 -0.1723910783220071
0.1821309814865567 -0.08431106371510869 -0.17375186726339045
0.19026931027722138 -0.08321246070493107 -0.17410094186551753
0.18821378449749726 -0.08269223136533146 -0.171633667199685
0.18301441172909516 -0.08287488979924565 -0.17295058712251368
0.18970765570950288 -0.08220424813855534 -0.17448282882459346
0.1879605839664914 -0.081125344463476 -0.17188114568479243
0.18510385255169648 -0.08147504491437321 -0.1749562536168832
0.18141295413326997 -0.0860517279588068 -0.17261256918199244
0.1808662007267453 -0.08585032386411076 -0.1716688339401025
0.1794226954395749 -0.08554204864133244 -0.17223519727475825
0.18257780770611542 -0.08522215051282292 -0.17240991338975611
0.1820462534840085 -0.08501979274381047 -0.171428806035592
0.17973871926617402 -0.08504202527631169 -0.17174737796075526
0.18051450352024812 -0.08331781191457158 -0.17283493921048823
0.17981805304837006 -0.08253135842908269 -0.17112841352708522
0.17960344652485627 -0.08305361432660466 -0.17282634124047938
0.18809809188198823 -0.06067713660825139 -0.16935848340280238
0.18604876498532075 -0.059585090108999074 -0.1658852462459344
0.18251033524822968 -0.05934154553044683 -0.16826557263620082
0.19111098746609467 -0.05753641886342412 -0.1680408333230752
0.18865938882183808 -0.05715328020680791 -0.16392471536882106
0.18447037438702363 -0.057215030618795217 -0.16702582582719508
0.192021388810394 -0.06001770062077886 -0.16957151040322962
0.18932332495999116 -0.05890649122823125 -0.16680360481031123
0.18623890380215424 -0.05898013276685125 -0.17056149884946528
0.18726309041332978 -0.060050989814885915 -0.17054758116491023
0.18541689614605683 -0.05917021197903997 -0.1673396889854211
0.18154351810765046 -0.05889367622960454 -0.1694100414205331
0.1903545449192502 -0.05685913128484136 -0.1696071986842889
0.18787767390560883 -0.05666103524793035 -0.16547950252778712
0.18339498738598603 -0.05671044749844915 -0.16837633296735469
0.19145228366207856 -0.05959072274793035 -0.17077741667516413
0.18862803677868623 -0.05856963557828313 -0.1681106303621072
0.18566324214291352 -0.05861773652661687 -0.1718640540529031
0.18200634817433137 -0.06011586947072393 -0.16983517154939357
0.18096976379704255 -0.05960648817647344 -0.1682868961978692
0.17995371321987885 -0.05920415682423955 -0.16859023913629237
0.18335731725048798 -0.059260393806585134 -0.16958234354741755
0.1822741518433072 -0.05881896180737859 -0.16800660535581294
0.18100227813076752 -0.05885168475736028 -0.16815981909520808
0.18229248027157563 -0.059151108690389455 -0.16940537735707942
0.18182553748440522 -0.05876475138295537 -0.16827153310067836
0.18061824540447968 -0.05870431227315313 -0.17033528432138148
0.18372102479290742 -0.06057214302647954 -0.17000710114724818
0.18351920346569794 -0.060398335882314504 -0.1696161691833276
0.18392445544552583 -0.06009426278699285 -0.16911738261468592
0.18346803287815827 -0.06084426803220159 -0.1702262227226037
0.18324433664631623 -0.0606708185159052 -0.16982038959748927
0.18392844895672578 -0.060256596037038625 -0.16930841550119105
0.18202717999768037 -0.0597952560864771 -0.17106664821393672
0.18158491353344697 -0.05939584536183721 -0.17024388059861842
0.18149729470562714 -0.05930324954617864 -0.17156629904992762
0.18689795235943574 -0.19628431958783513 -0.1726599101711053
0.18443812827420014 -0.1942888454877222 -0.16667009040601435
0.182561863463638 -0.19722757799256688 -0.1696173463750619
0.1906943509991147 -0.19507492644418126 -0.16662170633561793
0.18698831300091523 -0.1912586645566309 -0.1621562902618188
0.18093030552220124 -0.1921451048337305 -0.16897048696763697
0.1878617594654538 -0.19513180417645817 -0.16960843548066798
0.18705727557492036 -0.1853856996976221 -0.1674963597942132
0.18635173539471406 -0.19118411404717808 -0.17345460399873439
0.18776764373135346 -0.19514414233792668 -0.1716850016999978
0.18529703120541352 -0.19509070677388554 -0.16590771719701472
0.19018043975186127 -0.1927583770238245 -0.16718023165948573
0.18697317342114228 -0.19073907596696263 -0.16251589998490992
0.18065832952809113 -0.1906572685920084 -0.16860753938443843
0.1853629539425351 -0.19140220744241124 -0.16796011373288813
0.1837794075424649 -0.18393332821954136 -0.16528778418786708
0.18552364806484956 -0.18775419456590062 -0.17061220750100795
0.1839024613316037 -0.19848009509671574 -0.17311095341928187
0.18265431026768464 -0.19710658056367283 -0.17031604692228022
0.18357561926197785 -0.20189073247540837 -0.17045793577916804
0.18339308003735322 -0.19734267456162816 -0.16816741868741694
0.18149720529865998 -0.1950271086179102 -0.16498768970258418
0.18025674323391694 -0.19642544848550206 -0.16908512160070124
0.1818120072300412 -0.19893349272836094 -0.17035006627328578
0.1822116563732602 -0.19265186352361088 -0.1683283661294717
0.18200882176708955 -0.194058294721731 -0.1737067167449731
0.18376858929943818 -0.19894551796544438 -0.1727713261533517
0.18238683442425507 -0.19751339716542607 -0.16972593113668147
0.1833296904976346 -0.20226232273209935 -0.17006096884496394
0.18331177930187958 -0.19768233162988072 -0.16780402406938258
0.1813855061943509 -0.19537864191163426 -0.164467877595498
0.17962335447621125 -0.19656887216199284 -0.16876340553052607
0.18150623540234345 -0.1990207837306345 -0.16982477053888026
0.18185823063206452 -0.19260854584802037 -0.1677874986816186
0.1816073844845273 -0.19398477239240056 -0.1732780103374261
0.19512053231549042 -0.13763960761655217 -0.1663584773231286
0.19352992276501435 -0.13507054311860447 -0.16211902245767298
0.19070615271878022 -0.134706448145994 -0.16664705321080867
0.2034601161892392 -0.13812507254708653 -0.1626959060121316
0.2009085009510495 -0.1347718195401514 -0.15888107463605586
0.19668610791516083 -0.13518783015836125 -0.16408563300855342
0.19904585580181855 -0.13408511442769414 -0.16647929593808833
0.19693245391201752 -0.1257376478396738 -0.16372492059953395
0.1963395665104367 -0.1296019957743967 -0.16899821802861872
0.19185604552578706 -0.1385688887320841 -0.16380622133500758
0.1900558660442807 -0.1374293075286234 -0.15879049047715846
0.18609591225933808 -0.13585312230218297 -0.16381742700822535
0.1973021219189145 -0.13557362122166997 -0.16109365865476313
0.19438399772000092 -0.13301986021626835 -0.15661970421559993
0.19031621913265961 -0.1333578781567896 -0.16212979599721614
0.19246860246014375 -0.13230023843873387 -0.16299682006128016
0.19140138129544038 -0.12516952616799717 -0.1604424332071084
0.1909660885746457 -0.12780311269391423 -0.16511394724137965
0.19309582213711518 -0.1454081938945139 -0.1667382632184762
0.193164069455383 -0.14508948785889988 -0.1647115413833398
0.19194962481808442 -0.14275110823739415 -0.16600372537858668
0.19464542369198579 -0.14222819668877965 -0.16306690022237483
0.19412155846905488 -0.14068829578984623 -0.16090633615739527
0.19289775590252656 -0.1396575675689066 -0.16392641410119715
0.1920904109890439 -0.1429607526742304 -0.1656987433124322
0.19232221345257539 -0.1375257180415476 -0.16367509111650172
0.19329835872006196 -0.13689082426656132 -0.16806851968057337
0.1933943818027951 -0.13227602405179387 -0.16507395252473536
0.19094117383312958 -0.09503122729886418 -0.17299950763471308
0.19035198191952485 -0.09454598588574772 -0.17176245793588343
0.18951668242764252 -0.09393316073048955 -0.17358284339196864
0.19321246842694062 -0.0943236903630579 -0.17221028253324214
0.19251539210629243 -0.09380989832509404 -0.17077781900651637
0.19020928839993256 -0.09369164270985966 -0.17209658667333308
0.19202925662350434 -0.09265574378598576 -0.17380935594327632
0.1907764265949704 -0.09075682921040898 -0.1719168339658517
0.19049515227627534 -0.09162768287289982 -0.17410451814420405
0.18971838454556245 -0.09408759636510258 -0.17411298200376216
0.18935098151516694 -0.09367927474606877 -0.17294215306527796
0.18847860793423432 -0.09301569623578435 -0.17463179573304835
0.19252624015164155 -0.09342282576192265 -0.17352702364213649
0.19189794759106416 -0.09296461505521184 -0.1720243905473489
0.18932457665753144 -0.09295028013814335 -0.17319331213720027
0.19079782466244477 -0.09162848753560429 -0.17463978275544825
0.19010062913250703 -0.09002118868459111 -0.17283006653077784
0.18993057708096284 -0.09074812693227177 -0.17501786991841975
0.18783767918896455 -0.09671574396718388 -0.17404680594690028
0.18783761958431977 -0.09671526713002568 -0.17404549464471522
0.18889470795941132 -0.09504884047139531 -0.17463696643598262
0.18843938807797211 -0.09580286903012639 -0.1738730733085412
0.18843694428753632 -0.09578257364858037 -0.17381197854764643
0.1889567563946225 -0.09455361528027897 -0.17391250178106013
0.18639929990124482 -0.09400760693181401 -0.17447224900014582
0.18633236388516206 -0.09258046311963444 -0.1738818053890008
0.18754102687191743 -0.09254529637921696 -0.1743993823219079
0.17928256491970795 -0.1417974190198267 -0.18217407807595912
0.17843167881321687 -0.14051365418065434 -0.17980330333001796
0.17914961675953645 -0.140058632322439 -0.18304876133687678
0.18060724834751862 -0.1391869739972437 -0.17925152823217097
0.1794887969906308 -0.1377206997357691 -0.17710565671212855
0.17994980911564606 -0.13770560485947972 -0.18063447520024958
0.17897065381359833 -0.1375016824685419 -0.18169291958100978
0.179160882037399 -0.13324164909947758 -0.18049966439492884
0.18009798626255769 -0.13384195727933293 -0.18270752474553767
0.18182643155407685 -0.1308704273187006 -0.17938785895593348
0.17767148117375153 -0.14150853020776158 -0.18113053485639277
0.17689489225697297 -0.14072355193723088 -0.1785812740016717
0.17750697235417146 -0.13957634133923894 -0.18153553351648036
0.1786146948749997 -0.13776722116101628 -0.1788949583459634
0.1780426094944455 -0.13696142596829777 -0.17667033418901149
0.17743193010639924 -0.13658770484555607 -0.17917460843808833
0.17757289509129304 -0.13572884661782628 -0.18084908172376338
0.1769929418976285 -0.1323602156125391 -0.17891765281446162
0.1780440996105649 -0.1324566410266245 -0.1807337169338006
0.1823834071571805 -0.12487381262410527 -0.1769490753103036
0.18036832312893647 -0.14863447410691624 -0.1844455216813821
0.18030615548443574 -0.14862615925897008 -0.18410322710759822
0.18309624890637177 -0.1452706114732111 -0.18377961858995143
0.1801420042927243 -0.14762329620946293 -0.1828338567901391
0.18020902971577424 -0.1475269602023447 -0.18255444511659327
0.1830452869350888 -0.14423268599141484 -0.1827711825061578
0.1802711079533078 -0.14737809760201817 -0.18441938504464808
0.18078221778225678 -0.14534151119817143 -0.18367690488584223
0.18397327164959687 -0.1405367360793436 -0.18458295509107295
0.18040316204380769 -0.14860969347585087 -0.18503460928685847
0.18034287194561738 -0.14857373697389012 -0.18489273533113185
0.18332736591648835 -0.14525569541085606 -0.1845230226207513
0.18024488190960664 -0.14804932040799504 -0.18399249657876673
0.18022571901631135 -0.1480019496165598 -0.18387030705697718
0.18331022958111542 -0.14463693959344273 -0.1838385675836343
0.18036465744328278 -0.14793662292588597 -0.1852834884811181
0.18079604605984467 -0.14649268550504094 -0.18464860960729304
0.18429936866116303 -0.141109834738859 -0.18556492671258631
0.18596633176159638 -0.13372633916962987 -0.1846762959647912
