ply
format ascii 1.0
element vertex 494
property float x
property float y
property float z
element face 0
property list uchar int vertex_indices
end_header
0.18978991011929291 -0.20039741260636693 0.1813314344000083
0.18397428492855805 -0.19917259676087742 0.18617025867216405
0.18026973704647797 -0.20058682126630192 0.18235121026747045
0.20058049659085053 -0.19666072291959172 0.18059627071134862
0.19424732426953095 -0.19950295550454503 0.18923310294859227
0.18625946740460175 -0.201089944072851 0.1836350347112876
0.19381983975720185 -0.19698273701299077 0.17864329472296056
0.1935929844791867 -0.1972105906688059 0.18422941222898778
0.18474258879971284 -0.19730558557141667 0.17631969705335912
0.1880824158604123 -0.1926901148043955 0.18625757947676
0.18374078373265046 -0.19345075947869664 0.18970284715406713
0.17857002119374055 -0.19490201336968785 0.18647984519712743
0.20411779383969086 -0.1919494078837717 0.18320305004827794
0.19713272551846284 -0.19506145579446202 0.19064561382047948
0.1957326124126889 -0.19659775061238652 0.18444917455427465
0.19411214093518037 -0.19644143743146306 0.18757651105634984
0.18505646685910004 -0.19408317966092473 0.1796691800665122
0.181077648204086 -0.19428395790685063 0.18056104436628637
0.17881857256245393 -0.19421579999554997 0.18208331719152746
0.1779908130581357 -0.1952698038302744 0.18144411698095617
0.18538053731274384 -0.1936303333722437 0.17941448941938695
0.18334727386784333 -0.19387062949765568 0.18123004689924535
0.17908896903347749 -0.19498633904088383 0.1808380271505576
0.183294285338638 -0.19558137220967656 0.17962152615301427
0.184636134904144 -0.19619684977162724 0.18243721976988134
0.1799841115887143 -0.19521468443501835 0.17839992895834264
0.18143649796795625 -0.1952036873780573 0.1850206638883811
0.178754467766998 -0.19554288251031285 0.18701789632551488
0.17564751605343598 -0.19736301464665776 0.18565312877409276
0.1895411799366452 -0.1944019751035059 0.18309576168768224
0.1861467550213315 -0.19549569053281193 0.1864302541326743
0.17914940814327973 -0.19689854545224553 0.1847745563101035
0.18773420552563447 -0.19848709864247685 0.1852935935568076
0.18701030711483735 -0.19825838071931248 0.18770978704206762
0.18142386178326386 -0.19689274890054112 0.18222621932737645
0.19011034468960541 -0.06270655555356389 0.17271522536985692
0.19023301104855317 -0.05962675375569707 0.175648608357833
0.1925917456562497 -0.058983649440892995 0.17505995288603124
0.1934130380566098 -0.05870449108708745 0.17443669691793737
0.19414587716412324 -0.05755573076833135 0.17760960117094335
0.19374914864849824 -0.05712857408154851 0.1754315580438834
0.19407822589230317 -0.05749412936795598 0.17079953208677587
0.1904254744465329 -0.05457764429677373 0.17464355483763036
0.1917227099354245 -0.055520798393377126 0.1712596501421195
0.18982156018566865 -0.056861366459020436 0.17161513224355993
0.188855786126373 -0.05435943169225103 0.17431614652387914
0.1917008946354367 -0.052768017479070485 0.17294169321768102
0.1942314694340207 -0.053878660627492726 0.17231384769193944
0.19356085757565278 -0.05310594601262456 0.1752288426470023
0.19397046069454926 -0.05263155264485723 0.17230440035574254
0.19456251363110322 -0.05375849766362554 0.17002479091398534
0.19162007073712128 -0.052011664339193166 0.1731250967096549
0.19215788344692963 -0.052413965889104665 0.1693738187860709
0.19127323130917329 -0.057812745996602834 0.17509210959188756
0.18997051219296235 -0.05669953984845525 0.1764200116705161
0.19431837300610322 -0.05153005880940801 0.17618499055616674
0.19285197953533906 -0.0538932637654627 0.17443356767408666
0.19259085158657807 -0.05344506663907415 0.17518512264005956
0.19412096242260712 -0.05072265429128057 0.17558253660909948
0.1944169590885617 -0.05493637485135442 0.17475456848852453
0.19289417962384003 -0.0544774488889063 0.17607016220800695
0.19254340628933686 -0.05358627004254705 0.17391137138120946
0.1757261643822171 -0.1233287261210764 0.18724999681227025
0.17489771942448396 -0.11809888047803288 0.19123760715238866
0.17586698035549897 -0.11799078745473271 0.18726066604368505
0.18067284325909394 -0.11730140013326054 0.19145993247740087
0.17636867265057343 -0.11139437121976262 0.1951539303373557
0.17861973146748322 -0.11503159565556889 0.19147042289488134
0.17905860046696442 -0.11744042796719914 0.18542919412367162
0.17883764604878205 -0.10782438082326298 0.18883470550291356
0.17690219382595795 -0.11340239209760075 0.1847566749166709
0.17815052370381135 -0.1194571064196909 0.18573907867185888
0.1763539801056363 -0.11675574941266423 0.19102237478010473
0.1767158399040677 -0.11486440462697392 0.1862823154043418
0.18256800274204987 -0.11244755549062138 0.1871598149847251
0.17755897740673798 -0.10988497299779301 0.1922954703878623
0.18058248261761445 -0.1117913679562891 0.18843851342909154
0.1822070370132901 -0.11484419865239506 0.18396238342039403
0.18057324389767426 -0.10964750809300786 0.1885587359976035
0.1798436532433011 -0.11233955187428837 0.18415895953886327
0.18110858301472443 -0.12234760386575108 0.18335751548521337
0.18013154367756623 -0.12156343025792485 0.1863532449316245
0.18223651151013154 -0.11611893338788395 0.18591199174635228
0.17944275240254182 -0.11376127166379338 0.1850560094427329
0.17819260458302277 -0.11249437493909245 0.18791095271818456
0.18086998562168854 -0.11056038303006535 0.18827144160978612
0.18375458220791596 -0.11518451137174016 0.18349654331915197
0.18286957244229096 -0.11323868794072514 0.1871447946142417
0.18345357875180024 -0.11286103291142827 0.18553916469328222
0.1858872960026242 -0.1657222465955103 0.1783779646467429
0.18434097270321625 -0.16169960362542515 0.18303198471777257
0.18201058010411042 -0.16233345431912785 0.17711422696821508
0.19486804704022187 -0.16180395645726567 0.17955563321821508
0.19034381608319062 -0.15838717980016118 0.1849598671507102
0.18793107966732758 -0.16058527989018803 0.17915929213278112
0.19345941047024506 -0.16265654129613286 0.1743249382089835
0.1898657272274472 -0.1541657702409113 0.178582140357421
0.18764348725628632 -0.15896559817422276 0.17320460930578527
0.18301980594944733 -0.15786772532094365 0.17763809219114599
0.17991935114216584 -0.1561976180754984 0.18323642864935216
0.17751501898121613 -0.15527444643605595 0.17650172963850316
0.19150711993527192 -0.15199192924130803 0.17705813899748143
0.1862930248196103 -0.1510955945931757 0.18348137393705663
0.18432380656552094 -0.15267175001729374 0.17739570990316686
0.18976213435482758 -0.15445723695386296 0.1737891818594199
0.18655427197766083 -0.14935192031491643 0.17856172576658544
0.18407701353382844 -0.15159679514993077 0.17294541850797948
0.18435408572506684 -0.1634341583930338 0.17262823239080724
0.1835786590988614 -0.1629911468707407 0.17623660817854223
0.18309922913861054 -0.15952634377110844 0.17337591305486974
0.18296213845562714 -0.154754574724325 0.17445895925276098
0.1818835030014493 -0.1539606110535944 0.1774764741968375
0.18219016889881867 -0.15429006082642918 0.17563293233625707
0.1841395686085202 -0.15616184038747197 0.17205027595274267
0.18255491952252167 -0.15294850928414708 0.1754749204229575
0.18291663030934113 -0.1532078341924036 0.1726479317259055
0.18108190993618745 -0.09882437748540288 0.17867098108045873
0.1810425112659909 -0.08785724205602055 0.1844558502744895
0.18248118857693452 -0.09230836791623478 0.17949424043409642
0.19121064643215913 -0.08888566059697514 0.18310777202360448
0.18757756451916474 -0.08213939828503972 0.1883165623258811
0.18606903056454438 -0.08695384425748234 0.1819349910330039
0.18655081490826386 -0.08983075184453373 0.17588288441412267
0.18441124657940644 -0.0808421925984705 0.18068847909681615
0.18256409863781708 -0.08765303654302006 0.17484948888532933
0.18087916473698396 -0.08949654860127812 0.17755103960745153
0.17779536942791718 -0.08213665647138005 0.18341875925772008
0.1807913968975522 -0.0834386007272089 0.17773334041349706
0.19133235911679047 -0.0811098472558344 0.1781895543646079
0.18506832818341035 -0.07735469503034001 0.18435493961088475
0.1826042423660733 -0.07935002011884099 0.17672876373045263
0.18696935872387666 -0.08625047964681035 0.17494679346792516
0.18365432719540375 -0.08034678859341984 0.17915696755163488
0.18306334714245576 -0.084745790191778 0.17279902950041112
0.18174876670193452 -0.09213330907452946 0.1773263300966483
0.17970322470021027 -0.08694651288617497 0.18275041237585363
0.18441392878842133 -0.08431446117986088 0.17890546575300512
0.18523200253796357 -0.08367397946942692 0.1780207242082816
0.18420775632214326 -0.08207952541936284 0.1840053583692771
0.18307425479244965 -0.08149328393567448 0.17905668273680028
0.18449546794247407 -0.08623572749722844 0.1771832193445426
0.1816047022755124 -0.08317186994183903 0.18099854245893773
0.18216596941303986 -0.08455594939816838 0.17603717103712377
0.181910384696243 -0.1075002805672968 0.17663381353132543
0.1807015130932309 -0.10225906533826237 0.18045473948232946
0.18313135604214448 -0.10311340851415043 0.177299478204177
0.18744506339382905 -0.10264694256413823 0.1796672131132346
0.18340365986180085 -0.09829499883283024 0.18396429076902684
0.18369557360958833 -0.10088365835774785 0.17930216446630773
0.18755014638256806 -0.1036601321183527 0.1743201400350791
0.1852900574619748 -0.0972659842454279 0.1784269000601035
0.18415959576916474 -0.10117703241933232 0.17379579797498998
0.183047224086044 -0.10275569123853093 0.1745027090620261
0.1802115331108548 -0.09830799264539128 0.17982725158445653
0.1822813938076474 -0.09842946691144353 0.1756144548963767
0.18912054995846528 -0.09754433793652897 0.175681510121749
0.18368535141300935 -0.09477188748944645 0.18137464776747045
0.1837322304661252 -0.09634160561192875 0.1758052791666251
0.1882001350338437 -0.10172554416287785 0.17286468401663121
0.18634333113980073 -0.09722101254094487 0.17651922360174474
0.18538447121929902 -0.09989261192906743 0.1714546169351798
0.18292572001766938 -0.10382830662358647 0.17297212138883886
0.18187536696743745 -0.1012076096021021 0.17664072767011937
0.18565638760876435 -0.09758287233937626 0.1755374456953269
0.18391527633023041 -0.09810730380643254 0.17429474845640477
0.18270485500645417 -0.09698855442632084 0.17780143872015294
0.18542696933102387 -0.0959801332436884 0.17669532552473363
0.18681289653134125 -0.10157051248181706 0.17335362091772374
0.1848395655567624 -0.09948676390279179 0.1766907955717307
0.18546934823345917 -0.09993138475049382 0.17331827536337194
0.17973958353352326 -0.18701079053510075 0.18087781325094518
0.17922200660061616 -0.18525367540944462 0.18578712001554784
0.17798622350048798 -0.18437833649743443 0.1811020757269126
0.18253733615231293 -0.1820496575318659 0.18348450318090734
0.17920537690472382 -0.17838567061055546 0.18784920230619725
0.1780859718735196 -0.18065948350060826 0.18330092087499913
0.18205218414616364 -0.1807223664008463 0.18070689693205175
0.17818321685147065 -0.1722283170901621 0.1838103915762168
0.17876856426548737 -0.17716408831704503 0.17977372661344823
0.18048178057026643 -0.18022152347195988 0.18093703046552953
0.1789666006977536 -0.18076286775697117 0.1854624535154563
0.17801712850880402 -0.1789099232636774 0.1811989332746726
0.18565090398144501 -0.1738895432435358 0.1808639849733573
0.18065534929585236 -0.17366475922692662 0.18671385303251561
0.17889075378727692 -0.17506309909451848 0.1825632537912589
0.18172090153050202 -0.1742954955779398 0.1806900586199027
0.17917703489613312 -0.17097800535786992 0.18476239696256933
0.17950766186070222 -0.17234508258927708 0.1804516996454459
0.17825918297123688 -0.1826842085801447 0.17701742902509984
0.17823018531155366 -0.1825725690804804 0.1779393638681632
0.18132199744534272 -0.1807623015128458 0.17748130217306432
0.17670981983494538 -0.17826313836205845 0.17795188084356603
0.17636092404675263 -0.17775575382340794 0.1790793921064597
0.17920457224201936 -0.17826297444928532 0.17915708676092443
0.17888583640408295 -0.17799669069875126 0.17656231775991735
0.17763953308415192 -0.1771883474074686 0.17880026355497655
0.18042011956524628 -0.1764472232543314 0.17849630966894445
0.17593999604534882 -0.18124977810014134 0.18035737529508886
0.17477085093807954 -0.181949119397291 0.18243459716551122
0.1758245120460965 -0.18004947466481572 0.18142218247167882
0.17811294297528046 -0.1759330288850153 0.18082390084974584
0.17524134020161408 -0.1761856333695734 0.18409512296430883
0.17639397482228059 -0.17750899059403782 0.18329200998060521
0.1766666362698056 -0.1751366512261713 0.1801976646494132
0.17566992739987153 -0.17419173879254704 0.1830299581598502
0.17738299469303864 -0.17324706477750187 0.18134392157308873
0.17984150747608918 -0.07591881913770085 0.18289447680227575
0.1779212544376828 -0.07274385852445012 0.1878071810316306
0.17880623440098542 -0.07347940964330082 0.18413362756483373
0.18641205529522675 -0.0693259195767725 0.18443123355619725
0.18374728063893098 -0.06796848339665776 0.18877885595075902
0.18173544506382722 -0.06861498517621403 0.1836313988279563
0.18515481452297944 -0.07330819530118352 0.1807418848585349
0.18167503575634736 -0.07005339426625615 0.18486026778929052
0.18125121692967194 -0.07182129783261662 0.1798912967752677
0.18105556468319672 -0.07078268689740544 0.18031371489279088
0.17739846209835786 -0.06806033415425664 0.18534974113218602
0.17925100426029938 -0.06808575553525334 0.18148706212751683
0.18934370974850434 -0.06679570240605717 0.17999512806646642
0.1838513503487088 -0.0654531077824915 0.18491885915510473
0.18201680878948945 -0.06604322356809025 0.17945010319464025
0.18665285806011933 -0.07056852740872746 0.17841149225942907
0.18273316721272248 -0.0683692352258051 0.18182084813825902
0.18220918278050202 -0.06947168273557072 0.17652765765898046
0.17987455825161713 -0.07040383977521306 0.18084684863798436
0.17771049241375703 -0.06905480785001164 0.18362585559599218
0.1816819498951413 -0.066655631490835 0.18326366797201452
0.18441917399716157 -0.06814017457593327 0.1807377721380454
0.18285535673451203 -0.06787114901173955 0.18366108194105443
0.18276085357022065 -0.06696575445760136 0.181975432784484
0.18336899976086396 -0.07043867869008427 0.1811141456674796
0.18129091362309235 -0.0697863654576624 0.18320063606016454
0.1814145336563565 -0.06950073999989873 0.18007830634825048
0.17471237878155488 -0.13839961154092198 0.17544645920507726
0.17405726413082856 -0.13656836313832646 0.17809058085195836
0.17528869609188813 -0.13578286332715397 0.17591992870085058
0.17911161879849213 -0.13689495188821202 0.17775485769026098
0.17755903701138276 -0.13505892021287327 0.18073261633627233
0.17800908188175935 -0.13614910406697636 0.17876217618696508
0.17799316744160432 -0.13632419271100407 0.17508024826757726
0.17745222548794526 -0.1320521639071787 0.17736069217436132
0.17658250431370515 -0.13406928939450627 0.17449868574850377
0.17584543327641267 -0.13572810155976658 0.1747796024393302
0.17548175553631562 -0.13495596809018498 0.17738536849729833
0.17588688830685395 -0.13365636331666356 0.1761400486540061
0.1804207752163388 -0.13331214649308568 0.17514113441221532
0.17919679383587617 -0.13303446335423832 0.17895747080557164
0.17897229294132966 -0.13358450991738682 0.17755458608381566
0.1801780949051358 -0.13534913522828465 0.17456201568357763
0.1796297619755246 -0.1330238835297907 0.17741055145971593
0.17886622647595185 -0.13347325784791356 0.1743159677099448
0.17926665047955292 -0.13798890573609715 0.17264828935377416
0.1791862736160733 -0.13787273628342991 0.172886499316619
0.182506669562576 -0.13453459305394536 0.1751404787611228
0.17794289092373627 -0.1345286921941126 0.17363462701551732
0.17789127330136079 -0.1344381229363764 0.173779734523223
0.18113668660473603 -0.13239621681798344 0.17647738114111242
0.1840030143673398 -0.1356997446500147 0.1721606041502219
0.18390323619198579 -0.13512964112389927 0.17325262084715184
0.18480922679257172 -0.1332973049365366 0.17428461566679296
0.179289717477081 -0.16674062175382023 0.1876923824857932
0.17731015781712312 -0.16302418274510747 0.19242362037412938
0.17597382168125886 -0.16357433361638432 0.18732038989775
0.18653817872357148 -0.1631970064126337 0.18903551355116185
0.18213697175335664 -0.1604800031863535 0.19456628814451513
0.1810524652416684 -0.16286517245400792 0.18955908075086889
0.1852360556538083 -0.16180103582967167 0.1845805431913596
0.18218629459690827 -0.15422151548493748 0.1887246753286582
0.17958049873661774 -0.15854680103886967 0.1837403561186057
0.18314080337834138 -0.15896851880181675 0.18729040876142797
0.1804377625400998 -0.15793861014474278 0.19260553374998388
0.17932714919399995 -0.1574963287793482 0.18789551511518773
0.19139351348233002 -0.15425711435902958 0.18682930722944555
0.18638743857693452 -0.15434751970399266 0.1935597445081931
0.18482871751141328 -0.15602236551869755 0.18848506465666112
0.186802882951019 -0.1548937962733591 0.18528834834806737
0.18433882693600434 -0.15116913182366734 0.18949178710691747
0.18258895377468842 -0.15299605888951665 0.1842759038519126
0.18210105995487946 -0.1629608975135172 0.18379328504316625
0.18165879349064606 -0.16258407694924717 0.18672613158933934
0.18295656542134064 -0.16060468120206242 0.1861974979948264
0.18195726374935883 -0.15762994749177342 0.1849813844274741
0.18057014445614594 -0.15754554731477147 0.18798361078016576
0.18152700762104768 -0.15837634665597325 0.18774173513166723
0.18153332571339387 -0.1577634171925867 0.1845369721960288
0.1805607865269162 -0.15602212710011845 0.18748400464765844
0.1811789164955594 -0.1559391872369135 0.18529693141691503
0.18160559634518403 -0.08497997684110051 0.17669189825765905
0.1810294876511075 -0.08023941082585698 0.18113542452566442
0.18386941055607575 -0.07925411624539738 0.17969254508726415
0.18397938112568635 -0.07793509525884038 0.18017507448904332
0.1844578574116208 -0.076282735296377 0.1841898943495017
0.18334608177494782 -0.0760962323628748 0.1812185432028037
0.18265788654637116 -0.0770669834100092 0.17618463292829808
0.17994939188313264 -0.0733326928101862 0.18040663853399572
0.17996828655552644 -0.07482838196385747 0.17636279121153173
0.1809587369377591 -0.07847177548039799 0.17506448283903417
0.17898305157971162 -0.07460388106931096 0.17959857836477575
0.18278839091610688 -0.07265755099881535 0.1774072434019309
0.18398438791584748 -0.07305505437482243 0.17730692878477392
0.18365557889294404 -0.07176157397855168 0.18142510309927282
0.18344645599674958 -0.07148873371709233 0.17789144173376378
0.18340437511753815 -0.07370259923566228 0.17497984424345311
0.18012036780667084 -0.07077201766599064 0.17896617308370885
0.1803769360001065 -0.07182830137837773 0.1744177128385764
0.1816030035431363 -0.07810708446133977 0.1774895872186881
0.18074264029812592 -0.07635947627652531 0.17937863722555455
0.18553670148205537 -0.07105660004247075 0.1789757694315177
0.18185665110897797 -0.07291298670400029 0.1778618480276328
0.18150775532078522 -0.07190173430074101 0.1795086051534873
0.18383036951374787 -0.06963660878766423 0.1795350100111228
0.18196739653897065 -0.07490872902501469 0.1778817261766654
0.18053670625042695 -0.07411437792409306 0.18014643445722875
0.1806022415573575 -0.07349624795544987 0.17760283604376134
0.17912327150654572 -0.11975465280640965 0.18455032363645849
0.17831997970890778 -0.11020260614980107 0.1892846013616782
0.1785514841492154 -0.11311628980267888 0.1844025637220603
0.1868018696720578 -0.10995244545567875 0.1884044791769248
0.18094145159077424 -0.10042643112767582 0.192926862389968
0.18212818006825227 -0.10683121842969304 0.18782613530866918
0.18335320452999848 -0.11100163621533757 0.18088225379698095
0.18316914538693208 -0.09878551525700932 0.18498925224058446
0.17992850045513886 -0.10688912434209233 0.18007329955808934
0.17989252905201691 -0.11305483741391545 0.18208486691229162
0.17744981149983186 -0.10857530994046574 0.18860874429457006
0.17674048642468232 -0.1082600609742487 0.18198163166754064
0.18759961823773164 -0.103085394331106 0.18284265056364354
0.17954661349606293 -0.09864705366719609 0.18856064334623632
0.1816460977013089 -0.10188173813451176 0.182620146424697
0.18659104804348725 -0.10711866182912236 0.1779851402353507
0.18237017492604035 -0.09887969059575444 0.18362615361921605
0.18142144779515046 -0.10390275282491093 0.17768172279112157
0.18172382215809602 -0.11675115985501652 0.1790377284597617
0.17949177722286958 -0.11411237282384282 0.1844839240621787
0.1810338089878537 -0.10981460971463566 0.1809938038896781
0.18243314723324555 -0.10480936927426701 0.18074105039350805
0.1789300630505063 -0.10220381183255559 0.18522397533170995
0.18228508929562348 -0.10189491076100712 0.18261928215734777
0.18518425921749848 -0.10690018100369816 0.17786363616697606
0.18263034920048493 -0.10307725829709416 0.18319968238584813
0.18233715395283479 -0.10399230880368596 0.17948103800527868
0.18104528288197297 -0.18486131293404942 0.17341084137670812
0.1779527256901242 -0.18167286676991826 0.17719809070341405
0.17759438256573457 -0.182583223410734 0.17323631897680578
0.18826242188763398 -0.1820813523017252 0.17387632385008153
0.1833444426472165 -0.1798150644980753 0.1789294566225272
0.18067397574734467 -0.1811856882058466 0.1745170439790946
0.1858446786816098 -0.1800008670770014 0.1711814190458518
0.18256773452114838 -0.1752136902295435 0.1751203323911887
0.1807918737347104 -0.17824831170667058 0.17086226597540197
0.18152843813252229 -0.1790858165704096 0.17344204440824804
0.17774092058491486 -0.1785221801482523 0.17743549600355443
0.1761977265293576 -0.1793575392447794 0.17427704587690648
0.1875273178036191 -0.1748409525834406 0.17271886125318822
0.18298639754605073 -0.17550828618634587 0.17777646437399205
0.17930211524319428 -0.17673784060109501 0.17426136985533056
0.18384151558232087 -0.17688776118386632 0.17326200857870397
0.18191050390553254 -0.17492252153981572 0.1765561486791831
0.18066309789967316 -0.17568438810933476 0.17180112853758153
0.17728151778530854 -0.18003437978852635 0.17296800866834935
0.17640780309986848 -0.17967493397820836 0.17379049316160497
0.18048797945332307 -0.17979487342465764 0.17244831577055272
0.1803098509724118 -0.178666289278158 0.17189601913206395
0.17945303420376557 -0.17837062043774968 0.17279393330328283
0.18125476340603608 -0.179452981182226 0.172943689973281
0.18137158850979584 -0.1782528416596735 0.1720829094957572
0.1801948438103177 -0.1776170985184992 0.17345986619703588
0.18210669259381074 -0.17764459116090184 0.1726947213720542
0.1779391954357602 -0.1791674302302683 0.17586422816030797
0.17532132963490266 -0.1790540323935831 0.1780226911615592
0.17687030534100312 -0.1799407706939066 0.176230826527999
0.1827093551571347 -0.1762999550782526 0.17465034976713475
0.18039520482373017 -0.1769265638076151 0.17746422544233617
0.17878653506588715 -0.1788859770976389 0.17671460762731847
0.18189601997685212 -0.1771193252288187 0.1758048321317893
0.18081419567417878 -0.17636084122289067 0.17759821668379125
0.1815240273888089 -0.17617313129533177 0.1755144085001212
0.17941110233616608 -0.08692892951596623 0.1788745309423667
0.17870717148136872 -0.08471318645108586 0.18136248841993627
0.18250064949345368 -0.08532297176946049 0.17990366473905858
0.18421097497296113 -0.08556595010388737 0.18030408874265966
0.18167473773312348 -0.08335780663121586 0.18318534746877965
0.18370618323635834 -0.0844858841382349 0.18073297396414098
0.1850948522503354 -0.08629509372342473 0.17685783758871373
0.1834713707382657 -0.08365186614621525 0.17947123304121312
0.18295433024716157 -0.08461120290387517 0.1763674701761466
0.18133934239697236 -0.08525380057919865 0.17739770665876683
0.17986871699642915 -0.08331429524052983 0.18044967308752355
0.18389146427464265 -0.08299749655354863 0.17906377568952855
0.18633433083843964 -0.08467521829236394 0.1784022237371665
0.18358283142399567 -0.08292573256123906 0.18162790790312108
0.185556967061279 -0.08360886139500981 0.17905268922560033
0.18724944094967622 -0.0861304656945551 0.17644734040014562
0.18508930901837128 -0.08408996028531437 0.17895532503835973
0.18562807540249604 -0.08469610972035771 0.1757219816755515
0.17980228761982697 -0.08523302836049443 0.17910052195303258
0.1794452259953 -0.0846372799359644 0.18002734437696752
0.1827602277214505 -0.08143698734868413 0.1817734624456626
0.18271999458622712 -0.08496775788892155 0.17944065585844335
0.1824727247173764 -0.08452966374982243 0.1805258180212241
0.18506588439297456 -0.08233719629872685 0.1818209077429038
0.18577982882809418 -0.08490949434865361 0.18023149028532323
0.18513830403637666 -0.08457833094228154 0.18116555467359838
0.1853929946835019 -0.08358451289761906 0.1798122908186179
0.18291156391453522 -0.1258178756915415 0.17724693670980748
0.18053423265766877 -0.1216434792958582 0.18063414946310338
0.18198095659565705 -0.12316461963284855 0.17708862677328405
0.1894183943684079 -0.12303061349023228 0.17962203279249486
0.18552883366894501 -0.119730542727598 0.1839433099340659
0.18538584212612885 -0.12207790774930363 0.17981831088774022
0.1899200270588376 -0.12550849778283482 0.17489228502027807
0.1872284005100705 -0.11916316611398106 0.17855749383680639
0.18531336287808198 -0.12294323308099156 0.17410297051183996
0.1841536353046872 -0.12310188574422246 0.176124283225463
0.18216963509869355 -0.12094381017316228 0.1799462522577506
0.1825488100464322 -0.12129582030404454 0.17598230496160802
0.19072063664746064 -0.11872362656224614 0.17573208466284093
0.18634368876766938 -0.11771153969396 0.18136639252416906
0.18634762267422456 -0.11926886005032902 0.17699871316664037
0.19031097392391938 -0.12354091865647679 0.17394126311056432
0.18842544059109467 -0.11996435684789067 0.17714280739538488
0.18733199338269013 -0.1218086437665308 0.17273283854238805
0.18273617724728364 -0.12223107678521519 0.1741862083982688
0.18221281866383332 -0.12159154874909764 0.1759695197653037
0.18380232552838105 -0.11879668695557957 0.1758000041555625
0.18434514502835053 -0.11875088078606968 0.17501563683264074
0.18375178078961152 -0.11830666226971989 0.17710817709677038
0.18573345641445893 -0.11781706971753483 0.1767261709284049
0.18896641234707612 -0.12175169152844792 0.17349717870466527
0.1879049132282712 -0.12015933854211217 0.17646703973524389
0.18800135354351777 -0.11965341431725865 0.17433450475446996
0.17868651847195405 -0.15291419190991765 0.18225983634702977
0.17554583052944916 -0.14734203679192906 0.18640051141493139
0.17602904538464326 -0.1500575200997675 0.18204159394018468
0.1894477198536374 -0.15154033465016728 0.1846387173246604
0.18453844289135712 -0.1483744190417612 0.1905610348295432
0.18226428727459687 -0.15085796577561741 0.18471203103773412
0.1875311325008847 -0.1502159343444193 0.178414561898635
0.184133786957977 -0.1414995001040781 0.18257937684767064
0.1809173415119626 -0.14700707358945256 0.17744723811857518
0.18123548130345124 -0.14540634615052586 0.184542753846572
0.17797513703655976 -0.14329221410382634 0.18980304256193456
0.17816754082989472 -0.14410796327222233 0.1853006269048911
0.1927983353550412 -0.1441165165387476 0.18477491393797216
0.1874781439716794 -0.14369643790353184 0.19160340085737523
0.18551321725201386 -0.14511034948457127 0.1856438304495078
0.1864139030392148 -0.1440981434069956 0.18203536525480565
0.18473317126583833 -0.13984363836873417 0.1857438470434409
0.18290354708981293 -0.1423947320662821 0.18049232021086034
0.17797248462986726 -0.14919903440106755 0.1804650510858756
0.1774816701824643 -0.14818833334077244 0.18376753583662328
0.17919509510350007 -0.1465158121072138 0.1832414056371909
0.18108599285435456 -0.14531126184094792 0.18145597830526647
0.17882670859646577 -0.1449746297084177 0.18592719093077
0.18092520932507294 -0.1458756284200037 0.1847508336614829
0.18137430052113312 -0.1471983001910532 0.1807888533186179
0.1807823965961911 -0.1444127665244425 0.18430618301145849
0.17998521427464265 -0.14489285213578587 0.18109319463484105
0.1738273392136075 -0.05914368791211492 0.18126759782545385
0.17166336278271455 -0.05629336399663335 0.18561933294050512
0.17393465737652558 -0.05808293385136968 0.181682863385604
0.18680610160183686 -0.059262301155217946 0.18317497626058873
0.1806862841064908 -0.055970306821950734 0.18753365531675634
0.18124799827885407 -0.057628210016378224 0.1825741614412528
0.18285049895596284 -0.058692033716329396 0.17854792729131994
0.1799524019176938 -0.05568655891049749 0.18186143890135106
0.1808938572819211 -0.057738240190633595 0.1776382710050803
0.17586167554211396 -0.05581971568692571 0.18012828484289464
0.17235319713902253 -0.05397635264027959 0.1843383695196372
0.17524837354969758 -0.05454000396359807 0.18037895217649755
0.189205009740112 -0.0573880032979334 0.17969039932005224
0.18434723119091767 -0.05597516460049993 0.18477789417021093
0.18211491803478974 -0.05593749446500188 0.17916543141119298
0.18586059312176484 -0.05670460624326116 0.17682940617315587
0.1827430317814328 -0.054992164798864186 0.1796403314184409
0.18323432306599396 -0.05600437087643987 0.17523092880956945
0.17389260629963654 -0.05665865106213933 0.1805420602869254
0.17357601622891206 -0.056047345825322926 0.18267307534925756
0.17412285904240388 -0.054042513795980275 0.18218214169256505
0.17751782039952058 -0.055114890762456716 0.1809351529192191
0.17750503520321625 -0.055261279770025075 0.18277166143171605
0.17638944486927766 -0.05423602027524358 0.18041572824232396
0.18098582724880952 -0.05682760042775518 0.18000260844938573
0.17975579599690217 -0.05627139968503362 0.1813808168482047
0.17928304175686616 -0.055879648157247365 0.1782677556585532
0.17542668084454316 -0.0584880964242304 0.18234304443113622
0.1738689432556607 -0.057498778530248464 0.18532053485624608
0.1756530592854001 -0.05549665851224309 0.18454019084684667
0.18049236039471406 -0.056472535558828175 0.1823835159849387
0.1791693160946347 -0.05637618465054876 0.18488613620512304
0.1779263506348111 -0.055653359123357594 0.18202469602339086
0.18373604516339082 -0.058944995828756154 0.18223936215154943
0.18205587963413972 -0.05834140939343816 0.1838069941114646
0.1817175338680722 -0.058056499191411794 0.1803962673258048
