ply
format ascii 1.0
element vertex 353
property float x
property float y
property float z
element face 0
property list uchar int vertex_indices
end_header
0.1791272054131009 0.06877065139185543 0.18120551958792028
0.17936636905026215 0.07457086878191585 0.18570313707105932
0.18172221283268708 0.07452315526377315 0.18305040255300817
0.18315072755169648 0.07621619539629573 0.18500945821516332
0.18271629909825104 0.07876772122751827 0.18941334739439306
0.1819839666302182 0.07752335505854244 0.18485681071989354
0.1831027458126523 0.07570800619494075 0.1797004129003745
0.18120398024868745 0.08092183308970088 0.183799722344802
0.18039550284695405 0.07796857195269222 0.1793806935857993
0.1811435113365628 0.07442719178568477 0.17941299930326757
0.17846437196087617 0.07939827876459712 0.18474058166258153
0.18174358109783906 0.08058608012568111 0.18101719871275243
0.18451543549847382 0.08256024556528682 0.18120191350691137
0.1825563202316739 0.08400908546816463 0.18618206039182958
0.18199234108280915 0.0834666235960638 0.1808360899996024
0.18509067992520112 0.07757151561152095 0.17861429706327733
0.18218009571385163 0.08122635321985835 0.18257305875532445
0.18220045070004243 0.07926965194117183 0.17745659604780492
0.18156724075627106 0.07514071898829097 0.18077520385496434
0.1805276463444211 0.07775250511538143 0.18392381921522435
0.18488176564526337 0.08255774217020626 0.18292261019460973
0.1827221999580838 0.08129397468935604 0.1811134006094199
0.18204774360012788 0.0822609408415472 0.18421015992872533
0.1839986036236264 0.08419850902926082 0.18342787876837072
0.18457015256237763 0.07924363451372737 0.18135083571188268
0.18272571663212556 0.08032003479372615 0.18394152179472265
0.18327887753796357 0.08058995442759151 0.18083117261640844
0.1846017430241086 -0.0306601778947199 0.1868454004835349
0.1833636055405118 -0.028874959179052175 0.18938956514112767
0.18436982135128754 -0.02974399489987737 0.18635700002424535
0.1869261453564145 -0.02962246102918035 0.1897910620283347
0.184646744530914 -0.02715295118916875 0.19230232492201146
0.18529130915951508 -0.029350783058294118 0.18936524644605932
0.1877244303638913 -0.02836733622182256 0.18815485492460546
0.18410794834446687 -0.022572185226568044 0.19056675687544164
0.1849962661678769 -0.026570971437581838 0.18722573772184667
0.18650485972714204 -0.021345670648702443 0.19004026904814061
0.18678750495266694 -0.028862293192037404 0.18719164386503515
0.18571938971829194 -0.028397138544210256 0.18974540487043676
0.18593193988156098 -0.029022152849325 0.18774608627073583
0.18917312125515717 -0.026761616893895925 0.1888575936865073
0.1878968666012265 -0.02645119590390569 0.19169298663847265
0.18676956395458955 -0.028008665271886647 0.18962291732542333
0.1850512216503598 -0.026665265985616506 0.19035313382856664
0.18329300383877534 -0.023751910158284963 0.19216523423902807
0.1845452974255063 -0.02520811123479253 0.1891255165647727
0.1812416503841855 -0.03062355084050542 0.1854502941679221
0.1812171826775052 -0.03053575319875127 0.18557474866621312
0.1874793360645749 -0.03054752511609441 0.18429491773359594
0.18060549001049775 -0.02942263645757085 0.18631193891279516
0.1805518160278775 -0.029293890424856008 0.18648294463865575
0.18663640717816132 -0.029813404508718312 0.18597630515806493
0.1800354311878659 -0.028388108440526784 0.186457135827468
0.1792064199860074 -0.027909751363881886 0.18735710635893163
0.18235411147427338 -0.027680362888463796 0.18751088634245214
0.18244253496479768 -0.030412341781743825 0.18808034911863622
0.18214418391537446 -0.03013863725293523 0.18875501409284887
0.18588109711956757 -0.030737783142217458 0.1875828887533408
0.18481953839611787 -0.028894092270025075 0.1883734847616416
0.18443377713513154 -0.02859374446500188 0.1893209601949912
0.18654211263012666 -0.030221249290593923 0.1895287419866782
0.18083624939274567 -0.027758623787053884 0.19030169502012548
0.18011336426090974 -0.026705201097616017 0.19148103252165136
0.18316840032887238 -0.02657636565793401 0.1905641938757163
0.1757044086868741 0.017816816142908275 0.1759099449228507
0.1746047923977353 0.026176695398203075 0.18117988959066686
0.17425732712101716 0.022942875198236644 0.17572114721052465
0.18424673775982636 0.024394009879938304 0.18010918155424413
0.17831756572079438 0.03378868537317866 0.18441543832533178
0.17927293876957673 0.027091418079248607 0.17929969087354955
0.18070064882588166 0.02439821200739497 0.1724023605894309
0.1801705847198941 0.038250003627649486 0.176286556870864
0.1772237012798764 0.02871978717218989 0.1713630343984824
0.1776647756512143 0.030152533820978343 0.17363993182890233
0.17939280371022004 0.022640828660837352 0.1764495457720023
0.17829905847859162 0.02496922450434321 0.18358320847265538
0.17654066185307282 0.02648270564447993 0.17630488529913244
0.18684997062039155 0.030801509193292796 0.17754853621237096
0.17964564661335725 0.0348252101458227 0.18343804136030492
0.1817543695385434 0.031432573369852244 0.17767525568716344
0.18569226960491914 0.027423147729746043 0.17275924340002355
0.18251617650341767 0.0365313036955511 0.17816502705328283
0.1810633728916623 0.030884806684366405 0.17234499111883458
0.18011041383099335 0.016101603082529246 0.17173827543966588
0.17858039240193146 0.01764500575434321 0.17783994332067785
0.18000571827244538 0.02251360254656428 0.17432940855734166
0.18030126790356416 0.02703953223597163 0.17461601749174413
0.17758234242748994 0.02987429933916682 0.17894635453932103
0.18009172777485627 0.02945003347765559 0.17635203257314977
0.18155946235012788 0.025040958694330394 0.1719048406194907
0.1797663460190274 0.031042967609277904 0.1764708544325095
0.17952953676533479 0.029244218639246165 0.17305476322881994
0.18177323440861481 0.04133916335474604 0.18345449224226293
0.18140189747166413 0.05163252787958735 0.18845561996214208
0.1824138651306607 0.04956523018252009 0.18383614078275975
0.18689121703457612 0.05516642766367549 0.18757657066099462
0.18372510771107453 0.06320262389551753 0.19253287568800267
0.1836152265484311 0.05805123286615962 0.18680767074339208
0.1856589506084897 0.05362797217737788 0.17930231347791967
0.182803083461044 0.06723261313807125 0.18470911041014013
0.18071179489445466 0.05907544927965754 0.17930812493078527
0.18086754183125275 0.05047795610796565 0.18025661364309606
0.17803769211125153 0.05773994760882014 0.18729195848219213
0.17831306557011384 0.05774274902712458 0.1811512197565299
0.1871944854671933 0.06479677992235774 0.18154970660917577
0.1803425739223935 0.06931388812433834 0.18777648463957128
0.18028925756764191 0.06664428549181575 0.18102616921179113
0.18553658227276582 0.06198189096819514 0.17649860039465246
0.1820168981964566 0.07043520050417537 0.18227807536833104
0.1808555910999753 0.06506631212603206 0.175885983855651
0.18231325249027985 0.04765087800394648 0.17799038544409093
0.18072615961384553 0.051861350110880076 0.18389812961332616
0.18355141977619904 0.05663279133211726 0.1803861047338706
0.18249248365711945 0.06206661897074336 0.17924947396032628
0.1795633922035672 0.06501543956171627 0.18395630374662694
0.18334366778683442 0.06566489177118892 0.18130678787939367
0.18354310492825288 0.06011760669123286 0.1768288697313529
0.18126605848622102 0.06495947080027217 0.1822539950918418
0.18043674926113862 0.06342438297640438 0.17792112484686193
0.1844214985783078 -0.011851783224233449 0.17973227158300695
0.18360655407261628 -0.00882651967633611 0.18491689220182714
0.18018059830021638 -0.008048679062017262 0.17903322830908117
0.190240223210571 -0.00602730674374944 0.18138501897566137
0.18582077721905488 -0.0018406168900812273 0.18611291900389013
0.18389694790196198 -0.004144097992070973 0.18070442333929357
0.18908287982296723 -0.0056805269204462175 0.1772507812093955
0.1855252573902585 0.003424112371317088 0.18088779702894506
0.18427528838467377 -0.0015958802186334733 0.1758629466604453
0.18204619387936372 -0.005589212604650319 0.17900658503286657
0.17901103596043366 -0.0049148456536615495 0.18474153533689794
0.1771035681183316 -0.0030526773415887956 0.1783968891214591
0.18751170138668793 0.0027130885637914534 0.17889285937063512
0.1819166729862668 0.0039379938162481185 0.1848060275625449
0.18061037759136933 0.0022539539850866194 0.17930970445387182
0.18725319604229707 -0.00022086066830998702 0.17593736305944738
0.1835924277718045 0.004237268737665355 0.1806963767122489
0.1820694992954709 0.00256339149843806 0.17548347368948278
0.18254779676747102 -0.008968527742513478 0.1736572171758872
0.1819764564449765 -0.009010608621724904 0.17669163003675756
0.18183087210011262 -0.005596663185247243 0.17469305649511632
0.1796843002254941 -0.00023409289945012374 0.17585707560293493
0.1788181255276181 0.00045142012011164384 0.17810762778036413
0.17912681798290986 0.0004460855044042464 0.1765217269968253
0.1816289315636136 -0.0008842603646600847 0.17366410151235875
0.17891903619122285 0.0020743651903783675 0.17709193483106908
0.18156944612812775 0.002162043622842967 0.17465353861563024
0.19012047747921723 0.10476819115053768 0.17261637106649694
0.19065978030514497 0.10538950996767635 0.17506567493192968
0.18971540431332368 0.10675764518152828 0.17549777880422887
0.19194741944622773 0.10540676551233882 0.17367024079077062
0.19219924907040375 0.10591850119005794 0.176151880175994
0.19020988444638032 0.10724384026896114 0.1753778244566184
0.19040169219326752 0.10748765306841487 0.17265249148123082
0.188788909714935 0.10852390962015743 0.17452205076925573
0.1900186131412961 0.10862410502802486 0.1724142219137412
0.19057335357022065 0.10652563410174007 0.17144221916906652
0.19123013715100068 0.10728878217112178 0.1740016128133994
0.19071139792752045 0.10888734894167537 0.17467606917135534
0.1929518769199826 0.10728669600855464 0.17238504544012365
0.19337590436291474 0.10775882439982051 0.17477671161405858
0.19159253339123505 0.10922995643984432 0.17430038109533605
0.19201995829891938 0.11017930941950435 0.1718801642965537
0.1908016393597104 0.11084691124331111 0.17364696517698583
0.19136728743862885 0.11113957004915828 0.17128685966245946
0.1906628201420285 0.10910311775576229 0.17302245751135167
0.19060220221829194 0.10903555589090938 0.17292011633627233
0.19192018012356538 0.11250150637995357 0.1776504303526145
0.19243176678967255 0.10900107460390682 0.1732580746721488
0.1923994610722043 0.10897213654886836 0.17318738356344518
0.19247480134320039 0.1120283945120489 0.17739979282133397
0.1911341736729123 0.10950449543367977 0.17663455858938512
0.19152988890957612 0.10935926871668453 0.17614863172285375
0.19077773789715546 0.110362772516123 0.1753744567941886
0.1915764401371457 0.1084968491114294 0.17525882378332433
0.19181092480969208 0.10877746777903194 0.17570946470014867
0.1930943320209958 0.11214626269709224 0.18006432905905065
0.19458504418682832 0.10827628212343807 0.17554182663671788
0.1948035548145749 0.10848513679873104 0.1761654402326804
0.19397409657788056 0.1112993701018011 0.17945055022947606
0.1938693712170102 0.10894215541254634 0.1791007007669669
0.1941009352619626 0.1088599010027563 0.178850033433364
0.19356544713330048 0.10969299512278194 0.17744902625791845
0.18074544171643037 0.0471405132330572 0.18388924852125463
0.18135001162838715 0.05891010599505061 0.18951968208067235
0.18180011610340852 0.05642351942431086 0.18480263009779271
0.18611736993145722 0.0646312280214941 0.1881285692762595
0.18304495910954255 0.07436332540880794 0.19327650323622045
0.18316872815441865 0.06851560311686153 0.18733314529173192
0.18482388953518647 0.06106761532198542 0.17898962751142797
0.181361992161987 0.07643071251284236 0.18550691858045873
0.179327536624191 0.0680712206877386 0.1797703887533408
0.17970182399105805 0.057603601983896434 0.1797328676294547
0.17734323839497346 0.06620696621309871 0.1872883822035056
0.17683409551930207 0.06571141319643611 0.18061555281393346
0.1855448673183896 0.07618952231775875 0.18186224356405553
0.1796997676308133 0.08154169159304256 0.1877137209486228
0.17905922631573457 0.07855481343638057 0.18046677962057409
0.18520386914562958 0.07240754800211543 0.17530135169737157
0.17997722725224274 0.08254754977594966 0.18175543204061803
0.17894275883984345 0.07675511079203243 0.17498777166120824
0.18267409900975007 0.05352175670038813 0.1788635934900504
0.18066148857426423 0.05917457180391902 0.18565736070387182
0.18357588748287934 0.06337351041208858 0.1814612533163291
0.1832463632042386 0.06986093955408687 0.18034432187788305
0.17979164819073457 0.07434243398081417 0.18541769042722997
0.18356766204190034 0.07488885956179256 0.18120435729734716
0.18465443353009003 0.06771073179613704 0.17667392745725927
0.18130638102841157 0.07415089445482845 0.18237010493986425
0.1804360638077237 0.07240412073504085 0.17775441065542516
0.17864527205776948 0.009189759067407786 0.1821190501760703
0.17550452451061982 0.014761958888879954 0.1862597252439719
0.17598782877278107 0.01204646067988032 0.18190074816458043
0.1894065330440976 0.010563616327158153 0.18449793115370092
0.18449719647717255 0.013729517034403026 0.19042024865858373
0.18222298125576752 0.0112460299051916 0.18457124486677465
0.18748988608670014 0.01188806133638972 0.17827374592535314
0.18409257034611481 0.020604495576730907 0.18243859067671117
0.1808761547024228 0.01509693699251765 0.17730642214529332
0.18119423488926667 0.016697619727960765 0.18440190807096776
0.17793392042469758 0.01881179647814387 0.1896622563909751
0.17812632421803254 0.017996017507425487 0.18515978112928685
0.19275708894085664 0.017987494043222606 0.18463412776701268
0.18743689755749482 0.01840755777727717 0.19146261468641576
0.1854719708378293 0.016993616393915355 0.18550304427854833
0.18637265662503022 0.018005852273813426 0.18189457908384618
0.18469186524700898 0.022260342410913646 0.18560294166319188
0.18286227087330598 0.01970923381220454 0.18035150423757848
0.1779312084133603 0.012904916576257884 0.18032426491491613
0.17744036416363496 0.01391566234003657 0.1836267496656638
0.17915378908467072 0.01558819847475642 0.18310061946623143
0.18104468683552521 0.01679274874102229 0.181315192134307
0.1787854621822812 0.01712933617006892 0.18578640475981054
0.180883933108566 0.016228322557321727 0.18461004749052343
0.18133305410694855 0.014905665687433421 0.18064806714765844
0.18074109057736176 0.01769119935404414 0.184165396840499
0.17994399766278046 0.017211113742700755 0.1809523786615592
0.1861733982975461 0.03176299171816462 0.17678583517782506
0.1850621293003537 0.03647768931757563 0.18103403702490148
0.18544014195751923 0.0372736497439062 0.17725283756964025
0.18923403720211762 0.039026264718881785 0.18046049133055028
0.18579693536114472 0.04343700843226069 0.18487296357862767
0.18598099450421113 0.04098257856737727 0.18042609945051488
0.188450832169769 0.03943911629091853 0.17482400789968786
0.18679954509091157 0.046957884601465404 0.1789188171934348
0.18495335082363862 0.04316381054293269 0.17449028149359044
0.18569608430218476 0.03654441671740168 0.1738543893408042
0.18233503798794526 0.04056337910067195 0.18014744773618993
0.1829009542877652 0.041732911638132274 0.17551822319738683
0.18927975396466035 0.04518646436106318 0.17559353366606054
0.18444253901791352 0.04740125375162715 0.18128139630071935
0.18495352963757294 0.04593486028086299 0.1766331578802329
0.18808503846478242 0.04260230498682612 0.17230580106489476
0.1865320990498044 0.04724181132685298 0.17692811146490392
0.18464394311260957 0.04521918731104487 0.17206028953306493
0.18666960696530122 0.03576073484789485 0.17247871413938817
0.18557502726864594 0.03742665486704463 0.17622906819097814
0.18827994565319794 0.042175923160425365 0.17519188776724157
0.18466629485440034 0.04465684728991145 0.17406687989942846
0.183484692376373 0.04600620704065913 0.17668993130438146
0.18684979180645722 0.04724026160608882 0.1769247736047965
0.1867699215824582 0.04212880568873042 0.172399678380416
0.18630542258572358 0.04462939935099238 0.1764347936224204
0.18536599377941865 0.04455829100977534 0.17374909773580846
0.17926322321247834 0.09489238696467037 0.18000782385580358
0.18014608721089143 0.10225928264032955 0.18593863502256688
0.1799024830276944 0.10126841502558345 0.18233359709493932
0.18479414681744355 0.10432908373247737 0.1843172694753867
0.18380080560993928 0.10693180995356197 0.18935523286573705
0.18268384436917084 0.1055981560267126 0.18378285423033056
0.18255792955708283 0.10397795277010555 0.1792426194261771
0.1796125958378293 0.10860038237940425 0.18315950885526952
0.17976020674061555 0.10576707559000606 0.17820031300298986
0.17918284634899873 0.10234991150271053 0.17789346829168615
0.17637060980152863 0.1077215416945135 0.1838893081258994
0.17942603329968232 0.10840100484263057 0.17912943020574865
0.18486906985592622 0.11097455459009761 0.1795955683302146
0.1840380917007901 0.11194304066073055 0.184748151452468
0.18181725243878144 0.11194044785868282 0.1785199429105979
0.18303282956433076 0.10836905675303096 0.17677355662100133
0.179204929869888 0.11162645059000606 0.1806578125070792
0.17983399729084748 0.1097514672793066 0.17489398375265416
0.1788031647617795 0.10323712664019222 0.17992223158590612
0.17741783360790986 0.10600597100626583 0.18315021053068456
0.1819096396381833 0.11025196748148555 0.18147037282697973
0.18175544242214936 0.10995015936266536 0.1798038567613822
0.18140544394802827 0.11081985073458309 0.18333021655790624
0.18101390103649873 0.11230245666872615 0.18084929242842016
0.180649478238342 0.1079591556109106 0.1801928366731864
0.1782729218418576 0.10908318000208492 0.182692864091323
0.17895479897808808 0.10920826034914607 0.17864469543211278
0.17909075717282075 -0.0171031014405573 0.17355749860517797
0.1786893198902585 -0.016951914259084523 0.1740069772314292
0.17920001248669404 -0.016383166738637746 0.17332021251432714
0.18110783795666474 -0.017166520782598317 0.17319641366712865
0.1805426667149045 -0.01697924298871404 0.17379511252157506
0.18032522897076386 -0.01659673018086797 0.17356867447607335
0.18245281676602143 -0.01638701123822576 0.17304474964849767
0.18238424162220734 -0.016108031698354543 0.17437205568067846
0.18051688770603913 -0.016007776685842336 0.1744194115709525
0.17614321808171052 -0.018538530298360646 0.17442417994253454
0.17584868172955292 -0.018513079115041554 0.17464486613981542
0.1779697130138852 -0.017996575065740407 0.1732873703550559
0.17752345303845185 -0.01789724392522222 0.17382998123876867
0.1771673152859189 -0.01786827606786138 0.17408947005979833
0.17849947909664887 -0.01777138871777898 0.17358312860243139
0.17883573870014924 -0.018357809015401662 0.17350296035520849
0.17887340883564729 -0.01833560628522283 0.17394090548269567
0.1795495937283017 -0.01856821341145879 0.1741384948801261
0.1767148862297513 -0.017065133281835378 0.1734932447981101
0.1785844157154538 -0.01807465715039617 0.17269189015142736
0.18284224371266145 -0.01501124662984258 0.17074684158079442
0.1759787986690976 -0.01806559724439031 0.1736305738996726
0.17783885101628083 -0.019195552297719777 0.17276174679510412
0.18189300994229096 -0.01547520918477422 0.16951689973585424
0.1774596462662198 -0.014792020746358693 0.17130509868376073
0.17736550072979707 -0.01535844368565923 0.16920394554846105
0.1802583227570035 -0.015194590517171681 0.17277611151449498
0.1765015016014554 -0.01644157929051763 0.17646510258428869
0.17895509700131196 -0.01620322031606084 0.1748602177213889
0.18069725136112946 -0.015249784418233693 0.17395363107435521
0.1759672055656888 -0.017237629123815358 0.17689985886328038
0.1782380829269864 -0.01708167357076055 0.1754599000524741
0.18051104645085114 -0.01566451353658086 0.17371443763487157
0.18006854156803864 -0.014202202983983815 0.17509181156866369
0.17960898975682038 -0.014114017912038625 0.17285896197073278
0.18203761081051606 -0.014829661079534352 0.17548409953825292
0.18158568839382905 0.0771507068194067 0.17654261842481908
0.18100969890904206 0.08189127283465022 0.18098611489050206
0.18384950260472077 0.08287656741510982 0.17954329505674657
0.18395947317433137 0.08419558840166683 0.18002576485388097
0.18443794946026582 0.0858479781664526 0.18404058471433934
0.18332617382359284 0.0860344512976324 0.18106920376531896
0.18263797859501618 0.08506373005282039 0.17603532329313573
0.17992951373410004 0.08879802065264339 0.18025729909651098
0.17994840840649384 0.08730233149897212 0.17621351137869176
0.18093882898640412 0.08365890818010921 0.1749152030061942
0.17896314362835664 0.08752683239351863 0.17944932833425817
0.1827684829647519 0.08947316246401424 0.17725796356909093
0.18396456937145966 0.08907562928568477 0.17715758934728917
0.18363570074391145 0.09036910968195552 0.18127582326643285
0.1834265480453946 0.09064200954805965 0.17774213209860143
0.18338452677082795 0.08842811422716731 0.17483050480596837
0.18010057906460541 0.09135869579683895 0.17881689325086889
0.18035702804875153 0.09030238228212947 0.17426840320341405
0.18158309559178132 0.08402362900148982 0.17734030738584813
0.18072273234677094 0.08577120738398189 0.17922926798574743
0.18551679353070039 0.09107408361803646 0.17882642999403295
0.181836743157623 0.0892177267588293 0.17771250859014806
0.18148790697407502 0.09022897916208858 0.17935929551832494
0.18381055096936005 0.09249410467516536 0.17938570037596044
0.18194754819226044 0.08722195463549251 0.17773244634382543
0.18051679829907197 0.08801633553873653 0.17999715462438878
0.18058239321064729 0.08863446550737972 0.17745355621092138
