ply
format ascii 1.0
element vertex 317
property float x
property float y
property float z
element face 0
property list uchar int vertex_indices
end_header
0.18207709888767976 0.18623513417612667 -0.15765026852376643
0.1778239200527646 0.1875567479647314 -0.1535530154395837
0.17126895884823579 0.18777841763865108 -0.15761170431859675
0.1925377438480832 0.18617874818216915 -0.1578007255483407
0.18738384942364472 0.18611801104914302 -0.15275049850232783
0.17814566592526215 0.18632573323618526 -0.1566520099330682
0.18889661530804414 0.1923450871027624 -0.15855733200795832
0.185631532471893 0.1932584686793005 -0.153760588615014
0.17748476962399262 0.19400680499445552 -0.1598696325708169
0.18515815238308686 0.18921131329905147 -0.15809193894155207
0.1808565447742917 0.18993139701258296 -0.15401621803529444
0.17452161411595124 0.1899296088732397 -0.15773468360192958
0.1942866633350827 0.19000870423685665 -0.15854855522401515
0.18902887801480073 0.18962651925455684 -0.15347980603463832
0.1800594518597104 0.18979025321375484 -0.15741626068837825
0.18854327897381562 0.1942001624621069 -0.15855503722913447
0.1854462812359311 0.19551098781000728 -0.15450347110517207
0.17879437307667512 0.1962178988970434 -0.16045258089788142
0.17641918758702058 0.18421042399775142 -0.15847378119714442
0.17537515262913483 0.1846190734423315 -0.1570102040458459
0.1720529387409665 0.18477511840235347 -0.15865116461999598
0.1798724422867276 0.18451309638392085 -0.15812470659501734
0.17839365104985017 0.18494779305826778 -0.15644698485620204
0.17342301110577363 0.18474376635920162 -0.1576699380565423
0.17703886727642792 0.18935651021372432 -0.15888353332765284
0.17553563813519257 0.19013464885126705 -0.15680486604459468
0.17257990340542573 0.18950713115107173 -0.15911439701802912
0.1818916986401059 0.13187832074534053 -0.17542349442727748
0.18199615578007478 0.13180900054346675 -0.17556508526094142
0.1810931454117276 0.13029936390291805 -0.17787999555356684
0.18277837733578461 0.1315358920611059 -0.17445506796128932
0.18279748062443513 0.13152927594553585 -0.1744766597438592
0.18161039451908845 0.1300843997515356 -0.1767288808513421
0.186480719846008 0.1308928473509466 -0.17572905763871852
0.18644012908291596 0.1310561342753088 -0.17542888864762965
0.18482323388409394 0.1305712206877386 -0.17656072124726954
0.18240599731755036 0.1343936963595068 -0.17502061173207942
0.1824349353725888 0.13437617259394283 -0.17505339428670588
0.1827265510971524 0.13267398314844722 -0.17762301012761775
0.18370832900357026 0.1342641158617651 -0.17437630042321864
0.18361677626919526 0.13428473906885738 -0.17428275093324366
0.18309070567440766 0.1326161666430151 -0.17661308392770472
0.18533744315457124 0.13361442523371334 -0.17479766055829707
0.18522216777157563 0.13371265368830318 -0.17460765585191432
0.18475778798413056 0.13319772916208858 -0.1757506345201272
0.18207972149204987 0.13130200343500728 -0.17511764809377375
0.18317567209553498 0.12961122827898616 -0.1768141601968545
0.18099932770085114 0.12819877701174373 -0.1768623505521554
0.18204786280941743 0.1316494985140478 -0.17622018501050654
0.1831284056122281 0.1298761411226904 -0.17797209963090602
0.18133120636296052 0.1281007571734106 -0.177902839033677
0.18194635609936494 0.13109356599222774 -0.1766635392595071
0.18085687259983796 0.12973159985911006 -0.17713224038369837
0.182206798594711 0.12946740227114314 -0.17653787776715937
0.18330596784901398 0.1320128484285986 -0.17586631223447505
0.18429758052181977 0.13002109961878414 -0.1776035343099374
0.18189298013996857 0.12881589370142574 -0.1773731772590417
0.18358897070240754 0.1325323625124609 -0.17776805803067866
0.1845249126369931 0.13047817783724422 -0.17956203862912837
0.1825974772388913 0.12878150182139034 -0.17918104573972407
0.18166806201290864 0.13181508021723384 -0.17748922750241938
0.18014620642018098 0.1302474184549963 -0.17779155716188136
0.18205054501843232 0.1301182849920904 -0.17717080458886805
0.1791073272640683 0.1503914042032873 -0.1755673204351205
0.17756463984799165 0.15171719031702632 -0.1714411441970605
0.17423554162335175 0.15176892714869136 -0.17509583279378596
0.18268217543911713 0.1521556420839941 -0.17073089524991694
0.18075173000645417 0.15478879647623653 -0.16693768545873347
0.17623348931622285 0.1546680374659216 -0.17252094194181147
0.17898150185894746 0.15493184762369747 -0.17285809561498347
0.17899115781140107 0.1611825271166479 -0.17082822963483515
0.17965273956608552 0.1601079149759924 -0.17680174752958003
0.18339656690907258 0.1708188100374853 -0.1726218824077386
0.17835392455410737 0.14879042344462032 -0.17503044649846736
0.1766777823383786 0.14866078334223384 -0.17038398131616297
0.1725727210457303 0.1502252860582983 -0.1739755187917489
0.18078159193348664 0.15251243548761959 -0.17092081054933253
0.17855374912571687 0.15424573855768794 -0.16655943438298884
0.17358018855404633 0.15486532884012813 -0.17207903310544673
0.17582320074391145 0.15440220075022335 -0.17259048566110316
0.17583038310360688 0.16084373431574459 -0.17066136643178645
0.1765891502315976 0.16062516408335323 -0.17532917007692042
0.17567839125942963 0.14722067551981563 -0.1752776567626733
0.1756143162662961 0.14752573209177608 -0.1746268634486932
0.17537753681492585 0.14649767117869014 -0.17508178099878016
0.17650668720555085 0.1480963273562109 -0.1719841723132867
0.17616399030041474 0.14893806414972896 -0.17040672048814479
0.1751245747024991 0.14923155742060298 -0.17254722759015742
0.17529155711483735 0.14284718470942134 -0.175692043154313
0.17574100593876618 0.14647204118143672 -0.174381709544732
0.1786289999897458 0.15034413771998043 -0.17813784524686518
0.18072484831166047 0.15768689351450557 -0.17507479235418025
0.19708271722149628 0.14629805522333736 -0.1644971434760827
0.1944402645046689 0.14798772769343013 -0.1602055941510934
0.19342674712490815 0.1469090028322851 -0.16338337108380976
0.19912363986325043 0.14818019109140987 -0.16131233319528285
0.19678230981182832 0.1502473397768652 -0.15806461021192256
0.19280518988919038 0.15010267930399532 -0.16258586093671504
0.19684227208447236 0.14835387902628536 -0.1628073517967004
0.19552816848110932 0.15411085324656124 -0.16071062430627528
0.19669767121624726 0.15177339749704952 -0.16515339061505976
0.19659741620373505 0.14609748559366817 -0.1621967022109765
0.1935232470447995 0.14683258967768306 -0.15754704818017665
0.19205095271420258 0.14629030661951656 -0.16133166000135127
0.1993950198109128 0.14848924117457027 -0.16068863019235316
0.19693185786556977 0.14952809052836055 -0.15696503862626734
0.192398745816467 0.14953124957453365 -0.1611804728198785
0.19442047576260346 0.15114313798319454 -0.16085875674970332
0.19252475003552216 0.15518081622492427 -0.15814483806379023
0.19546904067349213 0.15353239016901607 -0.1617569242406625
0.1940062234814145 0.14290577607523555 -0.1624551628518838
0.19340886573147553 0.14340693192850704 -0.16127484187371913
0.19649567107510346 0.1417120738543188 -0.1630224351573724
0.19406469563793916 0.1438715501345312 -0.16057019576318446
0.1930318663532712 0.14475501017939205 -0.15912214562184993
0.19372447232556123 0.14423382716547603 -0.16188152775056544
0.1941316912586667 0.14087123113047237 -0.1624815528083581
0.19429184893917817 0.14384246306788082 -0.16107504710443202
0.19554014901470917 0.14533216195475215 -0.16442822560556117
0.17942272524189729 0.18176722960840816 -0.17486549064405146
0.1770399103577115 0.18400758939158077 -0.17049790069348994
0.17406966189694184 0.1843005462206518 -0.17491643771417323
0.18926068047833222 0.18097508387934322 -0.17276368185765925
0.18562736014675874 0.1833789988077795 -0.16866784438378993
0.17992566923451203 0.18356925683390254 -0.1730626587558526
0.1848918984348752 0.18465167718302364 -0.1763457272935647
0.1824482570106961 0.19040668445002193 -0.1730561320472497
0.18041263918232697 0.18785477118860835 -0.17773150548227015
0.17817785243344086 0.18336290555369014 -0.17401447042710963
0.17556421856236237 0.18457287984263057 -0.16932494088895503
0.1714738498146512 0.18553978639017696 -0.17391290411241236
0.18777777652096528 0.18339807229410762 -0.17294829234368983
0.18356861571621674 0.18541700082193965 -0.16825900122411433
0.17789398531269807 0.1854655786074316 -0.17283052846677485
0.1814799497539975 0.18848431544672603 -0.17443384870774928
0.17901112536740083 0.19341302352320308 -0.17084356292970362
0.17811970810246247 0.1913530273951208 -0.17577499791867915
0.17561518053364533 0.17668891387354488 -0.17483460053689662
0.17487065891575593 0.17745006518732662 -0.17271359905488673
0.17442478637051362 0.1781687183893835 -0.1751897101093072
0.17875843147587556 0.17858350711237544 -0.1729112927604455
0.17747129897427338 0.17993259864222164 -0.17069605633504573
0.17615838746380585 0.18042356210123653 -0.17378101393468562
0.1777146647388913 0.1781243725336706 -0.17541820451505366
0.1772210786755063 0.1823334141291296 -0.17310670658834162
0.17676143745732087 0.18230444627176876 -0.17707893893010798
0.19029798011135834 0.13063720302950496 -0.16290167614705744
0.18764008979153413 0.13165754514109249 -0.1588797931361932
0.1864744613583066 0.12855613665949459 -0.16039865359552088
0.19138379792523164 0.131403450540415 -0.15934378549344722
0.18859257201504487 0.13314068751703853 -0.15578786179311457
0.18422790269207734 0.1325544162310278 -0.16012378677613917
0.18956913451504487 0.1311197920359289 -0.15980065509565058
0.18963505725216645 0.13447279172312374 -0.15833837434537593
0.18940367202114838 0.13313144879709835 -0.1630355034757394
0.19027038316082734 0.1320159478701269 -0.16012868925817195
0.18792505959820527 0.13215148883234615 -0.1570203517366189
0.19255550603222626 0.13392001824747676 -0.1591059629607934
0.18981738786053437 0.1345440788782751 -0.15572937473542872
0.18483092288326997 0.1341979547060644 -0.15966311737783137
0.18859549264263886 0.13460845189463252 -0.158490276782586
0.18710555533718842 0.13754243092905635 -0.15632521256692591
0.18937029342007416 0.1366444869555151 -0.16035150632150355
0.1868098566944577 0.1280293210066473 -0.161449021546914
0.1866619179661252 0.1282274170435583 -0.16115734621770564
0.1887029598171689 0.12386587696444148 -0.16163452610261622
0.1859551260883786 0.1285684748209631 -0.1594929908204812
0.18561359147381562 0.1288070126093542 -0.15901978954560939
0.18679280976605195 0.1262595398939764 -0.16068146273381892
0.18720449904751557 0.12638104396235103 -0.16174224659688655
0.187485415738342 0.12745851712595577 -0.16108979925401393
0.1869322250301816 0.12951824503313655 -0.1640159104753274
0.18804176549267548 0.16352475123774166 -0.16594520851857844
0.18769289950680512 0.16419184642206783 -0.16204359277970973
0.18473293284725922 0.16533571915995235 -0.16533935710675898
0.19075920085263032 0.16697711186777706 -0.16076103493459407
0.18887670735668916 0.17031538920771236 -0.1569019620109338
0.1855291316921689 0.1699088855303442 -0.16234128817804042
0.18795349101376313 0.16625100808512325 -0.16479296132810298
0.18799032668423432 0.17516535954844112 -0.16203983768708888
0.18833049039196748 0.17243957953821773 -0.16789518937356654
0.18948878745388764 0.1786705894983923 -0.16418660327680293
0.1874488184864499 0.16172814803492183 -0.16514406248815242
0.18645270566296357 0.1608475490130102 -0.15958269581086817
0.1825652907307126 0.16424769597422237 -0.16316061362512294
0.1881834457333066 0.1680063648737585 -0.16006041213758174
0.1860268304760434 0.17028618293177242 -0.1553838019061822
0.182429183524368 0.1707285090006506 -0.16115977510698024
0.18514027098965424 0.16728491025339717 -0.1629363958526391
0.18511315087628144 0.17558312850367183 -0.16045153781659785
0.1865463445599057 0.1744995756663 -0.16564760252721492
0.18720801572155732 0.15564734177958126 -0.1671081249404687
0.1872593949253537 0.15550607877146358 -0.1647168312955636
0.18690570096325654 0.15746987300287837 -0.16448656365163508
0.1884408781940915 0.15778917508494014 -0.16220926388986293
0.18863411645245332 0.15850300031077022 -0.15983807191140834
0.1865127275402524 0.16135150628458614 -0.16155914112813655
0.18533786038708466 0.15292573409449214 -0.16482178017385188
0.18574114541363496 0.15895736651789302 -0.1624786619830865
0.18914916018795747 0.1614707751787817 -0.1667753373075265
0.19222279290509003 0.18249822097193355 -0.1626200740028161
0.1900413225109555 0.18409073787104244 -0.15925150260217372
0.18727608422589082 0.18395644860636348 -0.16293018206842128
0.20108957986187714 0.18189216094385738 -0.1619443361449975
0.1977596471722104 0.18353724913965816 -0.15835574909932795
0.19228162268948334 0.1834790154017126 -0.161992571203782
0.20026506881069916 0.1833593888796484 -0.1639837239671487
0.19776799182247895 0.18698698716532344 -0.16101925715692225
0.1932260582859494 0.1855549259699499 -0.16522905871160212
0.1886680910999753 0.1823600574053442 -0.15956438228376094
0.18593009213757294 0.1832971020258581 -0.1557061438251275
0.18136944274258393 0.18369734721552486 -0.1600079749513406
0.19804938535046357 0.1817717595614111 -0.1594375435996789
0.19402732352566499 0.18332273202311153 -0.15560240194089595
0.187767762940643 0.1831910653628027 -0.1596322868753213
0.1954606364185788 0.18447733359705562 -0.16046916589029017
0.19165017108273286 0.18765712218653316 -0.15657944127805415
0.19008560876202363 0.185863260797373 -0.16151287302262965
0.18604948024105805 0.1784145279444372 -0.16097063466794673
0.18540890912365693 0.17912990289103145 -0.15971261903531733
0.18479581574749726 0.179030243924967 -0.16175465926416102
0.18977477053951997 0.17824495273005123 -0.15978418931253138
0.18895645837139863 0.17907721238505 -0.15844467922933284
0.18709768752407807 0.17939490514170284 -0.16085912927873317
0.1904569456989743 0.17908895450007076 -0.1616052453208703
0.18940164546322602 0.18177032904993648 -0.15997198864705744
0.1870714614803769 0.18168241219889278 -0.16290021583326045
0.18337722520184296 0.1481224937952673 -0.16975527152307215
0.18266468147587556 0.14859605269800777 -0.16813642427213374
0.1795893202240445 0.14827353196512813 -0.17119146034009639
0.18674387435269135 0.14805889563929195 -0.16809441789872828
0.18586887816738862 0.14869773822199459 -0.16643499478585902
0.18226053218197602 0.14800370173822994 -0.1694381152082223
0.1852997134144284 0.14888191657435054 -0.16729854687936488
0.1846833417828061 0.15022159057032222 -0.1664418195176858
0.1849613974506833 0.1497113152064001 -0.1694589768338937
0.18244643906903046 0.1484193845308935 -0.1696202372003335
0.181920994323013 0.14854771333109493 -0.1680500720430154
0.17896844844174165 0.1484622998751318 -0.17050849541909877
0.18580033282589692 0.14896959500681514 -0.16823539778478327
0.18484314183544892 0.14942461686503047 -0.16638015851266566
0.18075319032025117 0.14874023633371944 -0.16882675036676112
0.18125959138226289 0.1505062623537695 -0.1661703352618951
0.18091796736073273 0.15185636716257686 -0.16516888782270137
0.18220360974621552 0.1515043421305334 -0.16812016710527125
0.17896135548901337 0.1478654785669958 -0.16833142086751643
0.17943950394940156 0.14703923898111934 -0.1692283664632577
0.17949237326931733 0.1465515537775671 -0.17031686648614588
0.1789862404282071 0.14789200263392085 -0.16814347252137843
0.17943992118191499 0.14707911448847408 -0.16904631897695246
0.17942555646252412 0.14662743049036617 -0.1701150749612588
0.18222634891819733 0.1484150333918249 -0.1702231083799142
0.1819183419163205 0.14662874179255123 -0.17076643451936427
0.18328102330517548 0.14860415892969722 -0.1717421625543374
0.1851278136188962 0.1590538068331396 -0.1698120896507043
0.17311795453381318 0.13033661680590267 -0.1813063387561578
0.17459039787602204 0.13031122522722835 -0.1824936185766
0.17269422511410493 0.13031235771547908 -0.18128608807809535
0.17420237163853425 0.13029328422915096 -0.18251114234216395
0.1791412721092679 0.1307238085783636 -0.18224102899320307
0.1794171224052884 0.1301401002920782 -0.18456519290692988
0.17842804292988557 0.12925795154940242 -0.18286517903096858
0.173131007951019 0.13070166545282955 -0.18163140758760157
0.17457907299351472 0.1307286365545904 -0.1827144537854928
0.1728069076950528 0.13066700535189266 -0.18159555539376918
0.17428492407154816 0.13069510894190425 -0.18270800158269587
0.17897324661564606 0.1307824297465002 -0.18231884285695735
0.17933346728634614 0.13044897156130428 -0.18487381085641566
0.17774655322384614 0.1295162184752142 -0.18323355063684169
0.17036851147961396 0.12943682508837337 -0.1785687123227853
0.17219104270291108 0.12740505175959224 -0.1803236667800683
0.16735898355793732 0.12691751556765193 -0.18147867068536463
0.16833861569714326 0.1307616277254736 -0.18151276454217616
0.17027973036122102 0.12826511698137874 -0.1833749328542489
0.16705106596302766 0.1275236053980505 -0.18528311595208827
0.1715503523762204 0.13144159751307125 -0.18219659373052302
0.17017503480267304 0.12814835148226375 -0.18348776444680873
0.17425911526036042 0.12853822546373958 -0.1822419528651971
0.1699823627884366 0.1300294144667303 -0.17838285013921443
0.171460766595123 0.12728581266771907 -0.17983624979741755
0.16640077928852814 0.12714806633364314 -0.1808221404243249
0.16817133526158112 0.1316075964487707 -0.18186641380078974
0.1697185526306607 0.12836876945864314 -0.18346404179818812
0.1663499961311795 0.1279290361918127 -0.18521661206968013
0.17045556406330842 0.13183618026148433 -0.18209557875878993
0.16919993261647004 0.12814343409906978 -0.18318640336282435
0.17269273499798554 0.1291034563101446 -0.18231248006112757
0.19465013245892304 0.16224712567698116 -0.16271548613794032
0.19315232734036225 0.16393697696100826 -0.15944381698854151
0.1910581181461789 0.16286892133127803 -0.16260468110330287
0.1996163914616086 0.16252708869349117 -0.15984674438722316
0.1974992344791867 0.165078405908457 -0.15657026216275874
0.1933856795246579 0.1649415536440527 -0.161159834711625
0.19763352374386567 0.16353470521341915 -0.1617067222286004
0.1971304009373166 0.16921472983729 -0.15951012715585414
0.19604809979748505 0.1677116199053442 -0.16490048810727778
0.19779558877300996 0.17194891410242671 -0.16095573350675288
0.19398935536694306 0.16086900668512935 -0.16229083284623805
0.19229986171078461 0.16132367091547603 -0.15832770511396113
0.18924566010784882 0.16155392365824336 -0.16165500029809657
0.19779391984295625 0.163003210595957 -0.1597933386255044
0.1954066346104123 0.16480339007746334 -0.15588305041082087
0.19034584264111298 0.1651788993395483 -0.16072188958413783
0.19414444665264863 0.1654130859888708 -0.16036357626207057
0.19348504046749848 0.1701784773386633 -0.15831959888227168
0.1942857096607663 0.1693040771998083 -0.1627310131479043
0.1972352455074765 0.17866659598719234 -0.1584070090938348
0.19077606896710175 0.15788901286493892 -0.1611446206260461
0.19025226334881562 0.1587668104685461 -0.16037627205140773
0.19130899409603852 0.15668148236643428 -0.16170089587457362
0.19217725495648164 0.158577625326029 -0.1590686653543252
0.19130219916653413 0.15970564322840328 -0.1575897698093194
0.1909094045574643 0.15924162106882686 -0.15994260355718318
0.19149025182080048 0.15582174497019405 -0.16106406494863215
0.19232692221951264 0.1590671582735693 -0.16013372585065547
0.19304253558468598 0.160994355253092 -0.16373031481988612
0.19580813149761933 0.16995275454889888 -0.16129150137193385
