ply
format ascii 1.0
element vertex 226
property float x
property float y
property float z
element face 0
property list uchar int vertex_indices
end_header
0.18720730046582001 0.12900475101839656 0.18366281047575292
0.18252854446720856 0.1300194604910528 0.18755696073286351
0.17941527466130036 0.1289707763708746 0.18474844947569188
0.1954041908199765 0.1316284580744421 0.18223277583830175
0.19004853467297333 0.1299695714033758 0.1891228343557578
0.18262611727070588 0.12904593782793636 0.1856353665899497
0.1878254602367856 0.1317829533136999 0.18205455795042333
0.18815572957348603 0.13138425784479732 0.18709454789869603
0.18059049944233674 0.13170344071756954 0.18052167549841222
0.18547250727963227 0.13413268762003536 0.18819288268797216
0.18151180843662995 0.13385266499888057 0.19091156974546727
0.17897572020840424 0.13219285445582027 0.1887549544882041
0.19634230832409638 0.1346598310984289 0.18587473884336767
0.19138916234326142 0.13299537139307613 0.19090686097853002
0.18266450266194123 0.13260144429575557 0.18749294534437475
0.19010205964398164 0.13063022928606624 0.18711260810606298
0.18970002631497163 0.13045770364176387 0.190241315514968
0.18125610451054353 0.13275599913965816 0.18314168706648168
0.17822201947521943 0.13141423898111934 0.18366155877821264
0.17675419549298066 0.13147187667261714 0.18475983396284398
0.17753996352505463 0.130569790176264 0.18490687862150487
0.1794483552391507 0.13209182458292598 0.18322406068556127
0.17774726847958344 0.13198310571085567 0.184553899915145
0.17680283288311738 0.1310154541052496 0.1846655990194541
0.1784807632381894 0.13072419600855464 0.1837304021429282
0.17969434360813874 0.1302560909308111 0.18615470185987767
0.17674862245869416 0.13086078005205745 0.18347717180959996
0.1794887969906308 0.13213324981104488 0.18763057246916112
0.17806728581738251 0.1321721716440832 0.18865499749891576
0.17779882649731416 0.13045996861826534 0.18834916606657323
0.18312682608914155 0.1331872983492529 0.18630574002973851
0.1809556076939084 0.13279474215876216 0.1881634975980979
0.1779767463619687 0.13106930690180416 0.18789503827802953
0.1833497772629239 0.12976429300676937 0.1880961443495017
0.18335830072712678 0.12974298434626216 0.19029239669554052
0.17875279883694428 0.1308180137194311 0.18594888702146825
0.17800139288258332 0.17516601519953365 0.17483637586347875
0.17617576221775788 0.18026608662973995 0.17873678460829076
0.17525108556103486 0.17790985541712398 0.1734745885442954
0.18971892098736542 0.17722320990931148 0.17715264216177282
0.1847564766819455 0.18075555997263545 0.18280119553320226
0.18232269982647675 0.1780500455416357 0.17706240072958288
0.18955786923718232 0.17521983819376583 0.17081797972433385
0.1843670199329831 0.18424451785456294 0.17488191381208715
0.18135752181362885 0.17850870328318233 0.16949523344747838
0.18113179902386445 0.18163109259974117 0.17784715548269567
0.17806654075932282 0.1833058639086401 0.18224094167463598
0.17740236620259064 0.18287003474604244 0.17614040628187475
0.19382055501293916 0.1837682171381628 0.17640704766027746
0.1872109363491513 0.18443102078806514 0.18309752002470311
0.18530537585568208 0.182964090875498 0.17674685374014196
0.1910905430729367 0.17967600064646358 0.1741355444502097
0.18795760373425263 0.18441665606867427 0.17738191142790136
0.18616290788006562 0.18198335605036373 0.17205614701025304
0.17886241177868623 0.1783779902971899 0.1733336235594016
0.17755322555851716 0.17948371606241817 0.17621887579672155
0.17854814628910798 0.18102896647822017 0.1731008376192313
0.1830193887169339 0.18202853637110347 0.1733353222917777
0.18054728607487458 0.18283278184305782 0.17708141461126622
0.18217645983052033 0.18198889928232784 0.17457283392660436
0.18530567387890595 0.1790212436236059 0.17191780462972936
0.1828343460972287 0.18218088584314937 0.17470897093527135
0.18370910386395234 0.18123972850214595 0.17156393185369787
0.17814912299465913 0.15176701980005855 0.17927865043394384
0.17644562224697846 0.1542625470675146 0.18222210660688695
0.17835088471722382 0.15358907418619747 0.17972735419981298
0.1826282332355954 0.15389234261881465 0.18064759031050023
0.18011461595845002 0.15620679097544307 0.1843436743330222
0.18002878526997346 0.15453315215479488 0.1815774823736411
0.18327989081692475 0.15622991757761592 0.17809901490919408
0.17916997174572724 0.16166228490244502 0.18107915774099645
0.17939092616390961 0.15816820102106685 0.1778315688680869
0.18311100105595368 0.1552233739412939 0.1800189401220542
0.18204497198414582 0.15591383414637203 0.1834533597540122
0.18220241765332001 0.15595770316492671 0.18156574025862035
0.187870461743591 0.15872723298441524 0.18022806301824865
0.18511237601589936 0.1586430712259924 0.18535570159666356
0.1836890767033078 0.1573286099947607 0.18260718241445836
0.1831908712799527 0.1588150306261694 0.18081272497885045
0.18223233918499726 0.16162693934809322 0.1840065504621726
0.181755800050018 0.16031414704691524 0.1803366626810294
0.17957254151654023 0.15293354230295772 0.1791387285303336
0.179434079926727 0.15326166587244625 0.17961985722296056
0.18489320973706025 0.15418053107630367 0.1799597825121146
0.1800974796230771 0.15498972373377437 0.17935619607679662
0.17966883282017487 0.15527731614481563 0.18005067959539708
0.1845060775692441 0.15474933820139522 0.1811163212370139
0.1820854733402707 0.15536332564722652 0.17931694641821203
0.18126576046299714 0.15617657142054195 0.18085915699713048
0.18332516054463166 0.15668952899347896 0.18075610056631383
0.17968397239994782 0.155306939653269 0.18094740167372045
0.17914469937634248 0.1555961413897192 0.18197608843557653
0.1824480781967618 0.15597218709360713 0.18253550782911596
0.18238421181988496 0.15803903775583858 0.18046272650472936
0.18158196310353059 0.15788215833078975 0.18239242687933263
0.18296258549046296 0.15653115945231075 0.1837798739980918
0.181857038539169 0.15778536038767452 0.1818262423586112
0.1808257887775876 0.1588057919062292 0.183569111974166
0.1819127986843564 0.15954155164133663 0.18252156034223851
0.18463649253201264 0.13815737204920406 0.1814101125311118
0.18249415258717316 0.14366579490076656 0.1866169954847556
0.17998372415852326 0.14143562751185054 0.18061793699972448
0.1982307026798703 0.14092237191568965 0.1833227957796317
0.1914611647541501 0.14475715594660396 0.18976245179884252
0.18809976081204194 0.14170593457590694 0.18349100008718786
0.1937301347668149 0.1443871899164831 0.17645082727186498
0.18869646291088837 0.1552059097803747 0.18127826705686864
0.18448867301296967 0.14759219127070064 0.1754216338705283
0.1817459056789853 0.14540261464487667 0.18111894384138402
0.17727928261112946 0.14664495425593013 0.18644169822447118
0.17597724894833344 0.14595252709757442 0.18076772347204503
0.1934622118885495 0.14896643596064205 0.18018321052305517
0.18687732915234345 0.14868814187418575 0.18747434869520482
0.1830954740459897 0.14748204188715572 0.18067348852865514
0.18713899354290742 0.14819920497309322 0.1785886968683463
0.18399803737950104 0.15235269503962154 0.18241653695814428
0.18096097211193818 0.1504938645876562 0.1765188063692313
0.18065183262181062 0.14266932444941158 0.17782611504308996
0.1796154866631009 0.1436550064600622 0.18112737789861974
0.18020321826290864 0.14404386716257686 0.1781508113455039
0.18506880502056855 0.14629620747934932 0.177939810902999
0.1817812810356595 0.14718336301218624 0.18231145396940526
0.18122117618870515 0.14578754144083614 0.1795248176168662
0.1826960931236722 0.14649332003962154 0.17800662770979223
0.17985360721897858 0.14994562106501216 0.18076894536726293
0.18099306921314973 0.14825249152552242 0.17753613844625768
0.17797051767658967 0.14372134642969722 0.18196884647123632
0.17555694679569978 0.14401829676996822 0.18638656392805394
0.1751233528072812 0.14462644296061153 0.18201867595426854
0.18484993676495332 0.1484215899027502 0.18131772533170995
0.17991672853779572 0.14836091237436885 0.18747315660230932
0.17816208700489777 0.14688742595087642 0.18279520526640233
0.1818592439110257 0.14682478146921749 0.18088910833113012
0.1792165825779416 0.15016866164576168 0.18456170812361058
0.17886965374302644 0.14887166457544918 0.17997858777754125
0.18332587580036896 0.16190725999247188 0.17898366704695043
0.18128736714672822 0.16580826478373165 0.1831651414942008
0.17968880037617463 0.164681677392832 0.177891918570922
0.1925277898724057 0.16444617944132442 0.18010396614782628
0.18754651049923676 0.1680458231485998 0.18503151193373021
0.18492378691983002 0.16606110768686885 0.17966223612539586
0.1938199589664914 0.1624824448145544 0.17547587409727392
0.18801756600689667 0.17069703774820918 0.17948431626074132
0.18617012004208344 0.16600704627405757 0.17426277056448278
0.18057008485150117 0.16884667115580196 0.1793533648561698
0.1776652524883725 0.16960525946985835 0.18389204993955907
0.1758402476723172 0.1703496618784582 0.17780209437124547
0.19027449588131684 0.17251390653025264 0.17795930162184057
0.18469961385082978 0.17322999673258418 0.18384144559614476
0.1824734697754361 0.17172193961512203 0.17817110672704992
0.18889458875012177 0.16948861318003292 0.17598155990354833
0.18530585269284028 0.1735576434649145 0.1798796440672141
0.18374039630245942 0.1717227144755041 0.17444867745153722
0.1803507993633725 0.1646050854242956 0.17462254420034704
0.17952816585850495 0.1650834723032629 0.1768315221380454
0.17986102799725312 0.16706335978876705 0.1742568995069724
0.18001191715550202 0.17091566758524532 0.1755931462358695
0.17813884119343537 0.17181021409403438 0.1779490198206168
0.1792720446999051 0.17089254098307247 0.17629543796293554
0.1837612579281308 0.1687896295107519 0.1736366535734397
0.18018161157917756 0.17145866589914913 0.17684245959036168
0.18247817854237336 0.17108071284662837 0.1740897680830222
0.18198971847843903 0.13621271090876216 0.18584594979994115
0.1800654719288327 0.14009035067926998 0.19038669124357518
0.17806859711956757 0.1390337987459814 0.18484810844175634
0.19051959018063325 0.13831186728846187 0.1875337745260459
0.18600006799053925 0.1411387963808691 0.19360546127073583
0.18389387826275605 0.13883197741877193 0.18774853006117162
0.18761952618908662 0.1420381112612402 0.18348375812284765
0.1840821693356015 0.15076786713968868 0.1872818852972251
0.18135439256977814 0.14546609359156246 0.18216864124052343
0.18521513442349213 0.14224124389063472 0.18587354675047216
0.18139015535664338 0.14345431762110347 0.19125536933653173
0.1805828402454831 0.14305901961695308 0.18691680684797582
0.19289221267056245 0.14571553902994747 0.18627248063795385
0.18833507994961518 0.1452981277025854 0.19305370107405004
0.18543894986462373 0.14406174855600948 0.18772397294752416
0.18588973979306 0.14607423978220577 0.1856310154508811
0.1837804208214261 0.14966106849085445 0.189251222760604
0.18218543032955903 0.14803833203684444 0.18423209443800267
0.1823775360996701 0.1385549946345007 0.18272469297163305
0.18246727089237946 0.13933182196985835 0.18527970567457494
0.18427415589642304 0.14029682116877193 0.18428573861830053
0.18504877785992402 0.14194065766703243 0.1831900860380393
0.18283473352741975 0.1423856659449255 0.18674961581938085
0.18384658197712678 0.1411535783327734 0.18575350299589452
0.18154760102581757 0.14350915389429683 0.1840317632269126
0.18060021499943513 0.14564854340921993 0.1863050247740012
0.18148436049771088 0.14514953332316036 0.18426779762022313
0.18224405149769562 0.1399357958353674 0.18666467920057592
0.18109496335339326 0.14004344182383174 0.19059667840711889
0.1814513693268277 0.1411755724466955 0.18814162269346532
0.18805118302655 0.14394695001017208 0.18659100785963353
0.1838041732723691 0.14365184741388912 0.1924601580213767
0.18355219463658112 0.14231157737146968 0.18955973640196142
0.18249683479618806 0.14469397502314205 0.18730107799284276
0.18149637083363312 0.147036675981394 0.19091115251295385
0.18100433449101228 0.1466382785357153 0.1871709014486533
0.17897065381359833 0.16090274291407222 0.17707163944952306
0.17727817992520112 0.1650960488833105 0.18098760500662145
0.17654492358517426 0.1643764420069372 0.17713133350126561
0.1874611566479184 0.16449284987818355 0.1783590699743491
0.18214030961346406 0.16808295684229488 0.18309120193235692
0.181053895753143 0.16576677995096797 0.179087408931182
0.18664481143307465 0.16586590247522945 0.1731977547716361
0.1815872679169156 0.17444283204447383 0.17726320877783117
0.18030144671749848 0.16910148101221675 0.17295397177450475
0.1818500647957303 0.1694368167437231 0.17459491744749364
0.1858953426296689 0.16834724383722896 0.17769939556829747
0.1836130509788968 0.16950351434122676 0.1828233684610587
0.18280466298413056 0.16998213963877315 0.1781972731661063
0.1933343599255063 0.1731073899782812 0.1775029386591178
0.1882686803753354 0.17382598357569332 0.1834707643102866
0.18702795008969086 0.1719300790346777 0.17864159599058446
0.18974866370510834 0.1723231716669714 0.17545057192556676
0.18852790097546357 0.17587995963465328 0.1794208969187003
0.18585934142422456 0.17399228053461666 0.1744918312143546
0.1828098783905484 0.16305780845057125 0.17561111703626928
0.1825659761841275 0.16351217465769405 0.17835915938131627
0.18443186978649873 0.1653946681536352 0.1773907627176505
0.18312384585690278 0.16920131879221553 0.1762339855741721
0.1810963044579007 0.1697095675982153 0.17947001114599523
0.18235050539326447 0.16867036061655635 0.17878768697492894
0.18389051060032624 0.16793162064921016 0.17570946470014867
0.18149371842694062 0.1704758449114477 0.179143139274047
0.1829649100716092 0.16970777945887203 0.17661053791754064
