ply
format ascii 1.0
element vertex 342
property float x
property float y
property float z
element face 0
property list uchar int vertex_indices
end_header
-0.040429181141639875 -0.07544530286766042 -0.05388991051552997
-0.04202652601697557 -0.07453341140724172 -0.05180830770371662
-0.04270238308408372 -0.07493931903816213 -0.05489389115212665
-0.03452164558866136 -0.07479641690231313 -0.05356250220177875
-0.03673378257253282 -0.07415533914543142 -0.051216224964840275
-0.04113123445012681 -0.0742045427796935 -0.0549012821280788
-0.037382072491432355 -0.07666767492271413 -0.05562610441086994
-0.0391016068885576 -0.0754245306489562 -0.053430805739147526
-0.04346261052587144 -0.07509420170761098 -0.05798460059998737
-0.04023928074338548 -0.07360459222770681 -0.05487249308465229
-0.0422223868797075 -0.07249183311439504 -0.05251390748856769
-0.04231465486981981 -0.07289419426895132 -0.05575175100205646
-0.034112549109245466 -0.07342753663040151 -0.05471045785783039
-0.03660041717984788 -0.07276544823623647 -0.05222968273995624
-0.04086977867581956 -0.0728438581464385 -0.055944005783779484
-0.03717804579236619 -0.07468903913475027 -0.056554714974148136
-0.03893566755750291 -0.07346017017341604 -0.05429206305382953
-0.04334110645749681 -0.07309276714302053 -0.05893660598633991
-0.04358596233823411 -0.07653618707633962 -0.05255479627488361
-0.043967283053184675 -0.07572803750015249 -0.05150933080552326
-0.043506151718879865 -0.0752196098802184 -0.05319271498559223
-0.04154056934812181 -0.07501701369262685 -0.05157742911217914
-0.04244742421605699 -0.07455853476501455 -0.050248334940655094
-0.04310665158727281 -0.0746942843434905 -0.05290169530747638
-0.04232299952008836 -0.07697937741256704 -0.05400679522393451
-0.04367304472425096 -0.07583630933738698 -0.052122692402584415
-0.04713005451657884 -0.07527924432731618 -0.055767874058468205
-0.04133389024236314 -0.07128379597640981 -0.056988964613659245
-0.043653971237922834 -0.06978998436904897 -0.05430046730874286
-0.04288605479695909 -0.07000763072944631 -0.05756197386620746
-0.03606248526074998 -0.07048390164352407 -0.056577632960064274
-0.03883278994062059 -0.06968388810134878 -0.05400190764306293
-0.0419717195461046 -0.06992782011009206 -0.05773956590531574
-0.03879923252561204 -0.07201240315414419 -0.05849696212647663
-0.040668553395057844 -0.07069174303985586 -0.05614356213448749
-0.04497469095685594 -0.07031182303405752 -0.060787866648418766
-0.04895824818112962 -0.07866636767364492 -0.06155757122872577
-0.048774844689155744 -0.07875580444313039 -0.061853687103969913
-0.051227754635597395 -0.07876772537208547 -0.06273723655579792
-0.047080463452125715 -0.07846651329971303 -0.06099070125458942
-0.0468927982280504 -0.07854730739570608 -0.06126681977151142
-0.05062869815328233 -0.07840842857337942 -0.062493125733120304
-0.04705534009435289 -0.0807275558946227 -0.06318987422822224
-0.04743239907720201 -0.08040437951065053 -0.06283609085915791
-0.05070308474996202 -0.07958940520263662 -0.06563738995431172
-0.04688615231015794 -0.07883665814376821 -0.059454540547115665
-0.046433514637733625 -0.07905737414337148 -0.06011355930207477
-0.049958592934395 -0.07892797245956411 -0.06093216949341999
-0.04536200193860643 -0.07892657175041189 -0.05892483406899677
-0.044984466118599103 -0.079112299823532 -0.059583226975185734
-0.04937267927625291 -0.0788572813508605 -0.0606940489375423
-0.04517588643529527 -0.08121410860992422 -0.06129584723351703
-0.04545626668431871 -0.08101780071235647 -0.06111947708962665
-0.04887366919019334 -0.08012611522651662 -0.06379772239564167
-0.05057866005399339 -0.0788645233152007 -0.05762691312669025
-0.04994145659902208 -0.07924134387947072 -0.05839712434647785
-0.050915605110908674 -0.07904184713340749 -0.05867282563088642
-0.04999381927945726 -0.07868731870628347 -0.057267109688503605
-0.049356735033775495 -0.07904536380744924 -0.05807701760171161
-0.050776458067680524 -0.07886276497817983 -0.05847413354752765
-0.049113250059868024 -0.0804320658681487 -0.059759597119076115
-0.049119448942924665 -0.08042580738044729 -0.05975366645692096
-0.051994568390632795 -0.07933605566001882 -0.06188775115845905
-0.0491002264449846 -0.07714236631370534 -0.061398218210918766
-0.04889101414182298 -0.07724908843017568 -0.061702648934109074
-0.050800508541847395 -0.07725999608016958 -0.06247366481660114
-0.0474593105743181 -0.07678920879341115 -0.060870508488399845
-0.047261363549019025 -0.07687736406303396 -0.06117040925858722
-0.050370818657661603 -0.07678625836349477 -0.06223652773736225
-0.04713214067914598 -0.07886491074539174 -0.06294936948655354
-0.04745773105123155 -0.07856235756851186 -0.06266180687783467
-0.05061504868962877 -0.07771930947280874 -0.06535921507714497
-0.04610264925458543 -0.07641533865905752 -0.05368111544488178
-0.044413423819328474 -0.08067972316719045 -0.05684546643136249
-0.04617363838651292 -0.07652772321678152 -0.0537169080340694
-0.049633091969276594 -0.07881546869255056 -0.060226539906246525
-0.04805774120786302 -0.08521852745986928 -0.06556023174164997
-0.04921717075803392 -0.08017555727935781 -0.05972019844887958
-0.045655703825737165 -0.07617578759170522 -0.05340440088151203
-0.04402962951161973 -0.08021281018234243 -0.0562384825312923
-0.04570541409947984 -0.07619673862434377 -0.0535200040900539
-0.04467264441945665 -0.07360390677429189 -0.05816991144059406
-0.044348246140266584 -0.07367909803367605 -0.05863163882134662
-0.0449549320171129 -0.07402820243812551 -0.05876670294640766
-0.04386851815679185 -0.07356713070846548 -0.05794791394112812
-0.04353094725110643 -0.07365027918792715 -0.05839655810235248
-0.044823175949836896 -0.0739725316999053 -0.05866761022446857
-0.042474782748008894 -0.07526863470054616 -0.060373822983486515
-0.042785352749611066 -0.07498739018417348 -0.05983452015755878
-0.046806848330284284 -0.07401982798553457 -0.06213654094575153
-0.04520458607175462 -0.07437727704025258 -0.05744681769250141
-0.044795906824852155 -0.07452035799003591 -0.058030555781109196
-0.045731997771049665 -0.07471562280632009 -0.058268110092861515
-0.044470167441154645 -0.07432691111541738 -0.05719609075425373
-0.04406941561200731 -0.0744842971799468 -0.05776087456582294
-0.04559127120473497 -0.07464496149993886 -0.05812610202668415
-0.04250804213979356 -0.07616270437217702 -0.06007210427163349
-0.0430502357909929 -0.07578349962211599 -0.05951825791238056
-0.04714185623624437 -0.07479942693687429 -0.06181533151505695
-0.04671654729344957 -0.07358098878837575 -0.05809531622765766
-0.04650071887471788 -0.07369843974090566 -0.058683733280880314
-0.04454431561925523 -0.07367283954597463 -0.05802858882783161
-0.04650587467649095 -0.07347176327682485 -0.05793697648881183
-0.046250021738792585 -0.07360009207702627 -0.05851320439217792
-0.044655716700340436 -0.07367108120895376 -0.05797673278687702
-0.045949226898933576 -0.07404819979644765 -0.05970842653153644
-0.046067154688621686 -0.07391066207862844 -0.05942464881776081
-0.04973176745870225 -0.07277036561943044 -0.06092668586610065
-0.04617575435140245 -0.07159058108306875 -0.06162534170983539
-0.04611763982274644 -0.07160098209358205 -0.061703006561977726
-0.044589793963218854 -0.07199207797027578 -0.061717252072079044
-0.04512581853368394 -0.0713262046811675 -0.061475167807323795
-0.04508484034040086 -0.07133231415725698 -0.06152487808106647
-0.04482308654286973 -0.07182324781394948 -0.06169323140023456
-0.04444102076985948 -0.07235137476898183 -0.06307266169427143
-0.044783360047126936 -0.07202742352462758 -0.06242621951935993
-0.04871920375325792 -0.07109782948471059 -0.06461391859887348
-0.04018122581937425 -0.08479327812171926 -0.058882097538692814
-0.04318980006673448 -0.08233762636161794 -0.055383275088054996
-0.04424289493062608 -0.08345467700935354 -0.05963019543526874
-0.028979933542991807 -0.0853461410043334 -0.056988308962566715
-0.03242779402234666 -0.08410803332305898 -0.05321879201768146
-0.03902492551305406 -0.08364871993041982 -0.05870340281365619
-0.03405452398755662 -0.08713109149909963 -0.060216824349148136
-0.0374195042083513 -0.08397353544212331 -0.05706373864052997
-0.03998378543355577 -0.08524335279441823 -0.06257612520097004
-0.041340446753288435 -0.07998863711334218 -0.05877001100419269
-0.04435972003438585 -0.0772088254926299 -0.05509115272401081
-0.04382047681310289 -0.07828015937782278 -0.05933127814172016
-0.031157976670051744 -0.0808285559651946 -0.05811444931863056
-0.03510052589871995 -0.07930735602355947 -0.05395553522942768
-0.04043296603658311 -0.07921300187088003 -0.05941415840028034
-0.035281664414192365 -0.08111501588798513 -0.060678998764736515
-0.038460022492195295 -0.07810408725715627 -0.05735803657410846
-0.04110113410451524 -0.07921687617279043 -0.06304458790658223
-0.04314080504872911 -0.08607284083343496 -0.056518654164059025
-0.04414567975499742 -0.08400390400863637 -0.0543008547389339
-0.044060236496711896 -0.08431262626625051 -0.057026962574703556
-0.03804225353696458 -0.08403850450492849 -0.05494163447259174
-0.039921647591377424 -0.08276838912940969 -0.052263120945675236
-0.041977411789680646 -0.08325890555358877 -0.0563586156928371
-0.039121574444557355 -0.08667118206001272 -0.0581952434146236
-0.041728532595421 -0.08383644475913991 -0.05523178988335834
-0.04367262749173753 -0.08477277412391653 -0.06005219632027851
-0.04140473036267869 -0.08032334699607839 -0.0608505111300777
-0.044447279257560895 -0.0775009478566741 -0.05714170151589618
-0.04403460649945848 -0.07864476098991384 -0.061465601261837345
-0.030867791456962754 -0.08117614045120229 -0.06023425870774494
-0.03485203413465135 -0.07968748464561452 -0.05600247794030414
-0.04049528269269578 -0.07951865448928823 -0.06153161340592609
-0.03520876793363206 -0.08156732573486318 -0.06279466563103901
-0.03847703961827867 -0.07852286949134817 -0.05943740421174274
-0.04114416865804307 -0.07965714588142385 -0.06515393668053852
-0.042911327166343854 -0.07681021943069448 -0.05290947371361957
-0.04609907297589891 -0.0737395073411559 -0.04902733379243122
-0.04710183171727769 -0.07489041342712392 -0.05387697630761371
-0.03088635830381029 -0.07696084036804189 -0.05161572509644733
-0.035043603462959455 -0.07570449366546621 -0.047118316229565006
-0.04246420292356126 -0.07509640707946767 -0.05313582235215412
-0.037448561472679304 -0.07690847768760671 -0.05464826041100727
-0.04113180069425218 -0.07408512487388601 -0.05125651770470844
-0.04446352152326219 -0.0750733400819396 -0.05716438108323322
-0.042973524613166975 -0.07131479039169301 -0.05284501129029499
-0.04686388997533433 -0.06740910663581838 -0.048515687521679264
-0.046654618067527936 -0.06847322835899343 -0.05351997428773151
-0.032157635969902204 -0.07086519255615224 -0.052385608490688663
-0.03691030172803514 -0.06941259756065359 -0.04762373381493793
-0.04317415384748094 -0.06908536806083669 -0.05356598907349811
-0.03817743687131517 -0.07066858663536062 -0.05470238142846332
-0.041691279692436384 -0.06796918168045034 -0.05120311194298969
-0.045090085549141096 -0.06878412618614187 -0.05722258501885639
-0.04628214864232652 -0.07792312755561819 -0.05064160638688312
-0.04817459611394517 -0.07490415229774465 -0.04776976519463764
-0.04770887522199266 -0.0753170038697814 -0.05130736046670185
-0.040578937811638044 -0.07480613245941152 -0.04933814221261249
-0.04316858081319444 -0.07337726011253347 -0.04608924203751789
-0.04550579814412706 -0.07392758979774465 -0.050905625160915714
-0.042504763884330915 -0.07706479086853017 -0.05245597177384601
-0.045527941269661115 -0.07447318091369619 -0.04918233567116962
-0.04858080176808946 -0.07509864225364675 -0.05447805934785114
-0.04298085598447435 -0.071660705947647 -0.05494175368188129
-0.046904093308235334 -0.06772891535736074 -0.050584147509319645
-0.046843564791465925 -0.06885419144607534 -0.05564422422288166
-0.03194228438832872 -0.0712220455644225 -0.05448100977776752
-0.036627298874641584 -0.06983793630577077 -0.04967854433892475
-0.04323658971288316 -0.06942100181556692 -0.05568469577668415
-0.038088625950599836 -0.07108000769592275 -0.056847373779995304
-0.041714793724800275 -0.06834925069786062 -0.053305755194408756
-0.045138961357856916 -0.06918529524780263 -0.059355358418209415
-0.031995064301277326 -0.07323337450004568 -0.052719334896786076
-0.034923589510704206 -0.07322470202423086 -0.0481985610091518
-0.04316810397603624 -0.07276401772476186 -0.05357346945641742
-0.019602632803703477 -0.07086814298606862 -0.05095715337632404
-0.022604501528526475 -0.0713337148664092 -0.04745153599618183
-0.03453186778524034 -0.07002351536727895 -0.05338172131417499
-0.021713710112358262 -0.07549802317596425 -0.053343127306682926
-0.026072240156913926 -0.07400599970794668 -0.05012256914017902
-0.03324935464360826 -0.07342193379379262 -0.05591065698502765
-0.03397942213513963 -0.06972811474777212 -0.05210823827622638
-0.03806442646482103 -0.06939090146995534 -0.047234575089199406
-0.04449245957830064 -0.06936476483322133 -0.05262283497689472
-0.02223966149785631 -0.06722293152786245 -0.05133912974236713
-0.025366252941871812 -0.0678186203477477 -0.047377477225048405
-0.03701079515912645 -0.06653548135734548 -0.05344654136536823
-0.02695188550450914 -0.07073096289611806 -0.05341164284585224
-0.031137115044380357 -0.06930784239746084 -0.050463626917583805
-0.036969459337974714 -0.06904433026290883 -0.0562329094970058
-0.03680256633260362 -0.07323778524375905 -0.050107757385952335
-0.04003781704404466 -0.07281408562637319 -0.046183924015743595
-0.04530415563085191 -0.07292247667289724 -0.05047632270692096
-0.027582472843910386 -0.07304231181121816 -0.04889310413239704
-0.03008330492475145 -0.07317472352958669 -0.045651803549511295
-0.04017931847074144 -0.07213554635025014 -0.05079651885865436
-0.03083113460042589 -0.07480422511077871 -0.0511168640219997
-0.03423998383977525 -0.07340324773765554 -0.04844866209862934
-0.03945848969915025 -0.07318986310935964 -0.053509305056316715
-0.03488317756154649 -0.07036043062187185 -0.051923046644909245
-0.038514739556099103 -0.07007605686164846 -0.047310869034511906
-0.044696069044853376 -0.07003183021522512 -0.0523947280013393
-0.023865974230552842 -0.06856528773284902 -0.051090399559719425
-0.026480263752723863 -0.06910369648910512 -0.04729236179230915
-0.03799144057729356 -0.06778655304885854 -0.05318314844010578
-0.028641408962989976 -0.07149473681426992 -0.0531273882949184
-0.03252322105863206 -0.070073791885147 -0.050344387825710636
-0.03792554764249437 -0.06988454713798513 -0.055916826065761906
-0.039796060604835676 -0.07827178492523183 -0.05396632367013202
-0.04076159624555223 -0.07849762692428579 -0.05215350800393329
-0.047641939205909895 -0.07842186942077627 -0.054804871615154606
-0.03448883323171251 -0.07724622740722646 -0.0531770389640163
-0.03523776559331529 -0.07756311550117483 -0.05144695454476581
-0.04449585704305284 -0.07702044501281728 -0.054867218073589664
-0.032629078907753156 -0.0797790969846343 -0.05444766097901569
-0.034025287909294294 -0.07915900006271352 -0.053008983668072086
-0.04109767703511827 -0.07830346479392995 -0.05717928224442707
-0.04041129974820726 -0.07687521829582204 -0.05490622931359516
-0.04158947495916002 -0.07711724295593252 -0.052825252350551945
-0.04804069427945726 -0.07715413823104848 -0.05549586826203571
-0.035010612292076276 -0.07567218794799795 -0.05426607542870746
-0.03586367396810167 -0.07605413451171865 -0.05239976459382282
-0.04482722906568162 -0.07565323367095937 -0.05575201922295795
-0.034529573006416486 -0.07870609416938772 -0.055602977808697086
-0.03596550850370042 -0.07812134280181875 -0.05421761685250507
-0.042500382942939924 -0.07740474596000661 -0.05836675577996479
-0.04518363503911607 -0.07858047738052358 -0.05154720955727802
-0.04573572306134813 -0.0785734142301177 -0.05063025170205341
-0.04981238274076097 -0.07884437694526662 -0.05215875321267353
-0.0417779448459398 -0.07887206330276479 -0.051120678719265324
-0.04235792784192674 -0.07889495148635854 -0.05020896607278095
-0.048250860256935285 -0.07888189806915273 -0.05232153349755512
-0.0420499506423723 -0.08058912410713186 -0.052704999979717594
-0.0432277682254564 -0.08002946629501333 -0.05175081902383075
-0.047666257900978254 -0.07948345794654836 -0.054945061739666325
-0.04311276106336229 -0.07559589400268545 -0.05388412886498676
-0.04428560165860765 -0.0756177987096404 -0.05216158443330036
-0.04899430899121873 -0.07588208570457448 -0.054364572104198795
-0.038511759323860334 -0.07475049152351369 -0.05354608112214313
-0.039547032398964094 -0.07495919718719472 -0.051838229235393864
-0.04706070451238267 -0.07472712650276174 -0.05485988670228229
-0.04033047584989183 -0.07719824566818227 -0.05492193513749347
-0.04191351561048143 -0.07650316610313405 -0.053743551310284
-0.046507871432090925 -0.07611922278381338 -0.057558248575909
-0.04196587829091661 -0.07595310463882436 -0.05429554992554889
-0.04293141393163316 -0.0761789764402007 -0.05248273425935016
-0.049811786694313215 -0.0761031891343688 -0.055134097870571476
-0.0366587403247606 -0.07492754712081899 -0.053506205614788395
-0.03740758327939622 -0.07524446501708974 -0.05177618080018268
-0.04666573433377855 -0.0747017945287322 -0.05519641452668415
-0.03479892639615648 -0.07746041669822683 -0.05477688723443256
-0.03619510559537523 -0.07684031977630605 -0.053338209923488956
-0.04326752452352159 -0.07598478450752248 -0.05750850849984394
-0.04258111743428819 -0.07455653800941457 -0.05523542576668964
-0.04375932244756334 -0.07479856266952505 -0.053154478605968815
-0.05021054176786058 -0.0748354877469634 -0.05582509451745258
-0.0371804597804796 -0.07335353746391286 -0.054595271881801945
-0.0380334916541826 -0.07373548402763357 -0.05272899084923969
-0.04699710635640733 -0.0733345533845519 -0.05608121567605243
-0.03669942049481981 -0.07638744368530263 -0.05593217426179157
-0.03813538579442613 -0.07580269231773366 -0.05454681330559955
-0.044670200629020856 -0.07508612527824392 -0.05869595223305927
-0.04735348252751939 -0.0762618268964385 -0.05187643581269489
-0.04790557054975145 -0.07625476374603261 -0.05095944815514789
-0.05198223022916429 -0.07652575626350393 -0.05248794966576801
-0.04394779233434312 -0.07655341281867971 -0.051449904974682194
-0.04452774552800767 -0.07657627119995107 -0.05053816252587543
-0.05042073754766099 -0.07656321778274526 -0.05265075975297199
-0.04421979813077562 -0.07827044382072439 -0.05303419643281208
-0.045397615713859724 -0.07771081581092824 -0.052080015476925236
-0.04983613519170396 -0.07716480746246328 -0.055274287995083195
-0.045282638354087995 -0.07327724351860036 -0.05421332531808124
-0.04645541934468858 -0.07329911842323293 -0.05249078088639484
-0.051164126677299665 -0.07356340541816701 -0.054693798359615665
-0.04068163661458604 -0.07243184103942861 -0.053875277575237614
-0.0417169096896898 -0.07264051690078725 -0.052167425688488346
-0.04923055200078599 -0.07240844621635427 -0.05518911295769916
-0.04250029353597276 -0.0748795653817748 -0.05525116139291034
-0.04408342270352952 -0.07418448581672658 -0.05407274776337848
-0.04867768911817186 -0.07380057229972829 -0.05788747483132587
-0.041516042036796735 -0.09404165401435842 -0.05876914673684345
-0.0422909322211992 -0.08686090364433278 -0.05588881188271747
-0.04085544375875108 -0.08727888121582021 -0.059825043019039494
-0.036151415390754865 -0.08687517895675649 -0.055233309801800114
-0.037466651482368635 -0.08319328083969106 -0.05214873963235126
-0.038863456530357526 -0.08481810345626821 -0.05672834330437885
-0.03642023233869188 -0.08836672558761587 -0.062198559578640324
-0.03994197277524583 -0.08210582389808645 -0.058104912575466496
-0.042479402107978986 -0.08493460073448171 -0.0628605585658382
-0.03860003380277269 -0.08791891589141836 -0.05887399130700336
-0.039313233179832624 -0.08090759172416677 -0.05483506136773334
-0.036762690825248884 -0.0796560431954955 -0.05939413123963581
-0.033976799530769514 -0.07908336176849355 -0.05581716709969745
-0.03610751656987779 -0.07487131013847341 -0.052421281870586735
-0.036646670384193586 -0.07635740294433584 -0.05728955083726154
-0.03382972506978624 -0.07958529248214712 -0.06169051938889728
-0.0373102786968004 -0.07332218542076101 -0.057255844410641056
-0.039690828604484724 -0.07579884781814565 -0.06204585247872577
-0.03974554566838853 -0.09164423599220266 -0.05764390045045124
-0.03991020349958055 -0.08466778054214467 -0.05423865729211078
-0.03678215174176805 -0.08282507314659109 -0.05827049427865253
-0.03574440507390611 -0.0827400173184966 -0.05467874818680988
-0.037278241200233625 -0.07834491982437124 -0.05171839409707294
-0.03759217886426561 -0.07946167244888296 -0.05573679023621784
-0.036134100241447614 -0.08205480232215871 -0.06036625319360004
-0.039035475535179304 -0.07578770174957265 -0.05625052266953693
-0.04098028568723314 -0.07818252696968069 -0.060613195236904484
-0.04054082064130418 -0.0918955291745757 -0.05947114044068561
-0.041574245972419904 -0.08471981539703359 -0.05617098027108417
-0.03969929246404283 -0.0847643698690032 -0.06042222195504413
-0.03541610269048326 -0.08487612857795705 -0.056197444733364445
-0.03703168658712022 -0.08122418179489126 -0.05300132447121845
-0.038292175812507795 -0.0827695812223052 -0.05773330741761432
-0.03533954052426927 -0.08580739154792776 -0.06261936837075459
-0.03890133528211229 -0.07973004236198415 -0.05844117217896686
-0.04133019475438707 -0.08242920889831533 -0.06325579696534382
-0.04094696669080369 -0.09738800778366079 -0.059928933914883
-0.040889418406273054 -0.09723735704399099 -0.059904048975689274
-0.040327674431587385 -0.09345699205375661 -0.058317373331768375
-0.040625101609016584 -0.09435797586418142 -0.05752671771882282
-0.04059997825124376 -0.09416286005950918 -0.05747629218934284
-0.040348118824745344 -0.09158597245193471 -0.056072781618816715
-0.038703388256813215 -0.09340585126853933 -0.053218374785168034
-0.03856287030675523 -0.09199247612930288 -0.05286485963700519
-0.03874689964749925 -0.0907991017339324 -0.05222440772889362
