ply
format ascii 1.0
element vertex 306
property float x
property float y
property float z
element face 0
property list uchar int vertex_indices
end_header
0.15252810092470534 0.06234704599403391 -0.12288330012200581
0.1494643029739607 0.06417598471664439 -0.11870766692994343
0.14878290267488845 0.06461285696052561 -0.12094790750382649
0.15536206336519606 0.06634046778701792 -0.12047008686898457
0.15130835147402175 0.06817235693954478 -0.1156596344077419
0.14965611072084792 0.06745084271453868 -0.11891461425660359
0.15238367887041457 0.06795405492805491 -0.12265495472787129
0.15228950353166945 0.06992404804252635 -0.11897135787842976
0.1498145398666609 0.06926187024139414 -0.1232085924708675
0.1508720454742659 0.06768270478271494 -0.12361286097405659
0.14827238889238722 0.06891094789527903 -0.11962057166932331
0.14787059398195632 0.06942998514198313 -0.12111998611329304
0.1550529536773909 0.07061367378257762 -0.12230558210252034
0.15145366759798415 0.07144146308921824 -0.11729020887253987
0.14969544978639968 0.0708740864756013 -0.11990235262749897
0.1533555922081221 0.07088055357955943 -0.12362949066994892
0.1530762848427046 0.07232689008735667 -0.11997515970109211
0.15055298181078322 0.07229830966018687 -0.1241178315245937
0.14774995418093093 0.06661119208358775 -0.1251280408465694
0.14706223578951247 0.06683408365272532 -0.12354613357423054
0.14758979650041945 0.06851266965888987 -0.1214245360457729
0.14898537965319045 0.06831636176132212 -0.12404633575318562
0.14813720555803664 0.06863423333190928 -0.12246198469041096
0.14872937770388014 0.06903033599876414 -0.12057978921769368
0.148241930918907 0.06801166281723033 -0.12388152891038166
0.14868777366182692 0.06861569628738413 -0.12182692700265156
0.14742701621553786 0.06948860631011973 -0.12303797417519795
0.15210562320253737 0.06814169034980784 -0.09698767476914631
0.15097939343950637 0.06820674881958018 -0.09527162724374043
0.14453708501360304 0.06752722606681834 -0.09528268390534626
0.1532349524070967 0.06849374518417368 -0.09700844698785054
0.1520663437416304 0.06845029339813243 -0.09517018013833271
0.14514964194795973 0.06781115279220591 -0.09515769296525227
0.1621634897758711 0.07007115230583201 -0.09572793060181843
0.16129439445040114 0.07011061058067332 -0.09436790161965596
0.15335696311495192 0.07118775591873179 -0.0979589324557613
0.15294396253130324 0.06860446081184397 -0.09677876048920857
0.15179329486391432 0.06862168655418406 -0.09508187585709797
0.14481782289049513 0.06794150815032969 -0.09514756017564045
0.15439348788759596 0.06896033034347544 -0.09685880952714192
0.1530542311241377 0.06891506061576853 -0.09495050722001301
0.1455987629463423 0.06826617465042124 -0.09502680116532551
0.16215919824144728 0.06970741496109019 -0.09560147934792744
0.16138719888231642 0.06971909747146617 -0.09437198453782307
0.15331744523546584 0.07094200596832285 -0.09801448398469197
0.14657323928377516 0.06711589441322337 -0.09567118697999226
0.14694237084886916 0.0670567070009614 -0.09615988546250569
0.14313399167559035 0.06615923986457835 -0.09467724972604023
0.14556395383379347 0.06651713595413218 -0.09561462217210041
0.14595245690843947 0.06643848762535105 -0.09608993941186177
0.14272474618456252 0.06564494118713389 -0.0948824685180019
0.15145140262148268 0.06711672887825022 -0.09534079843400227
0.15162723632357009 0.06707616791748057 -0.09582156949876057
0.1465087470581282 0.06738444314025889 -0.09661291056512104
0.14509075255892165 0.0698691819670106 -0.09529311471818196
0.1458053526451338 0.0696269784929658 -0.09650931769250141
0.14284014077684767 0.06916179404281626 -0.09456087165711628
0.14200460286638625 0.06921123609565745 -0.09541244321702229
0.14311706395647414 0.06879826531433116 -0.09671295696137654
0.14182537169954665 0.06868293032669077 -0.0954279106223415
0.14884685845873244 0.07207368955635081 -0.09588090592263447
0.14977061124346144 0.07186519250892649 -0.09700615220902668
0.14481341214678176 0.07210069046043406 -0.09683082514641987
0.15270190806887038 0.07015829429649363 -0.10367629938958393
0.15015762420198805 0.07172679052375804 -0.09961078577874409
0.14796602101824172 0.07182796940826426 -0.10180459433434712
0.155072563605522 0.07392006263755808 -0.10150323325036274
0.15172606082460768 0.07502522215866099 -0.09662280493615376
0.14863204331896193 0.07463636145614634 -0.10012904816506611
0.1557509836723555 0.0730226551058198 -0.10351491981385456
0.15329169602892287 0.07507526025794993 -0.09997350984452473
0.15053307385942824 0.07461815223716746 -0.10445825272439228
0.1529096898605574 0.07325815305732737 -0.10417262726662861
0.15063386531374343 0.07432659611724864 -0.10034591966508137
0.14873283477327712 0.07430498943351756 -0.10176188760636555
0.15711324782869704 0.07558356866859446 -0.10307980590699421
0.15415006251833327 0.07575326309227 -0.09782219940064656
0.1508051690628279 0.07542430505775462 -0.10082242899773823
0.15623676152727492 0.0750130926134492 -0.10411826783059346
0.15524362893602736 0.07611786470436106 -0.10091031604645954
0.152256720977043 0.07622476563476573 -0.10526068025468098
0.14713298650286086 0.07357277617477427 -0.10468507820008503
0.14657323928377516 0.07385595784210215 -0.10359154158471333
0.14733039708635695 0.07431813225769053 -0.10205177479623066
0.14900719495317824 0.07441379771255503 -0.10458747559426533
0.14841603608629592 0.07442977175735484 -0.10310451203225361
0.14870660872957595 0.07437264070533763 -0.10151384287713276
0.1496241626312483 0.07343729481719981 -0.10404289775727497
0.14936923356554396 0.07384278521560679 -0.102317849930508
0.14794247718355544 0.07451458916687022 -0.10395697766183125
0.1464813289215315 0.07459922776245127 -0.10521204286454426
0.14608805747530348 0.0748595212461854 -0.1043514113986324
0.14694046350023635 0.0753151093485261 -0.10260883980630146
0.14783632131121047 0.07525690541290293 -0.10508937650559651
0.14731728406450637 0.07540365204833994 -0.10394431167481648
0.14791613193056471 0.07538833365463267 -0.1021441917979549
0.14815162988207228 0.07482742414497386 -0.1044330399596523
0.1478044924309004 0.07521810278915415 -0.10294512921212422
0.14672982068560012 0.07580866560958872 -0.10430494957802998
0.15527247758409865 0.06006082043670664 -0.10123379045365559
0.15309827895662673 0.06126897678398142 -0.09811640792725788
0.14988064141771681 0.06122176990531931 -0.10032142215607869
0.1578869161178816 0.06285311923049937 -0.09993190580247151
0.15575247378847487 0.06363242015861521 -0.09604478889344441
0.15118431420824416 0.06342314825080882 -0.09877092653153645
0.159258776622032 0.06251417741798411 -0.10137648397324787
0.1566386160423506 0.06440140948318492 -0.09793163352845417
0.15362989278337844 0.06389351830505381 -0.10216827207444416
0.154888921694969 0.06263425097488413 -0.10183898621438252
0.15339075894853957 0.06332971797012339 -0.09910518937943684
0.15000449986956008 0.06313421473526011 -0.10039193445084797
0.15923582883379347 0.06433918223403941 -0.1014994483554195
0.1568735775520552 0.06437881932281504 -0.09725905471680867
0.15230458350679763 0.06393244013809214 -0.09951884561417805
0.15818636985323317 0.06424810633682261 -0.10178423934815632
0.15697615714571364 0.06545229897521983 -0.09883115702508198
0.15438621612093337 0.06526722655319224 -0.10285116248963581
0.1500034865905989 0.06263535366081248 -0.10228193813203083
0.14961265893480666 0.06285007939361582 -0.10151837283013569
0.14930259557268508 0.06282745943092356 -0.10054499917863118
0.15202599139711745 0.06336881861709605 -0.10235093050835835
0.151465648131584 0.06356703386329661 -0.10139111691354023
0.15029715867540724 0.06288208708786021 -0.10011256748078572
0.15117656560442336 0.06274291024230967 -0.1014655631148647
0.15123271317980178 0.06319054112457285 -0.10008371883271443
0.15082853408357985 0.06335355982803355 -0.10173303895829426
0.15073435874483473 0.06334455952667246 -0.11485917383073078
0.14767062039873488 0.06517352805160533 -0.11068351083634602
0.14698916049501784 0.06561037049316416 -0.11292375141022908
0.15356838078997023 0.06733798131965647 -0.11244593077538716
0.14951460929415114 0.06916990027450572 -0.1076354485118221
0.1478624281456221 0.06844835624717722 -0.11089048796532856
0.15058993669054396 0.06895156846069346 -0.11463079863427388
0.15049570174715407 0.07092159137748728 -0.11094717198250996
0.1480207976867903 0.0702593539717103 -0.1151844065749477
0.14907830329439528 0.0686802183153535 -0.11558867507813679
0.1464787063171614 0.06990846142791758 -0.1115964155757259
0.1460768518020857 0.07042749867462168 -0.11309580021737324
0.15325927110216506 0.07161121711753855 -0.11428142600892292
0.14965998502275832 0.0724389468195344 -0.10926608258126484
0.14790170760652907 0.07187162981056223 -0.11187819653390156
0.15156190963289626 0.07187806711219798 -0.11560533457635151
0.15128260226747878 0.07332434401535044 -0.11195097380517231
0.14875918002626784 0.07329579339050303 -0.11609367543099629
0.14595615239641554 0.0676087056162263 -0.11710385495064961
0.14526849360964186 0.06783156738304148 -0.11552197748063313
0.14579611392519362 0.06951015338920603 -0.11340040975449787
0.14719163747331984 0.06931387529396067 -0.1160221796595882
0.14634346337816603 0.06963174686454783 -0.11443782859681355
0.14693563552400954 0.0700278197290803 -0.11255563312409626
0.1464481887390364 0.06900914654754649 -0.11585737281678425
0.14689397187731154 0.06961315021537791 -0.11380277090905415
0.14563327403566725 0.07048609004043589 -0.11501384788392292
0.14969252915880568 0.06631275162719737 -0.09411821776269184
0.1476609048416365 0.06707691297554026 -0.09160901122925984
0.14487397046587355 0.06674697146438609 -0.09310535603402363
0.1511110600998152 0.06751527533554087 -0.09371704870103108
0.14896118016741164 0.068247399187317 -0.09098119550584065
0.1457571920921553 0.06765328989051829 -0.09237052017091023
0.15239685149690993 0.06993468747161875 -0.09426287823556172
0.15016531320116408 0.07089405403160105 -0.09163872414468037
0.14769368739626296 0.07057764277481089 -0.09459416085122334
0.14975755782625563 0.06780403003715525 -0.09385175519822346
0.14767038198015578 0.06849645719551097 -0.09139675908921467
0.14456521840593703 0.06811784849189768 -0.09279848152039753
0.15143697829744704 0.06910579547904978 -0.09359852486489521
0.1491783198883284 0.06974910841011057 -0.09093059116242634
0.1454939183761824 0.06911080226921092 -0.09214712196229206
0.15287410588762648 0.07074027404808055 -0.0936673384272884
0.1511941489746321 0.07148762688659678 -0.09108529501794087
0.14785503716966994 0.07149033889793406 -0.0941996973120998
0.14401763053438552 0.0671746645929719 -0.09257639461396443
0.1436362204124678 0.06729327783607493 -0.09213749581216084
0.14309143395922072 0.0669053410055543 -0.09205148630974995
0.14404898257753737 0.06720917568229685 -0.0925800901019405
0.14366494985124953 0.06732951746009837 -0.09213624411462056
0.143101447539543 0.06692825899147044 -0.09203893953202473
0.14415495963594802 0.06913860783599864 -0.09251696878312336
0.1440920171310652 0.0693891261579896 -0.09144646936295735
0.14358263583681471 0.06924965128921519 -0.09233827405808674
0.13989638658068068 0.0699541781904603 -0.09192428999779927
0.14042710633776076 0.069611004448166 -0.09265462571023213
0.1415658530761946 0.06981887564682017 -0.09204451256631123
0.13863282771608718 0.06813724980377207 -0.09235475474236714
0.13939987988970168 0.06766085968040476 -0.0933856468760799
0.14118903251192458 0.06863089547180186 -0.09363980108140217
0.13915573926470168 0.0715757523538972 -0.0942731004321407
0.13894366593859084 0.07163383708023081 -0.0940742295348476
0.13949101539156325 0.07170205459617625 -0.09384299331544148
0.1565492686798323 0.0635924850466157 -0.09147713595269429
0.1553004321624983 0.06439941272758494 -0.08956883364556538
0.1537089285423506 0.06490593299888621 -0.09140441828606831
0.15888720126650221 0.06523650035881053 -0.09084371739266621
0.15741943688890822 0.06609748945259104 -0.08865655475495564
0.15418129535219557 0.06621801004432688 -0.09021074586747395
0.15840422482988722 0.06707756862663279 -0.09247306996224629
0.15606271596453078 0.06864618406318675 -0.08947662526009785
0.15486025186083205 0.06781005010627757 -0.09239418321488606
0.15649490924379714 0.06473871216796885 -0.09180195146439778
0.15529447169802077 0.06546487555526743 -0.0898783307635616
0.1536655959655989 0.0658883367540742 -0.09176383429406391
0.15935313077471144 0.06608383998893748 -0.09138012939332234
0.15822851033708937 0.06678517804168711 -0.0894072454535793
0.154637092070793 0.06679620490097056 -0.09071288519738423
0.15868949265978224 0.06805472717308055 -0.09255723172066914
0.1560563978721846 0.06962909445785533 -0.08968318515656697
0.15556626887819655 0.0687276934149171 -0.09249723964570271
0.15164744229814894 0.06500904903434764 -0.09234712534783589
0.15151374907991774 0.0651503418447877 -0.09214449935792195
0.15212112041017897 0.06619512186073313 -0.0924841862284969
0.15258305640718825 0.06535848126434336 -0.09241915756104695
0.15241950126192458 0.06552570209526072 -0.09217442088959919
0.15256708236238845 0.06622462615989695 -0.092197160061581
0.15233969064257033 0.06610815868400584 -0.09245936089394795
0.15177887053987868 0.06659089670204173 -0.09143913799164997
0.15344094605944045 0.06660472497962962 -0.09220571332810627
0.1447534498741377 0.06957649335884104 -0.1219481926524471
0.1441835698654402 0.0699255977632905 -0.12078018003342854
0.14149081082842238 0.06928994402908335 -0.12047470622895466
0.1459799942543257 0.0706158791544343 -0.12180397921441304
0.1453851398994673 0.070837012386551 -0.12038434558747517
0.14202331872484572 0.06997119531654368 -0.11999551468728291
0.14633112521669753 0.07117622241996775 -0.12135044747231709
0.14575731130144484 0.071612558222046 -0.11978561693070637
0.14349585147402175 0.07167502388977061 -0.12220511847375141
0.14569919677278884 0.06947224483512889 -0.12276927643655049
0.14504795642397292 0.06981118664764414 -0.12159521394608723
0.14237546296617873 0.06904565439247141 -0.12101591640351521
0.1471110519935835 0.07054170117401133 -0.12272889428971516
0.1465092238952864 0.07063617453598033 -0.12120683008073078
0.14301257701418288 0.06970151410125743 -0.12059442215798603
0.14699816079637892 0.07129435882591258 -0.12203110271332966
0.14652692647478469 0.07164531097435008 -0.1205443840586971
0.1442736920883406 0.07180353150390635 -0.12292275839684712
0.1430665192177046 0.07246603713058482 -0.12423817330239521
0.14372151465914138 0.07213487372421275 -0.12499360257027851
0.14388942094347365 0.07219954476379405 -0.12170387321351277
0.14190095038912184 0.07208748803161631 -0.12414033227799641
0.14260482163927443 0.07167433843635569 -0.1248580020034145
0.14321833224794753 0.07230233297370921 -0.12197218352196919
0.14532720418474562 0.07012551174186717 -0.122606734570248
0.14549862714311965 0.06996142015480052 -0.12348584347604023
0.14492749543688185 0.07060339198135386 -0.12227351480363118
0.15657263370058425 0.06846939668678294 -0.09400723391412007
0.15569102139971144 0.06881471619628916 -0.09222869091866719
0.15268694730303176 0.06899883494400035 -0.09251604491112934
0.15868204207918532 0.07034724102043162 -0.09325806313393818
0.15731322141191847 0.07073511824630747 -0.09123809152482258
0.153874152617668 0.07014971122764597 -0.09157745056985127
0.15610563130876906 0.07139631257080088 -0.09321481996415364
0.15567057700655348 0.07227419958137522 -0.0913162630164455
0.15481304498216994 0.07186107978843699 -0.09428558760522114
0.15674942107698805 0.06959011302017222 -0.09441543632386433
0.15578668685457595 0.06988584146522532 -0.09265015536187397
0.1530644235183943 0.06995721802734385 -0.09275550657151448
0.15939157577059157 0.07110851154350291 -0.09389785939095723
0.15802317233583815 0.07133179054283152 -0.09183035307763325
0.15463798614046462 0.07065727458023081 -0.09200523310540425
0.15698819728395827 0.07184164867424021 -0.09376199060319172
0.15688692899248488 0.072529545879593 -0.09188223892091023
0.15545462937853224 0.07237156376861582 -0.09487549477456318
0.1507722076942671 0.07117243752502452 -0.09713093453286396
0.15088688703081496 0.07107742772125254 -0.09740419202683674
0.151016109900688 0.0716157172682191 -0.09586034232018696
0.1509136495163191 0.0712439332964326 -0.09706435614464985
0.1510265407135237 0.0711572085382844 -0.09732903056977497
0.151168697791313 0.07160731301330577 -0.09577951842187153
0.15086364121935256 0.07012274012588511 -0.09650061541436421
0.15084605784914382 0.07015239343666087 -0.09644437843201863
0.15104168029329665 0.07072793588661204 -0.09665812068818318
0.15097194285890944 0.07251118764900218 -0.1076623004042934
0.14858209462664015 0.07229827985786448 -0.10348580294488179
0.1417843040992964 0.07226856694244395 -0.10566158109544026
0.15435724826357253 0.07504161343597422 -0.10728968196748005
0.15120565267107375 0.07409074053787242 -0.10232273751137959
0.14377551646730788 0.07424556360267649 -0.10529402905343281
0.1591933903267134 0.07249977335952769 -0.10705328994630085
0.15657424302599318 0.0731035684111024 -0.10444776230691181
0.15005784602663405 0.07410862193130503 -0.10938821249840962
0.1525654730369795 0.07397737250350962 -0.10874779039262043
0.14987128348848708 0.07340573415779124 -0.10459778719781147
0.1431215343048323 0.07301982388519297 -0.10624329262612568
0.15703760953447707 0.07570072159790049 -0.10833899193642842
0.15374433370134719 0.07464869961761485 -0.10344500356553303
0.14534627767107375 0.07471119508766184 -0.10627524071572529
0.15907412143251784 0.07332392678283702 -0.10814417415498005
0.15659498544237502 0.0738967870237733 -0.10595757776139485
0.15118896337053664 0.07469754562400828 -0.11049191170571553
0.14655029149553664 0.07271423087142954 -0.1095774274432491
0.14609658093950637 0.07262577757858286 -0.10855765157578694
0.14218264194033034 0.07130130276702891 -0.10684485250352131
0.1480636534263838 0.07283960924171458 -0.10952077322839009
0.14736180873415358 0.07269742236160288 -0.10826424771188008
0.14304565759203322 0.07133104548477183 -0.10674808436272847
0.14919775100252516 0.07290380344413767 -0.10855735355256306
0.14875137181780226 0.07297744498275767 -0.10800756030915486
0.1448455390503157 0.07346939191841136 -0.1098205845916103
0.14564489694139846 0.07403352007888804 -0.10981304460404621
0.14530467362902053 0.07399590954803477 -0.10904038959382283
0.14173691840669997 0.07272239670776377 -0.10728318506119953
0.14637570949098952 0.0742644284727479 -0.10976410919068562
0.14599584908983596 0.0741990421774293 -0.10890922957299458
0.14211332173845656 0.07288887248062144 -0.10719657951234089
0.14798753829500563 0.07428862795852671 -0.10888619237778889
0.14770489306948073 0.07433532819770823 -0.10852519684670674
0.1439403829147566 0.07474600420021067 -0.11003921442864643
