ply
format ascii 1.0
element vertex 618
property float x
property float y
property float z
element face 0
property list uchar int vertex_indices
end_header
-0.16238649043803727 0.2404317856740871 -0.26237258950701176
-0.16534598026042496 0.24312496194361835 -0.25864628592958866
-0.16635341796641862 0.24211841830729633 -0.2622113589428943
-0.1563368872142366 0.24108737716197162 -0.2609277133130115
-0.1608847365117601 0.24379491815089374 -0.25720355550280033
-0.16343602392440354 0.24219197043894916 -0.2613584164761585
-0.15762172493701493 0.2414776087713161 -0.26334742347231327
-0.16040672216182267 0.24700915822505146 -0.25968799630632816
-0.1620318428016237 0.24344474086283832 -0.2635909382485431
-0.1606115535235933 0.24270200738429218 -0.25959352294435917
-0.16350217017894303 0.2430989147138515 -0.25640810171595035
-0.1655539557672075 0.24260294446467548 -0.2597801748894733
-0.15510149154429947 0.2452961803388515 -0.25984106103411136
-0.15900876972442185 0.2452813983869472 -0.2561160687588733
-0.1628138855433992 0.2443441153478542 -0.25966624061098514
-0.1588487759566835 0.24566149720667987 -0.25965580979814945
-0.1627729967570833 0.2487742305707851 -0.2567213837288898
-0.16371676180129563 0.24734008321284442 -0.2610125605248493
-0.16429538879161393 0.2398909331273952 -0.26142168680658756
-0.16521160158877884 0.24054086217402607 -0.25971687475672184
-0.16314576420550858 0.2401629091215053 -0.2616429988526386
-0.1623803809619478 0.24133139857768207 -0.26081237832537113
-0.16407780203586136 0.24214017400263935 -0.25898537675371586
-0.1627000555730394 0.24097037324427753 -0.2604382995747608
-0.16486501548057114 0.24261057385920673 -0.261129534640221
-0.16753689799075638 0.24457311639308124 -0.2590191427849811
-0.16430596861606156 0.24278754004954486 -0.2604174677514118
-0.16517546627288376 0.238206684679977 -0.2596115831517261
-0.16652597341304337 0.23869991311549335 -0.25746265689363895
-0.1652649924493364 0.23829174050807148 -0.2599957052849811
-0.16308773908381974 0.24014902123927265 -0.2592156294964832
-0.16492619964843308 0.24089241036891132 -0.2571333710335773
-0.1651157722211412 0.23949354896067768 -0.258860087790398
-0.1661141798234514 0.24175602206706195 -0.2590952877186817
-0.16892789158587967 0.24389928588389545 -0.25675151387682377
-0.16624547395473038 0.24217873820780902 -0.2587350670479816
-0.04335602972274338 0.26183390626429703 -0.28993049899568973
-0.04324394318824326 0.2617177964162746 -0.2900497380875629
-0.043288885090403906 0.26202404508113053 -0.289538479247002
-0.04235389683013474 0.2610684038114467 -0.2889733378075641
-0.042290596697383276 0.26100528249262955 -0.2890373829983753
-0.042732594940715185 0.2613338232946315 -0.28867126146784244
-0.03862744424109971 0.2597303987455287 -0.292975283064751
-0.03976693603759324 0.2612994910192409 -0.29148370663156925
-0.039379029009394995 0.26113611468791154 -0.2921521131180805
-0.04395115229850327 0.26208651074885514 -0.2895420853280109
-0.04378717992072617 0.2620362044286647 -0.28973505536547123
-0.0443524107671312 0.2610277534437099 -0.2912961308144611
-0.04216793033843552 0.26192587623118546 -0.2895084385060352
-0.041929452154689184 0.26185780772685197 -0.2897728745125812
-0.043501614067607275 0.2610569597196498 -0.29124564568033634
-0.04152124974494492 0.26138073215006974 -0.2895931963109058
-0.04189216944938218 0.262051522822372 -0.28881389538278995
-0.047801224920802465 0.2620492578458705 -0.2893337670945209
-0.045657126638942114 0.26118141421794083 -0.2913470033787769
-0.04496314975982224 0.26042908439158585 -0.29110369721880375
-0.04801696393256699 0.2621093989324489 -0.28950003425112186
-0.04592871520286118 0.2612085939359584 -0.2914801601552051
-0.04512920830016648 0.26049011954783585 -0.29128024617662845
-0.04720347974067246 0.26064169415949967 -0.2882385019444507
-0.04709070775275742 0.2603695989561 -0.28851521650782047
-0.04412880394225632 0.260180652232162 -0.28909320274820743
-0.04336994740729844 0.2621521950673976 -0.2902532283448261
-0.043191520903163305 0.26198208341120865 -0.2904537979744953
-0.0430873915887407 0.2615882159185329 -0.29056096712580143
-0.042388765547328344 0.261482298464767 -0.2894372705601734
-0.042273132536464086 0.26137566575526383 -0.28956404963961063
-0.042736469242625585 0.26105886706828263 -0.28981102148523746
-0.039593426916652075 0.2605822683286586 -0.292282677092461
-0.04056733700995957 0.26206004628657487 -0.2910050515317005
-0.039107321236186376 0.2612375021886745 -0.2920449737690967
-0.11033937189345872 0.25397902736186173 -0.2796953384064716
-0.11300161335235154 0.2633804679822841 -0.27355802694788395
-0.1166982189155153 0.2602252961110988 -0.2788808111332935
-0.09523904177909409 0.2542937398862758 -0.2786819402360004
-0.09888553473716294 0.26173263797282365 -0.27379179636469303
-0.10501441213851487 0.25760650643824723 -0.27878505627146183
-0.10084423277144944 0.25606703767298844 -0.284338808455376
-0.10185932967429673 0.26859104642390397 -0.2798932258271259
-0.10745256993537461 0.2598527074766078 -0.28394702712526737
-0.1093761608338884 0.253311812968246 -0.27255944053163944
-0.11472652706866776 0.2583903671216884 -0.2678304676198047
-0.11758607480292832 0.25745844850062516 -0.27440965811243473
-0.09817881736522233 0.2588977814626613 -0.27411407867899357
-0.10485119971995865 0.2612376810026088 -0.26907659212580143
-0.10748508426909958 0.25983065375804093 -0.2753587428711933
-0.10113054368262803 0.26101380595683243 -0.2771238748215717
-0.10561802837615525 0.26700228461741593 -0.27275965253344
-0.10748049471145188 0.2630849481534877 -0.27812064329615055
-0.10797457251315629 0.24495702991007953 -0.27634508053293644
-0.10998132679229294 0.24758774051188617 -0.269871628680138
-0.11188423487906968 0.25043022641657975 -0.2756471995495838
-0.10561460110908066 0.2536899448347011 -0.2747158471726459
-0.10999101254706894 0.2577238083791652 -0.27146343032350956
-0.10936143848662888 0.25554335126399186 -0.2754603985928577
-0.10608869645362412 0.25780922183512833 -0.27728388349047123
-0.10993680212264573 0.26596152791499283 -0.27384183446398197
-0.10933942947154557 0.2612532378148952 -0.2775075499199909
-0.06572735163932358 0.23955219993113666 -0.28481025139322697
-0.06673696491485154 0.24052613982676654 -0.2837060157441181
-0.06834229681258713 0.2399253250074306 -0.28506702820291935
-0.062269224259906164 0.2389083505582729 -0.28372380773058353
-0.06339800212150132 0.23936688909052997 -0.2820064191006702
-0.06626601371531998 0.23857855805873066 -0.2833666566990894
-0.06208634230857407 0.23848283299922138 -0.28655490914812504
-0.06296819302802598 0.24099016198634296 -0.28394243756761967
-0.06489336344962632 0.2394406796407619 -0.28580430785646854
-0.06498606357341324 0.23842096337794452 -0.2806648973607105
-0.06772351119285142 0.23908883342265277 -0.2788972024106067
-0.071271820399814 0.23873692759989887 -0.2825373176716846
-0.06050865206485306 0.23972684154032856 -0.2814279858254474
-0.06280581507449662 0.23966509112834125 -0.2795130077981037
-0.0677300975060991 0.23971718558787494 -0.28297389189234196
-0.06273953470950638 0.23841404923915058 -0.2824527684830707
-0.06432990584140336 0.23981839427470356 -0.2800886992596668
-0.0700939730144075 0.23764240750788837 -0.2829410497330707
-0.07035954150920426 0.23776251086711078 -0.2826577190541309
-0.0688064232802919 0.2366647721242824 -0.2839072410248798
-0.06926283094649827 0.23787832269190937 -0.28273794690599857
-0.06934402737384354 0.23792189368724018 -0.282576090493111
-0.06826668832068955 0.23676294097422748 -0.2836180988930744
-0.07048529240851914 0.23733419188975483 -0.2825886670731586
-0.07099850330119645 0.2382437587690273 -0.2813057963036579
-0.06792396161323105 0.23713940391062885 -0.2824968759202045
-0.06582639965777909 0.23846203097819477 -0.2816489998482746
-0.06808629486327683 0.2393532396268764 -0.27963999549379764
-0.07110175344710862 0.23905789861201435 -0.2830501262330097
-0.060017584297709814 0.23896265038966327 -0.2824974123620075
-0.062049134109073034 0.2391185761403957 -0.28023484984865604
-0.06675389263396775 0.23908424386500507 -0.28330499569406925
-0.06243024620776688 0.2378532887411037 -0.2833719019078296
-0.06433452520137345 0.2400696874570766 -0.28051728645792423
-0.06421132240062272 0.23819327363490253 -0.28353995720377384
-0.16143980476623093 0.25023472318171647 -0.2373668018960041
-0.16315941366916215 0.25204890975474503 -0.23171006778707923
-0.16619734320407425 0.25257492074488785 -0.23700342217913092
-0.15849433693652665 0.25449490556239274 -0.23378372827997626
-0.1615052953696779 0.25808990010737565 -0.22980997601976813
-0.16484273824458634 0.2563716174077907 -0.2355352703713459
-0.16143341216807877 0.2568816543531337 -0.23644599954119147
-0.16333977732425248 0.266166091055862 -0.2338892583035511
-0.16325983259444748 0.26108980187892106 -0.23841590324869574
-0.1611751750445894 0.25014561423777726 -0.2325309876584095
-0.16345687064891373 0.24910128125666767 -0.22776762286653937
-0.1574803427196077 0.2560717464399257 -0.2322364066027683
-0.16226833913093125 0.2565958500814357 -0.22704913357725562
-0.16585920605426346 0.2558815480184474 -0.23257233838072242
-0.1621643290257982 0.2580945492696681 -0.23340160290232123
-0.16438592824702775 0.2618717552137294 -0.22949550191393317
-0.1647023842073015 0.2603750229787746 -0.23365215102663459
-0.16374577436214005 0.24597716340541034 -0.23709566036692084
-0.1633731708264879 0.24467092761515766 -0.23365086952677191
-0.16301071498160874 0.24705344447611957 -0.2359077397965473
-0.16477978083854233 0.2507616878461757 -0.23521994689932288
-0.16604447219138657 0.251983106226913 -0.23206222692957343
-0.16668523702388321 0.25227510938166764 -0.23535293976297797
-0.16886006150012528 0.2531507016134181 -0.2357190612935108
-0.16985976550345933 0.25776994237422135 -0.23411167303553046
-0.1670623705125383 0.2571477890920558 -0.23598485330572547
-0.12852348241572892 0.24084311732768207 -0.2616467837475818
-0.1325159803367189 0.24419254073619037 -0.25811884442797123
-0.13725775334601914 0.2427336574506679 -0.2628266278885883
-0.1160495713687471 0.24245363482951313 -0.2607283655785602
-0.11768343899016892 0.2426723838758388 -0.2558214131974262
-0.1260825828052095 0.2412671447706142 -0.2614111963891071
-0.12054638418918168 0.24028050908564716 -0.2644340757512134
-0.12139011773829972 0.24342840919016986 -0.26047251264086185
-0.12630547437434708 0.24033212670802265 -0.265935784974007
-0.12961909029250657 0.24352890262126117 -0.2554844681405109
-0.13621960434680497 0.24529504785060077 -0.2519277397774738
-0.13989530358081376 0.2445492149305263 -0.2568834189557117
-0.11852715763812577 0.24475187072276264 -0.25699350873461185
-0.12313820276027237 0.24358546742915302 -0.2526254717492145
-0.13116805109744584 0.24418050059794574 -0.25760824123850284
-0.12483566853766953 0.24337583789347797 -0.2561585668705982
-0.12558370682960068 0.2440449596357265 -0.25345469156732975
-0.129322095248752 0.24378043422221332 -0.25890935102930485
-0.13435032818084275 0.24050819882868915 -0.25966185966959415
-0.13459536287551438 0.24132645139216571 -0.2583179537438434
-0.13756897899871384 0.24123239526271015 -0.26039907971849857
-0.12859526130919968 0.24104428300379901 -0.2601335410260242
-0.12954424175982987 0.24125611791133075 -0.2580775086068195
-0.13399262580638444 0.24127691993235736 -0.2602667276047748
-0.1317995921111635 0.24156123408793598 -0.2600134078644794
-0.13216450664763962 0.24292886266230732 -0.257947481074242
-0.13341946754222428 0.24177390346049457 -0.26056120435228763
-0.1489012524819902 0.25070977220057633 -0.2598941985749286
-0.1551479533649019 0.2578173280668178 -0.25375989715090214
-0.15814536664252793 0.25528377303599503 -0.259547925391106
-0.13321822736030137 0.25276941070078995 -0.2594401303910297
-0.14050958904986893 0.2556359768819728 -0.25355494657984196
-0.14527505490546738 0.2532849908780971 -0.2594692472600025
-0.13978145870929276 0.254574179739944 -0.26473525802126346
-0.14192393276458298 0.2619645596456447 -0.25916147867670475
-0.14801525923972642 0.25710654267787125 -0.26509377995958744
-0.1523235723710588 0.2562388182592311 -0.2550364200257343
-0.15942509326701676 0.257226824851028 -0.25064227620592533
-0.13546496484046494 0.2598108650159755 -0.25886503497591434
-0.14433804008727585 0.2585848570775905 -0.2521084610604328
-0.15222337696319138 0.25924575337886 -0.25916994253626285
-0.14157965633636033 0.25951766976832535 -0.26043737570276676
-0.14781930897002732 0.26258951434611466 -0.25582922140589176
-0.15228214714293992 0.2617923022222438 -0.26227859298220096
-0.1529024675822786 0.2490994931173244 -0.25946498552790104
-0.15727555606132065 0.25061261662959244 -0.25506175199976383
-0.1592895821071199 0.2510663271856227 -0.2591596607350391
-0.14862483594184434 0.25591975459574845 -0.2605004672192615
-0.15542082342868363 0.25740659245967057 -0.2567288939141315
-0.15790416154628312 0.25658071050166276 -0.26083148161402164
-0.15175622555976426 0.25617676982401993 -0.26194385329714237
-0.1543997511601976 0.2585441471052089 -0.25830019155970035
-0.15412796888118302 0.2565961481046596 -0.26219526568880497
-0.08442762348418748 0.26152485618113663 -0.29231081048479496
-0.08596230897670304 0.2653062344503322 -0.2895946864270252
-0.09030639979606186 0.264817476363174 -0.2927165989064258
-0.07602545473342454 0.26249682912348893 -0.2919185225152057
-0.07639138254886185 0.26367992171763566 -0.28743160406580387
-0.08217763755088364 0.2631096244764247 -0.29153747002115665
-0.07906950864558732 0.26212334641932633 -0.2954833571099323
-0.07996129843955552 0.2666853071165004 -0.2909746829651874
-0.08456751558547532 0.2638736368131557 -0.2952520016812366
-0.09059958014255082 0.2614931465101161 -0.28628865519991337
-0.09696248028045212 0.26467347154139664 -0.2828664545201343
-0.09816633019214188 0.2631866336774745 -0.2879420582436603
-0.0788869247174791 0.2632852793645778 -0.28784967104425846
-0.08284875604873215 0.26302939662455704 -0.28336728254785953
-0.08727909478908097 0.2628037930440822 -0.288493043579964
-0.08406610641246354 0.26288038501261857 -0.2890702847622913
-0.08631586882834946 0.26513314256190446 -0.28580114881029545
-0.08943289372687852 0.2639387250852504 -0.29083917180529056
-0.10307650122409379 0.24032527217387348 -0.2895060543202442
-0.10696497413878953 0.2461943031263271 -0.28551003972521244
-0.11078448447948014 0.24517691144465595 -0.28929880897036014
-0.08990841958289658 0.24200522908686786 -0.28995875159731327
-0.09215700480704819 0.2441837788534084 -0.2847657863282245
-0.09965835366015946 0.24353241929530292 -0.28889549414148746
-0.09556329104667222 0.24181467303752094 -0.2936297718667072
-0.09571574482684647 0.24904346475123554 -0.28802890221109806
-0.10171413275962388 0.24402648219584613 -0.292396909394173
-0.10380664322143113 0.24118208894251972 -0.28089431563845096
-0.10974664840465104 0.24431473025797992 -0.2773549024247211
-0.1114893839097551 0.24312770375727802 -0.2825670603894275
-0.09202535304790055 0.24400055417536884 -0.28293899337282596
-0.0973481372333101 0.2440674901914516 -0.27839312592974125
-0.10083575401073014 0.2435181737852016 -0.2833829287671131
-0.09658922109370743 0.2452305556249538 -0.28456134239664493
-0.09913937601810013 0.24800372132777362 -0.28082487622728763
-0.10183577093844925 0.2461715341520229 -0.2856450740479511
-0.10524232539897477 0.2362385393094936 -0.28443414608469425
-0.10635110590224778 0.23752331742762714 -0.281245386996178
-0.10780387971168076 0.23788481959818988 -0.2843610707901996
-0.09956714365249192 0.2387971878957668 -0.28494427243700443
-0.10267257544761216 0.23982912311076313 -0.28181645909777103
-0.1031624362206987 0.23900437364100605 -0.28465620318880497
-0.10445806238418137 0.24410587558268695 -0.2861020330571216
-0.10500451776748215 0.24687808761119037 -0.282888567843346
-0.10559990856414353 0.24493569144724994 -0.28565771023264347
-0.12794229242568528 0.24250972280024677 -0.2822561923646015
-0.13181912753348862 0.2516852022123256 -0.2776983443879169
-0.13487642857795273 0.24759972104548603 -0.28322962562075077
-0.11627815518146073 0.24423247584818988 -0.280596292414574
-0.120437099072986 0.24925798186778217 -0.2757801477097553
-0.12477014813190018 0.24587392816065937 -0.28160933295717655
-0.12058639380698716 0.24700778731822162 -0.28576994577875553
-0.12308037135367905 0.25840669879435685 -0.2816947464131397
-0.12641842517619645 0.24966847905635028 -0.28636164108744083
-0.1281529799438051 0.24598944196223407 -0.2759625081204456
-0.13364669534926926 0.24920374164103656 -0.2719655994557422
-0.13500192615752732 0.247869610877029 -0.27842239181032596
-0.11586305353408372 0.2494250536870876 -0.27784288565149723
-0.12263086292510544 0.25036096581935074 -0.2725408438824695
-0.12585231516128098 0.24942713984965473 -0.27865717450609623
-0.11970099661117112 0.25022608050822404 -0.2798457209252399
-0.12361451837783372 0.25456100711344865 -0.27638820449343143
-0.12639364454513108 0.25257366904734757 -0.2813994053982776
-0.1293036327100328 0.23956573018550067 -0.28014979402056156
-0.1311558023429445 0.24226659545420795 -0.27533308307161747
-0.1313199684358171 0.24392843255519062 -0.280428177513985
-0.12640866491561448 0.2458435893964687 -0.27884552518358646
-0.13057368848090684 0.24912220248698383 -0.27575433889856754
-0.12927526089911973 0.24716579923152118 -0.2796568636082691
-0.1282188132739595 0.2507587076139369 -0.2806055311345142
-0.1314798578954271 0.25735509404658463 -0.2776418689869922
-0.13065655383830582 0.2535430789899745 -0.2810286943100971
-0.03776243183379685 0.24195194253443866 -0.303205049433617
-0.037132619354777685 0.2414858342122951 -0.3038206462048572
-0.03824597451453721 0.24160176524638324 -0.3033239606999439
-0.03731590363746201 0.24182796487330585 -0.3030754689358753
-0.03670489642386948 0.24137872466563373 -0.30366844574442325
-0.037944196198039404 0.2415212393712917 -0.30320531765451847
-0.03584050986533677 0.24037021407603412 -0.3048258189343494
-0.0366241917348436 0.24130696067332416 -0.3038722042225879
-0.03853723261123215 0.2406127453756252 -0.3009225193642658
-0.038304685089640966 0.24057555207728534 -0.30111101905336796
-0.039101152155452124 0.23903870591639667 -0.3031003836773914
-0.03738576028113877 0.24047672757624775 -0.3009936873101276
-0.037053494188838354 0.24044144162654071 -0.3012741271637958
-0.03861251327758347 0.23903214940547138 -0.3030967775963825
-0.036841152641826025 0.23998677739619403 -0.299452847638039
-0.03704809996848618 0.24029940375804096 -0.29883748928537784
-0.03930115554099595 0.2404181958150783 -0.3027680579804462
-0.036403445932917944 0.2395904065084377 -0.305350965657143
-0.035748718712382666 0.23848718413828998 -0.3051544491433185
-0.03942864987617051 0.24065864095210224 -0.3034345571183246
-0.03697389218574082 0.23991119870661884 -0.30595288316240726
-0.03594887110953843 0.23879486331462055 -0.3057737712048572
-0.04034229967361008 0.23786985883235126 -0.3001390163086933
-0.039873509142451635 0.23725050696849018 -0.30093685428133427
-0.038356153700404516 0.2418939472150722 -0.30321264902582584
-0.037818758223109594 0.24152433881282 -0.303754365839867
-0.038742153379969946 0.24146008500575214 -0.3034328583859485
-0.03771713230376755 0.24171918639659076 -0.3030483190201801
-0.037201045486979833 0.24136847266673236 -0.303569263615517
-0.038312195274882666 0.24134278306483417 -0.30328137318125187
-0.03601842972999131 0.2404128910016933 -0.30475107470980106
-0.036843596432261816 0.24140137443064838 -0.3037504319333118
-0.038312850925975195 0.24094593533991962 -0.30061287323465763
-0.038060186836772314 0.24090808639048725 -0.3008176449917835
-0.03895097825294053 0.2393467427205959 -0.30284906069269596
-0.03715315315490281 0.24083817014216571 -0.30070222059717594
-0.03678628656631028 0.24080199012278705 -0.3010050121926349
-0.03841283771758591 0.23937010774134784 -0.30287859479418217
-0.03661009523635422 0.24032288798808246 -0.2990006570004505
-0.03678977343802964 0.24060922870158344 -0.2984416250371021
-0.16305504593616044 0.23756492146968036 -0.23758513370981635
-0.16611191484694993 0.23910301932810932 -0.23409887293806494
-0.16701923165088212 0.23776298770426899 -0.23705757299890937
-0.1551798716521791 0.23703718194483905 -0.23627238611212195
-0.15926329645877396 0.2386186719846645 -0.2328065548323673
-0.1629979595876268 0.23751813182353168 -0.23679231742849768
-0.1562478080726198 0.23709702500819355 -0.23834518233766974
-0.15870670828586136 0.24061185130595356 -0.2339376870774311
-0.16152937564616715 0.23807084569453388 -0.2384409222983402
-0.1602622703052095 0.23883730182170063 -0.23643197754850806
-0.16149517748122727 0.24045121678828388 -0.2333386901997608
-0.1651974156833223 0.2406943441343227 -0.23022914568415107
-0.15345245454078232 0.24113041171549945 -0.23330948392382087
-0.15813952538733994 0.24129867562770038 -0.2301837716483158
-0.16119275841479813 0.23998618134974628 -0.23360504845610083
-0.1581403449512056 0.24110686788081317 -0.2331028048180622
-0.162022872302585 0.24394780406474262 -0.2298143867634815
-0.16437622759109055 0.2429475785207668 -0.2347464177989048
-0.16406042728190934 0.23774850377558857 -0.2371214393757862
-0.16498046967750107 0.23812323817729145 -0.23559681216707648
-0.16549034271007096 0.23743230113505512 -0.2371679608010334
-0.16198052320247208 0.2380308509778896 -0.23599026242723883
-0.16419553611045395 0.23871630439280658 -0.23393904308309973
-0.16458323452239548 0.23770135650157123 -0.23605012039175452
-0.16102701279883896 0.23721176394938617 -0.23660354951849402
-0.1635635033584169 0.2391449809980312 -0.23423880974283637
-0.1634438768363527 0.2380383611631313 -0.23614328245153846
-0.163910119268947 0.23762291678904682 -0.23668754736414374
-0.165025664899402 0.2380186916303554 -0.23494613806238593
-0.165536774728351 0.23731058845042377 -0.2367901269578022
-0.16172098967795884 0.23802244672297626 -0.23557022849550666
-0.16416728350883042 0.23875069627284198 -0.23339832464685858
-0.16462445113425767 0.2376769782018581 -0.2357183311366123
-0.16114958975081956 0.23734986791133075 -0.23618078867426337
-0.1638161227441362 0.23928380021571308 -0.2337318275355381
-0.1634341761804155 0.2380841375303188 -0.23578344921102942
-0.16344003233676468 0.23882299670695453 -0.23868346849909247
-0.16565361473327195 0.24084246167658954 -0.23544896284571112
-0.16636180732017075 0.23913967618464618 -0.23804757634630622
-0.15489080402617966 0.23790395268916278 -0.23660913745394171
-0.15837567898994004 0.24014782914637714 -0.2332568232201618
-0.16195474419360673 0.23862165221690326 -0.23711178342333258
-0.15540452155833756 0.23796433219432025 -0.2397401098393482
-0.1568951741195253 0.24262946853160053 -0.23585233727922858
-0.16018958244090592 0.23914700755595356 -0.2398895386838001
-0.15952899906402146 0.23970747003077655 -0.23862741033068122
-0.06298164877658402 0.24906039247035175 -0.302632368006615
-0.06514116976028 0.2521119118642726 -0.30061478058329044
-0.06484638008838212 0.25062930593012955 -0.3026195530079883
-0.05661114904647385 0.24894213685511737 -0.3019264105938953
-0.057795999977641455 0.25147652635096696 -0.29968494812479435
-0.060964374277644506 0.24997788676737934 -0.3016302351140064
-0.05506992194419419 0.2483118773412624 -0.3074171308659595
-0.05705189559226548 0.2529630661916652 -0.30389223138323246
-0.0602261558509401 0.25026965150355485 -0.3065311674260181
-0.06363208446269547 0.24660331019877582 -0.29826495686998783
-0.06792622658973252 0.2482290268850246 -0.29521141091814457
-0.07299031171565568 0.24858671435832172 -0.30055589119425236
-0.054459898207240454 0.2480399013471523 -0.3002317313336414
-0.05793869349723374 0.2482815981817165 -0.2970241669796985
-0.06477142724757706 0.24905985602854877 -0.3019797269486469
-0.05840730521445786 0.24879276761531025 -0.3009451989316028
-0.05981334898238694 0.2508137227010646 -0.2977205876492542
-0.0649348333812288 0.24497514972209125 -0.3009403411530536
-0.06669773015742814 0.24597811707972675 -0.2993009452008289
-0.06590282771354233 0.24525034436701923 -0.3023651007794422
-0.06253398809199845 0.2459249497365871 -0.3009179298066181
-0.06416283402209794 0.24665939816950946 -0.29954976479044376
-0.06427399668460404 0.24567347774027973 -0.3021889690541309
-0.06310753378634965 0.24733859309672504 -0.30109620729914127
-0.0634925201869539 0.24920588740824848 -0.29873985687723575
-0.06318949017291581 0.24787038573741108 -0.301340943970589
-0.06336112174754654 0.2466220260572353 -0.3015603784703296
-0.06672037992244279 0.24883347758769184 -0.29854974786272465
-0.06957910809283768 0.2484598756742397 -0.30281156937113224
-0.053626059029155126 0.2473992110204616 -0.3031687204026264
-0.05661210272079026 0.2481866479825893 -0.2999740604542774
-0.06152078363662278 0.24803268918513446 -0.3039253417634052
-0.05687242600684678 0.24729079017161518 -0.3047407631062549
-0.0588371143079332 0.25038880118846085 -0.30108756462564884
-0.06022024008994614 0.24790006885050922 -0.30471406022539554
-0.10560220334296738 0.23937040576457172 -0.2676731113575977
-0.10753126296763932 0.24081861981867939 -0.26597074309816776
-0.10885910544162308 0.24001222857951313 -0.26853526274195133
-0.10058228525882279 0.2397894860219875 -0.26712507645121036
-0.10240718576674973 0.2408413291883388 -0.2653866771840137
-0.10535529110198533 0.23970383414744525 -0.267486876644997
-0.10023781511550461 0.23926210412501484 -0.2700675789498371
-0.10119959566360032 0.24243474015711933 -0.2676379744195026
-0.10333943221335923 0.23955327281474262 -0.26986754576197086
-0.10310996923213517 0.23615747699259906 -0.26295948664179264
-0.10500253591304337 0.2369319797468105 -0.2613434259079975
-0.10823048505549943 0.23653584727763324 -0.26471034327974735
-0.09881614002948319 0.23731011161326557 -0.2634480957173389
-0.10060214850669419 0.23732584723948627 -0.26164627710810123
-0.10536266717677628 0.23742765197276264 -0.2650449041508716
-0.1003751889205507 0.2371060849141994 -0.2634474400662464
-0.10191199037795579 0.23839586982249408 -0.26129508654108463
-0.1016084686255983 0.2368687392187038 -0.26441264788141666
-0.1075928196645311 0.23665505656718402 -0.2660164300583881
-0.10786850604777848 0.23682361850260883 -0.2656962637089771
-0.106818033788257 0.23588597783564716 -0.2666776839875263
-0.10655161592727219 0.23702555903910785 -0.26562929789057194
-0.10681709501510178 0.23717916020869403 -0.2653499011181873
-0.10727132711177384 0.2363678813886562 -0.26624587813845096
-0.10876710567241227 0.2371804715108791 -0.26517105738153873
-0.10952120873694932 0.23829621085642963 -0.26394862572184025
-0.10753781947856461 0.23715490111827045 -0.2651757959507984
-0.051942704651408544 0.25919824847697404 -0.27875376383295475
-0.05097615573173081 0.25825166711329606 -0.2797645692013782
-0.051199017498545996 0.2584983111333766 -0.27901414672365604
-0.05185264203315293 0.259118378252975 -0.2786550287388843
-0.050890623066478125 0.25819593677043107 -0.2796732250832599
-0.051167099211268774 0.25842559346675065 -0.2789203290127796
-0.04884365055327927 0.257184624762527 -0.2809349362038654
-0.04947537038093125 0.2578524352025905 -0.28031641880503116
-0.04871097061400925 0.25809615859507706 -0.28065631429186283
-0.052168069813304296 0.2579357028913417 -0.2786074046277088
-0.05149432871108567 0.25773870954035905 -0.2793707315110248
-0.051396875116877905 0.25660640010356095 -0.28010818997850834
-0.051208464834742895 0.25787889966487076 -0.2786448959492725
-0.05058160278564011 0.2576988340330043 -0.27939871589174686
-0.050887136194758764 0.256641149611465 -0.2801172796868366
-0.05124875757461106 0.2571054101896205 -0.2781312231205982
-0.05146351310973679 0.2574673295926967 -0.2777338985585254
-0.048785536024623266 0.25657325992106583 -0.27885866800775944
-0.054127542707972875 0.2577611208867946 -0.27856654564371525
-0.051887629959636083 0.256622314543716 -0.28090647498598514
-0.050540713999324194 0.2560753227186122 -0.28005877772798954
-0.054458050463252416 0.25798523435115006 -0.2790026430272144
-0.05214422795539414 0.25673377522944596 -0.2814202968262714
-0.050730912420802465 0.2562754155111232 -0.28051624337664066
-0.05536866042380845 0.2556227446508327 -0.2778613332890552
-0.05480581376319443 0.2549161911916652 -0.27851880232325016
-0.05182611796622788 0.255192756743423 -0.2785969142102283
-0.051657556030803076 0.2589207888555446 -0.2795986298703235
-0.050842790339045874 0.25845736274241593 -0.2805343035840076
-0.0502997026181749 0.25790750989436295 -0.28025952617159305
-0.051042823526912084 0.25873267659663346 -0.2794478003167194
-0.05046999308829819 0.25830256947993424 -0.2803288761757892
-0.050158081982188574 0.2577856183957973 -0.280072725214867
-0.04981788847213303 0.2570805550527492 -0.2800598804139179
-0.05033293220763718 0.2577390671682277 -0.2794700924538654
-0.048202364180140844 0.25720846662043717 -0.2801083389901203
-0.14361765835052048 0.24108529099940448 -0.2529064778470081
-0.14793768379455124 0.24637198457240253 -0.2488002393626255
-0.1519135669208101 0.24479979285716205 -0.254332340159325
-0.13031330559020554 0.24164372691630512 -0.2529360417508167
-0.13518929335837876 0.24388629207133442 -0.2481508467577976
-0.14050692174201523 0.2426348925542751 -0.25401423017015873
-0.1357736572957567 0.24275755891322284 -0.25585780183306156
-0.13754303607707535 0.24878257522105365 -0.2517422203206104
-0.14169563207393204 0.2445673943471828 -0.25698596874704777
-0.1450815186238817 0.24385887393473774 -0.24671516458025397
-0.1511770472264818 0.2458324433278957 -0.24254972378244818
-0.15398613962893998 0.24492752561091571 -0.24865624944200934
-0.13303597125773942 0.24559319028376728 -0.248509323992638
-0.13843078765636002 0.24494129428385883 -0.24268150965204657
-0.1453663245177797 0.2453848720502773 -0.2490141008280796
-0.1385684296823076 0.2458251715612331 -0.24932681659689368
-0.14338129613166367 0.24981677541255146 -0.24619547168245734
-0.1460452363229326 0.24825233230113178 -0.25154293219080387
-0.14636875543361222 0.23700988301753192 -0.2513869468354267
-0.1489313081241182 0.23911219844340473 -0.24845781067839087
-0.15023383352523362 0.23909950265406757 -0.25195056835642277
-0.1416346863246492 0.23827332267283588 -0.25110579172602115
-0.14437445852523362 0.24022632846354633 -0.24860290328493537
-0.14714367542033707 0.23954933890818744 -0.25175849238863407
-0.1463256612754396 0.24130094060420185 -0.2515374783658069
-0.14753833267455613 0.24409329900263935 -0.24941409269800605
-0.1474032834506563 0.24222803124903827 -0.2522971395634693
-0.1487644151187471 0.23966604480265766 -0.27300313750734745
-0.1529666617847017 0.24520361432551532 -0.2685079042099994
-0.1563972220159105 0.24393045911311298 -0.2736848060273212
-0.1381109044290117 0.24148404607295185 -0.2729124788426441
-0.14315220567946946 0.24445384749888568 -0.2682786051415485
-0.14832714054351365 0.24324977406977802 -0.2738804582737964
-0.14279281947379624 0.24307268867015033 -0.27588824073305546
-0.14502087089782273 0.24948281058787494 -0.2718736294888538
-0.1478825643992952 0.2452138663244167 -0.2766631309174579
-0.15130203816657578 0.24148517856120258 -0.26797015110483585
-0.15770184848075425 0.24340420970439106 -0.26386821905603824
-0.15954251441722428 0.24243491897105365 -0.2696851257466358
-0.13971389684443986 0.24386876830577045 -0.2700730625771564
-0.1461059883571199 0.24383276710032611 -0.26480431000223575
-0.15167096111541306 0.24370253095149189 -0.27035633365145145
-0.14544322941070115 0.24452155837535053 -0.27062783280840336
-0.14995419833426987 0.24785983571528583 -0.2673139635705036
-0.1519968644118837 0.24648624667643695 -0.2724783484124225
-0.1524020865893892 0.23672378072261005 -0.27264634410372196
-0.15414436015849625 0.2378355861616054 -0.2696536544941944
-0.155138506028705 0.23861944684504657 -0.27284327785005985
-0.15037469420199906 0.2400202752065578 -0.272121167578606
-0.15361870679622208 0.24171578893183857 -0.26943937579622684
-0.1553934946990541 0.241133451552383 -0.2723601822041553
-0.15363663289313828 0.24298131474970966 -0.2725147668503803
-0.15547212812667405 0.24543434390544086 -0.2700554196023029
-0.15440547320609604 0.24393349894999652 -0.2727789644383472
-0.16773114952807938 0.25226956614970353 -0.2572247151516956
-0.170668034288936 0.25935685643672135 -0.25083044806948124
-0.17368945333724534 0.2553630472135463 -0.25707388559809147
-0.15189568552737748 0.25288832196711686 -0.254433578648476
-0.15840154740577256 0.2589218021345058 -0.24794650713434638
-0.16037651750808274 0.2521908880186 -0.25454050938120304
-0.1573522374368242 0.257262647242538 -0.2626972262047809
-0.16111264977222 0.27001112708567765 -0.25829393307199894
-0.1674533024764589 0.26082533607005265 -0.26406682173242985
-0.1649876520371965 0.26166218528269913 -0.2609841291092914
-0.16824790689712082 0.2551484108877101 -0.25175613800516544
-0.17277170572047745 0.25639563807963517 -0.2454757455967945
-0.15579765889411484 0.25894272336482194 -0.2509882215642017
-0.16260140988593613 0.258771538825027 -0.24357066194048346
-0.1671238974071077 0.25774258384226945 -0.2513554457806629
-0.164115516874843 0.26101791867732194 -0.25478754083147465
-0.16825845691924607 0.26927024135111954 -0.2503138844155353
-0.17108000669246232 0.26367896804331925 -0.2566618088864368
-0.17160962376361405 0.2497653366041103 -0.25675368944635807
-0.17194478068118607 0.25050508985041764 -0.25125432650080143
-0.17442425939803635 0.25168794402598527 -0.25669709483614384
-0.16714723262553727 0.2541483641576686 -0.2547345821045917
-0.17101909074550187 0.2568739653539577 -0.2499591324709934
-0.17237758490806138 0.2546250821065822 -0.2551502350949329
-0.16869349632030045 0.25632470855235245 -0.25773823896875797
-0.17169140133624589 0.264345645995132 -0.254394835629372
-0.1726749375796846 0.2592189312887111 -0.2587205831193012
-0.1708661750293306 0.24880445012568622 -0.2540583972119373
-0.17294652614360367 0.2495628596258083 -0.24773097673883857
-0.17539460811381852 0.25048840054988053 -0.2541629437588733
-0.16459229442840134 0.25370985278605607 -0.252189731993584
-0.16933460387950455 0.2555010915708461 -0.24644765893450202
-0.17158999893432175 0.253680408091537 -0.25276268164148746
-0.168249918553882 0.25614160308360245 -0.2552936438702625
-0.17105063650374924 0.2635723353338161 -0.2512136463307422
-0.17291138920550858 0.25871914634226945 -0.2563350562237781
-0.16731530282264268 0.25287765273570206 -0.2533996168755573
-0.17120131704574143 0.25571078071116593 -0.24719642738333167
-0.17457228753333603 0.25452297935008195 -0.2542783383511585
-0.15271143469577347 0.25599366435526993 -0.2522239450596851
-0.16051260981326615 0.2573076487493434 -0.24474982062807502
-0.16383595618968522 0.25504881152629044 -0.25234586636057316
-0.15874324593310868 0.25872933873652604 -0.25814471284380375
-0.1645190254188112 0.26932710418223527 -0.25348374883165775
-0.1688871667123369 0.2621505857419887 -0.2597422067307514
-0.12986327562099015 0.24911373862742572 -0.2632235352181476
-0.13368165347343003 0.2619982362699428 -0.25603482762804447
-0.13933914754157578 0.2562216521215358 -0.26368001739015995
-0.11188255104785477 0.2513415218305507 -0.2614589397095722
-0.11730286333327805 0.25914853820323136 -0.25488147775164066
-0.12450794729953324 0.2537398339223781 -0.26248136798372684
-0.11760789010291611 0.2555197478246608 -0.26867718140116154
-0.12093639228110825 0.2689208389234462 -0.26329544822206913
-0.12795115861659562 0.25958889731883195 -0.26903412381639896
-0.13144293281798874 0.2545250059080043 -0.25560016075601993
-0.13826064619784867 0.25947266826151993 -0.250098622240929
-0.14304084930186783 0.25834852466105607 -0.2581218544625324
-0.11251509043937241 0.2604280115079799 -0.2585688892983478
-0.12243825051551377 0.26184064158915665 -0.25109857956400333
-0.12896972749000107 0.26148003348826554 -0.25947800914278446
-0.11925354454284226 0.26441597947596696 -0.26277754346361576
-0.12646366510158097 0.27208608397959855 -0.25698072353830753
-0.1305960402226976 0.2680286169958034 -0.2634820703648609
-0.04103669378524338 0.2502945066404262 -0.2787718240403217
-0.041559217903666845 0.25088316211222794 -0.2783207658909839
-0.04245504591231858 0.25031304368495133 -0.2793044213437122
-0.038922159407191625 0.24961799392222553 -0.27783290187349735
-0.03932079527144944 0.25026041278361466 -0.2771654490613025
-0.04173979017501389 0.2497275472593227 -0.2781788770340961
-0.036364255878978125 0.24970269212245136 -0.2814382080220264
-0.03728529665236985 0.25159400710581925 -0.27933243552675663
-0.03853463980918442 0.2506674529027858 -0.2811378304146808
-0.041479288075023046 0.24926668414591938 -0.27601853648653446
-0.044053523275905004 0.24990600356578022 -0.27444962302675663
-0.046165971491389624 0.24907469758509784 -0.27825555840959965
-0.038039861652903906 0.2500253916692653 -0.2767402295254749
-0.040133802626185766 0.25023651132105973 -0.27530116478434025
-0.043928591940455786 0.24977612504481464 -0.2787512604378742
-0.03838842961555039 0.2494645119619289 -0.27732259670725284
-0.03913852426772629 0.2504506708097377 -0.2753836576127094
-0.0432348832822374 0.24728631982325702 -0.27746955195894657
-0.04258316609626328 0.24700486669062763 -0.27809283772936283
-0.04087209555869614 0.24602299937724262 -0.2793513898037952
-0.043035326931529394 0.2473207713079372 -0.2772652868413013
-0.04232132289176499 0.24702596673487812 -0.27789122501841007
-0.0406786784864 0.24594897040843158 -0.2790880564831775
-0.04202076647048508 0.24680423745631366 -0.27620119492044864
-0.04236796352630173 0.24739813813685566 -0.27549538651934086
-0.04195499274497544 0.25018799314021256 -0.27883634606829105
-0.042775778505854956 0.2507210374784389 -0.2779943112515491
-0.042902497980647436 0.2497304678869167 -0.2798045043133777
-0.03831615898376023 0.2499130965185085 -0.2788681749486011
-0.03911927196746384 0.25022721299647477 -0.27778039018145023
-0.040836124155574194 0.2492547632169643 -0.27934352199068485
-0.03690859529738938 0.2493329645109096 -0.2808963719986957
-0.0381251260972551 0.2512238026571193 -0.2786051992558521
