ply
format ascii 1.0
element vertex 281
property float x
property float y
property float z
element face 0
property list uchar int vertex_indices
end_header
-0.2023402437902025 0.10978522905825762 0.24009933432111322
-0.20200031850104844 0.1160106063795009 0.24264051874646722
-0.2014607921577028 0.11413061627864031 0.24004217346677362
-0.19831484410529648 0.11134231099604754 0.24380233248242913
-0.19927644583945786 0.11806362876414446 0.24597504099378167
-0.19946074340110337 0.11419934043406633 0.24354096611508905
-0.19924573454623734 0.11075812587260393 0.23801889379987298
-0.19904731068378007 0.12199118742465166 0.2409044738627392
-0.20156964514022385 0.1144411266755977 0.23835971315869867
-0.1993017778134874 0.10687601575373797 0.24258359631070672
-0.20232924673324143 0.1095825434636989 0.2469733591891247
-0.20476311299567734 0.10995212206362871 0.24130734165677606
-0.1936748907304338 0.10989010343073992 0.24311920364865838
-0.1977090821004442 0.11265698084353594 0.24653866251477777
-0.1992487296796373 0.11121806511401323 0.24103077610501825
-0.19456711265807664 0.11623346814631609 0.24241908749112664
-0.19633641693358933 0.12275764355181841 0.24615749081143914
-0.19796010706191575 0.11910536894320635 0.2417112227297741
-0.1971866473889879 0.1015946865987697 0.23835828264722406
-0.19764166924720322 0.10359725365161089 0.24159266909131585
-0.19868193421130692 0.10561811933039812 0.2383073206759411
-0.19686922285323655 0.10547652849673418 0.2413704629755932
-0.19821530434852158 0.10783302793025164 0.24381222685346185
-0.19986578676467454 0.10805314788340716 0.24015148838529168
-0.19842727336650406 0.11124393352984575 0.242504441342445
-0.19996067735915696 0.11792889246462969 0.2449437018252331
-0.20127168152099167 0.11540228137492327 0.24208524187573968
-0.20237830135589158 0.10777148613452105 0.24017121752271234
-0.20366136584048783 0.11326327929019121 0.24385889729032098
-0.20369893166785752 0.11198538550852923 0.2399421568728405
-0.19700361642604386 0.1100580097150722 0.24160882195004998
-0.19952140602832352 0.115392267794601 0.24439504107007562
-0.2005144641137651 0.11262080082415728 0.24075796564588128
-0.19991618249183213 0.11294934162615923 0.23925372322568475
-0.19912922236686265 0.12278422722338823 0.24229719599256097
-0.20208558294539963 0.11593285212039141 0.23911961277494012
-0.19250683340793168 0.22829967746256977 0.24217804630765496
-0.1926635042167238 0.22886276254176288 0.24429156740674554
-0.19317397329574143 0.2297237516355434 0.24357362946042596
-0.1918102190232805 0.2302657962751308 0.24320557077893792
-0.19275931868320023 0.2307751775693813 0.24494036396512567
-0.1933513269162706 0.2312934995603481 0.24326434095868646
-0.19123387191062485 0.23081165561198383 0.24084302147397577
-0.19296395632987534 0.23242604741572528 0.24275281389722406
-0.19349612149959122 0.2324427367162624 0.24042864998349725
-0.1931098685002855 0.23125344523905902 0.23938062151441156
-0.19321366998916184 0.2315327526044765 0.24087121447095453
-0.1924682841039232 0.2325558067274013 0.24085130651959955
-0.19193583581214463 0.2320539952230373 0.2402873273707348
-0.19192385527854477 0.23211860665797382 0.24180420597562371
-0.19289192411666428 0.23277896651744037 0.24027355869779168
-0.19148439023261582 0.23268568524836689 0.23924376925000726
-0.19264077994590317 0.23324108132838398 0.24059900005826532
-0.19429990503554856 0.23375445613383442 0.23823543747434198
-0.19946288916831528 0.23078429708003192 0.23901095350751458
-0.19949178251987015 0.2306985856008449 0.23880609234342157
-0.19631045911078965 0.23360323915003925 0.24125184973249017
-0.19815264496570145 0.23137736329554706 0.23919656237134515
-0.19817945215468918 0.23134809741496234 0.23896410425672113
-0.1957740769124559 0.23354154834269672 0.24117269476422845
-0.19878266606097733 0.23135882625102192 0.2413745756960827
-0.19745626899962937 0.23116117724894672 0.24049040039548455
-0.20071327540641343 0.23189055928706317 0.2399891849375683
-0.19519898149734055 0.23183733233927875 0.23941239079007684
-0.19527956697707688 0.23203063020228534 0.240692758164497
-0.19344374391799485 0.2334861160230556 0.24076392611035882
-0.1933481976724199 0.23265290269374042 0.23985859116086541
-0.19389079365497147 0.2327670455884853 0.24096968134412347
-0.19366188201671158 0.2335013748121181 0.2401700850344616
-0.1921587571836046 0.23222285518168598 0.23981418570050775
-0.19308313581710373 0.23251092442988544 0.24049332102307855
-0.1954487845635942 0.23319023856639057 0.23839070757398187
-0.18455099913840806 0.1422082782697597 0.2536606427050549
-0.1832609311080507 0.16007661828517109 0.2592991228915173
-0.18527737114196335 0.15527457007884174 0.2559792037821728
-0.17788441333537613 0.15903288135050922 0.25853528936872067
-0.17766083631282364 0.17457818994044452 0.26133807857999386
-0.18070676777129685 0.16488683232783466 0.2580597039080578
-0.17917534563308274 0.15927526363848835 0.2504574890948254
-0.17855363938575303 0.17528915414332538 0.25283923109540524
-0.18299393210177933 0.16515499362467914 0.2505216236926037
-0.18508747074370896 0.14402690538882404 0.2580646510935742
-0.19017502519851243 0.15487423548220783 0.2670033212519604
-0.19091626856093918 0.1550218165826717 0.2592575188494641
-0.17793623957400834 0.16364333042620807 0.2609746690607983
-0.18258114013438737 0.169491708369247 0.2657383318758923
-0.18384361121421372 0.16679927715777546 0.2590974207735974
-0.17698161158328568 0.1678583324861446 0.2563011284686047
-0.18156570050483262 0.18153107175349384 0.26187148054608883
-0.18510570976501023 0.1739117206048885 0.25672169884213986
-0.18493148538833176 0.13824629792689472 0.25384386738309445
-0.1890464410520128 0.1461060644102016 0.26559694965848507
-0.1867406651711992 0.1509685219240108 0.2586683865405041
-0.18308031413322007 0.160729318947784 0.2592647310114819
-0.18799801025157487 0.16795262703417926 0.26422222813138546
-0.1865599885917238 0.16662219175814777 0.2586112256861645
-0.18194351944690262 0.16431811460971027 0.2567557926989514
-0.18569516989951645 0.17621758589266925 0.2614840503550488
-0.18665313575034653 0.17062050113200336 0.257361197075935
-0.18755763623481309 0.12110975393771319 0.2482054468012768
-0.18785559985404526 0.13243746766566425 0.2538364764071423
-0.19071039411788498 0.12919551143168598 0.25016673763761105
-0.1774432346559099 0.1242176593255916 0.2505849238253552
-0.17867255065207993 0.13433998832224994 0.2546572323656994
-0.1827014074063829 0.1282128394555965 0.251078033051582
-0.17845229658847367 0.12435391554354815 0.24334629734525262
-0.17910975072150742 0.13779556760310321 0.2477578159190136
-0.18399566266303574 0.12861639270304828 0.24451872070798455
-0.1837758556342653 0.11627686032771258 0.25551655252942623
-0.19049444648986374 0.12188920387744097 0.26183536013135494
-0.19516381475692307 0.12225279221057085 0.2542271252490002
-0.17265304777389084 0.12416931995867876 0.25441976746091427
-0.1802690163589052 0.12704554209231525 0.259350680909248
-0.18253217491870438 0.12527331718920856 0.2524004813052136
-0.1832391307092241 0.11008402714251665 0.250350379548164
-0.18683659884696519 0.11538416156291155 0.25714650114545407
-0.18957835290198838 0.11714014420031695 0.25157215555677
-0.17968468222384965 0.11922058472155718 0.2523812886095959
-0.18364374193912064 0.12289115795611529 0.2562977906084973
-0.1835922733283571 0.1210009754609981 0.2508087392664868
-0.1799415037370256 0.12927085170268207 0.2520233031130749
-0.1833304301238588 0.13707467922686725 0.2564970489359814
-0.1810569003558687 0.1973162294340053 0.25683798750409664
-0.18070463690524613 0.2003791929197231 0.2585647340632397
-0.18016648146873032 0.19994962224482685 0.2577272291995007
-0.1791023001409105 0.2012506128263393 0.25808551271924557
-0.17940912995105301 0.2038692832899013 0.26030703743466915
-0.18059436831241166 0.2030499578428188 0.25795575340756954
-0.17788772139316117 0.2011570931386867 0.25341012438306393
-0.1795528069472841 0.20578145989894062 0.2557091947413403
-0.1799674615598253 0.20324718961238056 0.25316258629331173
-0.18039914819961106 0.20046621570109516 0.25419285257825436
-0.18208469304805314 0.2020612359952846 0.2573937412119824
-0.17911256704097306 0.20272386083125263 0.2560603853083569
-0.1800439492202333 0.2033282519292751 0.2565530773020703
-0.1813809112048677 0.20421236762522846 0.25899352987775387
-0.1815310851073793 0.20409345635890155 0.2564035888529736
-0.1803884193635515 0.20445901164530902 0.2545800443507153
-0.1817560926414064 0.2072243095350185 0.2569352026797253
-0.18260614428287064 0.20609408626078754 0.25381549557218136
-0.18124054226642167 0.201099693865768 0.2523789044238049
-0.1815897360778383 0.20127463349818378 0.253386222920509
-0.17855401191478287 0.20359277734278827 0.25548376997479977
-0.1810292885041765 0.20379441985606342 0.25446947773465695
-0.1814073607659868 0.20388585338114887 0.25545664986142697
-0.17892655584579026 0.20507895955561786 0.2565621968127209
-0.18362364027267014 0.20427781352519184 0.2560065623141247
-0.1844225511289171 0.20515400180339008 0.25731005629071774
-0.18586042377715623 0.20547032365321308 0.25557585915097775
-0.18025463673835312 0.2004091740560451 0.25428291519651
-0.18195900175338303 0.20204997071742206 0.25745972355374874
-0.17901815328364884 0.2026558519315639 0.25612714251050533
-0.17997491214042222 0.20326143512248188 0.25660183390149655
-0.18127597722774064 0.2041887641858974 0.25905224045285763
-0.18145032081370865 0.20403820285319477 0.25643058975705685
-0.18022678646808182 0.2044801712942043 0.25450577696332516
-0.1815260485148958 0.20731675633906513 0.25686874350080074
-0.1823989436364702 0.2061470151853481 0.2537862892962414
-0.19814458343749558 0.1392129958581844 0.2426948185778576
-0.1984160378909639 0.14886656412600666 0.2459531660891491
-0.20020395371680771 0.1469898522806087 0.24307450016507684
-0.19269870075946366 0.14296245584010273 0.24568184574613153
-0.19333690259223496 0.15157747277735859 0.2484643693781811
-0.19483075890307938 0.1463557780694881 0.245975219807716
-0.19274425360923325 0.14228087672709613 0.23861046989926873
-0.1935697779393724 0.15472337612628131 0.2422951694346386
-0.19600036594634568 0.14615079769610553 0.23951145370969354
-0.19804483506446396 0.13976886877535968 0.24686106403836786
-0.20221908244853531 0.14539894470690876 0.2518312569476086
-0.20411768409972703 0.14518603691577106 0.24560614784726678
-0.1907203182912401 0.14631634959696918 0.24658515413770257
-0.1957494005895189 0.14934641131877094 0.25063296516904415
-0.19612593803172623 0.14727282533167987 0.24508806427487909
-0.19128058705096757 0.15059569487094074 0.2439148064471203
-0.1941789225078157 0.15710696587084919 0.24788578709134637
-0.19606673571830308 0.1530095637750545 0.24309828241834222
-0.19819885346656357 0.13543525347232013 0.24366399010190545
-0.20045785460238968 0.13905832180499225 0.24891480167874871
-0.20157739374404465 0.14145320662974506 0.2441531058169323
-0.19645431492095505 0.14322212347506671 0.24553194006452142
-0.19939562532668625 0.14581045517443805 0.24857982357511102
-0.19806526455646073 0.1445765496206203 0.24461367090711175
-0.19575306627517258 0.14737090477465778 0.2440712686396557
-0.1977197215295366 0.15261757382868915 0.24693157633313714
-0.19814249727492844 0.15030652293681293 0.24385800322064935
-0.20247298333411728 0.1502014995527187 0.24364277084836541
-0.20037585351233994 0.17206966886042743 0.2482531305170971
-0.20287124666934525 0.1663908363294521 0.2465536232806164
-0.1931721255517534 0.16934728631495624 0.2464138503886181
-0.19525450322394883 0.18783155092715412 0.24882438143262445
-0.19874361011748826 0.17773288497447162 0.24693932493695794
-0.19352738413577592 0.16794908055781513 0.24187293013104974
-0.19627654406791245 0.1858266592931667 0.24433275421628534
-0.19948980066543137 0.17644065627574115 0.24259229858884393
-0.20068681094413315 0.16245368132113605 0.2436759706355053
-0.20185744616752183 0.1775924862337032 0.251910233101936
-0.20257511589293992 0.17368471631526142 0.24436517914304315
-0.18914145085578477 0.1819010079812923 0.2475173111773449
-0.19538983556991135 0.1918584705305019 0.2529846068240124
-0.19782763573890244 0.18615704783915668 0.245628380379768
-0.19132040295367753 0.18534353384493976 0.2401102419711071
-0.19533386680846726 0.20255166301249652 0.24565222223767816
-0.19954216334586655 0.19187718638896137 0.24025162418851434
-0.20284056517844712 0.15484178075312763 0.24299737175473748
-0.2042880043721727 0.16803106674670368 0.25212784966001095
-0.2017255112863115 0.16863790163516193 0.2458933826304394
-0.19726529571776902 0.17746487268923908 0.2478101487971264
-0.20208403322463547 0.18750053653239399 0.2529928918696362
-0.2017894819713167 0.18378853806971698 0.2467805381632763
-0.19783995899920975 0.18286469587802082 0.24346520861157953
-0.20086186978583848 0.19923853883265644 0.24860372503766595
-0.2042744592166475 0.18945091971873432 0.24380567034253656
-0.17849758121734177 0.2118833065938869 0.25831153353223385
-0.17782205197577988 0.21625036010264545 0.2616295452929455
-0.17867320630317246 0.21562880286692768 0.2596295114375073
-0.17440557334189927 0.21551430234431415 0.2599802251673657
-0.17591674480205094 0.2180922032308498 0.2630014057970959
-0.17675180587535416 0.21709012994288593 0.2596680160380322
-0.17537559423213517 0.21526169785975605 0.25621458252439083
-0.17726585123305832 0.21957850465296894 0.2588985200739819
-0.17789195332294022 0.21706134089945942 0.255633914074989
-0.17705021652942216 0.21951478728770404 0.25487902124890865
-0.17886838171248948 0.22201180467127948 0.2588745590067822
-0.17684994492297684 0.22319835433482318 0.256759070954414
-0.1724809244609407 0.22139734038828998 0.256271326146217
-0.1736759528852037 0.22195571670054584 0.2596074577189404
-0.1753205493426851 0.22247642287730365 0.25597455461988033
-0.1738380328155092 0.22217047223567157 0.2549137707568127
-0.17649465653663193 0.2248307467412868 0.25771667917737545
-0.17677791270976578 0.2236071825933376 0.25378110369214596
-0.18134827766185319 0.21755701312541156 0.25454404314527096
-0.18221092078452622 0.2187323571157375 0.25662722548017086
-0.1788429156280092 0.22187012443064838 0.2570181127406079
-0.17805777344470536 0.2202238441419521 0.25587930639752926
-0.17873185727363144 0.22030550250529438 0.25744643171796383
-0.1770222321487001 0.22198671111582904 0.25722207983502926
-0.1803009644485048 0.21967363366603046 0.25717517097959103
-0.18213350925212418 0.22065186509608417 0.25897517164716305
-0.18323069665198838 0.22088468083857685 0.2565089102602917
-0.1769915059543184 0.21933352956294208 0.2549200292445141
-0.1788348988032869 0.22194844493388324 0.2589782114840466
-0.17689156386619126 0.22302937516688495 0.25682511290082516
-0.17256128642325913 0.22121375808238178 0.25637563427457394
-0.17369203123813187 0.22180426129817157 0.25973328312406124
-0.1754729137158922 0.22230643043040424 0.25604232510098995
-0.17387005541091477 0.22206801185130268 0.25490834673413815
-0.17646483931308304 0.22482240209101825 0.25771763285169186
-0.1767413303590349 0.2235066295576015 0.25379981955060543
-0.18746490630870377 0.10910439500331072 0.2535627718783337
-0.18998403701549088 0.11421504625796465 0.2560901876307446
-0.1884111151433519 0.1118568480920711 0.2539013262606579
-0.1825750008559755 0.10909467944621233 0.2559441562510449
-0.18395657691722428 0.1130792499494472 0.25878556927213253
-0.1862930640912584 0.11112070092677263 0.25662794073590817
-0.18282051238780533 0.10968101033686785 0.252116167149635
-0.18491257581477677 0.11708539733409075 0.2561618920184094
-0.18661337945228135 0.11207258710383562 0.25344135721692623
-0.18690575513606583 0.10689404615878252 0.2591138120509106
-0.19148559722667252 0.1085779071760097 0.26272233685025753
-0.19455198797946488 0.10830417284487871 0.25700631102094235
-0.1798765942788652 0.10970458397387652 0.25809892376432003
-0.1832773670888475 0.1095098854017177 0.26192733009824337
-0.18794929835563218 0.10978052029132036 0.2565373416758496
-0.18208691332107102 0.11225554356097368 0.2575487132883984
-0.1850377306676439 0.11595812448977617 0.26137998064527096
-0.18822231743102585 0.10476797828196673 0.25579866131314816
-0.18938487622504746 0.1060296894025722 0.25804825981626095
-0.19017815444236313 0.10596206793307451 0.254736685357185
-0.18643927428489243 0.10683035859584002 0.25641217192182125
-0.18839132640128647 0.1079283059549251 0.258340680203529
-0.1872560367322496 0.10653024920939592 0.2549515601016003
-0.18770757171874558 0.10974562177180437 0.25675346811780514
-0.18926454934840714 0.11276161679743914 0.25973614414701046
-0.18853178474669968 0.10744604477404741 0.2550249930239636
-0.1912877843118242 0.11053264150141863 0.25856533010968746
-0.19290512654548203 0.1095544398736873 0.2542121644831616
-0.18050353083377396 0.10872554788111834 0.2543043728686291
-0.18272016796832596 0.11041277656077532 0.25824513395795407
-0.18691904697185074 0.10983136305331377 0.25379755457410397
-0.18371595296626603 0.11127585181712298 0.2534241910792309
-0.1856766328549913 0.11665841946124224 0.25768258532056393
