ply
format ascii 1.0
element vertex 198
property float x
property float y
property float z
element face 0
property list uchar int vertex_indices
end_header
0.2446401133799025 -0.2535988985586247 -0.1892119709633869
0.24244052317375625 -0.25008973470211837 -0.1842441622399372
0.23995041992897476 -0.25077718487263534 -0.18920621911516608
0.2570752516054579 -0.2555855511713109 -0.1864591304444355
0.2511904254221388 -0.2506811915922246 -0.18145098427763404
0.24757623818153823 -0.2524960040140233 -0.1869691971921009
0.25093841698402847 -0.2517157792139134 -0.19229078928461493
0.24799037125343765 -0.2425551413583836 -0.1883179906987232
0.24535638239616836 -0.24782884111882061 -0.1937246982239765
0.2431067242884108 -0.25412413468838546 -0.18817708531847419
0.24019742157692398 -0.25129547706127975 -0.18234544137945594
0.23669672157997573 -0.2507921158361516 -0.18811058143606604
0.25218439247841323 -0.2533097266244969 -0.18487513700952948
0.2471841588282057 -0.24929988375187725 -0.17997421959867896
0.2435365929865309 -0.25063091507435653 -0.18573773542871894
0.24690967943901504 -0.24960511913777203 -0.1897334520005268
0.24498731043571914 -0.24099943032742352 -0.18595152238836707
0.24284070875877822 -0.24550914755345196 -0.19119527081480445
0.24164843704933608 -0.25874948492527816 -0.18944755832186164
0.24113696959251846 -0.2571433781671605 -0.18571884075632514
0.2393372669481703 -0.2562885879564366 -0.18908729294767798
0.2481074943804213 -0.25798511496067855 -0.18566486875048102
0.2454308882021376 -0.25415202966214034 -0.18213146070471228
0.24271375086540664 -0.2547218500661931 -0.1864940140627903
0.2433445468210646 -0.25637814393521163 -0.1899472836636585
0.24306851771110977 -0.2485438286352238 -0.18720064202776374
0.24233293678993667 -0.25228515258313033 -0.191870159306435
0.24269563105339492 -0.2585885225820622 -0.19060324768057288
0.24271321442360366 -0.2570048569727025 -0.18805945555200995
0.2420274629854628 -0.25646919003010604 -0.1904813710831684
0.2474283590578505 -0.25741615882397506 -0.18670480588903846
0.24591130163902725 -0.2540984152841649 -0.1840796832226795
0.2437870517038771 -0.25431376686573837 -0.1875848833703083
0.2438015952372023 -0.2579959630060277 -0.19138226548662604
0.24395430233711685 -0.25040823212147567 -0.18896356860628546
0.2423275127672621 -0.2536723016786656 -0.1932434354208988
0.25443810370201553 -0.18092025807381482 -0.18185030559530677
0.2508341684603163 -0.1784515081930241 -0.177955142059235
0.2498772158884474 -0.17878781250000805 -0.18154854217997016
0.25904643681282485 -0.17473767688752026 -0.18042538205614508
0.25468701269859756 -0.17351409783840985 -0.1764805529498142
0.2525783195757338 -0.17425161591053814 -0.18039632479181708
0.25737184431786025 -0.1766529231357655 -0.1833184425019306
0.25397449877495254 -0.1749088316249928 -0.17971903721323432
0.25198012736076797 -0.17558634272099347 -0.18374796847334326
0.2529570474886366 -0.17698930194855542 -0.1828231428050083
0.24981892254585708 -0.17551937690258831 -0.17934671679964484
0.2483455553316542 -0.17548108091832013 -0.18261126319399298
0.25672692206139053 -0.17063483586788983 -0.18228457013597907
0.2523363843225905 -0.16976568093777508 -0.17833081523409308
0.24993962195152725 -0.17041540136814923 -0.18213715294828833
0.25598406937355483 -0.17296120515347332 -0.18443230430117072
0.25289809849495376 -0.17156164339066357 -0.181123590865044
0.2507504239344069 -0.1719888298797688 -0.18519291917314948
0.24936300661797012 -0.17769162347794384 -0.18313153723707618
0.24768620875114883 -0.17683011284352154 -0.1808152709387821
0.24714273360008682 -0.17598630478859753 -0.18239264825811805
0.2507720008158156 -0.17362135639668316 -0.1823450539492649
0.24839824583763565 -0.17281502476216168 -0.17985936144819678
0.24765241291756118 -0.17311380794525952 -0.18199614325991095
0.2494025244974562 -0.17370210578919262 -0.1836084041976017
0.2479470982813307 -0.17278432837010235 -0.18128134945860327
0.246860863234944 -0.17292644074440808 -0.18422882894506873
0.24941104796165908 -0.17764145126820416 -0.18393277267446936
0.2489467277788588 -0.1767829804706654 -0.18251898030271949
0.24893736984962905 -0.1758909373569569 -0.18313965836992682
0.25022691633934463 -0.17576752593994946 -0.182981318631081
0.24991643574470962 -0.17509540906430096 -0.18194674591055335
0.24899834540123428 -0.17494061580181927 -0.18275045494070472
0.2489023819231459 -0.17494910946369976 -0.184910691180138
0.2470754399561354 -0.17395435264588208 -0.18276328484049262
0.24722910073036636 -0.17428648462773175 -0.18504131475916327
0.2535757437014052 -0.23265710464001507 -0.1772910271071476
0.25248009112114395 -0.2278822659540257 -0.17222318688860358
0.2510221615099379 -0.22745968392372937 -0.17700440327158393
0.25838881876701797 -0.22584223738194317 -0.17318027357092322
0.2547409549021193 -0.21863549938679547 -0.16893625895014228
0.25261759903664077 -0.22146251788616986 -0.17429488042822303
0.25439953949684585 -0.22590737035752148 -0.1792796913765949
0.25415825989479507 -0.21673902860165448 -0.17573381105890692
0.252790035273976 -0.22195714703083844 -0.18062404433718146
0.24640774872536148 -0.22608396401882977 -0.17744474748602332
0.2450247421526381 -0.22366395583630413 -0.17132694164743842
0.24267929938072647 -0.22124230852604718 -0.17652959267130316
0.25035745051140273 -0.21772685637951703 -0.17273387948503913
0.24711692478889907 -0.21269942811013073 -0.16870669166078986
0.2454366698526808 -0.21458537867546887 -0.17414250115385474
0.2475847616457411 -0.22012171140194745 -0.1787480775498432
0.24673664715523208 -0.2093859612035832 -0.17509861926069678
0.24637442972893203 -0.2141163795280537 -0.179979911842255
0.24962818768257583 -0.23716232171536297 -0.17733923236360968
0.24917304661507095 -0.23372352114201397 -0.17250100413790168
0.24811637547249282 -0.23059666147709698 -0.17530245224466742
0.2515676036142775 -0.22891263654709668 -0.17222157756319464
0.25070619728798355 -0.2247982918310246 -0.16861831287374915
0.249377371337361 -0.22437995663166851 -0.17264810840120734
0.24847352650398696 -0.23225310435772747 -0.17708404997816504
0.2486318364405104 -0.22271454325199933 -0.17396571377745093
0.24898952391380752 -0.22612106791020245 -0.17803449074259223
0.25352519896263565 -0.26261940589428756 -0.1835754577302021
0.2534657731317946 -0.25385919204235885 -0.17530099193087043
0.24954319145912612 -0.25515764942646835 -0.18249284366598548
0.25846278813118423 -0.2523283957529149 -0.17762342730989875
0.2563599958681532 -0.23793449988842816 -0.17278658489218177
0.2522019162439772 -0.24694055309773297 -0.17962612847319068
0.25401055958504165 -0.2526873051214299 -0.18507168332567633
0.25593948509926284 -0.2359301446962437 -0.18162990252008857
0.2519583120607802 -0.24640727034092755 -0.18649079541197242
0.2525841608309218 -0.26308619966984603 -0.1831106756114048
0.2517892136835524 -0.25814741840840194 -0.17242208758821906
0.24739980843300308 -0.25541096916676376 -0.18079507986536444
0.2552326336168715 -0.24664396038533062 -0.17531069258680762
0.25192684080833877 -0.23746252050877423 -0.1702564571284336
0.2493371382021376 -0.24287214866162152 -0.1773781989001316
0.2510853424333998 -0.2504955529260716 -0.18334273139467658
0.2529818430208632 -0.2332293390321812 -0.17908576766481818
0.249920846488423 -0.242757111697205 -0.18452700118055762
0.25144463923210586 -0.27268657079220626 -0.18485926727285804
0.25098329928154434 -0.2652420996713719 -0.17579629162779273
0.24973887350792373 -0.26317599406720016 -0.180433369078545
0.2535488024019667 -0.25890451660633895 -0.17642942706575812
0.25281459238762344 -0.24884271612645 -0.17159030477037848
0.2504563942217299 -0.2526103257227025 -0.17732607463827552
0.2489990010523268 -0.2626266180563054 -0.18312676886549414
0.2507346287035414 -0.24601250877858014 -0.1791649375342411
0.2509598746561476 -0.2549022137212834 -0.18401005009642066
0.24522650387520278 -0.25150856366635177 -0.19553876558771552
0.2451077714228102 -0.2420835792112431 -0.1881804231785816
0.24333298351997817 -0.2421818970728001 -0.19351539651384772
0.24960297491783584 -0.24002563944340558 -0.1892708454512638
0.24749577191109146 -0.22815017393112988 -0.18453437725534858
0.24484008696312393 -0.23412826648236126 -0.19011727611055793
0.24445980932945693 -0.24084305754185528 -0.1966790769480747
0.24548715498680557 -0.22573952367783398 -0.1924531225346607
0.24343449023003066 -0.23516106596470684 -0.197216040291695
0.2382376804613539 -0.24107183506966443 -0.1973904285811466
0.2372938409113356 -0.23493818929673047 -0.1877461437367481
0.23465728905434097 -0.23240795722485394 -0.19391212502947272
0.24118131544823135 -0.22603261461735577 -0.190404853620438
0.23748970177406753 -0.2184596060800633 -0.18531630078783454
0.23709601309532607 -0.22203722587109417 -0.19136620203485907
0.23741501715416397 -0.23069161167622418 -0.19733167330255927
0.23813998844856704 -0.21521076550961346 -0.19248352090349616
0.23737323429817642 -0.22314578285694928 -0.19755751530161322
0.23962766077751602 -0.2528965174245915 -0.1970096890114826
0.23932546522850479 -0.24695724239827008 -0.18926641980638922
0.23938274529213394 -0.243072509675034 -0.19264162222376288
0.2419630303644606 -0.2412932365226826 -0.19009695092668952
0.2411714806818434 -0.2337619959402165 -0.18533859292498053
0.24096572544807876 -0.23468239596367688 -0.1896423463009876
0.23744797852272476 -0.24479439845562787 -0.19584377745619239
0.23860716965431655 -0.23050886383534283 -0.19177178184023322
0.24021619704002822 -0.23652660837651104 -0.19576512912741126
0.24185943749184097 -0.2555860280084691 -0.19752020279398383
0.2416709080004164 -0.24968206873417706 -0.19123626390924872
0.24300003197426284 -0.24562600245953412 -0.19360420743456305
0.24363917258018936 -0.24604897192002148 -0.19116789738169135
0.24386829283470596 -0.23850923767567486 -0.18672459463110389
0.24389320757622207 -0.2384505569028935 -0.19055224100580634
0.23890429880852188 -0.24842052152634472 -0.19706303516855658
0.23986351635689224 -0.2352164088773808 -0.19339199999800147
0.24099826958412612 -0.24028927078724713 -0.1969094339989704
0.2460715189241835 -0.20559164872647137 -0.19180581609239997
0.2450348749422499 -0.2045115976619801 -0.1897022191666645
0.24599623825783218 -0.20290759196759076 -0.1916829709195179
0.24856829788917983 -0.20355857899666638 -0.19047396520605506
0.2468709960245558 -0.20218119016171307 -0.18782291451921881
0.2464050069117018 -0.20153897991658062 -0.1893321339272541
0.24588030722374404 -0.20221149912358136 -0.19227019587984504
0.24584573652977432 -0.19953133156777234 -0.19012185076704444
0.2455055132173964 -0.20021763434887738 -0.1921414498471302
0.24494266655678237 -0.20426568379879803 -0.19294888416758002
0.24413275864357437 -0.20347271850586743 -0.19094093779554785
0.2448793664240309 -0.20167486360550732 -0.19257972280016364
0.24792325642342056 -0.2025018035459599 -0.1919578526400608
0.2461616411470839 -0.201255664138802 -0.1891804699086231
0.24574422981972183 -0.20068711033345074 -0.19043504337301673
0.24515158083672012 -0.2009773551511845 -0.1932696018599552
0.24541497376198257 -0.19881245484829754 -0.19100562373629035
0.24500298645729507 -0.19923412790776104 -0.1930147920035404
0.2442263975405165 -0.2073831259298405 -0.19343785087099494
0.2441191091799208 -0.20718339076519818 -0.19263369480600775
0.24516946223015273 -0.20412778845311016 -0.19225612918367804
0.24460780766243423 -0.2055421768713078 -0.19282824436655463
0.24454409029716934 -0.20527179530144543 -0.1918435458325428
0.24524057057136978 -0.20298776021481366 -0.1910847190999073
0.24177450087303604 -0.20319336643696637 -0.19317597786417426
0.24152797606224502 -0.20124213388443798 -0.19180009404650153
0.24264079478020156 -0.2009255289125523 -0.19204062859049262
0.24538958218330825 -0.20785234859467358 -0.19310618082514228
0.24537962820763076 -0.2078314422655186 -0.19306898752680243
0.24658799317116226 -0.20476359119892926 -0.1921968672656101
0.24538260843986953 -0.2076539098310551 -0.19302383700838507
0.24537658837074722 -0.20762333264828534 -0.19297153393259467
0.24654734280342544 -0.2046186327028355 -0.1920559469841999
0.2410504236483046 -0.2043621390152058 -0.19349748531809272
0.24090957787270034 -0.20306971660137982 -0.19291231671801032
0.24264013912910903 -0.2023305594015202 -0.19262006024351538
