ply
format ascii 1.0
element vertex 326
property float x
property float y
property float z
element face 0
property list uchar int vertex_indices
end_header
0.25780367996925796 -0.06054903557778211 -0.18004200498094977
0.25396144535774673 -0.056078165678986026 -0.17491830030909003
0.2503618612551161 -0.05545002213002057 -0.17918992678156317
0.260052682425923 -0.04772403827191205 -0.17852713803282202
0.25468653586143936 -0.04517674437046857 -0.17428783217897834
0.25312721874947036 -0.04641151419163556 -0.1787987116955799
0.25785261538261856 -0.04751092186451764 -0.18231830636492194
0.2536653294825026 -0.044442057518967105 -0.17793124059668006
0.25175756361717666 -0.04604288926602216 -0.1827892277621311
0.2558237924837538 -0.05368182054043622 -0.18157593051424445
0.25151485350365127 -0.05053028455258222 -0.1763328228377384
0.247967721488423 -0.049500346093185855 -0.1807983134173435
0.2592056408190199 -0.04166862359524579 -0.18078971544733466
0.2527967109941908 -0.03947243085385175 -0.17615804711809577
0.2510795607828566 -0.04066959014416547 -0.18104257325163306
0.25704682018990005 -0.041919439940460636 -0.1839818421982807
0.2533054366373488 -0.039350807576187564 -0.1793296251677555
0.2507852330469557 -0.04032212486744733 -0.18442977110376776
0.2529031052851149 -0.05482280245304914 -0.18233720103731574
0.2503885641359755 -0.052555620579727604 -0.17790990213385047
0.24720180180305923 -0.05055925240994306 -0.1807409439467472
0.25295549776787246 -0.04416099181652875 -0.1809487704419178
0.2497188463472792 -0.04236525288105817 -0.17741750816336097
0.24809646752113784 -0.042714208273895694 -0.18092230597963752
0.25072294619316543 -0.04347410789013715 -0.18333139161100806
0.24731600430244888 -0.041012078433044864 -0.17949459592333258
0.24640339758629287 -0.04171755900860639 -0.1834526423596424
0.24717027094597305 -0.15808971217156262 -0.194048053421883
0.24678462889427627 -0.1568281500625691 -0.19092304150095404
0.24738663580650772 -0.16015246501446576 -0.19158831874361457
0.2511304631494948 -0.15850032856942028 -0.18885926047792853
0.24874264147514785 -0.15489953747273297 -0.18573968748083533
0.2463333621286818 -0.1567666231679997 -0.19047591725817145
0.24857288744682754 -0.15787769845009655 -0.19211376348963202
0.247535170581288 -0.14796243598938794 -0.19039810339441718
0.24740618612999404 -0.1548023520994267 -0.1942149166249317
0.24907130148643936 -0.14813381424427838 -0.19136769215097846
0.2470400944017836 -0.1583390085983357 -0.1921738896750492
0.24644988920921768 -0.15836919835091443 -0.18934293726911963
0.24743771698708023 -0.1603076010036549 -0.19061250130167426
0.2504708781504103 -0.15776452413082928 -0.1887072090291065
0.24744761135811294 -0.15547740450383038 -0.18520123402109565
0.2460843339228102 -0.15686780205250592 -0.1896348957203907
0.24581295397514785 -0.15623913696289868 -0.18970797101488532
0.24530941393608535 -0.1495460419941029 -0.1878232125424427
0.2467060699724623 -0.1537807433891377 -0.19126944879522742
0.2486044779085585 -0.14361974587918133 -0.1881709758423847
0.2466147556566664 -0.16169744720936627 -0.19491187373629035
0.2460012450479933 -0.16094480445862622 -0.19277951756945075
0.24785137322182144 -0.16462747743607373 -0.1917490426682514
0.24581080820793594 -0.16083937874317975 -0.18932407239904822
0.24523455050224746 -0.15939314654351086 -0.18732758501997412
0.24513453390831436 -0.160466268568047 -0.1900771621846241
0.24300390627617324 -0.1614723651695332 -0.19100109378328742
0.24294316914314712 -0.1551944761562428 -0.18932273129454077
0.24386847164864028 -0.1581120192098698 -0.19288674632540168
0.2464808240198561 -0.14839553823948712 -0.19065160194864691
0.2466932549738356 -0.1615774928617558 -0.1953053537987751
0.24623125937218154 -0.16079723825932354 -0.19348303119173468
0.24778044369453872 -0.16431939592839093 -0.19228521625032843
0.24572140124077285 -0.16081754854203076 -0.18966091314783515
0.2452996387743422 -0.15947303166867108 -0.18799144665232123
0.24560195353264297 -0.1606461851883015 -0.19020397106638373
0.2433213010096022 -0.16203606119633526 -0.19148713985910834
0.24330783035988296 -0.1558667867469868 -0.18974865118494452
0.24411493685478652 -0.15846289685250134 -0.19320768753519477
0.24688452627891982 -0.14900459340096325 -0.19126338402262152
0.24487996247047866 -0.15625569215298504 -0.19616717735758246
0.2450116291307875 -0.15233592679978222 -0.19386873284807624
0.2453158512377211 -0.1590217351007542 -0.1937053267144245
0.24954331066841567 -0.15877705803395123 -0.18988812605371894
0.24826848652595962 -0.15244340887547345 -0.18718535343637885
0.24666983034843887 -0.15728071322918744 -0.19093895594110907
0.24888754036659683 -0.15843278160572857 -0.1959268216275257
0.2502710833811232 -0.1469862162160954 -0.19393900672426642
0.24686926748985732 -0.15480990698815197 -0.19766262809267462
0.24841302778953994 -0.1513712703275761 -0.19573580364218177
0.24777424481148208 -0.1160053162860951 -0.19385167101850928
0.24669701006645645 -0.10763621321202131 -0.18697494904032172
0.24490815546745742 -0.10749712577343794 -0.19259137550821723
0.25238371041054214 -0.10544703891754957 -0.18902172783842505
0.24911838915581191 -0.09504097691059919 -0.1842063430928272
0.24638193991417373 -0.09966658046723219 -0.18981210032930793
0.24715936329597915 -0.10486142328263136 -0.19586253801813544
0.24735027697319473 -0.0923433004903874 -0.19182553032865943
0.24535399821037734 -0.1000589280414662 -0.1966820124768299
0.24178970005745376 -0.10704174628735395 -0.19549719134798468
0.2404248132967421 -0.10207960000515791 -0.1864850435637516
0.2372989073061415 -0.09936949601651045 -0.1929060880326313
0.24504465010399307 -0.09273271253586622 -0.19008759299745978
0.2411835804247328 -0.08674862971783491 -0.18537700811853827
0.24005633738274063 -0.08918353906155439 -0.19113542775144995
0.24131649878258193 -0.09586882582188459 -0.19635701815119208
0.2405616059565016 -0.08243876686573835 -0.19164473453989447
0.2399839773439833 -0.08931292584420057 -0.19699407259455146
0.24391609575981582 -0.11898118248463484 -0.1954234902047199
0.24323862936729873 -0.11350405207157942 -0.1880731199168247
0.24249309447044815 -0.10983526697636457 -0.19184008876314582
0.24613672640556777 -0.10695455959320875 -0.18971838692655982
0.24512744095558608 -0.10108798733235212 -0.1852848742388767
0.2436865582727858 -0.10118412962437483 -0.18946573773851813
0.24134194996590103 -0.10989145925522657 -0.19480388502111853
0.2412461056971022 -0.09783142796040388 -0.19094402233591498
0.2426416888498732 -0.10278123608113142 -0.1951161835574192
0.25479501631493057 -0.1366906612205586 -0.18208023051252784
0.2529975786470839 -0.13503888240338177 -0.17901120225420417
0.2515491857790419 -0.1354009210157475 -0.18237811962595404
0.2590511455797621 -0.13628087928772778 -0.17998760084143103
0.25684744265312637 -0.1343279480028233 -0.17729136983385504
0.25448531058067764 -0.13493859758854718 -0.18091333548059882
0.25841701176399673 -0.13510671248913617 -0.1814963732146305
0.2560989871286818 -0.12979380777359814 -0.17982060352793158
0.2566155209803053 -0.13250838211060376 -0.18303731719484748
0.25779163983101333 -0.13078470519066662 -0.18020047883024634
0.2543609156870314 -0.1372094451475224 -0.18183559814920844
0.25250625756020034 -0.1363965719032368 -0.17835823337068976
0.2507821336054274 -0.1362185775327763 -0.18169926742544593
0.25725871470207656 -0.13494262090206952 -0.18010521570673407
0.2551785722040602 -0.13378597786904187 -0.17707409600248755
0.25210344937080825 -0.1342947780180058 -0.18053308764925421
0.2540118708872267 -0.13184551885605664 -0.18034342566957892
0.25284892466301406 -0.12860536566258282 -0.17810230592718543
0.25347477343315566 -0.13010235121727795 -0.18125494460096778
0.2527188077234694 -0.14050160339356274 -0.18148628512850226
0.2522556200289198 -0.14004398873329968 -0.18034770230284156
0.25287413742775405 -0.14000304034233899 -0.1817460570715946
0.2531535640024611 -0.1393829434204182 -0.17968023458948554
0.2525722399019667 -0.13863825788975567 -0.17855863908758582
0.25220537331337417 -0.13824592521668286 -0.1804461840771717
0.25166338827843154 -0.1387055068302235 -0.1805355165385288
0.2516102209352919 -0.13617387404919476 -0.17965183297625006
0.25312429812187637 -0.13587287059307904 -0.1820081088923496
0.25364649441475356 -0.13030852368355603 -0.17982824782362403
0.25102812197441543 -0.07948736837387892 -0.18783853093614997
0.2501366153025099 -0.07248711576939436 -0.18279183546534003
0.24852788594002212 -0.07167851915837141 -0.18685278932085456
0.2539290204309889 -0.06702062478543135 -0.183693370618729
0.25137388851875747 -0.06116887917996259 -0.1795686993979496
0.24971950199837173 -0.06356270602227064 -0.18434072176447333
0.24984663870567764 -0.06590034058571669 -0.19018255809774817
0.24853849556679214 -0.056960850863464786 -0.18599281350603522
0.24761301424736465 -0.06185652306557508 -0.1906322304390949
0.24659013893837417 -0.07087615123272749 -0.19042629639139594
0.24483585503334487 -0.06510242810726972 -0.18434358278742255
0.24308723356956924 -0.06408715239048811 -0.18908551970949591
0.25055742409462417 -0.05666050305844159 -0.18662858644953192
0.2463628664278456 -0.051401108412750675 -0.18202889601221503
0.24515664723152603 -0.05385538926602216 -0.18747166434755744
0.24798625853294815 -0.05874998858452649 -0.19326317945948066
0.24612403061623062 -0.04931431999684186 -0.18805298844805182
0.24457776692146743 -0.05377328386784406 -0.1930743817471546
0.24605846550697769 -0.07951733460903974 -0.1886898193739933
0.24570495035881484 -0.07417874029160353 -0.18327110151281775
0.24558138993019546 -0.07133129230023237 -0.18649528066149176
0.24792033579582656 -0.06737717977047773 -0.1858012888812107
0.24644899513954605 -0.06225624671460004 -0.18145248929491462
0.24637586024040664 -0.06228642156601758 -0.18537848333349646
0.24395251419777358 -0.06763209393502088 -0.19039431849947394
0.24156230833763565 -0.057784587054260685 -0.18557002285948218
0.24350530054802383 -0.06132142236710401 -0.18992487231722296
0.24759680178398574 -0.08103755107403608 -0.1895108733557743
0.24779880192512954 -0.075983464627274 -0.185227013029961
0.24834644940132583 -0.07245224705220076 -0.18772224227419318
0.248603285815663 -0.0717463492441258 -0.1865201357983631
0.24844885018104995 -0.06682245424271437 -0.182821965613274
0.24874353554481948 -0.06600247314453932 -0.18589857856264533
0.24414318945641006 -0.06994529059410902 -0.1909304324769062
0.24241197254890884 -0.06104585519314618 -0.18689574936857642
0.2443358912729689 -0.06356513491154524 -0.19070655743112983
0.25968003418678726 -0.09764532735825392 -0.18460886816015662
0.25819176581139053 -0.09133578827858778 -0.17897438148489417
0.255294324424214 -0.09029369047165724 -0.1839619938515705
0.2647979274057814 -0.08793601384640547 -0.1818364177130741
0.25949674990410293 -0.08038592329502912 -0.17724516133299292
0.25725853588814224 -0.08304375401020857 -0.182176715531258
0.2603387251162001 -0.08706952622414442 -0.18799630443087043
0.25720137503380264 -0.07756488016129347 -0.18352306524744452
0.2551081195139357 -0.08271856596947523 -0.18843490520945014
0.25148606446022476 -0.08592610052109571 -0.18588260451784552
0.2486575260424086 -0.08221490672112318 -0.17902318278780402
0.24615115072960342 -0.08099845042706343 -0.18494055310717047
0.2563629164957472 -0.0749625711727223 -0.18372502068510474
0.25028300431007827 -0.07068255534649702 -0.17897797266474189
0.2495291843676039 -0.0730726717996678 -0.18440688292017401
0.2539322390818068 -0.07675558319569441 -0.18866646925440253
0.2511582389139601 -0.06824758639813276 -0.18409142533770026
0.25020194199318374 -0.07275177529335829 -0.1892170671605152
0.2529447093271681 -0.09607891729355665 -0.18538715580931128
0.2509930148386427 -0.09193110456944319 -0.1783648941897434
0.2497476949953505 -0.08895628145218702 -0.18270698825350226
0.2546942248606154 -0.08352574697018476 -0.1821193311595005
0.25152844336266006 -0.07925167670727583 -0.17768547574510993
0.250037075545735 -0.07963572433472486 -0.18224508205881537
0.2511801138185927 -0.08552418640137525 -0.18599174062242926
0.24895411875481094 -0.07603371134281965 -0.18185061851969184
0.2504265322946974 -0.07992112627507063 -0.1863386992596668
0.2521776571535536 -0.11290903380394789 -0.18453929463854254
0.2526090159677931 -0.11010226598263594 -0.17874974647989691
0.25030291226143325 -0.10875785341740461 -0.18306036929121436
0.2587323799395033 -0.11009481540203901 -0.1796376917742771
0.25502467301125015 -0.10161347678185316 -0.17555502692690314
0.25323289778465713 -0.10517179956913801 -0.18066527585020484
0.2539339080118605 -0.1088848113107762 -0.1860216621541065
0.2537498488687941 -0.09657806149006697 -0.18257162610521735
0.2507711663507887 -0.10358028104782911 -0.18731156627169074
0.25443077233070815 -0.11190792909146162 -0.18715549150934638
0.25332707312340225 -0.1121116577673039 -0.17890343705645026
0.24969017651314224 -0.10757994642735334 -0.184577918448357
0.2573451414370009 -0.10235382607460829 -0.1816033933543247
0.25284558680290664 -0.09732392421246382 -0.17714100221624793
0.2510315194391676 -0.0992659329462132 -0.1829025957964939
0.25354260351891006 -0.10289557269097181 -0.18665898481836737
0.2520098104738661 -0.09201773992062422 -0.18285330275526465
0.2520754351877638 -0.09706129124642225 -0.1878803286932987
0.2514362945818373 -0.12035956969738813 -0.18703690806856574
0.2517672195696303 -0.1201663612413487 -0.1807043615960163
0.24970519688362564 -0.1148502676773152 -0.1831910673760456
0.252974988486714 -0.1114843486833653 -0.18092582265367926
0.25149434950584854 -0.10752610853195997 -0.17681161204805793
0.24993580725426162 -0.10751014938832136 -0.1812183324479145
0.25035375502342666 -0.11461147656918379 -0.1850242678307575
0.24975502636665786 -0.10433991244316908 -0.1813428316496891
0.2499225154184767 -0.10762231042862745 -0.18573265413275183
0.2468513860964247 -0.043184101490982486 -0.19320306817522467
0.24247414019340957 -0.039864182381638004 -0.18909145037165107
0.24386173632378066 -0.04111969461918683 -0.19278067986002387
0.2537627234720656 -0.038274913935669376 -0.1916146043919605
0.24846995022530044 -0.036423563866623355 -0.18719681242933692
0.24779731180901016 -0.03760990491391034 -0.19108015934458197
0.250908555056996 -0.04087173929692121 -0.19466838876238288
0.24711966660255874 -0.03859102716923566 -0.19123478869429053
0.2464072122835585 -0.039794087319382145 -0.19532743731966437
0.24563253071541274 -0.04004952302456708 -0.1944658819817585
0.24176329519981826 -0.03753355136395307 -0.19054124394884528
0.24217754748100723 -0.03814554205418439 -0.19403821865549506
0.2516611233019301 -0.03517940631390424 -0.19372577110758246
0.2467709794306227 -0.03383800378323407 -0.18927287200918616
0.2455083742403456 -0.034697651772507145 -0.19311732689371527
0.24975562241310562 -0.03760024896145673 -0.1959616903447193
0.24781161692375625 -0.036390095858581974 -0.19292246440878333
0.24576258805031265 -0.036775171666153385 -0.19701272884836615
0.24218499806160415 -0.04123428454876752 -0.19427180925836982
0.24048060324425186 -0.0398673414278111 -0.19177735487451972
0.24127560999626602 -0.03937309971333356 -0.19377038518419684
0.2452400341295668 -0.03848257651806684 -0.19378901163568915
0.24209821369881118 -0.03728833785534711 -0.1907117132329029
0.2427586331629225 -0.03778320541859479 -0.1932870809220356
0.2453565016054579 -0.03867983808995099 -0.19546306768885077
0.24380767491096939 -0.03772929301739545 -0.19301461318960608
0.24259376671547378 -0.03770813336850019 -0.19590655604830207
0.242721618678517 -0.04244571915150495 -0.19525707403650702
0.2417772426866957 -0.04127281895161481 -0.1934686962746662
0.24336213019127334 -0.040777772574432804 -0.19481784740915717
0.24368280318016494 -0.04039955130101056 -0.19405961672296942
0.24288332607979263 -0.03965774169445844 -0.192458218731789
0.24446779635185684 -0.03976386776448102 -0.19409886638155402
0.24508339312309707 -0.04041305175305219 -0.19690949360361518
0.24338632967705215 -0.039390742688187076 -0.1945380334042591
0.24280399229759658 -0.03943037977696271 -0.19668834547033728
0.25901520397896255 -0.07506965091706129 -0.18369988242617072
0.25745153572792495 -0.06917375317097517 -0.17903642992010535
0.2557196035646864 -0.06879459312439772 -0.1829415623330158
0.2613196983599135 -0.06216537943363996 -0.18039836625090064
0.2582477941774794 -0.058141469864853336 -0.17627001444330634
0.2565947785639235 -0.059995368032463504 -0.18105640152922095
0.2588418736719557 -0.06165739884854169 -0.18635756412973822
0.25692212727302993 -0.056006669907577945 -0.18218051532736243
0.25418353226417983 -0.058649152426727726 -0.18668342272272528
0.2549514189028212 -0.06591618052006575 -0.1856363181256336
0.25218874361748184 -0.060857340602882816 -0.1799184445523304
0.2504127636217543 -0.06016252925873609 -0.1845793489598316
0.258840741183705 -0.052922606377609684 -0.18332625071039618
0.2534172549509474 -0.048958539872177555 -0.17813979724874915
0.25182658579582656 -0.050761252551086856 -0.18379408756723822
0.25686884072060073 -0.05374214044094892 -0.1885919187449497
0.25399553921455825 -0.04795387378216596 -0.18362570444574774
0.25159311440224136 -0.05047443500042768 -0.18861297408571662
0.2543228879236647 -0.07290874412537428 -0.1847186599158329
0.2531980886721083 -0.06808148315430494 -0.17988661567202033
0.2533591404222914 -0.06566037228585096 -0.1829408470772785
0.25423091795677627 -0.06066495171070905 -0.18213445583811225
0.2526161089205214 -0.05680215349675031 -0.1781517926835102
0.2523131385111281 -0.05712258806706281 -0.18184883038034858
0.2514024391436049 -0.059445202260025455 -0.18606228271952094
0.2498312011026808 -0.053870826869018985 -0.1821994994067234
0.24897420552010024 -0.055739402680405094 -0.185880488552956
0.2564019575380751 -0.15622027209282727 -0.179408303298859
0.25538581755394424 -0.15468007317066998 -0.1757079575442356
0.2540961518549391 -0.15823081126690716 -0.17584221700659217
0.26011437323326553 -0.15642431369305462 -0.1744465593480152
0.2567288890146681 -0.152575746088036 -0.17077059189310492
0.2535566106104323 -0.15416939547539563 -0.1757096413754505
0.25940776016945327 -0.15739314249039502 -0.17779908219805182
0.25777006294960464 -0.14789815237999768 -0.17561388651361884
0.25646984722847427 -0.15348008265972943 -0.18019879499903144
0.2599383607172438 -0.14618998756886334 -0.17713016907206
0.25675082352394546 -0.15545570841313214 -0.17872769276133002
0.2552078380846449 -0.15506711593151898 -0.1749304596566242
0.25489556935066665 -0.15791238835335583 -0.17543076614370764
0.25865072157616104 -0.15436483910561413 -0.1748900328063053
0.2555879369043776 -0.15197370937348217 -0.17123652140131415
0.25237715389961685 -0.15275606503964276 -0.17617120484342993
0.2555641546511122 -0.15407253792763562 -0.17587753275862159
0.25496655848259414 -0.14764052620411725 -0.17403041461935462
0.2554416671060988 -0.151404932050713 -0.1783288333796543
0.2581113591455885 -0.14071245482445568 -0.17449576298227729
0.255568982627339 -0.1595718114662251 -0.18049497047892035
0.2546929731630751 -0.15819105496884198 -0.17799816171160163
0.25455451157326187 -0.16281616678715558 -0.1758757744216007
0.25489294674629653 -0.15869612982750744 -0.17552214006414832
0.2533369078897902 -0.15652114143849225 -0.17266241351595343
0.2521454110407301 -0.15784241250038952 -0.17514861265650214
0.25240212824577773 -0.15970732262612194 -0.1765004310988468
0.25256657746071304 -0.15387241533280224 -0.1744720105313343
0.2526335730814406 -0.1560276596832356 -0.17865028122892798
0.255787910487599 -0.14677603533745617 -0.17550875882139624
0.2559265508913466 -0.15933012953282208 -0.18095581869116248
0.25513851788277114 -0.15796247115612835 -0.17872439960470618
0.2551246300005385 -0.1625915913868031 -0.17649336794844092
0.2550705089830824 -0.1585928200769505 -0.17597979942789496
0.25389337685341323 -0.15643003573895306 -0.1734644089125675
0.25292134430641616 -0.15789495399475903 -0.17542040983667792
0.25209039595360244 -0.1593324839162907 -0.176902017393021
0.25249654200310195 -0.15393976858139843 -0.17488003412714423
0.25250959542030776 -0.15584425619126172 -0.1788336102150959
0.2555907979273268 -0.14669778934002728 -0.17591955403318824
