ply
format ascii 1.0
element vertex 357
property float x
property float y
property float z
element face 0
property list uchar int vertex_indices
end_header
0.250258924033589 0.031731993050567196 -0.18044360617628516
0.2492405190729567 0.035896360964767025 -0.17527111510267676
0.24674809124702896 0.03683912763117938 -0.18050361315241278
0.2546466603540846 0.03952169427394061 -0.17597659567823828
0.25179708149666274 0.04544684299945025 -0.1719041381262821
0.24910885241264785 0.04316818723200946 -0.17753311137190284
0.25175148394340957 0.03837716588496356 -0.1824409876250309
0.25099194195503677 0.04860761770724444 -0.17887809018125952
0.2495231642984816 0.043719589800826596 -0.18396625558367194
0.2420603647493788 0.03825971493243365 -0.18011542300215186
0.24084776785606826 0.040208786816588925 -0.17403007189264716
0.23785776045555557 0.042950451464644955 -0.17951618770590247
0.24648457911247695 0.04617726811885028 -0.17558813730707587
0.2431529774927565 0.05117407450198321 -0.17106693128576697
0.24171799566978897 0.049398213715545224 -0.1769574795149845
0.24337011721367324 0.044609516949645565 -0.18185905257692755
0.24336046126121963 0.05458071836947589 -0.17821875850191535
0.24208855774635757 0.05050000557421832 -0.18304077426424445
0.24607890990013565 0.02592930206774859 -0.18099512795439185
0.24591487791771377 0.028804868550292535 -0.17643219868174018
0.2458382859491774 0.03269386300563006 -0.17898485700121344
0.2482520952486464 0.03358447560786395 -0.17620875576963843
0.24798822548622573 0.03716441998004107 -0.17259026209345282
0.24683171656364883 0.038635701031676815 -0.17635249237051429
0.24468785670036758 0.029841959567061944 -0.1805975351714176
0.24525588896507705 0.0387326181840816 -0.17785490194788398
0.24685251858467544 0.03626510509966998 -0.18182784954538764
0.25239914801353897 -0.02287983885289045 -0.18531707564821662
0.25049090531105483 -0.02167412629605146 -0.18235558907022895
0.2491639271044203 -0.023427039294250922 -0.1845539275788349
0.2554290905260512 -0.02312305560589643 -0.1825838301562351
0.2523660674356886 -0.021248370318420844 -0.17976806203356208
0.24937772896522964 -0.02207410326481672 -0.18378769496908606
0.25592756417030776 -0.023908972649582343 -0.18427888194551886
0.25423455384010757 -0.019781827836044746 -0.18262121716967047
0.2539064898752638 -0.022396117358215766 -0.18603851536741675
0.2511229529642531 -0.022408306508072334 -0.18394415716162146
0.2494507446550795 -0.02153691640377851 -0.18102884928217353
0.24850189831490005 -0.023225188164719062 -0.1831287954234165
0.253585876491017 -0.02224048963070722 -0.1813420865916294
0.25126809027428115 -0.020728498606689887 -0.1786354694747013
0.24817168858284439 -0.02133402219296308 -0.18258810678949774
0.25278520729774917 -0.022629797368057685 -0.18233891467085303
0.25176990177864517 -0.01928806295872541 -0.180949247279076
0.25235295441383804 -0.021502226500519233 -0.18428308407297553
0.2509264960550734 -0.025348931460388618 -0.18469843904009284
0.25056135800117935 -0.024786114602096992 -0.1840857628964466
0.2509760871195265 -0.027216762213715034 -0.18423918525209845
0.25017064955467666 -0.02529290309429975 -0.18198425213327826
0.2493610992693373 -0.024423450140961128 -0.18092127779951514
0.24840372946495498 -0.025398790745743232 -0.1825269077204746
0.2502223863863417 -0.026142716317184882 -0.183350912132172
0.25026661303276504 -0.02396666994572492 -0.18257083634367408
0.2501099720262953 -0.02433586111546369 -0.18506941834917487
0.2514532223009535 -0.024984657673843818 -0.1851073418044132
0.25120443251366104 -0.024582564740189033 -0.18469897548189582
0.2518514409326979 -0.027013838200577216 -0.18459445873728217
0.2500392213129469 -0.0249113141584477 -0.1822789225958866
0.24951207783455337 -0.024300128130920844 -0.18155362347593726
0.2491162433886 -0.025386482386597114 -0.18274939695825995
0.2499525561594435 -0.02585205426693769 -0.18358579913607062
0.2503563776277968 -0.024060994296081977 -0.1829876367234272
0.24989462044472183 -0.024073213248260932 -0.18522179762354316
0.2531356230043837 -0.014834791331299262 -0.18323335687151374
0.24540943053001846 0.09298950442790178 -0.1940967653178257
0.24319797899956191 0.0939677358579555 -0.19142941276064337
0.2420579805635878 0.094426691622726 -0.19345108310213507
0.24757278111214126 0.09610012182711748 -0.193401879467873
0.2447319045328566 0.09694355735301165 -0.1906172249697727
0.24331492331261123 0.09663400063037066 -0.1927452448987049
0.24600500014061416 0.09588068732737688 -0.1944161717080158
0.24374139454597915 0.09686043867587237 -0.19208168128958167
0.24300468113655532 0.09642952689646868 -0.19491047302713813
0.2454342856668898 0.09422910222529558 -0.19409531990518988
0.2433922901415297 0.09501048931597857 -0.19166565577021064
0.24216222908729995 0.09553903350352434 -0.1935202840947193
0.24762737896675552 0.09747475394724993 -0.19368494192591132
0.2448588028215834 0.0982128084611812 -0.19097194711199225
0.2433021679186293 0.0979289413404384 -0.19294088224401892
0.24604118015999282 0.09720164546488909 -0.19441018144121588
0.24403739121193374 0.09805777678012041 -0.19225279132357062
0.2432399406694838 0.09770125159739641 -0.19504148403635443
0.24202829745048965 0.09515348085879473 -0.19697201887598456
0.24136006977791274 0.09544366607188372 -0.19614570478430213
0.24062574055427993 0.09650480756282 -0.1960118476532978
0.2425331487917372 0.0965248943281093 -0.19661051670542182
0.24173259880775894 0.09679269799708513 -0.19572343567839087
0.24116212275261367 0.09738263496874956 -0.19578496257296027
0.24056470539802993 0.09685200461863665 -0.19653204719057502
0.23983556177849258 0.09723871955393938 -0.19553572575083197
0.23988533165688003 0.09738552579402117 -0.1969033841275257
0.24288976338142837 0.09492954620837359 -0.1975221995495838
0.2428582325243422 0.09501075753688006 -0.1973885063313526
0.24289685633415664 0.09623527535914568 -0.19652496913900794
0.2428177609705397 0.09480494269847063 -0.1976086709879917
0.2427678718828627 0.09488379964350847 -0.19746426383486212
0.24280429032082046 0.09618201860903887 -0.19657865802278937
0.2399825468325087 0.0957745612573543 -0.19758955279818
0.23941946175331558 0.09608393916606096 -0.19689776638975562
0.24042230990166152 0.09627330312251238 -0.19762147108545722
0.25544709112877334 0.002214312643996759 -0.18262175361147345
0.2551543727182814 0.0027739406537929017 -0.1793489966773075
0.2526715412401625 0.0037334264230647523 -0.18211356441011847
0.25772649195427383 0.0051102341127315 -0.1782731477402729
0.2561473861002394 0.007910460324279351 -0.175036064186005
0.25333941128487075 0.007569462151519342 -0.179598710336594
0.25537300255531753 0.004501164050094171 -0.1816552344941181
0.2554038777613112 0.01197874555110125 -0.1793458376311344
0.255689205195851 0.009692311377517266 -0.1842574540757221
0.2566608801149794 0.014918983073226495 -0.1811466131590885
0.25494963076347793 0.0007072986078181701 -0.1819497410439533
0.2541141524576613 -3.141155720563359e-05 -0.1772847239159626
0.25085324194664443 0.0028207302999415833 -0.18028596679201545
0.25556594279045547 0.005973547787658258 -0.17768544594278754
0.2537568822168776 0.007885992617599053 -0.1737625960492176
0.25073909905189956 0.008256971926681084 -0.17860761920443
0.25301319506401504 0.005368411631576105 -0.1800978992365879
0.25299042608971084 0.012329161257735772 -0.17801352480879248
0.25419265177483047 0.011420309634200616 -0.18237211445799292
0.2547476902269789 -0.004393488078125433 -0.1835972432278675
0.2547907843851515 -0.004511952309616522 -0.18159136811724128
0.2544940724634596 -0.002864688544281439 -0.18139821926584662
0.25578183081383193 -0.0025968252706608337 -0.17948796490660132
0.2559438958429762 -0.001998066811569647 -0.17749894300928534
0.2541644587778517 0.0003913343858638244 -0.17894261220922889
0.2531789555811354 -0.00667640557766767 -0.18167940417757453
0.25351721194023574 -0.0016169547128757995 -0.17971394101610602
0.25637596991295303 0.0004913509797969299 -0.18331808487406195
0.2579496517443129 0.05457654604434161 -0.1819369260453266
0.2560973181986281 0.06096416720866351 -0.1767462853573841
0.2539578690790602 0.06180456289767413 -0.18102688232889594
0.26075953390831436 0.06620958456515459 -0.1785869959973377
0.25705355551475967 0.07133451113223223 -0.17423700431814612
0.255397023227162 0.06934106359004168 -0.17905419210424842
0.2564902916216322 0.06801912197589068 -0.18420968095293463
0.2549170270227858 0.0749693215799251 -0.18020694593420447
0.25332951691383804 0.07103297123431353 -0.18491534034243048
0.2532504215502211 0.06328317532061724 -0.18434912601938666
0.25062209513420547 0.0682864488077083 -0.1783598128937763
0.24871987250084365 0.06921926149844317 -0.18330474833479346
0.2570697083734938 0.07596692451953081 -0.1818928186081928
0.2519364371561476 0.08026248225688128 -0.17696154753199042
0.250814081695027 0.07832038411616472 -0.18237876037588538
0.2548589124941298 0.07453328380107073 -0.18716361264219702
0.2521483912729689 0.08192279943942217 -0.18222352007856787
0.2505806699060866 0.07851144680499224 -0.18724904099932135
0.2527262583040663 0.054671526045791195 -0.18255010882845343
0.2519629016184279 0.05957940229891925 -0.177249318756966
0.251482547786183 0.06220245370387225 -0.18063378969660224
0.2539665713571974 0.0667072833490291 -0.18007743994226874
0.2520953431391188 0.07105606803416399 -0.17587014178266944
0.25174504664177383 0.07093188175677446 -0.1798932168864292
0.25026297714943374 0.06750819096087603 -0.18423215190401496
0.2480154052042433 0.07532376060008196 -0.1801734332226795
0.24886816885704482 0.07249385127543596 -0.1841819200896305
0.24799519922966445 0.04139098534106402 -0.1973468426846546
0.24649965908760513 0.04707345375537066 -0.19204031566610755
0.2447844758295485 0.04841500529765277 -0.1964860622071308
0.2518267646097609 0.051411181778899716 -0.19382599631777228
0.24846583750481094 0.05724823483943133 -0.18952918688288153
0.24581247713798965 0.055687546820632504 -0.19441968838205756
0.24722647812599624 0.052422940821639584 -0.19956066349974097
0.24564975645775283 0.06027659782885699 -0.1955407474421543
0.24473351385826553 0.05609360346316485 -0.20035511890879096
0.24353236105675186 0.05025124558924823 -0.20046845714083136
0.2411828651689955 0.054511040539733456 -0.1943057839058918
0.23942732956642593 0.05575662860392718 -0.1994782451771778
0.2472410812639662 0.061915069909087704 -0.19739024976721228
0.2424336090349623 0.06641274699687151 -0.1928018842124027
0.24184322502846206 0.06442078957080034 -0.19817068318357886
0.24469655897850479 0.05986258396624713 -0.2027893726014179
0.24240535643333877 0.06847360739230303 -0.1984408859395069
0.2418472781443068 0.06444618114947466 -0.20325448254576148
0.24322980787987197 0.04084587106227069 -0.19922590891352118
0.24192905571693862 0.04523956784724383 -0.19324206451406897
0.2413356914781996 0.0483737588834682 -0.19679113368025244
0.24556762125725234 0.05151781448840289 -0.19611168543329657
0.24340135004753555 0.05608537802218585 -0.19176257292261542
0.24239361431831802 0.05631023654460101 -0.19587675372591437
0.24111253168816055 0.050180673689834164 -0.20002547542086066
0.2396485224031874 0.05958348521708636 -0.19603035489550055
0.24134349968666519 0.05633044251917987 -0.20029342810144843
0.251649202372975 -0.012560069470413642 -0.19305264095297278
0.25089121010536636 -0.010557144789703803 -0.18855673710337104
0.24965787079567398 -0.012281030325897651 -0.19129908720484198
0.25616032030815566 -0.01126956930638166 -0.18778125087252082
0.2537868633531996 -0.006462961344726996 -0.18413164357176245
0.24984908249611343 -0.008063256649979072 -0.18969849387636603
0.2516344800257155 -0.008764505295761543 -0.1914247188948673
0.2517860546373793 0.002238392920486017 -0.18951294461718024
0.251596392657704 -0.004073053507812933 -0.19430542627802314
0.25326043513054336 0.0019777418088832337 -0.19083214441767157
0.2499886765741774 -0.015437513499268012 -0.190671748318581
0.24931562092537368 -0.015919566063888984 -0.18521457056036414
0.2479749932550856 -0.015102416186340766 -0.18864097336759986
0.2529841676020094 -0.012427240519531684 -0.18605554739466132
0.2503694310450026 -0.009380996136673408 -0.18173726538649024
0.24701154377693618 -0.010123103766449409 -0.1874926004790348
0.247745873000569 -0.009569287209518867 -0.18830368558397712
0.24739909317726577 -0.00045073023320050664 -0.1863760415696186
0.24837470200294937 -0.004558354525574164 -0.1903416428946537
0.2504788651728102 0.0051752627801814515 -0.18669975439539374
0.2493993654512831 -0.01713305702687116 -0.19286567608347358
0.24952107813591445 -0.016966104416855293 -0.1899032358311695
0.2501781001352736 -0.018058389334686713 -0.19024730364313544
0.2504900112413832 -0.015526801257141547 -0.18765688578119696
0.2496612086557814 -0.01284250607968183 -0.18463345507612647
0.24712467339271987 -0.012768477110870795 -0.18846519927015723
0.24785488989586318 -0.01788297286511274 -0.19038880506983222
0.24855065491432632 -0.009533345608719306 -0.18822093943586768
0.24956315901512588 -0.011288106350906806 -0.19267750421991767
0.2514706864618727 -0.0024889706659397643 -0.19016013185015143
0.24958628561729873 -0.01703235497952314 -0.19343633095255316
0.2498387112879225 -0.01670154920101972 -0.19085235039225043
0.25072342303032363 -0.018022924571045356 -0.19082329312792243
0.25050610449547256 -0.015533596186645942 -0.18807091454496802
0.24964171793693984 -0.012777030377396064 -0.18532956282129706
0.24780649092430557 -0.012953430323608833 -0.1887392018221897
0.2479469194673964 -0.0183272658872685 -0.19102636615267218
0.24869376566643203 -0.010195732026108222 -0.1887396786593479
0.2499269261621901 -0.012010544447906928 -0.1931448791407627
0.25171256211037124 -0.0035257636594852966 -0.1907960240029377
0.2560047521852919 0.0784795583200374 -0.18328367809286536
0.25216257717842544 0.08295041331767229 -0.17815997342100562
0.24856299307579482 0.08357858666896013 -0.18243159989347876
0.25825375464195693 0.09130454072474627 -0.1817688111447376
0.25288766768211807 0.09385183462618975 -0.17752949038973273
0.2513283505701491 0.09261709460734514 -0.18204039970865668
0.25605374720329727 0.09151765713214068 -0.18555999437799872
0.2518664613031813 0.09458652147769121 -0.18117291370859565
0.24995869543785537 0.09298574933528093 -0.1860309008740467
0.25402486469978774 0.0853467584562221 -0.18481761852732123
0.24971598532432998 0.08849832424639849 -0.179574495949654
0.2461688533091017 0.08952826270579485 -0.1840400014304203
0.25740677263969863 0.09735992559909014 -0.18403137365808905
0.25099778321022476 0.09955617794512896 -0.17939973513117255
0.2492806926035353 0.09835901865481524 -0.18428424636354865
0.25524795201057876 0.09710916885852007 -0.1872235153101963
0.25150662806267227 0.09967777142047075 -0.1825712833785099
0.24898630526298965 0.09870648393153338 -0.18767144421568335
0.2511042371057936 0.08420577654360918 -0.18557885924807013
0.2485896959566542 0.08647301802157549 -0.18115159014692725
0.24540287401909316 0.08846935638903765 -0.1839826021575016
0.2511566295885512 0.09486758718012957 -0.18419042865267218
0.24791991856331314 0.09666335591792254 -0.18065918127527655
0.24629759934181655 0.09631440052508501 -0.1841639939927143
0.24892407801384414 0.09555453071116594 -0.18657306472292365
0.2455170765184828 0.09801650056361345 -0.18273626903524817
0.2446044698023268 0.0973110795926967 -0.18669433037271918
0.24544257071251357 0.033957481474868344 -0.1920167271279377
0.2450787439608046 0.03707855948924212 -0.18832474092474402
0.24346554424995864 0.03734499225138812 -0.19231883326998175
0.2517073765062758 0.03641486176966815 -0.18818370143404425
0.24879610684151138 0.04122114190577655 -0.18455577532282294
0.2462347760462233 0.03970068702220111 -0.18906225899687232
0.2478001132273146 0.037450701088897274 -0.19382896164884986
0.24660295393700088 0.04653295883654742 -0.19080416003694953
0.2459160104059645 0.04102987060069232 -0.1950073901795429
0.23990154412025894 0.0386044980001369 -0.19193050900927008
0.23943543579811538 0.0403059721898952 -0.18709108869066657
0.23775154497856582 0.04219859847544818 -0.19144635538092078
0.24585986283058608 0.041879892439834164 -0.18799254933824958
0.24293106940025772 0.04610529551028399 -0.18391785661211432
0.24144309904808486 0.04454740890978961 -0.188615924515633
0.24176311638588394 0.043116092772475766 -0.19268164674272956
0.2418683185839125 0.05168634662150531 -0.18992533425321997
0.2410308137201735 0.04710954436778216 -0.19383846858969153
0.24012935307259048 0.03000405439852862 -0.1911873582982105
0.24010282900566543 0.031439513058654354 -0.18786368409624518
0.24015951302284683 0.03407102832316546 -0.1903546814106983
0.2423045053743788 0.035320013852111386 -0.18710226456156195
0.24069190170998062 0.038621217102996395 -0.1841875080250782
0.24084204581016982 0.03848356017588763 -0.18772310654154242
0.24009210016960586 0.03270569452761798 -0.19125360886087836
0.24060034897560562 0.04060649880885272 -0.1889855329178852
0.24136519577736343 0.037846893162719296 -0.19255200664034308
0.24331021454567398 0.027865529150954766 -0.19232594112387122
0.2433919921183058 0.029724955649367852 -0.18996638695230902
0.24421352293724502 0.032073259444228695 -0.1918718580388111
0.24485558417076553 0.032090723605147885 -0.1885861072920841
0.2443218245768019 0.03466033944605975 -0.18650907913675727
0.24434471276039565 0.03542444118975787 -0.18934353331556739
0.24207407381767715 0.02996137747286944 -0.19285455981722296
0.24295067932838882 0.03673011073588519 -0.19087377826204718
0.24317759421104873 0.034700602383605526 -0.19427687565317572
0.24655538943047012 0.014109820218078179 -0.19323141018381537
0.244169475104756 0.015674144120208306 -0.19029546419611396
0.2412754311823317 0.015604466290465874 -0.1937111232661289
0.2542011156343886 0.01363110551356463 -0.1926788453244251
0.2511924519800612 0.014932334513656182 -0.18956110517015876
0.2460751548075148 0.014543086380950494 -0.19249585906496466
0.2527722730898329 0.016386002392760796 -0.19438866416445197
0.2507489338182875 0.017836123795501275 -0.19054015616407813
0.24697357561821426 0.01702034482478289 -0.1945644382618946
0.24553704407448257 0.015230327935210747 -0.19166827837458075
0.2426879420542189 0.016227483839980645 -0.18836388627520026
0.24002915766472305 0.0161384643030086 -0.1918703977250141
0.2520449772142836 0.01570409545420794 -0.19149140159120978
0.24853581335777725 0.016692906708709283 -0.1883172903441471
0.24359995272392715 0.016158163638106866 -0.19135638216963233
0.2500364198946425 0.01845195898532061 -0.19200637082090796
0.24654531624550308 0.020521760077468438 -0.18827775756349982
0.24409604218239273 0.01961022624491839 -0.19265485445490302
0.24123114493126357 0.012040287346831841 -0.1925403688334507
0.24047356989616836 0.012649923653594537 -0.19117688278189124
0.23976999666923965 0.012904435486785455 -0.19328059891691626
0.24474752094978774 0.011505693287841363 -0.19183123747339667
0.2437204137110182 0.012241095395080132 -0.19034898916712226
0.2422592058443495 0.0122704804849544 -0.19217688480844916
0.24507367756599868 0.013582021088592095 -0.19297747949591101
0.24344492104286636 0.015509247870437188 -0.19132042566767157
0.24255031492943252 0.014423817486754937 -0.19293217996588172
0.24210029986137832 0.012583971114150567 -0.19334909955492438
0.24176913645500625 0.012945175261489434 -0.19286010304918708
0.24161416437859023 0.01334750661372332 -0.19448272029390754
0.24413657334084 0.012114763350478692 -0.19254357258310736
0.2436514511370131 0.012565076441756768 -0.19194535056581916
0.24326527264351333 0.012939721436492486 -0.19354633132448615
0.24603462364906753 0.012445807547561211 -0.19451615849962653
0.2453526273035475 0.014325529427520318 -0.1933269862317127
0.24296897795433486 0.01386994132517962 -0.19455493132105292
0.24640119221443618 0.07048192629336504 -0.18797472754946173
0.24686879065269912 0.07566890129565386 -0.18438953796854438
0.2480002060198256 0.07735851416110186 -0.18686703483095587
0.24854892637962783 0.08082634219645647 -0.18289332727423133
0.24819404032463516 0.08528938898562578 -0.17936564127436103
0.2475467934870192 0.08393242964266924 -0.1831014517926258
0.24598825123543228 0.0817510188531795 -0.18973619381418647
0.2450247421526381 0.08950486788272051 -0.185074887075333
0.24418902542824233 0.08592569837092547 -0.18922949472895087
0.24426740553612197 0.0752604604673305 -0.1904653970383686
0.243462265994496 0.07975411424159197 -0.1857625309609455
0.244244576957173 0.08192089209078936 -0.18867150584688605
0.24648189690346206 0.08635544785975603 -0.18603832165232123
0.2447883501314589 0.0902373195600429 -0.18168076018324317
0.24419725086922134 0.08918732413767962 -0.18605226913919867
0.2441169634127089 0.08683830508708147 -0.1919423554324192
0.24307322647804702 0.09368827948092608 -0.18695226947298468
0.24195027497047866 0.09061649450778154 -0.1914121572159809
0.24502998736137832 0.0671561063241878 -0.18974790612688483
0.24549001600975479 0.07168498644351153 -0.18632865587702216
0.24812448170418228 0.07613629111766008 -0.18764046470156134
0.24569904949898208 0.07538327583789019 -0.1864782486342472
0.2453393354677626 0.07948753246783404 -0.18291384617319525
0.24669242050880874 0.08093723663806109 -0.1847733918808979
0.2417922630571791 0.07770422110079912 -0.18986923138132514
0.2425178900026747 0.08374890694140581 -0.18622989098062934
0.24158722307915176 0.08244648584841875 -0.18866480032434882
0.24742305424446548 0.0631994605970302 -0.19070003072252692
0.24818784144157852 0.06791105875491289 -0.1879728500031513
0.25107258703941787 0.07258105287074236 -0.18898133079042853
0.24738055613274063 0.07078224429606585 -0.18758084515562476
0.24726593640083755 0.07465842375277666 -0.18464829663267554
0.24958795454735244 0.07664808640002398 -0.18573472539415778
0.24336934235329116 0.07343336948870806 -0.1910110477589649
0.24408579018349136 0.0787307322931209 -0.18794075290193976
0.24369859841103042 0.0781300664853969 -0.1897722248219532
