ply
format ascii 1.0
element vertex 678
property float x
property float y
property float z
element face 0
property list uchar int vertex_indices
end_header
0.10287299897903884 -0.2710082232046208 0.2377037640429455
0.09896424558395828 -0.26812571278096053 0.2415128584719616
0.09745517518753494 -0.2695221303987584 0.23805620630750238
0.1132197692655989 -0.26862871637822006 0.23776056726941644
0.10604125406975234 -0.26877167811871383 0.24405875166425287
0.10238692310089553 -0.269315242676743 0.23952152689466058
0.1113555445932814 -0.2656374274778447 0.23514034708509027
0.10760185268158401 -0.26256978502751205 0.23867949207791864
0.10294014361137832 -0.26388806095600936 0.23388924559125482
0.10780739929909194 -0.26526185861111495 0.24036594589719354
0.10379785444969619 -0.2645102440404973 0.24437453707227288
0.10232722904915298 -0.2657521664190373 0.24112685879239618
0.11878580000633682 -0.26415884485722396 0.2397004600382763
0.11248436715836013 -0.2652128337907872 0.24550887306699334
0.10832250263924087 -0.265742301850327 0.24089463909635125
0.11329361942047561 -0.2657430469083867 0.23879721125135003
0.11014747765297378 -0.2634970246839604 0.24170019587049066
0.10729512717956985 -0.2640141545820317 0.236642145714851
0.10089117434257949 -0.26647675028324935 0.23759665449628412
0.0994302048944899 -0.2659983037996373 0.239286028943153
0.10007667687172378 -0.2668619453001103 0.23874124248990594
0.10511702444786514 -0.2647352515745244 0.23684718569287835
0.10329151299232925 -0.26502352943898055 0.23958649595746576
0.10206174996132339 -0.26629000893116805 0.23906048496732293
0.1053513303064772 -0.26779291024685714 0.2375661965228039
0.10454848554367507 -0.2667255698728642 0.23975368698606073
0.10401490476364578 -0.2668839692163548 0.23693218191632806
0.1020096555017897 -0.2657940684843144 0.24001004656323968
0.09953841712707961 -0.2655368446397862 0.24234780033597528
0.09980297234291519 -0.2665321229982457 0.24135490616330682
0.1077183797621199 -0.26374036064625594 0.23912080486783563
0.10497060563797439 -0.2645009755182347 0.24258520563611566
0.10285341885323013 -0.2659500538396916 0.24114164074430047
0.10723266151184524 -0.2667073904562077 0.23989113529691278
0.10661551501984085 -0.26596420994282577 0.24228229483136712
0.10559091117615188 -0.26591408243656967 0.23902388771543084
0.19809806492561782 -0.17373211672783703 0.2362827297068554
0.19799655821556533 -0.1736515163469395 0.2368943329668957
0.19822049286598648 -0.17279990008354992 0.23808577021131097
0.1988058700823256 -0.173407643942841 0.23657276590833246
0.19840246584648574 -0.17334550610066266 0.23714967926511346
0.19841361191505874 -0.17268809667111248 0.2378541465617138
0.19839036610359634 -0.17159752538681836 0.23493602236280023
0.19740265753502334 -0.1710839568662724 0.23609521349439203
0.19596952345604385 -0.1703137456464848 0.23496528824338495
0.1974090352320143 -0.1721108554887852 0.2347309227801281
0.1975301518701979 -0.17203083625317425 0.23510285576352655
0.19821256544823135 -0.1711444704818806 0.23633154591092645
0.1983342781328627 -0.1717204450655064 0.23498007019528924
0.19825863983864273 -0.17168423524380536 0.2354389067507702
0.19829374697441543 -0.17107747486115307 0.23598768671521722
0.19771945622200454 -0.1695674954938969 0.23384782036313592
0.19703614857429946 -0.1693606673765263 0.23456683119306146
0.19505673792595352 -0.16863004854203076 0.23354186972150384
0.19321757700676406 -0.16890949001789898 0.23411943872937738
0.19355106499428237 -0.16923436513424725 0.23349031170377313
0.19607460644478286 -0.16611386826516003 0.2365852828837353
0.19352662708992446 -0.16880030920983166 0.2341135378695446
0.19383376982445205 -0.1691063939619145 0.23350390156278192
0.19619929936165298 -0.1661454289245686 0.2366080518580395
0.19176900532478774 -0.168977752237328 0.23639395197400628
0.19448745396370376 -0.16932439795018048 0.23466583450803338
0.19029152539009536 -0.16860677292824597 0.23517068584928094
0.194442810084767 -0.16758567085743756 0.2339527245379406
0.19440925266975845 -0.16753740599633068 0.23412694891461908
0.19647216942543472 -0.1656825839567265 0.23546537121305047
0.19640314724678481 -0.16685637822628827 0.23388268908032953
0.19637489464516128 -0.1668490617561421 0.23398055990705072
0.19712513830894912 -0.16555409124375195 0.23499401768216668
0.19568032171959365 -0.16708794227124066 0.23507883509168206
0.19659537222618545 -0.16719742110253186 0.23457893093595086
0.1932022586130568 -0.16659557810307354 0.23365470131406366
0.11561143543953384 -0.18398252120495648 0.2803787227488476
0.11485499289268936 -0.1807018219518742 0.2848462100840527
0.11444378044838394 -0.18162311604500622 0.28128977974423947
0.12363487627739395 -0.17856810977936596 0.28269871433744015
0.11999496963257278 -0.17692019036293835 0.28659691771039547
0.11872249987358535 -0.1779225765752873 0.28187980612287106
0.12127488997215713 -0.1808411031055531 0.2779610391474682
0.11693504598373855 -0.17740823319435925 0.2819851275301892
0.1163814976477095 -0.17928098133087964 0.2774380083895642
0.11372295167679275 -0.17705054572106213 0.27696891983518185
0.11072275188202346 -0.17391203334809155 0.28177764376172604
0.11192608025307144 -0.17443975797177166 0.2777155276156384
0.1228255346083113 -0.1727580427217564 0.27718403299817623
0.11911508586639846 -0.17187605789185376 0.28145232161054196
0.11661180999512161 -0.17226195326329083 0.276060247025581
0.11941939738029922 -0.1750689446020207 0.27457042892942013
0.11518940475220169 -0.17267410448075146 0.2778235908366162
0.11535048630470718 -0.1742011307764134 0.27293279131421627
0.11307013180489028 -0.17894506445408673 0.27713164051541866
0.11052289750809158 -0.17690564682961316 0.2807178135729748
0.11300605681175674 -0.17576421788216443 0.27882173021802487
0.1172943427824446 -0.175773486404427 0.27782829960355343
0.11675438430542434 -0.17590253046036572 0.28092017134198727
0.11518362310165847 -0.17518956950188488 0.2777970667696911
0.11517635133499587 -0.17704319944859356 0.27661552389630856
0.11202901747459854 -0.1757196932125172 0.27922143896588864
0.11203521635765518 -0.17604510477066845 0.27538635691175045
0.1830073907637068 -0.26318448772908065 0.23688449820050775
0.18080151226753677 -0.2576834260511479 0.23952224215039788
0.1787514403128096 -0.25908863535405013 0.23704560955533563
0.17927861359352554 -0.25828763833523605 0.23793348034390985
0.18984201696152175 -0.2618788479852757 0.23721893986234246
0.18987956788773025 -0.2598148583459935 0.24146624763974725
0.1853303625845381 -0.26077994695187423 0.23809459169873773
0.18915569927925552 -0.26228275886059615 0.23272653778562127
0.18898129608864273 -0.2574886678743443 0.23747351130017816
0.18405413773292983 -0.26037538042546127 0.23340448101529657
0.17835852649445022 -0.2590657471704564 0.24122621973523675
0.17261782434219802 -0.2555835842180333 0.24481543262967645
0.1721545472406813 -0.25740891685963485 0.2395997281886059
0.1904684617781111 -0.2572993337202153 0.23918088634976922
0.18452212360138381 -0.25695669641972396 0.2443861003733593
0.18135878589386428 -0.257748156695374 0.2389205928660351
0.1870020642542311 -0.25822535148144576 0.23773678501615106
0.1842332198881575 -0.2553568779516301 0.24091401060590326
0.18099287297958816 -0.256548672823914 0.23591222723493158
0.13818690326446975 -0.24149319520474286 0.27276279886731686
0.13100576546425308 -0.23578891149044842 0.2762848373270947
0.13015979674095596 -0.2384037672567448 0.2722770210123974
0.15033653524155105 -0.23589751115322918 0.27280762156018795
0.14565181877846206 -0.23542813947678418 0.2787407275057751
0.1407538965010115 -0.23651543250561566 0.2733434673167187
0.15142104175323928 -0.23843908300877423 0.2666989203310925
0.14741403010124648 -0.23541119685650677 0.2723606463290173
0.14106398966545547 -0.2368738203334889 0.2667262192583996
0.1342289164328047 -0.2331002651739201 0.2740587230540234
0.12800544646019424 -0.22942818692208142 0.27859624584683956
0.1257513776087233 -0.23157379022122235 0.27193834742078365
0.15082550194496597 -0.23011279097081036 0.2710154291010815
0.1429642453455397 -0.2301410435724339 0.2780512209750134
0.13695803430313552 -0.23039308181286663 0.2705950375414807
0.14815867092842544 -0.23494976749897808 0.2685060139513928
0.14113661792511428 -0.2303929477024159 0.27281227072248043
0.1370663657450148 -0.23203623285771222 0.26671334465512814
0.10333049443001235 -0.25702017536640975 0.28833528717526974
0.10228786018127883 -0.2560350297975621 0.2903936739779431
0.10256463434929336 -0.255906879811295 0.2882210846758801
0.10754370835060562 -0.2562200128126225 0.2887146707392651
0.10622438934082473 -0.25519201150418136 0.29095705708036007
0.10444060113663162 -0.25597220650196884 0.2894146676875073
0.10591241863007034 -0.25365722170353744 0.2878134485102612
0.10395941283935989 -0.25099730482579086 0.2902547951556164
0.10391187813515151 -0.25242990246296737 0.28751494844922604
0.10370165255302871 -0.2559691666650853 0.29031600912580074
0.10256856825584854 -0.25552994003773544 0.29285862406262936
0.10190048959488357 -0.2550765871095738 0.2909683819628674
0.1080792560839125 -0.2537769078302464 0.28992285688886227
0.10644760873550857 -0.25359445801258895 0.2930622335291821
0.10419422533745254 -0.25451678028584335 0.2917659517146069
0.10523855831856216 -0.2532262205171666 0.2901269431925732
0.10409969237083877 -0.25152289858342025 0.293011569581123
0.10362965014214004 -0.2520875929880223 0.2899775143481213
0.10215151455635513 -0.2583565413045964 0.2884184952593762
0.10207089927429641 -0.2582611738729558 0.28863337000379147
0.10470593121284927 -0.2569932340669713 0.2885334726191479
0.10168352868790115 -0.2563377915906987 0.288564228615852
0.101618023183293 -0.2562411724615178 0.28873487671384396
0.10406631376976455 -0.25582924476147506 0.2892329331255871
0.10391682532066787 -0.2554873823213658 0.2877546187258679
0.10375306155914749 -0.2550782858419499 0.28855761250028195
0.10529905703300918 -0.2543262242364964 0.2891206379748303
0.17586481716865981 -0.2185358553218922 0.25040044744977535
0.1754017486833998 -0.21440300336361737 0.2521800037241894
0.17682889249557937 -0.214657723813065 0.25011082848081173
0.1793276086115309 -0.2066691665935597 0.2521779175616223
0.1801264300608107 -0.2166154681730351 0.2524486418581921
0.17741727974647964 -0.2128986119318089 0.2543656464434582
0.1781149521135756 -0.21489123991013379 0.2518555160380322
0.18029895570511306 -0.21259501567364544 0.25463607271680416
0.18063062575096572 -0.21774208536625714 0.24754091461667596
0.17902660515541519 -0.21152855446816296 0.24980624874600946
0.17756107595200027 -0.21521593621254773 0.24681534727582513
0.18507516529793228 -0.22011685362339825 0.25165965517530026
0.18111717846626724 -0.21450284114361615 0.25443651636609615
0.1802039459013411 -0.21795980623246045 0.25062640865811886
0.17416376021141494 -0.21571487179280133 0.2468285199023205
0.17330652621025527 -0.21376699200154156 0.24932720621594964
0.17496806528801406 -0.2128145693826756 0.24616637190351068
0.17787817266220535 -0.21335893860340924 0.24755790194043695
0.17559999373192275 -0.211983784942635 0.2504209514475781
0.17699411657089675 -0.21286500981331677 0.24719175060758172
0.17960098531479324 -0.21392060807228894 0.24541010817060052
0.1782028093599745 -0.2109057604360661 0.2474921580172497
0.17661386873955215 -0.21178147187710614 0.24458899458417474
0.17205068614716018 -0.21911287298680157 0.2474238510943371
0.1718665375971266 -0.21883335700512738 0.24811687429914056
0.1745407595896193 -0.21504384270191998 0.24781736095914422
0.17312085774177993 -0.21611693492413372 0.24850060900220453
0.17300412204498733 -0.2158803789901814 0.2490064140177685
0.1750609591268965 -0.214284747748383 0.2485808368540722
0.17501312639946426 -0.21546852579594464 0.2478786941386181
0.17440843727821792 -0.21498891702175946 0.24870988091001092
0.1724909558557936 -0.2138102351713261 0.24811681469449579
0.10942697670692886 -0.22761401525021405 0.28753086288938107
0.10699859407181228 -0.21487250915051312 0.2926572199679333
0.10568571236366714 -0.2215430735635838 0.28718724211225094
0.12312355783218826 -0.2168833314466557 0.2893554802752453
0.11503139283890212 -0.20697680106640667 0.2949328060961682
0.11384064104790176 -0.21353529384613842 0.28879346807965817
0.1165406122469374 -0.21698346724987835 0.2826718922472912
0.11311057355637039 -0.20509320488453717 0.28769781549939694
0.10904228832954849 -0.21348197749138684 0.28179945906171383
0.10564908530945266 -0.21274521937847943 0.2859615321970898
0.10170719173187698 -0.20564961424351544 0.2918685909129101
0.10027003433937515 -0.20963047435761303 0.2847757573939282
0.12258002307648147 -0.2061980812835774 0.2856634493685681
0.11260962631935562 -0.19994783392430157 0.2916649218417126
0.11026111390823806 -0.2040259539175114 0.2842859860278088
0.11597719934219802 -0.2086893766212544 0.2795053954935986
0.1109256162905165 -0.19873267403126568 0.285063469014259
0.10830408480400527 -0.20596899083138318 0.278222226700874
0.10439464595550979 -0.22102650990963787 0.2835676308489758
0.10279619839424575 -0.21351119866848797 0.28935595711240353
0.10275930311912979 -0.21458308389664502 0.2839347954607922
0.11041590717071975 -0.2069132625150761 0.2851954336977917
0.10551473644012893 -0.20207448294640393 0.2900184031344372
0.1046142890715071 -0.20488402238369793 0.2841453190661389
0.10934490111107315 -0.20980122676373333 0.27942683657178463
0.10530412342781509 -0.2009592055368504 0.2847185965395886
0.10425722744698013 -0.20624124994755597 0.27911772688397946
0.14425888803238357 -0.26692214599133346 0.23641809185514032
0.14185547974342788 -0.2621831594991765 0.23862781485089837
0.14125484373802627 -0.26378875961781356 0.23631974419126092
0.1424035444521376 -0.26181098809719894 0.23814948757657586
0.15039944794411148 -0.263586163430222 0.23711314161786615
0.14770215895409072 -0.26187825193882797 0.2410219546175915
0.1465234174990126 -0.263526588587769 0.2378393646098095
0.15112608816856826 -0.26318693151951644 0.23173340519437371
0.14933812763924087 -0.2585481106329045 0.23534884413251458
0.14627310779327835 -0.2616635858106694 0.23149135073194085
0.1438700571321913 -0.2632648347902379 0.23976358135709344
0.14015135314697708 -0.26063749185086105 0.24324818809995233
0.1410530224108168 -0.2624892591524205 0.23901274164685785
0.1520831599497267 -0.2618691920328221 0.2391879793024975
0.14788228419060195 -0.26105862846852157 0.2438566919184643
0.1459399178289839 -0.26219344130040023 0.2391138311243969
0.15124192979568923 -0.2636177240896306 0.23746027906903802
0.1490546777510115 -0.26047012200833175 0.23992171247968255
0.14640477445358718 -0.261766791253098 0.23566313942441522
0.14207643416161025 -0.1917915939378819 0.27203723152646603
0.14185002591843093 -0.18747112145901532 0.2752183314181286
0.14343851950401748 -0.18766336133957714 0.2736929889536816
0.1454734518789717 -0.18617701521397442 0.27441778143415035
0.1446378543638655 -0.1843714713144383 0.2776963945246655
0.14389377978081191 -0.1849939226198277 0.2746092315531689
0.14507436897987808 -0.18638452878475995 0.2698822255946118
0.14247590449089492 -0.18290583780289502 0.2734912868357617
0.14162081625694717 -0.1844813822794041 0.26998355349072994
0.1406625523828932 -0.18531814208508343 0.2696023817873913
0.13888231065506423 -0.1815149187135777 0.2732938762522656
0.1415771260523268 -0.18118520071984143 0.27079060038098873
0.14494225528473342 -0.18198256185532422 0.27115359266767086
0.1437329664492079 -0.18057239046574444 0.2746407624102551
0.14295607950920547 -0.18090569963932843 0.27105524500379147
0.14328548457855667 -0.18247143915177197 0.2686214681483227
0.1404472604059645 -0.1796080469179234 0.2718873258448559
0.14013812091583694 -0.18083484461785168 0.26785411795148434
0.13968807604546035 -0.18601194015026898 0.27041509111890377
0.138926954534001 -0.18411555877209515 0.27278652151593746
0.14257156994575942 -0.18136575809002728 0.27148839195737423
0.1411939575933882 -0.18297389140606732 0.271554791531654
0.14099386480087722 -0.1821271627235493 0.27356936892041744
0.1422768547796675 -0.1811433880615315 0.2722026940203625
0.13982618000740493 -0.1839781402635655 0.2707698579646069
0.13829934742683853 -0.18263983717442364 0.2730046149111706
0.1381918802523085 -0.18260110905648083 0.2701829310275036
0.11856827285522903 -0.2684234975862584 0.262766265473457
0.11615118530029739 -0.2642083763170323 0.26602741440305294
0.11426842358345474 -0.26613625874996993 0.26129140814313473
0.12916541245216812 -0.26762476554394576 0.26373978813657345
0.12479001429314102 -0.2654927670049748 0.26904334982404293
0.12152013328308547 -0.26707428684712264 0.26357921322354855
0.12935537245506729 -0.2685542105722508 0.25864436586865963
0.1244044616484114 -0.2623991071271977 0.2626238699770886
0.12101864960426773 -0.2656769453573308 0.25763114651212277
0.1161865308546492 -0.2633294462251744 0.26185258587369503
0.11192032840485061 -0.26128122201443527 0.2661718960619885
0.1111421599649855 -0.2623620628404698 0.2612296577311474
0.1274109497332045 -0.26234698286534164 0.26099463661679806
0.12226247933144058 -0.2621920107889256 0.2670283552027661
0.11924782541031326 -0.263172447590836 0.2612500425196606
0.12273928668732131 -0.2627571820306859 0.25907888372907223
0.11977142241234268 -0.2592144309568486 0.2620607252932507
0.11737993505234207 -0.26083654156208846 0.2571450110293347
0.11269885447258438 -0.2643929719019017 0.25899794062146725
0.11221331503624404 -0.2632252871084294 0.2615148063517529
0.11222562339539016 -0.2627798914003453 0.25894417723187985
0.11737758066887344 -0.262509286313065 0.2592308159686047
0.11524227407211746 -0.2617413400697789 0.26279541214475216
0.11495655920738662 -0.26274436703205917 0.260313713154884
0.11655366566414321 -0.2633153795290074 0.2583910461283642
0.11536401655907119 -0.2604671119737706 0.2603839870310742
0.11442640569443191 -0.26157286754132125 0.25741633137235226
0.1617979421877333 -0.2657544313955388 0.2604561086512524
0.15924024727577651 -0.25318971267224166 0.26524873932370724
0.1563951387667128 -0.2575873135614476 0.2603520389414746
0.17246776964897598 -0.25971952071667526 0.261678242287727
0.1693718447946974 -0.2518907188463292 0.26640816887387814
0.1656986191534468 -0.25684967628002975 0.2611512776232678
0.1706582322382399 -0.25809821477413986 0.25419994553098263
0.16754162457222427 -0.24541103830815167 0.258742713532539
0.16329875734085525 -0.2537641524362645 0.2541988726473767
0.1579851522707411 -0.2582291959810338 0.26237090786466183
0.15414083149666274 -0.25200006356716964 0.26738610228070797
0.1502705230974623 -0.2541032432603917 0.26004084309110226
0.17396783974403823 -0.25210127225399825 0.26068052013883175
0.1663867249750563 -0.24953266969204754 0.26769860943326534
0.16086638119453872 -0.2505435644674382 0.25965692957410397
0.16909945156807388 -0.24893108001232953 0.2553255792475659
0.1628004327082106 -0.23866334548474163 0.2608533140040356
0.15951994207138503 -0.24497008314610333 0.2547973032809216
0.13057559874290908 -0.2358454166936955 0.2806659575320202
0.13098323490852798 -0.21910640588284344 0.2857210870600659
0.13053903129333938 -0.2258840500402531 0.28195955713758053
0.1370798959993788 -0.21706661572934002 0.283703708252998
0.13537562039131606 -0.20462125530720562 0.2882249589777905
0.13304492976898635 -0.21275970330715985 0.28321900328168453
0.13436114933723892 -0.21856707325459332 0.27482106646070065
0.13229656365150894 -0.2023622839737019 0.2798355456210095
0.12867415096992935 -0.2122942804384312 0.2750824924326855
0.1258213236593672 -0.21798756709576458 0.2766984339571911
0.1249709739946791 -0.20330119123936505 0.2832638855792004
0.1250290885233351 -0.2090141474294743 0.2774294253207165
0.13394546654457534 -0.19901227941990704 0.2794676657534558
0.1304900660776564 -0.19046157589436383 0.28499718864926876
0.12716910388702835 -0.19564664354801983 0.27787282427320065
0.1320079281591841 -0.20218799999237866 0.27200301846036495
0.12791410234207595 -0.18677875390530438 0.27815082033643307
0.12560984637970413 -0.19683051100254864 0.2718137141085583
0.19426614191765273 -0.21530696740628094 0.24047824104795038
0.19463855173820938 -0.20221738508225293 0.24381931980619012
0.19741469767326797 -0.20510481288910717 0.24085112770566522
0.2009321465753981 -0.20375259211541027 0.24287047346601068
0.19844150688881362 -0.1953287123727879 0.2467028137064892
0.19725614931816543 -0.1998312472391209 0.24321379621991693
0.19854217913383926 -0.20489552608013958 0.2352901931620556
0.19552868750328506 -0.19363528481007428 0.23924794157514154
0.19356185343498672 -0.2006644605684361 0.23560442884931146
0.20127517130608047 -0.20696836700917096 0.23729171713361322
0.19780075695747817 -0.19590674331665844 0.241341852746101
0.19602054503197158 -0.20283807805062146 0.23737051447400628
0.19266849901909316 -0.20433901241303296 0.23565092047223626
0.19084012654060806 -0.1973619758176884 0.2406828637934643
0.19356739666695083 -0.19635790577412457 0.23615010937223016
0.1967178001665541 -0.194466233162888 0.23677506407270013
0.19257247593636 -0.19057312598706097 0.2410795923090893
0.19295996573204482 -0.1920432149458012 0.2364655967570263
0.19681400206322158 -0.1966533361959538 0.23376038034925042
0.19282376911873306 -0.1908331512498936 0.23819210489759027
0.19194364693397964 -0.19381450107575268 0.2338936563349682
0.19019219424957717 -0.2064935266065678 0.23438223560819207
0.1888922467493483 -0.2026054858255467 0.2390235300875622
0.19225317385429824 -0.1976061462450108 0.23620071371564447
0.19172102358574356 -0.19653739026070446 0.23641010483274041
0.18968320038551773 -0.1944810151147923 0.23978587349423944
0.19221973564857925 -0.19320237627507061 0.23725643118390619
0.1920156493448683 -0.19610118856907696 0.23562988003263055
0.18830952193970169 -0.19324144711972088 0.23970439394483148
0.18801939633125747 -0.19383323183537335 0.23642584045896112
0.1987906112932631 -0.24349629869938702 0.23795261343488275
0.19891786720985855 -0.23759853830815167 0.2400063510752636
0.20095282938713516 -0.23595845690251202 0.23716523607739984
0.2015824332498976 -0.22931310525418133 0.23944231232175409
0.20094174292320693 -0.23595741382122845 0.2414431210375744
0.1991790547632643 -0.2298055588293156 0.24276378115186273
0.20088553574318374 -0.2325693666029057 0.24049016197690545
0.20045441534752334 -0.2355232386875233 0.23546125849256097
0.20045507099861587 -0.22570499768734784 0.23702456911572992
0.19820726063484634 -0.23146060100079388 0.23477556665906488
0.19818753149742568 -0.23747315993786663 0.2335228558398205
0.19733721163505996 -0.23437470188618512 0.23758765419492303
0.1989305629991957 -0.23128241291523785 0.23330529888639032
0.20090729143852676 -0.22999510159970135 0.23544343670377313
0.19916761067146743 -0.22788164010525555 0.23896136244306146
0.20046770718330825 -0.22861796608448834 0.2351492281771618
0.20195382979149307 -0.2285727559614262 0.23316284378537713
0.20035535242790664 -0.22377830734730572 0.23613461216458856
0.19812339689964736 -0.22581234565258831 0.23319437464246331
0.19706332829231704 -0.23757526269436688 0.2309317227221447
0.19645416882271255 -0.2373257278490147 0.23317983110913812
0.19930994656319106 -0.23218148937702984 0.23307898005017816
0.19795888808006729 -0.23119214168072552 0.23289813955792962
0.1974032535814711 -0.2307867704916081 0.23428543766507684
0.19934737828011 -0.22863197317601056 0.23459681232938348
0.19666677859062637 -0.22830352178097577 0.23401614387998163
0.19539189484352554 -0.22655093660832257 0.23593916853437005
0.1946862354540297 -0.22612243881703228 0.23498901089200555
0.16877934482330764 -0.18866443624974102 0.2544623847819287
0.16718509938950027 -0.17862039795399517 0.25963201483258785
0.167754919793553 -0.18207885315895886 0.2566641803599316
0.1753632738851973 -0.17804683735848278 0.25787147243985714
0.17427945282692398 -0.17499952009201855 0.26217540462979855
0.17122694995636428 -0.17665688684464306 0.25776996572980465
0.17281896021599258 -0.17958009233952374 0.2509497042513806
0.16903236654037918 -0.17326220860958905 0.25555016954907955
0.16795131709808792 -0.17757722726345868 0.25109490116605343
0.16537508514160598 -0.17834985247135968 0.2514400716639477
0.16243365552658523 -0.17220018795014233 0.25675972660550656
0.16465774324173416 -0.17279668143273205 0.2527629967547375
0.1726430669092604 -0.17135171583176464 0.2522965308047253
0.17042103555435623 -0.1699426769304356 0.2571614023066479
0.16726845648521865 -0.170302614479073 0.25151237209806027
0.1691354527735182 -0.17383672287941784 0.24996265133390008
0.16466477658981765 -0.16997046759606213 0.2535976405955273
0.16423511650795425 -0.17232222846031994 0.2486644025660473
0.16394591477150405 -0.17944543054581494 0.25323208530911984
0.1618367150091597 -0.17547817519188733 0.25803031881818356
0.1651340737604567 -0.1733180283594212 0.2550963993884045
0.16729131486649002 -0.17288073888302655 0.2542450066424328
0.1666546180509993 -0.1721213161039433 0.2584285970545727
0.16547268774742568 -0.1714942156362614 0.25467529257306637
0.1657468095087477 -0.1756523697662434 0.25377824266919674
0.16200050857300247 -0.17347915461541027 0.25694163998136105
0.162512661483235 -0.1743013857889256 0.2527470227099377
0.10526976135010208 -0.26359626641751144 0.26536234577664913
0.09949237253899063 -0.2602340578126988 0.2696119185305554
0.09802431013817275 -0.2616994082021794 0.2656046386576611
0.11488479521507705 -0.2605208157587132 0.2656886216021496
0.10722908523315872 -0.2604215442228398 0.2719840641833264
0.1034856453203627 -0.2610796689081273 0.26739653309354366
0.113301874663777 -0.25300323954106185 0.2624628182269055
0.10799816396469558 -0.24986293902874798 0.2666350241518933
0.10286566760773147 -0.25086361160755966 0.26165833433637203
0.10810092237228835 -0.2593870758104405 0.26754256447324337
0.10277444269890273 -0.25812682500363204 0.27218832930097164
0.10074052360290969 -0.25928619494915817 0.26816793640622677
0.12014123943085159 -0.2575679122495732 0.26647695263394894
0.11273062374824966 -0.2588457762289128 0.2731335397578198
0.10755065229172195 -0.25895079961300704 0.26786454876432003
0.11498701718086685 -0.2560425399828038 0.2644846673823315
0.11001363542313064 -0.2533482610273442 0.26822664698133053
0.1058330550455519 -0.2540295421171269 0.26267095764646115
0.10223576572174514 -0.2615713178205571 0.26505353411206783
0.0994057371878096 -0.26041731229306075 0.26825442274579586
0.0986611857675978 -0.2612293659734807 0.2657965060091931
0.10717469599480117 -0.25943714371205184 0.2647271390772778
0.10407209542030776 -0.25954586258412216 0.2689019676066357
0.10141822841400588 -0.26025718441487167 0.2660286661005932
0.10543504503006423 -0.2579610346841893 0.26393040379056515
0.10350406315559829 -0.25608259430409286 0.26741203030118527
0.10082447674507583 -0.25671529760838363 0.26332607229718746
0.10231328156227554 -0.26145467153073165 0.2655400272227246
0.09943443682426895 -0.26035267105580184 0.26881685217389645
0.0986115350984999 -0.2611852287340245 0.2662615414477307
0.10762035992378677 -0.2592890857744298 0.26509489973554196
0.10434633639091934 -0.2595411836195073 0.2694486614085156
0.10150641348595107 -0.2602308987665257 0.2664268847323376
0.10557225492233718 -0.25808414807797286 0.26431139667996945
0.10365343239540542 -0.25622355928898666 0.2678488727427441
0.10092926171059097 -0.25684261312962386 0.2636630769587475
0.11411783244842971 -0.24920368185520977 0.29094352682599606
0.11116579320663894 -0.24018090954304547 0.29654982050427975
0.10998651530975784 -0.24415546646595807 0.2910298343516308
0.12543851282829727 -0.24187903097153515 0.2925436135149914
0.1182481363081404 -0.23395851245404095 0.29768916328916134
0.1166690006517836 -0.23890167465687603 0.2920788760996777
0.12262097146744216 -0.24333085110665173 0.2854616876460034
0.11717605736488784 -0.23095136871815533 0.29073258598813595
0.11419746425384963 -0.23837235560894818 0.285110973916145
0.10832014825577224 -0.2377675174760899 0.2893521424151379
0.1054385319017836 -0.23600874832154126 0.2959410186625439
0.10106635239357437 -0.2360943554925999 0.2878984447337109
0.12111869600052322 -0.2313258796024403 0.2885039683199841
0.11296096589798416 -0.22818154087544293 0.2946084972239453
0.11105576303238357 -0.23075485220433087 0.28761228283414425
0.11786151077980483 -0.23387594511986584 0.28292860945233883
0.1129145934843489 -0.2251524030256352 0.2884366746760327
0.10980418470138992 -0.23005148759365887 0.2822263475275952
0.11024925258392776 -0.24707333734513134 0.28660281857022823
0.1075931504034468 -0.24441002300263256 0.2933937545634228
0.1049405648970076 -0.2428770064401707 0.2869766589022595
0.11404332664246047 -0.23483920088291974 0.28759511669644894
0.1083541527056166 -0.23103405526162 0.29195841511258663
0.10842698958153213 -0.23337286701680035 0.28670915325650753
0.11288753297562087 -0.2369028328943333 0.28322192390927853
0.10904887464279617 -0.2282867430734715 0.287829422555061
0.10814449336761917 -0.23228201261044354 0.28293075521955074
0.13324332382912124 -0.1894075720596394 0.267115676007362
0.13272616412872756 -0.18437279751778454 0.270898007950874
0.13479298498863662 -0.18375898888588757 0.2697816129542309
0.13573292043442214 -0.18217281988144726 0.2698226209498364
0.13554716255897964 -0.18005092432976574 0.27336349447736324
0.13499158766502822 -0.18016982069493145 0.27110036571988644
0.1347799613737532 -0.18135999134064526 0.2651909824229199
0.13168621208900894 -0.17768533518792004 0.2692732449389416
0.1318076565527388 -0.17911849906922192 0.26608892639646115
0.13173148181671585 -0.1818743645238957 0.2649538155413586
0.12989500310654128 -0.17773227384568066 0.2689007159090954
0.13337823894257034 -0.17658492913723797 0.26684608419904293
0.1346690073275038 -0.17670510700226635 0.2666742440081555
0.13402834680313552 -0.17520701876164288 0.2700717683649975
0.1334737851881453 -0.1750844120073399 0.26724805792340817
0.1333538904451796 -0.17515687635422558 0.2643967505312878
0.1301643266939589 -0.1724020390796742 0.26787050922879757
0.13023808744186843 -0.1734180300521931 0.26405610998639645
0.1318698838018843 -0.18067145338536114 0.26785703857907833
0.13055798557037795 -0.1786103843736729 0.270700299344154
0.1348075583242842 -0.1745045631218037 0.2690567012644726
0.13168937113518203 -0.17516452064991803 0.2694401975489575
0.13164726045364822 -0.17419418683529705 0.2707576986170727
0.1333209290766188 -0.17272429159165234 0.2697790499545056
0.13178450014824356 -0.17556850603104443 0.2684165473795849
0.12973424937958206 -0.17451964309693188 0.27066847046384396
0.12964630272621597 -0.17422792306423993 0.2679122920847851
0.15413618233437026 -0.2472003548431477 0.26707562168607296
0.15188712027306045 -0.23486992707730145 0.2733067508555371
0.14785802510017837 -0.23901891699314923 0.2667180534220654
0.16637215163940872 -0.2363472580003819 0.2674444552279431
0.1596130445265242 -0.2272369860696873 0.2727750774241406
0.1566021755003401 -0.23242932549000592 0.26666119059094967
0.1637547030710646 -0.23925963035107464 0.2603788610316235
0.1588992789053389 -0.2259790151405415 0.2658160563326794
0.15370705869430984 -0.23335114112377972 0.2603773709155041
0.1502526417040297 -0.2362001984405598 0.2666936155177075
0.14605581906074966 -0.22677071383477063 0.27370985706815304
0.14132657792801345 -0.2299668937015614 0.265043401322456
0.16748741414780105 -0.2268702982950291 0.2666264410830456
0.1590808942579695 -0.2217278777647099 0.27342214544782223
0.15231970098251785 -0.22359295180321545 0.2648278709269482
0.16241899278397048 -0.22612187257290692 0.25949546059140743
0.15548157837624038 -0.21261849990368695 0.26611938436994137
0.15225383785004104 -0.2206464408922276 0.2592356439448315
0.17146876600021804 -0.20515459766865582 0.2530096407748181
0.16854480054611648 -0.1979667543459019 0.2562588091708142
0.17040893581146682 -0.20152103891850323 0.2532161708689648
0.18140122440094436 -0.20336289694786877 0.25430836637982907
0.17664444592232192 -0.1993539034414372 0.2580161925173718
0.1748785987162062 -0.20160213103772015 0.25392302235135616
0.17952433374161209 -0.2031726985263905 0.24887325724134027
0.17537546303505386 -0.19675077488900036 0.2528931136942822
0.17276942875618423 -0.2003568558979115 0.24850716551312982
0.16874206211800064 -0.19996139398098797 0.2485507961131054
0.16436681297058547 -0.19570009401322216 0.2528625365115124
0.16564273979896987 -0.19670993080616803 0.2482623096323925
0.1781301811003157 -0.19786001732827038 0.24781336744794427
0.17230287339920486 -0.19551795711994976 0.2523142333842236
0.1704896405004927 -0.1965181826639256 0.24706866701612054
0.17511311319107498 -0.1996985672998509 0.2461801405764538
0.17084199335808242 -0.19600789239884228 0.24952920635709344
0.16984528448814834 -0.19777801623822064 0.2449829216814953
0.16411593702072585 -0.20227769008160443 0.24981507023343621
0.1619864120745131 -0.19998762002468914 0.2532837625361401
0.16444316652054275 -0.19816389670849652 0.2502668734408337
0.16828760650391067 -0.19883662453175396 0.2500164743281323
0.16576483991379226 -0.1978078781652531 0.2528366680956799
0.16779202368492568 -0.1979314087915501 0.2500828739024121
0.17008695152039016 -0.2001599072504124 0.24889483412274896
0.16680950072044815 -0.19851011028767437 0.25151624639997067
0.1660466804766127 -0.19856175771237225 0.24832352360257684
0.13963946845764602 -0.2360410838413319 0.2794410224772412
0.13819515850777114 -0.22595538189888806 0.2840150233126599
0.13860762264961685 -0.2279018460798344 0.27975567539701046
0.14364040043587173 -0.22158503523350567 0.2815590735293347
0.14164146926636184 -0.21534612765789837 0.2855657573557812
0.14046511199707473 -0.21902376404286236 0.28095366915235104
0.14272359159225906 -0.22380810966969342 0.2747439380503613
0.1394101395868727 -0.21314233532429547 0.2793070312357861
0.13711157586807693 -0.21914249649525494 0.2747175331927258
0.13568729307884658 -0.22581323972225995 0.2765692110873181
0.13362214114899124 -0.217082679181107 0.28233733137616696
0.13453638699287856 -0.21859915545464367 0.27673813065061154
0.14235058572525466 -0.21237337580204815 0.27829494436749996
0.1381351664328047 -0.2076096086788258 0.2835153575755078
0.13584897067779983 -0.20973533382893414 0.27740731199750485
0.14035776403183425 -0.21500271549702496 0.2727864023066479
0.13708830025429214 -0.20541882505894513 0.27796044310102047
0.13509157445663894 -0.21115356674671978 0.2724821801997143
0.16483456042046035 -0.26739475121975753 0.2431281443453747
0.16160330322021926 -0.2599719761896214 0.24581577738294183
0.15962067392105544 -0.26359307756901595 0.2423153158045727
0.16039621975655044 -0.26252549877644393 0.24374391993054925
0.173357547786183 -0.2648868261861882 0.24463381727704583
0.17220091965431655 -0.2622518538522801 0.24929066856870233
0.16776311543220962 -0.26511579742909286 0.24453350265988885
0.17336565401787246 -0.2663145958471379 0.23873254021176873
0.17345923331016982 -0.26065787663937423 0.24339511354932367
0.16718050983185256 -0.26498165717602584 0.23854049404630243
0.16238328960175002 -0.26359334578991744 0.24478813370236932
0.15603092458481277 -0.2595146893549046 0.24864145477780877
0.1553429975771376 -0.26181870689869735 0.24280705412396966
0.17496863153213943 -0.26161551466465804 0.24296554287442743
0.168513478305287 -0.26129269590855453 0.24870547016629754
0.16474470641846145 -0.26199188819409225 0.24230202396878778
0.17236328270668472 -0.2639182507085881 0.24134513100156366
0.16828301694626296 -0.2599749862241826 0.24421771725186883
0.16543373611206497 -0.2620692252206883 0.23910715540418206
0.12127062824005569 -0.27228182545185897 0.24090071877011834
0.11448151018852676 -0.26786702862263534 0.24536904057035028
0.11335194256538833 -0.2699284552621922 0.24114843567380487
0.13286903646225418 -0.2680269478845677 0.24113788565167962
0.12641748931641067 -0.2680860458898625 0.2477723594523388
0.12100836780304397 -0.2692935167837224 0.2421554561472851
0.1312055006288954 -0.26702874889851425 0.23578216990003167
0.1287052347921797 -0.26489013424397323 0.24127688368329583
0.12250557687515701 -0.2665793298769078 0.23565050323972284
0.11554876115555252 -0.2657204567480168 0.2430947061396557
0.10947930958504165 -0.2644114195394597 0.24687364061841546
0.10722971108192886 -0.26564794769764755 0.24156048258313714
0.1328813150190779 -0.2637821136999211 0.23968991001615106
0.12398997094864334 -0.2656655012655339 0.24682619532117425
0.11863404658073867 -0.26602166882038925 0.24070229490766107
0.12939015176529373 -0.2669442891168675 0.23838498552808343
0.12294176366562332 -0.26442530742169235 0.242188119492622
0.11777058389419998 -0.26452392330647323 0.23567881544599115
0.11142960336441482 -0.26819974174977157 0.2398833270884472
0.1077338769697615 -0.2665356694746098 0.24310471971997796
0.10641715076202835 -0.26716434946537826 0.2391499515391308
0.11940202262634719 -0.26508870711804244 0.2382499214030224
0.11430490162605728 -0.26481503239155624 0.2429678078509289
0.1111230268740126 -0.2654768227624974 0.23900183399686395
0.12008002546066726 -0.2687788008737645 0.23690214117536126
0.11593669798607315 -0.2662031947660527 0.2402788635111767
0.11349985149139846 -0.26714205732823226 0.2356280918932873
0.13778561499351943 -0.2658670245695195 0.2705668445445019
0.13547927286858047 -0.25649189939976547 0.2754423852778393
0.13288888480896438 -0.2591354846048436 0.26986893375882687
0.14786443259949172 -0.25718808165074203 0.27132316788205685
0.14225128438705886 -0.2503743170785985 0.2761491771555859
0.1398940696978041 -0.2542006372499547 0.27036985119351925
0.1456325664781996 -0.25870519867421005 0.2646615143633801
0.14089229848617996 -0.24635124197483868 0.26929833849439205
0.13763371255630935 -0.2534224390077672 0.264250480733009
0.13657704141373123 -0.25870203962803695 0.2709767456866223
0.13309830572838272 -0.2533027528810582 0.27645351847180905
0.13057273771995986 -0.2542528509187779 0.26967110594281735
0.14663550403351272 -0.25054725995541427 0.2704295750475842
0.1403479888700911 -0.24762433758259625 0.27659615238675656
0.13767805841202224 -0.24932420244694561 0.26971205433377804
0.1438468411230513 -0.2493511139440617 0.2656862374163586
0.13906881358856643 -0.2410079835939488 0.2708553906298596
0.13639387634033645 -0.24546948066235394 0.26522740086087765
0.13916301872963394 -0.26644697776318405 0.2525116439677197
0.1342766299509474 -0.2617762385892949 0.2560755844927746
0.13219675567383254 -0.264043927102097 0.2517668839312512
0.14917972829575027 -0.2630974053430638 0.2521463270998913
0.14520794298881973 -0.2627339362192235 0.2579435344553906
0.14028152969116653 -0.26362818470478866 0.2520674701548535
0.15068262961143936 -0.2655269204664311 0.24840899666318475
0.14706710126633132 -0.26208439460278365 0.2529773946619946
0.1410110905432173 -0.26346516600132797 0.2472896810389477
0.13532388355965103 -0.2615078090715489 0.25362613161572994
0.12901982810730422 -0.2588162421274266 0.25834735592374386
0.12831205275291885 -0.26090759029866073 0.25255122145185055
0.14911148097748245 -0.2615722118902287 0.25233133991727413
0.14240455773109878 -0.26161962738514755 0.2582630153513867
0.13675645139450515 -0.2615906297254643 0.25122638901242794
0.14432847645515884 -0.2621284126329503 0.24983241518506585
0.14031177904839004 -0.2588731645631871 0.2529930706835705
0.13737264421219314 -0.2603782414484105 0.2473763461924511
0.11726462986702407 -0.2634813486623845 0.28107550104627194
0.11228016164535964 -0.2578835486459813 0.2851932879305798
0.11111581471199478 -0.25965732326985214 0.2812978859759289
0.12777561094994033 -0.2587498127508244 0.2816195722437817
0.12092855718368972 -0.25600022068501327 0.28653975685605587
0.11854809668297256 -0.2582255004930577 0.2821570273257214
0.1261076345705458 -0.25702935448170516 0.27557893951901974
0.12198555615181411 -0.2510880826997838 0.2807231779910046
0.11804464605087722 -0.2547973393488011 0.2756763335085827
0.11237463500732864 -0.255219042210587 0.2790393467760998
0.10735154297584976 -0.25397565951824996 0.2833655711031872
0.10521841194862808 -0.2544839977312169 0.2776997919894177
0.12696910050148452 -0.25205257525921676 0.2759430642939526
0.11889577057594741 -0.25223112097264144 0.2820831771708447
0.11460644152397598 -0.25293397894383285 0.2761836286402661
0.12484350946182693 -0.25455361595631454 0.27353718241223873
0.11828297522301162 -0.2506411074686131 0.2781775828219372
0.11446848657364334 -0.25224655857563827 0.2723931308604199
0.11324319389099563 -0.2607596515703282 0.2778334852076489
0.11084050085777725 -0.25977718821049545 0.2816787000513989
0.10898950841659988 -0.25916609158993575 0.27737196644315304
0.119682969119496 -0.255738764910706 0.27666684349546017
0.11454078700775588 -0.25441697230816696 0.2806880708552319
0.11277961876625503 -0.2555223404455266 0.27683522661695065
0.11930471804375137 -0.2576812206792912 0.2744811411715466
0.1150830402636 -0.2538365720796666 0.2782014246798474
0.11443230655426467 -0.25609666100025985 0.27405598124036373
