ply
format ascii 1.0
element vertex 642
property float x
property float y
property float z
element face 0
property list uchar int vertex_indices
end_header
0.2933587446474501 0.24038451919078022 0.09448631962308465
0.2883151188158461 0.2480006218862453 0.09921022614011346
0.28804659989113296 0.241938054652206 0.093929880461784
0.3043068661951491 0.2403693200063625 0.09687855204114496
0.2989668860697218 0.24576115617274433 0.10052242239484369
0.2955405130648085 0.242115855307571 0.09432276447782098
0.2987436070703932 0.24264061460017353 0.09333836396703302
0.2981037512087294 0.25474506625651505 0.09608753880033075
0.295277656581349 0.24477893123149067 0.09088691433438836
0.292421223189778 0.23830205211161762 0.09931447466382562
0.28890282061333145 0.24214977035044818 0.10377173980245172
0.2874002471231886 0.23985904464244037 0.09835138281354486
0.299676181342549 0.23945152768611103 0.10077410300740777
0.2946182503961989 0.2436959744405666 0.10420476754674493
0.29121995117897476 0.24185234317301899 0.09785267075070916
0.2963765874170729 0.24273210772990375 0.09880455692777215
0.2954576626085707 0.2514624000501552 0.10132207830915033
0.29333293583626235 0.245513916106216 0.0961881514407116
0.2912654295229384 0.2381500006627956 0.09429331978330194
0.29047805216545547 0.23990440377711444 0.0978298123694378
0.29053813364738906 0.23742449292658954 0.09433852990636407
0.2941776528620192 0.23882317552088886 0.09771143754491388
0.29173559096092666 0.242501437754623 0.10036560257443963
0.2889348879122206 0.24112880239009052 0.09518408139714776
0.2941197171472975 0.2389916778516689 0.09411766489514886
0.295083405044026 0.24701797971247821 0.09655555447110711
0.29081404354805435 0.2427135706853786 0.09206991752156793
0.2927289619707533 0.23882532128810077 0.09934487303266107
0.2889673724436232 0.24288058290003925 0.10383292397031366
0.2873976841234633 0.2405080796193996 0.0983013745165783
0.3002681150698134 0.23995751151560932 0.10070978959569513
0.29496687796349014 0.24424928435801654 0.1041958864546734
0.291602016951985 0.24234563121318012 0.09777360518941461
0.29674077179665054 0.2435445786428371 0.0988390680170971
0.29566759016746963 0.2522768379163661 0.1014054652071911
0.2937433734201857 0.24619251498698383 0.09617164095410882
0.2869927301668593 0.24663108596324115 -0.034507400193123226
0.2858938589357802 0.25082212695597794 -0.03294316569796026
0.28441572334999526 0.2496163845968166 -0.03567824403276861
0.28703737404579605 0.2577472926092067 -0.03384707013597906
0.29375344660515273 0.24740874776362567 -0.033283865847496395
0.2924344554209181 0.24952912339686542 -0.030804729857353573
0.2896080031656691 0.24833250054835468 -0.033635592856315975
0.29145002510780776 0.249684214682571 -0.0314111475132984
0.2920465483927199 0.24902135142802387 -0.0374097887658161
0.2911503329538771 0.2554618121099391 -0.03457859794130743
0.2893403783106276 0.2499929667425075 -0.03778306285372198
0.28724032786125625 0.24741005906581073 -0.03306362668505133
0.2841058984064528 0.2503021956396022 -0.030347323813347225
0.28522980358833755 0.24873757371424823 -0.0341567460679096
0.2918558731340834 0.24933278569697528 -0.03237552086344183
0.2887570872568556 0.25074172029017594 -0.029443866410164242
0.2879112973474928 0.2497110367727199 -0.03311700264444769
0.29140234139198745 0.24949592360972553 -0.033612585463432675
0.29078614857429946 0.2521666885328212 -0.03227285186281622
0.28911256935829605 0.25063413390635636 -0.035456842579750424
0.2855534568094679 0.247414231390945 -0.03381086031427801
0.2852327838205763 0.2479369641256252 -0.033038831152824764
0.2857526555323073 0.24827605494975238 -0.033672726550011044
0.2867789879106947 0.24916738280772358 -0.032712972559837704
0.2862571492456862 0.24945974359034687 -0.031805462040809994
0.28645247366661514 0.2491058112096706 -0.032748914160637264
0.2856079950594374 0.25031298408030656 -0.03270757833948553
0.28545993712181533 0.2523873449277797 -0.03201613465776861
0.28580868389839614 0.2514739633512416 -0.03336609045496405
0.29425138380760635 0.2603018284749904 0.030671053729148502
0.29093587544197524 0.26404345044612076 0.03408461173543512
0.2862069621347853 0.2638440133047023 0.030105822882743473
0.306483985450215 0.2612980009031215 0.02976357301244318
0.3042876734995314 0.2624944449376979 0.03400226791867792
0.2967352285646864 0.26202350863932755 0.03006034453877985
0.30130237486595596 0.26036155232905533 0.027526014647575016
0.30090057995552505 0.26347523936747697 0.03208046515950739
0.2965401425623366 0.2610688806486049 0.027667396864982242
0.2914705887102553 0.26080882558344987 0.03453870972165644
0.28657454397911514 0.26298481235026505 0.03756406267652094
0.28324157145256484 0.26256775865077164 0.03296687563428461
0.3029981866144606 0.26152485618113663 0.032173508010001774
0.29848921444649185 0.2614545227003017 0.036058419547172184
0.2925158157610365 0.2614853979062953 0.03203439076909601
0.2972615375780531 0.2620047927808681 0.03213062246808588
0.2966701998972365 0.2626168132734218 0.035278641781898136
0.2937532677912184 0.2621105314206996 0.03071167429456293
0.2896070494913527 0.24008333692073017 -0.007956719794182188
0.2890829458498427 0.24124264726161151 -0.007049447693733579
0.2897583260797926 0.2401113511037746 -0.008574462332634336
0.29205727722877944 0.2402673364591518 -0.006494439043907529
0.2909790292047926 0.24147474774836689 -0.005514121451286679
0.29007703211540664 0.2405906916570583 -0.007303363480476743
0.2911995663904616 0.2405519486379543 -0.00872919599047125
0.28968125727409805 0.24416500339030414 -0.007223046221641904
0.29049623158211196 0.24039137372492939 -0.008483237423805601
0.29213476326698745 0.23998022088526874 -0.0037051800869983493
0.29178184416527236 0.24044734248637348 -0.00270739833345831
0.2904571905397841 0.23973000058650165 -0.004725820221809751
0.29516196396584 0.24062728890895038 -0.003567284741310483
0.2945247307085463 0.2410552502584377 -0.0026663009308856784
0.29183399822945083 0.24035608777522235 -0.0047885243081134616
0.29349744465584243 0.24183273324488788 -0.002926534809975034
0.2926192894243666 0.2428904176664272 -0.0017995599888843358
0.2932216539644667 0.241938054652206 -0.004230267205147153
0.29196912195915664 0.23861604938029438 -0.006545877852348691
0.2918391838335463 0.23830688008784442 -0.006774163641838437
0.29491108801598037 0.23712313184260517 -0.006713843741325742
0.2923100009226271 0.23904681214808612 -0.006018704571632749
0.2922096863054701 0.23871761569499164 -0.006324476399330503
0.2946324363016554 0.23743879804133564 -0.006177103915123349
0.28917575028175796 0.23996013411997943 -0.004354393877891904
0.28892100002998794 0.24021607646464496 -0.003986514010338193
0.28894645121330703 0.24002623567103534 -0.004435068764595395
0.2931848182939955 0.23968803891657978 -0.005796111025719052
0.29184800532097305 0.2402353883695522 -0.004332399763969785
0.2911229148172804 0.23933976897715717 -0.006690925755409604
0.2949224128984877 0.2408721447896877 -0.005051500000862485
0.294551075961537 0.2410416603994289 -0.0042475227498096286
0.2919190540575453 0.24014902123927265 -0.006273484625725156
0.29413080361122573 0.24086153516291767 -0.004085129895119077
0.29331547167534316 0.2416461707067409 -0.003159290947822934
0.29399293806786025 0.24123060712336689 -0.005886233248619443
0.28173750784630264 0.24153298148631244 0.05070614179143488
0.2790934458040663 0.24783164271830707 0.05570232232579767
0.2764965906404921 0.24506396064280658 0.04945939143666803
0.2921772613787123 0.24236178407191425 0.05301257332334101
0.2871332183145949 0.24911552676676899 0.057148360810371036
0.28329867270225967 0.2453482747983852 0.05106636246213495
0.2866705670618483 0.24642640361308246 0.04915919264325678
0.2848613276743361 0.2601302863073268 0.05269496997365534
0.2825555219912001 0.25006741294383195 0.047713034949393864
0.2815390243792006 0.23784255990504413 0.057999395928474064
0.2782556429171034 0.24140524873255878 0.0627784367419201
0.2760836496614882 0.24048221120356708 0.05635684093007624
0.2877709284090468 0.24196791657923847 0.05898570378789484
0.2834048881792494 0.24512022742747455 0.0630395348883587
0.28060519840950454 0.24358725556849628 0.05684634407529413
0.28426969197029556 0.248693585486404 0.05757024248609125
0.28056526329750503 0.2569047213506618 0.061053597531409855
0.2797207846903273 0.2521121502828517 0.0561399098254162
0.2825361504816481 0.23540329942225605 0.05147528012761652
0.2812514915728041 0.2369629741620937 0.05667852719792902
0.28094089176887954 0.2384210229825893 0.05168711503514826
0.2844008817934462 0.23933285483836322 0.05455239971646845
0.2815520777964064 0.243114173502914 0.057605766854377384
0.2807016387247511 0.2417900563192287 0.05278634389409601
0.28122133162254775 0.2419966460180202 0.05294462402829706
0.27845901396507705 0.25099790105342057 0.05541851480969965
0.2791039362215468 0.24611139306544452 0.051501714787574406
0.3068842902445265 0.2609990836095729 -0.0031835202359241305
0.3065317287706801 0.2622391582441249 -0.0019490186356586278
0.3048887863420912 0.2624704838704982 -0.0031977061413806735
0.3109049215578505 0.2610284090948024 -0.0024387601994556246
0.3100677743219801 0.26197797069071915 -0.0007891420506519138
0.3070683493875929 0.2618533969831386 -0.0019619528435748873
0.3098258986734816 0.26048547038554337 -0.0052576426648181735
0.3090822711252638 0.2638554573964992 -0.002477860846428281
0.3075131192469069 0.26189196118830826 -0.00435689727297247
0.30737471726173843 0.2586236000966945 8.18928250848655e-06
0.30662113573784316 0.25953441867350724 0.0017489429331737697
0.30411577370399917 0.25960195073603776 -0.00029355923166692847
0.31098014261955703 0.26021331557749894 -0.0003155831479114353
0.3097509756349989 0.260326087565414 0.0018362041331249415
0.3073052182459303 0.26016128072261 -0.0001663331173938572
0.30773461010689224 0.26185321816920426 -0.0005647007607501804
0.3067125692629286 0.26383614549159196 0.0016106899596172511
0.30705952790016616 0.26233494290827897 -0.0007689658783954441
0.29149580147499526 0.2543283701848903 0.06984415014752923
0.2834012522959181 0.2625874877881923 0.07601528724202691
0.27885061648125137 0.25928515204905656 0.06889747937688409
0.31314897682899917 0.2545869947385707 0.06977238615521966
0.3079854264521071 0.2564583421659389 0.07604333122739373
0.2988277092241713 0.2548931241941371 0.06882753332624017
0.30348271277183975 0.25293535003184464 0.0642253692961651
0.3022037759088942 0.2603477836561122 0.06976153810987054
0.2942783847116896 0.25509727010249283 0.06338840087422906
0.28981328156227554 0.25097101935862687 0.0802444156027752
0.27926844504112686 0.25651121148585465 0.08493413885602533
0.2756037726664015 0.2548004389715114 0.0777148540831524
0.30742091086143936 0.2540473938894191 0.07710265477666436
0.30040699389214004 0.25342023381709244 0.08345355947980462
0.29035169031853164 0.2548972965192714 0.07571526726254998
0.2995644822382399 0.2568891645383754 0.07489749153623163
0.2955738916658827 0.2601136566114345 0.07946171720990716
0.29072129872078384 0.2585169673871913 0.07316037376889764
0.2723497762941786 0.2545359135579982 0.09580471476087152
0.26947885897392715 0.25747787961482194 0.09951054414281427
0.26476389315361465 0.25704795131205704 0.09520905574330865
0.2816734328531691 0.25420838603495743 0.09647511800298272
0.27820009138817275 0.2563275695753017 0.09955554564961969
0.27273720648521865 0.2557001710843959 0.09454720576772271
0.27958095219368423 0.2543426752996364 0.09457894524106561
0.27762538340324844 0.259435236544601 0.0966277654982525
0.27529102709526504 0.2561245561551967 0.09226023515233575
0.2715357556604811 0.2541980148267665 0.09827833732137262
0.267845274474568 0.25645476588725236 0.10242324431905328
0.2638659491800734 0.25604736814021256 0.09792956074246942
0.2776409998201796 0.25497978934764054 0.09932231267461358
0.27385282662147964 0.2568168044996181 0.10239499171742975
0.26812565472359146 0.2564861179304042 0.09743663033017694
0.2749988451265761 0.2568296194982448 0.09876530726918756
0.2728434815668532 0.2602497936201015 0.10067986806401788
0.2722424879335829 0.25794917354106095 0.09641959627637445
0.2682943954729506 0.25289756068705704 0.09570428093442498
0.26741308119530166 0.25418490180491593 0.09734048803815423
0.2653845563196608 0.2534077764463344 0.09499829371938287
0.2708076849245497 0.252868115992538 0.09726681669721185
0.2703058138155409 0.2541295290899196 0.09856461843022882
0.26640331890816177 0.2543380261373439 0.09551801641950189
0.2724280967974135 0.2530388832998195 0.09519406517514764
0.2717586174272963 0.25603216895579484 0.09623464306363641
0.2703638091349074 0.25494122514247086 0.09322192629346429
0.28640401509041274 0.24456214913844257 0.028053754172416324
0.28609013703102554 0.2476480008077541 0.032511257729621525
0.2852328434252211 0.24745768317698627 0.02775188644895136
0.2918350711130568 0.2459734083127895 0.03109716733464777
0.2896057977938124 0.2509922386121669 0.033788972697349186
0.2877684250139662 0.24874836215495258 0.02943085988530695
0.28816050436729873 0.24814754733561664 0.028093957505317325
0.2872436061167189 0.259665310473434 0.03017374237546503
0.28613805916542495 0.25209170588969376 0.026646577916236515
0.2887825980448195 0.24046778687953144 0.03421475847730219
0.2866756334566542 0.24324637660502582 0.038610362610908146
0.28688639548058 0.24352830657481342 0.03317367394933283
0.2913147225641676 0.24517518290995746 0.036327117285819645
0.2880302086138197 0.24844908723353534 0.039535218081565494
0.28783077147240127 0.2467675805997768 0.03454669674405634
0.28836560394997085 0.25143438586711075 0.03588270505437433
0.28539377596611465 0.25855273017405656 0.03829413016805231
0.28611695912117446 0.25465130815028336 0.03447055181035578
0.28900116827721084 0.2386578918409267 0.029279136262031193
0.2884544148706862 0.2394157648992458 0.03320219477185785
0.2897714391016432 0.24264580020426899 0.029716664157004948
0.2880252018236586 0.2430696488332668 0.03349914511212885
0.28739196207756484 0.24511826047419696 0.035605811677070255
0.28724444058174575 0.2454231382322231 0.031960272393317814
0.2849599137567946 0.24560987958430439 0.03270011504659235
0.28323841240639175 0.2529916168165126 0.034430884919257755
0.2833245411180922 0.25018584737300065 0.031763845286460514
0.2983232155107924 0.2513354421567836 0.05511810740003168
0.2976112976335951 0.25984054812907365 0.06117078026303827
0.2956153764986464 0.2550486923170009 0.05591251810559809
0.3066627397798964 0.25361347207545426 0.05917193850049555
0.3021823778414198 0.2645493150663295 0.06313317378530084
0.2992828502916762 0.2573258877706447 0.05763518174657404
0.30228960659737075 0.25753742465495255 0.05425229033002436
0.30131912377113784 0.2733297348928371 0.056964242062659855
0.2977675810121962 0.26263898620127824 0.053212368092628116
0.30157417204613174 0.24566686162470966 0.06115298827657282
0.29855215695137466 0.25075280675410416 0.06792273481854974
0.29718613770241226 0.25029391059397843 0.06123589833745539
0.30484777834648574 0.25286704310893204 0.06491934617528497
0.3004869833254286 0.25868499288081315 0.06840833385953485
0.2987726941370436 0.25574553021907 0.06254845222005426
0.3025115742945143 0.2594829202604213 0.06220998724469721
0.299447955157704 0.2725037337255397 0.0654865141726452
0.29873579886192764 0.2645449639272609 0.06070145329007685
0.29881328490013565 0.24517184504985004 0.05628021915921747
0.29791498329872573 0.24876779326914936 0.06323780973920404
0.29853958037132705 0.24930363902568012 0.05845593770513117
0.29893320944542373 0.2518932224225917 0.06219651659497797
0.29693502333397354 0.25775247821330216 0.06540527304181634
0.2960171714090773 0.2553068400335231 0.06005122622022211
0.298261226680226 0.2542421818685451 0.05900626739034235
0.29590565111870254 0.26935189971446183 0.06194373329648554
0.2944927826189467 0.26129931220530656 0.05757727583417475
0.303223909404225 0.24405968198298603 -0.027715212502388363
0.3033344164156386 0.24354952582835346 -0.028900838293938046
0.30294650938744033 0.24292123326777607 -0.028233236470131283
0.3032388701700636 0.24405646333216816 -0.027711546816734677
0.3033496752047011 0.24354779729365497 -0.028897977270988827
0.30295592692131484 0.24291908750056415 -0.028229421772865658
0.30213558819527114 0.24238193044184833 -0.027170008816627865
0.30230194475883926 0.24219518908976703 -0.02735719720354498
0.3036397710108229 0.24158793696879535 -0.027493781247047787
0.3036431684755751 0.24417203673838764 -0.02664650122156561
0.30395668890709365 0.24404364833354145 -0.027964777150062924
0.3030248298906752 0.24279320249079853 -0.027602917351631527
0.3037729277872511 0.2441573739957729 -0.026605582632927303
0.30409228947395767 0.2440364957761684 -0.02793560067644537
0.30311554816002334 0.2427957058858791 -0.0275647107743305
0.3011179580950209 0.24320679912089496 -0.02594575921526373
0.30134046223396743 0.24291759738444477 -0.026377296843437557
0.3037122502588698 0.24208688745021015 -0.026787853636650448
0.30208128836388076 0.24510353812693744 -0.029241747059730892
0.3026968255304762 0.24408829221247821 -0.032015449204353695
0.30383581068748916 0.2428540588331142 -0.030019885697273617
0.30305516865486587 0.2455229164075771 -0.031210190453438168
0.30281442549461807 0.24405813226222187 -0.03311184684267462
0.306397737529225 0.2426486612272182 -0.03149435559740484
0.2993507995867201 0.2433689833593288 -0.029508716263679867
0.2988294377588698 0.24188780793666034 -0.03163582722177923
0.30272847559685195 0.24183118352412372 -0.030008680024055844
0.3034372940325209 0.2402288318586269 0.022098147473426456
0.30198562290901626 0.24242275962351947 0.02401232083806574
0.29976266768211807 0.24143701800822406 0.020165228448005314
0.3087495579981276 0.24064695844172626 0.023388021788688297
0.30727195885414565 0.2421083451223293 0.025646650395484562
0.3036724939608046 0.24099719533442646 0.02181737979421198
0.30859220173592056 0.2401958704900661 0.019507252774329777
0.30786490586037124 0.24515372523783832 0.02221267779836237
0.3059590473436781 0.24080699691294818 0.019009553990455265
0.3053637757563063 0.2407616973829189 0.026306086382957096
0.3030221476816603 0.24221408376216083 0.028608345589728947
0.30016118433708633 0.24174773702143817 0.024274074635596866
0.3085837974810072 0.2423771620702663 0.026800298295112247
0.30654394772285903 0.24287033090113788 0.029256903729529972
0.3034167304300734 0.242426335902206 0.024973684153648014
0.30617702152962173 0.24465185412882953 0.027403527102561588
0.3054354205393263 0.24715030202387958 0.029190623364539738
0.3039832725786635 0.24550479659556537 0.025484674773307438
0.3005700722002455 0.24001312264918476 0.023015075526328678
0.3005230441355177 0.24037641295909076 0.02355533202657282
0.30055087950462783 0.2399011255216518 0.02169879635343134
0.30253714468712295 0.24029982099055439 0.02381988724240839
0.30234092619652236 0.24075531968592792 0.02439689000615656
0.3010228290819594 0.2401309610319057 0.022574179968925114
0.2997065797113844 0.24139046678065448 0.02450861891278803
0.2998420610689589 0.24322384604930072 0.02585809787282526
0.2997962250971266 0.2420526147794643 0.02394636829862177
0.2756689801477858 0.24304991969584613 0.08594741781720697
0.2748374357485243 0.24467384824275165 0.08819636066922723
0.2724317326807448 0.24379730233668476 0.08507522305020868
0.2813394084238478 0.2426874042463222 0.08743464311132013
0.28011179116005386 0.24460071334361225 0.08957662542829095
0.2751266374849745 0.2444090248060146 0.08565043767461358
0.2799431100153395 0.2433840037298122 0.0853633817053753
0.27896279242271865 0.2479878068876186 0.08691790064343988
0.27722424414391006 0.24509257087229877 0.0834909315920788
0.2747604861521193 0.24241960057734638 0.08807843287953912
0.2733733072542616 0.24349838504313617 0.09059869607457696
0.27139079716438735 0.24307167539118915 0.08757611473569452
0.2794577493929335 0.24248427161692768 0.08907993992337762
0.27714675810570205 0.2442535162877956 0.09144111832150995
0.27324777987236465 0.24386805305003315 0.08775570353040277
0.2768417015337416 0.24370169648646503 0.08860280474195062
0.2764284625315138 0.24640423068522602 0.08975353201398431
0.27539372589821304 0.24476510295390277 0.08652212580213128
0.2754030838274428 0.24053865680216938 0.0856993134833294
0.2757982626223036 0.2408289910268703 0.0861163969851452
0.2760351910852858 0.23959946641444355 0.08506276567945062
0.27602487948173965 0.2404717803907314 0.08761262258061944
0.27620798495048965 0.24098318824290424 0.0882560249186474
0.2745051398539015 0.24093431243418842 0.0861456926680523
0.27559453394646133 0.24054640540599018 0.08601465185651361
0.2759653940462538 0.24233317384242206 0.08648418744573175
0.2743393197321364 0.2419176698636928 0.08435105641851007
0.2742355480455824 0.23949730405329853 0.08816718419560968
0.2737954869532057 0.24021869906901508 0.08958896358975946
0.27282750752205337 0.2394046188306728 0.08754786213407098
0.2765125646852919 0.2394460440587917 0.08962401112088739
0.2758682384752699 0.24047166118144184 0.0910575624323803
0.27266818430656875 0.24058765182017475 0.08817490299710809
0.27627605345482315 0.23963779220103412 0.0881661709166485
0.27652573731178726 0.2418854833555141 0.08879950006970941
0.2744823708795973 0.2411278487157741 0.08640503247747003
0.29869365837807144 0.23835891494273334 0.07570450862416803
0.2974221720957228 0.2405044437360683 0.07821225484380304
0.2974219932817885 0.23900628098963886 0.07387571891316949
0.30356502678627456 0.23843061933039814 0.07746889551648675
0.3024551883005568 0.24062258014201313 0.07945429643163263
0.2988603725695082 0.24024468669413715 0.07480778654584466
0.3022771492266127 0.23924362668513446 0.07522764166364251
0.30315351631874526 0.24533790359019428 0.07675280531415521
0.3000323786997267 0.24172115334986835 0.07323780020246087
0.29916322376961196 0.2388102413129726 0.07685973604688226
0.2971908464693495 0.24048841008662372 0.07961037119397699
0.2976685180925795 0.23971676835536151 0.07517426570424615
0.3023114815020033 0.2399328351926723 0.07812403996953546
0.3011540785097548 0.24126172074793964 0.08001437147626458
0.2982227220797011 0.24114453801631122 0.07567318638333856
0.3014592542910048 0.24151915320872455 0.07741465528974115
0.30131429579491104 0.24567127236842304 0.07865839560994684
0.29859066155189956 0.24394530066966205 0.07570158799657403
0.29940205958122695 0.23823279151438861 0.07349660357007562
0.2995698466562697 0.23831230411051899 0.07422023375997125
0.30269283201927627 0.23756349095820575 0.0717622276164013
0.29837584641212905 0.23869705209254413 0.0764146979666668
0.2979910984301039 0.2393399477910915 0.07729458173284112
0.2990168347620436 0.2391461730909267 0.07400640209683954
0.2993036523127028 0.2372748852682033 0.07434093316564142
0.30006694939369644 0.2407538891744533 0.07514941056737481
0.29635805037254775 0.24054569015025287 0.07292693217763482
0.288403512504048 0.25420254477976945 0.005001568398566836
0.28791225102180923 0.2564965487432399 0.00704064329633295
0.28778475668663467 0.25683766612528947 0.003157430491538638
0.29271894839043106 0.2553548217725673 0.006620013318153018
0.2912033810877272 0.25810587415217545 0.00834175308713495
0.29072582867378677 0.25680184373377946 0.005073749623389834
0.2897598758005568 0.25998580464839127 0.005704396567435855
0.2889000787996718 0.2663421631765285 0.007542395196052188
0.28891003277534927 0.26212424048899796 0.004529589018912906
0.2892350569033095 0.2526496053647914 0.007388704619498843
0.2876786604189345 0.2542634011220851 0.010108822188468569
0.2881520405077406 0.2546420694303432 0.0058615144110637845
0.2924749269747206 0.2554078699064174 0.007916116318793886
0.29045343544716323 0.25669574746607926 0.010281973681541079
0.2910546674990126 0.25565022239207413 0.006603771052451724
0.2898799791597792 0.26025640973567155 0.008497261605353945
0.2888575806879469 0.2636635304403224 0.009974413714500063
0.2884113207125136 0.2620158196401515 0.0072548623896557035
0.28552872088188613 0.24229961642741352 -0.0227027300976795
0.28520244505638565 0.24288421878337055 -0.022318488755134945
0.2847755565905043 0.24207258233546405 -0.023488796152977352
0.28744673874611343 0.24232709416865497 -0.02136153618326605
0.2870711102747389 0.24290657052516132 -0.02098844090929449
0.2857114687227675 0.24209094056605487 -0.02234325448503912
0.2862380161547133 0.2434249521207729 -0.022507435479072933
0.28554713871712173 0.24561560163020282 -0.021409041085152035
0.28574735071892227 0.2430686355543056 -0.023128217854408627
0.2882158174776503 0.24072295436381488 -0.020737684168724423
0.28803277161354507 0.240947425456039 -0.020359820523170834
0.2868710770868727 0.24001699695109516 -0.021462864079384213
0.28920948651070083 0.24120980510234027 -0.01963040868273199
0.28928011801475967 0.2412005067777553 -0.019299155869392758
0.28732270148033584 0.24044156083583026 -0.020658141770271664
0.2881426229738661 0.2415483594846645 -0.018913752236275082
0.28822314884895767 0.24199444064616352 -0.01869020501604498
0.2891880288385817 0.24129676827906757 -0.0207951430462879
0.2876175060533949 0.24101787814616352 -0.02316362301340521
0.2872295990251967 0.24003493794917255 -0.023697978653816586
0.2889041915201613 0.239180326552383 -0.022938645281700497
0.2876181020998427 0.24102121600627094 -0.023154086270241146
0.28723114874596084 0.24003803739070087 -0.023691273131279354
0.28889799263710464 0.23918271073817401 -0.022929615178017025
0.284572364356465 0.2415115238141933 -0.02053714434137762
0.2845200314783522 0.2409052849721828 -0.02104730049601019
0.28396481421226943 0.24114656457423359 -0.021213359036354427
0.2871982469820448 0.24159836778163105 -0.02290949861040533
0.2865594043993422 0.2419109345388332 -0.02203226725092352
0.2864624872469374 0.24075239905833393 -0.023683524527458553
0.2881687894129225 0.24235409507273822 -0.021960920491127377
0.28763049986595596 0.24239480504511982 -0.021167612471489315
0.2862380161547133 0.24149125823496967 -0.022873139777092343
0.28833311941856826 0.24198710927485614 -0.02084735671511114
0.2882312550806471 0.24216747292994648 -0.0207457307957691
0.28885078575844253 0.2423783541631618 -0.022818661131767635
0.28160041716331924 0.2512300611448207 -0.013524508871940977
0.2809920921587416 0.2553927899312892 -0.011532253422645933
0.2801685943865248 0.2545619011831203 -0.014868444600014097
0.2865271582865187 0.2528244853925624 -0.011782861151604063
0.2847692384981581 0.2560639382314601 -0.009831256070045835
0.2833344354891249 0.2544547320318141 -0.012628949084190733
0.2848922624849745 0.2583145500135341 -0.009978211321739561
0.2853759541773268 0.256261408419601 -0.01548430959215582
0.283659221198506 0.2645798326444545 -0.013068145909218199
0.28324782994026626 0.25835263738154557 -0.016084230341820126
0.28221005347008193 0.2521277070951381 -0.010955131449608213
0.28019172098869766 0.25457644471644547 -0.00801087061396063
0.2813999071382948 0.25376975545405533 -0.012122130789665586
0.28658497479195083 0.2552833558034816 -0.010431355633644468
0.28351432230705703 0.2566897870016017 -0.007219142117409116
0.2838009014391371 0.25537961730479386 -0.010968304076103575
0.28547543432945693 0.2572258115720668 -0.011601633229164488
0.28443581011528457 0.2608211041402736 -0.010001546540169126
0.2831506743692824 0.25898510226725724 -0.012967861094383604
0.28350508358711685 0.24921619901179462 -0.013489967980293638
0.282780589129872 0.25020593413828995 -0.012002057232765562
0.28346032049889053 0.2519334555578151 -0.01329482237329901
0.2835538401865431 0.2526542545270839 -0.011676884093193418
0.28284746554130996 0.25343084344386246 -0.010561532177833921
0.2832629695200392 0.25322401532649186 -0.011782205500511534
0.2798745646738478 0.25702124843119767 -0.011139458813576109
0.27928424027199233 0.2602485419225612 -0.010016298689751036
0.28041434433693374 0.2588217259359279 -0.011351710953621275
0.2855350389742323 0.25216221818446305 0.04707699378499567
0.27985793497795547 0.26221120366572526 0.05200906952390253
0.2772302046083876 0.2566448450994411 0.046217256388755436
0.30057966854805435 0.2521480918836513 0.048845672211738224
0.2957444205545851 0.2576816082906642 0.053221845231147404
0.29090219881767715 0.2534321547460475 0.047006600699515934
0.294970096614308 0.2532762885999599 0.043633603653998966
0.2933630957865187 0.2653588057470241 0.0473564203597027
0.28918033983940566 0.25577414044856217 0.042218023142905826
0.2852420225405165 0.25006592282771256 0.05330332478055536
0.27878254797691787 0.256476879210464 0.057698213658424015
0.2761611356996962 0.25411248216151383 0.051263027987571354
0.29637843516106094 0.25292617091654923 0.05305408795842707
0.28971755650276626 0.25570422420024064 0.05792044957646906
0.28548628237480606 0.25455343732356217 0.05131699999341547
0.29157823469871963 0.2560436130475917 0.05023410280713617
0.2879909887575575 0.26295846709727433 0.05388616879949152
0.28624242689842666 0.2580671907377162 0.0484412546969372
0.30384814884895767 0.24067562827586322 0.04252299030789911
0.3036649241709181 0.24155694255351215 0.043568306765647526
0.3021085872911879 0.24148058900355487 0.040902816853614445
0.30594784167046035 0.24043232211589008 0.044556909403892155
0.3054807796740004 0.24149495372294574 0.04558076818952143
0.30290073302025283 0.24099123486994892 0.042987817130179996
0.30334586050743545 0.2405959964704433 0.04352774580487787
0.30293387320274795 0.24477046737193256 0.04534795244702875
0.3026440158152052 0.24166864165782123 0.04280903299817621
0.30436575558418716 0.24155288943766742 0.04554259141454279
0.30398231890434707 0.2420870066594997 0.046866798005195255
0.3021925702356764 0.24177497634410053 0.04417681058415949
0.3067775383257338 0.24238812932490497 0.04622583945760309
0.30682289746040786 0.242717444987289 0.047370457253547306
0.30410272028679336 0.2420473099660793 0.04477419813642084
0.3023425355219313 0.24406111249446064 0.04823791345128595
0.3017249121927687 0.24621164807795673 0.049455993971915836
0.30188584473366226 0.24497014293193012 0.04669018944272577
0.3014623537325331 0.24085885295390277 0.04326879342565119
0.30136221792931045 0.24078893670558124 0.04320194681653559
0.30344396975273574 0.24052369603633075 0.041891777119727726
0.3014500155710646 0.24099737414836078 0.04446610172757685
0.30141478922600234 0.24092215308665424 0.04438810904988825
0.30186599638695205 0.24060440072535663 0.043275945983024235
0.29890507605308975 0.23954129228114276 0.04471369942197382
0.2991171493792006 0.24097573766230732 0.04523068030843317
0.2980245962404677 0.24070072183131366 0.04425983985433161
0.2706657066606947 0.2415090800237575 0.09372814854154168
0.2691001310610243 0.2425854803037563 0.09604578574666559
0.26473629620308364 0.24217450627802997 0.09303131063947259
0.2765052333139845 0.2415345312070766 0.09413346012601434
0.27538734820122207 0.24247902640818744 0.09602876862058221
0.26807069924110855 0.24277126798152118 0.09245788415441095
0.27438372519249404 0.24203312406062275 0.09360437949666559
0.27348220494026626 0.24430310735224872 0.09510760863790094
0.27151096012825454 0.24280983218669086 0.09166678150662957
0.2688455596231886 0.24158185729502826 0.0968009467936474
0.2664444461130568 0.2424125076246181 0.09940942486295282
0.26268023398155654 0.24178987750529438 0.0963494714117962
0.27404701855415786 0.24180912980555683 0.09692861994275628
0.2717094435953566 0.2426714302015224 0.0989580090857464
0.26562124636406387 0.24251002082347065 0.0956114765025097
0.2703673854135939 0.24274575719355732 0.0975164111472088
0.2688019886278578 0.24429094800471454 0.09917565544614373
0.2691035881304213 0.24291890868662983 0.09539803226956903
0.2680991306566664 0.2399234176587978 0.09375288446912347
0.2683067336344191 0.24013936528681903 0.09414967258939325
0.26774710562462295 0.23859918126582294 0.09255915244588434
0.2694412484430739 0.23992854365824848 0.09448673685559808
0.2695850744509169 0.240229070277206 0.09498249848851739
0.26724934723610366 0.23972159633158832 0.09273954590329705
0.26874524500603164 0.2401331664037624 0.09346585830220758
0.2680543079637953 0.24102669963359027 0.09414699038037835
0.2678036704325148 0.2404998541784206 0.09191172679433404
0.31049549725288833 0.24065256127833515 -0.014025515713600523
0.310495318438954 0.24065345534800678 -0.014023399748710997
0.3085007682108351 0.24025589236735492 -0.014578706421760923
0.31235391047234023 0.24029427775859027 -0.01319355408182562
0.31234800961250747 0.2402973772001186 -0.013175613083748228
0.3099111929201552 0.2400081754636684 -0.013897186913399107
0.31089723255867446 0.2387956977796474 -0.01376629511347235
0.31045794632667983 0.24025857457636982 -0.01272869745722235
0.3111827388071486 0.23881065854548603 -0.013921237387565977
0.3119436517023512 0.23788785943507343 -0.011761373677162535
0.3119241013788649 0.23788303145884662 -0.011675721802620298
0.3101787581705519 0.23676997432231098 -0.012857652106193907
0.312917353179402 0.238017737956039 -0.011247909464744932
0.3129211678766676 0.2380182147931972 -0.0112620357655567
0.31118887808556045 0.23701441297053485 -0.01254738012781561
0.30978799011940444 0.23789900550364643 -0.010180420079140074
0.3095458760523268 0.23841780433177143 -0.009674495854286558
0.3110367074274489 0.23746341475962787 -0.011395430960564024
0.309152008559651 0.23992562303065448 -0.014072424569038755
0.30890292074913467 0.23954325923442035 -0.01575846115580023
0.3098146930002638 0.2383280397367397 -0.014600491919426329
0.30912023928398574 0.24007582673548847 -0.0145521227501911
0.30866313126320327 0.23962831506251484 -0.01610151568880499
0.31013751175636733 0.23833256968974262 -0.014936930336861021
0.30336064245933975 0.2381991744947353 -0.012256122031120665
0.3037584438585707 0.23741400250910907 -0.012932277121452696
0.3069656505846449 0.23731088647364765 -0.012940562167076475
0.31217295077080215 0.2391783595991054 -0.011274791159538633
0.3121793284677931 0.23917067059992939 -0.011242574849037535
0.31051600125069106 0.23787468680857807 -0.0124408368252796
0.3131346717142531 0.23936605462550312 -0.010773158469108946
0.313162030246205 0.2393748165082851 -0.010856962599663145
0.31135505583519424 0.23822379121302753 -0.012158012785820372
0.3105359688066908 0.2390066982221523 -0.009741640486626036
0.3104398861193129 0.23926514396189838 -0.009448504843620665
0.3112704172396132 0.23861664542674213 -0.011261290707497007
0.29228109266991104 0.2535082698774257 0.08811854680547296
0.2863869085573622 0.2641397715520778 0.09351613482007562
0.2834162726664015 0.2589491010618129 0.08685710390576898
0.3077172651552626 0.25388449439524796 0.08965697248944818
0.3025578871035048 0.2598440648031154 0.09463586767682611
0.29629141237968887 0.2563343049001613 0.0876352425433117
0.3010320081972548 0.2567050457906642 0.08499457796582757
0.2990727439188429 0.27030074605464127 0.08906876405248224
0.29417824890846694 0.26064127692698624 0.08342184980878412
0.2905336632990309 0.2492724657964626 0.09461813529500543
0.2864559903406569 0.25458812722682145 0.09970118959912835
0.2829118385576674 0.2530495525312343 0.09311174710759698
0.2991541638636061 0.2527860403966823 0.09570988377103387
0.2934502973818251 0.25707048186778214 0.10005238016614496
0.2890405073427626 0.2552693487119594 0.09346132834920465
0.2948104753755995 0.2578756214094081 0.09289657433995782
0.2915868177675673 0.2678571344327846 0.09669577439794122
0.2899536505007216 0.2611628771734157 0.09108265598783075
0.2902845158838698 0.25076395282267716 0.0881533261156994
0.2887091651224562 0.2539364696454921 0.09307050069341241
0.2861873522066542 0.25372177371501115 0.08761107285985528
0.29519939568275894 0.25336623200892594 0.09070124586591302
0.29162615683311904 0.25837975749491837 0.09399243553647577
0.2878791108393141 0.25653612622737076 0.08860968907842218
0.29294854548210586 0.25503957280635026 0.08741643389234124
0.291233421828694 0.2666521073293605 0.09027218183049737
0.28969895985359634 0.25928443679331925 0.08567350467214166
0.30083394196266616 0.2536771298360744 -0.027423686184791927
0.30082214024300064 0.2560850978803554 -0.02562246362200201
0.30024761107201065 0.25599020728587296 -0.027775323786644344
0.30515468266243423 0.25455731162547257 -0.026209122338203793
0.30350864079231704 0.25687354812144425 -0.02402160207262457
0.3031951203607985 0.25576668986796525 -0.026116735138801937
0.30095875408882583 0.2578011156034389 -0.028480744757561093
0.30065280344719375 0.2635325790357509 -0.02609497944345892
0.30020088103050674 0.2597560883474269 -0.028464770712761288
0.30078768875832046 0.2525466681432643 -0.023235536017326718
0.2988201990389296 0.25414323815821793 -0.020308858551887875
0.29921656992668594 0.2540171147298732 -0.023637956776527767
0.3042660966181227 0.2557782531690517 -0.023342675366310482
0.30146372463936294 0.25659257182597306 -0.020495301880745297
0.3026895537638136 0.25528013715266373 -0.023536777892021542
0.3013601913713881 0.2596814633321681 -0.02349553147783697
0.3009466543459364 0.2626186610174098 -0.02140844503870428
0.29999691393608535 0.2610977292966762 -0.024355000653175717
0.2830812945627638 0.257617712111465 0.08025740941533624
0.280449570681996 0.2622197867345729 0.08358251412877618
0.2779609575533339 0.26065355548381 0.07910334428319513
0.2910173549913832 0.25760883101939347 0.08171709736356317
0.2882294073366591 0.261405348868362 0.08464916904935418
0.2836606517099806 0.2601949573469081 0.0797597702361065
0.2895932212137648 0.2581183911275783 0.07866384943494378
0.2872852101587721 0.2670438290548244 0.0810020204401928
0.2856803550981947 0.26136982450007584 0.07680376728543817
0.2822006955408522 0.25658214101313737 0.08312028010854303
0.2789551034235426 0.26002675303935197 0.08701997359761773
0.27756339457268203 0.2588178516340175 0.08211877306470453
0.28724473860496963 0.25781255969523575 0.08450078328618585
0.283900441195912 0.26114016780375626 0.087540560565086
0.28071803000206436 0.25997394332408097 0.08247160275945245
0.285418094661183 0.2600980997991481 0.08295791705617486
0.2830891027712294 0.2664053440999904 0.08502217491635858
0.28334331658119644 0.2624886036825099 0.08077695330152093
0.28155070688957656 0.2540716529798427 0.08011647423276483
0.280670882728047 0.25581634053706315 0.08260699471005975
0.279916705157704 0.25545179852961686 0.07988073786267816
0.2832177295946547 0.2551772595357814 0.0827318366385418
0.28225869086021865 0.2573398948621669 0.08465068896779596
0.27966112044090713 0.257437527270309 0.08099227508077203
0.28347653296226943 0.25486356029032853 0.08024384935864984
0.2838273659014174 0.26005345592021134 0.08178975542554437
0.2816484585070082 0.25828921803950455 0.07835909088620721
