ply
format ascii 1.0
element vertex 387
property float x
property float y
property float z
element face 0
property list uchar int vertex_indices
end_header
0.20573902275795425 0.2385881544065395 0.20571317633161126
0.2023516907953688 0.24159479150294452 0.2087406154490429
0.2002156987451979 0.23905062684535175 0.20533254107007562
0.21478969004387344 0.23895281562327533 0.20858892162808954
0.21273243572945083 0.24098855266093402 0.2120558853960949
0.20808786299461807 0.23762655267237812 0.20856221874723016
0.21065062430138076 0.23836946496485859 0.20352449377545892
0.21025711443657363 0.24446344384669452 0.2072784539080578
0.20481473353142227 0.23931586751460224 0.20335336884030877
0.19912737753624404 0.23694133767604023 0.2124307986117321
0.19578927901024307 0.23963367948054462 0.215377235016914
0.1938736453318068 0.23820602902888446 0.21082105597028314
0.20743692066902603 0.237729013056747 0.21272596081265985
0.20441949513191665 0.2391917110395351 0.21592231949338495
0.2001760020517775 0.23787325629710346 0.21163114269742547
0.20585608628029312 0.23671692618846088 0.20905008276471673
0.2045438900255629 0.24161922940730243 0.21252443750867425
0.20231938507790054 0.2373000980329433 0.2088600631571728
0.19852107908958877 0.2370462418508449 0.20857360323438226
0.19635635760063613 0.23920100936412006 0.21074732502469598
0.19571739580864395 0.23796522626399189 0.2076020475245434
0.2035138025545546 0.23736763009547382 0.2099431391573864
0.20150458958382095 0.2392774225187221 0.21205803116330682
0.19973164942497695 0.2373148799848476 0.20943685730466424
0.20242417004341567 0.23672354230403095 0.20728149374494134
0.20069950964683975 0.24231189498423725 0.21012177427777826
0.19863987114662612 0.23809194573878437 0.20757325848111688
0.20133584883446182 0.23969292649745136 0.2092528577662426
0.1968653216623732 0.24255257853984027 0.2127297159052807
0.1935827150606581 0.2413163186025539 0.2074346776820141
0.21359008696312393 0.24097591647624164 0.2085848685122448
0.21036791947121108 0.24177229413508564 0.21266856153974115
0.2033914342188307 0.24092113980769306 0.20743092258939325
0.20938801911110366 0.23911780128001361 0.20489718874463617
0.20802885439629043 0.24344563493250995 0.20901926716336786
0.2053014650606581 0.23922300347804218 0.20439943035611688
0.22840917256111587 0.2567123771619716 0.17184039314755975
0.22610521462196792 0.2603286505651393 0.17419793566236078
0.22820669558281387 0.2585961819600978 0.17149832209119378
0.2327762856745192 0.25692492732524064 0.17339991887578546
0.23059094097847427 0.2601843477201381 0.17571397980222284
0.23057860281700576 0.2583884597730556 0.17324438055524408
0.23276239779228652 0.25770354279994157 0.17086892684468805
0.23031067993874038 0.26437968024729874 0.17408459743032037
0.22866410162682022 0.2604210377645412 0.17142500837812005
0.22757655527824844 0.2560547591161647 0.17710252960691034
0.22485143091911758 0.25707703837870743 0.18049477895268976
0.22091710713142837 0.25789254912852433 0.175257765851112
0.2365686908029982 0.25710707911967423 0.1754614349223095
0.232861520316548 0.25839239367961075 0.17848249634275018
0.22924506809944595 0.25800246009349015 0.17359896858701288
0.233568729426808 0.2612531782102504 0.17499890287885247
0.2322390690111586 0.2646588684034267 0.1784884866095501
0.23059314635033096 0.26239359387873795 0.17426183184156
0.22915399220222915 0.251111626715652 0.1733337279177624
0.22760224488014663 0.25292152175425675 0.17551323135861932
0.22812754061455215 0.2532660962057033 0.1724731560564953
0.23024034645790542 0.2531861663770595 0.17427810390958368
0.22821712639564956 0.25471991309641984 0.1760722931242901
0.2299683704637953 0.2536739707899013 0.1730261083460766
0.22951054718727554 0.2551271916341701 0.17420049866208612
0.22913026955360855 0.2585310340833583 0.17650710900792657
0.22864484932655776 0.25689941653727677 0.1741937633372265
0.22881341126198257 0.2551426292371669 0.17456107696065484
0.2259713425898024 0.25779968509196427 0.17769330104360162
0.22566390183205093 0.25692468890666154 0.17349010070333062
0.23567068722481216 0.25587278613566544 0.17396821936139642
0.23274606611961807 0.25816017398356583 0.17668148239621698
0.23028552677864517 0.2571836710882106 0.1729687090731579
0.2345346226953932 0.2568020225477138 0.17232652863034784
0.23331362154716934 0.26171928653239396 0.17570188005933343
0.2319428339266249 0.2583997250509181 0.1720497842646557
0.1692323997282454 0.2484082580518642 0.22857382257947503
0.1682395949625441 0.2504632473897853 0.230364286503883
0.16717934754127944 0.2490469218206325 0.22641136606702386
0.17296269681686843 0.248491108508102 0.23050125797757684
0.17152494337791885 0.2505473495435634 0.23216011484632074
0.16873797919983352 0.24948954591273456 0.22785421570310174
0.17224741127724136 0.24941205987452655 0.22828414400586663
0.17158594873184646 0.25518083581446793 0.2299099202967602
0.17041906860107864 0.2506904602956691 0.2266672488070446
0.16771650459999526 0.24915772685526996 0.22992011269101678
0.1664792313837477 0.25042533883570817 0.23184432943830072
0.16520166542763198 0.24995702514170795 0.22799738605985223
0.17161363508934463 0.24975407132624775 0.2306391831255871
0.17084744718307937 0.25082814702510026 0.23202564676770746
0.16668793704742874 0.2507849932622829 0.22825207670697747
0.17004001286262954 0.25148063907145646 0.2302843566752392
0.1701994850897261 0.254388690085403 0.2314522500849682
0.16797101643318618 0.25284737357615616 0.22849508484372674
0.16664505150551284 0.2484446168851772 0.22777088840970575
0.16650134470695938 0.24894005069255024 0.22833600004682122
0.168808044459767 0.24777668723582416 0.22586914261350213
0.16759136464828933 0.24839651593684345 0.22956004103192865
0.16723388579124893 0.24907493600367694 0.2301554914332348
0.1673616185450026 0.24871796378611713 0.22727056702146112
0.1685234620832869 0.2476569415044704 0.22762336691388665
0.1691701128744551 0.2505850792837062 0.22811003883847772
0.16709861304993118 0.24956166753291278 0.22605248650083123
0.22380781319374526 0.25533318528651383 0.20745512207517205
0.22156846668953384 0.2586621643018642 0.21007772644528924
0.2213975801729628 0.2564529181432643 0.2067703243113476
0.2314337506555983 0.2553843260717311 0.20854028423795282
0.22909850027794326 0.2584092021894374 0.21107294519910394
0.2269203081392714 0.256024956793777 0.20804228743085443
0.2304467573427626 0.2555778623533168 0.20521500071057855
0.22886139300102676 0.26305484780787614 0.20853348930844842
0.22516226914162124 0.2580577732038417 0.20544322689542352
0.22374320175880874 0.2540100813817897 0.2126548524714428
0.21984881308311904 0.2567203641843715 0.2163012262202221
0.21701908257240737 0.2562465668630519 0.2107104893542248
0.23303669836754287 0.25491559514521744 0.2113338943339306
0.2298845663332411 0.25652450332163956 0.21467300613889276
0.22378647473091567 0.2567120791387477 0.20945759972104608
0.22970813658470596 0.2569957376432338 0.21003600319394647
0.22942233231300796 0.2613246441793361 0.2135985132075268
0.2267814889215895 0.2581207753133693 0.20918830593595086
0.2224085345529982 0.2512942553472438 0.21042098959455072
0.22055989649528945 0.2532873750638881 0.21258928736218988
0.22166258242363418 0.25243055829524186 0.20890369375714837
0.22659605887169326 0.2519518733930507 0.2106937404490429
0.2246927633547255 0.2537404895734706 0.21270241697797357
0.22405207302803481 0.2526896596860805 0.20947273930081903
0.22528690245384658 0.2531638742399135 0.21000304182538568
0.2253130092882582 0.25801330813883927 0.21236684282788812
0.22421741631264175 0.2548653484296718 0.20953413208493768
0.22478860762352432 0.2530059219312587 0.2109771009303051
0.22112661745781387 0.2560818792295375 0.21432223280438958
0.21904581930870498 0.2550091744375148 0.2093635435915905
0.23470360186333145 0.25370454797267106 0.20976533850202142
0.23141592886681045 0.2557258606862941 0.21301772554883538
0.22621566202873672 0.2550315261793056 0.20849373301038324
0.2331533446573683 0.252932608218185 0.20676585396298944
0.23133546259636367 0.25868254909037736 0.2105520602084118
0.22876340296501602 0.2546247840833583 0.20640661676892816
0.20976197865242446 0.24127906569956928 0.18877955635556756
0.20724111941093887 0.24676603087901264 0.1921317811823803
0.20798033621544326 0.24152863034724384 0.1872395511485058
0.2178074136042067 0.24097996959208637 0.1920438643313366
0.21561342623466934 0.24611669787882953 0.19493778904447137
0.2140832557939955 0.24143397817134052 0.18987136443624078
0.21555519249672378 0.2419831157636562 0.18745257814893304
0.21626061346764053 0.25370991239070084 0.19016587098607599
0.2132818117403456 0.24390608081339984 0.1859856482363659
0.20889943983787979 0.23843681821345478 0.19382950027951776
0.20764184143776382 0.24174410113810688 0.1969480152941662
0.20723825838798965 0.23964697131632953 0.1916553612566906
0.21540272381538833 0.23919713506220966 0.19494047125348626
0.21302426007027114 0.24263870725154071 0.19780894478330194
0.20996046211952651 0.24093520650386005 0.19238313396939813
0.21400338556999648 0.24237364539622455 0.19391217192182122
0.21461933996910537 0.25187885770320084 0.19655158480176507
0.21080154326195205 0.24526846417903095 0.19248791893491327
0.20818716433281387 0.23846668014048725 0.19016157945165216
0.20816153433556045 0.24076062449931293 0.19222786386975824
0.2093397393488356 0.23876160392283588 0.18804853518971978
0.2129323497080275 0.23857671031474262 0.19244720896253167
0.21169889118904556 0.24169594058512836 0.19447334965238153
0.2101627602838942 0.24018216142176776 0.1899926300860363
0.2120674267076918 0.23944777259349018 0.1906381185866314
0.21325183060402358 0.24846482285975605 0.19305034836301385
0.20947277691597427 0.2431038022947231 0.18954669793614923
0.21029901650185073 0.24009686717509418 0.19090562423238336
0.20724666264290298 0.24538248786448627 0.19438561161527215
0.2070567026400038 0.24128806600093036 0.18900128563413202
0.21823310997719253 0.24050915250300556 0.19306977947721063
0.21606534865135635 0.24434953937052875 0.19594171007642328
0.21269506361717666 0.2413994074773708 0.19072537978658258
0.21591681387657607 0.2421022654485622 0.18957831820020257
0.21699726727241958 0.25307536134242203 0.1926220293856579
0.21298325207466567 0.24398571261881977 0.18808826168546258
0.20984149124855483 0.24144727000712543 0.18792536219129144
0.20750427391762222 0.2469230891179958 0.19115074833402215
0.20841205265755142 0.24147915849208026 0.18646454175481378
0.21745151427025283 0.24099648007868915 0.19157781561383783
0.21542084362740005 0.24633032092570453 0.1943791743136364
0.21412044909233535 0.24141895780085712 0.1894527610159832
0.21507454064125503 0.24209940442561298 0.18694918712148248
0.21568220999474014 0.253916859717361 0.18960794170865594
0.2128834142946669 0.24405711898326068 0.18550621827611505
0.1907646968626448 0.25877386340617325 0.21893026789197503
0.1885235622190901 0.26197314271449235 0.22205533941754876
0.18448591377968276 0.26169794806956437 0.2176835175372082
0.20257544663185562 0.2596580983114162 0.21812250574597894
0.2002774491571852 0.26151025304316666 0.2218535180903393
0.19337725785011733 0.2611662746381679 0.2176333304263073
0.19828564074272598 0.2585957051229396 0.21497997005948602
0.19717180874580825 0.2646844387960353 0.21897461374768792
0.19329393055672134 0.26061248788355973 0.21499582489499627
0.19035667326683486 0.257525622935287 0.22418435772428094
0.1869146242403456 0.26060444125651505 0.2275585766650158
0.1835792377256819 0.26026052245616105 0.2222814794398266
0.19917458441490615 0.2587649823141017 0.22343500813016473
0.19622039940590347 0.2600041032743373 0.22707983215817987
0.19155860092873062 0.2598835230779567 0.22222121914395868
0.19409334805244888 0.2617235780668178 0.22272016962537347
0.19286608841652358 0.2662200928640285 0.22614308556088983
0.19061628129715408 0.2630783916425624 0.221922063431831
0.18589320924515212 0.2580945492696681 0.22087576349744378
0.18492069986099685 0.2598902584028163 0.22326388319501458
0.18253058340782607 0.2603955865812221 0.21976008375653802
0.19187963154549087 0.2590018511724391 0.22102447708615838
0.19068581011528457 0.26060372600077775 0.22329952677259027
0.1876514270567366 0.26015907535075333 0.22016104420194207
0.18807363655800308 0.25979673871516373 0.22019025047788202
0.18769073631996597 0.2647995353650966 0.2228138085223156
0.186540217664189 0.26162803182124283 0.21984311302671014
0.20953816321129287 0.24314934024333149 0.2313972349978405
0.2067786469721266 0.24723583468913227 0.2345391150332409
0.20659327652687515 0.24316614875315815 0.2304246064043957
0.2176787867807814 0.24289464959620624 0.23425021132001458
0.2150300755762526 0.2464803458166042 0.23708971699246942
0.21311634924644912 0.24294519433497577 0.2327666517115551
0.21561414149040664 0.2430645228338161 0.22972538431653558
0.21421790268654312 0.25363892325877335 0.23291494806775628
0.21203482296699966 0.24499601134776264 0.22903563936719476
0.20634168532127822 0.24108797320841938 0.23716738184461175
0.20345598604912246 0.24421077975749164 0.24049648006925164
0.20376676466698135 0.24183964738368183 0.23552509506711541
0.2117290511393019 0.24211698779582172 0.23803814610013543
0.20874136831993545 0.24467110642909198 0.24101843794354974
0.20626175549263442 0.243178129286758 0.23585238417157708
0.21007251885170425 0.24386024484156757 0.23644920547971307
0.20993685868019546 0.2507772446584621 0.23938080032834588
0.2077259435915419 0.24545294055461078 0.23542960842618524
0.20474034693474258 0.24194180974482685 0.23340531548032342
0.20294577028984512 0.24448734530924945 0.23589506109723626
0.20541536953682388 0.24166321763514667 0.23211982210645257
0.21042233851189102 0.2422337532949367 0.23444422443875848
0.20841920521492446 0.24466300019740253 0.23690321405896722
0.20800340321297134 0.24302053460597187 0.23273321350583612
0.20807540562386 0.2428278923940578 0.23316963871488153
0.20769548561806167 0.2500627041768947 0.23572101553449212
0.20624423172707046 0.24510335931300312 0.23250212629804193
0.20842725184196914 0.24268490085124164 0.23471846540937005
0.20441472676033462 0.24624532470225483 0.23835095127591668
0.20295632031197036 0.24400609740733295 0.23285498579511224
0.21614915278191055 0.24349850425242572 0.23518332203397332
0.21270722296471084 0.24599629649638324 0.23836120327481805
0.20874816324943984 0.24437528857707172 0.2329427834368664
0.21549815085167373 0.24339091786860614 0.2316404219485241
0.21412027027840103 0.25092917689799454 0.2352533574915844
0.2117622509264418 0.24480593213557392 0.23075344522962152
0.20756888535255874 0.24427753695964008 0.230283879838081
0.20502615120644058 0.24909979114054828 0.23329665621289788
0.20628887560600723 0.24350690850733905 0.22973957022199212
0.217231215503163 0.24332869061946064 0.2331866856432873
0.2142409696840712 0.24831777820109516 0.23625906666287957
0.2134276047014662 0.24349755057810932 0.23201521595487176
0.2140348568224379 0.24406051644801288 0.2282868858195263
0.21341669705147231 0.2555574775648036 0.23134949167737542
0.21172118332619155 0.24582618484019428 0.22749140223035394
0.22403049614662612 0.244689941496841 0.21272304018506585
0.22150349762672866 0.2479393483114162 0.21568670233258783
0.22084152844185317 0.24568170318125873 0.21138896902570306
0.23030620959038223 0.2447199822378078 0.21486093958386956
0.2278735652231642 0.24761766204356342 0.217641377053352
0.22562635090584243 0.24514132747172504 0.21367248257169305
0.229221703078694 0.24505478152751117 0.21118923386106073
0.22779637720818008 0.2530558706235805 0.21461083849439203
0.22435254004234756 0.24732649335383564 0.21089973410138665
0.22298997786278213 0.24205136308192401 0.21799679955014764
0.22008294012779678 0.24447423228739887 0.2211845155573803
0.21903693821663345 0.24339300403117328 0.2159900303698498
0.22815734293693984 0.24279874572276264 0.2186280723429638
0.2258570208811232 0.24470633277415424 0.22145082911023675
0.22206449654335464 0.24388641128062397 0.21665021141538202
0.2259693756365248 0.2447974682760158 0.21774246653089105
0.2266848697924086 0.2501164079618373 0.22070094307431756
0.22369963076347793 0.2461419702482143 0.2166487809039074
0.2217262401842543 0.2419288755369106 0.2147191401339489
0.2196820392870375 0.24417030820368915 0.2168994780398327
0.22161030915016616 0.2425876260709682 0.21274867018231927
0.22565859701866592 0.24208611258982807 0.21579387148389398
0.22401660826439346 0.24401885280131488 0.2178973790026623
0.2235451951288649 0.24266302594660907 0.21423026283750116
0.2236820473932692 0.24272197494029193 0.2151686783648449
0.22400665428871597 0.2481932044935146 0.21726741751203119
0.22228527214760269 0.24447286138056903 0.21437337358960687
0.22424727823967422 0.24358582505702167 0.21490308006772577
0.22083568718666519 0.24670279035090595 0.21825959642896234
0.21923381235832656 0.24506509313105732 0.21314671000012933
0.232531668212361 0.24420195827006488 0.21518012245664178
0.22969526198143447 0.24642395982264667 0.21838190516004144
0.22540486004585708 0.24504035720347553 0.2136728401995617
0.23049718287224258 0.24404317149638324 0.2120530243731457
0.22945523407692398 0.25073486575602677 0.21569820602902948
0.22658449557060684 0.24566471585749775 0.21146216352948724
0.22352355864281143 0.24482429036616474 0.21213670929441034
0.22119718935722793 0.2480912209463039 0.21498908957013665
0.22079903033012832 0.2457006574582973 0.21091505249509393
0.22968399670357192 0.2447361947011867 0.21447976788053094
0.22738903906578506 0.24776393184184223 0.21716912945279657
0.2255319371485182 0.24509751805781513 0.21336688955792962
0.22848379757637466 0.24522650250910907 0.21094098051557122
0.22700101282829727 0.25347352036952164 0.21431257685193597
0.2235754742884108 0.24756300458430439 0.21071662863263665
0.20269239094490493 0.2600553036641994 0.2016235228396374
0.19991672184700454 0.26604551085948136 0.20533301790723382
0.19862014200920547 0.26305526504038956 0.20081874092588006
0.21632206585640396 0.2598326207113185 0.20104297359952508
0.21347469237083877 0.2645958066892543 0.20462110003003656
0.20854127552742446 0.2621130348157802 0.20050533970365106
0.21292609122032607 0.2596350313138881 0.1966527338839489
0.21123379614586318 0.2703277469587245 0.2005287643290478
0.2066360130571791 0.2631927729558864 0.1967738505221325
0.20278746035332168 0.2581486106824794 0.20728882511624871
0.19940364506477798 0.26225310573100236 0.21148797234067498
0.1954978122972914 0.2617326975774684 0.20534076651105462
0.2146974816584059 0.2591673732709804 0.20593186577329217
0.20996320393318618 0.26230663070201066 0.21009978016385614
0.20551544573540176 0.261246383280746 0.20422538479337274
0.2105572834276625 0.2644339800786891 0.2042244907237011
0.20888286974663223 0.2715800405454555 0.20815881451139032
0.20627093460792983 0.26643836507319596 0.20319082697400628
0.20311039831871475 0.2550197840642848 0.20383026560315667
0.2023419752382704 0.25782513627528336 0.2071735497332531
0.20055323984856094 0.25835704812525895 0.20292278488645135
0.20921147015327896 0.2567407489728847 0.20431199034223138
0.20758479979271377 0.2596936822843471 0.20714625080594598
0.20500385906929458 0.2587824464750209 0.20308657845029413
0.20648169663185562 0.26001220950602677 0.20312311609754144
0.20622480061287368 0.26773083219050553 0.20600017269620477
0.20395934727425064 0.26294457921504166 0.20250036676892816
0.2076341524385878 0.25436294087886 0.2239078517771679
0.2051540031694838 0.26390254506587174 0.22948332985410272
0.20375514176125015 0.25692081460475114 0.22449829538831292
0.22311544564003433 0.2534692884397426 0.2247870798922497
0.21967518475288833 0.2629730702352443 0.2294518586016613
0.21500718739265884 0.25632572183131364 0.2238923545695263
0.21835118677849258 0.25466585168360856 0.2194588418818432
0.21817177679771865 0.26927429446696427 0.223172747693153
0.21201092150444473 0.2591179610204616 0.21928747852811395
0.2093651309275099 0.24792909631251484 0.2293479677058178
0.20633512881035293 0.25414687404154923 0.23575928171643792
0.20457601692909683 0.2520024181318202 0.22906985243329583
0.21851277497047866 0.25173980006693986 0.23114784916410028
0.21282202151054824 0.2583864332151332 0.2355457182742077
0.20999598648781265 0.25452417144297745 0.22930523117551385
0.21427053358787979 0.2583256960821071 0.2283714052058178
0.21233832981819595 0.27242976436137345 0.23283537586698114
0.20978790667290176 0.26215386399745133 0.22753282745847284
0.2090861215853163 0.24773645410060077 0.22500636538037835
0.2077125921511122 0.2529826761197963 0.23082646091947137
0.2076307549738356 0.25104880342005875 0.22572686632642328
0.21463030722374404 0.2514423132848659 0.22821917494306146
0.21094709780449356 0.2580398918104091 0.23224260767468988
0.20844447758430923 0.254743218512527 0.22665336092481195
0.21171856072182144 0.25473636397837784 0.22514363487729608
0.21118414547676528 0.26877564200877335 0.22900851925382196
0.2073059692644545 0.25959205636500504 0.2245225544787365
0.2085104599260756 0.2523810864400783 0.22838386257657586
0.20456576493019546 0.25933021316050675 0.23430135210523187
0.20109284069771255 0.25622761258601334 0.22720822056302606
0.22394490387672866 0.25353312501429703 0.2280938263750988
0.21751642372841323 0.25919532784938004 0.232949518761726
0.21204525377983535 0.25611132392405656 0.22636445721158563
0.21715945151085342 0.25923937568186906 0.22503175695905267
0.21561968472237075 0.2721624375295558 0.2297052379466015
0.21145695593590225 0.26214629420756486 0.22412910421857415
0.18201771524185623 0.24547988185404926 0.20789858063230096
0.17569276836151565 0.2561749220800319 0.21387090643415033
0.17364305403465713 0.24991393098353534 0.2089218135691601
0.20111662295097793 0.24643540391444355 0.20775976141461908
0.198412479426808 0.25292027005671647 0.21327122410306512
0.19062975194687332 0.24780654916285663 0.2077694173670727
0.1943963184618422 0.24555432805537372 0.20195230206021844
0.1940397634767958 0.2580083609533229 0.20669307669171869
0.18671667721504653 0.24882406005381733 0.20212211569318353
0.17935335781807388 0.24337148675440937 0.21578355988034784
0.1757631018423506 0.24802553662776142 0.22075190504560052
0.17213705327743972 0.24692732104777484 0.21457585056790887
0.19291502382988418 0.24436259278773456 0.21478875835904657
0.18745371845001663 0.24822235116480976 0.21916981895932733
0.18178919103378738 0.24685442456721454 0.21337267120847284
0.18719917681450332 0.2483818531942287 0.21227624376782953
0.18437677767509902 0.25837469110011246 0.21676763256558954
0.1818811610006758 0.2510610819768825 0.21191432436475335
0.1765832021498152 0.24458181867121845 0.2114983435488659
0.17554891255135024 0.24767506131648212 0.21640452106961786
0.1734643593096205 0.24703574189662128 0.211456918320747
0.18674186017746414 0.24566441783427387 0.211537861428352
0.1839709296488234 0.24944186219691425 0.21514006813535272
0.17828732874626602 0.2484559417676845 0.21043767889508783
0.18374872353310073 0.24689698228358417 0.20850708445081292
0.18228727724785293 0.2574987412404933 0.21245076616773187
0.178088308837361 0.25075840959071305 0.20861014088162957
