ply
format ascii 1.0
element vertex 643
property float x
property float y
property float z
element face 0
property list uchar int vertex_indices
end_header
0.2665624037050673 0.24059784421443134 0.10957660635480462
0.2653749003672072 0.24378710994242817 0.11256688197621881
0.2635227456354567 0.24371761092662006 0.10917516907224237
0.2728555813097426 0.24144017705439716 0.11047925909528314
0.26958900835747207 0.24533820161341816 0.11326619347104608
0.2669731989168593 0.24408388146876484 0.11008542140492975
0.27079039957756484 0.24270159015177875 0.10794513782033502
0.2683033361696669 0.2490229607534328 0.11057414968976556
0.2678651228212782 0.24512553224085956 0.10757251938352166
0.266075254943318 0.24221396455287128 0.1117674048758465
0.2620753660463759 0.24430912742137104 0.11516165097722589
0.26262712624306167 0.24360716351985126 0.11109822352895318
0.270556570556111 0.24552685031413227 0.11146336158284723
0.266383351352162 0.24675387153147846 0.11472337802419244
0.26481598761314834 0.24566078195094257 0.11125674208173333
0.26877427246803726 0.24590116748332172 0.11089473327169
0.26650679257149185 0.24806153783320575 0.11334949096211969
0.2668935075067946 0.24660736331462055 0.1099426384783703
0.26772672083610977 0.23882049331187397 0.10905831416616021
0.2677336945795485 0.23867857465266376 0.1108598645544964
0.2679308071398207 0.24048858890055805 0.1100118990755993
0.26708972599739517 0.2421354652357021 0.11042358835706292
0.26608199026817764 0.2427046299886623 0.11198049148091851
0.2663831129335829 0.2426888943624416 0.11109518369206964
0.26552319672340835 0.24441611775874286 0.11037152369985162
0.2644787445330092 0.24578899154185443 0.11229046543607293
0.26543718722099746 0.24546569594859272 0.11084448655614434
0.24457168724770034 0.24391937264918476 0.1904317971087414
0.24036467221016372 0.24632376441477924 0.19601401051053582
0.23774510767693008 0.24543517837046772 0.1911731596804577
0.2515721335672804 0.2453589440298 0.19235017260083734
0.2463374748491713 0.24807000169276386 0.19666781385907708
0.2414679541849562 0.2470473051977077 0.190949105820747
0.24848908331627334 0.24540209779261737 0.19001727660665094
0.2445301428102919 0.252488374800674 0.19347646196851312
0.24436539557213272 0.24795198449610859 0.1885135110236126
0.24419289973015273 0.2442765236806789 0.19567462166318475
0.2401307239794203 0.24397963294505268 0.2006442781306225
0.2502393737101027 0.24791395673274189 0.19620331486234246
0.24524724629158462 0.2479115129423061 0.20064648350247918
0.24440026428932632 0.24967974433421283 0.19599362572202264
0.24051255133385147 0.25346773871897843 0.19965770205030023
0.24039036181206191 0.25148844727992203 0.19478865822324334
0.24275851395363296 0.2425447703313747 0.1909803386546093
0.24106574204201187 0.24331605443476825 0.19380381067761956
0.24117458012337173 0.2424655557584682 0.19110664089688836
0.24392575171226943 0.2446684242200771 0.19232853611478387
0.24164879467720474 0.2459668518018642 0.1949248548365551
0.24032491591209854 0.245253324599258 0.19149931629666864
0.24217611696953262 0.24426883468150287 0.19122191627988397
0.24013120081657852 0.24785423287867694 0.1933469410754162
0.24230998900169815 0.24598592528819233 0.1906320687151867
0.2599124923014113 0.25757837304591324 0.1521864469862896
0.25817746069664443 0.2603129745435634 0.15490775664815484
0.25611817982429946 0.25929141053675797 0.1512477036333996
0.26755458262199844 0.25773286828517106 0.15272482594022332
0.26402080204719985 0.2594921589803615 0.15698029955396234
0.26110738661522354 0.2583116889905849 0.1529227431632
0.2649856224321791 0.25950247058390763 0.15087818463811456
0.2628875985407301 0.263646125884048 0.15373762806424676
0.2599660172724196 0.2612713576269069 0.1494153972483593
0.2596576228403517 0.2577800155591884 0.1530050869799572
0.25680267956490005 0.2590179444265285 0.15634208282002984
0.2545368089937636 0.2581994534444728 0.1531368430472332
0.26465398218864883 0.2591588498067775 0.15319606026181756
0.26180607226128066 0.25906640300273087 0.15755727251538812
0.2578992262148329 0.25844734916209366 0.15377136429318963
0.261650206115193 0.25829720506190446 0.1533957954264599
0.25909608748192275 0.26109105357646134 0.15534877141484796
0.25737255957359756 0.2601252795171657 0.15119081099996148
0.25301778462166274 0.2540757657003322 0.15248336752423822
0.25213998701805557 0.2548362613630214 0.15361362060079156
0.25466382649177993 0.2544600964498439 0.15245574077138482
0.25500387099022354 0.254943311305038 0.15292843540677606
0.25429392006630386 0.25572675475596574 0.15401261409291803
0.2549319877886244 0.25495362290858414 0.1533519264079052
0.25316429283852065 0.2566670776319423 0.15351580937871515
0.2520335331224867 0.25802648076533463 0.15461921056279718
0.2538992181086012 0.25685298451899674 0.1530184086180645
0.24228745844597305 0.23939728745936542 0.1530622478342968
0.238734425570912 0.2412717343282619 0.1568355794764477
0.2372100367807814 0.2402411700200954 0.15302565058240472
0.24852085259193862 0.23947435626506 0.15458943804273187
0.2445124402307936 0.24115341910838275 0.15792655309209405
0.24085319187874282 0.24010086068629413 0.15366300304898797
0.24702179577583755 0.2398175598096767 0.15310334523686944
0.24469471123451675 0.24323606500147968 0.15647377928266107
0.2424823060297438 0.24099349984645038 0.15209045370587884
0.24494201090568984 0.2426438332509914 0.1558548744536358
0.24249428656334365 0.24251866349696308 0.15827804168233453
0.2510553612970778 0.2444942594480434 0.1554918225623089
0.24790775921577896 0.24388861665248066 0.15867176016339837
0.2425702228807875 0.24314332017420917 0.1554271515227276
0.24700635817284072 0.24290961036204486 0.15635755022534906
0.2436027541422316 0.24556255349635273 0.15869703253278314
0.24254250672096694 0.24468058356761127 0.15423756202230035
0.2404358997606703 0.24030709275721698 0.15347852667340814
0.23986411240334 0.2406919003438869 0.15450500806340753
0.24084460880989517 0.23988097915171772 0.1529915269232708
0.24266457703346694 0.24087411174296527 0.15390252431401788
0.24142235663170303 0.24132728585719257 0.15525146683225213
0.24199539568657363 0.2401980758619228 0.15379550417432367
0.24082011130089248 0.24117255219935566 0.154502892098518
0.2388562574648329 0.2422875762891689 0.1559020813322979
0.24119782593483413 0.2411898971509853 0.15433489640721856
0.24067300703758682 0.2386884094190517 0.15575786789426385
0.2389153852724501 0.23904633531092792 0.15775748451718866
0.23902303126091445 0.2381751538228908 0.15521019061574517
0.2439515009188124 0.2398788333845058 0.15591039618024408
0.24211651232475723 0.240295410246841 0.15772669871816217
0.24050098803276504 0.23886114367961078 0.15600609143743097
0.23972451832527603 0.2405441404294887 0.1575631137705761
0.23729485419029678 0.2423204780530849 0.1591665383196789
0.239783169295735 0.24100416907786518 0.15681921800145684
0.27622419741386856 0.24424535045146137 0.12506234010228692
0.27348584082359756 0.2499544621419826 0.1285554703093487
0.2713090791964003 0.24805033215998798 0.12432774265775262
0.28574782755608047 0.24479401120661884 0.12587874492177545
0.283917428519673 0.24857264766215473 0.12875469883451043
0.27949756529564346 0.2464722991895595 0.1251261170721966
0.2826955333017775 0.24610084304331928 0.12225224932202874
0.28211337473625625 0.25440090903758195 0.12510075529584466
0.27885985520119155 0.2479739786100307 0.12175547441014825
0.27846098091835464 0.2449871302556911 0.12885686119565545
0.27348613884682144 0.2483929992628017 0.13230552633771478
0.27334630635017837 0.246973455042831 0.12732993920812188
0.2852092995905348 0.24731630095957904 0.12838678916463434
0.2807472958826491 0.24882590779780536 0.13195970018872796
0.27826327231163467 0.24780911216258197 0.12741985281476556
0.2834048881792494 0.2477537990522304 0.1273415323115307
0.28119152930016006 0.2508082390737453 0.12960075696477472
0.2802994265818068 0.24870330104350238 0.12563394864568292
0.2766033425592848 0.24232709416865497 0.12698202689656793
0.27660590555901016 0.2430364490461269 0.12923594673642694
0.276335538890309 0.24443668136119037 0.12653394897946893
0.27881264832252944 0.24462872752665668 0.12829306086072503
0.277694226767964 0.24615633496760517 0.1300369735575634
0.27655238058800186 0.2458469868612209 0.1276813681937176
0.2772098794245192 0.24752038726328998 0.12753825744161187
0.2765147700571486 0.2508294583272853 0.12917979916104852
0.2763277306818434 0.24919497975825458 0.12705417831906854
0.27783292677635635 0.24486947068690448 0.12978749831685601
0.27335506823296035 0.24790793666361957 0.13328509887227594
0.27399718907112564 0.24654042729853778 0.12826954682836114
0.28300690796608413 0.24785590180873066 0.12987022956380426
0.2785395398401686 0.24959743031977802 0.13319300969609796
0.27746135142082656 0.2481842041921535 0.1288283999777752
0.2822878971361586 0.24798208484172016 0.12890248855123101
0.2796626105570265 0.25149804362773087 0.1309244271136242
0.27961844351524795 0.2494080663633266 0.12727000673780023
0.26993227150673355 0.25547987231730607 0.11803522070416986
0.26420420553917373 0.2588312030744472 0.1220181520796734
0.2607124462389418 0.2574453354787746 0.11812045534619867
0.27850532677406753 0.2592566610288539 0.11756979783544122
0.2739389553331801 0.2577363849592128 0.12425806482801019
0.267740727927632 0.25698155173777726 0.11876206954488336
0.27591008093590225 0.26017332086085465 0.11460947354802667
0.27665293362373794 0.26076161870478776 0.11990579327115594
0.2677392378115126 0.26079481849192765 0.11382337769040643
0.2641817941927382 0.2607631684255519 0.11902364452848016
0.25833869126076187 0.26127678164958146 0.12258642276296197
0.2540637269281813 0.2607222200345912 0.1185500260210949
0.27634501602882827 0.2617051006269374 0.11661111672887384
0.2705088868402907 0.25977921494959977 0.12205910047063409
0.26340973522896255 0.2597091794919887 0.11754908522138177
0.27112472203011 0.2600431443166652 0.11558299621114312
0.27006161358589614 0.2598891259145656 0.1189770336962658
0.2634924664759108 0.2610354424428859 0.11292325814733087
0.2617180958055922 0.2573195100736537 0.11622645815381585
0.25846880820030654 0.2581682206106105 0.11837425192365228
0.25766611244911636 0.2576627136182704 0.11678805311688958
0.26661169674629653 0.2584748269033351 0.11523764689931451
0.26409518864387954 0.2583028675031581 0.11772551496991693
0.26091677096123184 0.2577020526838222 0.11632590850362359
0.26337921765083755 0.2588626743268886 0.11409881075391351
0.2645196929239699 0.25862127551554825 0.11704938968190728
0.26132506277794326 0.2590292693090358 0.11370130737790643
0.24464303400749648 0.25893712052821305 0.1721866067267376
0.24262273457283462 0.2611437440824428 0.1756716605044323
0.2416149988436171 0.2602789998960414 0.17193123062619745
0.24924081709618057 0.2598314882230678 0.1744899984217602
0.24645966437096084 0.26258713016032365 0.17748253901967584
0.24421584751839126 0.26099026212214615 0.17358540853032647
0.2493736758493849 0.26055020102976945 0.17260434587964593
0.2458036556505629 0.2668587566327968 0.17501159866818963
0.24573320296043838 0.26297241458415177 0.17122828324803888
0.24746155884499038 0.2653824687909999 0.1742347117281872
0.24724686291450942 0.2593225837659755 0.1732774909354168
0.24563235190147842 0.25955396899699357 0.17655196150312005
0.24349123385185684 0.2599462271642604 0.17313965519437371
0.2500463142656752 0.2626489997816005 0.17430677374372064
0.2470807447695204 0.26321566113948014 0.1779936786509472
0.24373847391838516 0.2623164058637538 0.17443289717206537
0.24666768458122695 0.2633450628232875 0.1747290428496319
0.24435681250328506 0.2667728067350307 0.1773099239684063
0.24460804608101333 0.26494830855845597 0.17360412438878595
0.2424016609453627 0.2569257617902675 0.17260011394986688
0.24245417263740981 0.25732576856135514 0.17343431075582086
0.24503457691902603 0.2574489117574611 0.1715649004794079
0.24318283941978897 0.2586025596570888 0.17335125168332635
0.24239701178307022 0.2593899370145717 0.17483743389615594
0.24375933554405654 0.2590219975423732 0.17323117812642633
0.24122220423454727 0.26058411607264664 0.17347797115811883
0.2399212732576796 0.2628119588804164 0.174955510697456
0.24266892817253555 0.2617407442045131 0.17363434394368707
0.24302697327370132 0.2556326390218654 0.17396717628011285
0.24288129952187026 0.2558138371419826 0.1753117378569561
0.2444565310739943 0.2559654713582912 0.17306425531873285
0.2444097414278456 0.2577816248845973 0.17444356640348016
0.24341833737129653 0.25859779128550675 0.1764941748000103
0.24316042807335342 0.25797271737574723 0.1746871407843548
0.2419799580835768 0.25956785687922623 0.17489039262303888
0.24029487517113174 0.26207995423792985 0.17677527030477105
0.24300366785759414 0.26103866109370377 0.17504005988606988
0.28680122044319595 0.2541505695295253 0.10616745909223138
0.28307616856331314 0.26225626477717545 0.10976114233502923
0.280637980964131 0.2602230311345973 0.10589345654019891
0.29553526785606826 0.25746285924433854 0.10623850782880365
0.2930904045366713 0.26059156665324357 0.1108792360640484
0.28864944126839126 0.2590227127981105 0.1067707475043255
0.29315275099510635 0.2589302063894191 0.10143580397138177
0.29246831085915054 0.2658928037595668 0.10633703430661737
0.2877575769686171 0.2611696124982753 0.10204871853360711
0.2857308402323195 0.25765877971171525 0.11021527012357293
0.2810480013155409 0.2609376312208095 0.113802128634544
0.2804541602396437 0.25953871020793107 0.10894125064382135
0.2955405130648085 0.2609943152379909 0.10846667846211969
0.29040277149910415 0.2614953518819728 0.11331977804669915
0.28825616982216323 0.26040029534815934 0.10848610957631646
0.2923741951250502 0.26087963590144303 0.10683646162519037
0.29033297446007217 0.2638985515546718 0.11002659162053643
0.28777653124565566 0.2623641491842189 0.10551088412770807
0.26348471787209 0.24391937264918476 0.15675472577580987
0.26204592135185684 0.24517500409602314 0.15863683184156
0.2598139062189528 0.244964599699966 0.1557674344397503
0.2687637820505568 0.24405765542506366 0.15664335449704705
0.26760953810448135 0.24516737470149189 0.15839868148335992
0.26362437155479873 0.24481797227381855 0.15568518002996026
0.2669629469179579 0.244590163321487 0.15588574965962945
0.2666657581591078 0.24617964038371234 0.15806483586797296
0.26492548134560073 0.2452591062498012 0.15532680710324823
0.26506662514442886 0.24331849822520404 0.1596748765326458
0.2620171323084303 0.24417465934275775 0.16214444597730218
0.2603937402033278 0.2432512641858974 0.15921249350080072
0.26885861304039443 0.24446892747401386 0.15936523040303766
0.26590103056663955 0.24484169492243915 0.16180785854825555
0.26223892119163955 0.24397826203822284 0.1591020758963543
0.26297056820625747 0.24591898927210956 0.16051813324460565
0.2627004995607802 0.24660015115260273 0.1620153125143963
0.2618323579096266 0.24589681634425312 0.15880622824201165
0.2631063475870558 0.24126583346842914 0.15825184544095575
0.263087989356465 0.24123060712336689 0.15818890293607293
0.2640712871813246 0.24029362210749775 0.15805535872945367
0.2642806186937758 0.24149429807185321 0.158342802128883
0.2642636313700148 0.24146008500575214 0.1582829590655285
0.2646816387438246 0.24048030385493427 0.1582429941512066
0.2607318773531386 0.2415422798108974 0.15866022666463434
0.2607638254427382 0.24168390044688373 0.15885653456220208
0.26196140196556533 0.24139654645442157 0.15830271800527154
0.25212109234566177 0.23744159945964008 0.1372553642607647
0.2498389497065016 0.24014079579829364 0.14061047991284906
0.24700576212639297 0.23943185815333515 0.1361993785716015
0.25856858637566055 0.2380226255369106 0.1384591396666485
0.25506293919319595 0.2399699092817226 0.14240988453397332
0.25192928459877456 0.23867803821086078 0.13776614626416742
0.25561005022758926 0.23939412841319233 0.13705643375882684
0.25315684225792373 0.24402397880076557 0.13964104016789972
0.2513556494974562 0.24098008880137592 0.1353211637354809
0.2541056885981032 0.24009019145487934 0.1391811605311352
0.25102228071922744 0.24064463386058002 0.1425239976263958
0.24853927042717422 0.23971641072749286 0.13916721304425775
0.25926083472008193 0.24216771134852558 0.13926162680158197
0.2560192361139723 0.2414846421193996 0.14353504141339837
0.251430274512715 0.2408609987211147 0.139634990296455
0.25442630198235 0.2414368987989345 0.13995700438985406
0.25206881907219375 0.24377477178095966 0.14201437791356622
0.2510344400667616 0.242725670428268 0.13777502735623895
0.25172871496910537 0.2381148935270229 0.13727515300283014
0.2509950413965651 0.23860836038111835 0.13845434149274408
0.25330960896248306 0.23765558013438373 0.13696434458264886
0.2538116588854262 0.23881250628947406 0.1376763518668133
0.25269711163277114 0.23952656993388324 0.13905062635907708
0.25386113074058975 0.2381536365461269 0.13791408499249994
0.24934482720131362 0.2403344512891689 0.1389592524386364
0.24782002117866958 0.24184209117411762 0.1398290034151989
0.25051021721596206 0.24054372319697528 0.13831561168202935
0.25275689509148086 0.23733443030833393 0.14030968507299005
0.2514011278414198 0.2379463315915981 0.14263077934751092
0.251028241183705 0.23704469213008075 0.1401351626730877
0.25551563647026504 0.239493727774612 0.14072170217999994
0.25330066826576675 0.239543616862289 0.143873089156242
0.251527668502278 0.23818433293818622 0.14146303494939386
0.2496764674448439 0.24057316789149433 0.1426424916602093
0.24799913313621963 0.24241900453089862 0.14392166694173394
0.2492574467920729 0.24120211610316425 0.14123397429952203
0.25019055750603164 0.24099618205546527 0.1784502204276043
0.24613589194054092 0.2428262234640041 0.18215023835668145
0.2441089167856642 0.24199604997157245 0.17839228471288263
0.2551888242029616 0.24157953271388202 0.17937093337544976
0.25111234333748306 0.24310487517832904 0.18254166205892144
0.24705529358620132 0.24230754384516864 0.17847486694821893
0.25506055500740493 0.24068790683268695 0.17781072219380914
0.2537598028444716 0.24293392905711322 0.18108942469129144
0.2513176217340895 0.24168866881846576 0.17726307471761285
0.2497336282991835 0.24255454549311786 0.1820062633372265
0.24633509066338027 0.24297326812266498 0.18510460217961847
0.25529283430809463 0.243924081416122 0.18195226152906
0.2513914718889662 0.24423247584818988 0.1849228378153759
0.24659872200722183 0.24351686248301654 0.181279414496513
0.2527957573198744 0.2434164882612148 0.18213530739316522
0.24911826994652236 0.24577885875224262 0.18503343423375665
0.2480239286684462 0.24470973023890644 0.1807610627032238
0.24567681696648086 0.2399212122869411 0.17968805988797723
0.24467969086403335 0.24038344630717426 0.18103348573216974
0.2444179668688246 0.2400444746923366 0.17897188027867852
0.2478858843111464 0.2403383255910793 0.1801015671111065
0.2462594523691603 0.24084407100199848 0.1816504832125622
0.24565893557304824 0.24024033555506855 0.17971059044370233
0.2485266938471266 0.23942393073558002 0.17934169729718744
0.24713862087959731 0.24096143254756122 0.18093931039342462
0.24857556965584243 0.23987120398997455 0.17944442590245782
0.29034561064476455 0.24259525546549945 0.10401838382253228
0.2897949233316847 0.24501276025294452 0.10569235046872674
0.2870991840624281 0.24487179526805072 0.10313709934720575
0.29649365093941177 0.24320799121379047 0.10500445326337396
0.2957184925341078 0.2446049452733913 0.10727339347371637
0.29227310564751113 0.24402713784693866 0.10478126367101251
0.2942708745264479 0.24406254300593525 0.10204672177800714
0.2937111273073622 0.24885761746882587 0.1049508388853985
0.29194420721764053 0.24481773385523944 0.10222571452626764
0.2914254679941603 0.24140208968638568 0.10704236587056695
0.28931838419670547 0.2430359722089687 0.10922186931142389
0.28869223740334 0.24225884685038715 0.10614108403691827
0.2954230323099562 0.24287712583064228 0.10735624392995416
0.2932254686617323 0.24361538896083026 0.10975586732396661
0.29195505526298965 0.24288177499293476 0.10681741794118463
0.29461151507133926 0.24357891091822773 0.10674219687947809
0.29369145777458633 0.24574726829051166 0.10827174147138177
0.2928597941660353 0.24433577069758564 0.10521303971776544
0.2906346931719252 0.2406945825529018 0.10467460115918695
0.29082155373329605 0.24080240735530048 0.10484286507138788
0.2911292925142714 0.24049192676066547 0.10468309482106744
0.29132414009804214 0.24200338134287983 0.10558464487561761
0.2913904204630324 0.2421081067037502 0.10587086637982904
0.2907783403658339 0.24150419244288593 0.10547893603810846
0.28931939747566665 0.24327462920664936 0.10617678721913873
0.2885897174143263 0.24488580235957294 0.10709234436521112
0.290111960437245 0.24388301381587177 0.10563682874211847
0.26508623507255996 0.24183183917521625 0.12549030145177423
0.26407021429771865 0.24869704255580097 0.1305216189242321
0.2606676235460707 0.24620175370692401 0.12416186293134271
0.27255219366783584 0.2452472449254909 0.12893172462949334
0.26874107268089736 0.25156784066676285 0.13311451037892877
0.2665463700556227 0.2471996546697536 0.12713670094976007
0.2705928101801344 0.24869531402110248 0.12382610996732293
0.2676789775156447 0.26259535560130265 0.12670131882199823
0.26564651873344863 0.25304800281047013 0.12204911669263421
0.26358533051247085 0.2459017039251247 0.12938072641858636
0.26053959276909316 0.24743539103984027 0.13348334392079889
0.25961709168190444 0.2469477654409328 0.12707083781728326
0.2729371204637953 0.2490195632886806 0.12879970034131585
0.26802808192009414 0.2502084375333705 0.13396196921834527
0.2660132661127516 0.24870622167109638 0.1278980906821209
0.26972586062187637 0.2504996658277431 0.12636264523038446
0.2653096928858229 0.2565287352514186 0.13014777859220086
0.2641260042452284 0.2533368469190517 0.12533330281743585
0.2652701750063368 0.23708808431147724 0.12391167243489801
0.26389974501366104 0.2386084795904079 0.12930997570523797
0.2653532638811537 0.24150455007075458 0.12440734466085016
0.2640928640627333 0.24483704576014667 0.12713065107831537
0.2627762570642897 0.24737536916255146 0.1301484342432934
0.2635015859865614 0.24627852448939472 0.12636166175374566
0.26407051232094253 0.247018039317123 0.1260777052260357
0.26097899821037734 0.254249632449142 0.12816142400273858
0.26312542107338394 0.25114327678202775 0.1253573830939251
0.28639966395134414 0.2414328456830898 0.11416905482778131
0.28438598063225234 0.24607455739497333 0.11975207289228021
0.28169483092064346 0.24637359389781147 0.11377092560300409
0.29186689999336685 0.2464836836767116 0.11600580175885736
0.2877020254396864 0.25172239551066544 0.1193197604037243
0.2851778283380934 0.24932754048823505 0.11462058981427728
0.2892045393251845 0.25084507474421647 0.11276861389646112
0.28681767132515396 0.26139163980006364 0.11626514156827508
0.28586608317131484 0.25410634288310197 0.11186745127210199
0.287793697383351 0.24321335563182025 0.11942913492688714
0.2826729431414076 0.24670350560664325 0.12498506268033563
0.2807589187883803 0.24736332902430683 0.11872961481580316
0.29307979490990127 0.2516379357290187 0.11946591099271356
0.28694826510185684 0.2539905310583034 0.12336271365651666
0.2860223665499159 0.2524139285993495 0.11786078771123468
0.29149943735832656 0.2548938990545192 0.1172053452349621
0.28743940737480606 0.25981897124766495 0.12113978823194085
0.2863566293978163 0.2575177551221767 0.11660774906644403
0.25511723902458633 0.2565558553647914 0.17198070248136102
0.2536624088549086 0.26025372752665665 0.17721339424619256
0.2505956306719252 0.25916451224803116 0.1724123593188244
0.2613756075167128 0.2586116791677394 0.17618786653050958
0.2583497181200453 0.2637592554998317 0.1798266704894024
0.2545534386896559 0.2610851527166286 0.1739224727965313
0.2589384928011366 0.2599002123784938 0.17187189420232354
0.25683564093346084 0.27220791587351945 0.17431502898702203
0.2552576079630324 0.2650830746602931 0.16945760806569635
0.2531002178453871 0.2534098626089015 0.1780503626681286
0.250650884177632 0.2530208826970973 0.18390720447072564
0.2472638502382704 0.25439119348048356 0.17770864923963128
0.2565680756830641 0.2598692775678554 0.1800189550734478
0.25191939022774185 0.2618707419347682 0.1848208840704876
0.248461843993611 0.2608078123044887 0.17849727829465448
0.25402701046699966 0.26122134932994034 0.17794608434209405
0.25019854452843154 0.26922637233256486 0.1816112335539776
0.2503359332346388 0.26525449761866715 0.17656754811772882
0.2531961217188307 0.25109624871729996 0.17310243209371148
0.2532521500849196 0.25147581109522965 0.177314513526054
0.2516877665781447 0.2528541089010158 0.17460071404943048
0.2537425174974867 0.25527912387370255 0.17653071244725763
0.25188470032448257 0.2583465577077785 0.179862999520393
0.25005781796211685 0.2579494715642848 0.17532660921582757
0.25044971850151504 0.25841176518916276 0.17568483313092767
0.24915874150032485 0.2656170130681911 0.17771931847104608
0.2504485860132643 0.26331979045390275 0.17378606756696283
0.2745395317339369 0.25386732825755265 0.1379950579024273
0.2738664760851332 0.2573665381383815 0.14174505432614862
0.27150154259438003 0.25792133817195084 0.13777428229817926
0.27897608425850356 0.25753045091151383 0.13930209835538446
0.2752840533518263 0.26181429633616593 0.1424947019434887
0.2736049309038588 0.259992241950027 0.13904052337178766
0.2755684271120497 0.2593896389913478 0.13627510627278863
0.2729598894380995 0.26692134150981095 0.13915263970861017
0.2731616511606642 0.2621224523496547 0.1358137961245495
0.27235502150291885 0.2555434704732814 0.1408879395342785
0.2694218173288771 0.2571802736234584 0.14482014735707818
0.2687477484011122 0.257407009692184 0.14040299614438592
0.2762424364351698 0.260639488787643 0.14055761059293329
0.27173477556938613 0.26180088529109147 0.14429249723920404
0.27117377665276016 0.2603006363820949 0.1405023272849041
0.27398264553780044 0.26197165259837296 0.1394957538462597
0.2713730349802443 0.2651633621168056 0.14244511087903558
0.2713021054529616 0.2635826469373622 0.13888578971395074
0.27617967274422134 0.25112050780772355 0.13850792606839715
0.275611342456288 0.25119483479975846 0.14184408744344293
0.2758482113146254 0.2543358207654872 0.13997953494557916
0.2734960928224989 0.25740134725093033 0.1399009462214428
0.2718569650911757 0.25810027131556657 0.14197280367383538
0.27308285382027114 0.25800389060496476 0.14071794708737909
0.2711397424005934 0.260073721499435 0.1394017871237713
0.2692879452967116 0.2629232407522121 0.1415530081606823
0.27234286215538467 0.26200103768824723 0.1400148208952862
0.24733138230080093 0.2504289151143947 0.1521108682967144
0.24379873421425308 0.2539984584760585 0.1564790244914013
0.24022793915504898 0.25343692311762955 0.15089657267102777
0.2556160106920668 0.2524484396886745 0.15269320567616998
0.25085228827232803 0.25467360028742936 0.1580521400786358
0.24634951498741592 0.2537940145444789 0.15218966563710748
0.25267410423988784 0.2538636327695766 0.14992278178700982
0.24831158068413223 0.26069331178187516 0.15362893899449884
0.24598229077095474 0.2570899129819789 0.1486779387808758
0.24559939053291763 0.25121831902979996 0.15552457531461297
0.2405475988649794 0.25235450276850846 0.16029625495442926
0.23757082369560684 0.2521591783475795 0.15488334854611932
0.25401222851509536 0.2545555234861293 0.1546382840491253
0.24900007393593276 0.25402355203150895 0.16031634171971856
0.24387526657814468 0.25368690499781754 0.15496351679334222
0.24729812290901626 0.2554558516454616 0.1539426978445965
0.24432563927406753 0.2586460710477748 0.15734567602643548
0.24213755276436294 0.2573379279088893 0.15233489235410272
0.24131018069023574 0.24719375380992084 0.1525211866713482
0.24055564549202407 0.24791133412837177 0.15508743484983026
0.24050438549751724 0.24859046945094257 0.15210201700696527
0.24352049973244155 0.2506584526014247 0.15236892660626947
0.24102866795296157 0.2518597842168727 0.15520536263951837
0.23974204209084 0.2509018779706874 0.1528983052588421
0.24135136749977554 0.2519286275815883 0.15192353089818536
0.23878318217033828 0.25495237121104386 0.154465609393211
0.240396441485829 0.25371110448359635 0.15192940195569574
0.2590799942278334 0.24813586482524067 0.13266363104352533
0.258948744800038 0.2557758093786159 0.1389895614005047
0.2563487305902907 0.2535157800626674 0.1335792477942425
0.2634779229425856 0.25387948760508683 0.1375310059405285
0.260995270278401 0.26251417407511857 0.14101224502095758
0.2585728779100844 0.2570582629156032 0.13587804993161737
0.2619469180368849 0.2557339073133388 0.13169505556592523
0.25990623381370986 0.2710759044599452 0.13409691413411676
0.2580155148767897 0.2612795830678859 0.13019328673848687
0.25836444046730483 0.2515270710897365 0.13688307364949762
0.25664448883766616 0.25254124412058976 0.14244761427411615
0.2547830357813307 0.25338965663432267 0.13584628065595208
0.2641228451990553 0.25756621369837907 0.1377407546854931
0.25898903753990615 0.2600743771505275 0.1426787908888775
0.25821131613487686 0.25789052257060197 0.13671129306325494
0.26178211119408096 0.2597491146039882 0.13520326574811517
0.25774967816109146 0.26713329562663224 0.1390922304011303
0.25725197937721694 0.2630702258062282 0.13458066543111383
0.25960081961388076 0.2431299091291347 0.13261362274655877
0.2586280718111464 0.2436971665334621 0.13973974545964776
0.2598811402582594 0.24802225837229877 0.13501080235013543
0.25725221779579605 0.25244390973567155 0.13670601805219232
0.25603705790276016 0.25526893147944596 0.14001386722096978
0.2565743937754103 0.2546443940114894 0.13627489765653192
0.2561134710573622 0.25484001645564225 0.13571404775151788
0.25344109680885757 0.26315629491328385 0.1377688284731823
0.2563455119394728 0.2598134876203456 0.13509427865514337
0.268459083106465 0.2552611232709804 0.10343163569936334
0.2651420846247145 0.26361674079417374 0.1066307361937481
0.26348745968574966 0.26005560168742325 0.1018193896628338
0.2773810639643141 0.2585933209371486 0.10445361693868219
0.27353114035362686 0.2622529865217128 0.10901024302014886
0.27133757021660293 0.259151816458694 0.10393517573842584
0.2760440721773573 0.2591498495054164 0.09943711122045099
0.2732293024324843 0.26778769502162125 0.10281472762593805
0.2707282319330641 0.26106369504450944 0.09847401937017022
0.2658699765467116 0.25815606126307633 0.10154952963361322
0.26233488466972793 0.26083749541758683 0.10520758589276849
0.26190948631996597 0.2593456507635036 0.09946941693791925
0.27632570412392105 0.2603024841260829 0.10056974848279535
0.27092480805153335 0.2615053654622951 0.10568361838826715
0.26856643107170547 0.26033508786677506 0.0997855897761303
0.2744785561823317 0.2595087886762538 0.09867333730229913
0.27101731446022476 0.26368451127528336 0.10134568174848138
0.2681971802973219 0.26194620141505387 0.09679552277097284
0.26638597395653213 0.2573539615583339 0.10140802820691644
0.26540964987511123 0.2593746782255092 0.10439112146863519
0.2664867654108473 0.2604042292547145 0.10092821081647455
0.26905375864738906 0.261130154223434 0.10250952204236566
0.2670235648416945 0.26275932797907975 0.10526745875844537
0.2683238997721144 0.2615939975690761 0.10219144185552179
0.27045518305534805 0.26091980943202164 0.10100906451711236
0.26860261109108413 0.2646270395231166 0.10262190660008966
0.2679172768854567 0.2631283403348842 0.10024934371480523
0.24516755488151992 0.255733847708694 0.1813973422862011
0.24012524035210098 0.2572320700597682 0.1854397292948681
0.23686868098015273 0.25649571427821305 0.18106227477559625
0.26205486204857315 0.25518566379069474 0.1791034277296978
0.2559940829538771 0.2542714477491298 0.18590413888463556
0.2477499857210585 0.2537890077543178 0.1814048524714428
0.2536531701349684 0.2569622994375148 0.17823039849767267
0.2525666370653578 0.25710529098033097 0.18345525225171624
0.2444407358431288 0.2575441003751674 0.17687174042234002
0.24393654015297378 0.25736665734767106 0.18610488732823907
0.23803889897102798 0.2575032115888515 0.1895603473998028
0.2587772622370192 0.2588827610921779 0.18251519759664117
0.2517443313860365 0.2565159798574367 0.188911193213554
0.25101447251076187 0.25787115106104996 0.18304064234265863
0.24676996615166152 0.258763849825851 0.18717395623693048
0.23969483521217788 0.25994998225688126 0.18028196056851922
0.23792141821617568 0.2531032563161769 0.1824436720229107
0.23437726643318618 0.2538830042791286 0.1852115925169903
0.23245132115120376 0.2536453605604091 0.18224050959119378
0.24439710524315322 0.2535601259183803 0.1813334461070019
0.24064612534279312 0.2539519668531337 0.18401491006383477
0.23544228222603286 0.25358152398585465 0.18150910099515496
0.24225700047249282 0.2539626360845485 0.18092610796460687
0.24160063412422622 0.25437527904032853 0.18463116248616754
0.23864543583626235 0.2538739443731227 0.1812409098959881
0.262374402549214 0.25085914144038346 0.15134041865834771
0.26012492325539077 0.2544318438482204 0.15467011292943536
0.2574291839861342 0.2536613942098537 0.15073415001401483
0.2726808800959059 0.25080442437647965 0.1513140436030346
0.2684745803141066 0.2535150648069301 0.1550805207110363
0.264565826919026 0.25227797040461686 0.15116407831677972
0.26932889368767227 0.25172138223170426 0.148958378634544
0.26788854744667495 0.2560341955137172 0.15270095427999078
0.2649396076464125 0.2532360554647365 0.14871364196309625
0.2630131855272719 0.25152033576487687 0.1533715363360363
0.25808656361336196 0.25318402060984757 0.15729483326444207
0.25560939457649673 0.2526276708555141 0.15305074413785516
0.2705791011118361 0.2534627915334621 0.15263959129819452
0.26625710871452773 0.253525436015121 0.15697356422910272
0.26090490963692153 0.2532811165761867 0.15272008737096368
0.26590180542702163 0.2540347577047267 0.15256344636449395
0.2634006753229567 0.25607860097407487 0.15545996387967645
0.26140862848991836 0.2551411391210475 0.15085785945424615
0.25831115391487564 0.24847733983515888 0.1517916556216198
0.25684696581596816 0.24939310559748798 0.15356808265218316
0.2579548969530531 0.2492242456388393 0.15176998933324395
0.26092696335548843 0.2495732308339992 0.15202572306165277
0.2594794049524733 0.2505494953107753 0.15368386467465936
0.25874805596107925 0.2500214577627101 0.15219607313642083
0.25835496332878555 0.2514614463758388 0.15190263947019159
0.2577154054903456 0.2526898981046596 0.15388956030377923
0.2583681359552809 0.25186842689036515 0.15194928010472833
0.26382631209129775 0.2407868505430141 0.16355510910520135
0.2618387356066176 0.24491524705409198 0.1677453454352337
0.2595481291078993 0.24392783650874286 0.16308822592267572
0.26968181278938735 0.24223554143427997 0.16612165530690728
0.26629752066368545 0.24686968335627704 0.16955357154378473
0.26280981447929824 0.24489420661448627 0.16481017430791436
0.26610452082390273 0.24373960504054218 0.16309424599179803
0.26329487707848037 0.25339871654032853 0.16558014710912286
0.2635350837969252 0.2468438745450893 0.1613771255827862
0.26415449526543106 0.24425697335719257 0.16827582677373468
0.260989965465016 0.24609339246272235 0.1726351614809948
0.2597901835703322 0.24551427373408466 0.16710441668996392
0.26970100548500503 0.24750685700892597 0.16897093614110528
0.2655669465326735 0.24883413323878437 0.17358478268155633
0.263206602599568 0.2476131320905605 0.16813206037053643
0.2643476143145033 0.25210332879542496 0.16835361083516656
0.26141810562843765 0.257279634566299 0.1713369425154644
0.26151836064094985 0.2541641593885341 0.16720654924878656
0.2622543587946364 0.23774665603160053 0.16530024369725763
0.2618291988634535 0.23860180387019306 0.1680067118025738
0.263218285109944 0.23923802384852558 0.16476401051053582
0.2642701282762953 0.23984885224818378 0.16682504971990167
0.26196301129097427 0.24207615861415058 0.16945936640271722
0.2617159500383803 0.24150019893168598 0.16633048017987787
0.2601326122545668 0.24181610354899555 0.16607021649846612
0.2584425225519606 0.2466525436353603 0.16768270095357476
0.2604436292910048 0.24449634561061054 0.16536628564366876
0.2672163262628981 0.24385452279566913 0.14678447803029596
0.2664371743463942 0.24599587926386982 0.14927324017057
0.2641180768274733 0.2457876206350246 0.14584671815404474
0.27458179142708267 0.24355918178080707 0.1472772296286541
0.272573651339955 0.2461599112462917 0.14974566658505975
0.2684152140879103 0.24560868749140888 0.14613773783216058
0.2728046789431044 0.244656503291122 0.14538430531987726
0.27143049385780776 0.24974101790904193 0.14761846621999322
0.2694448843264052 0.2466193438482204 0.14450629910001336
0.2695453777574965 0.2432451845121303 0.14939379056462823
0.2657822385096022 0.24527674922465473 0.1528108652449566
0.2647873177790114 0.24450021991252094 0.14866253098020135
0.27351421263451065 0.2452438474607387 0.14978497584828912
0.26978135254616226 0.2464127541494289 0.1528111334658581
0.2670615330004164 0.2454890013646999 0.14892681797513543
0.2704432025217482 0.2469618321370998 0.14987894257077752
0.2684683218264052 0.24921476850032 0.1516933675623852
0.26863473799461807 0.24759840974330097 0.14810853560933648
0.2678002729677626 0.2390483022642055 0.1481157477713543
0.2677810802721449 0.23923379191874652 0.14864458998212396
0.2682708516382643 0.23911970862864643 0.14769997557172357
0.26972860243553604 0.23967266091822773 0.14858352502355157
0.26968693878883804 0.2398943305921474 0.14912714918622552
0.2691294565462538 0.23946964749812275 0.14840292294988214
0.26645636704201187 0.2407432795476833 0.14926757772931634
0.26607060578102554 0.24176782378672748 0.1501984830714184
0.2662392273210951 0.24120795735835224 0.14877127965459405
0.26943838742012466 0.2418232561063686 0.1512542005396801
0.26709073927635635 0.2431544066381374 0.15414112170705377
0.26703989651436294 0.24269145736216693 0.15075715740689813
0.27198881056541885 0.24371153125285297 0.1519583400107342
0.26926499750847305 0.24504178771495014 0.15451311429509698
0.2678971305155226 0.24386471518992572 0.15149342378148614
0.2688385262751051 0.24614328155039936 0.15316080411443292
0.26666617539162124 0.24825114020823627 0.15456574519643365
0.2679680600428053 0.24694740781306415 0.15174513419637262
