ply
format ascii 1.0
element vertex 243
property float x
property float y
property float z
element face 0
property list uchar int vertex_indices
end_header
-0.029883838852186054 0.23268839749977116 -0.1647399330182812
-0.03323224898173317 0.23664149675056462 -0.16024177909333917
-0.0315030884344767 0.23399797115013127 -0.16465691864927026
-0.015470094640989154 0.23404207858726506 -0.16230193913419458
-0.023779637773771137 0.23742511901542668 -0.1581197941346905
-0.022830374201078266 0.23487678203269963 -0.16335361838777276
-0.022583253343839496 0.23360714349433903 -0.16775861025293085
-0.02639947052790627 0.2366141382186127 -0.16386685908277246
-0.026709772308606952 0.23446491393730168 -0.16888431847532007
-0.03352967615916237 0.240552157494278 -0.16835565507848474
-0.03802434321238503 0.24320736560508732 -0.16344280183751794
-0.03656751628710732 0.24189481172248845 -0.1689809078021786
-0.01533541794611916 0.23972955379173283 -0.16945016026933404
-0.023979670961637348 0.2414889636962128 -0.16453919947583887
-0.026044197042722553 0.24079296025917057 -0.17087325096566888
-0.024474836548108905 0.24058792028114323 -0.17228069544275018
-0.02923799272372231 0.2427254620520783 -0.16935853302915307
-0.028306252916593402 0.24080869588539128 -0.17458827436406824
-0.0349050831396769 0.2376033369033051 -0.1680643969817898
-0.03652197833849892 0.23906466397926335 -0.16403430343110773
-0.036652274091977924 0.23974904451057438 -0.1675675922675869
-0.027067251165647357 0.24112233552619938 -0.16891751826245996
-0.027530349453229755 0.24033799800560002 -0.16546538114984247
-0.03147444840266213 0.24137255582496647 -0.17030660450895044
-0.02896333452059731 0.23881158265754704 -0.1701364332481167
-0.03191003914668068 0.2397468391387177 -0.1677579844041607
-0.03202775832011208 0.2392955723731232 -0.17208557963807794
0.08563699607060447 0.23118844661399846 -0.15112869084317895
0.08502968434498802 0.2338332239119721 -0.14746828020055505
0.08395709876225486 0.23312076959297184 -0.15026934087712976
0.0915621745984365 0.23284027013465886 -0.14969226360757562
0.08889969472096458 0.23469653758689885 -0.14662347376783105
0.08764838461087242 0.23390480909034733 -0.1505710297866604
0.09048887375996605 0.2332817021338654 -0.15366306543786737
0.08782046322033897 0.23655560645744328 -0.15090651452977868
0.08711325411007896 0.23486611280128483 -0.15444270909269067
0.08431791547940269 0.23357144031211857 -0.1527021789594433
0.08178400282071129 0.23512348565742497 -0.1491449290557644
0.08366259221241966 0.23504599961921696 -0.15190609932382318
0.0913030136029531 0.2338898483245087 -0.1525732988162777
0.08893849734471336 0.2345627251593781 -0.1495729202075741
0.08632998947308555 0.23464146289512638 -0.15377595663507196
0.08984389189885154 0.23339268598243718 -0.15423430145223352
0.08688613061116233 0.2350686493842316 -0.15172640622098657
0.08541931990788475 0.23479244146034245 -0.15556466222245904
0.07889791611836448 0.23214462432548527 -0.15273020804364892
0.07780122045681968 0.23269793424293522 -0.15096230447728845
0.08100777153180137 0.23447123202964787 -0.15162564456899377
0.08303298834965721 0.23400822314903263 -0.15264123321016046
0.0815809894006063 0.23425933751747136 -0.15125244498689386
0.08287056569264427 0.23470595512077336 -0.1523613596006176
0.08341767672703758 0.23247972163841252 -0.1522957348867199
0.08160045031712547 0.2329290214507294 -0.15115736067731592
0.07896559719250694 0.23356559905693058 -0.15344777346093866
0.08408253673718467 0.2341468635527802 -0.15229390204389306
0.08139761571095482 0.2354845109908295 -0.14890727043588373
0.08394747261212364 0.2355611029593659 -0.15158325076539728
0.09164466742680565 0.23460248145744328 -0.15246562302549097
0.08877327326939598 0.23530980977699284 -0.149577524666383
0.08666598085568443 0.23527929219886784 -0.1535392218871853
0.09019600633786216 0.23398247394248967 -0.15365293264825555
0.08723413232968345 0.23537537488624577 -0.15135402620275232
0.08546324853108421 0.2353469434706879 -0.15513299048383447
0.025433443824510724 0.23247090015098576 -0.15309539080102655
0.020544551650743634 0.23597189817115788 -0.14874122679670068
0.02069898728535667 0.2336162034003449 -0.1530235672040722
0.04215323213742271 0.2366575304000092 -0.15312491000135156
0.032121442596178204 0.2385949197737885 -0.14866834521730157
0.030281715432863385 0.23732450637504582 -0.15343826652009698
0.0377422500054647 0.2359379235236359 -0.1571700686260006
0.030992560426454693 0.23845836553260807 -0.1526615136905453
0.028280191461305768 0.23744359645530705 -0.15791117787797662
0.021582924167375714 0.23652592334434513 -0.1570502185865185
0.0152827728192617 0.23870530757591252 -0.1525929087444088
0.015261553565721661 0.2376020852057648 -0.1574067437692425
0.03616135601208702 0.2365730110137177 -0.15854930520494195
0.028686635534029156 0.2370431128470612 -0.15402908266027185
0.02466448430226341 0.2367013398139191 -0.15955344975431177
0.028452299873094708 0.2365904155699921 -0.16043360174138757
0.023588173429231793 0.2378424111334992 -0.15742765009839746
0.02224608544514671 0.23695239457771305 -0.16239498198468896
0.01809131387875572 0.2354826036421967 -0.15635867059667322
0.013283603231172711 0.23697271976158146 -0.15259308755834314
0.01582422141240135 0.23693391713783268 -0.1556238943382046
0.026480101386766583 0.23685529861137394 -0.15710116565664026
0.02300991896794334 0.23692461881324772 -0.15388130784471246
0.019649736921053082 0.2370186749427033 -0.15806692481477472
0.02258085493252769 0.2362147870986176 -0.1586909109397671
0.019076459447603375 0.23705318603202824 -0.1563572251840374
0.01726900819943443 0.23697611722633366 -0.1604466104551098
-0.004114038904447406 0.23001566562339787 -0.14600371957261774
-0.01050911064936623 0.23557838830635075 -0.14182878673513147
-0.007209516723890155 0.23229935798332219 -0.14531588197190973
0.011675469915132672 0.233713299366684 -0.14504021048982355
0.0012717473904897275 0.2369888726203156 -0.13977862537343713
0.002304487268190533 0.2342676821677399 -0.1442710721536419
0.006662957708101422 0.23246923122093205 -0.15008742750127527
-0.0014825832445810733 0.23683974179908757 -0.14538153648812982
-0.001949853857297748 0.23415866527244572 -0.15002521515329095
-0.006275601347226947 0.23517116937324528 -0.1496145391507885
-0.013235427101392597 0.23902204665824894 -0.14516491830785486
-0.011460669000882953 0.23757430944129948 -0.15004855037172052
0.008337103168230206 0.23628106746360783 -0.15083945930440637
-0.000364608724851459 0.2381018105475617 -0.1458930933519146
-0.0008823942740152774 0.2365722361533356 -0.151184272174432
0.0011126327912618222 0.23459920320198063 -0.15320026517350885
-0.004264421423215717 0.23665842446968083 -0.14943021178682062
-0.006177790125150531 0.23568454417869572 -0.1547768676324627
-0.008618391712446064 0.23005816373512272 -0.14819512904126855
-0.013108379801053852 0.23288020524665837 -0.1440574342056057
-0.012399889190931171 0.23342165383979802 -0.14753725767572137
-0.001711196859617084 0.23426637086555485 -0.1483265423818371
-0.006267137487668842 0.23520144853279118 -0.14510468781430932
-0.007421232422132343 0.2347884479491425 -0.14946058035333368
-0.004122681577939838 0.23174986276313786 -0.14986782908876153
-0.008742607792157978 0.23319700393363957 -0.14705876648862573
-0.010061747988004535 0.2329186502425385 -0.1514305734678051
0.05968534235165611 0.23198780450508122 -0.15977023184735986
0.05886267904446617 0.2336653772322846 -0.15584024429757806
0.05666082386181846 0.23310396108314518 -0.15949435174901697
0.06935479525731102 0.2347763482062531 -0.15874699891050073
0.06527470831082359 0.2360793653456879 -0.15554040313203546
0.06210579756901756 0.23607686195060734 -0.1598486268564007
0.06802072409794822 0.23404476079627995 -0.16289353013475152
0.06346806172535911 0.23704293403312687 -0.15986828148801538
0.06296210769818321 0.23556432161018376 -0.16359609008271905
0.05705475095913902 0.23413518104240422 -0.16245218754251214
0.05312918905423179 0.2354678216902924 -0.1585615539594433
0.054095886985521466 0.23457959327384953 -0.16180459797818872
0.06677757982419029 0.2333948317496491 -0.16265199721296045
0.06291233781979576 0.23368099364921574 -0.1592324638410351
0.05821993235753074 0.23413309487983708 -0.1639854127212307
0.06346773389981285 0.23419347438499455 -0.16498440146882745
0.060214542190294415 0.23548635873481755 -0.16236404717405054
0.05869247798131004 0.23508647117301945 -0.166383024458482
0.051782004873018414 0.2326062026946259 -0.1619538629098675
0.050004206935625226 0.2328576150862885 -0.1597299540086529
0.052639089862566144 0.23333266410514836 -0.16063439488847467
0.05618187073872581 0.2334900203673554 -0.1620817297740719
0.05499374155209556 0.23343446883842472 -0.16035550475557062
0.05433767322705284 0.2333451810805512 -0.16225060463388177
0.05595158819363609 0.2325800362555695 -0.16303683460195276
0.054103397170763165 0.23306170138999943 -0.1614558661027691
0.05184733156369224 0.23349961671516423 -0.16417415082891199
0.05257769707844749 0.2363392415969086 -0.16230304182012292
0.04901694540188804 0.23685231837913517 -0.15926994026143762
0.05151002887890831 0.23628422650978093 -0.16166360319097253
0.06422623280690208 0.23529890212699894 -0.16338684797723504
0.059657864610414654 0.23579075965568547 -0.16047334313829156
0.05576422099278465 0.23586884174034123 -0.16443742454488489
0.0603783059518148 0.23528185519859318 -0.1641375386758587
0.05779760364697471 0.23591527375862126 -0.16220157981355401
0.05540331486866966 0.23613515529319767 -0.16595954835851404
-5.967577237933619e-06 0.23119404945060734 -0.16676197588880273
-0.0007379722197245059 0.23320522937461857 -0.16278260589082452
-0.0005460750658701358 0.23250910672828679 -0.16592503726918909
0.007186107675295025 0.23444733056709294 -0.16555107772786828
0.004094891587953717 0.23584505948707585 -0.16219587266881677
0.003424965183000714 0.23504892024681096 -0.1660410428090832
0.00672336701558128 0.23226311835929875 -0.16935875654657098
0.002403401176195294 0.23508957061454777 -0.16581920922239038
0.002832703630190045 0.23367348346397404 -0.16956567407090875
-0.0016766559679697451 0.23495426807090763 -0.168845262531831
-0.003049291332502216 0.2363722029654694 -0.16513946295221063
-0.0026309561331461367 0.23642143640205388 -0.1685405337854168
0.006262265483598858 0.23628202113792424 -0.16887688279588434
0.004500620404939801 0.2364492121665192 -0.1653778517289898
0.001155101100664288 0.23686018619224553 -0.17014480770070764
0.003602974454622418 0.23625043067619328 -0.1712284946485302
0.000539474527101666 0.23772981795951847 -0.16867704332311365
0.0006559420029927793 0.23691406879112248 -0.17267551660974237
-0.0024994384844492373 0.23416027459785466 -0.16622416317899438
-0.0031655203898142276 0.23505541715309147 -0.16419441640813562
-0.002045012672681659 0.2365749183623505 -0.16530890405614587
0.002599709073763043 0.23520776662513737 -0.1665925347848675
0.0021808076302815976 0.23546233806297306 -0.16436066866357538
0.0005575943391133847 0.23659667405769352 -0.16640159130532953
0.0011576939027120176 0.23610881004020695 -0.16711671293218347
-0.00012210722758278225 0.23648813399955754 -0.1658378207727215
-0.0011509728033731875 0.23680660161659245 -0.16873943448503229
-0.03391388769938454 0.2253836694686127 -0.14987077951867792
-0.03674314137293801 0.23033764991447453 -0.1454430782838604
-0.035421080549497455 0.22750255498573307 -0.14963544547994348
-0.01964331384493813 0.2274918261496735 -0.14744236708123895
-0.028226591308851093 0.23168620500251774 -0.14316069722612115
-0.027094728906888813 0.22860023412391667 -0.14827452242810937
-0.027531273325223773 0.22736439141914372 -0.15283281743962976
-0.03047395463778481 0.23079225454017643 -0.1490521693273327
-0.03113976832224831 0.22818157109901432 -0.15395620108087274
-0.036362327297468036 0.23263898524925236 -0.1528234893127224
-0.041376776655454486 0.23662492665931706 -0.1480339431806347
-0.03905612941576943 0.23487070235893254 -0.1533939206643841
-0.019099123438138813 0.2329828444449616 -0.15368419528444024
-0.027244217355985492 0.23519477281257634 -0.14839733779866907
-0.029184408148069232 0.23435810241386418 -0.15482110918004724
-0.027844793756742328 0.232686847779007 -0.15634864211518976
-0.032812364061612934 0.23561683330223088 -0.15309929490525934
-0.032408363779325336 0.23335030708000187 -0.15865976751287195
-0.03801620717837319 0.23072084817573552 -0.15284478307206842
-0.04033497687174782 0.2330230179755402 -0.14896276236016961
-0.039276249368924945 0.23370233211204533 -0.15221045554120752
-0.03143779154612526 0.2349574867217255 -0.1532120221896908
-0.03250879760577187 0.23477843436882023 -0.14984839797456476
-0.035233594139356464 0.23534974488899235 -0.15460595131356927
-0.03278923745944008 0.23137477073356633 -0.15440497935254785
-0.0357065271933268 0.23259732160255436 -0.15189970672567102
-0.03596318479372963 0.23207077417060856 -0.15629076600511285
0.05582215670750633 0.2306576672522736 -0.1687345320029995
0.0558236766259481 0.23124298486396794 -0.16623809576471063
0.05534740571187034 0.23191818627998356 -0.16699519396264764
0.057881377975206524 0.23222681913063054 -0.16774898410279962
0.05730634216473594 0.2326813045470429 -0.16550534606416437
0.0559687543313314 0.2331106964080048 -0.16756827772100183
0.05833049897358909 0.23290976915046696 -0.17036780357797357
0.05606936697171226 0.234720379444809 -0.1680183374925396
0.0556648004452993 0.23450681600257878 -0.17061587810952875
0.054439746181230694 0.2329411807982636 -0.17130802214582178
0.05395167354748741 0.23337891730949406 -0.16930073142488214
0.055333160201769024 0.23408076200172429 -0.1698157304569027
0.05730756405995384 0.23310628566429142 -0.17062002063234064
0.05735897306607261 0.23317870530769352 -0.16870748639543268
0.05602517012761131 0.23360702428504948 -0.17070132136781427
0.05676739696667686 0.23370549115821843 -0.1720369869514248
0.05509801987813011 0.23463395270988469 -0.17011975884874078
0.053857975045900494 0.2348940673796845 -0.1727829837842724
0.048849068919878155 0.232731432053299 -0.17131267130811426
0.04884680394337669 0.23280510339424138 -0.17112955093820306
0.052356385032396466 0.23557177219078068 -0.16973691821534845
0.05101334337399498 0.23364296588584904 -0.17138214052159997
0.05099859122441307 0.23365971479103093 -0.1712556296630642
0.05300303582356468 0.23550346526786808 -0.16990452647645685
0.05037476901219383 0.2325054708449555 -0.16975123823125574
0.05066841129467979 0.23246315154716496 -0.16993958890874597
0.04839836839840904 0.23312416705772404 -0.17079144359071466
0.05122589353726402 0.23454633388206486 -0.17151969314058038
0.05013277415440574 0.2348034683196259 -0.16970927656133386
0.05312471870587364 0.23630645904228215 -0.17025212586362573
0.05457671765492454 0.23566773566886906 -0.17132246137101861
0.053706400434236676 0.23578175935432438 -0.1700332278056881
0.054157339374284894 0.23627617988273625 -0.17119855821569177
0.05522029880688682 0.2345416251151276 -0.17103974163968774
0.05411084775136009 0.23479458722755436 -0.17013805747468683
0.05158483270810142 0.23540505799934391 -0.1724398100419781
