ply
format ascii 1.0
element vertex 513
property float x
property float y
property float z
element face 0
property list uchar int vertex_indices
end_header
0.04587572101758018 0.23547712001487736 0.2250415122465351
0.04031609777615562 0.2365172806708527 0.2299453651861408
0.03660982135937706 0.23577097091362004 0.22477013229887274
0.06338431719944969 0.23916450175926213 0.2270229494528034
0.05613898519680992 0.23934409055397038 0.23115939259092597
0.04838737134144798 0.23992136153862004 0.22531581282179144
0.056492828170519024 0.23383626374885563 0.22373873352567938
0.05119680647061363 0.23542234334632878 0.22727275251905707
0.045781664888124615 0.23572930726692204 0.22182226538221625
0.04211842302487388 0.2396826449362946 0.2230452930883625
0.036117159167986065 0.24115660819694523 0.2279883658842304
0.032999180595140606 0.24027004871055607 0.22263324617903021
0.0569179582993795 0.2416779104201508 0.2236282265142658
0.05202566866086021 0.24129000339195256 0.22785961985151557
0.04401355270550743 0.24202659759208683 0.22194165348570136
0.04953884367154136 0.2386486831633759 0.22085827946226386
0.04475914720700279 0.2402096692053986 0.22362327932874945
0.04208751801655784 0.23960605296775822 0.21856129526655463
0.03878819231198326 0.23528161678001408 0.22538304686109809
0.034279011527757794 0.23670753869697575 0.2293779289678791
0.03227009658024803 0.23582378062889103 0.22505331396620062
0.05034323815510765 0.23558762702629094 0.2264901435331562
0.045161240140657574 0.2361050549475861 0.22993225216429022
0.03972073678181663 0.23632928762123112 0.22504014133970526
0.04606970433400169 0.2348671856848908 0.22354579329054144
0.041511528531770855 0.23655328187629704 0.22619134544889716
0.03954758528874412 0.23592576417610173 0.2219321167425373
0.039209537545900494 0.2352968159644318 0.22581762432615546
0.03443031791852012 0.2367773953406525 0.22997504829923895
0.032280736009340436 0.2358824912039948 0.22549474596540717
0.05105038766072288 0.23588267001792912 0.22691649555723456
0.045873754064302594 0.236312598320694 0.23043668627302435
0.04010432247326866 0.23661473426506047 0.2253927028135517
0.04633467678235069 0.23505845698997502 0.22392768024961737
0.041823320428590924 0.23671981725379948 0.2265639936880329
0.03990020636723533 0.2360478940932465 0.22221273541013983
-0.037650920112867206 0.23599347505256657 0.20759505390684393
-0.04060331698252663 0.23666003379508976 0.21072167515318183
-0.04125196452929482 0.23635980519935612 0.2089366948560932
-0.03501404043032631 0.2376081648795319 0.2085039055303791
-0.037451542576093524 0.23792168531105046 0.21106237530271796
-0.03973305936648354 0.2377217713324738 0.2089342510656574
-0.034764326771039814 0.23502793941185002 0.20733046888868598
-0.036801732738752216 0.23566624555274968 0.20899761080305365
-0.03852570768191323 0.23573747310325627 0.20647198318998602
-0.0372910272677134 0.23721995982810978 0.2072674667791584
-0.04029617424799904 0.23782560262367253 0.21059304832975653
-0.041445977648038715 0.23764488134071354 0.2088851368383625
-0.0346422862608622 0.23881664905235295 0.20803672432462958
-0.037292875011701435 0.23911497029945378 0.2107570803121784
-0.0399041544993113 0.23895952138587956 0.20873213171522406
-0.034636951645154804 0.2363603416411591 0.20716673492948798
-0.03633550520731911 0.23684462937995915 0.2086707389311054
-0.037948734720487445 0.23692187699958805 0.2062221205190876
-0.042098112066526264 0.2359289828269196 0.20565832018415717
-0.04316727038218483 0.23616525563880925 0.2070986068205097
-0.043286360462446064 0.2362898889510346 0.20741266369383124
-0.041319258173246234 0.23631438646003727 0.20569473862211493
-0.04245001788928017 0.2365400496451569 0.20714915155927924
-0.04294035549952492 0.23653319511100773 0.20738655685941962
-0.0397457551558207 0.23545709285423283 0.20546758532087592
-0.04033947702242836 0.2355373207061005 0.20600962996046332
-0.04213718291117653 0.23604217204734806 0.20502186178724555
-0.04209599610163674 0.2341143790213776 0.2063754236654499
-0.04209081049754128 0.2341432276694489 0.20648467897932318
-0.04121512885882363 0.2345111075370026 0.2074391281561115
-0.04243809696032509 0.2335866394965363 0.20587170481245307
-0.042453325947065204 0.2336239520041657 0.20601296782057074
-0.041621334512967914 0.23419418964073185 0.2073219454244831
-0.04074764962985024 0.2331884208647919 0.20513207077543524
-0.041090257128019184 0.23328813943550114 0.20545775055448798
-0.042788870294828266 0.2337561551062775 0.2054642474607685
0.08624275807545677 0.23251941833183293 0.19889247774641303
0.08592899922535911 0.23469355735466008 0.20183730482618598
0.08528830889866844 0.23418518933937077 0.19928533196012763
0.09199764613316551 0.2338986102072907 0.2009575402693012
0.09010865573094383 0.23542508515998845 0.20371854662458685
0.08780648593113914 0.23509898814842228 0.19995320200483588
0.09010665897534385 0.2333144250838471 0.19669199347059516
0.08723326806233421 0.23640087279960637 0.19948602079908637
0.08629276637242332 0.23490813407585148 0.1956075465635517
0.0856771397988607 0.2352757755248261 0.19752788900892523
0.08471351150677696 0.23743918571159367 0.2005952036337116
0.08497884158299461 0.2370711866347504 0.19777423500578192
0.09080373529599205 0.23719462785408024 0.1986563837484577
0.09010329131291404 0.23792710933372502 0.20149487614195136
0.08708449486897483 0.237955242726059 0.19754428028623847
0.09005247835324302 0.2363196316687775 0.1959056889967182
0.08711593631909385 0.23893067273780827 0.1987237369970539
0.08620142225430504 0.2378462258307648 0.194609407182143
0.08412953499959007 0.234387606713028 0.19872367739240912
0.08296146277592674 0.23655232820198063 0.20154643415968207
0.08388286117718712 0.23684951696083073 0.19972145914594916
0.08683797005818382 0.2373439374892426 0.20017141460935858
0.08706032518551841 0.23782280120536808 0.2026585376219013
0.08488082174466148 0.23802825841590886 0.19949388861219672
0.08699771050618187 0.23609396848365788 0.19784248232404975
0.08439444784329429 0.23851487073585514 0.20061129688780097
0.0837072956960012 0.23768791589424138 0.19681698441068915
0.0856127071778585 0.234950989815445 0.19779283165495185
0.08484967831776634 0.23698440227195744 0.20083636402647284
0.08489479903386131 0.23663726482078556 0.1980434095815876
0.09103607420132652 0.2366802993743134 0.19903600573103217
0.09031503681347862 0.23745206031486515 0.20187789558927802
0.08716245774434105 0.23751935395881657 0.19792050480406073
0.08999186042950645 0.2357909384696198 0.1961079275564411
0.08708944205449119 0.2384440008132172 0.19890404104749945
0.08622401241467491 0.23730877074882512 0.19482261299650458
0.08348565582440391 0.23288747701332096 0.1986004745916584
0.08389770273373619 0.2323910895316315 0.1980680859045246
0.08444144610569969 0.23484966191932682 0.19965726494352606
0.0834139812390615 0.23292973670646672 0.1984367406324604
0.08380594138310447 0.23241958055183415 0.19788730501692084
0.08435573462651268 0.23490414056465153 0.1995247042135456
0.08640184287236229 0.23452803525611882 0.20228958487074164
0.08647599105046287 0.23444125089332585 0.20221227764646796
0.08675425533459678 0.23650673064872746 0.2029470241026142
-0.009670741518277973 0.23765799436256413 0.23497921585600165
-0.011385388334531635 0.23880258235618596 0.23733711599867133
-0.011973119934339374 0.23836413058921818 0.23468566298048285
-0.004508860071439594 0.24089470538780217 0.23518699764768866
-0.007864601572294086 0.2415962520568085 0.23802799343626288
-0.00948042388751015 0.24101099404975895 0.23492974400083808
-0.004743493755597919 0.23859688672706608 0.23263371347944525
-0.00814051147295937 0.23994985255882267 0.23549753784696845
-0.010077096184034198 0.23958799276039128 0.2320264017538288
-0.01009608026339516 0.23888328704521183 0.23391938566725043
-0.011974043806333393 0.2398926320998383 0.23627931236784247
-0.012583441694516986 0.23948892984077458 0.23370284199278143
-0.005359120329160541 0.24221554431602482 0.23396003603498725
-0.00841904397799477 0.24271872672721867 0.23672712206403998
-0.010448999365110248 0.24221476945564274 0.23369676231901435
-0.006194896658201068 0.23998960885688786 0.23206913828413275
-0.008651323278684467 0.24097296628639225 0.23460936903517035
-0.01075027104212746 0.2407345477072907 0.2311639225439289
-0.012362189253110736 0.23907724055931096 0.23370743155042914
-0.013014621694822162 0.2398340407340241 0.2349727785543659
-0.01324508305384621 0.23997512492820744 0.23416346668760565
-0.010867841203946918 0.24161306056663517 0.23423678040067938
-0.011767334898252338 0.2418935004203034 0.23574769854109076
-0.013163543899793476 0.24169525537178044 0.23399788498441962
-0.01049927588297829 0.24139204654380803 0.23242372631590155
-0.012131549080152362 0.24215731057807927 0.23440802454511908
-0.014128304680127948 0.24222376975700383 0.23171866297285346
-0.013254768808622211 0.23416468534156804 0.23399681210081366
-0.013666011055250019 0.23480215701744084 0.23473072409193305
-0.012458957393903583 0.23513469133064274 0.2344508802847126
-0.012564785440702289 0.235324889752121 0.23438918947737006
-0.013201452453870624 0.2357698384253693 0.23535198330442694
-0.012145705183286518 0.23585918578788762 0.23463899254362372
-0.011911518533964008 0.23690161142036442 0.23155874371092108
-0.013243950565595478 0.23760804567024235 0.23332012056867865
-0.014155156572599262 0.23763778838798527 0.23156446575681952
0.07294153455899254 0.22646817598030095 0.22947013735334662
0.06490229849026695 0.23112526569053654 0.2348042166189411
0.06273918632672325 0.22885814342185978 0.22949141621153143
0.09447475556538597 0.23298534784004216 0.23094457745115546
0.08328812603161827 0.23464009198829655 0.23627746462385443
0.07743709568188682 0.23438337478324894 0.23046511768858222
0.09015520695851341 0.22848501834556584 0.22598135828535346
0.07921909574673668 0.23207899961158757 0.23141950726072577
0.07377805594609275 0.23177072438880925 0.22526669859449652
0.06939610127614036 0.23637881908103947 0.23056573032896308
0.06218533996747032 0.23952129516288762 0.23544758915464667
0.06049098853276268 0.2377338710753632 0.22970700621168402
0.08706768635914817 0.23872444066688542 0.2291126882986286
0.07911323789761558 0.23870155248329167 0.23450857758085517
0.0726204443375875 0.23872533473655705 0.22816485523741034
0.08288290385411277 0.23778566751167302 0.22608280539076117
0.07475783709691063 0.24013003739997868 0.23031264900724677
0.07097616080449119 0.23950359258338932 0.2244367039159992
0.06793146614239708 0.23100021514579777 0.2327283060507038
0.062280558387499005 0.23436835441276554 0.23741764187376288
0.06113129142926231 0.23252752456352238 0.23216367125074652
0.0830274451176931 0.23439958724662785 0.23159665226499823
0.07524427060292259 0.23525354299232487 0.23654669880430487
0.07041087035344139 0.23495116862937931 0.23089766859571723
0.08066170696423546 0.23488768968269352 0.22852748989622382
0.07305469397709861 0.23733344707176213 0.2327551877454975
0.06981500271962181 0.23659995231315617 0.22733360886137274
0.06821169737980858 0.2324993911711884 0.23258453964750556
0.0622454512517263 0.23582544955894474 0.23732537388365058
0.0609479773442556 0.23400720987007145 0.23194665073911933
0.08386044983075157 0.23552480373069767 0.23141861319105414
0.07603444937870994 0.23621782693550114 0.23645985483686713
0.07088585976765648 0.2359793487517548 0.23064732908766059
0.08084779266522422 0.23580095204994206 0.2284044659094074
0.07332613352940574 0.23819437656089787 0.2325846588567951
0.07009156827137962 0.23743709954902653 0.22707951426069525
0.008042775432329327 0.22946950826332096 0.20398384689848212
0.007541828195314557 0.23068663510963444 0.20593101143400458
0.008545391599397809 0.23037424716636662 0.20428312181989935
0.011919133702974469 0.23190471563026432 0.2054104840711811
0.009944878856401593 0.23301801118537907 0.20770019650022772
0.009396694938402325 0.23251262340232853 0.2048759496168354
0.011426799337129742 0.23023858699485783 0.20205235838453559
0.009447865525941998 0.23200228843376164 0.20447838663618353
0.008339725772600323 0.2315044108359528 0.20126676916639594
0.007622950116853863 0.23053321275398259 0.20303994774381903
0.007112376729707867 0.23168709907218937 0.20500457644026068
0.00806238536046043 0.2315046492545319 0.20344198107282904
0.01106991652653709 0.23298212918922429 0.20427149891416815
0.00929280404255882 0.2339704934088898 0.20655215143720893
0.008643411437730938 0.23353251847908024 0.20372879862348822
0.01085760478184715 0.23126640948936467 0.20149439930479315
0.008993648330431134 0.2328491512267304 0.20373422264616278
0.0077081251542378965 0.23251983556434636 0.20054406284849433
0.005559496919374615 0.2304159704177094 0.20336413740675238
0.005333803931932599 0.2311936918227387 0.20445418715040473
0.0073706734578420224 0.23187771472618107 0.20430547356169013
0.0065252709786702695 0.23209765586540226 0.20461476206342963
0.006525807420473248 0.23247340354606633 0.20589352011244086
0.00715216283009544 0.23267820510551457 0.20470744728605536
0.007255427877168805 0.2321179214446259 0.20235252737562445
0.005890511314134747 0.233344704243393 0.20419466852705268
0.00472214106724754 0.2335648241965485 0.20181548952619818
0.004882984201173932 0.22895249757453923 0.203512314553664
0.004959635774355084 0.2295430603949738 0.20422929882566718
0.00709980014966026 0.2303185764281464 0.20445633291761664
0.005676053802232892 0.23043397102043156 0.20462417959730414
0.005821518937807232 0.23076805505439763 0.2056410348371723
0.0069386291901876035 0.23107287320777897 0.20491111635725287
0.006621830503206402 0.23058518800422673 0.2021492159322956
0.005322777072649151 0.23174724015876774 0.20393073915998725
0.004083358089189679 0.23207125100776677 0.20180714487592963
0.057825647632341534 0.23361030254051213 0.1973388230756977
0.052841060201387555 0.2369038167922211 0.20129102825681952
0.052086763421754986 0.2350616160361481 0.19719320892851142
0.07076143507168785 0.23630383643791203 0.19906515240232733
0.06482651118443504 0.23772862586662297 0.2027128374532917
0.06001197580502525 0.2377115789382172 0.19771290182630805
0.06805812601254478 0.23412147197410588 0.19472790121595648
0.06254007701085106 0.2371571961371613 0.19849855064909247
0.059279732743959576 0.23636135492012028 0.19362473845045355
0.05582293156788841 0.23682400617286686 0.19591749071638373
0.05018942836926475 0.2396620813338471 0.20011175035993842
0.05051403526471153 0.23783698711082463 0.19571912645857123
0.0669870603482534 0.23694583806678776 0.19623828291456488
0.062021039764146954 0.23778483304664616 0.2003179228262165
0.05665578726933494 0.2379474941222382 0.1948346531347492
0.06219347600148216 0.23647913369819645 0.19358945250074652
0.057927005330782086 0.23863157663032536 0.196590665574477
0.05571218613789573 0.2377743426291657 0.19177312016050604
0.05222829465077415 0.23418542775794987 0.1986336147741535
0.04913219098256126 0.23635950717613224 0.20208520054380683
0.04982488636181846 0.23522284660026554 0.19876546024839667
0.059752397577028424 0.23500832948371891 0.19858342766325263
0.056079022924165875 0.23589810762092595 0.20207715391676215
0.05244766954586998 0.23576119575187687 0.19766098618070868
0.05678354982541099 0.2349570098845673 0.19650411963026312
0.05369546298192039 0.23664292726203923 0.19928413986723212
0.05167847160504356 0.23609021339103703 0.19505566715757636
0.05329772118733421 0.2371681037871552 0.19643253445188788
0.04868610982106224 0.2396458092658234 0.20042515158216742
0.048927568237047345 0.23836377296134953 0.19638699650327948
0.06294374946759239 0.23654785785362248 0.19637328743498114
0.05825536731884971 0.2375127378432465 0.2003254330114582
0.05386581305668846 0.23743906650230412 0.1952369844869831
0.05788039449856773 0.23696830901786808 0.19430268168012885
0.054616652766924054 0.23869040641471867 0.19708735107939032
0.052539490501146466 0.23799434337303166 0.1924509441808918
-0.03034619208170876 0.23115423354789738 0.22203785538236884
-0.03604484315707192 0.2326701584784699 0.22614413857023505
-0.03676343675448403 0.2316066328017426 0.2224068081335285
-0.023021734913129657 0.23621144923851017 0.22208100914518622
-0.028441585262555927 0.2360164228408051 0.2263370192007282
-0.03270775791003212 0.2356158200232697 0.22250575184385565
-0.023884184320707172 0.23205181989357 0.22018891930143622
-0.029981560667295307 0.23338726195976262 0.22360968946974066
-0.032880641182203144 0.23297426137611393 0.21972406267683295
-0.03168386932208046 0.2357405129401398 0.22064835190336493
-0.03708375211550698 0.23681703242942814 0.22466397642652777
-0.038857139309186786 0.23609688911125187 0.22115338205854682
-0.02567622776820168 0.24174103173896794 0.22041750311414984
-0.02991879697634682 0.2410958710639191 0.22456455587904242
-0.03536979075266823 0.24089166555091862 0.22080040335218695
-0.026761956175107807 0.2362155023543549 0.21900463461439398
-0.0320521664221476 0.23725339803382878 0.22178548931638983
-0.034426547249097675 0.23682037028953556 0.21794975161115912
-0.036211050709028095 0.2343827787368012 0.22065431236784247
-0.03931818123652443 0.2350088659255219 0.2232206499532917
-0.0407152843077372 0.23467472228691105 0.22125786900083808
-0.03332290764643654 0.2382487956015778 0.22048813461820868
-0.036480791528959125 0.23820921811744694 0.22326112150709418
-0.039386666973371356 0.2376321259467316 0.22089249252836493
-0.03443337198092446 0.2363167110411835 0.21969718098203925
-0.03681237216784462 0.23672142657920842 0.2215140497640827
-0.03874436732127175 0.23646900090858464 0.2186640536741474
-0.0370946001608561 0.23286446962043766 0.22104460358183173
-0.03798962350680336 0.23326745662376408 0.22218245625059393
-0.03823984380557045 0.2329951826064301 0.22099024414579657
-0.03519392724825844 0.2345171872107697 0.22103757023374823
-0.037475205620069355 0.23480269345924382 0.22260702013532904
-0.0372893285353373 0.23424038324043278 0.22097719072859076
-0.032769657333631366 0.2354162636725617 0.21830493568937567
-0.03566748615099892 0.23601874742195134 0.2204280531362751
-0.03750214691950783 0.23575666579887394 0.21838927626173285
0.025267266074876935 0.2371104660956574 0.23338801025907782
0.021196805278520733 0.23768124017402653 0.2376091515974262
0.018275760452013165 0.23686978254005436 0.23372191547910956
0.03661083463833824 0.23963579568550114 0.23449820637266425
0.03216736797497764 0.23929432067558293 0.23852122187177924
0.025786422530870587 0.23924174937889103 0.2342079317526081
0.03596892241642967 0.23665323886558537 0.23205727695982245
0.031044505874376446 0.2376963201491547 0.23504847645323065
0.025100730697374493 0.23812785777732853 0.23046476006071356
0.02406226877377525 0.2387373152701569 0.22996515392820624
0.019557081500749737 0.2393602434127045 0.23428029179136542
0.016369335691194684 0.23868665132209782 0.23021173834364203
0.033617161552171856 0.240665465923996 0.23050600647489813
0.03021710399792686 0.24013707074806218 0.2344738280729511
0.023393266240816266 0.24013474616691594 0.2301103508428791
0.031742804090242535 0.2372165027587128 0.22849810480634955
0.027920358220796734 0.23791751298591618 0.23112798094312934
0.02231656793759361 0.23841139707252507 0.22660625338117865
0.018848710099916607 0.23461976680442814 0.23358321547071723
0.015765004197816998 0.23534539374992375 0.23663992046873358
0.014065198938112408 0.2347581687895966 0.23372292875807074
0.025022827426653058 0.23631539973899846 0.23394430040876654
0.022196971217851788 0.23639926347419743 0.23681432365934638
0.018135182897310406 0.2360781732527924 0.23368943094770697
0.024523191491823346 0.2336617413489533 0.23230135798017768
0.02137710932896629 0.23440375957176213 0.2345748579458454
0.01745056394742027 0.2346070114104462 0.23108703255216864
0.069100045005541 0.2274557653395844 0.20349723457853583
0.06356438283131614 0.23073133859321598 0.2084152138189533
0.06095867637799278 0.2291450801818085 0.20308423399488715
0.08685895089314476 0.2312927547423554 0.20424640535871771
0.07882904295132652 0.23243942889854435 0.20878363012831
0.0721958804528524 0.23289433154747013 0.20274472593824652
0.08192213658497825 0.2282433811156464 0.20096660017530707
0.07423483614132896 0.23146894607231144 0.2050236499265888
0.07091989401982322 0.23056992921516423 0.1995045578436115
0.0663367438714315 0.23347029122993473 0.20232510923902777
0.05969902161763206 0.23576375875160221 0.2073504960493305
0.05815397981808677 0.23442211780235295 0.2019164597944477
0.08148213509724632 0.23435822162315373 0.2010006940321186
0.07476075772450462 0.23436453971549992 0.2059428131536701
0.06710570339367881 0.23519602451011662 0.19940436243574408
0.07321219925091758 0.23305919799491887 0.19926572203199652
0.06863092664883629 0.2347157898871613 0.20226580261747626
0.06581368331120506 0.2339039150206757 0.19664812445204047
0.06269078735516563 0.22891858253166203 0.20424640535871771
0.05789905075238243 0.23154762420341496 0.2086763417677143
0.057979129592638165 0.23048117789909367 0.2044886386350849
0.07311903719113365 0.23070386085197453 0.20357925056974677
0.06800379637883201 0.23110201987907414 0.2079250252203205
0.06248220090077415 0.2314533296553803 0.2024558222250202
0.0685427415768911 0.23020407590553288 0.20180726408521918
0.06413485888646141 0.23200711640998845 0.2048143780187824
0.06198059801266685 0.23128065499946598 0.19985789417784003
0.04845824126408592 0.23513677749320988 0.22918278336088446
0.04373886470006004 0.2373385730712128 0.23281199097196845
0.042883418838243634 0.236160010430069 0.22893059610883978
0.057853423396806866 0.23642298612281804 0.22995692848722724
0.05312909964726463 0.2370847764937592 0.23349517941038397
0.04900439862416282 0.23677632245704655 0.22923457979719428
0.057057015935640484 0.23514315519020085 0.22668844818632392
0.05152975801632896 0.23721298608467106 0.23016465067426947
0.0477835166852285 0.23699972066566471 0.22571623682539252
0.04881482605145469 0.23745939168617253 0.22772020458738593
0.043858044187288434 0.23953565988227848 0.2313784992651203
0.043698065320711285 0.23828282985374455 0.2273317611173847
0.05690526251004234 0.23892280492469792 0.2275580203489521
0.05320628766224876 0.2391888204543305 0.23126340269605902
0.04798635129139915 0.23921892079994206 0.22667283176939276
0.0538567531506826 0.23753395709678654 0.22556412577192572
0.04990752820179954 0.23898127708122258 0.22849232315580634
0.046357117931108624 0.23884454402610783 0.223928574319289
0.045797460118990094 0.23415502938911442 0.23026836275617865
0.04332800988362327 0.2358548942534638 0.2330387866453388
0.04336439851925865 0.2352409068076325 0.23018789648573187
0.0508495498101522 0.2369728985755158 0.22997266411344794
0.04734405163929954 0.23765555057212834 0.23297709583799628
0.04480882767842308 0.23724642429039006 0.2294377124265888
0.04892554167912498 0.23583510551139836 0.22825658678571967
0.04623862389729515 0.2369995418517304 0.23087454199354437
0.043280385772447735 0.23694524202034 0.22692907213728217
0.04635610465214744 0.23550096187278752 0.2300313746885517
0.04348435286686912 0.23730620774909977 0.23299146055738715
0.04356067661450401 0.23659363422080998 0.22987181305448798
0.05211206559346214 0.23779520425483708 0.2296535408453205
0.04843058470891014 0.23847845229789738 0.23286259531538275
0.045447670261125714 0.23812082442924504 0.22911137699644354
0.0494433272282888 0.236801416012497 0.2280416524366596
0.04670538787053123 0.23798289928123478 0.23065942883055
0.04369994286702171 0.23790761861488346 0.22657120585005072
0.03413587097332969 0.23553141984626774 0.20440787434141425
0.02773123268292442 0.23779448899909977 0.20886361956159857
0.026734166185121686 0.23615828189537053 0.2043491637663105
0.04857694391415611 0.23804447087928776 0.20554906487028388
0.04139479283497825 0.23854658040687565 0.2099115884260395
0.03646453503773704 0.23807796868965153 0.20483494162122992
0.04558035020039573 0.23601165446922306 0.20190173744718817
0.039138160983781964 0.2380000654189301 0.20570212959806708
0.03455432538197532 0.2378832999198151 0.2005741631941059
0.032387547532777936 0.23855122956916813 0.200336102242873
0.02564256672070518 0.2407420578925324 0.2047058975652912
0.025083504955034405 0.23919054898902897 0.1998615896658161
0.0458255339066793 0.23897209796592717 0.19997054695646552
0.04062693599865928 0.23886606130287175 0.20455611109297064
0.034661107103090436 0.23878642949745182 0.19913387655775336
0.039754174987535626 0.23664584788963322 0.19759732842008856
0.03478657488034263 0.23810526761695866 0.20066678881208685
0.031575106422166974 0.23772099647209172 0.19559044003050116
0.028717033902864605 0.233810156914444 0.20354301094572333
0.023763589898805768 0.23576507005378727 0.20710909723799018
0.024341486732225567 0.23452988300010685 0.20326656460325507
0.037046127359132916 0.23564991388008122 0.20321476816694525
0.032290958205919415 0.23622825774833683 0.20675295948545722
0.02889492396519676 0.23577484521553044 0.2025635874227741
0.03343220833943382 0.23463788661643986 0.20130235313932685
0.03024192933247581 0.23566553029701237 0.20407384991209296
0.027480416337709576 0.23543915185615544 0.19980681299726752
0.01288896087811485 0.2302928868262482 0.21695763229887274
0.008537017146806866 0.23147937688514714 0.220407906766341
0.007313482801180035 0.2305389944045258 0.2169598972753742
0.020577513019304425 0.23263344201728825 0.21705335735838202
0.016437195579271466 0.2326963249175263 0.2205730712370136
0.01258455995724693 0.23218664560005192 0.21688104033033637
0.022380106488924176 0.2300947609870148 0.21482068657438544
0.017155520955782086 0.23143669995948796 0.21805632471601752
0.012627147475938946 0.23158970508262638 0.2138708865598896
0.012789868156175763 0.2324347201316071 0.2149832880453327
0.008600704709749371 0.23356834087059025 0.21842319130461005
0.007266156713228375 0.23267468843147282 0.21487427115003851
0.019937269727449566 0.2348339858977509 0.2146950995878437
0.01660629395649925 0.2346455160109711 0.21829706787626532
0.011321626941423565 0.2345188561408234 0.21432632565061835
0.019029252568941266 0.232081801029892 0.21300679802458075
0.014894537965517193 0.23318925532981877 0.21578902363340643
0.011013739148836285 0.2332550588576508 0.21158731340925482
0.008531354705553204 0.23004618320152287 0.21563971399824408
0.006223403255205304 0.2308383289305878 0.21776974558393744
0.006301932374696881 0.23027852210685734 0.21566081404249457
0.012251817027788311 0.23249200019523625 0.21514475702802924
0.00947602872059837 0.23273387584373478 0.21756989121000556
0.0067430067460347715 0.23232713374778752 0.21499330162565497
0.010849379340868145 0.2310623827902985 0.21404391884367255
0.009292297403078228 0.23160067233726506 0.21592659115354804
0.006059967319231183 0.23175707492515568 0.21275103449384955
0.08420982245610252 0.23548069629356388 0.21877193808119086
0.08381118659184471 0.23658451471015934 0.22140694021742133
0.08242040161297813 0.23627403411552433 0.2180510199026325
0.09307938102887169 0.23489603433296208 0.22002858280699042
0.09069746021435753 0.2358626428572846 0.22270650028745917
0.08633323792622581 0.23624643716499333 0.21827537178556708
0.08949508551762596 0.23448720607444767 0.21722424387495307
0.08705269579098716 0.2366379204718781 0.21948981642286566
0.08570956472561851 0.23575887117073063 0.21534240603010443
0.0838078189294149 0.23706719312355046 0.21716469883482245
0.08238839391873375 0.23825088176414494 0.2202594315962055
0.08187352899716392 0.23802760276481633 0.21691167711775092
0.09145917777226463 0.23632386359855656 0.21778840183775214
0.08912565592930809 0.2371176782576752 0.22066253780882147
0.08459379557774559 0.2376072112052155 0.21617484449903754
0.08839394931004539 0.23633703622505192 0.2157200610594013
0.08623843673871055 0.2380596104590607 0.21783030390302924
0.08465155247853294 0.23754921588584904 0.21368515848676947
0.08122577552006736 0.23310259017631535 0.21926379560987738
0.08074786547825828 0.23375555905982975 0.22146815418760565
0.08070813898251548 0.23435112867042546 0.21982753634016303
0.08382364396260276 0.2340858283965302 0.22043955683271674
0.08398377184079185 0.2342778745619965 0.22235703825514105
0.08162238482640281 0.23466917905494694 0.2194764053777912
0.0836208391587545 0.23370686206504826 0.218637887235091
0.08190440420315757 0.23512330684349064 0.2205578720525959
0.08069109205410972 0.23495802316352848 0.2171258366064289
0.08380480889485374 0.23665323886558537 0.21746874212782172
0.08255495909855858 0.23775723609611515 0.22046321987669257
0.08188264850781456 0.2375418249098969 0.21712988972227362
0.09157814864323631 0.23605778846427922 0.21809602140943793
0.08938377384350792 0.23681876096412663 0.22092652678053168
0.08471586589024559 0.23736301097557072 0.21643227695982245
0.08848654512570396 0.235960454079361 0.2159755861715534
0.08634825829670921 0.23770645293876652 0.21806937813322333
0.084803991357546 0.2371615472762299 0.21394408106367377
0.08127149228261009 0.2336864176718903 0.2183230555013874
0.08188381079838768 0.2330094877211762 0.21751296877424506
0.08166434649632469 0.23492077026054387 0.21865368246595648
0.08108877424405113 0.23348531160041813 0.21801698565046576
0.08166515115902916 0.23281124267265324 0.21719718336622504
0.08145730976269737 0.23474738034889225 0.21843558907072333
0.08438455347226158 0.23320069942161564 0.2188868558363178
0.08422606472180381 0.23339411649391179 0.21905601381819037
0.0841287303368856 0.2345791760413361 0.21854120850126532
-0.008434779604215473 0.22917136583015446 0.21009046196501044
-0.011632449587125629 0.2320810857741547 0.21338278412382392
-0.009754009207029193 0.23048517141029362 0.20968860744993476
0.0005609321992208066 0.23124679956123356 0.21119410156767157
-0.0039145719607065615 0.23304685983345036 0.2147970235304096
-0.0052558850844095645 0.2320517602889252 0.21058237909834174
-0.0032177638609598574 0.23011472854301457 0.2079020178274372
-0.005473471840162128 0.23209050330802922 0.2110371029333332
-0.007109649141568988 0.2311781946150971 0.20668238758604315
-0.00947887416674599 0.23347243699714665 0.20860338568250922
-0.01226995106532082 0.23598751458808903 0.2118230497793415
-0.010713137348432392 0.2349127236334992 0.20810824989836005
-0.0011341344912241397 0.2348351779906464 0.20890117048780707
-0.005452312191266864 0.23646566304847721 0.21253645777265814
-0.007220752199430316 0.23573872480079655 0.2081231510595539
-0.004789091308851093 0.23375001582786564 0.20641905426542548
-0.007424153049726337 0.23545846376106266 0.20913786053221015
-0.009197599848050922 0.23490789565727238 0.20484620689909247
-0.012131161649961322 0.23096302184745793 0.20843780397932318
-0.013178087433118671 0.23268625173255925 0.21058500170271185
-0.011091805656690448 0.23297050628349308 0.20867395758192328
-0.009419597347516864 0.2332439127890778 0.2094954884008625
-0.010753549297590106 0.23403945598289494 0.21175265669386176
-0.010412491520185321 0.23364141616508488 0.20877838491956976
-0.0096578371126841 0.23281827602073674 0.20703721403639105
-0.011694617231626361 0.23420903119728093 0.20932555555860785
-0.013269640167493671 0.23417231473609929 0.20592284559767035
