ply
format ascii 1.0
element vertex 194
property float x
property float y
property float z
element face 0
property list uchar int vertex_indices
end_header
-0.21603794406750226 0.3138450812960067 0.04902821143673228
-0.21886609505512739 0.31738792177681113 0.05223771294163035
-0.22083207975723768 0.31456886049751426 0.047713154159052834
-0.20264588307240033 0.31421766993049766 0.04935544093654917
-0.20526947091915632 0.3164260220194259 0.05346723755405711
-0.2108856887707951 0.3133212160730758 0.04892318805263804
-0.20584139238693738 0.3128883671427169 0.04286076983021067
-0.20798766623833204 0.31966946836952354 0.047705494962199196
-0.21310582767822767 0.31456456896309043 0.04283668955372141
-0.21551118801929975 0.3118666839266219 0.055761628947718606
-0.22152164589264417 0.3149194550180831 0.06013944109485911
-0.22850674401619459 0.3150088619852462 0.05263548453853892
-0.20178149651386762 0.3139641713762679 0.05352240165279673
-0.20605275045731092 0.313814742531816 0.05881639679477976
-0.21565333019592786 0.3147821855211654 0.05157756169842051
-0.20787599693634534 0.31316534992698813 0.051897281012995705
-0.21041022251942182 0.3171099853182235 0.05666639765308665
-0.21992778788902784 0.30986361023430015 0.05146815737293528
-0.22234420489170575 0.31166414734367515 0.05402284225033091
-0.2233909071574452 0.31077067371849204 0.049826496444209084
-0.21462015818455243 0.31021658894066 0.051913463674052224
-0.21701836596825147 0.3115756344461837 0.05442463716076182
-0.2198033780942204 0.3104825448656478 0.05079048236416148
-0.21553586434223676 0.31070838686470176 0.05004596074627207
-0.2164176405558827 0.3146596383715072 0.053508752189143166
-0.21734684716560865 0.3116763066912093 0.04997035225437449
-0.21537897001602674 0.3121898007059493 0.052396440110667214
-0.22044080506660962 0.315598828759233 0.0567604835848646
-0.22528311621048475 0.3143849205637374 0.050133728585703835
-0.19840471457340741 0.3131913375521102 0.050387823186381325
-0.20228977512218976 0.31406877752784873 0.055543356738551125
-0.210788130868459 0.3132111858988204 0.049155616364939675
-0.20483705412247205 0.311307532753984 0.04693370421932505
-0.20661877106525922 0.3162222933435836 0.052095138631327614
-0.21061044942238355 0.31198434349540854 0.04639392455623911
-0.19484029721119428 0.31682424065117026 0.10580336411999033
-0.19717328261234784 0.3196647596025863 0.10871794184253977
-0.19597332190372968 0.3172269892359176 0.10446586569355296
-0.19007961462833906 0.3165962528849044 0.10861488541172312
-0.19251231860020185 0.3194302749300399 0.11141001542614268
-0.193642556775594 0.31688575264457847 0.1076115008215742
-0.19105249654152417 0.3171167802477279 0.1059935625414686
-0.1936180890689137 0.3251595329904952 0.10973437984989451
-0.19649891566135907 0.3198246192598739 0.10634627302692698
-0.19465075444080854 0.3163816165590682 0.11161285003231333
-0.1991378964076283 0.31863085743431235 0.11526068409488963
-0.20035779486992383 0.3174887132311263 0.10890614350841807
-0.18885934363701368 0.3178283404970565 0.1112496193270521
-0.19241535674431348 0.31936786886696006 0.1143573459009962
-0.19665494572021985 0.3185759615564742 0.1085519727091627
-0.19096641253330732 0.3202164005899825 0.11070286592052744
-0.19044049095013166 0.3236104082727828 0.11435400804088877
-0.1933463663945439 0.321114284958879 0.10969846805141734
-0.1962677986512425 0.31250123497490073 0.10876690705822276
-0.19773788760998273 0.3138946723604598 0.11061035951183604
-0.1946901084075215 0.3128353190088668 0.10610478480861948
-0.19309218238689924 0.31301222559456016 0.1093122299532728
-0.19466581951477552 0.314267737832109 0.11111819108532237
-0.19362387071945691 0.3129407000208297 0.10733606775806712
-0.19511136423447156 0.3129115533495345 0.10975181420849131
-0.19484883557655835 0.31716631170753623 0.1118454273562269
-0.19652532051899457 0.3148703407907882 0.10937514265583323
-0.19209940742352033 0.3151928615236678 0.10809099038646983
-0.19550201307632947 0.31777874943260337 0.1115077968458967
-0.1952205301413777 0.3158304524088302 0.10622953733013438
-0.18782077740528608 0.315677387681047 0.10975634416149424
-0.19053880881168866 0.3177139591837325 0.1128077145438032
-0.19244866083958173 0.31568251368049766 0.10824128349827097
-0.1874232889304402 0.31566940065864707 0.10667675097988413
-0.18952468048431897 0.32249735113624717 0.1106373306135969
-0.19241343449451948 0.31789652821067954 0.10640432795093821
-0.1935980023036244 0.3155476879740157 0.10663368662403391
-0.1965371520409825 0.31826923605446006 0.10986837109134959
-0.19522717605927015 0.3159382176065841 0.10507207473324107
-0.18914619098999524 0.3157146405840316 0.10882767399357127
-0.19173844169476056 0.3181242775583663 0.11183344682262705
-0.19294321547844434 0.3157732915544906 0.10758786757992075
-0.1894783527741673 0.316159827675859 0.10633354743526743
-0.19180187593796277 0.32357565876487876 0.11021944244907664
-0.19504581402637983 0.3187542986536422 0.10635503490970896
-0.21722711633541608 0.31788341518882895 9.616573856638676e-05
-0.21664763997890973 0.3170985412264266 -0.0007753137726945996
-0.21820470701553846 0.31734667536262656 0.0006419654707746387
-0.21663579355576063 0.3173591923380294 0.0008524592737989306
-0.21606920670368696 0.3166624140406051 1.4417968256938516e-05
-0.21795251976349378 0.3169218134546676 0.001376205287440288
-0.21476353715755964 0.3139961790705123 -0.0030911926407976268
-0.21575103710987592 0.31575207230095054 -0.001601702370183003
-0.21635316323139692 0.31528238770012046 -0.001880175270573628
-0.21858309220173383 0.3159386348390975 0.0007462735991315723
-0.21809330593445325 0.31576321836952354 -2.9361643330585898e-05
-0.2189709098229649 0.3142863344812789 -0.0012068514008684277
-0.21782696257927442 0.31573925730232383 0.0010663803438978076
-0.217262700308347 0.31559054371360923 0.00025322397754954105
-0.21848574291565442 0.3142558169031539 -0.00101531187488271
-0.21741990755894208 0.31485663172248984 0.0013452406744794726
-0.21777509163715864 0.3155533504152694 0.0020990308146314504
-0.21429890405037427 0.31400023218635703 0.000477218232615459
-0.21944680820801282 0.31540743824485923 -0.0011550549645586133
-0.2165287734160664 0.31426493641380454 -0.0041863683839006545
-0.21591496478416944 0.31307719465736533 -0.0030199948926134226
-0.2200542987475636 0.31568567272667075 -0.0017872814316911817
-0.2171977908501866 0.3143594693804183 -0.0047536853928728225
-0.21616391848423505 0.3132840823793807 -0.003680861391560566
-0.22139137994148755 0.31277756210807944 -4.709402515126461e-05
-0.2207627744565251 0.3119248580599227 -0.0008663598675890088
-0.21786367904045606 0.31224737879280234 -0.0009518031258745313
-0.217176452387357 0.3179043960237899 -0.0015382830281419873
-0.21675385545589948 0.31764386412147666 -0.0020489458222551463
-0.21673664461472059 0.31681023355964805 -0.0014590982575578809
-0.2159545273671391 0.31708417650703574 -0.000600970186726582
-0.21567386399605298 0.3168954085970321 -0.0010283652920885205
-0.21631851803162122 0.3160942029619613 -0.0004233781476183056
-0.2158380300889256 0.31454388615135337 -0.0019174877782030225
-0.21668183814384961 0.316392285790483 -0.0002888206620378613
-0.21588440250256086 0.31540082212928916 -0.001045531429783833
-0.21839335571625257 0.3163677882814803 0.001047753892405498
-0.21784305583336377 0.31618629213813926 0.0002102788309888721
-0.21887555729248548 0.3146654200220504 -0.001009530224339497
-0.2176247985253575 0.3162043523455062 0.0013097461085157275
-0.21700364362099195 0.3160428237581649 0.0004416342596845508
-0.2183387727627995 0.3146672677660384 -0.0008803669591112256
-0.21719805907108808 0.315266592469255 0.0016245480398969531
-0.2174799294362309 0.31584237333778525 0.0022602911810712697
-0.21400129805901075 0.31436084028724814 0.0006663437704877734
-0.2121894956717732 0.30919609781746055 0.07774289806888865
-0.2153322846780064 0.3141989540720382 0.08188151677654551
-0.21725730608799482 0.3117438983583846 0.07599087914036082
-0.20081895600655103 0.3094466161394515 0.07896798213527964
-0.20327565084793592 0.3131305408144393 0.08333336671398447
-0.20950083445408368 0.311134500470201 0.07789256533191966
-0.20539651821949506 0.3106764983797469 0.07544659932659434
-0.2064078600297215 0.32103113647941733 0.080433392129405
-0.21031743298866773 0.31309585091118003 0.07506054004238413
-0.20886640261509443 0.3072098922396102 0.08419295509861277
-0.21473222981789136 0.3105590772295394 0.0893108781199293
-0.21888609241344953 0.3099683951998153 0.08127962907360362
-0.19828209291794324 0.3099521231317916 0.08320000132129954
-0.20327579985954786 0.3109982442522445 0.08840384443805979
-0.20906163762905622 0.31094841476921226 0.08083670695827769
-0.2023115010152104 0.31528024193290854 0.08250173290775584
-0.20507341634132886 0.32173828598503257 0.0878399844984846
-0.213399037827039 0.30551366325859214 0.07967271765278147
-0.21491390477516675 0.3077531289720931 0.0829622383932905
-0.21599152695038343 0.30752663132194663 0.07720490654514597
-0.20785446475842023 0.3069737982416549 0.08001815637157725
-0.210264951098943 0.3091615271234908 0.08305593689487742
-0.21154057990410352 0.30757795092109824 0.07792439421222971
-0.2106544078479054 0.30996779915336753 0.08051418622539805
-0.2115573586116078 0.3162665795946517 0.08433907588527964
-0.212558150399709 0.3118829559946456 0.07971742113636301
-0.21131508063175702 0.3089610767031112 0.08147554954098032
-0.21641163538792157 0.31322268959526206 0.08652769883678721
-0.2206224949250462 0.31196884628776694 0.07901876529262827
-0.1972629876027348 0.3101538252497115 0.0802997287134962
-0.20080117892124677 0.31158159491066123 0.08588960131214426
-0.20975442241528058 0.3118768763208785 0.07848837336109446
-0.2033582777867558 0.31130640026573325 0.07769122084186839
-0.20497219275333906 0.31936137196067954 0.08314441999004649
-0.2226635516772511 0.30973355289940024 0.017260306678278912
-0.2261958272347691 0.31229726788047935 0.02026658614681529
-0.22910767804482007 0.31074063297752524 0.017253809771998394
-0.21246230613091016 0.3099518847132125 0.017956220708353985
-0.21530775736668134 0.31186221357826377 0.021473490796549786
-0.22149337838985944 0.30947200771812583 0.018429481587870587
-0.21355158101418042 0.3089523148203292 0.011353784404261578
-0.21456682692863965 0.31333313700203086 0.015546375117762554
-0.22119808207848096 0.3106877040529647 0.011940264306529034
-0.22763341676094556 0.3103077244425216 0.02568485697315501
-0.2340376229176762 0.3122945260668197 0.02951108773754405
-0.2413715423236134 0.31288794991020347 0.022433989844782818
-0.21129657338955427 0.31202767607216025 0.022246175609095562
-0.2168696076760533 0.31167451855186606 0.026712530456049908
-0.2268641145119908 0.3126436900759139 0.02035667856739329
-0.2178495229373219 0.31019566771034385 0.02085831125782298
-0.22089311491348768 0.3123184871340194 0.025492542586787213
-0.2303508372197392 0.30603365417961265 0.019969486794932354
-0.23263932775356794 0.3072345685625472 0.022166722617609966
-0.2338702828774693 0.3066116404199996 0.01883261760280894
-0.22614872466423536 0.30667654987816 0.019719087682230938
-0.22837483893730665 0.30758736845497275 0.021687680087550152
-0.23078770946362043 0.30658756014351035 0.01909127195881175
-0.22579891990520978 0.30661009069923545 0.01804163416431712
-0.22769595693447614 0.30949865099434043 0.021686487994654644
-0.22793932269909406 0.3074533772135177 0.01854582985447215
-0.22637081157066846 0.30856881853584434 0.02200114091442393
-0.2315776200185063 0.31080363508705283 0.025813960633738506
-0.23637704562046552 0.31037615057472373 0.020106815896494854
-0.20973117660381818 0.30985759016517783 0.018895411096079815
-0.21493303786613965 0.31024722572807456 0.023375951848490704
-0.22242745767929578 0.30946205374244834 0.018423401914103497
-0.21550996612408185 0.307334942784349 0.016296857200129498
-0.21758522104122663 0.31032399651054526 0.021178119979365338
-0.22082802664139295 0.3076017927790084 0.01608424743221568
