ply
format ascii 1.0
element vertex 401
property float x
property float y
property float z
element face 0
property list uchar int vertex_indices
end_header
0.11214064840481773 0.25418636235877995 -0.049095954899384696
0.10522618178532615 0.25667622718498234 -0.042130973343445975
0.1027374196450521 0.2540537420241547 -0.046869482998444754
0.12991442565129296 0.25307902726814274 -0.046899404530122
0.1221577454011251 0.25369176301643376 -0.0400104188962719
0.11658667806790367 0.25123968753501896 -0.046695169214799125
0.12214552644894615 0.2540394965140534 -0.05073016524751397
0.1198350119988729 0.258829802605362 -0.04538958907563897
0.11238699440167442 0.2547585073439789 -0.05254512668092461
0.10570939664052025 0.2502122226683808 -0.04176044106919976
0.0996568429868032 0.25187620553657536 -0.03582143426377984
0.12210901860402122 0.2499593201605988 -0.04202502608735772
0.11435990814373985 0.2498893443076325 -0.03597700238664361
0.10819479111836448 0.24927035007164006 -0.042301025394990165
0.11635147813961998 0.25190094146415715 -0.04530515909631463
0.11129330877469078 0.25554850730583195 -0.03980135560472222
0.10586871985600486 0.2533177438704682 -0.0467143619104168
0.10433869842694297 0.25071969661399846 -0.04718014240701409
0.10064291242764488 0.25328901443168644 -0.04245549083192559
0.09793879870579734 0.25174227389976506 -0.04607960224588128
0.1160617399613668 0.2500229779212189 -0.04646607876260491
0.11055191640065208 0.25202205810234074 -0.042098459009721
0.10506146434948936 0.25091680917427067 -0.04690435171563836
0.11468666080639854 0.2488984766928864 -0.04906084776361199
0.11191468719647422 0.25398382577583317 -0.04527577400644036
0.10754071954892173 0.2508460584609223 -0.05014788747270318
0.10464068535969749 0.2503187361685944 -0.04679298043687554
0.10046773437665 0.25292494926139836 -0.04178762078721734
0.09773751382039085 0.25139960679695134 -0.045609351400925834
0.11652543429539695 0.24971964988395695 -0.04609447360475274
0.11079909686253563 0.251637727352829 -0.0416125917478344
0.10500510815785423 0.2505894604651642 -0.046541687254502494
0.11453666571782127 0.24882009658500676 -0.048539158110215384
0.11160864714787498 0.2537749114958954 -0.0445764327092907
0.10737656835721031 0.2506568137137604 -0.049666818384721
0.11019568924115196 0.24561646613761906 -0.13940119386155816
0.1101033020417501 0.24565431508705143 -0.1392976754947445
0.10914548520253196 0.2448171082465363 -0.13945859313447687
0.11139564994977012 0.2453765574423981 -0.1388064885183117
0.11141296509907737 0.24545642766639714 -0.1386766994043133
0.10986702922986046 0.24471339616462712 -0.13910068214376184
0.113206170837145 0.24379989537879948 -0.13812799394567224
0.113133989612322 0.2440091076819611 -0.13735733569104883
0.11155661229298607 0.2438964549033356 -0.13896789789636346
0.11215107921765342 0.24981322917625431 -0.1392557883306286
0.11194660548375145 0.24986180696174626 -0.1390765720649502
0.11140584234402671 0.2484709921805573 -0.13922400415380212
0.11291381005452171 0.24975773725196843 -0.1390140467925808
0.11268296126530662 0.24977043304130558 -0.1387892776771328
0.11153700236485496 0.24850329789802555 -0.13898631573159906
0.11405643109486595 0.2474587861029816 -0.13747571051557275
0.11405935172245994 0.24745872649833683 -0.13745702445943567
0.11275380138562217 0.24775072965309147 -0.13900187254388544
0.10993319038556114 0.24785003099128727 -0.13995566606958124
0.11028345708058372 0.24661728772804264 -0.14083161592920038
0.1133483577172567 0.24617251786872868 -0.14005499721009942
0.10940676216290489 0.2480248514144135 -0.14061386526067468
0.10960423235104576 0.24645045432731633 -0.14119287968118402
0.1128794479768087 0.2461865249602509 -0.14093194544751855
0.10768287662671104 0.2468472424475861 -0.13898856580693933
0.10779049281285301 0.24610915813133244 -0.14072213709790918
0.1082773435513784 0.24601814183876042 -0.13905366898019525
0.11073272709057823 0.24899277124092106 -0.13796130955655786
0.11172711137936607 0.24875691566154484 -0.13894934595067712
0.11349987272427574 0.2472536865203095 -0.1381925159736416
0.11072888259099022 0.24899104270622258 -0.1379653477712414
0.11172308806584373 0.24875125322029118 -0.13895128310163232
0.11350756172345176 0.2472505274741364 -0.1382026636644146
0.10906489972279564 0.24792853030845646 -0.13618285596807214
0.10944127325222984 0.24750641021415715 -0.1374586337848446
0.11068721894429222 0.24698022041008 -0.13697564244706842
0.10075055841610923 0.25290021333381657 -0.09341971219022484
0.0952880013387014 0.2541644874541474 -0.08888069928128929
0.09303125027821556 0.2531345787970734 -0.09281773508031578
0.11604683880017296 0.2521054450003815 -0.09495573878724785
0.11082293872044578 0.25180837545082096 -0.08952025711972923
0.10327305678532615 0.2510237399069977 -0.09343060493905754
0.10944008115933433 0.2529487911193085 -0.0957219415946743
0.10863678936169639 0.25327762994453434 -0.090517711047723
0.1019224155347158 0.2529798451392365 -0.09650368631322594
0.09969752315686241 0.25457456741020207 -0.08847230315644951
0.09415548328564659 0.2545429769484711 -0.08515925348241539
0.11347325925038353 0.25545427236244206 -0.0914223456426403
0.10753949765370384 0.25376299056694035 -0.0864848160787365
0.10601785067723289 0.2550657096831513 -0.09099967420537682
0.10238324884579673 0.2557920518843842 -0.08690525234182091
0.09608574990437523 0.2566210928885651 -0.09345619023282738
0.09537952427075401 0.2511005106894684 -0.09301937759359093
0.09194635633633629 0.2516913715331269 -0.09016334653337212
0.09037377719090477 0.2512655559508515 -0.09294396281678886
0.09919961575673118 0.2517436448065949 -0.09318290293653221
0.09560059789822593 0.2521674338309479 -0.09074367225606651
0.09183423999951378 0.2517670694319916 -0.09342667103250236
0.10113667730496421 0.25024881992027287 -0.0938724839730999
0.10008438710377708 0.2508815828292084 -0.09067800283868523
0.0977788198392202 0.2503291073767853 -0.09333021581609459
0.0952955115239431 0.250658244225235 -0.09249321759183617
0.09161748770878807 0.25122806462928776 -0.08952922761876793
0.0899827707211782 0.2507788840262604 -0.09249682367284508
0.09962128881619468 0.2513028684584809 -0.0927910471006176
0.09592657570050254 0.25170281562492375 -0.0903125816627285
0.09180142764256492 0.25126001271888737 -0.09307209790189476
0.10068225149319664 0.24998590383216862 -0.09333069265325279
0.09968977455304161 0.2505727711646271 -0.09002729893167229
0.09736292843029991 0.25002434882804875 -0.09294706225831718
0.13332536105320947 0.2429254952399445 -0.11086949348886223
0.13304387811825769 0.24319639835044865 -0.11037698030908318
0.13079222325490014 0.24283179673835759 -0.11203813195665092
0.13720458034680383 0.24307474527046208 -0.11117422223527641
0.1369181502263357 0.24333742293998722 -0.11066120505769463
0.13257973674939172 0.24312755498573307 -0.11212159336049767
0.13839202408001916 0.24253937635108952 -0.1115910971208355
0.13800447467968957 0.24311462077781681 -0.11037131786782951
0.13590990785763757 0.24219265613243107 -0.11204559743840904
0.13465949181721704 0.2422178092925263 -0.10739189029176445
0.13444664363072412 0.24241992864295964 -0.10722064614732475
0.13086213950322167 0.241525799366684 -0.10866027713258476
0.13764482025311486 0.24240687522575383 -0.10791402697999687
0.13713162426159875 0.242413729759903 -0.10746620238263817
0.13232993368313806 0.24182191524192814 -0.10902920008142204
0.13678073171780603 0.24150165948554997 -0.10687866449792595
0.13652168993161218 0.24159517917320256 -0.10653449237783165
0.13616140965626733 0.2408762279479218 -0.10824896038015099
0.13060500506566064 0.240832120510788 -0.10825033128698082
0.13070567731068627 0.24012890491172795 -0.10881846785981865
0.1333075988690664 0.23892983827278141 -0.10906262338597984
0.13063304905102746 0.24084875020668034 -0.10834383607347221
0.1306908655564596 0.24013552102729802 -0.10887862384755821
0.13348280672238366 0.23891213569328312 -0.10916721463639946
0.13028543476269738 0.23960277471229557 -0.10792620122869225
0.13108449463055627 0.23914602431938176 -0.10889413595636101
0.13080745224164025 0.23900064859077458 -0.10837223768670769
0.13245185498402612 0.24235817823097233 -0.0838426017804882
0.12684132937596337 0.24949345025703434 -0.07825931549508781
0.12298678640530601 0.24794665012046818 -0.08426813424070091
0.14503570679829614 0.24498042497322087 -0.08323754013021202
0.1393268037240316 0.24918857249900822 -0.0780881011529705
0.1319977569978048 0.248142809006424 -0.08442811310727806
0.13816630129025476 0.24564263257667546 -0.08724549055536003
0.13483553413556115 0.256398469540329 -0.08259424210031242
0.1319398808877279 0.24918028745338444 -0.08807557464082451
0.13016705993817346 0.24145957860633854 -0.07450021446187706
0.12394987825558677 0.24490222367927555 -0.06923617065389366
0.1201297867696096 0.24437806043312077 -0.07599743843515129
0.1393639076154043 0.24609926376029972 -0.07560178280313225
0.13211941007779138 0.24813321265861515 -0.07044794798333855
0.1271462071339895 0.24757811460182194 -0.07689709604222984
0.13243728164837854 0.2506716552703095 -0.07774968088109703
0.1283761191766073 0.2559836808173371 -0.07376269638974876
0.12674256447957055 0.252894789311142 -0.07897859454591484
0.10846876386807457 0.24872693452522282 -0.11793319523771019
0.10484804991887108 0.2499937120406342 -0.11497293055494041
0.10146629099057212 0.24944892558738713 -0.11852737904031486
0.11719431761906639 0.24834248456642155 -0.1188528204007885
0.11329936269925132 0.2487209144561005 -0.11536916733224602
0.10729964856312767 0.2483837905852509 -0.11894599736173363
0.11457472328351036 0.24770638379737858 -0.11850969136197777
0.11412330750630394 0.24840107593223576 -0.1154152417226574
0.10980796102688804 0.24837592277214054 -0.12011414409120293
0.10866814140484825 0.2514081302611542 -0.11643881738622398
0.10615115646527305 0.25154414806053166 -0.11462436259229393
0.10133909467862144 0.25083503160163884 -0.11721731365163536
0.11701541427777305 0.2516714039771271 -0.11827487886388512
0.11430998925374046 0.2509126368491364 -0.11535149455507011
0.10625004057095543 0.2506925168959809 -0.11805368602712364
0.11317985538647667 0.24902299079582219 -0.11657590806920738
0.11236473206685081 0.24965336951896672 -0.11452717721898766
0.1080123711030294 0.25050583514854435 -0.1194280350251934
0.10369046811268821 0.24770495328590397 -0.11785813808877678
0.10338621620343223 0.24780908260032658 -0.11754850686032982
0.102853946725588 0.24724426898643498 -0.11822265029390068
0.10539557818577781 0.24782124194786076 -0.11789719403226585
0.10497110370800987 0.24795064363166813 -0.11750681341130943
0.10360085252926841 0.24729833039924626 -0.11805484831769676
0.10479696873829857 0.2479676905600739 -0.11696357667882652
0.10482653264210716 0.24802342090293888 -0.11657911181886406
0.10432138327763572 0.2479100528685761 -0.11752849460084648
0.10151290182278648 0.25382158193275456 -0.07233732581575127
0.09673719886944786 0.2556655708281708 -0.06810855508287163
0.09356903318570152 0.25449487600013737 -0.0727155619903347
0.11764567379162803 0.2535904351203156 -0.07280896246869774
0.11213379387066856 0.25242868098899846 -0.06513043880899162
0.10432731393979087 0.25184711846992497 -0.07092550039727898
0.10975741628811851 0.25436243447944645 -0.0744446629329464
0.10774790529416099 0.2559187117545319 -0.0696085953756115
0.09897931698964134 0.25585928592369084 -0.07677916825254173
0.09769632701085106 0.253804475399704 -0.06827760875661583
0.09225397590802208 0.254642516705246 -0.06436699271638603
0.11137678507969871 0.2545635405509186 -0.07008655012090416
0.10578235272572532 0.25269195470497136 -0.06363156080682487
0.09722923521206871 0.25309214028999333 -0.0689434969468853
0.10366150025532737 0.2539561692206574 -0.0703509414239666
0.0988844561974813 0.2567717138259125 -0.06656509280641289
0.09218775514767662 0.2571878734557343 -0.07361666501004906
0.09469305757687584 0.2535898986785126 -0.07262166977365227
0.09130265597508445 0.25495776567146305 -0.0695134067579052
0.08958017114804283 0.2543797198264313 -0.07304900527436943
0.10221349481747642 0.25306978854820256 -0.0726143384023449
0.09900688413784996 0.25397589835807804 -0.06966940701444359
0.0941203463475515 0.25343558225318913 -0.0729686731143734
0.10144861821339622 0.25293001565620427 -0.07342417180974693
0.10027747635052696 0.2543552819220734 -0.06971211374242516
0.09652935747311607 0.2536223236052704 -0.07381362855870933
0.09475990418599144 0.253145307633133 -0.07222500086267204
0.09124930981801048 0.2544856372801972 -0.069028031234338
0.08930989388630882 0.25391003522560124 -0.07269364238221855
0.10263779048131004 0.25264301929161076 -0.07229119182069511
0.09935911778615013 0.2534486952750397 -0.06922001779515953
0.09422951225445762 0.25293925437614445 -0.07265847564180107
0.10134943608448997 0.25267812642738346 -0.07303936422307701
0.09994032267735496 0.2541572156874848 -0.06924065590341301
0.09598072652028099 0.25348010692283635 -0.07364117742021294
0.12605198506520288 0.24651238355323796 -0.04909228921373101
0.12314241413281456 0.2489137354819489 -0.04536303520639153
0.11950778249905601 0.24832555684730534 -0.0492511951967022
0.13204582814381616 0.24697741899177555 -0.04748403668840142
0.12956415895627038 0.24891647729560856 -0.0447038376374981
0.12315409664319053 0.24873098764106755 -0.049143817429139335
0.12967010621235864 0.24759748611137394 -0.04859739184816094
0.1276880133549978 0.2521599236457062 -0.046458777193619925
0.12666627053425805 0.24921348724052433 -0.050693627600266654
0.12411611560986534 0.247030109497757 -0.04567467809159966
0.12168040160344139 0.24844130906745915 -0.04233622193773003
0.1181880462567617 0.24794206056282048 -0.04620328188379021
0.1297729242245962 0.24749389323875431 -0.045025732521607596
0.12588038329289453 0.24935027990028386 -0.04174255967576714
0.1209745932023336 0.24880382451698307 -0.046218123440339286
0.12535616044209497 0.24948522481605534 -0.04452952385385247
0.12367381934330955 0.25225386056587223 -0.042753722672059256
0.12455659393475547 0.2500291171996308 -0.04672172308404656
0.12302195314572349 0.24507936868354802 -0.049039449696137626
0.12233229760334983 0.24584749374076847 -0.04764306188066216
0.12141983989880577 0.24488374623939518 -0.04966005325753899
0.1250002611081411 0.24503788385078434 -0.04775878429849358
0.12431567196057335 0.24595817956611638 -0.04638033748109551
0.12132116440938011 0.2459959093062592 -0.049118843082978446
0.124891482631426 0.24518165025398259 -0.04928615332086297
0.12491928819821373 0.2471427026717377 -0.048526730541779715
0.12384023551152244 0.24644753369972233 -0.0509751999421856
0.1348915923039724 0.24444273147270207 -0.1303594523711941
0.13394131545231835 0.24581196937248234 -0.1283878946347973
0.12775786999867456 0.24593046340629582 -0.1315542274757168
0.14367034320042626 0.2450825277297211 -0.13087452590902063
0.14237573031590478 0.2455245557753754 -0.1282297039075634
0.13491796735928552 0.2452569309203339 -0.13155243933637353
0.1409118402402212 0.24450787934944157 -0.13136906564672204
0.14067622307942407 0.2458694878546906 -0.12918395936925622
0.1373477805058767 0.2442275587050629 -0.1326581651016018
0.134932302276354 0.24317839774772648 -0.1268995666547558
0.13125406984494226 0.24394288692161564 -0.12457699716527672
0.12694942239926355 0.24329713020011906 -0.12780640662152978
0.14278437976048486 0.2438226047484589 -0.12816404939134332
0.13937347416089074 0.24345269832298283 -0.12526182473142358
0.13164084438488977 0.2435554567305756 -0.12849311173398706
0.13728123191998498 0.24289611015007023 -0.1265241617007992
0.13680397752926843 0.24329879913017277 -0.12508408368070337
0.13499974493191735 0.24272015723869328 -0.12897674382169458
0.13121124390767114 0.2417885962454987 -0.12869003057916376
0.13123639706776635 0.24186548623725895 -0.12859856725175592
0.13065906647847192 0.24103650483772282 -0.12930991888482782
0.1324770677487661 0.24199649724647526 -0.12848107159574243
0.1324279535214712 0.24205490979835514 -0.12838877380330774
0.13107313994572656 0.24132230910942082 -0.12915674984891626
0.13070907477543847 0.24239489469215397 -0.12758455813367578
0.130175404588442 0.24278733167335514 -0.12698557615716669
0.13029550794766442 0.24240794810935978 -0.12840234876115533
0.11677228693173423 0.2543432417838288 -0.09414001942117424
0.11475586179898277 0.2553711238829804 -0.09196437538106651
0.1106778014104177 0.25539419088050846 -0.09451928377588005
0.1243574250142385 0.25440576705619816 -0.09507584214647026
0.12288983945057884 0.2551439705817414 -0.09311587751348228
0.11614414338276878 0.25493088397666935 -0.09537677109678001
0.12152107838795677 0.2539537254302216 -0.09543937087495537
0.12164642695591942 0.25485560331031804 -0.09246873498399467
0.11858075145886436 0.25446054372474675 -0.0955039674087307
0.11676272038624778 0.2536366883246613 -0.09017608702619286
0.11221783641980186 0.2540402117697907 -0.08753989279706688
0.10911821607754722 0.2533371153800202 -0.0905453228994152
0.12335412983105674 0.2544313970534516 -0.09146532059152336
0.12009226564572349 0.2540753189055634 -0.08902611971338005
0.11336358670399681 0.25371333989784245 -0.0915662312551281
0.1182769465844442 0.254170686337204 -0.09085008144815178
0.11920654062436119 0.2535153928725434 -0.08839937687356682
0.11546870354817405 0.25398466024086 -0.09196832418878288
0.11280893568203941 0.25081154737159733 -0.09062105060060234
0.11277764324353233 0.25088027152702336 -0.09055499375303001
0.11355798725293174 0.25034812125846867 -0.09111842155893059
0.11426385525868431 0.2510482374160004 -0.09077351928193779
0.11423426155255333 0.25110843810722355 -0.09071047246892662
0.11448182944462791 0.25052323970481877 -0.09119578838784904
0.1131974685590078 0.2510894242255402 -0.0915446543737194
0.11302443627522483 0.251358300778122 -0.09096711516816826
0.11411469463513389 0.2509362998931122 -0.09128124654729576
0.09701227430508629 0.24378857049629216 -0.13250141978700372
0.0929083455006887 0.24595579538032536 -0.12900349140603753
0.09123500470326439 0.24481090936347966 -0.1329047346158764
0.10772430185482994 0.2436378303496552 -0.1329209470792553
0.10255604271100059 0.24403288993522648 -0.12771950304944726
0.09765785221264854 0.24333426389381413 -0.13213684797723504
0.1027088392178823 0.24464675817176823 -0.13425723851163598
0.10118889097378746 0.24724534187004094 -0.13044897854764673
0.09630324725316063 0.24568793210670475 -0.13581961036164972
0.10002776269124046 0.24907955560371403 -0.13053035378892633
0.09698515419171348 0.24932107362434391 -0.1280635857625744
0.09343218092129722 0.24825295838996891 -0.13094643891294214
0.10933094505475059 0.25002405080482487 -0.13217046499688836
0.10585450414822593 0.24873581561729435 -0.12766000271280023
0.09839483384297386 0.24870845708534245 -0.1315542274757168
0.10469701174901024 0.24728986653968815 -0.13114483297307702
0.10176002268002525 0.2495688501326752 -0.1285642498775265
0.09784620289013878 0.24972447786018376 -0.13420131445367547
0.09407909993336692 0.24427542123481755 -0.13325209558446618
0.09258254651234642 0.24474439057991032 -0.1316375100656292
0.09303363446400657 0.24395784768745427 -0.13296997189958307
0.09557830576107994 0.24489066037818913 -0.13256701469857904
0.09431692246602073 0.2453610602347565 -0.13119046032865259
0.09379943494008079 0.24429747495338444 -0.1324442887349865
0.09449388865635887 0.24512091312095646 -0.13192127287824365
0.09368404034779564 0.24583902988121037 -0.13012273252446863
0.09351965073750511 0.245589942070694 -0.13244011640985223
0.09544836763546959 0.2439199987380219 -0.13092323780496332
0.09387161616490379 0.244299978348465 -0.1291602814241192
0.09268345717595115 0.2434280816046906 -0.13101224244077417
0.09809573773549095 0.24533739719078068 -0.13071262479264947
0.09606703404591575 0.24546721610710148 -0.1285850369973919
0.09374835375950828 0.24428942832633976 -0.13056596756417962
0.09691550616429344 0.243953138920517 -0.12968869150121423
0.094772093335848 0.24580183658287053 -0.1279328280730984
0.09416019205258384 0.2452448311774445 -0.13125756025750848
0.10849123481915489 0.25536802444145207 -0.07705974221666069
0.104221396486025 0.25860318574592595 -0.07249076307256432
0.10167329792187706 0.25701627168342595 -0.07719009757478447
0.12279915098355308 0.25433632764503483 -0.07600570857961388
0.11708613518879905 0.25595513019248967 -0.07001125455339165
0.11218776587651268 0.2543562952010346 -0.07553973436792107
0.11743732575581566 0.25545331868812565 -0.07910805583436699
0.11608385328457847 0.2600513998000336 -0.07425248265702934
0.11015185002491966 0.2567368451087189 -0.08021644890744896
0.10629358176396385 0.2536451521842194 -0.07264732957322807
0.1019531715314199 0.2551743689505768 -0.06842045128782005
0.09892451051877037 0.25451120767280583 -0.07321762681443901
0.1171516704957296 0.2542531195609284 -0.07271767795522423
0.11207573894665733 0.25444480809852604 -0.06733645141561241
0.10556750778363243 0.25438597831413273 -0.07289445043046684
0.11212130669758812 0.2552972141234589 -0.07369602859456749
0.10778334025547996 0.2595360580413056 -0.07025901616056175
0.10364212874577537 0.25794705781623845 -0.07584330082376213
0.10499265078709617 0.2526179257361603 -0.07638691008527489
0.10217448357747093 0.25445976886436467 -0.07314836621721
0.10080277208493248 0.253797322842331 -0.07636780679662437
0.10839464549229637 0.2532632652251435 -0.07471912742097588
0.10470395569012657 0.2553822699515534 -0.07181676865060539
0.10238715295002952 0.25419238242790226 -0.07540778458554954
0.10921474579976097 0.2526632252661896 -0.07655913770635338
0.10722487453625694 0.2561672631232453 -0.07365281522710533
0.10571878437207237 0.2541963759391022 -0.077007647757127
0.1049589145581533 0.252347857090683 -0.07604403436620445
0.10185539011166587 0.2543008628813935 -0.0726254546685955
0.10050051693127647 0.25353023442909245 -0.07607054353196831
0.108799033204775 0.25305578145668034 -0.07446674645383568
0.10505487803624168 0.25512269172355656 -0.07149901628930778
0.10252942923710838 0.2539142671553803 -0.07522482812841148
0.10913362387822166 0.2526736560790253 -0.07625349998910637
0.10721641067669883 0.256024569603653 -0.0732869321151516
0.10567941550419822 0.25407055053398137 -0.07675839603383751
0.09615015272305504 0.2551250759093476 -0.051921811108185965
0.09392621401951805 0.2559049430815888 -0.049202915434434134
0.09257259253666893 0.2547611895529938 -0.05256071329553338
0.10287299040959373 0.25445929202720646 -0.05033298969705315
0.10044439915822044 0.25523683461830143 -0.048086937670304496
0.09709256176159874 0.25407668981239323 -0.05137788892228814
0.10086538676426902 0.25341370734855656 -0.05040236950357171
0.09926053170369163 0.2559557858435822 -0.047983642820908744
0.09586449746296898 0.25520435008689885 -0.05251273155648919
0.09480168704197899 0.25502392682716374 -0.05003466844995232
0.09280779246495262 0.25553467902824406 -0.04749101043184014
0.09180545095608726 0.2544194165198517 -0.05057578921754571
0.0992099869649221 0.2553161684004975 -0.048595544104172904
0.09685560349629417 0.2559818926779938 -0.046432133917405326
0.09422450546429649 0.25455889138862614 -0.04930540562112542
0.09640022401021019 0.2543197575537873 -0.04780760050256463
0.09470611099408165 0.2569686475722504 -0.04574960113008233
0.09323152188466087 0.25602003965065007 -0.049555804733826835
0.09068586711094871 0.2541501227347565 -0.050467964415147025
0.09040095690892234 0.2543892565695954 -0.05009641886193963
0.09042202715085045 0.2532939616172028 -0.05238419414003106
0.09201835874722496 0.2538932267157746 -0.049040880207612235
0.09163802150891319 0.2542635503737641 -0.048491176371171195
0.09121417287991539 0.25345298680946354 -0.05107253432710381
0.09435113553212181 0.25333038005516056 -0.05090316772897454
0.09432821754620567 0.254792183968277 -0.05043083072145196
0.09376885775731102 0.2536892000167084 -0.05146479249437066
0.09051748398945823 0.25470754537269596 -0.050631400351121146
0.09040658954785362 0.2548122707335663 -0.05049585938890191
0.09022726897404686 0.2537960711447907 -0.05263661981065484
0.09163855795071617 0.2544165554969025 -0.049294319157197196
0.09144686941311851 0.25462064180061345 -0.0490409696145794
0.09085475687191978 0.2538965049712372 -0.05144720912416192
0.09466963295147911 0.25369641217872624 -0.0514106714769146
0.09472163800404564 0.25496915015861515 -0.05103739738900872
0.09433626417325035 0.2539764944045258 -0.051904615168168265
