ply
format ascii 1.0
element vertex 408
property float x
property float y
property float z
element face 0
property list uchar int vertex_indices
end_header
0.104627810756426 0.24618276986763005 -0.027872111801697925
0.10114308480427757 0.25077495011970524 -0.02393114209611626
0.09898167137310997 0.2479727569548798 -0.02855080008943291
0.1166556406419088 0.24754175576850895 -0.02570670485933037
0.11120351437733665 0.24826613101646428 -0.019601967339112476
0.10810231451199546 0.2453894320456696 -0.025269594196870044
0.11373763565228477 0.24987193975135807 -0.03223907590348931
0.11092325333760276 0.2560664716689301 -0.028107490543915942
0.10559105161831871 0.25077107581779484 -0.033940639500214774
0.1032712388436605 0.2522447410552216 -0.02698975444276543
0.09892161969349876 0.2534061375586701 -0.022459264998032764
0.0972917306821157 0.25198718938514714 -0.027526345257355884
0.11558147553608909 0.25227537784263615 -0.02699195981462212
0.10885148529217735 0.25191935929939274 -0.020956900124146655
0.10523166541264549 0.2511344853369904 -0.027277376656129077
0.10945098880932823 0.2511537972418976 -0.029680010084702686
0.10514887456105247 0.2555488649337006 -0.027534362082078174
0.10307397727177635 0.25338754090950016 -0.03267445803125115
0.10029538754628196 0.2476957145659638 -0.030149813894822314
0.09873785857365623 0.24922743472740178 -0.027454164032532886
0.09838321093724266 0.24830374154731755 -0.02949633837182732
0.10450451854870811 0.24958047303840641 -0.02972611427743645
0.10173779014752403 0.25016477737113957 -0.025728639368607715
0.1002725291650106 0.24910470876380925 -0.028593149189545825
0.1035214591424276 0.24848273429557804 -0.030261751417710498
0.10134699229405418 0.25175681743309025 -0.028523590569092944
0.10015460137532249 0.2503681484191132 -0.031859215502335746
0.10079246048138633 0.24808797273323063 -0.026448127035691455
0.09819620136425987 0.24922457370445256 -0.02255034089524956
0.0970006215970327 0.24812909993812565 -0.026263471846177295
0.10800962928936973 0.24955996904060368 -0.02612194061715813
0.10395436767743126 0.2494838539092255 -0.020603981022431567
0.1008710194032003 0.24875077638313298 -0.025739755634858325
0.10397448424504295 0.24843069944068913 -0.02709346652467461
0.10163136605427757 0.2520808282820893 -0.02494957685907097
0.09986718777821556 0.250475138756485 -0.029286381010606006
0.12620805982754724 0.25018706950828556 0.09251305818121223
0.12632202390835778 0.25064733657524113 0.09287312984030037
0.12239452485249534 0.24964234265968327 0.09151342868368416
0.12935303930447595 0.2496725622145844 0.09407139181654244
0.1294112730424215 0.2501419487921906 0.09460685014288216
0.124743275682192 0.2495480481116486 0.09219935893575935
0.1300056803624441 0.24989447030708317 0.09263289331953316
0.12974562529728906 0.2508678737609101 0.09338662385504036
0.1272987652222921 0.2496924105612946 0.09102464079420357
0.1256074834267904 0.2507452074019623 0.09339732288877754
0.12483631853268638 0.25109854373619084 0.09430766462843208
0.12157221917317405 0.2498217526404572 0.09341532349149971
0.1279701817433645 0.2502923909156037 0.09477681278745918
0.1276141333977987 0.2507263723342133 0.09543940782110481
0.12306677583859459 0.24985036286994938 0.09397742509405403
0.1265981126229574 0.2502599063842011 0.09511477112333565
0.12643452767537133 0.2510087195365143 0.09587821721594124
0.12467002157376304 0.2502013150183869 0.0932886934236744
0.1249348450105001 0.24822130832359318 0.09309822678129463
0.12472903017209068 0.24796941909477238 0.09315112590353279
0.12513526562855737 0.2465399208991242 0.09189004063169746
0.12489482049153343 0.24801895055458073 0.09399941920797615
0.1247783828179647 0.24780061874076847 0.0940021908239582
0.12478002194569603 0.24671700629875187 0.09248316645185738
0.12351521138356224 0.24741318854972844 0.09365195393125801
0.12352188710377708 0.2472645345656586 0.09360376357595711
0.12238510731862083 0.24691066178962712 0.0925792789415577
0.12493561987088218 0.24784675273582463 0.09340843915502815
0.12481474165127769 0.24770161542579655 0.09344035744230537
0.12471675161526695 0.24618640575096135 0.09234887718717842
0.12498392943547264 0.24761298331901554 0.09445459007780342
0.12497478012249962 0.2475014630286408 0.09442368506948738
0.12432929162190452 0.24644222888633732 0.09300294875662117
0.12353970889256492 0.247168630692215 0.09421143292944222
0.12353908304379478 0.24715480241462712 0.09420761823217659
0.12219809774563804 0.24677684936210637 0.09299597501318245
0.13305469636128442 0.24330076608345036 0.023903164859221265
0.12798120860264794 0.2505696717230988 0.028838578458235547
0.1247645843426992 0.24705567989036564 0.022976908679411694
0.14797862652943627 0.2438335123984528 0.025009278054640576
0.1434992778699209 0.247054785820694 0.02940053104917793
0.13797374848530786 0.24450728330299382 0.023690674300596997
0.14233078841374414 0.24382224712059025 0.02033564805547981
0.14125966314480798 0.25274691018745427 0.024352911706373975
0.1365383196275045 0.24540379676506047 0.019321296210692212
0.13198938254521386 0.24522808227226262 0.03146496772329597
0.12395241145298973 0.24875643882438664 0.03582194804708747
0.12248041514561668 0.2470255199401093 0.029292199607298657
0.14521756056950585 0.24735704097435002 0.029473546739027783
0.13880383257077233 0.2472025457350922 0.035218302007124704
0.1321472156445791 0.2475096884696198 0.028492543692992017
0.13994547013447778 0.2474817934958649 0.02823451518575935
0.13518696312115686 0.2516566816298676 0.031399313207075875
0.13300936702893273 0.24945423040077214 0.02593458056013374
0.1298247504632284 0.24133804473564152 0.02628875135938911
0.12736868147061364 0.2439378801314545 0.029484543795988843
0.12620925192044274 0.24372413787528996 0.02512365936796455
0.13557674769566552 0.2426563802687836 0.026367876525328442
0.13282784108326928 0.24493834409400944 0.029022607798979565
0.13021793250248925 0.24405315551445012 0.02517345904867439
0.13274075869725244 0.24611416492149357 0.025018725390837476
0.1312503445546438 0.25021258029624943 0.027589026685164258
0.13063835386441247 0.24763324889823918 0.024307552571699902
0.13113661889241235 0.24170693788215641 0.032479975219176095
0.1244003105561544 0.2454381290404511 0.036495242114470285
0.12371783737347618 0.24360796842262272 0.03040409445326118
0.14122190360234277 0.2441605034796906 0.03127164005796699
0.1351427960793783 0.24525746736213688 0.035855803485319894
0.13100775365040795 0.24460676345512394 0.03009698152105598
0.13734134320424096 0.2448963228194428 0.02993083357374458
0.1339923370282461 0.2488180700270844 0.032823029752180856
0.13212307576344506 0.2466001811949921 0.02796104907552986
0.09922703389332786 0.2515733543364716 0.048145178552077096
0.09488823298619285 0.2523129883734894 0.051367256637022775
0.09165119413540855 0.2516304555861664 0.04770860433141975
0.11047598008320823 0.25117775830909733 0.04662794231931953
0.10677333954976097 0.25075045261070256 0.05036622643034248
0.09881626848385826 0.2502777877776337 0.047492686505720895
0.1060546565453817 0.25013354453727726 0.04749369978468208
0.10506363991902366 0.250345915886612 0.05161533116857795
0.09830331091092125 0.25097158584281926 0.04572299480001716
0.0971682298581411 0.25351277026817326 0.05162385463278083
0.09275733713315025 0.25345614585563664 0.05415720104734687
0.10838931087658897 0.25384965572044377 0.04927102088491706
0.10436912659810081 0.2525521222083283 0.05275416731397895
0.10255255583928123 0.25136664542839054 0.050702843661711496
0.10016753558323875 0.2519865933386994 0.053963724370405954
0.09323369745419517 0.2534322443930817 0.04777425884763984
0.09143718365834251 0.25034162435218815 0.04857662677328376
0.0899336266915609 0.2506379786460114 0.04990327715437202
0.08838009123013511 0.25012633237525944 0.04793265819113044
0.09403713826344505 0.2503441873519135 0.048562470670149606
0.09234382991002098 0.25061944160148625 0.04982322811643867
0.08973019603894249 0.2501296106307221 0.0479727125124195
0.09805610064671531 0.24905231628105168 0.04815712928335456
0.09797405485318199 0.24923893842384343 0.049795482154295724
0.09547855738804832 0.2490558925597382 0.048369560237334054
0.09428971294568077 0.251624197098465 0.018112484212324902
0.09284653548405662 0.25301286611244206 0.020329598184035107
0.09306495670483604 0.2518967095343781 0.01773944854299812
0.09966536645100608 0.2512219253508759 0.019716534610197827
0.09732051972554222 0.2526160779921723 0.02223563551466255
0.09578084234402671 0.25131526622459416 0.019247297044203564
0.09891080145047203 0.2520407739608002 0.0189744865850666
0.09601595286534324 0.25602611932441716 0.021378341908858105
0.09391387585804954 0.25391635331794743 0.017457727189467236
0.09652825478718773 0.2547736469237519 0.019999537463591382
0.09766613725827232 0.2547515336005402 0.018920037742064282
0.0955900180737783 0.25525209340736393 0.020959023232863232
0.09594910625622764 0.25394222173377995 0.018577549453184888
0.10049062256024376 0.25654181871101384 0.01935711860220222
0.09812106970952049 0.2565425935713959 0.021838847394392773
0.0968446362416555 0.25501689347908024 0.019559416766569897
0.09794741157696739 0.2548505369155121 0.020648363824293896
0.09563954953358665 0.25761690768882756 0.022471282477782056
0.09419467333958641 0.25693443450614933 0.01846734046499519
0.09124528650448814 0.2513437572447968 0.018096688981459424
0.0912085700433065 0.2515988055197907 0.01844057797949104
0.09382792596028343 0.2508814040152741 0.01775446891348152
0.09251581911252037 0.2517062726943207 0.018869999642775342
0.0921076167027761 0.25200411710426335 0.019565287824080273
0.09449061040089622 0.2509535852400971 0.019132319684431836
0.09029694680378929 0.25236162576362614 0.019679609532759473
0.08888988975689903 0.2535001340834809 0.020931813712523267
0.09087558869526878 0.25265195998832707 0.01993617772619514
0.09183081273243919 0.2509362998931122 0.019294354911253735
0.09149151329205528 0.25127431783363346 0.02005684732954292
0.09360300783322349 0.2504175010649872 0.018835071320936963
0.09337412599728599 0.25176313552543644 0.02011683940450935
0.09275331381962791 0.2521243396727753 0.02109805106680183
0.09408994797871605 0.250837117764206 0.02031624674360542
0.09084480289624229 0.2523057166068268 0.021473917956755444
0.08894678239033714 0.2539727989165497 0.02275905370275764
0.09086259488270775 0.25307849082633976 0.02127239465276985
0.09427689794705406 0.2513072195975495 0.018510076995299145
0.09257953647778526 0.25254520806953434 0.02084976791898994
0.09293311123059288 0.2514101568190766 0.018203619714186475
0.09945907477543846 0.25128093394920353 0.01998299717466621
0.0969255197446157 0.25243720445320134 0.022607181067869946
0.09554614905522361 0.2511390748946381 0.01966867208044319
0.09808730367825523 0.2520575824706269 0.01962158441107063
0.0953667092721273 0.25552383098289494 0.02165669559995918
0.09281089190648094 0.2541489902465058 0.017829540963576123
0.0962214398782064 0.25509730014488224 0.020847413535521313
0.1235782730977346 0.24255475434944157 -0.011649158005311208
0.12067665938542381 0.24916598233863835 -0.008135911230637746
0.11890434507534996 0.24627122316047673 -0.013344999556138234
0.13326721672223107 0.2444358769385529 -0.010591890816285329
0.1296634304921438 0.24686184558555607 -0.005218651299073415
0.12593185190365808 0.24522671136543278 -0.010906543736054616
0.1296133029858877 0.24722245368644719 -0.014809336666657643
0.12573909048245446 0.2564896050421906 -0.011351611618592458
0.1231943893830587 0.25024130973503117 -0.015980836157395557
0.12188088182614341 0.24521806869194035 -0.008337523941590505
0.11685048822567955 0.24729964170143132 -0.003995325569703298
0.11724596504376426 0.24545899066612248 -0.009269353155686574
0.13175489787266748 0.24691149625465397 -0.008949663643433766
0.1267264712254812 0.2470795217482758 -0.003130044941498952
0.12334658984349266 0.2461632791487885 -0.008992012743546681
0.1253614056508352 0.2483430806128693 -0.01051222920854302
0.12257330898449913 0.25197848710700993 -0.007781919245316701
0.11976330761120811 0.25043585929557804 -0.012528266911103444
0.12190809134648338 0.24338015947029118 -0.011483248476578908
0.12034665826962486 0.2451319399802399 -0.008628484015061574
0.12223746661351219 0.24489274654075627 -0.01143809795816155
0.12459700588391319 0.24654677543327336 -0.01096740007837029
0.12220107797787681 0.24772605333015446 -0.007850404982163625
0.1234837997357656 0.24639853868171696 -0.010417457823350148
0.12059902433560386 0.24996736678764347 -0.011258687977387624
0.11992832307026878 0.25322672757789616 -0.00966056824166985
0.11999093774960533 0.25150516662284855 -0.011841621403290944
0.12370281700299278 0.24714162978813176 0.057666543717787545
0.12153583053753868 0.24874797496482853 0.060563389058516305
0.11647342924283043 0.24887964162513737 0.05697870611707954
0.13595279339955346 0.24731168183967595 0.05609226583997993
0.1335294473569204 0.24834325942680363 0.05928725361387519
0.12507548216984765 0.2481556240050507 0.056061420436308664
0.13160233978436486 0.2470020357100678 0.055169168706343454
0.1316272247235586 0.24845269355461125 0.05914882182638435
0.12652524594471948 0.24783238801643376 0.055135015244887155
0.12277116660283104 0.2461608353583527 0.06486836432974129
0.11679833416150108 0.24724498424217228 0.06847849845449715
0.11247807029889122 0.24682721528694157 0.06436977147619515
0.13248886946843164 0.24710413846656804 0.06317568182508736
0.1285175609986593 0.24640712175056462 0.06684407949011116
0.11954107169316307 0.24696144494697575 0.06281668304960518
0.1252962577740957 0.2473081651656342 0.06376666187803536
0.12587284330533044 0.2469247284857941 0.06710669755499153
0.12093224410222068 0.24756190213844304 0.06223801135580329
0.11916878108189598 0.24379292163536076 0.06165627002279548
0.11885326389477745 0.24419543180152897 0.06238827466528205
0.11749198321507469 0.24389341506645207 0.06072226523916511
0.12233429435894981 0.24409052762672429 0.061288062329695504
0.12210112098858848 0.24451163444206242 0.061972115035460275
0.11961006406949058 0.2442333999602509 0.06021201967756538
0.12140604142354026 0.24406030807182316 0.0601158177808979
0.12127571586773887 0.2447318139998627 0.06179178118269233
0.12055908922360435 0.2443353835074616 0.060254458184645455
0.12101133946583763 0.24706754121467595 0.005087230201170726
0.11287730220959678 0.2507791820494843 0.010813597436354442
0.10936155203984275 0.24824544820472721 0.004998747106001658
0.13503672961400048 0.24984589252159123 0.007715318198607249
0.12779232148335473 0.24781712922737126 0.015480313296721263
0.12152298573658958 0.24569359454795842 0.0075914299444416
0.13068421963856713 0.24889597329780583 0.002635512347624583
0.1293073523442556 0.25041571292564396 0.008324328656599803
0.11823295835659996 0.24992898139640812 -4.585985734181398e-06
0.11191334609196678 0.25096967849418644 0.012206677194044871
0.1044548976819326 0.251350075337143 0.016775909657881543
0.13221787695096032 0.251926452252121 0.009584817881987376
0.12177570943043724 0.24857667121574406 0.017233762736723706
0.11135896329091087 0.24815133247062687 0.00572300314466743
0.10621794346974388 0.25009843740150456 0.009306166167662425
0.10278119925663963 0.2492799464194489 0.005420718188689036
0.12140198830769554 0.2492423954932404 0.004276398415968699
0.11677845601246849 0.24823227557823185 0.009885463710234446
0.11094268445179954 0.24810627135917668 0.005166712994978709
0.11506026271985069 0.25036826762840275 0.002334568496153636
0.11480750922368065 0.2509820762602997 0.006315443511412425
0.10915368084118858 0.25130370292350773 0.0006166434244373274
0.11571633104489341 0.24811390075370793 0.021102044578001782
0.10855602506802574 0.2503388229338837 0.027192238564894482
0.10453140024350181 0.24841895732566838 0.021608743663237378
0.13197799805806176 0.25161728295967106 0.022170666451857373
0.12408291582272545 0.24834415349647526 0.031162086720869824
0.1163637864987661 0.24643448028251652 0.02351582407514839
0.12501802329228417 0.25090035829231266 0.01830146073858528
0.12373857978985801 0.25178375873252873 0.024167749877379224
0.1138819086949636 0.250639409157486 0.016167376037047192
0.1108095872800161 0.254073828789444 0.028637293572829053
0.1032872426907827 0.25410792264625554 0.03264621257345466
0.13267170671628015 0.2560449543921662 0.024376693959639355
0.12147267941639915 0.2516636553733063 0.03317046522657661
0.10687237266705528 0.2479185167281342 0.022513840194151685
0.10049553994343773 0.24926474723503117 0.0263289844946125
0.09823896769688621 0.24845358762428288 0.022492203708098218
0.11924012784169212 0.24907711181327824 0.01984268784086494
0.11297624591992393 0.2478438917128754 0.02570698022405891
0.10552497986958519 0.2479061785666657 0.021240893598006055
0.11102547530339256 0.2505432668654633 0.018635008330748364
0.11037363890812889 0.25056400928184513 0.02320039629499702
0.10438307408497825 0.25096049937889103 0.01723811387579231
0.10654177550480858 0.24710425767585759 0.025202993150160596
0.10037138346837059 0.24810603294059758 0.029025737042830273
0.09633924845860496 0.24737635287925724 0.024663124080107495
0.1216052997510244 0.24882563981697087 0.021651182170317456
0.11391349915669456 0.24662050637886052 0.028693411345885083
0.10557951811955467 0.24701020154640202 0.023343477244780347
0.11344694379971519 0.2485787573783112 0.021265718932555005
0.11117040399716392 0.24886515769645695 0.025626633162901685
0.10387863997624412 0.24985328349754338 0.018689457173750684
0.11993920091794029 0.24113187226936345 -0.02958204985101433
0.11671500686810508 0.25051024589225773 -0.023731198315217212
0.11323239688084617 0.24636873635932927 -0.029867496494843677
0.1315620470444967 0.24403569135353093 -0.027193721537186816
0.12643566016362207 0.24979105624839787 -0.022285934691025928
0.12244039062665 0.24534711274787907 -0.028410848383500293
0.128356032411318 0.24677583608314518 -0.03368866086442681
0.12546687606976525 0.2590363923041535 -0.029444929365708545
0.12170305136845604 0.24961677226707463 -0.034472342733933646
0.11676459793255821 0.24412325057670597 -0.025223132376267627
0.11029984835789695 0.24687078628227238 -0.02094596267183037
0.10922934893773094 0.24537798795387272 -0.027539666895463184
0.13025458935902612 0.24744412336036686 -0.027468111519410327
0.12315528873608604 0.2477094832389069 -0.021075066332413867
0.11798616532490745 0.24740663203880314 -0.02809926510293694
0.1260776150624563 0.24691209230110173 -0.02929901719529839
0.12074630741284385 0.2517528835265351 -0.025684919361664966
0.11794029955075279 0.24953749808952336 -0.031102415327622607
0.1193920302789022 0.23934349450752263 -0.02876004219491692
0.11703141812489525 0.24186012181922917 -0.023469593529298022
0.11550643328831688 0.2435111704795075 -0.02853333592851372
0.12187131528065696 0.24626633557960514 -0.02750646710832329
0.11681457642720237 0.24995628032371525 -0.024027194981171802
0.11697351221249595 0.24813523921653752 -0.028161492352082446
0.12159919027493492 0.24754741820976262 -0.02934568763215752
0.11784746531651512 0.25350800189659123 -0.0266456568284771
0.1185949373643209 0.25021830234214787 -0.030051555637910083
0.10344012860463157 0.24583885106727604 -0.008250739578797536
0.09839879755185142 0.2488727870909882 -0.003949966435029225
0.0952196944157888 0.2472268048255158 -0.009243574146821218
0.11790274862454429 0.2477351728408051 -0.00887822747667046
0.1104680526654531 0.24636659059211735 -0.0010646843953868914
0.10539918426678672 0.2451748553244782 -0.007321056131913381
0.11193453554318443 0.2487773600547028 -0.012390878204896169
0.10917424444363609 0.25156131419822697 -0.007842477564408498
0.10184844617054954 0.2500891390769196 -0.014794733528687673
0.10441475395367637 0.2526414099662018 -0.005147215132310109
0.09933396462605491 0.25275906953498845 -0.0012426340623638201
0.11921291832135215 0.2529195252387238 -0.0073618555112621355
0.11176859621212974 0.2510174814192963 -0.0006128811879894305
0.10370921377347007 0.25148263606712346 -0.006943162684037404
0.09917774085209861 0.2483319345442963 -0.009910967354371266
0.09687676314518943 0.2492065731017304 -0.007495191101624684
0.09540858153508201 0.2484416666953278 -0.009747024778916554
0.10428526286290184 0.2493518892256928 -0.010534104113175588
0.10193165425465599 0.2494232955901337 -0.007418479923798757
0.09807347540066734 0.2487190071074677 -0.009752299789979177
0.10190906409428611 0.24894562396690373 -0.01042052746255608
0.10089191083119407 0.250076562496872 -0.007606920008256154
0.09848099235699669 0.24990490111991887 -0.011813130383088307
0.10068606619046226 0.2476504150359345 -0.006482210163666921
0.09751563553021446 0.24812033805534367 -0.0032484197660228777
0.09374835375950828 0.2474391761748505 -0.006351825003220754
0.10842105034993187 0.2491069737403107 -0.007411565785004811
0.10446425561116233 0.2483239475218964 -0.0027070307775280047
0.09852244738743797 0.24805393848106388 -0.006614353661133962
0.1042047071854879 0.24713405999824528 -0.00669532657106133
0.10129185799763694 0.24952009353324894 -0.004143979553773122
0.09873359684155479 0.24912741813346867 -0.00912379861314507
0.10553508285687462 0.2540970746009064 0.08740318178694038
0.10089053992436424 0.25577351483985905 0.09188771605055122
0.09812905673192039 0.2545561495749665 0.08821013927023201
0.11447041515515342 0.2533770504920197 0.08836159467260628
0.11024444584057823 0.25453832778617863 0.09180745839636116
0.10402648929760948 0.25421568784400944 0.08718377708952217
0.11421822790310875 0.25171151790306096 0.08645138501684456
0.1126256215970327 0.25441256198570256 0.08969298362295418
0.10830231789753929 0.2532935443846894 0.08522886395017891
0.10415922884152427 0.25445172223732 0.08952913045446663
0.09934558753178611 0.25522127780601506 0.09402948975126534
0.11030864004300132 0.2548978630034638 0.09037876486341744
0.10588841919110313 0.2557224932639313 0.09336418270628243
0.1000637638966848 0.25532516870185856 0.0889459884123066
0.10936158184216514 0.25388428601905827 0.08923220991651802
0.10683818940327659 0.255741149517746 0.09282163142721443
0.10536807064221397 0.2544902268378449 0.08826735972921639
0.10076525096104637 0.252184123131485 0.0870417690233448
0.0992019999425222 0.2529686990706635 0.08920619248907356
0.09703784469769493 0.25171205434486393 0.08799568175833015
0.10230740193532005 0.25221464070961 0.08870041727583199
0.10047366503880516 0.25321367416069035 0.09068060278456001
0.09694688800976768 0.2529257837264252 0.08811784147779732
0.10597851161168113 0.25016465816185 0.08723980545561104
0.10517921332524315 0.25231167707130436 0.08887115478079109
0.10274254564450279 0.2519519630400849 0.08648047208349495
0.12959118966267602 0.24639013442680363 0.08046180367033272
0.12970399145291345 0.2471870485274506 0.08155179380934029
0.12555801157162683 0.24649491939231877 0.07970902680914192
0.13597371462986962 0.24621549281761174 0.08085582017462044
0.134863965551119 0.24714329871818547 0.08246735095541267
0.12892004136250512 0.24688366088554387 0.0794509088949421
0.13692521337674157 0.2464343014685822 0.07880434751074104
0.13615026358769433 0.24848124417945866 0.08007121443311958
0.13296058062718408 0.2467024031607819 0.0778860187486866
0.12752666358159082 0.24621394309684758 0.08294478416006355
0.12647464160130517 0.24691328439399723 0.08435148357908516
0.1222076642911245 0.2460193935363007 0.08300069331686287
0.13163354281590478 0.24604657325431828 0.08366415261785774
0.1312895346085836 0.246622234913559 0.0845114922479847
0.1250835884015371 0.2462344470946503 0.08237576841871529
0.13251861218617456 0.24561569127723698 0.08294389009039192
0.1311473775307943 0.24691113862678532 0.08473787068884163
0.12858929518864648 0.2462124529807282 0.08172774672071724
0.12634455446408288 0.24396827850028996 0.08184489965002327
0.12654610757039086 0.24419477615043644 0.0820151007131794
0.12701218609021203 0.2430083456961823 0.08058345675031929
0.12747745994732873 0.2437354031531525 0.08258805036108284
0.12743621353314416 0.2440042797057343 0.08297184466879158
0.12688764218495385 0.2433609667746735 0.08118754982511787
0.12805595282719628 0.243647963139267 0.08137250303785591
0.12755974415944116 0.24450799855873112 0.08195466160337715
0.1267203915517141 0.24379482898399357 0.08067587375204353
0.12667786363766687 0.24356237086936955 0.0821773743585804
0.1268839168946554 0.24383977088615422 0.08241409420530586
0.12679036740468042 0.24258646402046208 0.08107886075536995
0.12777637724087731 0.24333974752113346 0.08299333214323311
0.127706401387911 0.24365612897560124 0.08346465587179451
0.12651797417805688 0.24306216869041447 0.08165523767034798
0.1280401873986532 0.24336394700691227 0.08196431755583077
0.1275221038262655 0.24431321057960514 0.08259773611585884
0.1266070235173513 0.24354133042976384 0.08116305231611519
