ply
format ascii 1.0
element vertex 691
property float x
property float y
property float z
element face 0
property list uchar int vertex_indices
end_header
0.2638031471173574 0.279739111992569 -0.2531858348890087
0.2605636942784597 0.28701928291008 -0.24850548446614953
0.2568357217709829 0.28500261935874943 -0.25431802511651724
0.27697702531025903 0.2826559248892975 -0.25310697794397086
0.2725557315747549 0.28616204890892033 -0.24767806768853876
0.26684292439625756 0.2845282259909821 -0.2538156175657055
0.27361734990284936 0.28349432382270817 -0.2588278913541576
0.2693940031926443 0.2915348711936188 -0.25403317451913565
0.26534613255665795 0.28700730237648014 -0.259327884916856
0.2590439546506216 0.28221192989036564 -0.24743595362146112
0.2532104480664541 0.28462472591087346 -0.24309894085366937
0.2500399578015615 0.2838498059241486 -0.24979084372956964
0.27405651692555444 0.2864759865729523 -0.2513167822404644
0.26654120568440454 0.28680333528205876 -0.24475925803621026
0.26140239123509423 0.2863070074050141 -0.2514683568521282
0.27003207091496484 0.28617414865180973 -0.2540485823198101
0.26513620499775903 0.29028090867683415 -0.249169912342622
0.26029571179554956 0.2889373007743073 -0.2551224494024059
0.23259040002034204 0.23688599500343327 -0.25274049878556937
0.22977443818257348 0.23728063735649113 -0.2503816449685833
0.22790857438252465 0.236310214134903 -0.25312277317483634
0.23818894509480493 0.23650923404380803 -0.25264894605119437
0.23526301268742578 0.23690220746681218 -0.25056144237954825
0.23133458975956933 0.23610857162162785 -0.25335019469697684
0.23896738175557153 0.23504409227058415 -0.2521322035833141
0.23813023451970117 0.23558232221290593 -0.24952834487397882
0.23504485968754785 0.23547789487525944 -0.2530884110971233
0.23540814999745385 0.2395043674437714 -0.2499699258847973
0.23262181166813867 0.23941466245338444 -0.24845817327935907
0.2413512099187185 0.24001845750495915 -0.25091650724847525
0.23871078375981347 0.23962393436119084 -0.24931513905961725
0.23925771598027246 0.23717471990272526 -0.24951074660260888
0.23796238784001367 0.23786351117774968 -0.2475895696922085
0.23399510268376367 0.23845890197441105 -0.2517645919366619
0.2317381728093435 0.23775866660758976 -0.2526607179685375
0.23218461159871118 0.23770800265953068 -0.25305565834481925
0.2307671535413076 0.23655763301536564 -0.2533220016999981
0.23240443352864282 0.23787948522254948 -0.2526572907014629
0.23280467871830957 0.23784592780754094 -0.2529971563859722
0.23121102933094995 0.23662301931068425 -0.25306412220437735
0.23368724469349877 0.2370489541022492 -0.2520290875478527
0.23368855599568383 0.23704823884651188 -0.2520317697568676
0.23316588286564843 0.23671236667320256 -0.2518416607423565
0.23207064751790063 0.23701998624488835 -0.2516640090986034
0.23169269446537988 0.2370578947989655 -0.25136389971215933
0.23096331242726342 0.23564466867134098 -0.25219553351838797
0.23303546790287988 0.23728296193763737 -0.25155281663377493
0.23256292227910058 0.23731473121330265 -0.2511739099069378
0.23133554343388574 0.23591825399086003 -0.25196793318231314
0.2329486835400869 0.23646947774574284 -0.250504460339143
0.23282458666966455 0.23653200301811222 -0.25020464897592276
0.23263802413151757 0.23609170350715641 -0.2506642901941082
0.2954591143529226 0.24269738826438908 -0.2688790822072765
0.2954082119862844 0.24275627765342717 -0.26857968807656973
0.29234650019810693 0.24238231811210637 -0.2698658072992107
0.29785581711934106 0.2421593967406464 -0.26787122726876944
0.29774519089863793 0.24220600757286076 -0.2675322854562542
0.29406585578129785 0.24198177489921574 -0.2689784133477947
0.296353303233843 0.24082133207008366 -0.26880246043641776
0.2958788502614309 0.24239292773887638 -0.2676927709623119
0.2956039536397268 0.24101468953773503 -0.2694749200387737
0.29760464314625756 0.24123451146766667 -0.26612466216523856
0.2975203025739004 0.2411814037291718 -0.26574882507760733
0.2948390472333242 0.24009016189262394 -0.2672857308431408
0.29937102679417626 0.24118498000785832 -0.26558920383889884
0.29920520667241113 0.24116918477699284 -0.265301104788377
0.29608919505284326 0.2402729097335053 -0.2668690645738384
0.2942036021153738 0.24053475293800358 -0.26407083511789053
0.29372408274815576 0.24105986985847477 -0.2635917925878307
0.29468341950581567 0.2399761978118134 -0.2656803989454052
0.29307230595753686 0.2409057322470856 -0.2670814955278179
0.29268118027852075 0.2406844202010346 -0.26831012607057303
0.29296555403874414 0.23945573005363469 -0.2675084734006664
0.2929719913403799 0.24094179305717472 -0.2671672070070049
0.29254581813023584 0.24070921573326115 -0.26836898565728873
0.2929733622472097 0.23944976958915715 -0.2675601208253643
0.2870341170232107 0.23912730846092228 -0.26554122209985465
0.2871741283337881 0.23876407775566105 -0.2658412122770092
0.2906722057263662 0.23819217118904118 -0.26630946636636466
0.22941943291829126 0.3004065457312775 -0.2643117272897503
0.2268747318188955 0.30364587936088566 -0.26062422633607596
0.22650375250981347 0.303060382935257 -0.2644681000753185
0.23533334616826074 0.3029901090590668 -0.26269340157945364
0.23156627301381127 0.30517813596412663 -0.2584219539209148
0.22926267270253198 0.30416950616523747 -0.2622369790120861
0.2341814864079763 0.3039887848822785 -0.26592507601220816
0.23057331923649804 0.3095732632605744 -0.26253035307367056
0.22978027943776147 0.30614736709281926 -0.26638382316072196
0.22914632443593042 0.30631062421485905 -0.2628916466279766
0.22647007588551538 0.30782029065773014 -0.2589355075402996
0.22574206475422876 0.30796554717704777 -0.26300724983651846
0.2359391677777578 0.30901774797126774 -0.26297726870019644
0.23176880959675805 0.3097616735427094 -0.2581100726171276
0.2301437485616018 0.3086331788031769 -0.26206975818116873
0.23298581723378198 0.30771198901817326 -0.2645015084787151
0.2325752008359243 0.3105330172507477 -0.26123648524720877
0.23044445399449365 0.30903878841087346 -0.26530891299684256
0.2277580726544668 0.3023053708998871 -0.26637628317315787
0.22708632830784814 0.302716464134903 -0.26461258173425406
0.22750218991444604 0.3042316738097382 -0.265123840574815
0.22953083399937646 0.305812806221695 -0.26596462369401663
0.2281956899564077 0.30633923444435124 -0.2639446818872234
0.22883387688801782 0.3058162036864472 -0.2639725768609783
0.23094000701115625 0.30417922172233586 -0.2664667928262493
0.2295087206761648 0.3057447377173615 -0.26368525267083853
0.23033585433171289 0.30564573440238957 -0.2656590008779308
0.2941285002629568 0.2889007035224152 -0.2623795831247112
0.2926128137509634 0.297434538933487 -0.2582688891931316
0.29307814721272485 0.2970055643050385 -0.26252460122544974
0.2978787053029348 0.2990346852271271 -0.25944712400872916
0.2953568923871328 0.306223601433487 -0.2564938032670757
0.29515477303669946 0.3029969039885712 -0.26079913616616934
0.29729559306309716 0.30032357606575016 -0.2656977438970348
0.2958347428242971 0.31251904401466374 -0.2631787025972149
0.2936524975697805 0.30551597509071354 -0.2667880022569439
0.29711594466374414 0.29509690437004094 -0.2636192107244274
0.2957863438527395 0.30142954024955754 -0.25798803210695
0.2941813099782278 0.302147239777298 -0.2643138134523174
0.30177541855977075 0.30756375226661686 -0.2617893183275005
0.29785879735157983 0.3121694627730561 -0.257290508751466
0.2976271140973379 0.3095270100562287 -0.26309686541993826
0.30138327960179345 0.30902090701744084 -0.2660858297391674
0.2983120906750967 0.31989744338676457 -0.2623541319413921
0.295932434837084 0.3139723840682221 -0.2668169999166271
0.23578091744587915 0.27451226148292546 -0.2518767082734844
0.23431923274205224 0.2782929244963837 -0.2471240723176739
0.2316754687230398 0.2775227132765961 -0.25219100356538504
0.24564900283024804 0.27545085582420353 -0.24905544162233087
0.24095525626347558 0.2802024785010529 -0.24454356372792932
0.2378005016248037 0.2777244749991608 -0.24966747701604577
0.2411879527966787 0.27896246347114567 -0.25457495093782156
0.23781826380894677 0.28937140140220646 -0.2509052121682903
0.23549821261570947 0.28262022170707707 -0.25581776738603323
0.23758580569432275 0.283415824505539 -0.25310986876924246
0.23618885163472192 0.27684900197669987 -0.2511290276094219
0.23394771699116723 0.27699407968208317 -0.24532287955720636
0.23158910159276025 0.2784065905539704 -0.25107663512666434
0.24261685494587915 0.2825601402251435 -0.24999910235841485
0.2374263036649038 0.2838127914397431 -0.24423004329641076
0.2350917089383413 0.2823682728736115 -0.2499265933080456
0.23788925294087426 0.2835923138587189 -0.2524878346963665
0.2353838313023855 0.28903600606605534 -0.24810188651521417
0.23348524455235498 0.28570517930671696 -0.25342210770089835
0.2361210811536123 0.27172187003776554 -0.2546938025995037
0.23643579367802636 0.2707488242118073 -0.2496858501477978
0.23526939038441674 0.27456632289573674 -0.2529664599939129
0.23622175339863793 0.2788209024398041 -0.25193500161607474
0.23405935649083154 0.2810755673377228 -0.248193349842622
0.23345776681111352 0.280166358086319 -0.25135418415506094
0.23447974805043237 0.2792556587187958 -0.2530371809049389
0.23238035325215356 0.2855120006529999 -0.25045877337892264
0.23366840962574975 0.2827851477591706 -0.2534070277257702
0.23661913756535546 0.2897341552703095 -0.2504784429116985
0.2354499328534414 0.2714517417876435 -0.25317605972726553
0.23560991172001855 0.2697860303847504 -0.24755403042276117
0.2337985861699392 0.27414318952247624 -0.251511927847459
0.2359801161687185 0.27911368045494084 -0.2502699458642742
0.23312773589299218 0.28130409154579167 -0.24606647730310174
0.23248692635701196 0.2801332179038239 -0.2497180664582989
0.23411192778752343 0.279464990231247 -0.25161215305764884
0.23191579465077417 0.2855999771086884 -0.24850056708295556
0.23260303620503442 0.28285667333290104 -0.2519821488900921
0.2623388398091604 0.2518927756278229 -0.26395067215402335
0.25864728573964135 0.2545866075484467 -0.26059931159455985
0.25397642735646264 0.25408604774162297 -0.26506289482553214
0.2757326591412832 0.25193050536796574 -0.26549496889550894
0.27170565013096826 0.25210145148918156 -0.26076566815812796
0.2648245919148733 0.25188055667564396 -0.2651663386865398
0.26909806613133447 0.2525409165351105 -0.26599409819085806
0.26965805176899926 0.25333860549613957 -0.2620550358339092
0.26370617036030786 0.253163606259079 -0.26717513442476004
0.25995733622715966 0.2511610690085602 -0.2607643568559429
0.2543705332677175 0.25215134057685856 -0.2574626171632549
0.25052960995839135 0.2514463964431 -0.26152717709977835
0.2705482471387197 0.2519933882682038 -0.2628654205842754
0.26619681004689233 0.2508893314330292 -0.25848361492593497
0.25784536484883325 0.2512805763213349 -0.2624985837980053
0.26399322632954614 0.251149982544632 -0.2622163260026714
0.26288511637852685 0.2516638937918854 -0.2597746813340923
0.2589503753583242 0.2519843283621979 -0.26474025488336295
0.25661035660908715 0.2471924129454804 -0.26337638140161246
0.2562002170483877 0.24756363067314152 -0.26249405384500235
0.2549119222562124 0.24717071685478215 -0.2636437082334301
0.25966503504918115 0.247648686501236 -0.2636400723500988
0.2595343816678335 0.24805668029472355 -0.262824800018861
0.2565683353345205 0.2475477162329865 -0.26378816009004324
0.2565523016850759 0.24888184699699406 -0.26332434654672354
0.2561530101697256 0.24948474797889714 -0.26196071148355216
0.25642266158268945 0.24883940848991398 -0.2638483607812664
0.28820063952610986 0.2647155228583527 -0.2688879036947033
0.28670194033787744 0.2798711958853913 -0.26287430167634696
0.28577407483265893 0.2759120765654755 -0.2676113808198711
0.29185261611149804 0.28017428550407414 -0.2639243269010326
0.2903079617421438 0.2930217686621857 -0.2602932119413158
0.28799428824589746 0.2859248224227143 -0.2654328906579754
0.289830766956072 0.28388288650199894 -0.27180438876588553
0.2889271605412771 0.30110904607460026 -0.26860704660852164
0.28547998551533715 0.29100456866905217 -0.27271625042398184
0.2857687700192739 0.2630089226691437 -0.27282154202897757
0.2831236946980764 0.2743430438964081 -0.26450898886163443
0.2828012931744863 0.27384617957756047 -0.2721765303655407
0.29118754748509423 0.28337910804435734 -0.2698423230691692
0.28693171624348657 0.29028263721153263 -0.26500010133226126
0.2866592038075735 0.28642258081123356 -0.271566894058778
0.2908814776341726 0.28676071796104435 -0.2753652894540569
0.28810908679173486 0.3023521605460358 -0.2704435551210186
0.28405877236531274 0.2931053343741608 -0.27551978469331473
0.2597109306256582 0.2999497357337189 -0.2605122590108654
0.25268956307576196 0.30616769227668766 -0.25668048501451224
0.2516412365834524 0.3037045899359894 -0.2608137989087841
0.2714020836751272 0.30727455053016667 -0.26025968432862967
0.26393147591755883 0.30862322482749943 -0.2544426286264202
0.2604677904050161 0.306889146897049 -0.25952633858163565
0.2715245712201406 0.3076590600936127 -0.26673626542527884
0.2659294832150747 0.3125510517089081 -0.2610307896180889
0.260559641162615 0.31010493669197087 -0.26686030269105643
0.2522101629178335 0.3094147745101166 -0.26035180330713004
0.24559327248738305 0.3123658004729462 -0.2556516790433666
0.24383320693181054 0.3104514184920502 -0.2618739569230816
0.26908894662068383 0.3116075101821137 -0.2629983985467693
0.2609531510274221 0.31087902221366887 -0.2557306253953716
0.2552197802464773 0.3106391135184479 -0.2629802191301128
0.26548834923909204 0.3089435401885224 -0.2661487424417278
0.25867631320164697 0.313181072804184 -0.2617500686689159
0.2544698942105581 0.3116013709037018 -0.26787823081453055
0.23426177386448876 0.2512545886962128 -0.2733368837877056
0.23257710818455712 0.2522032562224579 -0.2712977790876171
0.2329942214886953 0.25152984294578556 -0.27356278539140433
0.23665305260823266 0.25159111652061467 -0.27208965659578055
0.23409428481266992 0.2527669969527436 -0.2699400448842785
0.23344650153325097 0.251868337723465 -0.27232777715165823
0.23945298079655664 0.25103285941764836 -0.27330675363977164
0.23711206797764794 0.2530462447135163 -0.27056547642190665
0.2361089814107229 0.2518146339385224 -0.2729074919267437
0.23708476905034082 0.2528558674781037 -0.2713217103524944
0.2349812615315725 0.2516893449752045 -0.2705767416997692
0.23300721530125634 0.2520369592635346 -0.26902511358697623
0.23386319760487573 0.2511005106894684 -0.2713599765344402
0.2374677288930227 0.2532270852057648 -0.2706719303174755
0.23513688925908105 0.2534787360160065 -0.2690290772958538
0.23434265736744897 0.25223109159156804 -0.2709115111871502
0.23675885085270898 0.2525632086722565 -0.27000772595842093
0.2345661151807119 0.25396862659141545 -0.26786511779267996
0.233978294173937 0.25339987907096867 -0.2707445287748119
0.22977133874104516 0.25020691785499577 -0.27292239308793753
0.22970696572468774 0.2502404752700043 -0.2728405559106609
0.23300775174305932 0.24992069635078434 -0.27378216028650015
0.2306451428334524 0.25046321782752995 -0.27273803592164725
0.23049970750020043 0.2504996362654877 -0.2725901269956371
0.23387786034749047 0.249973863693924 -0.27316701055009573
0.23006828908131616 0.25123468074485783 -0.27273606896836966
0.22939940575764672 0.2514515820471955 -0.27204653263528555
0.231176518241625 0.2511262002913666 -0.2715620362802288
0.23026659373448388 0.249540776344986 -0.27083477020700186
0.2298668849866201 0.24969759616539006 -0.2704742813154003
0.23294492844746606 0.24918147954627995 -0.27218845129449576
0.23209901932881372 0.2501825991599274 -0.2711872720762035
0.2316185462872793 0.2503051463095856 -0.2707790100618145
0.23397191647694604 0.24941310319587712 -0.2715654039426586
0.23052235726521508 0.2511962953536225 -0.2708026433034679
0.22955092076466577 0.25151291522666935 -0.26979598045785635
0.2317139733235647 0.2510262433020783 -0.2699773275895855
0.28134944323704736 0.2428969446150971 -0.2517280244870922
0.2807798612515737 0.24337759647056584 -0.25105237603624075
0.28028329495594995 0.24216613206550602 -0.2529966199441692
0.2829943526189138 0.243010014626236 -0.25105532646615714
0.2824574339787771 0.2433723512618256 -0.250409986977174
0.2798230278889944 0.24275198611900334 -0.25249486804445
0.2834151018063833 0.24316427144691471 -0.2520779931588909
0.2826739180486013 0.24429717693016056 -0.25100466251809805
0.28228702429936425 0.24256143006965641 -0.2525456512017986
0.2827003229062368 0.24393567475959782 -0.24873897076089593
0.28233935717747705 0.24413737687751774 -0.24832963586290094
0.2791500914494802 0.24329230222389225 -0.25018334031541556
0.28480329398320214 0.2443617883650971 -0.24877178311784479
0.28440072421238916 0.24450752172157292 -0.24843625367124292
0.28012707118199365 0.2439081374137116 -0.2505698466344616
0.28314181451008813 0.24482718143150334 -0.24760035813291284
0.28274747018025415 0.24505344066307072 -0.24719157457788202
0.28184475783513085 0.24474725160285954 -0.24940673649747583
0.2780482995908071 0.2442092004744721 -0.25037079692323416
0.278509818355303 0.24361607465431218 -0.25112890840013236
0.28076406602070825 0.2423652711837006 -0.25190350056131094
0.27811386470006005 0.24423465165779118 -0.2503310108228466
0.27859994057820336 0.24364063176795964 -0.25111487150628775
0.2807600129048635 0.24238857659980778 -0.25184774041612357
0.2767355668942739 0.24372884664222721 -0.249967750315263
0.27718814496205346 0.2432326379744721 -0.2505424284978649
0.2776869762341787 0.2428184452979279 -0.25063073277909964
0.24332072619603173 0.2787328067748261 -0.2632812821908733
0.24013867263005273 0.2868049446074677 -0.25763713956315726
0.23758962039158837 0.28482869300529484 -0.263464208845689
0.25344451550648706 0.28643742236778263 -0.2623089516206524
0.2467995512883474 0.2926847043959809 -0.2572722399278423
0.24357809905217187 0.28961095246955876 -0.2627969050451061
0.24969472769902246 0.2869170609442902 -0.2687462234540722
0.2455016005437185 0.2974511686293793 -0.2635825836702129
0.24190726164982812 0.29135218295738224 -0.2690976226373455
0.24307587031529443 0.28803274068519596 -0.26680329084832877
0.23881598595784204 0.28989824685737614 -0.26003080249269217
0.23555388335392968 0.29047873649284367 -0.2671602034612438
0.252469562331896 0.29766956004783635 -0.26818635702569693
0.24449225548909204 0.29913756284400944 -0.26229303718049735
0.24287702922032373 0.29702308807060246 -0.2682762706323406
0.24873860959218042 0.2967886033980561 -0.27204852939088553
0.2449043023984243 0.3023451271979523 -0.2667368316694042
0.24186601523564355 0.29913535747215275 -0.27275836110551566
0.24487944726155297 0.27869507703468327 -0.27020942807634085
0.24124678258107202 0.28187301788017277 -0.26322066426713675
0.23970600251362817 0.2836585346190644 -0.26851471901376456
0.2453323233525564 0.29253891143486027 -0.2692017519517681
0.24035295132802026 0.2950246039359284 -0.2646723353906414
0.24020209197209375 0.2933395806281281 -0.2689392232938549
0.2435678470532705 0.29192832145378117 -0.27209043145616263
0.24105199460194604 0.2981180253951264 -0.26796030641038626
0.24002309922383325 0.29568275842353825 -0.2722937428994915
0.27457960728810327 0.2860415283171845 -0.2638256216092846
0.2734339464108755 0.293902188870163 -0.2596390509649059
0.2735095251004507 0.292257160279007 -0.2648898029371044
0.2819825041692068 0.29383358392402653 -0.2618402206941387
0.2775823104779531 0.2994985285727692 -0.2578685843988201
0.27650489691899316 0.2964220348326874 -0.26286705971200675
0.2793463099400808 0.2952282134024811 -0.26740985751588553
0.2771972644727041 0.3062286678282929 -0.26413184047181815
0.27466800097630517 0.2995351854293061 -0.26850986123521536
0.27593400363133447 0.2879662815062714 -0.26460069060762137
0.27384539727376 0.2947460118262482 -0.2593123281045696
0.2741002071301748 0.29463478955909733 -0.26522612214524954
0.28169699792073266 0.2970348301856232 -0.26251271009881705
0.2770872342984487 0.30055150422737126 -0.2570714616819164
0.27590086344883935 0.29878661069557194 -0.2632222139879009
0.28024717454121606 0.30109211835548405 -0.26661559582193106
0.27800919894383447 0.30927398833915715 -0.2619608604951641
0.2754425037305166 0.30401405725166325 -0.26691883445222586
0.27968677167103784 0.26382145318672184 -0.25293555498559683
0.27730955962346093 0.2693013850180817 -0.2499369943185589
0.274866007606249 0.26778915557548527 -0.25442435980279654
0.2892764437596609 0.26450666818305973 -0.25262957454164237
0.2862004864613821 0.26769867572471623 -0.24901681781251642
0.2826793420712759 0.26631805333778386 -0.2533574962659618
0.2859378683965017 0.2672435942618561 -0.25566807032067984
0.2835564840237905 0.27501359615013127 -0.2522001230760357
0.28150012377903955 0.26970329913780217 -0.256229546074464
0.27916886691258447 0.26483830842659 -0.24944711864431116
0.27553632144139306 0.2677479687659455 -0.24579514205892297
0.27408584241078393 0.26701316270515446 -0.251256641153886
0.287261985580187 0.26776179704353337 -0.25034421325166434
0.28315749053166406 0.26891961726829533 -0.24619236231286737
0.28092249516652124 0.2679823938338471 -0.25104176640947073
0.28470029715703027 0.2696901265113068 -0.2517674529596111
0.2830336320798208 0.27338388595268254 -0.24903735161264154
0.28065069798634545 0.2715277377097321 -0.2532296145005962
0.26081647757695214 0.24226972493812565 -0.2536983454271099
0.26052650098011987 0.24242332610771183 -0.2533895337625286
0.25708755139515893 0.2423485818831635 -0.2547264361425182
0.26368679885075585 0.2423761788336945 -0.25392251849611014
0.2634653079907705 0.24255356225654606 -0.2536196672960064
0.25778790597126977 0.2427326742140961 -0.25504651308496207
0.2676519978444387 0.24244043264076237 -0.25499423981149405
0.2672182548444082 0.24275073442146305 -0.25413196921785086
0.2648869979779531 0.24161526593849186 -0.25493877768953055
0.25999977473423974 0.24225255880043034 -0.24975852311094018
0.25963624600575463 0.24246260556861882 -0.2496405506177685
0.26328548077748315 0.24241772327110295 -0.2504581773324749
0.2628051269452383 0.2425309720961762 -0.25022160649736136
0.25676056031392114 0.2418070140807343 -0.2516233289285442
0.2652577984731008 0.2409544292418671 -0.24958426893193933
0.2651221979062368 0.24093684587165837 -0.24902829170663568
0.2629677880208303 0.24060043725654606 -0.2507446372552654
0.2573731172482778 0.23846843871757512 -0.25000214219529837
0.25754692439244287 0.23778799209281926 -0.2502885425134441
0.26006367091343896 0.23724785480186467 -0.2514536047025463
0.25751211527989404 0.2384861412970734 -0.2501563394113323
0.25745423916981713 0.23774948749229435 -0.2502909863038799
0.26021190766499536 0.23721590671226506 -0.2515921855016491
0.25840535048649804 0.23801592025444035 -0.25074261069734305
0.2590988505284597 0.23763969573661808 -0.2517394387765667
0.2591359842221548 0.23704543742820744 -0.2506097817464611
0.25682177428410546 0.23825743827507023 -0.24722751617868158
0.25692572478459375 0.23813173207923893 -0.2472730243249676
0.2563516128461172 0.237181157204361 -0.24866965055902215
0.25732996348546044 0.23833897742912297 -0.24727530420263025
0.2574959624211599 0.2382068935363007 -0.2473607027574322
0.25643869523213403 0.23728928002998356 -0.24863400698144647
0.2595435607831289 0.23782369527503971 -0.24738178790052148
0.2598204243581106 0.2376900020568085 -0.24790185332734796
0.2584288943211843 0.2374938431708527 -0.24828958154161188
0.2526645291249563 0.2574301067321015 -0.25686019301851004
0.2472936737935354 0.26106879148170475 -0.25160923243005484
0.2439878213803579 0.25983378324195866 -0.25664505005319327
0.26825573329136865 0.2579636875121308 -0.2578424775644085
0.26056309823201196 0.2590957585303498 -0.2514407599015972
0.2555912959973623 0.25740620526954655 -0.2567881310029766
0.261996351520281 0.25985178384468083 -0.2609748208566448
0.26063945178196923 0.2632691565482331 -0.25558569670160025
0.2549131143491079 0.2605660859076691 -0.261342045073106
0.25306620482609765 0.2618769708602143 -0.253840562109544
0.24744644049809472 0.2626170817343903 -0.2499926948591015
0.24277713183568017 0.26241663131401066 -0.2551258170648357
0.26742985133336084 0.26399990949317936 -0.25717940569360465
0.2599034536282827 0.262646347614975 -0.25099742055375784
0.25159826163456933 0.2632773223845673 -0.25683882475335806
0.2613702047269155 0.2632270160643769 -0.25747489572007864
0.25725152377293603 0.26494017276451115 -0.2535900139852306
0.2524806487958242 0.2648690644232941 -0.2599210107370159
0.24887194518254296 0.2563685480086518 -0.2580703163190624
0.24461957101033227 0.25800588760063176 -0.2546652519746563
0.2434767711560537 0.2578880492179108 -0.2579201722188732
0.25303622368977563 0.2590802017180634 -0.25838029027421683
0.24930872801945703 0.2601318064658356 -0.2554978394552013
0.24505844000981347 0.259731263252945 -0.25838866472680777
0.25047072056935327 0.2599703374831391 -0.25930359602411
0.2493138540189077 0.2609141174285126 -0.2560775542302868
0.248573921958666 0.2601794901816559 -0.2592745089574596
0.23050083998845117 0.29205718669578556 -0.2582602167173168
0.2290228236119558 0.29609909686729435 -0.2537877225919506
0.22835477475331323 0.2963848415343476 -0.25801309586007803
0.2354642379681875 0.2967333498923493 -0.2549706661744854
0.231883727351885 0.3009060326544953 -0.25059443355043143
0.23135020617650048 0.29864177140876774 -0.2549025082631847
0.23238744620488183 0.2986944023101044 -0.2599142456098339
0.23202963952229516 0.30668899449989323 -0.25641399264772147
0.23011716489003198 0.3023349348036957 -0.2605212295099041
0.2304174530904104 0.2960149351088715 -0.25816660762269705
0.22896923903630273 0.2981041971175385 -0.25224956512887686
0.22754689339802758 0.3000059429137421 -0.2572698855443737
0.23459508303807275 0.3031136098830414 -0.2563654744668743
0.22970762137578027 0.30536356601402287 -0.2506018245263836
0.23013510588810937 0.30373743209526066 -0.2551448011441967
0.23126109723256127 0.30462220344230656 -0.2595344746156475
0.22986235503361718 0.31095555457756047 -0.25444250941713065
0.22864194993184106 0.3075468841521454 -0.25934397817094534
0.23113837126896875 0.28993675145790104 -0.2632733845754406
0.23036523942158715 0.2916201058356476 -0.2579870486303112
0.23076071623967187 0.2962607446639252 -0.2598924303098461
0.23042442683384912 0.29842403564140324 -0.26028734088380545
0.22860028628514306 0.3006453219382477 -0.2566709482713482
0.22952654246495263 0.3011285367934418 -0.2577223444028637
0.22821643237278955 0.298693985077591 -0.261821027998521
0.22876628522084252 0.30375656518623356 -0.25860744357545584
0.22793831710026757 0.30298152599021916 -0.2606647872968456
0.29413583163426416 0.28658053311988835 -0.25824078560312
0.2924068200986196 0.29559192094490055 -0.2538122201009533
0.28984477404759423 0.29342636499092106 -0.25864791512925833
0.30367698554204003 0.28921547565147404 -0.256292041544511
0.3007681596677114 0.2962029281584931 -0.2525931263013622
0.2967117655675222 0.2928924265830231 -0.2574551069780132
0.30083837393925683 0.2922556701628876 -0.2621405684991619
0.2994741428296377 0.3027690354315949 -0.25870725155313223
0.295939587394457 0.2958959642378998 -0.26288857698877066
0.29714544896290795 0.28854891690895085 -0.2574651205583355
0.2929947603146841 0.2936263981787873 -0.25209313273866385
0.2890610921780874 0.29321953687355046 -0.25938880086381644
0.30963899974034326 0.29493269357368473 -0.2588599586530468
0.3018622625272085 0.2981860342948151 -0.2529501283212444
0.29920955781147973 0.2963869276969147 -0.2598914468332073
0.3059867251317312 0.2974173131911469 -0.26233830690820426
0.30057337168858544 0.30539748105690007 -0.2577825748964092
0.2980754602353384 0.3010518256156159 -0.2632832491441509
0.2775687802235891 0.2726269069640351 -0.269115802054002
0.2706747877995779 0.27811917695686345 -0.2652253174825451
0.26743706349537866 0.2758384052245331 -0.2692440712495586
0.28609057549641626 0.2787231508223725 -0.26967954278428763
0.2831074822346975 0.27782490882560734 -0.26304939032037467
0.27691861275837915 0.2767074409453583 -0.2687623763128063
0.2865889299313833 0.2781727615325165 -0.27371939659555167
0.28601601008580224 0.2805541459052277 -0.2672776842160961
0.27725698832676904 0.27907809648200993 -0.2737929189248821
0.2699951756398489 0.275119811627121 -0.2692075336023113
0.26252927664921777 0.2768690291373444 -0.2651153171106121
0.2591734159390737 0.27604135903999333 -0.27028259277780264
0.2839917171399404 0.2768501344649506 -0.27187966943223685
0.27742727879689233 0.27502623233482365 -0.26599973082978934
0.27099629525349633 0.27493658694908146 -0.27164083362062186
0.27986868504689233 0.2757023874251557 -0.27394592404802054
0.27765151147053735 0.2760528031317902 -0.2697951459928295
0.27095892314122216 0.2767505351035309 -0.2763164007707378
0.23965355042622583 0.2385474148719025 -0.26868283391435355
0.23541828278706567 0.24029186401054387 -0.26509827018220633
0.23295607451603906 0.2396070662467194 -0.2689130270524761
0.24618699435399072 0.23884889516517643 -0.2683312559171459
0.24168332699940698 0.23997297916099553 -0.2648154759450695
0.23714228753254907 0.23931029472038273 -0.26889282107789725
0.24466320161030786 0.2384178343741608 -0.26912706733186453
0.24379368905232446 0.2399325672118378 -0.2658026182695171
0.24033644084141748 0.23913124236747746 -0.26993041873414725
0.24106510762379663 0.2413226071326447 -0.2652838194413921
0.2377498972813894 0.24128243360206608 -0.2627916002317211
0.24877818707631127 0.24257537755653386 -0.266539719109132
0.24516900662587182 0.24171307716056828 -0.2631328368230602
0.24385353211567895 0.2408040467230988 -0.2652427518411419
0.24165573004887597 0.2422378960578156 -0.26290461063821524
0.23869868401692407 0.24227193030998234 -0.26756721377809256
0.23649545792744653 0.23773762616798405 -0.267150070671632
0.23551674966023461 0.23801592025444035 -0.2661664748235485
0.2365466583173086 0.23699292573616032 -0.26747887969453543
0.23862215165303247 0.2382696572272492 -0.2671808564706585
0.2374187934796621 0.23852720889732365 -0.26613360286195487
0.23744537715123193 0.23736664685890202 -0.2671178245588085
0.23692222718403833 0.23807409438774113 -0.26658367753465384
0.23633553866551416 0.2385179105727387 -0.26550173402269095
0.23740657452748315 0.23785874280616764 -0.266712602381303
0.23853787068532006 0.2382802668540192 -0.2655120754285595
0.23627903346226709 0.23866108092948918 -0.2635773384614727
0.23613330010579126 0.23756662044212346 -0.2660260462804577
0.24162121895955102 0.23936185273811345 -0.26567536235292166
0.2393254268567373 0.23964110049888615 -0.2639222705407879
0.23770418051884667 0.2381531301467133 -0.26572689056833
0.23745157603428857 0.2397187057463837 -0.26438498139817923
0.2362959611813833 0.24048736724540715 -0.2630367243333599
0.23749067668126123 0.23949667844459538 -0.2653042638345501
0.2808372605244924 0.24489882621452336 -0.26711243033845633
0.2800232398907949 0.24664291772529606 -0.2654238009496471
0.27768953923390405 0.24622371825859074 -0.2682268881841442
0.286274277011614 0.24530676040336613 -0.2664963269277355
0.2849952209393789 0.2467609945265961 -0.26458060384233206
0.2808721888463308 0.24626746806785588 -0.26748078704316824
0.28553058985875146 0.24559536609336857 -0.26859494686563223
0.28428521041081445 0.24933967027351384 -0.2662158274694225
0.2827437150876333 0.24610087308570866 -0.2688488030477306
0.2842478382985403 0.2454407516448212 -0.26331439257104605
0.28264965895817773 0.2462473216979218 -0.2615573668523571
0.2799063551823904 0.2457357946364594 -0.2643676364465496
0.28797759894536035 0.2462509575812531 -0.2632871234460613
0.286729656497698 0.24656525287315373 -0.2615351045175335
0.2825778353612234 0.2461995783774567 -0.2644567751928112
0.28581621531651513 0.2470768395392609 -0.2627961897893688
0.2846145260731985 0.24820318851158146 -0.26127946019609183
0.28417625312016503 0.24730733070060734 -0.2646158301873943
0.2807075608174612 0.2453741732566071 -0.2652516925378582
0.2807244289319326 0.24541834029838566 -0.26520770431001395
0.28134485367939965 0.24468353423759465 -0.2656384670778057
0.2820531356732656 0.2457529607741547 -0.2648166978402874
0.282071613113146 0.24580487641975407 -0.26476662993867606
0.2814960706631948 0.24505165252372746 -0.26519560456712454
0.27871354703114526 0.24604252013847355 -0.26394313216645926
0.2782440412442495 0.24687448177024846 -0.26325484753091544
0.278736435214739 0.2462920847861481 -0.26456805706460684
0.2841159928242971 0.2448788586585236 -0.26211017013032645
0.2822063196103384 0.2456611696212006 -0.26017596960504263
0.2805306542317678 0.2449982467620087 -0.2629291081472179
0.28668614510701196 0.24592986735984806 -0.2616280877633831
0.2854718196790029 0.246256023976059 -0.260029789213731
0.2822232473294546 0.24563339385673527 -0.2627482080503246
0.2838832366864492 0.24719926747962956 -0.2606735193773052
0.28318872336552636 0.24830284747764592 -0.2595625484033367
0.28307177905247705 0.2475692335097504 -0.26271181941468924
0.28415002707646386 0.27752766046211247 -0.25371810436685294
0.2830372083585073 0.2854192558257294 -0.24952470899064752
0.28102078322575585 0.28424009713813786 -0.2541466319604656
0.29157384518788354 0.2813069525687409 -0.2509873175664684
0.28880979899571435 0.28847792777702336 -0.24776884556253168
0.28618063811467187 0.2852396074263764 -0.25239640117128104
0.2890915501515676 0.2841978374449921 -0.2569644117398998
0.28781797770665185 0.2954818311660004 -0.25425362229783743
0.28519972447560327 0.2883112135855866 -0.25806444526155203
0.2850632298390676 0.2745303812949372 -0.25062420607049674
0.2825092900197317 0.2802390161483002 -0.24528826415975305
0.27990134839222924 0.2804759446112824 -0.251796808247163
0.29229899529622094 0.28380146655723576 -0.250599321131303
0.28691550378010766 0.28765329751655583 -0.24579728782613489
0.28614076260731713 0.2851271334616852 -0.25162660718400687
0.2910256612698843 0.2855318489997101 -0.25406878829438895
0.28688695315526025 0.2941325012175751 -0.25023105383355826
0.2850266921918203 0.28942129048988346 -0.2548878157182476
0.29575153474019067 0.2538847628562165 -0.26147287726838797
0.2949773300092031 0.2547137442557526 -0.26056196928460806
0.29364170912907617 0.25453034076377873 -0.2626031303449413
0.2982049811284353 0.2542777362792206 -0.26086067796189993
0.29761292819188134 0.2549080553977204 -0.26000347376306265
0.29518505219624536 0.2545951310126496 -0.26192560434777945
0.2963707077901174 0.2544368806807709 -0.26125177383859366
0.295795761386614 0.25673940810844426 -0.2596746647401592
0.29554643515751855 0.25517550143882756 -0.2614505255265972
0.298220180312853 0.25120458039924626 -0.257372375731065
0.2981701124112417 0.251408189865799 -0.2566962802453777
0.29565908793614404 0.2509385052649689 -0.2588613891645214
0.3010372746388723 0.25191548499748234 -0.25754493117768973
0.3005034554402639 0.2521858516661835 -0.25683527827699393
0.2976925003926565 0.2514566484420014 -0.2590061688466808
0.2972652542989065 0.2537544074980927 -0.25609698534448355
0.2968801486890127 0.2546204629866791 -0.25495788097818106
0.2975399125020315 0.2539424005477143 -0.2574483120485088
0.29670508984730737 0.25189533862754826 -0.26041185498674124
0.2962607968251516 0.25156310233757023 -0.2608016693635723
0.2988300550381948 0.25062426957771305 -0.261186000113084
0.2968361008565237 0.252151221367569 -0.2601288819356701
0.296509348193865 0.25179412994071965 -0.2605853641076824
0.29870351437733667 0.25078824195549015 -0.2609418892904064
0.29259374026463525 0.2521674338309479 -0.2583500409169933
0.2926023829381277 0.252145916554184 -0.2583733761354229
0.29342695359395043 0.2524743977515412 -0.2588601374669811
0.2599398124615957 0.27986082467720036 -0.2652785146280071
0.25723453644917504 0.28766492042228703 -0.259464021925523
0.2540269124905874 0.2863268557517243 -0.26547726631601065
0.2699134576718618 0.2878469530074311 -0.2645074093385479
0.2645215619008352 0.2934645119635773 -0.2599243783994457
0.2604433525006582 0.2908953133551789 -0.2654696369214794
0.2674594748418142 0.2869310680358124 -0.2707946860833904
0.26295241002247827 0.29749318990394596 -0.2660778427167675
0.2596608031194021 0.2914135161368561 -0.27130099773843497
0.25479503754780786 0.2872484031645966 -0.2649620437665722
0.25018128041432397 0.2899515930144501 -0.2590003871961376
0.24631669406102197 0.29022643003150944 -0.2663570904775402
0.2644888985554983 0.29566672477409367 -0.2665777468724987
0.2575967538754751 0.29760727319404606 -0.26086911201913565
0.25441046837971704 0.2961726489989472 -0.26746385932405203
0.26236941699193017 0.2928985062567902 -0.2701235377832195
0.2571999657552053 0.29924461278602604 -0.2653244996114513
0.2545585859219839 0.29622092876121525 -0.2710133755250713
0.26568617705510156 0.2944121066062165 -0.24954816341836664
0.26450374011204736 0.30363163385078434 -0.24507924557168695
0.2615068185727407 0.298881858917923 -0.25099834442575186
0.28064825419590966 0.2964143458335114 -0.2482885682626507
0.2752775776784231 0.30306682023689274 -0.2428505981012127
0.2711635458867361 0.29895731839820866 -0.24923880041082117
0.2780718434254934 0.29532066020652775 -0.2555068993612072
0.2734424102704336 0.30735453996345524 -0.25110274196107596
0.2694375741879751 0.3001098934142304 -0.25607490182359427
0.26206716183827417 0.29920610818550114 -0.2503321433110973
0.2584409940640737 0.30524668130561833 -0.24555641055543634
0.256120525638323 0.3029673400847626 -0.25231405735452384
0.2761479843060781 0.30258944663688664 -0.2510449552579662
0.27005042914555566 0.3048856559722138 -0.24422210097749444
0.26520278338597314 0.3038311305968476 -0.2519421243711254
0.2718802321355154 0.3046421709983063 -0.2562521660371563
0.26654603366063134 0.3137241307227326 -0.2513470017953655
0.26402934674428 0.30809399518653874 -0.25723781824548453
0.25310160998509423 0.27377942237541203 -0.2521217727704784
0.25265183333561914 0.28333404693290715 -0.24521486103971216
0.2509674656789114 0.28317615422889714 -0.2505014503045818
0.25466909293339746 0.2892549935309601 -0.24797021985490533
0.25287678126500146 0.2981940809218598 -0.24381133556802484
0.25103797797368066 0.29399099979087834 -0.24906488895852777
0.251997731963854 0.2881840768782807 -0.2547512018724224
0.2504446733395864 0.30356261167213444 -0.25084381938417166
0.2498437989156057 0.2948422137229157 -0.25553920507867545
0.25172098759816186 0.280699760052414 -0.2552067601724407
0.24975790862248437 0.2845706644980622 -0.24618777275521966
0.24742170457051293 0.28765013847038273 -0.2527389192624828
0.25192131880925195 0.29866573247596745 -0.2519164645715496
0.24756642464802758 0.3031419816939545 -0.24726774931390497
0.2472968328397085 0.30083462629005436 -0.25271218657930106
0.2502553689877798 0.2964421812026215 -0.2563523316427013
0.24747648123906152 0.3079778853385163 -0.2519200706525585
0.24713464860127465 0.30297330054924015 -0.2567835414453289
0.23179086331532495 0.27669408950492863 -0.2650434041066906
0.23044272545979516 0.28143295678779606 -0.25788133979280203
0.2284628975789358 0.28245529565498356 -0.263924356703355
0.236544691364031 0.28506407174751286 -0.2607222759767315
0.23123314265416162 0.29251381787940983 -0.256563779120042
0.23091336373494165 0.28814300927803044 -0.2616868579431316
0.23158773068593042 0.2873093787162018 -0.2666745746179363
0.23095407370732324 0.2990421954123688 -0.2631987297578594
0.22943689707921044 0.29169103536293034 -0.2676114702268383
0.231331490318041 0.28254905376121525 -0.26560684681375235
0.23010625724003808 0.2821744981734467 -0.2561724746270916
0.22741647843525903 0.28686878118202214 -0.26316129804094046
0.23429771546528833 0.2946183982817841 -0.26254737019975394
0.2278214919965078 0.2979795042006684 -0.25704234481294364
0.2289421785275747 0.29546019467994694 -0.2622689271016857
0.23078044537709252 0.29481688174888615 -0.2663459742112896
0.22938384894536035 0.30330517921134953 -0.26087349296052664
0.22741820696995751 0.29905107650444035 -0.26621430755098074
0.23369850997136132 0.27579429778739933 -0.2714982593103191
0.23253633860753076 0.27495142850563054 -0.26250517011125296
0.23244246129200952 0.28191712531730656 -0.2659349703832409
0.23247017745183007 0.2877441945998383 -0.2669115030809185
0.22982903603718774 0.2907957139937592 -0.26190402746637076
0.22992905263112084 0.29126378926918034 -0.2653793060823223
0.23017563704655664 0.2863294783560944 -0.26868456244905203
0.2292049754063894 0.2944623533217621 -0.26522513866861075
0.2306184995572378 0.2926229539839936 -0.2680043542428753
0.28234346989796655 0.30118581685707096 -0.25468280554254263
0.28061827305958764 0.3065886202780915 -0.25147869825799674
0.2781989801327993 0.3048202100722504 -0.25633117199380606
0.2922114360730459 0.3037623468367768 -0.25323560476739615
0.2884816754262258 0.30737122926399235 -0.24914341807801935
0.28434868935750024 0.3058253231970978 -0.2542694175287029
0.2914712655942251 0.30204454097435 -0.25872194409806937
0.28798487071202294 0.3091883960692597 -0.25534185409982413
0.2852285135190298 0.30514970454856877 -0.2598882877870342
0.2839154231946279 0.3096541467635346 -0.25555467248399466
0.2809904444615652 0.3131383958785248 -0.25126435995538443
0.27868356589482324 0.31201544437095646 -0.2579836213632366
0.29658158902333276 0.3111363354651642 -0.25666251421411246
0.2915308106343557 0.31304773721382145 -0.25078615189035147
0.28788485411808984 0.31206831369087223 -0.2575635874315044
0.29420801285908715 0.31157752904579167 -0.26064267397363394
0.2900405157010366 0.31778910789176945 -0.2565694415612957
0.2872922647397329 0.31473830375358586 -0.26178538442094534
