ply
format ascii 1.0
element vertex 365
property float x
property float y
property float z
element face 0
property list uchar int vertex_indices
end_header
0.1310129690568258 0.24346640739128117 0.17040285825292853
0.12685566429303186 0.24863025579139714 0.17543658971349982
0.12289228324101463 0.24641123447105412 0.1703978514627674
0.14517717842267053 0.24349871310874943 0.17179143785993842
0.14003523472950952 0.24683216247245793 0.17581317185919074
0.13497220758603112 0.24418965015098576 0.17056385039846686
0.14157053116963403 0.2425713840453339 0.1671542561010578
0.13967018608258264 0.2514123025862885 0.1705129182295063
0.13504802469418542 0.24442657861396794 0.16585284828703192
0.1286640692155172 0.24057528409645085 0.177639249558852
0.12240230325863853 0.24456122550651554 0.1826947069124439
0.11893384937451378 0.24359914693519596 0.17673468946974066
0.13908647779629724 0.24222269687339787 0.1775362825350025
0.13322445038960473 0.2437930408446503 0.18177032827894476
0.12746598605320947 0.2433755103079987 0.17566132902662543
0.13414388183758752 0.24439290198966984 0.17553583144705084
0.13122373108075158 0.24847522411033635 0.17899501680891303
0.12934946302578942 0.24529102477714543 0.17375991105596808
0.12644394520924584 0.23884525928184513 0.17412519812147406
0.12480881098912254 0.24115994605705265 0.17730793714086798
0.12264310602353111 0.24078401956245427 0.1737106776193836
0.13288169387982385 0.23922136459037785 0.17459851860563544
0.13011553172276513 0.2419293228118134 0.17749959587614325
0.12524893168614404 0.24172553453132634 0.17315453648130683
0.13173332099125878 0.24007949266120915 0.1726474499658802
0.1292509365479757 0.2457471791236115 0.17507097482244757
0.1277393627564718 0.24254199895545964 0.1716653144315937
0.09999390725300804 0.24869784745857243 0.10365113973181038
0.09872602705166832 0.2494867745368195 0.10521108269254952
0.10009142045186058 0.24824580583259587 0.10410267471830635
0.1027493107716848 0.24907371434852604 0.10393467902700691
0.10115485672162071 0.24951419267341618 0.10616892933409004
0.10043823007748619 0.2483990493743134 0.10463956355612068
0.1023547578255941 0.24879565868064885 0.10448465108434944
0.10084023360417381 0.2508848014800263 0.10621196388761787
0.09810292009518638 0.2507161799399567 0.10244876503507881
0.10438068989918724 0.2528514567343903 0.10384318589727669
0.10330381278203025 0.25268617305442814 0.10547715782682686
0.10353689674542442 0.2509021464316559 0.10544810056249886
0.1060703921716024 0.25380608472511296 0.10390338658849983
0.1046818423669149 0.25342473420784 0.1060774958090046
0.10287647728131309 0.25169822606727604 0.10579535722296028
0.10429444197819725 0.2518216076819611 0.105749521251128
0.10339929942296043 0.2527938190428925 0.10694328307668953
0.10183175687001243 0.2530613842932892 0.10404616951505928
0.10010545734570518 0.25257226857826237 0.10265475868742256
0.10075076703236595 0.25246289405509953 0.10191291927854805
0.10569243911908165 0.2516026798217011 0.10349563121359139
0.10009338740513817 0.252564400765152 0.10265455007116585
0.100735627452593 0.2524511519400788 0.10191911816160469
0.10569455508397117 0.2516001764266205 0.10348797201673775
0.099395774642687 0.2528974715201569 0.10335362314741402
0.0998835492532064 0.25261351499244694 0.10269886612455635
0.10127633098767296 0.25268176231071476 0.1037520801977375
0.10140862349675193 0.25279638204261784 0.10501054286520271
0.10116910223172203 0.25272151860877995 0.1052634453729847
0.10394006256268516 0.2504500452010346 0.10650697707693367
0.1030040908257772 0.25360915097877507 0.10472205638448982
0.10281571034596458 0.25352051887199406 0.10498842954199104
0.10419511083767906 0.2508448663680268 0.10695702194731026
0.10072626952336326 0.25338420304939274 0.1067844665006855
0.10080506686375633 0.2533225122420502 0.10658023118536263
0.10080971602604881 0.2538231912581635 0.1063010430292347
0.10315223817036644 0.24944278630897526 0.15201568960706976
0.09939753297970787 0.2518129054038239 0.15626594781439093
0.09690486673520103 0.2508285346953583 0.15222019314329413
0.11284758929417625 0.2494232955901337 0.1523464655832508
0.10737746242688194 0.25094541940376286 0.15679386615316657
0.10254897956059471 0.2500284019438935 0.15199652671377448
0.11018096689389244 0.25063052806541447 0.15025851487676886
0.10732319239781395 0.2543691698043061 0.15428781866590766
0.10453953627751365 0.2514468732802582 0.14937612771551398
0.10549499873326317 0.25296667251274113 0.153733763690398
0.1018163192670156 0.25317683849021916 0.15721196293394354
0.11436029557393089 0.2544431987731171 0.15275791644613532
0.10992788557217613 0.25400421056434636 0.1568041777567127
0.10261645201848045 0.25397393140480046 0.15253726005117682
0.11049511317418113 0.2528153363196564 0.15309578537504462
0.10647424344227806 0.25566282901451115 0.15596598743955878
0.10400953177617088 0.2549948993651581 0.15064865707914618
0.09823455695317283 0.24865159425422673 0.1516636645750263
0.09689562801526085 0.24943837556526188 0.1535508966402271
0.09614997390912071 0.24917402896568303 0.151313189263747
0.10107653621838585 0.24953052434608464 0.15205940961401251
0.09900733117268577 0.25035592946693425 0.154109660382674
0.09728919748471275 0.24974337253257756 0.15203434586088446
0.0995088744561483 0.25089654359504704 0.15253264069120673
0.09817405823872581 0.2519771162001801 0.1543005144552448
0.09857379678891197 0.2513728443114472 0.1521090900854328
0.10070430521176353 0.24815914067909245 0.15348685144941596
0.09827949885533348 0.24866607818290715 0.15629667400877265
0.09665637497113243 0.24836573037788395 0.15329215287725714
0.1032472777764608 0.24994459781333928 0.1543019747690418
0.10139485482380882 0.2505570355384064 0.15628484248678473
0.09739144925282493 0.24979046020195012 0.1538650727228382
0.10216926817105308 0.24959299001380925 0.1545735335306385
0.09997870806859031 0.25120797786399846 0.15670389294187811
0.1009192097585012 0.25017014178916935 0.15344480037252692
0.09662144664929405 0.23970475825950627 0.18300828694860724
0.09362735633061424 0.24071988496467595 0.18595752477209357
0.09165122393773094 0.2396571937529755 0.18210003137151984
0.10288333181546226 0.23944947156593327 0.18402898668806342
0.09997453574345604 0.24013158712074284 0.18680447697202948
0.0961703288953115 0.23916104468986515 0.18300220727484015
0.10200157050297752 0.23776820335075383 0.18424156665365485
0.10001098398373619 0.24027279052421574 0.18656701206724433
0.09632151607678428 0.23980733785316471 0.18180719375173834
0.0988076854150106 0.24173882636711125 0.18657058834593085
0.09584706310437217 0.24174854192420964 0.18899000048200873
0.10347967628644004 0.24290040168449406 0.18713248133222846
0.10068657282994285 0.24244794282600407 0.18956786751310614
0.09862103346989647 0.24090322885200505 0.18812507748167304
0.09602739695714012 0.24310210380241398 0.1901657021002033
0.09434445981190696 0.24267587098762516 0.1858380174593189
0.09468355063603416 0.2394673529593659 0.1828027403310993
0.09427996758625999 0.23956850204154972 0.18332097291509894
0.09461434964344993 0.23833158645317082 0.18205252646963385
0.09600897912190452 0.2395510974852753 0.18341595291654852
0.09540500525639549 0.23970338735267643 0.1840913033441761
0.09518372301266685 0.23837485942527775 0.1829868292764881
0.09589623693631187 0.23886629972145085 0.1837185358957508
0.09488978270695701 0.23952659997627263 0.18459934353391913
0.0957460034291555 0.23866751823112492 0.18320325374166754
0.09532453898594871 0.23873230847999577 0.18378043531935004
0.09445526484654442 0.2389518919913483 0.18488946914236334
0.09442215446637169 0.23760661515876774 0.1831592655138233
0.09715309027836815 0.23902276191398625 0.18443218230764655
0.09625192765400901 0.23929813537284855 0.1855081355528095
0.09510486606762901 0.23786142501518254 0.1840755081133106
0.0958666134278585 0.23834964666053776 0.1851991152719715
0.09478306059048668 0.23920753631278996 0.18631378173391608
0.09588971022770897 0.2382722798316193 0.18432444691221503
0.13115566257641809 0.24313220414802555 0.12679675578634528
0.13038652424023645 0.24364277753517155 0.12781647204916266
0.12612973932431237 0.24359628591224675 0.12589925884763983
0.1386677849690725 0.24335673484489445 0.12565720438520697
0.1380053687493612 0.24331244859382634 0.12714803576032904
0.13128247145817773 0.2432035509078217 0.12583971380750922
0.13419850949452417 0.24278733167335514 0.1268219089464405
0.13376938585446374 0.24327877196952824 0.12860048174421576
0.13215004686520593 0.2424820366828156 0.1259116864160755
0.13063763860867517 0.24129632148429875 0.12893483399908331
0.13013105873272912 0.24161776933357243 0.1294827496961811
0.12510886077092187 0.24094882640525822 0.12808487176458624
0.13584955815480249 0.24147745999977116 0.12805259584944037
0.1350238848130514 0.2413250509230805 0.12909946202795294
0.12791781906292932 0.2411031428305817 0.12778813004057196
0.1317502189080526 0.2410908046691132 0.12944800018827704
0.13139408115551965 0.24123021993324284 0.1300863361314991
0.13120581988499658 0.24034979972526554 0.12780925988714484
0.12724565748379724 0.2405894700019074 0.1275823748068073
0.1272137689988424 0.24008706245109562 0.12708315610449103
0.12820499424145715 0.23917940292045597 0.12711486577551154
0.12728565220044152 0.2406034770934296 0.12761015057127265
0.12727027420208947 0.24011805686637883 0.12708577870886115
0.1281821060578634 0.2392127815215302 0.12713325380842475
0.123392276803713 0.24050435456916813 0.1288583314375141
0.12384935502217308 0.2401627007453156 0.12830281614820746
0.12534292821095483 0.2397981587378693 0.1282099819139698
0.12355475906537071 0.24530264768287663 0.14858740925352362
0.11499490622685447 0.2503838840453339 0.15381917714636115
0.11020373586819664 0.24837997588798527 0.1471393144087055
0.14109765772030847 0.24745860728904728 0.14825719952146796
0.13460301641629235 0.24633851680442814 0.15617877602140692
0.12723927978680627 0.24514123830482487 0.1484128272489765
0.13536118749783532 0.24667277965232853 0.14425438999693183
0.13317274336026208 0.2492099109618378 0.15056532978575018
0.12330450896428123 0.24819180402442936 0.1429470515207508
0.11475309018300071 0.24681291017219548 0.15767035245458869
0.10664936188862816 0.24778273734733586 0.16178304314176825
0.13585936311886804 0.248378187748642 0.15307337402860907
0.1269032884042074 0.24521884355232243 0.1609744763330677
0.1169499087731649 0.24184194240257267 0.1513253486112812
0.11070951108143821 0.2449873391120148 0.15501928686659125
0.10798241976902977 0.2443489137618256 0.15027529358427313
0.12770672921345727 0.24406161937400822 0.14930788039724616
0.12236221913502708 0.2441910210578156 0.15395802616636542
0.11647137288258567 0.24420538577720646 0.14932531475584296
0.12068270925686851 0.24598947200462346 0.14820614814321784
0.12047188762829796 0.24702951345130925 0.1522941625074604
0.11633529547856346 0.246677965256424 0.1473568415598133
0.13233741406605737 0.24470320377037053 0.10999617337744026
0.13145228509114282 0.24616435203239445 0.11152273773710518
0.1287556219498922 0.24612048301383976 0.1100689804510334
0.14050068740056054 0.24526432189628605 0.10941779970686226
0.13969480280087487 0.24568310413047795 0.1122204697088459
0.13415422324345605 0.24508199128791813 0.11117190479795723
0.1410750675599386 0.24474206599876408 0.10847634434263496
0.14090120081112878 0.2457762065856171 0.11181995629827766
0.13708829168484704 0.24430927667304997 0.10913750886480598
0.13390424136326806 0.2465498152701569 0.11136120914976387
0.13125949386761682 0.24722948703453068 0.11343407988111763
0.12884726409123437 0.24646273288414006 0.1116353011087635
0.14076023582623498 0.24705788526222233 0.1102503871874073
0.13835286382840173 0.24668648872062687 0.1130982077078083
0.13232847336934106 0.24638691577598576 0.11124736427824287
0.13591408018277185 0.2465554181067658 0.1105148827985981
0.1358345079819967 0.24643716249153141 0.11294550060789375
0.13367255810902612 0.24650147590324406 0.1095746493295887
0.12963490966961877 0.24393978748008732 0.11079135894338875
0.12963639978573815 0.24394914540931706 0.11079931616346626
0.13191594962285058 0.24322256478950505 0.11147174596349983
0.12996508959935205 0.244400292965622 0.11097744464437752
0.1299729574124624 0.24443075093910221 0.11103567838232307
0.13124566559002893 0.24378159675285344 0.1116864120916584
0.1281196403901388 0.24549910459205632 0.11083695649664192
0.12820186499760644 0.24560031327888493 0.11157980918447762
0.1286187696854879 0.24538341197654728 0.11131278037588387
0.1317761469285299 0.2460586133925629 0.11335102080862312
0.12986316565678613 0.24643412265464787 0.1148839926676014
0.12911369685338037 0.24526187810585026 0.1139168775037983
0.1341204274098684 0.24690106544181828 0.11304408669035225
0.13269137624905603 0.24681827459022526 0.11468395947973518
0.12927230481312768 0.24600163135215763 0.11378682016889839
0.13353445414708154 0.2454884949652863 0.11415827631513863
0.133615665475588 0.24552956256553654 0.11534273981611519
0.13326021317646997 0.24524053964302067 0.11323413610021858
0.11402853612111107 0.24199685487434391 0.19126063942472724
0.10961853746579185 0.24520835313484196 0.1956746613935688
0.10576631907628074 0.24465999040290837 0.19068313002149848
0.12247218970463768 0.2428893748252106 0.19191533684294013
0.11755593899891868 0.24491927060768132 0.1959379351095417
0.11210524324582115 0.24431774053260807 0.19067657351057318
0.11813472990201011 0.24370279941246037 0.19043124079267768
0.11646296862767234 0.24766948852226262 0.1937915122465351
0.11384301666424766 0.24520596894905095 0.1890344059423664
0.11411281708882347 0.24489983949348454 0.19628334402601508
0.10931079868481651 0.2458007040946198 0.20044815897505072
0.12174131755040184 0.2469625178305817 0.19602620958845404
0.11734821681187645 0.2467363182036591 0.200147155518935
0.11082398180172935 0.2465830150572968 0.1951495444730976
0.1153731573025991 0.2483833137480927 0.19613081574003485
0.11117478493855491 0.25168851051017765 0.19882506489317206
0.11015158180401817 0.2501275840727997 0.1939675843672016
0.1103561747472097 0.24096587333366398 0.19274461626570014
0.10866224054501548 0.2418336573569489 0.19486755489866522
0.10819976810620323 0.2414783540694428 0.1919561064199665
0.11392881755040184 0.24156948957130436 0.19294870256941107
0.11190410737202659 0.24259784850761418 0.19506895899336127
0.10979395393536583 0.2419317666022492 0.19250172733824042
0.11103298548863426 0.24212542209312443 0.19273823856870917
0.11022277955220237 0.24375161561653141 0.19441962599317816
0.1111668277184774 0.24262270364448552 0.1919258272604206
0.11451416496441856 0.2469627562491608 0.1650306022123554
0.10778304223225608 0.2500590983359528 0.17020449399511603
0.10420417074368492 0.24893829259559636 0.16477576255361823
0.13317578319714563 0.2477300468413544 0.16277319550077704
0.1255742836396505 0.24722221526786808 0.17018771528761176
0.11752110008404747 0.24644020232841496 0.16444698333303717
0.1248219836156179 0.2484883967368317 0.16111836194555548
0.12452571872876182 0.2497093382804108 0.16708386301557807
0.11606159094975486 0.24915227327034 0.1606569027857044
0.11268474940464988 0.24821677837059025 0.17122879981558112
0.10508915070698753 0.2490527335135651 0.17577198504965094
0.12917577509091394 0.25044378671333317 0.1675955688909748
0.12045272473500267 0.24818465146705632 0.174670282597945
0.12018188122914329 0.25030848416969304 0.16751012563268927
0.11634250764058128 0.2511885467498017 0.1718740796999195
0.1093280244271566 0.25203946265861515 0.1648766136125782
0.11013215068982139 0.24380943212196354 0.16712850689451483
0.10507225279019371 0.245570570561142 0.17062664389173773
0.10227113250897422 0.2453669014899445 0.1669713890508869
0.1183469224374105 0.24515166911766056 0.1658194994882801
0.11326637152836815 0.24570420417472844 0.16934970378439215
0.1075625944535543 0.24555721912071232 0.1657812333063343
0.11280977014706627 0.24580404195472721 0.1651383972124317
0.11304482106373802 0.24639514121696476 0.16912293791334418
0.1097475219170858 0.24610784682914738 0.1651410496191242
0.10229950431988731 0.24895116719886784 0.12676561235945014
0.09745325926945701 0.2508549395529938 0.13029322385351447
0.09604468230412498 0.25008299979850773 0.1267991101698139
0.11271186951802269 0.2489469352690888 0.12561798452894476
0.1076815355222036 0.24933341178581242 0.1302793657736042
0.1017671752373983 0.2489839497534943 0.12645918488065985
0.10672783140347496 0.2508799138991547 0.12434140204946785
0.10633047703907982 0.2520040574996186 0.12870055794279364
0.1016000438134481 0.2513176504103852 0.12397221087972908
0.10268449072049156 0.251857728096695 0.13014728188078192
0.09958159212277427 0.25203320417091374 0.13229272126714972
0.09611579064534202 0.2511550489394379 0.12960949897329596
0.11160760406659141 0.25323864850685124 0.1277446782545307
0.10764779929326072 0.2522232237784577 0.13162410616438178
0.10086267475293174 0.25181564721748356 0.128615412707732
0.10761921886609092 0.25120553407356266 0.1287515199140766
0.10583531145260826 0.2521200481383515 0.13166091203253058
0.10145138982937828 0.2526220384566498 0.12654036640684393
0.09731786731884971 0.24875327977821354 0.1263595557169178
0.09559883956120506 0.24893853101417546 0.12757984160940436
0.09762512926266685 0.24856016072914128 0.12640127896826056
0.09951504353688255 0.25026360187217717 0.12561798452894476
0.097571485082369 0.25031593475028996 0.12690261363546637
0.09761642698452964 0.24944624337837223 0.12656531095068244
0.09808801893399254 0.25029853019401554 0.12573984622518805
0.09823410991833702 0.25025180015251164 0.12744856237928656
0.09863992814229026 0.2499803606002045 0.12651053428213385
0.09841709617779747 0.24924954805061345 0.128845486636565
0.09614484790967003 0.24937811526939396 0.1302868163542011
0.09626107696698204 0.24845227632209782 0.1285773551420429
0.10198857669041649 0.2514345947234345 0.12747663616697577
0.09951367263005272 0.25125178727790837 0.12936100720922736
0.09678890589879051 0.24986884030982975 0.12852007507841376
0.10066836361096397 0.2500254217116547 0.12846124529402045
0.09998410228894249 0.2504599395720673 0.13025114297430304
0.09925615076230064 0.25010600719139103 0.1279110646204212
0.11822610382245079 0.24932965669319157 0.1190704441026905
0.11388855461285606 0.2514505687682343 0.12207171678106575
0.11168547753499046 0.25062641534492497 0.11886170863668709
0.12848981503651635 0.2497142258612824 0.11794963836233406
0.12487974051640525 0.24927321109458928 0.12273589133779793
0.11924048546956077 0.24900904330894474 0.1190530097440937
0.12087708000348106 0.2511584464041901 0.11681282877485542
0.12190719727681175 0.25175198945686345 0.12090120076696663
0.11606275324032798 0.25214800271675114 0.11585057138960152
0.11733638528988853 0.2519631091086579 0.12070912479917793
0.11282550577328697 0.25233349237129216 0.12377748250524788
0.10960652712986961 0.25133374366447453 0.12100568770925789
0.12606044892476098 0.25276967916175846 0.11926386117498665
0.1219904053609182 0.2515949312178803 0.12327695250074654
0.11523833159611717 0.2512751522986603 0.1202478146509388
0.12061234597371116 0.2514170709578705 0.11971056818525581
0.12011104110882774 0.2514905038802338 0.12238473057310371
0.11552100662396446 0.2522803250281525 0.1175697779611805
0.11320387605832115 0.24967363509819035 0.11858767628233223
0.1118171441952993 0.24993112716362004 0.11960247516195564
0.11357139829800621 0.24916097554847721 0.11946696400205879
0.11486031893895164 0.25091519984886174 0.11809531211416512
0.11382811550305381 0.2509709897963715 0.11909899472753792
0.11365454677746788 0.25003036889717106 0.11928025245229988
0.11237966303036705 0.2515389028517914 0.11794171094457893
0.11207991127179161 0.25168076190635685 0.11919245481054573
0.11293911222622886 0.25118568572685246 0.11827227830450325
0.09871550683186546 0.24576380881950383 0.1782185769037464
0.0942351448933889 0.24795350465461735 0.18281722425977973
0.09161778573201194 0.24681410226509098 0.1784782445387104
0.11091496829197899 0.245201975437851 0.1785194015459278
0.10506748441861168 0.24634602698966984 0.18351486682455329
0.09961735490963951 0.24551138314888005 0.17842352747480658
0.1067432392041494 0.2462904158560944 0.17652538775961188
0.10376381162808433 0.249932200047226 0.18121254801313666
0.0997772145669271 0.24739715490028386 0.1754741704420307
0.09896077994511619 0.24809381398841862 0.18209052443067816
0.09514185074971214 0.24807879361793522 0.18577081322233466
0.10944556478665367 0.24925640258476262 0.18111691236059455
0.10469123009846702 0.2485698166815949 0.18563714980642584
0.10375442389653221 0.24848952922508244 0.18121493219892768
0.09898185018704429 0.2520664635626984 0.18453869580786017
0.0958874452512075 0.2511935535399628 0.1787676250890949
0.09539731625721946 0.24517670306846623 0.17762995123426703
0.09308429841206566 0.24605825576469426 0.18046757936041144
0.09147309545681968 0.24547115001365666 0.17791277527372626
0.09715258363888755 0.2461245361296845 0.1790890729383686
0.09416409615681663 0.24727711114570622 0.18157124876539496
0.09200053695843712 0.2465265694586945 0.17848781108419684
0.09791364554570213 0.24575504693672184 0.1784188783125141
0.09591525081799522 0.24766162070915226 0.1806559002355793
0.09566869620488182 0.24659153852149968 0.17798793673078803
0.09533777121708885 0.2439720335929108 0.17927015184919623
0.09226974133656517 0.24482348594352726 0.1825997567133167
0.09076684002087608 0.24413439664527897 0.17925283669988898
0.09812279824421898 0.2451818290679169 0.1804107761339405
0.09508752111599937 0.24616888198539738 0.18295845746557501
0.09186264161274925 0.24537840518638615 0.17947891711752204
0.09800877455876365 0.24506709012672429 0.17988846063177374
0.09596898440526024 0.24695834550544743 0.18266022562544135
0.09569668058560386 0.2456616464583588 0.17919534802000311
