ply
format ascii 1.0
element vertex 248
property float x
property float y
property float z
element face 0
property list uchar int vertex_indices
end_header
-0.002667516578221562 0.312019510235826 -0.2165399406333132
-0.007204115499043706 0.31291393753532554 -0.21236757079555227
0.009738445173716304 0.3109717797899642 -0.21618816892101003
0.0057259796967265575 0.31167988296989585 -0.21277861932708456
-0.0021388829837086227 0.3106813859606185 -0.21689034143878652
0.010888367783045527 0.30954997059349204 -0.2170953218121691
0.00970849383971667 0.31063811298851157 -0.21246164182616903
0.003529280315851924 0.30982504602913047 -0.21803936997844411
-0.004965841878438237 0.312054021325151 -0.21305676440192892
-0.010073334086919072 0.31244472977165366 -0.20908845106555654
0.004911661039805171 0.31135503765586997 -0.213155857123868
0.00037726749083971705 0.31156478640083457 -0.2101295206923647
0.0034601687302348587 0.3091928791666427 -0.21242571512653066
0.001491844545817134 0.31010512825493003 -0.20832716564132406
-0.002678394425893071 0.31009588953498984 -0.2142281297822161
-0.00936317454674268 0.3088399004602828 -0.21564336756660177
-0.010438352931523565 0.3091347050333419 -0.21454936901523305
-0.01341581355431104 0.3081188630724349 -0.21648707131339742
-0.006402194608235601 0.3081900906229415 -0.2146669689793749
-0.007164389003300908 0.3086210322046676 -0.21375449637366964
-0.011298745978856328 0.3077841233873763 -0.21580592433406545
0.0007110535015819046 0.30737982508186484 -0.21680112818671896
-0.00011810671188855444 0.3080927562380233 -0.21470072010947897
-0.004184335578465703 0.30778018948082114 -0.21645138303233816
-0.009493231881642583 0.3095357250833907 -0.21626929084254934
-0.010178923715138677 0.30978147503379966 -0.21551560501052572
-0.01386219273903394 0.30890326019767905 -0.21711624304248525
-0.0066607297549488576 0.30881611820701743 -0.21516988316966726
-0.006779342998051885 0.30920116421226645 -0.21471334139301015
-0.011276811469578985 0.30850218054298545 -0.21648052970363332
-0.00039789091446423803 0.30826942440513755 -0.21756111720992757
-0.0008423925528767136 0.30898199793342734 -0.21576241294337942
-0.0046628118644001515 0.3085619043970504 -0.21711426118804647
0.1139104365219829 0.30580262657646323 -0.19023343066169454
0.11298677314422106 0.30667041059974814 -0.189414641656415
0.1116848288883922 0.30541674610618735 -0.19322010020209981
0.11641439784667468 0.3054781984949508 -0.18808925787402822
0.11542272556922412 0.3063207101488509 -0.18722761312915517
0.11317974318168139 0.3047129940653243 -0.19089463988734914
0.11716610182425952 0.3058404755258956 -0.19145170489741994
0.11570277799270129 0.3097072076464095 -0.18971028069450094
0.11542254675528979 0.3052967619562545 -0.1921472016949816
0.11119538534781909 0.30651049133781577 -0.18790345529510213
0.11071008433005786 0.3069120478296676 -0.18725352624847127
0.10875061143538928 0.3057314586306014 -0.1908635113616152
0.1128006874432323 0.30657569881920005 -0.18689440826369955
0.11237853754661059 0.30690650459770347 -0.18637128809882833
0.10851761687896228 0.30607919212822104 -0.18991852442218496
0.11194244016311145 0.306607825722734 -0.18712515274478628
0.11084842671058154 0.30839292522911216 -0.1856660757441683
0.11193543661735034 0.30589030500892783 -0.18848176936103536
0.10896664847037768 0.305764479603807 -0.19010629395438863
0.10930150736472583 0.3053890299463668 -0.19044612983657552
0.11130812753341174 0.30428664204124595 -0.19255714754058553
0.10971060384414172 0.30551485535148765 -0.18914248684837057
0.11005398620269274 0.3051334452295699 -0.189480519690053
0.11030715693137622 0.3042406868601241 -0.19133496920062734
0.10835203517577624 0.3042628001833358 -0.18927473465396596
0.10815992940566516 0.3060461115503707 -0.18881829718543722
0.1074256895889995 0.3045645188951888 -0.1900920782466097
0.11174818862578845 0.3070933651590743 -0.19057226816608144
0.11090722669265246 0.30771158453468467 -0.18957906106902792
0.10867196310660815 0.30644051548484946 -0.19355136791660024
0.11357036222121691 0.3072181176805892 -0.18954991439773275
0.11278775323531604 0.3077262472772994 -0.18867846468879415
0.10856899608275866 0.30689810034279014 -0.19267947117282583
0.11368921388289904 0.30708072897438193 -0.19027460257007314
0.11241501558921313 0.309070451226274 -0.18857385853721334
0.11299979675910449 0.30644421097282554 -0.1916470591206713
0.056289225708460566 0.31078593250755454 -0.21811263898803426
0.04852280009887194 0.31741456505302573 -0.21131410340263082
0.041943400989985224 0.3151367735529342 -0.21887410322620107
0.07936307777068591 0.311692578759233 -0.21691980103446676
0.07211899746558642 0.3137746286058822 -0.20920776466323568
0.06296262134215808 0.31119112488273765 -0.2173181388755007
0.0714776812901256 0.3084536623621383 -0.22492373625232412
0.0705125032772777 0.3162867259645858 -0.21793471912337972
0.060710936676478144 0.3104886245394149 -0.22592974344684316
0.049708425890421626 0.30606047626976157 -0.20704621712161733
0.0418426989426372 0.31153414961342 -0.2011828337092562
0.03630998719832873 0.31035189148430015 -0.20901646355582906
0.06872478116652941 0.30699126240257407 -0.2090229306597872
0.06201663602492785 0.30804775473121787 -0.20252204576923086
0.05210143316886401 0.3082388472223678 -0.21033628920509054
0.05960705865523791 0.3083232473993697 -0.21120986978007986
0.05823585380218005 0.3120273184442916 -0.20546243230296804
0.0512612460961101 0.30998329636100913 -0.21270429233504964
0.048407316099619624 0.30697344061378623 -0.21492688993407918
0.0441879629006145 0.3117220830583968 -0.21003787855102254
0.039206117283320185 0.31117193218711997 -0.215985766448514
0.06347426761291003 0.30740259405616904 -0.21581350902511312
0.059016704451060054 0.3107046913767257 -0.21098820010616018
0.05033040035865283 0.31007264372352744 -0.21668391565276815
0.05725914229056811 0.30769829269889976 -0.21841073671771719
0.05623772729537463 0.31381128546241904 -0.21344610194160177
0.051279306303477046 0.31018076654915 -0.21898018459274007
0.08640253533027148 0.31280754324440146 -0.19591266552402212
0.07987034310004687 0.31910966154579307 -0.19040030876590444
0.07496264566085314 0.3159890603685775 -0.19746332506133749
0.10575890530250048 0.3139824103975692 -0.19484425226642324
0.10298603762290454 0.31715439077858115 -0.18921825925304128
0.0930485426296947 0.3140984010363021 -0.19677587489082052
0.0998336075653789 0.3112645578051009 -0.20340774098827077
0.09858581412932849 0.32160077806953574 -0.19789331296874715
0.09221276630065417 0.3128651213312545 -0.2047438983102007
0.08044165362021899 0.30949012753013755 -0.1870955590386553
0.07397058595321154 0.31435988661293174 -0.18220590690566732
0.06888347853324389 0.31329242702964927 -0.18984462956382467
0.09674200404784655 0.3105271291399398 -0.18925810495807363
0.09100154031417346 0.31273995157722617 -0.18433404604388906
0.08210656036040759 0.31256805178169395 -0.19174430409862234
0.08921369899413562 0.31169776436332847 -0.19100700954391195
0.08688452829024768 0.3176766466761031 -0.18625300268127157
0.08412465442321276 0.3127323817873397 -0.1925003145117922
0.07715386141440844 0.31207082983497764 -0.19433293382121755
0.07469543803832507 0.3153579067850509 -0.19057857135726644
0.07124629605910754 0.3146682810449996 -0.19632843772365285
0.0870578883995769 0.3130322527552047 -0.19408073166801168
0.08378309000632739 0.31592444893364097 -0.19046246150924398
0.0772787033428905 0.31515036341194297 -0.19611891249610616
0.08520853508613085 0.3127445411348739 -0.19753243664695455
0.08279150713584399 0.32079033371452476 -0.19366001228286459
0.07952350367209887 0.31542162415031577 -0.19824058453036977
0.02026835073134875 0.3139492106104293 -0.2179035011906786
0.017031222473597285 0.3168149423265853 -0.2134230200429125
0.013180166374659297 0.3149897288942733 -0.2176956895966692
0.028676003109431025 0.31345741268638755 -0.21476233641101553
0.024438083063578364 0.31616161581520225 -0.2109903607745333
0.018505006920313594 0.31491039511207725 -0.21720009187652303
0.025766074549174067 0.31405590292457725 -0.21721406916572286
0.023423612009501216 0.3207208943033614 -0.2147779230256243
0.022017061602091548 0.315548939671556 -0.22027330736114217
0.0197247265686748 0.3141788077021041 -0.21632175783111288
0.016613900553202388 0.31567190405372764 -0.21144092718555166
0.0117521284928081 0.31493846889976645 -0.21568191687061025
0.02533891786239123 0.3147218656206527 -0.2131253246445818
0.021670579802012202 0.3166512083673873 -0.20945051948024465
0.014672875296091792 0.3159493040705123 -0.21493176261378957
0.020882248770212886 0.31679425951484824 -0.21290799120856954
0.018108010183787104 0.3216432761812606 -0.21054836253120138
0.0187711714615581 0.31779573675636436 -0.21587078908874227
0.01605045784614062 0.31140576120857383 -0.21786758939220144
0.015678495060419795 0.31243555065635825 -0.21665248910381033
0.014562398087000605 0.3105051350260177 -0.21826965252353384
0.018786847483134028 0.310749454464952 -0.2152794961114092
0.01754403103492236 0.3124100398683944 -0.21353915969325735
0.014341562878107783 0.31192354675773765 -0.2170265082497759
0.01978886116645312 0.3108213376665511 -0.2176070872922106
0.019674599062418696 0.3140261602068343 -0.2167857948918505
0.01782757033011889 0.3125637602472701 -0.2201930944104357
0.015953183065867182 0.31012444015983726 -0.21641839186145498
0.015131801258539912 0.31147067066673423 -0.2142925326008959
0.013320058475947139 0.3096389007234969 -0.21638723353339864
0.01932865370414233 0.3096815776491561 -0.21371980647041036
0.017255335937952754 0.3118657302523055 -0.21115029493762685
0.012732922922587153 0.3114140462541976 -0.21526384989215566
0.019623190056299922 0.3097804021501937 -0.21529897192908956
0.018507927547907588 0.3141745161676803 -0.21414228419257833
0.017296790968394038 0.31180392023567344 -0.21812767425967886
0.032913923155283686 0.31344161745552207 -0.20744726697398855
0.030220478664850947 0.31583706852440024 -0.2038513932604952
0.024673133980250117 0.3150541615152755 -0.20824878553344442
0.043239623199915644 0.31320647713188315 -0.20631276706649496
0.040304124247050044 0.31501088854316855 -0.20310766140414907
0.03220903862616992 0.31446109529976035 -0.20845318476154043
0.0408562122692821 0.3135033678675094 -0.20811527112914754
0.039275944124674556 0.3176616263056197 -0.20524934569789602
0.03590133775374865 0.31451336857322837 -0.21046737472011282
0.03206220258376574 0.31368414875511313 -0.20485354105426504
0.028378337513422724 0.3153520655298629 -0.20044108370734884
0.022669196020579097 0.3149006199503341 -0.2049606655020876
0.039103954922175166 0.3140223455095687 -0.20361075440837575
0.03496441234252429 0.3156778645182052 -0.2000567827601595
0.026805132519221064 0.31524680372718955 -0.2051663313288851
0.03457269061706042 0.3155380320215621 -0.20259391406966878
0.032668232809519526 0.3182865214014449 -0.20035297314120962
0.03165447701117968 0.3162065577173629 -0.20541565755798055
0.029228389154886958 0.3111241292620101 -0.20761199931098653
0.02893587936065173 0.31189451929573203 -0.2066454503913088
0.026872128139948603 0.3109426927233138 -0.2090103242774172
0.031547486673807856 0.31088016745094443 -0.20611401537849142
0.031711071621393916 0.3116569947863021 -0.20530844370319082
0.027376145016169307 0.31146846529487754 -0.20813048521472646
0.032606303583597895 0.3113784622812667 -0.20801492670966817
0.0321877597679851 0.31325881000999595 -0.20722953120662405
0.030832946192240474 0.31207589622978354 -0.20994532743884756
-0.0073761345038654835 0.3147286009455123 -0.22441375891162588
-0.012116253484273198 0.3166410159731307 -0.21958713869048788
-0.01458013068535352 0.31511406418327476 -0.22454071680499746
0.004453837763285395 0.313697977032701 -0.22311172524882986
-0.0003597737441303757 0.315080566372911 -0.21882670263244344
-0.006926655877614263 0.31418500658516074 -0.2243807677407427
0.002851158272242305 0.31309388395790244 -0.22511765996410085
-0.00030863295891309057 0.316445095505754 -0.22016074398948385
-0.0054205657134296925 0.31483147856239463 -0.22641318181945516
-0.009385705102467778 0.3140228223467269 -0.2210555885214968
-0.013973504413151983 0.31495378729347373 -0.21653658787204458
-0.0005705655703785446 0.3142165970468917 -0.21991855541660024
-0.00551435362198377 0.3150638770723739 -0.2162592027564211
-0.010649919618153814 0.3137885760927596 -0.22109006980849935
-0.003856331218266728 0.3136145305300155 -0.22031583527518941
-0.007678449262166265 0.3172477316522994 -0.2161451641698046
-0.010890841592335943 0.3158145975733199 -0.22221871355964376
-0.01372668157913709 0.3121428918505111 -0.22423388699485494
-0.01540541659691358 0.3129263949060836 -0.22191349307491018
-0.015760302651906255 0.31169758554939414 -0.22484462598754598
-0.011385470737004522 0.31228391644004966 -0.22237833479835226
-0.013776123631978276 0.3134229015970626 -0.21992313007308675
-0.015822649110341314 0.31246869083885337 -0.22356518248511983
-0.0071879030356648 0.31050835367683555 -0.22418492177917196
-0.009605527032399419 0.31356636997703696 -0.22178297380401327
-0.010695368159795049 0.312075777020494 -0.22439933458759023
-0.013748496879124883 0.312827033963243 -0.22486872116519643
-0.01500505219795728 0.3135132026338973 -0.22300640384151174
-0.015999496091389898 0.31250099655632163 -0.2255411360640688
-0.011618167270207647 0.3127927016878524 -0.22296730319453908
-0.013816863406682256 0.31386767145637656 -0.2207450334210558
-0.015473783124470952 0.3129656147623458 -0.22404656449748708
-0.006713390458607915 0.31086103435997153 -0.22494905332519247
-0.008756667483830693 0.31391100403312827 -0.2227502230782671
-0.010337650884175542 0.3125691246652999 -0.2250289086480303
0.07316857565543627 0.3071428370142379 -0.21025385598136617
0.07094666350982165 0.3095016312265792 -0.20749425033523275
0.06745231140754199 0.3088377546930709 -0.21224766115142538
0.0813176630844829 0.30773101564888145 -0.209729662932889
0.07875391830108142 0.30973379131797935 -0.20703505615188314
0.07225909818313098 0.3093356918955245 -0.21187441686584188
0.07975560415885424 0.30766944405082847 -0.21226785222484304
0.07784977544448352 0.31323145147804404 -0.2094905887026949
0.07468378533027148 0.30937383886818076 -0.2135141108412905
0.06941157568595385 0.30891541954521323 -0.20668279270126058
0.06846696127555346 0.31003068205360557 -0.20455770830108358
0.06384623039863085 0.3101551365518966 -0.20914276579810812
0.07678559411666369 0.309481246438066 -0.20725332836105062
0.07537591446540332 0.3105442952776351 -0.20522021392776205
0.06849780667922473 0.31072799679283286 -0.20998116473151876
0.07344943274161791 0.31118456837181235 -0.20731776098205282
0.07195988286635852 0.3140949439669051 -0.2049931202311678
0.07026851166388964 0.3122544717455306 -0.20905455092384054
0.06700876344344592 0.30655900951866294 -0.2098684672494097
0.06675827492377734 0.3072523307466903 -0.20907214919521047
0.06685337413451647 0.30658678528312827 -0.211916780867116
0.07041579474112963 0.3067214321756759 -0.20913907031013204
0.06975674618384814 0.30755637403968955 -0.2083193127293749
0.06707000721595263 0.3072426151895919 -0.2110470000882311
0.06939980376861071 0.30635557886604453 -0.21068913380099966
0.06883463252685046 0.30924336430076743 -0.20958953241302206
0.06820026029250598 0.30748931881431724 -0.21178907791568471
