ply
format ascii 1.0
element vertex 450
property float x
property float y
property float z
element face 0
property list uchar int vertex_indices
end_header
-0.08991667267173822 -0.07370897756694259 -0.03273280715525952
-0.09203886624664362 -0.07208573447345198 -0.030270151849397093
-0.09190308686584528 -0.07260307298777999 -0.03299015020907727
-0.08455431100219782 -0.07296821104167403 -0.031559132094987306
-0.08642410870880182 -0.07202252374766768 -0.028888188357957274
-0.09044336911529596 -0.07188015805362166 -0.032549552674897585
-0.08794062968582209 -0.07404651867030562 -0.033798180575974855
-0.08969401952117975 -0.07245170699237288 -0.03169875597537366
-0.09234600898117121 -0.07266547905085982 -0.03578709816516248
-0.09017973777145441 -0.07234069334147872 -0.0340683684307417
-0.09246220823616083 -0.07051610575793685 -0.0314399824100813
-0.09210413333267267 -0.07099672781108321 -0.03426312660754529
-0.08453499909729059 -0.07211607323764266 -0.033198706861146364
-0.08661800261825617 -0.07114216314433516 -0.030352585073121458
-0.09060316916793879 -0.07097148524402083 -0.03403257584155408
-0.0882944428572088 -0.07285579668162764 -0.03501718496859876
-0.08999031421035822 -0.07132392750857772 -0.032935671563752565
-0.0928013586649328 -0.07144617663501204 -0.03711082791865674
-0.0933344626078039 -0.07544454561351241 -0.030998162980683714
-0.09394010540336664 -0.07442083583949508 -0.029909454341538817
-0.0922823214182287 -0.07398524509547652 -0.031139604802735716
-0.09154200192779596 -0.07416104899524154 -0.029877685065873533
-0.0923019313463598 -0.07357421146510543 -0.02842634176791516
-0.09210306044906671 -0.07365634666560592 -0.030637525077470213
-0.09194376703590448 -0.07556721197246016 -0.03219272946894971
-0.09305512544006403 -0.07431500779269637 -0.030501477475770384
-0.09545358654350336 -0.07397207246898116 -0.03354024147570935
-0.09252684947341974 -0.07140916215060653 -0.033584319110520754
-0.09367128845542963 -0.06976535545466842 -0.03165125107348767
-0.09241690870613153 -0.06972407923816146 -0.03399070357859937
-0.08818873401969965 -0.0703881047832817 -0.03293766831935254
-0.09066521760314997 -0.06922050939677657 -0.030342303271897703
-0.09167661901802118 -0.06950997935412825 -0.033639662023194704
-0.09038945671409662 -0.0720849596130699 -0.03467201447070447
-0.09171595808357294 -0.07065274940608443 -0.03279092168391553
-0.09445237752288874 -0.0705200992691368 -0.036595188136704836
-0.1307260208973318 -0.07330038772700728 -0.038767002578385744
-0.13151299592346247 -0.07245376335261763 -0.037699125762589845
-0.12888732191413935 -0.07252168284533919 -0.038997791762956056
-0.1284946018108755 -0.07217755542872847 -0.03825261449397412
-0.1302086376795202 -0.07139563189624251 -0.03658165788234082
-0.1284621023783117 -0.0717177950012535 -0.038283608909257326
-0.12646294769138391 -0.07258894668696822 -0.041633062120088014
-0.12844037648529108 -0.07133182512401046 -0.03953214740336743
-0.13017044600338037 -0.07134905086635054 -0.041987739558823976
-0.1309585237154394 -0.07483321057437362 -0.03831123566211072
-0.131945278609696 -0.07386004553912581 -0.03715401148379651
-0.12929710384697016 -0.07391222940562667 -0.038473568912156496
-0.12869937356800135 -0.07361706720469893 -0.037610791679032717
-0.130837883914414 -0.07265767084239425 -0.03587140893519727
-0.1288791858801275 -0.07298698650477828 -0.037605784888871584
-0.1266203933605581 -0.07372027264712752 -0.04180314397395459
-0.12879143294185694 -0.07223665343402327 -0.03950285172046033
-0.1302478724369436 -0.0723937712776512 -0.041958652492173586
-0.13154595729202326 -0.07166912780879439 -0.039264969583161745
-0.1317599528679281 -0.07114261017917098 -0.03867106890261975
-0.1292756610760122 -0.07046505437968673 -0.039223991389878664
-0.13084986444801386 -0.07074331866382064 -0.03853573655665723
-0.13120855029911097 -0.07027241216777266 -0.037709347959168825
-0.12893648084491785 -0.07010849939464034 -0.03860642766536084
-0.13058074947685297 -0.06972896681903304 -0.041242800708421144
-0.13132089015335138 -0.06880473719714583 -0.039719216580995
-0.13279983040184076 -0.06857588516353072 -0.04182618116916028
-0.13374043639988 -0.07664510236857833 -0.037113331313737306
-0.13382292922824915 -0.076567437516436 -0.037010274882920656
-0.13002475735038813 -0.07517715917705001 -0.03712867950976697
-0.13356893893570002 -0.07638415323375167 -0.036916010137208376
-0.13367208477348383 -0.07628902422069014 -0.03677447890818921
-0.12999374803394373 -0.07505648957370223 -0.03688635682643262
-0.13325343664974268 -0.07508796082614363 -0.0406654999214491
-0.13378639158100183 -0.07427411900638045 -0.03943555807650891
-0.1341233813414007 -0.07393475996135176 -0.040676675792344484
-0.0474534594664007 -0.07075056062816085 -0.03708200907290784
-0.049475576842728214 -0.07007243858455123 -0.034770093913682375
-0.0524847471365362 -0.07020148264048995 -0.03776695584834424
-0.04116010304779108 -0.0713738463985771 -0.036184631343491945
-0.042772170270386295 -0.07107138262866439 -0.03404145693362561
-0.05000513430923517 -0.07028630005000533 -0.037784747834809694
-0.046190019811096744 -0.07178884373782576 -0.037940554376252565
-0.04761120315879877 -0.07088014112590255 -0.036411576028474245
-0.05091109510749872 -0.07077967749713363 -0.04044278716624585
-0.04805564519256647 -0.06901016460536422 -0.038055531736024294
-0.050330426658096866 -0.06828379260180892 -0.035582833047517214
-0.05260020133346613 -0.06854205952762069 -0.038619123454698
-0.04120662447303827 -0.0703200362789482 -0.03743632888377515
-0.04273625847190912 -0.07012766228793563 -0.03513713931620923
-0.0500687622675329 -0.0693008564579338 -0.03888549661219922
-0.04629000660270746 -0.07014223562358321 -0.038960568662293825
-0.047596808637085514 -0.06928526984332503 -0.037393443341859255
-0.05097177263588007 -0.06914928184626998 -0.04150991892398206
-0.052655335629883365 -0.0719941519367546 -0.03469362115443555
-0.053366031611862735 -0.07159626113055648 -0.0335929319816908
-0.05334996816009577 -0.07164260374186934 -0.03553982829631177
-0.049658414090576725 -0.07137232648013533 -0.034333132262833986
-0.05078467365593012 -0.07098185645221175 -0.033157847877152834
-0.05283814307540949 -0.07110908256648482 -0.03555976604998914
-0.0507459604391485 -0.0725369118320793 -0.03616320347369519
-0.051595892871323185 -0.07190194355128707 -0.034944795127519045
-0.05520456668228205 -0.07124688850520552 -0.03817971801341382
-0.04992860194534357 -0.06702279673694075 -0.03942912077487317
-0.052861597503128605 -0.06595173107264937 -0.03667416429103223
-0.053440775836411075 -0.06643566118358077 -0.039890460725434694
-0.04295006033271845 -0.06880500541804732 -0.039007507320054445
-0.044515546525421695 -0.06851288305400313 -0.036747507806428346
-0.05110430356353815 -0.06783461199878157 -0.04028635477603284
-0.04793879028648432 -0.06811973081706466 -0.040425263400681886
-0.04922800895065363 -0.0672639273273796 -0.03879921888888684
-0.052696582044067936 -0.06701108442424239 -0.0429589078384718
-0.062015559638443546 -0.07720535622714461 -0.028888277764924437
-0.06592499848693903 -0.07680683957217635 -0.02451618766368237
-0.0720179342874914 -0.07674547659038009 -0.029494486804612547
-0.04975571867317255 -0.07382225619433821 -0.027557395454057127
-0.05420788761467035 -0.07401319967387618 -0.024165563340791136
-0.06314777966827448 -0.07332905756114425 -0.029523752685197264
-0.05117416020721491 -0.07820039616702498 -0.030024521108277708
-0.056026633943024234 -0.0767258368599266 -0.026787631269105345
-0.061978843177261905 -0.07628902422069014 -0.032121382709153566
-0.0642957651266485 -0.07233446465609969 -0.029173158164628416
-0.06856763001770075 -0.07187977062343062 -0.02443151926577893
-0.07368838425964411 -0.07207619773028792 -0.029456131215699583
-0.05308946606010492 -0.0711360238659233 -0.028293572421677977
-0.056985076631012516 -0.0714857541191429 -0.024546407218583494
-0.0661006533750921 -0.07064500080226363 -0.030099175925858885
-0.05687018867820795 -0.07379430161593856 -0.030591689105637938
-0.0611144268164068 -0.07240417228816451 -0.02769725775302258
-0.06546407576889093 -0.07243582235454024 -0.03294130420268384
-0.0668338203081518 -0.07713621483920516 -0.02642702316821423
-0.06995245453208979 -0.0764761232006401 -0.022720031495698362
-0.07422539230674799 -0.07670002804873885 -0.026724360938676268
-0.05771094199508722 -0.0772463046181053 -0.025517664905198485
-0.06151827808708246 -0.07711398230670394 -0.022393487449296385
-0.06883346673339899 -0.0765691064464897 -0.026997022386201292
-0.060299333299103336 -0.078215386735186 -0.027834378238328367
-0.06407454248756464 -0.07682582365153731 -0.025137238259919554
-0.06779202457756098 -0.07690178977130355 -0.029682688470490843
-0.06611755129188593 -0.07568463312266768 -0.026741169448502928
-0.06928050156921442 -0.07514440642474593 -0.02279197430194226
-0.07399752374977167 -0.0752808414566368 -0.02701707934916821
-0.05662369366973932 -0.07571905480502547 -0.025791160817750364
-0.06044500705093439 -0.07566174493907393 -0.022536389585145384
-0.0681511723646551 -0.07504316793559493 -0.02735849475444165
-0.05938773986190851 -0.0767732821571678 -0.0280818269211134
-0.06324812408775385 -0.07537889109729232 -0.025376431699403196
-0.06698512669891413 -0.07547592745898665 -0.03005140280307141
-0.10722228523582514 -0.06962886081813277 -0.03640528773845044
-0.11135393020004328 -0.06852340327380599 -0.03188105678141919
-0.11480250593513544 -0.06923555956958236 -0.036550991292603884
-0.09629305836051996 -0.06789618359683455 -0.03470157837451306
-0.09986927744239862 -0.06789454446910323 -0.03060447430194226
-0.1067648493894964 -0.06774577127574385 -0.035876743550904665
-0.0979452693113714 -0.07044982539294661 -0.037986449952729616
-0.10213520761817987 -0.06895202027438582 -0.034720830674775514
-0.10756021376937921 -0.06869789587138594 -0.039867542739518556
-0.10748266812652643 -0.06683235989688338 -0.04122006153643933
-0.11203407880157526 -0.06570517645953597 -0.036519937272675905
-0.11516293522209223 -0.06645655261157454 -0.04117970919192639
-0.09707370039314325 -0.06605335699199141 -0.0403167233425459
-0.10037105914444025 -0.06626638399241866 -0.03609012817920056
-0.10820147034019525 -0.06584101544497908 -0.041471295114167604
-0.10196733113616999 -0.06919434295772017 -0.042685024495728884
-0.10563602682441767 -0.06792544947741927 -0.03993799542964307
-0.1099612080702215 -0.06787439809916915 -0.04509546613276807
-0.11297097441047724 -0.07230239735721053 -0.0367577896076521
-0.11630344029754694 -0.07111066208957137 -0.033512018676408205
-0.11631320055812891 -0.07195499168513717 -0.03658335661471692
-0.10707234975189264 -0.07090380416987838 -0.036306969876893434
-0.11001464363426264 -0.07039793954966964 -0.03328900789798108
-0.11401912208885248 -0.07058128343699874 -0.03699996327937451
-0.10973535117000635 -0.0721750818359703 -0.038122765775330934
-0.11196164425701197 -0.07122787462352217 -0.035867415423997316
-0.11500692006439264 -0.07119083033679427 -0.039870552774079714
-0.08295404549926813 -0.06656717883227767 -0.03620892023623792
-0.08463486667961176 -0.06639667974589766 -0.033213041778214845
-0.089150872195664 -0.06646617876170577 -0.03666134929240552
-0.07695501681655939 -0.06536218153117598 -0.035026900525697145
-0.0784266256937414 -0.06540149079440535 -0.032424114699967775
-0.08509051438659723 -0.06515848265765609 -0.03630375122607556
-0.07678550120681818 -0.06756525860904158 -0.03714882587970105
-0.07894956704467829 -0.06682267414210738 -0.03507056092799512
-0.08462807175010736 -0.06628602372287215 -0.03918009256900159
-0.08328073855728205 -0.06621956454394759 -0.03742643451274243
-0.085289206469956 -0.06600385533450545 -0.034291885848649416
-0.08950674172729547 -0.06614586340068282 -0.03770541405261365
-0.07713803287834223 -0.06511979924319686 -0.03630676126063672
-0.07868986960739191 -0.06521844493030013 -0.0335861370521864
-0.0857695006975561 -0.06487574802516402 -0.037575237508424196
-0.07843538757652338 -0.06716611610530318 -0.03826387977183667
-0.08053364988655146 -0.06645923482058944 -0.036313675399430666
-0.08589481946319635 -0.06596362219928206 -0.040478162522920046
-0.08779161807388361 -0.06911638008235396 -0.03482004260600415
-0.08890935417503412 -0.06883111225245894 -0.032982491012223634
-0.09117775794357355 -0.06902652608035506 -0.03504960989535657
-0.08393758174270685 -0.06893384085772933 -0.03421621775210706
-0.0851370954164892 -0.06877761708377303 -0.03234591340602246
-0.08913471933692987 -0.06884011255382003 -0.034937165732987795
-0.08564933773368891 -0.07020637022136153 -0.035943739171632204
-0.08705809351295526 -0.06961902605174483 -0.03453209256709424
-0.09073242184013422 -0.06927936898349227 -0.037727080340989504
-0.08705126878112848 -0.0682002864944786 -0.03504016255915967
-0.0882728957781225 -0.06792085991977156 -0.03298332547725049
-0.0908538066992193 -0.06809499488948287 -0.03522994374812451
-0.08275809522956903 -0.0680801533329338 -0.034377180095323
-0.08396067854255732 -0.06796541439174117 -0.032322995420106325
-0.0885473155626684 -0.06794720517276229 -0.03516393160403577
-0.08511387940734919 -0.06930687652705611 -0.03604801749766675
-0.08659991260856684 -0.06870010124324263 -0.034596793408997926
-0.09033730264991816 -0.06837397442935408 -0.0379840657669386
-0.05723929044097956 -0.069395806657061 -0.03349479293406812
-0.05972435709327753 -0.06823789702533187 -0.030875049586900145
-0.061046119893494205 -0.06853392349360884 -0.03407480573237744
-0.050605353082123355 -0.07079568134425582 -0.03233429050029126
-0.05237349506706293 -0.07021918521998824 -0.02986454224170056
-0.058824416364136295 -0.06942161546824874 -0.03386252379000989
-0.05592152115196283 -0.06992995368121566 -0.03425847744525281
-0.05730911728233393 -0.06887468324778975 -0.03263755893290845
-0.06016075250000055 -0.06889465080378951 -0.03674941515506116
-0.05758183833450373 -0.06802090631602706 -0.03461172437251416
-0.06056207057327326 -0.06665619836924971 -0.03173407172740308
-0.061355944837036686 -0.06703123079417647 -0.035035066362031374
-0.050723310674133854 -0.07000630723117293 -0.03360127663195935
-0.052353646720352726 -0.06947239862559737 -0.031123064513810545
-0.05896621581405695 -0.06861048565982283 -0.03503366565287915
-0.05609431501716669 -0.06851976739047469 -0.035274289603837404
-0.05741664406150873 -0.06754490362285079 -0.03367214655459729
-0.0603740179190069 -0.06746634470103682 -0.0378481969791731
-0.06220611568779047 -0.07097595559237899 -0.031228236909516722
-0.06286418076843317 -0.07048150526164473 -0.02999412273944226
-0.06199377414077814 -0.07026439534305037 -0.03189789509356824
-0.05975421902031 -0.07045769320605696 -0.030520819182999998
-0.060868587459030704 -0.06999152527926863 -0.02930825209201184
-0.06149503227562006 -0.07012912260173262 -0.031805746312745485
-0.060583945477905826 -0.07154985891459884 -0.03256692742884961
-0.06139969464630182 -0.07084622608302535 -0.03131973003924695
-0.06468820210784967 -0.07019754873393477 -0.03449922060550061
-0.05971157189697321 -0.06634345279811324 -0.03628998255313245
-0.062285956109467105 -0.06491413341639937 -0.03360583638728467
-0.06215747829765375 -0.06523578988192977 -0.03684272622645703
-0.05285161372512873 -0.06751784311412276 -0.03597762441218701
-0.05479839083046015 -0.066850241290316 -0.03356441115916577
-0.06018480297416742 -0.06626537071345748 -0.03711628174365369
-0.05803712841362055 -0.0671241544353813 -0.03737240290225354
-0.059306498731079654 -0.06622191892741622 -0.03574507689059583
-0.06244524952262934 -0.06595933066485823 -0.03984501218379346
-0.09896182652801569 -0.07171332465289534 -0.03540685033381787
-0.10198416944831903 -0.0701701007950157 -0.032389961238511476
-0.10248529549926813 -0.07099806891559066 -0.03569521760524121
-0.09263154503196772 -0.07094028221248092 -0.03417646145404187
-0.09503298636764582 -0.07024046407817305 -0.031125687118180662
-0.0995082223066717 -0.07022451983569564 -0.03519608830989209
-0.09541582700103815 -0.07235559450267257 -0.03682260965884534
-0.09813192125648554 -0.0707819126713127 -0.03437870001376477
-0.10156321164459284 -0.07089325414775313 -0.038639955278047
-0.0985873603472143 -0.07082402335284652 -0.036783598418839845
-0.10195949312538202 -0.0690143071281761 -0.03363838052333203
-0.10210862394661005 -0.06990366803286971 -0.03709145640910474
-0.09244182344764765 -0.06995948778270186 -0.035959772821076784
-0.09477790829032953 -0.06931835042117537 -0.03273411845744458
-0.09941491123527582 -0.06925993786929549 -0.03690072154582349
-0.09612217184394892 -0.07105266677020491 -0.038116179462083254
-0.09837257500976618 -0.06965699421046675 -0.035781197305329714
-0.10176789399475153 -0.06974982844470443 -0.04014941310466138
-0.10220554109901483 -0.07381376253245772 -0.03397177910388318
-0.10335674520820673 -0.07274382935641707 -0.03221809124530164
-0.10241734620422419 -0.07290812955974044 -0.03398042177737561
-0.09921121236175592 -0.07182609664081038 -0.03333856916011182
-0.1011517905840307 -0.07103347407458724 -0.031118415351518065
-0.10233088966697748 -0.0713079832661003 -0.03380095219195691
-0.10062586900085504 -0.07318430768130721 -0.035479478593476686
-0.10224273439735468 -0.07199573145984114 -0.03344260906756726
-0.10498958464950617 -0.07184475289462508 -0.03692900394976941
-0.10150834556907709 -0.07238667832492293 -0.034293703790315065
-0.10265749331802423 -0.07120918856738509 -0.03237258648455945
-0.10201176639885004 -0.07144561039088668 -0.0343960747677168
-0.09783836838096674 -0.07046603785632552 -0.03376176213801709
-0.09988954302162226 -0.06962072478412093 -0.03133838629306165
-0.10176345344871576 -0.06983622537730635 -0.03430169081271497
-0.09983792539924677 -0.07189094649432601 -0.03570326423228589
-0.10151925321907099 -0.07067200170634688 -0.03364639734805432
-0.1043314301618963 -0.07056089864848555 -0.037329159732468996
-0.06196367379516657 -0.07461732255099715 -0.029791377540238768
-0.06512292858451899 -0.07368510590671004 -0.026937089915879637
-0.06707739468902643 -0.0742275081741661 -0.030167929883607298
-0.0556718968996435 -0.07406258212207259 -0.02956181025088635
-0.057755764687958316 -0.0740027390587181 -0.026831947322495848
-0.06448632117599543 -0.07363429294703902 -0.030512027497895628
-0.0600078069815069 -0.0760336183178276 -0.031173847671159178
-0.06244375940650995 -0.07490011678813399 -0.029018156285890013
-0.06674167152732904 -0.07471561061023177 -0.03332253551066724
-0.06200450297683771 -0.07311340795634688 -0.030905030723222166
-0.06546550628036554 -0.0719994567501396 -0.028000943418153196
-0.06703874107688959 -0.07259246336100997 -0.031343959327348146
-0.05573045846313532 -0.07250168548701705 -0.03096150612414685
-0.05772852536529596 -0.0725383721458763 -0.028201811071046263
-0.06463724013656671 -0.07211130486606063 -0.031848691459306154
-0.06057744857162531 -0.07395341621516646 -0.03226669883311597
-0.06266423698753412 -0.07293754445193709 -0.030212484355576903
-0.06688138481468256 -0.07276096569179 -0.03455358004153577
-0.06610417004913385 -0.07600661741374434 -0.02748327707827893
-0.06732684012741144 -0.07525622473834456 -0.02594625210345593
-0.06709697481483515 -0.07544651256679 -0.028084509130128294
-0.06319898005813654 -0.07356404887317122 -0.02734076237262097
-0.06550201412529047 -0.07295178996203841 -0.025512777324326903
-0.06687894102424677 -0.07342317329524459 -0.028267107959397703
-0.06439584132522638 -0.07605728136180342 -0.029285453315385252
-0.06588565942138727 -0.07518812643168868 -0.027420751805909544
-0.07005813356727655 -0.07466205583690108 -0.03105007862628308
-0.06443336244911249 -0.07189735399363936 -0.03025092935145703
-0.06694706913322504 -0.07068422065852584 -0.027753822560914427
-0.06709655758232172 -0.07112308965800704 -0.030789040084489256
-0.05883133050293024 -0.07094135509608687 -0.030504427905686766
-0.061412986482086734 -0.07050805913089217 -0.027976028676637083
-0.06588452693313654 -0.07052799688456954 -0.031206719632752806
-0.06293299433082636 -0.07268082724688948 -0.031805090661652956
-0.06468358274787958 -0.07170474158404769 -0.029780797715791136
-0.06890225049346979 -0.07134121285556258 -0.03399195527613965
-0.1170543545135885 -0.06793382393001021 -0.03480120753825513
-0.11797476943821009 -0.06758176909564437 -0.03342091297686902
-0.11865949269622858 -0.06777503715632857 -0.03455280518115369
-0.1146962606558233 -0.06695183740733565 -0.03428526973307935
-0.11597106989711817 -0.06658175216792525 -0.03278600430072156
-0.11807313200325067 -0.06679692493556441 -0.034485749955781374
-0.11468958493560846 -0.06831672416804732 -0.03576897835315076
-0.11569863196701105 -0.06767168270228804 -0.034363262410767946
-0.11863436933845575 -0.06729891525386275 -0.03714486217082349
-0.11774104472488459 -0.0689915381538719 -0.03407170629084912
-0.11859270569175775 -0.0685802959072441 -0.032609693761475954
-0.11909506853908594 -0.06877460704921187 -0.03393851971209851
-0.11528274055809076 -0.06769227610705794 -0.0334238634067854
-0.11658782895893152 -0.06726654993174971 -0.03185742353976575
-0.1184441411146551 -0.06746595727084578 -0.033763520475037966
-0.11514326568931635 -0.0700538419353813 -0.035470567699082765
-0.11613528069347437 -0.06932460890887679 -0.03384029125750867
-0.11888222035259302 -0.06903680788157882 -0.03668194269717542
-0.12086012598365839 -0.06911962853549422 -0.032711438890107546
-0.12088861700386103 -0.06906038151858748 -0.03255622839511243
-0.11897961434215601 -0.06883281098483504 -0.03264483069957105
-0.12051333125919397 -0.06874173508761824 -0.03235708927691785
-0.12055696185916956 -0.06867262350200118 -0.03217115258754102
-0.11901360389083918 -0.06863122807620467 -0.03252749895633069
-0.11886375781387384 -0.06939378009913863 -0.034524284358628664
-0.11934017773956354 -0.06905680523990096 -0.033813558574326906
-0.12242747482151087 -0.06822543965457381 -0.03544046735347119
-0.07830738660186823 -0.07325452195285262 -0.0300860629040083
-0.08000501629203852 -0.0733875297176689 -0.02739753579676953
-0.08545580145210321 -0.07338329778788985 -0.030545048471101195
-0.07254284259170588 -0.07180156932948531 -0.02929040050090161
-0.07402401801437433 -0.07208644972918929 -0.026949934716828734
-0.08152970310539301 -0.07180621849177779 -0.030540756936677366
-0.06958296533912714 -0.07384696231959761 -0.030725561137803465
-0.07168444629997309 -0.07333069668887557 -0.028881423230775267
-0.07873075839370783 -0.0725868307220787 -0.03290905808986035
-0.07871037360519464 -0.07205983625529708 -0.031379543300279054
-0.08049845334381159 -0.07225808130382003 -0.028568290229447752
-0.08590790268272455 -0.07230001317141951 -0.0316458568531355
-0.07284488912910517 -0.07072275506137313 -0.03062774991572705
-0.07437720533699091 -0.07107126341937484 -0.028202913756974608
-0.08225950237602289 -0.07072943078158797 -0.031860075946458254
-0.07183614012092646 -0.073337879048571 -0.032051943297990236
-0.07386269804328974 -0.0728575848209709 -0.030346803422578245
-0.08058359857887323 -0.07214471326945723 -0.03438713407100049
-0.08295514818519648 -0.07453095542071761 -0.02817340945781079
-0.08386376139015253 -0.07455411182521285 -0.026350133176453978
-0.08761795994133051 -0.07472464071391524 -0.028476737495072752
-0.07906639214843805 -0.07463624702571334 -0.02764179563105908
-0.08005720015853937 -0.07470917330859603 -0.02591770147860852
-0.08533689018577631 -0.07477017866252364 -0.02848892664492932
-0.07954865332931574 -0.07619157062648238 -0.029217176194795042
-0.08088001247734125 -0.07570886241076888 -0.02792613958896008
-0.08596816297859247 -0.07517227159617842 -0.03113462781489697
-0.08242046471923883 -0.07358660923121871 -0.028447471614488035
-0.08346724149078424 -0.07362481580851973 -0.026444308515199095
-0.08740561839431818 -0.07378130780337752 -0.028758220430024534
-0.07818939920753534 -0.07346513496516646 -0.02790366863787976
-0.07925605412811335 -0.07356938348887862 -0.026034496780045897
-0.08489679929107721 -0.07359790431140364 -0.028827928062089354
-0.07904022570938166 -0.07521438227771224 -0.02941828226626721
-0.08044290181488092 -0.07472878323672713 -0.028098426814683348
-0.08561154838890131 -0.07418411599276961 -0.03148474549830762
-0.09677117701858576 -0.06834986435054244 -0.030726246591218382
-0.09922760363906916 -0.06816160308001937 -0.02776142215312329
-0.10361951228469904 -0.06833096967814864 -0.03111603116572705
-0.090475734437409 -0.06659194456218184 -0.029886983390458494
-0.09288623567909296 -0.06662562118647994 -0.02722697710574475
-0.0989681148180395 -0.06662621723292769 -0.030966989751466185
-0.0880561136850744 -0.06996526943324508 -0.031734369750626955
-0.09100579854339655 -0.06912520156978072 -0.02944477653086987
-0.09709229704231317 -0.06840890275119246 -0.033621273990281496
-0.0969234370836645 -0.06749114023326339 -0.032109491582520876
-0.09917118784278925 -0.06739088522075118 -0.028999351020463377
-0.10386240121215876 -0.06755318866847457 -0.032372705693849
-0.09071910020202692 -0.06635236369250716 -0.03139036154330579
-0.09282135602325495 -0.06653260813830794 -0.028613887782700926
-0.09939300652832087 -0.06643232332347335 -0.03247760986865369
-0.08943140145629938 -0.06885262952922286 -0.03324412560046521
-0.09206333395332392 -0.06810149179576339 -0.03108512615741101
-0.0975768828043371 -0.06753190981028975 -0.03521876787722913
-0.10132118698448236 -0.0700787864792198 -0.029238335843690306
-0.10310169693321283 -0.06965162979243697 -0.027134977336533934
-0.10570186015457209 -0.06996211038707198 -0.029319934602387816
-0.09712311264366205 -0.07000428067325057 -0.028651766534455687
-0.09915887948364313 -0.06966596470950545 -0.026656232829697996
-0.1032812559255987 -0.06980177389262618 -0.02932827925265637
-0.09673785802215631 -0.07134881244777144 -0.030471347327836424
-0.09860950347274836 -0.07062282787440718 -0.02871432160914746
-0.10206642385810907 -0.0703483782875389 -0.031874917503007326
-0.10248154040664728 -0.07114383207438887 -0.02930166577876416
-0.10408404108375605 -0.07072102652667464 -0.0275400207001051
-0.10618832346290644 -0.07101812587855758 -0.02943315362513867
-0.0990252458700567 -0.07071587072490157 -0.028806440587647825
-0.1008473598608404 -0.0703815482723564 -0.02708577370227185
-0.10421216126770075 -0.07057964430926741 -0.02937235688746777
-0.09792175527900751 -0.07280689107058944 -0.030834995265611082
-0.09967186685890253 -0.07210093365786971 -0.029127262588151365
-0.10317635175079401 -0.07178216801761092 -0.03204970812381116
-0.05095818277687128 -0.07142462955592574 -0.03318955754817334
-0.052980300153198795 -0.07074644790767134 -0.030877612586625486
-0.05598944064468439 -0.07087552176593245 -0.03387450432360974
-0.04466479655593927 -0.07204785572169722 -0.03229217981875745
-0.04627686377853449 -0.07174542175410689 -0.030148975606568724
-0.053509827817383365 -0.07096033917544783 -0.03389226650775281
-0.049694743121567325 -0.07246288286326827 -0.03404804324687329
-0.051115896666946964 -0.07155415044902266 -0.03251906489909497
-0.0544158184179693 -0.07145371662257613 -0.03655027603686658
-0.05156036850303705 -0.06968417392848433 -0.0341630802112898
-0.05383514996856745 -0.06895780192492904 -0.03169035172046033
-0.05610489484161432 -0.0692160688507408 -0.0347266719299635
-0.044711317981186466 -0.0709940754043907 -0.03354384755671826
-0.046240951980057315 -0.07080170141337813 -0.03124468779147473
-0.05357348557800348 -0.0699748955833763 -0.034993015285142336
-0.04979472991317804 -0.07081624494670333 -0.03506811713755933
-0.05110150214523371 -0.06995927916644515 -0.03350093221247998
-0.05447649594635065 -0.06982332097171248 -0.037617407794602785
-0.05616002913803156 -0.07266816125987471 -0.03080113982737866
-0.05687072512001093 -0.0722702704536766 -0.02970045065463391
-0.05685469147056635 -0.07231664286731185 -0.03164737677157727
-0.05316307779640253 -0.07204636560557784 -0.030440650935777098
-0.05428936716407831 -0.07165586577533187 -0.029265366550095945
-0.05634286638588007 -0.07178315149424971 -0.03166731452525464
-0.05425068374961908 -0.07321092115519942 -0.032270751948960695
-0.055100616181793766 -0.07257598267672957 -0.031052313800462156
-0.05870928999275263 -0.07192089782832564 -0.03428726648867932
-0.053433295453491764 -0.06769680606006087 -0.035536669250138674
-0.0563662910112768 -0.0666257105934471 -0.03278171276629773
-0.05694543954223688 -0.06710967050670089 -0.03599797939837781
-0.046454724038544254 -0.06947901474116744 -0.03511502599299756
-0.0480202102312475 -0.06918692217944564 -0.03285505628169385
-0.05460902687400873 -0.06850865112422408 -0.03639390325129834
-0.05144348379463251 -0.06879376994250716 -0.036532782073625
-0.05273270245880182 -0.0679379664528221 -0.03490673756182996
-0.05620127555221613 -0.06768509374736251 -0.039066456313737306
