ply
format ascii 1.0
element vertex 396
property float x
property float y
property float z
element face 0
property list uchar int vertex_indices
end_header
0.12617835807390154 -0.0565005243608877 -0.06189552451263086
0.12155303763933122 -0.055218577463380984 -0.057253186951977175
0.11768165635652482 -0.055827379305116824 -0.062377696286541384
0.13701793956346453 -0.055185318071596316 -0.060709839116436404
0.13336611198968829 -0.055216252882234744 -0.056830202590328616
0.12498197364396989 -0.0546292663404867 -0.06237632537971155
0.1320809166390413 -0.05729070313667505 -0.06355637813697473
0.1278777759034151 -0.05578428514694422 -0.06050295139442102
0.12344316052980363 -0.05586251624321192 -0.06582248712669031
0.12499714302606522 -0.0538740754911825 -0.06437287236343042
0.11985737490243852 -0.052479595024339847 -0.05977598334441797
0.11685935067720353 -0.053251087743990115 -0.06487617398391382
0.13616094398088396 -0.05433779962753504 -0.06428599859367029
0.13293871688432635 -0.05467981107925623 -0.06014204527030603
0.1232337098080629 -0.053703308183901004 -0.06584457064757959
0.12855047392435015 -0.05538424857353418 -0.06618255878577844
0.12510443138666094 -0.054213047106020144 -0.06370771433005945
0.12118021058626115 -0.0543478132078573 -0.06909111643920557
0.12016666340417802 -0.05988779671882837 -0.06161389256606714
0.11707318234033524 -0.05870392926429956 -0.05847457553039209
0.11625728416032731 -0.059290587980501346 -0.06176725531707422
0.12633559512681902 -0.05867618330215662 -0.061746512900692385
0.1234146397072786 -0.058308452446214847 -0.05879411603103296
0.11814293670244157 -0.05822497614120691 -0.06263694668899195
0.12198916482515275 -0.05932894356941431 -0.06328529621253626
0.11963048982210099 -0.05841457851623743 -0.06116974855552332
0.11589792775697648 -0.05822005875801294 -0.065490459452969
0.07861426877565324 -0.056679159481279544 -0.06281522418151514
0.07810610937662064 -0.056432932693712405 -0.061829393159252566
0.07727128672189652 -0.05644932397102564 -0.06288728619704859
0.08025741982049882 -0.05599811681007593 -0.06224859262595789
0.07968208598680436 -0.05575981744026392 -0.06124127412925379
0.07758120107240617 -0.05571749814247339 -0.06290376688132898
0.08117655324525773 -0.05755934127067774 -0.06398219371925012
0.08044511484689652 -0.056992322284929446 -0.06298715377936975
0.0781316499669069 -0.05652016409134119 -0.06558016444335596
0.07871747421808183 -0.058508783657304934 -0.061624204169613284
0.0781757276017183 -0.05821064122413843 -0.06055009866843836
0.07769158887453019 -0.05824157603477686 -0.06177571917663233
0.08046892690248429 -0.05784678467010706 -0.06093061472068445
0.07987246322221696 -0.057561040003053836 -0.05983067060599939
0.07799217509813249 -0.0575039685556814 -0.06163856888900415
0.08117312597818314 -0.05943423517441004 -0.06321982051025049
0.08027521180696427 -0.05871713169311731 -0.06207207347045557
0.0782626907784456 -0.058356314975969485 -0.06467170025001184
0.07545131849832475 -0.05847764023040979 -0.06113005186210291
0.07544371890611588 -0.05850854523872583 -0.061235462676388186
0.07653513955659806 -0.05817431219314783 -0.06057358289847986
0.07557949828691422 -0.05837059028839319 -0.06093866134772913
0.07557094502038895 -0.05839630969261377 -0.06104431058059351
0.0765125195939058 -0.05810642250274866 -0.06052873040328638
0.07626587557382523 -0.05842733391021936 -0.06260383630881922
0.07615346121377885 -0.05834090717529505 -0.06243491674552576
0.07387897777147233 -0.057301133949510745 -0.0637991478551449
0.07554695415086686 -0.0607279241869375 -0.06050763035903589
0.07532394337243974 -0.060823202211610965 -0.06075555587897913
0.07663321899957597 -0.06034195430969446 -0.05986518169532434
0.0754654746014589 -0.060781031925432376 -0.060612713347774905
0.07523885774202287 -0.060882031996004275 -0.06085753942618982
0.07663450049943864 -0.060369432050935916 -0.05991200114379541
0.07570609855241715 -0.060534060079805545 -0.062376653205257815
0.07569575714654862 -0.06052598365043848 -0.06236058975349085
0.07342914151735246 -0.05938401826118677 -0.0633547058213772
0.09971392559595048 -0.057024657804720096 -0.06773019338737146
0.09468019413537919 -0.055504083711855105 -0.06311190630088465
0.09186289119310319 -0.056364923794023684 -0.0680827548612179
0.11158940600938737 -0.05684393652176111 -0.06655672694335596
0.10602134871072709 -0.05631443865989893 -0.06254590059409754
0.09985754298753678 -0.056251376945726565 -0.06795746589790003
0.10710004376954972 -0.05792534359192102 -0.06970784569869654
0.10235286163873612 -0.056182861406557254 -0.06651711965690271
0.09934708880968034 -0.05669119961952417 -0.07164735103736536
0.09928560661859452 -0.05431360014175623 -0.07177630568633692
0.09351438688821732 -0.05259659894203394 -0.06699100638518946
0.09206796097345292 -0.05374798186516016 -0.07191092277656214
0.11047262358255326 -0.05377587683891504 -0.0714304795373501
0.10586148905343949 -0.05368137367462366 -0.0671497931588711
0.09833133625574052 -0.053170532066576175 -0.07282349969039575
0.10389954256601273 -0.05483689912056177 -0.07376575971732752
0.10049966382570207 -0.053621292192690066 -0.07101056481490747
0.09748721527643144 -0.05399417885040491 -0.07635695243964807
0.0938510935265535 -0.059615165073625735 -0.06782064343581812
0.09201986002511918 -0.058684259731523684 -0.06467327977309839
0.09120983290262162 -0.05914786465858667 -0.0678059210885586
0.10072598266191422 -0.05717122562622278 -0.06764063740859644
0.09790376233644425 -0.056707203466646365 -0.06457001472602503
0.09314233469552934 -0.056606590826265506 -0.06873092557082788
0.09851307081766068 -0.05865544088577478 -0.06964222098479883
0.09579301285333573 -0.05742892630790918 -0.06708983088622705
0.09332523154802262 -0.05755090721344202 -0.07146880532394068
0.11637577819414079 -0.05404680975174158 -0.05677325035224573
0.11303127216882645 -0.05417427428459375 -0.05224743987212793
0.10706371473855912 -0.05436608203148096 -0.05684432889114038
0.12946960734910906 -0.04953357585167139 -0.05556959415565149
0.12532070684022845 -0.05016317971443384 -0.05150789524207727
0.11583954500741898 -0.049607098181001834 -0.05676925684104578
0.12915203380174578 -0.05667972572540491 -0.05723259354720728
0.12538311290330828 -0.05613958843445032 -0.05432740355620996
0.11655247616357743 -0.054976493198625735 -0.05982897187362329
0.11587581443376481 -0.053210735399477176 -0.060975049983364504
0.11134505676813065 -0.05321103342270105 -0.056190108310085696
0.10583642530031144 -0.05359759934639185 -0.06074974442611353
0.12683922457284869 -0.04986885197853296 -0.06036800647864954
0.12355408477373063 -0.05080792315696924 -0.056279485474926394
0.11325428294725358 -0.05009132631515711 -0.0615810504067959
0.12493685292787492 -0.0552764237711355 -0.06198490167747156
0.12153286146707475 -0.05475646265243738 -0.059685533295971316
0.1146110634762758 -0.05401012309288233 -0.06479886675964014
0.10916629838533341 -0.05716750033592432 -0.05758587027679102
0.10662547158784806 -0.057040423233263186 -0.05443102623115198
0.10220393943376481 -0.057314574796907596 -0.05760187412391321
0.11505824732370316 -0.055620610792390994 -0.05706248189101831
0.11298039960451066 -0.05589443453048914 -0.054299568187099856
0.10620665955133378 -0.05587306626533716 -0.05794820691238062
0.11513841557092606 -0.0579576195070669 -0.05868149305472986
0.11269483375139176 -0.05752542622780054 -0.05694035197387354
0.10744956540651261 -0.05707064278816431 -0.06067765260825769
0.10979953813142716 -0.057253033001177005 -0.05735525990615503
0.10690653729028642 -0.057084411461107425 -0.05397484208236353
0.10249576377458512 -0.05741021044944971 -0.057303344260555666
0.11609921264238297 -0.055461943227998904 -0.05681527162681238
0.11390245365686356 -0.055819481689684085 -0.053879176627499026
0.10662591862268388 -0.05568870909904688 -0.05776763464103357
0.11561140822954118 -0.057928949672929934 -0.05847684050689356
0.11307412790841996 -0.05748051412796228 -0.056699877034527224
0.10785305904931962 -0.057031273920290164 -0.060596947919231814
0.09259060430116593 -0.05740046509002893 -0.062434708129269045
0.09150013732500016 -0.055827111084215335 -0.06039938832412378
0.09377912091798722 -0.056438356716386966 -0.06250039244781153
0.09727085041589677 -0.05511313684677332 -0.06156504655967371
0.09432107615060746 -0.053684800941698245 -0.058858071814876955
0.09419143604822099 -0.05441662677025049 -0.0620635202039303
0.09694606470651566 -0.05657649048065393 -0.06485593820701258
0.09506896543092667 -0.05496028073524683 -0.06221858168731348
0.09259799527711808 -0.05511775620674341 -0.06597820426116602
0.09326285528726518 -0.057312131006471805 -0.06350935007224695
0.09203887390680253 -0.05581906445717066 -0.06143647934089319
0.0941582362610811 -0.05630162366127222 -0.06353840733657495
0.09729817914552628 -0.055038064796678714 -0.06286123896728174
0.09472215580530106 -0.05378264196609705 -0.060189073335033816
0.09419927405900895 -0.05438059576248377 -0.0634130885709347
0.09656107830591142 -0.056289404709093264 -0.06553119922767298
0.09466186570711076 -0.0548341573069021 -0.06311625743995325
0.09234998035020768 -0.054925948459856204 -0.06682464982162134
0.0909349958855623 -0.057719320137254886 -0.0635457983125271
0.09017441081590592 -0.05678367622589319 -0.06229669357429163
0.09312481092996537 -0.05618023880218714 -0.06330544258247034
0.09257346796579301 -0.05674675114845484 -0.06284356619010584
0.09167293119020402 -0.056190490801088504 -0.06136781479011194
0.09326827930993974 -0.05617672212814539 -0.06300771738181726
0.09221771764345109 -0.05658730872368067 -0.06516647840629236
0.09105068850107133 -0.055596023876421145 -0.0634239664186062
0.08869865941591203 -0.05507978804802149 -0.06609568501601831
0.0911466817814821 -0.05624365814422815 -0.06394210959563867
0.09011856126375138 -0.05509668596481531 -0.0624127736199917
0.09285170244760453 -0.05461660035347193 -0.0636836042512478
0.09320232677049577 -0.055365741331331424 -0.06322074438224451
0.09208128261156022 -0.05471575268005579 -0.06148240471969263
0.09320503878183305 -0.054811239320985965 -0.06344512606750147
0.09233832764215409 -0.055497109968416385 -0.06534237171302454
0.09110939907617509 -0.05448436744903772 -0.06357369328628198
0.08875915813035905 -0.05401578553413599 -0.06644589210639612
0.10853508519716203 -0.05985626586174219 -0.05701962615142481
0.10695687341279923 -0.05846524246429651 -0.054134463321072024
0.10656768488473832 -0.058996290046922854 -0.057247226487499636
0.11534521388597428 -0.05716732152198999 -0.056320582877499026
0.11269641327447831 -0.056414425451509646 -0.053078894864422244
0.10846162247247636 -0.05641111739372461 -0.05742696429381983
0.11254921960420548 -0.05932426460479944 -0.058790450345379275
0.10993886398858964 -0.05769547827934473 -0.056052898417812747
0.10708254980630814 -0.05793401606773584 -0.060663913737636965
0.10915714907236039 -0.05865603693222254 -0.058389579306942385
0.10717162894792497 -0.05701684959625452 -0.055273418675762576
0.10689807343072831 -0.05751314767097681 -0.0585162093747677
0.11557537722177445 -0.05583170064186304 -0.057915543567043704
0.1128836612660402 -0.055090159256212405 -0.054480110656124514
0.10857496070451676 -0.055068194944612674 -0.05885786319862024
0.11255631255693375 -0.05766305335258692 -0.06000608707557337
0.10985231804437577 -0.056033343155138186 -0.05727938319335596
0.10679147052354752 -0.05620440848564356 -0.06203303242812769
0.10563627290315568 -0.06148082025741785 -0.055708055745464724
0.10502160000390946 -0.06039729722236841 -0.05390435958991663
0.10584977674074113 -0.06010290988182276 -0.055505548964840334
0.10785589026994645 -0.05818802126144617 -0.054461484204632205
0.10676485704965531 -0.05759760745262354 -0.052451079141003054
0.10645434665269791 -0.057907998640291385 -0.05533555651794092
0.10823509502000749 -0.06049260504936426 -0.057233159791332644
0.10605392264909684 -0.05895662315582483 -0.054758911382061404
0.10335001754350602 -0.05878922351097315 -0.058633213292461794
0.10644483971185624 -0.060017317611925296 -0.05609101558814661
0.10552713679857194 -0.0587968529055044 -0.05398777629027979
0.10628500985689103 -0.05859854825233667 -0.055925016652447146
0.10909364032335221 -0.056639850218050174 -0.054886524926525515
0.10772702502794206 -0.05598905690407007 -0.05263758207450525
0.10697725820131242 -0.05632609136795252 -0.055821066151958865
0.10900015043802201 -0.0591371358225271 -0.05749869848380701
0.10675126719064652 -0.057554066259615115 -0.054991905938488406
0.1040088574845308 -0.05745586760734766 -0.059056942712170046
0.0821381549794191 -0.051252186376802615 -0.061130081664425295
0.08108637141771256 -0.0507312417814657 -0.059695755492550295
0.08065423774309098 -0.05090960868095606 -0.06129903103004114
0.08500698613710343 -0.0505655706713125 -0.06058589125762598
0.08361301230974137 -0.05000594266151636 -0.05910322571883814
0.08154926108903825 -0.05011650927757471 -0.061130588303905886
0.08475667643136918 -0.052395820696108035 -0.06222114468703882
0.08377820658273637 -0.05199670799469202 -0.061146770964962405
0.08162090587205827 -0.05168169744705408 -0.06368536258826868
0.08178517627305924 -0.051991969425432376 -0.059965228091579836
0.08062526988573014 -0.051403492767564944 -0.0584437897313656
0.08061707424707353 -0.05163434155678003 -0.06023350859771387
0.084842834945392 -0.05124577887748926 -0.059336160670620364
0.08314609932489335 -0.05058828004097193 -0.05778265501151697
0.08188486504144608 -0.050822466690294436 -0.05986175442824976
0.08546340870447099 -0.05357134350036829 -0.06148541475425379
0.08417734908647477 -0.05302292116378992 -0.06014004851470606
0.08201188253946244 -0.05275174983238428 -0.06273347641120569
0.07780477809495866 -0.052928716022722415 -0.05911988521705286
0.07763478564805924 -0.05285546191429346 -0.058931802760464114
0.07970345425195634 -0.05259376772140711 -0.05949485803733484
0.07856715130395829 -0.05274653442596643 -0.05899444724212305
0.07834583925790727 -0.05265605457519739 -0.058755164395672244
0.07979566263742387 -0.05248084672188013 -0.05941054726730005
0.08016375112123429 -0.053143650371782473 -0.06095657254348413
0.07993856477327287 -0.053006678898088626 -0.06065956259856836
0.07716545867509782 -0.052229911167375735 -0.062189166795116824
0.0770245532948488 -0.05448156603073328 -0.0584723701585354
0.07708180355615556 -0.054516792375795535 -0.058549140941006106
0.07980367946214616 -0.05410698064064234 -0.05898824835906641
0.07717475699968278 -0.05441120274757593 -0.05839184428344385
0.07722041415758073 -0.054438680488817386 -0.05845648552070276
0.07985663818902909 -0.05407902606224268 -0.058942919026714724
0.0799733738858217 -0.05468961604332178 -0.06088474894652979
0.07983228969163834 -0.05459350355362146 -0.06068864966521875
0.07700822162218034 -0.053742587644807986 -0.06186867262015955
0.12118602203912675 -0.05682691939567774 -0.05664191151748316
0.11656064199991166 -0.0555450321028158 -0.05199954415450708
0.11268929051942765 -0.05615377433990686 -0.05712408329139368
0.1320254843194002 -0.05551174290870874 -0.05545619631896631
0.12837374615259112 -0.055542618114702395 -0.05157658959518091
0.11998957800455033 -0.05495563157295435 -0.05712265277991907
0.12708852099962176 -0.05761709817146509 -0.05830276514182703
0.12288538026399552 -0.056110680181734256 -0.05524930859695093
0.11845082449502885 -0.05618888147567957 -0.06056884432922022
0.12000480699129044 -0.05420047052597254 -0.05911922956596033
0.11486497926301896 -0.052805990059129886 -0.054522370349270266
0.11186695503778397 -0.053577482778780154 -0.05962253118644373
0.1311685781437868 -0.054664194662325076 -0.0590323557962002
0.12794635104722918 -0.05500620611404627 -0.05488840247283594
0.11824131416864335 -0.054029673416368655 -0.06059095765243189
0.12355807828493058 -0.05571067341064661 -0.06092891598830835
0.12011206554956376 -0.05453944214081018 -0.05845407153258936
0.11618784474916398 -0.05467420824264734 -0.06383747364173548
0.11517426776475846 -0.06021419175361841 -0.05636024976859705
0.11208078670091569 -0.059030294496767215 -0.05322090293059961
0.11126488852090775 -0.059616983015291385 -0.05651361251960413
0.12134319948739945 -0.059002608139269046 -0.05649289990554468
0.11842227387018144 -0.058634847481004886 -0.05354047323356287
0.11315054106302201 -0.05855140097831934 -0.057383274089199465
0.1169967691857332 -0.059655368406526736 -0.05803162361274378
0.11463812398500382 -0.058741003353349856 -0.055916105758053225
0.11090553211755692 -0.058546423990480594 -0.060236816655498904
0.10363421248979508 -0.05642691262459009 -0.05781344081054346
0.10076097058839738 -0.05566254265999048 -0.054582124005657595
0.09766835379190385 -0.05602964766716211 -0.05811083818565027
0.11078325318880021 -0.056180924255602054 -0.056456898700100344
0.10756081747598588 -0.055672586042635135 -0.05348861719260828
0.1028591136891359 -0.05585303910469263 -0.0574662735570492
0.11092952298707902 -0.0581412018129751 -0.059123431693416995
0.10784781384057938 -0.05696281798576563 -0.05661422515998499
0.10316786574907243 -0.05660539873337 -0.06085366512427942
0.1034125428158754 -0.055463373739473514 -0.0592270841706814
0.10053018140382707 -0.05468469866012781 -0.055739705811840456
0.09737044977731645 -0.05511185534691065 -0.059381907235485476
0.11034116553850114 -0.05513042219375818 -0.05803245807777063
0.10765251922197282 -0.05481022604202478 -0.05491138006339685
0.10234576868600785 -0.054812908251039676 -0.0591127624620022
0.10963100599832475 -0.05696275838112085 -0.06048375869880335
0.10684949564523637 -0.05587771542762964 -0.058092569362026614
0.10274920272417008 -0.055671155531160525 -0.06234092022071497
0.09852412747926652 -0.058699131090395144 -0.05606368685851709
0.09687799620218217 -0.057993322689287356 -0.053810452472073
0.0960789065320009 -0.05840256818031519 -0.05611116195808069
0.10300696301050126 -0.05781677373146265 -0.05539647246490137
0.100724581952762 -0.057171166021578006 -0.05318907405028955
0.09803063082284867 -0.05744552620147913 -0.05606744195113794
0.10278603839464127 -0.059644639570467166 -0.05755407119880335
0.1009377281624788 -0.05873134740089624 -0.055600320350033205
0.09878668593950211 -0.0587094128916189 -0.05884805823455469
0.09714347529001176 -0.0598497093508169 -0.05598816777358667
0.09564644503183305 -0.05921626098846643 -0.05405056978355066
0.09539601611680924 -0.059595108110658816 -0.05606267357955591
0.10101929711885392 -0.05873721845840662 -0.055407052289349
0.09881550478525102 -0.05810204156135767 -0.053478454600674075
0.09689888763017594 -0.058396130878679446 -0.055956070672375124
0.10145777868814408 -0.06112155326103418 -0.05783322955260889
0.09972626375741898 -0.06024017937874048 -0.05592287088523523
0.09748927163667619 -0.06013974555229395 -0.0589408030618252
0.1091278235871309 -0.05852228410934656 -0.06106317545066492
0.10461137103624284 -0.05805030472969263 -0.056350981246334475
0.09959745812005937 -0.05830326684211939 -0.0613330354798855
0.12030965494699418 -0.05780678995346277 -0.060074006568294924
0.11536202239580094 -0.05789062388633936 -0.05634382868896143
0.1077797155339235 -0.057624429542772464 -0.06157652045379297
0.1178856532532686 -0.060072809536211184 -0.06272396947036402
0.11308423089570939 -0.0586982668230459 -0.059597467433315676
0.10851270365304887 -0.05868768699859827 -0.0647633721936764
0.10833925413675248 -0.0563384891340658 -0.06374794746528284
0.10314304041452348 -0.05561363704895227 -0.05909735466132776
0.09965366530008256 -0.0563937128374502 -0.06375808025489466
0.11911133336610734 -0.05507713564132898 -0.06362587715278284
0.11490342425889909 -0.055590599853746585 -0.05964631343970911
0.10597643661088883 -0.05494111784195154 -0.06505799795280115
0.1135957281548494 -0.05777406700348108 -0.06566617394576685
0.10951373385972916 -0.05666744716858118 -0.06314218546043054
0.10589990424699723 -0.05686971553062647 -0.06822923327575342
0.10276669668741166 -0.060983300287477664 -0.0609038522351803
0.09984702276773393 -0.060243874866716556 -0.05763373280654566
0.09817919539995133 -0.060830324966661624 -0.060755585681301516
0.1097892861325258 -0.05923503645157068 -0.06085777784476892
0.10681403088159501 -0.05906426914428919 -0.0578690519441189
0.1008926670510286 -0.05891826756691187 -0.06177661324630396
0.10721111702508866 -0.06074377902244776 -0.062496518145901125
0.10459924149103104 -0.05981737383102625 -0.060183410893780154
0.10155556010789811 -0.05983185775970667 -0.06436145807395593
0.08845448898858964 -0.048825413067094973 -0.05715731288085596
0.08696264433450639 -0.04886090763305872 -0.05532679463515894
0.08270383286065995 -0.049282759506456546 -0.05695480610023157
0.09125611590928971 -0.04857769616340845 -0.056842481147152346
0.08965182709283769 -0.04863265164589136 -0.0551244070638241
0.08475423264093339 -0.0491046012232229 -0.05693552399764673
0.09572291779107987 -0.05103218563293665 -0.05788675452361719
0.0937910418469423 -0.05087307103370874 -0.05664638186584131
0.08693054723329484 -0.05028730638717859 -0.059361373435360354
0.08836636352128922 -0.049640446979753665 -0.056497102033001345
0.0868356864411348 -0.04963123806213587 -0.05463856960425989
0.08291146564073502 -0.05003115542625635 -0.056364928733211916
0.09154430436677873 -0.04894828804229944 -0.05610159541259424
0.08959627556390702 -0.04893714197372644 -0.05431557203422205
0.08502969550676286 -0.049381703216783694 -0.05620313192496912
0.09655973720140397 -0.051650345403902224 -0.05744696165214197
0.0943360071141237 -0.05138191588615625 -0.05591658259521143
0.08712259339876115 -0.05070537336563318 -0.058798973809582156
0.08367452430314958 -0.05188468106483667 -0.05534074212203638
0.08319032597131669 -0.05182185776924341 -0.054705088387829226
0.08038786458558976 -0.05219119795059412 -0.05526650453696863
0.08439931678361833 -0.05168494590019434 -0.05529189611564295
0.08390614795274674 -0.05162945397590845 -0.05465451384673731
0.0808050970990175 -0.05201143034195154 -0.05527642871032373
0.08703837203569352 -0.05355229981636255 -0.05654100085387842
0.08632019567079484 -0.053465634662859134 -0.05597642565856592
0.08195355939454972 -0.053243607361070804 -0.05745965744147913
0.0826598744351381 -0.054406613189928225 -0.05576074625144617
0.08259636568612992 -0.054400533516161136 -0.055716310988766116
0.08147365259714066 -0.05459144719337671 -0.05557644868980066
0.08165210890359818 -0.054698973972551516 -0.055822496663433474
0.08160642194337785 -0.054692775089494876 -0.055783306609493655
0.08090264010019242 -0.054814726192705325 -0.05563837791572229
0.08612305330820023 -0.055927068073503665 -0.05811238790641443
0.08548459815568864 -0.05574929722046106 -0.057548021327358645
0.08135182070321977 -0.055558413345567874 -0.058453058253628176
0.123317275520038 -0.054270565588228396 -0.06188053394446985
0.12300900029725968 -0.05398640044426172 -0.06112510467658655
0.12513274359292925 -0.05391204364990442 -0.06167924905906336
0.12441474604196488 -0.05344405778145044 -0.061468367825848025
0.12376061486787736 -0.053154736835710696 -0.0606294324506344
0.12528321551866473 -0.05337905891632288 -0.06167632843146936
0.1267636458832735 -0.0545113087484762 -0.06433171535621302
0.1255158226449007 -0.053739756424181155 -0.06268770004401819
0.12244356083459794 -0.05311602361892908 -0.06514826918731348
0.12292352723665177 -0.05507987745498865 -0.06127921248565332
0.1225313286740297 -0.054749697525255374 -0.06043032313476221
0.12456161188669145 -0.05466669805740564 -0.06115377451072351
0.12395689296312272 -0.05395889290069788 -0.06069717312942163
0.12329492377824723 -0.053625702936403445 -0.059782003413540286
0.12487212228364884 -0.053838312704317264 -0.06097502018104212
0.12650213050432146 -0.05553466089462488 -0.06397760416160242
0.12514874744005144 -0.054648816663973025 -0.06214917207847254
0.12213445114679276 -0.054074555713884524 -0.06473976875434534
0.12257650899476945 -0.05272126205658167 -0.062196021329265994
0.12258187341279923 -0.05259954937195032 -0.061924313556057375
0.12516981768197954 -0.05184847124313562 -0.06181884313712732
0.12316850232667863 -0.052150905210725955 -0.06176844740996973
0.12304640221185624 -0.052040457803957156 -0.061453615676266116
0.12501258062906206 -0.051650464613191775 -0.06172341610084192
0.12399459290094315 -0.052696347315065555 -0.0642099132646145
0.12318534063882768 -0.05213722594475 -0.06305692101607935
0.12033003973550736 -0.05118775375580042 -0.06479856873641626
0.12293461370058 -0.0520875752756521 -0.06328571344504968
0.12293807076997697 -0.05193537481521814 -0.06292525435577051
0.1252105872590059 -0.05125668652748316 -0.06297040487418787
0.12364173340387284 -0.05143019564842432 -0.06282973791251795
0.12345335292406022 -0.05129075058197229 -0.06240615750442163
0.1250243823487276 -0.05102026470398157 -0.06290945912490503
0.12419954347200333 -0.052056908685915164 -0.06507617736945764
0.12336996602601945 -0.05149596937393396 -0.06391415501723902
0.12047893213815629 -0.050581693727724246 -0.0658082118142666
