ply
format ascii 1.0
element vertex 451
property float x
property float y
property float z
element face 0
property list uchar int vertex_indices
end_header
0.17129427599496783 -0.0024575889894887706 0.34112610911239966
0.1691542010266298 0.0008478163888529042 0.3454929838072239
0.16828793692178667 0.0005777179410532216 0.34088465069641455
0.17892310428209246 -0.0007317961046621104 0.3435220966230808
0.17537144231386126 0.002783477227933715 0.3478966007124363
0.17263815211839617 0.0011970698049143056 0.3434671411405979
0.17590240048952044 0.0031863152196481923 0.3396814713369785
0.17192298578805865 0.011364489715345214 0.34330298994888647
0.1715188662964815 0.006701439540632079 0.3387083659063755
0.173712019200992 0.007705062549360106 0.34179606531967505
0.1731256287056917 -0.0008034408876821299 0.34250404929031714
0.17208493160791338 -0.0009960532972738047 0.3473590860258518
0.170382682557773 0.001410365026243041 0.34293123577942236
0.1784347038228029 0.005089491527326415 0.34315022324432715
0.17382300304956377 0.006299942653425048 0.3490153202902256
0.17226285147256792 0.0049974917581155995 0.3446326503645359
0.17391646313257159 0.0060707925965860585 0.3420657763372837
0.17237905072755755 0.009948611181028197 0.3464007029425083
0.17109904098100603 0.008263677280195067 0.34198471402038916
0.1710918586213106 -0.005890607912294557 0.33812590931763037
0.17145669865198077 -0.006491661150209596 0.34099003170837744
0.17208287524766863 -0.0020210743734761973 0.34026118611206396
0.1701835732419008 0.001258075158841918 0.3402593979727207
0.169736508603763 0.002150118272550414 0.3431082019697605
0.16976282405443133 0.0027833878209665517 0.34216173981537207
0.16970399427003802 0.001550137918241332 0.33985235785354956
0.16814461755342425 0.00556477896476538 0.34264328574051245
0.17015755581445635 0.00499799839759619 0.34077199791778906
0.174438599820804 -0.013849675733797242 0.28617652748932226
0.17357787894792498 -0.01319667704796045 0.28739997242798193
0.17642787503786028 -0.013015270311586549 0.28680654858459814
0.17664882945604266 -0.012861579735033204 0.2861092934500156
0.17534283208436907 -0.012124329883806398 0.28767045830597265
0.176299248214435 -0.01245003946518152 0.287350858200687
0.17742124604768694 -0.011211186725847413 0.2864714512716709
0.17546180295534075 -0.009805232364885499 0.28898301218857153
0.17650178479738177 -0.010657399971239259 0.28702982758392676
0.17589071797914446 -0.012222260315172364 0.28633161877502783
0.1751899461705202 -0.011903286058656861 0.28711023424972876
0.17761323260850848 -0.012607961971513917 0.2873845348249851
0.17794201182908953 -0.010741889555208375 0.2857704410444675
0.1772501211125368 -0.010623037893526246 0.28690775727142676
0.17775360154695452 -0.011908322651140382 0.2876916179548679
0.1798373203236574 -0.012721806843034913 0.28704145048965796
0.17899504708833636 -0.01190033562874048 0.28865548466553076
0.1787605028111452 -0.011846512634508302 0.28660794590820654
0.1743659715611452 -0.014614731151811769 0.28798052166809424
0.17577687310762347 -0.01501363523697107 0.28690757845749243
0.1818647723156923 -0.012984067280046632 0.28666552399505957
0.17383400010652483 -0.014947414476625611 0.2882502326857029
0.17521372842378558 -0.015349000770799806 0.28719260786880835
0.18163511561937273 -0.01304188378547876 0.28645678852905615
0.1798254589993471 -0.012067884285204103 0.286513889778751
0.17994937705583514 -0.012079775411836793 0.2851533541571079
0.18203911590166033 -0.011748761017076661 0.2882644781958042
0.1743277053791994 -0.011954605657808473 0.2900827178846775
0.17497566747255267 -0.012047648508302857 0.28972658013214453
0.17912874030656756 -0.011830002147905519 0.2896227488409458
0.1746360104043001 -0.011416614134065797 0.2897891054045139
0.17529121446199358 -0.011500328857652833 0.2894163975607334
0.17910650777406634 -0.011679679233781983 0.2898513326536594
0.17958608674592913 -0.00989469893669336 0.2896065363775669
0.1799468140561098 -0.010116547424547364 0.28867080305923803
0.18098649787492693 -0.00916486986374109 0.29069748019089087
0.1688490550477022 -0.017489701587907962 0.3086617836843906
0.16765216397828997 -0.017115980465166263 0.30970444773544653
0.1671623330075258 -0.017378717739336184 0.3086116561781345
0.17196220564432085 -0.016914606172792605 0.30785807465423926
0.17023921417779864 -0.016676277000658206 0.3091644296537815
0.16741621899194659 -0.017115712244264773 0.30824830626358374
0.1707808415848726 -0.016344755966417483 0.3086284646879612
0.17086837100572527 -0.01635062702392786 0.31096413229812964
0.16858831452913225 -0.01639550932144373 0.30876346920837744
0.16626003789491595 -0.016650527794115237 0.3105542311560093
0.16479909824914873 -0.01651990421508997 0.311296547402042
0.16499373721666277 -0.01734334238266199 0.3101657280813633
0.16929790782518328 -0.01561248310302942 0.30935975407471045
0.167824510808658 -0.015722215254060916 0.3103403100859104
0.16590446638650835 -0.01693534858917444 0.3098067293058811
0.17199814724512041 -0.018187552768938235 0.31037720536102636
0.1720843951661104 -0.018125355322115115 0.3119168529402195
0.16880339788980425 -0.017779409963838748 0.30912145470489844
0.16462353276796282 -0.017950177271120242 0.3089328060041843
0.16684934901781023 -0.017799645740739993 0.3075127849470554
0.16966376113481463 -0.016700238067857913 0.30743881558288916
0.16382635044641436 -0.019146412689439944 0.3096379289518772
0.1659881811100954 -0.018976211626283816 0.3082098612677036
0.16958111929483355 -0.017214059908144168 0.3069637069593845
0.1682035963494295 -0.01629903920387476 0.3073134670149265
0.16687548565454424 -0.01622182138656824 0.3055423149954258
0.17069882559366167 -0.017237931568376712 0.30889930819382055
0.16515154051370562 -0.017518013794176272 0.31135329102386816
0.16625154423303545 -0.017484456379167727 0.3108719239126621
0.16748488354272784 -0.0175162554571554 0.31019892786850317
0.16507760095186175 -0.01772728570198267 0.31145962571014746
0.16617215084619463 -0.01769599326347559 0.3109833249937473
0.1675355772931093 -0.017621845085375003 0.3101635227095066
0.17180037903375567 -0.015721470196001223 0.31054385994781836
0.1709472875554079 -0.01552352317070215 0.3088459024321018
0.17241776394433916 -0.016313314516298465 0.31117507313598974
0.1743269603211397 -0.007382541973344972 0.30582597349991186
0.17048886823244036 -0.005806922991029908 0.3094530949484287
0.16798010873384417 -0.006846070368044068 0.3065207252394138
0.18242028760499895 -0.00626647480224817 0.3055776009451328
0.1779394488293642 -0.006988704282991578 0.3111334690939365
0.1727163236100191 -0.007241040546648194 0.3071729788671909
0.1822232942540163 -0.0032797158548757335 0.3029979715238987
0.17886737393922747 -0.0013408661672994395 0.3067760715376316
0.17264593052453936 -0.000966101963274171 0.30081286524643286
0.174422148938846 -0.0034670234510823985 0.30871721600403174
0.17095593022890032 -0.0034878552744313975 0.31282904242386206
0.16775900530404986 -0.004813075144045045 0.31043925379623755
0.1840790252644533 -0.003133714277498414 0.3082356104742466
0.17957666921205462 -0.004596054632417848 0.3138275394331394
0.17324328827447832 -0.005120873529665162 0.3100135574232517
0.17838499354906023 -0.004806816656343629 0.30795606469025
0.17550424146242083 -0.0032736659834310313 0.3111408004652439
0.17200535940713824 -0.003145158369295289 0.30574991797317846
0.16894331979341448 -0.004669159729234864 0.3059988269697605
0.1681737642247194 -0.004512906152956178 0.3070509085546909
0.16874260115213335 -0.006140589792482545 0.3081926355253635
0.17245003985948504 -0.004153072912447145 0.3055265197645603
0.17162767457551897 -0.004368454296343019 0.30702849720825537
0.17045477437562884 -0.006327629167787721 0.30837669466842993
0.1715789477784151 -0.005815625269167115 0.30690523480285986
0.17135528134889544 -0.005292952139131715 0.308632756222385
0.17007282781190813 -0.004974484522096803 0.3063214073072849
0.17877689408845843 -0.0027121902296468516 0.29181435202469214
0.1779844503361696 -0.002225518305055787 0.2934330949675022
0.17799142407960833 -0.0033389628717824717 0.29323532675613745
0.1811129789311403 -0.0019381941149160167 0.2922024974714695
0.18007603692598284 -0.0017675460169240733 0.2944600829969822
0.17846420812196673 -0.0029026568720266124 0.2939828882109104
0.18243989753313006 -0.004996806461565187 0.29298105334152563
0.18153748321123064 -0.0037041307279989024 0.2948666462789951
0.1779989938694948 -0.003105372268907716 0.2904966721426426
0.1822767596203798 -0.00019171841835229596 0.29215272759308203
0.18156913327760638 -0.0003757477590963145 0.2936781296621738
0.18064573812074602 -0.0020542145559713145 0.2943111309896885
0.18539229440278948 0.0003388821294382314 0.2922520885359226
0.18441120194978655 3.1232755430052675e-05 0.2941521654020725
0.18165150689668597 -0.0017493367979451915 0.29467591141571386
0.18719390439577044 -0.003178924400560548 0.2945295820127903
0.18669519233293475 -0.002637028772585084 0.2957724580656467
0.18388775395936907 -0.0016390086004659434 0.29223021363129004
0.17837813901491106 0.001913219611890624 0.291065240849155
0.17923120069093645 0.001674741428144286 0.2899715552221714
0.18277731942720354 0.001015484254606078 0.2925272235762058
0.17826942014284075 0.001623600642927001 0.29108455275406225
0.1791504363972658 0.0013623832871988515 0.290028716076511
0.18296358394212664 0.0008586048295572499 0.2923766026388584
0.18216821956224383 0.002456366937406371 0.29235854243149145
0.1828028302151674 0.0018801092317178945 0.29104914759506567
0.18320504235811175 0.002939850013501952 0.29231419657577856
0.17513272571153582 -0.015007495958559205 0.2889135727774082
0.1712868254143709 -0.013494968492738893 0.29210397099365576
0.1688272397477144 -0.014351010401003053 0.28939178084244116
0.18391761588640154 -0.013849854547731568 0.28775110339035376
0.1788154582936281 -0.014449387867204835 0.2935254225622593
0.1728422384221071 -0.01467511065696924 0.2899058709036289
0.18107358026094378 -0.011101245958559205 0.2870152244459568
0.17968699740953387 -0.010071426708452394 0.2909480581175266
0.17311507868356646 -0.009464681226961305 0.28500964735855444
0.17633060025758684 -0.010873556215517213 0.292309308994907
0.17349347877092303 -0.010837704021684815 0.2951224694143711
0.17158300089425982 -0.012435704548113038 0.29344459866394385
0.18610397386140765 -0.01052859433387964 0.2909192094694553
0.18176046418733538 -0.01161456115936487 0.29587217663635595
0.17557362126893938 -0.012433260757677247 0.29274364804138525
0.18270007180757464 -0.014018476087801148 0.2919842848669468
0.18108985232896746 -0.013127952892534425 0.2949013361822544
0.1757191162068361 -0.011942833740465333 0.28906848524917944
0.17132544922418536 -0.013812571842424562 0.2900362262617527
0.1708118956048006 -0.01363790043091028 0.2904780158888279
0.17213628100938738 -0.014548569996111085 0.2912842879187046
0.17356726932115496 -0.013290196735613038 0.2894996652494846
0.17309478330202044 -0.013268083412401368 0.2901436934362827
0.17307809400148333 -0.014569431621782472 0.291362727631229
0.17751983213014544 -0.015712231476061038 0.29106470440735205
0.1771517734486574 -0.015402019102327516 0.2921554694067417
0.1756908040005678 -0.014917254526369264 0.29024072979797705
0.1736589412648195 -0.013140589077226808 0.2926136503111301
0.17259163069314898 -0.013190716583482911 0.2935617217909275
0.1723621826130861 -0.014938801605455567 0.2941742787252842
0.17735752868242205 -0.01237851389145105 0.29188575838913305
0.1762803535420412 -0.01272922762130945 0.29331674670090063
0.17436513709611834 -0.014851033766023805 0.2942384729277073
0.17983034658021868 -0.014811545688860108 0.29391541575302466
0.17931703137941302 -0.014531165439836671 0.2952423939596592
0.17781117963380755 -0.014037549574129273 0.292777682293552
0.1777713637310976 -0.01012539871429651 0.29004337881912573
0.1771381835896486 -0.009544253427736451 0.29155101870407446
0.1768408160168642 -0.01077997692321985 0.29194411133636816
0.18085679816789568 -0.009565770704500367 0.29046818112243994
0.18019912051744402 -0.009608984071962525 0.29276033734192236
0.17860117959566058 -0.010889083225481202 0.2925780663381992
0.17920336532182635 -0.010819375593416383 0.29138686751236303
0.17829969930238665 -0.009116202671281983 0.29338868950714453
0.17642835187501849 -0.009323358614198854 0.28988441323150976
0.18091229009218157 -0.008516967375032594 0.2905676016699253
0.17989138173646868 -0.008571237404100587 0.29240938519348486
0.17945847320146502 -0.010268062431566407 0.2931584367643772
0.18526176023073138 -0.007810354311220338 0.2904019007574497
0.1839678626019472 -0.008310586292497804 0.29293301199783667
0.18127391147203387 -0.010227114040605714 0.2935539731871067
0.18273714589662493 -0.00966298588012903 0.292497719277042
0.1822208504635805 -0.008919358331911256 0.2941926965605198
0.18056336450166643 -0.008474767286531617 0.29125704859604223
0.1766664128262514 -0.007438480932466676 0.2905286202322422
0.17737791347093523 -0.007597684938661744 0.289583946217197
0.18222609567232073 -0.007942080576173951 0.2916912088285862
0.17640927838869036 -0.007596433241121461 0.29059484099258764
0.17713931607789934 -0.007788896639101197 0.2896915922056614
0.18220612811632098 -0.007943362076036622 0.29161110018600805
0.1799988489109987 -0.005935251791231324 0.2907788405310093
0.18056741761751116 -0.006191641170732667 0.2895549783598362
0.18106910991258562 -0.005162030536882569 0.29138442372192724
0.17072770404405535 -0.013924121935121705 0.30795862768997534
0.16706929015703142 -0.012338161546938111 0.3112465987097202
0.1651406924683565 -0.013157159168474366 0.30838635062088354
0.17814270066804827 -0.013046622354738404 0.3074149141203342
0.17415059017724932 -0.01301473386978357 0.31226863955368384
0.1696611385304445 -0.013581097204439332 0.3089149246107517
0.17720333146638811 -0.010624587614290406 0.3064463982473789
0.17404473232812823 -0.008583962995760133 0.3101831326376377
0.16880080508775652 -0.008669823486559083 0.30471476410736426
0.17138559031076372 -0.010349720794908692 0.3112645993124424
0.16833964395112933 -0.01017117508148401 0.3142688522230564
0.1665694754082674 -0.011823326427690675 0.31266286467422827
0.17987773227281512 -0.008782863695375611 0.3098581085096775
0.17595807122774065 -0.010010391552202394 0.3147507557760654
0.1705483536679262 -0.011101901609651734 0.3119396219145237
0.17539951610155047 -0.011077433902971437 0.3107021698843418
0.1735286753136629 -0.00988253958915918 0.31397351120819433
0.17016801642961443 -0.009646534998171022 0.3088861355673252
0.16767272758073748 -0.01343965538238733 0.30898650978912695
0.1669916253048891 -0.013311714012376954 0.30959543084015234
0.16960412668771685 -0.0142017007658407 0.3101017722975193
0.16911197113580645 -0.011819869358293702 0.30825528000702246
0.16850889133996905 -0.01185816534256189 0.30902358387817724
0.1693082790333742 -0.013447582800142457 0.3103071102987705
0.17050174283571184 -0.012931913215868165 0.30889054631103857
0.17036563562936724 -0.012574315149538209 0.31037017201294287
0.170397673125934 -0.01255244024490564 0.30910130833496435
0.17301577734537066 -0.01484140761589258 0.30848082398285254
0.17143026399202288 -0.012518465597383668 0.3118093261610447
0.16995177077836932 -0.01247692115997522 0.30751367901672705
0.17811611699647845 -0.01229834564422815 0.3102821359526096
0.17543706702775896 -0.009695381004564454 0.313740337837833
0.1730268340069765 -0.011154502708666017 0.31007840727676733
0.179247770782184 -0.013354897577516725 0.30813613032211645
0.1754674653965944 -0.00805225976204126 0.3105059513937412
0.17470732736177386 -0.010985165912859132 0.3064444312941013
0.17008349704332293 -0.01193887003158777 0.30962499474396094
0.16744926976747454 -0.011070609171144654 0.31366052721847876
0.16664001750535906 -0.010608077127687623 0.3095325479399143
0.17576936292238177 -0.008272677738420655 0.30959543084015234
0.17213833736963213 -0.008017510254137208 0.3146219501387058
0.16998368906564654 -0.009206682522051026 0.31074907873978
0.17412147330827654 -0.0105739832708761 0.3093252429853855
0.17145172166414202 -0.007296532470934083 0.3122680435072361
0.17182445931024493 -0.00854715712761133 0.30805518721451147
0.16771015929765642 -0.012480139810793092 0.30492981766571386
0.16764295506067217 -0.012161135751955201 0.3053647527586399
0.17009854721612871 -0.01104402549957483 0.30491777752746924
0.16770774530954302 -0.009969383556596925 0.3058328876387058
0.16721138763017596 -0.009733408767931153 0.3065829524885593
0.16929015922136248 -0.009694218713991334 0.3061739454161106
0.17092284965104998 -0.010106206018678834 0.3051321754347263
0.16997763919420183 -0.009521931488268067 0.3061335334669529
0.1724404733139986 -0.008311629373781373 0.3060670742880283
0.17427978324479998 -0.00977417834495752 0.3230332384001194
0.1726395528275484 -0.008145660240404298 0.32728740071167334
0.1702252368885988 -0.00727084286903589 0.32258882616867407
0.1800110082585329 -0.006289124567262818 0.32388415430893286
0.17664555120058 -0.004135727960817506 0.3281023154150425
0.17394435810632647 -0.005341827947847535 0.32398542260040625
0.17666504191942156 -0.003450751383058717 0.3216005811582981
0.1748983006436342 0.0015349089315012197 0.324967885960239
0.17356241154260577 -0.0006783903429433604 0.32049449776520117
0.17214656281061114 -0.007202357132188966 0.32475581263412817
0.16985327410287798 -0.00731971867775171 0.32957693432678564
0.16704476284570635 -0.005224019367448976 0.32497533654083594
0.17744997548646868 -0.0005048514196798106 0.324249530781406
0.17302766847200335 -0.00023898490165918072 0.32969578598846777
0.17046305942125262 -0.0012890995333120128 0.32585665081848486
0.17461190032548846 -0.001486063081972291 0.3230175027738987
0.17231154846734942 0.001426100652463744 0.32763149832596167
0.17104119467325152 0.0007441043069437245 0.3228053102384983
0.1729270558316225 -0.009923905212633302 0.31849953030456885
0.17258802461214007 -0.009948462326280763 0.3200659999739109
0.17259243535585345 -0.0071981848070546885 0.32000258063186987
0.17128643798417986 -0.003959655840151002 0.3195228824507175
0.17082459139413775 -0.0036367178747579356 0.32107218598236426
0.17108184504098833 -0.0033680201361104747 0.32148012017120703
0.17216405677385271 -0.003231257278673341 0.31818636750091894
0.17133680390901507 -0.0019693077394887706 0.3207390556227146
0.17304903673715533 -0.0010086894819661876 0.31994285677780493
0.1755992512661928 -0.008468478996507814 0.283692205895084
0.17480680751390398 -0.007981807071916749 0.28531094883789404
0.1748137812573427 -0.009095281440965821 0.2851131210218845
0.1779353361088747 -0.007694542486421754 0.2840803513418613
0.17689839410371722 -0.007523834783785035 0.286337936867374
0.1752865652997011 -0.008658975441209962 0.28586074208130224
0.17926225471086443 -0.010753095228426148 0.2848589072119175
0.1783598999936098 -0.00946047909950464 0.28674455975403174
0.17482135104722918 -0.008861661035768678 0.2823745260130344
0.1790991167981142 -0.005948066789858033 0.2840305814634739
0.17839149045534075 -0.006132036525957276 0.28555598353256567
0.17746815490312517 -0.007810533125154664 0.2861890444647251
0.18221471118516863 -0.005417436439745118 0.2841298828016697
0.18123349952287615 -0.005725056011430909 0.28603001927246435
0.17847386407442034 -0.007505685169450929 0.2865537652861057
0.1840163211781496 -0.008935272772066285 0.2864074954878269
0.18351754951066912 -0.008393377144090821 0.28765031193603857
0.18071011113710345 -0.007395327169649293 0.2841080675016819
0.17520055579729021 -0.003843069154970338 0.2829429755102573
0.17605355786867083 -0.004081547338716676 0.281849468697208
0.17959967660493792 -0.004740804512254884 0.28440507744659765
0.1750918369252199 -0.004132688123933961 0.28296228741516455
0.17597279357500017 -0.004393935281984498 0.28190656994690283
0.17978588151521624 -0.004897683937303712 0.28425445650925024
0.1789905767399782 -0.003299921829454591 0.2842363963018833
0.179625127788257 -0.003876239139787843 0.2829270014654575
0.1800274591404909 -0.0028164685556813975 0.2841921100508152
0.167429779048633 -0.004125267345659425 0.3022149453054844
0.16715521025247515 -0.0034438372442647715 0.30366792773117407
0.16771236466951311 -0.004369318563692262 0.30396899079193457
0.17146382140703142 -0.00376403339599817 0.3028673777471958
0.17098620938844622 -0.0037332475969716807 0.3055032739530979
0.16998684811181963 -0.005000263530962159 0.30515756701340063
0.16742796110696734 -0.0032562614271566172 0.3042753586660801
0.16694036531038225 -0.0010632575342580577 0.30597015713562353
0.16617113756723345 -0.0018713177034780284 0.30307968949188574
0.17056760596818865 -0.0021213293859884044 0.30198415612091406
0.16965178060121477 -0.0019163192102834483 0.30375250672211035
0.17037985133714617 -0.0030179620573446055 0.3048507223020969
0.17527184295244158 -0.0012557805368825694 0.3018297800909458
0.17439735340661944 -0.0017856062242910167 0.3045472750555454
0.1723472218472475 -0.003282696087114503 0.3055179963003574
0.17180702495164812 -0.0026387573072835704 0.3045686731230198
0.17102560805864275 -0.0015795231649801036 0.30617740248550757
0.17038089441842974 -0.0011092723200246592 0.30366727208008154
0.16744390534944475 -0.0010952950308248301 0.30138352011551245
0.1680325608212465 -0.0014403165171071788 0.30070289467682226
0.17398333954400957 -0.00026297577118127545 0.302582050312656
0.1674498658139223 -0.0010909736940786143 0.30138429497589453
0.168040130611133 -0.0014336109945699473 0.30069949721207007
0.1739861707646364 -0.00026422746872155865 0.30258634184707983
0.17190266060419024 0.001007169406659911 0.3012102494131504
0.17211512136049212 0.000680386941678832 0.29993542527069433
0.17340389298982561 0.002655923288114379 0.30258169268478735
0.17513272571153582 -0.015007495958559205 0.2889135727774082
0.1712868254143709 -0.013494968492738893 0.29210397099365576
0.1688272397477144 -0.014351010401003053 0.28939178084244116
0.18391761588640154 -0.013849854547731568 0.28775110339035376
0.1788154582936281 -0.014449387867204835 0.2935254225622593
0.1728422384221071 -0.01467511065696924 0.2899058709036289
0.18107358026094378 -0.011101245958559205 0.2870152244459568
0.17968699740953387 -0.010071426708452394 0.2909480581175266
0.17311507868356646 -0.009464681226961305 0.28500964735855444
0.17633060025758684 -0.010873556215517213 0.292309308994907
0.17349347877092303 -0.010837704021684815 0.2951224694143711
0.17158300089425982 -0.012435704548113038 0.29344459866394385
0.18610397386140765 -0.01052859433387964 0.2909192094694553
0.18176046418733538 -0.01161456115936487 0.29587217663635595
0.17557362126893938 -0.012433260757677247 0.29274364804138525
0.18270007180757464 -0.014018476087801148 0.2919842848669468
0.18108985232896746 -0.013127952892534425 0.2949013361822544
0.1757191162068361 -0.011942833740465333 0.28906848524917944
0.17132544922418536 -0.013812571842424562 0.2900362262617527
0.1708118956048006 -0.01363790043091028 0.2904780158888279
0.17213628100938738 -0.014548569996111085 0.2912842879187046
0.17356726932115496 -0.013290196735613038 0.2894996652494846
0.17309478330202044 -0.013268083412401368 0.2901436934362827
0.17307809400148333 -0.014569431621782472 0.291362727631229
0.17751983213014544 -0.015712231476061038 0.29106470440735205
0.1771517734486574 -0.015402019102327516 0.2921554694067417
0.1756908040005678 -0.014917254526369264 0.29024072979797705
0.1736589412648195 -0.013140589077226808 0.2926136503111301
0.17259163069314898 -0.013190716583482911 0.2935617217909275
0.1723621826130861 -0.014938801605455567 0.2941742787252842
0.17735752868242205 -0.01237851389145105 0.29188575838913305
0.1762803535420412 -0.01272922762130945 0.29331674670090063
0.17436513709611834 -0.014851033766023805 0.2942384729277073
0.17983034658021868 -0.014811545688860108 0.29391541575302466
0.17931703137941302 -0.014531165439836671 0.2952423939596592
0.17781117963380755 -0.014037549574129273 0.292777682293552
0.1758450608212465 -0.008955091316454103 0.30183955525268896
0.17529687690324725 -0.008464187462083985 0.3027652153860508
0.17660954999513567 -0.009143620807878663 0.30244561528076513
0.1790383200604433 -0.008420020420305421 0.30146154259552344
0.17816576766557635 -0.008211135942690065 0.30304958914627417
0.17770287799425066 -0.009219080288164308 0.3029470691572605
0.18078759717531145 -0.010940820057146241 0.30302276705612524
0.1798232536274904 -0.009800553400270631 0.3047086248289524
0.17738882112092913 -0.009494155723802735 0.30101099108566626
0.1771435480076784 -0.006890416223756959 0.3012097129713474
0.17641649055070818 -0.0068111420462056895 0.30206700657715185
0.17687967824525774 -0.008341699917070558 0.30278130864014013
0.18007424878663958 -0.006151080209963014 0.30088099335541113
0.179342244144153 -0.006337106306307008 0.30215498303284033
0.17812070655412615 -0.008122414428941896 0.30305811261047705
0.18218151139802874 -0.00894775994514673 0.30312838648666723
0.18179110097474993 -0.008558213789217164 0.3042104492079197
0.18023810195512713 -0.007882058698885133 0.3015875468145786
0.17485949801988543 -0.007520139295808961 0.3014468798529087
0.17639789390153826 -0.007979959327928712 0.30023446177353247
0.18109080600328387 -0.007262319404833009 0.3014037856947361
0.17438662457055987 -0.008386612016908815 0.3017397174726902
0.1759807209927553 -0.008878976185075929 0.3005204448591648
0.1812275986630434 -0.007644623596422364 0.300846005428928
0.1788432936627382 -0.005940228779070069 0.30150487517227514
0.17884836005754412 -0.006215095598451783 0.2994680652510105
0.18111148881502093 -0.00578051813339441 0.3023081073652683
0.17621919917650164 -0.005536288101427247 0.30440166090835913
0.1767192225415224 -0.005513519127123048 0.3040958294760166
0.17895743655748308 -0.007066905576936891 0.3053756604086338
0.17664596843309344 -0.0049214065859243174 0.30411800240387304
0.177150819774341 -0.004889756519548585 0.3037759313475071
0.17882088231630267 -0.006816923696748902 0.30557724331726416
0.18092170762605608 -0.0040038228819295665 0.305816377152103
0.1814528446156496 -0.004371523935548951 0.30424442385544165
0.181805942531299 -0.003318876106493165 0.30557479952682837
0.17112774061746538 -0.003375500519029786 0.34052350615372046
0.1687829236943239 -0.00029286750053613385 0.34495725725998266
0.16628447579927386 -0.0005318523237630626 0.33964356278290136
0.17860606717653216 -0.001962900240175416 0.3429436931501804
0.17517921733446062 0.0002784430196359853 0.3480542549978672
0.17196953701562823 -0.0010401607344075938 0.342818284977573
0.17624769019670428 0.0005412398984506826 0.3400714645277439
0.17291632699556292 0.0071007608583048085 0.3436092982183872
0.17108938502855242 0.003343135040052245 0.33843770121445044
0.16992307114190996 0.00042948118949682514 0.34238704537262304
0.16735038566179217 0.001130223195798705 0.34731533621658667
0.1651678423840517 0.0021146535089090566 0.3427030095945774
0.17732647466249407 0.003939807336576293 0.3426550278555332
0.17260605501718462 0.004061162393338988 0.3492213735472141
0.16996258902139605 0.003013908784635375 0.3442087421308933
0.17186990785188616 0.0031764208486154775 0.34243502711166723
0.1706115941960329 0.006555616777189086 0.3462088355909763
0.1683210771042818 0.005425572316892455 0.3410942206274448
0.1659060459095949 -0.003375500519029786 0.3373396644483982
0.16614959048814715 -0.003117114383928468 0.3392370591055332
0.16626614737100542 -0.0004355908224508067 0.33854975794662817
0.16682672905511797 0.0014911293199136953 0.3386152634512363
0.16589191960878313 0.0022840797116831044 0.341270113934177
0.1655700843293184 0.0021224915196970204 0.34106310700287207
0.1666496138531679 0.001062840144880126 0.33867379521240576
0.16539737987108172 0.0035196243932321767 0.3411408314596592
0.1668005328137392 0.0033695100953653554 0.3392465362440525
