ply
format ascii 1.0
element vertex 746
property float x
property float y
property float z
element face 0
property list uchar int vertex_indices
end_header
-0.1974209431902802 -0.03894136840330528 -0.0274109594966802
-0.19729116897744298 -0.03342796856390404 -0.02040857602614492
-0.2003903273837006 -0.03563527757154869 -0.027738338008109032
-0.18880565803212285 -0.03593526774870323 -0.022499387755576073
-0.19192232530278325 -0.027363374771942364 -0.017132645144644677
-0.19359045069378972 -0.035015687289108505 -0.02388397385138601
-0.19188838045758366 -0.031123980822433697 -0.029865866198721825
-0.19257241826218724 -0.015893801989425884 -0.02680925060767263
-0.19752516191166997 -0.026685014309753643 -0.031866138472739156
-0.1930653784768021 -0.020007714571823345 -0.0278956048633489
-0.19513781707448125 -0.033556416573395004 -0.0269343011524114
-0.19689698856038212 -0.0332224219463961 -0.019579386010352074
-0.19818951528233647 -0.031022652926315532 -0.02668810416716665
-0.1870161626831925 -0.02810566121565269 -0.023967330947104393
-0.19244011085194707 -0.026979580464233623 -0.016952043070975243
-0.1934447173373139 -0.029077663960327373 -0.023740118041220604
-0.19346508722466588 -0.026721462550033794 -0.027413880124274193
-0.19631053846043706 -0.017606392445434795 -0.022215013995352684
-0.19772228937310338 -0.023756757321228252 -0.02857590247649282
-0.19835807721776127 -0.04011557990538048 -0.03151655723113149
-0.1965591643349564 -0.04194517427908348 -0.025013660683813988
-0.19684000651997685 -0.03561456495748924 -0.029664938941183983
-0.19624364714783787 -0.03426291042791771 -0.02708754469412893
-0.19915345649880528 -0.030822828354706035 -0.02207878757971853
-0.19784099202317357 -0.0325679927490847 -0.026017253890219628
-0.19934988360566258 -0.03252069646345543 -0.029045825495902
-0.20007236640614628 -0.025095328631271587 -0.02592012812155813
-0.19958265464467168 -0.029041007103790508 -0.02916688252944082
-0.19675457816285252 -0.03878264123426842 -0.027031665339652
-0.19650720398587346 -0.04075573379026817 -0.019207512631598412
-0.1969188634650147 -0.03488914662825035 -0.025588517680350243
-0.19347487728757023 -0.03137357527243065 -0.022832220092001854
-0.1968791369692719 -0.02950276428686546 -0.016218548312369286
-0.1969675604597962 -0.030983015837539898 -0.022042369141760765
-0.19734621386689305 -0.029765233340133892 -0.02585802008170217
-0.19755334000748753 -0.022404655756820904 -0.020631586804572045
-0.19896732609433293 -0.02717758709417747 -0.02595204640883535
-0.19547906856698155 -0.035766079964508285 -0.025806640877905785
-0.19671495597523808 -0.035135105194916 -0.018390094533148705
-0.19850126247567296 -0.03316469484793114 -0.02574620176810354
-0.1879103217617905 -0.03046391898619102 -0.022275691523734032
-0.1931937370793259 -0.02834023529516624 -0.01555151273268789
-0.19377073984307408 -0.031078889908661114 -0.022486423745337426
-0.1938780133025086 -0.028134301247467266 -0.026548659100714623
-0.19632478397053837 -0.017693176808227764 -0.021223341717902123
-0.1982434872881806 -0.025066778006424175 -0.027569567456427514
-0.18757300417584538 0.10530136531365944 0.10176720689278514
-0.1900725249545014 0.10714308923257423 0.10561888884049327
-0.1915077749983704 0.10737721627725197 0.10302152703743846
-0.18425374071759343 0.10871396964562965 0.10363956759911448
-0.1874680552975571 0.10999368136895729 0.10797273586731822
-0.1896007094876206 0.10968162125123573 0.10470023225289256
-0.18494089286488652 0.10773690050614906 0.10171296666603953
-0.18702416460675358 0.10911341017259193 0.10449361275177867
-0.18884997408551335 0.10876630252374245 0.10088255475502879
-0.1881217841402924 0.10588334506524635 0.10052826474648387
-0.1905213181273377 0.10743190353883339 0.10424169372063548
-0.1922418807045853 0.10775880521310402 0.10183169911843211
-0.18498678844136357 0.10946278279794289 0.10200228761177928
-0.18806590478581547 0.11045958107484413 0.10641085575562388
-0.19070412557286381 0.11027468746675087 0.10321440766793162
-0.18516020815533757 0.1081916839457853 0.10046055387001902
-0.18705523352784276 0.10935555404199196 0.10318195293885142
-0.1892197016970551 0.10919784015191628 0.09955295394402415
-0.1926996890799439 0.10478051012528969 0.10168984006386668
-0.19410416822594762 0.1055807322837217 0.10371493767243296
-0.19338018040818333 0.10643534368051125 0.10290628145676524
-0.19122134487790227 0.10601963108552528 0.10213079522591502
-0.19283655624550938 0.106882557330261 0.10430502365570933
-0.19244748692673802 0.10710157459748817 0.10357981394272715
-0.19179872017068028 0.1060757786609037 0.10187139581185252
-0.19228659908932805 0.1066050083018644 0.10338854263764292
-0.19292702119511723 0.10678635543359352 0.10144611667138011
-0.19090295176667332 0.10333682602418495 0.10140814851265818
-0.19127562980813145 0.1036886424399717 0.10206683944207103
-0.18951982598466038 0.1045077592707975 0.10221766899567515
-0.1910303864972031 0.10323326295388771 0.10133066247445018
-0.19133602421445012 0.10356880730165077 0.10194169949036509
-0.1895781491295731 0.10445679729951454 0.10211342047196299
-0.19180435280961156 0.10406400269044472 0.10014002989273936
-0.19221192937058568 0.10454379027856422 0.10120090316277415
-0.19189803641003728 0.1047598869181974 0.1000495798442927
-0.1597813848750031 -0.03766731912123131 0.10373621653061778
-0.160479131747905 -0.037264421524872055 0.10459491084557444
-0.16560350697201848 -0.0390570908211367 0.10369771193009288
-0.15786148946446538 -0.0381568222664492 0.10573186944466502
-0.1578551117674744 -0.03767631942259239 0.10619106362801463
-0.16464569013280034 -0.03864993149267601 0.10431676577073008
-0.1603215221659577 -0.03813464933859276 0.10647201012116343
-0.16029273312253117 -0.037509337010254135 0.1069489962909785
-0.16249585490388035 -0.03868640953527855 0.1035804397914973
-0.16128248315018773 -0.037282124104370346 0.1059533007000056
-0.1622644547717011 -0.036977067532409896 0.10698529551964671
-0.1582588885323441 -0.03756950789915489 0.10662888954621226
-0.1593720797793305 -0.03718312078939842 0.10781448553543956
-0.16546932201546788 -0.03832434112059044 0.1061606056545344
-0.16175739805859685 -0.037514761032928695 0.10857229898911387
-0.16178915243310094 -0.03712646657453941 0.10893085072976023
-0.16362290423077702 -0.03805907064901756 0.10557135413628489
-0.16141872446698308 -0.03872542077528404 0.10452776621323497
-0.16203123669785618 -0.03918336326109337 0.1047769136283961
-0.16099946539563298 -0.0422645955704348 0.10289519499283702
-0.16144325177830815 -0.038793280663360824 0.10480454038124949
-0.1619854007260239 -0.03922910982595848 0.10500794123154551
-0.16109757464093327 -0.04217447334753441 0.10308333705407054
-0.16450636427563786 -0.03931145364271568 0.10497909258347422
-0.1647334877745545 -0.04038850957380699 0.10468720863800914
-0.16572411697072148 -0.040522023978103866 0.10315939258080394
-0.16186736862820744 -0.04016317421423363 0.10520001719933421
-0.16204102676076054 -0.04024960094915794 0.10523485611420542
-0.16266900639695286 -0.04329122597204613 0.10418703626137645
-0.16157351772946477 -0.0403649955414431 0.10605567167740733
-0.1616199497477448 -0.04041565948950218 0.10602858136635691
-0.16303792934579014 -0.0426782816074984 0.10463517378312022
-0.16418259184521794 -0.0404887645863192 0.10649206708413035
-0.1642812673346436 -0.0410991161488192 0.10624524425011546
-0.16638559441727757 -0.04114831978308128 0.1042917616222468
-0.19320315461320042 0.025630310235152973 0.06164556215744883
-0.19473821263474583 0.028178289590011372 0.06560947965126902
-0.19542502205533147 0.02874429529679848 0.06143789957505137
-0.18736082654160618 0.02815838163865639 0.0646114296768275
-0.19012423198384404 0.03096099203599526 0.06861361335259349
-0.19295506518048405 0.030428186116348042 0.06446033190232188
-0.19182902913254857 0.030327692685256733 0.060591245398339336
-0.19299525361222386 0.037581607756744156 0.06370785306435496
-0.19363646547955632 0.033966198620925675 0.05950730513077647
-0.194514993240062 0.029329106269012226 0.06110524605255992
-0.19550647180241704 0.02997572725785805 0.06587534616928965
-0.19784899394673466 0.03244449203980995 0.061700875267800395
-0.18836820464295506 0.03287290042413307 0.06258671949845225
-0.19180792908829808 0.0347811431266172 0.06746938298684031
-0.1938937042252457 0.03416259592546059 0.06365012596589
-0.19313556294602513 0.035728201327453385 0.05997815202217967
-0.19350289147061467 0.040523603615890275 0.06392126749497325
-0.19527650218171239 0.03891400998605324 0.0599511809204188
-0.19669218700093388 0.02101664250863625 0.05973034571152598
-0.19653573970955968 0.021291449723373188 0.06222709487419993
-0.19585536759060979 0.025649294314513935 0.061462814316567485
-0.19501662593049168 0.025828644690643086 0.061830694184121196
-0.19504621963662266 0.026650026497970356 0.06430100868683726
-0.19587585668725133 0.0290181786395414 0.06283503244858653
-0.19746342640084386 0.02526606625093056 0.06020581196289927
-0.19784386794728398 0.030638650117049946 0.06227328847390086
-0.19623180072468877 0.030523225722442402 0.0603777117584315
-0.19145478646916508 -0.03504796320425438 0.03582515786629588
-0.19382240216893315 -0.03345583373533653 0.04009553264122874
-0.19464104216260075 -0.03514774137960838 0.03672220777016551
-0.1865711842076218 -0.03440840536581444 0.03893142412644297
-0.19038293104333043 -0.031730517687668075 0.04253497193795115
-0.19393267076176762 -0.0330809801243441 0.03748768042069346
-0.18711287121934056 -0.034628644528259506 0.036840672001656596
-0.19047874550980687 -0.02760447556005882 0.03975584577065379
-0.19022879343194127 -0.03217791015135216 0.03520041178208262
-0.18879105489415288 -0.027915492596496807 0.039068455204781596
-0.1921714131132996 -0.035540804209579696 0.04029595325928599
-0.19474584202927708 -0.03563813859449791 0.044278199181374614
-0.1879392002121842 -0.0330049245976107 0.041750932440575664
-0.1915729526774323 -0.03216238314138817 0.045326138243493144
-0.1957170103089249 -0.03330560022818016 0.04119598339539439
-0.19302764873665929 -0.03148512536512779 0.042217070565041606
-0.19539496641320347 -0.027489826025833355 0.04556464622956187
-0.19488032500905156 -0.029687240662445293 0.04120814274292857
-0.19354623894852757 -0.03790260845648216 0.03593891333084971
-0.1945641372696793 -0.037434831204284896 0.03783958624344737
-0.19305965643090367 -0.038847461285461654 0.03678583572846324
-0.19343516569298863 -0.036920830550064315 0.03863995741349131
-0.19466692547959447 -0.035859331431259384 0.040732318863686626
-0.19512562792462468 -0.03631018096434044 0.03782519172173411
-0.1959531937138474 -0.03640405827986168 0.03842344354134471
-0.19607642631692052 -0.03337569529043602 0.03977277348977
-0.19441257755917668 -0.034734442772735824 0.03751939009171397
-0.19278504293126225 -0.025204911770691143 0.039630735621270244
-0.1936740611092484 -0.03850229078756737 0.036549235091027324
-0.19466936927003026 -0.03806482249723839 0.03858449529152781
-0.19342039864224553 -0.03947560483442711 0.03745239447098643
-0.1932736669079697 -0.03738702827917503 0.039104665026482646
-0.1946665678517258 -0.03629629308210777 0.041380698189553325
-0.19529109041852116 -0.03681330377088951 0.0383633918617335
-0.1958970163361466 -0.03665257984625267 0.03900557230454356
-0.1962702159182465 -0.03352491551863121 0.040342832312401836
-0.1944766972557938 -0.03497071558462547 0.03813701342087657
-0.18325457315606236 0.05287538474572731 0.09957616995316416
-0.18486723642510533 0.054975107369552384 0.10257097552758128
-0.1849164698616898 0.055389389453063737 0.09905310939293772
-0.17886847596329808 0.055041417536865006 0.10179992984276683
-0.18090015988511204 0.05704142158998085 0.10480287145119578
-0.18393037061852574 0.05709911888612343 0.10171833108406932
-0.18149255554837346 0.05588741606248451 0.09844874809723765
-0.18234940211934209 0.06067325180543495 0.10078143547516734
-0.1834513578907883 0.05855344241632057 0.09762191246491343
-0.18685785274666905 0.05663718288911415 0.09775572489243418
-0.1882196251646912 0.05823482578767372 0.10096504758339793
-0.18865162472886204 0.0592174977637632 0.09751739572029978
-0.18179844658536076 0.058824703154693375 0.09938656757813365
-0.1837732527748978 0.0604110807753904 0.1026324279163447
-0.18653764169377446 0.06036446994317604 0.09991707871895701
-0.18480299751919865 0.06033821409715248 0.09703215430718333
-0.18527402322453618 0.0644076616145475 0.09959357450943858
-0.18607090752286076 0.06280668085588051 0.09631156395417124
-0.18755764107865452 0.05106501286996437 0.09914269517403514
-0.18759709935349583 0.05168043082727028 0.10023527811509043
-0.18611291389626622 0.05409584945214821 0.09846156309586436
-0.18611330132645726 0.05419744556916786 0.10077446173172862
-0.18624674122494816 0.05494995420945717 0.10204320620041758
-0.18591806631249547 0.056582585034499894 0.10010763476830394
-0.18712097745103 0.05259533232225014 0.09806227158051402
-0.1872110847727692 0.05707804864419533 0.09966071914177806
-0.18630583923024296 0.056816741881500016 0.09759175251465708
-0.18286858837765813 -0.016695663275589214 0.07199054430466563
-0.18453462760609746 -0.011530920805801618 0.08113699625473887
-0.18856181543034672 -0.01426143938528465 0.07593604396325022
-0.1726709489123261 -0.013815477433075178 0.0782050735805598
-0.17782627384823918 -0.004132017435898053 0.08378982017975718
-0.18281330506962895 -0.010108038725723493 0.07547926376801402
-0.1781529520050919 -0.011423513235916364 0.07111122678261668
-0.1783789281145966 0.005941018519531024 0.07481029103737742
-0.1830018345610535 -0.005034163536895978 0.06854691575508982
-0.18040654401940465 -0.0010093002937929506 0.07309242557030589
-0.1870987151162064 -0.021728560271133648 0.0805156774376002
-0.18847188692254185 -0.024901255907882915 0.09116851757508189
-0.18056211214226842 -0.014032706560959089 0.08620809982758433
-0.18594953756493687 -0.009978190007080305 0.09188290904503733
-0.1910168264405167 -0.012287959399093855 0.08324038456421763
-0.18538788299721837 -0.012547507824768293 0.08091449211579234
-0.18787049095791936 0.0018697232581479674 0.08526467751007945
-0.1896101270214951 -0.005956277193893658 0.07861488531571299
-0.18462473492783665 -0.02414302522169517 0.07387840221863658
-0.18477812748116612 -0.025197997631897198 0.08237963388901622
-0.18786716799897313 -0.023207172694076763 0.07993721436005503
-0.18195616047543645 -0.018580511154999004 0.08146056006890208
-0.18433441560429692 -0.013405516686310041 0.08602368305664927
-0.189075562764827 -0.014706596674789655 0.07929273913842112
-0.18690575997990727 -0.01818899804579185 0.07704993556481272
-0.18816799264115452 -0.0037795453690187804 0.08059068988305003
-0.18787323277157902 -0.010186895670761335 0.07476388882141978
-0.18517208438080907 0.000471726117263568 0.07850300739746958
-0.18516889553231358 -0.024586871209015117 0.07463177512627513
-0.1852887306706345 -0.02605168515669273 0.08335160683136851
-0.1885427419440186 -0.023754820170273052 0.0804897494171229
-0.1819753829733765 -0.018979772868026958 0.08202743004303843
-0.1846263144509232 -0.013874188008178938 0.08670824240189463
-0.189446616579715 -0.015244498791565168 0.07976725171547801
-0.18729316036862492 -0.018061950745453106 0.07763719032746226
-0.18863350491685033 -0.0036371200703279845 0.08118327926140696
-0.1881828043953812 -0.010127052607406843 0.07527598212700755
-0.18549929897946477 0.0007978231288297301 0.07923116754036814
-0.1728150431410706 0.00720070308221413 0.10624625752907664
-0.1733958755032456 0.007906392274032366 0.10718425582390696
-0.1743464950816071 0.007261917052398456 0.1051060504768458
-0.16918909888428807 0.006746694502959979 0.10740807126503855
-0.17003691535157323 0.007634893117080463 0.1085775740001765
-0.17207205634278416 0.0075597912646634706 0.10598179172020823
-0.16596693139237523 0.005368724522720111 0.10559808681946665
-0.16694686155480504 0.007900998053680193 0.10676815579872996
-0.16909176449936986 0.007686689553390277 0.1044124014232722
-0.17382242124241948 0.007329568324218524 0.10702061127167613
-0.17453474145096898 0.00798146432412697 0.1084600932453242
-0.1762286756531632 0.007559374032150043 0.1061536021087733
-0.17081110518139958 0.007615730223785175 0.10812532375794322
-0.1719467226759827 0.008475527224670184 0.10984420250397593
-0.17446652393502354 0.008476033864150774 0.10684641669732005
-0.1694685552613175 0.008054688630233538 0.10723339985352427
-0.17046505551499486 0.01026861375344826 0.10852756570320994
-0.17091119628113866 0.009732082543502581 0.10593950222474009
-0.17528829317254185 0.0031317920066220887 0.10845457981568248
-0.17512269656819462 0.002915188727508319 0.10825937460404307
-0.17423282902402043 0.002168908772598041 0.10715603302460582
-0.1751130555169022 0.0033622831679685243 0.10937809418183238
-0.17502397637528538 0.003183588442931903 0.10922359894257457
-0.1744240109221375 0.002875879464278949 0.10796316932183177
-0.17402203719777226 0.0019617528296811708 0.1079645402286616
-0.17380357127350926 0.0028843433238370545 0.10824101637345225
-0.17343044619721532 0.004306033311019672 0.10611286233406932
-0.172683778812114 0.007345870194564594 0.1076223201606837
-0.19277441840333104 0.08007080858720375 0.07547589610558421
-0.19372547011536717 0.08197386568559242 0.07834219406586558
-0.19212290983361363 0.08400030439866615 0.07682647775154978
-0.1913660947577393 0.08430410927308632 0.07818674515229136
-0.19365214150113225 0.08694638317597939 0.08173188041191966
-0.1927238736645615 0.08675520127786232 0.07964413832169444
-0.19321157376927495 0.08575572079194618 0.07501699994545848
-0.19242781739396214 0.08849824970735146 0.07826351593476207
-0.19415656070870518 0.08815230434907509 0.07569458554726512
-0.19376667182606816 0.08125956362260414 0.0740655608032313
-0.19466340880555272 0.082895740924011 0.07694521020394236
-0.19319390099209904 0.08517010515702797 0.07578759859543711
-0.1919440213934815 0.08536849921716286 0.07669114540558726
-0.194013643671695 0.08763472741616798 0.08014562200051219
-0.19309404831093907 0.08760909741891457 0.0785196668956843
-0.19368817250889897 0.08676506584657265 0.07376667331200511
-0.1930016760126984 0.08923707908166481 0.07738428781968028
-0.19462870400113225 0.08902554219735695 0.07470434378128916
-0.19403726201218724 0.07812236255181862 0.07314726184349925
-0.19419269602460026 0.07861404126657082 0.0744848198745814
-0.19252051751774907 0.08296160405648781 0.07605549167138011
-0.19430712204140782 0.08053202932847572 0.0744443781231013
-0.1944357488648331 0.08135347074044777 0.07579475115281016
-0.19247824292344212 0.08450259274018837 0.0774978346679774
-0.19774195890587926 0.08420525496972633 0.0742135591362086
-0.19713276963395238 0.08601640170587135 0.0761477894638148
-0.19713643531960606 0.0866864771224363 0.0761506802890864
-0.19279542904061436 0.07752428954614235 0.0735286123607722
-0.19282469492119908 0.0776968747950895 0.07369553516846568
-0.19020901959103703 0.08219356840623451 0.07607075046044261
-0.19282497804326176 0.07763771718514992 0.0736044294689265
-0.19285577874344945 0.0778140873290403 0.07377531598549754
-0.19022302668255925 0.08226104086412026 0.07614650796395213
-0.1975485865370667 0.08182178443444801 0.0735361225460139
-0.19736901264351964 0.08288563793672157 0.07417630623322398
-0.19624416868847966 0.08410422509683205 0.07542365263443858
-0.1924710158602631 -0.01839615398870872 0.04029076765519053
-0.19115324657124638 -0.014785245003570783 0.049742633805092876
-0.1920447383419907 -0.01505787664877342 0.046389991745766704
-0.18801945786637425 -0.009189173521866071 0.050956094965752666
-0.18658349256676793 0.003172174153457416 0.05657839249115855
-0.19174161892098546 -0.004414513649811017 0.04874407719117076
-0.19259126823109746 -0.01297517115103172 0.043078566298302715
-0.18859272043866276 0.006386265216003192 0.04564779470902354
-0.1913723979489243 -0.003914877714981305 0.04160925219994456
-0.18895720284146428 0.005318060574661029 0.04435243676644236
-0.19431949000519871 -0.019171819033493267 0.04348068903427989
-0.19600050490063786 -0.02169932419287132 0.05873456071358592
-0.19247402589482426 -0.004719242396225201 0.05539580653649241
-0.1937857304112351 0.0022235066272122987 0.061393643126305644
-0.1978183869616425 -0.0007717459820406312 0.05329700778466136
-0.19807988743943333 -0.009537860693802106 0.04845970343094737
-0.1943834904925263 0.011209443268905413 0.052535498843010967
-0.19519566338223576 0.0020468980647428163 0.04682197640877635
-0.1960687373177445 -0.028537109436859356 0.04016977022629649
-0.1976844255225098 -0.029246553721298443 0.0506447799060908
-0.1928362880246079 -0.022653683962692486 0.05102377603989512
-0.19243365864915013 -0.021458074393142925 0.05074721048813731
-0.19264045696419835 -0.014119401516784895 0.05881663630944163
-0.194656896998111 -0.012938484492172468 0.05180653403740794
-0.19931914251011967 -0.024277701916565166 0.046725148663338725
-0.1946544979111588 -0.00609008962141441 0.05140673588257701
-0.19392888586682439 -0.011101648154129255 0.04616197417717845
-0.19587804715794682 -0.028412952961792217 0.04059364865761668
-0.19760339300793767 -0.029531255307068096 0.05166789363366038
-0.19288046996754765 -0.02246470743643211 0.051556641564187114
-0.19244350831669926 -0.020538791956772075 0.05139412950020701
-0.19265494089287877 -0.013490334095825422 0.059426809058007304
-0.19505252282780766 -0.012459024729599226 0.05219014953118235
-0.19938120584649205 -0.023882314505447613 0.047273421988305156
-0.19443345408600926 -0.005403414311279523 0.05191501449089915
-0.19397132437390446 -0.010557487549652326 0.04651563833695323
-0.18130143325490117 -0.03555379802214073 0.06431337665062815
-0.1836974505679047 -0.032185032906402816 0.07112556169968516
-0.18684137206238866 -0.03432248527037071 0.06711172531586558
-0.17432897131604314 -0.033527687134613265 0.0700105972145167
-0.17860019545716405 -0.02828089887129234 0.07450749944191844
-0.18435326557320714 -0.030385628285278545 0.06732207010727793
-0.17820570211571812 -0.03261791163908409 0.06528558801155955
-0.17979306321305394 -0.018862113299240337 0.06819879482727915
-0.18180154602688908 -0.02722115808950828 0.06236096690636546
-0.1812976930634415 -0.03545762592779564 0.06794198821526438
-0.18422067504090428 -0.03588716680036949 0.07575848172646434
-0.17653856020135045 -0.031039163412918316 0.07212328384858042
-0.1814914975659287 -0.028151228966583477 0.07718744348030955
-0.18724170665902257 -0.02897943550573753 0.0699117727134791
-0.18129596452874303 -0.02901278430448936 0.06982078622322947
-0.18400040607613682 -0.019342645945419536 0.07346209357720286
-0.18363707106274724 -0.024353340210785137 0.06770631144982249
-0.1838955913082993 -0.03784261638151573 0.0645179397914973
-0.18515129726094365 -0.036420926394333114 0.06948610614281565
-0.1855185959832108 -0.03878439957128929 0.06789725492936045
-0.18151437084836125 -0.03610353166090416 0.0690970070217219
-0.1840164248244202 -0.0321596413277285 0.07318448494416148
-0.18826429884595036 -0.03258572513090538 0.06770720551949412
-0.1861662749545014 -0.03415541345106529 0.06761487792473704
-0.1865634505049622 -0.024653121771682964 0.07021024297219187
-0.18668786029976964 -0.028213575425018535 0.0646913297031489
-0.18365407328766942 -0.01668421918379234 0.06867840360146434
-0.1954409364954865 -0.019461467804779278 -0.031363373294058736
-0.19670479338330388 -0.016949489655365215 -0.02754116584319204
-0.197146732021991 -0.017291381897796856 -0.03159541417616933
-0.18974122743767857 -0.016580834927429424 -0.029669319882574974
-0.1934170458809769 -0.013600125851501691 -0.025291567340079247
-0.19514684717816472 -0.015471175255645979 -0.029521470561209618
-0.18944546919030308 -0.01523567730413841 -0.03246263195532888
-0.19439953904313206 -0.00790382915960716 -0.029353802695456444
-0.1947530988947785 -0.012617573084701765 -0.03339011003035634
-0.19162182848614812 -0.011333540024627912 -0.03036249209899038
-0.19564697485131383 -0.014370873513092268 -0.03139928509253591
-0.19831389527482152 -0.013984873833526838 -0.027137642398062645
-0.19870569150609135 -0.013791605772842634 -0.030741607442084252
-0.19002567570370793 -0.00965560966955589 -0.03145486642378896
-0.19463590126198888 -0.009771957936157453 -0.02602252890128225
-0.1969273124234116 -0.011075243296493757 -0.030090069070044457
-0.19348836283845067 -0.011370196881164777 -0.031311517253104146
-0.1955586258665955 -0.008369848074783552 -0.027995770468893944
-0.19563109021348118 -0.00979165727125572 -0.03231570650595754
-0.19791679423016667 -0.015113696398605573 -0.033882891431036885
-0.1983221505181229 -0.014677241387237775 -0.033275907530966695
-0.19484347443741917 -0.014342829527725446 -0.034394716515723164
-0.19615184109372258 -0.01282788807379173 -0.03424361874121755
-0.19695043902558446 -0.01249466830717491 -0.033180063262167867
-0.19455363195103764 -0.013462081494201887 -0.03311858107108205
-0.19544706087273717 -0.012451246323456037 -0.03394744326132863
-0.19702424447697758 -0.011485055031646955 -0.03229955364722341
-0.1944880668417847 -0.011116757931579816 -0.032950287356558736
-0.19958368282479405 -0.013597115816940534 -0.03093520332831472
-0.2009873424069321 -0.013649478497375715 -0.029503827586356102
-0.19971527497929692 -0.01318673783766197 -0.030798619284811913
-0.1956342045561707 -0.010111465992798078 -0.031856571927252705
-0.19780853729409337 -0.01059700542913841 -0.028984730735007225
-0.1979324851529038 -0.012002810778488386 -0.029614900841895043
-0.19671717624825596 -0.010741606297363508 -0.03108287383574575
-0.19804446737927556 -0.00958810740934776 -0.029088472619238793
-0.19640891592663884 -0.00908742839323448 -0.030901884331885277
-0.18307000737351536 -0.03594343358503746 0.08313160608750254
-0.18556852977437138 -0.03338922554480003 0.0892882592533198
-0.18724398653668523 -0.03595040732847618 0.0859163052890864
-0.17652206461590886 -0.0350360422752993 0.08847331474762828
-0.1809605989949143 -0.030342832150329815 0.09305971334916026
-0.18644351105851292 -0.03228335076795982 0.0862999803875056
-0.18000612001580357 -0.035269901099075546 0.08395522306900889
-0.1822430227295792 -0.023257359804977642 0.08725410173874766
-0.18297089975041508 -0.031566426100601425 0.08165049026947886
-0.18131484429997563 -0.024318739714493023 0.08606230686646373
-0.18160671334427952 -0.034247443022598495 0.0863840229366389
-0.18427260558766484 -0.034650102200378646 0.09284734199982554
-0.17679281871480107 -0.03148938709722923 0.08986433814507395
-0.18142676692170262 -0.0292764454506533 0.09475680659752757
-0.1867005262867844 -0.030132993998398052 0.08861553143006236
-0.18311344425839543 -0.029215320887436138 0.0884795434330073
-0.18574080209893346 -0.02177546912657188 0.09216361711960704
-0.18465523760480046 -0.02637805038916038 0.0868410415504542
-0.1845137212769425 -0.03842426830755638 0.08268546532135874
-0.18686485629243016 -0.03677438193785118 0.08746110867005259
-0.1855384741322434 -0.039397016110290756 0.08593269656639964
-0.1835109476344025 -0.03677661711203026 0.08753111432534129
-0.1863801066176331 -0.03364698583113121 0.09132164190750987
-0.18862723152798772 -0.03454156214224266 0.08642285536271006
-0.18714155595463872 -0.03691594296919273 0.08597513507347972
-0.1882603053347504 -0.028651729168762432 0.08820363353234202
-0.18732212822598576 -0.03274260455595421 0.08388870428543956
-0.18446360867184758 -0.038625672402252426 0.08306809733849436
-0.18705749850434422 -0.03698073321806358 0.08812954495888621
-0.1856900934473908 -0.039665356221069564 0.08635508488160044
-0.18315768580597996 -0.036902353110183944 0.08782332609635264
-0.1861740235583222 -0.03377257281767296 0.09178339909058482
-0.18866996805829167 -0.034639254155029525 0.0866870231483546
-0.18720680813950658 -0.03674124175535606 0.08635001848679454
-0.18825823407334447 -0.028380259814132915 0.08857199023705394
-0.18724386732739567 -0.03263618046270775 0.08424457381707103
-0.1881554756657517 -0.03303726011740135 -0.01798463393706411
-0.18933721225422978 -0.029867604317535625 -0.013467972769919335
-0.1910919282929337 -0.030536755862106548 -0.018155371442023217
-0.1809082661168015 -0.031581804098953475 -0.0152174883033666
-0.18492584269208073 -0.027779981436599956 -0.010345643058005272
-0.18716031651658177 -0.030474886240829693 -0.015620326295081078
-0.18333040516537785 -0.028959587159027324 -0.019217585816565453
-0.18798822503251195 -0.018589392247070537 -0.015820538296881615
-0.18919591944378972 -0.025619462075103985 -0.020344024195853173
-0.18999648432892918 -0.032291725220550765 -0.016418253674689232
-0.19363513927621007 -0.03174303466307091 -0.011028265252295433
-0.19483231346768498 -0.03206087643133568 -0.015044515624228417
-0.18363291363877415 -0.02845545107351707 -0.015576159253302514
-0.1881702278153336 -0.029146447720398174 -0.009385591044608056
-0.1910400722519791 -0.030495658459533916 -0.014281576171103417
-0.19120855968159794 -0.02756257349478172 -0.015423154130164086
-0.19315758686226964 -0.024259880127777324 -0.011857008233252465
-0.19402942400139928 -0.02594085031973289 -0.01653129388350576
-0.19580610435170293 -0.034167006554474105 -0.018734877600851952
-0.1953476999298966 -0.033757463040222396 -0.01752323438185781
-0.1919125352398789 -0.033847108425964584 -0.019219403758231102
-0.1933344785468018 -0.031203404011596905 -0.019224827780905663
-0.19486236910981297 -0.030634000840057598 -0.016814654364767968
-0.19264319877785802 -0.03255556518064903 -0.017589306130591332
-0.1967214230791962 -0.029202952923645244 -0.018376087441626488
-0.1987235132948792 -0.027170821966995464 -0.01606524516600698
-0.19609593193692326 -0.02809675032125877 -0.017628347172919213
-0.19301563840073704 -0.033285990300049056 -0.015647893443289696
-0.19377205114525914 -0.03366719180571007 -0.012897884144965111
-0.19340002875489354 -0.03310753399359154 -0.014847641482535302
-0.18761030178231358 -0.029451325478424297 -0.016029869809332787
-0.19102454524201512 -0.030141994299759136 -0.01117909480589956
-0.19159026782673955 -0.03173501783834862 -0.013250475421133934
-0.19404857199353337 -0.028375223221649395 -0.014710491194907128
-0.19544394653004765 -0.026502355875839458 -0.011575316682043969
-0.19440012018841862 -0.02697883540617393 -0.01463830997008413
-0.18866108696622014 -0.03267417842375206 -0.015700285926047265
-0.19199332933587193 -0.03169010573851036 -0.010318671956244408
-0.19351351599854588 -0.031892791333069076 -0.014902477755728661
-0.18272085826558232 -0.02884520584570335 -0.014576768174353539
-0.18739651482266545 -0.028800263943542705 -0.008571630015555321
-0.18999518792790532 -0.03020749980436729 -0.013847415938559472
-0.18979217450780034 -0.026755049767364727 -0.0150133125926885
-0.1917872760788834 -0.02278088027464317 -0.011661564603033959
-0.19289601187867284 -0.025004491152633892 -0.01622355510253042
-0.1847692463890946 0.005639985261092914 0.07704266379815013
-0.18447071652573704 0.008394286093841326 0.08586865137558848
-0.18830226700467229 0.010919287858138811 0.07937341402512461
-0.17771152000588536 0.011487945971618426 0.08319410155754954
-0.18285228650731206 0.022158667502532734 0.08819767306786448
-0.1857218180195725 0.016958668885360493 0.08150934647065074
-0.18411803584260106 0.014084920344482195 0.0759237356041041
-0.1843037043110764 0.030252173600326313 0.08034812878113658
-0.1861621026293671 0.019761189875732197 0.07439818452340037
-0.18430480699700474 0.006848052201400531 0.0778008348796931
-0.1860088292853272 0.00467123096955849 0.09055840443116099
-0.1817279044882691 0.021427556929717793 0.08489492009621531
-0.18774488907021641 0.026894971785674824 0.09057506392937571
-0.18968971412343144 0.024118140397201313 0.08340519140702159
-0.1870200220839417 0.022127077040801777 0.0789040572498408
-0.18854506652516484 0.035605594573150406 0.08384414981346995
-0.1895490769640839 0.02899222081674172 0.07789247702103526
-0.1865099404351151 -0.0031896381996767394 0.07429006169777781
-0.1864796314732468 -0.004680707993377911 0.08453398416977793
-0.18836507539910435 0.003641948161254657 0.08084341357689769
-0.18585679273766637 0.010052844939361346 0.08225729535561473
-0.1878744993702805 0.014633700308929217 0.08771526287537486
-0.19061847369832158 0.014601245579849017 0.08193706940155894
-0.19002203982037663 0.006768092570434345 0.07815238307457835
-0.19110556285542607 0.019949600157867207 0.08231374095421702
-0.18876916508835911 0.015406981167922747 0.07732453416329295
-0.18847753446263432 0.05369324987901283 0.07519757221680552
-0.1889883760706818 0.05420668428910805 0.07595714400750071
-0.18853973190945744 0.05414332455171181 0.07493256996613414
-0.18749003451031804 0.05420307820809914 0.07625594209175975
-0.18809570710820317 0.054754868207107316 0.077095771536645
-0.18821274082821965 0.05438561743272377 0.0762514419410792
-0.1875070814387238 0.05634857719911171 0.074612701639947
-0.18828437071007847 0.057662710604797135 0.07621713946801097
-0.18940152566594243 0.05735073989404274 0.07483386467438609
-0.18919468264741063 0.054558828530441056 0.0747469014976588
-0.1897263560788071 0.055060192999969254 0.07559981416207225
-0.18933561782998204 0.05508469050897194 0.0747374541614619
-0.1879418377177155 0.05493910616410805 0.07578819464188487
-0.1885720376269257 0.055484309849868546 0.07677697609406382
-0.1888232116000092 0.05513577168954445 0.07607697914582164
-0.1881379966036713 0.05706797545922829 0.07475953768235118
-0.18871355395478367 0.05823881929887367 0.07626369069558055
-0.1895760033623612 0.05810783809197975 0.07490324448090464
-0.19353700022858739 0.05463968223107887 0.07635762761574656
-0.1933492604987061 0.054316505847106705 0.07595455120545298
-0.19010198455018162 0.055309757647643815 0.07572325538140208
-0.19361913542908787 0.05429224675668312 0.07608031700592906
-0.1934262846009171 0.053937241492400895 0.07565471003991038
-0.19001479785603642 0.055141523537765275 0.07520234058838755
-0.19218322973412633 0.05599753564370705 0.07476502130967051
-0.19221805374783635 0.05625613039506508 0.07509087990265757
-0.19053431193989873 0.056630536971221695 0.07645469377976329
-0.19322102110547185 0.05396522587312294 0.07594352434616954
-0.19277531247300267 0.05312417453301979 0.0750755615089503
-0.18938403170270085 0.05415855353845192 0.07465564678650767
-0.19322467188996434 0.052669480500350724 0.07482400010567576
-0.19279547374409794 0.05168284481538368 0.07389443586808116
-0.1890172098175919 0.05334289377702309 0.07268782924157054
-0.19344821911019444 0.055009886679778824 0.07269298504334361
-0.193479779769603 0.05516217654717995 0.07279163073044688
-0.1908196691767609 0.05545933550370766 0.07401766847115428
-0.17610267143410802 0.028648063597808613 0.09643595884781749
-0.1758151982323563 0.030138626752029194 0.10076274941903025
-0.177926037122432 0.03203548496736122 0.09693765114289195
-0.16953909735840916 0.030504480061660542 0.10136419008713633
-0.17221807282132268 0.03567044442666603 0.10512414048653514
-0.17488547008198857 0.0346256644107206 0.1002479441021052
-0.17526550929707646 0.03199972218049599 0.09584682653885752
-0.17474282126587987 0.04223249858392311 0.09896343420487315
-0.17559449713391423 0.03677774971498085 0.093817944035348
-0.17668845098179936 0.030279979167114033 0.0945142752979365
-0.17728704552811742 0.03040973847879006 0.10067250798684031
-0.18037604134244084 0.03432808822167946 0.0960510618541804
-0.17340518872899174 0.03693465894235207 0.09920790265541941
-0.1764028106228745 0.04062055057061745 0.10384135912400157
-0.17844106595677495 0.04005660122407509 0.09831070373993785
-0.17716297846001744 0.036942973790298234 0.09498112867813975
-0.17810555141133427 0.046602800545821915 0.09836065243225962
-0.17732976715726018 0.04279769962800575 0.09354161690216929
-0.17709805410069585 0.020410195050369038 0.09425165723305613
-0.17680417339963078 0.020585551915298237 0.0984573609684077
-0.1780764196412003 0.025392964539657368 0.09718998740654856
-0.1756728325383103 0.02629373973382546 0.1000541992042628
-0.1759738508955872 0.028443500456939472 0.10328211854439646
-0.17689819972676396 0.030047223029266133 0.09979351829033763
-0.17815216224354863 0.022640600857864155 0.09615712831955821
-0.1782137487427628 0.03161199396623207 0.0993266053054896
-0.1767186109320557 0.030143931565414204 0.09493302772980601
-0.17871712486905217 -0.026567801775802837 0.07922842572670848
-0.18117289583844304 -0.021596476378311382 0.0883785433624354
-0.18516296487015843 -0.024445787014831768 0.08424588511925608
-0.16788584332627415 -0.023894146027435528 0.08468383024674327
-0.17495210807484746 -0.015281364264358747 0.09038298796158702
-0.17963771860760808 -0.01976986223684715 0.08247863720398814
-0.17363135855359196 -0.02249132091032432 0.07858100007515818
-0.17472571473282933 -0.006039723696579205 0.08277743528824717
-0.17898851971787572 -0.01662330323683189 0.07638617824059397
-0.17768320779961705 -0.025326356234421 0.08475887249451548
-0.1803536448971665 -0.027290776314605938 0.09479593704682261
-0.171066347171489 -0.019654139819015728 0.08953681062203318
-0.17701717059773564 -0.016358897032608257 0.0949279613350001
-0.18287490647000432 -0.01771922403799461 0.08665894936066539
-0.17554337124985814 -0.01865647727476524 0.08562486837845713
-0.17933243851822972 -0.006359621825088727 0.09004875491600901
-0.1798556629912293 -0.012776777090896833 0.08355587194901377
-0.178325149823848 -0.029258325638641582 0.08008297751885325
-0.17887121777695775 -0.029589429440368877 0.08751627276879222
-0.1817668412224686 -0.029812171997894512 0.08613529275399119
-0.17511844973725438 -0.026223882975448833 0.08562731216889292
-0.17960191111725926 -0.020269021334518657 0.09042781065445811
-0.1840135339991486 -0.021475180926193462 0.08398386310082347
-0.180870715190593 -0.023987278284897075 0.08308749865036875
-0.18292056362790227 -0.011050745787491071 0.08674445222359568
-0.18298423628968358 -0.016690358462204204 0.08089988897782237
-0.19367029111546635 -0.020813748183120952 0.03940501283150584
-0.19395363669556737 -0.020287826599945293 0.04301186870079905
-0.19331528585118413 -0.02209527784811424 0.04188185404282481
-0.19057099859875798 -0.019735678973068462 0.04423376391869456
-0.19229238073987126 -0.01645933085905479 0.04788967441063792
-0.19515242021245122 -0.0174184291981356 0.04267090033036143
-0.19498589973610997 -0.017315462174286114 0.042617166743096416
-0.19493413310212254 -0.008222535195221174 0.04423915813904673
-0.19410142641228795 -0.013052090945114362 0.04017558167916209
-0.19190605323475957 -0.0017714350842134828 0.04332512091141612
-0.19076389413041234 -0.020672365965713726 0.041916186318215434
-0.19192740659875035 -0.021780714335312115 0.04546197722893626
-0.19199353795212865 -0.021582499089111553 0.04282378624421031
-0.18818702142399907 -0.01765377813803123 0.043749744400796
-0.1901545856491959 -0.016805157008041607 0.047771657213982646
-0.1939552609221375 -0.017059549631942974 0.04399859379273326
-0.1938138191000855 -0.015621885599960554 0.04402931998711497
-0.19528560679120183 -0.010857149901260603 0.04692899654847056
-0.1929723952309525 -0.012607559504379499 0.04357113908272654
-0.19338699023884892 -0.02293409401403831 0.03931128452759654
-0.1932950351731217 -0.023007646145691143 0.04057207177620799
-0.18913160603207707 -0.02426160866247581 0.040792728171166484
-0.19354053180379033 -0.02165053779112266 0.04259433816414744
-0.1932233456866181 -0.021523103060592876 0.04401343534928233
-0.19043299894494176 -0.02114106708990501 0.04168000291329295
-0.19567279856366276 -0.022699817957748638 0.04199987123948008
-0.19561195712250828 -0.018937632384170757 0.043470258221444194
-0.1941911612049973 -0.016813948693145977 0.04145994256478221
-0.19439955394429326 -0.008234575333465803 0.04382916758995921
-0.19341594319504857 -0.024029269757141338 0.04176753233414561
-0.19286254387063145 -0.024959728064407573 0.04272108744126231
-0.18964535336655736 -0.025574728789200054 0.042532349333581035
-0.19254179637593388 -0.02275590592848228 0.043797010884102885
-0.19268943708104252 -0.022575870098938213 0.046004617914971416
-0.19143961708706975 -0.021873071732391582 0.04318373869400889
-0.1954445276753342 -0.022643074335922466 0.04351958106499583
-0.1956589106814301 -0.018214836659301983 0.04486134122353465
-0.19433559816044926 -0.01661671692358421 0.043195987448510234
-0.1910081092612183 -0.023313954415191875 0.04969572494965464
-0.1943926696078217 -0.020717605891098247 0.054369682774361675
-0.19597009163064122 -0.021844044270385967 0.04955523680191905
-0.18428995053929448 -0.022691801133026348 0.05240380238037974
-0.188311162997905 -0.019972905459274517 0.056242103085335796
-0.19159591536683201 -0.02160568529592918 0.0512699134204951
-0.1854069564835465 -0.02175734931456016 0.049791926846322124
-0.18982902507943272 -0.014968201460708845 0.053305710062798564
-0.19069943170708775 -0.019092932286133037 0.048319811329659526
-0.1921820972458756 -0.023437872471679912 0.05326809953194529
-0.19560867886704564 -0.022835597338546978 0.05788480709534556
-0.19748935442132115 -0.02310661965834068 0.05340134571534068
-0.1879384402529633 -0.01995940500723289 0.05466344426613719
-0.19175294380349278 -0.01942627126203941 0.05892872284394175
-0.19587813656491398 -0.020497903170456157 0.05434205602150828
-0.19285028021496892 -0.017568096461166607 0.054976905093010967
-0.1956296298996842 -0.013497129025329816 0.05849378775101573
-0.19628875296277165 -0.015579536499847639 0.053802514777001445
-0.19543663005990147 -0.02670429641233848 0.05028518508416087
-0.19623425941628575 -0.026147171797622906 0.0525957293365565
-0.19594939391774296 -0.02617181831823753 0.05041077207070262
-0.19355954568547368 -0.025577977242340313 0.052259052500542705
-0.19488931040925145 -0.024312630238403545 0.0544616527412501
-0.19566260616940617 -0.024853929819931255 0.05186083386879832
-0.19692625444096684 -0.0234834402226107 0.05182763408165843
-0.19790694456261754 -0.020172849240173565 0.053415859446343486
-0.19522984664601445 -0.02206523710714744 0.05143784950714976
-0.19537391107243657 -0.027133271040786968 0.05060350368958384
-0.19632564823788762 -0.026592776121963726 0.05320888231736094
-0.1962007467047608 -0.02664406591879295 0.050872171625908916
-0.19322075288457036 -0.025912210287918316 0.05256774495583445
-0.19478811662358403 -0.024611636938919292 0.055005127892312114
-0.19576180319947362 -0.025254800858368145 0.052239651188668315
-0.1969087008730805 -0.02349428826795982 0.052241320118722026
-0.19805083017510533 -0.02019064122663902 0.05402406524163157
-0.19530250470799565 -0.02211661631094383 0.05191087196808726
-0.1917553279892838 -0.03470142179953026 0.02191748689156443
-0.1926008198754227 -0.03154446178900169 0.02810620735627085
-0.19396189193886876 -0.033721283020843734 0.024266148314293922
-0.18554880063695073 -0.03310506040083336 0.027887756333169044
-0.18886262517136693 -0.026282802166809307 0.03238015840989024
-0.19211568277043461 -0.030416056456436382 0.025503123507317604
-0.18930459361237645 -0.030977204384674297 0.023203904137429298
-0.19019376080197453 -0.016407653632034527 0.025700951323327125
-0.1916165087716019 -0.02609629923330711 0.020535195574578346
-0.18881491165322423 -0.017737373652328716 0.024229878887948097
-0.1912612054840958 -0.03523249918447899 0.02650236557465464
-0.19276786189240575 -0.036919787468780746 0.03343933294754893
-0.1955254409806168 -0.03486378485189842 0.02792363832932383
-0.18792081217927098 -0.02942220860945152 0.03027140568238169
-0.19250671904248357 -0.027590557875503765 0.0357982165668574
-0.19562752883595586 -0.028973028006424175 0.029399270520028175
-0.19232611696881413 -0.027887448611129986 0.02821173737984568
-0.19489018957776189 -0.019996568503250347 0.03227918814164073
-0.1945014331833756 -0.024628266634811626 0.027064645991143287
-0.19349250536126256 -0.03891049319731163 0.022728825316247047
-0.19311903755826115 -0.03940449649321007 0.026732350096520485
-0.19195986132783055 -0.03861121827589439 0.024977172121819557
-0.19217785041493535 -0.03627739840971397 0.027096832499321998
-0.19299289922875523 -0.0336242466591494 0.030737394795235694
-0.19415250759286046 -0.03384236985670494 0.02611353467446238
-0.1963748667733109 -0.034088894667495956 0.026025230393227638
-0.19687758724850773 -0.02546654635893272 0.027749473557290138
-0.1949533406989014 -0.02883772546278404 0.024606967673119606
-0.19406344335240483 -0.01803304249273704 0.027625495896157325
-0.1940000538126862 -0.03981967264639305 0.02505510519486338
-0.1932816539303696 -0.04173155123220848 0.029387856230553688
-0.19326734881562352 -0.04012598091589378 0.026688957915124
-0.19176611642998814 -0.03712646657453941 0.02858763407212168
-0.19377306442422032 -0.03433363133894371 0.03312831591111094
-0.19583246450585484 -0.034770384373535385 0.027902448878106178
-0.19677579741639256 -0.0342941730641024 0.02784695695382029
-0.19796088676613927 -0.025457069220413433 0.029844248995598854
-0.19569808583420872 -0.02913810307012962 0.026466364369210304
-0.19521114568871617 -0.018763765635360943 0.03032391737442881
-0.1882748339669144 -0.0010531395100252504 0.0871283061359492
-0.19144200127286076 0.001075729785094989 0.09202864240151316
-0.19268742542428136 0.0002136678077085143 0.08841704796296031
-0.18102610449952244 -0.00021509820448325817 0.08931421707611949
-0.18503716926735997 0.0022846311904294618 0.09341841410141856
-0.19000640850228429 0.0020358116008145936 0.08865779112320811
-0.18209444325131535 -0.0008500962875978822 0.08599903653603465
-0.18534402887982487 0.0058801621772153504 0.08979904125672251
-0.18790652196568608 0.002664133963714374 0.08505159090500743
-0.18893701176804661 -0.0026263147019045226 0.09117412041169078
-0.19297547977131962 -0.0021478384159700744 0.09678318570595652
-0.19507065754098057 -0.002119913639892804 0.09250950287323863
-0.1828240786091721 0.0007314831591947203 0.09240862201195628
-0.18816970627469182 0.002599582133422626 0.09698992441635997
-0.1932787482039368 0.0020945221759183534 0.09201225112419993
-0.18696445565384984 0.00405518716348244 0.09064578484040171
-0.19160147349995732 0.008645191846023333 0.09509273837548167
-0.19149752299946904 0.005959346947799457 0.090186352238473
-0.19322578947705388 -0.006847098412384259 0.08981593917351634
-0.19483632188004613 -0.0060934870861666076 0.09298869441491038
-0.19415954094094395 -0.006629541458954083 0.09085207651596934
-0.19233821671170354 -0.003603115620483624 0.09168254803162486
-0.19450900297326207 -0.0020877867363588683 0.09472977589112193
-0.19629192691010594 -0.0019420831822054261 0.09130209158402354
-0.19241647761029362 -0.004507765116562115 0.09015085767250926
-0.19392411749524235 0.00016303366197181995 0.09285023282509715
-0.1941371444956696 -0.0010945349358217591 0.08952167104226023
