ply
format ascii 1.0
element vertex 639
property float x
property float y
property float z
element face 0
property list uchar int vertex_indices
end_header
0.002009597013767962 -0.09329365188108849 -0.20545092751044364
-0.0029030774132645086 -0.08482865983473228 -0.20008339513796897
-0.0053806338803207825 -0.08725263172613548 -0.20584081639308066
0.014955368231114154 -0.08435375982748436 -0.2040840290929708
0.007784631441410785 -0.07916982466207909 -0.19775461186427207
0.003435250709828143 -0.08147473627554344 -0.20417914320487113
0.011660483072575336 -0.08811832958685326 -0.2110708557512197
0.0040754045947158386 -0.07974778110014366 -0.2048949353839788
-0.00022816996735691567 -0.0834739654682772 -0.21124326218623252
-0.004412594844523663 -0.08097602421270775 -0.20307535459059806
-0.009105447341624493 -0.07575167709814476 -0.19717990387934775
-0.012875381519023175 -0.07684420043455528 -0.20441492427844138
0.008124467323597674 -0.07069872313963341 -0.20372835327643485
-0.00022697787446140786 -0.06723950797544884 -0.19726788033503623
-0.004431012679759259 -0.06903506809698509 -0.20473424126166434
0.004247781227406268 -0.07475496822821068 -0.20888925124663443
6.159801321864584e-05 -0.06913529330717491 -0.20340475965994925
-0.005652580072108502 -0.07136280828939842 -0.21008322168845267
-0.004375848581019635 -0.09122152620779442 -0.20117328096884818
-0.007760170509043927 -0.0852127521656649 -0.19522418607730002
-0.011742237617198224 -0.08482752734648155 -0.20137937892932029
0.0010688271029555842 -0.07714392239080833 -0.20076914657610984
-0.005977663804713483 -0.07259817415701317 -0.19566886652964682
-0.007074568082514996 -0.07504115993009972 -0.2016709350492391
-0.0013855133549606755 -0.0787430256031649 -0.20530550707835288
-0.004883233119670148 -0.07311819488035606 -0.200623413219634
-0.008644912053767438 -0.07570548349844383 -0.2063358031656179
0.07207846302824855 -0.06332747632490562 -0.20273443092364402
0.06993215937453151 -0.05776585632788109 -0.1992392443563375
0.07125883955794216 -0.058880433382858505 -0.20252924193400473
0.07742517847853542 -0.05651237064825462 -0.20106359352130027
0.07297011871176601 -0.05322982365118431 -0.19726585377711386
0.07315799255209804 -0.054952964129318466 -0.20123147000331015
0.07745676894026637 -0.05854974681364464 -0.20704395104903311
0.07380151409941554 -0.054241642298568954 -0.20263913799780936
0.07074784893828273 -0.05588807159887718 -0.20714533854979605
0.07245343584853053 -0.057636335434784164 -0.20488252271670432
0.06984141130286098 -0.052615269961227645 -0.2009756170656118
0.07012664933043361 -0.05291084939466881 -0.20498352278727622
0.07778468389349819 -0.05358438188063072 -0.20389618505496115
0.07351609725790859 -0.050714924874176254 -0.2000339381839666
0.07344844598608852 -0.05233497911917137 -0.20445615579146476
0.07734101672011257 -0.05459834629522728 -0.2083363734628591
0.07338344712096095 -0.05085836345182823 -0.20383023251551718
0.07027601857024074 -0.052059367241729965 -0.20866512288111777
0.07099720496970058 -0.05815751844870018 -0.2035645001079473
0.0689328577025497 -0.0532475262306826 -0.1997425310756597
0.0706784095271194 -0.05265165859686302 -0.20349215497035117
0.07501774687605739 -0.05363108211981224 -0.2021933995630178
0.07230835814314723 -0.05079747730719017 -0.19884868492144675
0.07260429520445705 -0.0520035772942202 -0.20275244642752738
0.0745362307532394 -0.05369983607756065 -0.20651950468081565
0.07083975930052638 -0.04979203635679649 -0.20230489005107016
0.06902783770399928 -0.051152750792373886 -0.20673770238417716
0.07124349136191249 -0.05689294630514549 -0.2046835028077993
0.06896754760580898 -0.05195690685736107 -0.20071176220435233
0.07045903463202358 -0.051485344710220565 -0.2046679757978353
0.0753788318141067 -0.052268192114700546 -0.20327838291186423
0.07271939177351833 -0.0495696812294619 -0.1998626493360433
0.07267838377791286 -0.05080379539953636 -0.20401637782115073
0.07491668720084071 -0.05299238854872154 -0.20755544830817313
0.07107713479834438 -0.049101874174942245 -0.20329267312544913
0.06911635060149074 -0.05047266179548668 -0.207895820632163
0.0021017159922683284 -0.1483960300110476 -0.20185827244776816
0.0002654160960280941 -0.14590963715540337 -0.1993770502950582
-0.0033799145714676336 -0.14666581148134636 -0.2037057333137426
0.012134429405506854 -0.15071538084970879 -0.20059986938494773
0.009282466362293964 -0.14837086194979118 -0.1976009659912023
0.003320392559345965 -0.1493899821661608 -0.201908072128478
0.01066213507490993 -0.14858461910711693 -0.20223823715705008
0.009077694605168109 -0.14508543902861046 -0.19969927300471396
0.00449332256155849 -0.14713902765737938 -0.20448276926535697
-0.0004245374695694401 -0.14907355600820946 -0.19940890897769065
-0.001814875413600202 -0.14714354270922111 -0.1968191765691671
-0.006061050702754254 -0.14735220366941856 -0.2010531031038198
0.0071250762446487 -0.1502614616774218 -0.19809471596736045
0.00480082292395473 -0.148133009614815 -0.1953610532428655
3.653426009059408e-05 -0.14907857769953178 -0.199524318471137
0.006738033483799701 -0.14830198878275322 -0.1991331629897985
0.004554387520130878 -0.1447832881830828 -0.19693875838774771
0.001437690447148089 -0.146566390933861 -0.20150827397364707
-0.0030107532040512517 -0.1518522202395098 -0.20013654757994742
-0.0034601126210129216 -0.1505307703636782 -0.19929557074565024
-0.004750314761821027 -0.15094435209261345 -0.20155582357901664
0.00045713443594813804 -0.15255427354799675 -0.19825715352553458
-6.348233384251139e-05 -0.15119509393202232 -0.19749549557227225
-0.002269003202143903 -0.15154473477827476 -0.2000770025398168
0.0019086863501632258 -0.15327675634848045 -0.20086671937960715
0.001434471796330218 -0.14998623723017143 -0.19993421961325736
1.889128523707846e-05 -0.1518442630194323 -0.20315124620455832
0.04491176862555385 -0.10240629309641289 -0.1990466766502294
0.04394542832213283 -0.09546382719503807 -0.19432230819720359
0.04160561818915248 -0.09542952472196983 -0.19966565598506064
0.05126639861899257 -0.09122087055670189 -0.19667304088133902
0.0478355254633987 -0.08576975757109093 -0.19240817953604789
0.045211848209675554 -0.08796794706808495 -0.19803530503768058
0.04902308840590358 -0.09248580032812523 -0.20249513317603202
0.045895513485249284 -0.08397047215925621 -0.19831508924025626
0.042691793630894426 -0.08802686625944542 -0.20363799263495536
0.042081024835881 -0.0985111444615023 -0.2015231900360021
0.04091736335593105 -0.09248162800299095 -0.1962814830686483
0.03903934020834804 -0.0920826047085421 -0.20232023824709983
0.0483589138491714 -0.08740402752386497 -0.19901122678774924
0.044296708296116594 -0.0820694416187899 -0.1942154668714437
0.04224922914343715 -0.0841567664765017 -0.20057730902690024
0.047128495167073015 -0.08653725677954124 -0.20452251066226096
0.044206317852314714 -0.07770554715620445 -0.20030050505656333
0.04093667526083827 -0.08148260408865379 -0.20554151166934104
-0.021576378156367537 -0.112060233893265 -0.20546672274130912
-0.023719910194102523 -0.11071702832209038 -0.20275687207240195
-0.02745834331673741 -0.11034823948370384 -0.2054716103221807
-0.01744082908791661 -0.110810935439934 -0.2037475906755361
-0.019527855922404525 -0.10984244936930107 -0.20111451078909964
-0.02585447173279881 -0.1097317039393084 -0.2034218661929998
-0.018670651723567244 -0.10643716150747703 -0.20658457805174918
-0.020507994701091048 -0.10464312130438255 -0.20310704936045737
-0.02521014552277684 -0.10510316485392021 -0.20703095723647208
-0.025532219220820662 -0.10913375014292168 -0.2039338849927816
-0.02765077691239476 -0.10778982931600975 -0.20082796145934195
-0.03073031048936009 -0.1074465065621035 -0.2039670698787603
-0.020587656308833358 -0.1077182739399569 -0.20223741759318442
-0.023079756309214827 -0.10654930764662193 -0.1992828153516683
-0.02873388271493077 -0.10670377308355736 -0.20178124834555716
-0.02280545573395848 -0.10335580998884605 -0.20473100770968528
-0.024915013124171492 -0.10106353456007408 -0.20128164221304984
-0.02785948257607579 -0.10196183616148399 -0.20528770019072623
-0.027399990369502303 -0.11493149394022392 -0.20227073658961386
-0.02800417285126805 -0.11438184970842766 -0.20124145378131003
-0.029286507178965804 -0.11356805259214806 -0.2030832075025472
-0.0247997079388535 -0.11485418671595024 -0.20100381006259055
-0.025617781688395735 -0.11419062310682701 -0.1996812575008306
-0.02819428186577916 -0.11382623011099266 -0.2012502305652532
-0.026198658754054305 -0.11253173643576073 -0.20348476399439902
-0.027370515872660872 -0.11013042921053337 -0.20188271035212607
-0.02935523133439183 -0.11086946720110344 -0.2040050380374822
-0.027286175300303694 -0.11416825646387505 -0.2032859825040731
-0.02740687470597386 -0.11403056973444389 -0.20311816562670798
-0.027910980989161727 -0.11293926829325127 -0.20449585248488517
-0.026665631343547103 -0.11410957569109367 -0.20281447996157737
-0.026826593686763045 -0.1139336823843615 -0.2025993518974218
-0.027671757747355696 -0.1129558830879824 -0.20384972323435874
-0.026093367149058577 -0.11512272054182457 -0.20666041006106467
-0.026633683253947493 -0.11328859621511864 -0.20551175405043692
-0.029455724765483138 -0.11301699275003838 -0.2071757369186315
0.022839960048969987 -0.06316654378401207 -0.2101974837924871
0.021050211380299333 -0.05775921040998863 -0.2060228638793859
0.021937426517781022 -0.05863074952589439 -0.2098901175405416
0.02865457196074367 -0.05486004048811363 -0.20799302090663047
0.025131281803425554 -0.05220066005217003 -0.20384556581038565
0.023813035677250627 -0.053599730076660385 -0.2086873405124578
0.02844416756468654 -0.05697740608679222 -0.21380185116786093
0.0234047438605392 -0.05247525865065025 -0.20882857371825309
0.021076675842579606 -0.05435071879850792 -0.2139085136796865
0.022916403005894426 -0.055864766182770004 -0.21265930463332267
0.02092778343993068 -0.0508993714474337 -0.2082119040634069
0.021369751880940202 -0.05105309182630943 -0.2126946054841909
0.0286021794779861 -0.04847593599783348 -0.21073170532244773
0.02516132254439235 -0.04603971535192894 -0.20655307699698539
0.023764159868534807 -0.047313764634002914 -0.21174486507433982
0.027843024919804338 -0.050241753401626815 -0.21532325972575278
0.02310138602095485 -0.046213820519317855 -0.21058199335593314
0.020849731157597307 -0.04785577947126793 -0.2159732632781896
0.0209500159724319 -0.06190343195425438 -0.21037440527934165
0.01992344517546535 -0.056940898241867294 -0.20643879999178977
0.022063639353092912 -0.05579407507406639 -0.20975141753214926
0.02440756220656276 -0.05340023333059715 -0.20787872900027365
0.022575702856358293 -0.05089099699484276 -0.20442499746340842
0.021992858837422136 -0.05154813820349144 -0.2082685582782659
0.023435768078144792 -0.053550049605240096 -0.21260564555186362
0.019224699924763444 -0.049291685166229476 -0.2080760203744802
0.018277194689091447 -0.05092720681654381 -0.21275507439631552
-0.03687781434220433 -0.04067765170561241 -0.20780009557265372
-0.03701994161767125 -0.04073004418836998 -0.20739064146536917
-0.03920528631371617 -0.04144741589056419 -0.20563890565890403
-0.03857529502076268 -0.041305288615097274 -0.20810005594748587
-0.038711759854975936 -0.04130278522001671 -0.20781279136199088
-0.040403548289958235 -0.04187740379797386 -0.20610899259108634
-0.03556594591302037 -0.041153088154663314 -0.2071491085435781
-0.035698268224421736 -0.04113449150549339 -0.20704629053134055
-0.03895077448052525 -0.04110313946234154 -0.20747235943335623
-0.03439122777146458 -0.04582630092131065 -0.20420615901011557
-0.03443539481324315 -0.04587565356718468 -0.20378740657824607
-0.03660849075478673 -0.04630763823019432 -0.20257784952181906
-0.036261055280390975 -0.04655580216871666 -0.20509680141467185
-0.03643080930871129 -0.04651580745207237 -0.20473611880797477
-0.03706309538048863 -0.047010645212997665 -0.2033440970327291
-0.03366145830315709 -0.04438997799383568 -0.20487714339751334
-0.03431007604760289 -0.04427747422682213 -0.2043669127370748
-0.03673670034569859 -0.044331297221054305 -0.20486000706214041
-0.038697812368098494 -0.04230932885633873 -0.20614986647624106
-0.038408670236293074 -0.042306527438034286 -0.20662698675650687
-0.03947195749444127 -0.0426237731598513 -0.20398679901618094
-0.041794541885081526 -0.04376108938681053 -0.20659436811465354
-0.04141188006562352 -0.04399569326864647 -0.2070141636278066
-0.04171148281258702 -0.04329438501821922 -0.20516358841914267
-0.04070595245522618 -0.04350335890280174 -0.20553647507685752
-0.04004869203728795 -0.043621763529648055 -0.2061839305307302
-0.04119840603036046 -0.04347915941702293 -0.20555961658019156
-0.03854951601189732 -0.04982684546934532 -0.2014520071889791
-0.03621486168069005 -0.05032338196264671 -0.20380127955931754
-0.035706702281657454 -0.049156829657425155 -0.201264282360259
-0.04382738809746861 -0.05326871568190025 -0.2048077188875112
-0.04250359873932957 -0.05479581648336815 -0.20605546762007804
-0.03799739818734288 -0.050868019404281845 -0.20664130677241416
-0.04198170046967625 -0.04837726050840782 -0.20959383775252433
-0.03960681300324559 -0.048987701477874984 -0.211430018439475
-0.04018402438325047 -0.04783757025228905 -0.2088246845151815
-0.0381552610890305 -0.04998822504507469 -0.20120211471575827
-0.03568518500489354 -0.05058424169050621 -0.20370275308150382
-0.03520900349778294 -0.049190565886368026 -0.20096619953173728
-0.04345915060204625 -0.05369253450857567 -0.20471196402567954
-0.042008701373759505 -0.055404141487945785 -0.20608544875640006
-0.037269148637477156 -0.051183804812301864 -0.20657185246008963
-0.04122308235329747 -0.04868035012709068 -0.2099153154041204
-0.03866294365090489 -0.0493349879406588 -0.21191172827738852
-0.03936007957619786 -0.048126742186416854 -0.20909603466052146
0.008725669573124652 -0.11026512080656456 -0.20726152290362448
0.004601981828984027 -0.10477684432493614 -0.2035349362041387
0.0032825138075912043 -0.10638792807089256 -0.20809893836039633
0.017881270836170915 -0.10744418198095726 -0.2054929487850103
0.012903955171879535 -0.10364139074312614 -0.20146236349600882
0.008042361925419574 -0.10486866528021263 -0.206506540670577
0.017650541256245378 -0.11184570187555717 -0.21092631448763938
0.015700813720997575 -0.10593935841547417 -0.20741980303782553
0.010470178316410785 -0.10813525313364433 -0.21199156869906516
0.008626040409382587 -0.10853026801573204 -0.20425680805701346
0.005912449549015765 -0.10535423451887535 -0.20039099980849356
0.0029075707896316096 -0.10609559709059166 -0.20623884130972953
0.016537752340611223 -0.10425706202017235 -0.20391506482619376
0.011665251444157367 -0.10120557242857384 -0.19953801263827414
0.006645825098332172 -0.10200156265722679 -0.20527957905787558
0.01765814084845424 -0.10830119246469902 -0.2084562980081472
0.013551529835041766 -0.10254880780207085 -0.2047372512962255
0.010155734012898212 -0.10468614095674919 -0.20983720351714225
0.04865544695692897 -0.06671796733366417 -0.20286688734549613
0.046005692671116594 -0.059131815972198715 -0.19795705904025168
0.04523685235815883 -0.061194315495361556 -0.20344310034770102
0.06116017360525966 -0.06155182415472435 -0.20030554164904685
0.05494755167799831 -0.057167693915237655 -0.19468062151927085
0.05113640088873744 -0.058926984610428085 -0.2014173470880422
0.056689020584400895 -0.06265743071066307 -0.20659402538794608
0.0511311854823196 -0.056650713028778305 -0.20129767586249442
0.04675849933462978 -0.05913822347151207 -0.2073433302785787
0.048409697006520036 -0.05907692009436058 -0.20434916545409293
0.04581787843542934 -0.05221934610830711 -0.1988720499421987
0.04436817426520229 -0.05288271600233482 -0.20482704569357962
0.05965873260336757 -0.05124525720106529 -0.20293787647742362
0.053507175634678605 -0.04735632235037254 -0.19713388909358115
0.05012598295050502 -0.048815950693954696 -0.2042412214424047
0.05482104081946254 -0.05395905667768883 -0.20803197254199118
0.04935475845175624 -0.04815851146208214 -0.20277980495947928
0.046767320822056535 -0.05101688200460838 -0.20916557837981314
0.04578292031126857 -0.07140706473814415 -0.20282392729777426
0.045172658155735734 -0.0646010487698214 -0.1983338945056829
0.046145584772404435 -0.06434704357611107 -0.20265593160647483
0.05147823352652431 -0.0607962756775515 -0.19986722399252982
0.04951509494620204 -0.05745886260496544 -0.19572622109908194
0.047371086071308854 -0.0586874037407534 -0.2011865281011495
0.04950466413336635 -0.06299252802359032 -0.20545493592280478
0.045128282497700456 -0.057228341641296615 -0.20063636232871146
0.04349177737074733 -0.059938207211364974 -0.20609152843016715
0.019257273863133195 -0.09260569507109093 -0.2070367388870153
0.015871998260792497 -0.07685391599165367 -0.2014386706497106
0.013452526520069842 -0.08487917477117943 -0.2076426946069631
0.03803190250235439 -0.08586142951475548 -0.20557788540381522
0.029876109550770524 -0.07480521494375633 -0.19847162593859763
0.026155379007633928 -0.08125181490408348 -0.20568824340361685
0.0325563814147079 -0.08968557411657738 -0.21450195242423148
0.025238212536152604 -0.0743983834408419 -0.20744056035536856
0.019852247427281144 -0.0829350798748629 -0.21430978704947562
0.016883846710499528 -0.087442234101166 -0.20546302725333304
0.013743039558705096 -0.07492612296568321 -0.19844587673205466
0.009106960485752826 -0.08052550250517296 -0.20704843629855246
0.034013029526051286 -0.07628639036642479 -0.20491046239394278
0.024400618265446428 -0.06671734148489403 -0.19778366912860007
0.020463373850163225 -0.07193173462377953 -0.2061425202037725
0.02801862020331264 -0.07968898111807274 -0.21259087850112052
0.02291285652953029 -0.06534852081762718 -0.20593643714446158
0.01624011654692531 -0.07302354270445274 -0.2131796978856954
-0.00833142142457127 -0.049019142927994 -0.20764703084487052
-0.009870204736415143 -0.047632649483551254 -0.2048799001123342
-0.010723087598506207 -0.047641679587234725 -0.20738390614050956
-0.0040759180085098694 -0.044911876263489 -0.20670894314307303
-0.006213578988734479 -0.044422075095047225 -0.20362781514185996
-0.009450707246485944 -0.044533923210968246 -0.20720200766581626
-0.00568002801102757 -0.046741142811645736 -0.2088123314525518
-0.007815453817073102 -0.045430317463745346 -0.20615891148108573
-0.010082129050914044 -0.04561106854902672 -0.21028955806750388
-0.009011659433070416 -0.04767085606085228 -0.20880735446471305
-0.010639611293498273 -0.04639144236074852 -0.2061572574521932
-0.011527035047236676 -0.04633145028578209 -0.20842029680270285
-0.005045655776683087 -0.0436250417851107 -0.20819096793192954
-0.007313850928965802 -0.043184950890411605 -0.20513597656745047
-0.010661933232966657 -0.043270543160309066 -0.2084807359125051
-0.00638917427224278 -0.045755550207962264 -0.20994055797118277
-0.008485678245249982 -0.04457782203184532 -0.20743354190844626
-0.011029217054072614 -0.04457281524168419 -0.21150646139639945
-0.012114558030787701 -0.04916153842436241 -0.20936729539889426
-0.013097826053324933 -0.048321083130707015 -0.20775068332213492
-0.011892649938288922 -0.04729346925245689 -0.20817015100974173
-0.010816696693125958 -0.046752020659317245 -0.20836055804747672
-0.011465999890986676 -0.04642398649679588 -0.20706344176787467
-0.011952493001643414 -0.04624752694593834 -0.20779401589888663
-0.011500063945475812 -0.04660828405844139 -0.2100374006177816
-0.013241056014720197 -0.0456714182518618 -0.20791027475852103
-0.015294704248133893 -0.04518608743177818 -0.21051100422400565
0.009098526428517108 -0.1341266482494967 -0.2028477989580068
0.007067945192631488 -0.13162666553484367 -0.19999766875762076
0.00349813361006618 -0.1317048519276278 -0.20455401171702475
0.01603737134772182 -0.13296943897234367 -0.20195332695502372
0.013091739605244403 -0.13084557646738457 -0.19873896767157645
0.007117208431538348 -0.13093596691118645 -0.20313613642710776
0.015330728481587176 -0.13266062730776237 -0.2046401553298864
0.013726350258167987 -0.12864030891882347 -0.20246711899298758
0.01008954305487514 -0.13011193269716667 -0.20658317734259696
0.008047905157383685 -0.13280263537393974 -0.19992331196326346
0.005188402126606708 -0.13036899262892174 -0.19636968304175467
0.0017975832923018977 -0.1305437087439196 -0.20171899129408927
0.014610376547154193 -0.13076686853395866 -0.19966741432208152
0.011533912609394794 -0.12875933939443993 -0.1961290888931188
0.005702402780827289 -0.12903062993513512 -0.20086384345549674
0.0135700966818893 -0.13005790108667778 -0.20159581829566092
0.01156112212973476 -0.12656226748453545 -0.19895421494502158
0.008101430128391986 -0.12747420364843773 -0.20365959931868644
-0.011949333955470319 -0.13822092110144066 -0.2039699756051931
-0.01627055149239659 -0.13531139487253593 -0.1992409579898748
-0.01931274275941014 -0.1359363793753283 -0.20400429297942252
0.004382487724598651 -0.14081546658502983 -0.2038566075708303
-0.002771202136698957 -0.13820406788813042 -0.19808041085261435
-0.010132405568782086 -0.13928090030180382 -0.20267458786028952
-0.002084139396373029 -0.1390278636835711 -0.20660082031745047
-0.0029020343319809392 -0.13568697864042686 -0.20217362572211356
-0.011101517488185162 -0.1364289968632357 -0.20768553544539542
-0.014735910703364606 -0.1386100500248568 -0.20107912053126425
-0.019194606353465316 -0.13630338007437157 -0.19643566538352103
-0.02447331290406346 -0.13605342799650597 -0.20195669461745352
-0.00013622980279087563 -0.1397944241188662 -0.20196316172141165
-0.007663640786830182 -0.1379389166258471 -0.19614965249556632
-0.014656427909556622 -0.13827297085749077 -0.2013694249536428
-0.005436453630152936 -0.13671562069879936 -0.20421363939303488
-0.009206983853999371 -0.13334169978128838 -0.19909480740088553
-0.015297386457148785 -0.13424816721903252 -0.20517039824980826
-0.018353078176203963 -0.14132383460031914 -0.20280381073016257
-0.02043995599907994 -0.1394420265577929 -0.19998004068392844
-0.022868398238841292 -0.13932606572138237 -0.2032338880445394
-0.010569188405696149 -0.1413108705900805 -0.20233442415255637
-0.01369089226884007 -0.13967812055574821 -0.1991493754531774
-0.018866423179332015 -0.1395004093073504 -0.20240708221453757
-0.012000236322108502 -0.14076936239229607 -0.2043589555169973
-0.013312074948970075 -0.1368610858343737 -0.2017227612878713
-0.018732729961100814 -0.13785421842562126 -0.20543151129740805
-0.0064078603283798646 -0.10108904534803795 -0.21276599694747061
-0.012017104436579938 -0.099051520171036 -0.20807783831614585
-0.017449292947474715 -0.09886266285406517 -0.2127900325204763
0.002441373060520892 -0.09824247652517723 -0.21213599075335593
-0.003936472942057843 -0.09771822387205528 -0.20669419099349112
-0.011326852847758527 -0.09782318765150474 -0.21141635407466025
0.0019996132357680842 -0.10010547930227684 -0.21512596835154624
-0.0011894736782944158 -0.09846357995497154 -0.20986694623488517
-0.009474131871882672 -0.09809048468099998 -0.21567349661845298
-0.01482352953118443 -0.09619410330282616 -0.20707749356288047
-0.019846949388209578 -0.09435562783705162 -0.20253253509062857
-0.025089565326396224 -0.09421603375898766 -0.20773056675452323
-0.006608727981272931 -0.09233145410047935 -0.20765936900633902
-0.011945578862849469 -0.09236450487600731 -0.20180795122641654
-0.019916299392405745 -0.09195576602446007 -0.20715570975798697
-0.0067916844384109925 -0.09569357329832481 -0.20997864533919425
-0.011179301549617047 -0.09349845344053673 -0.20530899395007224
-0.017441425134364363 -0.09337858849989342 -0.2111464344407949
-0.015801760961238143 -0.10233494633661674 -0.20852235485571952
-0.018436494876567122 -0.10094341629969047 -0.2054648004915151
-0.022855702449504134 -0.10046128922926353 -0.2087045364524755
-0.011891487647715802 -0.09909869724737572 -0.20789641667861075
-0.015285614539805646 -0.09814287716375755 -0.2046038113977346
-0.02131641249817967 -0.09810550505148338 -0.20791289736289115
-0.010594430972758527 -0.10032810265051292 -0.2106918000127706
-0.013551268388453717 -0.09830062085615562 -0.20674861003417105
-0.01797372441453099 -0.09883509570585655 -0.21091564525622458
0.05389004607039333 -0.05122663074957298 -0.20325261880416007
0.046434607694920305 -0.047423258366455306 -0.19778538276213736
0.044620987366017106 -0.04943810397612022 -0.203824838295165
0.07078808207350612 -0.04975260788427757 -0.20175317455786795
0.06331485171156764 -0.04927150899397301 -0.1964577489044103
0.05630349774199367 -0.04928682738768028 -0.2028459065105352
0.06674873490172267 -0.051067665161957015 -0.20639236797350974
0.05877318639593959 -0.048155173601974716 -0.2016026430274877
0.05375939268904567 -0.048565491976608505 -0.20783483017939658
0.05255522985297084 -0.043232396187652816 -0.20387559165019126
0.04517361183005214 -0.03983516985403465 -0.19869807888526053
0.04370411891775966 -0.041535332741607894 -0.20486592282313437
0.06844469566183925 -0.04222886258589195 -0.20450297523993582
0.06199425120192409 -0.041950151266922225 -0.19887817431944937
0.054583188484486345 -0.04174514109121727 -0.2056518249656591
0.06101315874892116 -0.04392094904409813 -0.20749117959994406
0.055103417824085954 -0.04173903161512779 -0.20353290964621634
0.050863799045857194 -0.04227970534788536 -0.20988958109873862
0.04885628480749965 -0.052924707474579086 -0.20129280318278403
0.04438841004210353 -0.049902811589111556 -0.19702764381426902
0.044039871881779435 -0.0513917654179232 -0.20197946359175772
0.06059431691008449 -0.04998458916174339 -0.20138437081832022
0.05450454015570522 -0.04894064361082481 -0.19667223621863456
0.04980998892622829 -0.04925544554220604 -0.2022546582366857
0.05592062730627895 -0.05090631538855003 -0.20421733488101096
0.05119111795264125 -0.0489024072312014 -0.2004354499723348
0.04782214422064662 -0.04947112494932579 -0.20588605631846518
0.007588055322941547 -0.05101533228384422 -0.20823920299071402
0.006983127783116107 -0.04921044403540062 -0.20583981801528067
0.006907370279606586 -0.04935760790335106 -0.20785226453799338
0.011647310446079974 -0.04717968398558067 -0.20661923815268607
0.009568449447926288 -0.046100810112823715 -0.20372877050894828
0.008451190183933978 -0.046670421900619735 -0.20709302057284446
0.011057731102284198 -0.04827494913565086 -0.2104244135763082
0.008308377455052142 -0.0462037771366732 -0.20723419417399497
0.006626542995747333 -0.046795591654648055 -0.21118715931433768
0.0072848464949691345 -0.04975984984861778 -0.20938790370482535
0.006416108797367816 -0.04797197872625755 -0.20691329766768546
0.006428417156513934 -0.04805077606665062 -0.2088484220649633
0.010659989307698016 -0.04564346367346214 -0.20795123805064292
0.008833702991780048 -0.044808193983902206 -0.20512044955748648
0.007416900585469012 -0.045270994248260726 -0.20846720565814109
0.010359254072483783 -0.0469877868317263 -0.21113664437789054
0.00786009092169643 -0.045165494027008285 -0.20809869994181723
0.005814042280491595 -0.045533403696884384 -0.21205968190688224
0.004478481005009418 -0.04867969447599815 -0.20940119554061026
0.003771033476170306 -0.04741235071646141 -0.20759624768752188
0.005633529613789325 -0.0465636997841494 -0.20831567574996085
0.0057843889697158386 -0.04569755488859581 -0.2080932312156591
0.005121466110523944 -0.04516674572454857 -0.20630495776194663
0.0054968263609969665 -0.04518117004858421 -0.20783180524367423
0.0060108270152175475 -0.04522080713735985 -0.2106692694570455
0.0038535263045394465 -0.04371146852003502 -0.20799255897063346
0.0021897520526015803 -0.043567702116836776 -0.2110883199121389
0.031114634464558366 -0.11216925078855919 -0.20837578703421683
0.029602345417317155 -0.10788694018351005 -0.20585534502524466
0.026737448166188005 -0.10885509842859672 -0.21033345688838095
0.0393332209094131 -0.10999113315569328 -0.20584740270632834
0.03673708100157619 -0.10641056293474602 -0.20282446373957724
0.030898955057438615 -0.10743910068499016 -0.20755349625605674
0.039363172243412736 -0.11186547571646141 -0.21169463325995536
0.03695159811812282 -0.10520474606977867 -0.20891657997626395
0.0332546498282516 -0.10825368756281303 -0.2134112917329702
0.031881329010304216 -0.11100484425054954 -0.20825748671549887
0.030451175163563493 -0.1077989041231768 -0.20469141532439322
0.027054276655491594 -0.10817936057077812 -0.2104435615684423
0.03954833407240749 -0.10799321526514458 -0.2073022030736837
0.03581484813528896 -0.1046858727358477 -0.20333234001654715
0.03138222951727748 -0.10576984280573296 -0.2089152388717565
0.03963789005118251 -0.10818342858778404 -0.21160165001410575
0.03706824440794826 -0.10249434405790733 -0.20875068534869284
0.03393426198798061 -0.10466468328463005 -0.21347646941203208
-0.02772966365975499 -0.06311847263800072 -0.20985238780039878
-0.03036243062180638 -0.061928048672546615 -0.2063246719982061
-0.032910707999888655 -0.0613346844338076 -0.2088716380741033
-0.02522746067208409 -0.05940119916426109 -0.20837118257540793
-0.028384778310481307 -0.05841849738584923 -0.2046054803277883
-0.03147036175889134 -0.05866484338270592 -0.20755096305865378
-0.026768806983653304 -0.05926646286474632 -0.20993753303546042
-0.029339734126750228 -0.057788774313797225 -0.20703182150382132
-0.031056407500926253 -0.05832730227934288 -0.21066217650431723
-0.029039743949595687 -0.061659976782669296 -0.21082412232417197
-0.03139785270852208 -0.06081990891920494 -0.20763491620081992
-0.03416288237733006 -0.060162052454818954 -0.20978244174975486
-0.026299003173533675 -0.05805392557608055 -0.20976235498446555
-0.029479179193202254 -0.057270899357666244 -0.20600319434661002
-0.032716098834697005 -0.057498976530899276 -0.20872264136332602
-0.028408173133555648 -0.05781389767157005 -0.21075207520979972
-0.030073765327159163 -0.05669076735006737 -0.2081075065280828
-0.032085451890650984 -0.05705769354330467 -0.21172535945433707
-0.034954730083171126 -0.060574397387375106 -0.2095960580255422
-0.03568658571404576 -0.060278281512130966 -0.20822166432398886
-0.036450478841487166 -0.05922444159017967 -0.20864460398215384
-0.03380525450867772 -0.05909530812727379 -0.209202771678153
-0.03520033102196812 -0.058682843985428085 -0.20737924207705588
-0.03572908382577061 -0.058263108076919784 -0.2080694638635549
-0.03641864996117711 -0.05839221173750328 -0.20921227861899466
-0.037497672845546004 -0.05764155084120201 -0.20761274327296347
-0.037184331227961775 -0.057826682867874374 -0.20974281956214041
-0.03279346566361546 -0.06052057439314293 -0.21008199979323477
-0.03282928805512547 -0.060431018414367904 -0.20978680778998465
-0.03290498595399022 -0.059529170336593856 -0.2090050928737554
-0.032858851958934066 -0.06064702564703392 -0.2102221601154241
-0.03291493992966771 -0.06056164199339317 -0.20992383886832328
-0.03295848112267613 -0.059587135853637924 -0.20910904337424369
-0.036289367486659285 -0.05970592791067528 -0.2107121400978002
-0.037307832051936385 -0.05920217925535606 -0.2096661083843145
-0.036276433278743025 -0.05914761120306419 -0.21106377769965262
0.00615343112784267 -0.06887958938108849 -0.21135820974368186
0.004324164579685931 -0.06454466277586388 -0.2071297221328649
0.004391190002735858 -0.065061703266968 -0.21133658815878958
0.012080218981083636 -0.06108386808859276 -0.209360664382163
0.008626219223316913 -0.05893041187750267 -0.20505318571585746
0.006336476991947894 -0.05993939930426048 -0.21013051797408194
0.010761883447941547 -0.06362797314154076 -0.2136200421001348
0.006429400633152728 -0.05965353542791771 -0.20914416541117758
0.004267480562504535 -0.06140063697325157 -0.21441393126505942
0.005075510929402118 -0.06386582547651695 -0.21448281933325858
0.002907064150151019 -0.060440584959854354 -0.2102117889072332
0.0027164782984817073 -0.06006352597700523 -0.21440265108603568
0.010996338318165546 -0.05798168474661278 -0.21279791523474784
0.006940868089970355 -0.05598400527464317 -0.20820151795405478
0.004972752521809344 -0.056871071400512924 -0.21327166785258383
0.008902903984364276 -0.06012676650511192 -0.21628824402350516
0.004861291836079364 -0.05661456281172203 -0.21211222340125174
0.0035142864688003108 -0.05815501505361961 -0.21752711166400046
0.002738919447239642 -0.07043878728376793 -0.21242654849547477
0.0018826391203963801 -0.06646613770948814 -0.20880421031970114
0.0035035278304183528 -0.06476713711248802 -0.21168202687758536
0.0050969686015212585 -0.06249476963507103 -0.20981030692118735
0.0036751296027267024 -0.06033773714529442 -0.20665276576537223
0.0030984248622024104 -0.06063555175291466 -0.20997207392710776
0.0037096704943740413 -0.0628155320309298 -0.21377584864157767
0.00047155875998378257 -0.05906407529341148 -0.20956357349413962
-0.0003844831482803776 -0.06034581357466148 -0.2139671348478231
-0.0024991367356216863 -0.12914778286444115 -0.20285383392829032
-0.0074169073597824525 -0.1231591849945681 -0.19831882943171592
-0.009175482799235577 -0.12558445328699516 -0.20397295583743186
0.010990109632786517 -0.12968647474275993 -0.20070499707717032
0.0045560564501845886 -0.12508745485769676 -0.19536914457339377
-0.0010066960350906804 -0.12690278882013725 -0.20148817230719657
0.007660176943119769 -0.12962517136560844 -0.20668781329650016
0.004636194895085101 -0.1218735575102465 -0.20236042667883963
-0.0015071366326248601 -0.1250294595383303 -0.2081338815833959
-0.004477861930552716 -0.12697684759127068 -0.20125756193656058
-0.00809970836800694 -0.12270987028109001 -0.19690518607157798
-0.011461231519404645 -0.12426035100447105 -0.20354323615092368
0.0075248743994796325 -0.12638184422480034 -0.20000879992503257
0.0022472407324874446 -0.12271656090246605 -0.19468954731482596
-0.003735337068263288 -0.12382660800444054 -0.20138763417262168
0.005422022531803851 -0.1262075602434771 -0.20585580696124167
0.0006298388941848324 -0.11826878780352043 -0.20136587847727866
-0.0031033788220322087 -0.12172496313082146 -0.20742022027033896
0.009899404238041644 -0.09449391061293053 -0.20526734520453543
0.006271656940754657 -0.08914174133764671 -0.20118359257239432
0.0037084485991561457 -0.0906238108299868 -0.20639430512446494
0.02035453576880336 -0.09042353922354149 -0.2033731542970571
0.015823539684590104 -0.08753128344046043 -0.19838768769759269
0.011215027759846454 -0.0888126342915194 -0.2038394265319738
0.019547816704090837 -0.09469343716131615 -0.20952956904429526
0.015446719120320087 -0.0891022830628054 -0.20474295844096274
0.009731795976933246 -0.09094290429579185 -0.21004958976763816
0.006684389303501849 -0.0874281972073214 -0.2029430024768743
0.0036418702109420344 -0.0839794426582949 -0.19859897126216025
0.0003664459689223812 -0.0847709923409121 -0.2047961257841024
0.016677137802418474 -0.08376617723928856 -0.20284979571360678
0.011436250398930316 -0.08146210009085106 -0.19748309780615897
0.006669488142308002 -0.08234260970579552 -0.20351112414855094
0.016199048946675065 -0.08901064092146324 -0.20746604134101004
0.012056019495304828 -0.084092065634598 -0.20271379281539054
0.007217463444050555 -0.08564917737471031 -0.20839413036364646
-0.032358947803202864 -0.09410662943350243 -0.2016431145812902
-0.033240709115687606 -0.0935677736424105 -0.2000501506473455
-0.0354709361092484 -0.0931550710819857 -0.20171078075427146
-0.029872569848719832 -0.09343112999426292 -0.20058060218352408
-0.03115809302491307 -0.0928014665268557 -0.19865181077975363
-0.03481349687737584 -0.09269435698019432 -0.2000072651054296
-0.031476918269816634 -0.09009273344503807 -0.20192270506877036
-0.03242197971505284 -0.08883287006842064 -0.19987279702681632
-0.034511092712107894 -0.08923061186300682 -0.20213933815020652
-0.03338623385590672 -0.09248642617689537 -0.20282441903609366
-0.0342511866585648 -0.09198819095121788 -0.2011456244136724
-0.03634283285302281 -0.09161208564268516 -0.20292565752524466
-0.0304074321286118 -0.09191285068022179 -0.2019056432392034
-0.03180274706048131 -0.09129662806021141 -0.19979498316306205
-0.03538319807213902 -0.09128977352606224 -0.20123747517127127
-0.03222325782937169 -0.08863009506689476 -0.20291579295653434
-0.03311264853638768 -0.08746601635443138 -0.2008837961103353
-0.03459728102845311 -0.08787195378767418 -0.20319381882208915
-0.03489891033333897 -0.09709848457800316 -0.19999750484484763
-0.034917119552317855 -0.09708406025396751 -0.19997008670825095
-0.03457847576302647 -0.09610588842855858 -0.20137444664496512
-0.0348303053872025 -0.09653384977804588 -0.19980152477282614
-0.034885439683619734 -0.0964916496895449 -0.19971932996768088
-0.03486737947625279 -0.09564913803564476 -0.2009034209396276
-0.03477323393983006 -0.09570066625105308 -0.20153350163954825
-0.034982684661570784 -0.094461277069916 -0.20085336793917746
-0.03464120965165257 -0.09436787659155296 -0.20130417276877494
-0.03719848733109593 -0.09459586435781883 -0.19781786729353995
-0.036422673274699446 -0.09558130794989037 -0.1989219539310369
-0.03575981002015233 -0.09435896569715904 -0.19979182411688895
-0.03735706548852086 -0.09587214881407188 -0.19899052907485099
-0.03673544864815831 -0.09699194127546715 -0.20012167622107596
-0.03567418794793248 -0.09555636340605186 -0.20153451491850943
-0.03661182861489415 -0.09629748755918907 -0.20262121190089316
-0.03678676824730992 -0.09579522901998924 -0.20224871267336936
-0.03726247291726231 -0.09492705756651329 -0.20287575353640647
0.025658693502720598 -0.06881426269041466 -0.20722871054667563
0.02191313762503505 -0.06257544452177452 -0.202563469901267
0.021058317611988786 -0.064981296601166 -0.20801806975859732
0.03834056515532375 -0.06475444132315086 -0.20541339148539633
0.03234177489119411 -0.061696305813659896 -0.19959323634165854
0.027485158632572892 -0.06273843342291283 -0.20617928136843772
0.034760859201725725 -0.06634278589712547 -0.2111151718046102
0.028816666792210344 -0.061034515442718734 -0.2057089858199987
0.0241943265898788 -0.0630037038944857 -0.21172689427394004
0.02361216802435756 -0.06034754210935997 -0.20820040036696524
0.019612100313481096 -0.05449394875990318 -0.20299959708708853
0.01787513155775905 -0.05570508533941673 -0.20928955604094596
0.035678591917332414 -0.0556959658287661 -0.2075809739972982
0.02949419278937221 -0.052953943552841415 -0.20170938004511924
0.024723437021549943 -0.053792133869995346 -0.20857340623396964
0.030573245476063493 -0.05893726641165184 -0.212066044702712
0.025281276892002824 -0.05399589234816002 -0.20703264106768698
0.02168336171942592 -0.05613581830488609 -0.21331644584197135
0.02203520793753505 -0.07079981261717247 -0.20593895544070334
0.020616617391880754 -0.06520692998396324 -0.20166825284022422
0.02052989263373256 -0.06530676776396202 -0.20620713163870902
0.02762227911787868 -0.06284607941137718 -0.20377274383563132
0.024377372453984025 -0.059796079935898055 -0.19948536683577628
0.023006048391636613 -0.06133766466604637 -0.2048060201551351
0.026961949060734514 -0.06523983174787926 -0.20885730315703482
0.022283729503926042 -0.06018139416204857 -0.20414284397620291
0.020063933323200944 -0.06237842136846947 -0.20939314891356559
0.05794495005446315 -0.09226749831663536 -0.20365103115099997
0.05623030323820949 -0.08200098568426537 -0.19870414365786643
0.05558389086562038 -0.08341597014891075 -0.20348768462199301
0.06304645199614406 -0.07728244358526634 -0.20133348335284323
0.061002340505894426 -0.07207201415525841 -0.1973730676319036
0.0585413839324081 -0.07457701856123375 -0.20254974593180747
0.06207024712401271 -0.0802715867184298 -0.20854431916731925
0.0571019615634048 -0.07064165169226097 -0.2032314889575872
0.0544546808703506 -0.075333520712723 -0.2087854348565969
0.057594981382664445 -0.08073966199385094 -0.20470251668948264
0.05625152249174953 -0.07158373290525841 -0.19902858664054007
0.055954393337544206 -0.07201524073110985 -0.20452999104518027
0.06338271159964443 -0.0647533982418673 -0.2027368598129186
0.06044640798407436 -0.059264227690567245 -0.19811985422629447
0.058063593099888566 -0.061525627913345565 -0.20416918922919364
0.062444683502491716 -0.06761737162100243 -0.2088365160371694
0.05771582979994655 -0.05805365735517906 -0.2032714240695867
0.055270996282871965 -0.06268443161474632 -0.2090978973056707
0.05634611506300807 -0.0898690968178408 -0.2029763959791097
0.056487944315251115 -0.08149959141241478 -0.1983339094068441
0.05784898657637477 -0.08085952693449425 -0.2025433682348165
0.059771057556446794 -0.07478545600401329 -0.20064677824038596
0.0576696958048904 -0.06855948263632225 -0.19684027661341758
0.05682655830222011 -0.07072602206694054 -0.20174417425650687
0.058567133138951066 -0.07641170913206505 -0.20686097969073386
0.05511650104361415 -0.06702058011518883 -0.20193872381705374
0.05306335944968105 -0.07130961114393639 -0.20699051548499198
