ply
format ascii 1.0
element vertex 757
property float x
property float y
property float z
element face 0
property list uchar int vertex_indices
end_header
-0.0683335099713242 -0.03450046473967003 -0.20831473697680564
-0.07091242413682103 -0.03223694855200218 -0.20569187928694815
-0.07210949402016759 -0.03402350837217735 -0.2105653487588796
-0.06277647953194737 -0.03453512484060692 -0.20642437566775412
-0.06506157260102391 -0.03251509362684654 -0.2039566390659246
-0.06754646043938756 -0.034846410097946395 -0.20832700063246817
-0.06258732419175267 -0.03476966911779808 -0.21028931964892478
-0.0641734335915482 -0.0286256521366732 -0.20729136992949576
-0.06776178221863866 -0.03317721182333397 -0.21101096798438163
-0.07108828764123082 -0.03612123424040245 -0.20403428901690573
-0.07301470976037144 -0.03456668550001549 -0.20189720918196769
-0.07430518012208104 -0.035388752760757675 -0.20669557680148215
-0.06856024604004979 -0.036114439310898055 -0.20233865608233542
-0.07027691941422581 -0.03469274932371544 -0.2003134094621572
-0.07365033369225621 -0.03563739353643822 -0.20475340415495963
-0.06812671165627598 -0.035451188626159896 -0.204172676100913
-0.06876358728570103 -0.03082807356344627 -0.20156346787470908
-0.07076850872201085 -0.03437577182279991 -0.20522997309226126
-0.07304305176896214 -0.03413458162771629 -0.20887908865470023
-0.0741926465527451 -0.03301529580580162 -0.2076964579965505
-0.07334018092316746 -0.033970460238327255 -0.21130452085990042
-0.07092002372902989 -0.03455670172201561 -0.2068764023925695
-0.07206058840912938 -0.03338314587103294 -0.20559745062846274
-0.07271463017624974 -0.03463296586500572 -0.20883039165991873
-0.07262707095307469 -0.03466774517523216 -0.20771578480261893
-0.0737223063008225 -0.029684230627884136 -0.20579000343340964
-0.07484424452942967 -0.03300715977178978 -0.20845662583369345
-0.06896168332261204 -0.03532777720915245 -0.20652777482527823
-0.07194003801507115 -0.03323613101469444 -0.2037996851350698
-0.07454693656129002 -0.03423301869856285 -0.20917425085562796
-0.06288990717095494 -0.034975096526016464 -0.20574029315966696
-0.06538495760125279 -0.033462777676452865 -0.2031224869634542
-0.06987420063180089 -0.034674182476867904 -0.20803158511180014
-0.061909261752787825 -0.03545294696318077 -0.2099988811160955
-0.06313303451699376 -0.03067161137091087 -0.20659198392886252
-0.06609642844361424 -0.03453315788732933 -0.2108882271196279
-0.07053071599167943 -0.03281034523474144 -0.21072842706698508
-0.07218110900086522 -0.030314907374252544 -0.20895219375151725
-0.07361433248681187 -0.03250370913969444 -0.2125180267240438
-0.0640310082928574 -0.03340254718290733 -0.20766461421507926
-0.06557178836030125 -0.030847147049774395 -0.20589876700896353
-0.06850806217354893 -0.03359074884878563 -0.2092644922878179
-0.06654537062806248 -0.033177778067459335 -0.2112461828138265
-0.06743669848603367 -0.02566321188436912 -0.20877753724116416
-0.06976294856232762 -0.03195531660543846 -0.211665009751502
-0.1048821840779221 0.10979534691346718 -0.2037260435964498
-0.1075815443293488 0.11051340406907631 -0.2006902598287496
-0.1104870174424088 0.11016856139672829 -0.20400538076418967
-0.09816584329766392 0.11002640431893898 -0.2024515919830236
-0.10119328241509556 0.1105039865352018 -0.19966295887488456
-0.10561041872662663 0.11033447092546059 -0.20339987207907767
-0.09802839498681187 0.10818482941163612 -0.2049567006971273
-0.1009236310021317 0.10929186647904945 -0.20259938169974417
-0.1053203229205048 0.10962764924539162 -0.20658222366828055
-0.1050904874102509 0.11070053285134865 -0.20505409468669028
-0.10779834132355809 0.1114321202613218 -0.20177782107848258
-0.11076684634846806 0.1110307723857267 -0.20519957472342581
-0.09858119826478123 0.1110133380271299 -0.20393179883021445
-0.10110706429642796 0.1113141626693113 -0.20099963773745627
-0.10609267990750432 0.11131165927423073 -0.20494668711680503
-0.09924835305375218 0.10929192608369423 -0.20623471368807883
-0.10186151008767247 0.11031128471864296 -0.20398822952765555
-0.10571363907021641 0.11050532763970924 -0.20797946084994406
-0.10968302529019475 0.10766063636315895 -0.20208217729586692
-0.11122954230469823 0.10832376783860756 -0.19996531833666892
-0.11198026280564427 0.10793922847283913 -0.2021267913724813
-0.10547151010197758 0.10848955815805031 -0.20145533014792533
-0.10761572759312749 0.10909612482560707 -0.19938152064341635
-0.11014667492074132 0.1088383645392759 -0.20208570887106986
-0.1056790385739243 0.10677240794671608 -0.20348235000628562
-0.10741550069016575 0.10763038700593544 -0.20164683987158866
-0.10943636636895299 0.10765101021302773 -0.2046980314399633
-0.11098009686631322 0.10657973593247963 -0.2020112179662618
-0.11238651316327214 0.10717479890359474 -0.20019090701598258
-0.112621802498523 0.10681889956964088 -0.2020812236215505
-0.1073388640181458 0.10762487357629372 -0.20146526922244162
-0.10940926115674138 0.10822157567514015 -0.1996534221317205
-0.11120987277192235 0.1079453379489286 -0.20198107291716666
-0.10692690651578068 0.10538484161866737 -0.20374462534445853
-0.10855362157982945 0.1062128693438871 -0.20194985498446555
-0.11065523665112614 0.10630725329888893 -0.20478515852946372
-0.059630904008570906 0.05059205001367165 -0.2071093969489965
-0.059525642205897566 0.05462642019761635 -0.20579273034590811
-0.06076914410752415 0.05479376023782326 -0.209834416999999
-0.052369687368098494 0.05159078544152809 -0.20446540941256613
-0.05310640077752232 0.05509735649598671 -0.20274992813128562
-0.05693823437852025 0.05408443516267372 -0.20643634130019278
-0.0531282458798325 0.052705153880248795 -0.21022737552184195
-0.05505758862656712 0.05947871511949135 -0.20799156059283347
-0.05781534652871251 0.05609475081933571 -0.21197312106150717
-0.06440019946259617 0.047234997210632096 -0.208961015238944
-0.06497273187798619 0.05138407653344704 -0.20582578112143607
-0.06536013226670384 0.05247901385797096 -0.21085936357039542
-0.05881607871216893 0.05328534549249245 -0.20609565605181784
-0.06185835938614964 0.05727730697167946 -0.2031290136720571
-0.06276172738236546 0.055754587111602555 -0.2084044568683538
-0.05799636583489537 0.05244903272164894 -0.21086094309348197
-0.060384664346400496 0.05975346272958351 -0.2084284030343923
-0.06292498450440526 0.056818708834777604 -0.2123903833772573
-0.0624741349713242 0.04398377245439125 -0.20624465276259513
-0.06283942203683018 0.048103317675719987 -0.2039750569011602
-0.06199470501107335 0.050417378602157364 -0.20801099170703025
-0.05928507785958409 0.05117662256730629 -0.20249221254843802
-0.06068876724404454 0.0547692031241758 -0.20065509308833213
-0.06105396490258336 0.05428351467622353 -0.20486715961951346
-0.05819332938355565 0.05077145999444557 -0.2075656854059133
-0.060166928579035994 0.058107033429275284 -0.20552617837447257
-0.06211555342835545 0.05544547742379738 -0.20907554556387992
-0.09616998176735997 0.014684274850021136 -0.20882621933478446
-0.09671110253495335 0.026240423379073872 -0.20439151455420584
-0.0987500880257523 0.02154399460328652 -0.2095715903188619
-0.08350336890381932 0.012943789420257342 -0.20638961125868888
-0.08464378457230687 0.023684248385558857 -0.2027175032045278
-0.08859268169564366 0.017537936625610127 -0.20831391741293998
-0.08632740717095494 0.016312584338317646 -0.21341328848857016
-0.08613169531983494 0.030671253857742085 -0.20979376663226218
-0.09164324741524815 0.021559909043441548 -0.2149013035442266
-0.09249869327706456 0.005468532500396503 -0.20445634950656028
-0.09519344906968236 0.014864072260986102 -0.19799708355921836
-0.09688547592324376 0.014251992163787615 -0.20526440967578025
-0.08547425608796239 0.014793083129058611 -0.20142671991843314
-0.08922475915116429 0.0223692209102018 -0.19698404301661582
-0.09160811047715306 0.019234374222884907 -0.20374101926344962
-0.08663636784714818 0.01872380083573891 -0.20602685739058585
-0.08848366480034947 0.032729074416290055 -0.2025949709560308
-0.09189251403969884 0.024511352238784565 -0.20783438314456076
-0.06213075261277318 0.09304051106942726 -0.22119796802062125
-0.06405055861634373 0.09616665547860695 -0.21855819751280875
-0.06337020139855504 0.09470199054254128 -0.22136563588637442
-0.05392441492241978 0.09518687432778908 -0.22005530227679343
-0.05759650807541966 0.09715898340715004 -0.21651469697016806
-0.06001308899087071 0.09645222133172585 -0.22027327646273703
-0.05333158712548375 0.09284622972978188 -0.22511360575217337
-0.058662775565806624 0.09677113598359657 -0.22123048235434623
-0.06166273694199681 0.0956746191359861 -0.22560312379855246
-0.06041232090157628 0.09755371516717506 -0.22316761840838523
-0.06358465891045689 0.10090412205232216 -0.2200234286929998
-0.06191555004281163 0.0994253606177671 -0.22328484584349723
-0.05332884531182408 0.09973929828179909 -0.223042225136939
-0.05698809366387486 0.10106359427941872 -0.2191916756774816
-0.060036185790721175 0.10055433219445778 -0.22339594890135855
-0.05453130941552281 0.0973107070304258 -0.22589894165057273
-0.05864382128876805 0.10042522853387428 -0.22224420835036368
-0.06119487028283238 0.09946934884561134 -0.22690798868197531
-0.06268358569306492 0.0977173597194059 -0.22155203451174826
-0.0650891993538773 0.10095916694177223 -0.21863616038817496
-0.06286204199952244 0.10030402248872353 -0.22149991024989218
-0.05838871340912938 0.10080115502847267 -0.2209355585719976
-0.06175935607117772 0.10259746020806862 -0.2177069835807714
-0.062116298486415145 0.10154016321672035 -0.2213785551931295
-0.05825937132996678 0.09808994835389687 -0.22392775644320578
-0.061707291413966414 0.10114361351502968 -0.2204026632453832
-0.06387904625100255 0.10024107998384071 -0.22479831208247275
-0.06168151240510106 0.09970690315736366 -0.22478640605467887
-0.06507438759965062 0.10321305697930885 -0.22139578093546958
-0.06334734301728367 0.10209958261025978 -0.22485769320983023
-0.055155310441676375 0.10189078753961159 -0.22474298407096
-0.059307250787440535 0.10347126430047585 -0.22078408826846213
-0.06157172064942479 0.1027326435424192 -0.2250304870750341
-0.056874785234156844 0.09962086385263039 -0.22710826028842063
-0.06068083982628941 0.10269080108178688 -0.22346228887099356
-0.06309807639283299 0.10171644395364357 -0.22820926238555045
-0.09197116236847996 0.061986640153060685 -0.20965378512400717
-0.09495130520028233 0.06548894947541786 -0.2063457124378118
-0.09989291768235325 0.06486339872850014 -0.21011429060954184
-0.08325293998879552 0.06452856963647438 -0.2077185117151174
-0.08449909429711461 0.0653973073340757 -0.20340700973528952
-0.0919388566510117 0.06548373406900002 -0.2080193214561376
-0.08038896660966038 0.06242050236238075 -0.21300140549201102
-0.08170637827080846 0.0648714751578672 -0.20789100755709738
-0.08969313244980931 0.06470336025727821 -0.21325295199412436
-0.09213894944352269 0.06509663170350624 -0.2087485842849645
-0.09692639451188206 0.06841181224359108 -0.20471723903674216
-0.09991661052865147 0.06754083937181068 -0.20958556760806174
-0.08302560787362218 0.06885515159143044 -0.20882970620650382
-0.08658567409676671 0.06944651907456947 -0.20411034454363913
-0.09246453981560826 0.06921826308740212 -0.20893757571238608
-0.08194282989663243 0.06388701504243446 -0.2125923537160787
-0.08615053038758397 0.06692005699647499 -0.2076562695648107
-0.09195468168419957 0.06632043427003456 -0.21324129928607077
-0.09323793988389134 0.061979785618911515 -0.20601283539790244
-0.09659672122162938 0.06506769364846779 -0.20265010525244803
-0.09885388951462865 0.06448124354852272 -0.20650342632788748
-0.0859825943009293 0.0652527064658506 -0.2054342829133901
-0.08856430988473057 0.06635059422029091 -0.20168874193686576
-0.09287008981866002 0.06589578097833229 -0.2054505251790914
-0.08502325754326939 0.06153602903855873 -0.2098857365991506
-0.08868816833657384 0.06467540567887856 -0.20536563326377005
-0.09327447753113866 0.06372864550126625 -0.21010380019206137
-0.056622866203013655 0.002536788640151752 -0.21541908909339041
-0.05710926990670323 0.013386681733260882 -0.21028401483553977
-0.059724274684611556 0.007900074181686175 -0.21508579482096762
-0.04280597310227513 0.001981601176391376 -0.21306965281027884
-0.04424080591363072 0.013669326958785784 -0.2092453740980062
-0.04767188768548131 0.005767658410201801 -0.2144929521228704
-0.04467591982049107 0.003543660102020038 -0.22089599598902793
-0.043302718211833235 0.017977520880828633 -0.21702167917746634
-0.04978528957528233 0.008413985428939593 -0.22158155371207328
-0.05495855550927281 -0.0062594860218660705 -0.21237357486743064
-0.057339254428569075 0.004411652741561664 -0.20550230671424002
-0.05904004316491246 0.0016659051753385192 -0.21199112166422934
-0.04688513617676854 -0.00032319122778342907 -0.208783751025382
-0.050380084325495955 0.009718701300750506 -0.20439367522257895
-0.0527136061684525 0.004072949347625507 -0.2109194897558126
-0.046828541566554305 0.004431054053436054 -0.2133400343801412
-0.04688346724671483 0.02040953939927651 -0.20912507702368827
-0.05232400040787816 0.010554179606567156 -0.21445124377268882
-0.055496964265528914 -0.008030667843689191 -0.2144345991756353
-0.056585494090739485 0.0014240891314847594 -0.20864876140612693
-0.05791989307564854 -0.00045932823645042126 -0.2139305673982534
-0.049679103900614974 -0.001034989895691144 -0.2094338290836248
-0.051087800075236556 0.008567556796203387 -0.20578904975909323
-0.053394976665202376 0.003334447798858417 -0.21151972342986197
-0.04841995577973485 0.0020916909552915223 -0.21473309923667044
-0.0478964183823502 0.017596021351943745 -0.21102671851176352
-0.05343437533539891 0.008663132844100726 -0.21570309032458396
-0.05523220043343663 -9.6663775314557e-05 -0.21415451694983573
-0.05738273601693272 0.011553540883193743 -0.2079890870000753
-0.05983984809083104 0.006647810397277606 -0.21417134036082358
-0.04083574156922459 0.0003383011199338561 -0.21299531091708274
-0.04436633329552769 0.01148672407640053 -0.2082416914846334
-0.04733121733826756 0.004374548850188983 -0.2146264069225225
-0.0439405177132523 0.004748240170608295 -0.2182589821960363
-0.04323217611474156 0.01967658108247353 -0.2140642457153234
-0.0498875711457169 0.009774491248260271 -0.21921410192507834
-0.08622110228699803 0.10484741633905006 -0.20963202942866416
-0.08675751428765416 0.10500381892694069 -0.20899262060183615
-0.0853286717430985 0.10493226355088783 -0.20978458751696677
-0.08467710356873631 0.10520891850961281 -0.20946322907466025
-0.08532747965020299 0.10539831226838661 -0.2087459467794332
-0.08522519807976842 0.10524876421464516 -0.2096641414310369
-0.08443004231614232 0.10411904757989479 -0.2117300980235967
-0.08479816060227513 0.10454340284837318 -0.2106499277498159
-0.08771479468506932 0.10499982541574074 -0.2128067516233358
-0.08673766594094395 0.10433231299890114 -0.20906964470404715
-0.08731943707627415 0.10455344623101784 -0.2083519004728231
-0.08601728420418858 0.10450230544580055 -0.20923868347663016
-0.0851073000924027 0.10476900642884804 -0.20875883628386588
-0.08588347177666783 0.10503144567979408 -0.20792064596671195
-0.08582163195771336 0.10492499178422524 -0.20900348354834647
-0.0845274661080277 0.1033573002196653 -0.21143690277594657
-0.08509508114022374 0.10393925016892983 -0.2102272414113912
-0.08797824721497655 0.10434795921815468 -0.21245612730044455
-0.08751562576455235 0.1054022163726194 -0.20961590637225241
-0.08753216605347752 0.10541088884843422 -0.20958893527049155
-0.0848793719307816 0.1058418304301603 -0.20976096917647452
-0.08712786774796605 0.10561092203630043 -0.2093863390829
-0.08717209439438939 0.10562948888314797 -0.20932001401442618
-0.08491137962502598 0.10585428780091835 -0.20966095258254142
-0.08676219325226903 0.10523216432107521 -0.21155584384459586
-0.08704090457123875 0.10551537579072548 -0.21100143124121756
-0.08969953994912266 0.10622416442407204 -0.2124271743442449
-0.08735165338677525 0.10616065567506386 -0.21084203351992697
-0.08743396740121007 0.10619457071794106 -0.2107109182025823
-0.0848737988964951 0.10649971669686867 -0.21096352268714041
-0.08668753843468785 0.10620309418214394 -0.21058320034998984
-0.08681196313065648 0.10624764865411354 -0.21040221084612937
-0.08478439192933201 0.10632003849519325 -0.2108916543867025
-0.08658346872491002 0.10568116611016823 -0.21255180765647025
-0.08682757954758763 0.10596318548692299 -0.2119888268854055
-0.08960250358742833 0.10664437716973854 -0.21355890263575644
-0.06504607539338231 0.03010170167459084 -0.20673804511088462
-0.0647457573906815 0.038867369351516495 -0.20442174901026816
-0.06517607312363743 0.03547768300546242 -0.20915943910140128
-0.056341472675029036 0.03171016281617714 -0.20174427856463523
-0.057167026807490584 0.04041506355775429 -0.19928037156123252
-0.060448828746501204 0.036307111439834366 -0.2041297905589971
-0.05793932418984532 0.03329639142526222 -0.20963718523043723
-0.05741471390885472 0.045128002820144425 -0.20739037324446769
-0.061836454679194686 0.03815530246270729 -0.21168783833045096
-0.06794044714135289 0.027501925883422627 -0.20519480635184378
-0.06843471865815282 0.03482542937768532 -0.20176165331858725
-0.06841153245133519 0.03421272343171669 -0.207534914508048
-0.061302516271296736 0.03291647141946388 -0.2010693453695211
-0.06353238563698888 0.04009045666230751 -0.19823635150450797
-0.06442040543717503 0.037324830947051774 -0.2043102138187322
-0.060942534019175765 0.034174665866027604 -0.20691620339411826
-0.061806831170741316 0.04580827063096596 -0.20462547768611045
-0.06506762247246861 0.039835408387313614 -0.20912868310469718
-0.06835297088784337 0.024833753762374653 -0.20429562558192343
-0.06857580285233617 0.031240001378188862 -0.20150469769496054
-0.06789309125107884 0.031614676175246964 -0.2062664978649053
-0.06328228454751134 0.030967101512084736 -0.1991520278598699
-0.06501812081498265 0.03809218114389015 -0.19679792751330466
-0.06584555249375462 0.03600676363481117 -0.20222808946627707
-0.06305548887414097 0.0320498198844297 -0.20553128947276206
-0.06318047981423497 0.04300464695466591 -0.2034252189542684
-0.06587681512993931 0.0375478417254789 -0.2077410571720037
-0.0746206079022324 -0.004539862217773663 -0.21215743352431388
-0.07948628406685948 0.00509692734254433 -0.20743531514662833
-0.08236730437440037 0.00037847465051246937 -0.21323998798388571
-0.055136803199473616 -0.006349131407608258 -0.21275404621619315
-0.05793568830651402 0.00015844410432411487 -0.2080406301166448
-0.0661934052006638 -0.0038443058155672423 -0.2136629425432119
-0.06324011426133275 -0.00570927554594444 -0.2182279728795919
-0.0630655918614304 0.005031958279739154 -0.21426249076384635
-0.07050803642434239 -0.002569660487045514 -0.21940470267790885
-0.07924861054581761 -0.006560906710495221 -0.20576283861655326
-0.08382895927590489 0.0016349703647000914 -0.20061892797011466
-0.08702507953805089 -0.0013241022251741761 -0.20761012066859336
-0.060840639878932234 -0.00809974962698387 -0.20742098022955985
-0.0659727488057053 -0.0032616406105654113 -0.20272952844161124
-0.07385728101891637 -0.004592522921432721 -0.20913100768584342
-0.06727737527054906 -0.003806486668457257 -0.21070793797034354
-0.0687881145970261 0.005096629319320453 -0.20651318658846946
-0.07318187098664403 -0.0009430795334474916 -0.21238054861086936
-0.08153686266106724 -0.006151750626434552 -0.20896843601721854
-0.08308008651894688 0.00013126438630653675 -0.20488119651335807
-0.08538651805085301 -0.001686707081665265 -0.21038772691744895
-0.06769281964463353 -0.007845535817016828 -0.20979407955664725
-0.07027343254250645 -0.0021420269631044738 -0.20623061586875052
-0.07447734813851475 -0.004431202950348126 -0.21148193408507437
-0.07012132148903966 -0.00573034578787254 -0.2138855062868032
-0.07084748487633824 0.005217716155181659 -0.21017827619570822
-0.07567841153306126 -0.0015767067097322816 -0.21510249902266593
-0.04282641749543309 0.08490945404542519 -0.2083252273942861
-0.04276174645585179 0.08487661188615395 -0.20848693479556174
-0.04741034250420689 0.08529253309739662 -0.2100610785629186
-0.040409359742823836 0.08482192462457253 -0.20660953749674887
-0.04035580496949315 0.08481426542771889 -0.20679392446536154
-0.04672798853081822 0.08569042390359474 -0.20915492404955954
-0.04051381688279271 0.0860078186370237 -0.2083758913423452
-0.0406993661419785 0.08620397752297951 -0.2082250021840963
-0.04346090893906712 0.08654327696336342 -0.21122262407797904
-0.042526457120600936 0.08724470442308022 -0.2095423244382772
-0.04256704788369298 0.08726276463044716 -0.2094684444810781
-0.04658758979004979 0.08757768577111794 -0.21110673774737448
-0.0394905243412888 0.08661217993272377 -0.20809527267474265
-0.039523187686625716 0.08662073319924904 -0.20798583854693503
-0.04595524411362767 0.0875477344371183 -0.2105592988874349
-0.04005253653687596 0.08835221832765175 -0.20953296650904746
-0.04027545790833592 0.08857943123353554 -0.20935804177779288
-0.042525294830027816 0.08878384536279274 -0.21242255498427481
-0.04592329602402806 0.08607263868821693 -0.20644900728720755
-0.045324507762614485 0.0857300013877256 -0.2072435670043859
-0.04712370376748204 0.08611907070649696 -0.2075983636524114
-0.04474780302209019 0.08583597844613625 -0.20567538370150656
-0.0441536639229691 0.0854739994384153 -0.20638223518389792
-0.047046158124629256 0.08594255155099464 -0.20715474118250937
-0.04522943835419774 0.0870124847270353 -0.20677790571707816
-0.04505738954705357 0.08673559134973122 -0.20699956048983664
-0.04737833480996251 0.08761201804650856 -0.2090426736022863
-0.04256764393014073 0.08639852708352638 -0.2091235571052465
-0.04256224970978856 0.08639584487451149 -0.20913568665045829
-0.046824548055354354 0.08675046270860268 -0.21074525047797293
-0.039685610343638655 0.08580426877511574 -0.2076369278575811
-0.039682659913722274 0.08580346411241127 -0.2076468222286138
-0.04615673761529088 0.08673359459413124 -0.21015175212878318
-0.04014134745759129 0.08750300115121437 -0.20913583566207022
-0.04032993655366063 0.08769656723512245 -0.20898701776522727
-0.04275644164246678 0.08795709913743568 -0.21201541055697531
-0.09830630164307713 0.04281996196282936 -0.20355135728377433
-0.09807703237694859 0.047656551060806046 -0.20149618913191886
-0.10012829642457127 0.04869826143754555 -0.20497683216590018
-0.09318226914567113 0.04916028684152199 -0.20116273094672293
-0.09439665417832493 0.05367328232301308 -0.19890340198535056
-0.09774366359871983 0.05276991432679726 -0.20279564489382834
-0.0946626697079575 0.04963402455819679 -0.2076543473150167
-0.09689155559701085 0.05711652344239784 -0.20477790166396231
-0.09892094474000096 0.05352695292008949 -0.20901392926234336
-0.10105675797623753 0.044507548270354996 -0.20345560242194266
-0.1012975905434525 0.04909391706956459 -0.19989327122229666
-0.10263143818539738 0.05025358503831459 -0.2045541160251531
-0.09690210561913609 0.05395461624635292 -0.20133045841712088
-0.09932691197556615 0.058223262486587296 -0.19791579772490592
-0.10070377926987767 0.05688016122354103 -0.2033535145666036
-0.09609109501999974 0.054963454661498795 -0.20603243042487235
-0.09889120202225804 0.06353782123101784 -0.20281959105986685
-0.10136872868699193 0.060251697955261 -0.207470958724204
-0.05259877782029271 -0.04166556889044212 -0.2100308143045339
-0.054247174073878524 -0.04090692097174095 -0.20834263195056052
-0.05887902121705174 -0.04141522938238548 -0.21153523553866477
-0.04694798927468419 -0.04163624340521263 -0.20967664350527854
-0.048862818290416 -0.04096446925627159 -0.20793135990161032
-0.05466932397050023 -0.04210342461096214 -0.21059434641856284
-0.047447416593257186 -0.04187200957762169 -0.21207804013747306
-0.04868671636742711 -0.03954838210569786 -0.20920017887610526
-0.05347466807526707 -0.0411737113617556 -0.21202965606707663
-0.05469984154862523 -0.04389820987211632 -0.20599678684729666
-0.056191239167872664 -0.043269798102249374 -0.20459715057868094
-0.059283706952754256 -0.04403392964826988 -0.2077837042953405
-0.050897810270015 -0.043877020420898666 -0.20582514037150473
-0.05232936482590794 -0.04339273268209862 -0.2044270091201696
-0.0564079318539536 -0.044497594179977645 -0.2071350567485723
-0.05070147257012486 -0.04442457849012779 -0.2073804341699514
-0.05200064520997166 -0.04244436317907738 -0.20461620916384787
-0.055125955154124495 -0.04389853769766258 -0.2074051402952108
-0.05837577920121312 -0.0423011630200045 -0.20943199624079795
-0.05867386202973485 -0.04210437828527855 -0.20900039900797934
-0.062302890826884505 -0.04215829068647789 -0.2107579015638265
-0.0565915141598618 -0.04267333442198204 -0.2086098395730886
-0.05689564685982823 -0.04246161872373985 -0.2081528060581121
-0.0613498423592484 -0.042578473629822006 -0.20974076320189566
-0.05733996968430638 -0.04353691631781029 -0.20854963888186545
-0.058592024852458235 -0.04138295346723961 -0.20678209294337363
-0.06112644415063023 -0.04256664210783409 -0.20828758706111045
-0.05186209421319127 -0.042657509388794174 -0.20892288316744895
-0.05414393882912755 -0.041949376406540145 -0.207018037929717
-0.05841768126649022 -0.04265148931967186 -0.21076898802775473
-0.04463047127884984 -0.04201154405104088 -0.2098092340375814
-0.04680806737107396 -0.04174281651007103 -0.20777974058646292
-0.052459422160807845 -0.04295040661322044 -0.21080557037848563
-0.0451498363511002 -0.04328198725210594 -0.2126897626068029
-0.04650777917069554 -0.04134981328474449 -0.20954525996703238
-0.05063268881005406 -0.04286061221586632 -0.2130869828607473
-0.05541918020409703 -0.04176481062399315 -0.21014603008288474
-0.05686667900246739 -0.04064856463896202 -0.20895769227999778
-0.061985674907389876 -0.041189804615844955 -0.21069260467547507
-0.04844129424256444 -0.04135228687750267 -0.20933701623934836
-0.04999715428513646 -0.04028420144545006 -0.20803329874533744
-0.055314365436259505 -0.041704192700256576 -0.2094553612615499
-0.04935780506295323 -0.04103936249243187 -0.2153576218034658
-0.0498950813309586 -0.03756387526022362 -0.21364683438796134
-0.05450827222031712 -0.04004828626142906 -0.21490641464251609
-0.06408956985634923 0.04682020848764015 -0.20656826128024192
-0.06508660655182957 0.05071358388436867 -0.20471306671160788
-0.06583854894799351 0.05036364501489235 -0.20829938878077597
-0.05759340863389134 0.04809604590905739 -0.2051458709384832
-0.05936485867661595 0.05135689681542946 -0.20263676871317954
-0.06302541833085179 0.05036984389794899 -0.20603246022719474
-0.05862301926774144 0.04826118057740761 -0.2102623634483251
-0.06063884835404515 0.05328275269044472 -0.2074385039951238
-0.0640954409138596 0.05125229066384865 -0.2111444823886785
-0.06883445720833897 0.04808191960824562 -0.20714343120116324
-0.06999147277039647 0.05146269505990578 -0.20387436975497336
-0.07052335481804967 0.051975205598006974 -0.20862913657683463
-0.06241289119881749 0.05176444357408119 -0.2058145903493795
-0.06573596935433507 0.054738596139083634 -0.2024304919387731
-0.06673834066552281 0.05313949292672707 -0.20700491000670523
-0.06288680772942662 0.05131568020356728 -0.20974369873065085
-0.06465190987748265 0.05611707275880409 -0.2067785315658483
-0.06788879971665501 0.05422426765931679 -0.21087800492304892
-0.06591430645150304 0.04387144750131203 -0.20442830552119345
-0.06734845380944371 0.04731728142274452 -0.2021207564021978
-0.06612471084756016 0.04845710104478432 -0.2058293723012838
-0.06304326992196202 0.04862637823594643 -0.20244125057715506
-0.06490511040848851 0.0519317836142881 -0.20037812520522208
-0.06430134515923619 0.05046449607385231 -0.20383851756114096
-0.06302801113289952 0.04738532012475563 -0.20701537062186331
-0.06427440385979771 0.05193619435800148 -0.20473102261084647
-0.06704143028420567 0.05040617292893959 -0.20804653097647757
-0.07055390219849705 0.08378364151490761 -0.21102153290766806
-0.0711108479992783 0.08502702420724464 -0.21017659236449332
-0.07020974497956395 0.0849346072055204 -0.21180746485251517
-0.06820527057808995 0.08568213885797096 -0.2100834154035482
-0.06951290707749486 0.08665888017190529 -0.20871361125964255
-0.069828394462291 0.08605603879464699 -0.2107698224927816
-0.0679450366990006 0.08236198133004738 -0.21374877323168845
-0.07015312056702733 0.08476184314263893 -0.21135876108664603
-0.07232556085747838 0.08424811070931984 -0.21478272010344596
-0.06964627247017979 0.08614520734323097 -0.21198428203124137
-0.0704045925633347 0.0873825699664457 -0.21092872847575278
-0.06928399543923497 0.0873905569888456 -0.21268065799731345
-0.0671920214192307 0.08819182222856117 -0.21107261408824057
-0.06871688704651951 0.08911855524552895 -0.20949277807730765
-0.06896126609009862 0.08848012989533974 -0.21172418226260276
-0.06700781326455235 0.08515171712411476 -0.21430519749182791
-0.06912985782784581 0.08751718705667091 -0.2118446730520162
-0.071402702142421 0.08703343575967384 -0.21542798508662314
-0.07033127885026097 0.08697529142869545 -0.21036199261206717
-0.07085955481690526 0.08818270271791054 -0.2094904534961614
-0.06899246912163853 0.08924900001061989 -0.21088636447447867
-0.06888038258713841 0.08845646685136391 -0.20913258720892997
-0.06942355971497655 0.08950270718110634 -0.20819598962325186
-0.06881773810547948 0.0892681032992704 -0.20983459581393332
-0.06895035844010472 0.08672390883935524 -0.21223746766108603
-0.07064757089776158 0.08904464548600746 -0.21001552571314902
-0.07209644060296178 0.08864562219155861 -0.21313310195464225
-0.06998482685250401 0.0892087668753965 -0.21343945492762656
-0.07098836045426488 0.0905239135600431 -0.21201675166148276
-0.06948125701111912 0.09099976724160744 -0.21398608912486167
-0.06757340173882603 0.0907021910525663 -0.21232604016322226
-0.06898701529664159 0.09173272555841042 -0.21070629884261222
-0.06874749403161168 0.09111769503129555 -0.21303183366316886
-0.06763026456994176 0.08834229415429665 -0.21531251598853202
-0.06954706053895116 0.09076060360444618 -0.21278062988776297
-0.07153293829125523 0.0902139098025663 -0.21637979675788016
-0.06010401587647557 0.020135179219375385 -0.21306185950297446
-0.060717019845668074 0.030474141297469868 -0.20911099542636008
-0.062186244537059066 0.02638189500344826 -0.21463209916609854
-0.049426946450892684 0.02017118042481972 -0.20944190551299185
-0.05057099800271153 0.02909009164346291 -0.2058855347778234
-0.054786655713740584 0.02462418383134438 -0.21155110527533622
-0.05077341537636876 0.024073764739166035 -0.2159890138055715
-0.050833705474559066 0.03592444962037636 -0.21283345450419516
-0.05607322197121739 0.028899326977859272 -0.21772647429961295
-0.06071639399689793 0.01339186733735634 -0.20908253420847983
-0.06261030178231358 0.021405294594894184 -0.20351695050257773
-0.06454751234215855 0.021506562886367573 -0.21041945148963065
-0.05232888798874974 0.021242722926269306 -0.2071576022054586
-0.055283460427943465 0.027488663849960102 -0.20292625357169242
-0.05790832977456212 0.02538387483132912 -0.20963568021315665
-0.052217725326243636 0.02452148502839638 -0.2112956397678289
-0.054442528297129866 0.03587539499772621 -0.20767237772006125
-0.058642211963359114 0.030308291373382343 -0.21274941195506186
-0.055807832290354964 -0.01799143845068382 -0.21512978304881186
-0.05867550115746617 -0.013375982584823835 -0.21155058373469443
-0.05939036946457982 -0.01649759704100059 -0.21644063819903464
-0.04557824473542332 -0.017783179821838604 -0.21407692660349936
-0.04865849356812596 -0.013873204531540144 -0.21062818695563407
-0.05171633105439305 -0.016488000693191753 -0.21559006501692862
-0.04631549458665013 -0.017531886639465557 -0.2186745606805715
-0.04828009348076939 -0.0072381942890779845 -0.2145225011255178
-0.05223304371995091 -0.01438195997702049 -0.21910796095389456
-0.05586094002884984 -0.02241517597662376 -0.20861913789767356
-0.0585184727208054 -0.019589617791046367 -0.20460321535128684
-0.06051189046067357 -0.020513459982742534 -0.21074381996649832
-0.04666632752579808 -0.02155058080183433 -0.20923491348284812
-0.05010876398247838 -0.01871968800054954 -0.20555860330123038
-0.054209652949992415 -0.01974074536787437 -0.21160764028090567
-0.04842266779107213 -0.01805864268766807 -0.21016346444148154
-0.04821884970826268 -0.01067070657240318 -0.20675306548136801
-0.05219918828171849 -0.015506997647155988 -0.21155831743735404
-0.057612750341120955 -0.022053167166580425 -0.21264604259986014
-0.05926874618691563 -0.01890449220167564 -0.20971689154166312
-0.058015826751414534 -0.020570114197601543 -0.21431427229899497
-0.051653418351832625 -0.02125628286825584 -0.21186537076491446
-0.053869429637614485 -0.018060937466491924 -0.20912610520381064
-0.05388349633378148 -0.019865319075454937 -0.2137941919710073
-0.05230859260720372 -0.01942987734304832 -0.213070740595046
-0.052024785091105696 -0.012006714882721174 -0.21015570093649955
-0.05490511994523167 -0.016441717686523662 -0.21406172741908164
-0.05471852760476231 -0.019969299378265606 -0.2124424629356298
-0.0588021014229691 -0.015451803746093977 -0.20833959211367697
-0.06037232618493199 -0.017837986292709575 -0.21432614852446646
-0.04233724217576146 -0.019337966980804668 -0.2134960495378408
-0.04633257131737828 -0.016183867993225323 -0.20958556760806174
-0.051150414754573104 -0.017719939293731914 -0.21533175338763327
-0.04499155621689915 -0.018808647932876812 -0.2165136091854009
-0.045721117068949935 -0.010461762490143049 -0.21250770021933646
-0.05026728253525853 -0.01619775587545799 -0.21749176610964865
-0.10686937313241124 0.07928748434556557 -0.20516433347720237
-0.10912295024556279 0.08387877052796913 -0.20125829209345908
-0.1090190146462357 0.08394716685784889 -0.20509391058940024
-0.10381807725590825 0.08737008279336525 -0.20414534737128348
-0.10687111656827092 0.09013529127610756 -0.20052925278205008
-0.10752761702698826 0.08876372879518105 -0.20442903567809195
-0.10407990555924534 0.08619396394265724 -0.20852207173365683
-0.10815449397725224 0.09049175685418678 -0.20423691500681967
-0.11001658778351903 0.08863286679757668 -0.20884050954836936
-0.10684973340195775 0.08779899781716896 -0.20714252223033042
-0.10940736870926976 0.0918744654036863 -0.20285405744570822
-0.10968889634770512 0.09229134028924538 -0.2072750680591497
-0.10246011953515172 0.09452088182939125 -0.20607041348475547
-0.1063760850922501 0.097161516604553 -0.2020550571824941
-0.10747465830010533 0.09595794981492592 -0.20648484457987876
-0.10363786261242985 0.09289573138726784 -0.20943275620001883
-0.10705985467595219 0.0967236012793882 -0.20512849618453116
-0.10968785326642155 0.09526230400575234 -0.2101160936500463
-0.0750328634278214 0.035580769238601456 -0.21582945217150779
-0.07675966959160924 0.0448795706607206 -0.21294375289935202
-0.08016258816880345 0.04081125563157631 -0.21823312868136496
-0.06191993098420262 0.03470282262338234 -0.21229629744547934
-0.06242299418610692 0.041014865098129044 -0.20882216621893973
-0.07115099172753453 0.03850354259980751 -0.21412511695880027
-0.06452548842591405 0.03674273198617531 -0.21991374124545188
-0.06490615348977208 0.046209558901916276 -0.21628870595950217
-0.07186171751183629 0.04058183735383583 -0.22140214373129935
-0.0812596414582169 0.03566940134538246 -0.21348187853354544
-0.08405191044968724 0.042775288281570206 -0.20965545405406089
-0.08714878897828221 0.0404852778292997 -0.21595959891337485
-0.06738823990983128 0.03702993696702553 -0.21177189578074546
-0.07163888554734349 0.042252644953857194 -0.20736600984591574
-0.0791100893513596 0.040945157466064225 -0.2136088811304006
-0.07119259576958775 0.037984564957748185 -0.2173744045640859
-0.07426172833603978 0.046760574040542374 -0.21395974387187094
-0.07805824618500828 0.04196290677560402 -0.21958433617610068
-0.08263782005471348 0.03138639038575722 -0.21307540465849967
-0.0834375355736649 0.03757508104814125 -0.21034609307307334
-0.08531150560540318 0.03625415271295143 -0.21522889067191214
-0.07216292958420872 0.032824620661865006 -0.2110710941697988
-0.07480126958054661 0.03845958417428566 -0.2082087301160726
-0.07935428958100438 0.03681124752534462 -0.2130011819745931
-0.07397330145997166 0.033662185130248795 -0.2166523986007604
-0.07564914565247655 0.04217265552056862 -0.2140223287488851
-0.0790442262188828 0.037507906613479386 -0.2187312745000753
-0.06331479888123631 0.05326272552980019 -0.21615876783389182
-0.06401324610871434 0.05731971567643715 -0.21486975778597922
-0.06433776359719395 0.056751981434951554 -0.21835518409270377
-0.05629951100510716 0.05291862791551186 -0.21381326545733542
-0.057842407037440535 0.056259557662139664 -0.2118141852762136
-0.061461720277491805 0.05511187022698952 -0.21529491771716208
-0.05782175402802586 0.05387993162644936 -0.21936618317622275
-0.05948904495400548 0.060067907033096085 -0.2168885820056829
-0.0622237060563004 0.056809261498580704 -0.22079453398245902
-0.06827363710564732 0.05370368069184853 -0.2169013970043096
-0.06889075379532933 0.05705939239038063 -0.21427192319888205
-0.06867653470200658 0.057726457772384415 -0.2189981393958959
-0.061776581813517806 0.05616886919511391 -0.21437490512389273
-0.0649332438008225 0.05949793761743141 -0.2115593754197988
-0.0657007728115952 0.05788089340699745 -0.21617247690219016
-0.06191501360100865 0.05640403932107521 -0.21915518273371787
-0.0637982521550095 0.06264872854722572 -0.21654885043162436
-0.06633377413910985 0.05950938170922829 -0.2204818927194509
-0.06661174040001988 0.050697341618667374 -0.21463345517176718
-0.06687388162774205 0.05346079176438881 -0.2130189143564138
-0.06582546572846532 0.05531580751908852 -0.2164523803140554
-0.06350171904725194 0.06362859910501076 -0.21339642037409873
-0.06281674246949315 0.05372352903855873 -0.21151297320384116
-0.06420427899521947 0.057041898427139054 -0.21012978781718344
-0.06401113014382481 0.055866435227523575 -0.21329364706534476
-0.06263152103585362 0.0537165850974424 -0.21680778790968985
-0.06388953666848302 0.059689804968963395 -0.21488185752886863
-0.06578448753518223 0.056824520287643204 -0.21801148880976767
-0.05830711465043187 0.03581054514421059 -0.21986973811644644
-0.05866593461197972 0.041232213435302506 -0.21765073169726462
-0.059926513244334456 0.040210291800628434 -0.22254239548701377
-0.05056161027115941 0.03632546967042519 -0.21705391038912863
-0.05090481381577611 0.04062967008126808 -0.2150405697967443
-0.055533412505809066 0.03941710299027992 -0.2193089031125936
-0.05140996318024754 0.03884761041177345 -0.22216947902697654
-0.05230096321267247 0.046114906726012955 -0.21982946027773947
-0.05599317293328404 0.0421317667342527 -0.22409648229140372
-0.05992842059296727 0.03425528114808632 -0.21737383831996054
-0.06093117933434605 0.03808410471452309 -0.21349281598586173
-0.06264940242928624 0.03906749194634987 -0.21946624447363944
-0.05208579044503331 0.03822089737428261 -0.21675795842665763
-0.05575189333123326 0.0420261771060331 -0.21288756062049002
-0.05693468790215611 0.04048581427110268 -0.21886456538695426
-0.051894727756205794 0.04002766316903664 -0.220027288093749
-0.05448860268754124 0.04687584942353798 -0.21686588753718467
-0.05828914385003209 0.04435198014749123 -0.22128436495322318
-0.06747243147057652 0.01126496499551369 -0.21107380618113608
-0.06896913390320897 0.01778499787820412 -0.2084727488901052
-0.07027086954278111 0.015067920146117937 -0.2120432757284078
-0.054537597705546614 0.00967635220063759 -0.21123910476225943
-0.05628413300675511 0.015632525143752827 -0.20828305710810752
-0.060632589866343733 0.012582734284530413 -0.21193983186740012
-0.057156268169108626 0.009596392569671404 -0.21754366685408683
-0.05831185321969151 0.019231692013870014 -0.21402118135947318
-0.0628943775193131 0.013028338608871233 -0.21773635376948447
-0.06748843531769871 0.00918109720719887 -0.2074908815767202
-0.06930193643731236 0.014133498129974139 -0.2037466071988973
-0.07245546918076634 0.013384833989272845 -0.2092180304672155
-0.055210653354350325 0.008669301924834978 -0.20831707645911307
-0.058275464584056136 0.012790098843703997 -0.204690476551238
-0.06311735849541783 0.011425390896926653 -0.2098406754877004
-0.05890474062127232 0.011762782988677752 -0.21121307243365378
-0.059726748277369734 0.019597008881698384 -0.20743774403590293
-0.06296161155861973 0.014208421168456805 -0.21232913960475058
-0.06889984350365758 0.005234941897521747 -0.20788471926707358
-0.06876480918091893 0.009278759417663348 -0.20557246138114066
-0.0710011456505692 0.009742930588851702 -0.20913962055701346
-0.06089774112862706 0.005160525498519672 -0.2076029681112203
-0.06207901578110814 0.009401544985900652 -0.20552303422946067
-0.06464043598336339 0.008122637925277483 -0.20899412561911673
-0.06227258186501622 0.007331386265884174 -0.21099809338111014
-0.06255573373002171 0.015944585261474385 -0.2082685433771047
-0.06509054045838475 0.010579273162017596 -0.21184430052298636
-0.08045536618394017 0.07900993531716896 -0.20905882646102042
-0.0821659598843491 0.08578278130067421 -0.20563529957789511
-0.08233046870392918 0.0835765749789579 -0.21018809606093497
-0.06956702809495091 0.08146347111238075 -0.20692679811972708
-0.07328769903344273 0.08510918921006752 -0.20228095878619284
-0.07770729403657078 0.08381156629098488 -0.20773166944045157
-0.07203764062089085 0.07923765486253334 -0.21321103502768607
-0.0773243341938889 0.08616106217874123 -0.20849061538237662
-0.08061027865571141 0.08300144976152016 -0.21362400580901236
-0.0770709846512711 0.0884019882060392 -0.21106005240935416
-0.08045289259118199 0.09497578447831703 -0.20615381528395743
-0.08088583092850804 0.09417890017999245 -0.21186376143950553
-0.06863937120598912 0.09355975693238808 -0.2100317977811727
-0.07359844784897923 0.09725080436242653 -0.20507941175955863
-0.07621097903412938 0.09564040606988503 -0.21113734473246665
-0.070610705424968 0.09128232306016518 -0.214419817223731
-0.0748277042405045 0.0968333036280973 -0.20989919234770865
-0.07819757204217076 0.09448875492585732 -0.21514913965720267
-0.07960033755463719 0.08200301235688759 -0.20797399212378592
-0.08087420802277684 0.08775790041459633 -0.20403965343493552
-0.07981509308976292 0.08801467722428871 -0.20865059424895377
-0.07382586937111973 0.08810774987710548 -0.20619923402327628
-0.07735711674851536 0.09203125542176796 -0.2024305068399343
-0.0779245231644547 0.09022285049928261 -0.20722361434954734
-0.07460758428734898 0.08606986707223488 -0.2109313361789617
-0.07782623510522008 0.09144286817086769 -0.20695299436110587
-0.0804317925469315 0.08919014042390419 -0.21145825613993735
-0.0769857202069199 0.08806787436975075 -0.2128672801401052
-0.08045861463708043 0.09471945470346047 -0.20796415735739798
-0.0810542736546433 0.09385757154000832 -0.21367562343138785
-0.06845060329598546 0.09320296352876259 -0.21188229848403067
-0.07344755869073033 0.09683547919763161 -0.2069100790168676
-0.07621375065011143 0.09525646275056435 -0.21297935177344413
-0.07057020406884312 0.09082172816766335 -0.2162283413555059
-0.07485649328393101 0.09636808937562538 -0.21169876088160605
-0.07826766710442662 0.09401418274415566 -0.2169815503503713
-0.07788732986611485 -0.018767908158172832 -0.20524111916083426
-0.08038246970337987 -0.011256560625900495 -0.19977506031054587
-0.08134785633248448 -0.0173554568909304 -0.20548268188494773
-0.06535229425591588 -0.018880799355377422 -0.20314553905982108
-0.0693641040818131 -0.01129879051672386 -0.19875284065264792
-0.07242489199799657 -0.016757443489898907 -0.20521523584384055
-0.06874147396248936 -0.01688735181318687 -0.20772837628382773
-0.06785536151093602 -0.0020319371842043273 -0.20373504389781089
-0.07343268733185887 -0.012771949114670026 -0.20887709189910025
-0.07754469256562352 -0.024785384478439556 -0.2009591214801702
-0.08108109574479222 -0.018169000687469707 -0.19423732687491507
-0.08167547326249242 -0.0213053076885836 -0.20111786355036826
-0.06947997551125645 -0.020917192044128643 -0.19816133905905814
-0.07500908117455601 -0.014049157442917097 -0.1937465869333181
-0.07776734571618199 -0.017725214304794536 -0.20068093170184226
-0.07175544243020177 -0.015809997858871685 -0.2012761436845693
-0.07286474447411656 -0.00011773401724265759 -0.19667324949759574
-0.07722279768151402 -0.01023660594450401 -0.2025508933212194
-0.07684636454743504 -0.024675235094894634 -0.20635523427981467
-0.07874358039063573 -0.019258335175384746 -0.2008317016508016
-0.07756117324990391 -0.022546216788162456 -0.20573959280509085
-0.07458216290635228 -0.020642861666549907 -0.20076627065199942
-0.07734373550576329 -0.014548435749878156 -0.19704251517314048
-0.07921868901414036 -0.0176206677578585 -0.20314394463557334
-0.0736467276112473 -0.019842997135986553 -0.20529489745158286
-0.07336461882752537 -0.0049653201721804015 -0.20111743141669364
-0.0789785717026627 -0.013284072222580183 -0.20614435304659934
-0.07845461707276463 -0.02029292279707359 -0.2016484640981588
-0.08287477832001805 -0.01318646961676048 -0.19554292191523642
-0.08516812663239598 -0.016920134367813335 -0.20300470818537802
-0.06453109126252293 -0.018902376236786114 -0.20147106577414603
-0.07024759392899632 -0.013066545071472395 -0.19699264098662467
-0.07478818636101842 -0.016465470137466656 -0.2040723763849172
-0.06909901242417454 -0.01366402203070091 -0.2045405708696279
-0.06967178325814366 0.0009150058604581481 -0.19993162681120963
-0.07454014163178563 -0.009932562651504743 -0.20614119400042624
-0.05987993221444249 0.06900794809831215 -0.20793317784327597
-0.06221938471955418 0.07279737299455238 -0.20507225920218558
-0.06542542915505528 0.07160781329644753 -0.20900029469985099
-0.049506965686503646 0.06877712911141945 -0.20594697226542563
-0.05103832822007298 0.06978790467752052 -0.2015452288534078
-0.05849922042054295 0.0699705929137571 -0.20656776954192252
-0.048397604037944075 0.06699652975572182 -0.21110611189860434
-0.05188238959473729 0.07112140959275795 -0.20673077334422202
-0.05808464031380772 0.07017220562470985 -0.21181037057894797
-0.059098038484278914 0.07331521814836098 -0.20807597567099662
-0.0626930926339066 0.07698233431352211 -0.20433864523429007
-0.06446230750245213 0.07579390710366798 -0.20957884718436331
-0.04904193024796605 0.07452403014672829 -0.2077631108905706
-0.05185312371415257 0.07549189036859108 -0.203120087876502
-0.05862942676705479 0.07576309150231911 -0.2086282574083242
-0.050819757987681624 0.07162876432908608 -0.21124238301772208
-0.05519309978646397 0.07584144180787636 -0.20739417304057212
-0.058692101051036116 0.07432989781869484 -0.21261631478327842
-0.06295457821053624 0.06858141726029945 -0.20554470051783652
-0.0653098557488358 0.07189460104478432 -0.2027085476066503
-0.0655646358029282 0.07085354631913734 -0.20691384901064963
-0.05437770824593663 0.06948001688493324 -0.20489487577933402
-0.056471559812251326 0.07066218560708595 -0.20132054914492697
-0.06151238422555089 0.07048924273027016 -0.20569523204821677
-0.055952582170192 0.06702654069436623 -0.20876424540537925
-0.05944139104050755 0.07110114401353432 -0.20529491235274405
-0.06238195638817906 0.06949244445336891 -0.20983315040129752
-0.05930269103211522 0.07304553693307472 -0.2099954538490209
-0.06300476532143712 0.07675229018701149 -0.20624752868670554
-0.06488594751519322 0.0755226165629728 -0.21148053337592215
-0.04913303594750523 0.07423834508431984 -0.2096612357046041
-0.0519090030686295 0.07515762752069069 -0.2049973808671865
-0.058796200563136336 0.07544516032708717 -0.21049476195830435
-0.05082795362633824 0.07116068905366493 -0.21318448115843863
-0.055363777686778304 0.07542888825906349 -0.20928250779170127
-0.05893129449051976 0.07391546672357155 -0.2145227395440969
