ply
format ascii 1.0
element vertex 518
property float x
property float y
property float z
element face 0
property list uchar int vertex_indices
end_header
-0.22830221395653844 0.2785312086917265 0.11887546847802073
-0.2311903123156464 0.2828922421313627 0.1215385742042628
-0.2294988070027268 0.2809302360392912 0.11873417566758067
-0.22319597344559788 0.27884812658799724 0.12068655560952098
-0.22512066703004002 0.28249467915071086 0.12340491484146983
-0.22710104625386357 0.2805296332217558 0.12081840108376414
-0.22180457751912236 0.27898617094529704 0.11598354052048594
-0.2247097079054749 0.2857713252879484 0.1201054401252833
-0.22677244584721684 0.2816071063853605 0.11691808174591929
-0.22945362668198704 0.27569754427445964 0.12482475708466441
-0.23457846384209752 0.2775840908862455 0.12870832751732736
-0.23921411078137517 0.27782841032517985 0.1223557538841334
-0.21969233791989445 0.27778191870225505 0.12289809654694468
-0.22379137914342045 0.2781705409861906 0.1267526991222468
-0.22975096445244908 0.2785468847133024 0.12091746400338084
-0.22264896671933293 0.2805307657100065 0.12200435470086009
-0.2253152314917481 0.2838416845179899 0.1261253900383082
-0.23034975271386265 0.27320642775071696 0.12112721274834544
-0.23218302767438054 0.27453811472428874 0.1235205180500117
-0.2318968508736527 0.2743860632754667 0.11982055972557933
-0.2277520332829392 0.2748271376468046 0.12151792119484812
-0.22971424799126744 0.27591361111177043 0.12334185312729747
-0.2284866307274735 0.2745723277903898 0.11976670692902476
-0.22852933745545506 0.2781993300296171 0.12152188490372569
-0.22995595972699284 0.2809817344523771 0.12463533352356822
-0.22953747551602482 0.27927096193803386 0.12141319583397776
-0.20667955618065953 0.33190770452989177 0.17068069647293954
-0.20618179779214024 0.33704824751390056 0.17249047230225473
-0.20774332027596593 0.3393415958262785 0.17041426371079355
-0.20559519868058324 0.335963025746475 0.17357092569809823
-0.20521606843632817 0.3408103138781889 0.17533051441651254
-0.20620066266221165 0.33958168333543376 0.17332654665451913
-0.2062637839810288 0.3365774900294645 0.16924762199860482
-0.2058943990961945 0.3462743312693937 0.17145883511048227
-0.20654236118954777 0.34000624722016887 0.1692660994384852
-0.20469196479481816 0.3339103609897001 0.17226993511658578
-0.20637074451607823 0.33756984776033 0.17634623716812997
-0.20754315297764897 0.33922614162934855 0.17130022715073495
-0.20278771560353398 0.3387198001719816 0.17406200836640268
-0.20484474640053868 0.3417267948962553 0.17666404913407235
-0.20354010503453374 0.3400288969851835 0.17239373396378427
-0.20198047499817967 0.34413345163835124 0.17304950426560312
-0.20382151346367955 0.3506286889888151 0.17589115570526986
-0.2041652981535828 0.34711690252793864 0.17217897842865854
-0.20148966055077672 0.32882834976686076 0.16946726511460214
-0.20133093338173985 0.33041621750367717 0.17204302023392587
-0.2047383670107758 0.3344810158587797 0.17027908037644296
-0.20309736173314213 0.33547683065904216 0.1729894823883143
-0.20313215594452977 0.3367592245913847 0.17456799219590097
-0.20443056862515568 0.33763541286958293 0.1726317353103724
-0.20490533452195286 0.3408585340358122 0.17380153606873422
-0.20592449944180607 0.3451771885730131 0.17546134661179452
-0.2053404633299744 0.3440633565760954 0.17339431713562875
-0.2282196764246857 0.3421095163203581 0.12328457306366832
-0.22852817516488194 0.34385950869096354 0.12407192061882884
-0.22605558078450322 0.3429377824641569 0.12277954290848643
-0.22580425779980778 0.3420369774676664 0.12625550697785287
-0.22747838835877537 0.3441381604052885 0.12736221621971994
-0.22660726647538304 0.34280492371095256 0.12497934173088938
-0.22618030350369572 0.3441342264987333 0.12191071580391795
-0.22596662085217595 0.3485438377238615 0.12348597715836436
-0.22741718928975224 0.3456001431323393 0.12063416312676341
-0.23174903135460972 0.34110517805589274 0.12391387890320689
-0.23246932368439793 0.34189762180818156 0.12634977172356515
-0.23079660873574376 0.34258015459550456 0.1240344590995875
-0.22903332452935338 0.34249569481385783 0.12566261957627206
-0.23056742887658238 0.3433876187182768 0.12827243875008493
-0.22927227955025792 0.34270079439652995 0.12524657915573983
-0.22902688722771763 0.3442744762278898 0.12396582435112864
-0.23009260337514043 0.34729082888139323 0.12549989889603524
-0.23243010382813573 0.3461905867434843 0.12250682185631663
-0.23241481523675084 0.3409330398417814 0.11992585133057505
-0.2322741780774033 0.3410297781802519 0.1193725414131251
-0.23048609833878636 0.3417294771052702 0.1215388126228419
-0.23149651627701878 0.3418955952502592 0.12136133979302317
-0.23129669170540929 0.3419464380122526 0.12087538312416941
-0.2296433631674683 0.34251554316056804 0.12222924302559764
-0.23333610932988286 0.3431461006976469 0.12223183582764537
-0.23367686908406377 0.3437479884005888 0.1227464325283137
-0.2346099648968613 0.3446623236514433 0.12185063432198436
-0.2080817256466782 0.28522725409043864 0.15289264391404062
-0.20953342657250523 0.28933526581300334 0.15573375891190439
-0.20886256139439702 0.28833563631547526 0.15209286879044442
-0.2044411633507645 0.28623797005189494 0.15527855823975473
-0.20741792361897587 0.29068525141252116 0.1579014606330958
-0.20649953525227666 0.2879044563151701 0.15457808445435434
-0.2060164992110169 0.28827507799638347 0.15335297058564096
-0.20595693926972508 0.29560156172288493 0.15676629017334848
-0.20774041454953313 0.29046346252931193 0.15333598326187997
-0.20748184960049748 0.2821165472842558 0.15853708456498056
-0.21117294173401951 0.2832604200221403 0.1627171583030787
-0.21461011808079838 0.2837813646174772 0.15636020372849374
-0.20095238428277135 0.28520371025575236 0.1582708306167689
-0.20504761080903172 0.2860597521640165 0.1617897696350184
-0.20702471177739262 0.2849563509799345 0.1557809657905665
-0.2021819386975205 0.29124917095674113 0.15835034321289926
-0.20539625327748418 0.295636311230789 0.16281806896668344
-0.20549263398808598 0.2776056677676542 0.1536178536270228
-0.20599453489941716 0.2790828496791227 0.1559424943779078
-0.20839280228776097 0.2803951651431425 0.1528873391006556
-0.20514579456013798 0.2803925425387724 0.15548937986832528
-0.206130582501117 0.28172136848939494 0.15733849476319223
-0.20646134357613682 0.2811069638110502 0.15386628578644662
-0.20748730342549443 0.2868193537570341 0.1577403492782679
-0.209721434523288 0.2904684097148283 0.1609616823051539
-0.20976195078057408 0.28371103113664226 0.1545484013412562
-0.21208356659573674 0.2869984061099394 0.1583812184188929
-0.2129972461954987 0.2864149362422331 0.1532218403671351
-0.203190210868541 0.28533335035813884 0.15437274645310312
-0.20672196488541722 0.28843201702607707 0.15774559448700815
-0.20777137916249394 0.28658331936372355 0.1529760308120814
-0.2054734412924683 0.2889466435290678 0.15427123974305063
-0.20657192509335637 0.2952923328257902 0.1581884569976893
-0.22104525904816746 0.3019565493441923 0.12112253378373057
-0.22037892382306218 0.30849231785310344 0.12397050331574351
-0.22380632500809788 0.3078857213832243 0.12010451625328929
-0.21516971628827214 0.3031273037768705 0.12330290149193675
-0.21609707515401005 0.3097118884898527 0.12583532403450876
-0.2178655300633347 0.30588932341111735 0.12236228059273631
-0.21715797822636723 0.306450679955612 0.1190402455185023
-0.216457131911937 0.3176844865657194 0.12214800189476878
-0.21893686394852757 0.3093720228053434 0.11877542208176524
-0.21980744939011693 0.30205579107774333 0.12532740305405526
-0.22477810423535466 0.3063845784045561 0.13071351717453866
-0.2262077216402924 0.3058518916941984 0.12333809803467662
-0.21120703559083104 0.3054351360179289 0.12490352462273509
-0.21672819893521428 0.3081569821215971 0.12922730515938669
-0.2174416814343369 0.30647815769685344 0.12248795698624522
-0.21024211089772343 0.31187053030503825 0.12369316290360362
-0.21274553578061223 0.3178733736850126 0.1276696867797938
-0.21547316353482365 0.31465227907670573 0.12249829839211375
-0.21637097339791417 0.2978936583377226 0.11880549262505442
-0.21787681024235844 0.29949952667726115 0.12229224513512522
-0.22092618386906743 0.3021648675776823 0.11815562318306834
-0.21641733091038823 0.30278308695329265 0.1216567702148524
-0.2181183878676331 0.3042127043582304 0.1240080840442744
-0.2186337743298447 0.30385895079148845 0.11974220942002207
-0.21642338078183293 0.3095816523410185 0.12278755973320872
-0.21725435893696904 0.3134583384372099 0.12486966918450267
-0.218090552498523 0.3121118695117338 0.1218900031898585
-0.22288726608914494 0.33364774292481975 0.13688593576889901
-0.22284999828499913 0.33928306406510905 0.13920491407853036
-0.22354200821084141 0.34138853853715495 0.13545178841095834
-0.22024898569745183 0.33834119146836833 0.1409581250999537
-0.22137058119935155 0.34420104330552653 0.1425155050609675
-0.22125193815392613 0.3424044401027067 0.13888424108963876
-0.2202904556290543 0.3417025358058317 0.1366381890628901
-0.22023676674527287 0.35224236553681926 0.1383742935512629
-0.2211560938851273 0.34545995300782756 0.13516544769745736
-0.22013701837224126 0.33198376005662517 0.1369891412113276
-0.22366972606343388 0.33548195665849284 0.14259552429657846
-0.2233756218449509 0.33849586552156047 0.1369818992469874
-0.21873368661564946 0.340873971638809 0.13991912673455148
-0.22122481804055333 0.34312637156022624 0.1430466718528834
-0.22062865238350987 0.34269614523423747 0.13822361300927072
-0.21653670411271214 0.3428157717563017 0.1375101454113093
-0.21870908479851842 0.34878470009339885 0.14027496646386056
-0.21963592212361455 0.3464523703433378 0.13687511752587228
-0.20653613250416875 0.27964545792115764 0.13181217978936105
-0.20965977351826787 0.285056784806381 0.13491963814240365
-0.20719862322968602 0.2828149945117338 0.13217189382058053
-0.20037231187981724 0.27995784586442546 0.1336908585880366
-0.20345501940411687 0.284613624272476 0.1368660874221888
-0.20432632010144353 0.2823279053546293 0.134343827471551
-0.19911906461876988 0.2804726511813505 0.12906988929253488
-0.20291278104943394 0.288372054753433 0.13365598987084298
-0.20506465773743748 0.28375096624864177 0.1305143482540217
-0.2076576236979401 0.2771351487017973 0.1383343584392634
-0.21289943497342229 0.27848352497590617 0.14264860223275094
-0.21853550117177128 0.2792630941249235 0.1359896011207667
-0.19622798602742314 0.27930463856233195 0.13612549971085458
-0.20114900510472417 0.2796373516894682 0.14016156862717538
-0.20692226629418492 0.2798991948939665 0.13397553037148385
-0.1990260068671143 0.28283913439286784 0.13481237958413034
-0.20265069942635655 0.2864031941272123 0.13961371253472238
-0.20722380619210362 0.27271844452394084 0.13399442504387765
-0.20987195115250706 0.27462525671495036 0.1371700711105433
-0.20988868515652775 0.2747852355815275 0.13291152785759835
-0.2037964497105515 0.27504767483247355 0.13424309562188058
-0.20677076618832707 0.27647180861009196 0.13653447698098092
-0.20487480204266667 0.2748605758525236 0.13239177535515695
-0.2045739028946793 0.2797761113025053 0.13426663945656686
-0.2067534808413422 0.2829048783160551 0.13794668982964425
-0.2078388218180573 0.27726645773423747 0.13309558700066476
-0.2115236554638779 0.28072853392137126 0.1373238510940638
-0.21297534148854375 0.27973212307466105 0.1321852750633326
-0.19617171924275517 0.27812822168840007 0.13110368917923837
-0.19997023384732365 0.28070332115663127 0.13527830909233957
-0.20346623997849583 0.2795561105586393 0.13038947652321725
-0.19957714121502995 0.28087218111527995 0.13023706744652658
-0.2019077573315537 0.28650869434846477 0.13496225546341806
-0.21406524222058415 0.31036765879167155 0.13688021372300058
-0.21387923102540135 0.31695438927186564 0.13972544144135385
-0.21542649309796452 0.3176072985507353 0.13729655216675668
-0.21105875413579106 0.31400729721559123 0.14024474690895944
-0.21118432622117161 0.3202056438304289 0.142545754418191
-0.21213655512494206 0.31730706995500163 0.14056351254921823
-0.20891653340024113 0.3116315752841337 0.1357694215629664
-0.2092217836872971 0.32238848513139323 0.13904553125840097
-0.21051971953076482 0.31526620691789226 0.13669183324318795
-0.21178277175587773 0.31001068657411174 0.14056804250222116
-0.2157084379689133 0.3139398247577055 0.14591320823174386
-0.21765639226597905 0.31440450256837443 0.13949459265213876
-0.2053816501395142 0.3143968731738432 0.14068000982743173
-0.21071607213181615 0.31757809227479533 0.14469319056015878
-0.20982545952958226 0.315233901200424 0.13883995483857065
-0.20528877120179295 0.3217183501101835 0.1397594756935206
-0.2080538604752457 0.3279900104380949 0.14394023488503366
-0.2093717340723908 0.32424850767625407 0.13913535545807748
-0.2097585384146607 0.3044854552127226 0.13626938532334237
-0.21012515168351292 0.3066864759303434 0.13983347486000924
-0.21377174894971013 0.3096559793330534 0.13644143413048654
-0.21017818491620183 0.3106712252475126 0.13912674258690744
-0.21106770973366856 0.3125488311625822 0.14154046247940927
-0.21189000051182866 0.3123203665591581 0.13791551660042672
-0.21039156954449773 0.3189845830775602 0.14048718880158334
-0.21215404908818364 0.3237674385882719 0.1432406551693049
-0.2120860997931397 0.3219329864360197 0.14006193946343332
-0.22345981340569615 0.34782917803300456 0.13073187540512948
-0.22394278984231114 0.35197480028642253 0.13201125930291085
-0.22373471002740025 0.35104270285142497 0.1291584915969935
-0.22291845421952367 0.35767306393159465 0.13146176408272653
-0.2178270105616486 0.34763182705415324 0.1319685525749293
-0.21726990084809422 0.35004337137712077 0.13380026291352182
-0.2203677479521668 0.34909684961808757 0.13076748918038278
-0.21881658177537083 0.34600342815888957 0.12625944088440805
-0.21978675167721867 0.3519936949588163 0.12888255189400583
-0.22167496721905827 0.34808130568040446 0.12535866569023996
-0.22170238535565495 0.3496281058169706 0.1295706875179377
-0.2243786190049088 0.35234071320069865 0.13307716916542917
-0.2238203619019425 0.3521703035212858 0.1281211323593226
-0.2143509421841538 0.35269744699967936 0.12876942227822213
-0.21885463934105992 0.3543642312861784 0.13249641130906015
-0.21850805323285222 0.3528725058413847 0.12797352145653634
-0.21369248967332005 0.3510314375735624 0.12704008291703134
-0.2157767746941483 0.3544225246287687 0.1298129207943049
-0.21793225746316075 0.35308910912049846 0.12559163044434457
-0.2233020399109757 0.3482759148455961 0.12542691300850778
-0.2241138998763001 0.3486535102702482 0.12720786999207406
-0.22279794852894902 0.3496118933535917 0.12592985700112252
-0.22081207077664494 0.3513901383258207 0.12594192694168954
-0.2217347357766068 0.351430133042465 0.12759738634568124
-0.22055934708279729 0.3510999829150541 0.12614035080414682
-0.21964682977360844 0.35005791491044597 0.12615388105851083
-0.21979146044415593 0.3514267951823576 0.12767841886025338
-0.22081815045041203 0.35164727276338176 0.12550591896515756
-0.224928874184314 0.28602798288835124 0.13159903357964425
-0.22526792030495763 0.2936729938365324 0.1358442551944819
-0.22645295005005955 0.2916590124942167 0.13126342962723642
-0.21869062225979924 0.2889042646266325 0.13433983396035104
-0.22065870802563786 0.2965350300647123 0.13756140540581613
-0.22195089202088475 0.29234994953645305 0.1326726026390162
-0.2200831506745255 0.29259891813767985 0.13109871219139962
-0.2191135917202866 0.3061016351558073 0.13476269911271005
-0.22373520176571965 0.2972909957743986 0.1304814166877833
-0.2205343876377976 0.2799185664035185 0.13587033222657113
-0.22614153068226933 0.2844460160113676 0.1428349561546412
-0.229557860304538 0.28545661276353435 0.1352879352424708
-0.2130170796410477 0.28668726986421184 0.1368907935474482
-0.2203134779230988 0.29088820522798137 0.14173370073777108
-0.22099201719922185 0.2885024697162016 0.13398238490563302
-0.21279566328686833 0.2949297577716215 0.13553219507676034
-0.21621169488591313 0.3035473973132475 0.14041599105339914
-0.21866247396630406 0.2994774133540495 0.13464647005539804
-0.219235155393306 0.27493436640275554 0.12915381263237863
-0.22019851546448826 0.27803118532670573 0.13450401495438485
-0.222923475910846 0.2814616114474638 0.13028749297600656
-0.21889229457539677 0.2826900631762846 0.13361152480584054
-0.2207559530035889 0.2859503180362089 0.1373921580169764
-0.22448695044678807 0.2869845778323515 0.13233801196556955
-0.21908448975247502 0.2921468765117033 0.13549297522049814
-0.22106784920853734 0.30023224657548503 0.13844420979958444
-0.22272910516423344 0.29772420233262614 0.13475110600930124
-0.23393512110871434 0.2947323471881254 0.11761673758965403
-0.23537478189629674 0.30054320400727824 0.11945357392769725
-0.23619340698880315 0.2980783731318815 0.11656546066742808
-0.22746079008740544 0.29451020067704753 0.12049737046700389
-0.22810182314080357 0.299764409718643 0.12288489411812693
-0.23110139708680272 0.2964529544688566 0.11998283337098033
-0.2296264503495133 0.29564507311357097 0.11517223189812571
-0.23031244020623326 0.3056599051333769 0.11816673944931895
-0.23264339904946446 0.29833669966233806 0.1153955705020991
-0.23334902863663792 0.2941619903422697 0.12008162806969554
-0.23734039406937718 0.2986331135608061 0.12367933462601573
-0.23810831051034093 0.2970732004023893 0.11727249096375376
-0.22614299099606633 0.29603601997865275 0.1201347656105128
-0.23004478554886937 0.2983298451281889 0.12408893774491221
-0.23270739953679204 0.2973021418429716 0.11808382938843638
-0.22710694711369633 0.29912413662446574 0.11887308429222972
-0.2281971905724442 0.3044214994288786 0.12169989417534739
-0.2309895638720429 0.30106396978868083 0.11679270337563426
-0.23436135392350316 0.29148621862901286 0.11868774364930064
-0.23500424962205052 0.29301960772050456 0.1202343053672877
-0.23629875819844365 0.29361255472673015 0.11651664446335704
-0.23290424387616276 0.29319597786439494 0.1205942280147639
-0.23409444432419896 0.2949159294940336 0.12190615604859263
-0.23426372151536107 0.2937895209170683 0.1183720178459254
-0.23243931274575352 0.2976867706157072 0.12064164350968272
-0.23288753967446446 0.3024543077327116 0.12255033324700267
-0.23350522260827183 0.2996459156848295 0.11944972942810923
-0.23263815384072423 0.29387940472138957 0.11884268592339427
-0.23391768675011754 0.2980316430903776 0.12088155220490367
-0.2361733798281586 0.2967786938525541 0.1166283733699885
-0.22673543136281132 0.2947052866793974 0.12106590937119395
-0.22761935334366917 0.29758681362641887 0.12334644268494517
-0.23168334703606724 0.2960755974627836 0.11934327553254039
-0.22866985540551305 0.2961988598681791 0.11705702017289073
-0.22900724749726414 0.30424745386613444 0.12011548350792796
-0.23164099793595433 0.2981186062671049 0.11609857748490245
-0.23861027102631688 0.31364007299913005 0.12017878364067942
-0.2390035871760285 0.33014859264863566 0.12464811871987254
-0.24169090728921055 0.3227297813273771 0.12021099995118052
-0.23897552828950047 0.3302298337794645 0.12193452785950572
-0.22554929893178105 0.31222660845292644 0.12211861680489451
-0.22585635225934148 0.32576133316529826 0.1265204198215571
-0.2315032367007172 0.31684203451646403 0.12190991114121348
-0.22842809896630406 0.31489755218995646 0.11345955203514964
-0.2293767366902268 0.330614224133621 0.11772503922921092
-0.23521414737862706 0.32008190458787517 0.1138856656406489
-0.23668788712185979 0.3116466552592619 0.1255121476505366
-0.24168245833081364 0.3191225082255705 0.1314707643840876
-0.24682675640744328 0.31857009237779216 0.12350558708649546
-0.22337311844987034 0.3187654764033659 0.12451803158265025
-0.23079598288697362 0.3231444508410795 0.1303925163601008
-0.23437366228264928 0.32107038801683024 0.12267690371018321
-0.22627728026074528 0.3230775744296415 0.12043657372933299
-0.23147628050011754 0.3325969130374296 0.12554692696076303
-0.23471555452508092 0.326961413083206 0.11924445103150279
-0.20303243737382054 0.3090647012568815 0.16172199915390878
-0.20342825691861272 0.3094641715861662 0.1619867033813563
-0.2022817019717133 0.3097115904666288 0.16199892233353524
-0.20150439779919743 0.30813719337953166 0.16304307650071054
-0.20207192342442631 0.30857516830934123 0.16349189947586923
-0.2015660290018952 0.3086682111598356 0.16343199680786996
-0.1968922052876389 0.30651302641404704 0.15845089624863534
-0.19857272844475865 0.30882896488679484 0.16063022087555795
-0.19822945039433598 0.3083375841952665 0.1595472044799891
-0.20235301892918706 0.30817551916612224 0.16256695459824472
-0.20319801907700658 0.3085972220279081 0.16350656221848398
-0.2034745846287644 0.307598128972183 0.16103881071549325
-0.19960928301972508 0.3086358458377226 0.16229241560440927
-0.20014410059613347 0.3087527305461271 0.16311042974930673
-0.20220314304989934 0.30805827682984904 0.16087120245438485
-0.20088367502850651 0.3082259446956022 0.16205846737366586
-0.20173128287953496 0.30964179342759685 0.1638671703193751
-0.20629531483811497 0.3078469783641203 0.16212939690094857
-0.20513695817155003 0.30730094021333293 0.16098933886032968
-0.20291488211316228 0.3064968735553129 0.16043662498932748
-0.20586550574463963 0.30788560217393474 0.1622039027069178
-0.20471115749043584 0.3073648959971769 0.16106277178269296
-0.20254361968201756 0.30650354927552775 0.16053795288544565
-0.20622881095570683 0.30721081799043254 0.16331016491394906
-0.2064209614293015 0.3075561076976164 0.16369479368668466
-0.203004184772197 0.3070811182834013 0.16272967527848153
-0.20241047780675053 0.2738358527995451 0.1568970031593409
-0.20168680291337132 0.27331955736650065 0.15608816812973886
-0.20392656665009617 0.27270074194444255 0.15566729973297982
-0.20145178179902196 0.2735302001811369 0.15717088650208383
-0.2007701430813706 0.2731540352679594 0.15629386375885873
-0.20339304547471165 0.27244760101808146 0.15604417990189462
-0.19834483008545994 0.2728432566501005 0.15459763477784066
-0.19876788895291447 0.2735538632251127 0.15536206434708505
-0.1991018090741074 0.27311612671388225 0.15414976547699838
-0.2064987305895722 0.27540566032899455 0.1591989345405665
-0.2066151682631409 0.2754319459773405 0.15927892397385507
-0.20882159810227513 0.2740206868029936 0.1564022250030604
-0.20434290509385228 0.2752808482028349 0.15886991690140634
-0.20425194840592503 0.2752711326457365 0.1587983317230311
-0.20788641612691044 0.2741533667422636 0.15623247097474008
-0.2027428333060181 0.27470786875260905 0.15914093922120004
-0.20304493944806218 0.2750712782718046 0.15996944378357797
-0.20681861381692052 0.2730593830920561 0.15720110605698495
-0.20402431826752782 0.2721493393756254 0.15474777887802987
-0.20403299074334263 0.271116629300247 0.15498786638718515
-0.2071199749009049 0.2732787877894743 0.15679561565857797
-0.20446865599316716 0.27229626482499675 0.15442281435471444
-0.20416711609524846 0.2712974697924955 0.1545910186622706
-0.2074607346550858 0.27122159307969645 0.15872483919602304
-0.20715204219979405 0.27079994982255534 0.15828662584763437
-0.20282283764046788 0.2737379819728239 0.15694611738663583
-0.20216146450204014 0.2733032256938322 0.1561718530510035
-0.20407311957043767 0.27249653643144206 0.1555242485855189
-0.2016909454361832 0.2734034807063444 0.1572205967758265
-0.20105481486481785 0.2731240541316374 0.15633069942932992
-0.20343624394101262 0.27222408360017375 0.1559269971702662
-0.19840880077046513 0.2726993710376127 0.15456067989807992
-0.1988480124966538 0.27342422312272624 0.1553418583725062
-0.19892678003472447 0.27287007874024943 0.15403526495438485
-0.20509574155968785 0.2741140872813566 0.158880884156045
-0.204785812308017 0.273999348340164 0.15859007309418588
-0.20623016696137547 0.272614911255966 0.15656363438111215
-0.20369333367509007 0.2737449557162626 0.15897613237839608
-0.203318584372226 0.27368839090837077 0.1585760063980189
-0.20556107502144932 0.2723354250766142 0.1568711347435084
-0.20073686878842473 0.2730747610904081 0.15777909229737191
-0.20118566196126103 0.2736681849337919 0.1585430450294581
-0.2014809731738007 0.2916503698207243 0.13431938956719308
-0.20439306240243077 0.2949868590213163 0.13645207355957895
-0.20130679350060582 0.2935697585917814 0.1345140583370295
-0.19836223464173436 0.2914704233981474 0.13650172422867685
-0.20086063783330083 0.294476106820236 0.13882323573571115
-0.20078228752774357 0.29323060816300944 0.13694151710015207
-0.1952256296173966 0.29105658834947185 0.1313504524086085
-0.19796718995732426 0.2960574776507719 0.13490458796959787
-0.19880821149510502 0.2933917791224821 0.132625157341775
-0.20254464786213994 0.28969348972810344 0.13854973982315927
-0.20673691075009465 0.2910811454631193 0.1418106801364985
-0.21064390580815434 0.29110594099534587 0.13629367421608835
-0.1959626112477219 0.2918993384219511 0.13731753300171762
-0.19961233775776982 0.29240955418122844 0.1402828342769709
-0.2043081853882706 0.29227198666108684 0.13534283112030893
-0.19784377854031682 0.29319478577149943 0.1362625307891932
-0.2000023309485352 0.2956621796466215 0.1399280674312678
-0.20394844155472874 0.2891076952792509 0.13579084943276315
-0.20514247160119176 0.28957958525193767 0.13704770277481942
-0.20413326065701604 0.28890754288209514 0.1339398271892634
-0.20345077257317662 0.2903308421946867 0.13649028013687997
-0.2046894315974152 0.29077614849580363 0.13740407894593148
-0.20271367173356175 0.2894249708033903 0.13419836233597665
-0.2027457539336121 0.2926709205485685 0.13663371871453195
-0.20372334461373448 0.2939939052440031 0.1387468225811091
-0.20253250341576695 0.2908452302790983 0.13554065893631845
-0.20573231916588902 0.29311437910569743 0.13828101228218942
-0.20563504438561558 0.29207773512376384 0.13428946803551584
-0.19661964814824223 0.29164488619340495 0.13494386743050485
-0.19930243830842137 0.2932120115138395 0.13753812979203134
-0.20130229334992528 0.2921507508136137 0.1340209193084803
-0.19781495969456792 0.2930402905322416 0.13393344949227243
-0.1993057761685288 0.2963394076205595 0.13745364020806222
-0.2209712896840012 0.30845816439164714 0.1430931336734858
-0.22220623831910252 0.31504680222047404 0.14638769100647836
-0.22449380498093724 0.31286431854737834 0.14208590458374887
-0.2108460251585877 0.30827797955049113 0.14375400017243295
-0.21168755333584904 0.3135845214701994 0.14748057197075753
-0.21630491655034184 0.3106799871302946 0.14319309066277414
-0.21383342485589146 0.31051488226426677 0.13992720316391855
-0.21539542417687535 0.32092185324204997 0.14417829583626657
-0.21817331354779362 0.31330634659303264 0.1401341802929011
-0.22109766643208623 0.30681063240541057 0.14858877132874398
-0.22687945108574986 0.3112667948581083 0.15330969761353402
-0.22923034768265843 0.3099558503009184 0.14581876467209726
-0.20875735919636845 0.3091121465541227 0.1466218180511561
-0.21435438435238957 0.31066675489915446 0.15158175896149545
-0.21832637827557683 0.3100606948710783 0.1447451956127253
-0.2112381045119202 0.3128263503886564 0.14525550077896981
-0.21352833848160863 0.3175335676051481 0.14910131166916757
-0.21779138188523411 0.3152060658313139 0.14348002742272287
-0.2212864194409287 0.3044084460116728 0.14425485800248056
-0.22303079407376408 0.3066969663478239 0.14769845674973398
-0.2247281406418717 0.30751909321321086 0.14256995390396981
-0.21875571053189397 0.3071063310481413 0.1455578155372706
-0.2208938185469544 0.3091775924540861 0.14803903768998056
-0.22045511346024632 0.30758281057847575 0.14338978599053293
-0.21772268753213048 0.31295628851426677 0.14573186110001474
-0.219019610096637 0.31801517313493327 0.14853524635773568
-0.22005878727597356 0.31524153059495524 0.14474075506668954
-0.21899462084931492 0.2844789773799284 0.11590513061028392
-0.220281976868335 0.2921683937884672 0.1196237153862086
-0.21987110715073704 0.28873868292344645 0.11596768568497569
-0.21013944189709782 0.28507752722276286 0.11761360834580332
-0.213255170394603 0.29264958208573894 0.12124904464226634
-0.21451425891083836 0.28812886780274943 0.117721433148202
-0.21114749055070042 0.2865240723468168 0.1123523063514796
-0.2125651423231995 0.2981256992198332 0.11663653920632273
-0.21601869504613042 0.2902121693469389 0.11321499417763621
-0.21915974061650395 0.2819751054622038 0.1223334617469874
-0.22526346485776066 0.2857096344806059 0.12774076531868844
-0.2294869158760941 0.28554089373124675 0.12010478447419078
-0.20658229630154729 0.284557357487808 0.1202493257377711
-0.21366738121670842 0.28690762823594645 0.12505933116417794
-0.21695298295182347 0.2858353406764372 0.11801224421006114
-0.2081948552624619 0.28980387753022746 0.11839964459877879
-0.21102625470322728 0.2950009257174833 0.12330403398018748
-0.21638480167550206 0.2760021240092619 0.11693706582528025
-0.21827711503666997 0.2786362320758207 0.12137111495476634
-0.2211081717507279 0.28017635649217204 0.11646034787636668
-0.2144695852295792 0.2805700451709135 0.11885439823609263
-0.21653022210759282 0.2826268822528227 0.1216521508548823
-0.21729241650265813 0.2815107852794035 0.11675393055420787
-0.2137456570164597 0.28735204046739177 0.11878296206932933
-0.21559156816166997 0.29279483860505656 0.12238272498589427
-0.21662240069073796 0.2900856882907255 0.11841332386475474
-0.22009843926591038 0.28137625759614543 0.11753031085472972
-0.22253875773114323 0.2866892964221342 0.12243306110840708
-0.2260348234669602 0.2859271318293913 0.11670731972199351
-0.20909306745690465 0.28337050980104045 0.11690210770111949
-0.21204252879780888 0.2874752432681425 0.12119289706688792
-0.21711995046300053 0.2858975083209379 0.11573540638428599
-0.2124937210575974 0.2872086316920622 0.11471104095917613
-0.2133266512648499 0.29595072573197917 0.11933680842858226
-0.21665585379761815 0.28938789671434 0.11421334217530162
-0.217842030932132 0.32503624266160563 0.12904431889992624
-0.2178587202326691 0.32649500673783854 0.12972396086197763
-0.21773748438519597 0.3266787678576811 0.1289937741611567
-0.21693018417519688 0.3250309378482206 0.13121434520226388
-0.21685889702004552 0.32640536135209636 0.13225951264840036
-0.2174409661785996 0.326056495366226 0.13129195044976144
-0.21702407639187932 0.32483537500871257 0.1291015393589106
-0.2181648943917191 0.32946945732606486 0.13114439915161996
-0.21723515134019017 0.3265929371692045 0.12949776123505502
-0.21713428538006901 0.3254512698031767 0.12986894916039377
-0.21759046952885747 0.326317623314987 0.13162615369301706
-0.2177802954213059 0.3259060532428129 0.1283357388828364
-0.21395862441224217 0.32730390137208537 0.13010349343758493
-0.21470097046059727 0.3276746422625883 0.1320574231002894
-0.21536660533112645 0.3269417435504301 0.12898811171990304
-0.2135310504929459 0.3285042197085722 0.12948801587563424
-0.21496652405423283 0.3313576132632597 0.1313523299549189
-0.21493022482556462 0.3296738416529997 0.12799074719887643
-0.2185223881499207 0.3233292252398832 0.1276827401969996
-0.21855913441342473 0.32326330250276164 0.12743555973511606
-0.21811344068211674 0.3224185854770048 0.12783178161126046
-0.21880975704354405 0.3245970160342558 0.1284512526844111
-0.2187043015257752 0.324564054665695 0.12801330755692392
-0.21761796217126012 0.3232893497325285 0.12830405901413827
-0.21983532946271062 0.3250367791034086 0.12923386167031198
-0.22004139762086034 0.3255422860957487 0.1296646840427485
-0.21764526109856724 0.32569231098664836 0.1283909625862208
