ply
format ascii 1.0
element vertex 752
property float x
property float y
property float z
element face 0
property list uchar int vertex_indices
end_header
0.14077761430579067 -0.22148242587076591 0.12715291450959115
0.140371378849324 -0.21487741166578697 0.1323417670581904
0.1417165662749374 -0.2153764962576525 0.12961935471039682
0.14537945051031947 -0.21095128351675438 0.13060751031380563
0.14366203207808376 -0.20867298537718224 0.13516741465073495
0.1425332393153274 -0.20952162140833305 0.13070609639626413
0.1438147689803207 -0.21104557806478905 0.12503650258522897
0.1400361325247848 -0.20659403497206139 0.12978755901795297
0.13949441571074367 -0.20891639584528374 0.12512596915703683
0.1386395956976974 -0.21099187427984642 0.12422561119538218
0.13582926649886012 -0.2062149792336123 0.1293556339595881
0.13867973942595363 -0.20557563001142906 0.12540107439499765
0.14458924193220973 -0.2037207781695025 0.12560095857125192
0.14245846528845668 -0.20244900876509117 0.1301239378307429
0.14086821336584926 -0.20273582631575035 0.12494727443200022
0.14206382293539882 -0.20489048952089714 0.12273805807572276
0.13770720023947597 -0.20172312849985527 0.12678190539818673
0.13772299547034145 -0.20335490995870995 0.12136581014138133
0.13965260643797756 -0.21133105451094078 0.1274901575897303
0.13724264163809657 -0.20911030465589928 0.13066100548249154
0.1420784260733688 -0.20525930816160606 0.12803404997330575
0.14210813898878932 -0.2047818302534716 0.12729674051743417
0.14072841067152858 -0.20391951495634483 0.13027226398926645
0.14178454537230373 -0.2029021083735125 0.12790560196381479
0.1403616632922256 -0.20652042323576378 0.126479978070077
0.13751971382933498 -0.20513631397711204 0.1295329279754725
0.13773366470175624 -0.2050579636715548 0.12570473025780587
0.11888056654768825 -0.3339166789673464 0.13655569623452096
0.11738231439429164 -0.33225895458685323 0.1387264377925959
0.11877882141905666 -0.3334668725155489 0.13647576640587716
0.12270739335852504 -0.3339374511860506 0.13874080251198678
0.1203309859736526 -0.332094356360306 0.14103096197586923
0.12020444531279445 -0.3336357324741976 0.13845505784493356
0.12268015403586269 -0.33244512969480916 0.1371327586029139
0.12036135454016567 -0.32849721604811116 0.1397689230297175
0.11945944685774684 -0.3311010449551241 0.13613649676781564
0.12107127566176296 -0.32891623670088216 0.13822733829956918
0.12121486325102687 -0.3312529771946566 0.13782125185471444
0.1202910210593307 -0.33064724499212667 0.13948946665268808
0.12117570299940944 -0.33170719439016744 0.13764878581505685
0.12369167466002345 -0.3296357839726107 0.13858568142395883
0.12220483679610133 -0.3294220715187685 0.14103605817299752
0.12176537175017238 -0.33096678549276753 0.13906877706986337
0.12266939539748073 -0.33166141802297994 0.13972565005761056
0.12078591842490077 -0.32872955495344564 0.14102455447655587
0.12044596333342433 -0.32968427235113545 0.13756420682412057
0.11645379323798061 -0.3325721769951479 0.13491472075920968
0.11645653505164028 -0.3325836210869448 0.1349001772258845
0.12126367945509792 -0.33284158998953267 0.13439139197808175
0.1170280839903915 -0.332055613341202 0.13552316497307687
0.11700227517920375 -0.33203707629667684 0.13556363652687936
0.12167656082945705 -0.3325777500294344 0.1355860776756373
0.11610105295019985 -0.3315966575764315 0.13644235800248056
0.11511039395171047 -0.33106510335432454 0.13715511034470468
0.11726700920897365 -0.3310918956421511 0.13690322111588388
0.11976751346426845 -0.31941412383543416 0.1389723367546168
0.11728936095076442 -0.3331018536709444 0.13764243792038827
0.11683910746413112 -0.33283920580374166 0.13833817313652902
0.11987110633688808 -0.33369664842115804 0.13753067921143441
0.11926483769255519 -0.33168898517118856 0.13797211121064096
0.1188462938769424 -0.33149744564520284 0.13883482883911996
0.12047737498122096 -0.3330622165821688 0.13918652604561715
0.11606818098860622 -0.33201740676390096 0.13999771545868783
0.11530401964026332 -0.33084301644789144 0.1408283359859553
0.11793782968359828 -0.33114384109007283 0.13966848920327096
0.1213802363379562 -0.3309815972469942 0.13797041247826486
0.12060698528128505 -0.3301787524841921 0.13963072966080575
0.12159621376829982 -0.33113123470770284 0.1374045557830897
0.12428405542212367 -0.32962934667097493 0.13875418375473886
0.12266492504912258 -0.3290156870506899 0.14121749471169381
0.12233581800299526 -0.33049158746229573 0.13890000651818185
0.1238579418166244 -0.3309698253296511 0.13941898416024118
0.12168827314215541 -0.32754100853430196 0.14080109666329294
0.12092902917700649 -0.3287337570809023 0.13723250697594552
0.12212976474600673 -0.27318631106840535 0.11750888298493296
0.11986726183730007 -0.26921342307554647 0.12073254059296519
0.1212440993292892 -0.27066113049017354 0.117358142838296
0.1283224787219131 -0.2705336063526766 0.11976929973107249
0.1246206428511703 -0.26739285880552693 0.12388193081360728
0.12448456544714809 -0.26962690049635335 0.11995607088547618
0.1287998821242416 -0.27289183432089253 0.11526789735299021
0.12623813409644008 -0.2668528407238619 0.11875616978150279
0.12441554326849819 -0.27045042807089253 0.11451667021256358
0.12331190366583705 -0.270601436438431 0.11644038032036692
0.12142362851935268 -0.2685475497864382 0.1200778431747523
0.12178450484114528 -0.26888255769239827 0.11630525659066111
0.1295618082984054 -0.2664345651291506 0.11606710623246104
0.1253962184889877 -0.2654713242672579 0.12142943809967906
0.12539997358160854 -0.26695345336424275 0.11727261017304332
0.12917199392157436 -0.2710192649983065 0.11436277101975352
0.1273773874743545 -0.26761536294447347 0.11740976046067149
0.12633677978354335 -0.26937066012846395 0.1132126099918452
0.12196278233366847 -0.26977266365515157 0.11459588478547007
0.1214647557242477 -0.26916401082502767 0.11629312704544932
0.12297752160864711 -0.2665040641449587 0.11613177727204234
0.12349411506491542 -0.2664604633473055 0.11538525889855296
0.1229293610556686 -0.26603771740423604 0.1173767990921107
0.12481549043494106 -0.2655717580937044 0.1170132405613032
0.12789228219824672 -0.26931641990171834 0.11394011448365123
0.12688201327162624 -0.26780094200598165 0.11676659654122264
0.12697386402922511 -0.26731942588316365 0.11473705838662059
0.12062680382567287 -0.25070525700079366 0.14699348281365304
0.1193658079608047 -0.24512596422659325 0.15098756025772958
0.1201231743796432 -0.24511143559442924 0.1468475408409205
0.12547728080588222 -0.24394018942343162 0.1496321506355372
0.12106030840712428 -0.23890833550917076 0.15374391745072274
0.12225678224402309 -0.24188156420217918 0.1491993017051783
0.12546848912077785 -0.24554955953585075 0.14420109461289315
0.12249523062544704 -0.2382719665192263 0.14851694773178964
0.12111699242430568 -0.2418926506661074 0.1440026111457911
0.1221235360606277 -0.24873812490927147 0.1439895279262629
0.11926424164610744 -0.244068130793442 0.1494870729301539
0.11954059858160854 -0.24359275394903587 0.1439331419323054
0.12745862860518337 -0.2401749789141314 0.1450462884758082
0.12174316901999355 -0.23680432135092186 0.15022205780487924
0.12290757555800319 -0.23878104979025291 0.14479618738633065
0.12702604789572597 -0.24444778257833885 0.1412039942596522
0.12427255172568202 -0.23945504421221184 0.14566304753762155
0.12292375821905971 -0.24189345532881187 0.1406488067958918
0.12250998277502895 -0.24928559357153343 0.1418857819889155
0.12108912725287319 -0.24674306804167198 0.14581512878876596
0.123356100509938 -0.24251604074465202 0.14280455778580575
0.12301060218649745 -0.24123108381258415 0.1434901006076899
0.12110396880942226 -0.23903934651838707 0.1465951449726191
0.12399047274428249 -0.23810017103182243 0.1443475432251063
0.12562405724364162 -0.24302063876615929 0.14065110157471566
0.12338044900732875 -0.24045102292524742 0.14473014543991952
0.12294077534514308 -0.2406489401482241 0.14156791041832834
0.11759814281302333 -0.3085727542065279 0.13340785573464303
0.11785536665755153 -0.3052769153736727 0.1394244975898829
0.11531737108069301 -0.3044388740681307 0.13422524403077035
0.12346928973036647 -0.3033112137936251 0.1369397289608088
0.11941638250189662 -0.2972209303997652 0.14052590201836496
0.1186767484648788 -0.3005848973415987 0.13624619911652475
0.12150239605742336 -0.3024586289547579 0.1311542339180079
0.11839428205328822 -0.2906954734944002 0.13456850718003183
0.11762308735686183 -0.2980914860390322 0.13011231492501169
0.11921399493056178 -0.2969826608322756 0.13256275127869516
0.11847126145201564 -0.3026332705639498 0.13356106947403817
0.11778551001387477 -0.30426533514486714 0.14055379699211984
0.11498793620901943 -0.30007328087316915 0.13415404628258615
0.12277316708403468 -0.2946635335110323 0.135060722336587
0.11757605929213405 -0.29200576240049764 0.1400978214595881
0.11757459897833705 -0.29405568534361287 0.13494678805809884
0.12221076745825649 -0.2971480041168825 0.13205033014756112
0.11845704574423671 -0.29009620839582845 0.13626408050995736
0.11822709102469325 -0.29368130856977864 0.13137205909233957
0.11906787414389491 -0.30855260783659383 0.1294493920658198
0.11825853247481227 -0.30997525149809285 0.13224890302163034
0.118885543535527 -0.30502246314512654 0.13186054895859628
0.11562734503584743 -0.2990631311558382 0.13264300893288522
0.11467858810263515 -0.2980390935562746 0.1352612621639338
0.11545663733321071 -0.2973098009251253 0.1332025773380366
0.1182347204192245 -0.3015210776947634 0.13056489299279123
0.11522796411352992 -0.2958930283211367 0.13395657609444528
0.11766570467787624 -0.2963901608608858 0.13158490727883249
0.1174398030741775 -0.3050523548744814 0.13274850915413766
0.11583262343245387 -0.30748127395140096 0.13686307738762765
0.11573061008292079 -0.3019339292668001 0.13447609017830758
0.11539041657286525 -0.29459653789030477 0.13540631006699472
0.11307209391432643 -0.293801560940613 0.13874676297646432
0.11391481418448329 -0.29415695363508626 0.13582017491799264
0.11932640929060817 -0.29779054218756124 0.13194536636811166
0.11595844883757472 -0.29349164659010335 0.13654913972359567
0.11764624376135707 -0.2940907924793856 0.13330226610642343
0.14643236656027675 -0.24505569035040306 0.11712899278145701
0.14552971381979823 -0.2400075941704409 0.12044292162400157
0.1474632884963119 -0.24152778083311485 0.1170786566589442
0.15428194064932704 -0.24290658527838158 0.11914857696038157
0.15026470680075527 -0.23903889948355125 0.12317457269173533
0.1501151587470138 -0.24140371376501488 0.11837189863663584
0.1520734097464645 -0.24427580827700066 0.11467214892846019
0.1496632363303268 -0.23940844828115868 0.11784693072777659
0.14825012941199184 -0.2422102242134707 0.1135141498897639
0.14591982621985317 -0.24062260979639458 0.11323543857079417
0.14325821060973049 -0.23578783864008354 0.11787893842202098
0.14568206329184413 -0.23606191569792198 0.11311792801361949
0.15364339608984828 -0.23834861809240745 0.11396675775986582
0.14906987209158779 -0.23539304727541374 0.11905872295838267
0.14759614724951625 -0.23635797196852135 0.11305847238045603
0.1510028507216537 -0.2405874281548159 0.11195840905648143
0.147938277910527 -0.23679438227640556 0.1150768346641627
0.14727967638808132 -0.23879869276510643 0.10997977326851756
0.14456650276022792 -0.2415329962395327 0.11360355685692698
0.14420267600851894 -0.23948483163343834 0.11584501932602793
0.14757987518149257 -0.23618446284758018 0.11433672378998667
0.147910680959996 -0.23907788092123436 0.1145558602665034
0.14732557196455837 -0.23828850680815147 0.1170161611888972
0.1490305926306808 -0.2369793056868212 0.11494472096901805
0.14930542964774013 -0.23957218224035667 0.11417179773789317
0.14738109369116664 -0.2385722845219271 0.11576374839287669
0.14731174368697048 -0.23850511008726524 0.11278140018921763
0.11651500720816493 -0.20940846199022697 0.16089987228852182
0.11646148223715663 -0.20840767020212578 0.16349744270783334
0.11804127354460597 -0.2072832881830828 0.16301029394608407
0.1182245578272903 -0.2065804153107302 0.1624422616813746
0.11870184202032924 -0.20633089536653923 0.16480409573059945
0.11855885047751308 -0.20573331409918236 0.16308462093811898
0.1194171573622787 -0.20752511912809776 0.16018908689957528
0.11725905198889613 -0.20605698222147392 0.1628237314079371
0.11769020218687892 -0.20620732003675865 0.15996044348221689
0.11717602271872402 -0.20662687713133263 0.15937786768418222
0.11647942323523403 -0.2056065350197451 0.16188090513687997
0.11836734075384975 -0.20420669013487266 0.16177850435715585
0.11974811215239406 -0.20506151014791893 0.16054635714035898
0.11923578042822719 -0.20471335941778587 0.1631458349083033
0.11955916542845607 -0.2041416614674227 0.16155719231110482
0.12021034617262721 -0.20522740477549004 0.15908973883133798
0.11801316995459438 -0.20407733315454887 0.16155236433487802
0.11790713329153896 -0.2040128558300631 0.15849279831391244
0.11549606580572963 -0.20473940664755272 0.15862619350891977
0.11525112051802516 -0.20438955718504356 0.15913199852448373
0.1188792254431808 -0.20082192117201256 0.16142558525544076
0.11730375547247768 -0.20419797295557426 0.1587653703544703
0.11729493398505092 -0.2040314822815554 0.1591260380600062
0.11945995349722743 -0.20141339296327995 0.1612387842987147
0.11749899048643947 -0.20540103310572075 0.1596440620277491
0.11690485138731838 -0.20524574810491966 0.16032862137299447
0.11660608310538173 -0.2043635248564379 0.1594110674713221
0.1157211627467239 -0.20477668935285973 0.15898841093521981
0.115339663217839 -0.20431426161753105 0.15967881153565316
0.11905908245879054 -0.2007368057392733 0.16183351944428354
0.11763748187857509 -0.20408239954935478 0.15918152998429208
0.11750116605597377 -0.20390225941168236 0.15970235537033944
0.11964401264029384 -0.20137611025797295 0.16160791586380868
0.11796432394820094 -0.2057853042505877 0.160135025486764
0.11734810132819057 -0.20562461012827324 0.16083895634156137
0.11707502264815212 -0.20476254815088676 0.15978788803559213
0.12789779562788844 -0.2948137372158663 0.12315594624024302
0.1278315152628982 -0.2908926754616396 0.12565412591439157
0.1287301446898544 -0.292098805250992 0.12217351268273265
0.13488977808791042 -0.2933513372563021 0.12635492752533822
0.1325314905150497 -0.2895138114117281 0.12964808414917856
0.13298397917586208 -0.2925309389256136 0.12607418964844613
0.13360520858603359 -0.2907148450039522 0.12906446526986032
0.13521232862311244 -0.2945140450619356 0.12098380397301585
0.13285568017798305 -0.28510127955900594 0.12309506009560496
0.13185903091269374 -0.291401281895508 0.11939268778305918
0.134046938608464 -0.2876425235890047 0.1220559127185908
0.12982496280508876 -0.2907297163628237 0.12321918676834971
0.12936573881941676 -0.2888565211914675 0.12720867465477853
0.1296739544375503 -0.28811763221250936 0.12321334551316172
0.13598274845915675 -0.2882045357845919 0.12433623741608531
0.13313680548506618 -0.28688092524038716 0.12960233758431344
0.1339125003321731 -0.2884859591148989 0.12541782330017953
0.13578173179465175 -0.29028274113165303 0.1218824930046168
0.13392251391249538 -0.2849236577175753 0.12495952318650157
0.13333764333563686 -0.28792683774458333 0.12087472747307688
0.13194763321715236 -0.29472838336454793 0.11933165262680918
0.13217100162344814 -0.2940061836861269 0.12061652015190989
0.1347922350867355 -0.2903194575928347 0.12132304380875499
0.13174593109923244 -0.2902179508827822 0.12193193505745799
0.13193282146292568 -0.28954814368711873 0.12326734732132823
0.13441878218489528 -0.2887242882870333 0.12401732276421458
0.13382914323645473 -0.2908585518025057 0.1207058675144282
0.13287016410666347 -0.28838150197493 0.12281840513687999
0.13374629278021694 -0.28825114661680623 0.1215991027210322
0.12064209241705776 -0.2727286368034975 0.14940410326462655
0.11580454964476466 -0.2670824378155367 0.1536117739532557
0.11527976054983974 -0.2692979126595156 0.14883982609253793
0.13051873106795192 -0.26792077714430257 0.1514479465339747
0.12378155846434474 -0.264366164746155 0.15692758034211068
0.12110486287909389 -0.266579881253113 0.15139483879547982
0.12993126768904567 -0.2700244336746828 0.14575975607376962
0.12430381436186672 -0.2622653096340792 0.1508334822509852
0.1212804283602798 -0.2664788811825411 0.14527481268387704
0.11771759052115321 -0.26484338933454915 0.14896237324219613
0.11349418420630336 -0.2619840949200289 0.15398132275086313
0.11266830224829555 -0.2631829529427187 0.14792108009797006
0.1305303837760055 -0.26068012410627767 0.1473968572471705
0.1235147680743301 -0.25982181722151204 0.15450632046204477
0.11996879834967494 -0.26091413194166585 0.1476373619888392
0.1268229748709762 -0.26497738057600423 0.14438974331360727
0.12363427538710475 -0.26047940546499654 0.14859032104950815
0.1204082633956039 -0.2630430310391085 0.14288329552155404
0.11666994948225856 -0.26878355437742635 0.14546343158226877
0.11417555470305324 -0.2666331976078646 0.1500732250068751
0.11403473872977138 -0.2656791656635897 0.1464774556015101
0.12045561928587795 -0.26244799787031575 0.1458826310489741
0.11590224165755153 -0.26107494527326985 0.15033101509552865
0.11773180622893215 -0.26270858937727376 0.14711820553284555
0.12078883905249477 -0.2663599997185366 0.14372693966370492
0.11900922317343593 -0.2631730287693636 0.1477640218589869
0.11755540628271938 -0.26447229081617757 0.14348449777108102
0.12431019205885768 -0.25273881846891805 0.12632268141251474
0.1209168996317947 -0.23956103617178368 0.13206934402924447
0.12125977535086513 -0.24559636408316063 0.12678932617646127
0.13926294107275844 -0.24141953879820274 0.12916677664261728
0.1302446391089523 -0.23221771413313316 0.1351753122661677
0.13047554750281215 -0.23840796941744255 0.12869494627457528
0.13276481289702297 -0.24205912643896507 0.12140386770707041
0.12697347659903407 -0.23163019114958214 0.12713834117394357
0.12503897805052638 -0.23881374293791222 0.12091239760857493
0.12166010994749904 -0.23769076162802147 0.12276297281723887
0.11615055460768581 -0.231768548431267 0.12859302233200937
0.11494692821341396 -0.2338091581486361 0.12157856892090708
0.138645407150563 -0.2275833039902346 0.12101369570237071
0.12677129764395595 -0.22320851677881645 0.1276539511535731
0.12578740377264858 -0.22612594062315391 0.11992737124901683
0.13301241059141994 -0.2339416294716494 0.11637681196671397
0.12567102570372463 -0.22748200589643883 0.12255635331612498
0.12201350588637233 -0.23090712720381187 0.11543210814934642
0.1523972417815292 -0.2226270883701937 0.12264406155091197
0.15090867538290859 -0.21053919190393852 0.12928413818818002
0.15220883149939418 -0.21520370239244865 0.12456976841431529
0.16211840171652675 -0.21019995206819939 0.127580995068368
0.15834101695853114 -0.20553274446951317 0.13222228954773813
0.15829911489325404 -0.2092342823170321 0.12678738902550607
0.157451536844548 -0.21096828574167656 0.11981328795891673
0.15440085191565395 -0.204440787377228 0.12506868909340768
0.15305331010657192 -0.2093648164890902 0.11914249728661448
0.1497119333251083 -0.21020555490480827 0.11895203064423472
0.14525767822104335 -0.2025116383455889 0.12537413309555917
0.14786836166220546 -0.20362475508676933 0.11985438536148936
0.160033848474797 -0.20050856465326714 0.12048962186318309
0.15506770868140102 -0.19799618417250084 0.1258991308067408
0.1536753441794479 -0.1995190232418673 0.1189649052475062
0.1561283733351791 -0.2030949144981997 0.116575831875619
0.15008237619238735 -0.19849432999121117 0.1209541208599177
0.14965703744727016 -0.2013292014025347 0.11464234660607249
0.1501711275084579 -0.2129423766754763 0.12078767488938243
0.14613246579008937 -0.20753985637651848 0.12696524928551584
0.15041133422690273 -0.2053253203056948 0.1226112789962855
0.15571620721655727 -0.20299820596205162 0.1217134542320338
0.15352579612570644 -0.20142520958410667 0.12716242145043283
0.1512649323447311 -0.20098885888086723 0.12197374771576792
0.15291085500555873 -0.20376704627500938 0.12053423593979747
0.14808848161536098 -0.20119050139414238 0.1241613871906367
0.1488130952818954 -0.20221187168585228 0.11890395949822337
0.13650706071692348 -0.26279117161261006 0.1339395589683619
0.13298618454771877 -0.25182376796232625 0.13864734242897897
0.132526900957402 -0.25748597079740926 0.13318687151413827
0.1522528793318832 -0.2576554268025057 0.1362124032829371
0.14400300044852138 -0.24985884124266075 0.14206048320275216
0.1419388915999496 -0.2546961157940523 0.13563104938012033
0.14655145664053798 -0.25923998648153707 0.128979498848733
0.14158394594031215 -0.24797929817663597 0.13439231585007577
0.1374249722464645 -0.25501410657392903 0.12828418086510568
0.13299953598814845 -0.25258062774168416 0.13304382036667733
0.12793755192595363 -0.244935229363312 0.13871427844506173
0.12818911332922817 -0.24903850251661705 0.13143789242249398
0.15195491571265102 -0.24844701582418846 0.132100517258462
0.14189496297675014 -0.24366794520842003 0.13917564819794565
0.1377546157343948 -0.24620284134375023 0.1308117456291285
0.14365547556715846 -0.2511830776356356 0.12688016365509897
0.13852107186156154 -0.24190856510626244 0.13214113782387643
0.13609191436606288 -0.24864442640768455 0.1250817127082911
0.12536307830649257 -0.32054887706266805 0.12601097892266183
0.12292799014883876 -0.3186586349629061 0.12833851049881845
0.1246557797892654 -0.31925497943388387 0.12652387689095407
0.13017084855872035 -0.31917653972135945 0.12628873656731515
0.12685945291357875 -0.3176813572071688 0.12930541704636483
0.12554618377524257 -0.31846593314634725 0.12736212681275277
0.12892856855231166 -0.31587921077238484 0.12465360234719187
0.12772920389014125 -0.31357072288023397 0.12795757721405893
0.12613579292136073 -0.3150967806004183 0.12485253284912974
0.12546077031927944 -0.3170990496300356 0.12760036657792
0.12430634755926967 -0.31647427374349996 0.12916835616570382
0.12457248229819179 -0.31740091735350057 0.12796037863236337
0.12956824560004115 -0.31486700469480916 0.12665038774948983
0.12743609804945827 -0.3149642496727602 0.12957038949471383
0.12555345554190517 -0.3162360935829775 0.1282976813171473
0.12973871488409877 -0.3173838406227724 0.12760120104294687
0.12770688195067287 -0.3155218213223116 0.1299279875610438
0.12648018855887294 -0.31588165456282064 0.12617611359101205
0.12349909205275417 -0.3192304223202364 0.1274223871086207
0.12363770265417934 -0.3192752450131075 0.12730240295868783
0.1284900571806991 -0.3187559395455019 0.1270525402877894
0.12436499852972865 -0.3185510485790865 0.12703236411553293
0.1244971420271957 -0.31860686832891866 0.12690981696587472
0.12863027710753322 -0.3185268788956301 0.12748601506691842
0.1263751651747787 -0.3180443494938509 0.12697821329575448
0.1263502504332626 -0.31801937514769 0.1273426658962336
0.12851196188765407 -0.3181119709633486 0.12778239916306405
0.12452289123373866 -0.31820382172094747 0.1293231494281855
0.1237964298232162 -0.31808055931555196 0.12990101645928293
0.12658401985007167 -0.3188276737354891 0.12962486814003854
0.12614157457190395 -0.3164847939633028 0.12853273223381906
0.12562489170866847 -0.3165662437103884 0.12917208145600229
0.12667610902624965 -0.31813706451879903 0.1301466472004023
0.12717553634482265 -0.3172674327515261 0.12987407515984445
0.1268615092738235 -0.3169637172840731 0.13055678676110177
0.1278565194113815 -0.31678746634947225 0.1298305637691584
0.12138101119833827 -0.2146828472040789 0.1342224426124659
0.11942144889670253 -0.21125893289076256 0.13890078137856393
0.12051307816344142 -0.21206086868273186 0.1350682623241511
0.12893893976050258 -0.2079520522974627 0.1357674844120112
0.12593981284933925 -0.20676480227934288 0.1398122556064692
0.12413203377562404 -0.20744693273531364 0.13471725057106881
0.12684979696112514 -0.21099856490122246 0.13187518189888864
0.12239631671744228 -0.20795792335497307 0.1359285659645167
0.1225396360858047 -0.2096336632393496 0.13089781473618417
0.12067708034354091 -0.20833100372778343 0.13025998543244272
0.11655208129721523 -0.20531697565542625 0.13488721321564584
0.11811321635084987 -0.20535627001749443 0.13062250088196664
0.12985360283690334 -0.2040200977944033 0.12968402574997812
0.12511965293722987 -0.20306186372267174 0.13417323897820382
0.12327438254195094 -0.2035640477560656 0.1285975522850123
0.12563874978857875 -0.20775182539450096 0.12811031411629586
0.12123134393530727 -0.20575827354418205 0.13134833644371896
0.12092041630583644 -0.2067967503689425 0.1260476357791987
0.12040960450011134 -0.2099153547905581 0.13082101415139108
0.11752441186743617 -0.2083564996145861 0.13368784855347543
0.12104901332693935 -0.20606224233137535 0.1321809537265864
0.12547582049208522 -0.20676651591288017 0.13041972588044076
0.12356236238318324 -0.20649409288393425 0.13308453033905893
0.12316152114706874 -0.20564973348604607 0.13076194594841867
0.12253641743498683 -0.20880904788004326 0.1304177291248408
0.1202593113883102 -0.20817419880854057 0.1323550886962977
0.11997905034857631 -0.20791320497023033 0.1289860255573359
0.12421273846464992 -0.295782282891144 0.12816562722664743
0.119279351423558 -0.28765071922766133 0.1332972295139399
0.11809160966711879 -0.2921211271904604 0.12669136594277292
0.14027523655730129 -0.2932043223999636 0.12980624507409005
0.13333955068426967 -0.2888303547524111 0.13642930458527475
0.12783729691344142 -0.29123021656500264 0.1290419645164576
0.1366537775500381 -0.2941770105980532 0.1225579924438563
0.1315091516478622 -0.28424213820921346 0.12822967241745858
0.1263136531813705 -0.289613351168503 0.12163105081063182
0.11847480792837978 -0.2842134683750765 0.12890353272896676
0.11352571506338954 -0.28142000729071065 0.13473221133690744
0.11106180805998683 -0.28291805082785054 0.12685962985497384
0.13794850964384914 -0.2832265346668856 0.12652968834381967
0.12892862815695644 -0.2824890165947573 0.1351295358989802
0.12326839227515102 -0.28311036521421834 0.12617340157967477
0.13014340061980129 -0.2837474792622225 0.12194528649788768
0.12552296776610256 -0.276920422854294 0.12721618484002023
0.12241857905226589 -0.28147856885420247 0.11996676991921336
0.11757939715224147 -0.29135738307463094 0.12376826475602061
0.11408868093329311 -0.28768728667723104 0.1296562201831904
0.11359938640433193 -0.2875563352726595 0.12366783092957408
0.1240195002062881 -0.28370417648779317 0.12422829340439707
0.11782142181235195 -0.28109137708174153 0.12971338103753
0.11841666359740138 -0.28353027993666097 0.1245152301643458
0.12313171882468105 -0.2870072572849886 0.1201631076191035
0.12008779902296901 -0.2809756546639101 0.12499179910164744
0.11822062392073512 -0.2842432110928194 0.11972271870118052
0.13204157013731838 -0.24057091766821312 0.12217163513642222
0.1324457790358627 -0.22630709403978752 0.12899419139367013
0.13280018825369716 -0.2312001138352053 0.12421026299935252
0.13942953605490566 -0.22375087434278892 0.12800439666253
0.13717382807570339 -0.21765512222277092 0.13306998680573373
0.1368581916792953 -0.22244121128546165 0.12720539639931588
0.1353207196696365 -0.22392611199842857 0.11974140475731761
0.13312300700980068 -0.21558052295671867 0.12485667537194163
0.13179748911696315 -0.2220075427912371 0.11913865278702647
0.1296894516451919 -0.22513015562521385 0.11932593058091075
0.12760162014799953 -0.21599555009828972 0.12600820730667978
0.12974825162726283 -0.21760107571112083 0.12061738441925914
0.13904744047957301 -0.21140395099150108 0.1218304283474055
0.13509928841429591 -0.207752674760689 0.12738283942681222
0.13381606001692653 -0.2102084159277575 0.1205118841980067
0.13566934723692775 -0.2137772738360064 0.11675896714669139
0.13106968660193324 -0.20786771172510551 0.12135561774712474
0.13032439012366176 -0.2119752764128344 0.1150792486522761
0.13063993711310268 -0.22741825872885155 0.11997630666237742
0.1272129680617416 -0.22058357292639183 0.12688046167832284
0.1318741406901443 -0.21821990603434013 0.12266790340882212
0.13440739769774318 -0.2141511886738436 0.12211602400284678
0.13349428434210658 -0.21207320684420036 0.12805249761086374
0.1312824155791366 -0.211936041655411 0.1225621349666682
0.13223978538351894 -0.21510319406019615 0.12028550575714976
0.12847825546103359 -0.21162033075319694 0.12473627398949534
0.12886619229155422 -0.21325090521799492 0.119291896328744
0.12992965836363674 -0.2516082971714632 0.1475857443664637
0.12768485803442836 -0.23379199201094078 0.15413343380432992
0.1274842288001144 -0.24158293003069328 0.14928298662644296
0.1426105167372787 -0.22951628262030052 0.1513374991272059
0.13567444343405605 -0.2190507500790255 0.15745621393662362
0.13489117879706264 -0.2266597896240847 0.15094202230912118
0.13717201013403774 -0.22961640352236198 0.14227261613350778
0.13263085145789028 -0.21735244983660149 0.14863228271943002
0.129122998903569 -0.22622959310041832 0.14206483434182077
0.126550760458287 -0.2272982596777575 0.14610656569939523
0.1225999559863174 -0.21688772732244896 0.15305339764099984
0.12269213456946254 -0.2211118935965197 0.14614384840470224
0.1432242359622085 -0.21138374501692223 0.1466256923530665
0.13447472114401698 -0.20610803359972404 0.15303188036423593
0.13235601444083095 -0.2096828370712893 0.14532949994545846
0.13622402806120754 -0.21458275610433983 0.14013406108361154
0.12982287664252162 -0.2060919254444735 0.14622029136162668
0.12733474035101772 -0.21214514965044426 0.13859193991166024
0.1257348026736343 -0.23348599666582512 0.14478089879494577
0.12295764345961452 -0.22440592938887047 0.15148674915772348
0.12395408410864711 -0.2245807349108355 0.14625861714821725
0.132305052469548 -0.21459943050371574 0.1457862205360499
0.12775322456198573 -0.21092414850222038 0.15170049141388803
0.12619992751913905 -0.21269859367834495 0.14487790535431772
0.1297597255213821 -0.21701447659956383 0.1413427538726893
0.12481709976034999 -0.2112486659907 0.14666386912804513
0.1234043206675613 -0.21453982585894035 0.14039176176529794
0.14801242608862758 -0.2650440185688631 0.11930283378106028
0.1464838351710403 -0.25711368018614217 0.12365734051209361
0.14544281024771571 -0.25959117704855367 0.1182559974048701
0.1572243239386642 -0.2593319266461031 0.12184643219452769
0.1516393687232101 -0.2526192217491762 0.1256261713359919
0.15210351009207607 -0.25699500733839437 0.12088274429779917
0.15485819835501552 -0.2621562033318178 0.11506419847947032
0.15144499797659755 -0.2516296952389376 0.11906390856247813
0.14891907234030605 -0.25769136840330525 0.1141477472637263
0.14730626005965114 -0.2617333381794588 0.11630120347481639
0.14395174045401454 -0.25688625866400167 0.12218605946045787
0.1422413851721847 -0.25730745488630696 0.11507698367577464
0.15692141313391567 -0.2541425078533785 0.1164118594978419
0.14993390102225185 -0.2503740935944216 0.12216686676484019
0.14957841892081142 -0.25271384412275716 0.11554565499764353
0.15553488988715053 -0.2584362476490633 0.11192744444352061
0.14987823028403163 -0.25033836060987874 0.11715563605767161
0.14868017692404628 -0.2548025696896212 0.11128189633828074
0.11763322014647365 -0.2542640715263979 0.12805857728463083
0.11744302172499538 -0.24831014865862297 0.13166495631676584
0.12005057592230678 -0.24866543704496788 0.1287002212856379
0.12245550412970424 -0.24762956792341637 0.1322431809757319
0.12014308233099819 -0.24304805690275597 0.13607173632126718
0.1202549602492416 -0.24581263953672813 0.13179456661682992
0.1225972737773025 -0.24848113948332237 0.12584307263832956
0.1207643117411697 -0.24075005942808556 0.1299371666763392
0.11995747346716762 -0.24558581406103538 0.12560617397766977
0.11894011158781886 -0.2488441019676821 0.12639361093979745
0.11660223860579372 -0.24391502136217522 0.1317144579742518
0.11883616108733058 -0.24353180819975304 0.12748404811364084
0.12397768754797817 -0.24206785851942467 0.12795370291214853
0.1186336543067062 -0.23878993088232445 0.13348200391274362
0.11973094601469875 -0.24065126472937035 0.12812557290535836
0.12374755401450038 -0.24591532343851494 0.1250228531215754
0.12170749564009548 -0.24071305984484123 0.12884476254921823
0.12134629149275661 -0.24404256040083336 0.12394719789963633
0.12013500590163112 -0.25130884343611165 0.12508746455651193
0.11979680914717555 -0.2482589631699221 0.12853219579201608
0.12361925501662135 -0.24368628853784965 0.12765892814141183
0.12078377265768886 -0.244664952101578 0.1263971574161616
0.11987301368552089 -0.24320071929918693 0.12971877525788217
0.12295069951849819 -0.24147514993177818 0.1292459018085566
0.12346139211493373 -0.24632552260385918 0.12597917984467416
0.12226453084784389 -0.24440486723410057 0.12911819885712533
0.12279462475615383 -0.24482800060736107 0.1261178798530665
0.12859654087859035 -0.279831811728348 0.13227039049607187
0.1261039342387283 -0.27293638879286214 0.13624247382622628
0.12633004445868373 -0.27591906482206746 0.13130989144783883
0.13954201001959682 -0.276055321040024 0.1348984188888636
0.13414534587698818 -0.270703062357773 0.13965376685601144
0.13194372911291957 -0.2740012555740969 0.13436045716744333
0.1368182565672958 -0.2770200222157137 0.12832453320961862
0.13450908322173 -0.2677778154038088 0.13270475934487252
0.13086989183264613 -0.2733312099598543 0.1275274998996821
0.12712707776862026 -0.2733439057491915 0.1317115671489802
0.1240543689234817 -0.26938761764990254 0.13704326222878366
0.12378435988264919 -0.2703965454720156 0.13074120353203683
0.1387210156424606 -0.26922126108633443 0.1309793836925593
0.1316813494666183 -0.26658655697332784 0.1375466830585566
0.13045492429571987 -0.2687514572762148 0.1309096164558497
0.13562166352110744 -0.27220849687086507 0.1271341688488093
0.1320129301055038 -0.2652372866295473 0.1318181104515162
0.13027721304732204 -0.2697928994320528 0.12597441147309213
0.12718256969290614 -0.2785168140553133 0.12753167222481637
0.12493785877066493 -0.2750487476013796 0.1329451150749293
0.12627085704642177 -0.2730708568714754 0.1288981087062922
0.12926894087630153 -0.2700451164864199 0.12932788799744516
0.12537443299132228 -0.2677652090214388 0.13388803075295358
0.12799754400092006 -0.2691135256909029 0.13055008123856454
0.12979185242491603 -0.2726451008938448 0.1263232774589625
0.12827470559912563 -0.2679090350292818 0.13071181844216256
0.12715178389387966 -0.2699437587879793 0.12681215475541024
0.12770378250914455 -0.24401952320562767 0.11965193818550975
0.12727775831061244 -0.23836483055578636 0.1229535288665858
0.1287569965823257 -0.24059887224661278 0.12051489423256785
0.13517760891753078 -0.23902048164831566 0.12275945614319712
0.13283782858687282 -0.23530592018591331 0.12651565144997506
0.13150205869513393 -0.2374896853588717 0.12216302226525218
0.13277643580275417 -0.2408473044060366 0.1166627950523463
0.13164171237784267 -0.2352066486500399 0.12055900166970164
0.12974556941824794 -0.2389152347468035 0.11601542900544078
0.12881114740210414 -0.2406431286953585 0.11800291608315379
0.12603741545515895 -0.2359613626621859 0.12252690862160594
0.1293189193709457 -0.23699036234842705 0.11896824310761363
0.13568460602599025 -0.23740522557722496 0.11916154097062022
0.13053729791479945 -0.23425047093855308 0.12400179575425059
0.13058194179373622 -0.23605620855318474 0.11874490450364024
0.1340506042941177 -0.24054452771173881 0.11611753176194102
0.13186341185408473 -0.23654802137838768 0.11941873501282603
0.1310392882330978 -0.2389924972675936 0.11483337949257762
0.12832888622122646 -0.2427299767159121 0.11882894705277354
0.12687134404021144 -0.23991884285437035 0.12219532798272044
0.1307685043318832 -0.23746646934973167 0.12102540801506907
0.13137003440695644 -0.23901803785787987 0.11974140475731761
0.1301588382227981 -0.23798489564882683 0.12363716433983714
0.131231095979985 -0.23743768030630516 0.12123223613243968
0.13220649618941188 -0.24156269425379204 0.11904844115715892
0.12989449162321925 -0.23965390020834373 0.12190636466484935
0.13067847151594997 -0.240156575980057 0.11854731510620982
0.1366864706976974 -0.2904456406258242 0.11742588351708323
0.13540044088202358 -0.2873693555019991 0.11995836566430003
0.13579740781622768 -0.2883071451805727 0.11700051496964366
0.14182546396094203 -0.28753800684439107 0.11926575969200999
0.13916766304808498 -0.28531192237364217 0.12257003258210093
0.13870080966788173 -0.28693570190893575 0.11949520777207286
0.14424332637625575 -0.2908818274162905 0.11472120355111033
0.1403706635935867 -0.28524200612532064 0.1175988859985438
0.13929369706946254 -0.28850542003141805 0.11382200788002879
0.13676774163084865 -0.28634349996076985 0.11656465600472361
0.13534962792235256 -0.2848915606163637 0.11959906886559397
0.13559552688437343 -0.28504873806463643 0.11636611293297679
0.1421498622401321 -0.2834167926930086 0.11628144453507334
0.13925206322508693 -0.28291581565367147 0.12059553931694895
0.13862087983923793 -0.28422860795484944 0.11725389431458384
0.14263760704832912 -0.28643916541563436 0.11480912040215403
0.14113035459357143 -0.2836080043934481 0.11749439905625254
0.13963490385847926 -0.28477285796629354 0.11342977951508433
0.12705388326483608 -0.2126415967367785 0.1441098995063868
0.12509435076552272 -0.20921768242346214 0.14878820847016244
0.12618592042761684 -0.21001961821543144 0.1449556596134272
0.13461184162932277 -0.20591080183016228 0.1456549115036097
0.13161268491583705 -0.20472353691088127 0.1496997423027125
0.12980487603979945 -0.20540566736685203 0.14460467766266732
0.13252266902762294 -0.20895731443392204 0.14176263879280954
0.12806918878394008 -0.20591665798651146 0.1458159632537928
0.12821247834998012 -0.20759239787088798 0.14078524182778268
0.1263499524100387 -0.20628973835932182 0.14014735291939645
0.12222498316603542 -0.20327572518812584 0.14477461050492196
0.12378611821967006 -0.2033150344513552 0.14050989817124276
0.13552653450804591 -0.2019788324259417 0.13957145284157663
0.13079252500372768 -0.20102059835421013 0.14406060646515756
0.12894725460844875 -0.20152281218992638 0.13848491977196603
0.13131168145972133 -0.20571057492720055 0.13799774120789438
0.12690427560644985 -0.20371703797804283 0.14123576353531747
0.12659325857001186 -0.20475549990164207 0.1359350628707972
0.12608250636893154 -0.20787410432325767 0.1407084412429896
0.12319731373625636 -0.2063152342461245 0.14357521604042917
0.12672188539343715 -0.20402100676523613 0.1420683808181849
0.13114866275626064 -0.20472526544557976 0.14030715297203927
0.12923523444968105 -0.20445282751547264 0.14297195743065744
0.12883439321356654 -0.20360846811758446 0.14064937304001718
0.12820928950148464 -0.20676779741274284 0.1403051562164393
0.1259321536524856 -0.20613294834124016 0.14224257539254098
0.12565189261275173 -0.20587195450292992 0.13887345264893441
0.1502346064551437 -0.22983233624922203 0.1133249945495692
0.1516182686789596 -0.22278709703909325 0.11823060582619578
0.15087905187445522 -0.225821539702286 0.11463996242028147
0.1555972363455856 -0.22609336668478416 0.11736592124443919
0.15582653541403652 -0.22263853246199058 0.12075858782273204
0.15472426671820522 -0.22507545346247124 0.11634554933052928
0.1538571979506576 -0.22760492557512688 0.11126812766533763
0.15176078338461757 -0.22125005716310905 0.11456617187004954
0.1517207290633285 -0.22574412816988396 0.11017623017769725
0.1488034393294418 -0.22503130132185387 0.11087488602143199
0.14811619777518154 -0.2190633117579119 0.11619084547501475
0.1490686203940475 -0.2198553233765261 0.11204963396531016
0.1545053388579452 -0.22172772878633903 0.11334540914040477
0.15463801879721523 -0.21985304349886345 0.11802476118546397
0.15241387147742153 -0.22024972731100487 0.11222868631821543
0.1541335846884811 -0.22356581682192253 0.1104660279605952
0.15138497609930873 -0.21993640059458183 0.11316692303162486
0.15156295556860805 -0.22221036249624657 0.10843496988755137
0.1483061577780807 -0.22705689066873955 0.11312198112946421
0.14860036630469203 -0.22335195535646843 0.11701976726990611
0.1501304175360763 -0.22193378204332756 0.11544528077584178
0.15078106183844447 -0.22431127721296715 0.11557316254120738
0.15137931365805507 -0.2231197505615847 0.11910291980248362
0.15080508251028896 -0.22214524442182945 0.11575680445176036
0.15170731801825404 -0.22315090888964104 0.11529904077988536
0.14938571710425258 -0.22176128620134758 0.11703484724503428
0.14990672130423427 -0.22226992243753838 0.11312186192017466
0.11802076954680324 -0.31856082374082967 0.11744826506119639
0.11739244718390346 -0.3181460350178377 0.1182874686573115
0.12017956037360072 -0.318526640477051 0.11811130712967784
0.11896994371252895 -0.31810896092878743 0.11763509582024485
0.11816331405478359 -0.3176997750424044 0.1187050289962855
0.12037714977103114 -0.318264052214493 0.11875405381661326
0.1159207190974319 -0.31747846299635335 0.11852698992234141
0.11490896005469203 -0.31653122598158284 0.12021648357849986
0.11454516310530544 -0.3164937942646639 0.11839299868088633
0.11971148509817958 -0.31550936395155355 0.11767723630410105
0.11946710605460048 -0.31540323788153096 0.11801170776825816
0.12277149815398097 -0.31664820009695455 0.11879750560265452
0.12090336937743068 -0.3148039429806368 0.11728828619461924
0.12063845653372646 -0.3147658556126253 0.11781742642861277
0.12227740545111537 -0.31620372826086446 0.11904385159951121
0.12090149183112026 -0.3165674656056063 0.11962657640915782
0.12055664915877223 -0.3162008970402376 0.1204258746955958
0.11937170882063747 -0.31563191110121175 0.11852621506195933
0.11726909537154079 -0.3154567032478945 0.1182874686573115
0.11957502026396633 -0.31593970948683187 0.11634012530785472
0.12577214498358608 -0.31471203261839314 0.11791136334877879
0.11609351296263576 -0.31663732224928304 0.11853277157288462
0.11795454878645778 -0.31755109125601216 0.1170147008751002
0.12506106157141567 -0.3150832205437319 0.11633538673859507
0.12049701471167445 -0.31430055195318624 0.11764943073731333
0.11961289901572109 -0.3142678886078493 0.11497958968621165
0.12280532378989101 -0.31463329488264485 0.11918261121254832
0.11786093969183803 -0.31371872121321126 0.11992370556336314
0.11944451589423061 -0.3138271718643801 0.11882134746056468
0.12366494197684169 -0.3145738392494814 0.12040027450066478
0.11722311038809657 -0.31446234876142903 0.12020006249886424
0.1187341477377975 -0.3146632462166445 0.11923366259079844
0.12371733445959926 -0.3148395269535677 0.11995714376908213
0.1197581853373611 -0.3125657885693209 0.12068026731949717
0.12084686417418361 -0.3129455297611849 0.11842736075859935
0.12166428227263332 -0.3124334662579195 0.1214814133499232
0.1415767933829391 -0.2408533840798037 0.12678446839791208
0.14099317450362087 -0.23057998711096214 0.13249539803009897
0.1425155963404739 -0.23365186149107384 0.12738713096123605
0.15019651908713222 -0.22918753320204185 0.1308720655296412
0.148082640360173 -0.2247810363196032 0.13547792504769235
0.14549338478880763 -0.2276172190331118 0.12959891031723886
0.14660972018080592 -0.23078711325155662 0.12402378986817271
0.1428818072779739 -0.2231221943520205 0.12889363835793405
0.14127418060141445 -0.22842197114454674 0.12307047317963511
0.13899773020583034 -0.22891141468511986 0.12267368505936534
0.13602497834998012 -0.22097538405882286 0.1288779921386805
0.13858914036589504 -0.22172915929781364 0.1230467803333369
0.14773705262976528 -0.21934609109388756 0.12363364766579539
0.14365037937003017 -0.21657390886770653 0.12944012354355722
0.14066135544615627 -0.21767050022112297 0.12214788268547923
0.1433468427165115 -0.22457119816767143 0.12131019900780589
0.13892087001639247 -0.21963623160349297 0.1253243930194941
0.13850217718916774 -0.2227961718462603 0.11916914056282908
0.1403914358122909 -0.23061202460752891 0.12252801130753428
0.1390673186286056 -0.2261356561802523 0.12751566837769418
0.14292016286688686 -0.2226300089977877 0.12357350657921702
0.14296587962942958 -0.22222521895395683 0.12399187158089549
0.14228847284155727 -0.22074416274057793 0.12854673932534127
0.14162423868018031 -0.2198691665552752 0.12434747289162547
0.14148899574118495 -0.22466781729685234 0.12331819008332164
0.13813590664702297 -0.2220269590042727 0.126943046555337
0.1388546790583694 -0.22308193141447472 0.12203472326737315
0.11829855699377895 -0.267719253840317 0.12364464472275645
0.1175340380175674 -0.2586283534191744 0.12815039823990731
0.11775436658697963 -0.2614013403080599 0.12350397776108653
0.12560647387343288 -0.2583902328632967 0.12731280396920114
0.1200289692385757 -0.24932412797438072 0.1316168553684321
0.12115838785010219 -0.25541971618162557 0.1267623550747004
0.122324344108876 -0.25938878947721883 0.12015369008522898
0.12214913625555873 -0.2477624415777819 0.12406238387566478
0.11906489391165614 -0.2554748206757204 0.11938383649331004
0.1190306212409103 -0.26134286815153523 0.12129827807885081
0.11670589108305812 -0.25707958632933064 0.12750720451813607
0.11603080887633205 -0.2567795961521761 0.1211999602172938
0.1263657178385818 -0.25185473257528707 0.12201949428063304
0.1187014545901382 -0.2476306706093447 0.12746142815094857
0.12069958109694362 -0.25070919090734883 0.12180768917542369
0.12540578503447414 -0.2556933015011446 0.11739643882256419
0.12138872999983669 -0.2478520720623629 0.12276517818909556
0.1204857792361343 -0.2526326625965731 0.11710768412094981
0.12077358026343227 -0.2648607342861788 0.11839830349427134
0.11864930052595973 -0.2623493521832125 0.12358149360161692
0.12011685628729701 -0.25825907284246846 0.12025981615525157
0.12144863266783595 -0.25349549943434163 0.12001931141358287
0.11811470646696925 -0.2510157077931063 0.12428581188660533
0.12130769748526454 -0.25072173768507405 0.12180685471039683
0.12406694550352931 -0.25548534089552327 0.11728080581169993
0.12163629789191127 -0.25184698397146627 0.12235924075585276
0.12135728854971767 -0.2527178972386019 0.11882015536766917
