ply
format ascii 1.0
element vertex 420
property float x
property float y
property float z
element face 0
property list uchar int vertex_indices
end_header
0.12004464526015163 0.1222840101100309 -0.2157812320138845
0.11804669756728053 0.12431107467187477 -0.20922871459979148
0.11441087384062648 0.12185074394715859 -0.2125521503831777
0.13055279512244106 0.12158565228952004 -0.21027507413882346
0.12511649389105678 0.12665738171113564 -0.20517772962111563
0.11960678953963161 0.12429656094087196 -0.21259007383841605
0.1254443790419662 0.12295712536347939 -0.2150764070894155
0.12362047691183925 0.1363734454490049 -0.21197900702017874
0.12085231799918056 0.12776641553414894 -0.21828787554759116
0.12356045503455043 0.13225616520417763 -0.21307324399012656
0.11792504448729396 0.1187035292960508 -0.21182035435694785
0.11597019095259548 0.11911822861207558 -0.20560446907538504
0.1136934127314651 0.11714564269555641 -0.2086476438190374
0.1244402195914352 0.11997865146173073 -0.2064481877233419
0.1193449761374557 0.1240622550822599 -0.20127428103942008
0.1135510172350967 0.12300984567178322 -0.20850527812499137
0.11841314692335964 0.12205289309991432 -0.2096597902919683
0.11761885542708278 0.13274492329133583 -0.20674956370848746
0.1171540286048019 0.1262275428153379 -0.21263108183402152
0.12067111987906337 0.13597856467736794 -0.20776567389029593
0.11546629328566432 0.1178754419661863 -0.215708320632163
0.11467793245154262 0.11959452932847572 -0.21147403646964164
0.11367201466399074 0.11525742715371681 -0.21186136235255332
0.11812537569838405 0.11900781100762917 -0.20903601278323264
0.11596896905737758 0.12327153986466957 -0.20517015983122916
0.11183279414015651 0.12185065454019142 -0.21085660685557456
0.11409461159544826 0.12042285507691933 -0.21274516512412162
0.1148598756297195 0.1306334883548124 -0.21024729837435813
0.11375972289877773 0.12478871649278236 -0.21620658566016288
0.1177677776320541 0.13428260391725136 -0.21270724166888327
0.11536082286673427 0.11827765410913063 -0.2160876296903524
0.11475178260641933 0.12017203873170448 -0.21227467586058707
0.11385389823752284 0.11558894818795754 -0.2122937195445928
0.11759388108092189 0.1192562133647306 -0.20919228126067252
0.11577719111281276 0.12353204196466042 -0.20563200642127127
0.11205452341872096 0.12190346425546242 -0.21090779234427542
0.11393472213583827 0.12024445837510658 -0.2131230734731588
0.11488949913817287 0.13035158818734718 -0.21060641635912986
0.11368462104636073 0.12466318911088539 -0.21627280642050833
0.11764624376135707 0.1337097138739927 -0.21307643283862204
0.12949174303847194 0.25957377260697917 -0.21916473437804312
0.12895089049178005 0.26007707422746257 -0.21819834937113852
0.12995668907004237 0.26056708401216105 -0.21823511053580374
0.13011970777350307 0.26013739412797526 -0.21885611642855735
0.12931441922026515 0.2606248409129484 -0.2176888339664373
0.1301321949465835 0.2608792335368498 -0.21790545214671225
0.1295911337836349 0.26047022646440104 -0.21985130538004966
0.12919065017538905 0.2609745413638456 -0.2186585717346105
0.128409412096318 0.2611683160640104 -0.2201903067972097
0.130100485275563 0.2586518079615934 -0.21805030633467765
0.12966191429930568 0.259167268929611 -0.21714398790854544
0.13063153285818935 0.25961132353318767 -0.21726292897719474
0.1305771734221542 0.2591556460238798 -0.21767068435210318
0.1299868788226211 0.2596483380175932 -0.21660434235591025
0.1306590404017532 0.2599065453387602 -0.21693249572772116
0.12986245412665248 0.25978554790986613 -0.21913484264868827
0.12940936941939235 0.2603841573573454 -0.21782112647551627
0.1288405622943008 0.2604911476947172 -0.21946326424140067
0.12715074081259609 0.26077802485002116 -0.22113930214900107
0.12726038355666042 0.2607086450435026 -0.2213281445648107
0.12901624698477626 0.26230759924424724 -0.21943273176211447
0.12689229507285 0.26048429316056804 -0.22132455338496299
0.12701570648985744 0.26040263479722575 -0.22155759264487357
0.12875523824530483 0.26222713297380046 -0.2196298443223867
0.1267622079356277 0.26064677542222575 -0.22103041936415763
0.12671929259138942 0.26068218058122233 -0.220939894809905
0.12616234679060817 0.26139445608628825 -0.22054018606204123
0.1271398331626022 0.2578083426333769 -0.22012064386862845
0.1274817850096786 0.2571209222651823 -0.22084381212252707
0.13049712438422084 0.2594942600108488 -0.21938600172061057
0.127039041708287 0.25600250071061686 -0.22188818980712027
0.12734341282683254 0.25506491964829997 -0.22283182074088187
0.13067915696936488 0.2588141114093168 -0.2210185878421697
0.12475365061598659 0.2574082166529997 -0.2227583729173574
0.12495070357161403 0.2572182566501005 -0.22311913002986045
0.1255793239577377 0.25836212938798503 -0.22202043761271567
0.13828587193327785 0.18203033512605263 -0.20285504092234702
0.13656648654776454 0.18799479311479164 -0.19587643970507712
0.13331800360518337 0.18848712748063637 -0.2027249984886083
0.14520078558760524 0.18885345762742592 -0.198004742756072
0.14032575149374843 0.19744451349748207 -0.19270368446368308
0.13753869790869594 0.1935200244761808 -0.19960031439322562
0.13973149318533779 0.19081886118424965 -0.2051741533424291
0.13922965187865138 0.20384086674226357 -0.20085178841609092
0.13688975233870387 0.19618882244599892 -0.20707339574355216
0.1373050775034988 0.18691726034654213 -0.20401593078631491
0.13515218753653407 0.1886144430018766 -0.19529210557002158
0.1304066147311294 0.19233508413804604 -0.20293322731513114
0.14260077137785793 0.1971547753192289 -0.19950488735694022
0.1372142400248611 0.20243246859086586 -0.19395852614897818
0.135456588457402 0.2000045329905851 -0.20077373613375754
0.13752445239859462 0.19793118542207314 -0.20587567020911307
0.13643294234114528 0.2095250636912687 -0.2012039773609075
0.13452198762732387 0.20407678192628456 -0.20699149896163077
0.1378267969592178 0.17309100931657387 -0.20638533462542624
0.13661035556631923 0.1768208891726835 -0.1988466136600408
0.13483300466376186 0.18120105570329262 -0.20309886862296195
0.1391021873457992 0.1851841360904081 -0.20086934198397727
0.13782393593626857 0.18936075275910927 -0.1961162440921697
0.13549294729071498 0.18989141291154457 -0.20119388927477927
0.13515802879172206 0.1825741679049833 -0.20528424312132926
0.1343358721240127 0.19365121429933144 -0.20143436421412558
0.13610404391127467 0.18984039133561684 -0.20656350780982108
0.12488212842779994 0.19769908493531776 -0.22360748578566642
0.12358066100912929 0.20299859350694252 -0.21801859666365714
0.12227886576491237 0.20471699541581703 -0.2225190751697454
0.1291023458941543 0.20657612389100624 -0.21937411059397788
0.1251762475474441 0.21309556072724892 -0.2146164678480062
0.12319773096876979 0.211429014859329 -0.21979004670638175
0.1235527660353744 0.20735873287690712 -0.2252237551357183
0.1232199933035934 0.21621485060227943 -0.22128272582549185
0.12252211232024074 0.2112744600154264 -0.22613640655535788
0.11919295449095607 0.20826192205918861 -0.22654051114577384
0.11698948998289943 0.21173287933839394 -0.21995427240389914
0.11580457944708705 0.21386225527299477 -0.22497146357554526
0.12328439612227321 0.21773268288148476 -0.22290872563380332
0.11823409457045436 0.22251571720613075 -0.21761555005568595
0.11848368902045131 0.22070695465577675 -0.22284925509947867
0.1203062798483932 0.21556551760209633 -0.22798722018260092
0.11903828043776393 0.22461773460877968 -0.22362049449938864
0.11875727433997035 0.22042544191850258 -0.22830103863734336
0.12043326754408717 0.19684053963197304 -0.22640628148573966
0.11949181217985988 0.19984652107728554 -0.22048348714369864
0.11985692043143154 0.20450110739244057 -0.2233534805919561
0.12290089983778835 0.20574457949174477 -0.22239393521803946
0.12130546231108547 0.20920272177232338 -0.21800143052596183
0.12089475650626064 0.21083106106294228 -0.22165105272788138
0.118345912884053 0.20269472902787758 -0.22609335710066886
0.11782318014937282 0.21262617414964272 -0.2222809695150289
0.11994999308424831 0.21004875010026527 -0.22637986172694297
0.12498029727774501 0.14844901865495277 -0.22366956402319998
0.124830630014714 0.15210630005372597 -0.21493919719714255
0.12128859419661403 0.1504040510035856 -0.21892592836875052
0.13001507181959987 0.15445853775514198 -0.21475795437354178
0.12761723656493068 0.16483040159715248 -0.2097016923572454
0.12377679009276271 0.15848143404496742 -0.21730059911269278
0.12594493884878993 0.1528127343036039 -0.22225307454127402
0.12827279825049281 0.17033882444871498 -0.2186917566205892
0.12405886907416225 0.16021342581285072 -0.22471783091086478
0.12289976734953761 0.14313496655000282 -0.21860462953108878
0.12167325277167201 0.14079143112672401 -0.20743741621035666
0.12550571222144008 0.15286411350740028 -0.20893158544558615
0.12216731567221523 0.1590952426768644 -0.20339818824786277
0.11773496527510524 0.15620245045198036 -0.21185963381785483
0.12062269110518337 0.1502906829692228 -0.21560437013167472
0.12131455201941371 0.1683827192164762 -0.21179758538264365
0.12087320942717433 0.1594059616900785 -0.21799102951544852
0.12174012918311 0.1385014206744535 -0.22179930438059897
0.1211031343443954 0.13762186473382546 -0.21424894560832114
0.12021326680022121 0.1399677545405729 -0.21543904174822898
0.12421944398718715 0.14584727591050697 -0.21154977907198996
0.12394779581862331 0.1505338699199064 -0.20584661294478507
0.12006145376997829 0.1499021798945768 -0.21273385514277549
0.12076154012518764 0.13914068048966957 -0.21762812663573355
0.12234881181555629 0.15477181976808144 -0.21344231595057578
0.12198340554076076 0.14859686797631813 -0.21914363433379264
0.1486212875350082 0.22539980715287758 -0.20382600058573813
0.14592548866110683 0.22725327318681313 -0.2007941507245931
0.1425581838591659 0.22746206825746132 -0.20401590098399253
0.15237077731924892 0.22925253218186928 -0.20208988119620414
0.14905395765143276 0.23054964846147133 -0.19844711352843375
0.1444616879923904 0.2303182036258085 -0.20195265640277
0.15406807918387294 0.22703762358201576 -0.2057854883815679
0.1506734754546249 0.22964520758164955 -0.2016498946096334
0.14716848392325282 0.22867812222016884 -0.20608981479662986
0.14417525787192226 0.2300357372142179 -0.20508534242171378
0.14158665795164943 0.23152954882157875 -0.2018555157329473
0.13867175240355373 0.23160053795350624 -0.20536028374690146
0.1490739252074325 0.23311592644227577 -0.20433669318217368
0.1457317735655868 0.23400463169587685 -0.20018899966734977
0.14146795530157924 0.23366029566300942 -0.2040384911443624
0.15012570876913905 0.23133315151704384 -0.20702513088244529
0.14611392874556423 0.23405285185350014 -0.20303173889178366
0.1438251401885116 0.2329681069232328 -0.20770694841403098
0.14024561304884792 0.22717304533494545 -0.20207195509928794
0.13917579908209682 0.2282177955485685 -0.20013161529559226
0.13827308673697353 0.2288203985072477 -0.20250548948306174
0.142898496578511 0.22902037209046913 -0.20087321628588767
0.14142143387633205 0.23021705454362465 -0.1986669205572042
0.13942539353209377 0.22993029659761025 -0.2010053746845159
0.14230519194441676 0.2299742252208097 -0.2035279028560552
0.1394439603789413 0.23261846607698036 -0.200638940229598
0.1396558846934402 0.2312547714091642 -0.20404513706225486
0.11744194884138942 0.1816113740779264 -0.20258027841109366
0.11569755930739284 0.19289495056642128 -0.19406766225356192
0.11319163102942348 0.1865385324336393 -0.2015033714916143
0.13428741354781032 0.1814910323001249 -0.20035936464327903
0.1262370910151565 0.1994811446048124 -0.19336854447383017
0.12240826744871974 0.18837554758561684 -0.20113441874045462
0.1266188289626205 0.1864123494006498 -0.20839827288645835
0.1229981448157394 0.20483686035646034 -0.20225243796366782
0.11795091290312648 0.19298799341691567 -0.20936997760790915
0.11131173033553005 0.18400205677522255 -0.2006316833640966
0.10765435952978969 0.19028873747361733 -0.18977885474223227
0.123755749653157 0.1951885969020231 -0.19677249123114676
0.1134010817511642 0.20569778984559609 -0.19033304382819266
0.11304303664999843 0.19834579533113075 -0.19843482007044883
0.11641406674223781 0.19753046339524818 -0.20558755625743003
0.11483943123656154 0.2139341384745939 -0.19960439731139273
0.11037045378523708 0.2031269819117887 -0.20704184998530478
0.11434813995200038 0.1722812206126554 -0.2040298037673864
0.11201110143500209 0.1794390827990873 -0.19382447530287833
0.10836535353499294 0.18026746815217567 -0.20240852762717337
0.12171360511618495 0.18683744972718788 -0.19890319336909384
0.11482622880774379 0.19787205761445595 -0.193046366467658
0.11260771412688136 0.19207151239884926 -0.20035929013747306
0.1158979501231277 0.18716175859941078 -0.20659171570796103
0.11498325724440456 0.2022008449412687 -0.20118010570067496
0.11196595091658473 0.19279856985581947 -0.2076751791383657
0.130074348638829 0.13989816611779762 -0.20481558670062155
0.12953391332465053 0.14175553625596596 -0.2005410694028768
0.12829514999228359 0.1383677274562223 -0.20165023733634085
0.1344163383944595 0.14060966676248146 -0.19852822054881186
0.13223594088393092 0.14506478613389565 -0.19477558661955924
0.12756770510512233 0.14350296562684609 -0.2006321602012548
0.13125681538420558 0.14215065544618202 -0.20232992400187583
0.1311373676760757 0.1536795646525724 -0.20034529794711203
0.12976345081168056 0.1465662867404325 -0.20567398299235434
0.13285374302702785 0.15402044361604286 -0.20186019469756217
0.12714531678992153 0.1372514516688688 -0.20137915541190238
0.12636273760634303 0.13715590542329384 -0.19713317383784384
0.1262010600073898 0.1352939159251554 -0.19895662893313498
0.13142987747031093 0.13842721289170815 -0.19712758590239615
0.1284494068129623 0.14157290762437416 -0.19254947234648795
0.12418329377013088 0.14088965958131386 -0.19859117795485587
0.1261518861754501 0.14100547140611244 -0.19860244323271842
0.12606385011511684 0.1503168494082792 -0.19661346603888602
0.12677326459723354 0.14508827036393715 -0.20118962754267783
0.12912350554304958 0.15680028503907753 -0.19707608748931021
0.12598582763510585 0.13454659288896156 -0.20389327932852835
0.12560218233900905 0.13572980469239784 -0.20149618913191886
0.1265742446883285 0.1310931891776426 -0.2000578694488439
0.1264105107291305 0.13597352808488442 -0.1979645245220098
0.12513151426154018 0.13884891575349403 -0.1949437760259542
0.12377506155806423 0.13734374946130348 -0.19857860137480826
0.12331458587485195 0.13485817616952492 -0.20036685992735953
0.12410947341757655 0.14287884539140297 -0.1980921529676351
0.12497338313895107 0.13967739051354958 -0.20309821297186942
0.128065493295964 0.15016867226136757 -0.19986576367873282
0.12598561901884914 0.1346591264582975 -0.20430286754626364
0.12574723024206996 0.13589881366265846 -0.20226331581133933
0.12678876180487514 0.1310815662719114 -0.20047887195605368
0.1262649859889114 0.13586218660844399 -0.19821997512835593
0.12526043910818935 0.13865707820428444 -0.19557990659731955
0.12447565455275417 0.13691462582124306 -0.19854176570433707
0.12331467528181911 0.1341746897078855 -0.20089184273737998
0.12415888566809535 0.14234985416902138 -0.19855262865084738
0.12516355175810695 0.13888041680825783 -0.2032825701381597
0.12801435251074672 0.14904655521882607 -0.20037472774046988
0.12266334552603603 0.24383802717698647 -0.2119652830507192
0.11943563480215907 0.24654515093339516 -0.20779511858481498
0.11922320384817958 0.24728734797013832 -0.2114448450948629
0.12665697593527675 0.2466770560122831 -0.20989552666205497
0.1224568154318893 0.24945862597001625 -0.2054345660354528
0.12146034498053432 0.24905271833909584 -0.20895897377986045
0.1238208975298965 0.24795235699189735 -0.21280585755366416
0.11910587210493923 0.25162549322618083 -0.2092044108058843
0.12034010548430324 0.24956078833116127 -0.21281113256472678
0.12207501787978053 0.24467636650575234 -0.21307682026881308
0.11903807182150722 0.24691666668428017 -0.2091087751533422
0.11837196011381984 0.24790449446214272 -0.2124693297292623
0.12605213780241847 0.24744327372087074 -0.2113135360624227
0.12203085083800197 0.24996621912492348 -0.20688252676982016
0.12055521864729762 0.24972428387178017 -0.21031112004775138
0.1231187548144424 0.2489740998126371 -0.21346049536723227
0.1189589168532455 0.25217892235292033 -0.20990813304442496
0.12003281373816371 0.2503299862719877 -0.21349928308981986
0.11858766932326198 0.2447379381038053 -0.21185640026587577
0.11757170815306545 0.24560131138337685 -0.20975065757292838
0.11646213788824916 0.24754114454759193 -0.2115172051336202
0.12067308683234096 0.2473353297091825 -0.21119346250552268
0.11851018328505397 0.24858434504045082 -0.20817232657927603
0.11773648519354701 0.24942351883424355 -0.210254897966567
0.11837300319510341 0.24866814917100502 -0.21212786962050528
0.11668884415465236 0.2505725175715788 -0.20949785937327475
0.11743947524863124 0.249895229992996 -0.21181792546767325
0.11894097585516811 0.24200750893128944 -0.2114353381540212
0.11875393647986293 0.24241967504991127 -0.2108558021928701
0.12012597579794765 0.24440701311601234 -0.21158282984751792
0.11880290169554591 0.2413580567218168 -0.21171080101985068
0.1186127926810348 0.2417584211207731 -0.21117964912909598
0.1201280321581924 0.24392212933076454 -0.2119902722980413
0.11738997359114528 0.24259246891511513 -0.21491854418772788
0.11547135968047023 0.24390257900727821 -0.21325062741297812
0.1179353560908401 0.2439398915149076 -0.21481085349577994
0.11886828799086452 0.24198092525971962 -0.21155030061263175
0.11859881539183498 0.24253435438645912 -0.2107414506818685
0.11938282508688808 0.24449099606050087 -0.21149558354872794
0.11886673827010036 0.24197264021409584 -0.21155344475764365
0.11859711665945888 0.24252600973619057 -0.2107450865651998
0.11938243765669704 0.244484856782089 -0.21149999429244132
0.1169840063555801 0.24321974819673134 -0.21404906143206687
0.11516949195700527 0.24470640724671913 -0.21231471528071494
0.11718919534521938 0.24462009972108437 -0.21400216747778983
0.13479044694739223 0.16155244415772987 -0.20972379077929587
0.1346691514952743 0.1662915498591764 -0.20150371421832175
0.1305565800173843 0.16503317659867836 -0.20761591722029776
0.1410696472628677 0.16687269514573647 -0.20256703127879233
0.13810139555769801 0.17810465401185585 -0.19763988782424063
0.13388350267248988 0.17132009571565224 -0.2052689098264608
0.13658579845267177 0.16693325346482826 -0.21056253243941397
0.13793539662199855 0.18461580580247475 -0.206825783147994
0.1338679756625259 0.17386294907105995 -0.21275744368094535
0.13279533047514797 0.15558518475068642 -0.2042201512004766
0.13145905394392848 0.15481884783280922 -0.1929753773357305
0.1278456117613876 0.15893663471711708 -0.2009421490575704
0.1357508267863357 0.1668975502826078 -0.19583209384936423
0.13217782635527492 0.17390121525300575 -0.19038758207816214
0.12802129645186305 0.17006327217591835 -0.19876607288378806
0.130795624445256 0.16612704103959633 -0.20306113888281913
0.13097247142630458 0.18392981594575478 -0.1990948968078527
0.12979837913351894 0.17445822065843178 -0.20526873101252646
0.13171684403258205 0.14940847462190224 -0.207680737271491
0.13182273168402553 0.15013189619554115 -0.1992903106357488
0.13004725832777858 0.15400333708299233 -0.20272373188990683
0.13382696766692043 0.15888507669938637 -0.1979165576841268
0.1336943175299728 0.16506518429292275 -0.19261578251380057
0.1296168233855331 0.16367931669725014 -0.19968092967528434
0.12949582595663905 0.1552705914355619 -0.2042494170810613
0.1310065950854385 0.17141552275193764 -0.2004599176790151
0.13071268458205104 0.1637947112895353 -0.2061022721673879
0.1254959668620193 0.22637207811845375 -0.20701931942957968
0.12531658668356777 0.22645886248124672 -0.20675755073088736
0.12341057915526271 0.22631718224061562 -0.20705235530394644
0.12538563866454006 0.22628338640702797 -0.20708182980078788
0.1252244975073898 0.2263625413752897 -0.20684493114012809
0.1234287585719192 0.22623302048219276 -0.20717201162833304
0.12734716791945339 0.22763349121583534 -0.20820154775637717
0.12685966152983547 0.2278506309367521 -0.20702696372527213
0.12391969222861171 0.22786231344712807 -0.20823745955485434
0.12530251998740077 0.2255278975344999 -0.2059623055602941
0.1252121295435989 0.22558195894731117 -0.20583257605094046
0.12343617935019374 0.22553457325471474 -0.20614336956996054
0.1250655915244186 0.22533299034608437 -0.206120958223525
0.1250149573786819 0.22536470001710487 -0.20604579676646323
0.12346446175413966 0.22535391157640053 -0.2064420931484136
0.12636556882696987 0.22740550344956947 -0.20786786605376334
0.1259159709914291 0.22765572374833656 -0.20665981401461692
0.12333219904738307 0.2275958210803373 -0.20780298639792533
0.12153252620535732 0.2264177352763517 -0.20439443518179984
0.12187051434355617 0.2262058407641752 -0.20494194854754538
0.12161364812689662 0.22629924124253822 -0.20495999385375113
0.12074264545279384 0.22586609428895546 -0.2045972399856481
0.12113749642210841 0.22559632366670204 -0.20526855219859214
0.12153052944975734 0.2259076387263639 -0.2058198951627645
0.12285691160994411 0.22727932041657997 -0.20655711521166892
0.12247171659308315 0.22740431135667397 -0.20588008095282645
0.12145769257384181 0.22720594709886147 -0.20575503040808768
0.11811881918745876 0.22812123602403236 -0.19857037593382926
0.11913707513647914 0.22634370630754067 -0.19996575047034354
0.11971494216757655 0.22748596972001625 -0.19969276119727225
0.11506911773520351 0.22761674231065346 -0.2020933829690847
0.11611175198393703 0.22502179449571205 -0.20397012461680503
0.11627134342032314 0.2270668298579557 -0.20477274586218924
0.11503103036719203 0.22743637865556313 -0.20649458993929953
0.11518868465262294 0.22671689098847939 -0.20685974289435477
0.11620464582281947 0.2274826914645536 -0.20687991906661124
0.13658269901114345 0.24513269966615273 -0.20533349145907492
0.13169341940718532 0.24754185980332924 -0.20068504442233176
0.13029381294089198 0.246554747281204 -0.2047672771360311
0.1433826353056991 0.25001330679429606 -0.20389839042681784
0.1388837661250198 0.2504094392634733 -0.19881485928553672
0.13494410772162319 0.249894693551193 -0.20344494809168906
0.14327191967802883 0.24556125706208778 -0.20686564375418753
0.13790437240439296 0.24787725513948036 -0.20307998885172934
0.13514226336317897 0.2471892983294828 -0.2077703826572332
0.13422163982230068 0.2496696860171659 -0.2075082712318334
0.12979781288939357 0.25166560715211467 -0.20290363360900016
0.12739395756560207 0.2510904819346769 -0.20692395199793906
0.14022546667891383 0.2552731186725004 -0.2066993020917806
0.13573452491598964 0.25525780027879313 -0.20115274716872306
0.13054376501875758 0.25510759657395915 -0.20604311455744834
0.14072236080008388 0.250439778027664 -0.2091191761638555
0.13590553064185024 0.2524790317393644 -0.205494155779067
0.13300272483664394 0.2519484311915739 -0.2104524873639974
0.12874140996771694 0.24725820129884316 -0.2043753616954717
0.12548842687445522 0.24909074610246254 -0.20075524379271598
0.12524076957541347 0.24873884027970863 -0.20343304206389518
0.13180237669783473 0.25096185511125163 -0.20300941695231528
0.12872981686430812 0.2519111782885893 -0.19929388691443534
0.12650602717238307 0.25143797701371745 -0.20261696506995291
0.13149988312559963 0.24925126141084267 -0.20508274961966605
0.12910270352202297 0.250683382210861 -0.20231694509047599
0.12711596150236965 0.2503391653872831 -0.2060216717864904
0.12941038269835353 0.24645526712907387 -0.2049065433885488
0.12771609086829067 0.2476894409037931 -0.2026577048446569
0.12844475765066982 0.24735362833512856 -0.20459667374152274
0.13122266192274928 0.248254969773422 -0.20358422924536795
0.12963214177924037 0.24907888477815224 -0.20131362010497184
0.12949102778273464 0.24862714117539955 -0.2036623560335073
0.13220178742247463 0.2477146536685331 -0.2071106039430532
0.1295729841693008 0.249229148087631 -0.20450987447756858
0.12846260924178005 0.2488251478053434 -0.20734209348219962
0.1466078426344955 0.19425757235063149 -0.20303124715346427
0.1463668312533462 0.20652444666398598 -0.1960382812168035
0.14448290724593044 0.20290572947038246 -0.20247331787604422
0.15229919214087367 0.20815749472154213 -0.19840767015475363
0.14960834045248866 0.2215002924777372 -0.19326711226958365
0.14675956625777126 0.21377284830583168 -0.19970411588210196
0.14778020639258266 0.20812238758576942 -0.20732069541472525
0.14733233709174037 0.22448094194902016 -0.20252684284705252
0.14475810189085841 0.2141620070315702 -0.20834433068293662
0.1376049186690414 0.20737375324739052 -0.20471561481017203
0.1368950273497665 0.2160434872485502 -0.19594517876166434
0.13361057300406337 0.21519120043290688 -0.20385310579794974
0.14316400546866298 0.22310228651536537 -0.1995720468904409
0.13907998461562038 0.23310674732698036 -0.19420871664542289
0.13768368620711208 0.22718341654313637 -0.20154676367301078
0.14005282182532192 0.21926398581040932 -0.20795062710303397
0.13893738050299526 0.23798693722261025 -0.20265785385626883
0.13700797815161586 0.22785533970368935 -0.20871140588778586
0.13923877138930202 0.1944995076037748 -0.2030975126172933
0.13891529698210597 0.20394577091706825 -0.19581628371733756
0.13846438784438014 0.20417906349671913 -0.2008184098150167
0.14188378710585475 0.20932896440995766 -0.19706805576342673
0.14083537120657802 0.2191453725673063 -0.19235672582644553
0.13916605372267604 0.21573783463014198 -0.1981137000467214
0.13754054565268398 0.2067614943362577 -0.2046371899988088
0.13754522461729884 0.2236464769221647 -0.2004582487489614
0.13766625184851528 0.21504904335511757 -0.2053260557796392
