ply
format ascii 1.0
element vertex 737
property float x
property float y
property float z
element face 0
property list uchar int vertex_indices
end_header
-0.181479409723447 0.3035684260017097 0.18262473632257575
-0.18254762926595036 0.32194441877667307 0.18801669169824714
-0.1839307699491245 0.3151612313872993 0.18352089215677375
-0.17426642814175908 0.3146203788406074 0.18652741004388923
-0.17544838824765507 0.329084220755738 0.19038743664186591
-0.17869937458531682 0.3192878993636787 0.18566132475298042
-0.17666240075127904 0.31788683258358835 0.17829338599603767
-0.17621283271806065 0.33342701517407297 0.1818822710649311
-0.18202757874028508 0.32293963753048777 0.1780924885408222
-0.1790144894410831 0.3027858170158088 0.18901045013826484
-0.1834407750655872 0.3124291332847297 0.1958796768323719
-0.18648101428048436 0.3117756279594123 0.1878939657346546
-0.16805549004571263 0.31675380789105295 0.18875143815439338
-0.17503495553033177 0.3218324216491401 0.19459033895891303
-0.17624232211606328 0.31868148170773386 0.18713522840898628
-0.16994008460538212 0.3246664436942756 0.18451083589952583
-0.1752138588716251 0.33661198936764597 0.19042325903337592
-0.17957654634015385 0.32981747709576487 0.18443519760530586
-0.19018557706372563 0.2676222952491462 0.15177170325677986
-0.19145834484593693 0.2692794831878364 0.1530351429120838
-0.19217748978631322 0.2681621941215217 0.15092621137064094
-0.18527236619489018 0.2669338019973457 0.15282602001588935
-0.18569120803372685 0.26799571834866404 0.1547846286432087
-0.188897639899419 0.26731026493374704 0.15226308394830818
-0.18638923802869145 0.2667314442283332 0.15069217373293037
-0.18749773540990178 0.27068394743267893 0.1532606272832691
-0.18821719327466313 0.2680434616691291 0.15066317607324714
-0.18975812235371892 0.2646619113570869 0.15527586032312507
-0.1917851571132404 0.2654972108489692 0.15767566253107185
-0.1940947923948032 0.2646327646857917 0.15314916659753913
-0.1860669855167133 0.2663515242225349 0.15538291026514167
-0.18740546741978947 0.2659763725883186 0.15808836509149665
-0.19177541175381962 0.266026678908509 0.15357229997079963
-0.18733331599728886 0.26727509819332956 0.15552032877367133
-0.1894561354209644 0.27001643501583933 0.15810249139230842
-0.19079095163838689 0.26380360447232126 0.1525149433748066
-0.1909195486594898 0.2639433177596748 0.1527224867479145
-0.19009089508549992 0.2629945906287849 0.15071834017198676
-0.19014653602139775 0.26398313366238474 0.15324244786661262
-0.19026017227666203 0.26405388437573313 0.15345484901826972
-0.189471632628606 0.2630299361831367 0.15141672779482002
-0.19174540081517522 0.26406449400250315 0.15502817322176093
-0.1929029528190357 0.2660744222289741 0.15627551962297553
-0.19092324414746586 0.2647135289794624 0.15379125763338203
-0.19070109763638798 0.2660792502052009 0.15259272743623847
-0.1920690242339832 0.2672795685416877 0.15460250665109748
-0.19386103787915532 0.26650852285687326 0.1511336653367817
-0.1861565712978107 0.26625937544171213 0.15300143648546333
-0.1873647276450855 0.26656616054837107 0.15544475008409614
-0.19111801722543065 0.2663357885963142 0.15183881808679695
-0.1882061068107349 0.2663662465697944 0.15221513201158637
-0.18961679974095647 0.26984948240582346 0.15468684722345466
-0.19019477108018223 0.26734632574383616 0.15134719897668952
-0.2073069814731342 0.33057707868878244 0.15040586282175178
-0.2080665532638294 0.33264446579281687 0.15151570130746955
-0.206268906979726 0.3330242069846809 0.14996490765970344
-0.20427116790311162 0.34275871836010813 0.15167654444139594
-0.2037976984073383 0.33174544893566965 0.1521734087602436
-0.20577207246320073 0.33394027077023386 0.153465786470586
-0.20381169059769932 0.3327623637801826 0.15169391919534797
-0.2056445185233814 0.33148414217297434 0.14754084636133308
-0.20607966223256413 0.33639067732159494 0.14951006461542243
-0.20673728027837102 0.3333744438773811 0.14684460450571174
-0.20882260838048283 0.33316135727230906 0.14726109196107978
-0.20905697384373967 0.3340353997832954 0.14919159699838752
-0.20775049963490788 0.3350703152305305 0.1471348493234455
-0.2061892155696613 0.3362349899894416 0.14785368133943672
-0.20754471459882085 0.3368276985770881 0.15030471373956794
-0.2061252895881397 0.3360924156791389 0.14777387072008247
-0.20476183333890263 0.33522254549328684 0.14693511415880317
-0.20599973240392033 0.33795607410733103 0.14867446710031623
-0.2074171904613239 0.337200048793 0.14588979770105476
-0.1619733277847034 0.25730508886639475 0.18131119896333808
-0.16166669168965642 0.25721091352764963 0.18095470358293647
-0.16488944032685582 0.2566227348930061 0.1808710782663166
-0.1605138186504108 0.25704473577801584 0.1817698567048847
-0.16018220820920293 0.25694978557888865 0.18143362690370674
-0.1639269892265064 0.2564221652633369 0.1813147752420246
-0.15828989484803502 0.25620431028668283 0.17847973991792793
-0.15907095411317174 0.2574069532043159 0.1798215894834339
-0.1657093320180637 0.2594724329597175 0.1842739968435108
-0.16602015533940617 0.25948781095806955 0.18451095510881538
-0.16844426134126012 0.25799894653622507 0.18213571001451606
-0.1636058394004566 0.25917709194485544 0.1840395717756092
-0.16371832826630894 0.25917542301480173 0.18412856151025886
-0.1680461023141605 0.258141997683686 0.18202597786348457
-0.16238813140885655 0.2580450805312812 0.18321038175981635
-0.16276648679272954 0.25844008051220774 0.18425522138040656
-0.1669816229631168 0.25707114063565134 0.18195284296434516
-0.1649684313823444 0.2566750081664741 0.17997110773485298
-0.16541267970101659 0.25524324499432444 0.18033326555650825
-0.16725009718434636 0.2572165163642585 0.18174574662607307
-0.16526234188573186 0.2567830117828071 0.179770478500539
-0.16550262310998265 0.255328539240998 0.18013519932191963
-0.16777616777913396 0.2547564538604438 0.1824577539102375
-0.1677390042831165 0.2547025116569221 0.18239466239374275
-0.16209529378907506 0.2570118936187446 0.18135804821413154
-0.16186745503442113 0.2569114001876533 0.1810713498727619
-0.16493727305428807 0.25628763758007883 0.18079928447168464
-0.16049999037282292 0.25665623270336985 0.1818544058934986
-0.16024926343457524 0.2565843495017707 0.18158764530580634
-0.16387473085419957 0.2560123237258613 0.1812878935472309
-0.1579801891137821 0.2559266122466743 0.17863328148286933
-0.1588278416682941 0.25712919555966257 0.18001941729944343
-0.16350542047517125 0.25712317549054026 0.18169669200342292
-0.16360914745824162 0.2571398051864326 0.18183619667451972
-0.1653682891418201 0.25577825628582834 0.18051169206064338
-0.16131027081506077 0.2565396460181892 0.18209845711153144
-0.16142296829716984 0.2565501960403144 0.18224088241022224
-0.16403079071538273 0.255262735713166 0.1810517697469532
-0.15971368589894597 0.25535703026120066 0.18078044940393562
-0.160650432496236 0.2564275296813667 0.1822884171144306
-0.16595459023015324 0.25985843263928293 0.18566418577592964
-0.16604639628426854 0.25986421428982615 0.1857352345125019
-0.16821169891850773 0.2581560047752082 0.18334633995454902
-0.16467641332642857 0.25980002008740305 0.18558526922624702
-0.16457492151753728 0.2598001989013374 0.18550337244432563
-0.16788001397149388 0.25840759598080515 0.18323943902414436
-0.16343899109856908 0.2585576208717048 0.18552614141862983
-0.1637378189851505 0.2588598760253608 0.1863303570882618
-0.15688426831261937 0.3315109046584785 0.20679662515085334
-0.1566548500348789 0.33300131880108713 0.20732901383798713
-0.15638150313393895 0.3337408336288154 0.20662293721597785
-0.15664449372784917 0.33240211330716013 0.20852253724496955
-0.1566417221118671 0.33380610071484446 0.2095723538533985
-0.15530969241158787 0.33332437597576975 0.20827136327188606
-0.15800587871568028 0.3333303364402473 0.2062042741910755
-0.1576464031030399 0.3372918399459541 0.20774487544458503
-0.15719279685513798 0.33450025640789866 0.20572415877740974
-0.15433201232449834 0.33300417982403635 0.20769194652002448
-0.15489020982281987 0.33424479090039133 0.20933590222757453
-0.15384070613877598 0.33374315820996164 0.20715562392633552
-0.1526134316016895 0.3345977100021064 0.20840142060678596
-0.15400154927270238 0.3354452284461677 0.21032676984232063
-0.15145333149926488 0.3340551885253608 0.20779887725275153
-0.15407674053208653 0.3395301731712043 0.20962838221948737
-0.15309123733537022 0.34186590038601755 0.21116963912408943
-0.15424741843240086 0.34050423227612375 0.20836237956445808
-0.15174226501481358 0.33021664940182566 0.20673946429651374
-0.15174184778230015 0.3302766712791145 0.20680002261560554
-0.1525294039537174 0.33095419727627634 0.20762912322443122
-0.1534890089322788 0.3322295578605354 0.20854983617227668
-0.1535032991458637 0.33227742039029 0.2086963443891346
-0.15276151934163396 0.3322025569564521 0.20879725505273933
-0.15794612505929295 0.3370038303023994 0.21108029176157111
-0.15725050905244176 0.3383109601623237 0.21191064406793708
-0.1559984836866123 0.33790898643795847 0.2102585225240528
-0.18375536838071171 0.3062890204078376 0.14649684120576972
-0.18455579915540044 0.31593460165326 0.14858693767946357
-0.1843769256164295 0.3124896916038215 0.14535123993318672
-0.17891071775452916 0.3086975844985664 0.14975971867006416
-0.1803202334930164 0.31676549040142893 0.15228251506250495
-0.1810824576904041 0.31131053291622995 0.14883507181566352
-0.18063733020322148 0.31258356891934275 0.143302509082967
-0.17983064094083134 0.3242380651122749 0.14619887758653755
-0.1824518744041187 0.31521678291622995 0.14275551725786323
-0.1844781343032581 0.30851894937817453 0.1485318629876911
-0.18606546559827153 0.31236601196591257 0.15251217175882453
-0.18637226560609166 0.31250441395108103 0.1462672739164173
-0.1765382293750507 0.3120401533729255 0.14879269291322822
-0.18001222649113957 0.31473017059628366 0.1531860618726551
-0.18017475345628087 0.31285918079678415 0.14739201356332893
-0.17581470349328343 0.3168687852508247 0.14653743196886176
-0.17863893547551457 0.3239028485900581 0.15009645511072273
-0.1813508127023441 0.31988013111416697 0.14564523984354133
-0.18295365610616032 0.30348283373181223 0.14511410285394782
-0.18543803730504338 0.30565607868496775 0.14903048564355964
-0.18487587609784428 0.30817139469448923 0.1457281201021015
-0.18347792366044346 0.31017208420102 0.14795459200304145
-0.18570964077012364 0.3115189107543647 0.1508342712060749
-0.1832598749686939 0.3109805616027534 0.1478120772973835
-0.18391777613656346 0.3138910564071357 0.14719695736330146
-0.18433612623708073 0.31779015384976267 0.1491698413030445
-0.1859802607585651 0.3163639339095771 0.1467955200807392
-0.15711316504971806 0.2905288966781318 0.19532812525194282
-0.15649320223824803 0.2942326696998298 0.19736985255640144
-0.15801231601731602 0.2955766948348701 0.1948636262552082
-0.1546055231382114 0.29299050890271067 0.19839314509790534
-0.15472438970105473 0.29678291403118967 0.20002768327158088
-0.15559874513642613 0.29570877872769236 0.19734344769876594
-0.15521509984032933 0.2936143907195747 0.19461576033990974
-0.15504287221925084 0.30255329929654 0.1974389939443409
-0.15660803058640782 0.29701882921521067 0.19432143260400886
-0.15421286263959233 0.28460914217297434 0.1979154138700306
-0.15720942655103032 0.2872138651496589 0.20308122922342414
-0.16024512091176335 0.28865635715786814 0.1974353580610096
-0.15152029731767003 0.28991097532574533 0.19994370032709236
-0.15428569951550786 0.2919606002456367 0.20305238057535285
-0.15494859257237736 0.2906885775214851 0.19731698323648567
-0.15095901527898137 0.2982617648727119 0.2002109675542652
-0.15285059848325078 0.3039517434722602 0.20389340211313361
-0.1543345306207401 0.3013064893371284 0.1996028213636219
-0.152765289335416 0.28004402242962717 0.1937432079450428
-0.1526400748779041 0.282074156630677 0.19599578668039436
-0.15625408330457036 0.28538322769467234 0.19444201280038947
-0.15413221755521123 0.2851759823447883 0.19749210168283576
-0.15485249498383824 0.28709656320874094 0.19931189109247321
-0.15740138330952946 0.2883389624244392 0.19668803502481574
-0.15626435020463292 0.2931149037963569 0.2007201104299366
-0.15764838495747868 0.2982856663352668 0.20268056680124397
-0.15862692931191746 0.2971394094115913 0.20023039866846198
-0.1557119194556934 0.2878994973785102 0.19543007899683112
-0.15566803553597752 0.2919901045448005 0.19823733855646247
-0.1578571055223209 0.2931314142829597 0.19492910195749397
-0.1526296440650684 0.2907216580993354 0.1973241953985035
-0.1534017924358112 0.29444450460736155 0.1995103149549305
-0.15474566855923955 0.29332137428585886 0.19590429355066413
-0.15328784325616185 0.2942738565093696 0.1964197545186817
-0.15381358602540318 0.3030704291946113 0.19937596608560676
-0.15550501683251683 0.2979386480933845 0.19604084779184455
-0.18432764747636143 0.28324944101635813 0.16881606866281623
-0.18511648514764134 0.2883694800025642 0.17198429395120735
-0.18630051651494328 0.28713846527401804 0.16823978115480537
-0.17633557358281438 0.283580127585572 0.1695766537324726
-0.1783273819972736 0.2887806328422248 0.17241982509058112
-0.18111315408246342 0.2862585815078437 0.16900540281694526
-0.17842520812051121 0.28605825029675364 0.16684440661829109
-0.17932248154179875 0.2956439884788215 0.1708201556340992
-0.1814493838836414 0.2887930902129829 0.167040803922826
-0.18456421831147496 0.2800062330848396 0.17516804624956245
-0.18990185895459477 0.28296816669766306 0.18008685995500678
-0.1929264370490772 0.2828653486854255 0.17314023662965888
-0.17470440307156865 0.2828622492438972 0.17368892718713874
-0.18054661193387334 0.2845493587142646 0.17795599390428657
-0.18242359200017277 0.2833045157081306 0.17162767936151618
-0.1754279736568195 0.28805542312924265 0.17252508689325446
-0.1781789068271381 0.29269576393429636 0.17681018401544685
-0.18175342717664067 0.27521044336621164 0.16914374519746894
-0.18241703548924748 0.2769863637572944 0.17249820519846076
-0.18559575119511906 0.27893668733898996 0.16846550394456977
-0.1814225319911701 0.279604616988343 0.17127368737619514
-0.18257421293752019 0.2812540563232124 0.17349312592905158
-0.18248282411591832 0.28020274959866404 0.16943550993364448
-0.18171322384373967 0.28684342228237986 0.17213920642297859
-0.1833385829021198 0.29120022379223703 0.17526895691316718
-0.1836072061349613 0.2889580162650764 0.17169413854044074
-0.18408218064801518 0.32520550810162424 0.15467641641061897
-0.18691968956487004 0.33715695463482737 0.15828699757021064
-0.18533806541459386 0.33139962278668283 0.15342385460298652
-0.17076054254071538 0.3245066436416328 0.15660847116869087
-0.1761013273288471 0.3331440719253242 0.16182927180688972
-0.18122491279141728 0.32910394989315866 0.15578139711778755
-0.17567595878140752 0.3301845821029365 0.1501384167806446
-0.17839796879784886 0.3423342140800178 0.1542711346284687
-0.18248274961011235 0.33408469282452463 0.14954085041444892
-0.18731692471997563 0.32988030039135813 0.15912265468996162
-0.19142675438420598 0.33586997114483713 0.16433356095712776
-0.191714942841695 0.3340489300376594 0.15687985111635322
-0.17103843429581944 0.3333899410850227 0.15780661393564338
-0.17903831639783208 0.3360728057510078 0.1649275808469593
-0.1841913763572437 0.33559596859280466 0.15657807279985542
-0.17599745133416478 0.3390758665687263 0.15417368103426093
-0.1802562926103336 0.3464998634940803 0.15928913046281928
-0.18320721426503483 0.3418435486442268 0.15283376861971015
-0.16275233068959538 0.33433360182110666 0.1894855289594471
-0.16257312932507817 0.3376958402282417 0.1909765093461811
-0.16515703537957493 0.336888495314759 0.18787808109682197
-0.1573715362836582 0.3354919584876716 0.19172940541666145
-0.15580576696889226 0.3368824752456367 0.1942346482412159
-0.16159924903409306 0.3364872368461311 0.1903964667455494
-0.15772016385094945 0.3359468015319526 0.1873541264669239
-0.1581494663049442 0.339904430735749 0.1901498823301136
-0.16218292751805607 0.3379098209029853 0.18621663142603034
-0.164067939310239 0.3364857467300117 0.19223783303659553
-0.16725815871255223 0.33949494682614206 0.19569862772386665
-0.16786168554322545 0.33859712206189035 0.19003544141214485
-0.15323810318009679 0.33742171846691965 0.1904780357019245
-0.1572518650581104 0.3383482726699531 0.19480473686617011
-0.16043767371671025 0.3378476532584846 0.18945638228815193
-0.15536519923703496 0.3369910153037727 0.18889010836046333
-0.1577946100522739 0.34014410101239084 0.1919050901071369
-0.16104504504697148 0.33899867855374216 0.186950871242696
-0.16364437380330388 0.3350215586311042 0.1899904697076618
-0.1649401191760761 0.3360296519881904 0.1921439259187519
-0.16411502697961156 0.33654249035183786 0.1891105561391651
-0.16024753489987675 0.33656990848843454 0.1898892312185108
-0.16112899818913762 0.3369408877975166 0.19168926168840522
-0.16051243284241978 0.33622116171185373 0.18890724469583625
-0.15924987235562627 0.3355445297843635 0.18861753631990547
-0.15996439793603245 0.3376941116935432 0.19066802550714607
-0.16102908590333287 0.3369575174934089 0.18735791136186714
-0.20260772147672002 0.3051529558784187 0.1678524105684101
-0.20525780358807866 0.31949073396984934 0.17274571348589057
-0.2060327831794483 0.3143440517074287 0.16799936582010383
-0.20402410665051762 0.3219714196807563 0.17035538841646308
-0.19343993106381718 0.31081617199246286 0.1704556136266529
-0.1963375810672504 0.32053578220669626 0.1747324555055439
-0.19903011658685033 0.3145673307067573 0.16967917372148628
-0.19637338855759923 0.3164431484824836 0.16314924646776313
-0.19782069364087407 0.3302056225425422 0.16763848949831123
-0.20246553459660832 0.3206812175399482 0.16287527371805305
-0.20326450505750004 0.3092665108329475 0.17330966283243293
-0.2073045674850208 0.315895322192353 0.17918036271494026
-0.21120318809048955 0.31504702888790964 0.17121596027773017
-0.18892192879216496 0.3181689413673103 0.17164231230180854
-0.19685390630261723 0.3213093312865913 0.17845950414102668
-0.19953215160863225 0.3192013534194648 0.17052240063112373
-0.19218930640713994 0.32409960352246164 0.16707862306993598
-0.19858539143101994 0.33349317632977366 0.17323324967783088
-0.2023912076045734 0.32828092895810007 0.16700918365877265
-0.1784269217540485 0.303296867240113 0.159296104206258
-0.17995800116555516 0.31096804462735056 0.16328597952287788
-0.18083789983289067 0.3089581760055244 0.159318396343404
-0.17271199861066167 0.3059305580741584 0.16097159077089424
-0.1745405350019199 0.3122029932624519 0.16459248353403205
-0.1756542030860645 0.30826503359143137 0.16084868599336738
-0.17373833098904912 0.30882984720532297 0.15656564523141975
-0.17476028242604558 0.31893503986660837 0.16073001314561958
-0.17724251785771672 0.3116437228805244 0.15677897025507087
-0.17682419755952183 0.30301970564190744 0.1657384722368061
-0.1821331087638599 0.30706930481259226 0.17112986136835212
-0.18352440038220708 0.306573394168061 0.16377464820306892
-0.16634276547925297 0.3074470790511787 0.1644003181592762
-0.17112010756032292 0.30868482910458445 0.16896150399606819
-0.17269310393826787 0.307289901602906 0.1627152650491535
-0.16759072282807652 0.3138736518508613 0.16311303664606208
-0.17007930615441624 0.31863308273617624 0.16725579787653083
-0.1537817869474155 0.3167774709350288 0.18126834322374458
-0.15374921300904576 0.3195080193168342 0.18180925537508125
-0.1556452963639957 0.320830407965821 0.18083150078218574
-0.15411855319039647 0.31869972072903513 0.18645257641237373
-0.153934643058942 0.32202291809384226 0.18705178190630073
-0.15473865011231724 0.32109016500775217 0.18566221882265205
-0.15442399719254796 0.3183512123710334 0.1817577867643177
-0.15367458799378697 0.326604071486634 0.18330455709856147
-0.15428328552739445 0.32102018915478586 0.181236782564336
-0.1517831388999683 0.31751936994854807 0.18269700695436591
-0.15221491494672124 0.3191188009864509 0.1844554631845295
-0.15476910808579747 0.32063317619625925 0.18126765777032966
-0.1514167044450504 0.3201106222755134 0.18507073213022346
-0.15227164366738621 0.3217825325614631 0.18652356554430122
-0.15240916648404423 0.32104933582608103 0.18311358381670112
-0.15136155524747197 0.32645231806103586 0.18636489797990913
-0.1519657526303989 0.33079314552609324 0.18817795206468696
-0.15234971085088078 0.32856703125302195 0.18543253232401008
-0.15029154756562535 0.31498819910351633 0.17969683696191902
-0.1503543708612186 0.3147158058768928 0.17949865151804084
-0.15381585100190465 0.3169876965171516 0.18019659210603828
-0.15191389658944432 0.31748283230130075 0.18232981254022712
-0.15200860836999242 0.31723648630444407 0.18219296027582282
-0.15378637650506322 0.3183687361365974 0.1820515780584156
-0.15585160294072453 0.3241657646781623 0.1865887432233631
-0.15603640714185063 0.32578677259747385 0.18745032836359138
-0.15436056294934575 0.3257125052100837 0.18601126362245674
-0.15328009465234105 0.316822532046479 0.18166078020494575
-0.15298903027074162 0.31921631418530344 0.18204689909380073
-0.15552894809739415 0.3208959134704292 0.18117923427980537
-0.15367586949364964 0.3188056977874458 0.18647221614282722
-0.15324178376691167 0.3217907580024421 0.18693084408205146
-0.15446269550816838 0.32118320785824656 0.18556485463541145
-0.15411549845235173 0.31967526995007395 0.18240682174127693
-0.1535093639184696 0.3276280792838752 0.18402517725389594
-0.154220909266637 0.32241338812176584 0.1818878440992176
-0.20311752000348393 0.27580917202298044 0.14505646516245002
-0.20213681498067204 0.28534400783841013 0.14990142871301765
-0.20404273310200993 0.2869071992522895 0.14616806198518867
-0.2008234564353687 0.2862585815078437 0.14943463493745918
-0.20191225448148076 0.2958139809257209 0.15225447107713813
-0.20222185590760533 0.29114473186795115 0.14873687316339607
-0.20205420294301335 0.28800428234402536 0.1428798227445423
-0.20232865252988164 0.30295521341626047 0.14602450419824714
-0.2040859017659885 0.2932174237853706 0.14289040256898994
-0.19907726386086766 0.27368766390148996 0.15044296671312446
-0.20268732347981755 0.2806737455016792 0.15754050899904365
-0.20357820430295293 0.2818428310043037 0.150500276579076
-0.19697296658055607 0.28741526924435495 0.15291572500627632
-0.19973653593556706 0.29144001327816843 0.15676418830316657
-0.19958582559125249 0.28902572714154123 0.1506894021169483
-0.1969523433734638 0.29547286354367136 0.1504108696119129
-0.20023527780072514 0.3056964310294807 0.15452466298502082
-0.20140387156503026 0.2999217542297065 0.14980945874612922
-0.15550087430970494 0.28336978279415964 0.1783780543939411
-0.15809412339227025 0.285596671927613 0.1801902442113697
-0.15563769677178685 0.28421992384259104 0.1771120517389118
-0.15105664768712346 0.2830644281989753 0.17884669591348762
-0.15316642859475438 0.285133603442353 0.18066848207872505
-0.1532138589908344 0.28367907129589914 0.1778851835862934
-0.1498263631154758 0.283873620856446 0.17641247202318305
-0.1509017650176746 0.28727627121273874 0.17902834106844062
-0.15465311744706456 0.27926683746640085 0.18211997438829536
-0.15761166849629704 0.2802037628776252 0.18488017608087653
-0.16028089859978978 0.27987283788983225 0.1794639020101368
-0.15083968678014104 0.28170150839154123 0.1817633597986042
-0.15345537701146428 0.28203010879818796 0.1842021136419117
-0.1564254317571384 0.28131151520077585 0.1793449609414875
-0.15046210625665013 0.28332102619473337 0.1815286367074787
-0.15323962309853856 0.2862079771644294 0.18487654019754524
-0.1576362107087833 0.2788670691138923 0.18008685995500678
-0.15789887347714726 0.2791146668082893 0.18050597001474494
-0.157415569214986 0.27895218454663157 0.1780540435449421
-0.15777151325242345 0.27978325210873484 0.18077267099779243
-0.1579518471051914 0.2799271973258674 0.18100047995012397
-0.15628048816220586 0.27909314953152536 0.17830232669275398
-0.15652683415906254 0.282257262099427 0.1832870631353199
-0.15796615221993748 0.2839179667121589 0.18498403717439765
-0.15517240801350896 0.2822725208884895 0.178600200905019
-0.15774098077313725 0.28429377399746775 0.18063990165155525
-0.15625718274609868 0.28298199497525095 0.1767969517843067
-0.1504406187822086 0.2823707493430793 0.17861790348451728
-0.15242143013970677 0.2840614350921333 0.18055830289285774
-0.15347124674813573 0.2827869089729011 0.17717681218546028
-0.15017890968816106 0.28367060743634104 0.17749602486055488
-0.15058419147031132 0.2865119608527839 0.1802369742528736
-0.17214743831651036 0.2692900928146064 0.16201052953165168
-0.17324876823918645 0.2709969314223945 0.16297165442865486
-0.17234408894078557 0.2705355318671882 0.1620383649007618
-0.1707890782644016 0.2685117157584846 0.164643981947118
-0.1719286445667011 0.27041387878720163 0.16577825833719367
-0.17230734267728154 0.26961404405896067 0.16485867787759895
-0.17044277527825658 0.2674488457328498 0.1612264602319538
-0.1723127666999561 0.2721951039916694 0.16359032083910102
-0.17374719717995946 0.2698569329864204 0.16230247308176154
-0.1729926619817478 0.2676261695510566 0.1647001295224964
-0.17553976216809575 0.2687987717277229 0.16694686700265998
-0.17640121319787327 0.26795113407437204 0.16263408352296943
-0.170084283142255 0.2688175471908271 0.16463152457635993
-0.17241226175324742 0.26954096876446604 0.16660402108591194
-0.17423871198193852 0.268554333079499 0.1627109139100849
-0.17070153394238774 0.2698896559364021 0.16431955386560554
-0.17127665915982548 0.2718874844199836 0.16716609288614387
-0.1714294258643848 0.270243409503144 0.16364065696161384
-0.1725692603875858 0.2647051843291938 0.1632224409715473
-0.17267526724831883 0.26478600822750925 0.16335991908472175
-0.17199370303647343 0.2646390827781379 0.1617959230081379
-0.17276440599458043 0.26512897335354685 0.16404722024362678
-0.17286901214616124 0.26521712862316965 0.1641619591848194
-0.171811640649007 0.2646502884513557 0.16250256587427253
-0.1737565551091892 0.26580959879223703 0.1653376011983692
-0.1745449308444721 0.2675094636565864 0.16705391694467658
-0.173610717444585 0.2667450936919868 0.16544095565240974
-0.17268751600282017 0.2688379915839851 0.16191098977487678
-0.1742758158733112 0.270504537451905 0.16319901634615058
-0.17267715969579045 0.2695352467185676 0.16136104751985664
-0.17054116764561955 0.2684249313956916 0.1635457961694538
-0.17210675814645116 0.27023369394604563 0.164937475217992
-0.17249389031426732 0.2690721782333076 0.16330922533434028
-0.17114761510388676 0.2684937151557624 0.1621795683042347
-0.17238017955319707 0.2726175221091926 0.1647219746248066
-0.17288067975537602 0.2700562509185493 0.16284311701219673
-0.1732125584174854 0.2674385341293037 0.16495505858820075
-0.17547194698350255 0.26862591825787424 0.16706565905969734
-0.1757053289701206 0.26773387514416574 0.16318885375421638
-0.17050261834161107 0.2684320243484199 0.16499019552629585
-0.17246370056168858 0.269220414984864 0.16686362911623115
-0.17388071158425633 0.2681837113982856 0.16339946676653022
-0.1711179766942722 0.26939344726864695 0.16459325839441413
-0.17141382434861485 0.2716031106597602 0.16742748905580634
-0.17121081092850987 0.26962739549939035 0.16428352285783882
-0.20780028441445653 0.30566817842785715 0.14985028792780036
-0.20687177815930669 0.31364924036328196 0.1527496068612873
-0.2056118253757221 0.31587553345028757 0.14861212064188117
-0.20614305177228276 0.31672108494107126 0.15272400666635627
-0.20491825082795445 0.31541729294125437 0.15550265599649543
-0.20535898247258488 0.32345873438183664 0.15677926827829475
-0.20415890255467717 0.32044405065838694 0.15324578572672004
-0.20286430457131688 0.3310775192863166 0.1561852483884632
-0.20561805406110112 0.31682908855740427 0.14903897930544013
-0.20523741879956547 0.331478122103852 0.15016079832475776
-0.20638293066518132 0.322659614909333 0.147361346973592
-0.2081408802558643 0.30686050974194407 0.14995322514932746
-0.20924069026009862 0.3119370373374641 0.15552301098268623
-0.20752888956563298 0.31636727176968454 0.1497852890626728
-0.2058562044193012 0.3181664379722297 0.15467304874818916
-0.20734226742284123 0.3225234182960212 0.15800503779810066
-0.20666448810593907 0.3216759594566047 0.15302804995935554
-0.2042133364965183 0.32107979379956125 0.1512390165464222
-0.20645555892484013 0.3311357530242622 0.15458542992036933
-0.208262235312627 0.32557702385250925 0.15103656937044257
-0.164002061276601 0.3095799120551765 0.20861927558344
-0.1635334048558933 0.316181126464051 0.21117458630960578
-0.16545969286458317 0.3175551327354133 0.2081998376981556
-0.16115261652962987 0.31495547615353464 0.21275965262811775
-0.16111251750485722 0.32099861227337717 0.21482644368570442
-0.16249400415913884 0.31882798992459177 0.2114457874433338
-0.16169977226750676 0.3176244529372871 0.20774368335168952
-0.16111561694638554 0.32875472627941965 0.20978544045847053
-0.16279123762147252 0.3214998873359382 0.20678553868692512
-0.16133195200459782 0.30973190389935373 0.21170137216013069
-0.1637140665342075 0.3153435619956672 0.2173599391118824
-0.16531249919431035 0.3168181213027656 0.21152124692361945
-0.15830390193955723 0.31711614452664255 0.21389148522775764
-0.16079789438741032 0.32105726324383616 0.21722201396387214
-0.16028444507615391 0.31921899639431833 0.21171549846094245
-0.15721362867848698 0.3244376214629829 0.21309510756891364
-0.15928292313115422 0.33230394445721506 0.21644184876840705
-0.16048944035069768 0.32811993681256174 0.21213106204431648
-0.15871097186105076 0.30281937443081736 0.20932177592676277
-0.15867736974255864 0.30678493105236887 0.21340350200098152
-0.16176487544076268 0.31146431289975046 0.210462012781316
-0.15932902732388798 0.31201488100354074 0.21338383246820564
-0.16023866870896641 0.31546235405270456 0.21606335927408332
-0.16096271613137547 0.3162385853416145 0.2124691395894825
-0.1604947302629215 0.3200660976058662 0.2143801241056263
-0.16215422788159672 0.3275157841331184 0.21640405942361945
-0.1616006348420841 0.3245216640121162 0.21340272714059944
-0.1888469759513599 0.2866463693267524 0.1525817601815998
-0.18969595470921818 0.2920731934196174 0.1554421572820484
-0.19009512701527898 0.2909281285888374 0.15224877883356208
-0.18169628122346226 0.2872460516578376 0.15359119464319343
-0.18370124736325566 0.2926546963340461 0.15628511597078437
-0.1855963770438892 0.2900948556548774 0.15345037866991157
-0.18284732141988103 0.28893030010525583 0.14985496689241523
-0.18449707367913548 0.2987056406623542 0.15385098148744697
-0.18624928632275883 0.2920557292586982 0.1505802064077198
-0.18924015799062077 0.2860554488784492 0.15798667956750984
-0.19408687987820927 0.2891049417144477 0.16263447095316047
-0.19758889117734257 0.28923422418896555 0.1558415978090107
-0.17895489969746892 0.2885026367789924 0.15620783854883308
-0.18499562182919804 0.29067021929089426 0.1603264300958454
-0.18723163047330205 0.2895067962295234 0.1542798667089283
-0.17992022672192876 0.29257351480786203 0.1544053046838581
-0.18244794049756352 0.2969296010619819 0.15850667048853034
-0.18544535377518956 0.29454309068982004 0.15327552844446296
-0.18729558625714604 0.2827578219062507 0.1522521464959919
-0.1885829869796497 0.2836700113898933 0.15555612136285896
-0.1910832528163654 0.28553074919049143 0.15128583599489326
-0.18644183912770573 0.2865579756385505 0.15389821816843147
-0.18733182588116948 0.2875084313041389 0.15590367604654426
-0.18785716631905858 0.28678816877667307 0.15178293873232002
-0.18541587927834813 0.2921173008567512 0.1537360935346424
-0.18732202091710393 0.2959355744010627 0.1567636518613636
-0.18731477895276372 0.2941789659148872 0.1531894295350849
-0.17895235159890477 0.3375599416381538 0.17682395268838996
-0.18065309563176457 0.3428247007018745 0.1783994226590931
-0.1783169958879215 0.339707795012635 0.17570421983163947
-0.17124009171025578 0.33545619570080637 0.1796700148717701
-0.17361448743836705 0.33934140526120066 0.18171427537363166
-0.1774065200378162 0.33813429199520945 0.17768929292123908
-0.1747599546004993 0.3395701678878486 0.17404622723024482
-0.17553572395341221 0.3463390501624763 0.17634342004221076
-0.17755249181287114 0.3416214617377937 0.1727509586946308
-0.1823271069814426 0.3372290166503608 0.17865184832971687
-0.18431842365758244 0.3404283555633247 0.18245754529398078
-0.18276956716077153 0.33913988195721506 0.17774436761301154
-0.17455396094815556 0.3380695017463386 0.17960719157617683
-0.17824123838441197 0.3400838407165229 0.18386996675890083
-0.18082395234601323 0.3394723566657722 0.17822710563104743
-0.17671729662911717 0.3419462474471748 0.17690918733041877
-0.17827817836301152 0.3463644417411506 0.17930338670175666
-0.1808104518939716 0.3439295920020759 0.17516637731950874
-0.18281921782986943 0.3346188696510017 0.17669350792329902
-0.18425306716458623 0.3359117540008247 0.17898605157297248
-0.1814733449508411 0.3366463216430366 0.177744248403722
-0.18175220528142277 0.3369226487762153 0.1787350862161457
-0.1835679117728931 0.3379704984313667 0.1811140267984211
-0.18064542153374974 0.33729988657299875 0.1790152876512348
-0.182520389943288 0.33966642938916086 0.17770577360551948
-0.1831331554939014 0.34276569210354685 0.17938728023927802
-0.18498715796963994 0.341577592719239 0.1768832295076191
-0.18118667641179387 0.29573959432904123 0.18130044032495612
-0.1817681495239002 0.3028565081245124 0.18501577664774055
-0.18450564184682194 0.30099344574276804 0.18056450177591438
-0.17243889012830083 0.2960615786201179 0.18254730988901252
-0.1741508696367008 0.30254161678616404 0.18598920990388984
-0.17723219135300938 0.2988960178977668 0.181745895637685
-0.1753594581176502 0.29933750950161814 0.17868039895456428
-0.17532500663297002 0.31018936954800486 0.18230942775171394
-0.1786032322932941 0.30227345548931955 0.1784950881139576
-0.18140655794637028 0.29302853666607737 0.18721623112123603
-0.18689227142827336 0.29738438450161814 0.19266108561914558
-0.18922182956235234 0.29671323620144724 0.18514431406419868
-0.17090319135682408 0.29674256168667673 0.18609873343866462
-0.1763691757013065 0.29860312067334055 0.1907856254712879
-0.1784347150613529 0.2973316343909919 0.18401254106920356
-0.17128743269936864 0.30280798994366526 0.18463281680505866
-0.17457222977177922 0.3088585766441047 0.18905911733072395
-0.17777028718488042 0.3054994972831428 0.18351657082002754
-0.17915922441975896 0.2881987126952827 0.1811355738775074
-0.180627376227544 0.29126602732006907 0.1854082732335865
-0.18307268658177678 0.2931025656348884 0.18037209798257942
-0.17832794824139897 0.2936109932548225 0.1836406676904499
-0.1804304424812061 0.2963129314071357 0.18649847198885078
-0.1795907322456104 0.2947558792716682 0.18162862349908943
-0.17793990710274998 0.30205452762905954 0.18459461022775764
-0.17991709747807805 0.3082855971938789 0.18768213082712287
-0.18035757580296818 0.3050589593536079 0.18382511426370735
-0.18450900950925175 0.32939559542004465 0.14899725605409736
-0.1853323582698566 0.33410644851986765 0.1499427049295246
-0.18335127869145695 0.3319218786842048 0.1479101567403614
-0.1813675318052036 0.330096605647248 0.15174452353876228
-0.18320301213757817 0.33409995161358713 0.15309245277803535
-0.18305937984483067 0.3314049872047126 0.1503491191999256
-0.18179050126569096 0.33143252455059885 0.14611537147920722
-0.1809964779903156 0.33827042900387644 0.14812288571756477
-0.1828735474635822 0.3331443103439033 0.14521653343599433
-0.18582207003133122 0.33008051239315866 0.14789108325403327
-0.18642261662976567 0.33140343748394846 0.1504709808961689
-0.1854762736846668 0.3320551546699226 0.14728246022623176
-0.18146280982987706 0.33216595970456003 0.1490029780999958
-0.1836897734691364 0.3333520921355903 0.15200547267358894
-0.18261238971249882 0.3323949607497871 0.14829931546609992
-0.18028408327596013 0.3330970438605964 0.14701820303362007
-0.18201457002656285 0.3365961941367805 0.14879939843576545
-0.18438990452782933 0.33539426647488474 0.1456090002195179
-0.18770130017297093 0.32780289970700144 0.14423052359979743
-0.18780851402776066 0.32786655746762156 0.14458827067773933
-0.18663427272336308 0.3290132912284553 0.14574734260004157
-0.18682515659825627 0.3296771081573188 0.14613098789613838
-0.18690747061269108 0.32962543093029856 0.14647136022012824
-0.18537166753308598 0.3302525910026252 0.146792122615987
-0.18688690701024357 0.3303627999908149 0.14673973013322944
-0.18741038480298344 0.3313333424216926 0.1475921659604847
-0.1888957027484638 0.33227253280941843 0.1464245109693348
-0.1996344629813892 0.32601029001538157 0.16322285820406074
-0.20169188120858494 0.33189082466427683 0.16601840545099372
-0.20201878288285557 0.32986671053234934 0.16260565210741157
-0.19019839206235234 0.3252974184638679 0.1638691513673603
-0.1904200915385944 0.32775199734036325 0.16805983473222846
-0.19655722418324773 0.3270766767150581 0.16326613117616767
-0.19118732252614323 0.326313498843354 0.15885282446306342
-0.19440667369859044 0.33310014330212473 0.1627738862172901
-0.1971748922158939 0.3291299971229255 0.1585021703378498
-0.20059415736691777 0.3308869036323249 0.1648352830545246
-0.20464450159566228 0.333842578757447 0.16885770250719184
-0.20508435407178227 0.33242142521206736 0.16263083506982917
-0.18768572845952336 0.3334836395866096 0.1626852541105091
-0.1939296428252918 0.334386590350312 0.16815064240854377
-0.19696816840665166 0.33336317859951853 0.1618334143297016
-0.18945172467725102 0.33229476534191965 0.1603264300958454
-0.19329848924176518 0.3361458810455024 0.16414419700067634
-0.1969683174182636 0.33493745647732615 0.1586823849813282
-0.18857362905041997 0.2819280060416877 0.1625006883279621
-0.18695479670064274 0.2902404101974189 0.16640395809572334
-0.1895818416167957 0.2932288082725227 0.16321904350679511
-0.1866586808253986 0.29275560699765085 0.16765699674051399
-0.1877384487678272 0.3019170793182075 0.17006484557550544
-0.18827095666425053 0.2983362706786811 0.16668436814706916
-0.18839299717442815 0.29531985842053293 0.16179961849611396
-0.1883371476222736 0.30978268705670237 0.16458229113977546
-0.18963311651246373 0.30061441980664133 0.16138599206369514
-0.18465332725541417 0.2804607781058967 0.166929879678899
-0.1879639331390125 0.2877650889045417 0.17409027506273383
-0.1879857186366779 0.2894648941642463 0.16734684397142524
-0.1830346290160877 0.293902757990998 0.17035059024255866
-0.18545088210599248 0.2983615430480659 0.17408923198145027
-0.1852805320312244 0.2965280445701301 0.1681207804815113
-0.1827173534919483 0.30329585396115183 0.1691268770829975
-0.1857172254611713 0.3134892614967048 0.17296383668344611
-0.18650396206872288 0.3079975279456794 0.16848523308199043
-0.1713584516336185 0.3312168749458015 0.19589255143564338
-0.17177225687997166 0.3348416122085273 0.19751999665659065
-0.1716830585290653 0.3338689240104377 0.19506455351274604
-0.16562399306790654 0.331215146411103 0.19702199984949226
-0.16487030723588292 0.3336681159621894 0.19935450841348762
-0.16790452638165776 0.33257186733548044 0.19639889289301032
-0.16676288881795232 0.33236021124188303 0.19331393529337043
-0.16817486324803654 0.3378800781852424 0.19637970019739265
-0.16972544827954594 0.33437073551480173 0.19289807368677253
-0.16892835536496464 0.3307673367149055 0.19840959597986335
-0.17194785216347996 0.3332804473525703 0.20181421328943366
-0.17159992495076482 0.3324661286956489 0.19678060103815193
-0.1604409668733341 0.3326107891685188 0.1969795017377674
-0.1635392312099201 0.333323779929322 0.20066348601739997
-0.1646850858022434 0.3323149713164985 0.19616333533685798
-0.1628028903295261 0.3345793517715156 0.19583795358102912
-0.16359582582013432 0.33764529548947214 0.1988713531629383
-0.16635414996640507 0.33600312792126535 0.1943881600038349
-0.16316753664510075 0.32340514980618357 0.17805583168428535
-0.1627794060994846 0.3265683086997688 0.1786679713861286
-0.16321033278004948 0.3253567846900642 0.1763126044408619
-0.16061283686654393 0.3234503897315681 0.18146331001680488
-0.1599994007636768 0.3257007034904182 0.18284572054308051
-0.1616582874347431 0.3241313727981269 0.17992685128610725
-0.1608792994310123 0.32583105884854197 0.17733845998209113
-0.1602469239522678 0.33176172100369333 0.17918715764444465
-0.16161647477643315 0.3270417483932197 0.1760875671045124
-0.16280408242242161 0.3245630892402351 0.1787188439504444
-0.16433428266541783 0.32648653112713694 0.18137157846849555
-0.16402177551286046 0.3262552651054084 0.17635438729684944
-0.1582744274427158 0.3261421950942695 0.1793093173639118
-0.1604152474691135 0.3271361621505439 0.1822228222028553
-0.160219341902898 0.32609820686642527 0.1774545400277912
-0.1566107425977451 0.3299155267364204 0.17927054454248542
-0.1568904820968372 0.33328736149136423 0.18080217529695625
-0.15966546574132268 0.3317216070777595 0.17735118557375068
-0.16201011875169102 0.32258820854489206 0.1756111471788227
-0.16230534055726353 0.32285201870266794 0.17611355472963447
-0.16325019338624303 0.3239483865386665 0.17557976533334846
-0.16308753231065098 0.3246470721847236 0.17792431403558845
-0.16347897091405217 0.324717286456269 0.1785200326577961
-0.16248664298550908 0.32462418400112986 0.17719257761400337
-0.16365127304093663 0.32765782200161814 0.17890782047670478
-0.1632022712518436 0.3289639385825813 0.1795997707979023
-0.16341343560712163 0.3289471300727546 0.17775238443773383
-0.16319887378709141 0.32375634037320017 0.17778352786462898
-0.16342528203027074 0.32672286354367136 0.179165968193227
-0.16371882000462834 0.3257589968330085 0.1759434430734455
-0.16014902332322423 0.3246579202300727 0.18023774911325569
-0.16097469666497533 0.3268451126701057 0.18215651203554267
-0.16160465815560643 0.3252615960723579 0.17850566793840522
-0.16011768618123357 0.32803130470578074 0.17858065058153266
-0.16005910971658055 0.3335225614196479 0.1805765717164814
-0.16162575819985692 0.3295381697303474 0.17719818045061225
-0.17528611460225407 0.26176697336499094 0.1805414645807087
-0.17468456962601964 0.26141620003048777 0.17950306226175422
-0.17715668716924016 0.2605390580779731 0.17920769144456977
-0.1750750843574268 0.26165891014401316 0.18072096396844978
-0.17447146811978642 0.26131719671551584 0.17968750883501167
-0.17696689107911412 0.26043361746136545 0.179384896053487
-0.17327727416055028 0.26069784485165476 0.17898617078226203
-0.1735658947517139 0.2611988814956367 0.17950228740137214
-0.17417304256455723 0.2606548699027717 0.1784425168172657
-0.17599187829987828 0.26300001465145945 0.18245951224725837
-0.17542880812184636 0.26292664133374094 0.18194366384904975
-0.17784561255471532 0.26134723745648264 0.18005503107469673
-0.17531240025060002 0.2628688844329536 0.18257383395593757
-0.17468945720689122 0.26279336534802317 0.18199456621568794
-0.17759686747090642 0.2613917025214851 0.18007991601389045
-0.1739498082687122 0.26155674778286814 0.1827079742090046
-0.17407216170327489 0.2617002757674873 0.18292466689508552
-0.1783007536222202 0.26144260488812326 0.18022880841653938
-0.17524410822884862 0.2606745394355476 0.17711237956445808
-0.17527858951585118 0.2590490611678779 0.17804173518579597
-0.17916585543649022 0.2619441183692634 0.1793396263257801
-0.1762006286670429 0.26097643696133493 0.1762651293412983
-0.1754635874320728 0.2594335111266792 0.17707426239412422
-0.17994272747533147 0.2592179211265266 0.18071634460847968
-0.1791109297563297 0.25799876772229074 0.17952070523660774
-0.17661155798928563 0.2581211360580146 0.17946613718431587
-0.17535834053056065 0.26159566961590647 0.18048585344713325
-0.17479597070710484 0.26130289160076975 0.1795021383897602
-0.17690195181863133 0.2602698238975227 0.17906198789041633
-0.1749997738887531 0.26142180286709665 0.18075157095354194
-0.17443478146092717 0.2611477407104194 0.17977661777895088
-0.1766007546474201 0.2601109179145515 0.17932523180406684
-0.1730728153278095 0.2604621084815681 0.17897186566751594
-0.1734215919067127 0.26102948509518503 0.17954421926897163
-0.17374691405789677 0.2603817018157661 0.17837379266183967
-0.17577737608449284 0.26088553987805246 0.18083528567712898
-0.17528304496304814 0.2607556017524421 0.1799516468183338
-0.17681464591519658 0.2593585880881965 0.17897210408609504
-0.17505005040662114 0.2605689200050056 0.18117997933786506
-0.17452639379994694 0.2604369553214729 0.1803258745805561
-0.176433861642049 0.2591500910407722 0.1793195395604908
-0.1734523330022556 0.2595472367889106 0.18033955384653205
-0.17390556672112767 0.26018727146450876 0.18098992992799873
-0.1730602089454395 0.2590992482787788 0.17944339801233405
