ply
format ascii 1.0
element vertex 449
property float x
property float y
property float z
element face 0
property list uchar int vertex_indices
end_header
-0.2337641132659964 -0.03817228442554198 0.13977222537921355
-0.23404859133434813 -0.03791196113948546 0.14181743955539153
-0.24001707263660949 -0.038112053931996445 0.13901298141406462
-0.2283745569772772 -0.03828785783176146 0.14071600532458708
-0.2283762855119757 -0.03829590445880614 0.1428187975876181
-0.23490809031200927 -0.03858424192790709 0.1392288098327963
-0.23268227406216185 -0.04062585002307616 0.1376685390465109
-0.23476418979836028 -0.038444916070744614 0.1407406816475241
-0.23231034107876342 -0.03844250208263121 0.14399408197329924
-0.23461263008785765 -0.03866870170955382 0.14671080207751677
-0.2425385875291876 -0.03818068868045531 0.1416605601303427
-0.22186134882641356 -0.0377813077581378 0.14408241605685637
-0.2232773912735037 -0.03832150465373717 0.1463522801391928
-0.23277023561668914 -0.03800077206020079 0.14189099168704436
-0.23324655123425048 -0.03672877913837157 0.14206628894732878
-0.23391382523251097 -0.03611726528529845 0.1437103042595236
-0.24055414028835814 -0.038179168762013535 0.14294337129519866
-0.24038900562000792 -0.03820169931773863 0.14255874252246306
-0.24256321914864104 -0.03939799434070311 0.1409431586258261
-0.2385374171323828 -0.03837538725261412 0.14292161559985564
-0.23829005785656493 -0.03838715916995726 0.14244656658099578
-0.24139870830250304 -0.039548466266438584 0.14090983962939665
-0.23954098053646605 -0.03920028573398314 0.14166985845492766
-0.23972877987099211 -0.03897769218806944 0.14195733165667937
-0.25424322612953704 -0.024168202937886338 0.13867353296206877
-0.2542144370861105 -0.02522257930164061 0.13760118579791472
-0.25534087546539824 -0.0252286589754077 0.13803069686816619
-0.2536596370525412 -0.02465582853679381 0.13959663009570525
-0.2536371064968161 -0.025664935172841172 0.1385874638550131
-0.254945666868215 -0.02569962507610045 0.1388301739685385
-0.25435391195488494 -0.02701807981853209 0.1369688401214926
-0.25436207779121917 -0.025640825094029526 0.13741033172534392
-0.25344514973831694 -0.026419947208211045 0.13667850589679167
-0.25331047304344695 -0.0231801069391223 0.13654338216708586
-0.2529252482242636 -0.023396412195012192 0.13595097160266326
-0.2541228843517355 -0.024400184215352158 0.13468937969134734
-0.25226226576042693 -0.023286590637013535 0.13715260124133513
-0.2519539905376486 -0.023488739789769272 0.1365864167206137
-0.2535309804267935 -0.02431146270160399 0.13515995836184905
-0.2515669179744772 -0.024132708371922593 0.13638858890460417
-0.25196281202507537 -0.023431817354008774 0.13688658571170256
-0.2505198729820303 -0.0242026842248889 0.13452051973269866
-0.2590260816402487 -0.024414697946354966 0.13533150052951262
-0.25645163782311003 -0.02504477864627562 0.13205640411303923
-0.25572207697105925 -0.02647809153918944 0.1337465534202902
-0.25843456514549773 -0.024889925779149155 0.13459103202746794
-0.25642594822121184 -0.025693843425557236 0.1316125283233969
-0.25494095810127776 -0.027041117013737778 0.1331144461624472
-0.2576051069088034 -0.026146838725850205 0.13499646282123015
-0.25712058075142424 -0.027519503892705063 0.1335068235390036
-0.2534099531955771 -0.0273479319227191 0.13384049034045623
-0.24181144066525023 -0.02566934591655455 0.14446060752795623
-0.24178868659210723 -0.02531451946620665 0.14566181993411467
-0.24629873164368193 -0.02556888228778563 0.14257590866015837
-0.23785524197292846 -0.027185747684285264 0.1473399887077658
-0.237779797393804 -0.026931980909154038 0.14866720533297942
-0.24327108390999358 -0.02702210313205443 0.14461534118579314
-0.24139477439594786 -0.027450153888508896 0.1437953600876181
-0.24257899947834533 -0.02412600284938536 0.14508615827487395
-0.24480317660046141 -0.02592385774974547 0.1414323935501425
-0.23950997122002166 -0.02431211835269652 0.143938947676882
-0.24080714710426848 -0.0240251517904254 0.14597569799350188
-0.24454389639568846 -0.024348149360463242 0.14173452949450896
-0.23182156809044402 -0.024671117128178696 0.14456056451724456
-0.23190488048267882 -0.02498878008250914 0.14641969299243376
-0.239162774164205 -0.024312177957341294 0.14195673561023162
-0.23934874065590422 -0.02377934223537169 0.14341561889575408
-0.23909855015945952 -0.02327541476611815 0.1444030294411032
-0.24252276249599974 -0.023618916333958725 0.13964628076480315
-0.24535343177986663 -0.024236480058476548 0.14330690002368376
-0.2450243545360617 -0.024319390119359116 0.14224712943957732
-0.24486972518635314 -0.025727341235921006 0.1417341718666403
-0.24448187776279967 -0.024368176521107773 0.14375614023135588
-0.24417936928940337 -0.02444232469920836 0.14275984859393523
-0.24434729047489684 -0.025819013179585557 0.14214800691531584
-0.24622000880909484 -0.0248777068269702 0.14249293899463103
-0.24621220060062926 -0.02493617898349486 0.14244936799930022
-0.24562771745396178 -0.025039831460759263 0.14041237926410124
-0.2390463066883139 -0.01739470130328856 0.14157466983722136
-0.2388064874000601 -0.019079009355351548 0.1398844609253256
-0.23842351265621703 -0.017830947698399643 0.14106999730990813
-0.23927293844891112 -0.017123082937047104 0.1411989221565573
-0.23904498048496764 -0.018843958438679795 0.13949643468783782
-0.23847790189457457 -0.017604777873799424 0.14075772857592986
-0.23946090169621032 -0.021541664661213974 0.13973056173251555
-0.23953206964207213 -0.02120513683681212 0.14005248641894744
-0.23673682041836303 -0.020995715917393784 0.13988744115756438
-0.23694172628593962 -0.01509616738681517 0.13772611713336394
-0.23618357010555785 -0.01543871528033934 0.13644163703845427
-0.2349383098669104 -0.016571054519459824 0.13657682037280486
-0.2366198910064749 -0.015083829225346665 0.13779174184726165
-0.23585462697220366 -0.01542411214236937 0.1364851484291403
-0.2347488565034918 -0.016575197042271714 0.1366590747825949
-0.23711829014492553 -0.01558406120662413 0.13810401058123992
-0.23715014882755797 -0.015543798269078354 0.1381377468101828
-0.2334361685104422 -0.01625443464641295 0.13753371334002898
-0.2411668015308432 -0.016184101165577988 0.13751630878375457
-0.23852442331982177 -0.016502389968678574 0.13464747762607024
-0.23639695473385375 -0.018650928796574692 0.1367484221451132
-0.23971964545918029 -0.017515251697346787 0.13658677434848235
-0.23728285856915038 -0.017804781259343247 0.13363723850177214
-0.23505075402927916 -0.019947001994893174 0.136063028334841
-0.24039498098564666 -0.018905887664601426 0.13626270389483855
-0.23969206340981047 -0.01984710461024962 0.13408182954715178
-0.2408995939083151 -0.03162349230174742 0.14539663886950896
-0.24108679719639342 -0.03237376576785765 0.14362977838443206
-0.24324160941315215 -0.03269938594226561 0.14389138317035124
-0.24072900541496794 -0.031661341251179795 0.14546101188586638
-0.240923107940679 -0.03240172034625731 0.14369850253985808
-0.24309606977177184 -0.03273634082202635 0.14394419288562224
-0.24182696767521422 -0.0333419836175891 0.14352219200061248
-0.24181914456558745 -0.03335217601184569 0.14351325130389617
-0.2409454149789862 -0.03349790936832152 0.14254479503558562
-0.2396232051439337 -0.030255833925053696 0.14560662603305266
-0.23906158037853759 -0.030349770845219712 0.14432023858951018
-0.24313438065720122 -0.03135002619151793 0.14295022582934783
-0.2382223320789389 -0.030301103652760605 0.1455379614822714
-0.23763728268814605 -0.03036866551761351 0.14425592517779753
-0.24199380107594054 -0.03138286835078917 0.14292060232089446
-0.2402863366193823 -0.031087706149861435 0.14465593194888518
-0.23986360557747405 -0.031575480760380845 0.14426772689746306
-0.24431303270531218 -0.02959252363567076 0.14318167066501067
-0.24212753899765532 -0.030252317251011948 0.1402441749565451
-0.2423084986991934 -0.03209675318126402 0.14158963060305998
-0.2459723217077307 -0.02936352259044371 0.14288627004550383
-0.24320574231815856 -0.030011305869862656 0.13976256942675994
-0.24299050994587462 -0.0319027996671649 0.14122973775790618
-0.24511501320076506 -0.0314232504976245 0.14320372438357756
-0.24535775311661284 -0.03246403700236998 0.14108489847110198
-0.2468805623836569 -0.032246748269841294 0.14147918319629119
-0.2467888159341864 -0.033523688377186875 0.14018755054400847
-0.2471387846059851 -0.03324634796504698 0.14101599550174163
-0.24644494183731597 -0.03262127405528746 0.1420209894172995
-0.2463731629438452 -0.0338496363771411 0.1407585630409567
-0.2468619061298422 -0.033592203916356186 0.1414723882667868
-0.24561736114693206 -0.034862706722066025 0.13792221641467498
-0.24608147271347564 -0.033789942325398545 0.13861130571292327
-0.2449618441648535 -0.033976653875157456 0.1379895100586264
-0.2450155926532797 -0.03035677439098082 0.1401826629631369
-0.2447956962175421 -0.03063649898891173 0.13937484121249602
-0.2460144770927481 -0.03153471118335448 0.13835250234530852
-0.24404120572281401 -0.030631671012684922 0.14058481550143645
-0.24379922576618712 -0.030844221175953965 0.13973616456912444
-0.2455821348018698 -0.031629512370869736 0.13861136531756804
-0.24433012433720153 -0.031108955205723862 0.14053266143725798
-0.24456954129410308 -0.03074533707027159 0.1407966504089682
-0.2424671960659079 -0.031568894447133164 0.1389941463463156
-0.2503499103374533 -0.030930975736424546 0.1381221899978964
-0.24745887644959014 -0.03161461120967589 0.13505022621081755
-0.24663359053803008 -0.032992730201527695 0.13674293851779387
-0.2506412578411154 -0.031211832822606186 0.13776646947787688
-0.24807362385464232 -0.031943509639546494 0.13476251459048674
-0.24653950460625212 -0.03327597147350035 0.13637017106936858
-0.2500747156925253 -0.03239033585910521 0.1379030237190573
-0.2500858617610983 -0.03332070475940428 0.13653760051654265
-0.24521768220139067 -0.03363058930759154 0.13720845079348967
-0.23642668255043547 -0.022448757947728257 0.14841346836017058
-0.2369243515319876 -0.021586636365697007 0.14900474643634246
-0.23626041539383452 -0.022036114991948227 0.14659653997348235
-0.2341063184328131 -0.022627333463475327 0.14979188537524626
-0.23443214722347777 -0.02177731162433348 0.1506588945381491
-0.23494438954067748 -0.02253741985683165 0.14818536138461516
-0.2336422515697531 -0.022154817642018418 0.1487905273430197
-0.2343059194870047 -0.018893191875264267 0.15038828945086882
-0.2332731051034979 -0.02137232786540709 0.14776765203402922
-0.2301337284631781 -0.022677371562764267 0.14878540134356902
-0.23098810144138854 -0.02208135491733275 0.15058319663928435
-0.23241056628895324 -0.022622684301182847 0.14571570253299163
-0.2279301596469931 -0.0205803013456317 0.14926074838565276
-0.22898486383629363 -0.0202123916757556 0.15099125003741667
-0.2305808378047995 -0.021298298896596055 0.14654378986285613
-0.22593838103485625 -0.01904741889362059 0.14967976903842375
-0.2275394512004904 -0.016851255954548935 0.15146486854480193
-0.2275024367160849 -0.018102834285542588 0.147046435832247
-0.2321081323213629 -0.024267772496983628 0.1453705916397421
-0.23151843376827758 -0.024522701562687974 0.14438312148974822
-0.23118369408321898 -0.02579982048396788 0.143783439158663
-0.23256002493572753 -0.023407975496098618 0.14595704173968718
-0.23187010117245238 -0.023696253360554795 0.14493714666293547
-0.23111178107929747 -0.025191197456166367 0.14419137334750579
-0.2332610053606085 -0.02192292577151976 0.14755975103305266
-0.23304021485519927 -0.022259244979664902 0.1472389588348715
-0.23036487527561705 -0.021751622022435288 0.14585571384356902
-0.24785637982559722 -0.022934714616582016 0.1431530008308737
-0.24787569173050444 -0.02299041515712462 0.14287369346545623
-0.2507335854358725 -0.023292968334004502 0.1424428710930197
-0.24609674640369933 -0.023511240543171982 0.14385168647693083
-0.24616845079136412 -0.023538211644932847 0.1435957441322653
-0.24930110700798552 -0.024035463393971543 0.14289622402118132
-0.2483739865608267 -0.026125023425862412 0.14374243116305754
-0.24859237797928374 -0.02538187271480284 0.1447525510780661
-0.24524286516380828 -0.02211819058780394 0.14410989379809783
-0.2455453438348822 -0.02214003569011412 0.14461087083743498
-0.24869462974739592 -0.023080298961445908 0.1427909026138632
-0.24113178380203765 -0.0217762983453723 0.1441898832313864
-0.24131901689243834 -0.02182854181651793 0.1445466766350119
-0.2456405026502661 -0.022753814519688706 0.14269780015872405
-0.24760295577717345 -0.022684732736394028 0.14385866022036956
-0.24796448775005858 -0.022292444766804795 0.14435975646899626
-0.24192115791512053 -0.03549794322375975 0.14127938842700408
-0.24193124600124877 -0.03561265236262999 0.14114676809237883
-0.2432475549764685 -0.036126325191304307 0.1409111509315817
-0.23938714094830077 -0.03608874446277342 0.14207975959704802
-0.23938861616325896 -0.03612289792422972 0.14203708267138884
-0.2413610530681662 -0.036553988517567734 0.14148484563754485
-0.23834984131527465 -0.03738180762653075 0.13788496351169036
-0.23971362539005797 -0.03559182053928099 0.13949339485095427
-0.23940239973736327 -0.03628597623233519 0.13751481866763518
-0.24030311532688658 -0.03311670786266051 0.14164810275958464
-0.24085764713955443 -0.03301079040889464 0.14250241613315032
-0.2446128589696936 -0.033668140233800034 0.13947062587665007
-0.23559132345390837 -0.03314734465007506 0.14139573669360564
-0.23598232992363494 -0.03312842017535887 0.14202230071948455
-0.24113123245907347 -0.03357944852237425 0.13925432062076018
-0.23723344631863158 -0.034451255859181504 0.1400547513954489
-0.23806746431065123 -0.03354860311870299 0.1410707721702902
-0.2449415189809851 -0.03400854236011229 0.13924114799426482
-0.243623183447843 -0.03433493739490233 0.13780413961337493
-0.24300114937496703 -0.03598413831119261 0.13796131706164763
-0.24497145541382354 -0.03401879435901366 0.13923941945956633
-0.24365912504864257 -0.0343454278123828 0.1378075966827719
-0.24300597735119384 -0.035994956554219346 0.13795785999225066
-0.24424648411942046 -0.03531534439449034 0.13813172674106047
-0.24424269922447722 -0.035575339855000596 0.1373595485679953
-0.24308474488926451 -0.018334070504948716 0.14164077138827727
-0.24312730260563414 -0.018152157129094224 0.14210753536151335
-0.24584818013382476 -0.018569657863423447 0.14078711366580413
-0.240273014981275 -0.0192622340333911 0.1433032045357077
-0.2401923996992163 -0.01908350950603209 0.14390306568072722
-0.2433274550027899 -0.019607911170765976 0.14207147455142424
-0.24169142671299498 -0.020657519162938218 0.14034842348025725
-0.24235263593864959 -0.0183467066896411 0.1419482717506735
-0.24299726017189544 -0.01960788136844359 0.1392598638527243
-0.24139909573269408 -0.01679457193736754 0.14151125049518035
-0.24233025439453643 -0.01656750804309569 0.14310811853335784
-0.24510821827126067 -0.017226228774830918 0.13968532180713103
-0.23535497613621276 -0.0167048073423358 0.1414544472687094
-0.2361320865936331 -0.01677400833492003 0.14284573888705657
-0.24082489438725035 -0.01698152190570555 0.13953780031131194
-0.23904317744446318 -0.018425474227711777 0.1403192172043173
-0.23989878721905272 -0.01742506986980162 0.1414687523834555
-0.24015396960449736 -0.018903533281132798 0.13773136234210417
-0.24788075812531035 -0.017822036804005723 0.14014672136233733
-0.24717837699127715 -0.017965058149144272 0.1391055474274008
-0.2456654620952658 -0.019884417117879014 0.13932387924121306
-0.24736026056480925 -0.01767076021556578 0.14025174474643157
-0.2466243369169287 -0.01780424481754027 0.13915513849185393
-0.24543358512592833 -0.01973796850566588 0.13945733404086516
-0.2452834708280615 -0.019660422862813096 0.13981317377017424
-0.24522543080521148 -0.019908288778111558 0.13928972577975676
-0.24332209058476012 -0.020269135297581772 0.13859336471484587
-0.23205392189693969 -0.026262829364583115 0.13968460655139373
-0.23211941250038665 -0.026383260549351792 0.13929395770953582
-0.23550063498688262 -0.02679900294666014 0.13889514303134368
-0.22864987083149474 -0.025797585309788804 0.1398086438171713
-0.22868611045551818 -0.025891194404408555 0.13943200206683562
-0.23260140546036284 -0.026378849805638413 0.13870625591205046
-0.23017588384819548 -0.029122064174458603 0.1392402539245932
-0.23094780870152037 -0.028123924793049912 0.14061920738147185
-0.22961069770527404 -0.021464744867131333 0.13929818963931487
-0.23029874392223876 -0.021482149423405747 0.14014153575824187
-0.23578180499744933 -0.022012124122426133 0.13792764043734954
-0.22455510624123137 -0.020783106149479966 0.13938181495593474
-0.22468163200092833 -0.02091456419353209 0.1400157699577658
-0.23118178673458617 -0.021619478524968247 0.13780884838031218
-0.23083961137009185 -0.02152944570903502 0.1365551838867514
-0.2315517974681906 -0.020989248813435654 0.13745676374362395
-0.23893866069984954 -0.022271791757390122 0.13822500801013396
-0.2383674097843222 -0.02236078149203978 0.13719623184131072
-0.23891857393456023 -0.024066726030156235 0.13783298826144622
-0.23892234392834227 -0.022271225513264756 0.1382251272194235
-0.23835465439034026 -0.022358665527150254 0.13719492053912566
-0.2389077258892111 -0.024067500890538315 0.13783412074969695
-0.23745802171898406 -0.023477206291005234 0.1359593162529318
-0.2372433555908255 -0.023671279014393906 0.13538609838412688
-0.2364951533861212 -0.03796095615749083 0.14060013389514373
-0.2369333220310263 -0.03652665978793822 0.1422205457680075
-0.23937782772255461 -0.03743753796939574 0.14002536630557463
-0.23149025567246 -0.03923360473041258 0.1426724681846945
-0.23139478393269103 -0.03796623116855345 0.14458291625903533
-0.23490370937061827 -0.03870267635707579 0.14176194763110564
-0.23240840562058013 -0.03977016574268065 0.13840334510730193
-0.23325023182106536 -0.036078373254582505 0.14084689712451384
-0.23484662302208464 -0.038160423101231675 0.13790588474200652
-0.23446953423691314 -0.03700763946895323 0.14329897260592864
-0.23649649449062865 -0.036198118985936265 0.1456578860275595
-0.23997023828697722 -0.0368958211553546 0.14066540098117278
-0.2279531223363928 -0.03682352072124205 0.1430418381683676
-0.22916765638065856 -0.03694028622035704 0.14535372352527068
-0.23530481882763427 -0.036663243831441025 0.1404977331154196
-0.23003749676418822 -0.036874423087880234 0.1427049527160971
-0.23172529168797057 -0.034879664243504624 0.14457385635302947
-0.23841530211639922 -0.038305649818226914 0.14225690460132048
-0.23835927375031035 -0.03833840257053099 0.14209817743228362
-0.23719796665382903 -0.0398184753072711 0.14019947147296355
-0.23705797024441283 -0.038259486020848374 0.14259647226260588
-0.23694504924488585 -0.038311073840901474 0.14232020473407195
-0.23654084034634154 -0.039690444530293564 0.14058803415225432
-0.23654033370686095 -0.03809754020099364 0.14307462072299407
-0.23726008959484618 -0.037205586494252305 0.14371119832919524
-0.23542986937237304 -0.03800533181552611 0.14136515951083586
-0.23526945837212127 -0.036740193427846055 0.1417240390770285
-0.2364442957229666 -0.035991976321980576 0.14340238666461394
-0.23949307330322783 -0.036663750470921616 0.14008056020663665
-0.2288660419769339 -0.03736756211642943 0.14217947816775725
-0.2291898144073538 -0.03715638285999022 0.1442026982300131
-0.23416604228687804 -0.037406156123921494 0.14042936658786223
-0.23121959098053496 -0.0380959308755847 0.14095078802035735
-0.2331721497364096 -0.03470925456409178 0.14324467277453826
-0.23830022044849913 -0.01920817262057982 0.14642535543368743
-0.2381763172931723 -0.020199517072484116 0.14587437009738372
-0.2373152834959082 -0.019690046371266465 0.14530609941409514
-0.2377589953727774 -0.019731322587773423 0.14764617776797698
-0.2375063312835745 -0.020370701612279038 0.1469887981407492
-0.23706355817986052 -0.020068655074879746 0.14631043767856047
-0.23863804467392485 -0.020709792436406235 0.14836977815555022
-0.23877447970581572 -0.01874456769351683 0.149293590544924
-0.23655317850781005 -0.020143309892460923 0.1476555953018515
-0.23321463294697325 -0.01918257242564879 0.14662455415652678
-0.23322968311977904 -0.019141206802174668 0.1467114577286093
-0.23167927690220397 -0.02026192313556395 0.14416216707156584
-0.23241458960247557 -0.01857400900249205 0.14723299837039397
-0.23240204282475035 -0.018580178083226304 0.14720635509417937
-0.23080913849545043 -0.020033875764653306 0.1448920259468405
-0.23212137945366423 -0.016870359243199448 0.149307657241091
-0.23296100028229277 -0.015620509446904282 0.15017669296191619
-0.23092030115795653 -0.016461262763783555 0.147298801898226
-0.2335335326976828 -0.02039785152797423 0.14366929626391814
-0.2329611790962271 -0.02118171221141539 0.14143954610751555
-0.23204067476463835 -0.022282490791127305 0.14241730070041106
-0.2332530332393698 -0.020587602914616684 0.14322780466006682
-0.23276725538445037 -0.021464238227650742 0.14108877277301238
-0.23206155129147094 -0.02249632245425902 0.14218359088824675
-0.236986802298551 -0.020033398927495102 0.1462992320053427
-0.23653237648678344 -0.02103949552898131 0.145362127780184
-0.2326663894243292 -0.02013016706828795 0.14495097494052336
-0.25165546067429106 -0.030836442769810776 0.14087032174991057
-0.2519814384765677 -0.029731521667286973 0.14138286209033415
-0.25054139025879424 -0.02928311592464171 0.14073358869479582
-0.2502542448825888 -0.030853787721440415 0.14280091619418547
-0.25040131934357207 -0.029449114860341172 0.14343957996295378
-0.2501076770610861 -0.029705265821263413 0.14283536767886565
-0.2506441188640646 -0.0323111510885211 0.1408074984543173
-0.25176403053474944 -0.027167329849049668 0.14303826188968108
-0.250526995737081 -0.03009001380328856 0.1415384898178427
-0.2502004218883566 -0.030855069221303086 0.14149062728808806
-0.25067266948891204 -0.029962668479725937 0.1433240065567343
-0.25191441305351775 -0.029930005134389023 0.13953976726458953
-0.24745395906639617 -0.028876731456563096 0.14211206531451628
-0.2484040571041159 -0.028037080825612168 0.14378677701877043
-0.24940857418251555 -0.028974632085606675 0.14030217027591155
-0.24683685727787535 -0.026328632892415146 0.14200298881457732
-0.24812144168091338 -0.023135671676442246 0.1441743860237448
-0.2482054544277243 -0.024869332374379258 0.1405072102539389
-0.2508890343494467 -0.033595064939305405 0.13844179010318206
-0.2503675235099844 -0.033791104615971665 0.13743262386248992
-0.25065645702553313 -0.03447971707706175 0.13788454627917693
-0.25121468432617705 -0.03244719869022093 0.13918023204730437
-0.25063777096939605 -0.03272522455577574 0.1381810793869345
-0.250432522375112 -0.033701101602360825 0.13830672597812102
-0.2522845876998953 -0.031399736465260605 0.14049719667361663
-0.2525258971042685 -0.031108269752308945 0.14072506523059294
-0.2498923850841574 -0.030698249400899033 0.13949953412936614
-0.24046976991367858 -0.03384570247058592 0.1407605299942343
-0.2402129931039862 -0.035590211213872056 0.13914375400470183
-0.24089464672279876 -0.03483648067836485 0.13978599405215666
-0.24056992061806243 -0.03373209601764403 0.14059530591891692
-0.24029833205414336 -0.03549898630504332 0.13896130418704436
-0.24096883960438292 -0.03473375207309447 0.1396396050445883
-0.24133785196018737 -0.03660152322177611 0.13893489932940886
-0.2413729143924765 -0.036109933913991074 0.13910513019488738
-0.2395900500602774 -0.0362762606752368 0.1384007821075766
-0.2384998960084967 -0.03264180785541258 0.13970981931613372
-0.237773032266622 -0.033168861926838974 0.1381682643883078
-0.23845876880360167 -0.034249762357518296 0.13737820482180998
-0.23816861339283507 -0.032751182378575425 0.13989566659854338
-0.2374416900463156 -0.03327719336871825 0.13835637664721892
-0.23825830348206084 -0.0343187845361682 0.13755105829165862
-0.23871214814854186 -0.033094773353383164 0.1414222607605307
-0.23853626974297087 -0.03333724504832945 0.14126538133548186
-0.23621671028805297 -0.03371889358882628 0.13948201036380217
-0.24330480523777526 -0.032072672904774766 0.13750033473895476
-0.24061352141571563 -0.033072272599980454 0.1339919457428305
-0.23921686537933867 -0.03445375925426207 0.13552193736957
-0.24233648307991545 -0.03231004840259276 0.13609801626132415
-0.24054220445824187 -0.03335116273288451 0.13278536891864226
-0.23875069745255034 -0.03464240795497618 0.1343324670784323
-0.24349354334545653 -0.0341087973726245 0.13711624240802214
-0.2427238685674719 -0.035871455730244736 0.13516728973315642
-0.2384153766222052 -0.03550995355968199 0.1359816083900778
-0.2401221705265097 -0.03297288185481749 0.13971536254809783
-0.23946228750420134 -0.034132341207310776 0.13794885969088957
-0.2403512460775427 -0.03421078091983519 0.13802324628756926
-0.24000941343975585 -0.03301701909427367 0.1397817621223776
-0.23937888570499938 -0.03416139847163878 0.1380209813110678
-0.24030149110031646 -0.03423262602214537 0.13807212209628508
-0.24155831464005034 -0.03502724534396849 0.140071440695986
-0.241725326854711 -0.0347363448751422 0.1402795205108969
-0.23847602434826415 -0.03539071446780882 0.13923626041339324
-0.23718655236435454 -0.03525976306323729 0.1418639907829611
-0.23742489643765013 -0.034096787036702256 0.1439515242569296
-0.24098144598675292 -0.03456536895160399 0.142232883929476
-0.23040384181213897 -0.035387197793767075 0.14229058122561858
-0.23035401232910674 -0.034574071229741196 0.14454912042544768
-0.2350426775999121 -0.034803608716771225 0.14201526737140105
-0.2312892539091162 -0.03679213887576781 0.13973336315082
-0.23304584749413054 -0.03397832280521117 0.143378485202059
-0.23584352560711425 -0.03497583633784972 0.1397987494461386
-0.2358492178506903 -0.03326771623019896 0.1446456799499838
-0.23803462215138 -0.032829532684132676 0.14729039764331267
-0.24417692549896758 -0.03271184331302367 0.1425288805954306
-0.22674338646603148 -0.03264791733150206 0.14408509826587126
-0.22807791956139128 -0.03306649094943724 0.14652042484210417
-0.23561942704391997 -0.03286112314586363 0.1422057638161032
-0.23361574240398925 -0.03392628795032225 0.14252780771182463
-0.2353677166290335 -0.03233317500476561 0.14461063241885588
-0.24314768739414733 -0.03431535726909361 0.14439540004657195
-0.24326293297482054 -0.03425929910068236 0.14467780685351775
-0.24366176255417388 -0.03535653120403014 0.14309142923282073
-0.2412767571992926 -0.03433365589503966 0.14456342554019377
-0.24136695392799895 -0.03431929117564879 0.14474533891604827
-0.24300287790966552 -0.035306761325642685 0.1431997904770224
-0.2418025595731787 -0.034313151897236924 0.14460699653552458
-0.24243523307514708 -0.03342629438762389 0.145659078120455
-0.23898267873001616 -0.0200881457937213 0.14207969999240325
-0.23897914715481322 -0.019979844154164414 0.14225767946170256
-0.24158106871319335 -0.02026102906589232 0.14144091701434539
-0.2364607466049246 -0.02108163601283751 0.143461812495455
-0.23639306553078215 -0.020928422273442368 0.14375965690539763
-0.23938943572712462 -0.021402279199406724 0.14252554273532317
-0.2376410377807669 -0.022677103341862778 0.14114205932544158
-0.23837602265549224 -0.021037588180348496 0.14291619157718108
-0.23859252162647765 -0.021789947809025864 0.14039324617312834
-0.23634204395485442 -0.017444262565419297 0.14224784469531462
-0.2371408952064566 -0.01744834548358641 0.14365868663714812
-0.24063335486126464 -0.018037716211125474 0.14065198993609832
-0.23053097851944487 -0.017181227268025498 0.14224778509066985
-0.23114811011028807 -0.017312655509755234 0.1434094796173422
-0.23625750966740172 -0.017753461660191636 0.140499223231539
-0.23555521794033568 -0.0184498823297473 0.14022003507541106
-0.23669189341736357 -0.017444828809544663 0.14139859771655486
-0.24262257047367614 -0.018784234584614853 0.14101682996676848
-0.24179509409142058 -0.018942723335072617 0.1400571951858847
-0.240508006293302 -0.02092466718082152 0.14044683074878142
-0.24230604000759642 -0.018676618398472886 0.14100842571185515
-0.24143861361218016 -0.01882580882434569 0.14001296853946135
-0.24037367232513945 -0.020822773040577988 0.1404519567482321
-0.24232365318012755 -0.020358750881001572 0.13976417875216887
-0.24220198519897979 -0.020540127815053086 0.13937698697970793
