ply
format ascii 1.0
element vertex 782
property float x
property float y
property float z
element face 0
property list uchar int vertex_indices
end_header
0.18522304257853206 0.3310845526344001 0.16111923147600288
0.18087673148615535 0.3369764717704475 0.16520471264284248
0.17978906592829402 0.3338687451965034 0.16000903536241645
0.19837322792513545 0.334502282965821 0.16163037110727424
0.19275653323633846 0.33670306526486277 0.16794864226739997
0.1877833004902142 0.3354312213546455 0.1610973863736927
0.19760236105425533 0.329982760775727 0.15619111944597358
0.19076243004305538 0.337593320239228 0.16129506517809028
0.18687123021586116 0.3340378435737312 0.155381628765279
0.18143776020510372 0.33717483602826 0.16310093690317268
0.17582809886439021 0.3419103058463752 0.16874573518198127
0.17576259335978206 0.33957076393429636 0.16171527792375678
0.19828548988802608 0.3374947341567695 0.16137320686739082
0.19093736967547115 0.3390213283187568 0.16861886669557685
0.18386834821207698 0.3394330772048652 0.1600677757398426
0.19201499185068782 0.3391886981612861 0.1569963781968891
0.18796399197085079 0.34494740091626047 0.16126150776308174
0.18550553879244502 0.3412864240295112 0.1547448723451435
0.14891037306292232 0.2624434860831916 0.18652550269525642
0.14708411654932674 0.2629877956992805 0.18832839418810005
0.1478386815498608 0.2616201075202644 0.18594614554803962
0.15231695732577022 0.26242208801571726 0.18717447806757087
0.15044951400263484 0.2628233464843452 0.18893385816972846
0.1491516526649731 0.2616418632156074 0.18664733458917732
0.15270295700533565 0.2604984673148811 0.18828959156435127
0.1518834527443188 0.26131397806469797 0.1905165999070942
0.14933600983126338 0.26156545006100534 0.18663496662538642
0.15225192865832027 0.2651765974647224 0.18870637704294319
0.1505704518268841 0.265308323729676 0.1896444051400959
0.15364807805521663 0.2664411696082771 0.18848122049730415
0.1519944067905682 0.2662889989501655 0.18958685685556526
0.15110495647890743 0.2642985614425361 0.18823949386041755
0.15342032870752986 0.2630913885719001 0.19027052213113899
0.15275171360476192 0.26382160507504343 0.19151628900926704
0.14977598151667293 0.26450914465252756 0.18781391669672126
0.14720687231524165 0.2650789054519355 0.18510807444017524
0.14800631961329158 0.2648331555015266 0.1843006699220478
0.150375037998988 0.2635980876571357 0.184359261287862
0.14725023469431575 0.2650882037765205 0.18513704229753608
0.1480726297806042 0.26485532842938303 0.18431285907190437
0.15041843018038448 0.26360166393582224 0.18441397835176582
0.14594772419436153 0.26411152206723093 0.18645633150499458
0.14634758195383724 0.263949099410218 0.18572784353654975
0.14689660033686336 0.26356262289349436 0.18665922571581
0.14724954924090083 0.26281977020565866 0.18800095607202644
0.14733889660341914 0.2628003390914619 0.18793428827684516
0.1498334403942364 0.2609446080810249 0.1874507753984272
0.14817041120035823 0.26334268175427317 0.18791995335977668
0.14821875056727107 0.26333082042996286 0.18788484622400398
0.15002563557131465 0.26122731291119455 0.1879916279451191
0.1451511975239056 0.26219153724972605 0.19001758982103462
0.14533463081820186 0.26206028782193064 0.18980647016924018
0.146022170395686 0.2620579036361396 0.18961475182932014
0.14931625089152034 0.26267540775601267 0.18675629187982673
0.14746239742739375 0.2631323965675056 0.1884372620717823
0.14829009732706722 0.2616938980704963 0.1861433773176014
0.15260386428339656 0.26285857282940744 0.1872749118940174
0.15083891114695247 0.2631263764983833 0.1888649552003681
0.14969932994349178 0.2618210347778022 0.1867421059743702
0.15268459877474483 0.26069349371258616 0.1886811642782032
0.15149900278551753 0.26167804323498606 0.1908103315965473
0.1486991938064831 0.2620968850738227 0.18661657859247321
0.205908268303706 0.2659252318031013 0.1493631093637287
0.2053010757873791 0.268590691912812 0.1512087075845539
0.20232889017565425 0.26843530260388254 0.1483914344446003
0.2126865681122082 0.26660079084698557 0.15045029808443183
0.21183201632006343 0.26814097486798166 0.1529518752233326
0.208033352703883 0.26750398002926706 0.15020422030847663
0.2102359827469128 0.26754302107159494 0.14718923856180305
0.2096188362549084 0.272829714644593 0.15039117027681465
0.2076707776497143 0.2683756383544624 0.14738664914529914
0.20709881147844966 0.2646097572929084 0.15269715477388496
0.20477566084368404 0.2664111288673103 0.15510014583032722
0.2040852602432507 0.2655543717033088 0.15170348574083442
0.2115063365410107 0.2662360104209602 0.15304324914377326
0.2090833481262463 0.2670500310546577 0.15568892051141853
0.2076826389740246 0.26624113642041086 0.15244916964929695
0.21061155161364253 0.2670097383147895 0.1523661999837696
0.20959714016421016 0.26940042101208567 0.15405262400072212
0.20868024191363033 0.26784426294628977 0.1506802528039753
0.20622691473467525 0.2638297113067329 0.15008656073969
0.20643296799166377 0.263948562968415 0.1502721099988758
0.20677229723437007 0.2636063130981147 0.1500960080758869
0.20698711237414058 0.26527262054745554 0.1510900049344837
0.20706012806399043 0.265388193953675 0.15140558172624702
0.20638534388048824 0.26472229086224436 0.15097344805162544
0.20477679333193477 0.2666742833739936 0.15174285460870857
0.20397224983675655 0.2684506806022346 0.1527522890703022
0.205650597424342 0.2673450144416511 0.15114752341669196
0.15554836353762325 0.3254594238883674 0.20965508510034675
0.15135851463778194 0.33142572962109446 0.21383182097833747
0.15033510288698848 0.32928669773404 0.20903865386407966
0.16694599351389583 0.3279223474151313 0.21227381516855354
0.1608168776939648 0.33146983705822824 0.21792928267877693
0.15747016629679378 0.3293678792602241 0.21238616992395515
0.16498294434054073 0.3283961447364509 0.205906131757909
0.15934917292101558 0.3370512755996406 0.21052745868127937
0.15638327559931453 0.33200514637295603 0.20523367215555305
0.15261894425852474 0.33238506637875437 0.2107679038183033
0.1484296616028088 0.33539837919537424 0.21602241088312263
0.14687970242006954 0.33435660921398996 0.20981196452539558
0.16546636781199153 0.3345197471267402 0.20993552495401496
0.15886297783358272 0.3352512153274238 0.2171705155507862
0.15542718729479488 0.33403736673657297 0.210453250898534
0.1604584153602856 0.3341978224403083 0.20635704089563484
0.157024949402644 0.33997285686795115 0.2108490257398426
0.15410733184321102 0.3363775046950996 0.20489553500574226
0.14874651989443477 0.3281967671996772 0.20822266627710456
0.14742091259463008 0.32967150532070993 0.21234951306741828
0.14698108992083248 0.33079862915341257 0.20834259082239265
0.15407696327669795 0.3322425516730964 0.20875940610330695
0.1503297086666363 0.3338970574027717 0.213280239595586
0.15058132967455562 0.3322537573463142 0.2098102359906971
0.15283590516550716 0.33085292898480295 0.20644978572290534
0.15182042083246883 0.3350563081390083 0.21000699092310066
0.15022271832926448 0.3328698905593574 0.20613167573373908
0.17089769205553706 0.30173504673306345 0.1888858466283619
0.1670310493419903 0.30671060406033396 0.19250203062456245
0.1656757291267651 0.3051592143661201 0.18825931240480537
0.1803878541897076 0.304734114039582 0.1894121258394062
0.17498421630366023 0.30717587791745066 0.19447750736635322
0.1722106035660046 0.3055747779494941 0.18968246270578498
0.1795423325012463 0.3045260342246711 0.1844157366887867
0.17547520956499751 0.3106220396644294 0.1889778463975727
0.17193284592135127 0.3072639735824287 0.18394885350626106
0.16970807275278743 0.3071339162475288 0.18771515180032844
0.16494867166979488 0.3092373641616523 0.19213504482668037
0.16370558700068172 0.30827069603268503 0.18689093877237434
0.18079140743715938 0.3099841507560432 0.18588016320627326
0.1750518973778027 0.30993187748257517 0.1919988482133686
0.17184057793123897 0.30874485098187326 0.18658239532869453
0.17731881103022273 0.3084286483413398 0.1841025440828144
0.17452248892290767 0.3116892608291328 0.18807459761064643
0.17084950170023616 0.3103548916465461 0.18257770825784797
0.16760569772226985 0.3041079672462165 0.18535951663416023
0.16653343996508296 0.3054735096580207 0.188508191599065
0.16594341358645137 0.3059533270484626 0.18544075776498908
0.1711581941555279 0.30786305986706614 0.18555656958978767
0.16836568674547847 0.3090615900642097 0.18908751894395942
0.1677952106903332 0.30775887094799875 0.18641916800897712
0.17071807345850643 0.3071811231261909 0.18409661342065925
0.16809925398333248 0.3109306129104316 0.18705202032487983
0.1678788062046307 0.30924189411465525 0.18363783646982307
0.2057043608139294 0.3096389802581489 0.15389341999452705
0.20473644098742183 0.3184580238944709 0.15723113109033698
0.20274618229372676 0.31386047922436594 0.15205092121523017
0.20469835361941036 0.31876218639675974 0.15524823357027168
0.21993967852099117 0.31118071399990915 0.15601361681383247
0.2155884202430981 0.31757194124523996 0.1608651368753254
0.2117545898865002 0.31326610170666574 0.15487433363359565
0.21350774130327876 0.3139351638442695 0.1572567610875904
0.21822789272768672 0.30893141352002024 0.14843509484689826
0.2139879759262341 0.3203471931106269 0.15196845818918342
0.21056386789782222 0.31270027481381296 0.14742473651331062
0.20479831060869869 0.31454444252316355 0.15415469695489997
0.2023585732887524 0.3196697863227546 0.15858588506143684
0.20005270800097164 0.31734967552487253 0.15140111137788886
0.21942689976198848 0.31694972835842966 0.15389192987840766
0.21307542881472286 0.3195644053107917 0.16038952161234016
0.20862284264071163 0.31818884931866526 0.15226749469202155
0.21634063086016353 0.31789046846691965 0.1482918350831806
0.21104916891558345 0.32760888658825754 0.15273765613000984
0.20894572100145992 0.32126683317486643 0.14674673367899055
0.17338979205591853 0.2701170476562202 0.17125714708726997
0.1717145737121838 0.27413016878430246 0.17530290175836677
0.16986745557291683 0.2734361919051826 0.17019976068895454
0.17834114989741023 0.27294797025982737 0.17345962811868781
0.175339877219035 0.27744090877835154 0.1767652421132862
0.17312025985224422 0.2752807768470466 0.1719996719495594
0.17666923961146053 0.27598476730648874 0.1710679321424305
0.1738415654609936 0.28456676327053904 0.17331493784349555
0.17402598223192867 0.27915102564160227 0.16922218490999336
0.17249020895464595 0.2725729378349006 0.174350955976659
0.16995677313311275 0.27372503601376413 0.1778462319509327
0.16982185801966365 0.2735684546119392 0.1722585647241413
0.17817884644968685 0.2764813932067573 0.17391318966310615
0.17389360031588252 0.27750534139935373 0.17806423593919868
0.17282250484926875 0.27592999063794016 0.17318204928796882
0.1767366524647015 0.27706957184140085 0.17290569235246772
0.17308199367029842 0.2805464895850837 0.17581761766832465
0.17351913413508113 0.27902877651516794 0.17193565656107063
0.1750213499973553 0.2665212782508552 0.16810704161089057
0.1746909614513653 0.2661511334068 0.17102036763589973
0.17633390387995418 0.26964533649746775 0.16881374408167
0.1733026798675793 0.271594408381623 0.1706198542253315
0.1722045536945599 0.2724117072707832 0.1727056889669239
0.17357724866373714 0.2725644143706977 0.1708351760045826
0.1706842478225964 0.2756957443839729 0.17109707881372566
0.16851460895044978 0.2784792812949836 0.17271284152429695
0.1715685125301617 0.27816355549160837 0.1712233810560047
0.15692740640146907 0.3246112497932136 0.19131926585596198
0.15382915696604427 0.3323903711921394 0.19639567424219245
0.15237581691248592 0.3306103380805671 0.19119999696176643
0.16471800169451412 0.3334552677756965 0.19433546949785346
0.15872102937205013 0.3397405179626167 0.1998336105481922
0.15559419950945552 0.3365104826575935 0.19374749947946662
0.1612375970791119 0.334320250380677 0.1876757531301319
0.1586881574104565 0.34402954899136423 0.1926777153150379
0.15552723369105037 0.3380265864021003 0.18715132166307563
0.15072312912447627 0.33601713501278757 0.19017604876917
0.14666417202456172 0.34150934540097116 0.19675866652887458
0.14601811727984126 0.3406334551459968 0.19036875058572883
0.1607904430340069 0.34385824524227976 0.19167516518991584
0.15294083914263423 0.34762746416394114 0.19838712502878303
0.15098279675944026 0.3452774914390266 0.1912519126073658
0.15635555943949397 0.3440174492484748 0.18622390319269294
0.15358847341044124 0.3519056471473396 0.1915863542692005
0.15181753000719722 0.3462859424239814 0.18522075702112312
0.15378844699366268 0.3262128862029731 0.18637893487375373
0.1514058109234112 0.3313655289298713 0.1931316344873249
0.15241372546656307 0.33342171036068796 0.18892959643762702
0.15423104128344234 0.33886552177731394 0.1894487230912983
0.15035214981539424 0.3420028718597114 0.1951227872506916
0.15138059815867122 0.340844634402436 0.19082904745500678
0.151992469639613 0.3384515079147041 0.18576494742792243
0.1509453948448437 0.34519350849453806 0.19092799116533393
0.14972194990618404 0.3419159086829841 0.18617055703561897
0.1479512747238415 0.30634516798321604 0.20842937518518562
0.14599755367739375 0.3093628319389045 0.2124160914556324
0.1452066596458691 0.3091163071281135 0.20820895720880622
0.15491598805887874 0.3079208167678535 0.2106167464391529
0.1516734953830975 0.3111299904472053 0.2146104364530384
0.14917814692957576 0.30968171678845285 0.21056655932825202
0.15215823015673335 0.31149775110546946 0.20711044360559577
0.1485252972553509 0.31896394811932444 0.2104167132512867
0.14815631470186885 0.3147068055755317 0.20622209597986335
0.1501585241268414 0.3156231077796638 0.2090409784452259
0.1496232148121136 0.30785531126324533 0.20968733121317024
0.14867317637903865 0.3076795371658027 0.21411965180795783
0.14711904487116512 0.30987644516293406 0.21007732440393562
0.15447005590899165 0.3132352265006721 0.21027723838251228
0.15025985202295955 0.3143403562194526 0.21563170243661994
0.14883553943140682 0.31315124355618357 0.2116306214467823
0.15034517607195552 0.314131143916291 0.20928714562814826
0.148941635699107 0.3176713617927253 0.21324477483194465
0.14777311644060787 0.31613308512036203 0.20921323586862678
0.14776653012736018 0.30321103655163645 0.2056903629438221
0.14809963068468746 0.302662375796479 0.2083051591054737
0.14867123922808345 0.3067437442428291 0.20763973285120124
0.14693728050692256 0.30973744713131784 0.20763806392114753
0.14652913770182308 0.310551825392884 0.21023885299127693
0.14655318817598995 0.31112987123791574 0.20937482406061286
0.14649942478640254 0.31000405870739817 0.20726648856561775
0.1450758870552319 0.31366914831463694 0.20981440831583137
0.14691352805597957 0.31315172039334177 0.20810601998727912
0.17927887997133907 0.29730445467297434 0.1615527360574543
0.17932787498934444 0.30840891920391916 0.16569719602029914
0.18150690159304317 0.30747884832684397 0.1610048501626789
0.18181943854792293 0.3122629555350959 0.16521922637384528
0.17960184773905452 0.32018554531399607 0.16868166018884773
0.1798673566292065 0.31578576885525583 0.16407925774019355
0.18004399499399837 0.3123233350402534 0.15823636342447395
0.18025237283213313 0.3265985282546699 0.1611329703466236
0.1772060390423077 0.3176810773498237 0.1572230844632923
0.18052017650110896 0.30502778612439035 0.15805179764192695
0.17963567337496456 0.31277340971295237 0.16416273404520149
0.1807111795852917 0.31440872274701 0.15860474993150825
0.18172231277926143 0.31912809931103586 0.16235727955263252
0.178821265311076 0.3229486974364936 0.16746429492395515
0.17886757812006648 0.3213397892600715 0.16191566873949165
0.18158379158480342 0.3208554419166267 0.15757737447183723
0.18041488489611324 0.33016628347699045 0.16219196607034797
0.17803442439539607 0.32449126564328074 0.1576013951436817
0.20165416559679683 0.3231485518104255 0.1518786339895069
0.19949576220019039 0.3322111400252998 0.15627137710016364
0.19747903904421504 0.3287417324668586 0.15069709111612434
0.21359887680514034 0.3294119270927131 0.1535375206605732
0.20779886803133663 0.3356364997512519 0.15835625816743965
0.20587494930727657 0.3316528233176887 0.1528104035989582
0.21164926847918208 0.3253846200591743 0.14641849090021247
0.2067802246521252 0.33649361454312204 0.1513264565603077
0.20310518106920894 0.33012944780651926 0.14602307368677253
0.1977208550880688 0.3293284209853828 0.1520695178644001
0.1932877894352215 0.33603412233654856 0.15742937613885993
0.19157901367647823 0.33375937067334055 0.15015474845331306
0.2115496691177624 0.3350029023772895 0.15093559910219306
0.20444640478594478 0.33809310518566965 0.15786973525446052
0.20021197161181148 0.33674156986538767 0.14984009553354377
0.20898321232302364 0.33399963699643015 0.14533317972581977
0.20285424551470455 0.34310770355526804 0.15103510905664558
0.20058616957171138 0.33775842510525583 0.14455653120439643
0.1829910572479504 0.3117330106383979 0.18580851842325324
0.1813707049797314 0.3266062172538459 0.19267592717569465
0.1768684085319775 0.3211551936752021 0.18572840978067512
0.19496342501146968 0.3251435788757026 0.1868474571840107
0.18821966609461482 0.3374146255141914 0.19267810274522895
0.18498575648768123 0.32985598169628977 0.18585208941858405
0.19154471120341 0.32377332769696116 0.17827860404413337
0.18753388485415157 0.34082246147457956 0.18428353358667487
0.18140035829050716 0.33059305273358225 0.17812661219995612
0.17860841712458309 0.32062805019680857 0.18326852609079475
0.1746287640045422 0.3334885271674812 0.19104857136171455
0.17154592236979183 0.3290268214828193 0.1824267296926319
0.193946837992503 0.33530289255444407 0.18403793264787788
0.18535196742518123 0.34187919222180246 0.19106576730173225
0.18054664096338924 0.3385556372291267 0.1824712841646015
0.18928217849238094 0.33659947239224314 0.17606569219987983
0.18309256395800289 0.3521450790054023 0.18312022973459358
0.17957323750956233 0.34231281601254343 0.17586387087267036
0.19706842264635738 0.31473309122387766 0.1688481359617054
0.1960215862701672 0.3261233600265205 0.1735706119672596
0.19393140038950618 0.3211494120246589 0.16751653839510078
0.20977839788897212 0.3207708629256904 0.17060864855211372
0.20421108564837154 0.32996112428967356 0.17574305225771064
0.20108583530886348 0.3245862754470527 0.16926426578920478
0.20661655029757198 0.31935239158932566 0.16278282691400642
0.20284506639940914 0.33395433746640085 0.16730193187158698
0.19897189697725948 0.3251176508552253 0.16204104710977668
0.19539967140658077 0.31738567673031687 0.1681559174196064
0.1929763253639477 0.32866388880078196 0.17438698698442573
0.19184631070597347 0.3245139154082954 0.16680578280847663
0.2091858085106152 0.32524568163220285 0.17002824832361335
0.20289924702150997 0.3313619526511848 0.17682636667650337
0.19784161409838374 0.32866657100979685 0.16854686428468818
0.20523026546938594 0.32877487264935373 0.16288853575151557
0.20138815006716426 0.34219217621151804 0.16850207139413947
0.1983213122795361 0.33282882295910715 0.16196210075777168
0.16999265512926753 0.3186808856612861 0.20562312890451545
0.16791206559641536 0.3243799837714851 0.210065284265691
0.1660334464023846 0.32212269626919626 0.20459620047968025
0.1806879039715069 0.32168120466534494 0.20768646289270515
0.17624801358683284 0.32600212417904734 0.21218506385248298
0.17256087026102718 0.32371181570355295 0.20672200013559455
0.18035262784464534 0.31907433592144846 0.20104435969751472
0.17574924191935237 0.32840842329327463 0.2054951577321827
0.17257589063151058 0.32321918331448435 0.20022366334360236
0.16312584242327388 0.3262643250114143 0.20552674819391364
0.16118761858446773 0.32783454977337717 0.21038339425485725
0.15809288582308467 0.3277538450843513 0.20323375750940437
0.17544648012621578 0.3286454113609016 0.2042235522405445
0.16951066216929134 0.3306060465461433 0.21038750697534675
0.16669529637797054 0.32901442371670603 0.20370326329630012
0.1730641420791882 0.3261851104385078 0.2002323060170948
0.1691460009525555 0.3323959144241035 0.20476571608942146
0.1665645833919781 0.32889879070584177 0.19896403838556403
0.14951938352091487 0.31504673086468576 0.1866188137666523
0.1509294506023663 0.3158829244262397 0.19060263921182746
0.1493901904533642 0.3184924753791511 0.18698806454103584
0.1537021692703503 0.3189071448928535 0.19073078919809455
0.1519646044681805 0.32332212053601145 0.19379801441591377
0.15212458333475765 0.3210622700339973 0.1902365772859394
0.15070277413828548 0.32059103571240305 0.18692744661729926
0.1503214832256573 0.33036488615338205 0.18893004347246284
0.1501909192512768 0.3243668111449897 0.1854620068208515
0.15220668873293575 0.3284531267768562 0.18833420564096565
0.15129697284205135 0.32010490022961496 0.1860897927419483
0.15143942794306453 0.3185351523048103 0.19085172702234382
0.15062090715868648 0.3235318096763313 0.18724117566507453
0.1536709066341656 0.3263536723739326 0.1886026947633564
0.15087714752657588 0.3283925684577644 0.19313878704469795
0.15145334562761958 0.3273425134307563 0.18959228087823982
0.15255081614954646 0.3249791296607673 0.1867062537805378
0.15111827811701473 0.3306854995376289 0.19032997776430244
0.1512871678779858 0.32822746359173655 0.18667820979517097
0.15154394468767818 0.3161862524635017 0.18089596320551032
0.15104609689219173 0.3158408435470283 0.18178678442400092
0.1535147126625317 0.32072782837216257 0.1834575622216999
0.14964604339106258 0.32152283512417673 0.18384478379648322
0.14962726792795833 0.322057488787812 0.18524206568163032
0.1520527597378033 0.32453894935910105 0.1858737855092823
0.15005439481241878 0.3222114475852668 0.18326441337030525
0.15007787904246028 0.3256706031448066 0.18540594865244026
0.15234357079966243 0.3268167408591926 0.1851892857686817
0.15069758853419002 0.319259944785279 0.18380675603311653
0.14965045413477596 0.31786114298169016 0.18514008213441963
0.15172281822664913 0.32376653276745676 0.18600473691385383
0.14814087709887203 0.32687497459713816 0.18730837990205879
0.1475250419090527 0.3273996742850959 0.18937856842439765
0.14922535380823787 0.3285274537688911 0.18896917392175788
0.15114009341700252 0.32639324985806345 0.18486536432664985
0.15113171896441158 0.32896811090771555 0.18832374502580757
0.15236511787874873 0.32943529211346506 0.18661064793031806
0.15503856501085933 0.2779540451652229 0.20060984183710212
0.15392655095560726 0.2785713704711616 0.20224569131296272
0.1548131402443188 0.27761763655011057 0.20056734372537727
0.15714546999437984 0.27854317747418283 0.2015627412931263
0.15581190547449764 0.2792531880027473 0.20319936562936897
0.1556133624027508 0.2779465349799812 0.20159939814966316
0.15639975628359493 0.2784664662963569 0.20165167142313117
0.15396171769602474 0.2806858452445686 0.20357862998407478
0.15409982165796932 0.27944875084225534 0.20105252553384895
0.15652829370005306 0.27910161339108347 0.20192102481287116
0.15561324319346126 0.2792750033027351 0.20308271933954353
0.1562573905895489 0.27777952276532053 0.20250640202921028
0.15806314310534175 0.28048563324276804 0.20241520692270393
0.15702921113474544 0.2805232437736213 0.20370898534219856
0.15660506448252376 0.2786951693183601 0.20320884276788825
0.15388929805262264 0.2803247007018745 0.20401517440240974
0.15266323050959285 0.2814301284438789 0.20551470805566902
0.15304708442194637 0.2809328468925178 0.20336262275140876
0.15181085428698238 0.2783308657294929 0.20070181180399055
0.1519171293686169 0.2780801089889228 0.20042298127573127
0.157843619198634 0.2776633533126533 0.20020941783350105
0.15169241985781368 0.2785509856826484 0.20081410695474738
0.15190893372996028 0.2783293756133735 0.20044896890085334
0.15773400625689205 0.27778429113690256 0.20051489163797492
0.14959064087374385 0.2799471052772224 0.20091042806070442
0.14967802128298457 0.2799206408149421 0.20082072307031745
0.15269646009905513 0.27966916881863474 0.20218221236627693
0.15178453883631404 0.2773329647666633 0.2018262534276783
0.1518192585418957 0.27731371246640085 0.20178369571130866
0.15657532176478084 0.2763520511275947 0.20157680798929328
0.1522755618999737 0.2779500516540229 0.20181010056894416
0.1522867377708691 0.27794391237561106 0.20179382850092048
0.15640798172457393 0.27666968427960276 0.2022048025266468
0.1501437421749371 0.2792168291694343 0.20260039855402107
0.1500442024181622 0.27931410394970774 0.20278785516183967
0.15268826446039852 0.2792858513480842 0.20367989827554817
0.18707978686793025 0.28322762571637033 0.16798401762407417
0.1864899095009106 0.28475880943600534 0.16935414959352607
0.18648368081553157 0.28508282028500437 0.16755432773988838
0.19073492249949153 0.2838586600906074 0.16910956193369026
0.18969663938982662 0.2857095631248176 0.1704764752523243
0.18817335328562435 0.2854095133430183 0.16887466002863044
0.1889034803818005 0.28598964535061716 0.16726080466669196
0.1876032944629925 0.2900554569846809 0.1691104560033619
0.18748617133600887 0.28763664089505075 0.16687590767305488
0.18581718167765315 0.28382045351330637 0.16879887272279853
0.18402206859095271 0.2851339014655769 0.17111993719499702
0.1852161880443829 0.28481793724362253 0.16861499239366645
0.18812805375559505 0.2864306005126655 0.16913546015184516
0.18575260004503902 0.287602606642884 0.1714438288347065
0.1857857998321789 0.2866078647262275 0.16934669901292915
0.1888676281879681 0.286057892668885 0.1693969159261524
0.18705272635920223 0.2877573403007209 0.17077947546404
0.1880782838772076 0.28690839134518503 0.16826645423334236
0.18775895199282344 0.28572982870404123 0.16716499020021552
0.18756321033938106 0.2854707273132026 0.16670165349405403
0.1904031928489941 0.28530347667996286 0.16829238225381965
0.1875360008190411 0.28659612261120676 0.16760931302469367
0.18715867361529048 0.28627711855236887 0.16711229969423408
0.18992352447016414 0.2859192522651374 0.16877187181871528
0.18620952925188716 0.28802270017926096 0.16900853206079597
0.18667018374903377 0.2879334720260322 0.1684165089265644
0.18712553343279537 0.2882543834335029 0.16913128782671089
0.1871162649105328 0.26114619098965525 0.16798836876314277
0.18731069526179012 0.2608566316253364 0.16761670400064582
0.18801125845415767 0.25964695535961985 0.1671829908029377
0.18804863056643184 0.26110691152874826 0.1680607288019001
0.1882727440307873 0.2608965667373359 0.1676070778505146
0.18832102379305538 0.2598127158767402 0.16720027614992256
0.1884219940613049 0.25977337681118845 0.1687880842820942
0.18847683033449825 0.25973773323361277 0.16871384669702644
0.1881184574077862 0.259365084994477 0.16813061524789924
0.1925038095424908 0.259898486960572 0.17095682908456916
0.19251862129671748 0.25987190328900217 0.1708450703756153
0.19095960220797237 0.25796950184170603 0.17059794951837653
0.19353142342074092 0.2598485382682502 0.1711497991220295
0.19354641398890193 0.25984341226879953 0.17097727347772712
0.19154456219179805 0.25814164005581736 0.17060057212274665
0.18890482148630794 0.2596102388984382 0.1730479388372242
0.18941900095446285 0.2592549356109321 0.17256916452806587
0.19092255792124446 0.258502903807801 0.1717077880040943
0.1901314552734631 0.2597381504661262 0.1685364334718525
0.18949818572504695 0.2583602698928535 0.16797129203241462
0.19402915200693782 0.25661743007962107 0.16845498372476692
0.19020831546290096 0.2595943244582832 0.16764295984666938
0.18894287905199703 0.2576496037131965 0.1679909317628681
0.1951932009170788 0.25619238935772776 0.16752410818498725
0.18266460260851558 0.2581616672164619 0.17040590335291023
0.18337136468393977 0.25697398506466745 0.16806424547594184
0.18665090164644893 0.25644165598217844 0.1696752696172535
0.191978722424342 0.26373827778164743 0.16973955322664375
0.19222003182871517 0.26383102260891794 0.1695034890310108
0.19013392886622127 0.2608210476524055 0.17052177478235359
0.19210502466662105 0.2637497218734443 0.17004794765871162
0.19228905400736507 0.26387560688320993 0.16981900621812934
0.1896317597339886 0.26104790293042063 0.17079983045023078
0.18825596532328304 0.26365590416256784 0.17304030944269294
0.18801975211603816 0.2633537086135566 0.1717426865236103
0.19008094033701595 0.2627985509521186 0.17118904878061408
0.19568234643442806 0.2726857694274604 0.15268889953058357
0.19531330427630123 0.27791339479748606 0.15833778072755927
0.19233164152605708 0.2782428892738044 0.15292654324930305
0.2022076543281811 0.2764576109534919 0.15517000247400398
0.19776740631563838 0.28333461605374216 0.1586915640966236
0.19628760179979976 0.2798531087524116 0.15463159371774787
0.20035907587511714 0.2787382038718879 0.1497095017568409
0.19703283867342647 0.29119003139798044 0.15311590720575446
0.196386783928706 0.2827759417182624 0.14974425126474494
0.19766303858263667 0.27164417826001047 0.1589168398515522
0.19372150263292964 0.27501976810757517 0.16403276611726875
0.1926290090988415 0.2754825385696113 0.15799117971819038
0.20359459480745967 0.2783888014442146 0.1586366086141407
0.19778588375551875 0.28084892355267405 0.1629231064454853
0.19749471506579097 0.27897668205563425 0.15795243669908637
0.20138338169558223 0.2803980144149482 0.15658692408960456
0.19806083998186763 0.2851854594833076 0.15998909760873908
0.1973524387787121 0.28257102094952463 0.15584201504152412
0.19985011181338008 0.2662308248168647 0.15555177022379035
0.19824412426455196 0.2668879064208686 0.16131750632684821
0.1986194547127026 0.27152937971417307 0.15707085420053596
0.19739279112322505 0.2753936680442512 0.15837965299051399
0.19514873585207637 0.27720016561810373 0.1611443846360981
0.19642308315737422 0.2768257888442695 0.1583760171071827
0.19615086874468501 0.2785764964706123 0.15765027095239753
0.19323882421953853 0.28433931194607615 0.15991649915140266
0.19576761087877925 0.28225803695980906 0.15760452438753242
0.1668840344856518 0.26183182321850657 0.18339324880998725
0.16565865239603694 0.26244151912991404 0.184642681373769
0.16212758383257564 0.26170087181393503 0.18312177945535774
0.17121091446383174 0.26196098648373484 0.18320993472498054
0.17078441342814143 0.2620422276145637 0.1845857589380085
0.1651614900539654 0.2616437705642402 0.18288324166696662
0.17028683385355647 0.26083231293026804 0.1840795068876087
0.17055427989466365 0.26102173649136423 0.18605769564073676
0.16805353722078975 0.2609605225211799 0.18291852761667365
0.16979020795328792 0.2653070720321357 0.18525485087793464
0.1670565005253094 0.2654054793006599 0.18701047588747138
0.16495570501787837 0.2638708981162727 0.18523270775240058
0.17289474567873653 0.2659768494254768 0.18461103130739326
0.17061731180651363 0.26565963350598215 0.18645573545854682
0.1654698248813885 0.26443285070721506 0.18506983806055183
0.16981869897349056 0.2640033396369636 0.18658761073511237
0.17024829945070918 0.26391601883236765 0.18746767331522102
0.16809961161120113 0.2640173467284858 0.18440840531747932
0.16532877048952754 0.2623830469733894 0.18340978909891242
0.1655078526447552 0.26181102119747995 0.18288300324838752
0.16807091197474178 0.2603332432395637 0.18373168398302192
0.16517454347117122 0.2623505624419868 0.18333519388597602
0.1654191907356518 0.261727157462281 0.1828426211015522
0.16814807018740352 0.26026678406063913 0.18363178659837837
0.16109013518793758 0.2616949113494575 0.1848477809564411
0.16159304937822994 0.2612473400718391 0.18364776064317817
0.1633278127620953 0.26072597824398874 0.1844959049360096
0.1680788393924969 0.26480681024853586 0.18630544234674568
0.16764014920695003 0.2648239167815864 0.18664286424081916
0.16740369758112605 0.26278812013928293 0.18637565661829109
0.16784909328921016 0.2654035123473823 0.18651426721971626
0.16749191245539363 0.2653542789107978 0.18682629753511543
0.1663764115284222 0.2632718118316352 0.1867980151311695
0.16423472723467525 0.2647260459548652 0.18837923695009345
0.16430863699419673 0.2645798357612312 0.18780116130273933
0.16578233203394588 0.26369947515789866 0.186938264860326
0.19093802532656368 0.32161283813778757 0.1514562158719837
0.19012647828562435 0.32933312975232004 0.1551510481969654
0.18959805330736812 0.3263284000045478 0.14983642984789008
0.2003810103843945 0.3260201247817695 0.15476114441316718
0.19603869280321773 0.3329234155303657 0.15866000343721504
0.19515550097925838 0.32851547323529123 0.15323997427385444
0.19677081665499385 0.32992554031674265 0.15669665624063606
0.19868370851977046 0.3239495190269172 0.14756707240503425
0.19541764220698055 0.33591419779126047 0.15074993063371772
0.1934898193786877 0.32856995188061594 0.1461738138334095
0.19145736059649165 0.32288498007122873 0.15064186741273994
0.18995711168749507 0.3289091023093879 0.15569681812685127
0.18948611578447994 0.32805312000576853 0.14928791810434455
0.20020642837984737 0.32892787777249216 0.15215311337869758
0.19550162515146907 0.33278841100994944 0.15770665694635505
0.19370648226244624 0.3307401569968879 0.15097896148126716
0.19992867073519405 0.32876199804608225 0.14655266095560188
0.19574066957934078 0.3385958107597053 0.15152496982973213
0.19395112952692684 0.3325871857291877 0.1459608762399494
0.16264805159075435 0.300017956126374 0.17391581226747627
0.16099500617487605 0.31321811996762156 0.18033672262590522
0.1573323007534283 0.30720687233273386 0.17303867031496162
0.17595156988604244 0.3097613485938728 0.1748554496900379
0.1691758032749432 0.32072139107052683 0.1810505478517353
0.1650132831047314 0.31411868654553293 0.1736502735750019
0.17111927232248958 0.31044102035824656 0.16677893091600532
0.16756275257570918 0.32690120064083933 0.1724339215890705
0.16211947760088619 0.31642592274014353 0.1660644500390827
0.16164553126795467 0.31185013376538157 0.1692034094468891
0.1570551987598675 0.3184356125480354 0.17683918167513007
0.1535398658226269 0.31703961216275095 0.16863576461237068
0.17542430719835933 0.3235057624465644 0.16883862902086372
0.16567075213892635 0.32716250740353464 0.17625213552873725
0.1622115071724194 0.3246633442527473 0.1678327708379566
0.16955611071093257 0.3227646382934272 0.16313386846941108
0.16380676588518794 0.33421326004330515 0.16992456604402656
0.16135573348505672 0.3264246615058601 0.16248262812059516
0.15219187697870906 0.2902002962714851 0.17845324565332527
0.1495687361667889 0.2937895091659248 0.18227131058138007
0.14884319862826045 0.29270238004986643 0.1785597293512165
0.1622519489238995 0.292105141509217 0.17931936074655647
0.1555283661793011 0.29472983204190134 0.18477643419664497
0.15294545850260433 0.2932921680099189 0.18028605867784614
0.15798956117136653 0.29742509447399973 0.1754283099309742
0.1535711284588116 0.3033358486777961 0.1796939461366474
0.15138903221590694 0.2992252143508613 0.17525641013544196
0.15208953580362972 0.2943758400565803 0.18053493787210578
0.14905947408182796 0.2951876553184211 0.18446193028848762
0.14851510486109432 0.294422093260926 0.18099609900873298
0.1600132580707806 0.29857307993237375 0.1794597594873249
0.15479382833941158 0.2980735334045112 0.18550036240976447
0.15114006361468013 0.2972894939071357 0.18082786489885444
0.1551425751159924 0.2988183530456245 0.17883745719354743
0.15243369302256282 0.30169028364483713 0.18267876793306465
0.15009102186663326 0.3003814848548591 0.17771724749963874
0.1487956341217297 0.2919996412879646 0.17780146886270637
0.14790669044954952 0.29267829977337717 0.18016443540018195
0.14995509347422298 0.2930187615043342 0.17828247834604377
0.15164184531672176 0.295670393336457 0.177606651081258
0.1495708819340008 0.29642325960461496 0.18057746578615302
0.14941817483408626 0.2951729329711616 0.17917264391344184
0.14944606980784114 0.29695850931469797 0.17752490331094856
0.14759194812281307 0.2995611461288154 0.18073491145532722
0.1485495563457745 0.2980669768935859 0.17809707809846992
0.14936351737482723 0.29200822435681223 0.17928651858728523
0.14817059001429256 0.29237556778256296 0.1820237426893055
0.1494560833881634 0.2926830085403144 0.17975593496721382
0.15256416758997615 0.2963754566795051 0.17900265146654243
0.15016758403284725 0.296697381365937 0.18262983251970405
0.14910089930994685 0.2953618200904548 0.18071279813211555
0.14968672356112178 0.29704767786328196 0.17921517182748908
0.14793348273737605 0.2994809182769477 0.18265388299387092
0.14811009129984554 0.29825121485058664 0.17942217875879402
0.15865105351908382 0.3357774647361457 0.20533756305139655
0.15212848743899043 0.34017753921810984 0.2105082659856617
0.1502197977016705 0.33853823267285227 0.20540789653223152
0.16914135179026302 0.3397780092841804 0.2070466666356861
0.16080322823031123 0.341216150153321 0.2138312845365345
0.15716141423685726 0.3399494322425544 0.2081830887929737
0.16926410755617793 0.3411181005126655 0.20204679061334724
0.16302341184122737 0.34593028150860666 0.2071922211782276
0.1576280590008038 0.34417963348690866 0.20138130475443
0.15319728812678035 0.34336203657452463 0.20555690814417
0.1464542444656628 0.3470422061568916 0.21119699765604133
0.1453914340446728 0.34514266573254465 0.20528105784814948
0.16670688948137935 0.3461304935104072 0.20515225221078986
0.158685505003764 0.3460273774749458 0.21311090279977912
0.15339654645426448 0.3456480535155952 0.20559630681436653
0.16242441496355708 0.34509039245907663 0.2014554529325306
0.1577091511200207 0.3494494589454353 0.20564279843729133
0.15355625709994014 0.34741497360531687 0.19957450915735359
0.14944729170305904 0.34053016029660105 0.2036277442113697
0.14621415695650752 0.3424412640220344 0.20775238562982673
0.14525186976893123 0.3420569332725227 0.2040828256742298
0.15566867551310237 0.3442100914603889 0.20365444709222907
0.15166097840769466 0.34480554186169504 0.20895681668680305
0.14927330574495967 0.3437445195800483 0.20475218583505744
0.15458750686152156 0.34170627914730906 0.20164350558679695
0.15306621751291927 0.3443599375373542 0.2056365399495899
0.14995300731165584 0.3432465823775947 0.20081994820993537
0.18718704542620357 0.2990450295097053 0.1469258456365406
0.18605893811686214 0.3025533589011848 0.14872697879236335
0.18666416367991145 0.3012469442969978 0.14678520847719306
0.18821531495554622 0.3089982899314582 0.14895967532556648
0.1926600035141247 0.3006295593864143 0.14830172945421333
0.1904249485443371 0.3025654586440742 0.15146122266214485
0.18971323928339656 0.3011303576118171 0.14869762350481147
0.19343802294237789 0.2996238502151191 0.14444176246088142
0.19103658160669978 0.30459040724102854 0.14648325134676093
0.19039076528055843 0.3009037407523811 0.14311096955698127
0.18793714007837947 0.30550450407330393 0.14621020246904487
0.1864075656841534 0.3072291048652351 0.14885855604570503
0.18707251510126766 0.3060027392989814 0.14620099355142707
0.19241774043543514 0.30670845829312204 0.14691186834734077
0.19010788163645442 0.3074108990318 0.1503581195012867
0.18924540242655452 0.3062744768745124 0.14721910048883552
0.19292834362490352 0.3047583135253608 0.14628148962419624
0.1917892988632458 0.3072617086059272 0.14761314679544563
0.19022366365893062 0.30646044336621164 0.1441574483053028
0.18825224003298457 0.3034594687110603 0.14639450003069038
0.18824881276591 0.30347121082608103 0.14641861010950202
0.19161716064913448 0.3038725885039985 0.1469493000642597
0.18969580492479976 0.3044415148383796 0.14698095013063545
0.18970277866823848 0.3044340046531379 0.14694021035593147
0.1924568112800854 0.30419653974835276 0.14771793176096076
0.19094940981371578 0.3048031362182319 0.14756868173044319
0.19050753077967342 0.3052166136390388 0.14793528009813423
0.19146662911875423 0.30570477567974924 0.14715732027452583
0.16865307054026302 0.27900791488949656 0.18439469624918098
0.16489827594263728 0.2820322545653999 0.18746156383913154
0.1640965636680859 0.281479183066529 0.18425796319406623
0.1734853084991711 0.2801324161178291 0.1848821728364765
0.17022678217394527 0.28224373184506296 0.18780709196489448
0.16756743154032405 0.2812370689994514 0.18487263609331245
0.1716525848816174 0.28127664648358225 0.1833587079183399
0.17121204695208248 0.283435228694123 0.18638084222238654
0.16891962251169856 0.28236925922695993 0.18316505242746467
0.16767603120310481 0.28093660198513865 0.18552673746507758
0.1646124418686169 0.28182328068081736 0.1883319108621418
0.1636354025314587 0.2812005313522041 0.18536401678484077
0.1728926595161694 0.28297204099957346 0.18465898324411506
0.1696025427292126 0.28328740917508005 0.1879170029298603
0.16543576082689937 0.2824637921935737 0.18540153790872688
0.16969761213762935 0.28273833118740915 0.18523494292657966
0.16816258391840633 0.2839558156615913 0.18774176527422065
0.16734170875055965 0.28333270870510935 0.18400982905786628
0.16265383324129756 0.27826822124783396 0.183654972805196
0.16201668939097102 0.2785264881736457 0.18440858413141364
0.1658842559765118 0.2784469159728706 0.18357692052286262
0.1640214320133465 0.27935719810788034 0.18356234718721504
0.16333275994761165 0.2795881065017402 0.18428189445894355
0.165865361304118 0.2791860135680854 0.18413118411462898
0.16293704471094783 0.2811343701965034 0.1836452572480976
0.16298025807841 0.2812629970199287 0.18463618446748847
0.16449186167223628 0.2810059221870124 0.1843270449773609
0.17288058957560237 0.3271609576827705 0.17294202138345832
0.17264324388010677 0.3363626631385505 0.1779142706529438
0.1715157028148907 0.3332690628654182 0.17228434373300666
0.18067043981058772 0.33607340179745554 0.17612890292566413
0.17581573090059932 0.3448563250190437 0.18019784380357856
0.17562508544428523 0.3391991885787666 0.17477122832697028
0.17830353936655696 0.33378500067059397 0.1687311320440113
0.17596411666376766 0.34764194809262156 0.17228634048860664
0.17330494484408077 0.33935010753933786 0.16771862794321174
0.17203143200380977 0.3331811460143745 0.16928193856638069
0.16972601375086482 0.33974713407818674 0.17549190808694953
0.1688001450012463 0.3391407760268867 0.16888190199297065
0.1787897642563122 0.34329468332592844 0.17147130657594795
0.17303380331499751 0.34810066543881296 0.17676512290399665
0.17281115016443904 0.34519255482022165 0.17033253003519172
0.17829018792612727 0.34021890484158396 0.1654977290765583
0.17442497572405513 0.3512113722449958 0.17091442037981147
0.17246964535219844 0.3450216683036506 0.1651346771852314
0.15890669784052547 0.3078161510116279 0.19699994613092536
0.1581979390095013 0.31109565817181467 0.20020435143869514
0.15718874296648677 0.31063556991879343 0.19615832854669685
0.16485378107531246 0.3095666202193916 0.2001991062299549
0.16263785919649776 0.31309092365567087 0.20380679656427497
0.1614822145412701 0.3108218344337165 0.19987467814844245
0.16460069975359615 0.31103247724835276 0.19631133366983528
0.1615805324028271 0.319454732764405 0.19862858344476814
0.16048297247393306 0.31422913395230173 0.19469014693658943
0.16306367477877315 0.31621152483288645 0.19752798367899055
0.1578409071872967 0.30993068538967966 0.19703284789484138
0.15700304469568904 0.3107751043922126 0.20138237763803596
0.15638107022745784 0.3122651609069526 0.1972328810827076
0.16295146903498348 0.3137133749610603 0.1983426003591358
0.15931868514521297 0.3149788411742866 0.20372960854929084
0.15890210828287776 0.3134580882674873 0.19947604228418464
0.15994167289240535 0.3130993279105842 0.19696966697137946
0.15848404130442317 0.3176811369544685 0.20019600678842658
0.1577816005657452 0.3152302535659492 0.19615201045435066
0.15665161571009334 0.30654645286862253 0.19264612485330695
0.15720111093027767 0.30665421806637644 0.19437564302843208
0.15837869009478267 0.3101842435485542 0.19432128359239692
0.15615725478632625 0.3113929661399543 0.19532386351984138
0.15563416442377742 0.3124357494002998 0.19733617593210334
0.15718302092058833 0.312507871020478 0.19718942929666633
0.15641063413126643 0.3109757336265266 0.19503236700456733
0.15545999965174373 0.3139842780715644 0.19692466546457404
0.15731432995302852 0.31368166529003977 0.1955885081426441
0.15969678720934566 0.3237400683051765 0.19865254451196784
0.15550908407671626 0.3078139456397712 0.19574750353258247
0.15577360949022945 0.3076538475639045 0.19868490983408088
0.1559810634563702 0.31114387832943796 0.197150507463628
0.15701895913584407 0.31312394462887644 0.19761911918085212
0.15523704847796138 0.3136718901282966 0.20162198831003303
0.1556519266079205 0.3133902581817329 0.20005390931528205
0.15599498114092525 0.31237477384869455 0.19732038070123786
0.15548917612536128 0.3152121337539375 0.20003865052621955
0.15605181416971858 0.31477505289379953 0.19755808402460212
0.18502306899531062 0.3031486304885566 0.1813469915525257
0.1825693841884869 0.30907255731884836 0.18475563217561836
0.1807167824219006 0.30707615934674143 0.180155137075597
0.19432476124270137 0.3059836062080085 0.18288777161996955
0.19012889227373775 0.3097506197578132 0.187055954231435
0.18698191604120906 0.3076570662147224 0.1822099774019062
0.1945051547001141 0.30443585239712595 0.17744819213312263
0.1912499364326733 0.31170970522229074 0.1810892908708393
0.18834793529017146 0.30712354503933786 0.17645631123941535
0.17982217630846675 0.30737954698864817 0.18169317532938117
0.17614534458620723 0.31045747124020456 0.18590442229669685
0.17470377644999202 0.309439125884217 0.1794663159982502
0.19065260848505672 0.30999297224346994 0.1804329543248951
0.18518987259371456 0.31166923366848825 0.1860920279161274
0.18210527262194331 0.31047177635495066 0.17993555356424445
0.1889020200680035 0.3086847098952949 0.17772878099840278
0.18490460476381954 0.31384378992382883 0.18100149322908515
0.18256908616526302 0.3112912210113227 0.17601559449594611
0.2012587483833569 0.29987877928082346 0.15817875553529853
0.19775637945635494 0.3053905399924934 0.16059691597383613
0.196795194954707 0.30404806457821726 0.15837568928163642
0.19785955509646114 0.3059163125640571 0.15980393577974433
0.20806929430468257 0.30278981052700876 0.15817708660524482
0.2055759724090832 0.3047098549491584 0.16257996250551338
0.2031769450615185 0.3033043774253547 0.15935004640977973
0.20720687469942745 0.30470544420544504 0.15281240035455818
0.2066375907371777 0.3090135487205207 0.15759233523767585
0.2028591927002209 0.3060645493156135 0.1534483819143116
0.1975438292930859 0.3064716490394294 0.16349262882631416
0.19322645625574764 0.30924022518460154 0.1668128757612049
0.19315326175196346 0.307708922255677 0.16283870626848335
0.20634362062914546 0.3078963192588508 0.16230494667451972
0.20172867140276607 0.3083272608405769 0.16688890148561591
0.19916358551485713 0.3073865207320869 0.16259283710878486
0.20430991014940914 0.3068138989097297 0.16126213361185188
0.2018397744606274 0.3093953760749519 0.16387660194795722
0.19981893858416255 0.3081729444152534 0.15935022522371406
