ply
format ascii 1.0
element vertex 333
property float x
property float y
property float z
element face 0
property list uchar int vertex_indices
end_header
-0.32743887787589354 0.10262329415981562 -0.000583235949410343
-0.3304829764915399 0.10305739478771479 0.0027054503260718348
-0.33970283156165404 0.10276193456356318 -0.00040266367806329707
-0.3165849018646173 0.10373885469143183 -0.0011086210907830236
-0.31872751003035826 0.10195616917316706 0.003616656333075619
-0.3324731457782678 0.10179323987667353 6.820231543636551e-06
-0.326570199782937 0.10097096399967463 0.00022759583579168343
-0.3270799983097009 0.10077030496303828 0.0033864333926306727
-0.3328358102394037 0.10100177960102351 -0.002072905033959293
-0.33150495773085875 0.10465327934925349 0.0023197188674078943
-0.33580313807257933 0.1037735743970135 0.005663330823050595
-0.34555058365592284 0.10321469144527705 0.0029514684973822596
-0.3221250045848779 0.10509098605816157 0.001109714776145077
-0.3259137738300256 0.10327480272953303 0.0050725891886816985
-0.3388618100238733 0.10302344994251521 0.0023415341673956873
-0.33071680551299376 0.10258481936161311 0.003094728261099911
-0.3303412962509088 0.10202805237476618 0.0049200012980566985
-0.33546014314421935 0.10221905545894892 0.00011664178954229378
-0.34148909335860533 0.10242573456470759 -0.0005929813088311193
-0.3414407241893701 0.10240031318371089 -0.000675176113976383
-0.34311105495223326 0.10153643326465876 -0.0005033359230889318
-0.3398552704406671 0.10251880721752436 -0.0008047566117180822
-0.3397217858386926 0.10249818401043208 -0.0009581193627251623
-0.3426640499187402 0.10169349150364192 -0.0006512746514214514
-0.34285451656112 0.10181949572269709 -0.0010131642521752355
-0.34287835841903014 0.10182185010616572 -0.0011193797291649816
-0.3417979646278314 0.10068977908794673 -0.001071219176186466
-0.3718878496242456 0.10783116059009822 -0.002321277588738346
-0.37342615609893126 0.10813633637134822 -0.0010825440586937902
-0.37727989440688414 0.10754756169025691 -0.002338980168236637
-0.36722167020568175 0.10848275856678279 -0.0036732003392113684
-0.36779661660918517 0.10853789286320002 -0.0025121316613091467
-0.3749853838039331 0.10743890242283137 -0.0024986610115899084
-0.3670911956382684 0.10570992068950923 -0.001969520777596378
-0.3671704698158197 0.10563535527889521 0.0002548649607764246
-0.37054224496611876 0.10504807071392329 -0.0016590997876061437
-0.3677669931007318 0.11329726414387019 0.001092489033804989
-0.3701890278411798 0.11306152777378352 0.0024195566474066736
-0.37142603283652587 0.11181680397693904 0.0008646800814734461
-0.3625949788642816 0.11434022621814997 -0.000916574925316715
-0.3647236991477899 0.11380134062473567 0.0005899026690588953
-0.37035627847441954 0.11226032213871272 8.09088049994471e-05
-0.36577423101195616 0.11106143431370051 0.0007716372309790613
-0.36526371722945494 0.1105940146893719 0.002293850451575375
-0.3691758978916101 0.11080686287586482 -0.0005217537583245275
-0.3759742248607568 0.11091582016651423 -0.0034862503708733557
-0.3746341932369165 0.11081884340946467 -0.00430071803940668
-0.37409995680579466 0.11028454737369807 -0.0036768958271874426
-0.37641187196502013 0.11063460545246394 -0.003214214772118473
-0.3749143946720056 0.11060045199100764 -0.004150395125283145
-0.3741090465141229 0.11021475033466609 -0.003822211951149845
-0.37743677383193297 0.10963664488498957 -0.003403370112313175
-0.377448307330697 0.1097165151089886 -0.004726325005425357
-0.3753622043682031 0.10844973759357722 -0.0017011508644951818
-0.3741844165874414 0.11064491705601008 7.70643054114344e-05
-0.37362261300811095 0.1107047005147198 -0.00023782703293695427
-0.37294541483649535 0.10919270949070246 -0.00023243281258478142
-0.37386839276084227 0.11098776297275813 -0.0001887128056420324
-0.3733003902984552 0.11107305721943171 -0.0005285188855065344
-0.3729794788909845 0.10933856205646784 -0.00012463781250848747
-0.37319652920493407 0.10951916413013728 0.0003484144507514002
-0.373595403487771 0.10980341868107112 -0.0006677553357018469
-0.3727193344188623 0.10850236849491389 0.0007956877051459314
-0.35596238260993285 0.11006627516453059 -0.0018007502259148596
-0.35904194598922057 0.11105934815113337 0.0006625905333624842
-0.3611822295738153 0.11016468243305476 -0.0021811768711937902
-0.3474153447700433 0.11007503704731257 -0.002630357474221134
-0.3503363895965509 0.10993901924793513 0.0008926346598731043
-0.35659696346053404 0.10942641930286677 -0.0017287478150261877
-0.3537780809951715 0.10887525515262873 -0.0023644611538781164
-0.3530834484649591 0.10901467041675837 0.0009231522379981043
-0.3584019113136224 0.10983769135181697 -0.004690711230172061
-0.3534866440845422 0.11561612324421199 -0.00019047114266290642
-0.35537769084700865 0.11562470631305964 0.0015266194640265467
-0.3586739469123773 0.11418984369938166 -0.0001296148003472326
-0.34731258636245055 0.11576716141407283 -0.00130069705857172
-0.3492091465545587 0.11526385979358943 0.0011529281436072352
-0.3564128149105005 0.11429981426899226 -0.00046393725289239863
-0.3498698938442163 0.11231164173786433 0.0008398547469244959
-0.3490206766677789 0.11219922737781794 0.0027056589423285486
-0.35392616873511595 0.11352656321232112 -0.0025260195435418127
-0.35820786839255614 0.11468396620456965 -0.003512029379738712
-0.3575821090293817 0.11441705660526545 -0.004331831663979434
-0.35560827141532225 0.1132654948682049 -0.0027909919918908117
-0.3581396508766107 0.11473385529224665 -0.0034405932129754064
-0.3575314450813226 0.11452672915165217 -0.004285191029442691
-0.35581298356780333 0.11332778172199519 -0.002674166888131046
-0.35935534721144957 0.11371622519199641 -0.0021048829258812902
-0.35931708102950377 0.1135234637707928 -0.0028840348423851965
-0.35810439472922606 0.11311505274479182 -0.0024667725266350744
-0.35626588946112914 0.11482630209629328 0.001026178866492367
-0.3569528925968103 0.11486093239490779 0.0016560509501563074
-0.3572274613929681 0.11305622296039851 0.0012047245799170496
-0.35533623581656737 0.11563388542835505 0.0005742564498053553
-0.3559818137241296 0.11550132469837458 0.001370187073813534
-0.3585259485794 0.11361877159778865 0.0015441432295905115
-0.3536410201145105 0.1130279107541302 0.003025676280127621
-0.35365762000808043 0.11302779154484065 0.0030066623984442713
-0.3552794921947412 0.11355559067432673 0.0007234170733557703
-0.3576729465080194 0.11147324280445368 0.0008688524066077234
-0.36035402303466124 0.11276112036411555 0.0034115865527258875
-0.3623324800086908 0.11164412932102473 0.0005690112410651209
-0.3509242106033258 0.11143181757633479 0.0006613090334998133
-0.35340543275603575 0.11175666289036067 0.003933991461859799
-0.3577976096225671 0.11093322472278865 0.0009046449957953455
-0.3541799057079248 0.11085687117283137 0.0011784985362158777
-0.35349796896704955 0.1114557786435345 0.004183198481665707
-0.3583139944625787 0.11205575899784358 -0.0009153530300988195
-0.35533286815413756 0.11502263979618342 0.0024884298144446375
-0.3576635289741449 0.11520443396274836 0.004560704499350644
-0.36022074704894347 0.11352042393390925 0.0028381898699866297
-0.3502631652904443 0.1156788273305157 0.0016915157137976648
-0.3521741498065881 0.11510560946171076 0.0045135870276556975
-0.35849701052436156 0.1139926119298199 0.0027941122351752283
-0.35299273019561095 0.11301128105823786 0.004054780274497128
-0.35370625739821715 0.11369846300785334 0.005493070155249692
-0.3569919038368158 0.11438063816730769 0.0011611833869086268
-0.35983689313658995 0.11385134892170222 -0.000531975954903507
-0.359008001144021 0.11363939480488093 -0.0014312312306298254
-0.356024043614953 0.11216835217182429 4.3477088080501786e-05
-0.35943238621482176 0.11395053105060847 -0.0005206510723961828
-0.3586347270561151 0.11376355127994807 -0.0014000281990899084
-0.3559619653774194 0.11224685148899348 0.00013479140387640022
-0.3631094861579828 0.11388270096485408 0.0011740877925024988
-0.3627785909725122 0.11364297108356745 0.0005307450591193201
-0.36038671618232054 0.11292461590473445 0.0008434906302557947
-0.35791133528479857 0.11357299523060115 0.0036433294116126063
-0.3586873281551294 0.1137373252362469 0.004356647997962094
-0.35811121946105284 0.11166439490024836 0.003959800273047543
-0.35640217548140807 0.11483262018863948 0.0033678665457831385
-0.3571238685203485 0.11465493874256404 0.0044008150397406584
-0.35862617378958983 0.11245034174625666 0.004501099854575253
-0.3584598172260217 0.11371884779636653 0.005592907935248471
-0.35851158386000914 0.11377320723240168 0.005666400462256528
-0.3584766257358484 0.11377100186054499 0.003956760436163998
-0.3555160630298547 0.11014626459781916 -0.0040057048500908845
-0.3595192599845819 0.11221174435322077 -0.0007106110752953527
-0.36213977819213194 0.11130718426410945 -0.004392568797005557
-0.34277655368575377 0.11007605032627375 -0.005746160477532291
-0.34755595212706847 0.11006472544376643 -0.0003463670910729406
-0.3545434344364099 0.10957042412464411 -0.004471068114174747
-0.34945361500510497 0.1114339633435467 -0.0069963380993737214
-0.3493727016998224 0.1123000784367779 -0.0026199266613854406
-0.3548752534938745 0.11171303229038508 -0.008030270069970036
-0.35290165429839415 0.11580173210804255 -0.0023458943070305822
-0.35616873389014525 0.11625216440861018 0.000233407288657284
-0.3605982530666284 0.11509720520679743 -0.002555047005547428
-0.34314252620467467 0.11639908985798152 -0.004363094300164127
-0.3468335736347131 0.11540130810444148 -2.6856392754459152e-05
-0.3553909528804712 0.11508748964969905 -0.0033309206665886877
-0.34791182165869994 0.11362467245762141 -0.002984140843285465
-0.3483445513797693 0.11412934498493464 -8.300396813287712e-05
-0.35325770264395995 0.11498759226505549 -0.0060291633309258455
-0.357766466195672 0.11322669224445613 -0.005913947552575015
-0.35856177097091 0.11344323591892512 -0.005234454602135562
-0.35642765646704955 0.11263761954014094 -0.005202268093956851
-0.35590405946502013 0.11422715620701106 -0.006319974392784976
-0.3567930031372003 0.1143483920544842 -0.005564604729546451
-0.35659696346053404 0.11324093775455744 -0.0049586937130822175
-0.3573077488494806 0.11410609917347224 -0.005592142075432681
-0.35730828529128356 0.1141122384518841 -0.0046725020111931794
-0.3565684724403314 0.11386023001377375 -0.00535694214714899
-0.3552346993041925 0.11400840716068537 -0.00133160206688776
-0.35787530427703185 0.11419616179172785 0.0005287185011969568
-0.3583266306472711 0.11273704008762629 -0.0011827096642388342
-0.3511928189350061 0.11586407856647761 -0.0025779947937859533
-0.3534198868823938 0.11538312868778498 -0.00011513087166681267
-0.35779218559989256 0.11389170126621516 -0.0011783883274926184
-0.35307340508231444 0.11342690424625666 -0.00047010633362665156
-0.35272894984015746 0.1135503454655865 0.0010448947249518396
-0.3541861343933038 0.11372117237751277 -0.002196852892769718
-0.34580727105864806 0.10568807558719905 -0.005073671072853946
-0.3497708309245996 0.10650895075504573 -0.0016162142456902502
-0.3569967318130426 0.10617951588337214 -0.005574409693612003
-0.33419345503577513 0.1064637108296612 -0.006089811056984805
-0.33749149924048705 0.10493181185428889 -0.0006434068383110998
-0.34932284241446776 0.10505793528263362 -0.0050221726597680085
-0.3430349100185327 0.10456640557949336 -0.0053040728272332185
-0.34324260240325255 0.10454938845340998 -0.0015988096894158361
-0.34918193703421874 0.10484961704914363 -0.007834766835106755
-0.34704931264647765 0.10971055464451106 -0.002932910651101017
-0.3512375820232324 0.10911820368473323 0.00038173344718084356
-0.3592097032619409 0.10835389332477839 -0.0025115356148613928
-0.33812846427687926 0.1104457779378155 -0.004365567892922305
-0.3425936568332605 0.10881678299610408 6.529238806829475e-05
-0.3539985287738733 0.10870436863605769 -0.0032306656540764807
-0.34424074178466124 0.10725555853550227 -0.0019213602246178625
-0.34345643406638426 0.10667068795864375 0.00047701147185430547
-0.3498124945712976 0.10781828598682673 -0.005464826554192447
-0.3552303183628015 0.10994623140995295 -0.006447260111702823
-0.3552562463832788 0.10998253063862116 -0.006353352993859195
-0.35659189706572814 0.10886899666492732 -0.0059299812020195955
-0.35402523165473265 0.11012343601887019 -0.0064666912258996
-0.3540447223735742 0.11013839678470881 -0.006398920744789981
-0.3565329480720453 0.10918174223606379 -0.006000970333947086
-0.35497610455283446 0.10938922600452693 -0.006223891705407047
-0.3549782503200464 0.1093895240277508 -0.006233517855538272
-0.35393615251311583 0.10853997902576716 -0.006571505993737125
-0.3613850045753412 0.11029277281467707 -0.0001575097741021154
-0.3634468186450891 0.11175564961139949 0.002350772887335873
-0.3645675349784784 0.11057398752872737 -0.0007634207905663488
-0.35625128632315917 0.11038700775806697 0.0006843760310278895
-0.35832531934508605 0.11133585409824641 0.003673191338645077
-0.361102955396264 0.11007295088474543 0.00038501170264349004
-0.3576090503288202 0.11047552065555842 0.0006108238993750574
-0.3588578570438318 0.11300818161670954 0.002732212811575985
-0.3623402286125116 0.11245016293232234 -0.001944099396599674
-0.3565775025440149 0.11389462189380915 0.0003655209838019373
-0.3583978283954553 0.1141950889081219 0.002603913813696957
-0.3609843123508386 0.11262557940189631 0.0011395767031775477
-0.353005724008172 0.11505220369999201 0.0006982639132605555
-0.3548021185947351 0.11449400620167048 0.003859128028021908
-0.35966207271346373 0.11331943707172663 0.0017118110953436854
-0.3558702338291101 0.11282728151981623 0.002782817154990292
-0.35751150732764525 0.11435888247196467 0.004225666791068173
-0.35897924190291686 0.11426154808704646 4.002001868352913e-05
-0.3640186954093866 0.1122489972562054 -0.002125744551552677
-0.3636400569034509 0.11210231022541316 -0.0026179597081078527
-0.35890422945746703 0.1109108133763531 -0.002135132283104801
-0.3633448649002008 0.11261365847294123 -0.0020603582562340734
-0.3629987705303125 0.11248616413776667 -0.0025009259880913732
-0.3589846957279138 0.11117492155735285 -0.00165203663720026
-0.3662023413730554 0.11281941370670588 -0.00017700049294366814
-0.36589904313811583 0.11266986565296443 -0.0005303666294945715
-0.3633392918659143 0.11235509352390559 -0.0005105480851067541
-0.3593515921188287 0.11264918284122737 0.0013246193228827479
-0.3600264061046533 0.11281333403293879 0.0022171988783942225
-0.358998315389245 0.11094127134983332 0.0018680944739447596
-0.3569084871364526 0.11406604485218318 0.0012253775893317225
-0.3575688469959192 0.11379776434604914 0.0026049270926581385
-0.35867868548163695 0.11166153387729914 0.0027822509108649256
-0.36071260457763 0.11348483996097834 0.003934527903662778
-0.36101211791762633 0.11376712755863459 0.0042164280711279875
-0.3600191641403131 0.1138828797787884 0.002554114132987118
-0.35764204149970336 0.10838107304279597 -0.001942430466545963
-0.3617499638153009 0.11039398150150569 0.0015872075854407313
-0.36606706863173766 0.10953019098942073 -0.002893869608773136
-0.34612165575751586 0.10849366621677668 -0.00333697053803339
-0.3507655430389337 0.10818050341312678 0.002441729575263119
-0.3581891227317743 0.10809246735279353 -0.00262743684662714
-0.3523803520751886 0.10840890841190608 -0.0033177182377709387
-0.3524025846076898 0.1095978422612408 0.0003593221007452967
-0.35852144842871947 0.10972384648029597 -0.005989556044472598
-0.35505195146331114 0.11365316347782405 0.000115837126837826
-0.3595354724479608 0.11369703249637873 0.00356569436179266
-0.3640797305656366 0.11247352795307429 0.00022434738265142464
-0.3454310465408258 0.11410437063877375 -0.0012739047707451818
-0.34940324908026976 0.11296496824924739 0.0032435610591040613
-0.35854982023963256 0.1128217978924969 -0.0005151972473992346
-0.3501500952793054 0.11149976687137873 0.0006842866240607264
-0.3521504867626123 0.11268113093082698 0.00274896171675787
-0.3564185667587213 0.11339078383152278 -0.002775822609795475
-0.3599108923030786 0.11268768744175227 -0.004687820404900455
-0.36048619633445067 0.11281834082309992 -0.0041329607666863435
-0.35951183920630736 0.11147336201374324 -0.004186485737694644
-0.358971642310708 0.11354420618717463 -0.004615311354531192
-0.3594759572101526 0.11354921297733576 -0.004031185835732364
-0.35999627595671935 0.11207888560001643 -0.0037729487122429846
-0.3613813388896875 0.11334625916187556 -0.0031554743946923254
-0.36142580395468993 0.11337743239109309 -0.003059451311959171
-0.36003841644057555 0.11281172470752986 -0.004076217144860172
-0.35717578416594786 0.11262933449451716 0.000999177962409115
-0.359570311362832 0.11268357472126277 0.0028655185996161463
-0.3617049325061731 0.11079643206302912 0.0012373879252539637
-0.3530787695003442 0.11449180082981379 0.00012489703284368538
-0.3557243812633447 0.11372856335346491 0.003102536469565487
-0.3610274363113336 0.11225811676685603 0.0013371959029303553
-0.3549321163249902 0.11290011839573176 0.0026157751380072596
-0.3553730416847162 0.11326305107776911 0.0035364880858527186
-0.35728435402640624 0.11356208758060725 0.00022756603346929573
-0.3564108181549005 0.10553548769657405 -0.0025821075142754553
-0.36051871066817565 0.10754839615528376 0.0009475007353888514
-0.3648358154846124 0.10668457584087641 -0.003533546656502628
-0.344890432412713 0.10564808087055476 -0.003976677388085269
-0.34953431969413085 0.10533488826458247 0.001802022725211239
-0.3569578993869714 0.10524685220424922 -0.0032671436966790197
-0.35114909892806334 0.10556332306568415 -0.003957425087822818
-0.35117136126288695 0.10675225691501887 -0.0002803549469841955
-0.3572902250839166 0.10687820152942927 -0.006629233092202091
-0.3538206983161859 0.11080751852695735 -0.0005238697232140539
-0.35830424910315795 0.11085144715015681 0.0029260173140631678
-0.3628485072208337 0.10962794260685237 -0.0004153296650780676
-0.34419979339370055 0.11125878529255183 -0.001913581818474674
-0.3481719959331445 0.11011932329838069 0.002603913813696957
-0.3573185968948297 0.10997621254627497 -0.001154844492806339
-0.34891884213218016 0.10865412192051203 4.460957633123421e-05
-0.35091926341780943 0.10983548597996028 0.0021092846690283777
-0.35518734341391844 0.11054519848530085 -0.0034155294598473547
-0.35867963915595336 0.10984216170017512 -0.005327497452629947
-0.3592549431873254 0.10997269587223323 -0.004772608012093448
-0.3582806158615045 0.10862771706287654 -0.0048261627854241365
-0.35774041896590514 0.11069856123630793 -0.005255018204583072
-0.3582447338653497 0.11070356802646907 -0.004670892685784244
-0.3587650526119165 0.1092333002537945 -0.004412625759972476
-0.36015011554488463 0.11050061421100886 -0.0037951514424218176
-0.36019458060988707 0.11053184704487116 -0.0036991283596886633
-0.3588071930957727 0.10996613936130793 -0.0047159239949120515
-0.355944560821145 0.10978368954365046 0.00035947111235723516
-0.35833908801802916 0.10983798937504084 0.0022258117495642664
-0.36047367935904784 0.10795078711216242 0.0005976810752020838
-0.35184754615554137 0.11164621548359187 -0.0005148098172081945
-0.35449315791854186 0.11088291840259822 0.002462859421835995
-0.35979618316420836 0.10941247181598933 0.0006975486575232508
-0.35370089298018736 0.11005447344486506 0.0019760682879553797
-0.35414178853759093 0.11041740612690241 0.0028967812358008387
-0.3560531306816034 0.11071644262974055 -0.0004121110142601965
-0.33886017089614195 0.10438377694790156 -0.002366279095543766
-0.33975662475356383 0.10408381657306941 -0.0005137667359246252
-0.34957932120093627 0.10358233289425166 -0.0018893525303734777
-0.3311040568900995 0.1043354971856335 -0.002288882464302921
-0.33206589704283995 0.10379795269672663 -0.00019661042107477165
-0.34473623519667906 0.10301102237407954 -0.001475964516533756
-0.3413990307403497 0.10060743527118952 -0.00026602002991571406
-0.341348396594613 0.10043341951076777 0.0011327817736731531
-0.3458227086616449 0.10056139068310053 -0.0030573651493920324
-0.3417313266349725 0.106594990059779 -0.0005366251171959875
-0.3440526891303949 0.10593975619976313 0.0015805318652258875
-0.35429607516059203 0.10492799715702326 0.0003127112685309412
-0.3351446557594232 0.10624776320163996 -0.0008195683659447668
-0.3370224404884271 0.10532719926540644 0.0012743130026923182
-0.3495167363239221 0.1042611105889538 0.00041815188513860723
-0.3422337341857843 0.10351691679661067 0.0019142582713232996
-0.34213690644034667 0.10340894298260005 0.0022045030890570643
-0.3463054168773584 0.10325495438282283 -0.0014331087769402502
-0.35210894232520384 0.10370270447437556 -0.0026543483437432287
-0.35123889332541747 0.10342506603901179 -0.004062597483528995
-0.35295804029235167 0.10226960019771845 -0.0025416061581505773
-0.3532463777614526 0.10373706655208857 -0.0026182577313317297
-0.3526183832240991 0.10337583260242732 -0.0038622364701165197
-0.35372682100066466 0.10230443911258967 -0.0025808856190575598
-0.3555638659549646 0.10134423808758052 -0.0019385561646355627
-0.3556972909522943 0.10114122466747553 -0.003768418759240055
-0.35428391581305785 0.0999932690114239 -0.00258437249077692
