ply
format ascii 1.0
element vertex 522
property float x
property float y
property float z
element face 0
property list uchar int vertex_indices
end_header
0.3297084402488776 -0.07082738442714422 -0.02519870254410639
0.32699970716705995 -0.0696827666312 -0.022168611019982243
0.32545350307694154 -0.07018433971698491 -0.025092040032280827
0.3348200153755255 -0.06781287951762884 -0.024961476057900334
0.3321991991447516 -0.0676480130701801 -0.021404717892540837
0.3271221947120734 -0.06775282783801763 -0.025021050900353337
0.3342126440452643 -0.07074939174945562 -0.02652064415825739
0.331268711035163 -0.06955965323741643 -0.023823116749657536
0.32789926046601015 -0.0696277813463947 -0.027981881827248478
0.3288689088272162 -0.07005303068454473 -0.026343052119149113
0.3265820574211188 -0.06913356943423955 -0.02366942617310419
0.32488940471878724 -0.06956322951610296 -0.026252542466057682
0.3338176440643378 -0.06737597747142522 -0.026480977267159367
0.33144287580719667 -0.06734650297458379 -0.023104314535988713
0.32614962572327333 -0.06744836731250493 -0.026366297930611515
0.33245263809433656 -0.07006420655544011 -0.027583812207116032
0.33020846361389833 -0.0691538052111408 -0.02523991915596857
0.3264885377334662 -0.06905128522212713 -0.029313598603142643
0.32453267091980653 -0.07095887227351873 -0.026123289793862248
0.32370869631043153 -0.07052551670367925 -0.02493694874657526
0.3239442538665839 -0.07039641304309575 -0.026025448769463444
0.3265479039596625 -0.06948800845439641 -0.026050095290078068
0.3255427312301703 -0.06926380558307378 -0.024707977503670597
0.3242331575798102 -0.06956662698085515 -0.02594957205666437
0.32509408706894594 -0.06903277797992437 -0.027070139378441715
0.3244358729766913 -0.0684719876795551 -0.025669579237831974
0.32167510503998475 -0.06824316544826238 -0.028479997843636418
0.30266944879761415 -0.08529721660907476 -0.026537542075051213
0.2989857029365607 -0.08418925566966741 -0.022784476012123966
0.2946631144928046 -0.08435406251247136 -0.025095795124901676
0.3059698771881171 -0.08137371106441228 -0.026698772639168644
0.30234561676254945 -0.08119301958377569 -0.022284929484261418
0.29631279224625307 -0.08156751556689947 -0.02442709061516657
0.30973230118027406 -0.0836469726115009 -0.02668381187333002
0.30430702680817323 -0.08268280787761419 -0.023196373909844303
0.3005972337173529 -0.0832291738539478 -0.027134154766930485
0.3015447687553473 -0.08455147309596746 -0.027462576359642887
0.2980325650619574 -0.0834914938956043 -0.023994331091774845
0.2932023238586493 -0.08366384072597234 -0.026071612566841984
0.3049666118072577 -0.08050339384372442 -0.02786261293305292
0.30141095632782655 -0.08044468326862066 -0.023453389138115788
0.2950063180374213 -0.08079167170818059 -0.025562976330651188
0.30786834472885805 -0.08324556513126104 -0.027604167193306828
0.303453130667121 -0.08247648639972417 -0.02438259574784174
0.2996091079162665 -0.08291955752666204 -0.028274659842385197
0.29512820953598695 -0.08501439256961553 -0.025345896214379215
0.2935481500076361 -0.08430226607616155 -0.023841206759346867
0.28857157940140443 -0.08429234190280645 -0.024648521870507145
0.2965202164100714 -0.08360697789485662 -0.025321607321633244
0.29476128334274965 -0.08285563154514043 -0.023663167685402775
0.2892958354400702 -0.08315660519893377 -0.024406616419686222
0.298336787168891 -0.08295022411639898 -0.02557483765496149
0.2952889632629462 -0.08247964544589727 -0.02344251129044428
0.29264490122070985 -0.0828235046416065 -0.025958065718544865
0.2944865059303351 -0.08251618309314458 -0.02345285269631281
0.2943704556869574 -0.08238976164157598 -0.023286496132744694
0.2926801871704169 -0.0822054044752857 -0.023478989333046818
0.2934533190177985 -0.08340339823062627 -0.02408519837273493
0.29326371664276796 -0.08329962654407232 -0.023885105580223942
0.2917716335701056 -0.08277841372783391 -0.024245952099694157
0.29644410127869325 -0.07770266099269597 -0.026409243077172184
0.29449485058060365 -0.07754908962543218 -0.02508658620728388
0.29213462585678773 -0.07766671939189641 -0.02596512886895075
0.34888349289169984 -0.06771652860934942 -0.02578172537697687
0.3482182454513617 -0.06753232045467107 -0.02438468191040888
0.34640674108734804 -0.06774493022258489 -0.025527571171654606
0.35120545143356996 -0.06717698736484258 -0.025196050137413883
0.3501025866912909 -0.06691726012523382 -0.023724083632363224
0.3470649551796027 -0.06704877777393072 -0.02540338489426508
0.3523107599662848 -0.0690249399691364 -0.02670824977768793
0.351185007040412 -0.0684700505285999 -0.025343959063424015
0.34781537765732484 -0.06804220838840215 -0.02811518761528864
0.34883622640839296 -0.06971125765140264 -0.025005285471810246
0.34812901729813295 -0.06940819783504217 -0.023559723824395085
0.3467944096969672 -0.06962065859134405 -0.02489504668129816
0.35118363613358217 -0.06894438429172246 -0.024310742348565006
0.3500038217948981 -0.06855737133319585 -0.0227800354660882
0.34745858425369935 -0.068686832621648 -0.024659667939080143
0.35261557811966615 -0.07117327018077581 -0.02642828676117792
0.3513138722824164 -0.07046248479182927 -0.024847273558510685
0.3480179738449164 -0.07007612748439519 -0.027705048054589176
0.34458021635285097 -0.06828742189700811 -0.023810480564965153
0.3444900941299506 -0.06823288364703863 -0.023629818886650944
0.3452154230522223 -0.06824912591273992 -0.023528520792855168
0.34502295965424257 -0.06815322203929632 -0.023657833069695378
0.34491281027069765 -0.06809084577853887 -0.02344587895287409
0.345268053953559 -0.06816234154994695 -0.023458217114342594
0.34673969263306337 -0.06884991092975347 -0.025277768105400944
0.3463496398376532 -0.06856613321597783 -0.0246970698536767
0.3432739209579535 -0.06790034933383672 -0.026294831961525822
0.2988684009956427 -0.06729321642215459 -0.03696808668984308
0.29826156610718446 -0.06698714657123296 -0.03551760765923395
0.2946972083496161 -0.06718729896838872 -0.03529221269501581
0.2995594572471686 -0.06682481332118718 -0.036841844052208805
0.29902593607178407 -0.06671418710048406 -0.03517070862664118
0.2953036856102057 -0.06693529053027837 -0.03501823994530573
0.3022074531959601 -0.06770600838954656 -0.03624439689530268
0.30145214313736635 -0.06750800175960271 -0.03527996394051447
0.29780213350525575 -0.06709938211734502 -0.037108247012032414
0.29969958776703554 -0.06797461672122686 -0.035893861979378605
0.2992020081924506 -0.06769164367015569 -0.034397994011773014
0.2958183717178412 -0.06788097782428472 -0.03415433022393122
0.300350947325141 -0.06756176514919011 -0.03574690672768488
0.2998665999816962 -0.06744344992931096 -0.03404012772454157
0.2963751387046881 -0.06765221519763677 -0.0338748738469018
0.30293558353653627 -0.06846176548297613 -0.03519213649643793
0.3023683261322089 -0.06830092234904973 -0.03410450074089899
0.29870138878098207 -0.06791158480937688 -0.035998229712380314
0.29620621914139467 -0.06896912021930425 -0.038423989743126774
0.2963916491912909 -0.06902043981845586 -0.038755421370400334
0.29455278629532533 -0.0687217013388416 -0.03711668106926813
0.29481379503479677 -0.06959133310611455 -0.038651709288491154
0.2950926851677008 -0.06978081627185552 -0.03897363397492304
0.29368273729553895 -0.06901677413280217 -0.037569735974205876
0.29528729433289247 -0.06994630856807439 -0.037569467753304386
0.29552005047074037 -0.07009457512195318 -0.0380485102833642
0.2944930028366156 -0.06951143307979314 -0.03807247135056391
0.2972895335601874 -0.06892167492206304 -0.03753823491944208
0.2975622248100348 -0.0692717628031513 -0.03859034630669489
0.2978442143844672 -0.06850387616450994 -0.036609713763131047
0.29408429378739076 -0.06994592113788335 -0.03937957140816584
0.2947684359001227 -0.07084285183246343 -0.04043874594582453
0.2955609392570563 -0.06883822841937749 -0.03872210237397089
0.2948427628921576 -0.0697287814169666 -0.038968388766182804
0.29595367426148134 -0.0701967374830982 -0.04018226715935602
0.2953303884910651 -0.06916191144283025 -0.03916573974503412
0.31321881527176576 -0.07622851891811101 -0.026432637900246525
0.3104849290298529 -0.07620962424571721 -0.023153518170250798
0.3036005329536505 -0.07662208838756292 -0.024650041788948918
0.31618051046601015 -0.07337607903773992 -0.026460592478646183
0.31288604253998475 -0.07422309084232061 -0.022488151520623112
0.30594937319031434 -0.07484515471751897 -0.02426001879586115
0.3230283688949652 -0.07729141874606817 -0.026050005883110905
0.3186692428039618 -0.07696696086223333 -0.02365041229142084
0.3119429778503485 -0.07695679827029912 -0.027097587317360783
0.31177775377503114 -0.07485758228595464 -0.02733579728020563
0.30906484836807924 -0.07482023997600286 -0.024036143750084782
0.30182657951584535 -0.075225819781377 -0.02547643038643732
0.3146058153556891 -0.07170214219386785 -0.02749705764664545
0.3114276360916205 -0.07265843911464422 -0.02336076352013483
0.3040261101173468 -0.07321213646228521 -0.025182937115563298
0.3211626839088507 -0.07642154856021612 -0.026823525160683537
0.3172056507515021 -0.07618900103862493 -0.024521146744622135
0.3101894688057013 -0.07598199410732 -0.028115128010643864
0.3043179344581671 -0.07423784299190252 -0.024995569914711857
0.30325262064209657 -0.07387842698390691 -0.023960207432640934
0.2970545720504828 -0.07467197342212407 -0.023809169262780094
0.30505542272797304 -0.07357068820293157 -0.024975840777291203
0.30416576380005556 -0.07342376275356023 -0.02383184883011713
0.29767881149521547 -0.07424347563083379 -0.023701672285927677
0.30735967869034486 -0.07558565302188604 -0.024729256361855412
0.3053894471572943 -0.07541977329547613 -0.023724739283455754
0.3013034891532965 -0.07573070092494695 -0.025789861410988713
0.3052446674751349 -0.07400154037769048 -0.02387854906929865
0.3051354121612616 -0.07393797202403753 -0.02364394518746271
0.3030968141006537 -0.07455192966754644 -0.0234303519429101
0.30412827247849183 -0.07525550289447515 -0.024162684410942936
0.30402283186188417 -0.07511885924632757 -0.024027292460335636
0.30240545982590394 -0.0755779938250324 -0.023861174315346623
0.3097438048767157 -0.0700598852186939 -0.02639091464890375
0.3078386616157599 -0.06980245275790899 -0.025315676659478092
0.30367074722519594 -0.07013972564037053 -0.0262420818508996
0.33371089214554506 -0.07407884760196416 -0.028474871844185734
0.3310022186683722 -0.07293422980601995 -0.0254447505177392
0.3294560741828986 -0.07343580289180486 -0.028368179530037785
0.3388225268768378 -0.0710643128901264 -0.028237675160302067
0.3362016510414191 -0.07089947624500005 -0.024680857390297795
0.33112470621338563 -0.07100426121051519 -0.028297220200432682
0.3382150959419318 -0.07400082512195318 -0.029796813458336735
0.33527122253647523 -0.07281108660991399 -0.027099256247414494
0.3319017719673224 -0.07287921471889226 -0.031258051127327824
0.33287147993317323 -0.07330449385936467 -0.02961922141922846
0.33058456892243104 -0.07238500280673711 -0.026945595473183537
0.3288919758247443 -0.07281466288860051 -0.029528711766137028
0.33782015556565004 -0.07062744064624517 -0.029757146567238713
0.3354453873085089 -0.07059793634708135 -0.026380483836068058
0.33015219682923036 -0.07069983048732488 -0.029642407626046086
0.3364551495956488 -0.07331563992793767 -0.03085995170487299
0.3342109751152106 -0.07240523858363836 -0.02851605865372553
0.33049104923477846 -0.07230271859462468 -0.0325897381008996
0.3285351824211188 -0.07421033544833867 -0.029399429291619206
0.3277112078117438 -0.07377695007617681 -0.02821308824433222
0.3279468249725409 -0.07364784641559331 -0.02930161806954279
0.3305504750656195 -0.07273944182689397 -0.029326234787835026
0.32954524273148256 -0.07251526875789373 -0.027984117001427555
0.32823566908112245 -0.07281806035335271 -0.02922571155442133
0.3290965985702582 -0.07228421135242193 -0.030346278876198673
0.32843838447800355 -0.07172342105205266 -0.028945688933266545
0.325677616541297 -0.07149459882075994 -0.03175616714371576
0.3160815071510382 -0.06810613436992376 -0.025872860878838444
0.3132829498695441 -0.0670526818781635 -0.022703115672005558
0.3107605409072943 -0.06736816926295965 -0.02558103653801813
0.32150803322067933 -0.06505774421985357 -0.025762800902260685
0.3186905216621466 -0.06503211422260015 -0.021880184143914128
0.313718182985694 -0.06526701612765996 -0.02521977278603449
0.3219479154991217 -0.06888492865855901 -0.027223502129448796
0.31827501768341737 -0.06789301796252935 -0.024498765200508976
0.31464831346741395 -0.0679435030966541 -0.028366510599984074
0.3148523401664801 -0.06697158975894658 -0.026851747959984684
0.31244747156372743 -0.06612276001270025 -0.024068807095421696
0.3092861008094855 -0.0663086370974323 -0.026687090128792668
0.320109887068183 -0.06414004130656926 -0.02714390012635126
0.317402048056037 -0.06423099799449651 -0.02341571900261774
0.3121951054977484 -0.06447019143398015 -0.02644253227127924
0.3200374674247809 -0.06746437115962713 -0.028157030075920964
0.3169665169166632 -0.06669988198573797 -0.025821660488976383
0.3134032320427008 -0.06670250459010808 -0.029535119265450382
0.3104665111946173 -0.0681048230677387 -0.026802246302498722
0.30913601631394105 -0.06758206053073613 -0.02550581547631159
0.3080086540626593 -0.06752972765262334 -0.026630584925545597
0.31220422500839906 -0.06676002307231634 -0.026773516863716984
0.3112259339737006 -0.06653927727039068 -0.02547228786362543
0.3092058729576178 -0.06681506796176641 -0.026489768952263737
0.3111837338851996 -0.06639151735599248 -0.027360443800820256
0.3105481695579596 -0.0660671488791248 -0.02628258320702448
0.30835734123459535 -0.06600372953708379 -0.02871361824883356
0.31058440918198305 -0.06918143196399419 -0.0265755996407403
0.30991272444000917 -0.06883831782634466 -0.025935266941918278
0.3108148407386847 -0.06874217553432195 -0.026871685713662052
0.31119017118683534 -0.06856157346065252 -0.02648362967385187
0.3103738259719916 -0.06827585859592168 -0.02571139189614191
0.3111558985160895 -0.06832330389316289 -0.026744698017968083
0.3122159671234198 -0.06755607290561406 -0.028777454823388005
0.3109143804954596 -0.0670599536448261 -0.027469192475212956
0.3102232050346442 -0.06719719333942144 -0.029234145611657048
0.2985163163589545 -0.07999192638690679 -0.033348356217278385
0.29548154587021547 -0.07800673408801763 -0.029107604950798893
0.2943450045036383 -0.07719402475650518 -0.03214931938065424
0.3021633457588263 -0.07591347856815069 -0.03121683451546564
0.29795567507019716 -0.07392125292117803 -0.026572202175988102
0.296029133741767 -0.0743093387633106 -0.030141298502816105
0.29918680900803285 -0.07539599104221074 -0.033302073210610295
0.2978487443374701 -0.07378913922603338 -0.03003403994454279
0.2959290575431891 -0.07423870725925176 -0.033870254486931706
0.2976804208206244 -0.0788964228182575 -0.034512166708840275
0.2948255371498175 -0.07738398475940435 -0.03055322620285883
0.2934726309227057 -0.07646076841647832 -0.033256416052712345
0.3012439441131659 -0.07475968165691106 -0.03295454832924738
0.29715011829605775 -0.07307731075580327 -0.02828044149292841
0.2949553560661383 -0.07336675091083257 -0.03166908475769892
0.2983823847221442 -0.07424848242099492 -0.03441444489373102
0.29734323734513 -0.07288997335727422 -0.031266813010109806
0.2951869201110907 -0.07317741675670354 -0.03508744093788996
0.29277543539276796 -0.07981975837047307 -0.03338906618965998
0.2919787597107001 -0.07933341427142827 -0.03155354115380182
0.29209653848877626 -0.0773048893957874 -0.03207254859818354
0.29351608270874696 -0.07730214758212774 -0.03222525569809809
0.2924743127273627 -0.07653968496616094 -0.030305390089882756
0.29300455564728456 -0.07568665309245794 -0.03105208727730646
0.29124299997559266 -0.07639168663318364 -0.032988999813927555
0.2907144259857245 -0.0754430787115833 -0.030947451323403263
0.2908507418083258 -0.07533406181628911 -0.03294483277214899
0.2949113678382941 -0.0804237322359821 -0.03392774316681757
0.29472563976517396 -0.08022378845508306 -0.033339057892693424
0.2958893608497687 -0.07832040353114812 -0.03244716379059687
0.2949217986511298 -0.08041175170238225 -0.03391632887734308
0.2947350572990485 -0.0802101389914295 -0.03332666012658014
0.2959000300811835 -0.07831623120601384 -0.03243461701287165
0.2916580867218085 -0.07936396165187566 -0.0345307633580102
0.2910850476669379 -0.07865848107631414 -0.03312248441590204
0.2920666765617438 -0.07836734218890874 -0.03433272692574396
0.33590601200333314 -0.06489043398196905 -0.02822599264992609
0.33532832378617006 -0.06486644311244695 -0.027062927216423893
0.3302114438461371 -0.0648493663817188 -0.02793142649544611
0.33790735716095643 -0.06456076069171636 -0.02781981679810419
0.33718268388977723 -0.06453864736850469 -0.026631747216118717
0.3310516905235358 -0.06442399783427923 -0.027918283671273136
0.33830086702576356 -0.06674011512096135 -0.028134499520195866
0.33815853113403993 -0.06671099825198858 -0.028006975382698918
0.333626253549964 -0.06606169505412786 -0.030388508767022038
0.33616171592941957 -0.06614454551036565 -0.027338956326378727
0.33561949247589784 -0.06614529056842534 -0.026074443787468815
0.3303429316925116 -0.06597711606319158 -0.027241711348427677
0.3382586669372626 -0.06582583947475164 -0.026789669722451115
0.3374034594940253 -0.0657399491816303 -0.025472764700783634
0.33162377590409 -0.06562303467090337 -0.027061764925850773
0.33923260683289247 -0.06797884865100591 -0.027390186518563175
0.3388469051765509 -0.06789704127605169 -0.02703258845223322
0.33435980791321473 -0.06728150410945623 -0.029474024504555607
0.33149961942902284 -0.0670955674200794 -0.02639651748551264
0.3314842414306708 -0.06709178252513616 -0.026609782904518986
0.32937572712174135 -0.06711753173167913 -0.02606764885796442
0.3311230372833319 -0.06716923876102178 -0.026497785776986027
0.331123812143714 -0.06717421574886052 -0.026708219975365544
0.3293003272461005 -0.06719266338641851 -0.026087288588417912
0.3319088649200507 -0.06779109401996343 -0.026817475289238835
0.3322038483070441 -0.06789325638110845 -0.02726251336945429
0.3288621138977118 -0.06729595823581426 -0.02822998616112604
0.33331946844330507 -0.0804077581911823 -0.023764674395455265
0.32844643110504823 -0.07986899180705755 -0.018618439167870426
0.32338313574066835 -0.08033176226909368 -0.02351955029381647
0.3442095946716376 -0.07811494632060735 -0.023127709359063053
0.34018115514984804 -0.07907380624110906 -0.01831126663102045
0.33152167314758973 -0.07890786691005437 -0.0234683797062768
0.3434027861999579 -0.08338739438350408 -0.025548313588036442
0.33847121710053163 -0.08231695456798284 -0.022320364445580387
0.33213440889588075 -0.08183898492152898 -0.02774572822464838
0.3322459291862555 -0.07696281833942144 -0.026559476584328556
0.3272919487403937 -0.07656176848705022 -0.021710728138817692
0.32227913851013856 -0.07703166170413701 -0.02614769789589777
0.34207801336518007 -0.07479249401385991 -0.026642803877724552
0.33750860208740907 -0.07574384374911992 -0.021683697432412052
0.32837609762421327 -0.07567660970981328 -0.026610319346321964
0.33923701757660585 -0.0805397526770374 -0.028047238320244694
0.33526556009522157 -0.07979496283824651 -0.02549854370964899
0.3294985722946234 -0.07937022013957708 -0.030726973742379093
0.3250368070053168 -0.0768485860377094 -0.02236324998749628
0.32208691353073793 -0.07618095441158025 -0.019069497317208195
0.31918255800476747 -0.07661478681857793 -0.022207532853020573
0.33133075947037416 -0.0744558767824909 -0.02214071604622736
0.32878057474365907 -0.07461394830043523 -0.01870659443749323
0.32217626089325624 -0.074508924916341 -0.022435699433220768
0.32957742923966127 -0.07743092341716497 -0.02350417229546442
0.3268582057403632 -0.07662006182964055 -0.02133703681839838
0.32327095979920106 -0.07659470005328863 -0.025372539490593815
0.3048796486305304 -0.07453485293681829 -0.03484082672013178
0.301156086866767 -0.072959293559148 -0.03082928511513605
0.2997900676178046 -0.07317786379153936 -0.033530448407067204
0.3077989649223395 -0.07033364935214727 -0.03332233878983393
0.3043243121551581 -0.0697018997221729 -0.02945432516945734
0.30133883470764833 -0.07005607052142827 -0.03277740332497492
0.30575458521118837 -0.07214062376315801 -0.03484523746384516
0.30414156431427675 -0.07113700075442998 -0.032329623431099797
0.3019068669723578 -0.07136236591632573 -0.03621605488671198
0.30334369653931337 -0.07264082594211309 -0.03582022044075861
0.2997469138549872 -0.07126661105449407 -0.031961117714775944
0.29849527591934877 -0.07145651145274846 -0.03430304381264582
0.3062156867431708 -0.06834657950694768 -0.03458103987587824
0.302581114714057 -0.06785361929233281 -0.030626837939156437
0.29945705646744447 -0.0682007269411823 -0.03372744175804987
0.30437718147507387 -0.07061808271701543 -0.03580472323311701
0.3029638957428046 -0.0697643951922199 -0.033434365719689274
0.3005240988182135 -0.06984992785747259 -0.03725097033394709
0.29892204517594057 -0.07377855940158574 -0.03546306940926447
0.2980583142685004 -0.07323046489055364 -0.03407267186058893
0.29800335878601747 -0.07267435355479925 -0.033857081860436344
0.3000235390113898 -0.07201408310229986 -0.03494337651146784
0.2988318037437506 -0.07159005565936773 -0.033375118702782536
0.2980073522972174 -0.07155700488383977 -0.03353485915078058
0.29863773102036195 -0.07235526008899419 -0.03533217760933771
0.2979545425819464 -0.0718146459608814 -0.033959989279641056
0.2962382864402838 -0.07151659293468206 -0.03598484846962824
0.30044190401306825 -0.07483329339320867 -0.03584889027489557
0.3002773355888434 -0.07454552216823308 -0.03540745827568903
0.2997816037582465 -0.07405750913913457 -0.03445327731980219
0.3004507851051398 -0.07480799122150152 -0.03582668754471674
0.3002867531227179 -0.07452087564761846 -0.03538740131272211
0.29978065008393007 -0.07404359145457952 -0.03444335314644709
0.29826132768860536 -0.0735471145659229 -0.0367435261906518
0.29772101158371644 -0.07314406795795171 -0.035813306301964665
0.29739986175766664 -0.07288645668323247 -0.03693420144928827
0.3450936507629462 -0.06984864635760991 -0.024578397005928898
0.3432678412841864 -0.06763999624545781 -0.0209434077443017
0.3437672686027594 -0.06840725703532903 -0.025130246609581852
0.35435817951431947 -0.06789829297359197 -0.022887592047585392
0.35159353727570253 -0.06660791201884954 -0.019030188053978825
0.3469934296058722 -0.0665249125509998 -0.024462793797387028
0.3497201036857672 -0.06906511349971502 -0.026218090981377506
0.34698216432800966 -0.06679033203418462 -0.023448233336342716
0.34527121299973207 -0.06777219934756963 -0.028720651596917057
0.344359679167182 -0.0674377874880573 -0.025800709456337834
0.34252343887558656 -0.06503822369868963 -0.022071872681511784
0.34318099731674867 -0.06573068065936773 -0.026395802229775334
0.35396443123093324 -0.06599869294460027 -0.02437210533036127
0.3509487938331671 -0.06452443166072576 -0.020256315201653385
0.34624807352295595 -0.06442876620586126 -0.02588686797036066
0.3491861056732245 -0.06659846468265264 -0.027521048516167546
0.34656338209381776 -0.06431974931056707 -0.02474868747605219
0.34442625755539613 -0.06523208780582158 -0.030236725539101506
0.34179375881424623 -0.07364126010234563 -0.023743186921013737
0.3411696981834479 -0.07224373979861944 -0.021394108265770817
0.34200779909363466 -0.07159288687999456 -0.022995953291787052
0.34468023294678407 -0.07006450457866399 -0.021005784005059147
0.34433369154205995 -0.06944795413310735 -0.01878235194100275
0.3431375455307074 -0.06932171149547307 -0.02187446209801569
0.3436980676101752 -0.07140307588870733 -0.024284218281639958
0.34169857019653993 -0.06946443481738775 -0.021775637596978092
0.3400867413925238 -0.06979088945682256 -0.025904302328957463
0.31883816236725526 -0.07225342555339544 -0.025936846465004826
0.31863955969086366 -0.07229914231593816 -0.02535978409661188
0.3113441299842902 -0.07290362282092779 -0.024670098751915837
0.31887118334046083 -0.07225628657634466 -0.025929008454216862
0.31866548771134096 -0.07230277819926946 -0.02534869763268366
0.3113615345405646 -0.07290582819278447 -0.02466771456612482
0.3253831695961066 -0.07425208850200384 -0.025380168885125065
0.32546387428513246 -0.07425548596675603 -0.025450293749703312
0.3173352312492438 -0.07351713342960088 -0.02761164757622614
0.31907002443543153 -0.07293929620082586 -0.024951075047387028
0.31878636593094545 -0.07299750013644903 -0.02425677034272089
0.3117331098960944 -0.07348646683986394 -0.023927454680336857
0.31907240862122255 -0.0729394452124378 -0.02495038959397211
0.31878833288422304 -0.07299767895038335 -0.024255906075371647
0.311734540407569 -0.0734865562468311 -0.023927216261757756
0.32574312204590516 -0.0749797420054218 -0.02453801485909357
0.3256223630355902 -0.07497312588985174 -0.024430368870629215
0.31764869207611757 -0.07425432367618291 -0.026652251213921452
0.3139675688194342 -0.07333507104213445 -0.023389790982140446
0.31411640161743837 -0.07332955761249273 -0.024234239786995793
0.30929343218079286 -0.0741712646036884 -0.022541885107888127
0.31178210491409974 -0.07395051880176275 -0.02430385801209345
0.3117851447509833 -0.07403584285075872 -0.024992887705696964
0.30856655353775697 -0.07484429045016973 -0.022951607436074162
0.3154491614746161 -0.07416283054645269 -0.023453955382241154
0.3163208197998114 -0.07428138418491094 -0.024572913378609562
0.3105922173904486 -0.07397659583385198 -0.024914865225685978
0.3155608605789252 -0.07376586361224859 -0.02147657129181757
0.3162586521553107 -0.07392196817691533 -0.023129467696083927
0.31309704298248964 -0.07439564628894536 -0.021486227244271183
0.31208942646256166 -0.07585560245807378 -0.02366957518471613
0.31194196457138734 -0.07619603438670842 -0.02471906396759882
0.3118579816268988 -0.07637258334453313 -0.023081009119881535
0.3164394926475592 -0.07450683875377385 -0.024402414292229557
0.3177519869255133 -0.07478388114268987 -0.025678728550804997
0.31188379043808656 -0.07419534488017766 -0.025374446839226628
0.3116484713005133 -0.0723613099604389 -0.022381280392540837
0.31202207321396547 -0.07289799018199651 -0.023240183323754215
0.3107816409515448 -0.07292138500507085 -0.021787260502709294
0.30939183944931703 -0.07306553883846013 -0.02308005544556513
0.3098673653053351 -0.07376213832195012 -0.02393916699303522
0.3096326422142096 -0.07312857075031011 -0.023276542157067204
0.3112711142944403 -0.07329671545322149 -0.022697959870232487
0.3124202322410651 -0.07372172637279241 -0.023918037146462345
0.3105445932792731 -0.07336421771342962 -0.02358422133339777
0.31369475836029725 -0.0740293459444782 -0.017209892004860783
0.3139995765136786 -0.07471292181308477 -0.018127177685631657
0.31333778614273744 -0.07449140115077703 -0.017020259827507878
0.3110398482727118 -0.07508029504115789 -0.01896986815346613
0.3115197252677985 -0.07594959898288457 -0.019803945750130558
0.3121062945770331 -0.0750482873469135 -0.019569014042748356
0.31382165664902406 -0.07449649734790532 -0.019898538321389103
0.31485609525910097 -0.07469572587306707 -0.020909701317681217
0.31226621383896547 -0.07443316741283147 -0.02066538187874689
0.3104544710563727 -0.0728883342295429 -0.021498267382515812
0.3111863564895697 -0.07392140193278997 -0.022991095513237858
0.31154958719483095 -0.07323135896022527 -0.021368537873162174
0.30639456028214174 -0.07364051504428594 -0.02265319678200617
0.3073597978996344 -0.07516102953250615 -0.02409837099923029
0.3092095088409491 -0.07275121374423711 -0.02425766441239252
0.3071352672027655 -0.07410641475017278 -0.022443984478844548
0.3086210321830817 -0.07504450245197027 -0.024368082016838932
0.30957339519730287 -0.07412706775958745 -0.022905026406182194
0.31279228443375307 -0.07353519363696782 -0.019048248261345768
0.3135558795379706 -0.07552673383052556 -0.0210461065472497
0.3147549461769171 -0.07372172637279241 -0.019517783850563908
0.3074702453064032 -0.0733802513628742 -0.024530892104042912
0.3078481387542792 -0.07721381349857061 -0.02494651529206171
0.3114058207916327 -0.07250957651431768 -0.02660364362610712
0.3063144516395636 -0.07449616952235906 -0.024890993565453434
0.30929253811112123 -0.07580702467258184 -0.027815644472969914
0.31038771385422426 -0.07428895397479741 -0.02550128552330866
0.2998813819336005 -0.07989784045512884 -0.026237760514153385
0.29849897140732484 -0.07939674420650213 -0.024867479533089543
0.2928455304550238 -0.08023997111613958 -0.024572466343773747
0.3008830379890509 -0.07886015339191167 -0.026437257260216618
0.2996875476287909 -0.07867937250430791 -0.024750386208428288
0.2932500075744696 -0.07945885224635808 -0.024465535611046696
0.30657134765854555 -0.08178998990352361 -0.02503109428299799
0.3046827744888373 -0.0816008643656513 -0.023701225251091862
0.29914007896652894 -0.08143707080180852 -0.026328150957955265
0.3002875279831 -0.08094354434306829 -0.02555364820374384
0.29899452442398744 -0.08040662570293157 -0.024156396120919132
0.2934384178566046 -0.08117618127162664 -0.023891811102761173
0.3011681270050116 -0.07999666495616643 -0.025659833878411198
0.2999345492767401 -0.07970945997531621 -0.02395186278237238
0.29374496454468446 -0.08045827312762945 -0.023705814808739567
0.30674741977921205 -0.08280812664325445 -0.024199847906960392
0.30498848671189027 -0.08261989517505376 -0.022761736840142155
0.2996035646843024 -0.08252756758029668 -0.025383685559166813
0.2935099434303351 -0.08205993933971135 -0.021763061016930485
0.29348741287461 -0.0820491807013294 -0.02173972579850092
0.289350552503974 -0.08242308063800542 -0.021101926297081852
0.29279868120423036 -0.08298103971774785 -0.021948371857537174
0.2928160857605048 -0.08298923535640447 -0.021965448588265324
0.2889574598716803 -0.08312790556247442 -0.021438394516838932
0.29565237278214174 -0.08308227820689885 -0.021621201962365055
0.2954119276451178 -0.08305590315158574 -0.021467034548653507
0.29247604126206117 -0.08328454656894414 -0.02242610308541193
0.2947516869949408 -0.08184509439761846 -0.01771203133477106
0.29514996523132997 -0.08236964507396428 -0.0186562881173028
0.29481355661621766 -0.08230872912700384 -0.018071566552056217
0.29200087303391176 -0.08429886861140935 -0.02037433239830866
0.2928579878257819 -0.0851769940405628 -0.021623258322609806
0.29344443792572694 -0.08427654667194097 -0.021519665449990177
0.2949626278328009 -0.08003314299876897 -0.022590015858544255
0.296511037294776 -0.08019198937709539 -0.023844037979973698
0.2926949095176764 -0.08008124394710271 -0.022908602684868717
0.32414774412384706 -0.06485312147433965 -0.027133528918160343
0.3233212065147467 -0.06457500620181768 -0.025506649941338444
0.321480257456214 -0.06460680527980535 -0.026584421128167057
0.3261070084022589 -0.06415103836353032 -0.02659744474305048
0.32524393314591127 -0.06386064453418462 -0.025057767361534977
0.3222611379074164 -0.063858290150716 -0.02636546346558466
0.32714091057053285 -0.06571190519626348 -0.02763930413140192
0.32607202047577577 -0.06533180637653081 -0.026522223681343937
0.3235736321853705 -0.0650181965380451 -0.028862242430580998
0.32430980915299135 -0.06643964810664861 -0.026219521492852116
0.3235375117706366 -0.06611206097896306 -0.02456155869377985
0.3220273684906073 -0.06615646643932073 -0.025890474051369572
0.3265669774459906 -0.06567825837428777 -0.02559787485016718
0.32529316658249574 -0.06523733301456182 -0.023877029150856877
0.32296465152970033 -0.0653279618769428 -0.02551833245171442
0.3276271056579657 -0.06759144826228826 -0.027146343916787052
0.3262279462265082 -0.06704207225139348 -0.02565864178551569
0.3237644862579413 -0.06678648753459661 -0.028186236351860905
0.3200444411682196 -0.0654478566199085 -0.02532232257737055
0.3199274968551703 -0.06535046263034551 -0.025051359862221623
0.3202004265235968 -0.06500940485294072 -0.024882797926796818
0.3202893566536017 -0.06532122655208318 -0.025206510752571964
0.3201731275962897 -0.06522010727222173 -0.024912063807381535
0.320278925840766 -0.06492327614124029 -0.024818722933663273
0.321971459333808 -0.06538336439426153 -0.02622905823601618
0.3217585515426703 -0.06524540944392888 -0.025801722735299015
0.3192587923454352 -0.06465517444904058 -0.027048979729546452
0.31920896286240297 -0.06932761235530584 -0.024088089198006535
0.3193966578888007 -0.06947313709552495 -0.02442926618470087
0.3217542004036017 -0.06861882372195928 -0.02426866146935358
0.31884233469238954 -0.07009332342441289 -0.02500018927468195
0.31897668356171327 -0.07026903791721074 -0.02534828040017023
0.3213274907516547 -0.06913583441074102 -0.02489546391381159
0.32076029295197206 -0.06900661154086797 -0.02800953838242426
0.32044742817154603 -0.06875338120753972 -0.02746707651032343
0.31898616070023256 -0.06805672211940496 -0.02797204706086054
