ply
format ascii 1.0
element vertex 467
property float x
property float y
property float z
element face 0
property list uchar int vertex_indices
end_header
-0.20861567360930355 -0.3181628675757432 -0.03180375307633948
-0.20795745951704891 -0.3155708403883958 -0.03101178616120887
-0.2089956085162631 -0.3167059512434983 -0.032502110896850345
-0.20570190054945858 -0.3200328738986039 -0.027104582486892462
-0.204864812918233 -0.31768415287122964 -0.025887872873092414
-0.20628666681818875 -0.3191485793887162 -0.0278906783445127
-0.20552058322005184 -0.31894377782926797 -0.031047787366653205
-0.20640286607317837 -0.311766693144896 -0.028784867225433112
-0.20667053563170346 -0.3169210644064927 -0.031316067872787234
-0.20775443119578274 -0.3170039148627305 -0.029788311420226813
-0.2095468471723071 -0.3155305476485276 -0.027526613174224616
-0.20944066149763974 -0.3168222399054551 -0.03208306044175696
-0.20468860668711575 -0.31561980560407876 -0.02861886828973365
-0.20524705750517758 -0.31556288316831826 -0.026148136554504157
-0.20745451552443417 -0.31597394660101175 -0.0307249388082273
-0.20392657620482357 -0.3142716081439042 -0.029330517946029425
-0.20441755456499966 -0.31123496010885476 -0.027344848809982062
-0.20638324124388607 -0.3129988105593705 -0.03146352976396155
-0.20964434546999844 -0.31857589796171426 -0.031058784423614264
-0.20970056755118283 -0.31843010500059366 -0.03070956080987525
-0.20975354117922695 -0.3192018957434678 -0.03192957848146033
-0.20909592313342007 -0.3181476385890031 -0.029978241620803595
-0.209188623257207 -0.3181161375342393 -0.02956541985108924
-0.2079431842046252 -0.31913802936659097 -0.03139432877137732
-0.20966949863009365 -0.31533647492513894 -0.028648104367995978
-0.20992888314299496 -0.31385494187460183 -0.02756639927461219
-0.20875885886721524 -0.31434417679891824 -0.029923911987090827
-0.2090091536717883 -0.3176670463381791 -0.030783828197265387
-0.20934463841490658 -0.3152806849776292 -0.029560711084151984
-0.2099854330497256 -0.3165451081095719 -0.03191303819253516
-0.20658887726836117 -0.318631687909224 -0.027190830407882453
-0.20592748922877224 -0.3167376609145188 -0.025535520015502692
-0.20787580115370663 -0.31794861868009805 -0.02838933080270362
-0.20688895685248287 -0.31646240666494607 -0.02972176283433509
-0.20765396756701382 -0.31061083987341165 -0.02750068515374732
-0.20757016343645962 -0.3150985033808732 -0.030562754569793463
-0.20658425790839108 -0.22260634019956826 0.02737650662825036
-0.2069416771607867 -0.2179334105549836 0.030284408630584955
-0.20690113110117825 -0.21843644395456552 0.028419200481628656
-0.20198155743651303 -0.21893941774950265 0.029330615104889154
-0.20333933634333523 -0.2164356650410676 0.032648775877212766
-0.20476296348147305 -0.21719659283743142 0.028958860935425042
-0.20280670923762234 -0.21975975647554635 0.02466988951132226
-0.20512121719889553 -0.21532406821832895 0.027741495670532464
-0.20651671094469937 -0.21739036753759622 0.02404916674063134
-0.2036084662156573 -0.21486777976141214 0.02529701978132653
-0.2059925178962222 -0.21149308398351907 0.028982583584045648
-0.20330351395182522 -0.210975894480803 0.026644442381119012
-0.1996949742513171 -0.21288750484571695 0.026674930156921624
-0.20080724162630947 -0.21180940583334207 0.030098471941208123
-0.2023545931058398 -0.21179666534052133 0.026176039280151605
-0.2006088475661746 -0.21333458438501596 0.02445173651144433
-0.20355339152388485 -0.21000933065996408 0.02781072646543908
-0.20420096618704708 -0.2112791629134202 0.023483548464035272
-0.20799857182078274 -0.21496866062269449 0.02473879248068261
-0.20910316509776028 -0.21324239090070962 0.027456376852249383
-0.20541448695235165 -0.21051746025667428 0.026786867679809808
-0.20410932404570492 -0.21291914001093148 0.02579591065809655
-0.20530119342379483 -0.2124114425478959 0.028145942987655877
-0.20385663015417965 -0.2113024236260438 0.026865814031814813
-0.20672695142798336 -0.21423953190431833 0.026343617738937616
-0.2087858150678149 -0.2124436886607194 0.02880642205641198
-0.20928133828215512 -0.2124901802836442 0.02571458012030053
-0.203762797542142 -0.2154464812575364 0.025178257526611566
-0.20633466345839413 -0.21188356891260385 0.028940592111801385
-0.20359472734503659 -0.21150273993597268 0.026563171447967767
-0.20002181632094296 -0.21338651493177652 0.026628527940963983
-0.20103402239851864 -0.21226941958055734 0.030074808897232293
-0.2026641498284808 -0.21229072824106454 0.026122156681274652
-0.20089371306471737 -0.21382432594881295 0.024260316194748163
-0.20378549201064022 -0.2104166539011979 0.02763954192564416
-0.20449259681277188 -0.2117449285088563 0.023329857887481927
-0.20536725027136715 -0.21612823918447732 0.023809079231476068
-0.20523555380873593 -0.21647814825163125 0.02325794488356042
-0.20449672443442257 -0.21326268628225564 0.027481291593765497
-0.20531886620097073 -0.215661072879889 0.024073694051956415
-0.20516544384531887 -0.21593878582105874 0.023612443508362054
-0.20480142337851437 -0.21287290170774698 0.027598951162552118
-0.20402061743311795 -0.21614047303781747 0.026020620168899774
-0.20511683625750454 -0.2151110561190629 0.027522985042785882
-0.20516933304839047 -0.21327484562978982 0.02760872632429528
-0.21098594171576412 -0.3102983327208543 0.04441339165136743
-0.21095916432909878 -0.3066608400641465 0.045803163351272824
-0.21082836193613919 -0.3062620253859544 0.044534746708130124
-0.2072032521443835 -0.30971179321394204 0.047479931415771726
-0.20802418691687496 -0.3056074769793534 0.0489637294428103
-0.20869634849600704 -0.30685690954313516 0.04771286636755395
-0.20518895787768276 -0.31167531922445535 0.042004887165283444
-0.20724186105303677 -0.3033225627242112 0.04531401783392358
-0.20820410353712948 -0.30793861463651895 0.043104026617264035
-0.21017864150576504 -0.31243462279424905 0.04726621896192956
-0.21197730106882962 -0.3100354762373948 0.05088761836454797
-0.21391612095408352 -0.30958319619283914 0.045909796060776
-0.2044245134072772 -0.3100909383593583 0.04715791732237268
-0.20684364242129238 -0.30827013567075967 0.0503309705869906
-0.20855347616248043 -0.3092053921519303 0.04603103190824914
-0.2058546672540179 -0.30599708273992776 0.04611936599180627
-0.20679335100226315 -0.3015566857157731 0.04941320806906152
-0.20832432610564144 -0.30436010077581643 0.04560369640753198
-0.20966414911322506 -0.3176418931780839 0.046706918777679685
-0.2100695203023425 -0.31585017755613565 0.04840305835173059
-0.21117436689906033 -0.3143604488669419 0.04617250353262353
-0.20913432342581662 -0.3150468559561753 0.04832235366270471
-0.20965491039328488 -0.31340754941091775 0.049614612163757565
-0.20933012468390377 -0.3137237222491288 0.04723978430197168
-0.20978545946650418 -0.3108057172595048 0.0481053629533999
-0.21108619672827633 -0.3067192824183488 0.05033174544737268
-0.2105004022794238 -0.3084763677416825 0.04789358765051294
-0.20676263970904263 -0.23077691510305642 -0.03264787405564856
-0.20610157949499996 -0.22715299740419626 -0.02838015168740821
-0.20732155246310147 -0.22743170872316598 -0.030376668868804694
-0.2042028735356799 -0.22596249893293618 -0.0312572976930387
-0.206416828461217 -0.22335647955522775 -0.027788068948531867
-0.20663122636847409 -0.22410541191683053 -0.03116085737779212
-0.2037533502059451 -0.22576757684335946 -0.035158809123779056
-0.20632563335471066 -0.2215235771237397 -0.03186326831414771
-0.20677171451620968 -0.22350251093492746 -0.035372432170654056
-0.20650856000952633 -0.22117104545221566 -0.037385549245620486
-0.20826446814112576 -0.2198523820935273 -0.033074166475082156
-0.20592918796114834 -0.21811235859976053 -0.03443654984071326
-0.20188854438834103 -0.219245696216681 -0.03564351409509253
-0.20303800506167324 -0.2190555872021699 -0.03235154956414771
-0.2043312023358813 -0.21834319248781442 -0.03547918408944678
-0.20337892872862728 -0.21953722253427743 -0.03660279124810767
-0.20643298131995114 -0.21729608789072274 -0.03367474287583899
-0.20770185989909085 -0.2176735194026017 -0.03765084951951575
-0.21291425628237637 -0.22198204115019082 -0.036689873634124515
-0.2135838995652667 -0.2217491210995698 -0.03544544786050391
-0.20964726609759243 -0.21759831324205636 -0.033604767022872684
-0.208400009103345 -0.21964153066263437 -0.035775121150756595
-0.20869418782763394 -0.21962269559488534 -0.0350094994886167
-0.2058060000615588 -0.21723526135072946 -0.033699270187164065
-0.2101465146022311 -0.2200803102551484 -0.03376358359887671
-0.2110705058055392 -0.21981031611547708 -0.033063467441344974
-0.20652080876402767 -0.22141909018144845 -0.0372292956693418
-0.20823566419653805 -0.2200294227896714 -0.03289213388993811
-0.20606754524283322 -0.21837825492010354 -0.03430410832002234
-0.20202150744967373 -0.2195685298739457 -0.035477038322234866
-0.20314748389296444 -0.21934410348520517 -0.032114442287231204
-0.2046051750855914 -0.21863637283430337 -0.03534796446397376
-0.20352603299193295 -0.21963834181413888 -0.03659361213281226
-0.2065885792451373 -0.21729534283266305 -0.03361153215005469
-0.207681653924512 -0.21777098789797067 -0.03758552282884192
-0.20757065517477902 -0.22186846449957132 -0.03623297422959876
-0.20734172863535794 -0.22258337751016855 -0.03771718948915076
-0.20465509397559078 -0.21919123247251748 -0.03150495499208045
-0.20780646605067166 -0.22132312670336007 -0.03592785805299353
-0.20757932765059384 -0.22201297596082925 -0.03740027159288001
-0.2051748166757098 -0.2188785316048646 -0.031322773395324466
-0.21231145960860165 -0.22030174151048898 -0.036623921094680545
-0.2134983967023364 -0.219768875986197 -0.03524019926621985
-0.2151262144523135 -0.21805782034979104 -0.03486820667817664
-0.21146084172301205 -0.2898915202914262 4.0177406524897395e-05
-0.20696648759417446 -0.27381999209509134 0.0038466492311708934
-0.20634183091692837 -0.2762287349997544 -2.59837491757862e-05
-0.2060358802752963 -0.2666167111693406 0.005651090444778682
-0.2048722933011523 -0.2530061395464921 0.00800329834387231
-0.20877860290579708 -0.2606832475958848 0.00452933103010583
-0.20798012418322476 -0.26416526153669595 -0.004397030769134282
-0.2075934539514056 -0.24649287179098367 -0.0008681079728848927
-0.2124280611949435 -0.2574752660094285 -0.004443760810638188
-0.2070647458510867 -0.2863617928324723 -0.001831527648711919
-0.20583568317465695 -0.2730142267046952 0.005759392084335567
-0.20390477580599697 -0.27026734665022134 -0.0007209143026120655
-0.2021463493781558 -0.26302234247312783 0.0033989587442629344
-0.20556945902876766 -0.25524933055029153 0.008936587871765376
-0.20565566224627407 -0.2573391886054063 0.0026770868913881785
-0.20229202312998684 -0.2539017589388871 0.00017661243841576654
-0.20378880006842526 -0.240441808253386 0.0053167083875887405
-0.20746356052927883 -0.2496709616480851 0.00024119407102990228
-0.20844834847025784 -0.29072884634123086 -0.0033590456826932424
-0.20462566418223294 -0.2801958711443925 0.0031771102564089305
-0.20356139344744595 -0.2728134484587693 -0.0004908403737790577
-0.20672982735209378 -0.26916382625684976 0.0007331410066835888
-0.20821852786116513 -0.262082615643599 0.005672011675094844
-0.2059564421849719 -0.26225138619528054 0.0011729636804811963
-0.20900323791079434 -0.2577665837107682 0.002240602077697993
-0.21010961932711514 -0.24754981115446328 0.00650340706274438
-0.21283721727900418 -0.2538957090674424 0.002755973638748408
-0.20984761220984371 -0.26785908058271646 0.054575417341446164
-0.20911831957869442 -0.2669865877924943 0.05466702968046594
-0.20924886865191372 -0.26610965445623636 0.05369255334303308
-0.2079993764834872 -0.26743648365125894 0.05695829183027673
-0.2076750974135867 -0.26637724950895547 0.05739587932989526
-0.20805689496569546 -0.26670692279920816 0.05613896638319421
-0.20839965147547634 -0.2686728031931901 0.050771180690979245
-0.2076501230674258 -0.26517961338148355 0.05231571585104394
-0.20843155486159237 -0.26754433825598 0.05001375466749597
-0.2069186846690646 -0.2660075516997361 0.05374014765188623
-0.2075847367721072 -0.26493591979131936 0.054684672655319455
-0.20621250373892697 -0.26464990690336465 0.052760128082489255
-0.20389146906905087 -0.26508132532224893 0.05524397283956933
-0.2053370754199496 -0.264245131760695 0.05657396108076501
-0.2044443617539874 -0.2649270983038926 0.0543638804571383
-0.20512617928557308 -0.2655994983016038 0.05242488175795007
-0.20450334054999264 -0.2627228291331315 0.05356580406591821
-0.20602965158991726 -0.264158347397902 0.05104503423139978
-0.20821310383849057 -0.2679663391409898 0.05387241035864282
-0.20798966092638882 -0.2681256623564744 0.0535813310758822
-0.20703439218573483 -0.26692683413610696 0.05414823085234094
-0.20657954914145382 -0.2671366722880387 0.05454376727507043
-0.20652499599032315 -0.2671708555518174 0.054498974384521726
-0.20549782914690884 -0.2669819088278794 0.05483529359266687
-0.20930164856486233 -0.26649112418279886 0.05470389515325952
-0.2087378482299319 -0.2647885473071122 0.055589083732818845
-0.2091593126731387 -0.26499969676122903 0.053880486788009885
-0.21174064082674893 -0.3215393812953019 -0.005066480336929082
-0.21047004861407193 -0.2989912421999955 0.0007807055132143505
-0.21411557299666317 -0.30638126447782754 -0.0030516049249417775
-0.20241121751837643 -0.30650449708090066 0.0003477969782106884
-0.20219851834349545 -0.28858418181524514 0.003859285415863276
-0.206947235293912 -0.30049256399259805 3.055125639367181e-05
-0.2053986172156802 -0.30579290702924966 -0.009915854631210088
-0.20501921875052365 -0.2878101558981919 -0.006937023101592778
-0.21084885103278073 -0.29954091623411416 -0.009623642860198735
-0.2102802376227847 -0.31837267592535257 0.0014636257307283887
-0.21613611084990414 -0.30646941974745034 0.01041523009703088
-0.21893627745680722 -0.30703277304754495 0.0012906232492678174
-0.19956990880541714 -0.3014609606562638 0.0033381024019472605
-0.20570604307227047 -0.29525444820509195 0.00922593861982751
-0.20793939930968197 -0.29831663683042764 0.001074109377121211
-0.19866210026316555 -0.2938982041178727 -0.0012532731874234668
-0.2040405700879565 -0.2790836484728837 0.005405698122238399
-0.20846189362578305 -0.2877356202899003 -0.001078452764297246
-0.2105425576644412 -0.3288575799761796 -0.002065624891067266
-0.2139840106444827 -0.31687057927236795 0.008465681375717403
-0.21364992661051663 -0.31462828233824014 0.0009346345083467968
-0.20709317726664456 -0.3067768903075242 0.003113959135269404
-0.21196009022765072 -0.29747859552488565 0.008110676111435176
-0.2111233602242938 -0.3006133528052354 0.0016020277158968457
-0.20680621070437344 -0.298174300938704 0.00036016494200158194
-0.20998556716017636 -0.2829344065485978 0.005211476387237788
-0.21199177009634884 -0.2914261014758134 0.0002054312841646679
-0.21139479977660092 -0.29559085682020425 -0.022987123428130866
-0.2096655200200549 -0.27686540201292276 -0.01890804976060462
-0.20918023390345486 -0.2836493642626786 -0.022706325946594
-0.20180688602499874 -0.27789313510046243 -0.02011051386430335
-0.2031703422742358 -0.2624864967165971 -0.016189750133300543
-0.20716146928839596 -0.2718497903643632 -0.020452584920669318
-0.20333339078001889 -0.27793914988622903 -0.029706682859206916
-0.2050597499089709 -0.2601597996054673 -0.025615271030212165
-0.2096880207734576 -0.2714343459902787 -0.029589380918288947
-0.2065704296308032 -0.2916665764151597 -0.023627187906051398
-0.2093821297364703 -0.27710572794065713 -0.01561227053239417
-0.20708755952887448 -0.27804640844450235 -0.023313607869888068
-0.1957613359170428 -0.27106342628584146 -0.021358694730544806
-0.20143461031489285 -0.2636427374182725 -0.015420581994796513
-0.2033074329572192 -0.2664916904269242 -0.022781636415267707
-0.19680449170641812 -0.26358471229658365 -0.026738371549392462
-0.20132398409418972 -0.2494447918234849 -0.020111080108428717
-0.20512626869254025 -0.25845150068388223 -0.02630170792176795
-0.20800386173300656 -0.2976271302996659 -0.024852689204955817
-0.20843381983809384 -0.28759936407194375 -0.016768183408523322
-0.20576827032141598 -0.28270156100378274 -0.02285980790689063
-0.20280621749930294 -0.27522985056028604 -0.022049721179748297
-0.20798998875193508 -0.26747695520506143 -0.01602881759240699
-0.2059614787774554 -0.2690920622645402 -0.02204763501718116
-0.2034309337811938 -0.2665408642588639 -0.024069931207443
-0.2065851817803851 -0.2552954347430253 -0.018293108640456916
-0.2096483240800372 -0.26160178497419595 -0.02293210834100318
-0.20723297996096524 -0.2957983703909898 -0.0235169789178617
-0.20813494724802883 -0.27847413137541055 -0.01700189322068763
-0.20607298416666897 -0.28188900068388223 -0.02292877048089576
-0.1971596310811511 -0.27451891615972757 -0.02125221103265357
-0.202595828004407 -0.2621285112200761 -0.016023602185989142
-0.20406694514326962 -0.26869303897009134 -0.02262174695565772
-0.19878661436610134 -0.2679751904307389 -0.0290021559579618
-0.20234329802565487 -0.24987400487051248 -0.02319293826654029
-0.20700205666594418 -0.2613435180483842 -0.028684761224532843
-0.20475116176180752 -0.2142376394568467 -0.009935673175597905
-0.20454257530741604 -0.2134381623564744 -0.008444662986541509
-0.20568887693457516 -0.21248764708624124 -0.007829751668716191
-0.20504995984606655 -0.21271232679472207 -0.009376283584380864
-0.20501492721609982 -0.21209185734377145 -0.007748480735564946
-0.2058430741506091 -0.21117688134298562 -0.00806679934098792
-0.2054322789388171 -0.21080183401689767 -0.012063708005691289
-0.20694891912512692 -0.20930125728235482 -0.010119344888473271
-0.20716880065970333 -0.20881746128187417 -0.01211762040689063
-0.20338240069918545 -0.21108427062616586 -0.012603845296645879
-0.20312997502856167 -0.21087823227033853 -0.011436965165878056
-0.20379850072436245 -0.20980110183344125 -0.009917434154296636
-0.20336404246859463 -0.21046324983225106 -0.011775638757491826
-0.20315404040388974 -0.21030271962270974 -0.010451789794708012
-0.20457845730357083 -0.20930586174116372 -0.010226961074615239
-0.20592500073485287 -0.20804757788763284 -0.012713339029098271
-0.20725236637167843 -0.20688139811144113 -0.010955836473251103
-0.2081638704019061 -0.20628937497720956 -0.013201620279098271
-0.20567047400050076 -0.20786970272646188 -0.013980772195602178
-0.20558307869009884 -0.20810447052107095 -0.014928247628951787
-0.202832205124425 -0.20503088250742196 -0.010255332885528325
-0.20467908484511288 -0.20744260564432382 -0.013785447774673222
-0.20453609330229672 -0.20764301136121988 -0.014768954215789555
-0.20242115659289273 -0.2050186784564042 -0.010231282411361455
-0.21086206836275967 -0.20988433971987008 -0.010167624650741338
-0.2103313337045184 -0.2101647646723771 -0.010902847944045781
-0.21223436100058468 -0.20921985223875283 -0.010987099109435796
-0.20298690897993954 -0.21001009061918496 -0.013577069936538457
-0.2027949671226016 -0.20985955908880471 -0.012650038896346806
-0.2025515119510165 -0.2085802944003129 -0.010485555825973271
-0.20177618963293942 -0.21011192515478372 -0.012738462386871098
-0.201685679979848 -0.21006848826990365 -0.011817570625091313
-0.2026808540301791 -0.20898295357809304 -0.010891791282439946
-0.20634670359663876 -0.20817766502485513 -0.01253220051362586
-0.20755572421126278 -0.20724568679914712 -0.010942187009597539
-0.20860592824988278 -0.20658674254999398 -0.013163383899474858
-0.20578992170863064 -0.20815055981264352 -0.011917497812057256
-0.20439164144568356 -0.2098636867104554 -0.016900297103667975
-0.2040156106429568 -0.20601689234361886 -0.009144838748718022
-0.2035152296500674 -0.21233167663202523 -0.014356072841430425
-0.20346660716109188 -0.21588760033235788 -0.019363965688491584
-0.2009578476624957 -0.20770669892416238 -0.011045809684539555
-0.2061765919404498 -0.20883136406526803 -0.006780173478866338
-0.20488436324171933 -0.20933454647646188 -0.008550759254241704
-0.20663516027502926 -0.20642099693403482 -0.00466188400819373
-0.20738605958990963 -0.2855002672968888 -0.020944114623809577
-0.20509624285273464 -0.26503253892050027 -0.01567059367730689
-0.20327493352465542 -0.2717841060458207 -0.019386943279052497
-0.19958177012972744 -0.2586368413268113 -0.0202307662351377
-0.20241647762827786 -0.24332321599111795 -0.014961030183578252
-0.20567598743014248 -0.2528544457255387 -0.019464548526550055
-0.2004535774665347 -0.25861130073652505 -0.02850582808091712
-0.20366965038351925 -0.24120959058389901 -0.02324881762101722
-0.2078448812442294 -0.2527225406466508 -0.027679081855560065
-0.2105039934592715 -0.2691935689745927 -0.023177590070510627
-0.21311951977782162 -0.25498936489210366 -0.015377666650558232
-0.20920614702277096 -0.25570968702421426 -0.022492226062560797
-0.20083485347800167 -0.2467151077090287 -0.021846886573577643
-0.20723686916403683 -0.23940997734651803 -0.015267845092559575
-0.20922145051531704 -0.24193226709947824 -0.02259420960977149
-0.20250591439776333 -0.23990119412527322 -0.026283915935302497
-0.2075428347068301 -0.22789146915064096 -0.019444729982162238
-0.21031866771750363 -0.23588521197424173 -0.026115443406844855
-0.2125693093019 -0.2730614931880021 -0.025642182527328253
-0.21368308169417294 -0.2636114747820878 -0.0171579381807096
-0.2095131854491702 -0.25810272410497903 -0.023034717736984015
-0.20846099955611141 -0.24906727090463876 -0.023747708497787238
-0.2149341384845248 -0.24333673134432077 -0.016567852197433234
-0.21239229840807827 -0.24374059751615762 -0.02234142631127906
-0.21125840944819363 -0.24111578777418374 -0.02395587771966529
-0.2152884880977145 -0.2330975176392579 -0.0174742600305326
-0.21700076562933834 -0.2378112764655137 -0.02289214342668128
-0.20721956891589077 -0.27572072461233377 -0.02340644210412574
-0.20881686908774288 -0.25870163157568216 -0.016390975414062262
-0.20485496325068386 -0.2617333622275376 -0.022697981296325446
-0.1987326870637408 -0.25041151955709695 -0.022501703201080085
-0.20425656241946133 -0.2402507604657197 -0.016130473314071418
-0.2063422481494418 -0.2452442587910676 -0.023224409518981696
-0.1998373995500079 -0.24519787147627115 -0.02879121512010169
-0.20449305874876889 -0.2300891371069932 -0.022126581369186164
-0.20814461810164364 -0.2401664496956849 -0.028267677722717047
-0.21757639748625668 -0.29951382592306375 0.026074770988678216
-0.2158738802152148 -0.2826965542136216 0.02990171700880456
-0.21666742665343197 -0.28746853187666177 0.025149796308731317
-0.2090779374318591 -0.2872761280833268 0.03204909354612756
-0.2092826197820178 -0.2709102423487687 0.03465730339453149
-0.2124980817513934 -0.2806090803442979 0.02981275707647729
-0.21160039109759243 -0.2838507087527299 0.02300796300337243
-0.20947961313300045 -0.26631430700407266 0.024755779804443597
-0.21528571648173245 -0.27708802536115884 0.021339122356628656
-0.21431283456854733 -0.3021408708392167 0.028175834717010736
-0.21741203767828854 -0.28996373131857156 0.036448333563064816
-0.21637192172579678 -0.28950406029806375 0.028480474056457757
-0.2077758441644183 -0.28254578426466226 0.032682541908478024
-0.21104809445910366 -0.2751294465361619 0.03732970744535852
-0.2118734101729861 -0.27796162083730935 0.030419144930099725
-0.20663878125719937 -0.2790692837534928 0.027205649914001703
-0.20963492793612393 -0.263086387663939 0.031980876030182126
-0.2139101008849612 -0.2720311672984147 0.027055356802200555
-0.21346923512988003 -0.3096891434489274 0.025871548952316522
-0.21405990225844296 -0.2983370514212632 0.03446829706594873
-0.21120418412260922 -0.29360426381216287 0.028248492778991937
-0.21114358110003384 -0.2876280339060807 0.03307211786672998
-0.21300543648772152 -0.27807597234831094 0.037083391250824216
-0.21175399226717861 -0.27971369937048196 0.03106862694189477
-0.20980109078459652 -0.2831838221846604 0.029080275596832513
-0.21127532226614865 -0.2661795409022355 0.03259793311521936
-0.21394264502100857 -0.275096783190825 0.028695199789261102
-0.2088931034284106 -0.30607343628988504 -0.01559546202256751
-0.20925678116850766 -0.29112992599592447 -0.012024964986587285
-0.21045467061571987 -0.29604671314344644 -0.016137476859832526
-0.20257708234362515 -0.29905698612318277 -0.011166240869308232
-0.2026462088304034 -0.2874963672457719 -0.008044984041000127
-0.2051525692420474 -0.2954754026232743 -0.012097474036956548
-0.2048669735866061 -0.29687962844953775 -0.019694562850738288
-0.2035997937398425 -0.2824078293143296 -0.016257192788863898
-0.20801058215670498 -0.29311434343443155 -0.020158048568511725
-0.2090016285853854 -0.3056958706675553 -0.01198079794480872
-0.21441228491835507 -0.29739646032438516 -0.00485598653390479
-0.21512298090033444 -0.2973501475153947 -0.012702520786071538
-0.200256196685361 -0.29369539931402444 -0.01123350471093726
-0.20579258901648434 -0.2897587807475114 -0.005882408319259404
-0.20601030988268765 -0.29226250365362405 -0.01298749059274268
-0.19926486713461788 -0.28784666374311685 -0.015004392562652348
-0.20324064595274838 -0.27899436071501016 -0.009532894788528203
-0.20709746880106839 -0.2838971407710099 -0.015100147424484013
-0.20899745626025112 -0.31223363593206643 -0.01604330152108741
-0.21356047493986996 -0.3061221630869889 -0.007656540570998906
-0.2129791210370532 -0.30208677962408303 -0.013554151950622319
-0.2079211602883807 -0.29675025656805276 -0.012183900771880864
-0.21260861856512936 -0.29302320793257 -0.00762739389970374
-0.2101067881064883 -0.2941038997469926 -0.012417312560821294
-0.20726084513239773 -0.29268897488699197 -0.014351453481460332
-0.20915941698126705 -0.28652129486189126 -0.010485287605071782
-0.2110611031728259 -0.2889706583319688 -0.013995762763763188
-0.2055257539229861 -0.2567451985178971 0.031664196552490476
-0.20750139457755 -0.2428786249457383 0.03566688686773706
-0.2038300911860934 -0.24724174454794168 0.031661871971344235
-0.19705101651720913 -0.24201176479444741 0.03235191494390893
-0.20100396675639065 -0.2332663477955842 0.03730124622747827
-0.203270135350751 -0.23782961979494333 0.03257537275717187
-0.19745330316595944 -0.24490571930990457 0.023887518944000482
-0.20387145680956753 -0.23207038059816598 0.029347423614715814
-0.20638447804026516 -0.23957517161951303 0.024267289938186883
-0.20498847765498074 -0.24728442147360086 0.0293985643999331
-0.20750421089701565 -0.2364897818861985 0.035455737413620236
-0.204570783205556 -0.23683380499468087 0.029498104156708
-0.19900198084883602 -0.23103568866834878 0.030660931171631097
-0.20332905454211148 -0.2255969734488511 0.03585189968511987
-0.2048398832755557 -0.2280935885010743 0.0294615367071383
-0.1986747960525027 -0.2301441074906373 0.025185410083984613
-0.20387629968695553 -0.22078893497572183 0.03114828854963708
-0.20591991943888577 -0.2262736798821473 0.025288555921768426
-0.20613182885222348 -0.24933950021848916 0.029958758653854608
-0.20758248669676693 -0.24044337287531137 0.03627419859335351
-0.2035896162467471 -0.2378108145295167 0.03073445350096154
-0.2035649250226489 -0.23189681187258004 0.0318070390836947
-0.2080005983787051 -0.22671700432882547 0.03707981497213769
-0.20767417354159268 -0.2278366179762864 0.031605098547195676
-0.20386844677500637 -0.22959206417188882 0.028447810711120843
-0.207696182556676 -0.22183034732923745 0.03394446164534021
-0.2092270980554095 -0.22597304895506143 0.028830800356125116
-0.20403565270476254 -0.25192728057489633 0.030759368242477655
-0.2069233040290347 -0.2388943822680497 0.03676948338911462
-0.20301936370901974 -0.24079954043016671 0.03101972133085656
-0.19787834388785275 -0.23397038295850991 0.03158516079351831
-0.20147932869963558 -0.22744745925054788 0.036624614299988034
-0.2036472241359225 -0.2307336421309495 0.030588392318939447
-0.19783182246260556 -0.2345686794816041 0.025767509044861078
-0.20332120163016232 -0.22351413384065866 0.03162008911535669
-0.20549303097300442 -0.23023789539919137 0.025899443926071405
-0.21425151629023464 -0.3215287716685319 0.021489504875396966
-0.21531289619975003 -0.3083391578494096 0.026603672804092645
-0.2181612829642764 -0.31348336651907205 0.021678868831848382
-0.20308904153876217 -0.32095117285833596 0.024121020139908075
-0.20504396957926663 -0.30957613304243325 0.02874619156286645
-0.2087579796987048 -0.316985735446074 0.023831103147720575
-0.20639878315501126 -0.31740487530813455 0.017205510439132928
-0.20688810748629483 -0.3023375065623307 0.022024456562256097
-0.21189145547919186 -0.313121149092772 0.017603937687134027
-0.2127596865373126 -0.3243463428317094 0.029678169788574457
-0.21770457727484616 -0.31675741985426187 0.03611156732008386
-0.22120733363203915 -0.31753907516584634 0.028046403230880975
-0.20159134072832974 -0.31695947960005044 0.02943969160482812
-0.2074193487840167 -0.31290883734808206 0.03484237581655908
-0.20937311453394802 -0.3154789300261521 0.027236495317672967
-0.2021133582072726 -0.3088235647974992 0.026754621566986322
-0.2059169243054858 -0.2990983517466569 0.03219047576353479
-0.20991356474928768 -0.3051223547755265 0.025873217882370233
-0.2134560177999011 -0.33223588183508157 0.025017533601974725
-0.21489791376166256 -0.32547704294309854 0.030793640913223504
-0.2177167962270251 -0.3240600617228532 0.025191370548462152
-0.2097871283965579 -0.3243571312724137 0.027290973962997674
-0.2126472721772662 -0.3189819248019242 0.030920896829818963
-0.2119443695025912 -0.32186562731848 0.025653336347793817
-0.20951154632143887 -0.3139199705420518 0.02684876710340905
-0.21155604524187954 -0.3042896480856919 0.030903969110702752
-0.21312284273676785 -0.31018886879072427 0.026199016870712518
