ply
format ascii 1.0
element vertex 266
property float x
property float y
property float z
element face 0
property list uchar int vertex_indices
end_header
-0.1391711215453616 0.3449118940533614 -0.21673704296186042
-0.1395683567004672 0.3576765267552352 -0.20986865073278022
-0.14359622997813137 0.35381468221559287 -0.21685003846719336
-0.12668816549353512 0.34925015851869345 -0.2123555949313886
-0.13068513376288327 0.36283870622529746 -0.20699275642469
-0.13699362976126583 0.35615154191865683 -0.2143199256046064
-0.13146501583628567 0.3555618731678939 -0.2216046562774427
-0.1332630495505801 0.3732900826634383 -0.21671861022546363
-0.13844023448996456 0.36256208106889487 -0.22315151601865363
-0.1363359074073306 0.3409865705670333 -0.2095136156661756
-0.13902017278246792 0.3502801267804122 -0.20140070825650763
-0.14309979779295834 0.34971686288728476 -0.21024259537293982
-0.12638950151972683 0.3527676074208236 -0.2065788468702085
-0.13214272064738186 0.36134674236192466 -0.2007586917264707
-0.13746517700724514 0.35795929119004966 -0.2087664118392713
-0.13028627438120755 0.35747250005616904 -0.2138621023280866
-0.13464776975684078 0.37430991813554526 -0.20878514259889197
-0.13802511794142636 0.36573519393815757 -0.21551070719792914
-0.03823162419371517 0.2785449831189132 -0.20251763969495368
-0.037983490057515217 0.278407832831285 -0.2028520962579496
-0.042136741705464435 0.27729435846223593 -0.20501513391568732
-0.03697339994482906 0.2782033888997054 -0.2017924001796491
-0.03677271110587032 0.2781207768620467 -0.2020891270025022
-0.041167421169804645 0.2768269984425521 -0.20415430873467993
-0.034410757847355915 0.27820142194642783 -0.20445343464448523
-0.03488148552946956 0.27897211000337363 -0.20353859275415015
-0.04021610123686702 0.2774538008870101 -0.19959593921735358
-0.03959967000059993 0.2770807950200057 -0.2004586270435102
-0.04177216989569576 0.2756409852208114 -0.2024289479835279
-0.039767755098866535 0.2772960869969344 -0.19918749838903022
-0.039176804848240925 0.2769286839665389 -0.20003048688008856
-0.0415477882104388 0.275452932566545 -0.201965119539047
-0.03955708248190792 0.2769802419842696 -0.1991397997720487
-0.03982351524405391 0.2774226276577926 -0.1986818125827558
-0.04174418551497371 0.2778801529110885 -0.20072061925962043
-0.04048140151076229 0.27655150577440024 -0.202321182785774
-0.042801929541157795 0.27570619270219565 -0.20303554445340705
-0.04221178395323665 0.2782547681035018 -0.20167463630273413
-0.040902329512166095 0.2769173590840316 -0.20338064044549536
-0.04286660058073909 0.2760955898465133 -0.20411890357568335
-0.04290930730872066 0.2775616256894088 -0.2011210581643827
-0.04276023609213741 0.2769471018017745 -0.20155925661161017
-0.044626755543278766 0.2766952721775985 -0.20207661002709937
-0.038526637383030964 0.27888127252473593 -0.20224304109647345
-0.03807575804762752 0.27851768419160605 -0.20266198724343848
-0.042618704863118244 0.2777770964802718 -0.20446374624803137
-0.03767208559088619 0.2787322013081527 -0.2015066555125959
-0.03724710447363765 0.278388997763536 -0.20190523177220893
-0.04171605212263973 0.27742441579713584 -0.20366642981603217
-0.03582007987074764 0.27938958093538047 -0.20462841898038459
-0.036157501764821125 0.28022517845048667 -0.20389178007676673
-0.03489802581839473 0.2811134664715743 -0.20418016224935126
-0.034368200130986286 0.2798974125088668 -0.2049306443317182
-0.03941501481108577 0.2795300094784713 -0.2056582233293302
-0.03482188088469417 0.28112228795900107 -0.20414103180005622
-0.03427786929182918 0.2799039094151473 -0.20490339010789466
-0.03939743144087703 0.27952619478120566 -0.20560873657300544
-0.03343723518423946 0.28118648216142417 -0.21118445306851935
-0.033438457079457355 0.2820155231656051 -0.21092991143300605
-0.03716777069144161 0.2806494443119979 -0.21118856578900885
-0.03834022385649593 0.2783635465802169 -0.20263969510629248
-0.038097156115101886 0.27823217794313193 -0.2029622903449781
-0.0422414670663348 0.2771004645527816 -0.20514033347203803
-0.03705100519232662 0.2780108658970809 -0.20192283004357886
-0.036855531759785724 0.2779466716946578 -0.20222109168603492
-0.04125259620718868 0.27663525030030967 -0.2042946329696424
-0.03446937901549251 0.2779844610394454 -0.2045685759170301
-0.034932656117009235 0.2787423340977645 -0.20365921765401435
-0.04493735534720333 0.3567951528729415 -0.23894013076856208
-0.0441834459977618 0.3621858565510726 -0.2373921683414228
-0.044950319357441974 0.36132808610810996 -0.24061554282739234
-0.03824661476187618 0.3549609987439132 -0.23611969858243537
-0.037606937714146686 0.3600835411251998 -0.2344188502414472
-0.039790106840657306 0.35780473634614707 -0.23794938236310553
-0.03947128159575374 0.35337611123933554 -0.24442310243680548
-0.03923998577170284 0.3629129140080428 -0.24194857090547156
-0.04182378751807125 0.3570828644932723 -0.24578755706384253
-0.048222405739354206 0.353589078635118 -0.23666399329736304
-0.04934792024664791 0.35989381954087973 -0.2326340785606153
-0.050909770556019855 0.36075069591417075 -0.2375321498496778
-0.04367743236594112 0.3591835109890914 -0.23493651658132148
-0.04545368058257015 0.3635177819432235 -0.2319556882961042
-0.04598368508391292 0.3620814888180709 -0.23706234603955817
-0.042408300467061115 0.36072816535844565 -0.238294567762161
-0.04356623990111263 0.36842097923173667 -0.23524400204255652
-0.04572473270468624 0.36423864051713706 -0.23973674684598517
-0.04764650566153438 0.3494501321019149 -0.23604850083425116
-0.04736180407576473 0.35352673217668296 -0.23355060428216529
-0.04798261625342281 0.3563981859387374 -0.23684662192895484
-0.04572172267012508 0.3562272398175216 -0.23260217517449927
-0.04613514048628719 0.3601927368344283 -0.23072254270150733
-0.04682178599409969 0.360294720381639 -0.23463551312520575
-0.044041765757130695 0.35688467904939414 -0.2367651125772245
-0.04474113685660274 0.36448957607164145 -0.23440631836488318
-0.04564727646880062 0.3608120886982894 -0.23823870330884528
-0.08721960885100276 0.32556225940599204 -0.20701305180623603
-0.09117851955466182 0.33437331601991416 -0.20302970319821906
-0.09299136502318293 0.33076693698777915 -0.20880966991021704
-0.07046894533209712 0.32242425367250205 -0.20701469093396735
-0.07249410254530818 0.32753767654313803 -0.20322081059053015
-0.08156887991003901 0.3265178410710311 -0.20879388958051276
-0.07584415180258662 0.3264921514691329 -0.21112084001138282
-0.07621006471686274 0.3348488418759322 -0.2074924668653257
-0.08181594116263301 0.32992311403169394 -0.21310494452550482
-0.08731527430586726 0.3236320225895858 -0.2030082604272611
-0.09075255496077449 0.3298245875538802 -0.19815384954049658
-0.09513319832854182 0.32911708042039634 -0.20527299851014685
-0.07378659946494014 0.32504077836885215 -0.20393137246205878
-0.07909910184912593 0.329436144083879 -0.19919059783055854
-0.08448160988860041 0.3280616609753585 -0.20608825594022345
-0.07853875858359248 0.3294806687535262 -0.20689449816777777
-0.0809767375665179 0.3373305408658004 -0.20279228299691748
-0.08479367000632197 0.3327616064251876 -0.20906196147039008
-0.10112888915114314 0.356488248556993 -0.2241519054754026
-0.10742474896483332 0.36594887658967734 -0.21918662994935584
-0.11126901013426692 0.36148210451020957 -0.22543061882093024
-0.08584861261420161 0.3582655398549056 -0.22118165701463294
-0.08719961149268061 0.3606322018803573 -0.2149992695434339
-0.09613589746527583 0.3587499468029952 -0.22151602417066169
-0.08751408559851558 0.360122760981462 -0.22857147067620825
-0.0878843496518603 0.36555870458497763 -0.22174189597203803
-0.09932635528616816 0.3630236594380355 -0.2290589472635038
-0.10559682352118403 0.3576873748005843 -0.2167601099593885
-0.11283497316412837 0.3642101494969344 -0.21133650451734137
-0.11858694059424311 0.3623089401425338 -0.21926098674371314
-0.08659334284834773 0.36190112516298056 -0.21950889736249518
-0.0954154263215533 0.3633647172154403 -0.21121956020429206
-0.1028980444150439 0.36269100591554404 -0.22002154201104712
-0.09054066044859797 0.3615197746457076 -0.22448254734113288
-0.09666304094366938 0.3669749109448409 -0.21856461077764106
-0.10294465524725825 0.3646508066357589 -0.22561288982465338
-0.07559554082922847 0.3451897709073043 -0.23070938497617316
-0.07736073238425166 0.3594255058468795 -0.2260722777230985
-0.08042083484702021 0.351746877879045 -0.23168064266278815
-0.058544976540135456 0.3431058137120223 -0.22721522658898902
-0.058413101263569904 0.3537107317151046 -0.22216981261804175
-0.06781242591910273 0.3479142396153426 -0.22853634863927436
-0.06210110885672481 0.3454224674405074 -0.2360360881669767
-0.06210504276327999 0.35991456195726157 -0.23110200077130866
-0.07005660039954097 0.3503687588871932 -0.2370063474757917
-0.07740585310034663 0.3378744332493758 -0.22465498357846808
-0.07936616046004207 0.34953369781389 -0.21903384834363532
-0.08235163790755183 0.3455949632824874 -0.2260871043784864
-0.06276301843695552 0.33985318824662925 -0.22189217418267798
-0.0667056570725909 0.3503799049557662 -0.2166029027087934
-0.07308231098227412 0.34572102710618735 -0.22386623531415534
-0.06626014215521724 0.344272991866014 -0.22833360344007086
-0.06800184948019893 0.3581764905156112 -0.22445299833848548
-0.07327331406645686 0.3496042101086593 -0.2304300478084333
-0.07958297235541255 0.3365656344593978 -0.22667438894345832
-0.08072931868605525 0.34839936181916953 -0.22150615960195136
-0.08311848146490962 0.3444289772213912 -0.22768400221898627
-0.06664578420691401 0.33861478254213095 -0.22343864649369788
-0.06957827312521846 0.34962972089662314 -0.21895967036321234
-0.07448710305266291 0.34423514291658164 -0.22547150760724616
-0.06943969232611567 0.34275939151658774 -0.23035330682828498
-0.07003314597182185 0.3563834635914779 -0.22671182066037726
-0.07493750555090815 0.34794058486833335 -0.2323671540601499
-0.0377389023976794 0.3088188378514266 -0.20296579211785865
-0.03702540499739559 0.3080523221196151 -0.2036455532891996
-0.0392798016744128 0.30752297326936484 -0.20477743059232306
-0.036131126709508014 0.30870928451432944 -0.20270227998330664
-0.03540457589201839 0.30796637222184897 -0.20338457435205054
-0.038432223625706745 0.30745120927705527 -0.20435390978887152
-0.03261403543524654 0.30851407930269004 -0.20585122316911292
-0.03298575980238826 0.30934890195741416 -0.20507919400765967
-0.03540266854338558 0.30892743751420737 -0.2065657785518415
-0.038547856636571 0.3085313050450301 -0.2016262969358213
-0.03776596290640743 0.3078527657689071 -0.20247141629293036
-0.03844557506613643 0.3068657724560714 -0.20404956847264838
-0.03790859682135494 0.3083635775746322 -0.2011382541044004
-0.03716362816862972 0.30769147560014487 -0.201925378142143
-0.03810281855635555 0.30663551971330405 -0.20346206039025855
-0.03426779610686214 0.3081779687108016 -0.20360685497357917
-0.03456549150519283 0.3089796511830306 -0.20295786470010352
-0.03544865352682979 0.30819382354631186 -0.20472010582521033
-0.040937108822392536 0.3076637594403243 -0.20018133133485388
-0.039371801443623615 0.3054040877522445 -0.20179590195252967
-0.04000098807387264 0.30562069103135825 -0.20177735000684333
-0.04119978649191768 0.30780245944871665 -0.20059808701112342
-0.03958661658339412 0.3055263368786788 -0.20224906116559577
-0.04005320174269588 0.3057852594555831 -0.20225338250234198
-0.0401120017247668 0.30613364860429526 -0.20113664477899146
-0.04011024338774593 0.3061822263897872 -0.20112503677442145
-0.0415148566442004 0.3064275591076827 -0.20158835857942176
-0.0384136865811816 0.30970855638398886 -0.20311931878163886
-0.03765483004622371 0.30875965043916465 -0.20389681666925025
-0.04016233784727962 0.30854942485704184 -0.20474023729398322
-0.036995692081975055 0.3095173446835494 -0.20273038357331824
-0.036262227125691486 0.308641990870378 -0.20346490651204657
-0.03932179314665706 0.308359107226274 -0.20418066888883185
-0.033788366146611286 0.309310993403337 -0.20627504199578833
-0.03402124149374874 0.3102907745541549 -0.20559537023141455
-0.03691248399786861 0.3097101657093978 -0.20668658226564002
-0.03812582594923885 0.3111289946736312 -0.20317294806077552
-0.03743280274443538 0.31001444742097617 -0.20399534314706397
-0.04029141170554073 0.3101061789692855 -0.20459651559426856
-0.03700728518538387 0.31091650411500693 -0.20269469529225898
-0.03628413183264644 0.3098644225300765 -0.20349301010205817
-0.03946961266570003 0.3098716942967391 -0.2040272167308576
-0.03418196541838558 0.3104942052067733 -0.20671385139062476
-0.03429801566176326 0.3116581647099471 -0.20623847454621863
-0.037488115854786945 0.3109896986187911 -0.20687761515214514
-0.05803321106009395 0.3453716842831588 -0.21038275569512915
-0.05856616599135311 0.35070266410722495 -0.20879974573686194
-0.05833934051566036 0.3484718410672164 -0.21175297707154822
-0.04842228991560848 0.3426763622464156 -0.20871981590821814
-0.04904673797659786 0.3480070440472579 -0.20688117652967047
-0.05101196271948726 0.34545894548310996 -0.2103118857724912
-0.04844479066901119 0.34159239217653037 -0.2172120472772367
-0.049520326681660724 0.35056384488954306 -0.21443672090604377
-0.052294177837895466 0.34532280847444297 -0.2181430718286283
-0.05900268060736568 0.3437168805302596 -0.2086610457284696
-0.059057963915394855 0.34843297883882285 -0.2065141460283048
-0.0606140027719012 0.348071238249681 -0.21062665790155005
-0.049925459452199054 0.3419420926274276 -0.20860741644933295
-0.05070940954260738 0.3466513960064864 -0.2066469004733808
-0.05364681584410579 0.3450988738240218 -0.21093700438573432
-0.0510515998082629 0.3440070359410262 -0.2125082424266584
-0.0506323407369128 0.35215761348619223 -0.21006334930493903
-0.05396248204283626 0.3473918645085311 -0.21436380952432227
-0.060518784351872516 0.3409645168484664 -0.20736799746587348
-0.05977870328001888 0.3442519514264083 -0.20617276042535376
-0.060497445889042926 0.3449904529751754 -0.2090623936040647
-0.05451424223952205 0.34067227527513266 -0.20598354548051429
-0.055099202223347736 0.3446821181477523 -0.20462244361474585
-0.0562415252404681 0.3435761539639449 -0.20798620194032263
-0.05405069691710384 0.33997108623399497 -0.21168049782350135
-0.05348019105963619 0.34780707046403647 -0.20951488226487708
-0.05631123287253292 0.3436003534497237 -0.21318848043515753
-0.10619498593382747 0.33347668334855796 -0.2111405095441587
-0.11005191309027583 0.3408950774373031 -0.20730043560102057
-0.11398954493575007 0.33861579582109214 -0.21300829559400153
-0.09099282128386409 0.33219273969545127 -0.21012167244985175
-0.09297112924628169 0.33559866830720664 -0.20567847400739264
-0.10274146301321894 0.33458962127580405 -0.2116645982845075
-0.09627343518309504 0.33645947858705283 -0.2146623989923246
-0.09609882337622554 0.3425092904271102 -0.21033085495069098
-0.10287828547530085 0.33906235381974936 -0.2162853738649137
-0.10907973153166682 0.3340534774960494 -0.20573578387334418
-0.11293361885123164 0.3401897756756759 -0.2011544367654569
-0.11768057746462733 0.33884586974992514 -0.2082679679973371
-0.09363080365233332 0.3352298347653365 -0.20684371501042914
-0.09974138242773921 0.3385354487599349 -0.20046858101918769
-0.10612518889479548 0.3377902118863082 -0.2080591580255277
-0.09888382060103328 0.3383913843335128 -0.21032313614919257
-0.10273442966513545 0.34591962978257895 -0.2057846447808988
-0.10725013715796382 0.3419299332798934 -0.21209968238904547
-0.08634398681692988 0.3536707369984603 -0.20488483816220832
-0.08949737054877192 0.361804148405931 -0.20093521088197303
-0.09425176484160334 0.3592450825871444 -0.20598393291070533
-0.07401104075484187 0.3536845652760482 -0.20194077104165625
-0.07302380902342707 0.3574674932660079 -0.197993989883209
-0.08320988518767268 0.35608275815858603 -0.2027597984655149
-0.07528443438582332 0.3573670594395614 -0.20882397502496314
-0.07364190918974788 0.36335941240205527 -0.20359620064332556
-0.08335415823035151 0.3602792827786422 -0.2093338778598554
-0.09395552975706965 0.35358943626298667 -0.20197663813664984
-0.09873013002447993 0.36023863241090537 -0.19746563941075873
-0.10386399728827388 0.35878493472947837 -0.20383657127454352
-0.07980401618056208 0.3564884869755721 -0.2023581823690183
-0.08463986022047908 0.35924883767976523 -0.1962990275008924
-0.0932343731599322 0.3588039486111617 -0.20355100542142462
-0.08348484141402156 0.3583985774220443 -0.20679428785874915
-0.0855488012509814 0.3634118644894576 -0.20210058599546027
-0.09193654162459285 0.36119105502977134 -0.20820074885919165
