ply
format ascii 1.0
element vertex 788
property float x
property float y
property float z
element face 0
property list uchar int vertex_indices
end_header
-0.1853943149524203 0.30257745668306113 -0.0002204439027554981
-0.1857867221312991 0.30819942638292075 0.00849467903540063
-0.18881584507994564 0.3108218519391036 0.0015374758856050977
-0.1852557788568011 0.31678934976472617 0.006532672943329097
-0.18802702230982693 0.32515915319337607 0.010898385347580196
-0.18884724182658108 0.3204194514454818 0.004885468782638789
-0.18830723864607724 0.3179237453640914 0.0003834107534639843
-0.1891354004817477 0.3331747858227706 0.0030760505811922557
-0.18987111551337155 0.3249978034199691 -0.0014800688607938281
-0.18833163184695156 0.33074613496675254 0.002052519621109248
-0.18436080021433743 0.310490032881639 -0.0011375507695920459
-0.18553589088492306 0.3090719787777877 0.009905699791168452
-0.18770873350672634 0.3157741634549117 0.0019469001905672559
-0.18341934485011013 0.3246776072682357 0.003059391082977534
-0.1895837168174258 0.3285196034611678 0.009565595688080073
-0.18862938684992703 0.3262667267025924 0.003557149471496821
-0.18642864925436886 0.324278673380754 -0.000693674979949712
-0.18813858730368527 0.3334422318638778 0.0048308709280245315
-0.18891712827258023 0.32925917789354087 -0.000534143148208379
-0.18430530829005154 0.3044774143399215 -0.005812641082549809
-0.18465065760188015 0.30320902749910117 0.00407493502066064
-0.1832489202695361 0.31218024179353476 0.0005886295454256542
-0.18429924351744564 0.3150503246487594 -0.0012635549886472217
-0.18696345192961605 0.3185992448033309 0.00439730674192834
-0.18631984097533139 0.3201256005467391 0.0005547145025484569
-0.18827140135340603 0.31463577434434653 -0.0026313325746304982
-0.1888595650868884 0.3231373636425948 0.0005201736109011181
-0.18653884334139736 0.3225900141896224 -0.0020014008863217824
-0.1467521022038928 0.2837189047039962 0.11277249843046594
-0.14729130072169216 0.2848094908894515 0.11452877909109521
-0.15404487950377377 0.2844042985142684 0.11179721743032861
-0.13934853477053555 0.2838270871342635 0.11315322309896875
-0.1401530335622302 0.28475590631379843 0.11498177439138818
-0.14904971224837216 0.2846470086277938 0.11116695791647363
-0.14055752558283718 0.28386696264161826 0.11215338498518396
-0.14166492027811917 0.28578962966813803 0.11410209924147058
-0.14515802068285855 0.2842850892247176 0.1102062204496615
-0.14961403412394436 0.28421040460481406 0.11626407891676355
-0.15210196179919155 0.2850822417439437 0.1187613049165957
-0.15776437325053128 0.28437777444734336 0.11588696032926965
-0.14341005487017544 0.2842281667889571 0.11648357302114892
-0.14544874233775051 0.2850090472401595 0.11819655090734887
-0.1541026811080447 0.28476890012635947 0.11490852028295923
-0.14649441642336758 0.2847116796673751 0.11762169391081262
-0.14786325199179562 0.286034843176744 0.11953717857763696
-0.1494228373246661 0.2850215046109176 0.11527610212728906
-0.15077566904597195 0.28190465852632285 0.1132388451711886
-0.15069259507231625 0.2821690051259017 0.11359957248136926
-0.15114173097186 0.28064086124315024 0.11134934812948633
-0.14969764453940304 0.2817727534474349 0.11415464073584008
-0.14965694946818264 0.2820832936467147 0.11456317097113061
-0.15158802074961575 0.28120948955430747 0.1119653323309176
-0.15003566247992428 0.2821319310368514 0.11307794243261743
-0.15033824545912655 0.28274198457612754 0.11353403717443872
-0.1510053704457751 0.2818820087613082 0.11151156217024255
-0.15091489059500607 0.280449589938066 0.11478194981977868
-0.15100334388785275 0.2808134762944198 0.11542612701818872
-0.15342929763369473 0.27964170858278037 0.11329317480490136
-0.14885499877505215 0.28042169496431113 0.1155184546129458
-0.14902165336184414 0.2808635441960311 0.11619648724958825
-0.15339891416602047 0.28038968727006675 0.11349496632978845
-0.1487151066737643 0.2808413116635299 0.11453575283453393
-0.14919715923838528 0.2817321030796981 0.11527377754614282
-0.1505820135550967 0.2808707563580489 0.11269167453215051
-0.19237984520964535 0.3568799106778121 0.10815242320463586
-0.19347864193491848 0.3579330651463485 0.11053625136778283
-0.1943563203292361 0.3585443703831649 0.10793134957716394
-0.1892136613803378 0.35923542663469077 0.10955214888021875
-0.19093166095786007 0.36056395456208945 0.1121794322149508
-0.19325849217944058 0.3611930815876937 0.10930043846533227
-0.18934866590075405 0.3576380817593551 0.10725319773123193
-0.19081917209200772 0.3618746607007003 0.11005601674482751
-0.1922881434636584 0.361396810263536 0.10621750742361474
-0.19432134730391415 0.3588023392857528 0.1070355215685122
-0.19585163695387753 0.3596728055180526 0.1099017599241488
-0.1970479617791644 0.36023016855134726 0.1067955234663241
-0.19004457993082913 0.36062379762544394 0.10749227196142602
-0.19205798012785824 0.3616329638661361 0.11049122005865503
-0.1945883463101855 0.36212231799974204 0.10733628660604883
-0.19160164696745785 0.3615926711262679 0.10597595960066247
-0.1932392994838229 0.3649273721875167 0.10877564937040735
-0.19200272662215145 0.363804778307817 0.10562530547544885
-0.1959643195348254 0.35174437448396445 0.10911792904303003
-0.1960304657893649 0.3518414108456588 0.10971120387480188
-0.19547353488974484 0.35323073551072837 0.10873061806127954
-0.19573999745421322 0.3537423817814803 0.11104068547651696
-0.19594093961291226 0.35408260509385825 0.11176911384031701
-0.1947986016946307 0.35508289024247885 0.10944563538000512
-0.19316893620066555 0.3515654413403487 0.1081390121595614
-0.19397443337016018 0.35418774768724204 0.11030602842733789
-0.19358697337679776 0.3561511842907882 0.10768929511473108
-0.19263036353163632 0.2911048142613387 0.05429670602247644
-0.1949068437295428 0.293093165606401 0.061020944418167355
-0.19607485634856137 0.2904737202824569 0.05859423071310449
-0.18825092715792568 0.2937133519352889 0.05993816644117761
-0.19264101786188992 0.2985513417424178 0.0646911898271792
-0.197722701259183 0.2968499271573043 0.0578467586652987
-0.19208502573542507 0.29424198552980185 0.05577031165525842
-0.19423727495245846 0.30669482633485556 0.059279386104797605
-0.1944447438197604 0.2986986844243026 0.05383605152532983
-0.19334967238478573 0.3046696989239669 0.05815646439955163
-0.19382385713629635 0.2912823764981246 0.061646316351150754
-0.19642492932848843 0.2890224067868209 0.068032119573807
-0.1883739511447421 0.29569693490876914 0.06361899167463708
-0.19373866719775112 0.29719706460847617 0.06890997678205896
-0.199257803984212 0.29641314432039023 0.06289869934484887
-0.1943389008718005 0.29723074123277426 0.06240401059553552
-0.19735660953097256 0.30356021806611777 0.06672916203901696
-0.19667936665587338 0.3005628196896529 0.06154838591978479
-0.1939644495921603 0.28843393012895346 0.05543166786596704
-0.19574430388979824 0.28840007469072104 0.05995273977682519
-0.19384743077330502 0.2863601057232833 0.05985629946157861
-0.19323891205363186 0.290648302287004 0.05953124553129602
-0.1957756559329501 0.29280330821885825 0.06334633022711206
-0.1966085712390414 0.29222734853639365 0.058884862961029294
-0.19735927683882626 0.2905860154332137 0.05844736486837793
-0.19911671979002865 0.2976276485623336 0.06128225118086267
-0.1969234476762286 0.29541184589280844 0.057406667770599606
-0.19371492964796933 0.28831507846727134 0.05600557118818689
-0.19567797882132443 0.2880799977482772 0.06073868662283349
-0.19388153953127774 0.28614171430482627 0.060309473575805905
-0.19292391640715512 0.29064526245012046 0.059967044891571286
-0.19550232393317135 0.29270037099733115 0.06386384755537439
-0.19663148922495755 0.29217161819352866 0.05925316006109643
-0.19734152955584439 0.2910483686627364 0.05888203174040246
-0.19895656210951718 0.29785372897996665 0.061627689899658444
-0.19674028260283383 0.29566564247026206 0.05788740903303552
-0.1898998002486697 0.3292890994252181 0.05799770742819238
-0.19002729458384426 0.33246572896852256 0.0653579571859591
-0.19260336262755307 0.3353269903363204 0.059800002874588254
-0.1865995506721011 0.3379073946179366 0.06503454238340783
-0.19005448920302304 0.3462264148892379 0.06939059883520532
-0.19122068388037594 0.34240843936815024 0.06333831340238977
-0.19134823782019528 0.33876886054887534 0.05841342002317834
-0.1911394278483859 0.35326542541398764 0.061612162889694455
-0.1915431450086108 0.34555049821748496 0.05645671874449182
-0.19081416530184658 0.34746726438417197 0.05926666051313806
-0.18887631399207028 0.33352079078569175 0.05635184437200952
-0.18952937228255184 0.3315677253903365 0.06605980187818933
-0.19266874892287167 0.3384843079747176 0.059252355398391965
-0.1882925759034625 0.3461362926663375 0.061998549999450925
-0.19280208451323422 0.35094811603441 0.06737342864439416
-0.1930183897691241 0.3487500755490279 0.06133863717482019
-0.19180516702704342 0.3459685055912948 0.05778903156683374
-0.19304415387682827 0.3575445620717025 0.062075231374954465
-0.19307151240878018 0.3526054827870345 0.05707192808554101
-0.18862546784453305 0.32340230628862143 0.05199593693182397
-0.1884506921248904 0.3221186606587386 0.06022239118978906
-0.18900868100695523 0.33086307927980185 0.058878515066360715
-0.18801702363066586 0.33285351678743125 0.05857763081953454
-0.18898519677691372 0.3362052647770858 0.06439802438185144
-0.18963560266070278 0.3393948285283065 0.06007415443823266
-0.1921082417445651 0.33060660049333335 0.05679691225454736
-0.19178400737814816 0.34140374347581626 0.0603429117815249
-0.1887260953860751 0.3409199325741744 0.05576983481810022
-0.15714496178202542 0.33231993600740195 0.11450234443113733
-0.15911611718706997 0.33514930889024497 0.1179402509348147
-0.16165420217089566 0.33484979555024863 0.11371067553923059
-0.15221991939120205 0.3334998099507308 0.11692238241598535
-0.15393814248614224 0.3361619322003341 0.1199386456625216
-0.15807308060698422 0.3359738795460677 0.11508235722944665
-0.15403613252215298 0.33553125545396567 0.11551949769422937
-0.15614773137144955 0.3425296752156234 0.11764234692022729
-0.15638552410178097 0.3397784440220809 0.11247647196218896
-0.15930488509707363 0.3302175013722396 0.11801153808996606
-0.16120177311472805 0.33199276611222983 0.1218227484838717
-0.16441991729311856 0.33242340967073203 0.1171407142297976
-0.15592129332594784 0.3334475366772628 0.11952063828871179
-0.15839446885161312 0.3355685083569503 0.12333584219381738
-0.1622121463494769 0.33528234645738364 0.1182563045637362
-0.15848986608557614 0.336618921011827 0.11933207899496484
-0.15991689068846615 0.34190150186433554 0.12103993088171411
-0.1599787454085818 0.3404336778820968 0.11719361335203576
-0.19795320732169064 0.3204540817440963 -0.029390748439574958
-0.1975274811463824 0.323779782503984 -0.024538066087508918
-0.19874720079474362 0.32415183469667197 -0.029081042705322028
-0.1905513386207095 0.32481338664903403 -0.026482190786147834
-0.19553582174353512 0.32998754665269614 -0.022421922384048224
-0.19551731450133236 0.32667072698488 -0.026079740224624396
-0.19355580014758023 0.3274667470158553 -0.03235461920335364
-0.19628979069762142 0.3380266039074874 -0.028495188651824713
-0.19772651595644863 0.33092441245927573 -0.03280001491143775
-0.1958521733956805 0.3315224258603072 -0.030759181676650763
-0.19412973327212246 0.32821895763292075 -0.02833282559945655
-0.19451901120715054 0.3282208053769088 -0.022444899974609137
-0.195429576464223 0.33081634923829795 -0.0278902015073545
-0.18775020343832882 0.3344069330395675 -0.027592684922958136
-0.19290321869425686 0.3358828632534957 -0.021513607202316046
-0.19291920764021786 0.33378191873445273 -0.0262616237981565
-0.1913382838445178 0.33369519397630454 -0.030068244634414435
-0.19298665029578121 0.33883806154145957 -0.02556800454690528
-0.19456450445227536 0.335745593756578 -0.03054302543237281
-0.19542904002242 0.3221020309628463 -0.03184437364175391
-0.19504548413329037 0.3214201538266158 -0.02859103292062354
-0.19364616078905972 0.3261768428982711 -0.02899074166848731
-0.19707777900271328 0.32985504552736045 -0.029207791982436896
-0.1978922913747302 0.3306094019116378 -0.026093330083633185
-0.19618259174399288 0.3303665129841781 -0.02645313352181983
-0.19529129368834408 0.3284971325100875 -0.03042277306153846
-0.19727863175444516 0.33142163440599204 -0.026649650035644293
-0.19574644965701016 0.331031820029161 -0.028761412797713996
-0.19674247307352932 0.3261112181843734 -0.02834146827294898
-0.19709500474505337 0.32500900909318686 -0.0243273934705503
-0.19612714452319058 0.3294962255658126 -0.026131357846999884
-0.19541178447775753 0.33398117706193686 -0.02702614277436805
-0.19864024025969418 0.3341879455746627 -0.022312994895721198
-0.19687318605952175 0.3332205621899581 -0.02394732445314002
-0.19405174059443386 0.33139642164125205 -0.028174128232742072
-0.19573411149554165 0.33425607368364096 -0.023676749168182135
-0.194938374586629 0.3337979523838973 -0.027034696040893317
-0.1786378602462283 0.2829290239514327 0.023093346657013177
-0.17772675854735287 0.29050161525621176 0.03298259169027734
-0.1808007339911929 0.2877986042202926 0.0259769597666018
-0.17496259314589413 0.291483422964952 0.030900720657562494
-0.1758311818318835 0.3039447872342086 0.035254810156082395
-0.18013284904532345 0.29529293462648154 0.027764652075027704
-0.1791161875205508 0.29491021320237876 0.023857746423935174
-0.17798736495547207 0.31540258809938193 0.02582112342283654
-0.18126828772597225 0.3033104746045089 0.02104527145788598
-0.17834053737692745 0.28462608739747763 0.030352685751175165
-0.17817313773207577 0.2823644487561202 0.04103875547811914
-0.17460138899855526 0.2956717817486739 0.0347420611994021
-0.18015238446764859 0.3007505743206954 0.04122883469030786
-0.18201325637869747 0.29776920959367514 0.03326568395063806
-0.18075403375201138 0.30016215726747275 0.030107412637924432
-0.18129908842615994 0.3137350289525008 0.035342876018738034
-0.18323129219584378 0.3056205718220687 0.029349986614441156
-0.176845295258092 0.2756039111317611 0.022547785343384027
-0.17703750533633145 0.27694358512773276 0.03317723065779138
-0.17490246696047695 0.2813368646801925 0.027624819578384637
-0.17964270515017422 0.2880174724759078 0.030074004234527826
-0.18014037413172634 0.293968877047441 0.03423497468397546
-0.1801446209626666 0.29295905515565634 0.028311614097809076
-0.18454853994421871 0.2900797931851363 0.02596518784925866
-0.18379843039088162 0.3055021373929 0.028696213068222284
-0.18236113888792904 0.29946287557496787 0.0245634654180758
-0.17982673449091824 0.27531816646470786 0.028835181297516107
-0.1790307293611041 0.2743957845868087 0.040156636537765744
-0.17978405756525906 0.28005131170167685 0.03277805835173059
-0.1808327118831149 0.2883563844861007 0.03507534057066369
-0.18318335516028317 0.29458757326020957 0.039930317701553586
-0.18425176841788204 0.29204740211381675 0.03361353665754724
-0.18596127433352383 0.2923733203114486 0.031012419761871576
-0.1854551563935748 0.30707361385240317 0.03476709515020776
-0.18518613082938107 0.29956944867982627 0.02996391445562768
-0.1859819124417773 0.3180906979741073 0.09375098735258508
-0.18951745135359677 0.32349451467408896 0.0998682716505282
-0.1935643236117831 0.32170947477235556 0.09312075764105249
-0.17095164758734616 0.3156301586331344 0.09749627500936914
-0.17650562328867825 0.321415862292192 0.10332465559408593
-0.18196059567503842 0.3184548823536849 0.09587982684538293
-0.17670546276144894 0.31917097255601645 0.09116554647848535
-0.18045809669070156 0.33310296222581626 0.09527567416593957
-0.18479500515036495 0.3247129528225875 0.08878729134962488
-0.188913805313634 0.3125604002179122 0.09838822871611047
-0.19341766638331326 0.3150679676236129 0.10593971997663904
-0.19704736573271664 0.31515957996263266 0.09831568986341882
-0.1806672791915408 0.31727745220079184 0.10240802556440759
-0.18629783196024807 0.32029213592424155 0.10878581196234155
-0.1911365072207919 0.31875773355378867 0.10059732586309839
-0.18587738079600247 0.3195462433995223 0.09818751007482934
-0.18864767057471188 0.33002116367234946 0.10261348277494836
-0.1911776940303317 0.3238669840992904 0.09600150972769189
-0.19086555940680416 0.31159438774003745 0.09533599406645227
-0.19153629047446163 0.31350876972093344 0.09998301059172082
-0.19425688488058956 0.31372579023256064 0.09564549118444848
-0.18584283990435513 0.31380929633989096 0.0998050311224215
-0.1881910542922488 0.3180799691380477 0.10371950656340051
-0.19143822593264492 0.3165430037678695 0.09789878517553735
-0.18996771974139126 0.31767221376313926 0.09662315637037683
-0.19148903889231594 0.32788904592408896 0.09891462713644433
-0.1911769340711108 0.3225848881901717 0.09401369482443261
-0.189976079292821 0.3279967515171981 0.09804729014799524
-0.1787381003575793 0.28752835676088095 0.09838474184439111
-0.18284447295241268 0.2900835482777572 0.1037263014929049
-0.1853008697705737 0.2879274098576522 0.0996975043432467
-0.17135296566061886 0.2874419896306014 0.10128096133634973
-0.17639608485274227 0.29014774248018027 0.10553950458929467
-0.1825424413161746 0.2893648354710555 0.09947920233175683
-0.1730773578362933 0.2868585793675399 0.09911442190573144
-0.17592963380389126 0.2934012024106002 0.10200941950247217
-0.17753286463789852 0.289296766966722 0.09655738264486718
-0.18013283414416226 0.28808637544526816 0.10040244847700525
-0.18328083855681332 0.288933476656816 0.10535082608625818
-0.18703247410826596 0.2880111543835616 0.10148308068678308
-0.1754613499122134 0.28925552055253745 0.10327124983236718
-0.17866588933043392 0.2907548157872176 0.10681766659185815
-0.1854757497983447 0.29038824722184897 0.1014929452554934
-0.1777034531312457 0.2893514840306258 0.10249129325315881
-0.18074497384600552 0.29409690782441855 0.10511151343748498
-0.18011522097163113 0.2911362855137801 0.10024035364553857
-0.1822604964452258 0.28538342401399375 0.0975213089601748
-0.18351650042109402 0.2867859213055587 0.09983906537458825
-0.18423908752970608 0.2842769233883834 0.0988282302038424
-0.18070788485579403 0.2853319256009078 0.10059562713072229
-0.1829827259259692 0.28753372117891074 0.1033063271658175
-0.18602339727454098 0.2868663279713607 0.09991047173902917
-0.1801777760463229 0.2845762579144454 0.09875518471167016
-0.1810557822661868 0.2884699313343978 0.10025915891096521
-0.18133297366671475 0.28689064666642905 0.09660196691915918
-0.18222240907721432 0.2849575488270736 0.09780949741766382
-0.18372617466025265 0.2864613144101119 0.10047600060865808
-0.1845297048764697 0.2839211432637191 0.09930107385084558
-0.18043006760649594 0.2850515453518844 0.10089734584257531
-0.18299877447657498 0.28731133624925376 0.10383788138792444
-0.18625120622687252 0.2866723148526168 0.10020906120703149
-0.18028569025568875 0.28426714822664023 0.09924114138052392
-0.18126196963362606 0.28835334464921714 0.10079366356298852
-0.18147797686629208 0.2865957824887252 0.09701493770048547
-0.18437045616679104 0.30460657760514975 0.04075774938032556
-0.18353318972163113 0.30758543893708945 0.0483252742902987
-0.1863488535361758 0.3086820451916671 0.04200664550230432
-0.181950954623746 0.3114991395176864 0.04756328851149011
-0.18289764029555233 0.3193123547734237 0.05181113273069787
-0.1855590323882571 0.3144113032521224 0.04508027821943689
-0.185410587020444 0.3146828620137191 0.04266339928076196
-0.1853420267777911 0.33119245454683066 0.04451051742002893
-0.1862786541657916 0.32128854677095176 0.03975451380178857
-0.18339709741644772 0.33191426679506064 0.04319277793333459
-0.1846892963128558 0.3061284630001998 0.04370436459944177
-0.18550540310912045 0.30410130903138877 0.0517350175993197
-0.1875901351647845 0.30837812110795737 0.04431474596426416
-0.1811858097987643 0.31428482219590903 0.04661092549726892
-0.18632283610873135 0.31734772607698203 0.053025100530838254
-0.1873079965787402 0.3153791634739852 0.046230409445022824
-0.1855166832881442 0.31592037364854575 0.043636027874206784
-0.18730720681719693 0.3243676035107589 0.048234079183792355
-0.1875630597548953 0.31995542928590537 0.043155107797836545
-0.18654280705027493 0.29790677711381675 0.03924766570494104
-0.18570354384951504 0.29571797534837485 0.04673320442602563
-0.18362301392130764 0.3029875366391158 0.04344836265013147
-0.18734445972018154 0.3051536290348983 0.04409686118528772
-0.1884242872672549 0.3085287420453048 0.04900238305494714
-0.18774288696818264 0.309866687506578 0.044503841699814084
-0.19192541939787777 0.3068078963459945 0.042861316503738645
-0.19274805290274533 0.3160834519566512 0.04502320677206445
-0.1893286983447543 0.3140911667050338 0.04238319784567285
-0.18666457933955105 0.29916407749070884 0.043061111273025754
-0.18620778424315365 0.2960670797528243 0.0516819694654696
-0.1859431992249957 0.30325605556382895 0.04647967606947351
-0.18764678937964352 0.308972379416368 0.04780182629988122
-0.1900599132256976 0.31231083557023764 0.05303681284353662
-0.19032116038374813 0.31163241550340415 0.04791215449736047
-0.19118207497172268 0.3102098314465499 0.04530007034704614
-0.1920849512296191 0.31877686664476157 0.048857126535629514
-0.19020938677363308 0.3155767528714156 0.04515937358305383
-0.15112682981066616 0.29896523639573813 0.09449589640066552
-0.15233327252440365 0.3091232983769393 0.10280397921965051
-0.15405903560690792 0.30359639808549643 0.09687301904127527
-0.14826766950659664 0.307294449061296 0.10302874833509851
-0.15011246306471737 0.3186803667248702 0.10760245114729333
-0.15409865779452236 0.3123784868420577 0.09989694148466516
-0.15092155141405972 0.30886377975358725 0.09670797377989221
-0.1495913843589297 0.33017834112062217 0.09925517827436853
-0.15440581543021115 0.3192503659428573 0.09376025587484765
-0.1502235959249011 0.2972522585095382 0.09901371985838342
-0.15167078179888638 0.301199695319078 0.10862762123510766
-0.1522602419333926 0.3011914102734542 0.10107750088140893
-0.15079875094466122 0.31008686706437827 0.10684168726370263
-0.15248128575854214 0.31634130164994956 0.11159876376554895
-0.15535931093268307 0.3136876432599044 0.10361385733053613
-0.1538968066649905 0.31482120439424277 0.1025089958326571
-0.1532714645343295 0.333586534708879 0.10543972641394067
-0.15466154915861996 0.32376434490098716 0.09952804833815027
-0.1522353122907153 0.2914924232663131 0.09503472238943506
-0.15356585187487515 0.29561646863832236 0.10364982873365808
-0.15075848800711544 0.2945468036831832 0.09889963656828332
-0.15285204155020626 0.300284167975328 0.10458955556318689
-0.1527153233962527 0.307052692622087 0.10895455271170068
-0.1539684812503329 0.3050415126980758 0.10190007478163171
-0.15697224242262753 0.30057128354921103 0.09887132436201501
-0.1544909606652728 0.31874956771745444 0.10178533584043908
-0.15726910335593136 0.3116509525479293 0.09696153193876672
-0.19070809883646878 0.3283658830822921 0.018826697172378778
-0.19244023961596401 0.3335058300198531 0.025574240984176873
-0.19580028755240353 0.33435418292894126 0.019316200317596673
-0.18396894437842282 0.33674420997514487 0.022123757900451898
-0.18972331089548977 0.3427773921193099 0.02698687106535363
-0.1918924282269946 0.33950628921403647 0.021436754764770746
-0.18914952678255947 0.33929582521333457 0.015606019796585322
-0.19166700346045407 0.3509697525204635 0.020236615242218255
-0.1933708171325198 0.3437527029217696 0.014691386522506953
-0.19089925093226345 0.3336549012364364 0.01777667194769311
-0.19335567755274685 0.3338785974682784 0.026892904342865228
-0.19665382606558712 0.33743312045945884 0.01932579666540551
-0.1863621602731219 0.3461096493901229 0.01946300655767846
-0.1935948411899081 0.34865482732667685 0.025726173223709344
-0.19383880300097378 0.3462479321660018 0.019773665966247796
-0.19014774066977413 0.3463643996418929 0.015494857134079219
-0.1929345856385699 0.35381056949510337 0.021475557388519525
-0.19487750334315213 0.35003032371415854 0.015340093673919917
-0.18796421391539486 0.3260923235119796 0.011532519163345576
-0.1903350780683032 0.32647730991258384 0.020721648039077997
-0.1908240596728793 0.3320974318684554 0.01624352127478051
-0.19048675698809536 0.34064908906831504 0.015352104009842158
-0.1937704662757388 0.3434347121418929 0.020508203806137323
-0.19416072768740567 0.3432075588406539 0.016820553840851068
-0.19247351390890988 0.3392027823628402 0.01330882698461938
-0.1941933612304202 0.3465731947125411 0.017071966232513665
-0.19307818812899502 0.3449148742856002 0.013851229252075435
-0.19373382432036312 0.3055348603428817 -0.018676753936553717
-0.19466863376669796 0.3060422150792098 -0.017630275188232184
-0.19216008288435849 0.30554922506227256 -0.01868846624925208
-0.1921757887082568 0.30571945592775107 -0.017941888271117926
-0.19320204658083828 0.3063323704899764 -0.016821916995788336
-0.19174764854483517 0.3056020943821883 -0.017690684495712043
-0.19168595773749264 0.3060570566357589 -0.01769989341332984
-0.19272714657359036 0.30721654579057456 -0.01573890060021949
-0.19294348163180264 0.30674280807389975 -0.01799562185838294
-0.1921789477544299 0.3074150888623214 -0.01683520883157325
-0.1926374564843646 0.3076793162526107 -0.016303744016433478
-0.19039784175925167 0.30661662504091025 -0.01658576339318824
-0.19040711028151425 0.30842777177705527 -0.01703679174020362
-0.19083823067717465 0.3085158078373885 -0.016260202823425055
-0.19032092196516903 0.30710252210511924 -0.01603141039445472
-0.18947842521243008 0.30618472978486777 -0.01525705665185523
-0.1901042590814105 0.30698021337404013 -0.014245625434661626
-0.1909645180182925 0.307291528433702 -0.016644771991515876
-0.19670504135661038 0.3065857498349166 -0.018703009782577277
-0.19512016875319393 0.3061861006916976 -0.02025705188348365
-0.18918861252837094 0.306920012682817 -0.019854690728927375
-0.1969791780190936 0.30627193138017417 -0.018731113372588874
-0.19551445347838314 0.3057689873875594 -0.020218338666702033
-0.1893194894271365 0.3067390529812789 -0.020315673051620246
-0.19499787492327603 0.307574412077806 -0.019373025594497443
-0.19524968964629086 0.3075260131062484 -0.020830478368545294
-0.19318678779177578 0.3073668687046981 -0.018321271835113288
-0.1955698112922183 0.30686613008394004 -0.015993203817153693
-0.19495221776537808 0.30666895791902304 -0.016410883365417243
-0.19026171965174588 0.3062813489140487 -0.01660400241448951
-0.19523934824042233 0.30721392318620444 -0.016093637643600226
-0.19462255937628659 0.30702891036882163 -0.01651629417970252
-0.19013145370058926 0.3064648716153121 -0.016351248918319464
-0.1940535585360995 0.30784656688585044 -0.015561874805236577
-0.19327617985777767 0.3074426262082076 -0.016513671575332404
-0.19198766154818447 0.30803640767946006 -0.015103902517104863
-0.17647827965788754 0.3167757599057174 0.06207177430555749
-0.1781941483693591 0.3237220852078414 0.06994524985716272
-0.1832692305522433 0.3219334690274215 0.062259111704086545
-0.16418108148150357 0.31967135354890586 0.06604612261221338
-0.17022894126944454 0.32894023343934775 0.07189992457792688
-0.17563922507338436 0.3238622753323531 0.063937459291672
-0.16930252117686184 0.3221923916043258 0.058526907266830686
-0.17268201512865933 0.3396862356366134 0.06315425425932336
-0.17644256157450589 0.328679045885942 0.05666685491964746
-0.18053903979830654 0.31409802123918296 0.07188260942861963
-0.18330517215304287 0.31280954763307334 0.08079535156652856
-0.172250209279584 0.3236685602368331 0.07297468573019433
-0.17991313142352017 0.3269217817486739 0.07991016298696924
-0.18433289033942135 0.3249357549847579 0.07109848052427697
-0.175673557348775 0.32378127262010337 0.06850234061644006
-0.18173040253691586 0.3355774490536666 0.07391056806013513
-0.1830490658956042 0.3292433826626754 0.0669732132570498
-0.17851103646330746 0.3045340387524581 0.06482509166166711
-0.1800229827838412 0.30663164541139365 0.07407862335607934
-0.18431402546934994 0.31036837980165244 0.06793421894476342
-0.1786974350886813 0.3167458979786849 0.06957117110655237
-0.1827003191190234 0.3218048422039962 0.07434416204855371
-0.1854006479459277 0.3201231567563033 0.06786835581228662
-0.18159870607428463 0.3186445443333602 0.06637785226271081
-0.18520779711775692 0.3305507509411788 0.06996244579718042
-0.18364630443625363 0.3253746835888839 0.0647224226610415
-0.195202348657178 0.33618505880250693 0.08233410507605005
-0.19957129461340817 0.34248467370881797 0.09050411373541284
-0.20309094888739498 0.34070762082948447 0.08242670089170862
-0.17525772554449948 0.33601202651872397 0.08417469650671411
-0.18568460447363766 0.3438776938618636 0.09142503529951501
-0.19106294018797787 0.3403604833783126 0.08365622550413537
-0.1847629378514758 0.3407324759663558 0.07604217916891504
-0.19057403308920773 0.3534866182507491 0.0826188066618197
-0.19591653151087673 0.3462777940930343 0.07495174199507165
-0.19400402707629116 0.34234156295671225 0.08306417256758142
-0.1999444494920245 0.3426509706677413 0.09299934297964502
-0.1794037054257861 0.35079999849214316 0.0831080415861361
-0.1895311902242175 0.3527416794003463 0.090903852285599
-0.19508735639624508 0.35142757579698325 0.08206892401144433
-0.1870801131206027 0.3541525213421798 0.07738355189726281
-0.19185966057352932 0.3624893037976241 0.08413616210386682
-0.19592623216681393 0.35776241704835654 0.07618666082785058
-0.19560114843420895 0.3301565258206344 0.07844677955076623
-0.19908551675848873 0.3316047994793868 0.08799082428381372
-0.20404362482600125 0.3352139203251815 0.08012625962660241
-0.1901434789376727 0.3425148932637191 0.0802016296999209
-0.1975875477271548 0.34645082637681723 0.08603614956304956
-0.20102484328322323 0.34491135761155844 0.07929754644796777
-0.1946697364526263 0.3437626568974471 0.07557580262586999
-0.19912881953291806 0.35248281642808676 0.08095273763105798
-0.19971005422644528 0.3477295248211837 0.07473495990202356
-0.16900104088358792 0.2882483212651229 0.07394186049864221
-0.17330886227660092 0.2950281111897445 0.08008277803823877
-0.17659519416861447 0.29290886804475547 0.07354337364599633
-0.16148924631647976 0.29164048120393515 0.07774138838217187
-0.1652452181058398 0.29660906478776694 0.08234072119162011
-0.1713967005687228 0.2946332304181075 0.07526001721784997
-0.1652358154731265 0.29258163854493857 0.07276043683454919
-0.1687010060029498 0.306523284167192 0.07647961765692163
-0.1699352840857974 0.29760231658830405 0.07032227903768945
-0.17053727609686764 0.28913857623948813 0.07972309380934167
-0.1738526205497256 0.2910186855496383 0.0862569251672976
-0.17787383300833615 0.29122485801591635 0.07847720772192407
-0.1640862802939883 0.29413344547166587 0.08147910624906946
-0.16956847710184964 0.29726322576417685 0.08730897694990564
-0.17354522449545773 0.29571994230165244 0.07956454545423913
-0.16960920197539242 0.2993097512425399 0.07885301500723291
-0.17343568605952175 0.30902918264283896 0.08291072040960717
-0.17379268807940396 0.30350097104921103 0.07705864697859216
-0.17110383314661892 0.28478231117143393 0.07427752405569482
-0.17261270982794674 0.2865810005368209 0.07973468691275049
-0.17357325357966336 0.28725083753480674 0.0750589111463778
-0.17005158764891537 0.28886362001313926 0.07812369257376123
-0.17325143320135983 0.2933072058857894 0.08213648587629724
-0.17597220642142208 0.29260369226350547 0.07648399859831262
-0.17329066795878323 0.29012694045915366 0.07579830676481653
-0.17494648499064358 0.3004681675137496 0.07822171241209436
-0.17413198751978787 0.2956159321965194 0.07334643989965844
-0.18310233754687222 0.28953602001085044 0.002832088770126582
-0.1841041575150958 0.2907214371861434 0.004749987425064326
-0.18503242535166653 0.2900057046116805 0.003027800621246577
-0.18130655390791806 0.2897941081227279 0.00527766734526086
-0.18360914094023617 0.2914538590611434 0.007400009931778194
-0.18425468904547604 0.2901252119244552 0.0050168076174013625
-0.18107163710169705 0.2900735346974349 0.004237298073028804
-0.18237402839236172 0.2927179543675399 0.00631797701284814
-0.18328943652682217 0.2911051122845626 0.003701839746689082
-0.18143081469111355 0.29272099420442343 0.00407493502066064
-0.18340936107211026 0.293184181898973 0.006277088226532222
-0.18281741244368466 0.29198660537614585 0.003987703623031856
-0.17880844873957547 0.2940948812664962 0.004756692947601558
-0.1803914139943591 0.2943917720021224 0.006693724693512202
-0.18186968369059475 0.29277398273362876 0.005069110693191768
-0.18221317035727413 0.2936924903096175 0.006612572969650508
-0.18473003608755978 0.29572649881257773 0.008065436186050655
-0.18318025571875485 0.294637343138597 0.005307439865326167
-0.18451064629130276 0.29132851049318076 0.0024590531007997996
-0.18440167409949215 0.29104783222093344 0.0020725169794313914
-0.17917442125849636 0.29011925145997763 0.0017750599996798047
-0.18433911902480038 0.29163976594819785 0.0028129556791536814
-0.18412437839083584 0.2913996188343978 0.0023841300623171336
-0.17912207347922238 0.2903467027844405 0.0024441221372835643
-0.18717464608721646 0.29266085311784507 0.0036882796900026805
-0.18710255426936062 0.29260053321733237 0.0034363308565371043
-0.18550121588282498 0.29238208219423056 0.004232976736282588
-0.18549977047018917 0.289469262808702 0.005871120990967036
-0.1858630309777728 0.2896802036465621 0.0062964001314394485
-0.18200997812323483 0.28851993963136435 0.004713717998718501
-0.18412536186747464 0.2905436961354232 0.005948428215240718
-0.18475116593413266 0.29071988746537925 0.006619129480575801
-0.18166048628859433 0.2891835181416488 0.005770508350586177
-0.18798962039523037 0.2913400141896224 0.007816169561599971
-0.18880218071513089 0.2917539684475875 0.0082745888845675
-0.18571877283625515 0.2915819494427657 0.007731828989242793
-0.1928146908956042 0.3454310505093551 0.10513317972586084
-0.19672722918562802 0.34917940780534507 0.11073094993994165
-0.19987827343516262 0.34902681991472007 0.10520095020697046
-0.1805846820550433 0.3455344645680404 0.10728586107656884
-0.18692423207335385 0.3488798944653487 0.11299473434851098
-0.1925948093610278 0.34820969983949424 0.10728216558859277
-0.18656986755900296 0.34852167055024863 0.10224366575643945
-0.19119493467383297 0.35636439010514975 0.10740352064535547
-0.1938637028413287 0.3521315066517806 0.10160696894094873
-0.1907610575633517 0.3482688276471114 0.10552373916075158
-0.19531443519167813 0.3500854580105758 0.11192566543981958
-0.19793475968413266 0.35051836654557944 0.1062418261186831
-0.1813173274474612 0.3516609875859237 0.10646090299055505
-0.18812550408415707 0.35386266395463706 0.11247340232298303
-0.1935110668616763 0.3533647863568282 0.10670906692907739
-0.18822100562624844 0.35660364314927817 0.10355061680242944
-0.19167695743613156 0.36204167291536093 0.10842568069860864
-0.19351848763995083 0.35925867244615317 0.10291949302122522
-0.19628928405814083 0.3413329331578231 0.1039554217474215
-0.19803435904555233 0.3423664180935836 0.10832280308172632
-0.1994074563460818 0.34370734378709555 0.1046401599066012
-0.1919255684094897 0.3451153843106246 0.10566458493635583
-0.1953050623612872 0.34724404498948813 0.10966244727537561
-0.19775730175547512 0.34710671588792563 0.10569045335218835
-0.1950887571053973 0.34676923438920737 0.10311490684912133
-0.19762629074625881 0.3526280729474044 0.10632995158598352
-0.19686353010706814 0.34987988159074546 0.10285765320227075
-0.1755466292577258 0.3096341697873092 0.10085177809164453
-0.17586310011916073 0.31275286361589194 0.11061144262716699
-0.18022534055285366 0.3131019680203414 0.10549506932661462
-0.1720940451102725 0.3180996386708236 0.11009240538046289
-0.17463055057101162 0.3277397362889266 0.11538651973173547
-0.1793133596854678 0.3228351084889388 0.1072295346872561
-0.17535485131316098 0.31528260394944907 0.10209858805105615
-0.17451524538569363 0.3348235099019027 0.10665443927214074
-0.17780001265578183 0.32426788494004966 0.099850807489609
-0.17719565136008175 0.3031832782925582 0.1073535421507113
-0.17882649404578121 0.30125935956849814 0.11977261692449975
-0.17503401441149624 0.31461145564927817 0.11702186256811548
-0.17791333598666104 0.3197744695843673 0.12302682191297937
-0.18434841734938534 0.3188612668217635 0.11441165596411157
-0.18141704601817044 0.3135606853665328 0.11055776864454675
-0.1810063402133456 0.3299169747532821 0.11469614893362451
-0.18082210225634487 0.3228211610020614 0.10800689846441675
-0.17746162218623074 0.2995501963795638 0.1027841308729403
-0.17870361907057675 0.3003458587826705 0.11212110907003808
-0.17998389703802975 0.3020931093396163 0.11010781318113733
-0.1752610783057681 0.30653568193330527 0.11296639233992029
-0.1761436144786349 0.3121583072842574 0.11911580354139734
-0.18048324985079678 0.31239684507264853 0.11195478230879236
-0.18089461130671414 0.3021566478909469 0.1071496048586123
-0.1795761416631213 0.31707467719926596 0.11163905650541711
-0.17952126068644436 0.3121452538670516 0.1054725983755343
-0.14711694223456295 0.29806466981782676 0.11074707299635339
-0.14862894815974148 0.30223371669664145 0.11835623175070215
-0.15073893768362912 0.29876734897508384 0.11444321662352014
-0.14347366792731198 0.3010133711995101 0.11812374383375573
-0.1486533413606158 0.3105585782231307 0.12279454261228967
-0.15180352134280117 0.3059603779019332 0.11577457577154565
-0.14472767514758023 0.3010010926426864 0.11191866189405847
-0.14573347372584255 0.3177063076199508 0.11566797286436487
-0.14974510473780545 0.3079152314366317 0.1095244029180758
-0.1468935142236224 0.29647608682527304 0.11549938112661767
-0.14829486412577542 0.2970461456479049 0.12306324035093713
-0.1505021284299365 0.29708763048066855 0.11826512605116296
-0.14647325677447232 0.30227323457612754 0.12148058802053857
-0.15118205351405056 0.30839463159456015 0.12585840016767907
-0.15483262939028652 0.306165298670671 0.11859169989988733
-0.14677019221358212 0.3018998710812545 0.1178314724580996
-0.1496154199319354 0.3163632361592269 0.12145039826795984
-0.1509751061873904 0.3100022284687972 0.11515972405836511
-0.14613307816557797 0.2911021916569686 0.10993224769995141
-0.14705088538699063 0.2915284244717574 0.11703068405554223
-0.1476334313827029 0.2910729257763839 0.11580017596647668
-0.1483888606505862 0.2971776334942794 0.11801499515936303
-0.14986990196280392 0.3007598130406356 0.12211394697592187
-0.15133882863097103 0.30002727195634604 0.11660829574034143
-0.14956494969897183 0.294571003168962 0.11503658086225915
-0.14917711717657955 0.30651225730790854 0.11851463109419275
-0.1532620171981326 0.30348571226014853 0.1130600908415072
-0.16951556307845028 0.34696783706559897 0.11142582088873315
-0.17159011764101895 0.34948368951692343 0.11482778579161096
-0.1751181463675967 0.34952797576799155 0.11046860009596277
-0.16021701497607144 0.34650596067323447 0.11289349585935998
-0.16406251294188412 0.3489494530858016 0.11677647024557519
-0.16956624192767056 0.3486203162373519 0.11259049564764428
-0.16246828240923794 0.34907074853791953 0.11012906223699975
-0.16465362710528286 0.35365339204683066 0.11290091663763452
-0.1686016599612704 0.35179092571153403 0.10846949011251855
-0.17298909825854214 0.3472736684979415 0.11373618632719446
-0.1753635237889758 0.3490693180264449 0.11781633287832666
-0.17981600565485867 0.3496732322873092 0.11320415526792932
-0.16532924575381192 0.34816946670427085 0.11514741569921899
-0.16859087152056607 0.35026862308397055 0.1190500000135653
-0.17426578504614743 0.3498153893650985 0.11462033182547021
-0.16797278625540646 0.3503744213284469 0.11357626706526208
-0.17120671076350125 0.35491766616716147 0.11674622088835168
-0.17290144962839993 0.3528591005505538 0.11183947712347436
-0.17469586236052426 0.34343870565309287 0.11238262444899011
-0.17526322407298 0.3445033042134261 0.11359090000555444
-0.1756849269347659 0.34496321365251303 0.11124700695440698
-0.17087364000849636 0.3438487260045028 0.11392945438787866
-0.17148227793745907 0.3449756114186263 0.115141574444031
-0.17316125137381466 0.34549143001451255 0.11250904590055871
-0.17211392325930508 0.34595497533693076 0.11205670625135827
-0.1730802635627261 0.3495291082562423 0.1134861150400393
-0.17371566397719296 0.34887327834977866 0.11016032487318445
-0.19043080312781246 0.3143484203518844 0.06989667207167077
-0.19081811410956295 0.3149502484501815 0.07684228211805749
-0.19501836401991757 0.3156535832585311 0.0721752682344668
-0.18405766589217099 0.3174423186482406 0.07597625643179345
-0.1875923405366412 0.32344802305116416 0.08069655686781335
-0.19259874326758297 0.3209744898976302 0.0733467975275271
-0.18908583921961697 0.3195017187298751 0.07014498502180505
-0.18984500867895993 0.3335743753613448 0.07380232602522302
-0.19108593267969998 0.32567658111467124 0.06733295709059167
-0.18981149596743496 0.33011831924333335 0.07194549232885766
-0.19138240618281277 0.31066044256105185 0.07581690341398645
-0.1934090982156268 0.30696197435273886 0.08542263895437646
-0.18781545562319668 0.3194079606236434 0.08050132185385156
-0.19347806078963192 0.32242210790529013 0.08646163731977868
-0.19835734171442898 0.3214190213383651 0.07857343942091394
-0.19344368381075772 0.3210058419407821 0.07739356547758508
-0.1956622878985873 0.33146812602891684 0.08183283001348901
-0.19581545693449887 0.32706417724504233 0.07570457846090722
-0.1936202625709048 0.3057963459195113 0.07046246916220117
-0.19404592914156826 0.30373855516328574 0.07675102740690637
-0.19531118673853787 0.3065282909573531 0.07540667444631982
-0.19204044146113308 0.3102520315350509 0.07603857308790613
-0.19412079257540615 0.3133180348576522 0.08115664512083459
-0.1977324019151202 0.3140555231274581 0.07561004549429345
-0.1969881485181323 0.30985178634538413 0.0740317443029635
-0.19819158119730862 0.31973089858903647 0.07753071576521325
-0.19614288014941128 0.3181410042942977 0.07186454922125268
-0.1941093186812869 0.3286983577908492 0.07545751720831323
-0.18556253416113766 0.29622294589891196 0.05097532659933496
-0.18714822632841976 0.29989214822664023 0.05693102270529199
-0.18978842896990689 0.298602780550859 0.052045945228790524
-0.17806936604552182 0.29791017457856894 0.05573174745008874
-0.18210904104285153 0.3034928052128768 0.06019986063406396
-0.18631125790648373 0.30043848440065146 0.0537738838808291
-0.18096513850264462 0.29822482749833823 0.05077630669042993
-0.18400853676371487 0.31163849517717124 0.05393037587568689
-0.18536251587443264 0.3029871194066024 0.04860631019041467
-0.18359073800616177 0.309336206168077 0.05280688792631555
-0.18496815664343746 0.2958312241734481 0.05550858766004968
-0.18875385624937924 0.2962138263882613 0.06240776568815637
-0.19168270928435238 0.2969739644230819 0.05630836278364587
-0.18138487441115292 0.30193384572877646 0.058414016069626096
-0.18638393086962612 0.30331077262773276 0.06405306250021386
-0.19056263370089443 0.30216958209886313 0.057440702022766355
-0.1859104911761752 0.3044346778096175 0.056707624496673825
-0.18989702863268765 0.31152339860810996 0.061096225084518674
-0.18940467936568173 0.30722405597581626 0.05553782373831201
-0.18714019460253628 0.2936048714817977 0.05155510097906518
-0.18755514723830136 0.2943881361187911 0.0554816463606112
-0.18643565280012997 0.29425265476121665 0.052371803821777585
-0.18515234989695462 0.2961676327885604 0.05446467191145349
-0.18712279004626187 0.29906060382737876 0.058026079239105466
-0.18798820478491696 0.2980561463536239 0.05367622167036462
-0.18928818208746823 0.29842003270997763 0.053391549886917355
-0.19117337269358547 0.30572148248567343 0.055523011984085324
-0.1883392612414828 0.3020599095524764 0.052409682573532346
-0.1874177287297717 0.2919818370045638 0.05412328630850244
-0.18776877028517636 0.29186060115709067 0.058584187330459836
-0.18805680973105343 0.2924125401677108 0.054649774135803464
-0.18455916447214993 0.29496379777803183 0.05643016487524438
-0.1872314493136874 0.29764523193254233 0.06073201090261865
-0.18943543536238583 0.2966530530156112 0.05589622646734643
-0.18956857723765286 0.29808576986207724 0.05578869968817163
-0.19191655320696743 0.3054346053303695 0.058324162067627194
-0.18911257190279873 0.3018176762761092 0.05473545581266809
-0.17452068430952938 0.32768078729524375 0.09629896670744348
-0.17854828936629208 0.333095869273088 0.10166874915525842
-0.1826141308026782 0.33109172269716025 0.0946923831121676
-0.1568095217423907 0.3239012567700362 0.09828359276220727
-0.1633054594474307 0.329399785250566 0.10439831406042505
-0.1702779809909335 0.3273735253514266 0.09693634897634912
-0.16281877262167843 0.3285155503453231 0.09180438906118799
-0.16718339724116238 0.3400153128804183 0.09640512257978845
-0.1724677215295306 0.33418776676072837 0.08969948083326745
-0.17798928720526608 0.3228593079747176 0.10371157914564538
-0.18157559437327297 0.32471474096193076 0.10985970884725976
-0.18776714605860623 0.3254596202076888 0.10149482280180383
-0.16621917290263089 0.3253821937741256 0.10496271044180322
-0.1722930948214999 0.3285332529248214 0.11141488343641687
-0.17882802886538418 0.3276810853184676 0.10300973445341516
-0.17090706331305416 0.32789029762162925 0.10052845269606042
-0.17492443127207669 0.3377381174267745 0.10521445065901208
-0.17835780782275112 0.3328562586010909 0.09840685516760278
-0.17901676697306546 0.32068576499833823 0.09858766585752893
-0.17998468679957302 0.32281996890916587 0.1029297152178042
-0.18380242390208157 0.32348241493119956 0.09803855806753564
-0.17193040055804165 0.32208999082460166 0.10140982657835412
-0.17470168871455105 0.32602610275163413 0.10539552956983972
-0.17933553261332424 0.32524200364961386 0.09947428494856286
-0.1751900742726794 0.32506789848222495 0.09810039788649011
-0.1777291278319827 0.3342325298489547 0.10121217757627893
-0.1784162352757922 0.3300757615269637 0.09538764149115014
-0.18821435970835598 0.29671557828798056 0.08711782485411096
-0.19087454480700405 0.30028619453325034 0.0937981644289248
-0.1947857568936816 0.29826959058656455 0.08961648136541772
-0.17670295936636837 0.2965861766041732 0.0916425624506228
-0.18315028948359402 0.30200870916261435 0.096772913040375
-0.1883669177966586 0.29940118476762534 0.08947030097410608
-0.1801159958320132 0.296171447485826 0.08659395963118005
-0.18316989941172512 0.30952235147371054 0.09008995086119104
-0.18623177511267575 0.30109419509782553 0.08400127679274011
-0.1837861369328967 0.3048320023716903 0.08855817109510827
-0.18918013376765164 0.29526462242021323 0.0911976435796969
-0.1923681179957858 0.29550143167390586 0.09832433253691125
-0.18188614947371395 0.2979899255932784 0.09484565645620752
-0.1873048375325671 0.30071314260377646 0.09973234325811792
-0.19317571622900875 0.2996061651410079 0.09261629372999597
-0.18585376245551022 0.2997893302144027 0.09252208858892846
-0.18973569376044186 0.30915298149003745 0.09647947937414575
-0.19053807658724697 0.3038820831479049 0.09023014098570276
-0.19037827653460415 0.29282917663469077 0.08688852578566003
-0.19224218828253659 0.2952108590306258 0.09193051248953271
-0.19318632585577877 0.2927915661038375 0.09035540014669824
-0.18847721619181546 0.2951030938328719 0.09194282084867883
-0.19085147780947598 0.29878010436906577 0.095654908718323
-0.1952655742841235 0.29805888816728354 0.0901726225034945
-0.19101485414080532 0.29584195300950766 0.09021214038298059
-0.19230793220572384 0.3046718446911788 0.09264678150579858
-0.1923630217986575 0.3005924431981063 0.08751878529951501
-0.1889602969365588 0.31029178783311606 0.09090608745977807
-0.19025942487292202 0.29252090141191245 0.0873732605592959
-0.19232003194861325 0.29476418182267905 0.09271788984701562
-0.1933347563224307 0.2924474088849044 0.09084177404806543
-0.18830214244894894 0.29499383851899863 0.09234190374777246
-0.19064128202967556 0.29848178312196494 0.09620303303167749
-0.1955392788129321 0.29790939971818686 0.09047195702955652
-0.1910395900683871 0.2959132997693038 0.09073141604826379
-0.19234609407954129 0.3046021668614364 0.09310308486387658
-0.19221538109354885 0.3003710119427657 0.08791503697798181
-0.18880128664545925 0.3104639260472274 0.09157446414396692
