ply
format ascii 1.0
element vertex 723
property float x
property float y
property float z
element face 0
property list uchar int vertex_indices
end_header
0.10128553407616704 0.32943840906038047 -0.1694995275123365
0.1011669506353864 0.3352480737866378 -0.16708606093957495
0.10003592269845098 0.33311941310777426 -0.17020329445436072
0.10627977745957463 0.33041044160737754 -0.16619717687203955
0.10590426819748967 0.33545406743898154 -0.1631208470447309
0.10369189279503911 0.3324164359272933 -0.16646885484292578
0.10513432519860356 0.3331828324498153 -0.17100636273458075
0.103917883805705 0.34287275955095053 -0.1672223022563703
0.10222269790597051 0.335878810137651 -0.17083264499738288
0.10075317519135564 0.33060761377229453 -0.16529008358552527
0.09706215756363958 0.3342457620800948 -0.16120801478459906
0.09695990579552739 0.33283819839372397 -0.16781493633821082
0.10821984904236882 0.33333428785218955 -0.1654299905879743
0.10487608807511418 0.3344857899846053 -0.16102501362397742
0.10307495491929143 0.3334247677029586 -0.16713574141099524
0.10753257768578618 0.3373133747281051 -0.16626649707391333
0.10649575488991826 0.34220840618028403 -0.16311780720784735
0.10324563281960576 0.33928086444749594 -0.1679988315685041
0.10053672092385381 0.3268072216214156 -0.16703439861371588
0.1002000738901624 0.32858850643052817 -0.16498998910024237
0.09898992078728765 0.3290817944706893 -0.16823801010682654
0.1016898621840009 0.32895793601884604 -0.16538597255780768
0.10069914358086675 0.3304608671368575 -0.163389902411247
0.1022885908407697 0.3291178552807784 -0.16694390386178565
0.10138963358826726 0.3354660479725814 -0.16370297580792975
0.10100306766457647 0.33959742471589804 -0.16183805078103614
0.1004904975218305 0.33727981731309653 -0.16482561439111304
-0.03570203287176998 0.2889109461010909 -0.1878323516233213
-0.03751666647963436 0.28993316575898886 -0.1854672244174726
-0.03784374696783931 0.2892905084790206 -0.18795978635385108
-0.03358371359877498 0.2895005552472091 -0.18616334706380439
-0.03539143306784542 0.290687045306108 -0.18415185421540808
-0.03652755720190914 0.2895470468701339 -0.1867041400058515
-0.03347535235457332 0.2902959196270919 -0.18632307261064124
-0.0351541171746722 0.2922121493519759 -0.18426264434888434
-0.03527910811476619 0.29120721504106284 -0.1871454229934461
-0.031554503269719196 0.2925576178730941 -0.18693828195169043
-0.03313700658850582 0.29284473344697715 -0.18536491304471564
-0.03306032521300228 0.29173346444978476 -0.18725035697057318
-0.02836905223898799 0.294712444991014 -0.1871984711272962
-0.030147327013539383 0.2946659533680892 -0.1852146199329145
-0.03256062967352779 0.2930436341465926 -0.18633944898679328
-0.030909163780736038 0.2931885926426864 -0.18524793892934394
-0.032660258837269855 0.2946657745541549 -0.1840721032006986
-0.031012041397618362 0.29398163244142295 -0.1866126021726377
-0.03624068004660518 0.29238869830980063 -0.18985485642983985
-0.03555105430655391 0.2921572534741378 -0.19041864186360907
-0.029773427076863358 0.29202069923295737 -0.1915423980338819
-0.0362544487195483 0.2927103845776534 -0.1897779664380796
-0.03540549976401241 0.2925249545277572 -0.19049299865796637
-0.029800904818104813 0.2922311632336593 -0.19124541789128852
-0.034628135986851764 0.2943588702382064 -0.190393116174484
-0.03433708650641353 0.2944017855824447 -0.19157550841405463
-0.03287316662840755 0.29423644229783774 -0.18950777858331275
-0.036447150536107135 0.29070290014161826 -0.18568753808572364
-0.03708551628165157 0.2907939164341903 -0.18538975328042578
-0.033613426514195514 0.2896639911831832 -0.18709402888848853
-0.034707529373692585 0.29241504356279135 -0.18629547566011023
-0.03525210721068294 0.2924320904911971 -0.18597614377572608
-0.032927943296956134 0.2904651372136092 -0.1861722728593595
-0.034830642767476154 0.29355313465013266 -0.1854158452136762
-0.03459445936255367 0.2934239117802596 -0.1857212594135053
-0.03238709075026424 0.2941175906361556 -0.1851596346481092
0.016166525058222702 0.33250327989473105 -0.19290789574220252
0.013937758378458906 0.33786513492479087 -0.18959661930635047
0.011951075963450361 0.3370120136441207 -0.19357041627004218
0.02536593573517888 0.3363675086201644 -0.19245650976731848
0.021407978705836227 0.3390124051274276 -0.18782858162953925
0.01894326703972905 0.33735581323518515 -0.1923951765878446
0.024374025039149216 0.3348907439412093 -0.19775995224549842
0.02107663648552983 0.3416148035229659 -0.1935531905277021
0.018362032346201828 0.3378171531857467 -0.19821324556901526
0.01686378019280522 0.340217074602983 -0.19190410882070136
0.013529049329234053 0.3432046978177047 -0.187340896425987
0.01191435950226872 0.34201868459596396 -0.1942005565746076
0.030394123963786056 0.34269662782563926 -0.19420873731210303
0.02409790652222722 0.3440318314732528 -0.18761109918191504
0.0212150086683759 0.3425271718205428 -0.19420778363778662
0.027394848041010788 0.3428399173916793 -0.19720553964212012
0.023724721841288498 0.3481155841053939 -0.19301203995778632
0.01925711529679387 0.34611829206361533 -0.19860004991128516
0.06583087342209905 0.28155245468034507 -0.19039512783124518
0.06381564038224309 0.2846871821583724 -0.18769421785905432
0.06117712157197087 0.2839855162800765 -0.19158579021527838
0.07455639737076848 0.28200932428254843 -0.18965680509641242
0.07281349795289128 0.2841872780026412 -0.18660810202195716
0.06790967481560796 0.2831276266278243 -0.19023626655175757
0.07145060794777959 0.2818129269780135 -0.1929158976657636
0.07018970148987859 0.2892950980366683 -0.18893883734777045
0.06750615137047856 0.2839980928601241 -0.1925940325839765
0.06579600470490544 0.28052338048829795 -0.18467674761846137
0.06115265386529057 0.2830249278248763 -0.18104637771680426
0.05855687158532231 0.2823863236607528 -0.18692591398789954
0.07304634349770635 0.2835054604710555 -0.18552252262666297
0.06943138139672368 0.28375776693238974 -0.18146955579354834
0.0649936963839063 0.28379913255586386 -0.18704586833551
0.07064779298729985 0.28571333572282553 -0.1863517424447782
0.06853695409722417 0.28941460534944297 -0.1828763893230207
0.06703265207238286 0.28695579454316855 -0.18772174030377936
0.06504313843674749 0.277666649073503 -0.18959936112001013
0.06558378236718267 0.27805288717164756 -0.18833449095323157
0.06501005785889714 0.27812870427980185 -0.1909603884799726
0.06728534596390813 0.2791887728871322 -0.1887473574264295
0.06671644943184941 0.2800124494732833 -0.18734834700658393
0.06664179461426824 0.2789642421902633 -0.19003705292775702
0.0645381082815656 0.28264989539994956 -0.18765154093339514
0.0633648802561292 0.2855721919239974 -0.18525518089368415
0.0643927921576032 0.2840451209248519 -0.1880720964057691
0.11143396990723699 0.28744097635164023 -0.1509228011949308
0.11059342520661443 0.2881448476017928 -0.15019821733071875
0.11139272349305242 0.2872407047451949 -0.1521800419671781
0.11341528790421575 0.28703471109285117 -0.1498565933091886
0.11260457532830327 0.2878307907284713 -0.14908898979260993
0.11192046301789373 0.2868590562046981 -0.15083136766984534
0.11324845450348943 0.28678359672441245 -0.15043356627061438
0.11200328367180913 0.28970863506211997 -0.1480757108314283
0.11136593120522588 0.28800239250077964 -0.15019183963372779
0.11131899254746526 0.2871880142392135 -0.14739404231145453
0.10827349322266668 0.28786935493364096 -0.14551648109986853
0.1067647506517896 0.286658188551805 -0.1501441112144239
0.11423434513039678 0.28843375131501914 -0.14765697330071997
0.11153461234994023 0.2888475863636947 -0.14611208051278662
0.10971753495164006 0.2874093858899093 -0.1504223605973966
0.11418433683343023 0.28898306772126914 -0.14810721188619208
0.11308537619538396 0.29017754480256797 -0.14554860800340247
0.10936539071030706 0.2852764932812667 -0.15118819087579322
0.10944865839905828 0.28524192258729697 -0.1513039728982694
0.11127062337823003 0.28427990362062217 -0.1530972829444654
0.10893835323281377 0.2855845896901107 -0.1506088635308988
0.10905854599900335 0.28553309127702475 -0.15075026064946723
0.1113724281115064 0.2842827646435714 -0.15270550161435675
0.10728992717690557 0.2858814804257369 -0.14814388364389014
0.10658408897347539 0.28676643058671714 -0.14680905252530646
0.11160563128419011 0.28674455568208457 -0.15094787984922003
0.11050827997155278 0.28741254493608237 -0.14966801911428046
0.11171616809792607 0.28613354846849204 -0.15261537939145636
0.11337535279221624 0.28669395133867026 -0.15013941734864783
0.11222334402031987 0.28733386680497885 -0.1489946207387693
0.11215318935341924 0.2858669368924117 -0.15143403023316931
0.1135222186369428 0.2868762223423934 -0.15027087539269995
0.11269213455147832 0.28928532287492514 -0.14761371522977423
0.11117907064385503 0.2867841331662154 -0.14797915130689215
0.10878609316773503 0.2876221744717574 -0.1460818907602079
0.10804428356118291 0.2865128724278426 -0.15037797003820014
0.11290057199425786 0.28758289501085044 -0.14791495710446906
0.11087368624634832 0.2881543247403121 -0.14636222630574774
0.10947568910546392 0.28677996084108115 -0.15017900973393988
0.11352740424103826 0.28825571224107505 -0.14818071931436133
0.11252136724419683 0.29000397607698203 -0.1452295294387586
0.01622577207512944 0.2871365754307723 -0.18698975056245398
0.012414829902125288 0.29195412084474326 -0.18323321252896857
0.007448123864603926 0.2914773432911849 -0.18814082056119513
0.029995249680949142 0.28844853326692343 -0.18783928066327643
0.027526276282740524 0.2898844091595626 -0.18256868034436774
0.019344197682810715 0.28955080196275473 -0.18762024849488806
0.023913310937357834 0.28856136485948325 -0.1906534990651853
0.023344801835490158 0.2932877747715926 -0.1853577306850202
0.01836212175316899 0.2897553651036239 -0.19038801997735572
0.014674769811106611 0.2865884511174178 -0.18042878418996405
0.00821204679436772 0.2893420664967513 -0.17673669367864203
0.006576584748698164 0.28810509130372763 -0.18239917963578772
0.025978105239344528 0.28881933376207114 -0.182642649708534
0.02059288518853276 0.2889969556035018 -0.17847784966065955
0.016119824819041183 0.2884270159901595 -0.18339481562211585
0.022012399606181076 0.28837515994920493 -0.18306426316335273
0.019787745646906784 0.2902054993809676 -0.17974114030435157
0.018040048055125168 0.28872700616731406 -0.18495043724610877
0.013951914481593062 0.2835332958401656 -0.18489427476956916
0.013667332105112959 0.2840877382458663 -0.18278824895455908
0.012603269986582686 0.2840988843144393 -0.18495873719289374
0.0171983112616071 0.2860895602406478 -0.1849927714450605
0.015960889033747604 0.28652151510133506 -0.18280911058023047
0.014620917014552046 0.2859086005391097 -0.18503675967290473
0.014112221173716475 0.288692793101213 -0.18542539685800147
0.013143973521662642 0.29078890964402915 -0.18283432334497046
0.014176206759882857 0.28930999919786216 -0.18563372999265265
0.11270372765488713 0.3614134399594283 -0.19199108689858985
0.11228229301400273 0.3649940101803756 -0.1907327434404142
0.11330042975373357 0.363595923632524 -0.19310573845937323
0.11809151070542424 0.3610368578137374 -0.19002964705064368
0.11692284243531316 0.3638367263974166 -0.1877907028777845
0.11433144109673589 0.3628220765294051 -0.191388126312042
0.11646767156548589 0.3627901880444503 -0.19471118956639838
0.11709658997483342 0.36728557035341025 -0.1923200896365888
0.11468444960541814 0.36434205457582236 -0.19595017641618323
0.1120198239607343 0.36324073955430747 -0.1916426977498777
0.11051388280816167 0.3645623533429122 -0.1883719673736341
0.11126311319298833 0.364470323771379 -0.19225693851544928
0.11958854096360295 0.36517520830049277 -0.19203276544644904
0.11603947179741948 0.36623778030290366 -0.1884697934968717
0.11656098263688176 0.3647487966717696 -0.19268579393460822
0.11874391334481328 0.3657396642865157 -0.194026704726959
0.11745961206383794 0.3686192838849044 -0.1910347452743299
0.1144767274183759 0.36762901231660605 -0.19542024642064643
0.11002437966294377 0.36085583850755454 -0.1949196568115003
0.10885460870690435 0.3610838262738204 -0.1931695303304441
0.11036031144089788 0.3611855117978072 -0.19305139392449927
0.11201082365937322 0.36338319465532065 -0.19365982323720526
0.11073635714478582 0.363243779391191 -0.19189788013532233
0.11251048939652532 0.36263992473497153 -0.1927710881812818
0.11150036948151677 0.36358352586641074 -0.1937949171645887
0.11159603493638127 0.36472066327943564 -0.19218092769219947
0.10935689704842656 0.3652920930088973 -0.19441796451642585
-0.030594421453999588 0.32066728755845786 -0.19659493475987982
-0.03404469592146785 0.3249340860547042 -0.1923998108489759
-0.0344485769944659 0.3232029883564925 -0.1967565378530271
-0.021394802160786697 0.32288875266923667 -0.19564887493684363
-0.026286674566792557 0.3248219101132369 -0.1898106297834165
-0.028068853445576736 0.3229526488484359 -0.19481803089215827
-0.02142776352934749 0.32328911706819297 -0.2002086898668058
-0.026339484282063553 0.33019872590913535 -0.19609658032491278
-0.029174012966679642 0.32624765321626426 -0.20116109758451056
-0.025907201595830032 0.32834418699159384 -0.19567869216039252
-0.029964996405171463 0.3298421113194442 -0.1907872071845777
-0.030279053278492996 0.3288485018910384 -0.19499191254212928
-0.015608830280827593 0.330537697523973 -0.19615509718492102
-0.020806474514531204 0.330349287241838 -0.189688365755821
-0.02337299091391475 0.32888748332872153 -0.19499386459424567
-0.0214374194818011 0.3299131004513717 -0.19747534006669593
-0.02332602245383174 0.33301969453706504 -0.19385115414693427
-0.025741351671742508 0.33158363983049155 -0.19918022662236762
-0.03123293621115596 0.32605924293412925 -0.1983419767005689
-0.0318962465005389 0.3267687170208907 -0.19613562136724066
-0.02986703617148311 0.32716532632722617 -0.19654783218934607
-0.02810771567397029 0.3293686120213485 -0.19851477056577277
-0.02998198372893245 0.32922752782716513 -0.19513360768392157
-0.029183192081975052 0.3280395476521468 -0.19556791692807746
-0.028013897963093826 0.3275125233830428 -0.1982058694942243
-0.029451085157918045 0.3293884603680587 -0.19551078587606024
-0.028839571304844925 0.32916261836900473 -0.19819584101274085
0.09425620930619329 0.2877576558293319 -0.1864616832120664
0.09226142065949529 0.2927693335713363 -0.18262412756517005
0.09221019046731084 0.2904213277996993 -0.1872939428670652
0.10284568565316289 0.2883992402256942 -0.18544943243100714
0.09987227814622014 0.2933371870221114 -0.18180550247266364
0.09758459227509587 0.29049780055894614 -0.1861536166055448
0.10037817256875127 0.2911385504902816 -0.18780804782941413
0.09982286589570134 0.2999717204274154 -0.18341269701554846
0.09508685963578313 0.2845637409390426 -0.17872957497670722
0.08843927281327336 0.2866572944821334 -0.1735087147338636
0.08321286933846563 0.28701009437455893 -0.18118013053968024
0.10698725479073613 0.28778602764024497 -0.18070302516057563
0.0998241771978864 0.2890158502758956 -0.17601993292405677
0.0959382821840772 0.28820969745530844 -0.18340304106309485
0.09574853079743474 0.280669054240129 -0.185828085838104
0.09406720297761052 0.28218366786851645 -0.1820221206529386
0.0910494198126325 0.2835542170704818 -0.1866612991674192
0.09749998348183721 0.28445001527681113 -0.18400159090592932
0.09528823392815679 0.2858413664998031 -0.18152141183450293
0.09522374170250981 0.2846113650502181 -0.18663549035623145
0.09754298823304265 0.2910902707280135 -0.18359978109433722
0.09470679061837285 0.2953511683644271 -0.1794574221952207
0.049670474700404095 0.32465400382890464 -0.19320036083295417
0.0482899119181165 0.33476080581559897 -0.1896265408380277
0.04676686423249333 0.33050247117891074 -0.19438096493318152
0.048726366929484295 0.33706398889436484 -0.19172021359040808
0.06285096900887578 0.3240604011715865 -0.19136869519784522
0.06106396215386479 0.3302444426716781 -0.18633944898679328
0.05644811885781376 0.32644744798555136 -0.19185351937844825
0.059686945847941326 0.3266849724949813 -0.19856668621137213
0.05724950330681889 0.33820571586503745 -0.19439765423371863
0.05335129993386357 0.3302353827656722 -0.19879148512914252
0.04567004936165898 0.3277247159184432 -0.18776784449651313
0.04241137402482121 0.3317924945057845 -0.18320664375855994
0.0405367483419904 0.33006348297014 -0.19059663623406958
0.06001125472016423 0.33019604370012046 -0.18932385355069709
0.05365027683205693 0.3317241875828719 -0.1823507657630689
0.049631284646464276 0.3306699602307296 -0.19005126863553595
0.05661545889802067 0.3317553012074447 -0.19257136791780066
0.05253465669579594 0.3383000700177169 -0.18841088920667243
0.04858599799103825 0.3350252120198226 -0.19440514951779914
0.09131445186562627 0.3453093378247237 -0.19468490391805243
0.08833803432412236 0.35542609378709555 -0.1911504974944837
0.08662404315896123 0.3502952067555404 -0.19534211963250708
0.08726324336953252 0.3520534841717696 -0.1933044454438932
0.10302193658776372 0.3453086225689864 -0.19210451453759742
0.10363520877785772 0.34945317193879843 -0.18585240453317237
0.09500588672585576 0.3473368494214034 -0.19240896016194892
0.0998462309164533 0.3466329781712508 -0.19936540335252356
0.09801034825272649 0.35574068710222007 -0.19386885672643256
0.09186335103936284 0.34959509059800864 -0.19924656659200263
0.08709873454995244 0.35042901918306113 -0.1906273773296125
0.07975511448807805 0.35548617526902915 -0.18588301151826453
0.07877780693001836 0.3530172912777877 -0.19358285873963904
0.1046164204401502 0.3527549116314864 -0.19340619057252478
0.09599657552666753 0.35377087280168296 -0.18658993750646186
0.0905020405573377 0.35354777261628867 -0.19455770760610175
0.09941683905549138 0.3515638320149398 -0.19541751950814795
0.09509830372758 0.35579880163087607 -0.19118994086816382
0.09060765998787969 0.35419352933778525 -0.1976788452251203
0.10740043418831914 0.3112742511929488 -0.1587781569345243
0.1051528920454511 0.3194103448094344 -0.15416045099332404
0.10493131177849858 0.31646194145097495 -0.1580769678933866
0.11790175931878179 0.3119297234715438 -0.15799176305368018
0.1146125962061414 0.3192888705433822 -0.1536843588931806
0.11233617561287969 0.31533642694368125 -0.15752672761514258
0.11815102594323247 0.31283857509507895 -0.16335223227574897
0.1151781548780927 0.32469417735948325 -0.1580142340047605
0.11205230849213689 0.3167584745587325 -0.16199132412507605
0.10807891385979741 0.30718698188676596 -0.15128215759828162
0.10073773758835881 0.31101789161576987 -0.14534973710610938
0.09559066789574712 0.31135555192842246 -0.15330573528840613
0.12257747548050969 0.31078155919923545 -0.15388960748746466
0.11468126075692266 0.31264694616212607 -0.14882790654733252
0.11104755299515813 0.311643859595201 -0.15599879234864783
0.12058045165963262 0.3170602528752303 -0.1559804788215406
0.11647112863488286 0.32182409450425864 -0.15045997112824988
0.11039482253022283 0.30054195806398154 -0.15706738442018103
0.10745646255440801 0.30352081939592124 -0.15182630330159735
0.10452409284539312 0.3051507084073043 -0.15696441739633155
0.11381267207093328 0.30644633457078696 -0.15583085626199317
0.11103083389229863 0.3084666936100936 -0.15270597845151496
0.11096744435258 0.30698551818742514 -0.15755827337338996
0.11321856277413457 0.314066430777452 -0.15653821438386512
0.11051021712250798 0.3191114871205306 -0.15223638325765204
0.10980703132577031 0.316230258196733 -0.15658673256471228
0.10636453526444524 0.3346606700123763 -0.18934651821687293
0.10676010148949712 0.339312693327806 -0.18747852355077338
0.10458974736161321 0.33891197130098105 -0.19012760728433203
0.11009879606194585 0.33585997506990195 -0.18634287625386786
0.10952334301896184 0.34081473037614585 -0.18436222880914283
0.1086013783735761 0.33793439552201987 -0.18698618918492865
0.10952042239136785 0.3380569426716781 -0.19052652627065253
0.109180973939372 0.347577652186296 -0.1874777188880689
0.108202951125575 0.34068824931993247 -0.1905600091798551
0.10680122869439214 0.3367712704838729 -0.18603974193170142
0.10317014353699773 0.3396529762448287 -0.18177148312165808
0.10184277790017217 0.3398157565297103 -0.18809629589154792
0.11246241825051397 0.33954974100007773 -0.1861131450517423
0.10864789979882329 0.34145166561021567 -0.18267237752511573
0.10804949896760076 0.34010042831315757 -0.18814700454309058
0.11364545124001592 0.3422597853840804 -0.1876579335315473
0.11233253972954839 0.34652735874070884 -0.18452031522824835
0.11020054119057744 0.3442120163144088 -0.1890172025544889
0.10862986939377874 0.3318065612019515 -0.18968039363458228
0.10858740108437627 0.3324096409977889 -0.18755779772832465
0.1058576871675977 0.3343327252568221 -0.19002797812058997
0.10869766967721074 0.33535232231034995 -0.18792783826425147
0.10801054733224004 0.33611722871675254 -0.18628774195745063
0.10818229811616033 0.335620602816484 -0.18916125207974982
0.10920076268143743 0.33978684827699424 -0.18749577909543585
0.10744376676507085 0.3429857103527999 -0.18517434209420752
0.10843123691506475 0.3418495862187362 -0.18821106463506293
0.06825243132538884 0.3095135299862838 -0.1748420408351667
0.06690441267914861 0.3221216408909774 -0.1687086930854566
0.06322862403817266 0.31794883891954184 -0.17467502862050605
0.08154829042382329 0.3111704199017501 -0.17295196264817786
0.07895036237664312 0.3220884411038375 -0.16794468074872565
0.07443060176797002 0.3154407350720382 -0.17359961181714606
0.07804785864777654 0.3143900243939376 -0.17995287090375495
0.07676364677376836 0.330515405386827 -0.17502155512406897
0.0714573730749616 0.3193348853291488 -0.17971469074323249
0.0711814929766187 0.3037611453236556 -0.16720129161908698
0.06485642688698857 0.3108323423565841 -0.16063855200841498
0.06024788515992253 0.31046160146608115 -0.16926271825864386
0.08483271496720403 0.3125286905468917 -0.16888518243863654
0.07678248184151738 0.31585397407426596 -0.16252059846952033
0.07368554370827764 0.31387641116990805 -0.17066357642247748
0.08160628574318975 0.3195838539303756 -0.17235900074079108
0.0758799781126508 0.328068694323442 -0.16645420700147223
0.07249652045197576 0.3231477944554305 -0.17321495324208808
0.030815588406992844 0.3070241419972396 -0.1892880013568647
0.029838251046610764 0.32069321557893515 -0.18081172913148474
0.02459947960801213 0.3184270469845748 -0.18739196270539832
0.04121016161866276 0.3145638911427474 -0.1859143486602552
0.03758619921631901 0.3270550577343917 -0.18067051082685065
0.03209568756051152 0.32000561639680625 -0.1865205875022657
0.038105743102503704 0.3178229539097762 -0.194722305832649
0.03572412031121342 0.3348021714390731 -0.19004672378137183
0.03083475130028813 0.3236526457966781 -0.19440179675653052
0.031268106870127606 0.31095322057618857 -0.1865261307342298
0.026389258079005173 0.31782337114228965 -0.17946514099671912
0.02237896817154973 0.3176473586262679 -0.18806597202851844
0.043319063357783245 0.3217909543217635 -0.18722648531034064
0.034468965701533245 0.3262422291935897 -0.18103333920075965
0.032599376611185955 0.3234677521885848 -0.18875325828626227
0.04050068753190129 0.3240704147519088 -0.19153862804009986
0.03430094020791142 0.33425583526506186 -0.18632590383126807
0.03202890055604069 0.32842286512269736 -0.1925681194646604
0.08289413350052922 0.314887484759233 -0.19180817514493537
0.08091326253838628 0.33290149852647544 -0.18569023519589972
0.07705863016076177 0.324952980727098 -0.1912239006145246
0.09931533234543889 0.31351437255754233 -0.190747719107414
0.09859512942261785 0.32668437644853354 -0.18508050948216986
0.09104289310402959 0.3182100264729476 -0.1909482887370832
0.09555475609726995 0.3180901019276595 -0.19838785737588477
0.09386868970818608 0.3344056813420272 -0.19280683606698584
0.08679498928017705 0.3233200518788314 -0.1978648862226255
0.08588113086648076 0.3116909472645736 -0.18326393872335028
0.07826991575188726 0.31912161991014243 -0.17621500402524543
0.0710836519522199 0.31894334241761924 -0.18571213990285468
0.1049552430433759 0.31932451412095786 -0.1860603651387937
0.09457640545792668 0.3225031106175399 -0.17858738809659552
0.08880765932030767 0.32135464832200766 -0.18780530601575446
0.09983416097588628 0.32617892906083823 -0.1901228687150724
0.09233217137284368 0.33513726875200034 -0.18334346622064185
0.08766223686165898 0.3304335086049056 -0.1909051349742658
-0.004092557259129595 0.30281814023866416 -0.18775878459050727
-0.009281022377537798 0.30865695163621665 -0.1842738947255857
-0.011664105482625078 0.30621703550233603 -0.18838223427369666
0.006341355018092085 0.3051451055706954 -0.1877349576337583
0.0018715132994183794 0.30563326761140586 -0.1811625173671491
-0.00283117396407039 0.3039880602063155 -0.1871253660304792
0.004453973941279341 0.3058109490574813 -0.19191869705751013
0.0036517848295697466 0.3097302524746871 -0.186731006799484
-0.0032906661706438765 0.30725969955339194 -0.19298195451333594
-0.007169557638691973 0.30636616632356406 -0.18673763781621527
-0.013578010626362871 0.3080769388379073 -0.18224866300656867
-0.015122158356236528 0.3065378277005172 -0.18739045768811774
0.005496429376078535 0.3071481196583724 -0.1886340340955503
-0.0006027947144976362 0.306311508864305 -0.18230194955899787
-0.006491167374180864 0.30601813480272055 -0.1882504037006147
0.0013742019457349077 0.30526169225587607 -0.1892077884061582
-0.0019663701730242475 0.3074050752819991 -0.18586532383992743
-0.006042195387410234 0.30722334072007895 -0.19215900808408332
-0.007671428747700762 0.30351348802461386 -0.1889917364700086
-0.010574979610966753 0.30518641158952475 -0.18629909664228034
-0.009660227127598833 0.30425151273622275 -0.1883659026010282
-0.004614276714848589 0.30598588868989707 -0.18889107912614417
-0.0070848594384661425 0.3064987866581893 -0.18586505561902594
-0.007845921345280718 0.30538644477739096 -0.18775333076551032
-0.005540324278401445 0.30495896026506186 -0.18904859930112433
-0.0062636266427508105 0.30647518321885825 -0.18693483978345465
-0.006784958668278765 0.3056503145398116 -0.19030950575902533
0.00872813361115544 0.3246169893444991 -0.18345786243512702
0.002508895568324019 0.3296270577610946 -0.17920986920430731
-0.0007641444879046186 0.32727416440858603 -0.18401069551541877
0.01853542225785344 0.32921244785203696 -0.18339208870961737
0.014750646523905684 0.32897873803987265 -0.17646324246957373
0.008496688775492598 0.3275094835461593 -0.18315574139192176
0.020449178389979294 0.32693239137544394 -0.18787802368238044
0.01906661885209172 0.3292297928036666 -0.18220360189511847
0.01031930940575688 0.3277814595402694 -0.1893015465123899
0.003589527778101851 0.3316103427113509 -0.1826447954757459
-0.0033380816655626997 0.33384748384370566 -0.17739976554944586
-0.005716575213002275 0.3322605101765609 -0.1839265486581571
0.018664376906824997 0.33216252014055014 -0.18387563139035773
0.010514127187205244 0.3313890306652999 -0.1774827650172956
0.005298273734522749 0.3308673708142257 -0.18486058324410987
0.016027497224284103 0.32841130182161093 -0.18504321187570166
0.010134594611597944 0.33206876203431845 -0.18184786647393775
0.006813990048838545 0.3308220116795516 -0.18850506454541754
0.036735044888926434 0.2921473591031051 -0.18299711853101325
0.03248264091439335 0.3025029508770919 -0.17670282333924842
0.028447346858454636 0.29956754133119345 -0.18238927036359381
0.05556465881295292 0.29265238925828696 -0.1834191492183454
0.05135251777596562 0.2993989197911239 -0.1771710178239591
0.04338805573411076 0.29619075939073325 -0.18297558635308814
0.049090253285838055 0.2937564460934615 -0.18925654500558448
0.048595266513300824 0.3066293804348922 -0.18310035377576422
0.04098753827042668 0.29766442462816 -0.1883727124316938
0.03713347213692753 0.2916088907422042 -0.17428660005166602
0.030044781140757492 0.2968228070439315 -0.1693023702485807
0.02651821272797673 0.29555692359819175 -0.17684654503896308
0.052314000300837445 0.2967254130543685 -0.17698925345971656
0.04432974951691716 0.298378011435411 -0.171094860730911
0.04020683663315861 0.2974297611416793 -0.17829690486028266
0.04722176688141911 0.29917492553605796 -0.17983801275327277
0.04345013397164433 0.30383612796678305 -0.17522377878263068
0.040062086753321575 0.3008266894520736 -0.18126999944284033
0.09280060427613347 0.2954386083783126 -0.16346118956639838
0.091357248000575 0.3048435656727767 -0.15836353212430548
0.08965884345002263 0.2998582927884078 -0.16341398268773627
0.10616715448327153 0.29530336543931723 -0.1614537498338468
0.10428093569703191 0.3045609204472518 -0.1569468787296064
0.09934155838914006 0.29852171823396445 -0.16179756432607245
0.10248933928437322 0.29717650100602866 -0.16751770287587714
0.10181643264718145 0.3124507276715255 -0.16250650197103095
0.09588267105050176 0.30166771098985434 -0.1668948194368131
0.09404392736382573 0.2921760885418868 -0.1548972985131986
0.0875055064482221 0.29825188800706626 -0.14863633721902442
0.08270989554352849 0.29748072311296225 -0.15707367271020484
0.10797815220780461 0.29665674850358725 -0.15644584208562445
0.09977172511048406 0.30024310037507773 -0.15058348685338568
0.0964892973227033 0.2984069792927718 -0.1587519755943067
0.10576869743294805 0.30398358985795737 -0.15880849569871497
0.1013030876440534 0.31286664888276816 -0.15299720674588752
0.09432159560151189 0.28527321502580405 -0.16191695242955756
0.09172828691430181 0.290451130122087 -0.15613506346776557
0.08935637968010991 0.2912191955746627 -0.1621767243726499
0.09892641203827947 0.2910708992184615 -0.16001125782563758
0.0955771674437055 0.2953146307171798 -0.15608986824586463
0.09437398808426946 0.2930759398640609 -0.16180555134847235
0.09774421351380437 0.2989093272389388 -0.16080990046098304
0.0955849160475263 0.30880828782930136 -0.1562400868518598
0.09376903074212163 0.3028308360280013 -0.16121366232469153
0.09199293153710454 0.2930664627255416 -0.15989818781449866
0.0880431999487409 0.30045493528260947 -0.15402304738595557
0.08398513691849797 0.298058232516191 -0.16158935040071082
0.107687072925044 0.2944795100392318 -0.16124543160035681
0.10283763902611821 0.2992189137639022 -0.15585819989278388
0.0961800088209638 0.2974757759274459 -0.16265999883248877
0.10195575850434392 0.30009438678636313 -0.16382963567807746
0.10082514779992192 0.311749479025743 -0.15868095666005683
0.09600638049073308 0.3029115407170272 -0.16459785014226508
0.04881848590798466 0.33838327810182334 -0.19514701872899604
0.046562450103236126 0.3423879353703475 -0.19307393938138556
0.04395367401070683 0.3410090415181136 -0.1955680510385282
0.044833825997782635 0.34204848691835166 -0.19389554470613074
0.05370684163994877 0.3398685066403365 -0.19401196747853827
0.053494470290614056 0.34090169355287314 -0.1896670123918302
0.048802035026026654 0.3397646753491378 -0.1939542850835569
0.05494840639062016 0.34001912757768393 -0.1985069772584684
0.05537004964776127 0.3431676237286544 -0.1944880893810041
0.049789564780665325 0.34156330510988 -0.19947856277062964
0.04445915120072453 0.3434233276547408 -0.19335186093881201
0.038754867486430096 0.3464189378918624 -0.18915325015618872
0.03849481242127507 0.3444013206662154 -0.1945258638246305
0.05666272538132756 0.34414692804231406 -0.19496772795751166
0.050801055602503704 0.3443960754574752 -0.18907889336183142
0.0468563010019788 0.34361602947129966 -0.1951737365110166
0.054676668815089154 0.3419057337941146 -0.19621847182347846
0.05112539427704899 0.34500851318254233 -0.1930818518979795
0.04806123869843571 0.3437631933392501 -0.19877332061364722
0.11233718889184087 0.31017657205476523 -0.17833664625718665
0.11105396049447148 0.3117470352353072 -0.1772132030112989
0.11050202148385137 0.31046720430269004 -0.17915197819306922
0.11686615841813176 0.30946763440980674 -0.17746343821122718
0.11598907607026189 0.3107244579495406 -0.17582265645101142
0.11364971297211736 0.30975707456483603 -0.17828043907716346
0.11758367913193792 0.30914231225862265 -0.18151314169004035
0.11638950007386296 0.3122477142514205 -0.17899107545449805
0.11521886485047429 0.31053276941194297 -0.1817586234195478
0.11220593946404546 0.3083332388104415 -0.17549243181779456
0.1100851167959699 0.30930145666017295 -0.1732880732400663
0.10723708765931218 0.3083715645970321 -0.17828188448979926
0.11650805371232122 0.3092250435055709 -0.17571606844499182
0.11505864756531804 0.3091281859578109 -0.17333374529912543
0.10994024770684331 0.3090693561734176 -0.17812329143121314
0.1157916654867658 0.30981632158174277 -0.17491070538594794
0.11366610424943059 0.3123281805218673 -0.1724229118211515
0.10774378674454778 0.30802114889039756 -0.17592340320184302
0.1085156370920667 0.3076427786053634 -0.1766141912324674
0.10934622781701177 0.3065589277447677 -0.17860525458886695
0.10884218113846868 0.30788411781205893 -0.17559954136445594
0.10958518283791631 0.3075702993573165 -0.17630016416146826
0.11005924838013738 0.3065014092625594 -0.17826693862512183
0.1098390390200147 0.3080167381466842 -0.17308149844243598
0.10903482335038274 0.30925806447877646 -0.17219408958985877
0.11201285021729558 0.30943371936692954 -0.17807983964517188
0.11035753982491582 0.31076004192247153 -0.17672292500569892
0.10962306158967107 0.30948915168657065 -0.17957968622281623
0.11874912875123113 0.30914374277009726 -0.1786421647651441
0.11785923140473455 0.30988641664399863 -0.17674563437535834
0.11440961258835881 0.3092204539479232 -0.17991949230268073
0.11714832680649846 0.3086221425236678 -0.1798028460128553
0.11572392480797856 0.31177600309266806 -0.1772848626954801
0.08478056090302556 0.287290832251451 -0.17374154537751746
0.08206908600754827 0.29206194564714194 -0.17033981889321875
0.08105202215142339 0.2899030058087325 -0.17458982378079962
0.09550596969552129 0.28751434966935874 -0.1734529545886762
0.09304182427353948 0.2913691012562728 -0.16990939885213446
0.08872030871338933 0.28906830236329795 -0.1737225612981565
0.09291015761323064 0.2881378142537093 -0.17673828810288977
0.09053610461182683 0.2971846668423629 -0.17200256496503424
0.0869087149424085 0.2910127846898055 -0.17620940118863654
0.08343912857003301 0.2871732322873092 -0.16586969405248236
0.0773334373754987 0.2902325002850509 -0.16119084864690375
0.07258828180260747 0.29010446950807334 -0.16853072851731848
0.09591742055840581 0.2894648520649886 -0.1681114694459684
0.09015090959496587 0.29053243085756064 -0.16324415415361
0.08430372374482244 0.2906972973050094 -0.17015024632051062
0.09221230643220037 0.2938369123639083 -0.16938386469914984
0.08962001102395147 0.2981703488530135 -0.16471393018796515
0.08127479451127141 0.28298463508500815 -0.17117060333325934
0.07961328523583501 0.2850108353795028 -0.16787653773858618
0.07845859425492376 0.28541173622026206 -0.17268628984525275
0.08694724934525579 0.2846579162777877 -0.1712048462016828
0.08411111133523076 0.28664769813432456 -0.1684841772897489
0.08368896143860906 0.28527124807252646 -0.1727474591119535
0.08412654893822759 0.288808485716722 -0.17104152947499823
0.08344434397645085 0.29337539359941245 -0.16779502838685584
0.08227445381112188 0.2906415669621444 -0.17142104714944434
0.10974265830941289 0.3356535641850448 -0.15876154213979315
0.1093882788939008 0.3398389427365279 -0.15646530300214362
0.10877223508782476 0.3406353203953719 -0.1584279349429853
0.1136263479513654 0.3374491541089034 -0.15682878702714514
0.11221753256745427 0.3418190090359664 -0.15474322050645423
0.11225028531975835 0.3401051966847396 -0.15667901545598578
0.11521096723504155 0.33714457437410117 -0.16166612118318152
0.1131962110323438 0.34549774810685874 -0.15781376868321967
0.11260657208390325 0.34054293319597007 -0.1605321726186521
0.1136874129099378 0.33452036067857505 -0.15421373754575324
0.11031170385308355 0.3369536606968856 -0.1497304102761991
0.10735796587891668 0.33790149375810385 -0.15563661962583136
0.12077005403466314 0.3375242559613204 -0.1550346276147611
0.11699624555535405 0.3393855898083663 -0.15157146364286017
0.11554961102433293 0.33828171178712607 -0.15677201360299658
0.12101979749627202 0.34239604160203696 -0.156513761578346
0.11838750737137883 0.34677972480668784 -0.15235867708756995
0.11716579096741765 0.3440891711415267 -0.15711707979276252
0.11506532328553289 0.3298920004071212 -0.15781397729947638
0.11490921872086614 0.3310569731892562 -0.15539741128518653
0.112386779956294 0.3330829350651717 -0.15829042702748847
0.11496176021523564 0.33380897924318076 -0.1560635080917127
0.11414458053536504 0.33500572130098105 -0.15422756582334113
0.1144115795416364 0.33452495023622275 -0.1575126460178144
0.11537422435708135 0.3402418105305648 -0.15543013423516822
0.11299793618149846 0.34369232341661216 -0.1523444911821134
0.11414890187211126 0.34216721937074424 -0.1557350864990003
0.11096976893372625 0.3469900099934554 -0.17583511382176947
0.11064712899155706 0.35308106824769736 -0.17334360986783576
0.10981024997658818 0.3508181183041549 -0.17659645885064673
0.11782773034997075 0.34728493377580405 -0.17339080184533667
0.1174970139784345 0.35225345775499106 -0.1701716145856626
0.11484812395997136 0.34937586471452475 -0.1737775018794782
0.11650459664292424 0.3487506715954757 -0.1792779824121244
0.11473290818162053 0.3574893681706405 -0.17546629518106055
0.11272992389626592 0.35151066467180014 -0.17917762309148383
0.1099228431505689 0.3487534730137801 -0.1723960152251966
0.10504819648690313 0.3528133241833663 -0.1679089328630216
0.10438387291855901 0.35194488450898886 -0.17442892104222846
0.12012990014977544 0.35127039834871054 -0.1740187367780454
0.11593641536660283 0.35251166507615805 -0.1696930339915998
0.11381434100098699 0.3515787927807784 -0.17535577326848578
0.11812766092248052 0.35242929145707846 -0.1760908028466947
0.11626582043595403 0.35646857902421714 -0.1724562904222257
0.11328409808106511 0.35422911331071616 -0.17765408366754126
0.10793550508446782 0.34563895151033164 -0.17401845365598273
0.10625957148499578 0.3470351307095504 -0.17061006635263037
0.1058702935499677 0.3480443565548873 -0.17424802094533515
0.11091013448662847 0.3488746492566085 -0.17365583389833045
0.10919107692666143 0.3496641723813033 -0.17116722076966834
0.11072130697198003 0.3486069647969222 -0.17445070653989386
0.11191363828606694 0.35177739545717 -0.17503122597768378
0.11088581579156011 0.3548945395649886 -0.17221180707051825
0.1103701760096082 0.35347487613572837 -0.17568185537889075
0.11667977469391912 0.2961424796284652 -0.17769433170392585
0.11568348305649846 0.3020119278134322 -0.17459113508298468
0.11649094717927068 0.29981579467668296 -0.1779494693858869
0.12125082509942144 0.2974706499279952 -0.17451580971314978
0.11828191774315923 0.3034092991055465 -0.17147965341641974
0.11848102705903142 0.29991944715394736 -0.17467000692918372
0.1198035051149854 0.2993414609135604 -0.17804385334088874
0.11906565921731084 0.30937411472215415 -0.17401918381288123
0.11615015762276738 0.30254759475602866 -0.17740347593858313
0.11738039749093145 0.2935118286313033 -0.17142714172437262
0.11252479451127141 0.29537787124528647 -0.16653756409719062
0.10778774517006963 0.2959244458378768 -0.17356724649503302
0.1265781392378339 0.2964299528302169 -0.17243288069799018
0.12136300104088872 0.29773606941118 -0.1682867667062528
0.11775420802064031 0.296951374262712 -0.17507253199651313
0.12508122818894474 0.30270018264665366 -0.17331285387113166
0.12207745211548894 0.30752684757127524 -0.16814906507566046
0.12028269665665715 0.2879201976956344 -0.17729515939786505
0.11863951580948918 0.29005207702531577 -0.17375167816712928
0.11619200008339971 0.29137208148851157 -0.17778701692655158
0.12148435609765142 0.29111923858537436 -0.1752561590059049
0.11924736397690862 0.29304041549577475 -0.17264553516938758
0.1190604140085706 0.2921945063771224 -0.17715254038407874
0.12031002538628667 0.2974794118107772 -0.1739761641605146
0.11833058493561834 0.3019647805394149 -0.1702716460807569
0.11577774780221074 0.2946019975842452 -0.1775428166969068
0.11323417919106572 0.29961111232652426 -0.1730882188661344
0.11301933424897283 0.29799731656923056 -0.17810561865403723
0.12390728490777105 0.2962631194294906 -0.17733825355603766
0.11992322104401677 0.30112709686174155 -0.17354933529927802
0.11900542872376531 0.29821964189424277 -0.17817699521615576
0.12028734581894963 0.30014224931611777 -0.17820036023690772
0.12025894420571416 0.30821224138154746 -0.17389177888467383
0.057053404025507855 0.2995439974965072 -0.19009346872403693
0.05634539025254338 0.31344731733217 -0.18354177087380957
0.05229000943131535 0.3088578192891097 -0.1897796204669721
0.06860865848488897 0.3034824340046859 -0.1868014892919309
0.06598933237023442 0.31690027400865317 -0.18224456518724036
0.06132255690522282 0.3085506765545821 -0.18782947569921088
0.06520231264062017 0.3083281724156356 -0.19400348871781897
0.06449626582093328 0.32586159393205405 -0.18994441240861487
0.05887906449265568 0.313967189043901 -0.194233488140846
0.06129630105919926 0.29358776494874717 -0.18329254895284247
0.05569760697312443 0.30124725982560874 -0.17600644737317633
0.05134310024209111 0.3011213748158431 -0.18491239458158087
0.0737088789267072 0.3040164320172286 -0.18359584718778205
0.06545667546219915 0.308883747309587 -0.17732259243562293
0.06298612254090398 0.30616929218187094 -0.18559498697354865
0.07113148467965215 0.31086661502732993 -0.1876845768077619
0.06510888235993474 0.32179017946138144 -0.18170649915769171
0.061956780127955365 0.3154692856968856 -0.18830298989846778
0.07541831033654302 0.2912477461995101 -0.1976030132158048
0.07561077373452275 0.30645485803498984 -0.19044145554139685
0.07270266311593145 0.30133607074632407 -0.19574504703118872
0.08508454459138005 0.2975120751561141 -0.19317370265557837
0.0828997661394605 0.3135972826184249 -0.18834520488812995
0.0792318453115949 0.30307318851365805 -0.19389338403775763
0.08193518417306035 0.3018279282750106 -0.20039748757913184
0.08196516530938237 0.3201730458439803 -0.1967037281377561
0.07684241431183904 0.30778064414872885 -0.200285654364372
0.08182715075440496 0.28468491718187094 -0.19054025024011206
0.07517673271126836 0.2925524918736434 -0.1818247398717649
0.07165183322854131 0.29290958330049277 -0.1910875251872785
0.09172715442605107 0.298083445280931 -0.1892855724675901
0.08424081104226201 0.30289812967195273 -0.18349530905320716
0.08247678177781194 0.2999499051274276 -0.1919582596404798
0.09163926737732976 0.308286926001451 -0.19260838240220618
0.08585591810174077 0.32049634143724204 -0.18612590044572425
0.08268867628998845 0.3135774342717147 -0.19284171968534064
0.08220263021416753 0.2777468769253707 -0.19719099610879492
0.07952554719872564 0.28463818714036704 -0.18746749669148993
0.07816596525139898 0.28801127359285117 -0.19499092906549048
0.08353541987366765 0.29393055126085044 -0.1919381281717069
0.0798206497950086 0.30083598777665854 -0.18716391533448767
0.07894282238907903 0.29880966827287436 -0.19397708386018347
0.08336104648537725 0.30471046850099326 -0.1931152752025373
0.07963840859360784 0.31870444700135947 -0.1885352095945127
0.0794476439280042 0.31130810663118125 -0.1938544920070417
0.06838499205536931 0.3375606147946334 -0.18222441881730628
0.06380550759263127 0.35005964919938803 -0.17774301379754615
0.06027646558709233 0.3453350870312667 -0.18224693447187018
0.08155398266739934 0.3392589299382186 -0.18062740176751685
0.08147655623383611 0.34453447744264365 -0.1741720548255689
0.07294906871743291 0.3416329829396224 -0.1800994834287412
0.07896159785218328 0.3400365917386031 -0.18808360010221076
0.07864873307175725 0.3489783017338729 -0.181325089035774
0.06997032659478276 0.3431222645939803 -0.18715190499856543
0.06581060784287542 0.34218724653138877 -0.17680830865933966
0.055838631562663006 0.34856404945268393 -0.17167314499452185
0.05244545834488957 0.34625192567720176 -0.17969713717534613
0.08533023493714421 0.34724303171052695 -0.18088332921102118
0.07623253958649724 0.34715028688325644 -0.1727772614343412
0.06913928883500188 0.34706403896226645 -0.18138721197679114
0.07943712370820134 0.34645762130632163 -0.18334686368539405
0.07399608390755742 0.35117371961488486 -0.17849143951966834
0.06903447406716436 0.34897353336229087 -0.18537269145085883
