ply
format ascii 1.0
element vertex 207
property float x
property float y
property float z
element face 0
property list uchar int vertex_indices
end_header
0.1029188205523023 0.08645536586656331 0.11180010825560022
0.0995909442228803 0.09364115282907247 0.1167531946317904
0.09972767727799504 0.09171738311662435 0.11115244418547082
0.11329852240510076 0.0937503187359786 0.11274311334059167
0.10803334610886663 0.09692167326822042 0.11817112952635217
0.10353245037026494 0.09603001758470296 0.11191317826673913
0.11037732856698125 0.09142836019410848 0.10770973950788904
0.10362588065095037 0.09689175173654317 0.1132785716669314
0.09986178772873967 0.09468077704324483 0.10701671630308557
0.10569714205689519 0.09751664683236837 0.11063856274053979
0.10133801596589177 0.1039199142159438 0.1165143886224978
0.1012325753492841 0.10362353011979818 0.11027047425672937
0.11520900028176397 0.10635330364122152 0.11042005211279321
0.10958938496537297 0.10924776479615926 0.11582273632452417
0.10603617327637761 0.10832544252290487 0.10938242465422082
0.11247568028397649 0.10412876889123678 0.10666683703825403
0.10599099295563787 0.10900454804315328 0.11229598909780908
0.10292358892388433 0.10704984352006673 0.10577747613356042
0.10423104660935491 0.08824705168618917 0.11342505008146692
0.10114287035889714 0.09475713059320211 0.11868334204122949
0.1028275062365064 0.09519692346467733 0.11341107279226709
0.10890065329499334 0.09965672180070638 0.11435461431906152
0.1052793134970197 0.10257046505822896 0.11858141809866357
0.10389353530831426 0.10141440317048787 0.11312324196264673
0.1082337071222791 0.09788375183954 0.11018699795172143
0.10261030691094487 0.1026122777165389 0.11548886090681482
0.10050435560174077 0.10064785763635396 0.10960147172377038
0.1057145466131696 0.09720843121423482 0.10871008426115442
0.10123007195420354 0.10372634813203573 0.11460397035047937
0.1009659339708814 0.1033401100338912 0.1083468237535708
0.11540080802865117 0.10589753672494649 0.10848570257589746
0.10973282354302495 0.1087627916039443 0.11391401678488183
0.10602911012597173 0.10785906597985982 0.1074560025350802
0.11261825459427922 0.10373007342233419 0.10473069936201501
0.10603352086968511 0.1086102037133193 0.11038238197729516
0.10285894768662542 0.10667045995607137 0.1038386860506289
0.1100197006983289 -0.03877414181814432 0.1062864103929751
0.10818232791848272 -0.03715539887533426 0.10815358549520898
0.10744352834649175 -0.03919089749441385 0.10376453787252832
0.11557714837021917 -0.038979956656553745 0.10807827502653528
0.11391504304833501 -0.037435332089521885 0.10988307386801172
0.11178885596222966 -0.03996694996938944 0.10597601920530725
0.11602123277611821 -0.03883723333463907 0.10421133428976465
0.11504830615944951 -0.03392935708151102 0.10672060042784143
0.11168830292649358 -0.03807417467222452 0.10342684775755334
0.10869516628213018 -0.0412790568171525 0.11013418823645044
0.1072743405622968 -0.040174135714628696 0.11170363813803125
0.1057349015993604 -0.04111731961355448 0.10725996285841394
0.1111706663889417 -0.04150713399038553 0.11189151197836328
0.10990764396615117 -0.04041887238607645 0.1134190300123446
0.10721196430153936 -0.04179219320402384 0.109296266140198
0.1126909722609052 -0.04102835968122721 0.10915396005079675
0.11212657587952703 -0.03730715230093241 0.11138165384695459
0.11016257303185552 -0.04056839063749552 0.10813641935751367
0.10669602649636357 -0.04049772933111429 0.10667476445600915
0.10629795687623113 -0.04009030178175211 0.10708901673719812
0.10678602950997441 -0.041061619073011875 0.10414615661070276
0.10815949933953374 -0.0409358532725358 0.10846934110090661
0.10774354832596868 -0.04045132711515665 0.10894048601553369
0.1072501112741956 -0.04174486711607218 0.10633293181822229
0.10762317674584478 -0.040987530499556064 0.10742769032881189
0.1070575584692487 -0.03747520759687662 0.10866511255667138
0.10553230541176885 -0.04003433302030802 0.10678670197889734
0.11031331317849248 -0.0395705492793107 0.10638150960371423
0.10841806428856939 -0.03798771813497782 0.1083305814878695
0.10741113322205632 -0.039868334084608555 0.10376921683714319
0.11588512556977361 -0.03970069602117777 0.10797328144476342
0.11420406597085088 -0.038226851969816684 0.10983133703634668
0.11208294527955144 -0.0407331378756547 0.10584167033598352
0.11669998066849797 -0.03970895126447916 0.1039130428449862
0.11577864187188237 -0.03512294009313822 0.1064961293356173
0.112395005397273 -0.03903342202291727 0.10306612044737268
0.10722427266068547 -0.03619260504827738 0.10387739926741052
0.1062430311960706 -0.034512499123671055 0.10507196575567651
0.10386188524193853 -0.03624466970548868 0.10176077872679162
0.11299456851906865 -0.03669843986616373 0.10647267490789819
0.11193128126092046 -0.034826198369123935 0.1076768973486178
0.10861773984856694 -0.037358114272215366 0.10470202952787805
0.1116368939203748 -0.03649611189947367 0.1019068697111361
0.11080868738122075 -0.03046188667402506 0.10387099176809717
0.10916604297585576 -0.036158630400755405 0.10153222471640039
0.10489382045693486 0.0297217874230361 0.10158050447866845
0.10421021478600591 0.04853131458177328 0.10607096940443445
0.10133557217545598 0.03999905869378805 0.10263049990103174
0.11904256241746038 0.02996953412904501 0.10546660810873437
0.12031088965363591 0.043710639923951626 0.11011395245954919
0.11341558592743962 0.03529872581376791 0.1053153911249392
0.11759464638657659 0.02798046752824545 0.0955752173082583
0.11848609345383733 0.04368703648462057 0.10035837084219384
0.11136572258896917 0.03377386018647909 0.09596196204588342
0.10192726748414128 0.022757640332124233 0.1070166268961184
0.09821798103280156 0.03606995031251669 0.11411333471701074
0.09527485268540471 0.03331210300340414 0.1073184350149386
0.11205120580620855 0.03310467883958578 0.10908377558157373
0.10674371021218389 0.04258855268373251 0.11418459206983972
0.10315652387566655 0.037994167059800625 0.10748297363684106
0.10916818874306768 0.03809123322381735 0.10286894828245569
0.10671766298241704 0.051472833603761196 0.10745799929068017
0.10269232290215581 0.04266016766443014 0.10169360429212976
0.10085044997162908 0.019804379195115566 0.10795122772619653
0.09803591864533513 0.03289013192071676 0.11459035068914819
0.09602309959359258 0.030566593855760098 0.10887298375532556
0.1079212595743665 0.03105302736177206 0.1107930579797976
0.10538046257920354 0.04002781793489218 0.11509335428640771
0.10257579582161992 0.03546865865602255 0.10919031888410974
0.10669799344964116 0.034381440132997036 0.10386914402410913
0.10535963075585454 0.04778402134790182 0.10797971874639917
0.10155816572136968 0.03907047793283224 0.10287091523573327
0.11027322905488103 0.04748492524041891 0.10123637706205774
0.10864354865975469 0.06484546348466634 0.10667276770040918
0.10696412818856328 0.05696814343347311 0.10092360168859887
0.12308733361191838 0.059495857209107876 0.103955689968323
0.11948569314904302 0.07009448692216634 0.10994840055868554
0.11300759213395208 0.06482162162675618 0.10319313794538904
0.11920093195862859 0.05839054867639303 0.09434637814924646
0.11366458433098882 0.07418905779733419 0.10052276045248437
0.10798765914864629 0.06552430078401326 0.09430385023519922
0.1093129684252271 0.05080493375673056 0.10279027015135217
0.10692973630852788 0.0660093633831954 0.10952937990591455
0.10714970725007146 0.06156080052270651 0.10239664107725549
0.1215040256304273 0.06817301198854207 0.104220662416672
0.11594392555184453 0.07807992979898214 0.11063713222906518
0.11235778229661077 0.07308577582254171 0.10279012113974023
0.11862425702042668 0.06924458429231405 0.09620577484533716
0.11262791054673284 0.08473618909730672 0.10297471672460962
0.10914774434990972 0.07570733711137533 0.09616941601202417
0.10666190283722966 0.042872449606797695 0.10469627767965722
0.10510043995804876 0.057909718006989956 0.11102012187406946
0.10666878717370122 0.05391570016755819 0.10480979472563196
0.11585881011910527 0.0626003353299117 0.10670432835981775
0.11160640614457219 0.07253267452134847 0.11232033759519983
0.10899852412171453 0.06735824629678487 0.10531771570608545
0.11364712017006963 0.0623659102620101 0.09874567777082849
0.10873387949891179 0.07751037761583089 0.10495359093115258
0.10531158941216558 0.06872012302293538 0.09867814570829797
0.10946060913033574 0.0496001152695632 0.10182881742880273
0.10609145658440679 0.06585591122522115 0.10840052753851342
0.10485790865845769 0.060512921065232754 0.10128865033552575
0.1235649158281812 0.06489848181619405 0.10274839788839746
0.11747823851533025 0.07417975947274923 0.10959646493360925
0.11232222812600225 0.06981884524240255 0.10157341152594018
0.11986668603844731 0.06487762019052266 0.09494445115492273
0.11285124915070623 0.0796555487812972 0.10178721338674951
0.10889126556344121 0.07121606752290487 0.09484032184050012
0.10851432578988164 -0.0025388689337754265 0.09217015296385217
0.10850776927895635 0.004492959231278895 0.09642690807745385
0.10668574469513982 0.004035076350114344 0.09190890580580163
0.1154918243212232 7.649347200155109e-05 0.09500196963713098
0.11373906033463567 0.007439038008592127 0.09824738294050622
0.11188312070794194 0.0037640838326430306 0.09332076102659631
0.11470313566155523 0.0031344501675581917 0.09038666278288293
0.11543728607125371 0.0167232362927413 0.09390369445249963
0.1111135055346021 0.007949700802705286 0.08952445179388452
0.11243654983468145 -0.010024050026991369 0.09505686551496911
0.11076300042100042 -0.003397533446409704 0.10117572933599878
0.10772372978158086 -0.0021700353919053093 0.09505549460813928
0.11626170771546453 -0.001954475194075109 0.09810078531668115
0.11359758871026128 0.0033240227402663216 0.10189876347944665
0.11304761665291875 0.0006821958722090706 0.09573051721022058
0.11631922619767278 0.005847146958253382 0.09656712800428796
0.11420454280800908 0.017741194218537808 0.1007215419428103
0.11249001520104497 0.010464420765779017 0.09542522221968103
0.11167814033455938 -0.014126369505980016 0.09259915739462304
0.11304693119950383 -0.009767541438200475 0.09668550282881189
0.10940520661301702 -0.005635002404310705 0.0932650902883761
0.11234121220536321 -0.006186375170805456 0.09738579780027795
0.11261572139687627 -0.0015239508448624626 0.10002118736669946
0.10970039861626714 -0.0013262124358201042 0.09570652634069848
0.11235822933144658 -0.001397141963102819 0.09502199679777551
0.11159353154130071 0.009916028231523035 0.09823376327917505
0.10974078076310247 0.004183074683091639 0.09403750688002038
0.10369165437646001 0.06991120263948201 0.10384929567739892
0.10138993161149114 0.08094506546869039 0.10826716214582849
0.10120369689889043 0.07701756641282796 0.10283682137892175
0.11573811071343511 0.07627829000367879 0.10624486595556665
0.11176131861634343 0.08238353416337728 0.11106503397390771
0.10695775049157231 0.0800396709145522 0.1056050696985476
0.11293204324669927 0.07382728740586995 0.09839460641310144
0.10726593630738347 0.08425652071847677 0.1039379873888247
0.10320057170815557 0.07921900436296224 0.0982532539980166
0.10477538602776616 0.07529061123742818 0.10331133395597863
0.10226087468094915 0.08402826473130941 0.10908762008116174
0.1014752854628095 0.08304732128991842 0.10255474239752221
0.11512024896569341 0.08544652745141744 0.10419637352392602
0.10852112071938604 0.09134989067926168 0.11002684027120996
0.10592438476510137 0.08888109609498739 0.10302219182417321
0.11351539390511602 0.08521675154580831 0.09855735689566064
0.10787083404488652 0.0945255963505721 0.10436723023817468
0.10484488504357427 0.0899416713417983 0.09823203474447656
0.10218869345612615 0.06672992393388509 0.10605577022001672
0.10080264704651921 0.07587122008218526 0.11126000076696801
0.10203798311181157 0.07590355560197591 0.10590446382925439
0.10724620716996282 0.07969780847444295 0.10807752996847558
0.10393901365227788 0.0853785483540511 0.11232245356008935
0.10268588560052007 0.08278145477189779 0.1065901258604281
0.10796521799988835 0.07881336495294332 0.10234827190802026
0.10361512201256841 0.08801611349000692 0.10741103083059717
0.10104869502015203 0.08349578663720846 0.10206997782156396
0.10253538387246221 0.07246773526086568 0.1034187117235415
0.0998934377951154 0.08138909026994466 0.1087234357015841
0.09881626265473455 0.0797769038380599 0.10247296482489038
0.11419813530869573 0.08030082866563558 0.10449561864302087
0.10801424282021611 0.08585687562837362 0.11017066627905298
0.10452886121697515 0.08354734465493917 0.10337320357725549
0.1115923394484052 0.07918345019235372 0.09866419822142053
0.10593362348504155 0.08813520357026815 0.10432926207945276
0.10254542725510686 0.08361413165941 0.09815693289205957
