ply
format ascii 1.0
element vertex 728
property float x
property float y
property float z
element face 0
property list uchar int vertex_indices
end_header
0.1559203137678632 0.34824337646379233 0.19253978520796228
0.14852957623429386 0.3554117290677047 0.1974709966795199
0.1477944125456342 0.3530940024556136 0.1928269603864901
0.16850750344224064 0.3560717312993026 0.19220808535978723
0.16041766303010074 0.3585443703831649 0.19834784060881067
0.15696244137711612 0.3563318459691024 0.19263545066282678
0.16783754723496525 0.35510250017060996 0.1856788137571566
0.16343896286912052 0.36083694383516074 0.1922236421720736
0.15772514241166202 0.3574335782231307 0.18580934792921472
0.1459659804625043 0.3590592949093795 0.19248608142301965
0.13906859057374088 0.3607406227292037 0.19740471631452966
0.13488201992936222 0.36016382858171225 0.18992510825560022
0.16516439812607853 0.36256696864976645 0.18784764796659875
0.1552198399824628 0.362331172675035 0.1951228120939486
0.14848189251847355 0.36207219049348593 0.18767431765959192
0.16396008627839176 0.3579972593487716 0.1847216823713534
0.1546259393019208 0.3623606769741988 0.19090155154631067
0.14946596520371525 0.3610695211590743 0.18352213889524865
0.13343240516610233 0.2837985961140609 0.12971192985937524
0.12974982159562198 0.2862467972935653 0.13289049655363488
0.12988649504609195 0.28432860061540366 0.12942007571623254
0.1419442166609296 0.2839281766118026 0.1299363413469546
0.1375649441999921 0.2847009508313155 0.13498482495710779
0.1345315744204053 0.28352232858552695 0.13087973386213708
0.13813643353409855 0.2844159810246444 0.12896213323042321
0.13667129176087467 0.28779401466264487 0.13185346514151025
0.13125212686486332 0.2869772522152877 0.12644943982527185
0.13525130050606815 0.2865521518887496 0.13104772955343652
0.13299371498055546 0.28638657018556357 0.1342700162546389
0.13106624978013126 0.2847058384121871 0.13224345833227563
0.14069406884141056 0.2872172801197982 0.1310700514929049
0.13764618533082096 0.2864100544156051 0.13551041871473718
0.1326492001337537 0.28538574859514 0.13237327724859643
0.13626323836274234 0.2849350182713485 0.13234609753057885
0.13446955578751651 0.2869740335644698 0.1347672680036776
0.13153864639229862 0.28704424783601523 0.1295722761766665
0.1291977931780347 0.2848000137509322 0.12838265687391687
0.12870826023049442 0.28497894689454795 0.12894586116239953
0.13304965393967716 0.2835270373524642 0.1294482985155337
0.13083358304925052 0.2855612842740035 0.12855857998297143
0.13034762638039676 0.2856341807545638 0.12924597054884363
0.13316540615983097 0.2838767974080062 0.13009748250410486
0.12744556563325016 0.2851400582493758 0.12996766358778405
0.12660168307252018 0.28585084363832236 0.13056567698881555
0.12827472584672062 0.2853489129246688 0.12950280696318078
0.13228117125458805 0.2851042954625106 0.1314772108213656
0.13127286928124515 0.28504045888795615 0.13312289506361413
0.13187058465905277 0.2827627269925094 0.13316521436140466
0.13461698787636844 0.28671892568483115 0.13157955199644494
0.1330066789907941 0.28615435048951865 0.13422274977133203
0.13146512406296817 0.28391881868257285 0.1339312234537356
0.1302603651804456 0.2854946462811446 0.13380578547880578
0.12937830584473697 0.2862693278492904 0.13503632337019372
0.1291515101713666 0.28627111598863364 0.13238963872358728
0.21027396815247623 0.3603298275174117 0.12194011002943445
0.20966409342713443 0.36342676565065146 0.12325847536489892
0.21180366175599186 0.36224409028901816 0.1221831479685061
0.2140037287992963 0.3702229468525863 0.12418580442831445
0.21469275849289982 0.3620819656552291 0.1250644066946261
0.21202813284821598 0.3651569692791915 0.1268247404711001
0.212446617059184 0.3633932082356429 0.12432209044859338
0.21465026038117496 0.365544280260942 0.12697893768713403
0.2146615256590375 0.36135478898896933 0.118063036503052
0.213498281411601 0.36766167566194297 0.12019056469366479
0.21175329583115665 0.3639493195713973 0.1170510986463778
0.221499191693736 0.3584664075077987 0.12616798669264245
0.2182481159491071 0.36336602851762534 0.128809604944443
0.21525149243302433 0.36092819854631186 0.12449500352308679
0.2113380302710065 0.3641995398701644 0.11839116007254052
0.21084015267319767 0.3656157462300277 0.12081110865042138
0.21257119076676456 0.36530437156572104 0.11876750379965234
0.21512906449265567 0.36605008527650595 0.11945575863287378
0.2128888835234174 0.36710270330323935 0.12236148506567407
0.2137092222494611 0.3659222929181075 0.11949983626768518
0.21660988228745548 0.36478146001710654 0.11756152302191186
0.21558837788529484 0.36749239847078086 0.11949369698927331
0.2131892313284406 0.36682297870530844 0.11598682791159082
0.15442924397416202 0.3336635439099288 0.13744250327513147
0.15263728993363468 0.33846440002336264 0.14064744502470422
0.15171913998551456 0.3371831981839156 0.13692018777296472
0.16390995877213566 0.3374579755963302 0.13842490703031946
0.15917156832642643 0.3406856863202071 0.1429733374731295
0.1578513850492963 0.3384676186741805 0.1387788990156405
0.1652691234869489 0.3348489610852218 0.13253835231230188
0.16087340014405338 0.34220840618028403 0.1366857627050631
0.15842043059296695 0.3376329748333907 0.13213038832113672
0.1535919775290021 0.34043206855668784 0.1369342544691317
0.14997188942856876 0.3432899324597335 0.14145413428709436
0.14964609044022648 0.3422632424534774 0.13568702727720666
0.1638234128279218 0.3434000818432784 0.13580283910200525
0.15858166115708439 0.3445120660962081 0.1418873408453219
0.15660618441529361 0.34280951902284384 0.13611427337095666
0.16218809979386417 0.3412759511174178 0.13326937347814966
0.1594360937399396 0.3457790224255538 0.13676259309217859
0.1563339700026044 0.3436585275830245 0.13158199578688073
0.15515981810517399 0.33542182132615805 0.13581344872877527
0.15450762408204166 0.33666696235551596 0.13847044497892785
0.15563146965928165 0.33795579358949424 0.13601068049833703
0.15667663710541813 0.34068318292512656 0.13643208533689904
0.15463356869645206 0.3415395824612594 0.13945356398985315
0.15629713433213321 0.3403268663586593 0.1373794415609591
0.15850852625794498 0.33943756505861045 0.13506427794859338
0.15591465132660953 0.34252681419267417 0.13792226106092859
0.1560881604475507 0.3416318504513717 0.1348777154104464
0.12739084856934635 0.30956377670182944 0.17383549004957605
0.12364067333169072 0.3132712452115035 0.1790361741201632
0.12234090464539617 0.3124768941105819 0.17337897807524133
0.13444842594094364 0.3134364692868209 0.17502913266584802
0.12885092394776432 0.3161702363194442 0.1811629870550387
0.12587197320885746 0.31451143905534507 0.17523375541136194
0.1313209702295789 0.31674244090928794 0.17132488280699182
0.12746130125947086 0.32433088704957724 0.175895307363724
0.1254703273100385 0.31992473289384604 0.17049751073286462
0.12926434176392643 0.3146331517399764 0.1742742398397677
0.12529219882912723 0.31480236932649375 0.1805223563329928
0.12339548962540715 0.31570454522981406 0.17564300090238977
0.1356651057524213 0.32102670356645346 0.17414626866743493
0.12964244382805912 0.32051928922548056 0.18115386754438806
0.1265084018034467 0.3191477863491988 0.17607197553083825
0.12864043014474003 0.3220635263623214 0.17395559340879846
0.12632461088128177 0.32508750841035605 0.17856344968244958
0.12432588832802861 0.3238148300351119 0.17311445266172815
0.12737043397851078 0.3116136400402999 0.1700995901243441
0.1272303630632886 0.311461290568254 0.17332736045286584
0.1282960941118726 0.31349762365236045 0.1711805799619906
0.1281045247835645 0.31747724697007895 0.1701921561376803
0.12540696757264225 0.31808950588121176 0.17392996341154504
0.1259776820463666 0.3167163936795211 0.1725570300237887
0.12593837278313724 0.3181363551320052 0.16961899787352014
0.12425385611481755 0.32065202876939536 0.17335734158918786
0.12566904919571964 0.3198839633168197 0.17093196898863244
0.1802234520239362 0.34956862613572837 0.15840903312132287
0.17777954237885563 0.3599207608403182 0.1631864050047152
0.17574952738709537 0.3559457270802474 0.15698501855299402
0.19429891007371036 0.35553099796190024 0.15965298205778528
0.18830560343690006 0.3626406995953536 0.16545203715727258
0.1846223344130048 0.3586552350224471 0.15857163459227014
0.19215463297791568 0.35244192764177085 0.15177926808760095
0.1865747441572675 0.3657059876622176 0.15720585376188684
0.18250094550080387 0.35823615476503134 0.15133050471708703
0.1788530220312604 0.35441633149995566 0.15925720721647668
0.17483292715973942 0.3630280701817489 0.165469441713547
0.17303537028260318 0.3599033562840438 0.15737679988310266
0.19443021910615055 0.3601816503705001 0.15919027120039392
0.18742232220597355 0.3640864102543807 0.16718402892515588
0.18123619454331485 0.3628128974141097 0.1580810287611239
0.18967722552247135 0.3642104475201583 0.15252444535658288
0.1842973102850446 0.3755445091427779 0.15887073069975305
0.18143658535904972 0.3681288568676925 0.15175137311384607
0.1680880655569562 0.29555501624955893 0.1259629765169375
0.16663621561951725 0.3015583364666915 0.12895453363821435
0.16570536988205997 0.30017890617265464 0.12470639139578271
0.1748559941572675 0.29762293979539634 0.12815282136366296
0.1719980110449323 0.3024261204899764 0.13079640656874109
0.17031453745789615 0.2999975292386031 0.12741840273306299
0.17213647263474552 0.302584132403276 0.130156222881531
0.1743793358129987 0.2994224040211654 0.12313965350553918
0.171003745965434 0.3093099801243758 0.12586963564321924
0.17099665301270572 0.30196853563203574 0.12220463544294763
0.16594033139176456 0.29562332317247153 0.12734344989225793
0.16295270817704288 0.2987048833073592 0.13106391221449304
0.1639420856756696 0.29746331855668784 0.12591973334715295
0.17262904541916935 0.29875399753465415 0.1272451618330233
0.1683511604589948 0.3006409017743087 0.13163137823507715
0.16789375441498844 0.2988749949635482 0.12704480081961084
0.17244588034577457 0.29759844228639365 0.12631088882849145
0.1693683733267316 0.3019178120793319 0.12835020214483667
0.16888140337891666 0.29969032689943076 0.12450406342909265
0.1686757077497968 0.2930330841244674 0.12520492464468408
0.16811792748398868 0.29397746011628867 0.12724462539122033
0.17015396254487125 0.2964085547627425 0.12545487672254968
0.16849224465317814 0.2976319997014022 0.12729299456045556
0.16788624422974674 0.2985891310872054 0.1285996177808993
0.16923402445740787 0.2986405698956466 0.1272887626306765
0.1691889037413129 0.29901625797166587 0.12660810738966394
0.16679124730057804 0.30221213981523276 0.12805816918775964
0.16904948847718326 0.30099996015443564 0.12645987063810754
0.12613479988999454 0.3475517837704635 0.21390197068617273
0.12061362164445012 0.3534425704182601 0.21933892756864953
0.1173725296778211 0.3518438546360946 0.21319005280897546
0.14079778092331974 0.3486077396573043 0.216295275987839
0.1322035660070905 0.3517555801571822 0.2237539032118075
0.1270850469393262 0.35024364873780967 0.2168571689741366
0.1360649933142194 0.35329445287599326 0.2096026876585238
0.1296872665209302 0.36154343768968344 0.21548691779539514
0.12475668089814275 0.35740419313325644 0.20888039857313562
0.12518178122468082 0.35415210410966635 0.21471140176222253
0.11819388168282598 0.35706706926240683 0.22085890561506677
0.11630238788552373 0.3559941856564498 0.2145864704267733
0.13989280360169498 0.3569382636250472 0.21364090234205652
0.1319155861658582 0.3564521877469039 0.22191140443251062
0.1264575292391309 0.3558641283215499 0.21453795224592614
0.13280351655907718 0.3584732024373031 0.20987353116438318
0.12906955378480045 0.362874647826097 0.21490833550856042
0.12422277229256719 0.36078288242234946 0.2082906702177279
0.12141697304673284 0.3477531878651595 0.21190515548155237
0.11911215084023564 0.3495409695805526 0.21690842896864343
0.11726196306176274 0.35030617401017905 0.21191725522444177
0.12822495596833317 0.3518026678265548 0.21247920781538415
0.12358083026833623 0.3535244075955367 0.2176862099783175
0.12151815193123906 0.35209455177201987 0.21321484834120202
0.12467031376786321 0.354155918806932 0.20935914307997155
0.12329338686890691 0.3586027233304 0.2137608268873446
0.12101145284600347 0.3561606018246627 0.20916727572843957
0.14722483056016056 0.33995153591050864 0.1643531063215487
0.1432669033331403 0.34411980792894126 0.16846391946241784
0.1417974104208478 0.34260459825410605 0.16333339005873132
0.15685217278428165 0.343285819739244 0.16457334548399377
0.15131788151688663 0.34499998971833945 0.17024901896879602
0.148093270234538 0.3437423913182235 0.16480103522703576
0.1579904426855573 0.34023054525270224 0.16003594190046716
0.1533054580015668 0.34492834493531943 0.16454384118482995
0.14905338185258 0.3428539840878463 0.15927645951673913
0.14071034090943424 0.34926958963289023 0.16496351748869348
0.13587545054383365 0.35134818241014243 0.16980979234144616
0.13392500775284855 0.35056050702943564 0.16381922751829553
0.15352307455964176 0.350953420847795 0.16309407740995813
0.14764486449189274 0.3508544175328231 0.1699264386312716
0.14333020346589176 0.3498548476399398 0.16352048903868127
0.14933394091553776 0.3493108360470748 0.16132125646040368
0.14635501997895328 0.35253008291139365 0.16529128343031335
0.14265297549195377 0.3513615934552169 0.15915462762281823
0.1258953382296094 0.2844336239994979 0.16755339890882898
0.1228913535398969 0.28700401470079184 0.17219767362043786
0.12104644077248662 0.2858609764279342 0.16700807601377893
0.13492982285447208 0.28458269521608115 0.1699184516088717
0.13025589483208744 0.2870065180958724 0.17492875844404626
0.12645687358803837 0.28534301206483603 0.16908327132627893
0.13232813971467106 0.28706499025239707 0.1671350339071505
0.12748451726861088 0.2942763178051925 0.1710943320410006
0.12470857994980901 0.28979220077409507 0.16539183646604944
0.13084049718804447 0.28852411195649863 0.1695793607847445
0.12801249521203129 0.28848429605378867 0.17365572244093347
0.1381205786985883 0.2914899794758773 0.1699482539312594
0.13373728292412845 0.29069974109544516 0.17524341136381555
0.12845285432763187 0.28982808277024985 0.17062363416120935
0.13080270784325687 0.2907868830861068 0.17063430339262414
0.12806563275284855 0.29439797088517905 0.173914585413193
0.1265766491217145 0.2928850857914901 0.16846725732252527
0.12180273430771917 0.2843709199131942 0.1673702338354342
0.1212722231668958 0.28492613717927695 0.16908952981398034
0.12300752299256414 0.2844905464352584 0.1667802074568026
0.12491093771882146 0.28558637782945395 0.16811553031370569
0.1237567533773908 0.28644569799318076 0.1701277235166781
0.12383492486901372 0.2850591747464156 0.1685529091970675
0.1208956112188825 0.2877649275959945 0.1694190242902987
0.11848549740738958 0.29031004592790366 0.17132530003950525
0.12170155542321294 0.28855313941850425 0.16936126738951135
0.12476952569909185 0.28325029298677207 0.1696416476385348
0.12357069747872441 0.2835638730229354 0.17228117972776819
0.1234106292051801 0.28332152053727866 0.16936007529661584
0.12813095944352237 0.2857080905140853 0.17044422418043542
0.12637110250420658 0.28615631744279624 0.1733744481222384
0.12399466531701177 0.2847346274556136 0.17120305091307092
0.123134272269679 0.28675892040147544 0.17204854279920984
0.1207156349939832 0.2897432057560897 0.17437252789900232
0.12300516860909551 0.28812470123185874 0.17133263141081262
0.15510498183198063 0.30494107887162925 0.1408349612371676
0.14926307099289982 0.3095335571469283 0.14535531789228845
0.14597140448517887 0.30747809097184897 0.14060983449385095
0.1669051517767438 0.3092630712689376 0.14018616467878747
0.16021762984223453 0.3084553687275863 0.1480293610708468
0.15461133616395084 0.30698963090791465 0.14173964053556848
0.16367666619248478 0.3107870428265548 0.13556227475569177
0.1628821958822736 0.31319173261537314 0.14165470391676355
0.15448807375855533 0.3114235012234664 0.13460117966101098
0.15025489228196232 0.3129980175198531 0.14167884379789758
0.14394591944642154 0.3139147965611434 0.14607313662931848
0.14031027453370182 0.3128299920262313 0.14126912146971154
0.16544167893357364 0.31374009534730674 0.13896593839094568
0.15788500206894962 0.31187780782594443 0.14595643073484826
0.15080963271088688 0.31173702165498496 0.14010116845533777
0.1605204810423383 0.31081976577653647 0.13855114966795373
0.15731893675751774 0.31200250074281455 0.14233646184370446
0.15085528986878483 0.3128996698559737 0.13519689828321863
0.14744357960648624 0.3085274903477645 0.1387626865522616
0.14419518607087223 0.30963667318238974 0.1414710024015658
0.14361672299332706 0.3089876978100753 0.13948437959120202
0.15335773127503483 0.31017114803209067 0.13758424312040735
0.1501628627104291 0.31013145133867026 0.14091661960050988
0.1466300954145917 0.30934627935304404 0.139121625723099
0.1503552068991193 0.3096653430165267 0.13712546616957116
0.1504639257711896 0.31007333681001426 0.14039215833113122
0.14776258366532413 0.31019081756486655 0.13634762555525232
0.1932767500204572 0.33551045343293906 0.13729355126783777
0.1911349167150983 0.341338535994432 0.1396270731107943
0.1901135315222272 0.33967544719590903 0.1362279990331881
0.19191049235291568 0.34366132900132895 0.13908586293623376
0.20192669527955143 0.3369461505116439 0.13841209203169275
0.19969938891358463 0.33948262617006064 0.14244059115812707
0.19641439812607853 0.3380342929066634 0.13810429364607263
0.2010497321409711 0.33695252820863486 0.13291430860922265
0.19875262873597233 0.34359928056611777 0.13635620862409997
0.19597552912659733 0.3394209949673629 0.13205454141066003
0.19190208809800235 0.3406322805584884 0.13730881005690027
0.188609467915965 0.34399559184922934 0.14168987065718103
0.18805884020752994 0.342272361964128 0.13538286477491784
0.20351349013276188 0.343069812506578 0.13618645459577966
0.19780038493104068 0.34446056768312217 0.14231279879972863
0.19520549672074405 0.34303333446397544 0.13578191787168908
0.2014125456137189 0.3421791999043441 0.1335245409624331
0.19820730584092228 0.34708996698274375 0.13692275077269006
0.19440697329468815 0.345122179240129 0.1317123809473269
0.13726215260453312 0.3477062790097213 0.18161794930860925
0.13328845994896976 0.35736419841661216 0.1871761420385592
0.13159449594445316 0.35317268058671714 0.1809560993330233
0.15161918299622623 0.35369410201921225 0.18363556653425622
0.14304183619446842 0.36175050422563315 0.18997934848234582
0.13976787226624576 0.3570409624279952 0.18311056882307458
0.1478377451223859 0.3532819955052352 0.17555138856337
0.1419972647947797 0.36642309114351035 0.18154171496794153
0.137886332444621 0.3584971635045028 0.17505714684889245
0.13114284174866764 0.3596710173787093 0.1811956504003756
0.12688617604203312 0.36306758806123496 0.18781659394667077
0.12389065521187871 0.36169602558030844 0.17968932181761194
0.14788465397782413 0.36488243028535605 0.17977187425062585
0.13811253207154361 0.3673675267399764 0.1877857783453219
0.13446976440377323 0.36531331226243735 0.17921308070585656
0.14245753186173526 0.3635544984044051 0.17393038064405847
0.13713811533875553 0.37224127933397055 0.1801892855779879
0.13337739007897464 0.36670263692750693 0.1729062536375277
0.13181726830430118 0.3500452248753524 0.1776907780782931
0.12858556406922428 0.35448487684144736 0.1848836877958529
0.12717063920922367 0.35521074220552207 0.178436491789078
0.13693069117493717 0.3619877307118392 0.17876741677687097
0.12966539161629764 0.36595728084459067 0.18435344487593103
0.13152404325432865 0.36275061056031943 0.17895266801283288
0.13530926602311222 0.3606093733014083 0.1740618088857882
0.13227434652276127 0.3688376753033614 0.17952940255567956
0.13030486004777042 0.36442389175309897 0.17391679078504968
0.16936700241990177 0.33594354078187705 0.17138824254438806
0.1636957396788129 0.3449931351841903 0.17586401492521692
0.16140674250550358 0.3418390958012557 0.1706956961767428
0.1807875503820905 0.3425432650746322 0.17180964738295007
0.1764513720793256 0.3459076492489791 0.17723676949903894
0.17196040051407901 0.3435171453656173 0.17167374879286218
0.18060629265732853 0.3414710371197677 0.16454825192854333
0.177778648309184 0.3484924642743087 0.17046502620146203
0.1717594136518964 0.3441470472516036 0.164431844057297
0.1686296333593854 0.3429227082432723 0.17474899083540368
0.16234384673066227 0.3476439325512862 0.1797879675047152
0.15998505251832096 0.3455895988644576 0.17206815272734094
0.18534134524293033 0.34677251264467 0.17173514157698083
0.17737738984055607 0.34780981227769614 0.17928412944242883
0.17250602143235294 0.34673895522966147 0.17135456592008996
0.18177710669465152 0.3450371234120345 0.16802713662550378
0.17624686854310123 0.3510563580693221 0.1730438211576693
0.1717407573980817 0.3482792584599471 0.16642913609907556
0.12540964978165714 0.30819453880204917 0.13440165311262536
0.12424715059228032 0.31012906715287925 0.13718936234877038
0.12626190679497806 0.310093840807817 0.13462689906523156
0.12804366844124881 0.3107363192738509 0.13626465588972497
0.12566493647523014 0.3132915703953719 0.1390440800802462
0.12648107307381717 0.3114750592411971 0.13676527530119348
0.1293017138762006 0.3122995702923751 0.13432875663206506
0.12453575628228276 0.31814720317735434 0.13686266929075647
0.12627528803773014 0.3143289892376876 0.13417262226507592
0.12823589342064945 0.31605746433152915 0.13645878821775842
0.12575529711670963 0.31195410177125693 0.13473013430998254
0.12447162168450444 0.31246580764665366 0.13763514548704553
0.12597824829049198 0.3124594299496627 0.135697815717911
0.1297609080595502 0.3152265755833602 0.1349608042852633
0.12794120805687992 0.3153794018925643 0.1386916974203341
0.12689461009926883 0.3139365522564864 0.13713565856382776
0.12579988139100162 0.315797707289598 0.13616595059797693
0.12415678995080083 0.3184851615132308 0.13917014390394616
0.12478228109307378 0.3173480241002059 0.13600537568495202
0.12205578582711309 0.30972625896348716 0.13359132796690393
0.12189059155411809 0.30995996877565146 0.13380536824629236
0.1282665004057416 0.31094821378602744 0.13276592284605432
0.12159080999322026 0.3117853610218978 0.13357094317839074
0.12131758230156987 0.3119387237729049 0.13392404109404016
0.1273214389605054 0.31203134939088584 0.13391167313024926
0.12499563591904729 0.31213106796159507 0.1326635220663302
0.1245155503077039 0.31258984491243125 0.13362837225363183
0.12738524573273746 0.313298186510942 0.13461289197370935
0.12220318811364263 0.31136961862458945 0.1356372573988192
0.12150438325829595 0.31161185190095664 0.13627109319136071
0.1255242993158826 0.3121711818875289 0.13576218873426843
0.12411968605942815 0.313925525397203 0.13514325410292077
0.12316681640572637 0.31415255948915244 0.13629088193342614
0.12616570489831058 0.3128031103314376 0.137152049841141
0.12442769306130498 0.31430848523988486 0.13571080953047204
0.12369923489518254 0.3151159493626571 0.137212548555588
0.12552149789757816 0.31604560300721884 0.13688192159101892
0.12746982472367374 0.33070947811021567 0.14899096280500818
0.1236927975935468 0.3333125917614913 0.15266403943464685
0.12347258823342412 0.3322909681500411 0.14961925536558557
0.13271899717278568 0.33339627668275595 0.14967301875517297
0.12818996804185 0.3346185891331649 0.1542159655706637
0.12630497115082828 0.3336625306309676 0.15091166287825036
0.13294206755585758 0.33802934572114707 0.1475190261022799
0.129580246381236 0.34120007440461875 0.15143850833342004
0.1259810795111188 0.3399390189351058 0.14706412345335412
0.13092218535370914 0.33514984533204795 0.15189788133070398
0.12830852168030826 0.3362098543347335 0.1555914023535006
0.12761397855706302 0.3351315467061019 0.15298083812162805
0.13783852951951114 0.33762248441591025 0.15135488301680017
0.1338934172911176 0.33703728601350547 0.15696522981092859
0.1306142379564771 0.33609928771867514 0.15329400092527795
0.13328735726304142 0.3379652707280135 0.15092412024900842
0.13190193670220463 0.34030630275621176 0.1547493079321139
0.12876551049180118 0.3395819871129012 0.14977559834883142
0.12491582529969304 0.3336280195416427 0.14966217070982385
0.12398256557412236 0.3340481726826644 0.15102133542463708
0.1274112929625043 0.3338612525166488 0.1513383129255526
0.12804968851037113 0.33539249584092856 0.14893505364820886
0.1271259953302869 0.3354739753903365 0.15062955409452844
0.12805400984711734 0.33400376722230674 0.1517362931387179
0.12814431088395206 0.33459373399629355 0.14972415954039026
0.12753953235573856 0.3355832903088546 0.15224525720045495
0.12788041131920902 0.33563568279161216 0.15056649238035608
0.1786776651663312 0.35261823818101645 0.1355394461767428
0.1762987841887006 0.358932575434587 0.13867614060804773
0.17600076096482364 0.3559140770138717 0.13389131814405847
0.18945168154664127 0.3553078381718612 0.13751659184858728
0.18550913231797306 0.35890581294908286 0.14193109065458703
0.183260666303111 0.3564299552144027 0.13686851054594446
0.19024877446122257 0.3517934887112594 0.13096958786413598
0.1847223510069379 0.3600709049405074 0.13479969293043542
0.18226747410721866 0.3550787179173446 0.12992400318548608
0.17586563723511783 0.35598190709962607 0.13617024213240075
0.17282419102616398 0.3599861471356368 0.14093831569120813
0.1718991865438947 0.3584654538334823 0.13386550933287072
0.18885396616883365 0.35803200885667563 0.1355566123144381
0.18285988467164127 0.3599934785069442 0.1419730523245089
0.1799664367956647 0.35876389428987265 0.13467577487394738
0.18672566311783878 0.3568232862652755 0.13109845310614038
0.1821966637892255 0.36321850702180625 0.13493129998609948
0.1802074183744916 0.3596696464718795 0.1291731038706057
0.1696151961607465 0.3270073740185714 0.15146193295881677
0.16376392739243595 0.33870389148607016 0.1567806342260592
0.1612790693563947 0.3341302482785201 0.15180853396818567
0.1845164765638837 0.3368027417363143 0.15093776971266198
0.1793420781416425 0.34141006156816245 0.15758923083708215
0.17497770684189884 0.33730640098466635 0.15162191182539392
0.1829794515890607 0.33532645389451743 0.1428621748106234
0.17920778887696354 0.3446748463810897 0.14980379134581018
0.1728216876310834 0.33780290767564536 0.1436696985380404
0.16635595457978336 0.3355440108479476 0.1561882236616366
0.159451114110423 0.3403621523083663 0.1613202431814425
0.15718518393464176 0.3377788273991561 0.15363040954039026
0.18539951937623111 0.34023298904313803 0.15243676692411828
0.1761512626928815 0.34058000728502036 0.16050777226850915
0.17085318463273136 0.3395781724156356 0.15207693368360925
0.18145536082215397 0.33813043519868613 0.1485602596418612
0.17430637972779361 0.34466870710267783 0.15389517337248254
0.1697209944052228 0.3414562551678634 0.14680382996962
0.17219864027924625 0.31588014051332236 0.12962937742636133
0.17145191328950016 0.3216398565472579 0.1329563298837893
0.1699649562162885 0.32104512140168906 0.129186961950516
0.1724581589025983 0.32905771419420005 0.13124797135755945
0.18076472180314151 0.3187665550412154 0.13055265337393213
0.17724828617997257 0.32279630586519004 0.1340975800173037
0.17586533921189396 0.3208606450261092 0.13075673967764306
0.17902176278061954 0.319736859053514 0.12487444669172693
0.17594932215638248 0.32832308694734336 0.12853899985716272
0.17496095793671695 0.3226164786519027 0.1248754897730105
0.1726732720655927 0.3231837360562301 0.13008773714468408
0.1707702745718488 0.3255626170338607 0.13366130381987024
0.1701376308722028 0.32497396156205893 0.1287216582910769
0.18065558569855777 0.32607789918794394 0.12927586227819848
0.1763455142302045 0.3273911683262801 0.1337723472730868
0.17582737105317203 0.3257212845982528 0.12939179331228662
0.17969744103379337 0.32533844396486045 0.1276908555643313
0.17724220650620548 0.32921805068864585 0.13052183777258325
0.1750572194380292 0.3276152221859908 0.12615776449606347
0.13521616356797306 0.33514209672822715 0.19577768832609582
0.12806047695107547 0.3429547159375167 0.20111474782392907
0.1259169449133405 0.3400725333394027 0.19525865107939172
0.15304224389023868 0.33843382284059287 0.19718435794279504
0.1427323688787946 0.34193011209382773 0.2044774034635775
0.13819937603898136 0.3392018286885238 0.19788644105360437
0.14740632670350162 0.34404524251832724 0.18888226539060998
0.1406465043348798 0.35213049337281943 0.19564190894529748
0.13426085012383548 0.347969075888536 0.18845728427336145
0.13035975592560856 0.34502055332078696 0.19366678983137536
0.12262429492898076 0.34748156949891806 0.1998196581022494
0.11994086401887029 0.34628244325532676 0.19251856595442224
0.1500860919279584 0.34880020305528403 0.19039079934523034
0.1395398844999799 0.3477958051861739 0.19902649909422326
0.13382058041520206 0.3469963280858016 0.19109049827024865
0.14434860842652408 0.34808298036470176 0.18624017030165124
0.1371784080786237 0.3528966514767623 0.19213191062376428
0.1314342786592969 0.35098840877427817 0.18472412616178918
0.13024352686829654 0.33757432386293174 0.1904553511755221
0.1263128985685834 0.33959283515825034 0.19624361783430505
0.12333543794579595 0.3400545923413253 0.1901591160909884
0.13912026780076114 0.34410669490709067 0.18938413649961877
0.13246838944382755 0.34552749082460166 0.19509104281828332
0.12914239066071598 0.3442136256398177 0.18946823865339685
0.13759027617402164 0.34395798131837607 0.185633335413193
0.13292588489480106 0.3492357341946578 0.19079110413954187
0.12998210089631168 0.34650774881257773 0.18529829770491052
0.1652840842527875 0.3571017591656661 0.1734342911855929
0.15675144093461124 0.36109413787736655 0.1782918909208529
0.15474496977753727 0.3594279496373153 0.17352214843199182
0.17668174403138248 0.3621173708142257 0.1732088068144076
0.17054359810776798 0.36135836526765586 0.18010458737776208
0.16417466299958317 0.3607322184742904 0.17465266972944665
0.17863498824067203 0.3611899821461654 0.16795257121488977
0.17528866427369205 0.36264522954835654 0.17408350497648645
0.1672769655508527 0.3624142019452071 0.16737524062559533
0.15869389670319645 0.3656919805706954 0.17688766509458947
0.15128366845078556 0.3680184094609237 0.18163231402800012
0.14794217246003238 0.3667734472455001 0.17564526587889123
0.17378990548081485 0.3687916605175948 0.17388931304380822
0.16541598933167545 0.36756601020707846 0.18131736308500696
0.15859608548112003 0.36730392858400107 0.17475977927610803
0.17360870736069767 0.3629275171460128 0.17267588168547082
0.16712354319520084 0.3650602905453658 0.17748430758879113
0.15989010231919376 0.3656696884335494 0.17006436377928186
0.15774671929307071 0.28445365116014243 0.14732906609938073
0.15490953820176212 0.2874318568409896 0.15024921685621667
0.15332906144089786 0.28639658376588584 0.1465894916670077
0.16562675135560123 0.2848140804470992 0.14734217912123132
0.16250686543412296 0.28652103826417685 0.1509619691984408
0.15854405062623111 0.2856967060269332 0.14725801736280847
0.1620281805319318 0.2860357968510604 0.14669719726011682
0.16193644898362247 0.28860088273896933 0.14928731709883142
0.15884326594300358 0.2871150581540084 0.14537856370375085
0.15981672900147526 0.2881984321774459 0.1491868236677401
0.15598653452820865 0.28937544509782553 0.15246376782820154
0.1551580895704755 0.28776933833970786 0.14915261060163904
0.16374848978943912 0.29026069328202964 0.14925739556715417
0.16046904223389713 0.2900864093007064 0.15301862746641565
0.15674583809800235 0.2889496891201949 0.14954689532682824
0.16125594275422184 0.28905107662095786 0.15020850688383508
0.1598127354902753 0.29056318685426474 0.15196380406782556
0.15836911099381534 0.29002573177232505 0.1477893331663363
0.15771894352860538 0.2874049751461959 0.1461103895323031
0.1575050224585065 0.2874798385800338 0.14640364438459802
0.1603097190184125 0.2860985605420089 0.14667484551832605
0.15933285849518863 0.2880864946545577 0.14621010810301233
0.1591176261229047 0.2881531326474166 0.14647147447035241
0.1605977286619672 0.2865960209073043 0.14708617717192102
0.15416561263032047 0.28922691032304526 0.14814046412870813
0.15391622679658024 0.28946622297181845 0.14850834399626184
0.1564637889189252 0.2889328210057235 0.14753923207685876
0.1594360937399396 0.2883026210965133 0.1512218454496615
0.15681009190507023 0.2889405696095443 0.15366766244337488
0.15756909745164005 0.2871049253643966 0.15135786324903894
0.16130946772523014 0.29089232370271445 0.1516924241201632
0.15883992808289615 0.29071601316346884 0.1545175054685824
0.1573008765501508 0.2888131348790145 0.1524646022932284
0.15901838438935367 0.29043920919313193 0.15315744668409753
0.1584559549612531 0.29104002401246787 0.15400699168608117
0.1583255996031293 0.29083003684892417 0.15134135276243615
0.19600735800690738 0.3418568579853988 0.14512792617247033
0.19339530365891544 0.3495547382534957 0.14818129331037927
0.1944695581717023 0.3491020409764266 0.1452728250639193
0.1949806083960065 0.3543513028325057 0.1469704249517672
0.20075123207993595 0.3488160578907943 0.14616331845686364
0.19710867302842228 0.3541709391774154 0.1490710714475863
0.19822244542069523 0.35128786250962973 0.1464414933340304
0.19997720616288273 0.3478884308041549 0.13936570674345422
0.1973522772116193 0.35768075868501426 0.1429755428449862
0.19574098484940616 0.3518604843319869 0.1393022874014132
0.19607542651124088 0.3505460231007552 0.1456870177404635
0.19360135691590397 0.3559205143155074 0.15086833030149865
0.1928688754362592 0.35539295360460044 0.14449355393812585
0.20480780499405948 0.3568099944294906 0.14596006661817956
0.19904659884400455 0.35995026513948203 0.15190747767851281
0.1981740464491376 0.35762526676072837 0.1455697754041903
0.20255439179368107 0.3586610762776351 0.1414976456777804
0.19913821118302433 0.3667537777127242 0.1460411289350741
0.19633834259934513 0.3621550409497237 0.14085880309507776
0.1340362896246442 0.309338590353868 0.12584054857656884
0.1316856910509595 0.31087943002595664 0.12826046735212732
0.1318872143549451 0.3098535744847274 0.1259591022150271
0.14186005490250675 0.30959149286165 0.12504628688261438
0.13882856266923038 0.30992951080217124 0.12914854675695825
0.1355354954523572 0.30913170263185263 0.12657320887014795
0.1401409973425397 0.3099921552838302 0.12446824103758264
0.13916598456330387 0.3119430749119735 0.1275396981851809
0.13470398085541813 0.31177510902299643 0.12242231160566736
0.13756112950272648 0.3132184354962325 0.1267072895185702
0.13606719868607609 0.3134764043988204 0.1287640371935122
0.1343734432978162 0.3120125739277816 0.12771645575926233
0.1437888612074384 0.3141464202107406 0.12594950586721826
0.1414731015486249 0.313517650813005 0.12954014927313257
0.1368228067678937 0.3123222796620345 0.12787065297529626
0.141779052190257 0.3108417598904586 0.1277082601206057
0.14077018397278873 0.31216593667878867 0.12969062119886804
0.138352321557475 0.3124918548764205 0.12530404716894555
0.1323130001348981 0.3106063215435958 0.12502763062879968
0.13275765078492252 0.3104638664425826 0.1246441641466372
0.13650523322053043 0.3102788536251998 0.1254388728754275
0.13297973769135563 0.3110678999127364 0.12480578214094568
0.1333719064516553 0.3109499423207259 0.12441435843870569
0.13660495179123966 0.31047376081361533 0.12568277508184839
0.13597242730088321 0.31071158334626914 0.12556183725759912
0.13579867976136295 0.310670217722795 0.125176552833771
0.13714049952454654 0.3108082620800948 0.1255085805074923
0.13497971194214908 0.3120615093411422 0.12778541833326745
0.13416080372758 0.31199499055757285 0.1284937599317782
0.13509603040642826 0.3101716248692489 0.12904432803556848
0.13671271698899357 0.31367995426072837 0.12727192431852746
0.13612924712128727 0.3134059517086959 0.12817728907034326
0.1350530852598676 0.3111112920941329 0.12964791447088647
0.13822458880372135 0.3124582378567672 0.12980974108145166
0.13821511166520206 0.31247135087861777 0.12984076529905725
0.137969659738017 0.31302919074907065 0.1287129560129397
0.13555412190384952 0.29137434646501303 0.15910420209333825
0.13618116276688663 0.2956075875462508 0.16721657306120324
0.1318111886305341 0.29468669578447104 0.15881356984541345
0.14198164837784855 0.2973387448491073 0.1648634412901156
0.13914035456605045 0.306337258070848 0.16986719161436487
0.13574509518570987 0.2999135462941146 0.16207030803129602
0.13891659872956363 0.3005161492527938 0.1585484483854525
0.1377081145567426 0.3188739030064559 0.16118839770719934
0.13452328937478153 0.3075734584034896 0.15559277326033044
0.13654242651887027 0.29379459306611777 0.1632373073713534
0.13453878658242313 0.2919632403553939 0.1711849311010592
0.14294217722840397 0.3029263226689315 0.16517749816343713
0.13660852806992618 0.30517717286958457 0.17193147927687097
0.13415001528687565 0.3031060306729293 0.16404483109877038
0.13878463404603092 0.3044650165738082 0.16078052312300134
0.13520093458123295 0.31376018211259604 0.16697201520368982
0.13331301706261722 0.3086391298474288 0.16057822495863366
0.13362558381981937 0.28326394245042563 0.15647319346830774
0.13366754548974125 0.28246321365251303 0.1661771276609652
0.13350181477494327 0.2884891240300155 0.16033795863554406
0.13183669941849796 0.2949190346898055 0.1619751790182345
0.13022081749863712 0.29849245235337973 0.16672948390409875
0.12936769621796695 0.297758897990129 0.16134968787596154
0.1290655304712781 0.2962175218762374 0.15990767270491052
0.12711228626198856 0.30645795747651816 0.1627601721899264
0.12953837411828129 0.30270137473954917 0.159144077600693
0.1346309055609235 0.2867916433514571 0.16286012917921472
0.133722411565257 0.28364922687425376 0.17212841302320886
0.1322779228014478 0.28947927638902426 0.16443702966139245
0.1369722952169904 0.2973561494053817 0.1662716010229342
0.13194443481392948 0.3008166758717513 0.17226526528761316
0.13165308731026737 0.2988364307583785 0.1654594877378695
0.1332435776514539 0.29853351995363 0.16271594554350305
0.13132111924119083 0.30782254621400595 0.16772160321638513
0.13132079141564457 0.3036713807286239 0.16268089801237512
0.1414005030912885 0.3573503105343795 0.20436099559233117
0.13925270932145206 0.3619225828350997 0.20960012465879846
0.13688545124955265 0.3618407456578231 0.2038423755781405
0.14747439520783512 0.36479141399278403 0.2069437840597384
0.14302037852234928 0.36885311290635825 0.2122404912130587
0.14084010022111026 0.36656185075654746 0.2064390519277804
0.14513026373810856 0.3644627539814925 0.2013462522642367
0.1429050435347089 0.37231053993119956 0.2057003119604342
0.14081548350281803 0.3680096475781417 0.20016971618101526
0.13497694032616703 0.36597087070359946 0.20344415694639612
0.1314810385031232 0.3690339533986068 0.20991763860151696
0.129452334813548 0.36953224822892905 0.20320865899488855
0.14292811053223697 0.372959515303514 0.20438459903166223
0.1367179621977338 0.3755091635884261 0.2106421926634066
0.13585929768509952 0.3733983843029952 0.20456943303511071
0.1403607000631818 0.3719507066906905 0.1999133566038363
0.13805858986802189 0.3780428378285384 0.2051366904394381
0.13551335232682316 0.3751633970440841 0.1993310788290255
0.14304970400757877 0.31749298259629966 0.16097358256742883
0.14062993424363224 0.32318457052125693 0.16590616494581628
0.13650588887162296 0.321560224741838 0.15932587176725793
0.15847729342408268 0.31964882299318076 0.16100499421522546
0.1522450913710126 0.3233709542454696 0.1675785520689242
0.14728532927460758 0.32130207702531577 0.16045180350706506
0.1552706827444562 0.31910630151643515 0.154751930536484
0.14961563246674625 0.32878544017686606 0.16006204873487878
0.1455486883444318 0.32346667930497885 0.15395543366835046
0.14065711396164982 0.32482977792634726 0.16053441554472375
0.13492666380829899 0.3265628425778365 0.1655493715421908
0.1332261134905347 0.3257481066884017 0.15814027577803064
0.15618591206498234 0.32932021304979087 0.1569126585142367
0.1484999527258405 0.32901819631471396 0.16450927049086023
0.14409659998841373 0.32779218837632895 0.15713534146711755
0.15190260308213321 0.3274997083844161 0.15442750245497155
0.146253990106059 0.33241709157838584 0.1594526508466952
0.14262412684388248 0.3303156106175399 0.15290043145582605
0.1630006303114423 0.3503714410962081 0.15670153886244226
0.15649120705552189 0.3621798364819503 0.1616292932646029
0.15499185221619693 0.3566009013356185 0.15603164225981164
0.18128954070038883 0.36104889795198203 0.15675238162443567
0.17308430569596378 0.36524017736329795 0.1635555365698092
0.16821132796235172 0.36215670987977744 0.15707180291578698
0.17986719506211368 0.35833563491716147 0.1475354769842379
0.1721122731489667 0.36807998105897666 0.15454575807020593
0.16589670079178898 0.3624743430317855 0.14765355378553796
0.15351723330445377 0.3632055132092452 0.15565023213789392
0.1476839651388654 0.3683502285183883 0.16119298726484704
0.1447731723112592 0.3648193685711837 0.1528950074331515
0.17953841584153263 0.3641433326901412 0.15190044433042932
0.16783486502595035 0.365841230601213 0.16105994969770837
0.1608641614241132 0.365020176619432 0.1509474256651156
0.17080496447510807 0.36193623229875327 0.14716223269865442
0.16322063105530826 0.37046738550081015 0.1529768446104281
0.15899859564728824 0.3651656715573287 0.14513919145033288
0.12309460537858098 0.34256293460740805 0.1652659514562838
0.12001802223153203 0.3457551209629989 0.16919288426802087
0.12045608656830877 0.344642123431108 0.16568753510878015
0.1293930281919965 0.34428819105043174 0.1668259838239901
0.1248851587099561 0.3465277163685775 0.17139456063673425
0.1241227258963117 0.34504314348115683 0.16785988599226404
0.12778128879494755 0.34816070482148886 0.16410056144163537
0.12485207813210576 0.3528058139981246 0.16804364711210656
0.12266244190163701 0.350148817747972 0.16388461381361413
0.1275377442163953 0.34679689094438315 0.16768029719755578
0.1256543864531049 0.3479169814290023 0.17146698028013635
0.12595693962998478 0.34758361265077353 0.168768260778641
0.1347105969709882 0.3496315686406112 0.1672816017286532
0.1306422819418439 0.3494956700505233 0.17320058137342859
0.1286475230974683 0.34834094926728965 0.16953930646345544
0.12873651283211796 0.3504581062497115 0.16709670812055993
0.12873964207596866 0.3529432027043319 0.17094931394026208
0.12610517638154117 0.3519193141163802 0.16641262561247278
0.12289394634194463 0.344788870066545 0.16404441386625696
0.12258248227067083 0.3452066986264205 0.16509607821867395
0.12648637788720218 0.34638341352357627 0.1657724121229403
0.12510518925614444 0.3478455154599166 0.1635322907583468
0.12433977621026128 0.34809555694474936 0.16529783994123864
0.12621762054390995 0.3472916094960189 0.1667845585958712
0.12653906839318363 0.3467391936482406 0.1642148235456698
0.12551452415413944 0.3480211703480697 0.1670021155493014
0.12649949090905277 0.3483659832180953 0.16562834769651819
0.1231860985083112 0.34593131229295493 0.16561970502302575
0.12282704012818425 0.3461752741040206 0.16682175189421106
0.1256771256250867 0.3473853676022506 0.16748074084684778
0.1261717249674329 0.34972783014192343 0.16468754798338342
0.12518020170159427 0.3494789807499862 0.16732237130567956
0.12595053213067142 0.3484970538319564 0.1686216929571383
0.1270605792326459 0.34798350021257163 0.16565218955442834
0.12590082185692875 0.3492754308880782 0.16877833396360803
0.12651233571000187 0.3497414200009322 0.16690358907148767
