ply
format ascii 1.0
element vertex 287
property float x
property float y
property float z
element face 0
property list uchar int vertex_indices
end_header
0.16808765129996153 -0.3777324463975917 0.20103715999137395
0.16644393401099059 -0.3686664905202876 0.21031182153235906
0.16051213936758849 -0.37334426304226026 0.19986950500022405
0.1873552103514752 -0.37650724312191114 0.20425455911170476
0.17990462975455138 -0.36456324716930494 0.21231066329490178
0.17464571194601866 -0.3739007916105281 0.20264642579566472
0.18063538269949767 -0.3730607535493861 0.19388215882789128
0.17668782668066832 -0.3530996050489436 0.19942556960593694
0.16874228911352965 -0.3654917385232936 0.19220089061271184
0.16695087151480528 -0.3749197628152858 0.2095502529860639
0.16492669777823302 -0.3772940244329463 0.21925734622489446
0.18248157696677061 -0.3671559002054225 0.21019630773078435
0.17311703162146422 -0.3651432003629695 0.2190758500815534
0.1675110359664044 -0.3674091901433955 0.20844369275580876
0.17508940892172667 -0.36566575428371534 0.20323013408195012
0.16850571827841612 -0.3514574970853816 0.21088438375007146
0.16481404499960753 -0.360654851402093 0.2022531543494367
0.16531728701544615 -0.3881982173574458 0.20128147943030827
0.16437529520941588 -0.3870865013254176 0.2122074280501508
0.15899257855368468 -0.38279848357563123 0.20305781705390447
0.16772567229224059 -0.3746697809350978 0.20543312175284856
0.16195206837607237 -0.36875649353389844 0.2112766419173383
0.16014211373282286 -0.3725260402811061 0.20399176223289006
0.1656979222769818 -0.37470622917537794 0.20065861089240544
0.16135918097449156 -0.36041020413761243 0.20512246234427922
0.16135894255591246 -0.3683482315195094 0.19917922360908025
0.16404913859320494 -0.3871790673387538 0.20583640677939885
0.16249101357413145 -0.3882280494821559 0.21701698644172185
0.15712725119543883 -0.3840555455339442 0.2062865410567426
0.1698533792967877 -0.3747392203462611 0.2090454612494611
0.16287152962637755 -0.3701342548978816 0.21592854602347844
0.1602919598097882 -0.3734706248891841 0.20743923528205388
0.16716407732916685 -0.37545849939708814 0.20378356320868962
0.16238253312064024 -0.3615007009161006 0.2092288051367902
0.1609245439047894 -0.3694074656618129 0.20234434945594304
0.21457951264334532 -0.23867625554924116 0.19606452329169743
0.2129906912322125 -0.23432025870208845 0.20003198726188176
0.21592347817374083 -0.23391356130962476 0.19867085559379094
0.2183453341002545 -0.23189063927059278 0.19798176629554265
0.2167259951109967 -0.230183055604745 0.20186250550757878
0.2163125176901898 -0.2304708268297206 0.19888728005897038
0.21905445055914732 -0.23167974313621625 0.19275676352988713
0.21419506268454405 -0.22825745304947004 0.19779800517570012
0.2134886880393109 -0.2293857093704234 0.19347213847648137
0.21364252762747618 -0.23196742495422468 0.19353132588874333
0.21044110255194518 -0.22813010772590742 0.1979051147223615
0.21443073944998595 -0.22723652979259595 0.19524215800773137
0.21814083056403014 -0.2276202942979823 0.19463204486381047
0.21605973439169737 -0.2264519538534175 0.1986539874793195
0.21535723404837462 -0.22660339435463056 0.19481056077491277
0.21643887953711363 -0.22747976144676313 0.19184296472083562
0.212373306321629 -0.22488165458564863 0.19587581498633855
0.21124892430258604 -0.22549413701419935 0.1911694322348737
0.2125676174635968 -0.23207089861755476 0.19565712554465764
0.2109484572882733 -0.23052761515503034 0.1978750739813947
0.216238429116734 -0.22646105846290693 0.19609670979987615
0.21418552594138 -0.22793867250805006 0.19606958968650334
0.21309070782614561 -0.2273413147581111 0.19776158673774236
0.21573399500799986 -0.22570410927658185 0.19652753217231267
0.21278112130118224 -0.22952220400695905 0.19511889560233586
0.21082477765036436 -0.22854996284370527 0.19745271546851628
0.21002595620108458 -0.2279615457904826 0.19447534425269597
0.22264801459265562 -0.35409741660480604 0.19977360112678044
0.2234814663405499 -0.32736979981784925 0.20855563027869695
0.22029041247320982 -0.33631916900997266 0.20292704446326726
0.2302701969618878 -0.32831781169300184 0.20564304931174748
0.22982822852087828 -0.3054430093420039 0.21062933547507756
0.2238973279471478 -0.3187380041730891 0.20447444064628117
0.22585367159796568 -0.3265544082773219 0.19364993913184636
0.22347586350394102 -0.29966928621654615 0.19796001060019963
0.2185521622176251 -0.31371321340923414 0.19357227427970403
0.21893494324637267 -0.33903478642826185 0.1965303931952619
0.21985565619421812 -0.31579952498798475 0.20734583480369084
0.21591036515189024 -0.3237436618459712 0.19806044442664617
0.23197465138388487 -0.3113643731725703 0.204079619479289
0.22704761223746153 -0.2932674791467677 0.2116215143920087
0.22099005179358336 -0.3037432636869441 0.20161389453422063
0.2278706927771649 -0.3040634896409999 0.1939625058890485
0.22543053822470518 -0.2792757209194194 0.2000197683097028
0.2192698021407208 -0.2940587606084834 0.19357859237205022
0.17641471819830748 -0.31494792362575635 0.20634459598075383
0.17288618283224913 -0.2906190361631404 0.2132726226569318
0.16996388630820128 -0.303370973075677 0.2075971279860639
0.19850717978430601 -0.29973279496555433 0.2067348275900983
0.18509535984946104 -0.2782557364357005 0.21496014935981267
0.18316112952185484 -0.2929269280088435 0.20729511125098699
0.19080506758643004 -0.29870458504085645 0.19634418828498357
0.18144648270560118 -0.2762777264965068 0.20364617450248235
0.17617433266592833 -0.2906919326437007 0.19689022643577092
0.16822056965781065 -0.2877600993764888 0.2038010273696088
0.16250651078177306 -0.2773448731554042 0.21337085111152165
0.19638400273276183 -0.2777297105443965 0.2020755921126508
0.18017910914374205 -0.2685535307777415 0.21071576221000188
0.17634629206610533 -0.275869330371667 0.20007418735038274
0.18620227770758482 -0.2811595108163844 0.19367205245505803
0.17887364821387144 -0.26382367869739637 0.20187585694800847
0.17200302081061217 -0.27656533380870923 0.1921544585944318
0.166250636147984 -0.29959013124828443 0.20121150357734197
0.16365527110052916 -0.2881414796960841 0.21176683051597112
0.15942757325125548 -0.29205848833446607 0.20151429517280095
0.18164055542898985 -0.27844240328197584 0.20213537557136052
0.16997491316748473 -0.26869106849556074 0.20916896207343572
0.16911362605048033 -0.27596901914005384 0.2003722105742597
0.17744373278570982 -0.28288584014301404 0.19268946988593572
0.17028533415747496 -0.26392210086708173 0.2010849629164838
0.16624402003241393 -0.27631870468978986 0.1926957879782819
0.17129456000281187 -0.3488102163923274 0.2091312323332929
0.17201374964667174 -0.3337595369470607 0.21813361985694402
0.1678968568320355 -0.33755805155162916 0.21002244098197453
0.17815958456946226 -0.33185516854648694 0.2140435491324567
0.17410831646872374 -0.316045990194131 0.21931140763770574
0.17209022240591856 -0.32632665892963514 0.21251945836554997
0.1730526586051068 -0.3308891262662898 0.20451401813041203
0.17294167475653502 -0.3100933041227351 0.2088727865935468
0.16884659724188658 -0.3230493273389827 0.20338951690207951
0.17121004061652037 -0.3365220334184657 0.20396172149192326
0.16997598605109068 -0.3310967590463649 0.21699719769965642
0.16611843304587218 -0.3281732406270991 0.2065411124945783
0.17625485854101988 -0.31603329440479383 0.20873098714362615
0.16900538401556822 -0.30957188269024 0.21535383803855412
0.16868751244498106 -0.3139400686872493 0.20783697707664006
0.17241387562704893 -0.31676348110561475 0.2012329612494611
0.17016111807776305 -0.30058040281658277 0.20845418317328923
0.1671848197455487 -0.31019978782062635 0.2010847244979047
0.17301951842261168 -0.3484727944982539 0.20044188840400212
0.17302303509665343 -0.3437404837263118 0.21205525739203923
0.1729545493598065 -0.3371761943948756 0.2063357148886823
0.17255293326330992 -0.3274770285738002 0.20582090957175725
0.16798775391531798 -0.3199883606088649 0.21211885554801457
0.17004733281088683 -0.3214934076917659 0.20676164968024724
0.1682662268157086 -0.3283373024118434 0.20147263152610295
0.16755085186911436 -0.313303252662469 0.20695035798560613
0.16751449303580138 -0.318868061507989 0.2020564590216779
0.1607981224532208 -0.27653359433536634 0.20970051629554265
0.1608540912146649 -0.25184773465519056 0.21797715766440862
0.16161768631888243 -0.26202831229095563 0.21396713597785466
0.1722427506918988 -0.24815336426620588 0.21516971929084294
0.16627793507529112 -0.22893335482006177 0.2227762256384992
0.1676406164641461 -0.24192978998546705 0.21631776435386174
0.16744624571753355 -0.24881250223045454 0.2033921991110944
0.16222237544012877 -0.2270845379484187 0.21148358924399846
0.1614145536894879 -0.24081297775631055 0.20518266303550237
0.161062647866734 -0.2532574888122569 0.20861779792319768
0.1572748322959027 -0.24082609077816114 0.2178001318694257
0.17262922720862242 -0.22674996217613325 0.21172212703238957
0.16371714072180601 -0.21825911661510572 0.21872978551398747
0.16507427887869688 -0.2243510242355357 0.21067630393516057
0.17071234183264586 -0.23160097559814558 0.20296483380805486
0.16282122330618712 -0.2179896142137538 0.21108686072837346
0.1604491372580609 -0.2262826319587718 0.2029191766501569
0.1618161101813397 -0.25756249388580427 0.2070138965369367
0.15811788039160582 -0.24733107348804578 0.2172953997374677
0.1658107538695416 -0.22965159078960523 0.20986490590583318
0.15930985407782408 -0.22446112891559705 0.21667032582770818
0.16124515728903624 -0.2258226778162013 0.21039681775580876
0.1666456361289105 -0.23329857548599348 0.20497714622031682
0.15902661280585143 -0.22404268940811262 0.21267627818595403
0.1581842799658856 -0.227491667474557 0.20620327336799138
0.22522549824667784 -0.27274866958980665 0.20422284944068425
0.2259539266104779 -0.26741557380085096 0.20630090577613347
0.22920530037833067 -0.26408674379711256 0.20377140386115544
0.22809587912512633 -0.2678599711311351 0.20792638404380315
0.22759394841147276 -0.26284328659896955 0.2090997610808515
0.22926204400015684 -0.2639611866128932 0.20749532325278752
0.2312380571837506 -0.25893384775047407 0.21043931586753362
0.2279055614943585 -0.2689730580699931 0.20136438949119084
0.2259308596129498 -0.25959779878978834 0.20378707988273137
0.22558664278937193 -0.26386437376861677 0.2009769593001508
0.2232450743193707 -0.27035716732864484 0.19913291080008977
0.22288321452093932 -0.2666714396131526 0.20205514771949284
0.22671215729666563 -0.26210579832916364 0.19883095366965764
0.2252452273840985 -0.2648953106058131 0.20233600480567449
0.22449259953451964 -0.2614270504367839 0.20435076100837224
0.22736637787772032 -0.26115921696548566 0.20185410125266545
0.22692119078589293 -0.26526871880416975 0.1981485400916242
0.2253736157889447 -0.2594543006074916 0.20107399566184514
0.22372840838385435 -0.26109774967556104 0.198516658377757
0.22282444434119078 -0.27594627996807203 0.20054929597388738
0.2224480410094342 -0.27493013998394117 0.20193695170890325
0.22768287854147765 -0.2661822046888362 0.20113866670142644
0.22370534138632628 -0.2711582239521037 0.2023880396605634
0.22349970536185118 -0.27038331886654005 0.20309292418967717
0.22790115075064513 -0.26472154816513166 0.20319329841147893
0.22493534283591124 -0.2668972220075618 0.2020642076254987
0.22432034211111876 -0.26559956928615674 0.20351933581840032
0.2224683661933026 -0.26526043375854597 0.2032144580603742
0.2051358123297772 -0.3697607125890742 0.20241748435508244
0.2050840158934674 -0.3520668949735652 0.21170037133704656
0.19897543387366148 -0.35840906759624586 0.20277135713111394
0.21853147940588805 -0.36042886039142713 0.20615398032676213
0.21306621031714293 -0.3436587955606471 0.2124382768393659
0.20826600985480162 -0.35511725207691297 0.20482980353843205
0.21020906166983458 -0.3539528753412257 0.2081645642043256
0.21309952931357237 -0.35494559069995985 0.19532840592872136
0.20959274964285704 -0.33416550418262586 0.19960068805228703
0.20324950413657042 -0.3472984339845668 0.1945500884772443
0.20014916853857848 -0.36299790998821363 0.20648234231482976
0.19717447953177306 -0.35869490167026624 0.21462236983787053
0.19294493393851134 -0.3586385752809535 0.2050929580451154
0.21315913395834776 -0.3513875212324153 0.2060581360579633
0.20363311963034483 -0.3478681053770076 0.21382903201591008
0.20178102450323912 -0.3511400129449855 0.20530956132422917
0.2074883480544171 -0.3482197727811824 0.2002576504470014
0.20091675715399596 -0.3364036287916194 0.2069903527022504
0.19762842850638243 -0.3436131980073939 0.1996966515303754
0.2020622988219342 -0.3736600186479579 0.204237512183299
0.20013730721426817 -0.36762883325939283 0.2142925773383283
0.19924782710028502 -0.3642233516824733 0.2062202010871076
0.2029838462348065 -0.35506906172161207 0.2069249664069318
0.19855873780203673 -0.34909906050090894 0.21193384273063176
0.19960962729407164 -0.35278972050075635 0.20613997323523992
0.20219462113333556 -0.3548299278867732 0.20271324260245793
0.19841872649145934 -0.3404272701395045 0.20699529988776677
0.19828473525000426 -0.34778167864208326 0.20190929515372746
0.19176023201895567 -0.3197569753778468 0.20371889216910832
0.1876761217589459 -0.30052058955555067 0.2111240540267133
0.18607740597678038 -0.3109342958581935 0.20481549842368596
0.21167879300070616 -0.3083442058218013 0.2052775536299848
0.19987993435812804 -0.2935172226083766 0.21262203795920842
0.19907944397879454 -0.3041016664159785 0.2055272374869489
0.20591770605994078 -0.31136893292789564 0.19485204560767644
0.1973506708617291 -0.2908069398057948 0.20210569245826238
0.19261436657858702 -0.3039435650957118 0.19518744094382756
0.18504344420386168 -0.3019047286165248 0.200289598536601
0.180818130540379 -0.29404508134250745 0.20898967130195134
0.17489497857046934 -0.2984688188684474 0.1978167210341596
0.2080895205016217 -0.2948103155744563 0.19906728608619206
0.1959546108717999 -0.2883500661504756 0.20713584764014714
0.19125478463126036 -0.29255529304866895 0.19723933084022038
0.20151357846213194 -0.2999965753210078 0.19101434094916814
0.19269375996542784 -0.28352644106273756 0.19864606006156438
0.1880280275816998 -0.2938502337587367 0.19015263659965032
0.19770633177710387 -0.27308360298996076 0.20768105132590764
0.1935517688269696 -0.2541114743602763 0.21378701074134343
0.19520973162604185 -0.26300432344799146 0.2089962874175214
0.2161037226195416 -0.2607454713237773 0.21095966441642278
0.20456706480933043 -0.24689128061657056 0.2177725349188947
0.2061228056426129 -0.2563856150758754 0.21116083009253972
0.20950435595465514 -0.26173355242138013 0.20076536281119817
0.20019452767325255 -0.2453028168333064 0.20766942842017644
0.19939981894446226 -0.2563099171770106 0.20121394736777776
0.1951669950957379 -0.2567485775602351 0.20487236125480168
0.18911187844229552 -0.2450584228885661 0.21194832665931218
0.1880992551322064 -0.25002012213592634 0.2036775265456342
0.21631466345740172 -0.24717765113239393 0.20529245479117864
0.20262258248282286 -0.23863462170486555 0.212313524317851
0.2015410562033734 -0.24366279503231153 0.20382254464637273
0.2074682612891278 -0.2508788015497218 0.1976108465911054
0.19805424408865782 -0.23993111213569746 0.20519667012702458
0.19418912129355284 -0.24619627555732831 0.19682299239646428
0.19426052765799376 -0.2639964874637614 0.20343499524604314
0.19045340018225523 -0.25461666842823133 0.21030478818427556
0.18978487448645445 -0.2548787947547923 0.2040408168555402
0.20334695773077818 -0.2484531458271037 0.20496880157004826
0.19496755795431944 -0.24225816687469587 0.211017719340434
0.19610421853018614 -0.24548897704010114 0.20366900308143132
0.2016394038672528 -0.251633992399026 0.19890778405677312
0.19356857733679625 -0.24367203375225172 0.2056372080565595
0.19183563189459654 -0.24722670575504407 0.1989509378195905
0.1977687378401837 -0.34327163359050855 0.20120917899619573
0.1972901125426373 -0.3319846596372615 0.20796977622519963
0.19333260254813048 -0.3353858496797572 0.20059393985282414
0.2097635765547833 -0.3359960224283229 0.2040110741377973
0.20376103119803282 -0.3262087907445918 0.20939993007194035
0.2015858788962445 -0.33282642623310194 0.2029749069930219
0.20294271902991148 -0.33160354753856763 0.2057955775977277
0.20665775732947203 -0.33496453424816236 0.19461660726081365
0.20231734709692809 -0.31776892205600843 0.19932722194205754
0.19824724392844054 -0.32916839977626905 0.19367229087363713
0.19492488102866026 -0.33434112926845655 0.20072232825767033
0.19191270070029112 -0.33035733362560377 0.2076840315581464
0.1899114151473126 -0.33053441902523145 0.19938229663383
0.20488559203101012 -0.32562904616718397 0.2006373916388654
0.1978932519431195 -0.3227714206827174 0.20792715890418523
0.19658755259466978 -0.32561241647129163 0.2002692733527326
0.20222847657156798 -0.3264947738302241 0.19581400496970647
0.196740617322453 -0.3169181551588069 0.2014437232733869
0.19440030054999205 -0.3226365949762355 0.19498257977973454
0.19586293892813536 -0.342517336810876 0.19812302930366033
0.19465993838263365 -0.33926652928714857 0.20570676667701238
0.19468097882223936 -0.3354065026891719 0.1994522724867963
0.1949058671469769 -0.3287006225240718 0.2010849629164838
0.19161521391821715 -0.3250980581892024 0.2057762060881757
0.19302271799994322 -0.3272643293989192 0.20101224524985783
0.19619696335745665 -0.3308028783452998 0.19817065341483586
0.19209360079718443 -0.32075082322483167 0.20179407937537663
0.19301288323355528 -0.3251019026887904 0.19753264529716008
