ply
format ascii 1.0
element vertex 151
property float x
property float y
property float z
element face 0
property list uchar int vertex_indices
end_header
-0.20672493679570345 -0.29924490114574537 0.20910113198768132
-0.2084613691096225 -0.27293055316333875 0.21546416623603337
-0.20774961514519838 -0.2840850855958949 0.21068417174827092
-0.19269935293244508 -0.27163379451160535 0.20916037900458806
-0.19950434072064546 -0.25401017626648054 0.21635245425712102
-0.20424265666054872 -0.2645949926031123 0.20951842410575383
-0.1952259491209903 -0.27253115733986005 0.19763379437934392
-0.20370414359616426 -0.2506758179319392 0.20529150111686223
-0.2092635731224933 -0.2637475337636958 0.19863443715583318
-0.20910997195290712 -0.2698706891191493 0.2042929445029401
-0.21382674081372408 -0.252355268205453 0.2129384194136762
-0.2122313032870212 -0.25789847036724195 0.2044418965102338
-0.19299800200509218 -0.24680209716682538 0.20446627480994695
-0.20268064243840364 -0.23705016633396253 0.2127807055236005
-0.2074584166531482 -0.24096263011818037 0.20326398952018254
-0.19625988109158662 -0.24294630249862775 0.19724213225852483
-0.2049247424130359 -0.22655952533607587 0.2060642157317304
-0.2080663542275348 -0.23697136899356946 0.1974357281447553
-0.21135141952084688 -0.2785506900203715 0.20442210776816838
-0.21494414908932832 -0.2631800379407893 0.21315770490180486
-0.2105465034966388 -0.2643000688207637 0.20566605670463078
-0.20431410772847322 -0.2500758822811137 0.20565795047294133
-0.2106978694920459 -0.24127856453781232 0.21286802632819646
-0.2132211427216449 -0.24351427515869245 0.2050987993003034
-0.2049775372271457 -0.24546017309551343 0.2003523026229047
-0.21160770459221986 -0.23173031767730817 0.2086388383628034
-0.21428574128197816 -0.239420657957841 0.20112912995826238
-0.19701256854581026 -0.3718440141332637 0.19958459479819768
-0.19825030369805482 -0.3630679454458247 0.20420317990790837
-0.20045849187420992 -0.3668375815999995 0.19912397010337346
-0.18493099017190126 -0.37202986141567335 0.20064770324241155
-0.187423879933826 -0.36384215017681226 0.20548634870063298
-0.19198932750271944 -0.3685935940397273 0.2003644619704389
-0.18865710003422884 -0.3675564434183131 0.1973342214347028
-0.1895022640948215 -0.35448004862194166 0.20239441735755437
-0.19346837205933717 -0.3642695154798518 0.19765310628425115
-0.19803027315186647 -0.3750926460874568 0.20874410016547673
-0.20503112180279878 -0.3696975316656123 0.21526180846702092
-0.20802527172612337 -0.371103009189416 0.2062703285933637
-0.183538461757175 -0.3713861312520991 0.20698051793586247
-0.19090102119492677 -0.36918758412723646 0.2132024083853864
-0.19411390526341585 -0.3706388082159053 0.2046521816970014
-0.18534971280144838 -0.3625634219301234 0.20595162255774968
-0.18963273866223482 -0.35448931714420423 0.21215139968406194
-0.19442191226529268 -0.38359381815319166 0.20101850373755925
-0.1956280122523227 -0.37946285864238843 0.2059561525107526
-0.20010983450459627 -0.3779348339689265 0.20046280963431828
-0.1921156297449985 -0.3777357842576991 0.20329587800513738
-0.19402257604645876 -0.3747493829381953 0.20683186395179265
-0.1942540357832828 -0.37667580505733594 0.20124333245765202
-0.19217819972085146 -0.3691615965021144 0.20380061013709538
-0.1946500192408481 -0.3617581035745631 0.20840596301566594
-0.1973832498316684 -0.37487109562282667 0.20104902131568425
-0.20024816198395876 -0.3677027728212367 0.2066350494147443
-0.20396528644608644 -0.3699729051244746 0.19991206271659367
-0.18466087682294038 -0.37323479911213026 0.20100163562308782
-0.18671339256810335 -0.3686939086568843 0.2062131677390241
-0.19324118895577577 -0.37065072914486036 0.199737361502757
-0.18877379102753786 -0.36877464314823255 0.19839333636771672
-0.1900578389887729 -0.3575818147314082 0.20392369372855657
-0.22853436572598604 -0.34098621269588575 0.20153980596076482
-0.22775452835606722 -0.3187564220083247 0.20948468787681096
-0.22947312398003725 -0.3239371683252345 0.20528023583899968
-0.22175167007493166 -0.31993561049823865 0.20711009843360417
-0.22134525580453066 -0.2997985388887416 0.21075677020560735
-0.2251099596743503 -0.311752697433282 0.20708059413444035
-0.2211794803862491 -0.3231597151411067 0.19931345326911443
-0.22105612857388643 -0.30182226559047803 0.20256816489707463
-0.22628227872895387 -0.3143638875139247 0.1998912010909223
-0.22492762906598238 -0.3409648146284114 0.2079594646216535
-0.23008137447880891 -0.3250990118635188 0.219343713355174
-0.23104570312546877 -0.32647626658802137 0.20943223578940862
-0.21769186360882906 -0.3153781499517451 0.21209614617835515
-0.2239648352389255 -0.3051630165231715 0.2182758365393781
-0.22432343168305544 -0.3111208285940181 0.20978229386817449
-0.21842351062344698 -0.3078885879171382 0.20538812024604314
-0.22254737718152193 -0.28680490514164075 0.21155630691062444
-0.22764032585667757 -0.2994388546598445 0.2050931964636945
-0.19900348289059785 -0.3094849195135127 0.1992885385275983
-0.20139021678017763 -0.2953860368383418 0.20381950480948918
-0.20212889714287904 -0.3015834893835078 0.1995547328711652
-0.18704214198636201 -0.3100312854898463 0.2018728767157697
-0.18815248711156038 -0.3007240202081691 0.20703875167380803
-0.19293696684884218 -0.305947979892541 0.20210777862082951
-0.18814356131600526 -0.3087549712312709 0.19225918395530217
-0.1914326052193561 -0.29513981005077466 0.19784080131064885
-0.1962686578755298 -0.3036741819036494 0.19320326192389958
-0.1981113503699222 -0.3080549146783839 0.204687050414195
-0.20465985937165407 -0.3007210697782527 0.2109094773055219
-0.20864781243847993 -0.30161153336887464 0.20263295514594548
-0.18166911108540681 -0.30006065031414136 0.2016626511336469
-0.19025229914235262 -0.2976065780771266 0.20814429862510198
-0.19308374328660158 -0.29957162400608167 0.20031910283576482
-0.18493245048569826 -0.2975656594884883 0.19771128041755193
-0.18955029053734926 -0.29165961405162916 0.2032025967360639
-0.19491418702649263 -0.29455490967159376 0.19652657849799626
-0.2083436797385135 -0.35373838802700147 0.19797282559882634
-0.20835308237122682 -0.3357572164190303 0.20654671533118718
-0.2114843080763736 -0.3406293894899379 0.20205926043998235
-0.1969645123009601 -0.34475322624569044 0.2022400413275861
-0.19695956511544374 -0.32814534565334424 0.20724027497779363
-0.20234105987595705 -0.33840968271617994 0.20282357079993718
-0.19724310441064027 -0.34753202458744153 0.19332300765525334
-0.19648406906174806 -0.3288965727937709 0.19782911880027287
-0.20359350247429994 -0.3407887127054225 0.19460730893622868
-0.20031170053528932 -0.3587247933996211 0.20584385735999577
-0.20733165247487215 -0.35000654121761426 0.2154894982100629
-0.21243851883458284 -0.34867643376712903 0.2054700766326093
-0.1909019003634372 -0.3429137375009547 0.2067513380767011
-0.19960534079121736 -0.33655800482158765 0.21269421918403142
-0.20193495852994112 -0.3400511648309718 0.2042217765570783
-0.1916667769675174 -0.3344705905569087 0.20258705956946843
-0.1974871705298343 -0.3219946827543269 0.2090057645560407
-0.20056230826424745 -0.3294563200128566 0.20161282165061467
-0.20048123104619173 -0.36765544673328504 0.20051150662909978
-0.2044330785994449 -0.3600125517499934 0.2116135869742536
-0.20625029010819582 -0.3562647606981288 0.20365869147788518
-0.1986567924742618 -0.349367341007043 0.2053053889990949
-0.2035720448021808 -0.34164907595043287 0.21070205314170354
-0.2047050843958774 -0.34415354391460523 0.20365219457160466
-0.1974596033816257 -0.3407182302129756 0.20272266013633244
-0.20206900937604097 -0.32613702675228223 0.20819228036414617
-0.20259832842396883 -0.3339636828554164 0.20226877076636784
-0.22271203501271394 -0.29316424390201673 0.20100664241324895
-0.22203705711411623 -0.28772111793880567 0.20245843274604314
-0.21987100942181734 -0.2854712810171138 0.19983553035270207
-0.2177510659222522 -0.2751105036390315 0.20161788804542058
-0.22061721487092165 -0.2853598501337062 0.20557390792380803
-0.22168848915146974 -0.27913220783596143 0.2067431126357221
-0.22063804669427065 -0.2814838494909297 0.2043971334220075
-0.22115247948216585 -0.2858483399999629 0.19781517131339543
-0.22137101991223482 -0.27553110381488904 0.19978003842841618
-0.22377329571293977 -0.28146650453930006 0.19694977147590154
-0.2199752579455295 -0.29067262073879346 0.19723599298011296
-0.2210169385199466 -0.28677054306392774 0.20123164994727605
-0.218287835550777 -0.2822845782888423 0.19730280978690617
-0.2190786401753345 -0.2820719685209285 0.20104484899054997
-0.22103888793038515 -0.278658499921609 0.20462053163062566
-0.21862102551507143 -0.27902608176593885 0.20076148850928777
-0.21870001657056 -0.2789651062143336 0.19831143958579533
-0.21971481545018343 -0.2720478977811824 0.20166664464484685
-0.222474510503284 -0.275701215471078 0.19848167045127385
-0.22151769204186586 -0.2906516995084773 0.19351487500678533
-0.2217406581168094 -0.2902975585115443 0.19522767407905095
-0.21861926717805055 -0.28262399693851575 0.1956216011763715
-0.22168005509423402 -0.28348337670688734 0.19642852885734075
-0.22202021880196718 -0.28253900071506605 0.1975786004782819
-0.21963200969742921 -0.27926607986812696 0.19802313191901677
-0.22492277128743318 -0.27858406862144575 0.19851719481955998
-0.22591658933209566 -0.2756467368257533 0.2007897411109113
-0.22695610923813966 -0.2758999075544368 0.19949691636573308
