ply
format ascii 1.0
element vertex 136
property float x
property float y
property float z
element face 0
property list uchar int vertex_indices
end_header
-0.16841454310464052 -0.1650319006097804 -0.20783611493099696
-0.1778401832108417 -0.13373266717319593 -0.19275011973370082
-0.1506194273953357 -0.12963285108928785 -0.21470954375256068
-0.1636572430853763 -0.10733344217662917 -0.2057141001700259
-0.16224164767312196 -0.1117688324106227 -0.20959622519005305
-0.14823214216279176 -0.1328482236516963 -0.21295832948673732
-0.1610983858828464 -0.11174633165721999 -0.20389691846359737
-0.1600310008053699 -0.1167083289278041 -0.20857542114246852
-0.1689709524636188 -0.17078775724296674 -0.212915488648305
-0.17471563322590974 -0.14612123927002058 -0.19744370238770015
-0.15396658582734254 -0.13050251265888319 -0.21817655222404964
-0.16349645955609468 -0.11123852988605605 -0.21042391018856532
-0.16389961047219423 -0.11707567235355483 -0.21670416848648555
-0.1556180517201343 -0.1292854156148921 -0.21743849771011836
-0.16541525228070406 -0.10719682833080398 -0.2093575234888888
-0.16586122913407472 -0.11244310995464431 -0.21518186585892207
-0.1692691097979465 -0.17123145421867475 -0.21300404624928004
-0.17503122491883424 -0.14617775937442884 -0.19760260837067134
-0.154456670117847 -0.13128175398235425 -0.21810000495899684
-0.163959781361095 -0.11166476270084487 -0.21036299424160487
-0.1642322043900409 -0.11756502648716079 -0.21653857188213832
-0.156143824291698 -0.13002841731433973 -0.21741821722973353
-0.16593560082959322 -0.10778426190738784 -0.2093882943867541
-0.16621106369542268 -0.11310436388378249 -0.21512351291168696
-0.06306604547547487 -0.22042944094066724 -0.21414280788887508
-0.07279954357194093 -0.2002828474891673 -0.1961730058668948
-0.07459161682175783 -0.20252651533012495 -0.19999099628914363
-0.03923589987801699 -0.20672146042709455 -0.2222526456593371
-0.04700935883568911 -0.19684497078781232 -0.21594397084702022
-0.05066890521096377 -0.19960699042205915 -0.2204073454617358
-0.040074298811427635 -0.2041416223896037 -0.22248385207642085
-0.04911432666825442 -0.19319183191185102 -0.21659012989986903
-0.0517572860245624 -0.19528511723404035 -0.21988936619747645
-0.06119895978020815 -0.23064126631145582 -0.21004798369396693
-0.06616319222497133 -0.2078647669208537 -0.19302260236729152
-0.0682919721131244 -0.21512036582355604 -0.19759259479034907
-0.04373798770951418 -0.21229546328907117 -0.20827960329044826
-0.054654041958324 -0.19411261936550245 -0.20132520155895717
-0.058219204378596824 -0.19974698683147535 -0.20647908108223445
-0.04899103446053652 -0.20462753435497388 -0.21548438923347957
-0.05971936388062624 -0.18729900380497083 -0.20906990127552516
-0.06223491830872683 -0.19032425245170698 -0.21278364317406184
-0.058881531191340965 -0.2336201723468791 -0.20675449924458034
-0.06420789165543703 -0.21095055898552045 -0.1898468668936587
-0.04082087678956179 -0.21301881035690412 -0.20376805322159297
-0.05041850609826235 -0.19560741444950208 -0.19667861716736323
-0.057079951000682395 -0.20324314197425947 -0.20335444169033534
-0.04697815580414919 -0.20153016408805952 -0.21085571603764064
-0.05802608532952456 -0.18450217505817518 -0.20418379561890132
-0.06090323133515505 -0.18879505058651075 -0.20906499879349238
-0.054578403664104026 -0.22660720905189619 -0.20777491586197383
-0.0603647033696094 -0.203880285824586 -0.19085680799473292
-0.03075836105393557 -0.2107692863595973 -0.20598960773933894
-0.038897673321239036 -0.19545023700122938 -0.19896722691048152
-0.05007235212372927 -0.2043126281154643 -0.20662929968822963
-0.0390336315159717 -0.19823977908020124 -0.2121782387970782
-0.05025453372048525 -0.18402197023754224 -0.20563475148666865
-0.05531544489907412 -0.1888596173179637 -0.2115063603400088
-0.05534024043130068 -0.2264872845066081 -0.20775144653309352
-0.06238041324662356 -0.20407298764114484 -0.1903537894963122
-0.031802217197886985 -0.21091914733772382 -0.2077335949419833
-0.04021514458703188 -0.19694246908550367 -0.2007605220555163
-0.04970447225617556 -0.20458740552787885 -0.20816872375000484
-0.03815136356400637 -0.20064768751983747 -0.2127437527655459
-0.0498138467793384 -0.1866569872749339 -0.20603265719402797
-0.05475808186577944 -0.190692311133195 -0.21154420928944118
-0.05386636657761721 -0.13635333439235792 -0.20650916652668483
-0.05896876258896975 -0.10351659914379226 -0.1973256404875613
-0.06598613662766603 -0.1159863080633174 -0.20314145939339168
-0.02909357352303652 -0.11078177949314223 -0.20882368938911922
-0.04143525166558413 -0.08748107215290175 -0.19787474827755458
-0.04873321456956057 -0.10097073575382338 -0.20680453734386928
-0.03413207335518984 -0.10976891776447402 -0.2199411179303027
-0.04612721009301333 -0.0857724454057704 -0.209191420245061
-0.053574065399638694 -0.09980698486690627 -0.2176820571898318
-0.05230633420991091 -0.12496342321758376 -0.20287900524128444
-0.05870405836152224 -0.0975486244810115 -0.1907766993521548
-0.03067196412133364 -0.08848776480083571 -0.20406643407333858
-0.04202861590432314 -0.07247965594654189 -0.19440312044609553
-0.049424330425731224 -0.08174564501171218 -0.20482394950378902
-0.0353506903176227 -0.09130235573177443 -0.21419366555202968
-0.046635846329204124 -0.06805681249027358 -0.20366000490177638
-0.05571166677521853 -0.08065660854702102 -0.21290392534721858
-0.05255759758996157 -0.127007504905511 -0.20302648203361995
-0.05897859735535769 -0.09935094972972976 -0.19098543481815822
-0.031587700081340354 -0.0897782649648677 -0.20409286873329646
-0.042675147486201805 -0.07372294923191176 -0.19455462055195338
-0.049904445839396995 -0.08307572265987502 -0.20488249616611964
-0.03611288471268801 -0.09275983830814467 -0.21420095221985347
-0.047247956228725 -0.06955518385295974 -0.20376547532070644
-0.056160698366633933 -0.08218359013919936 -0.2129605497597552
-0.1489790032629886 -0.21266663631324872 -0.2112002457856036
-0.15062568588303712 -0.1964620854509364 -0.1997294809101916
-0.1554458539013782 -0.20873737892036542 -0.20445571200836665
-0.13298570616292146 -0.20983499845390424 -0.20648176329124934
-0.13732851548241762 -0.1926636453521739 -0.20105228679169185
-0.14171888930844453 -0.2076582070243846 -0.20848628239620692
-0.13954442246007112 -0.2069785352600108 -0.214126506018529
-0.14167884988831667 -0.18915370663528547 -0.2117575343130923
-0.14637658996628908 -0.2016546781909953 -0.21643016593445308
-0.14999193949746278 -0.21958268245582685 -0.20672509925354488
-0.1499357025151172 -0.2116385604990016 -0.19514646487225062
-0.15395931406067995 -0.21629784067993268 -0.20056087629784114
-0.1406314919714847 -0.21379884144191846 -0.19859459357250697
-0.14538354678200868 -0.19932610353355512 -0.1930292184828616
-0.1510702024226108 -0.2090513016832362 -0.20144949214447505
-0.14672980709122804 -0.21171278318290815 -0.2062496181010104
-0.14660472674416689 -0.19019377788429365 -0.2035267289160586
-0.15211903555440096 -0.20370933970337018 -0.20901786642063624
-0.149856279325954 -0.22014657219772443 -0.2092986788033343
-0.14944545431183962 -0.2114150132787715 -0.19791863219727046
-0.15345189971970705 -0.21593989988689527 -0.2026623572586871
-0.14172631008671907 -0.21418861111526594 -0.20084149496544368
-0.14602283639954713 -0.19760123452072248 -0.19510761754501826
-0.15126011772202638 -0.20860943755035505 -0.20312363760460383
-0.14739074809598116 -0.21264064868812665 -0.20825103776443965
-0.146868939233295 -0.19142874142055616 -0.20560113446701533
-0.15283546848343996 -0.20403345486049757 -0.21054499702442653
-0.1498250017886081 -0.22023296913032636 -0.20858673112381465
-0.14940882725762514 -0.21173294445400342 -0.19711963193405635
-0.15353352828072694 -0.21628077885036573 -0.2020742829321719
-0.14150012536095766 -0.21420270761375532 -0.20015715913761623
-0.14599035186814455 -0.19821942409401044 -0.19453505532730586
-0.15127859516190675 -0.2088358010900508 -0.20267043368805415
-0.14727499587582735 -0.2125339861763011 -0.20763529198158748
-0.14677650733040956 -0.19120421072368726 -0.20497847454536922
-0.1526549558167377 -0.2040665354383479 -0.2101183022736407
-0.1499480853800693 -0.20770875176315412 -0.21597295360554225
-0.15106519563244966 -0.18975349327449903 -0.20612160222519404
-0.15555586917447237 -0.2057903166664134 -0.20791924850929744
-0.13488178951787141 -0.20854420026664838 -0.21626972513187892
-0.13962871832894472 -0.19134422203426465 -0.21271289246071345
-0.14087582631158022 -0.2065402027023326 -0.21697356657970912
-0.13689752919720796 -0.20543422361736402 -0.21951424436558253
-0.1401775727991977 -0.1917059924257289 -0.2171114470242358
-0.14208189649628786 -0.20102225800876722 -0.2209115709542132
