ply
format ascii 1.0
element vertex 270
property float x
property float y
property float z
element face 0
property list uchar int vertex_indices
end_header
-0.17471567792939333 0.3623137567388524 0.20683460576545232
-0.18021483225869325 0.36949885824794665 0.21223025662909978
-0.18340001506852296 0.36670161226863757 0.20541732652198308
-0.15687927110242036 0.3650996182310094 0.20776378257285588
-0.16514357430981783 0.36875964144344225 0.21540462119590276
-0.1707089792017856 0.36648590305919543 0.20755075557242864
-0.15985555453347353 0.3638047669279088 0.20003168923865788
-0.1672777037148395 0.37323308924312487 0.2067823324919843
-0.17317226035641817 0.368686208521079 0.19939880712043279
-0.17933205766724733 0.37395591477031603 0.20585530145179265
-0.18491743011521486 0.3758613560544957 0.21207951648246282
-0.18911000592755464 0.3752266261922826 0.20351629598151677
-0.15854227049397615 0.376208910738181 0.20216338975440495
-0.1679173360590854 0.3757795188772191 0.21152400119315617
-0.17423815531777528 0.3750514481412877 0.20241194112311833
-0.16591488821553377 0.37463743427867785 0.19862948997031682
-0.17111889524506715 0.3798133824216832 0.2040892754317426
-0.176032597852222 0.3773160670148839 0.19654934747230046
-0.1806027243857303 0.3661364410268773 0.20114957435142033
-0.18394934637593416 0.36834211090679064 0.20701294286262029
-0.1859907458548465 0.36925441959972277 0.20059924466620915
-0.1736505429272571 0.3734226916181554 0.200986198020091
-0.17909222347783235 0.37511307934398547 0.20676117284308904
-0.18032671017693666 0.37311876753444567 0.20128827435981267
-0.174570674729816 0.37016660908336535 0.19734357936393254
-0.17689108355092195 0.3751680348264684 0.20211862666617864
-0.17974706990765718 0.3728382084714879 0.1966153894187116
-0.02490286035584597 0.37021071652049914 0.19705825192939275
-0.028487483692637962 0.39815343359584704 0.2028879438162946
-0.032677421999446433 0.38732058743114367 0.20005994184028142
-0.006788770390025655 0.37634904125804797 0.1996790085555219
-0.010537664127818624 0.396396169458579 0.20620577676307195
-0.018766949606410545 0.3843857143270482 0.20151429517280095
-0.009018997383586446 0.37417674997920886 0.1890441094161176
-0.013371566963664571 0.39539272526378527 0.19541942222129338
-0.022311250401011985 0.38282192686672106 0.19136481626044743
-0.02456120653199343 0.3747864458906163 0.20625781161796086
-0.033888677788249534 0.3889457080709447 0.2152800474883222
-0.04015658302354006 0.38581288794155016 0.20446091039191716
-0.00036207838105348743 0.39048303106899157 0.20354061467658513
-0.014599482250682394 0.39634949902171984 0.2125329290152692
-0.02043111128853945 0.39364070633525744 0.20225112779151433
-0.007532993984691183 0.3988576028692235 0.1974109922171735
-0.01665572328614382 0.4128455016958226 0.20526718242179387
-0.02289826674508242 0.40457732418651476 0.19677292449485295
-0.05018318696068911 0.30466348866100207 0.189492217135539
-0.05350206298875002 0.3110938761579503 0.1937597904921674
-0.051946411562434715 0.3059158418523778 0.18980371100913518
-0.0393540660862842 0.3046518061506261 0.19158135993491643
-0.042450408173076194 0.3104632590162267 0.19539665324698918
-0.04435611767815737 0.30578542688960925 0.1915254507781171
-0.04251290364312319 0.3056969139921178 0.18742554528724187
-0.044691244793407005 0.31819421986217394 0.19227158172141545
-0.048773358297816795 0.30902142265911 0.1882969055892133
-0.052210072708598655 0.3061115835058202 0.1988349471808576
-0.05904282136010317 0.3092924449789037 0.20405118806373113
-0.06395054860161928 0.3090145681249608 0.19598703725348943
-0.03667588038491396 0.308147558962058 0.19576989753257268
-0.04327092571305422 0.3094810936796178 0.2007933769942426
-0.05131385726975588 0.3101628516065587 0.19306885344993108
-0.041105161142818016 0.31311250666255847 0.19360881192695134
-0.04233948392914919 0.31687344053859606 0.19909255845557683
-0.05432869000481753 0.30007381180400744 0.19251697404395574
-0.05738736195611147 0.30273802021617785 0.196702591014018
-0.057209531498424095 0.3021749947416295 0.19108544929038518
-0.04759640498208193 0.30249024370784655 0.19217841966163152
-0.051292101574412864 0.3048533294546117 0.1956782851935529
-0.05251560611771731 0.30344743469829455 0.19050293309699529
-0.05074636144684939 0.30635918120021716 0.19173627240668767
-0.050937006903163475 0.3119425270902623 0.19578640801917546
-0.053317616415492576 0.30863053539867297 0.19166552169333928
-0.05106116337823061 0.30319673756236926 0.19277494294654363
-0.057172546816340965 0.3084563110219945 0.1979048763037824
-0.059228340816966575 0.3057283852445592 0.19109373433600896
-0.03641996784257082 0.30465311745281115 0.19117324693213933
-0.04149265093850283 0.3075391147481908 0.1961537514449262
-0.048139462900630516 0.3060292098867406 0.18959688289176457
-0.03978560371445803 0.3041318152296056 0.1873634372473859
-0.04183117551850466 0.3133444879400243 0.19300787789832585
-0.04584474368142275 0.30628002623195544 0.18723951919089787
-0.09686497850464967 0.3737978432523717 0.2079286490203046
-0.10208214325951723 0.3902269099103917 0.21480219705115788
-0.10683379573868898 0.3824173305379857 0.20796125276099675
-0.075025717449657 0.3804743383275975 0.20798956496726506
-0.07988474769639162 0.3882665727483739 0.21626614673148625
-0.0873143772606769 0.3829131815778722 0.20831858260642522
-0.07942781848954347 0.3778494689809789 0.19961946351539128
-0.08321935935067323 0.3898159358846654 0.2080430303336286
-0.0934282938961902 0.38233465889568224 0.2000580344916486
-0.10494018597649721 0.38865805605525866 0.211636296343913
-0.11326850457238344 0.3947109077321996 0.21869855268012517
-0.1219401757244983 0.3926566932546605 0.2078322683097028
-0.0727599064831653 0.39376665094966784 0.20579015357505315
-0.08745641512917665 0.39437283018703356 0.2170262847663068
-0.0987834136013904 0.39440602997417346 0.2046199355841779
-0.08217896027611879 0.3947866652357091 0.19925945146094792
-0.09351054830598024 0.40429497698421374 0.20742385728370183
-0.0996260444645801 0.39943833092327014 0.19814019544135564
-0.16614217562722353 0.3024717066633214 0.19787978274833196
-0.16655504210042146 0.3030721638547887 0.19876622302543157
-0.1688117782597461 0.3021175954687108 0.19833969218741887
-0.1644281844620624 0.30224199036235705 0.1995136056662702
-0.16479858262585786 0.303005466257285 0.2005245600463056
-0.16787354154633669 0.30207587221736804 0.19935404403220647
-0.16282811267422823 0.3016121480810155 0.19870894296180242
-0.1631965587859073 0.3027238343107213 0.2008027945281171
-0.16550857825326112 0.3022743556844701 0.19838409764777654
-0.16330438358830598 0.3069852087842931 0.19975065333854192
-0.16516355676697878 0.3073344323980321 0.20140521867286199
-0.16544827325390962 0.305757889543723 0.19955991847526067
-0.16039156420277742 0.3077386710988988 0.1999056850196027
-0.16254582507657198 0.3080423567640294 0.20160096032630437
-0.16411762936162141 0.3062132094251622 0.20006322009574407
-0.16434066994237093 0.3073750827657689 0.20223944528113835
-0.1649198482756534 0.30770565012569323 0.20340775592338078
-0.16483807070302156 0.3074042294370641 0.20108025414954656
-0.16664851708459047 0.3046680782186498 0.1989768658400678
-0.1663890133623996 0.3039242718564977 0.19831495625983708
-0.16223231954621462 0.30230666140193835 0.19841437680732243
-0.16662972672032503 0.3046697471487035 0.19898091895591252
-0.16636982066678194 0.30392671564693347 0.1983193073989057
-0.1622122476820865 0.3023067806112279 0.1984260593176984
-0.16887519760178712 0.30455190876598254 0.19953667266379826
-0.1681280533795276 0.30410523155803576 0.19841461522590154
-0.1667683075194278 0.303691456114005 0.19960337026130193
-0.1654674808506885 0.3057800028669347 0.20180588109504216
-0.16542621953534273 0.3057440612661351 0.2017682705641889
-0.16253214581059602 0.30380762556667223 0.20077507836829656
-0.16422390444325594 0.30618412235851183 0.20178245646964543
-0.16418098909901765 0.3061749432432164 0.20174198491584294
-0.16185374064492372 0.304063508306693 0.20127259833823674
-0.1683315138344684 0.3064411971914281 0.20363037927161687
-0.16821923358487276 0.30637926796550646 0.20340292794715398
-0.16606258852528719 0.3057264778959264 0.20296560866843694
-0.09639049572991518 0.3204276655065526 0.19437729461204045
-0.0978962282662311 0.3395178411352147 0.2030516777754926
-0.10461745662736086 0.33167863825435534 0.19527446372519963
-0.0790404777054706 0.32357187012309924 0.19795482499610417
-0.0823792318825641 0.34047157505626574 0.2049599800826215
-0.0907059411530414 0.32944328526134387 0.1974727426291608
-0.08565373225258974 0.3300958965169896 0.1892126713515424
-0.08838228387879518 0.3502798769819249 0.19407581431876653
-0.09587729973839906 0.3367644641744603 0.18936078889380925
-0.09893981618928102 0.31777055004711047 0.20550440890799992
-0.1046304206375995 0.32999075392360583 0.21363317115317815
-0.10869146390008119 0.32713992336864367 0.20355468137275212
-0.08149022860573915 0.3319294545995702 0.20507513625632756
-0.09203089280175356 0.33792311886424914 0.2125714932204389
-0.0952428678994098 0.33419532517070666 0.2033857022048139
-0.08572299284981874 0.34003705719585314 0.19914632184516423
-0.0927082399849811 0.35507805088634387 0.20616262300025456
-0.09775630636262087 0.34539551476116076 0.19882928473960393
-0.042925874424449485 0.3434596751081456 0.19540052754889958
-0.042411456537715476 0.35366166571254626 0.20011209590445989
-0.04538259906815676 0.3527186606275548 0.19627319915305608
-0.03607178731011538 0.3473705742704381 0.19880639655601018
-0.03662828607606081 0.3571807239400853 0.20232134206305974
-0.0393400291924396 0.35165817478771105 0.19872283084403508
-0.03702805442856936 0.34804374912853137 0.1910120163680219
-0.036936799717418235 0.3638454172956456 0.19556432111274236
-0.04061169428872256 0.35280884245509997 0.19185893876563542
-0.041166077089778465 0.3399353716718663 0.2017266069174909
-0.04615307850884585 0.3461670372831334 0.20846741540442937
-0.0495786766533771 0.3462630007612218 0.2003402028800153
-0.03178654117631106 0.3473814223157872 0.20163630588065617
-0.038522432280055564 0.3515624497282018 0.2069901738883161
-0.03893805546807436 0.34877575377101794 0.1995172415496015
-0.032945613098613304 0.357502171789359 0.1998826776267194
-0.036959300470820945 0.3668325040685643 0.2052632485152387
-0.03936095042275576 0.36107552984828845 0.1989962373496198
-0.03896624846505312 0.33169455269451037 0.19621079308997624
-0.03987185163544802 0.33674646357173815 0.20239858968268865
-0.04346914095925478 0.34009004572505847 0.1970336352111005
-0.03794134659814028 0.34133351782436266 0.19995551450263493
-0.04000709457444338 0.3457398507940282 0.20381467683326238
-0.04027811689423708 0.3444709275114049 0.19852196319114201
-0.03876594705628542 0.351925680433463 0.20021640403281682
-0.04137111706780581 0.3611751292097081 0.20419668300162785
-0.04154012603806643 0.356417605673026 0.19968204839240544
-0.13202036423730043 0.34264094570751086 0.2042646322966718
-0.1321715514187732 0.3678643796789159 0.21402548892508977
-0.139065663052074 0.3592542503225316 0.20578675611030095
-0.11758067710446504 0.3623181674825658 0.20689432961951726
-0.12213986618565706 0.383355865274619 0.21314518792640202
-0.12882664306210664 0.3696949575292577 0.20557337148200505
-0.12255817158269075 0.36479885319347277 0.19514583690177434
-0.1259704629902759 0.3890120480405797 0.20040880782615178
-0.13337864978360323 0.37501747349376574 0.19511746509086125
-0.13854774339245943 0.35438204744930163 0.20124547822486394
-0.13979671402024416 0.37413490751857653 0.2114878211737775
-0.14365630848454622 0.3663966153013219 0.2012784991980695
-0.11970221502827791 0.37645030954952136 0.20521324021827214
-0.12973407907532838 0.3892365191328038 0.21380924327384465
-0.1361090342526355 0.3820005152570714 0.20287226779471867
-0.12531946106003908 0.3819344137060155 0.1953147564650678
-0.13039217395829347 0.4035580251562108 0.2026612673522138
-0.13650005562352327 0.3890695069181432 0.1949052129508161
-0.06508706016587404 0.3773921821462621 0.19092219216834538
-0.06918106479691652 0.39853436688060656 0.19756512982856267
-0.07495666546868471 0.38769359329814806 0.1921678100348615
-0.04228065414475588 0.37837124804134264 0.19386934382926457
-0.043490181398860496 0.39053834417934313 0.2029995833159589
-0.05336568756150393 0.38096154669399157 0.19542746884833806
-0.04734156532334475 0.38222230414028063 0.18302409989844792
-0.0472845236782947 0.3964242432462682 0.19160406930457585
-0.0604036848072925 0.38614589909191027 0.18436568124305242
-0.06786705060052065 0.38826859930629626 0.19952189071189397
-0.07817737264680055 0.39517910221691027 0.20612662179481023
-0.08625103039788393 0.3925366495000829 0.19561981303702825
-0.036388526392451805 0.39594567755336657 0.19387029750358098
-0.05207631988572268 0.3955173585760106 0.2046129022360944
-0.06229720516251711 0.39485312441463366 0.19244234902869695
-0.045161018801204246 0.39349539021129504 0.18873517854224675
-0.05694491667794375 0.40289963225002184 0.19641487939368718
-0.062214533520213645 0.3973866794454564 0.18717365605842107
-0.15600616736458925 0.3219721410619725 0.1960498009444379
-0.1571862946276584 0.32886684874172106 0.20113938195716374
-0.15992572410153535 0.327858457361411 0.1962796960593366
-0.14837116999673036 0.3249687645780553 0.19866018636237615
-0.15298810107754854 0.33213395813579455 0.20294224364768498
-0.1554683695559421 0.32850385645503893 0.1983592425109052
-0.1499957690958896 0.3254618141996373 0.19289886100303166
-0.15361000103997377 0.33800036648387805 0.196871629786601
-0.15445704264687685 0.3293511364805211 0.19282429559241765
-0.15926083428906587 0.3241723869192113 0.19952558619987004
-0.16314941151188997 0.3261259291517247 0.20435946328650945
-0.1633270929579654 0.3255885336744298 0.1987947140456342
-0.15030492348717836 0.3283819053518285 0.19867639882575505
-0.15688399477051881 0.32957972029323473 0.20456694705497258
-0.15852622194337038 0.3277666066038121 0.1990543518782758
-0.15402779979752687 0.3287292216169347 0.1976541791678571
-0.15853909654664186 0.33355469444866076 0.20118658883582585
-0.15858852369832185 0.3307952378141393 0.19635712249289983
-0.15738723678635744 0.3195417020666112 0.1965688977957868
-0.1574825446133533 0.3198872897970189 0.20018308503638738
-0.15652909381436494 0.3222243283140172 0.19757222278129094
-0.15669129295395998 0.324394056593131 0.19789557797919743
-0.15970359249161867 0.32628811339015856 0.20095645530234807
-0.1578908364300647 0.3250438068258275 0.19906829936515325
-0.15898085637139467 0.32757158020610705 0.19783919198523992
-0.16262660427140382 0.3312112186300267 0.20054262025367253
-0.15855586035298494 0.3291016910421361 0.19837140185843938
-0.16032920284318117 0.3252046201574315 0.2013172422171735
-0.1618447999482074 0.3258464429723729 0.2051239524603986
-0.16130005819844392 0.32610411385173693 0.2004629884482526
-0.15405687196301607 0.3298321459638585 0.2007851515532636
-0.15922560794400362 0.33065093496913806 0.2059225354910993
-0.1592886398558536 0.32860607842082873 0.20161747081290715
-0.15714069707440523 0.33046657780284777 0.20047449214469426
-0.16031035287427095 0.3337297532903661 0.2037974510909223
-0.15898768110322145 0.3320497367727269 0.19992612941276067
-0.08578414721535829 0.3554330561506261 0.20040237052451604
-0.085942784977428 0.35991508701915637 0.20252364022742742
-0.0892686943535724 0.35918606260890856 0.20032971246253484
-0.08858869476365236 0.36264736393566027 0.20142202718268865
-0.07982922596978334 0.3561055753576268 0.20269571883689397
-0.07974884910630373 0.35918540695781603 0.20622228724967473
-0.08406193060921816 0.3575384710180272 0.20332484586249822
-0.07948220772790102 0.35500056484813586 0.1953949247122907
-0.07997984690713075 0.36276830175990954 0.20013498408805364
-0.08444468183564333 0.35751760939235583 0.1963203464270734
-0.09162114067124513 0.35624803045864 0.20377873523246282
-0.0963390867237964 0.3605602476942052 0.20752405269156926
-0.09696383280800966 0.35897732714290514 0.20263295514594548
-0.08197314543770937 0.35791886786098376 0.20293819053184026
-0.08618576331185487 0.3590616677152623 0.20766716344367497
-0.08889515204476503 0.3580895755636205 0.20289163930427068
-0.08511630697297243 0.35756940582866564 0.20141618592750066
-0.0869619647984424 0.3615608308660497 0.20433574063788884
-0.08942885203408388 0.359180638586234 0.1996862803221845
