ply
format ascii 1.0
element vertex 354
property float x
property float y
property float z
element face 0
property list uchar int vertex_indices
end_header
0.14183502392721983 0.3792856428968419 -0.19883979217995174
0.1408500571723065 0.3861603234159459 -0.19483157353390224
0.13247101502371642 0.3849859330999364 -0.19964442508209712
0.1533790131087384 0.38163662890071764 -0.1948362673996783
0.155816545056828 0.3844722602712621 -0.1900219853400088
0.14289169506979796 0.38383311966533556 -0.19558597462166316
0.15358882145834776 0.38508273104305163 -0.20136924939144618
0.15679751830054137 0.3890115712034215 -0.19535637752998836
0.14410906033469054 0.3877136204587926 -0.20169296221722133
0.13631760077429625 0.3788857553350438 -0.1947795684813357
0.13136096792174193 0.3849328849660863 -0.18993445591915614
0.12466036276770445 0.384094128404807 -0.19649265067566402
0.14965038495016905 0.3806415293561925 -0.19485702471722133
0.14815746741247984 0.38227237204189196 -0.18943262951363093
0.13556851940108153 0.38295347431774035 -0.1963805641411639
0.14578418927145811 0.3833725545751561 -0.19847983973015315
0.14558195071173521 0.3866897914754857 -0.19341386215675838
0.13696305947256895 0.38568676451320544 -0.2001264329432345
0.0025392373080334266 0.30641461351985827 -0.20482402400959498
0.001373459863193949 0.30754716137523547 -0.20245609538544185
0.0014915962691387733 0.30205811003322497 -0.20212385909546382
0.005575468110569437 0.3054552171575536 -0.2005713667153216
0.0022382934565624794 0.3076316211568822 -0.1966755624293185
-2.954406785158313e-05 0.30578638056392565 -0.2014159794329501
0.006751974391468485 0.302930900846671 -0.20325166838158137
0.004602392482288798 0.31029350498790637 -0.20141124086369044
0.004965027141102274 0.3061760161268224 -0.20674210147846706
0.00952382879210325 0.318839857374381 -0.20195151226509578
0.002822448777683695 0.30660725573177233 -0.20440115885723598
0.00185616807890745 0.30730617979640856 -0.20210946457375056
0.0023832519526562294 0.3016507122861852 -0.20133810596455104
0.00392748908949705 0.30667687395687 -0.20010615246284968
0.0013101299281200966 0.30826217869396105 -0.19637941675175197
-0.0006202857022204796 0.30647594669933215 -0.20061288135040767
0.0012702246184429725 0.30557758549327746 -0.20101603226650722
0.0015037854189953407 0.31066895464534655 -0.19936432795513637
0.0021605093951305946 0.30801976660365954 -0.20488121466625697
0.004925092029102763 0.3189807031499852 -0.19932729856956966
0.005839427279957255 0.30196155050868884 -0.2067208971260882
0.005337138938435038 0.30285597780818835 -0.2058019872187472
0.005679955052860697 0.2948350999700536 -0.2027192647932864
0.00342782335234495 0.30209953526134387 -0.2015232528923846
0.002780785130985697 0.30321801642055407 -0.2004045333145953
0.0028808017249188026 0.2989953849660863 -0.20038426773537166
-0.0004842977051654259 0.30054486731166735 -0.202103578615079
-0.0002726118092456261 0.3039171789037694 -0.20064070181835658
0.001058121490009745 0.30316747168178454 -0.2051621164559222
0.006596674489506205 0.3024811838018407 -0.20719451563347346
0.006152977513798197 0.3031506035673131 -0.20643457131374843
0.006683518456943949 0.2951663825857152 -0.2033473040341235
0.004493405389316996 0.30245662668819323 -0.20235221939075954
0.0039692719454845985 0.30336869696254626 -0.20147345321167476
0.004239608811863383 0.298716554437827 -0.2009681399344302
-0.0003153185372271935 0.3011386487829198 -0.20265374438751704
3.804730900247924e-06 0.303730199133109 -0.2011546428679324
0.0016489525313458046 0.3031830880987157 -0.20520719246853358
0.0030662913794598182 0.3122516963827123 -0.2006477053641177
0.04576679067564817 0.37547523716564074 -0.20278181986797816
0.0385904808516583 0.3879168126928319 -0.19581178681839473
0.03493090467406126 0.3834290001737584 -0.20381582634438045
0.06648855404806944 0.3802225087034215 -0.2020998980282641
0.058872749375828225 0.38570631483669177 -0.19397118048656947
0.05073391394568296 0.38346404770488635 -0.20226956264961726
0.0610046883101544 0.38027466276759997 -0.21069083468903071
0.05602895216894956 0.3896110151159276 -0.2027405585526324
0.04550354676199766 0.38605154493923083 -0.21110779898155696
0.04194121556235166 0.378625640665244 -0.19478375570763118
0.03532709674788328 0.3836107347356786 -0.18728908257473476
0.027475436496265847 0.3835563752996434 -0.1972999806879855
0.06353681282950255 0.38575525025005236 -0.19827421860683925
0.05280612902594419 0.3881539795743932 -0.1894825782059527
0.04376377658797117 0.3877610657560338 -0.19915122644890315
0.05906703071547361 0.3824108336317052 -0.20442859189499385
0.05022983746481748 0.3901327941762914 -0.19675726549614436
0.04206602768851133 0.3880393598424901 -0.2049799795626498
0.11751290159178587 0.3001085613119115 -0.20005879657257564
0.11515294508887144 0.3028373811590184 -0.1973255957840777
0.11568381385756346 0.2992080543386449 -0.20281282918442256
0.12251811222983214 0.2997806165563573 -0.1965922202347613
0.12023346619559142 0.3023496363508214 -0.19409068779934413
0.11915360884619566 0.2989847157346715 -0.19963324921120174
0.12224944429350706 0.30036033133144274 -0.20093206422317988
0.12031557159376952 0.3092224095212926 -0.19809865312565333
0.12057351069403502 0.30071611145610705 -0.2025637413739062
0.11314453678084227 0.29830981234187975 -0.19574254112232692
0.11115681128455016 0.3004166577207555 -0.19351374464024074
0.11298357443762633 0.29762775639171496 -0.19906186418522365
0.11672230558348509 0.2984691355573644 -0.19362681465137965
0.1146458883757672 0.3003621790754308 -0.19143437700260646
0.11355625586462828 0.29867870548839465 -0.19718312578190333
0.11639519529295775 0.29937190750713244 -0.1954408224104739
0.11600958304358336 0.3054891322004308 -0.19300416963089473
0.11559065179777953 0.3000458572256078 -0.19711934881199367
0.11264478163672301 0.29947770575160876 -0.20013847308147914
0.11133532719565245 0.30112708548183337 -0.1986855800627566
0.11570875840140196 0.29779101351375475 -0.20302476840008266
0.11582325892401549 0.29917473534221545 -0.1977133836029864
0.11444671945525023 0.3008115980970372 -0.19624715404499538
0.11625828342390868 0.2988490555631627 -0.20103805618275172
0.11396308736754271 0.2990574334012975 -0.19905357913959987
0.11397015051794859 0.3050269577848424 -0.1969555701493121
0.1135583718295178 0.3005924914228429 -0.20038821654308803
0.11614595847082945 0.2996948454725255 -0.19903440134514339
0.11349680023146483 0.3021014426099767 -0.1963444586275912
0.11298908786726805 0.29974419811839953 -0.20234035806644923
0.12002577381087157 0.2999176476346959 -0.19657243149269588
0.11753638582182738 0.30182988384838 -0.19407541410912044
0.11471109585715147 0.29987246731395617 -0.1999586309670306
0.1217111845488629 0.3003419731008519 -0.20065135614861018
0.11967076854658934 0.3071028683530797 -0.1977557476042605
0.11949311690283629 0.30059040526027575 -0.20226981596935756
0.1143833299155316 0.30248225668544665 -0.20231729106892116
0.11338030295325133 0.30607337692851916 -0.20062022762287623
0.11370261506987425 0.30092586020107165 -0.20433651761997706
0.12259735660506102 0.300690123830985 -0.19723444538105495
0.12040676670027586 0.30571539143199816 -0.19494489686478145
0.11914526419592711 0.30027360657329455 -0.19965527312744624
0.12010400490713927 0.30183924177760973 -0.20492976264942653
0.11921762423468443 0.3138857577192296 -0.20233494894493587
0.11911343531561705 0.3023918364393224 -0.2062883760212756
0.06311075882864806 0.3180596325742711 -0.21931772785175807
0.06323557095480772 0.3317988012182225 -0.20941170411098964
0.06243636207533689 0.3211908433782567 -0.21323723452080257
0.06509553389502379 0.3266544435369481 -0.20467304544437892
0.06549327568960997 0.3452449534284581 -0.19942363457668788
0.0627463658328137 0.33324230650539294 -0.20626456396568782
0.06186961131049009 0.3270071242200841 -0.21377474920738704
0.0635342498297772 0.35033530930156603 -0.21008808271873958
0.05843391017866941 0.3405264709341039 -0.21440272884357936
0.0644478698248944 0.31283158997173205 -0.21550908045757777
0.06256576375914427 0.32178051212901965 -0.20306264715183742
0.06652646260214659 0.31752110460872546 -0.20902048902500636
0.06526874499274107 0.32470215300197497 -0.20073690371502406
0.06452508764220091 0.3381164763319005 -0.19498891489494807
0.0632036526675305 0.33148146608943835 -0.20362540440548427
0.06047831969214292 0.3286098335134496 -0.20619031147945888
0.06410705046606871 0.3541295621740331 -0.20337865607727534
0.058031072186954934 0.34388924578304186 -0.20724959032524592
0.06384300188971373 0.30937851408595934 -0.22045169131744868
0.062451173829563576 0.318687269483756 -0.20969575004566676
0.06707691149664732 0.3133773897039403 -0.21276905493725307
0.06516634421301695 0.31839228609676257 -0.20498206572521693
0.06462775664282652 0.3334822152006139 -0.19877902524460322
0.06554450588179442 0.3261426780569066 -0.2057564939736224
0.05893658595038267 0.31985212305660143 -0.21058338241566188
0.06267460184050413 0.3426447604047765 -0.20675438003529079
0.058363248872288186 0.3345537278997411 -0.2107037390946246
0.0046344001765331825 0.38819713333721056 -0.19854185836304195
-0.0031903187756457726 0.39176918009395495 -0.1915989603279925
-0.008983443212977926 0.3915372584211339 -0.19817846374500758
0.02279611425352903 0.3880575988637914 -0.19646342949856288
0.012040962743290385 0.3886146042692174 -0.1872729744194842
0.002890636491306742 0.3884959314214696 -0.19394160168159968
0.016659935283192116 0.39429176787013903 -0.20150568442333705
0.01153244571638914 0.3974148128377904 -0.19411995367992885
0.001177360581882914 0.39738226870174304 -0.20208302991379268
-0.0020460884098925988 0.38951570728893176 -0.19430037693966395
-0.009401092958919088 0.39308435658092394 -0.18770668761719234
-0.014381537867061178 0.39280850628490344 -0.1942692633150912
0.012564291524418314 0.3917959425794591 -0.19361665205944545
0.0029590626235088905 0.3921667430746068 -0.18441446976650722
-0.005088547897807638 0.39229835013027087 -0.1914124722956515
0.008140911626347025 0.3951376769887914 -0.19738935785282619
0.0026780565257153114 0.39880056122417346 -0.19059146301735408
-0.00558895869301943 0.3983717058050145 -0.19849800424564845
-0.003203372192851583 0.38458854893321887 -0.1977311010836459
-0.007878134680263082 0.38700629213924304 -0.19296411530960567
-0.01309318347024111 0.3875116203176488 -0.1976305331467486
0.005032410192020853 0.38760227898235217 -0.19692490355957515
-0.00034279627846864856 0.38904393652553454 -0.19137799100864894
-0.009560058546535055 0.3893191311704625 -0.1958794082878924
0.002563347386845072 0.38939870337123766 -0.19983961539257533
-0.0011088351731219689 0.39262897709483996 -0.19423208491791255
-0.00792406005906252 0.39191521147365466 -0.2001932944535113
-0.0008272628312030236 0.3844807241308202 -0.20109082119453914
-0.004273573589793722 0.38667715529079333 -0.1973197843312121
-0.008518974018565694 0.3871877882825841 -0.20100800054062373
0.0033899147982678016 0.38810999134654894 -0.1995660300730563
-0.0006788472657123009 0.38963879088039294 -0.19556097047317988
-0.00748182339715151 0.38981456497783556 -0.19907280163753993
0.003916730451115092 0.3895330522405614 -0.20426372544754512
-0.00044132275628236926 0.39315141180629626 -0.19930774824608333
-0.007209281158916036 0.39263696411723986 -0.20416308300484187
0.09537967042876097 0.3523691985952367 -0.20456201689232356
0.09451435999823424 0.3678154442655553 -0.1982791508911944
0.09289391832304808 0.36263723114604846 -0.20460220532406337
0.10465734200430724 0.3600973580228795 -0.19851233916271693
0.1040151019568524 0.374161848818015 -0.19431594865311153
0.10001819329214903 0.36625165680522814 -0.20124528663147456
0.10321061806631895 0.36350429991359606 -0.2071469809292651
0.1035939057345471 0.38305861691112414 -0.2035439397572375
0.09740637736273619 0.37195337751979723 -0.20901256160725123
0.09708871440840575 0.3454384897100438 -0.20043813543308742
0.09433047966910216 0.35956246594066515 -0.19149855630386836
0.09481205539656493 0.35726077297801867 -0.20014239208687312
0.10234092669440123 0.36468167046184435 -0.1923176135300494
0.09963180618239256 0.3770666215764989 -0.18729340391148097
0.09735180931044432 0.3713041041242589 -0.19567666308868892
0.10306247072172972 0.369434008394431 -0.19951767580498225
0.1019931931967816 0.3912313673841466 -0.19577931718815333
0.09734730915976378 0.3794424031126012 -0.2014617558001376
0.01183049874258848 0.3467475865232457 -0.2094503279208041
0.01169394450140806 0.3520836327421178 -0.20019463555801875
0.007063200044163187 0.350666770731162 -0.20707688586700923
0.018900801705845315 0.3527380917417516 -0.20139192895878322
0.01555856065703245 0.3653851244794835 -0.19584403293121821
0.010809262561329325 0.35774571636791125 -0.20443417983044154
0.013852079677113016 0.35280621985072985 -0.21039474861610896
0.015371640491016825 0.3727166149961461 -0.20618721203793056
0.010791798400410136 0.36060900429363146 -0.21286616580475337
0.009583999681004008 0.34002853373165026 -0.2032532926081515
0.008079399632938822 0.3391656968938817 -0.1905918653487063
0.004010667371281107 0.3438022230016698 -0.19956233458508021
0.012911905812748392 0.35276604632015124 -0.19380845980633266
0.008888711499699076 0.3606520388471593 -0.18767803268421657
0.0042085249896130165 0.3563306424962987 -0.19711209194649226
0.0073323746199688514 0.3518985603200902 -0.20194826381195552
0.007531573342808207 0.3719441984045018 -0.1974823410986758
0.00620945291472288 0.36127925852413073 -0.2044340159176684
0.008369644450672587 0.3330735657560338 -0.20714990155685908
0.008488913344868143 0.33388824204082385 -0.19770237164486415
0.0064897139544567665 0.33824742773647204 -0.20156835870731837
0.010745634603031596 0.34374416807765856 -0.196155571508298
0.010596265363224467 0.35070295075054064 -0.1901869411944247
0.006005098390110453 0.34914238194103137 -0.19814220921982295
0.005868812369831522 0.33967424372310534 -0.2032862688778735
0.007569899129398783 0.35785330275173083 -0.1990193511723376
0.007238974141605814 0.3492723200666417 -0.2053725655554629
0.14483134942007872 0.34269548395748034 -0.2065618123291827
0.14482735590887877 0.3606922719823827 -0.20054990904320247
0.1418736477370343 0.35238862970943347 -0.2068788345335818
0.15846710400534483 0.3434093091833104 -0.2027892108439303
0.15758996205283018 0.3608716819631566 -0.19807752327908046
0.1521459122176251 0.3494975660192479 -0.20455823199738032
0.15502189593268248 0.35023475626582995 -0.2106189365862704
0.15669613079977843 0.3685149047719945 -0.20714781539429195
0.1491670508856854 0.3563386891233434 -0.21176750318993098
0.14685415224982115 0.3309449050771703 -0.2019940848826266
0.14505462841940733 0.3475507591115941 -0.19422099845398433
0.14365493254614684 0.3423840496885289 -0.20203011589039332
0.15410791830969664 0.34360636213893786 -0.19578389184463985
0.15133326249075743 0.3577174637662877 -0.1909162040232516
0.14919238285971495 0.3489614222394933 -0.19870235877026088
0.15396862225485655 0.3523331377851476 -0.20125616447914607
0.15428065257025572 0.37149221638317004 -0.19755970792759425
0.14873295025778624 0.3591126296865453 -0.20301147656429774
0.14525907235098692 0.32913256624812975 -0.2047500844477511
0.14485739664984557 0.3444065544950475 -0.198088326620946
0.14371066288901183 0.34087968805904284 -0.2046912397621966
0.1515762706275067 0.3414318058835973 -0.19759944932449824
0.14999883370352599 0.3562921975004186 -0.19347504632462031
0.14753430085135313 0.34783864954585925 -0.20023820655334956
0.15141152338934752 0.34877569416637316 -0.20358713822353847
0.15251105027151915 0.3676270339834203 -0.20047902421940333
0.14738993840170714 0.3558214996206273 -0.2054602737902499
0.11025916533423277 0.3285904620038976 -0.20964556293476588
0.11026163892699095 0.33997822741145983 -0.20355398313988216
0.10889263944578978 0.33104063013667956 -0.2081477578162051
0.12140812473250243 0.32889039257640734 -0.20423162834633357
0.11931802825880858 0.3434941265928258 -0.19953747944820888
0.1159811516280255 0.3326577637540807 -0.2057404901265002
0.11697341995192381 0.3311541769849767 -0.21128166573036677
0.11814122395468565 0.3501971457349767 -0.2080554749249316
0.11216144757223936 0.33720476368541613 -0.21201432602394588
0.1115842063899121 0.32164491156215563 -0.205665909814725
0.11082105832053038 0.33001179436321154 -0.19817683951843745
0.11136977868033263 0.3261080477582921 -0.2042652304648257
0.11771031217528197 0.32660586575145617 -0.19895959751595027
0.11415870981169554 0.33713907936687365 -0.19440747158516414
0.110948403644093 0.33138919809932604 -0.2015286024092532
0.11419429378462645 0.3317408058988561 -0.2037217255114413
0.1135012407775006 0.3519945237981786 -0.19972523407925136
0.10843645529700133 0.33978105524654284 -0.20491058485497005
0.11067234473181578 0.3206926081525792 -0.20858497278679378
0.11091529326392027 0.3286731932508458 -0.20194383816708095
0.11188366012526366 0.3247311208593358 -0.20663292067039973
0.11394982533408018 0.3256527278768529 -0.19997734682549007
0.11211593942595335 0.33627034166927233 -0.19589797513473994
0.10917260246229979 0.33073324898357287 -0.2023789669751025
0.11151002840948912 0.3284363243925084 -0.20594737784851558
0.11232282714796873 0.3480491731512059 -0.20235528902996547
0.10588448243094298 0.33706135491008654 -0.20691963391293056
0.11118101077032896 0.32606793383235827 -0.2064775015591479
0.10931654767943236 0.33537919262523547 -0.19927964465607173
0.10789557294798705 0.33032662609691515 -0.20647255437363154
0.12240301566077086 0.32916069964046374 -0.20263237612236507
0.11714433627081725 0.3394609186994542 -0.19759266929615504
0.11336114005995604 0.33294094542140856 -0.20496379690159328
0.11656593279791685 0.3358565066205968 -0.207122990059743
0.11622788505507323 0.3542876932966222 -0.20290903108109004
0.1112860341544232 0.3412091229307164 -0.20839981095779903
0.06356485681486937 0.3104465101110448 -0.2007920231102801
0.06218384699774595 0.31269867161388293 -0.19771101431835658
0.06127952532721372 0.30987549761409655 -0.20198737936008937
0.06892742710066649 0.3104777429449071 -0.19840864198196895
0.06709637241316649 0.3128815982686986 -0.19579931454647548
0.06263463692618224 0.3122262451993932 -0.20142971830357081
0.06865753726912352 0.3104735706197728 -0.20189293580044276
0.0678580601687512 0.3169692848073949 -0.1996217157124377
0.06527366237593504 0.3134674523221959 -0.2044982399224139
0.06289329128218504 0.3089252207624425 -0.1978860582589007
0.060825933980473 0.31047231892223254 -0.19467499213207728
0.05989294247580381 0.3087447975027074 -0.19895545499313838
0.06669180588675352 0.3099171016561498 -0.19620490925301082
0.06534745292616698 0.3112750742780675 -0.1939578141449786
0.06009723739577146 0.3114146087514867 -0.19918207185257442
0.06635086731863829 0.30991620758647814 -0.19802837924946315
0.06706707673025938 0.3137050364362706 -0.19683302299965388
0.06265949206305357 0.31277198532695666 -0.20073599474419124
0.06369527177763792 0.30729455689067736 -0.20165922598827846
0.06386517481757018 0.30778939465160265 -0.20092924790371425
0.0663997729296765 0.3047334645139684 -0.20240116970528133
0.06244232253981443 0.3077297304021825 -0.19823474543083675
0.06203602747870298 0.30859888533229723 -0.19717577950943477
0.06263445811224791 0.3072885964261998 -0.20055426018227107
0.06403665738058897 0.3062323425161351 -0.20105586307037837
0.0652507443900189 0.3091139290678014 -0.20018709557045467
0.06146969394636961 0.309842476640891 -0.203234189319501
0.08131699757529112 0.3913810346471776 -0.2091254826067782
0.07452892260504576 0.39800835589046374 -0.20414251940239436
0.06962891416502806 0.3952734563695897 -0.2104844834088183
0.09718432025862547 0.3906822893964757 -0.20605493443001277
0.09439267711592528 0.39247299173946276 -0.19994861738670833
0.08490087585402342 0.3908600304471959 -0.20661101596344478
0.09571002917242857 0.3932786677228917 -0.21274387197483546
0.09554519252730223 0.3969146106588353 -0.2065707828282214
0.08354171113921019 0.39590794781322375 -0.21367000894535548
0.07746465997649046 0.39127237537975207 -0.20482414321888454
0.06936355428648802 0.3976121638166417 -0.19905582921494014
0.06394701199484679 0.39578635433788195 -0.20718272881496913
0.09425040082884642 0.39528907278652087 -0.2055689926623202
0.0865546961302838 0.39684821108455554 -0.19778015570629603
0.07700963811827513 0.39664370754833117 -0.2061495866059161
0.09232391910506102 0.3944195006238927 -0.21124108986843593
0.08789878086996886 0.39843870142574206 -0.20518525795925624
0.07927491264296385 0.3976906631338109 -0.21260251955975062
0.11909719304991576 0.39054043034191027 -0.19899468975056178
0.11871724324179503 0.3958576414930333 -0.1969174827813006
0.11426951484633299 0.3948816154348363 -0.20102971153248317
0.127902110385426 0.38983757237071887 -0.19555521862495906
0.12956129507971617 0.3932520244466771 -0.1934082444189883
0.12085079150153014 0.39215523937816515 -0.19735654549587733
0.12630175547552916 0.3929662797796239 -0.20168774681080348
0.1262195308680615 0.39934314230556384 -0.1982774968623019
0.12021162109328123 0.39602739552135363 -0.20321438567627437
0.11378773050261351 0.3938375208723058 -0.19547634677876002
0.11097328858328673 0.39884705284709826 -0.19162698941219813
0.10869153337431761 0.3976338003026952 -0.19809544937599666
0.12678127484274718 0.39400328138942614 -0.19572185831058986
0.12194948391867491 0.3969422672140111 -0.1904172833441592
0.11700241761160704 0.39592928627605334 -0.1969058896778918
0.1234044332976422 0.3953958247053136 -0.1993320073365069
0.12117650108290526 0.4005312416898717 -0.19579882280815608
0.11663587884856078 0.3981632087575902 -0.20116631047714717
