ply
format ascii 1.0
element vertex 169
property float x
property float y
property float z
element face 0
property list uchar int vertex_indices
end_header
-0.0831571917061725 0.3638387415754308 -0.18499631540764339
-0.08623356623696474 0.38968647459621325 -0.17788051919926173
-0.09088934464501527 0.379718432222556 -0.1829123433112002
-0.06762454910325197 0.3812472317564 -0.183854528832326
-0.07423482341813234 0.4001557920324315 -0.17711918907154567
-0.07949034376191286 0.38790656069393054 -0.1835050369976855
-0.0712475876336017 0.3817098830091466 -0.19639619545925624
-0.0765012006287494 0.40191067198390856 -0.18985951797951228
-0.08393473429726747 0.3893920276510228 -0.19546904520977504
-0.08903391165780214 0.3856723401891698 -0.18343582110394008
-0.09441290302323488 0.4017233941900243 -0.17500776903618342
-0.09953636927651552 0.3954968545782079 -0.18545242505062587
-0.06505183382081178 0.39985103348369494 -0.18396193640221126
-0.07776359720276979 0.4084042404043187 -0.17509465770710475
-0.08518076939629701 0.40431577900524035 -0.18588259177196986
-0.07183391852425722 0.40126592854137316 -0.19320459024895198
-0.08101109666871217 0.4204110596525182 -0.1850764240502215
-0.08513684077309755 0.4080203864919652 -0.1935872073649264
-0.186542252731792 0.35642565230007067 -0.051351108717808784
-0.1876704196457782 0.3635754678594579 -0.04098770873535639
-0.19176190598057893 0.36081130245799914 -0.04941765325058466
-0.16553244991349367 0.35399980286235705 -0.04770828144539362
-0.1752255509619632 0.3688174579488744 -0.040210642981419624
-0.1797077606444278 0.36060900429363146 -0.04875014083374506
-0.17542601628350404 0.35745067337627306 -0.05701462285507685
-0.17943812413262514 0.37745256165141955 -0.05070398108948237
-0.18519202871369508 0.36467904785747424 -0.05823818700302607
-0.18360027177380708 0.3532115314352025 -0.0494982089279986
-0.18673277897881654 0.3542573545324315 -0.03637895839203364
-0.19319748384999422 0.358265111242484 -0.04783297436226374
-0.1723331759695926 0.36490155199642077 -0.044893779921422065
-0.18215704960869936 0.37204463223094836 -0.037706651854405464
-0.1858982394461551 0.3679764364110936 -0.04642377154816157
-0.18099036319302705 0.3691102359640111 -0.053434946703801216
-0.18437787396954683 0.3845521304952611 -0.04701674835670954
-0.1883573631768146 0.37500024775142565 -0.05480132358063227
-0.18718149764584688 0.3450042698728551 -0.05186868565071589
-0.18841602904843477 0.347051093374442 -0.03992802755821711
-0.19284551842259554 0.3518591020452489 -0.048632719683537544
-0.17925022048997072 0.3568889592039098 -0.04622740404594904
-0.18764709932850984 0.3659078572141637 -0.04032639520157343
-0.19077485306309847 0.3623645995008458 -0.04760164873589045
-0.1866396169190326 0.3592630122053136 -0.05345005648125178
-0.1897441844468036 0.3746891711103429 -0.047710337805638374
-0.19055066509293703 0.3654832933294286 -0.05454582827080256
-0.18735984964417604 0.344616064821433 -0.053261288571248115
-0.1881122241740146 0.34812469223613635 -0.04262704508293635
-0.1912591557030597 0.35228938797588244 -0.04980281846512324
-0.18034132821606783 0.35521353224391833 -0.04742757337082392
-0.18718526763962892 0.36497695187206164 -0.041637071537861885
-0.190632144642345 0.36181760767574206 -0.04838124768723017
-0.18667855365323213 0.3559109065877904 -0.05453006284225947
-0.18979557855176118 0.3718345854627599 -0.04898298637856013
-0.19082764787720827 0.36281866768474474 -0.05542821543205744
-0.1010274092678943 0.3194823358404149 -0.10165945546616084
-0.10312048597382692 0.3315755818235387 -0.09335310118187434
-0.10640744371461061 0.32405645588512316 -0.09883023159492976
-0.08041034145402101 0.3190471623289098 -0.10045427935112483
-0.08519099159287599 0.3322992418157567 -0.09480977909554011
-0.09130598111199525 0.32356096247310534 -0.10107398884285457
-0.08784736199425844 0.3207849357473363 -0.10779807822693355
-0.0886212985043445 0.339577743803214 -0.10339946405876643
-0.09567830963181642 0.3267651889669408 -0.10783667223442561
-0.09272424383210329 0.3122112248289098 -0.09424392240036494
-0.09689340992020753 0.3192326519834508 -0.08534891264427669
-0.10002873344468263 0.3183566425191869 -0.09452066676605708
-0.08431805176781801 0.3200569246160497 -0.09126208083618648
-0.09227115912484316 0.3281297180997838 -0.08616561548698909
-0.09441317124413637 0.32329673508281603 -0.09378243343819148
-0.08800206584977296 0.33010555246944323 -0.09542203800667293
-0.09238518281029848 0.34687269667262927 -0.08993242042053706
-0.09412128729867128 0.33528841475124255 -0.09649560706604488
-0.09746758146332887 0.30912495592708483 -0.09959886329163081
-0.09867132706689027 0.314541110788535 -0.09023765580643184
-0.09920794768380312 0.3147138450490941 -0.09660226957787044
-0.09262771410988954 0.3163085673200597 -0.0947453762768603
-0.0969099800114551 0.3248279784070958 -0.089892366099248
-0.09909153981255678 0.3208125326978673 -0.09654281394470698
-0.09590811533974794 0.32160420158977404 -0.09877882258881099
-0.0985605816368976 0.34047926405544177 -0.09379778163422114
-0.10119033856438783 0.32867265680904284 -0.09937108414162166
-0.17904471857594637 0.34433759192104235 -0.15097493784416682
-0.17776931328820375 0.36664254406566515 -0.1420982267140246
-0.18273497624444154 0.3564301822530736 -0.1474463577746249
-0.1611584226612964 0.3513119314062108 -0.1523630704163409
-0.16806198163079408 0.3737472389089574 -0.14724833624351985
-0.17238899571942476 0.3604819867956151 -0.152561404871831
-0.1723833332781711 0.3614310119497289 -0.15094613389957912
-0.1679946134810367 0.35780478457088366 -0.15974670009602077
-0.17267992599057344 0.3785474989759435 -0.15527439968575008
-0.17696865899609712 0.3672111723768224 -0.15960317211140163
-0.17961339159058717 0.3600511048185338 -0.15730365471828944
-0.17840966088818697 0.36993486622447863 -0.14255838947285182
-0.16075182957696107 0.375815639291953 -0.1546787406681872
-0.17336371047543672 0.3883386943685521 -0.1473768140553332
-0.1741518924956241 0.3776280377256383 -0.15678722517479426
-0.1680895785813251 0.3772196266996373 -0.1654834385393954
-0.17398021621750978 0.3991771433698644 -0.15841391043652064
-0.17924364907788423 0.3844818566190709 -0.16619468586433894
-0.1828275869612613 0.34410900810832873 -0.1599142040490008
-0.17993185920762209 0.35822672585124865 -0.1466109539746142
-0.1854881892924228 0.3567203376638402 -0.15649860458363063
-0.1747256617073932 0.3697370384084691 -0.15421366052616603
-0.18020221097516206 0.38434756735439196 -0.14833266394127376
-0.18085446460293916 0.3736028764593114 -0.15627984063614375
-0.17837798101948885 0.36652148703212634 -0.16391604499805934
-0.1801067094330707 0.39122999647731677 -0.1581267352579928
-0.18494262797879366 0.37796069124812975 -0.16438921647060878
-0.05120633049058108 0.32162911633129015 -0.18853294210423
-0.05342955393838076 0.3349945042478551 -0.18313386397350795
-0.054784665537349266 0.32828433254833117 -0.18696472899902827
-0.033705810738078636 0.3204189036237706 -0.18747168140400416
-0.03494052095460085 0.33118207195873156 -0.1816715534209109
-0.041240314674846214 0.3243644926893224 -0.18590150134552486
-0.03578821821259646 0.3210164997922887 -0.19602640824306972
-0.03747494025277285 0.3361873123991002 -0.1891282434939242
-0.0447021524434009 0.3256239388334264 -0.1937589730500079
-0.05050287647294192 0.3191313836919774 -0.1813918139218188
-0.0590127210144916 0.3245772812711705 -0.17551509397018916
-0.06500453753518251 0.32349945047969714 -0.1844447787283755
-0.030667016935817283 0.3220744822370519 -0.18484593288887508
-0.039296726418010276 0.3234436009275426 -0.17840164260853297
-0.04646945996331362 0.32345027664775744 -0.18682385342110164
-0.037239382696620506 0.32687259653682604 -0.1873187507866717
-0.040951649380199 0.33172119597072497 -0.18178678410042293
-0.05196432275818972 0.31429226139659777 -0.18609071629036433
-0.055891851616374534 0.31841267088527575 -0.18029407517899043
-0.05965588493394045 0.3192738387929906 -0.1870005066870547
-0.04324919982003359 0.31870306471462145 -0.186575436162839
-0.04836390419053225 0.321671614443015 -0.18197032170284755
-0.0498421887879291 0.3199478481161107 -0.187948265242467
-0.04569409294175295 0.32626880148525134 -0.1880431856392718
-0.04793007178353457 0.33290053347225085 -0.18306244270790584
-0.05032841367768435 0.3285991642820348 -0.18828883128155238
-0.10485951108979372 0.3842340801107396 -0.05773232238281733
-0.10721148057030824 0.40019662121410265 -0.050723412203679145
-0.11107615633057741 0.39453638533229723 -0.057092555928120674
-0.0908752183442035 0.3917901013242711 -0.055115887093434394
-0.09390182299660829 0.4023932311880101 -0.04923746840942866
-0.10058678193139223 0.396945485864829 -0.055717685389409126
-0.09480700893448976 0.3917276952611913 -0.06562224881638057
-0.09697703523682741 0.4059882853376378 -0.05963794248093134
-0.10375011963891176 0.397277722154807 -0.06557459490288264
-0.1049496631150165 0.3923483584272374 -0.0520444895504809
-0.11061803503083376 0.40289575794811144 -0.04374424474228388
-0.11665251357602266 0.400717983041953 -0.05391011493195063
-0.08671701951073793 0.4053896162855138 -0.053707667755971016
-0.0966214935307422 0.41102457979793444 -0.04574654357422358
-0.10322086019562868 0.40868539551372424 -0.05522091047752863
-0.09160811705636171 0.4054333660947789 -0.06123165147293574
-0.09964458150910524 0.41885502079601183 -0.054229327607045234
-0.10486505432175783 0.41188467482204333 -0.06203866856087214
-0.13810693724202303 0.36099869946117297 -0.09551984922874934
-0.1470912943606296 0.38928801754588976 -0.08326874034393794
-0.15237360699223665 0.37899226883525744 -0.08698216931808955
-0.10619572801636842 0.36653305033321276 -0.10023827211845882
-0.1181778113369861 0.38943923452968493 -0.08926607029427058
-0.1238177369360843 0.37410409191722765 -0.0958069648026324
-0.11135388417290834 0.36990744808788195 -0.10867188231934077
-0.1232311229233661 0.3923230264532079 -0.09815291421402461
-0.12830756111191896 0.3776915166723241 -0.10417283432472713
-0.15755548579739717 0.3782592509138097 -0.09821865813721187
-0.16482498748349336 0.3963158820020665 -0.08514256136406428
-0.12059728307770876 0.39385021666164294 -0.10119826452721126
-0.13941363496827272 0.4032337758886327 -0.09018976347435481
-0.1466913918976703 0.39590818623180285 -0.10221595423210628
-0.12882904214905885 0.39102203587169543 -0.11215780036438472
-0.142983982992641 0.4125251863347997 -0.10110847012985713
-0.15390559537457613 0.4005801174985875 -0.11126292603004939
