ply
format ascii 1.0
element vertex 108
property float x
property float y
property float z
element face 0
property list uchar int vertex_indices
end_header
0.09349205093336913 -0.21016097625618085 0.18196492536078923
0.08275844650221678 -0.1882463302267085 0.20281278235923283
0.08118115858984801 -0.18928500076656446 0.1999773894072675
0.12565897898627135 -0.20075238307838544 0.1746410046340131
0.1164994438166699 -0.1907485183132182 0.18227230651389592
0.11448498563719603 -0.19514275153999433 0.1776755963088178
0.12218039231253477 -0.196202462519456 0.17114316566001408
0.11291070775938841 -0.18587095102195844 0.1788575564147138
0.11106811957312437 -0.18991202672844038 0.1746739660025739
0.10686310129118773 -0.22339004835014448 0.19442420346747868
0.10078369574499937 -0.19945830663566694 0.2123132858992719
0.13817500071478697 -0.20002943834190473 0.19933491094123357
0.12340729432059142 -0.18195820411567792 0.21065550191413396
0.10867880778265807 -0.19370505770568952 0.19781320436011784
0.1274029214854321 -0.18486002644424543 0.18744593007575505
0.1146126885886273 -0.16204789837722883 0.19611637933265202
0.10637181000662657 -0.17503989299659833 0.18828611714850896
-0.0015869538311877648 -0.11777903696422683 0.18934606654654973
-0.004319290352336446 -0.08788951298122512 0.1955295716048383
-0.003470132780543844 -0.10196237822895156 0.1935962949515485
0.0173805256362042 -0.09384356995945083 0.18895386798392766
0.008388002681263407 -0.07121472617511855 0.19564568145286076
0.005800237226017435 -0.08734445830707656 0.18954681499015325
0.010840525197514017 -0.0913290884149562 0.18089382989417546
0.003980984258182963 -0.06988002916698562 0.18726985795508855
0.0008364518160900673 -0.08575420638446914 0.18159889323722356
-0.006177375746242086 -0.07735576292400466 0.19057398183356755
-0.010944376421443502 -0.059554358924676046 0.1986259136916303
0.024488647746571023 -0.062464645112801656 0.19043885810386174
0.007817765044697245 -0.0470410492074977 0.19884060962211125
0.005489935445316752 -0.058951785768319234 0.1888319168807172
0.008338769244678934 -0.06405382415180312 0.18308501584540837
0.0035241444583019813 -0.04891153236751662 0.18989866120826238
-0.001574705076686422 -0.06245022078876601 0.18037997825156682
-0.008391986322871725 -0.08534928223018752 0.18911998612891667
-0.013284931612483541 -0.07077847978000747 0.19772934062491887
0.008996655511387308 -0.06378983518009292 0.190964749884715
-0.0014532010083117882 -0.05471595188503371 0.19828986270438664
-0.002241383028499166 -0.061557522023964986 0.18927436215888493
0.003055651950367411 -0.06732498666172133 0.18323372943412297
-0.005163381529323141 -0.054248323644448385 0.1904420767546796
-0.007749597263804952 -0.06395714541797744 0.18175803763877385
0.1268975039000592 -0.1716479267728816 0.19435845954429143
0.113726963567265 -0.13351251741771802 0.20625059945594304
0.14994846777869078 -0.12433539887790786 0.18864362580787175
0.13153096036864134 -0.09981482287769423 0.19900458199988835
0.1308345098967633 -0.10691835543041335 0.194110981059184
0.14993934826804015 -0.12266211768512832 0.19460671288978093
0.13276406125975462 -0.09678404590015517 0.20463585002433293
0.13177137570334288 -0.10577266475086318 0.199576548171153
0.11778937773657652 -0.11400749346141921 0.18813203914176457
0.11033083991957518 -0.0820398535383235 0.20090877158652776
0.15004633860541197 -0.0668496396196376 0.19211875541221135
0.13867353396368834 -0.04499279519443618 0.20320605380546086
0.12004934744788023 -0.05833785792713271 0.19010995967399114
0.1446429391379437 -0.057714512552071676 0.17870765073310368
0.12655176715803954 -0.029922297204781633 0.19233112676154607
0.0034986038680157264 -0.21419406494026288 0.1830071721793317
0.0011064608569225868 -0.195754384602357 0.2005465541602277
0.00020026164007993542 -0.1985017265928279 0.19374029977332585
0.019110550450809914 -0.19826299508934125 0.1758149777175092
0.009189685153492411 -0.18558806737785444 0.18106966359626286
0.006937255429752787 -0.19063675960426435 0.17568933112632268
0.009094287919529398 -0.1894609685791026 0.178774705958476
0.01644315319014402 -0.19311161896114454 0.17427717788230412
0.008200218247898539 -0.17898771723632917 0.17929791553031438
0.006096472310551127 -0.18241076728229627 0.175159565043559
0.00705592827750059 -0.18015035053615674 0.17838173253547185
-0.013436029386989156 -0.21285376509552106 0.19541131598960393
-0.006429264975062887 -0.1990476008308421 0.21343045575629704
0.00690953926993223 -0.18982735833053693 0.20096980674277776
-0.0020968715672412316 -0.17203195949916944 0.20745658023368352
-0.008058855963222067 -0.18780690988426313 0.1974078927756452
-0.0004638235096850792 -0.1822598185194026 0.18836962325583928
-0.00877843303727297 -0.16182011922721967 0.1948565159560346
-0.013537446690074484 -0.1722062285793315 0.18768548114310735
-0.009319643211833517 -0.22859171589737043 0.19117414100181096
-0.0037980179314532677 -0.2084010299098979 0.20937185628425115
0.0027165909285626014 -0.1965897138965617 0.19866912705909245
-0.0012609760289111534 -0.1765658464086543 0.20397197349082463
-0.006553928089610616 -0.19189361294632062 0.19602202517997258
-0.002294818592540304 -0.19514614900474653 0.18763684375297063
-0.0071024398331561486 -0.17111392876033887 0.1914683495284223
-0.012020955515376608 -0.1818267460716258 0.1862556253195905
-0.013314882946483175 -0.22276381214981184 0.1953794275046491
-0.006547013950816671 -0.20624046584491834 0.21381848199378484
0.003366519975193461 -0.19488494655017957 0.20212005717765325
-0.0034588973050036827 -0.17604117652301893 0.2080771241904401
-0.008698741627208273 -0.1916192378652583 0.19896947486411565
-0.0027814905171313683 -0.19069746693496809 0.19017802817832463
-0.00874272985505251 -0.16853283902530775 0.19550602777015202
-0.014211307001582662 -0.1789294834983836 0.18906598432075017
0.05529179172468992 -0.16217071374778852 0.20469909055243962
0.047273089456089455 -0.1276779379499446 0.21855526311408513
0.04488604264212461 -0.1342461909902583 0.21568076951514714
0.07784013943625304 -0.13268368502979383 0.20064716680060857
0.06446429090453001 -0.10988985558872329 0.20947789294730657
0.06195934610319944 -0.12110387345676528 0.20337241036902898
0.07430024938536497 -0.13013063928012952 0.19523202521811955
0.06036128597212644 -0.10769130846386062 0.2040965471984052
0.05868180589629026 -0.1184853520048152 0.19806264979850285
0.041285683679111916 -0.12687875887279615 0.2000195298911237
0.03728954987479063 -0.10201271435146438 0.212227812838664
0.07281660036993834 -0.09406455417995559 0.19721405847083562
0.06129958229018064 -0.0738381352079402 0.20709650857459538
0.044842143821247536 -0.08610706588153945 0.19458823544990056
0.06787352757407042 -0.08589171429996596 0.18785982472907536
0.05098443226767393 -0.06143852135067092 0.19953571898948186
