ply
format ascii 1.0
element vertex 161
property float x
property float y
property float z
element face 0
property list uchar int vertex_indices
end_header
0.007778962420948466 0.14332188109035388 -0.21655956761826045
0.004597564506061991 0.158525178228568 -0.20331349329937465
0.00016315774870725476 0.14561797121639147 -0.20646449284542567
0.026902576255329567 0.14477355221385851 -0.2122782702921725
0.020614673661716897 0.16118610838527575 -0.20562674956310756
0.01751514272642942 0.14618725517864123 -0.21329947667110927
0.020974536704548317 0.14644295910472765 -0.21975099401463039
0.01981665687514158 0.16382558086986437 -0.21670302109707362
0.013030876683720072 0.1510667298185338 -0.22184486048210628
0.01680653290701719 0.1529162023412694 -0.21773613350380427
0.006084491776951273 0.13551432827587023 -0.2103030766724444
0.005850156116016825 0.14152909258479968 -0.1984228129862643
0.0008067985053143104 0.13762367704982653 -0.2024782236098147
0.018926491307743508 0.14009411076183215 -0.20352325694550044
0.01159088807059141 0.15350169876689806 -0.19688356773842342
0.0067601700301251014 0.1442320440160741 -0.2058162625311709
0.012715657519825419 0.14107377270336047 -0.21146331088531978
0.012110402154453715 0.1609948966848363 -0.20768388466824061
0.006227781342991312 0.14770776966686144 -0.2136886353968478
0.010257889794834574 0.1554949376928319 -0.2086694623707629
0.0058766205782970985 0.1354400608884801 -0.2127479250906802
0.006551494168766459 0.1415835116254796 -0.20154742257584102
0.001405944394596537 0.13767714241619006 -0.20443488018501765
0.01745798187208982 0.13950628975505724 -0.20581645624626643
0.011241575049885233 0.15407724121684924 -0.1994129057406283
0.006164153384693583 0.14466113785381213 -0.2074782635449267
0.012115736770161112 0.14004016855831042 -0.21354635910976894
0.012076487111576517 0.16020656565303698 -0.209856965708623
0.00552060203505369 0.14757520893688097 -0.21524981515396602
0.009965409802921732 0.15521187523479357 -0.21111100273121364
0.005797793435581644 0.13585145214671984 -0.21354615049351222
0.006838848161228617 0.14215255716915026 -0.20277462260712154
0.0018393893714031776 0.1381156537878026 -0.2051044340609408
0.017160912322529275 0.13941682318324938 -0.20664990799416072
0.011416902112492045 0.15440822580928698 -0.20032812015999324
0.0063375134940228065 0.14495880344982043 -0.20790388541210658
0.012202699946888407 0.13989723662013903 -0.21439362423408992
0.012147357034214457 0.16011167505855456 -0.21069260792721278
0.005589743422993143 0.14772493580455676 -0.21576365189541347
0.009760518836506327 0.15472734907741442 -0.21192506806839473
0.005697687434681376 0.14737469891185656 -0.22078234808434016
0.004114200639255961 0.1646947954046239 -0.2095656182049609
-0.0008867184643664757 0.1483422015058507 -0.21033083753574855
0.023001184033878762 0.14531893471355334 -0.22171539919365413
0.01821820931387754 0.1635837648260106 -0.21686031775463588
0.015078355836399516 0.1475569699155797 -0.22191470222462184
0.02249934272719236 0.14799422958965197 -0.2253216441153384
0.0195891757483563 0.16263998488063708 -0.2226227607010699
0.01744507746649595 0.15191818216915026 -0.22643809871662623
0.09650408225012633 0.218980500494193 -0.21036202566612727
0.08992063002539488 0.2478392217504491 -0.20164764778603084
0.0839241345400891 0.23718560675258532 -0.2084032382248736
0.11984007554007384 0.2465896699773778 -0.2122969265459872
0.10521312551451537 0.2640299294340123 -0.2023273642538882
0.09998439745856139 0.2551193926679601 -0.21076829092491633
0.11574017004919859 0.24474252203578845 -0.22361057357777125
0.10157011942816588 0.26446826199169055 -0.21351096885193355
0.0958262284274182 0.2535617444860448 -0.22174400942314632
0.09620439009619566 0.24582518080348864 -0.20919785754669673
0.09030034141493651 0.2658435795652379 -0.19835043804634578
0.08342941598845335 0.2596868369924535 -0.20899117844093806
0.11802272992087218 0.2759103272306432 -0.2116473104237414
0.10540883736563536 0.2865504715787877 -0.20245025413025386
0.09927030401182982 0.2811583969938268 -0.21265482263554103
0.11268724994612547 0.27090675572032824 -0.22035323934544093
0.10124387340498778 0.2882207725393285 -0.21030814306725032
0.0930983026499829 0.2793149445402135 -0.21965559678066737
0.09431504206610533 0.23418665865535632 -0.20730517165649898
0.08846392230940672 0.25562323073024645 -0.19695054845798976
0.08292095856619688 0.2496794555532445 -0.20630135493267543
0.11225425200415465 0.26844597796077624 -0.20944342868317134
0.10141726331663939 0.2792526576864232 -0.20080982999790675
0.09611730771017882 0.2734739873754491 -0.2104741122006274
0.10810934500647398 0.26341898182506457 -0.21794381098736293
0.09745763735724303 0.28067333439464465 -0.2083744491814471
0.09021838502837035 0.27157402971858874 -0.21738290147770412
0.12620966629935118 0.15142388085002795 -0.21139168100346095
0.12516277031851622 0.17232240179653063 -0.19920600311745174
0.12014036374045226 0.16072405317897692 -0.20288051025856502
0.14480095105124327 0.15856260994548693 -0.20618186252106196
0.1412213941092572 0.17816675642604723 -0.20050083951939113
0.13464688258124205 0.16657544115657702 -0.2049390460728503
0.14094971613837096 0.1612891648160924 -0.21740309255112178
0.13613500194502684 0.17739606836910143 -0.21190568165768153
0.1315131683821759 0.16960222462291613 -0.21574824409473903
0.1333638031954846 0.1371240709173192 -0.20488800959576137
0.13195641832304808 0.15348834732646838 -0.19065623836506373
0.1287823219771466 0.14624948242778674 -0.19863120572556026
0.144705225991734 0.1499155257093419 -0.19852855162609584
0.14082472519827696 0.17036897877330676 -0.19193414704788692
0.1336658199305615 0.1574456189023961 -0.19934693830002315
0.14129989342642638 0.159112701212119 -0.20673164086330897
0.13644157843542906 0.18152070978755847 -0.20100738959301478
0.13183738784743163 0.16903186777706042 -0.20572625951756007
0.1331787605757794 0.13733340242977038 -0.20547641174782283
0.13199718790007445 0.15365845898265734 -0.19127483026970393
0.12885164217902037 0.14644391277904406 -0.19894581394184596
0.14426701264334532 0.15007675627345934 -0.19903019921768672
0.14055817322684142 0.1706558559286107 -0.19249954180706508
0.13354872660590025 0.15771103838558093 -0.19975120680321223
0.14101826147986266 0.15869463423366442 -0.20741427795876033
0.1360951562399945 0.1812486145841588 -0.20167746500957973
0.1314586599345288 0.16894657353038683 -0.20627541201103694
0.13264270620299193 0.14557559231395617 -0.20550348715771205
0.130143960284718 0.16406835058803454 -0.19212826447475917
0.12457509832335326 0.15501577595348254 -0.20056206839073665
0.15230559306097838 0.15351242760295764 -0.20182781772602565
0.14709119992209288 0.17402375677699938 -0.19476328151215083
0.13741277651739928 0.16057361105556384 -0.2022658671616412
0.14554404215765807 0.16199607590312853 -0.2098230804680682
0.14077173666907164 0.180852899347495 -0.20434206085194118
0.13453545169783446 0.16972322205181017 -0.20928939537991054
-0.004275123310557882 0.1976840589391698 -0.20687022166241176
-0.009972284269801656 0.22546828726405993 -0.19433931367386348
0.010529150533207377 0.22215713003749743 -0.21470921592701442
-0.0008746783261218468 0.24641777018184557 -0.20616512851704127
9.979801131101453e-05 0.24158848265285388 -0.20924461739052302
0.015909274386890847 0.22060377339000597 -0.20346167044628627
0.004428883361347636 0.24461216667766467 -0.1953102584360934
0.005202819871433695 0.2390012238370885 -0.19865124778736598
-0.00335354609536318 0.19655282238597765 -0.2088033642052508
-0.005053828192225973 0.22080535629863635 -0.1920364137171603
0.013110121058948954 0.22723967770213976 -0.21016437666405208
0.004278083610065897 0.2477595303403844 -0.20285716013897426
0.005217542218693217 0.23855538109416857 -0.208761253523717
0.009191622304447611 0.22822541931743517 -0.21157477157104976
0.0009001095767101844 0.2497145626890172 -0.2042153115748263
0.0018590887065014442 0.2422692273008336 -0.2096150006531573
-0.0031706790451922814 0.1951840017187108 -0.20894271986473567
-0.0047986607079425255 0.21970553139324084 -0.19221720950592525
0.013100375699528178 0.22535617092723742 -0.21000514285553462
0.004390140342243632 0.24635363558406725 -0.20271287219513423
0.005412687825687846 0.23697436789150134 -0.2085071440218783
0.009142657088764628 0.22662956455821887 -0.2116071368931628
0.0008595188136181434 0.24837006071681872 -0.20428771631706721
0.0019811292166790565 0.24077642897243395 -0.2095946605681277
-0.003889362049571554 0.18688411453838244 -0.21059235291470058
-0.005097458792201559 0.21517092922801867 -0.19470072643745906
0.00976796941710325 0.2138602826940526 -0.209293120670209
0.0016498466010174354 0.23841829041118517 -0.20204866783607967
0.0032477279181561073 0.22873849609966174 -0.2063544626711703
0.0075113673682293495 0.21544159391994372 -0.21257685976017482
-0.00076911850022463 0.23995311001415148 -0.20530348377216823
0.001197506951816996 0.23052365521068469 -0.20950008289803035
0.09502126769972655 0.1934077236997594 -0.20972562687386043
0.08834670977545592 0.22120393255824938 -0.19434129552830226
0.08398698763800475 0.21144033411617175 -0.19613693015564448
0.12813260154677245 0.20164353588695422 -0.2120869244812823
0.12260331706953856 0.22272319534892931 -0.20206413524139888
0.11558892326308104 0.20806021431560412 -0.20756607608784206
0.1256474454875073 0.20188445786113635 -0.2185518230675555
0.12029974656058165 0.22237963417644396 -0.20857461647976405
0.11345698432875487 0.20822925308818713 -0.21390567080963618
0.09290807442618224 0.17262954453105822 -0.20057248430241115
0.0839047630305371 0.19777275065059557 -0.1799623008250094
0.12219246225310179 0.19565136173839465 -0.1978204633473254
0.10812013344717833 0.21357239225978747 -0.18771650748241908
0.10076915221167418 0.200630674158286 -0.19823130326260097
0.11284851031256529 0.20554609039897814 -0.20916802542198665
0.10646625356627318 0.22547454575176135 -0.2005634094952441
0.09439172344160887 0.21201432684535876 -0.20902996616352565
