ply
format ascii 1.0
element vertex 209
property float x
property float y
property float z
element face 0
property list uchar int vertex_indices
end_header
-0.09988192720460085 0.37562782505626574 0.00656341655265325
-0.1040782134060779 0.39856244066829577 0.013701579403986868
-0.10960615677880434 0.3858319614278783 0.006679645609965262
-0.07244930667924074 0.38660711983318224 0.005541584324946341
-0.08356065554665712 0.4021743629323949 0.014660439324488577
-0.09100310010956911 0.3924658391820897 0.005790642333140311
-0.07874543471383241 0.38577128389949694 -0.005087413954625192
-0.08999438090371278 0.40653843620891467 0.003552100491633353
-0.09783599777268556 0.3938335869657506 -0.0043085898636675505
-0.1144822637562671 0.3941786978590001 0.010978928637614188
-0.12216178579377321 0.40839112738246813 0.019532195162882744
-0.13072573645161775 0.40021962860698596 0.007326683831324515
-0.07657537860917238 0.3998460266935338 0.0072197232962750765
-0.09361777706193117 0.4051325414525975 0.01871939642440313
-0.10815785331772951 0.40394670704479113 0.004839143586268363
-0.09054855508851198 0.4060147497999181 -0.0030629421948290495
-0.10251788301514772 0.4226845596181859 0.005524895024409232
-0.10855526728676942 0.4114143941747655 -0.004333772826085153
-0.17997328443574098 0.36396015623683825 0.1438255224944257
-0.1805498997692981 0.3734819386350621 0.15453200681220525
-0.18494513137387422 0.36685086229915514 0.1472439680815839
-0.1615122954373279 0.3610412571775426 0.14671205623160832
-0.16809212667988924 0.38039893845195666 0.15395968301307195
-0.17241979641961244 0.3671084735738744 0.14502381427299016
-0.16835610075043825 0.3632648680555333 0.137706271243205
-0.16952503724145082 0.385462114607047 0.1426401649237775
-0.17591277761506227 0.3712052796232213 0.1358333144904279
-0.1799775759701648 0.3532682750570287 0.1498975668669843
-0.18153129024552492 0.35678369740123644 0.16306357724677556
-0.18632761640595583 0.3575731013166417 0.15348987920295232
-0.16986834509419588 0.36251492241496935 0.15738659245978825
-0.17658999068783907 0.37551010588283434 0.16381805284034245
-0.17988758785771516 0.366871604715537 0.15462105615149968
-0.17688217265652803 0.3645361755239476 0.1474258814574384
-0.17653908832120088 0.38492573240871325 0.15253858907233708
-0.1814138541941562 0.37194241026515856 0.1453068171263837
-0.18043335778760103 0.35050071219081774 0.14516644818793767
-0.18041057391213564 0.354774961267661 0.15675829989921086
-0.1839889834647098 0.3555941079008092 0.14974319083701604
-0.17310815556096223 0.3593272064077367 0.15397369010459416
-0.17674423260735658 0.37305248716945544 0.15995805604468816
-0.1805489460949817 0.36492748001689806 0.15167211635123723
-0.17802485330151704 0.35747958162898913 0.1446633253813886
-0.17688336474942354 0.3779538367139806 0.14966206891547673
-0.1817991833214679 0.3658371065008153 0.1430599008322858
-0.18139953417824892 0.35163904169673815 0.14302836997519963
-0.18020948274182466 0.3561671469556798 0.15284549338828557
-0.18311586482571748 0.3566590640890111 0.1477342162848615
-0.17388753099488405 0.3582697008001317 0.15181522710334294
-0.1756416807894626 0.3721746299612035 0.15762656075965398
-0.1790468196396747 0.3643643353330602 0.15022652490149968
-0.17786240084218172 0.3547682259428014 0.14243011815558904
-0.17598565919446138 0.374968836103629 0.14718591315757268
-0.18148035807656435 0.36355275848979846 0.14108609302054875
-0.09813837213563112 0.3197269533025731 0.09244283182631963
-0.10036871833848146 0.32906664351100817 0.09830059750091069
-0.10245812935876039 0.3234973047124852 0.09215398771773808
-0.08375711245583681 0.3197867963659276 0.09483670337211125
-0.08767757816361574 0.3289920184957494 0.09946500403892033
-0.09285176796960024 0.3230376336919774 0.09320890052329533
-0.08846087260293153 0.3212776277410497 0.08859836204062932
-0.08928204579400209 0.33867079952831164 0.09258442265998357
-0.09520504875229982 0.3265621755468358 0.08787491066466802
-0.09343851609276918 0.3142464254247655 0.09851761801253789
-0.0965849260811725 0.319984385763358 0.10507368190299504
-0.09898919863747743 0.3191199992048253 0.09714995963584416
-0.0851190487866321 0.3188752029287328 0.10117532951842778
-0.0910655955796161 0.32538254002208605 0.105457416606059
-0.09308762354897646 0.32178176382655993 0.09846850378524297
-0.08844951791810182 0.3281750176298131 0.09824278099547856
-0.0918486516003528 0.3426362965452184 0.10267382009040349
-0.09344605608033327 0.3329415414678563 0.09677498681556218
-0.09692815942811159 0.3123663757192601 0.09296687586318486
-0.09719027085351137 0.31609601715679064 0.09907650096427434
-0.0972170631413379 0.31670702437038317 0.09350623829375737
-0.09232805175828127 0.31668675879115954 0.09728505356322759
-0.09498582286881593 0.32258195618266955 0.10072278125297063
-0.09689105553673891 0.3201201055395116 0.09513636572371953
-0.09574053688096193 0.32084609011287585 0.0947799299479627
-0.09710292024659303 0.336067685877036 0.09798701746474736
-0.0995272199635425 0.3271485660421361 0.09351365907203191
-0.18665500981854585 0.34767294863338366 -0.0050784732579088835
-0.18665106101082948 0.365103969370078 0.0021822665454053255
-0.1894668440346637 0.35490931013698473 -0.0044538463829851774
-0.16750302417325166 0.3520104382383336 -0.001622297930607858
-0.1758007953886905 0.37043399551982775 0.004124781918635306
-0.17914619548367647 0.3572016451704015 -0.0021524216412401823
-0.17916024727868227 0.35758079031581774 -0.0015420402764177944
-0.17369470996903566 0.35339553097362414 -0.012962171006093088
-0.17862179381894258 0.3736716006147374 -0.008310624527821603
-0.1842064361100116 0.3603376243459691 -0.01314342873085505
-0.18306147558735994 0.360531637464713 -0.012096830773243967
-0.18309197826432375 0.3581510279523839 -0.0061268295525408415
-0.1830588976864734 0.36215836742992297 0.0035040293456220003
-0.187339092326633 0.36109502056713 -0.0063591386555529265
-0.165615956020824 0.36514575222606555 -0.005239226984868112
-0.17633297545956758 0.3707325551855077 0.0016887400866650913
-0.17733261985825685 0.3656619880544652 -0.006145634817967477
-0.17270779116200594 0.3649651501523961 -0.013253965544591012
-0.17745197815941957 0.38030667046184435 -0.006611862349400583
-0.1810781757359424 0.36863739231700793 -0.014341362881550851
-0.1847414623026767 0.34776402453060046 -0.009661265778431955
-0.1840318690066257 0.35166109541530505 0.0010331187964581821
-0.185904304218761 0.35519124010677233 -0.007140883374104562
-0.17994181318329958 0.36229206064815417 -0.006460198330769601
-0.1870569388394275 0.36819900015468493 -0.0011359836338854458
-0.1837387631659427 0.3634947035657872 -0.006233045029530588
-0.18104703230904726 0.3598204944478978 -0.012158044743428293
-0.18429506821679262 0.3735677693235387 -0.006075271534810129
-0.18602863950776247 0.3649668786870946 -0.012192287611851755
-0.18528240425633577 0.35190696457500353 -0.005766370463261667
-0.18507058424996523 0.3544156048643102 0.005605540108790335
-0.18779000146435884 0.3578615877973546 -0.003826596903691354
-0.17788491649674562 0.36585302094097033 -0.003955640959630075
-0.18737855060147432 0.3708857987272252 0.0020864222766064974
-0.1839443991904178 0.36605061033840075 -0.003853299784550729
-0.1782417546038547 0.3614513371335973 -0.009736784863362375
-0.18313948316620973 0.37360859850520983 -0.0026865686653948454
-0.18462968869256166 0.36562217215175524 -0.009646573233494821
-0.10236815614747194 0.38683522680873766 0.14227455003272527
-0.10765613122033266 0.3991510961400975 0.14705573661338323
-0.11162049574898866 0.3941778037893285 0.14066063506614201
-0.08738468093918947 0.39008296469325915 0.14511977775107854
-0.09044999880837587 0.39580191115016833 0.15172653539191716
-0.09838444991158632 0.39296979645366564 0.14456891162406438
-0.09066636366891054 0.3896509502279271 0.13631033046256535
-0.09246463580178407 0.39905346373195544 0.14277910335074895
-0.1015416185383716 0.39429272154445544 0.13581287009726994
-0.10717094941186098 0.39051938990230456 0.14627771718513005
-0.11010871334122804 0.3967221472608556 0.15183650596152776
-0.1159078876500049 0.39513505438442126 0.1440800939322614
-0.08945260448502687 0.3939227555143346 0.14569806201468938
-0.09653998417901186 0.3977059219228734 0.15320610148917668
-0.1031098763470569 0.39612878302211657 0.14483701331626408
-0.09230474634217409 0.3921461198675145 0.13882421596061223
-0.09904892249154237 0.4016402457105626 0.1451922569991254
-0.10433049006508974 0.3971922490941991 0.13800268514167302
-0.09099350376176027 0.31825430134410754 -0.0014352287529802944
-0.09038079781579164 0.3237329814779271 0.0012453113318585728
-0.09157101316498903 0.3228836748945226 -0.0012655343293047573
-0.08451272053765443 0.31878394821758166 0.0015261684180402134
-0.08541641635941652 0.32458234766597643 0.004236898255457816
-0.08793414635705141 0.3219172451841344 0.00190483672629827
-0.08714867634820131 0.317038783823203 -0.0056212331532335905
-0.08781007928895143 0.329271027837943 -0.0017858530758715298
-0.09085772438096193 0.321730265413474 -0.004202195572743478
-0.09106109542893556 0.3157526944028844 0.003968170714487967
-0.0929262141709247 0.3181330058919896 0.007829150986781058
-0.09264663858460573 0.31785638073558703 0.0030797038794659944
-0.08517454071091798 0.31889129618282214 0.004223934245219168
-0.08864970011757997 0.3207303974973668 0.00796671850692266
-0.08828229708718446 0.3191820476400365 0.003671518397440848
-0.08791876835869936 0.3252148721563329 0.002855083775629935
-0.08889804287003664 0.3302381728040685 0.006271145176997122
-0.0901127855305591 0.32724846342677966 0.002481928897013602
-0.08463404579209474 0.311434695516776 -0.0028733994244433073
-0.08421556158112672 0.3120147679197301 -0.0008439804791308071
-0.08618722362565187 0.3140025232183446 -0.0021534051178789763
-0.0861711601738849 0.3162378166067113 -0.00020543591965204735
-0.08558998508500246 0.3169447872983922 0.001161268782725272
-0.08698121709870485 0.31668765286083117 -0.00023398654449945946
-0.0921644668106952 0.3226554487096776 0.0013122473479413364
-0.09292809171723512 0.3262800071584691 0.003451905083765921
-0.09165437026070741 0.32488090733165637 0.001277468037714896
-0.13868581755208162 0.37178112009639636 0.09980415446769231
-0.14249640209721712 0.394684264455985 0.10823541028510564
-0.1466335008864322 0.38136608341808215 0.10285245521079533
-0.1111151675705829 0.3726992700445165 0.1000977073432111
-0.11996222538994936 0.39171809891338244 0.10961600286971562
-0.12633589906739381 0.37830991486186877 0.10122793061744206
-0.11792826159047273 0.37669808605785265 0.08951678020965093
-0.1246932993655124 0.3974927757131566 0.0982225750208997
-0.13259554905938295 0.3837434146749486 0.09077369315635198
-0.14951681597279695 0.376514086519431 0.10746835811149114
-0.15619186563538698 0.3896609042036046 0.11705203993331426
-0.16335868341969637 0.383481392656516 0.10517706615935796
-0.12074267370747713 0.3875653837072362 0.10472085220824712
-0.13459509117650179 0.39384586552257433 0.11461266024123662
-0.14264060063408998 0.3901445362913121 0.10372605068694585
-0.12763745589303163 0.3844329212057103 0.09520634157668584
-0.13914398355530885 0.4016085360395421 0.10450022561561101
-0.14785913629578737 0.3927170131551732 0.09528174145232671
-0.1700392912154117 0.3622313831197728 0.06120800120841497
-0.1721519927506366 0.3837661836492528 0.06709336383353703
-0.1765990952973285 0.36936278084392443 0.061268082690348565
-0.14240721864747194 0.35990322569484606 0.0598884139777326
-0.15161156160878328 0.3800706956731786 0.06836350901137822
-0.15971724195527223 0.36671573856944933 0.06000294430266851
-0.1492887984042087 0.3645129297124852 0.05072422964583868
-0.1593137781147876 0.3883741591321935 0.05728950245391363
-0.16626958055543092 0.37380380371684924 0.05109890444289678
-0.1751628617768207 0.3778874371397008 0.05663388116370672
-0.1794844965462604 0.3858558628904332 0.06616624338637822
-0.18496134383725313 0.3801522348272313 0.05505507333289617
-0.14700489742802766 0.3839013073789586 0.05551897628318304
-0.16264137132214693 0.39128161409969225 0.0649310563326978
-0.1673314820055881 0.38505000809306994 0.0540501092196607
-0.15851906938599733 0.386727402006339 0.04538144810210699
-0.1656764696364322 0.404330203329276 0.05312540276061529
-0.17288183672475008 0.3915981147634496 0.04382788283835882
-0.17905860645817903 0.36265588739986315 0.05307187778960699
-0.18099893136071352 0.3743859026777257 0.06273730738173955
-0.18559410674618868 0.3693739865171422 0.052555433344950615
-0.1616682658915439 0.3752898071157445 0.05415650351058477
-0.17296766741322664 0.386099526678275 0.06112255795012945
-0.1754220376734653 0.3783248756277074 0.052625021767725884
-0.16825505597638277 0.37609768847103014 0.04458769304763311
-0.172784204316608 0.3944665286886205 0.0513386343241834
-0.17875864608334688 0.38218129614467516 0.04374139649878973
