ply
format ascii 1.0
element vertex 118
property float x
property float y
property float z
element face 0
property list uchar int vertex_indices
end_header
0.12653591232252928 0.3666707966672887 -0.0017945851563311245
0.12328927712393614 0.3932353947507848 0.0033312950850629183
0.1182995040888867 0.38140041569347277 -0.0001892234562731411
0.11919393138838622 0.3829093072759618 0.0010465894461774204
0.1461388369078717 0.3727728817808141 0.0007552121401929234
0.1442167063231549 0.3902680967199315 0.007945797276606497
0.13319035367918822 0.37937904337520495 0.0017080221892499302
0.14253835873556944 0.3733788225996007 -0.011451193261036935
0.13910405831290099 0.39274091461772814 -0.004788794684300485
0.1287135084147534 0.3806027863370885 -0.010004409718403879
0.1277127166266522 0.37891549805278674 0.004351786208262381
0.1190701921458325 0.3928794954168309 0.012273839545359549
0.11320959525061461 0.3878781292783727 0.0016854320288800571
0.1570580502028546 0.39227003792400256 0.000965050292124686
0.14226173357916685 0.3970556352483739 0.011168680024256644
0.13159634666395995 0.3959395382749547 -0.000446089672932687
0.14865206675482603 0.3959313724386205 -0.007217117714772287
0.13720988230658385 0.41210336426372424 0.0016475532771252964
0.13187848525000426 0.40213836172695056 -0.0070222105263567595
0.1253819962020001 0.36467290857906237 0.0045224939108991
0.11949994163466307 0.38114006260509387 0.01320048315536016
0.11738341050101134 0.3774151299345006 0.003996602130045828
0.14177595572424742 0.3852714989530553 0.0039544318438672395
0.1314007838244519 0.39376253822917834 0.010883322787394461
0.12902586655569884 0.3888580296384801 0.002185336184611258
0.1389136214728436 0.39014107922191515 -0.003323950934300485
0.13165148096037718 0.4076781366216649 0.0036630545378827425
0.12676074104262205 0.39681745508785143 -0.003522404599080148
0.11686598257971617 0.3222895357954015 0.1389102850676679
0.11354436473799559 0.3334531281339635 0.14554899079810613
0.11379908518744322 0.32398087719554797 0.14208393437873357
0.13446571426344725 0.32099408844585314 0.14180033547889226
0.12928407387686583 0.3336657975065221 0.1475317393065595
0.12763222055388304 0.32419283131236926 0.14239179236899846
0.12908234195662352 0.3232563231336583 0.13440414412032597
0.12823676066351744 0.34060526827449694 0.13936471087943547
0.12388526396704527 0.32753891686077014 0.1350902233840131
0.12041788296652647 0.3170724604475011 0.14528202159415715
0.11879478888464781 0.32128060797328845 0.1523394499541425
0.11786385374022337 0.3187868092405309 0.14654057366858952
0.13020624713850829 0.320196161066245 0.14684986217032903
0.12625138955069395 0.3256656024801244 0.15158491475593083
0.12109919385863158 0.32313025930995837 0.14539783341895574
0.12674977378798338 0.32154972294444933 0.1427404795409345
0.12531729536009642 0.33672059515590563 0.14813815696250432
0.12015636758757445 0.3264064882146825 0.14275383098136418
0.1202570100302777 0.31524104813213244 0.14254926784049504
0.120085765885838 0.3185079787122716 0.14901094777595036
0.11964913206053587 0.3164752219068517 0.1447408114195966
0.12707902984572264 0.3182115648138036 0.1452930484534406
0.12371899681044432 0.3240752313482274 0.14987485749732488
0.12068997816992613 0.321302482877921 0.1443263803244733
0.12483589844656798 0.3187022302495946 0.14064400537024968
0.1232673426146588 0.3336192462789525 0.14586388213645451
0.11990522341681334 0.32375229338283434 0.14083122355948918
0.11967118577910277 0.3214582298147191 0.1432963524581098
0.1152012546534619 0.3280122969495763 0.15057735784064763
0.11315672593069884 0.3238980267393102 0.1436591659308576
0.13664626078558775 0.3228300307142247 0.14287625892173283
0.13111846642447325 0.32829941252345934 0.14826881034385198
0.12366028623534056 0.3254745099889745 0.14162640912543767
0.13248084979010435 0.32302416304225817 0.13771247012626164
0.12904958920431944 0.3390693161832799 0.1440190587760114
0.12371360259009215 0.32749480942363635 0.13800995690833562
0.13467766838026854 0.3667955491888036 0.09148719055663579
0.13121517496062132 0.39503289202327624 0.09948878629218572
0.12484033899260374 0.38367326000804797 0.0946399186373853
0.15451746182394835 0.37839133480663195 0.09228777034293645
0.15250324206305357 0.39923579434032336 0.0997198734999799
0.14014630513144347 0.38659710625286 0.09300558907996648
0.15008615450812193 0.38213337401027575 0.08186974270354741
0.1485884685988507 0.4031486604558934 0.08895864231597417
0.13528432445479247 0.3907104227888097 0.08308168394576543
0.1276562710280499 0.35689456204051867 0.10329972846518987
0.11958127217245909 0.3825506065237035 0.11480124933730596
0.1135881741519055 0.37445432880992785 0.10401411993514531
0.14912437396002623 0.3792682979452123 0.1046596084357404
0.13846032814932677 0.39470995405788317 0.11391871316443913
0.13013484077406737 0.3868693206655492 0.10354509098540776
0.14221232132864806 0.39185787180538073 0.0933683429480695
0.13313670949889037 0.4147179816114415 0.10185464365493291
0.12589858965826842 0.4013770315992345 0.09343006355773442
0.11005367832136961 0.3174008820402135 0.03909798605453008
0.10883458452177855 0.3297602031576146 0.044593444895853936
0.10702164964629027 0.3234496209966649 0.040777972769846856
0.12384923295927855 0.3166328761922826 0.043135336470713555
0.12294213967276427 0.3290050123083104 0.04780384047042364
0.1185383100981793 0.32057816723461047 0.04451876027595037
0.12095572547865721 0.31725371817226306 0.03456263883124822
0.12111329035712096 0.333690771852683 0.03997542603026861
0.11452724533034178 0.32223297098750964 0.03647380216132635
0.11491816239310118 0.31358099917049304 0.047008088660349785
0.11009763674689146 0.3188300822126378 0.053128174376597344
0.10550480084372374 0.31852454880351916 0.045149347615351616
0.12829284863425108 0.31842167118663683 0.04583572490226263
0.12064181761694762 0.32194424608821764 0.05161537868987554
0.11726494626952025 0.3200380299436559 0.044193348717799126
0.12384783225012633 0.3268666360723485 0.04297923190604681
0.11991440253210875 0.3360037896978368 0.04893761022101873
0.11706348257017943 0.3293721769201268 0.042627385687937676
0.11648490028334471 0.30567348936672106 0.04146613819610113
0.11577345924330565 0.30974758604640856 0.047200254035105645
0.11362217860174986 0.3112676236974706 0.0415710721732282
0.12165494756651732 0.31107635239238635 0.043493262362589775
0.11818232135725829 0.3154533598768224 0.04751878125678533
0.11742730932188841 0.31306214073772326 0.04254453523169988
0.11692436532927367 0.31781877020473376 0.041847011876215874
0.11585845546675536 0.3274988029348363 0.04650538308631414
0.11387940244627806 0.3213195298063268 0.041960797143092095
0.11310439305258604 0.3148564789640416 0.04415111882697576
0.11032490925742003 0.32083035448665514 0.05042906744491094
0.10590039687109801 0.31946338156337634 0.043244472575297295
0.1305612524027905 0.3163031432973851 0.0429058585883283
0.1256304879660687 0.32052541712398425 0.04890059573661321
0.11838989453268858 0.31914652327175036 0.0422473166705274
0.12366705136252257 0.32169718483562365 0.03953771932136053
0.12115668253851744 0.3338739965307225 0.04574128134261602
0.11680926876021239 0.3247698638784398 0.03993671281348699
