ply
format ascii 1.0
element vertex 321
property float x
property float y
property float z
element face 0
property list uchar int vertex_indices
end_header
-0.2119183938031116 -0.2977245654714595 0.008680960965266165
-0.20491471393155244 -0.26806006392364606 0.014425388407816825
-0.2066700707201877 -0.2797496970546733 0.010348967146983084
-0.20130775375413087 -0.26117308994655714 0.010900697541346488
-0.2032552461151996 -0.24171162208442792 0.017024538350214898
-0.20760248107957033 -0.255737414563943 0.011187008452525076
-0.20644378168629793 -0.2595683540952693 -0.0010902668713427212
-0.2081462691550174 -0.23970801195030317 0.004294148516764578
-0.21337657673405794 -0.25422812065010175 -0.0009069527863360073
-0.21122547490643648 -0.2635143007886897 2.1031928172049333e-05
-0.21325221164273409 -0.2421236987960826 0.008751622271647391
-0.2080949197535434 -0.24735057910804853 0.0011894915820264195
-0.19999628765629915 -0.23494196494941816 0.001304558348765311
-0.20634272201108125 -0.22428981026535139 0.01063557608138555
-0.2104065070872226 -0.22922398706798658 0.0012765143633984898
-0.20336298151063112 -0.22885586878185377 -0.003883042502293649
-0.20930842561768678 -0.21449551543121442 0.003267160487284598
-0.21484329803036836 -0.26977696081524 -0.001627870964894357
-0.2122707764630237 -0.25319509765033826 0.007378003430476126
-0.20781160397576479 -0.25021631082420454 0.0002813552142285679
-0.20898244781541017 -0.2392521109235774 -2.179400909906883e-05
-0.21368883056687502 -0.23118690213089094 0.008873692584147391
-0.21572450799988893 -0.23247810264949903 0.0015193138838910435
-0.21218998236703066 -0.23142889698867902 -0.001426466870198312
-0.21822709841775087 -0.22141475042228803 0.006078473162760672
-0.21093411250161317 -0.26689312418823347 3.962857734197121e-05
-0.21200765175866274 -0.2433809395683299 0.008111349177470145
-0.20732187731312898 -0.25051373800163373 0.001183769536127982
-0.19845292968796877 -0.23759361168270215 0.0013528381110333775
-0.20514456434296754 -0.22383311947708234 0.010526648593058524
-0.208707700205318 -0.23159620722656354 0.001290581059565482
-0.20352930827187685 -0.23123874327068433 -0.004661806988606515
-0.2085844377999225 -0.21463442405586347 0.00240268452178472
-0.21129244072484163 -0.22766525110130414 -0.005883553194890085
-0.20638942225026277 -0.3707153405797969 0.1428642187834882
-0.207894871664516 -0.35484947821025953 0.1506924544097089
-0.2099955181603351 -0.3663338627470027 0.1449680243254804
-0.19074816508340028 -0.37081669827823743 0.14728986365806096
-0.1920230637316623 -0.35424657722835645 0.1530973230124616
-0.19806454582261232 -0.3662669863355647 0.14663498742591374
-0.19455685718106416 -0.3683298136842738 0.13831680161963933
-0.19410466654347566 -0.34896679779415235 0.1426537547827863
-0.20193592710541872 -0.36194764634494886 0.13856916768561833
-0.20222487552212862 -0.3817100431573878 0.14584158999930852
-0.2035785566096225 -0.36957704087619886 0.15413325173865788
-0.20441624028729585 -0.37540592810039625 0.14774846179496282
-0.19419423742341188 -0.37590097447757825 0.15176575524817937
-0.1973512868409076 -0.3620620872629176 0.15751426560889714
-0.20147053403901247 -0.37052529116993055 0.15046464545737737
-0.1972059707169452 -0.37136842867260084 0.14537166697989934
-0.19737053914117006 -0.35118629595165357 0.15004574401389592
-0.20374746127175478 -0.36407714148883924 0.14518194539557927
-0.2025608818058887 -0.38153414985065565 0.14530121428977483
-0.20363464458035616 -0.3695442583215724 0.15351014478217595
-0.20443705720948366 -0.37525813838367567 0.14736883981238835
-0.19481266541527895 -0.37579249402408704 0.15136735780250066
-0.19755315287160066 -0.3619507457864772 0.15697251899253362
-0.2015855113987842 -0.3703786339414607 0.15017711265098088
-0.1976087640051761 -0.3716821875226985 0.14470248563300603
-0.19766500098752168 -0.3515066411149989 0.14935993297111028
-0.2040978620772281 -0.36422055026416883 0.1446153436423444
-0.20360917849587587 -0.37342613002185926 0.1452596102477216
-0.20609211428212312 -0.35919263025646314 0.15326165301810735
-0.20869452757882265 -0.36800833603267774 0.1463124666930341
-0.1860549549584308 -0.37269957920436964 0.14740317208777898
-0.1895954857592502 -0.3586647715223323 0.15344601018439763
-0.1957990328793445 -0.3681523408544551 0.14613103015433782
-0.1927273820166507 -0.36790364047412977 0.1416641388655805
-0.19330402715253023 -0.3480058219087611 0.14633821589957707
-0.2004284660344043 -0.36186485549335584 0.14139728887092107
-0.2024336705927768 -0.37391059657459363 0.14611493690024846
-0.20519512398289827 -0.3602999057424556 0.1540852699996137
-0.20824022097634462 -0.3681864943159114 0.14671569211493962
-0.18508579833554414 -0.37270419856433973 0.14822219951163762
-0.1893196056609073 -0.35930882951145277 0.15446530921470158
-0.19537376864003328 -0.36822535654430494 0.14678376061927312
-0.1919504354720035 -0.3672920074117671 0.14282130343924992
-0.19257181389378694 -0.34754463096981153 0.14757763488303655
-0.1995824526076236 -0.36144780179386243 0.14236878497611516
-0.217277834845058 -0.30243255754833326 0.14206557614814275
-0.22106173141049532 -0.2739504184377681 0.14916943652640813
-0.2247563551192203 -0.2846889700544368 0.1444836173773908
-0.20349029703187135 -0.2716191764724742 0.14254747970115178
-0.20968262357758669 -0.25446479579334363 0.14990865333091252
-0.21619234485673097 -0.26464187165622816 0.14288972957145207
-0.20337628824757722 -0.27581281026725873 0.13582657916556828
-0.21053134901570467 -0.25554614325885877 0.14387553079139226
-0.21741720540570406 -0.2678025271547328 0.13660507543097966
-0.2159958283429065 -0.2893379833353053 0.14273082358848088
-0.22111878795670656 -0.2657488938224803 0.15141820056449407
-0.2223522464756885 -0.27394028564815626 0.1443486724616193
-0.20361086232709077 -0.25513057967548475 0.14221351487647527
-0.2101170818333545 -0.24253577550773725 0.14965747935782903
-0.2148783008580127 -0.24979089757328138 0.14096891028892033
-0.2051267425541797 -0.2604603525054942 0.13231065018187993
-0.21496535344170717 -0.23905584772949323 0.141440561843028
-0.22003864748524812 -0.2506388332498561 0.13348992807876103
-0.21619040770577577 -0.29061212202434644 0.14366476876746648
-0.2212148557429233 -0.2670299317491542 0.15223251922141545
-0.22233579559373048 -0.2751926090372096 0.1453705344916486
-0.20411525173234132 -0.256260132397462 0.1431328569174909
-0.21061019105958131 -0.24329990705375776 0.1505737815619611
-0.21518535418557314 -0.2507273908508311 0.14201014382850163
-0.20568848652886537 -0.26155570706253156 0.13324590666305058
-0.21536740167187837 -0.23989551326160535 0.14234315497886174
-0.22040669126557497 -0.25164989193801984 0.13443117482673161
-0.20035960776852754 -0.3661899175298701 0.005113920998682913
-0.2017460714106479 -0.34837167521839246 0.01235037190925115
-0.20573256416367677 -0.35777111908321485 0.00747208936225408
-0.17732949061440614 -0.3692727293622981 0.00489517195235723
-0.1789889435295978 -0.3553297724378596 0.011899254155268607
-0.18797376258420137 -0.36436586638813123 0.00650354368697637
-0.1803721438174167 -0.36777796408062086 -0.004380949902424875
-0.1822862873797336 -0.35100274344806776 0.002843043637385306
-0.19155597193287996 -0.36246692201023206 -0.0019887770890093474
-0.2000455657963672 -0.36929832955722913 0.015912136864771782
-0.20931721730279115 -0.3610797431123744 0.02293600780974859
-0.21735332412766603 -0.362290730680276 0.013085535597910819
-0.17637642724560884 -0.36450853010540113 0.012346706223597464
-0.18681394560383943 -0.36217703482036695 0.020116827321162163
-0.1948004315619388 -0.3627001251829158 0.010094604325404105
-0.19878863794850496 -0.37843539377575025 0.010517707896342215
-0.20395525796460298 -0.37027387877826795 0.018026611638178765
-0.2092146228079715 -0.36998691221599683 0.010540238452067313
-0.1883977602248111 -0.37067910095577344 0.010564557147135672
-0.19507440431164888 -0.36478357573871717 0.015903196168055474
-0.19720956189679292 -0.36800371667270765 0.008811673951258597
-0.18951399130868105 -0.3622881378782283 0.008236131501307425
-0.19324823720502046 -0.351874550784875 0.014188787770380911
-0.20164209110783723 -0.3688668217313777 0.009099564385523734
-0.20745445294427065 -0.3554930295598994 0.016746780705561577
-0.21355017526196626 -0.360974630321313 0.00852831346999639
-0.1779016654019275 -0.36836867591266736 0.006877413821330008
-0.18309749169396547 -0.36104278823261365 0.014689675402750907
-0.19194814069317964 -0.3651955034387599 0.006212822032084403
-0.18448219699906496 -0.3643550779474269 0.0021397088290356966
-0.18840832514809755 -0.34964038988475904 0.009493044448008475
-0.23022542400406984 -0.3420660402429591 0.08791326625358098
-0.23189371330784944 -0.31382914444332227 0.09729438169013493
-0.23469323916482118 -0.3177297916067134 0.09693758828650945
-0.21761437757062105 -0.32000612279300794 0.09295209391128056
-0.22074986500786928 -0.29730226656322584 0.097646376919856
-0.22374528152989534 -0.30599053760891065 0.09543963415633672
-0.21761556966351656 -0.3203733768117915 0.09204768283378117
-0.2210232566122928 -0.2977893855226527 0.09682800514708989
-0.22387220962094453 -0.3062508012903224 0.09460785133849614
-0.22817483050870088 -0.3470719363344203 0.09735035045157903
-0.23080253107594637 -0.3202493991506587 0.1120925758601331
-0.2171593855147281 -0.31297593375568494 0.10523470385085576
-0.222354898882381 -0.28872778078441724 0.11207347257148259
-0.22797527415799287 -0.30250059625034437 0.1039126728297376
-0.2210828165535846 -0.3063498940122615 0.09516956551085942
-0.22563524050759462 -0.27818058987979993 0.10093765599738591
-0.23002612097310213 -0.29213850757007703 0.0955961261511945
-0.23046853644894746 -0.3553005661619197 0.002805582118143973
-0.2291256587033191 -0.3287487234724055 0.011796227526774344
-0.23099287850903658 -0.33128406664257154 0.011719426941981253
-0.2206647793774524 -0.3250670637739192 0.0075529728652142854
-0.2246875713591495 -0.30419071575527296 0.011139652562251029
-0.2263328532700458 -0.3113072421205531 0.009093633723368582
-0.22064409656571535 -0.325572242940713 0.005866936278452811
-0.2250074992899814 -0.3049441482675563 0.009531012606730399
-0.22658261163281587 -0.31170093079929456 0.0074753080130719515
-0.2287184993748584 -0.34026228448276624 0.009182087016215262
-0.2274638961081424 -0.31427945753460035 0.021557501387705742
-0.2114114413981357 -0.3070486392629634 0.016475221943964898
-0.21664478881405977 -0.2846072520864497 0.02400203688155645
-0.2237734596257129 -0.2975696828020106 0.01422487838279241
-0.21500485642003206 -0.2979967202795039 0.006098619532694754
-0.21987623972939638 -0.27328374048595533 0.012281230521311698
-0.22617119057225374 -0.2860978152406703 0.006657383275141654
-0.23147057993458894 -0.3525272812498103 0.009692272973170218
-0.22930155201005128 -0.3266222681653987 0.024416587185969292
-0.220609093738071 -0.3169011678350459 0.020381889176478325
-0.2234823654417911 -0.2906773295057307 0.026312789750208794
-0.22641823692368654 -0.30422218700771436 0.018337479663004815
-0.2237533579592624 -0.3104823138368617 0.011065444779505667
-0.22468836112069276 -0.2836578693044673 0.015748522114863335
-0.2305454562430301 -0.296317568029214 0.011340043377985892
-0.22631306452798036 -0.3512179162157069 0.048001966309657036
-0.22613706691311983 -0.33211042543773756 0.05761664254676336
-0.23069066805886415 -0.3392592277181636 0.05287345392714971
-0.2103673021321216 -0.3462627436769496 0.05158319218169683
-0.2114419738774219 -0.3274764325273524 0.0567836080313825
-0.21758923931168703 -0.33931838532810316 0.051926991772761284
-0.21343886358784822 -0.3455327059877406 0.04069375140677923
-0.21412403388070253 -0.32553561588649854 0.04509176952849859
-0.22128959996747163 -0.3380384947908412 0.041834971737971245
-0.21298735840367464 -0.36331274172191724 0.05617096169005865
-0.22034759326028017 -0.35218565722828016 0.06778886063109868
-0.22486875457810548 -0.35218208094959363 0.05615942819129461
-0.2028851906781116 -0.34416799804096326 0.05852242453109258
-0.2110406260018268 -0.33663522263889417 0.06471224768172734
-0.214775393438808 -0.34079628249530897 0.05585952742110723
-0.20454968018578676 -0.333780547584344 0.0531696890116834
-0.21046603722619203 -0.3168984558237086 0.059820166659464775
-0.21466621263074068 -0.32745312711124525 0.05228107316504949
-0.21442959709214357 -0.3716526236188899 0.05045147879134649
-0.21900265915440706 -0.36107819339161024 0.06337144119750493
-0.21972083551930574 -0.3595572616708766 0.05463751299392217
-0.21152802808331636 -0.3506409730566035 0.05600815160285467
-0.21755571169900087 -0.3389840330732356 0.061974367928614556
-0.21833122773217348 -0.3445629086149226 0.0544092868090772
-0.21137506766366151 -0.3420815076482783 0.05177008254539007
-0.2158064792876163 -0.3221945073259364 0.057732424569239556
-0.2173095743184009 -0.3342535998476039 0.05124222381125921
-0.223153660727016 -0.3249219562662135 0.052211544346919
-0.2286802778963962 -0.2914388682497035 0.059705070090403496
-0.23205112917470125 -0.29729472657566175 0.058746627402415215
-0.207604760957233 -0.293134054149438 0.05103593213569158
-0.21636099619912294 -0.2701855357540141 0.0577429745913648
-0.22255584104108003 -0.2801256086481105 0.05410443885337347
-0.20762924356507448 -0.29195388218288526 0.05290167672645086
-0.21594194574402956 -0.2686255033863078 0.05947174770843023
-0.22228119773911623 -0.2791063692224513 0.05583574516784185
-0.2269681195740619 -0.2965987827432643 0.05681779129516119
-0.22887542350339082 -0.2663217242610942 0.0666359279872083
-0.20467294259118227 -0.26443699559097394 0.059229872059931694
-0.21054233117150453 -0.24345174988632307 0.06793548805724614
-0.2224392096524158 -0.25616571864013776 0.0577587102175855
-0.2101255605940738 -0.2582519557130824 0.04691155893813604
-0.21984523041295198 -0.23124476333980665 0.055602154564967095
-0.2255911926751056 -0.24587815066700086 0.048257372212519585
-0.2287154148344913 -0.308364709819604 0.05971028549682134
-0.22954233987378267 -0.2795495595586787 0.06966020805846684
-0.2119389574055591 -0.273860475028802 0.0634356950045728
-0.216450477672092 -0.2503917123926173 0.07102470738898747
-0.22602444393681673 -0.2640723790777217 0.0624087665797376
-0.2175454895024219 -0.2669683750522624 0.05163337929259771
-0.22529196245717195 -0.23989388903503522 0.05922781569968694
-0.23047701520966676 -0.2536244150054942 0.05285381419669622
-0.22834388418244508 -0.34780468603496656 0.142730525565257
-0.22772134347008852 -0.32453679105167493 0.14952813727866643
-0.23066086573647646 -0.33506550451641187 0.14541637046348088
-0.2187523494486728 -0.3326324727190028 0.15084039313804143
-0.21782502038525728 -0.31078781744365797 0.1550571833373212
-0.22280135257290987 -0.32350014706974134 0.1497117791892194
-0.2224655847077289 -0.3300838377130519 0.13901143414985173
-0.22171249492215303 -0.30780055185680494 0.14271955831061833
-0.22720363242673067 -0.31971623560314283 0.1385546837569379
-0.22912942869710115 -0.3599060382497798 0.1480567966223859
-0.230061317515842 -0.3359361197603236 0.15815167768012517
-0.23088611168908266 -0.3450017478120814 0.15220003469001286
-0.22310083611058382 -0.33585753103618726 0.15909045083533757
-0.22331590457009462 -0.3120319451940547 0.16453187806617253
-0.22810632987069276 -0.3239047135961543 0.15747868163596623
-0.22610166175412325 -0.3307826127660762 0.1491091762305402
-0.22573053343342928 -0.3041266407621394 0.15320091588508122
-0.23143468303727296 -0.31688245197658643 0.14864938600074284
-0.22929994268464235 -0.36038496157055006 0.14755903823386662
-0.2301555226569095 -0.3365266527784358 0.15752052409659856
-0.2308317522530475 -0.3455610777986537 0.15180521352302068
-0.2235528032307544 -0.3366489019048701 0.15877341372977727
-0.22345298035191682 -0.31293689271335706 0.16410248620521062
-0.22819338245438722 -0.32455395718937025 0.15719406945716374
-0.2266203562741199 -0.3317603077543269 0.14872854096900456
-0.22606637580441621 -0.3052396382940303 0.1527434502364301
-0.2317167322163501 -0.31782074829464063 0.14827787024985783
-0.21469917399930147 -0.29743080397968397 0.09988244516860478
-0.21313070757435945 -0.2715169396055232 0.10544248564254277
-0.21374463541554597 -0.2831511702192317 0.10128962142478459
-0.20236041648434785 -0.2720270063531886 0.10232197387229436
-0.20575177176045564 -0.25135197302227125 0.10851057512771123
-0.21093342704819826 -0.26437347194080457 0.10239516837607854
-0.20603245003270296 -0.2728588040721904 0.0898200784445905
-0.21116032702969698 -0.2495297547233592 0.09595172746192449
-0.21650705738114503 -0.2635581549060832 0.09047528250228398
-0.21388443810986665 -0.27653964420681104 0.09773402554999822
-0.21359313530968813 -0.2528561409366618 0.10671805484305852
-0.21305512888478426 -0.26250829359417066 0.09861605508338445
-0.20132258040951875 -0.25194269975547895 0.10235278947364324
-0.2048709641222873 -0.23503636380558118 0.10958631975661748
-0.21117363376664308 -0.2442441489351283 0.10080867154609197
-0.20496151847886232 -0.24580179711704359 0.092640033793559
-0.2083153228287616 -0.2238303478611003 0.09983413560401433
-0.2136293153290668 -0.2377683725011836 0.09251465542327397
-0.21486033005761293 -0.28798278232936964 0.09928329927932256
-0.2132427047018924 -0.26469949444656476 0.10828616364013188
-0.21064383788155702 -0.27263260444526777 0.10112406952392095
-0.2071396659140506 -0.25970072111015424 0.10438319189559453
-0.2104588250641742 -0.24044460615043745 0.11139293653975957
-0.21395994229363588 -0.25065678914909467 0.10357748610984319
-0.21049315733956483 -0.25367735883121595 0.0955707047701978
-0.21236487729596285 -0.230975052322198 0.10207550866614812
-0.21739160521077303 -0.24467830916767225 0.09569927198897832
-0.2161794404511371 -0.3638791348588954 0.09697892410766118
-0.22132282955693391 -0.34905548950557813 0.10352801425467961
-0.22330012424039034 -0.3587086107385646 0.0987794016123914
-0.19147145254658846 -0.3651663865697871 0.09661599142562383
-0.1955275039200702 -0.35311283728008375 0.10336296899329656
-0.20248898370312837 -0.36250861545925245 0.09770470006476872
-0.19947550697373537 -0.363241156543542 0.08977978570472234
-0.2004285107378879 -0.3468297328603755 0.09610756380568974
-0.20948944492386964 -0.35899060031299695 0.09086998445998662
-0.2159263144259372 -0.37009122034435377 0.10728164656173222
-0.22196872038888124 -0.3612684514177333 0.114156386685481
-0.22718239827202943 -0.36430167218570814 0.10556607587348454
-0.19273043675469545 -0.37006821295147047 0.10457431418906682
-0.20010913415002016 -0.3649229910028468 0.11118518455039494
-0.20944419009732393 -0.3666746821058284 0.10343008382331365
-0.20098077757405428 -0.3667385782850276 0.10058753831397527
-0.20408009989308504 -0.3536545540941249 0.10686819894324773
-0.20977597935246614 -0.3633116390359889 0.10013791067611211
-0.21765623493241457 -0.37117346187954053 0.10308935387145512
-0.22074210150288728 -0.3636627699983607 0.10973491413604253
-0.2238822083001056 -0.3660431410921107 0.10285740239631169
-0.20015848679589418 -0.3710475768697749 0.10168751223098271
-0.20413161320733217 -0.36420064231281385 0.10711546881209844
-0.2111946444039264 -0.3671434726369868 0.10089754207145207
-0.20472098393487123 -0.368548830951501 0.09751658780585759
-0.20668687923001436 -0.3536482061994563 0.10335960133086675
-0.21241956455754427 -0.3640423919809352 0.09782766444694035
-0.21190101904915956 -0.3681056108129512 0.1027932081938886
-0.22019065423058656 -0.3566157426488887 0.10978998882781499
-0.224652404618732 -0.36192252298717603 0.10179599268447392
-0.18348869187878755 -0.36841326018695936 0.10008313400756352
-0.19038733346509126 -0.36304922958736524 0.10815530164252751
-0.20195207996415285 -0.3660274948728572 0.09972049934875005
-0.19542109472798494 -0.36843140980129346 0.0949659262419843
-0.19820031030224947 -0.3548905160081874 0.10178222401153081
-0.2053388903860965 -0.3653616811883937 0.094750127625575
