ply
format ascii 1.0
element vertex 129
property float x
property float y
property float z
element face 0
property list uchar int vertex_indices
end_header
0.19686304526282164 0.12127489784831895 0.006153694224467215
0.19351052241278502 0.144253561292838 0.020906410050501763
0.1939061184401593 0.14331109264964953 0.016040644478907524
0.20457564787817809 0.15154934862728014 0.0014440332175397251
0.19875418143225523 0.16309590080852404 0.006158522200694022
0.1960570712561688 0.1598015520917882 0.0012845907927655552
0.20508806900931212 0.15532583931560412 0.0001877759219312046
0.19627331690741393 0.1722219679700841 0.005127034020533499
0.19402055935812804 0.16996760109538928 0.001665583682169852
0.1861701508040509 0.12434650400752915 0.015883407425990044
0.19184004263830992 0.14648241737956896 0.03107886655341619
0.20400076107931944 0.15581358412380114 0.024518540930857598
0.19765751557303282 0.17566938141460314 0.03027494890700811
0.19013314442587706 0.16106159428233996 0.02074789149772161
0.20003514485312315 0.16456306913967028 0.013406685423960623
0.19115858273459288 0.18352807501430407 0.01980974419127935
0.18783949809027525 0.17641026714916125 0.013270995450129447
0.1916836400504193 0.11476124266261949 0.013140520882716116
0.1958405871863446 0.14080793598766222 0.02778261048804754
0.20518325762701842 0.14845950344676867 0.023047617507090508
0.20011817412329527 0.1743768546926488 0.027565947604288994
0.19610398011160704 0.16102177837963 0.021142355036845147
0.19938467936468932 0.15302998760814562 0.013616165948023734
0.19481175141287657 0.1761797759878148 0.017852297854533135
0.19248353438330504 0.168925831114005 0.013297102284541068
0.22517435746146056 0.21247316340083972 0.1355065618277692
0.21992730097723814 0.2476689312803258 0.14560567481528752
0.21442126231146666 0.23598850706691638 0.1411453400374555
0.24685304360342833 0.24992586115474597 0.13485442740928166
0.2355303664679608 0.27542603949184313 0.1440076742888593
0.23018549876166197 0.26024569014186755 0.13661920173179143
0.24582921462012144 0.24742240646953478 0.12836604459296697
0.23415278391791197 0.27371389607067004 0.1375781808615827
0.22878318028403136 0.25817848185176745 0.13038428766738408
0.21798716978979918 0.2393860910284032 0.13535045726310246
0.2148464818472943 0.2670843694555272 0.14634745461951726
0.23956369357062193 0.2819430921422948 0.1360828195334577
0.2311876912589154 0.30189681986446276 0.14518295867454045
0.2237300177092633 0.288141021524619 0.13480844242583745
0.23496680455160948 0.27804685572261706 0.1241525922537946
0.22521941857291075 0.30488295296306506 0.1347380493403577
0.2170151372428021 0.29009164312953845 0.12618794186126225
0.19511633114767882 0.12894285658473864 0.12976621730338567
0.1946101685042462 0.14475197533244982 0.14814179284583562
0.21303318934393736 0.1379909012662877 0.12914761049758428
0.20745258526755186 0.1559490654813756 0.13603972537528508
0.19955800967169615 0.14608938435192004 0.12905063374053471
0.20709495739889952 0.1428052280294408 0.12417628510009282
0.19980054097128722 0.16055441835994616 0.12984382255088323
0.19600205616904112 0.15403867701167956 0.12481557471763127
0.19656079010916563 0.11570442656154527 0.13828139646064275
0.195552815961369 0.1306943390714635 0.15856449944983952
0.2088051934714398 0.13317192534084216 0.1481943641425275
0.204622377919682 0.15326041916484728 0.1549402390242719
0.19425784544897887 0.1412008498060216 0.14521663529883855
0.19962172703696104 0.13835776785488024 0.13818376405250066
0.1961251397605023 0.16553486326808825 0.14254277093421452
0.19145338730765196 0.15232611635799304 0.13712578160773747
0.19729923205328795 0.1151639912473668 0.13465117557059758
0.196166088151463 0.13024855593318835 0.1550944958449506
0.20753495888663145 0.1324592326032628 0.14507280929099553
0.2043883700842938 0.15318704584712878 0.15179609401237004
0.194149007367619 0.1414999459135045 0.1427200947524213
0.19910602765036436 0.13544649819011584 0.1355860148192548
0.19607107834769102 0.16268236378307238 0.1398522172690534
0.191147138642796 0.14996416309947863 0.13493882758628362
0.1970809002394757 0.11508227327937974 0.13562010867606633
0.19612359003973814 0.13020277956600085 0.15613268954764836
0.20782904820395323 0.13255537489528552 0.14601647002707951
0.20444439845038268 0.15303231218929186 0.1527807627440595
0.19400315480185362 0.1413607094633092 0.14344488723289006
0.1991957922453961 0.13606632689113513 0.1363874588729047
0.19611226515723082 0.1634340975629796 0.1406912122489118
0.19126515583945128 0.15056527594203845 0.13564067227851384
0.23072331147147032 0.22753221729869738 0.010358921122660575
0.23157065110159727 0.2587092016088475 0.018896839451899468
0.23108076052618834 0.24778921345348254 0.016947260928263604
0.24744986491156432 0.26430738905544177 0.007253012490382132
0.2400842805380902 0.2889141533720006 0.014863124919047293
0.23780553536368224 0.2744684312688817 0.00935410602103704
0.2447789211745343 0.2653005216466893 0.0010934983016156528
0.2370967169280133 0.2897797916280736 0.008751562667002616
0.2347897191519818 0.2757358644353856 0.0033710811854504915
0.23010729746771666 0.25972254017467394 0.004444501233210501
0.22781818108511778 0.28740246037120715 0.01509915931235784
0.25039075808478206 0.29352779129619494 0.008810422253718314
0.24255387978506895 0.31411821583385363 0.01844950659286016
0.2358355422492108 0.3006551955091466 0.007859549355616507
0.24520992236090514 0.29416746834392443 -0.0018664087532854702
0.23494320111227843 0.3174973223554601 0.007404914927592215
0.2288845677847943 0.24969149569148913 0.005212864709010062
0.2255421777243695 0.27875972727413073 0.016516080927958428
0.24320541815710875 0.286407360826682 0.009389928412547049
0.23750739293051573 0.3057603929388036 0.01992379767905706
0.2311990757460675 0.29627866486186877 0.01028152449141973
0.23847656445456358 0.2894421909200658 0.0016165290595197056
0.22883116202307555 0.3121711705076207 0.011047593188395438
0.21411978201819273 0.16193045118923083 0.10517110569488042
0.20343684153509947 0.19212044218654528 0.12345036013137334
0.2285866637702069 0.20090998152370348 0.09901111466895574
0.21543078618002745 0.22269112805004015 0.10769607765685552
0.21735965208960387 0.2177437637197484 0.10385396225463384
0.2323499818320355 0.1986213419782628 0.10471647126685613
0.21914397673559996 0.2201718781339635 0.1134731386424207
0.22064827876044127 0.21504629591579333 0.10928430302154057
0.20180057482672545 0.16432047823543444 0.09449501974593633
0.19379763798666808 0.1943602655279149 0.11057334287177556
0.21846418576193663 0.21946055630321398 0.0948574159861707
0.20764522747946593 0.23981315830821887 0.1031107221366071
0.20153736071539732 0.23249495962734118 0.09503018004905217
0.2151114244933209 0.21924311855907336 0.09032454235564702
0.20101820425940367 0.2450882885801305 0.09948553783904546
0.19843231635046812 0.23977268675441638 0.09299283368598454
0.2149772544379315 0.18034339884395495 0.0019223902941846226
0.21398525433493468 0.20762569645519152 0.011226883959879813
0.21170615153265807 0.20277542809123889 0.008527061772456107
0.225326826142796 0.20944965818996325 -0.001362302470097604
0.2177587051863751 0.22979874352092639 0.0041710947276257845
0.21732287602377745 0.2218358013975133 -0.0001739646672106411
0.22177385287237975 0.21250409821147814 -0.006495573687443796
0.21362476544333311 0.2328269574987401 -0.0009477521656847622
0.21319400267554137 0.22594530323619738 -0.004994490313420358
0.20591579871130797 0.20532573202724352 -0.005515196490178171
0.20750748114539 0.2333673332082738 0.006290844512095389
0.22400592760992857 0.24091649988765612 -0.0017767633675432827
0.22141980128241393 0.258658656870078 0.004862806630244193
0.20983873801184508 0.24878508785838976 -0.0044334019898272185
0.22073911623907896 0.24767817000026598 -0.008845695423970285
0.21093909935904356 0.26711363533611193 -0.002576180863270822
