ply
format ascii 1.0
element vertex 184
property float x
property float y
property float z
element face 0
property list uchar int vertex_indices
end_header
-0.2109337995772281 0.1388592217313756 0.008061966729273734
-0.21795981628941682 0.15884877184505358 0.022423080039133965
-0.21839665873097566 0.15558273533458605 0.02111502630721563
-0.18847983582066682 0.1490966770994176 0.00812926037322515
-0.19666216774033693 0.16138208845729723 0.013843170237650809
-0.1994335006003299 0.15944952705974474 0.011391035151591239
-0.18877411885308412 0.14839250782604113 0.0060212229014539095
-0.19706302387761263 0.16062415579433337 0.011745265555491385
-0.19973317785309938 0.15875340441341296 0.009325287175288138
-0.1968809614901462 0.1202267501699437 0.01890962464820379
-0.20203712089108614 0.14259291628475085 0.03508379204284185
-0.18083500368642 0.1449598167287816 0.026165268254389702
-0.18764762086915163 0.16590864399547472 0.03411149127494329
-0.1972808490519443 0.15183408001537219 0.024795583319773613
-0.18534837169694093 0.16162819603557482 0.018201402258982598
-0.19264494879292635 0.1818807814466466 0.025239339900126397
-0.20028739674138216 0.11825210789317979 0.01592483265410894
-0.20454178257035402 0.14111829737300768 0.032697013449778496
-0.18651264412449983 0.14367044905300036 0.023328116965403496
-0.19290072722481874 0.16762603262538806 0.030703059268107354
-0.20060593886422304 0.15262819269771472 0.023009232115855156
-0.18946158392476228 0.15796304682369128 0.015920243096461235
-0.19655030472325472 0.17884273270244494 0.02289267523299688
-0.20129617555188326 0.16811085680599108 0.017378202509989678
-0.20647687716530946 0.13656199911708727 0.012174240183939871
-0.21217116220044283 0.1601394508230199 0.02650385243903631
-0.21609556181477693 0.15121198633785143 0.021500191521754204
-0.18013126654671816 0.14591343144054308 0.013738385272135672
-0.1896688441758075 0.1616226528036107 0.020951739382853447
-0.19541531307744173 0.15501458386058703 0.015225729775538382
-0.18706599874543337 0.15393943527812853 0.005993506741633353
-0.19611352188634065 0.16603810528392687 0.012037268710246024
-0.20061638457821993 0.1628319714414586 0.007901719641795096
-0.2329379568819919 0.2035271618711461 0.13388275249015325
-0.23762049777554659 0.23786658981914416 0.1436392579795026
-0.2439695994381824 0.22645516136760607 0.138496807646861
-0.21266331775235323 0.24175513723964587 0.13327356321822637
-0.22219494981812624 0.2645318005430211 0.14242618424903386
-0.2295846740727344 0.2506412361013402 0.13431706173430913
-0.21541423602151064 0.24019731024379626 0.12312384588729375
-0.22544265790032533 0.26428438166255847 0.13228078825484746
-0.23285059137391237 0.2497562263357152 0.12461423022758
-0.22872033221768526 0.2336458657133092 0.13287951691161626
-0.2348825733189502 0.26187575796718493 0.1443804417372846
-0.20821262402581361 0.27401734331722155 0.13358320934783452
-0.21757170064496187 0.290615329538535 0.1427699838400983
-0.22523191077756075 0.2804775331365575 0.13211300117980473
-0.21140284342812685 0.2724726889478673 0.12074186546813481
-0.22433843715237764 0.2993756029951085 0.1326786194564008
-0.23109167320775179 0.28517437914485827 0.12347745044242375
-0.23100701971100954 0.22215391138667956 0.13578300817023747
-0.2370513181214252 0.251101980005454 0.14647417409430974
-0.21331873042630342 0.26493496636028185 0.13614564282905095
-0.22180354101704744 0.282506415640067 0.14495234830390447
-0.22842511041211275 0.2720343563901891 0.1351250921012067
-0.21609648568677095 0.26203967074031725 0.12409140808593266
-0.22798896832513002 0.2891442869054784 0.1355346952201032
-0.23447902007149843 0.27503896692867175 0.1267470930339002
-0.21033687396096376 0.1301897857534398 0.13744699103843205
-0.21287756664799837 0.15026015976543322 0.14909981830131047
-0.21768976254510072 0.13756764868373766 0.14606457097541325
-0.1882369766955295 0.1330710742818822 0.14172726018439763
-0.19228244824456361 0.15068579653377429 0.1478911553145551
-0.19795497758435396 0.1397987697469701 0.14330815417777532
-0.19300333662079958 0.13709629515285388 0.13147862894546025
-0.1976034293894687 0.15086413363094225 0.13732951028357976
-0.2021534691576877 0.14399726132030383 0.13330878956328862
-0.20530436439561037 0.12083132008190049 0.14073341233741277
-0.2049904118304172 0.13701129892940417 0.15383248670112126
-0.2092144141917148 0.12752271631832018 0.14757519109260075
-0.18981256587552217 0.12876797655696764 0.14572399003516667
-0.1937335382227817 0.14980811813945666 0.15238892180930608
-0.20098898811387209 0.13606483677501574 0.14592479808341496
-0.19356213016556886 0.13272989729518786 0.13609694583426946
-0.19857678813981203 0.15265185574169055 0.1420223627806806
-0.20351328952359346 0.14146615007991686 0.1376389775992536
-0.20417654020833162 0.12039781550044908 0.1424527083159589
-0.20510936780022768 0.13678253630275622 0.15568756206046575
-0.20898654563473848 0.12712104061717883 0.14856242282401555
-0.187966431212894 0.1285283062803258 0.14716314418326848
-0.19289020700501588 0.14938808420772448 0.15413265569221013
-0.2002521554951587 0.13560892084712878 0.14704870326529973
-0.19221475226925996 0.1337484810697545 0.13821922881614201
-0.19727371139573244 0.15340126494045153 0.14415066583167546
-0.20231945319222597 0.14195544460887805 0.13947164161216252
-0.20802409453438905 0.130332240854453 0.14118426187049382
-0.21085780365513948 0.14980227688426867 0.15354364259253972
-0.21621059877919344 0.13729638794536486 0.14731310946952336
-0.1821498970513263 0.13283647040004626 0.14294700963508122
-0.1874471257452884 0.1533616278516759 0.14977949006568425
-0.19638379914807466 0.13928146103496447 0.1433203135253095
-0.18807985885190157 0.13618911245937243 0.13319393141280644
-0.19395645959424165 0.15277213791484728 0.1393329416037702
-0.19982528193043855 0.14343697765941515 0.13449524981986516
-0.20672909421967653 0.12988288143749133 0.14188157660972112
-0.20972878737496523 0.14905191401119128 0.154354802203288
-0.21519745392846254 0.13687742689723864 0.1475954566718244
-0.18037549657868532 0.13226843813533679 0.14349876983176701
-0.18586927158879427 0.1529314611303319 0.1505263362647199
-0.19513593120621828 0.13863075712795153 0.14373283727179997
-0.18759327633427766 0.13695920446987048 0.13459046823989385
-0.19331147773312715 0.153650591169547 0.14066564185630315
-0.19944360358761934 0.14403880575771227 0.13569878680716985
-0.20315563185261873 0.12797302940959826 0.14303963525306218
-0.20685095591591982 0.14590764978999987 0.1555706773520612
-0.21274895472573427 0.13512147406215563 0.14680766208182805
-0.17697484297799257 0.1307909582006444 0.14444529159080022
-0.1834304432396808 0.15011692980403796 0.15240185601722234
-0.19388243062543062 0.13695366123790637 0.14421486003409856
-0.18643944962071565 0.13902069071407214 0.1372785483122968
-0.19082474215077547 0.15618831852550402 0.1430514369727277
-0.23747178418683199 0.2046941016065587 0.01481183512221807
-0.2433919112210193 0.23678607681865588 0.022802374196162163
-0.24447474880265382 0.22826863268489733 0.02114694459449285
-0.21554156644391206 0.24244976976985827 0.009217462372889456
-0.2272141973500171 0.2644121144163121 0.01696138722907537
-0.23184433085965303 0.253151426111411 0.011367580723872122
-0.21592409415291933 0.24174738863582507 0.006725720000376639
-0.22775341076897768 0.263552078996848 0.014522603583445487
-0.23228744669007448 0.25253869036312 0.008914849591364798
-0.23687684042500642 0.2538903448926915 0.006495109629740653
-0.24110434455918459 0.2832981441366185 0.01701595528136724
-0.20752009255932954 0.28605116346950427 0.008312634062876639
-0.218291680050365 0.3058264944898595 0.01872458202849859
-0.23245954020070222 0.2933464739667882 0.005958101582636771
-0.21452790005253938 0.29224074820155993 -0.0030801679371691374
-0.22777255876111177 0.31771732309932604 0.006758323741068778
-0.23896429939316896 0.2415624950277318 0.008324286770930228
-0.24342320365952638 0.2727374527799596 0.01870273692618841
-0.21763713164376405 0.28061998823757067 0.012208512854685721
-0.22469830019520906 0.3010370824682225 0.022201320958247124
-0.23555269343899873 0.28860325554485217 0.011145344805827078
-0.22282504541920808 0.28699094990367785 0.0007845674277448032
-0.23380535347508577 0.31282843092555895 0.010446718764414725
-0.2094386915688434 0.16344536284084216 0.090127906632533
-0.21881864471482423 0.19382894972438708 0.10331182820807927
-0.21910397214936403 0.19249791840190783 0.10255288226615422
-0.19708096487569002 0.19398469666118517 0.0850334380389356
-0.20480845375107912 0.2126243207799901 0.09198074681769841
-0.20653838915871767 0.20874840954418078 0.0884891663314008
-0.19463656349229005 0.1922204587804784 0.09009223325263493
-0.20227181417988924 0.21098841169948473 0.09706231100570195
-0.20399428410576967 0.20671404341335192 0.0933424447299146
-0.21853206558274416 0.14937216976756945 0.09940080983649724
-0.22424281640099672 0.18219144085521594 0.11433603508483403
-0.20478286845730928 0.19130284527416125 0.10429298026572698
-0.21359143657731203 0.2188513968336095 0.11229025466453069
-0.2195881853823581 0.20960707405681506 0.10587554318915837
-0.20903354389714388 0.1955635640966405 0.09628756983291142
-0.21904171509789613 0.22164143065090075 0.10397850615989201
-0.2225481669430652 0.21522987822170153 0.09884583098899358
-0.21756009264039186 0.15262837151164904 0.10075121266852849
-0.22342842323826936 0.18557853439922228 0.11569135530005925
-0.20239391429471162 0.19592607954616442 0.10504873735915654
-0.2108403245930591 0.2220327351438512 0.11314102156173222
-0.21824159724759248 0.21265299061412707 0.10625921828757756
-0.2059502701287189 0.19940311649913683 0.09712981326591008
-0.21694379551457552 0.22578007916088 0.1053101633311414
-0.21992131574200777 0.21867353657359972 0.09968348486434453
-0.2194096694712558 0.16558117607707873 0.006825110745539603
-0.22702203197526125 0.19501335362071887 0.018311223816981255
-0.22462205095338014 0.19884915093059435 0.019208512139429985
-0.2043994019751468 0.19579888323421374 0.004075190854182181
-0.21400862438725618 0.21350337008113757 0.009527436328043875
-0.21592497332142976 0.2115538213598241 0.00797950370322698
-0.20430345339821962 0.19855237940425768 0.01056199414741033
-0.21364943189667848 0.21719695070857897 0.015985301566233574
-0.2149964968686023 0.2139763329374303 0.014128646683802542
-0.2214272419934192 0.18525273541088 0.017865351271738945
-0.22358667357014803 0.21411407927150622 0.031783959698786675
-0.19585826499509004 0.22116065958614245 0.023049614262690483
-0.2049259643082538 0.24417210558528796 0.031910798382868706
-0.21647986276196626 0.2302675936567296 0.02145086867820257
-0.20175584657239107 0.2311008069860448 0.012007675004115042
-0.2123683641676822 0.25444806555385485 0.020422330927958428
-0.21783135337876466 0.24330742100353137 0.013441881966700491
-0.22155506415414003 0.1726685855733861 0.01770871026526922
-0.22196915252255586 0.20302141646022692 0.03211831195365423
-0.20077687008427766 0.21255202034587756 0.02401783211242193
-0.20884400112675813 0.2403854225027074 0.03111045701514715
-0.21526154382275728 0.2252246830808629 0.023216924500575005
-0.2063600520615497 0.22058207729930773 0.014191887211909232
-0.213795448375217 0.2447528336393346 0.020765147042384087
-0.21849935753392366 0.2347704265462865 0.015142134261240897
