ply
format ascii 1.0
element vertex 134
property float x
property float y
property float z
element face 0
property list uchar int vertex_indices
end_header
-0.23155420525120882 0.31511409023876086 0.004920652937998709
-0.23164717359589723 0.3356554005491246 0.014043114018549857
-0.23616344733285097 0.3262098524915685 0.012021711897959647
-0.2118105690007129 0.3176028821813573 0.009436151814570365
-0.21380164725827364 0.33426947334880724 0.01353501422416204
-0.21955541772889284 0.32527602652187243 0.010877094102015433
-0.21484629316376833 0.31685967186565295 -0.001034923958668771
-0.2182558427576938 0.33222598770732775 0.003380439114680228
-0.2227639804606357 0.32465297917003527 0.0006770406485699986
-0.21519214911507753 0.2994800899373998 0.010288617444148001
-0.22022529943036226 0.3155279252874364 0.02170156581412786
-0.2251966844324985 0.3100670073377599 0.010664961171259818
-0.20229453845070985 0.31403512695903674 0.015321723055949149
-0.21038439376401094 0.32717628220195666 0.022700420451273857
-0.21530274553345827 0.31825674513454333 0.012835345101466116
-0.20602975292252687 0.32980609873409167 0.009019664359202323
-0.21000149352597383 0.3513884637701024 0.015418491196741995
-0.21679664654778627 0.33704466560954943 0.008548787665476737
-0.21976728243874696 0.2942053768980016 0.007817259860148367
-0.22232503695534853 0.31001521090145007 0.019863984418024956
-0.22376976413773683 0.3052325342046727 0.011433652472605643
-0.21122499806927827 0.3091651890623082 0.01447199924003118
-0.2160772631888309 0.32696408966655627 0.020863941741099297
-0.22034671409176973 0.31546605566615954 0.012778333258738455
-0.21364588542031435 0.32122857311839953 0.008417448830714163
-0.21652087075757173 0.3441948387968053 0.01363225920211309
-0.22111470503853944 0.32940430382366076 0.00831519706260198
-0.22653598589944032 0.30908645132655993 0.007492474150767264
-0.2277603845124164 0.3293359372961034 0.018698236775507866
-0.23378407461690096 0.3197192046987523 0.011685780120005545
-0.20682827634858278 0.3152185771810521 0.011239311528315482
-0.2105920861487308 0.3356682751523961 0.017237416339030205
-0.21963318688916353 0.3218886349546422 0.011011651587595877
-0.21266741557168153 0.3208604548322667 0.002239814829935965
-0.21638757987069276 0.33775139788265124 0.0070356343508862825
-0.2230536441330829 0.3278007600652684 0.0028693888903760286
-0.21335434420155672 0.33831692675228014 0.14415281159888738
-0.21663966281460909 0.3589624259817113 0.15524463994513982
-0.22176889581727174 0.3504485581266393 0.15106653316031926
-0.1898864011292377 0.34218073824520007 0.14589749915610783
-0.19310004515694765 0.3613703344213475 0.15332751615058415
-0.20063793165730623 0.34956187943096056 0.14788126094352239
-0.19241538150357393 0.3426321242200841 0.13466142756949895
-0.19496522350358156 0.36345804670925036 0.14120726926337712
-0.2024634729151645 0.350192019735526 0.1371814523459577
-0.2057278851990619 0.32667119244213 0.1520374332190656
-0.2108737180952945 0.33881081083888903 0.16480015857230657
-0.21454588575410036 0.3363767359601964 0.15545969350348943
-0.19194304449605135 0.33736986855144396 0.15416871650229924
-0.2007525513892093 0.35122991541499987 0.16112749917518132
-0.20653801662968782 0.3435543868886937 0.15312134368430608
-0.19674865407990602 0.3459399435865392 0.14845447881232732
-0.2003321151261249 0.36564511993999377 0.15483455998908513
-0.20642633242653993 0.3520644400465001 0.14842598779212468
-0.20830699307965425 0.326271543298911 0.15008603675376408
-0.21208810312794832 0.33812464216823473 0.16298269374381535
-0.2151205490355411 0.3360291216718663 0.1553408418418073
-0.19554088516282228 0.3362121079313268 0.1525189195395612
-0.2021907667641559 0.35081721285457507 0.15913390262137883
-0.20703054471062807 0.34244115093822375 0.15185468537818425
-0.19898285968350557 0.3417698834287633 0.14590286357413762
-0.20207164688157228 0.3618921730863561 0.15200631959449284
-0.2082722435717502 0.3486440275060643 0.14644192798148625
-0.24104524655388979 0.31021148899669543 0.08655603868972295
-0.24821495516347078 0.329634318147849 0.10139118773948186
-0.25220976276444584 0.3224747274267186 0.09713535649787419
-0.21569974226998476 0.3142367098676671 0.08315461022864812
-0.2220320503239551 0.3243479822027196 0.08885904295455449
-0.22663771612691072 0.3194899056303014 0.08370920164596074
-0.21860698862122682 0.3178942892896642 0.07875298602591985
-0.2262330452923694 0.3285012934553136 0.0842097018481397
-0.22878352804230837 0.32480050066585436 0.08014564855109685
-0.23082820577668337 0.2958435509550084 0.09255336864005559
-0.23386692507313875 0.3165419791090001 0.10715352637778752
-0.2384151618008533 0.3066674564229955 0.09985410316001408
-0.2139506737713733 0.31020660141582385 0.0981448505641126
-0.22077266378449587 0.3295425269948949 0.10420470578681462
-0.22886269791173128 0.31795049646968737 0.09760387880813115
-0.21987890703725008 0.32078112105007067 0.0903870676280164
-0.2287626217131534 0.3366801832067479 0.09658589108001225
-0.2316174755816379 0.3301357124196996 0.09128024322997563
-0.23119133217381624 0.29622448423976794 0.09228264434348576
-0.23413814110802797 0.31686235407466784 0.10689528925429814
-0.23850243790196565 0.30698216894740954 0.09982781751166814
-0.21431479854630617 0.3103444669591893 0.09779893500815862
-0.22113231821107057 0.3295208905088414 0.10383181912909978
-0.22894407315301088 0.3182252738821019 0.09735488040458196
-0.22013815743970064 0.3205475900518407 0.09000711781989568
-0.22891169292973665 0.33618677595729723 0.09610953075896733
-0.23155106110619691 0.329889604841422 0.09093441708098882
-0.231316919160358 0.30581862667674914 0.09217252476226323
-0.23681747419881014 0.32595051268215075 0.10641174657355779
-0.24394429726647524 0.3172185514318456 0.09858237845908635
-0.20459965868043092 0.3115933034765233 0.09297581655990117
-0.20996058983849672 0.3262292240011205 0.09943672163497441
-0.2208338479523578 0.31637019852275744 0.09222867233764165
-0.2120152364497104 0.3187503908025731 0.0867482040644788
-0.22205417854832796 0.33180649021739855 0.09283920271407597
-0.22661493225144533 0.3264428470479955 0.08726584060203069
-0.228230724764339 0.30401302317256823 0.09331392390738957
-0.23322779936837343 0.32484049538249865 0.1073148761511945
-0.2029183606629291 0.31213451365108386 0.09682302815925115
-0.2088106821303287 0.329211840425681 0.10395144565116399
-0.22220846517132906 0.31719464996929064 0.09576751930724614
-0.21332813305901674 0.32411993483180895 0.08992668135177129
-0.222035194468967 0.3387699816572179 0.0960003648520612
-0.22739721341179994 0.3306764457571019 0.08952172739516728
-0.20654686791943697 0.339524934087943 0.050666979384531914
-0.2059752146725574 0.3534737918722142 0.056629291606059014
-0.20950969560193208 0.3482178542959203 0.052524528336634575
-0.19279850525902895 0.34017873743648425 0.05412938339721197
-0.19466098649548677 0.3552361224042882 0.05910243732940191
-0.1989495853905597 0.34546799400920764 0.054851106238474785
-0.19448564453171877 0.340299019609641 0.04397912962447637
-0.19488897426175264 0.3578589055883397 0.04911809308539861
-0.20108361048745302 0.346011111532401 0.04548808081161016
-0.20033190650986818 0.33148224094982043 0.05789353592406744
-0.205872486067287 0.3393878434049596 0.06494154675017827
-0.21103134257840303 0.3388121221410741 0.05613794071685308
-0.18789556129025606 0.3397256229269017 0.05769317491065496
-0.1956176261429706 0.3449884746419896 0.06369756801139348
-0.19847571356343416 0.34194464424724474 0.055471143555750786
-0.19046659274148134 0.350713202749442 0.05493029100905889
-0.19516460104035524 0.362759420667838 0.0610769007922315
-0.1989527444367328 0.3548454139577855 0.054000220131983696
-0.2005171726469913 0.3221345041143407 0.05265401942740911
-0.20217683417843965 0.3293645475255956 0.059826752972712456
-0.205482060742847 0.33128798941249743 0.05362986667167181
-0.1962342659954944 0.33231563309306994 0.05563717229377264
-0.19938715798901704 0.33808732966060534 0.059849641156306206
-0.20015881462144045 0.3352171275960912 0.054174533915629326
-0.19736673934506563 0.3421930168020238 0.053898713421931206
-0.20040915412949709 0.3548251483785619 0.059083095622172295
-0.20190219087647585 0.346907267366599 0.05373375756751531
