ply
format ascii 1.0
element vertex 106
property float x
property float y
property float z
element face 0
property list uchar int vertex_indices
end_header
-0.11389903230713991 0.12306738833064927 0.1929978047133588
-0.11499206228303102 0.14436955193157092 0.20561402184974187
-0.12274336321400789 0.1363396141874303 0.19903194053184026
-0.08990548057603029 0.1264296267377843 0.19513171060096257
-0.09231589241074709 0.14348454216594592 0.20084648473273747
-0.10265941424416689 0.13260258177394763 0.19538783175956242
-0.0970046619896808 0.1293607447492589 0.1854371939421796
-0.10341403884934572 0.14482135513896838 0.19061636073600285
-0.1093686322693744 0.13716871479625597 0.1864861760855817
-0.10924677057313112 0.12218863705272569 0.20743244035254949
-0.11315585179375795 0.13697142342204943 0.21845131261359685
-0.11934391660737184 0.13260711172695056 0.20655720574866765
-0.09019170208024171 0.13763327339763537 0.2097878371001386
-0.10304219527291444 0.14827079514140978 0.21791898353110783
-0.10638166470574525 0.1411277149068822 0.20792811257850163
-0.09659836692856935 0.1517393682348241 0.20196454865943425
-0.10291699571656374 0.17219586113567248 0.20893710000525945
-0.10967839760827211 0.15869898537273303 0.20162277562629216
-0.11238266034173158 0.11473424175853623 0.20073007686149114
-0.11472950382279543 0.13000441530818835 0.21318661315452092
-0.11822942895936159 0.12671513298625842 0.20349167926322453
-0.1025249461655536 0.13290304878826037 0.20522140605460637
-0.10927663250016359 0.1480232570516576 0.2114580784560346
-0.11108813686417726 0.13755161503429308 0.20350538833152287
-0.1069797973160663 0.14578474501247302 0.1972598944426679
-0.11057202024506715 0.1672853920804967 0.20238720519553655
-0.11500983936833528 0.15289402941341296 0.19696300370704167
-0.1541459362034717 0.21839560011501208 0.2020988379241132
-0.162603865099422 0.25750345924968615 0.21147166831504338
-0.16475258274125246 0.24686695078487292 0.21012847764502995
-0.12977408869313387 0.2548320386754979 0.1967987333060407
-0.14250432951497224 0.2810844872343053 0.20655887467872136
-0.14496054751919893 0.26689583996410265 0.20055084569465154
-0.1314495901589313 0.2553520892011632 0.19341581208716863
-0.14420334501313356 0.28151614407176867 0.20320468289863103
-0.14668261511372713 0.2676007244932164 0.19725000007163518
-0.1600036273722568 0.2624355647909154 0.19973610980521672
-0.16607954604672578 0.28746158817882433 0.21109896047126286
-0.12607416017102388 0.29060436228389636 0.2000815187216901
-0.1421616922144809 0.31276548842067614 0.21013890845786565
-0.15109329922246126 0.2970657441961278 0.19803231103431218
-0.13566372795151857 0.29008925894374743 0.19062238080512517
-0.14941074950741914 0.3145943973409642 0.2008919630767011
-0.05924997730302004 0.20202935675258532 0.1931657109976911
-0.06587127847718385 0.23167742231960192 0.20102619273673528
-0.0661918322567859 0.22355259398097888 0.1987615142584943
-0.0367523233418384 0.2342237327444066 0.1862798248053693
-0.04839245481537966 0.2548635695325841 0.19354771716605657
-0.05322251720475344 0.2439799402105321 0.18761979682456487
-0.03917578859376101 0.2357212994443883 0.18217079980384343
-0.051041225624553245 0.2561453674184789 0.18953680140983098
-0.05577878160523562 0.2456724737035741 0.18362062318336003
-0.05860475702332644 0.24331814983959094 0.1906586204291486
-0.06143615646409182 0.2716549728261937 0.2003639851332807
-0.027424881887904685 0.27071655729884997 0.18978350503455632
-0.037318656874171775 0.2924699876653661 0.19973801715384953
-0.053129742575160545 0.27930266598338976 0.18775915248404973
-0.03474296135949282 0.27981282213802233 0.18051402909766667
-0.047463158798686546 0.30360514858837023 0.18949668748389714
-0.059577475023738426 0.22672373989696398 0.19272624595176213
-0.06237922115372805 0.2577118966924657 0.2018895660163068
-0.036950270367137474 0.2625493500577916 0.19465105874549382
-0.04264671607064394 0.2841752264844884 0.20317899329673283
-0.05432219309853701 0.27053661087627306 0.19339012248527043
-0.04208512110757021 0.2692727539884557 0.18366401536475652
-0.05282614631699709 0.2937739584791173 0.19219987733375066
-0.13118756814049867 0.15913386086101428 0.21359031541358464
-0.14330313606309084 0.19109476545925036 0.23295038087378972
-0.11491099996613649 0.1923713181364049 0.20724099023353093
-0.12755701942490724 0.20910299757594958 0.21586822612296575
-0.12764654560135988 0.20514936188335314 0.21202658755790227
-0.11221165461587099 0.19031179884548083 0.21150927884589665
-0.12502434356259493 0.2066944930898656 0.21991961343299382
-0.12519821031140474 0.20249016026134387 0.2158557091475629
-0.15559729440259126 0.16607553700084582 0.20253568036567204
-0.15987286968278078 0.19294841030712023 0.2184453521491193
-0.12938145799683717 0.21165991762752429 0.20275633676063054
-0.14114944143342165 0.2280783150541295 0.21111499412070744
-0.1516112486843982 0.22004599312419787 0.20081745727073186
-0.1327731858019748 0.2154341433393468 0.19497948033820622
-0.15016780300187257 0.23879528978938952 0.20538323266517156
-0.05632991595315127 0.14626736382121935 0.17443423612128728
-0.06009350223588137 0.17152983883495226 0.18690823657523625
-0.06183661027001528 0.16619516352291003 0.1853446875334882
-0.034882287216655296 0.1592912171232213 0.17530088765632146
-0.04347575707482485 0.17398453692073718 0.18084495408545964
-0.046305189562312644 0.17107618788356677 0.1783167038680219
-0.03646034998940615 0.15824366549129382 0.16917120559226506
-0.045152763557902854 0.1724782083379735 0.17465423686515325
-0.04803142948197512 0.17017127016658679 0.17232321841727727
-0.04280583066987185 0.13610304335231677 0.18525504214774602
-0.04802156491326479 0.15910542944545641 0.20017128331672185
-0.02313710255669741 0.16132445076579943 0.1900035057784223
-0.03343726201104311 0.17888105848903552 0.198960891795268
-0.0394780735497394 0.16734142044658556 0.18798410041343205
-0.028660843801967185 0.1785020325529088 0.18031757218848699
-0.036249885988704246 0.20279044846172228 0.18773364169608586
-0.04423908395814089 0.18873072603816882 0.18091153247367375
-0.04647860927628664 0.12976343372936144 0.18190704925071233
-0.05038295192765383 0.1537285540449132 0.19761841638099187
-0.03423110647248415 0.1613460872518529 0.1887367878676557
-0.04065329833077578 0.18334240654582873 0.19587080819617742
-0.04515577359246401 0.16909671763057604 0.18695770843039983
-0.038151542377940696 0.175928423200797 0.18006484849463933
-0.042808334064952415 0.19918514231319323 0.18549280507575505
-0.048554043007365745 0.1859091017591466 0.18015586478721135
