ply
format ascii 1.0
element vertex 219
property float x
property float y
property float z
element face 0
property list uchar int vertex_indices
end_header
0.16771226124716612 -0.3881582226408015 -0.11605820910919673
0.16022329525900694 -0.38122819920902357 -0.10539633886803157
0.15713041024161192 -0.386249950135995 -0.11117429392326839
0.19061439232779356 -0.38927276989345655 -0.11207882421005733
0.18109588818503233 -0.3848860766542445 -0.10382697837341792
0.17678784327460143 -0.3905389215600978 -0.11238450663078792
0.18144272761298033 -0.3867920543802272 -0.11960723357189662
0.17858391003561827 -0.37319489380245313 -0.11311615364540584
0.1694837708945355 -0.3841788675439845 -0.12159814791668422
0.163706531095036 -0.38923420568828687 -0.10626632826317317
0.15723650650931212 -0.38852362891559705 -0.09810016410339839
0.18342172102881285 -0.3867750670564662 -0.10628656404007442
0.17301832632971617 -0.38726129194622144 -0.09736559646118648
0.16510169701529356 -0.38775201698665723 -0.10732705252159602
0.17648594574881407 -0.3839865829599391 -0.11153162376869685
0.16560690598440977 -0.37411954065685377 -0.10533113138664729
0.16189109282446715 -0.3801311757219325 -0.11372191565025813
0.16207956271124693 -0.3921465780389796 -0.11346344010818965
0.1581063170905194 -0.38926919361477 -0.10632938997734553
0.15443580346060606 -0.39007320066814527 -0.11159587757576472
0.17519014077139708 -0.3915044870031367 -0.11162651436317927
0.16692697005225035 -0.3872775938165675 -0.10552419083107478
0.161908914613255 -0.38929646273975477 -0.11278615252960689
0.17038737730933043 -0.38947238584880933 -0.11499346153725154
0.16488008694601866 -0.37973167559032545 -0.11019054906357295
0.16320305066061827 -0.38624860903148756 -0.11632939534176356
0.1610183020110211 -0.39398800393467054 -0.11099953310478694
0.1567112107749066 -0.3920156266344081 -0.1032178785084582
0.15214871363592955 -0.3922250773561488 -0.10953194754112727
0.17491601901007506 -0.3927935268533717 -0.10934529559601314
0.16660456852866026 -0.38962369223957166 -0.10272822635162837
0.1609001060004315 -0.3911799993169795 -0.11073146121490962
0.17039476828528258 -0.3901883568418513 -0.112831899094472
0.16336130099249693 -0.38043885489826307 -0.10770521419037349
0.16135065751028868 -0.38676690122013196 -0.11451951520432002
0.2180721064086041 -0.266358455623437 -0.04695684568871027
0.21656184391928526 -0.2541420813453685 -0.0413342799424029
0.21771501498175475 -0.2549457158697139 -0.04536981241692072
0.22240905957175108 -0.24394648333912 -0.04431358830917841
0.21930818753195616 -0.23711942693119153 -0.039239355492482246
0.21806686119986388 -0.23983184059982404 -0.044175186324009956
0.22073327498389098 -0.24462380072002515 -0.053600200581440986
0.2154478331084332 -0.23441613277320966 -0.047137209343800605
0.2136015792365155 -0.23932923933391675 -0.052955844569096626
0.21674787001562926 -0.25156917234783277 -0.04965988652695185
0.21531217293692442 -0.24125916322593793 -0.04349971668709284
0.2157261271948895 -0.24087395330791578 -0.048211940693745674
0.22091095642996642 -0.23101732691650495 -0.04713557021606928
0.21827738480521056 -0.22525582274322614 -0.04187638418663508
0.21674030022574278 -0.22737947663192853 -0.04796422379005915
0.2197917600150189 -0.23329885860805616 -0.054896691012272895
0.21422099070502135 -0.22353464921836957 -0.04797364132393366
0.2119908829207501 -0.22759348710899457 -0.05415672914970881
0.21437769131613585 -0.25018528660659894 -0.0493245507954455
0.21301220850897643 -0.24199788829212293 -0.04357458012093073
0.21552311377478453 -0.23936729689960584 -0.047669478821644844
0.21614961819601866 -0.2317292596948634 -0.048166283535847725
0.21302699046088072 -0.22545268198375806 -0.04277608649719721
0.2143613596434674 -0.2262387927425395 -0.04789737718094355
0.21382283167792174 -0.23358297904853925 -0.053549536633381904
0.2105808158392987 -0.22544521650199995 -0.0475409712075091
0.20868753390265318 -0.22796515187149152 -0.05275926845062739
0.22863130764914366 -0.3396905865324031 -0.1501626457451678
0.22946762041998717 -0.3130316939008723 -0.14088090615261561
0.226494719552525 -0.321168025935937 -0.14543273406017787
0.23378520207358214 -0.3115192260396968 -0.14317528264511592
0.23290376858664366 -0.28728838821773633 -0.13827522950161464
0.22863738732291075 -0.30081029793148145 -0.14388703660954005
0.22877489523840758 -0.31022422572498426 -0.155750760006795
0.22662537293387267 -0.2826292719495784 -0.15141330020416743
0.2226415176863751 -0.2968353535783778 -0.15559730784882075
0.22544371085120055 -0.3235303070199977 -0.15344313638199336
0.22578643755865904 -0.2996224667680751 -0.14197344439018733
0.23640876011801573 -0.2930357064855586 -0.14550275461662776
0.23199014859152647 -0.2734361197603236 -0.13818990545261867
0.22679983572913023 -0.28450711628322706 -0.14764636116016872
0.2311673064704022 -0.28684928079967603 -0.15528940515507228
0.22973554329825255 -0.2600319590223323 -0.14911375300873286
0.22398905949545714 -0.27490060588245496 -0.15539842205036647
0.219422866868504 -0.3567780162942897 -0.06755671756256587
0.21829949812842223 -0.3305565919530879 -0.05595991866577631
0.21251361565543028 -0.3390516247404109 -0.06329474704254634
0.23463891940070006 -0.3425795938623439 -0.06372926490295894
0.23135750489188048 -0.3206073846471797 -0.057990470099339546
0.22184287505102965 -0.333600899184991 -0.06446120994080073
0.2277513046736798 -0.332746406997491 -0.07435036556709773
0.22387402253104063 -0.31257601639156446 -0.0696366812466479
0.21731757121039244 -0.3230739142549525 -0.0742850388764239
0.22225998835516783 -0.3540745582235347 -0.05766091601837641
0.21974449353171202 -0.3361854161870967 -0.04397691147316462
0.23795830206824156 -0.3310022558820735 -0.052956261801610054
0.22763871149969908 -0.31537022253399 -0.04506261007774836
0.22430639462424132 -0.32542370816593275 -0.05528337614525324
0.2310067315573773 -0.32097323795681104 -0.06233126776207453
0.2260793943877301 -0.29635377785091505 -0.056507417130360664
0.21976058678580138 -0.31064080258731946 -0.06349025027740962
0.21768926577521178 -0.2726517226350795 -0.14935775952328212
0.21820383267355772 -0.2527650501382838 -0.14264824347485072
0.2225623627181134 -0.2574299182546626 -0.14636912302959926
0.22612678008032652 -0.24852467140083417 -0.1460924084662295
0.22253512339545103 -0.23606210013752088 -0.1388602639912463
0.221479227113255 -0.24205451270465955 -0.14438373701561458
0.22285770373297545 -0.24848105570201978 -0.1566561247586108
0.21846537785483214 -0.2329144086492549 -0.14905800776470668
0.21658884482336851 -0.24184811672096357 -0.15497463302601344
0.21574186282111021 -0.2545421477211009 -0.15143483238209254
0.21326356129599425 -0.23976743778114423 -0.1438249285696841
0.21759026246023985 -0.24056639334087476 -0.1490673954962588
0.22293375925970885 -0.23281236549739942 -0.1502450044630862
0.22045456366492125 -0.22600949367408857 -0.14301117615688808
0.2175499697203717 -0.22800352236156568 -0.14975544171322352
0.21939735608054015 -0.23358500560646162 -0.1547695930479861
0.21395980315161559 -0.2240739818466197 -0.14809867100704677
0.2127467890257916 -0.22946206292038068 -0.15508795635689265
0.2156752844328961 -0.2563138361824046 -0.15086571233261592
0.21526395277930113 -0.24504346212272748 -0.14289613919247157
0.22034185128165099 -0.24031088312988386 -0.14757704095829494
0.21858035521460387 -0.23558338543300733 -0.14930973308075435
0.21511279540015074 -0.2301210667741786 -0.14299718396652705
0.21653204159689757 -0.23013479074363813 -0.14802105085838801
0.21625642971945616 -0.23563424309616193 -0.1518071825980044
0.21210919814062926 -0.2295482512367259 -0.14553036646831996
0.21154581503821226 -0.23199631830577955 -0.15141453700054652
0.22771679358435484 -0.3240960147035609 -0.10145808117378718
0.22603814797354552 -0.29397316833858594 -0.09281272547234065
0.22269790368033263 -0.3043705131662379 -0.09604833381165034
0.23609732584906432 -0.28830434938793287 -0.09717524902809627
0.23233198122931334 -0.2633196320188533 -0.0907015587567187
0.2280608315939984 -0.2779205944192897 -0.09657649056900508
0.2326125402922711 -0.28922091981296644 -0.10842651979912288
0.22867899136496397 -0.26294449528579816 -0.10211206333626277
0.22356300549460265 -0.27778386136417493 -0.10753495352257258
0.22151570515585753 -0.2938066329610835 -0.10665432469833858
0.2208836575026593 -0.26527505179767713 -0.09586719529617793
0.23460619645071837 -0.2561414595497142 -0.10129798309792049
0.23226421074820372 -0.2349447663677226 -0.09364817397583491
0.22255348162604185 -0.24755101462726697 -0.10270095722664363
0.23012869553519102 -0.25417367180709943 -0.11319203035820491
0.22496991352988097 -0.22535682281379804 -0.10445044295776851
0.21956365303946349 -0.24100949427013502 -0.11172200100410945
0.18535815672827574 -0.3798223342550288 -0.15269086616028316
0.18255274491263243 -0.35960551163082227 -0.14238990204323299
0.17595677571249815 -0.3702749814641963 -0.14945451276291377
0.2148854632849774 -0.3801832999837886 -0.156392091083417
0.20674436287833067 -0.36507861873035535 -0.15007925884712703
0.19837628798437926 -0.3778026606691371 -0.15801710741508967
0.20807634787512633 -0.3738993312967311 -0.16239423410881526
0.2001219888205609 -0.35774665137653455 -0.15655716614712245
0.1928418179030499 -0.3676049615991603 -0.16274916486729152
0.17594443755102965 -0.3787680472982417 -0.14307782905090816
0.1749406357283673 -0.3717025127065669 -0.13192971901882655
0.20666377739859434 -0.37120153566722974 -0.14325020568359859
0.19037519888830992 -0.3648632373464595 -0.1332944269656039
0.18251596884680601 -0.37087192198162183 -0.14611888782967097
0.1936283011908612 -0.36449249645595655 -0.15510755138386256
0.18430458502722594 -0.3441494609964381 -0.14768426971424586
0.17697166399908873 -0.3588454332006465 -0.15643999831665523
0.18224506573630186 -0.39087813159351453 -0.14750819759357936
0.18098544077826353 -0.3748685922277461 -0.13579236822117335
0.1719103951926312 -0.3795518185747157 -0.14816779749382503
0.2035304804320416 -0.374740978683282 -0.14629472153175838
0.19094531731558653 -0.36304928919201 -0.13830836968410976
0.18572919564200255 -0.3718790616643916 -0.14827885584820277
0.19547163443518492 -0.37030463477497205 -0.15667566018093593
0.1890024443144879 -0.3497680630338679 -0.15045439558018214
0.18127660946799132 -0.3631001319540034 -0.15771243827332027
0.1756483216757855 -0.3738832678449641 -0.05572513597000605
0.16873334841681334 -0.3608314301622401 -0.0440750505207873
0.16508679585409972 -0.36924379130725965 -0.04980085151184565
0.19804989294958922 -0.3731622602594386 -0.05115340011108881
0.1889399786467633 -0.36208351513271436 -0.0438158895253039
0.18601786093664976 -0.3719842042577754 -0.05235345022667414
0.19075273470831725 -0.37336685320263013 -0.06024343626488215
0.18966834740591856 -0.35545997878437147 -0.05503551022995478
0.1799713869566998 -0.3677391614568721 -0.06201417105186945
0.17589311795187804 -0.3784643616331111 -0.04630038993347651
0.17173396544409605 -0.3748620357168208 -0.03549898521889216
0.19129644827795836 -0.3737209941995631 -0.04207188742149836
0.18254636721564146 -0.3686424698484431 -0.035209485459218086
0.1763054628844342 -0.3718683626306544 -0.044755288529286445
0.18557344870520445 -0.37272473236446485 -0.049008735585103096
0.1795555849547467 -0.35608147641544446 -0.04329828279007441
0.17519967751456114 -0.36646889706974134 -0.05117479817856318
0.17438142495108458 -0.38168208857898817 -0.05149767653931147
0.17312042908621642 -0.37758143803005323 -0.041435071396718086
0.16793816285086485 -0.37836249729518995 -0.04679901258934504
0.18517719702673766 -0.37724377771740064 -0.046474226879963935
0.1775203247542462 -0.36838205715541944 -0.0405078913449145
0.17247514920187804 -0.3730232026231776 -0.04883880274284846
0.17980538802100035 -0.3761033620489131 -0.05287871615875727
0.1767440338606915 -0.35804848929767713 -0.04812336819160944
0.17343836026144835 -0.36974467893962965 -0.05465868966568476
0.17441033320380064 -0.38187923094158277 -0.050877281594166816
0.17278592781973692 -0.3778411056650172 -0.04067287700165278
0.16758864121390196 -0.3786091115129481 -0.046284415888676704
0.18563013272238585 -0.3773233797204982 -0.04588992254723078
0.17794143156958434 -0.3689137901914607 -0.039907404351124824
0.17272024350119444 -0.3733759429109584 -0.04836911814201838
0.1799384851927838 -0.3758751358640681 -0.05233097927559382
0.17663161950064513 -0.3580223526609431 -0.04750169174660212
0.17355995373679015 -0.369658073390771 -0.05421165482986933
0.24219708638144347 -0.31719513794307813 -0.04807735340584284
0.24349283175421568 -0.29327609201793775 -0.040127107071766914
0.24162428574515196 -0.3016585614336024 -0.04276485102165705
0.2454383869643292 -0.2929325904500972 -0.04062891857613093
0.24506532149268004 -0.26766065319900617 -0.03557185189713007
0.2428616185660443 -0.28129186293010816 -0.04054547207344538
0.24158017830801817 -0.29305618068103895 -0.05198288815010554
0.24084900813055846 -0.26617572268371686 -0.04721550004471308
0.23796992497397276 -0.2803996708047877 -0.05155081408012873
0.23702656226111266 -0.30769618412380323 -0.05275950686920649
0.23846017317725035 -0.2835658397329341 -0.042489477562794746
0.23718743519736143 -0.2922373916757594 -0.0487311567543841
0.24189560608816954 -0.2790984418046962 -0.04407546775330073
0.24167959885550352 -0.25333124956016645 -0.03754974262703425
0.23779415087653014 -0.2668162490976344 -0.044736155438313545
0.2353094716544232 -0.27465481122856245 -0.05364746706474787
0.23684679465247008 -0.24634580870990858 -0.048790582585225166
0.23238556580496642 -0.2604473586929332 -0.05373454945076472
