ply
format ascii 1.0
element vertex 227
property float x
property float y
property float z
element face 0
property list uchar int vertex_indices
end_header
-0.03512261314438967 -0.2898377086771022 -0.1070730473278857
-0.03994450969742922 -0.2747956719053279 -0.10163764016617305
-0.04109645886468081 -0.2811398412836085 -0.10704676167953975
-0.01822624607133059 -0.2799841668260585 -0.10643852608192927
-0.02481270833062319 -0.27115862628345594 -0.09956593172539241
-0.03106496734666018 -0.2750090267313014 -0.10665384786118037
-0.021488438082210105 -0.2841611411226283 -0.11545839266766078
-0.029605964851848167 -0.2705398555648814 -0.10841471807945735
-0.03525442881631045 -0.2779150213850032 -0.11510560767639644
-0.04090545578049807 -0.2796498145711909 -0.10485748307693965
-0.046765277815333885 -0.26960364540939435 -0.09849817411888606
-0.04906872911500124 -0.2728262450349818 -0.10674224154938228
-0.02104611201333193 -0.27151831051235303 -0.107223429846654
-0.030788968039027732 -0.26722743173961744 -0.09866414325226314
-0.037663410139552635 -0.26843090912227735 -0.10825393455017573
-0.02485189838456301 -0.2710296120298396 -0.11390332238663203
-0.0331856410031238 -0.2606592234027873 -0.10672266142357356
-0.03743062419938235 -0.2661417033327113 -0.11429716007698543
-0.044197122288219017 -0.29196914097194776 -0.10351453082550532
-0.04764590663956789 -0.2809054758203517 -0.09704164521683223
-0.04694561166810183 -0.2823427524221431 -0.10398731486786372
-0.03456545872735171 -0.2763827945840846 -0.10281358020294673
-0.041526983213893455 -0.270342728103448 -0.09671149508942134
-0.04282469553994326 -0.2736302222860347 -0.10405723111618526
-0.035287419987193626 -0.27653351982956037 -0.10945991532791621
-0.041327695084086936 -0.265471598113824 -0.10313103454102046
-0.044755200577251 -0.271451583112527 -0.10956172006119258
-0.1770353118901172 -0.3815330769670497 -0.06801498787392146
-0.18654986722516206 -0.37480550071125135 -0.05545837538231379
-0.1900326411251941 -0.3808548953187953 -0.06114933745850092
-0.14269653959321169 -0.3844835068834315 -0.06589759247292049
-0.15446182591962007 -0.3809798266542445 -0.05552706973541743
-0.16157848639535097 -0.3866755571020137 -0.06556589262474544
-0.15547988815354494 -0.3849142398489009 -0.07331506268967158
-0.15711427731560854 -0.3716758694303523 -0.06517136948097713
-0.16823157174634126 -0.38242032190685377 -0.07459188358772761
-0.1793759415869632 -0.38913153668766126 -0.055036881136784614
-0.18890432519959596 -0.3865952994478236 -0.04482144968498713
-0.15172114474820284 -0.3878857698095332 -0.05593464629639155
-0.16535423202561525 -0.38851009866123304 -0.04538021342743403
-0.17350969715165285 -0.389404406751443 -0.05561135070312983
-0.16240657372521547 -0.38431831261043653 -0.06131205813873774
-0.17351547880219606 -0.3752694036615382 -0.05339960114944941
-0.17995468778657106 -0.3805373515737544 -0.06273029105652339
-0.180498848391048 -0.3896952476156245 -0.06208367006767756
-0.18674917025612978 -0.3860324527872096 -0.053237774538884224
-0.19135526819276003 -0.38739039560680494 -0.05888462917793757
-0.15867262585209993 -0.3892202880037318 -0.06233847992409235
-0.16973156733559755 -0.3859862293851863 -0.0542160953759051
-0.17681993050622133 -0.3877147640836726 -0.062407502102742256
-0.1669574926619449 -0.38941376468067274 -0.06618804590691096
-0.1725947360520282 -0.379726877416421 -0.059517898726353706
-0.17729915185021547 -0.38591774364833936 -0.06686956541527278
-0.18009784324216035 -0.3901922907484065 -0.06174484746445185
-0.18691081805276064 -0.3864357676160823 -0.05262992637146479
-0.19151555998372224 -0.38778026958828077 -0.05859068887222773
-0.15825542314099458 -0.3894545938623439 -0.061883160042653144
-0.16950503988312868 -0.3864870574129115 -0.05351431028831965
-0.17666847510384706 -0.38810296913509473 -0.061966159510502876
-0.1669664780621448 -0.3892108406675349 -0.06572980539787776
-0.17297322554635194 -0.3796123172891627 -0.05904287950981623
-0.17761140568303255 -0.38582160135631666 -0.06656599895943172
-0.10696373386429933 -0.37446787020092115 -0.14371610538948543
-0.10981682939576295 -0.34363978167896375 -0.12987988548267848
-0.11433538301037935 -0.35106517931347 -0.13420251862991817
-0.09311432642983583 -0.35272969862346754 -0.13874963777054317
-0.09571842355775026 -0.33202134629612073 -0.13324172155846126
-0.10384411616372255 -0.3433020915639888 -0.13798331575382716
-0.09837458534287599 -0.3497918750894557 -0.1505925740479327
-0.10168231530236391 -0.3301465119970332 -0.14519175248135097
-0.10865620775269655 -0.33968826195125684 -0.14923251526344783
-0.11594971520947603 -0.36688812633876905 -0.1449136521099902
-0.1184001515631595 -0.34356715341930494 -0.13007030742157466
-0.09576539201783327 -0.3380167092931758 -0.14017503814686305
-0.10690752668427614 -0.32030277511005506 -0.13170003252018458
-0.1120728353981891 -0.33130659719829664 -0.14221415774811275
-0.102452794743053 -0.3271620478284846 -0.1502023871420718
-0.10904268426942018 -0.30157028695469007 -0.14319778339851863
-0.1161656032328525 -0.31632336040859327 -0.15022262291897304
-0.0924754838471332 -0.32885034939174757 -0.06373695390213496
-0.09535927577065614 -0.3011335637224208 -0.049050011801610054
-0.10051215691613344 -0.3096937443864833 -0.052239337134251655
-0.0734990934853473 -0.3164513613832484 -0.06014511840332514
-0.07745752735184816 -0.29420273562793836 -0.053066172766575874
-0.08152253432320741 -0.30867274662380323 -0.05709479110229975
-0.07564703626679567 -0.31703259607677564 -0.06877470867622859
-0.07946557803200868 -0.29546876808529005 -0.06183759229172236
-0.08356202645348695 -0.30932377835636243 -0.06554917352188594
-0.09061629576729921 -0.3343082573068629 -0.06012854831207758
-0.09610007209824709 -0.3100327756059657 -0.043876090216527046
-0.06772727770852235 -0.30827279945736036 -0.05770868914116389
-0.08071962995576051 -0.2925636376989375 -0.04848329083908564
-0.08921972913788942 -0.3019453491819392 -0.05917657272804743
-0.0748915175919452 -0.30114137193088636 -0.06896130101669795
-0.08442352218674806 -0.2770899738920222 -0.06097600715149409
-0.09182182951020387 -0.2914694454324733 -0.06896252291191585
-0.1736381749634662 -0.3838644828451167 -0.14753881947983272
-0.1802473912959018 -0.37066840192203626 -0.13753786044109828
-0.1835983197216907 -0.37839083930378065 -0.14512182133186824
-0.14961830778168825 -0.38274707456951246 -0.14377897338856227
-0.1591391514067569 -0.37372916003589735 -0.13564827399242885
-0.1625237415556827 -0.3838625456941615 -0.14436227934349544
-0.15872729821252016 -0.37800567408924207 -0.15517734842289455
-0.16249714298295168 -0.3624324407232295 -0.14869164781559474
-0.17182500166939882 -0.3741512503278743 -0.156247266697774
-0.17833576602982668 -0.37902658244495496 -0.1381823058604098
-0.1850360284571567 -0.37781031986599073 -0.13045539813030727
-0.15588798625516084 -0.37442644497280225 -0.14030999796379573
-0.16810085876034883 -0.37506737371807203 -0.12997344987381465
-0.17566212518262056 -0.37592425009136304 -0.14072271542538173
-0.16611423594998506 -0.373479535783578 -0.14503916459072597
-0.17418032391118196 -0.3633983339918147 -0.1385429288624621
-0.1795503745798984 -0.36931907197361097 -0.14738538222301967
-0.17701656622933534 -0.3864919151914607 -0.14543033497322566
-0.17973365886258272 -0.38443811794643507 -0.13736937301147945
-0.18424953026818422 -0.3832786585939418 -0.14532914118755824
-0.1666377584462085 -0.37981550952320203 -0.14497906820763118
-0.17459326489018587 -0.376466950382043 -0.13778602437962062
-0.17830535275983003 -0.37880646249179944 -0.14559099929321773
-0.170134017897121 -0.3782114591253291 -0.14916480438698299
-0.17653665943192628 -0.3682371284616481 -0.14388730483044154
-0.1785636494879642 -0.3744018878591548 -0.15018306033600337
-0.18023155136155275 -0.3876770343435298 -0.14122542099941737
-0.18403407437848238 -0.386747380698968 -0.13282514469612605
-0.18871372444676546 -0.3857187535417567 -0.14192319767464168
-0.16633280618237642 -0.38129990359668836 -0.1415368254660464
-0.17547302944707063 -0.3792900051725398 -0.13321416931141383
-0.18014633162068514 -0.38104658385639295 -0.14222293453205592
-0.17203585310029176 -0.37939744254474744 -0.14574038343418605
-0.17817663652943758 -0.3699078466547023 -0.13984058158386714
-0.18176500005768922 -0.37560432216053113 -0.1472123499392367
-0.13380558295296816 -0.38920929094677076 -0.10969985382545955
-0.14290800197171358 -0.3753026034486781 -0.10134438531387813
-0.14760046703862337 -0.38325669428234205 -0.10984174268234737
-0.10999892158555177 -0.38798405786876783 -0.1070907201050616
-0.11740692956494478 -0.3822410609376918 -0.09886247770775325
-0.12448898954438356 -0.38837035557155714 -0.10816124932755
-0.11901005609082368 -0.3884149398458491 -0.11567054049957759
-0.1205392728571811 -0.3744249250543605 -0.1083068038700915
-0.1318690727476993 -0.38497658630733594 -0.11639729993332393
-0.13848597807931093 -0.3877348806512843 -0.09637466924179561
-0.14913880331563142 -0.3821486737382899 -0.08996791498650081
-0.1534362535004535 -0.38443138262157545 -0.09949747579086787
-0.1161258618359485 -0.3835754897249232 -0.09952969210136897
-0.12684462471055177 -0.3842354919565211 -0.0899698819397784
-0.13688303036736635 -0.38345672747020826 -0.10072694079864986
-0.12486269576596407 -0.3806648161066066 -0.10413114087570674
-0.13347303373860506 -0.3721896018636714 -0.09792960541237361
-0.13864135248707918 -0.37660913726215467 -0.10634524481285579
-0.13893448813008455 -0.39516120215778455 -0.10345599906433589
-0.14422392351674226 -0.3889309372556697 -0.09779337899673946
-0.1484575371270099 -0.39017762800579175 -0.1048292602776385
-0.1258970300679126 -0.3918334152353297 -0.10420519964684016
-0.13300130767869142 -0.3877923395288478 -0.09824059264648921
-0.1388510267262378 -0.3891246821535121 -0.10550028936851985
-0.1321338216786304 -0.38714288731937513 -0.1079943861245013
-0.13670043153809694 -0.378974160159875 -0.10274515407074458
-0.1386565367703357 -0.3844006862295161 -0.10866210715759761
-0.05444140238808779 -0.30219914575939283 -0.15608462052334315
-0.05839870376633791 -0.2785536106479655 -0.14882054285992152
-0.06271911664055971 -0.2908047940385829 -0.1528935070513583
-0.029253194761745017 -0.2951133455884944 -0.15529698984611995
-0.03596288962411074 -0.27779862841491804 -0.14664023475636012
-0.042367259693614524 -0.2904643025053035 -0.15353015916336543
-0.03390205903100161 -0.2958903517377864 -0.16689220921982295
-0.03987831873940615 -0.277604451383401 -0.15857131140221126
-0.0476771394734302 -0.29057725330715284 -0.16493160383690364
-0.06018308801697878 -0.28365703483944044 -0.15092717962254054
-0.06752307219552187 -0.2714595701349269 -0.14178308205593593
-0.07721404237794069 -0.2766645159376155 -0.1540207202910281
-0.026711056662074607 -0.2748654540431987 -0.15410260217178828
-0.04223294062661318 -0.27019753118877515 -0.14429036633957393
-0.05249292655038027 -0.27302115222339735 -0.15622688190926082
-0.035454104376308006 -0.2761868145120631 -0.1634041305064059
-0.048080513906947654 -0.2593791838539134 -0.15464232223022945
-0.05353195471810488 -0.26983622273330793 -0.16374967353333003
-0.1222429524187961 -0.386418988908578 -0.06257826941002376
-0.12462953729676393 -0.36683722397213087 -0.04745382921684748
-0.11451281113671449 -0.3695967998159419 -0.05533308641899592
-0.1188370983128467 -0.3523051645410548 -0.049756952690968574
-0.12327508134888795 -0.3625952508104335 -0.05567927019585139
-0.1197961966519275 -0.36388679405574903 -0.0607621158837176
-0.12524486584710268 -0.34621774217014417 -0.055013724732289375
-0.12810056908177522 -0.35060455461864576 -0.05937353627670771
-0.11972148222970155 -0.39339365621929273 -0.054029026198277534
-0.12111521763848451 -0.37741061111812696 -0.036772885489354194
-0.11388198537873415 -0.3716759290349971 -0.03898511188019282
-0.11482986314343599 -0.3511604871404658 -0.033115306067357124
-0.12391828997182039 -0.36363800426845655 -0.04187626497734553
-0.12000733120488313 -0.3644708301675807 -0.047735938000569404
-0.12206793828057436 -0.3377001788270961 -0.04320827977646357
-0.12774320943402437 -0.34679033419017896 -0.04756880657661921
-0.1209617058758655 -0.39435948988323316 -0.06036640064705378
-0.12254185481118349 -0.37746586462383375 -0.04412395613182551
-0.11595834298180727 -0.3764828946245204 -0.04454300658691889
-0.11677377922581819 -0.3524458911073695 -0.038308986592183174
-0.12330050272988466 -0.36525206824665174 -0.04576758401382929
-0.1227668325428882 -0.37028770705585584 -0.05350417749870783
-0.12431951863812593 -0.34391521474247083 -0.04843399779785639
-0.12969496352719453 -0.35136579533939466 -0.0519883121727801
-0.04586828751610903 -0.2909288313043605 -0.05112973706711298
-0.05179558200883059 -0.2781075443876277 -0.045341977047810615
-0.05616841716813235 -0.28418456574802503 -0.0519466485260821
-0.02483896417664675 -0.28518261572246656 -0.047688999342808784
-0.026753018331996482 -0.28100608846073255 -0.03978017823685175
-0.03818554682778506 -0.28252710958843336 -0.04753107683647639
-0.028501967621318382 -0.286824217046548 -0.0571370507954455
-0.031793157291881126 -0.2792032267702113 -0.048797824549565376
-0.04353562994050173 -0.28234614988689527 -0.05695853488434321
-0.0569300155167499 -0.2891376819265376 -0.047197082209477485
-0.06333957119034914 -0.2802311982763301 -0.04081792490471369
-0.07050953311967043 -0.2829753365171443 -0.049590268301854194
-0.03417957825707583 -0.28251328131084547 -0.04898945348251826
-0.042570541334620994 -0.2798479404104243 -0.040218898224721016
-0.052464316320888084 -0.28049721380596265 -0.04986886041153437
-0.036390195322505516 -0.285967191661645 -0.056260683703312935
-0.045725743008128684 -0.27741179427032575 -0.04834184901703364
-0.05333075923966555 -0.2806559409749995 -0.05648318784225947
-0.057423929405681175 -0.2941922750127803 -0.04736865417946345
-0.06155438227700381 -0.2855799700868617 -0.04129520909775263
-0.0680604378704944 -0.2876530494344722 -0.04880229489792353
-0.03957701726006655 -0.2877122964513789 -0.047762313055882515
-0.04478556914376406 -0.2839495148313533 -0.04042203085411555
-0.05405927701043276 -0.28480648061161146 -0.04871717946518427
-0.041319052410594505 -0.29284759422664747 -0.0544190491913653
-0.04898933572816042 -0.28399028440837965 -0.04715523974884516
-0.05541257066773562 -0.2878666724813472 -0.054609605240712226
