ply
format ascii 1.0
element vertex 151
property float x
property float y
property float z
element face 0
property list uchar int vertex_indices
end_header
-0.21751892073201326 0.1455949042188634 -0.1031902815579272
-0.22167807323979524 0.16655910948390856 -0.09033537762154109
-0.22671585781621126 0.15541900137538806 -0.09291628854263789
-0.19151745243119386 0.14877755383129015 -0.10088686006058223
-0.19717777771996645 0.16507882813091174 -0.09415478365410335
-0.20207190020131258 0.1556513998853673 -0.09879274027336604
-0.19632504386948732 0.1517316196310033 -0.11114490883339412
-0.20247661573933748 0.16470093468303576 -0.10478708999145991
-0.2067030022864261 0.1589780543195714 -0.10874841468323238
-0.20492262644814638 0.13062340954418078 -0.09730032937515742
-0.20916604502247957 0.14683778027171984 -0.08164281504143245
-0.187244157028667 0.1427477691518773 -0.09277949588287837
-0.19406425459431795 0.16186870077724352 -0.0850403095959521
-0.2031261424546161 0.14895076492900744 -0.09381247417915828
-0.19236576063679842 0.15231902340526476 -0.1006241227864123
-0.19863649709271577 0.1727417204725255 -0.09392196791161067
-0.2065489987854877 0.13113809565181628 -0.09929958837021358
-0.20939541859673647 0.14736551979656115 -0.08393595473755366
-0.21364196641492036 0.13909579256648913 -0.09259650962341792
-0.18914672238873628 0.1422793958532323 -0.09497550981033809
-0.1956416170124927 0.16279728153819933 -0.0874579931973315
-0.20349691314744142 0.14925230482692614 -0.09543100850571162
-0.1938904921536365 0.1507116649496068 -0.1028410281418658
-0.1998949150566974 0.17095095852489367 -0.09638757364738948
-0.2055157224659839 0.15892834404582873 -0.1016825522660113
-0.20836035413788942 0.1400794480192174 -0.09997282283295161
-0.2131015161995807 0.1602602694379796 -0.08587528126228816
-0.2193689893011966 0.1488474700796117 -0.09351907031525142
-0.17729940516995576 0.1424046252119054 -0.09962181107986934
-0.18488168222951082 0.16365964153880969 -0.0916926647900439
-0.19474464161442903 0.14914573172206774 -0.09887329595077998
-0.18733325107144502 0.14922047594661608 -0.10740596907127864
-0.1942448417668262 0.16546494701976672 -0.10088873760689265
-0.20256070299195436 0.13793725708598986 -0.09800452845085628
-0.20839726431416658 0.15639866331691638 -0.08374873654831416
-0.17382019264744905 0.1434671376096715 -0.09660781280983455
-0.18432810409115938 0.1629373524534215 -0.08696735756386287
-0.19578635199116853 0.1502648089277257 -0.09630579607475764
-0.1864386151556888 0.15664047936077014 -0.10259515898216731
-0.1917431007151523 0.17439795473689929 -0.0963029946564532
-0.21870155139016298 0.2455768082487096 -0.14459095256317622
-0.21461322410153535 0.2718659732686986 -0.13815754013050563
-0.21432336671399263 0.26167030075664416 -0.143068515825162
-0.20851267380761293 0.2721871230947484 -0.14197071747768886
-0.21231618030118135 0.29009134510631457 -0.13504801051605708
-0.21481693787621645 0.2776727769720067 -0.14163579897869594
-0.21402886016415743 0.27417642811412707 -0.15228282766331203
-0.21604828043030885 0.29258490542049304 -0.14636496560562617
-0.2205454061751285 0.27918911913509264 -0.15223843710411555
-0.22001200420903352 0.26895047167415514 -0.1504811133622027
-0.22261249525593904 0.28594822624797717 -0.14218538360584743
-0.21761856479691652 0.28319389561290637 -0.14934792475689418
-0.2110549162154117 0.2922430131780614 -0.14915221290577418
-0.21591624124097017 0.29980159739131823 -0.1414367790697909
-0.21960652871178774 0.29693097809429064 -0.14954970138062007
-0.21370689077424196 0.29440260866756335 -0.1540170695065356
-0.219746838045589 0.30578638056392565 -0.14717088000763423
-0.22099789483594087 0.29779727200145617 -0.1548204209088183
-0.22333427770184663 0.2640035841810216 -0.1525583054303027
-0.2220014880423465 0.27728582361812487 -0.1442841525553561
-0.21754672629880098 0.2812014911519994 -0.1505230601309634
-0.2192508379940906 0.2879294250356664 -0.15081251518715388
-0.22314427299546388 0.29404462317104235 -0.1432208950995303
-0.22402791185425905 0.29368699530239 -0.14945606248367793
-0.22179212672757295 0.2923134658681859 -0.15221551911819942
-0.22717897100495485 0.2996921632635106 -0.1454978223322726
-0.22761545581864503 0.29537094572658434 -0.15201174573887355
-0.2201878826146045 0.2684018109189977 -0.1505702521084643
-0.22265843553589967 0.285627970491599 -0.14235391573894984
-0.21772960825013307 0.282656082903098 -0.1494307156084872
-0.2110803673987308 0.29168827274913683 -0.14916723327625758
-0.21590025229500917 0.29959417322749987 -0.14141098515976436
-0.21950445575760988 0.29638476112956896 -0.14960258560169704
-0.21390629811333803 0.29381675461406603 -0.15418980376709468
-0.21979762120293764 0.30540687779064074 -0.14739253478039271
-0.2211525837902942 0.29724825361843005 -0.15501653509129054
-0.22698905570553926 0.18853015640849963 -0.05952117698181635
-0.2335967372183719 0.2181720230924596 -0.049182661938557685
-0.21529800696419862 0.22780687550182238 -0.06435502426613338
-0.22427972657727388 0.2516502831327428 -0.0566194738625384
-0.22688444955395845 0.24379158953304186 -0.06207481877792841
-0.21604941291855959 0.2285852525579442 -0.0653707768200732
-0.22510668141888765 0.2524058912145604 -0.057625183033833564
-0.22771904869126466 0.2446907852041234 -0.06304074184883601
-0.2295108090166965 0.20035267809505358 -0.05748839037407404
-0.23421428604172853 0.227419802938651 -0.04585076229561335
-0.2163691024308124 0.24413926342601672 -0.054291793274769844
-0.22325360281514314 0.27101160029048815 -0.04596234219063288
-0.22900150222825197 0.2609825823652257 -0.05323598639954096
-0.22200135393189577 0.24918014744396105 -0.060145088601002754
-0.23081740243481783 0.2763940189229955 -0.051627316641697944
-0.23241871101903108 0.26833451727504626 -0.05809644715775019
-0.2297568718914905 0.19861931542034045 -0.05747474091042048
-0.23433316750573305 0.22551567295665637 -0.0457673157929278
-0.21697474522637514 0.2418686244832982 -0.054009088444600166
-0.22384848697232393 0.26902217606181994 -0.045732000040898384
-0.2292116831068912 0.2588577363836278 -0.05293948309410578
-0.2226903091196933 0.24692953566188708 -0.059997656512150825
-0.23131983978795198 0.2742152903425206 -0.051586815285573066
-0.23286833865689424 0.26618714073772326 -0.05796737329948908
-0.21981802089261201 0.16384447554225817 -0.15558301763523585
-0.22702876730012087 0.192468414102744 -0.1434775974034167
-0.2272415707831302 0.1934636328565587 -0.14308849828232295
-0.20611845953511385 0.19808650950069323 -0.16079551832664973
-0.21657244367646364 0.21752292851085558 -0.15458256857384212
-0.21839159233616975 0.2152175996648778 -0.15721383051861293
-0.20380733413743166 0.1979872677671422 -0.15426837759006984
-0.21381249530362276 0.21742750147457018 -0.14812819020737178
-0.21590482695149568 0.21496118048305407 -0.15087018268097407
-0.22036270303773073 0.17705107668514147 -0.14388793067921168
-0.2227104703907886 0.20432228783244982 -0.13036627428520686
-0.1968271682982364 0.2162174079763402 -0.13883718209255702
-0.20550304157780794 0.24194223621959582 -0.1305829222678042
-0.21535342438267854 0.2296294067251195 -0.13905867295254237
-0.20263888938473848 0.22694439629192248 -0.147263490724454
-0.21312425537156252 0.24961025456066027 -0.13885108487595088
-0.21942999465512422 0.16537738779659167 -0.14476133244026668
-0.2210997740750232 0.19410509804363146 -0.13037421660412318
-0.20155080659436372 0.20952869394893542 -0.13743045287121303
-0.20933904750394014 0.23694510201091662 -0.13032836573112971
-0.21471477551507143 0.2245695684301366 -0.1376024718760348
-0.2068870614294925 0.21434659699077502 -0.14622212307442195
-0.214849034977428 0.23831171730632678 -0.13925584511745936
-0.21763406200455812 0.23088199833507433 -0.14502249019135005
-0.21314794821786073 0.1683411691534032 -0.06296891825188167
-0.21038151783990053 0.18731231430644885 -0.053784617352376045
-0.21374412877606538 0.1816419456350316 -0.05505348103035456
-0.20179360611485628 0.1821155045377721 -0.053635397124180854
-0.20105622215317873 0.20404679516429797 -0.049735346007237495
-0.20588346822308687 0.1943532917844762 -0.05172748224724299
-0.20058904094742921 0.18131513336772814 -0.05589888350952631
-0.20073699457692293 0.20237273911113635 -0.05204127089966303
-0.20537882549809602 0.19377017954463854 -0.053640940356144966
-0.19814002020405916 0.15229547957057848 -0.05668408529747492
-0.20057200892018465 0.17010576466197863 -0.041098632979283393
-0.20088877780484346 0.1654834244596471 -0.04895553843964106
-0.1934380034928241 0.17761708239192858 -0.04678798573006159
-0.19734096033620027 0.20103282669658556 -0.04013244168747431
-0.201613093448154 0.18845314720744982 -0.0475482429741717
-0.19554724795865205 0.18759054878826037 -0.05482602970589167
-0.19849103195714143 0.2137621734487523 -0.049798824953923286
-0.2023474971775928 0.19977755287761584 -0.054377623963246406
-0.20129376156376985 0.14884103277797595 -0.05692917959679133
-0.2019250492577472 0.1649549100744237 -0.04130414979446894
-0.2015496294026294 0.1620751116621007 -0.04750592367638117
-0.19706488652276186 0.17286534050578967 -0.046165832447896064
-0.19961940748738435 0.19716418722743884 -0.03943098442543513
-0.20419518156098512 0.18587703446025744 -0.04596636550415522
-0.19959641499566225 0.1805878970968236 -0.05439762132156855
-0.20219721896695284 0.20796031693096056 -0.049300857949147285
-0.2065157840971866 0.19452030399913683 -0.05335343735207087
