ply
format ascii 1.0
element vertex 180
property float x
property float y
property float z
element face 0
property list uchar int vertex_indices
end_header
0.22421984868002745 0.30738569239253893 -0.11189711945045955
0.22467415528250548 0.32252938488597765 -0.10230303661812312
0.22018664078665587 0.3144357893812169 -0.10882792727936275
0.235386480855473 0.3117951248037328 -0.10533530371178157
0.2323243518347821 0.3298549745428075 -0.10052640097130305
0.22616021828604552 0.3174107764112462 -0.10682565824974544
0.22880249218893858 0.31840545872325793 -0.11345074431885249
0.22616713242483946 0.33876890877361193 -0.11059910910118587
0.2220967908377728 0.3258881066190709 -0.1142236079453326
0.22748362021399351 0.30225456694240466 -0.10174522654999263
0.22420125203085753 0.3106893990385045 -0.09231773869980342
0.22185789542151305 0.3093476388799657 -0.10155681626785762
0.23324172692252013 0.3132396433698644 -0.09646836774338252
0.2273862858290753 0.3218489382612218 -0.09146229283798701
0.22559457020712706 0.31674797276134387 -0.0993956710575915
0.22974329190207335 0.322551319395255 -0.10114017980087764
0.22588204340887877 0.3420895431386937 -0.0964936103104449
0.2242882748122296 0.3294022176610936 -0.10290292756546504
0.22576325135184142 0.29823035935039416 -0.10781560199249751
0.22490279869986388 0.30477202871913806 -0.09756315605629451
0.22454344229651305 0.30547589996929064 -0.10463733332146175
0.22561638550711485 0.3100982401716222 -0.0991643752335406
0.22298925118399474 0.32011390665645495 -0.09493417398918635
0.22201346354437682 0.315076896940421 -0.10191563622940547
0.22428225474310728 0.3150582406866063 -0.10435710208405025
0.22197901205969664 0.33641905525798693 -0.10092193739403255
0.22044341759634825 0.3242905829298009 -0.10620478646744258
0.17058830456686827 0.3720694277631749 -0.14656920092094905
0.1658410330290875 0.3866222594129552 -0.14001756267536647
0.16481452183676573 0.378384420667838 -0.14605882124889857
0.1917986770148358 0.379413256441306 -0.14494592802513606
0.1797149081702313 0.3898941967832555 -0.13762240962971217
0.1780599852080426 0.38213897684688464 -0.14430566983212
0.18790250019980284 0.37747848967189684 -0.1553237821339465
0.17782085137320372 0.394630918298911 -0.148312234449277
0.17422448592139098 0.3834276292669286 -0.15497339622963435
0.16696696476889464 0.38535011747951403 -0.1473349566935397
0.16254310803366515 0.38823790291423693 -0.14007673518646724
0.15935116009665343 0.3853805158483495 -0.14928306000221736
0.19173388676596495 0.3886281345235814 -0.14961595194328792
0.17938881115866515 0.391187736784171 -0.1404873515843249
0.17569296555472227 0.38807464579219714 -0.15031988279808528
0.18520014481497618 0.38464261034603014 -0.15671094613064296
0.17727743582678648 0.3960250709402074 -0.1495620097397662
0.17180113987875792 0.3887547943937291 -0.1580637629507876
0.1652474303717694 0.37662256697292223 -0.1514998610495425
0.16238616900397154 0.37998838165874377 -0.14341833548534877
0.15945034222555968 0.37995279768581286 -0.15192674951542384
0.17619954543066832 0.38763166407222643 -0.15193856613625056
0.16634469227743956 0.3922825548994054 -0.14575899498451717
0.1674025555129132 0.38815988043422595 -0.15252449469555385
0.1748863358969769 0.3832956049787511 -0.15772353963840968
0.16913579897833678 0.3944439981328954 -0.1513555135010577
0.16575448708487364 0.38800294140453234 -0.15822883801449306
0.17670976118994566 0.37457979658718005 -0.04819620506752497
0.1663877268309674 0.38484842518443957 -0.040604272055516304
0.1659181018347821 0.3790509794103612 -0.04765377299774653
0.20233344035101744 0.3732541296827306 -0.04655630247581965
0.18999039130164 0.37775916794414416 -0.037299432921299995
0.18209498124075743 0.37471277454967394 -0.04603747384537226
0.19375674920035216 0.37514997461910143 -0.05574274914253718
0.1879665155882916 0.3855645153867711 -0.04743898766029841
0.17904364066077086 0.3800306413518895 -0.056156852412114204
0.16850923495245787 0.3798383567678441 -0.0429444398163653
0.1606520910735211 0.38436091879482165 -0.03602475779045588
0.15730612473440977 0.381511816774558 -0.044970193076024116
0.19390498595190855 0.37920154074306384 -0.04422185676086909
0.18130152420950743 0.38174677828426257 -0.03409234540451533
0.17657386259985777 0.3792982194768895 -0.04355440394867426
0.18680511908484312 0.3786697481023778 -0.05199629919518
0.17787789301825377 0.38901705483074084 -0.04414201633919245
0.1707183022971234 0.38454164007778063 -0.05319798843849665
0.16819875435782286 0.37380934694881335 -0.047797211575398506
0.16311936573935362 0.3788598869192113 -0.041525998282322944
0.1608902116293988 0.376866767202567 -0.048267641234288276
0.18555658059073302 0.374758670126151 -0.04650477426041132
0.17583667235327574 0.3796325419294347 -0.039732315707097114
0.17136799292517516 0.37719900349254504 -0.0470180596588946
0.1805812616820416 0.37516833284969225 -0.05363170163620478
0.17407219605398985 0.38497341612453356 -0.04732979195106989
0.16924684243155333 0.380135605131339 -0.05470282690514094
0.21045165257407042 0.3138378355848302 -0.15553005890835292
0.20991366105032774 0.33924258688564196 -0.1439344223021365
0.20471041398001524 0.33177627066249743 -0.15148104088295467
0.22250722842169615 0.3326562736379613 -0.14980810241688258
0.21950625376654478 0.3532117698537816 -0.14415853576649196
0.2117414374823651 0.3402335737096776 -0.15088959889400966
0.21623103814078184 0.3406267259466161 -0.16200608866203792
0.21297918753577086 0.3627429101812352 -0.1578588719843722
0.20708351330710265 0.3496729228841771 -0.1623118008850909
0.20634745554877135 0.32726229170436755 -0.15135362105358607
0.2030158539290509 0.33887136915798083 -0.13965503232468135
0.22223423914862486 0.3478924725400914 -0.14939721779812343
0.21056227879477354 0.3564408514844884 -0.1421062733410693
0.20880054430914732 0.3511300180303563 -0.15139549331654079
0.21785592036200377 0.35222948530788317 -0.15731426434505946
0.21112196640921446 0.37280196884746447 -0.1495912607191897
0.20572810368491026 0.3601468298780431 -0.1575619365452624
0.22271208958578917 0.31526763180370226 -0.05621598021973139
0.22329287724448058 0.33370823601360217 -0.04494000332344538
0.21875839428854796 0.3239635918485631 -0.05207181828011042
0.23314641909552428 0.325103649889182 -0.048567929434666694
0.2318849463934979 0.3457085583555211 -0.043130734133610786
0.22327994303656432 0.3326826784955968 -0.05053935306061274
0.22703765826178404 0.33244908789272204 -0.057547995018849434
0.22401355700445982 0.3556343410360326 -0.053907075095067085
0.2188725967879376 0.34514076450939074 -0.05831501739014155
0.22310959296179625 0.3050078842985143 -0.0468962277649737
0.2211427588934979 0.31757534483547106 -0.033437677788624824
0.22023593382788512 0.31240315178508654 -0.042919584679493965
0.22600834565115782 0.324001560007285 -0.035953023600468696
0.22429107623053404 0.3384938929426183 -0.030676969456563057
0.21921013789130064 0.3292048070775975 -0.03970597045410639
0.2225613494391522 0.3328451607572545 -0.043839492964634956
0.2223632235999188 0.35923768023128405 -0.040359982418904365
0.2178779144759259 0.3449642751562108 -0.04568833963860041
0.2230036159033856 0.30347455481166735 -0.05386183516968256
0.2214850087637982 0.31707210281963244 -0.04010126845825678
0.2221830387587628 0.3120035622465123 -0.047801741528401435
0.22377031044913145 0.3212059233533849 -0.04098207609642512
0.22280054287863585 0.33960087040538683 -0.03547326581467158
0.2182797093863568 0.3290372584211339 -0.04397753732193476
0.22055261330557677 0.32662696579570666 -0.04901025550354487
0.22178374724341246 0.3535779807912816 -0.04602906959045893
0.2167567511077008 0.3407007549154271 -0.050372221636662544
0.1946869392867169 0.35805810431117907 -0.10116309778679378
0.18991344170523497 0.3736280296194066 -0.0942304517506457
0.18706398205710265 0.3645039890157689 -0.10153923289764888
0.21935765938711974 0.3591910097944249 -0.09986267344940669
0.21053879456473204 0.3692323658811559 -0.09111470835197932
0.20530032114935728 0.36181349495525256 -0.09976200120438106
0.21292739109946104 0.3616864178525914 -0.1104108478306628
0.20623164372397276 0.37790668943996325 -0.10253445165146358
0.1983073850150189 0.3678780887472142 -0.11063224928368098
0.1811507244582257 0.3666519019948949 -0.09736765282143123
0.17640071110678526 0.3695168588506688 -0.08964122192848689
0.1694469948287091 0.3680145237791051 -0.10045714037407405
0.20634310440970274 0.37095595339412585 -0.10086370365608699
0.19493221239996764 0.372597763334464 -0.09076167004097468
0.18738107876730772 0.3712344262945165 -0.10188398616302974
0.19886838393164488 0.36901200750942126 -0.10730425374496944
0.1899562378401837 0.3798090312826146 -0.09982819216240413
0.1839207907195172 0.37375802734966174 -0.10874388473022945
0.2215123672957501 0.3046938870298375 -0.15530077474106319
0.2196243901724896 0.31135709026927844 -0.1517744894503451
0.21814911560965392 0.3085774276601781 -0.15718052642334468
0.2312790055747113 0.30561388472194567 -0.15316616849888331
0.22911261515570494 0.3109026048528661 -0.14995423810471065
0.22538213925314757 0.30764455536479846 -0.15479824798096187
0.2292047639365277 0.3126646373617162 -0.15055441217411525
0.2264073391432843 0.3088740799772252 -0.15748315410603053
0.22530256705237242 0.3220008108961095 -0.1541803415297366
0.22321115927649351 0.3114906642782201 -0.1582238759278155
0.2265487809653363 0.30580479839916125 -0.1501941467999316
0.22172122197104308 0.31025136450405016 -0.14588756220329768
0.22224466996146056 0.30869186857814684 -0.15249111609447963
0.23242180542898985 0.30942065456981555 -0.14935185866344936
0.2271813650603375 0.31220770815486804 -0.1454183991431094
0.2267711062903485 0.3100775573598851 -0.1511421139716006
0.23135655121756407 0.31323439816112414 -0.15092236654747493
0.2280530829901776 0.3192960713254918 -0.1483090754031039
0.22780125336600157 0.31552709082240954 -0.1530645127772189
0.2247007389540753 0.29988361338252917 -0.1546429182766772
0.2250730295653424 0.30113513210887805 -0.15215558664787776
0.22600345807028624 0.30335099438304797 -0.15594857292164332
0.22561316685629698 0.30416042545909777 -0.15145424859512813
0.22502546505881163 0.3061664793836583 -0.14955016331661708
0.22471802430106017 0.30531139114971056 -0.15296696977604396
0.22257207827521178 0.3105639312612523 -0.15166563646782405
0.2205213208670697 0.31731278637523547 -0.14929743962276942
0.22115593151999327 0.3137438986646642 -0.15234526352871425
0.22600602107001158 0.3052529785978307 -0.15111615614880092
0.22163390116644713 0.3091920707571019 -0.1467478062390185
0.2225579519744 0.3078397009717931 -0.15356960253704555
0.23205285267783018 0.30914349297161 -0.15022977547634608
0.22688816981268736 0.3118280265676488 -0.14612964646805293
0.226470043229588 0.30974400976772204 -0.1520547206877566
0.23098265128088805 0.3129426334249486 -0.1516814913033343
0.2276243467803082 0.31895662287349597 -0.14909529047001369
0.22729902462912413 0.31557066181774035 -0.15377613263119227
