ply
format ascii 1.0
element vertex 109
property float x
property float y
property float z
element face 0
property list uchar int vertex_indices
end_header
0.046179985495483154 -0.022926177164924504 0.136659383451496
0.043437128754531616 -0.02024340190590656 0.14029562441066348
0.03980705687609839 -0.021599973818672062 0.13616025415614688
0.053013836832916016 -0.023214276215446354 0.13885867563441837
0.051365768404876465 -0.022955741068733097 0.14348560539439761
0.04550746628848242 -0.02366640724839008 0.13784295288280093
0.05252004215327429 -0.022299225708854557 0.13523638216212833
0.05276644775477576 -0.02040385760964191 0.13829398122981632
0.04645079919902014 -0.020880039116752507 0.13251399961665714
0.043937450142776245 -0.01712786712349689 0.1377563473339423
0.037592893334304565 -0.015336211106193424 0.14248055187419498
0.036079441996490234 -0.017022337099922062 0.1365664002056464
0.0568084771355741 -0.016967351815116764 0.13632309404567325
0.0504341776093595 -0.017350907704246403 0.14223450390056216
0.04446498105136084 -0.01753276147545612 0.1356319781895026
0.05392984101382422 -0.01930564202965534 0.13663113084987247
0.049849456044112915 -0.016795601031196476 0.13940417734340274
0.04663792798129248 -0.017353887936485173 0.13324367967799747
-0.04596873572262598 -0.06132810868920124 0.1394987103100165
-0.04692547967823816 -0.05968528546990192 0.1420496102924689
-0.046864742545212036 -0.060394372126472355 0.1392385956402167
-0.04229536106976343 -0.05907222189606464 0.14103102651790225
-0.04427602341564966 -0.05759354986847675 0.1445462700481757
-0.045397604016388184 -0.05919312991799152 0.1416352388019904
-0.04210975220593286 -0.05816304244698322 0.14044588772014224
-0.045423055199707275 -0.053092922350776554 0.14237242904857242
-0.046380752829635864 -0.05566107787789142 0.1386636492367133
-0.04229571869763208 -0.05678614535034931 0.1389060613270148
-0.04358848383816553 -0.056532855412376286 0.14203059641078555
-0.044388705996597534 -0.05704587258995807 0.14089035955623233
-0.03792005231770349 -0.053585465332877995 0.13930290905192935
-0.040529275445068604 -0.05432688750923908 0.1442633864040717
-0.04334523728283716 -0.05561518230141437 0.14194238153651798
-0.04294230988415552 -0.054995979449165226 0.14125263658717715
-0.04445293000134302 -0.052661027094734074 0.1438319679851874
-0.044129157570923096 -0.05337413706482685 0.14008331266597354
-0.049666935710037476 -0.05775635995568073 0.13703560796931827
-0.049726957587326294 -0.057727690121543766 0.13710075584605777
-0.04394474079998804 -0.05753740229309833 0.13704705206111514
-0.048467571047867065 -0.057080383679283024 0.13692516056254947
-0.04849656870755029 -0.0570668832272414 0.13696032730296695
-0.043278807906234985 -0.05763777651490009 0.13770848480418765
-0.046104127673233276 -0.056294675251853825 0.13739073244289005
-0.04627912691029382 -0.05619138040245807 0.13758248058513248
-0.04422470381649805 -0.055198128601920964 0.13835173813060367
-0.048457378653610474 -0.056284959694755436 0.13931578365520084
-0.0493926947394259 -0.05623605408371723 0.14038193193629825
-0.046641821173752075 -0.05672868647278583 0.14121794668391788
-0.04473494937809778 -0.05454822935761249 0.1385914680118903
-0.04552697589787317 -0.05507373370827472 0.1403035518284186
-0.04478403380307031 -0.05689793386162555 0.14203375545695865
-0.04709761789234949 -0.05418374695481098 0.14120006529048526
-0.047540659216964966 -0.053745801827323796 0.14203298059657657
-0.04620012095364404 -0.05253043331803119 0.14132076469615543
0.05259937593547034 -0.02168133415879047 0.1340937611217841
0.05199790546504187 -0.020568783661735417 0.13502728906825626
0.050836628170882935 -0.020918424507987858 0.13440751997188174
0.05627424070445227 -0.021677489659202458 0.1351480480785712
0.05574313351718115 -0.021259035250556828 0.13656014171794498
0.053672676773940796 -0.02152448453606403 0.13523077932551944
0.05403391072360205 -0.020523931166541935 0.13337790933803165
0.053462689610397095 -0.017844821593177677 0.13526302543834293
0.052728837223922485 -0.019486363312614323 0.13262933460429752
0.048532670231734985 -0.019844557425392033 0.13374340501979434
0.04569382021037268 -0.01851087369622028 0.13652098146632755
0.046448415013229126 -0.01973259010018146 0.13360917535976016
0.05357897827235388 -0.018656160017860295 0.13393175569728458
0.050743019076263184 -0.018039460560691715 0.13645845619395816
0.0497344488820188 -0.019282694241416813 0.13391315904811465
0.052516108246719116 -0.019505049368751408 0.13372033802226627
0.052732860537444824 -0.018622692009818913 0.13567733732417667
0.050814783068572754 -0.019022400757682682 0.13174080816463077
0.05326802084056067 -0.02610459484757221 0.13390088049129092
0.050183718892013306 -0.02154713430107868 0.1374637481327399
0.04490644285288977 -0.02305969156922138 0.13333475557521426
0.05980474302378821 -0.02313378014267719 0.1347224709148749
0.06035221168605017 -0.02342316069306171 0.14074498382762515
0.05232877084819006 -0.024031038662803532 0.1345265504474982
0.06029531905261206 -0.024189557215583683 0.13108342853740299
0.061790829392349 -0.02228882469834125 0.13618141380504215
0.05271193930712866 -0.02267121829689777 0.129809915697132
0.04789016196337866 -0.018956716439140202 0.13677316871837222
0.03802356669512915 -0.01580515064896381 0.1418529745693549
0.03608051488009619 -0.017689640900504948 0.1349719759579047
0.06478697607127357 -0.017480100771797062 0.13391053644374454
0.0564507300576322 -0.018621648928535343 0.14093655315593326
0.048981761427795166 -0.018511350533378483 0.13328206506923282
0.060396915169631714 -0.020868952652824284 0.1340198513622626
0.05501160571185278 -0.01816704430283344 0.13788610664561832
0.050612663718139404 -0.018899943014991642 0.1307491656895026
0.04652494737712073 -0.021197672268760563 0.13792932001308048
0.044167375059997314 -0.01701268114746845 0.14009582964137637
0.04144102880564856 -0.018453683039558293 0.13748937812999332
0.0423608178815 -0.01736747779549396 0.1392371651287421
0.05163348266688513 -0.01964556731880939 0.1391155716534003
0.05141151496974158 -0.018565888783347965 0.1436561342831
0.0465078110417478 -0.019754166981590153 0.13917583194926822
0.052930956574355835 -0.019488181254279972 0.134418069994007
0.0533716137131803 -0.01619785585106647 0.13861799207881534
0.047539805861388916 -0.017874445101631047 0.13340276447490299
0.04196930477229285 -0.015930648228538395 0.1398053762073859
0.03600812503901648 -0.012800122877967716 0.1441931125278815
0.035736357661163086 -0.014908666989219548 0.13857853380397403
0.054722433777724976 -0.015174473902595402 0.1381167170162543
0.048596804829513306 -0.014914150616538883 0.14427077738002383
0.04447442838755774 -0.015729273936164738 0.1379014250393256
0.052647000046645874 -0.017516638419044377 0.13680970636561954
0.04893580624667334 -0.014274086138618351 0.1400875445957526
0.045733576508437866 -0.015575523754966618 0.13413971630290591
