ply
format ascii 1.0
element vertex 216
property float x
property float y
property float z
element face 0
property list uchar int vertex_indices
end_header
-0.23385565927418542 -0.0866861299485091 0.2826157805080756
-0.23650672486218285 -0.08545088329018391 0.28541046348765936
-0.23791676214131188 -0.0857667283028487 0.2819970246906623
-0.22677865078839135 -0.08817952432335652 0.28385382858470526
-0.22866489937695336 -0.08756449379624165 0.2864884134884223
-0.23554667284878564 -0.08671369709671772 0.282223462736164
-0.23244991352948022 -0.08725595035256184 0.2818011042232856
-0.23393020978363824 -0.08613019742668904 0.28353029457286444
-0.23697223713787866 -0.08615150608719624 0.27914375034526434
-0.23422112515362573 -0.08521937884987629 0.28142428365901556
-0.23740040710362267 -0.08376356520355976 0.2844941612835273
-0.23824726989659142 -0.08416369118393696 0.2809726592655524
-0.22690452089699578 -0.0873374299019698 0.2825021740551337
-0.2286437397280581 -0.08676784791649617 0.2851459380741462
-0.23569797923954797 -0.0858483568638686 0.2809741493816718
-0.2326342706957705 -0.08575158872307576 0.2807174321766242
-0.23404490402134728 -0.08471163668335713 0.28242653576091376
-0.2371997778693087 -0.08462783255280293 0.2779716250057563
-0.23915424397381616 -0.08837180890740193 0.2850337025280341
-0.23985622277649712 -0.0878443674057845 0.2863503095264777
-0.23892773142250848 -0.08761274375618733 0.2843192812557563
-0.2365385537424929 -0.08781894602478779 0.2857884165401801
-0.23772739818486047 -0.08732163467110432 0.28708195654109564
-0.23839565565975976 -0.08746844091118611 0.2844176289196357
-0.23742374232205224 -0.08898406781853474 0.28360563484386053
-0.23829397013577294 -0.08823346652687825 0.2849361297245368
-0.2418021207133181 -0.08754142679871357 0.2815442678089484
-0.23649310520085168 -0.08342992820442952 0.27963393894389715
-0.2392394190112002 -0.08190512218178547 0.28249728647426214
-0.23910234322937798 -0.0822482661217574 0.2790442701931342
-0.22917493632229638 -0.08468275823296345 0.2799671289081916
-0.23125174096020532 -0.0839705721348647 0.2825415131206855
-0.23699789693745446 -0.08334663071335591 0.2787523862476691
-0.2347067987004168 -0.08426278390587605 0.27847915855601874
-0.2360609417239077 -0.08330025829972065 0.280215143835102
-0.23940938165577721 -0.08302011646927632 0.2758414146061286
-0.2399183159151919 -0.08810179986656941 0.2840579148884162
-0.23972850492390466 -0.08814602651299275 0.28379863468364325
-0.24128895452412438 -0.08817675270737446 0.2835098501797065
-0.23912356248291802 -0.0880693749398116 0.2842596170063361
-0.23894906988533807 -0.08809837259949482 0.28401076761439886
-0.24109737029465508 -0.08808320321739949 0.2835633751507148
-0.23806048384102654 -0.08864026822747029 0.2822188731785163
-0.23830124190243554 -0.08849739589394368 0.2824654575939521
-0.2417328452149279 -0.08777525582016743 0.2805190679188117
-0.24039533188732934 -0.08852502264679707 0.28459203211024847
-0.24023711135777306 -0.08858152785004414 0.2843533751125678
-0.24179431250485253 -0.0884818390816573 0.28388994899943915
-0.2395912950316317 -0.08839559116066731 0.2848644849415168
-0.2394377683678515 -0.0884644047230605 0.2846506234760627
-0.24148685684593987 -0.08832761206330098 0.284037530099903
-0.23771503022106957 -0.08895435490311421 0.2823230620975837
-0.23815588107498956 -0.08867883243263996 0.2827233668918952
-0.2417721097746737 -0.08793112196625508 0.2806633707638129
-0.2429790144244082 -0.0876866833180312 0.28428041902736273
-0.2424054985323794 -0.08788147129715718 0.28347527948573675
-0.24067364087494683 -0.08778070964516438 0.2840903994198188
-0.24281109323891473 -0.08765041389168537 0.2843126651401862
-0.24221036782654595 -0.08784511246384419 0.2835143801327094
-0.24073029508980584 -0.0877772823780898 0.2841008302326545
-0.24229904463681054 -0.08808692850769795 0.28273999658778753
-0.2421462779322512 -0.0882122770756606 0.28250062433436957
-0.2455466186085589 -0.08720650829972065 0.28133594957545843
-0.24146365573796105 -0.0858168856114272 0.28083336321071234
-0.2413758580962069 -0.08585041322411335 0.28062480655864325
-0.24064050069245171 -0.08611925997437275 0.2807230350132331
-0.24059503724964929 -0.08568688788117207 0.28093576399043646
-0.24052518060597253 -0.08570265330971516 0.28075218168452826
-0.2408483122864611 -0.0859917358368758 0.2806491252537116
-0.24114322116764855 -0.08663567461670674 0.27974587646678534
-0.24122562458905053 -0.08660468020142353 0.27985358205989447
-0.24444354525002313 -0.08586403288544453 0.27808797327235785
-0.23412133207711053 -0.08830329336823262 0.2805057760830268
-0.23542454293164086 -0.08762478389443196 0.2824884649868354
-0.23866573920639825 -0.08751147546471394 0.27927762237742987
-0.22765857925804925 -0.0879545763939742 0.2815130349750861
-0.22919226637276482 -0.0874457017392043 0.2834482189770087
-0.2359326129237063 -0.0865427509755019 0.27922844854549017
-0.23144041946324181 -0.08865400709809101 0.27941840854838934
-0.23266006460579705 -0.08768951453865803 0.28079360691264715
-0.23522540381344628 -0.0876120881050948 0.27677780357555
-0.23455045571717095 -0.08751514115036763 0.27940165964320746
-0.2360301857272036 -0.0867946402043227 0.281562685644184
-0.23892081728371453 -0.08671575345696247 0.2784213420505866
-0.22798215797337365 -0.08744075455368794 0.28034746614650335
-0.22966539314183068 -0.08688884534539021 0.28243088689998236
-0.23655948987397027 -0.08595209874810017 0.27820420232966986
-0.23194170942696404 -0.08745839752854145 0.27832484213069525
-0.23310885777863335 -0.08656012572945393 0.27967071500972357
-0.2358533834496386 -0.08639967002571858 0.27556031910136786
-0.23973680487068963 -0.09009211816490925 0.2827235457058295
-0.23997613242062402 -0.0898582891434554 0.2835212346668586
-0.24028267910870385 -0.08966892518700398 0.28199225631908026
-0.2372640018740542 -0.08941065826119221 0.283260523950611
-0.23788660219105554 -0.08914339103401936 0.284151911413227
-0.2398398314991839 -0.08902984418572224 0.2819582220669135
-0.237284818796242 -0.09020477094353474 0.2813147303219184
-0.23802045932205987 -0.08961405911148823 0.28225266901210394
-0.24043262949379754 -0.08898236908615864 0.2792843577022895
-0.2369810884276278 -0.08552431621254719 0.27771306005672064
-0.23897343328389 -0.08465256848038472 0.2800618406887397
-0.2400747185030825 -0.08482744850815571 0.2770960327740058
-0.23050476065071893 -0.08631202139557637 0.27840965954021063
-0.23228060653599572 -0.08575039663018025 0.28055602279857245
-0.2381453608551867 -0.08507188715637959 0.2766697403545722
-0.2340334748307116 -0.08586200632752217 0.2765818235035285
-0.2351693903485186 -0.08501877941788472 0.27794051138118353
-0.23812686851414513 -0.08468851008118428 0.2738873359318122
-0.23412133207711053 -0.08830329336823262 0.2805057760830268
-0.23542454293164086 -0.08762478389443196 0.2824884649868354
-0.23866573920639825 -0.08751147546471394 0.27927762237742987
-0.22765857925804925 -0.0879545763939742 0.2815130349750861
-0.22919226637276482 -0.0874457017392043 0.2834482189770087
-0.2359326129237063 -0.0865427509755019 0.27922844854549017
-0.23144041946324181 -0.08865400709809101 0.27941840854838934
-0.23266006460579705 -0.08768951453865803 0.28079360691264715
-0.23522540381344628 -0.0876120881050948 0.27677780357555
-0.23455045571717095 -0.08751514115036763 0.27940165964320746
-0.2360301857272036 -0.0867946402043227 0.281562685644184
-0.23892081728371453 -0.08671575345696247 0.2784213420505866
-0.22798215797337365 -0.08744075455368794 0.28034746614650335
-0.22966539314183068 -0.08688884534539021 0.28243088689998236
-0.23655948987397027 -0.08595209874810017 0.27820420232966986
-0.23194170942696404 -0.08745839752854145 0.27832484213069525
-0.23310885777863335 -0.08656012572945393 0.27967071500972357
-0.2358533834496386 -0.08639967002571858 0.27556031910136786
-0.23973680487068963 -0.09009211816490925 0.2827235457058295
-0.23997613242062402 -0.0898582891434554 0.2835212346668586
-0.24028267910870385 -0.08966892518700398 0.28199225631908026
-0.2372640018740542 -0.08941065826119221 0.283260523950611
-0.23788660219105554 -0.08914339103401936 0.284151911413227
-0.2398398314991839 -0.08902984418572224 0.2819582220669135
-0.237284818796242 -0.09020477094353474 0.2813147303219184
-0.23802045932205987 -0.08961405911148823 0.28225266901210394
-0.24043262949379754 -0.08898236908615864 0.2792843577022895
-0.2369810884276278 -0.08552431621254719 0.27771306005672064
-0.23897343328389 -0.08465256848038472 0.2800618406887397
-0.2400747185030825 -0.08482744850815571 0.2770960327740058
-0.23050476065071893 -0.08631202139557637 0.27840965954021063
-0.23228060653599572 -0.08575039663018025 0.28055602279857245
-0.2381453608551867 -0.08507188715637959 0.2766697403545722
-0.2340334748307116 -0.08586200632752217 0.2765818235035285
-0.2351693903485186 -0.08501877941788472 0.27794051138118353
-0.23812686851414513 -0.08468851008118428 0.2738873359318122
-0.23697652867230248 -0.0883379832714919 0.28695625034526434
-0.23845767429264855 -0.08814629473389424 0.2892580625172004
-0.24514436176213097 -0.08770522036255635 0.28574085203364935
-0.23069682171734643 -0.08665430106819905 0.2876558300609931
-0.23227057805451226 -0.08665677466095723 0.28972417083934393
-0.24178425422104668 -0.08561118998230732 0.28534507719234076
-0.23333502760323357 -0.08860209145249165 0.28581768242076483
-0.23536237528714013 -0.08778154411019123 0.287319898283039
-0.23974133482369256 -0.08744748987854756 0.2832951542492255
-0.237749809531296 -0.08761190929116047 0.2857511040325507
-0.23917839875611138 -0.08748828925789631 0.2882318493481025
-0.24567627361210656 -0.08712097563446797 0.2848130461330756
-0.2314573769846804 -0.08549525894821919 0.28633737531856146
-0.23280129781159234 -0.08557706632317341 0.28849834171489325
-0.24247089972885918 -0.0845532969445113 0.28416722980693426
-0.23508881976994347 -0.08770513095558918 0.28458768097117987
-0.2371942197361834 -0.08689778604210652 0.28596365419581976
-0.2413952594080813 -0.08659606733025349 0.28187334505275335
-0.24430348923596215 -0.08904507317246235 0.28886169162944403
-0.24567612460049462 -0.08868705787361897 0.2901659604664191
-0.24841148605736565 -0.08889898218811787 0.2880617376919135
-0.2402985190430529 -0.08900579371155537 0.28927874532893744
-0.24144337525757623 -0.08877059378327168 0.29046475855067816
-0.24666083803566766 -0.08860298552216328 0.28779494730189886
-0.24229245832356286 -0.0902574316471938 0.2875112887974128
-0.24326000562104058 -0.0897642926186446 0.28850007024959173
-0.24677293947132897 -0.08930494942368306 0.2852987643833503
-0.2413051222840197 -0.08669527926148213 0.28637325731471625
-0.2433866505900271 -0.08618944444359578 0.28858458963588324
-0.2477811520377047 -0.08618121900261677 0.2858089801426276
-0.23569417944344354 -0.0862075642556075 0.28691410986140814
-0.2375093047896273 -0.08600616016091145 0.2888847586269721
-0.24540210714730096 -0.08529117264450825 0.2852095362301215
-0.24054042449387383 -0.08683454551399983 0.2852750417347297
-0.24175738742741418 -0.08627202667893208 0.28642433849528876
-0.24527841260823083 -0.08598273553551472 0.28263825145915594
-0.23789584091099572 -0.08832111515702046 0.2845597263927802
-0.23919905176552606 -0.0876426056832198 0.2865424749012336
-0.24244024804028344 -0.0875292674511794 0.2833315726871833
-0.23143308809193444 -0.08797239818276203 0.28556698528483954
-0.2329667901078112 -0.08746352352799214 0.28750216928676214
-0.23970712175759148 -0.08656057276428974 0.28328251806453314
-0.235214928297127 -0.08867179908455647 0.2834724780674323
-0.23643457343968224 -0.08770733632744587 0.28484755722240057
-0.23899991264733148 -0.08762990989388264 0.2808318134899482
-0.23832494964989495 -0.08753296293915547 0.2834557291622504
-0.23980470946225 -0.08681243219078816 0.28561663595393744
-0.24269532611759972 -0.08673354544342793 0.2824753519649848
-0.23175668170842004 -0.08745857634247578 0.28440147606090155
-0.23343990197571587 -0.08690666713417805 0.2864848372097358
-0.24033401360901666 -0.08596992053688801 0.2822581526394233
-0.23571621826084924 -0.08747618951500691 0.2823789116497382
-0.23688336661251855 -0.08657791771591938 0.28372472492412176
-0.2396278922835238 -0.08641749181450642 0.27961432901576605
-0.24351132860573602 -0.0901099399536971 0.28677749601558294
-0.2437506412545092 -0.08987608112992085 0.2875752445812568
-0.24405717304142785 -0.08968674697579182 0.28604626623347845
-0.24103851070793939 -0.08942845024765766 0.28731447426036444
-0.24166114082726312 -0.08916118302048481 0.2882058617229804
-0.24361434033306908 -0.08904766597451008 0.28601217237666693
-0.24105934253128838 -0.0902225629300002 0.2853686806316718
-0.24179495325478387 -0.08963188090027607 0.2863067385311469
-0.24420715322884393 -0.0890001610726241 0.2833383676166877
-0.240755597261513 -0.08554210819901265 0.28176706997111883
-0.2427479421177752 -0.08467039026917256 0.2841158506031379
-0.2438492422381289 -0.08484527029694355 0.281150042688404
-0.2342792843857653 -0.08632984318436421 0.2824636694546088
-0.23605510046871972 -0.08576821841896809 0.28461003271297064
-0.2419198845902331 -0.08508970894516743 0.2807237502689704
-0.2378079836645968 -0.08587982811631001 0.2806357738132819
-0.238943914083565 -0.08503660120667256 0.28199446169093695
-0.24190137734803033 -0.08470633186997212 0.2779413458462104
