ply
format ascii 1.0
element vertex 171
property float x
property float y
property float z
element face 0
property list uchar int vertex_indices
end_header
-0.32353038811634827 -0.012768095126044342 0.13376531191335606
-0.3313297750944977 -0.01108137308586795 0.14019194431768345
-0.3345022919173126 -0.012357568135153839 0.1344574410484879
-0.3111130418772583 -0.007353102555167267 0.1345746237801163
-0.31881786608647156 -0.008116787066351959 0.14110413380132603
-0.32635549926708984 -0.008069937815558502 0.1342815477417557
-0.3084756555552368 -0.010985350003134796 0.13082108088003086
-0.3152413787836914 -0.008795058121573517 0.13506040163503574
-0.32152811908673096 -0.008456920971762726 0.12809971161352085
-0.325878989934433 -0.006175374379050323 0.13294103928075718
-0.33348227763127136 -0.0058743709229346006 0.13947960920797275
-0.33607680821369934 -0.0071994417809363095 0.13366744108663486
-0.3096234323973541 -0.00534704863060672 0.13212242908941196
-0.3188540759081726 -0.007001315941702911 0.13921156712041782
-0.32866148376416016 -0.005976622691046783 0.13078496046529697
-0.3155492367739563 -0.011011069407355377 0.12945941277013706
-0.32112292671154785 -0.009024863829505035 0.13245275803075718
-0.3242072286600952 -0.009709363570105621 0.1262268740700333
-0.3333898606295471 -0.0027456635140295713 0.12901929207311558
-0.33682326698254395 -0.002469574799429962 0.13314697332845615
-0.33701406145046997 -0.0035227590702887265 0.13017001934514927
-0.32330836081455994 -0.0035443955563421933 0.12868073769079136
-0.3279684605593567 -0.0035359018944617 0.13317939825521397
-0.3336458625788574 -0.003599380841147491 0.12841537781225132
-0.3276082398886566 -0.0055933648251410215 0.12731900997625278
-0.32998494529675293 -0.004594480385672638 0.1296705324219315
-0.3315827968115692 -0.00495872436989505 0.12521442957387852
-0.30300856852482605 -0.012782132019888946 0.09009686298833774
-0.30402703309010315 -0.011911486973654815 0.09211430140005039
-0.30148125910710144 -0.01218945323456485 0.09115654416547703
-0.297991228341568 -0.013847326626669952 0.09117728658185886
-0.3003550889487152 -0.012470876564871856 0.0935364980267136
-0.30079261684368896 -0.012842362513434478 0.09107348509298252
-0.29910157346676636 -0.013954078545462677 0.08963844366537022
-0.3007918419833069 -0.01229665218819339 0.09131655283437656
-0.30170602822254944 -0.012620007386099884 0.08804416842924045
-0.30466575646351624 -0.011168962111365387 0.08778909035192417
-0.30495731258343506 -0.010722880949866363 0.08970245905385898
-0.3031632127756958 -0.010214065899741241 0.08813202567563938
-0.29915995621632385 -0.012043541064154693 0.0880011934803574
-0.30037609958599853 -0.011393522610556671 0.09021604247556614
-0.3007181706423645 -0.011358713498007843 0.08782297559247898
-0.2994373562331085 -0.013481056084525177 0.08736399002538608
-0.30071274661968994 -0.01253521977890689 0.08846399374471592
-0.30174936079930115 -0.01231733499993045 0.08538526483045505
-0.3043097975249176 -0.016102378954779693 0.09033960290418552
-0.30419902229260254 -0.016277825226676056 0.0896174032257645
-0.30118648433636475 -0.013094072928320953 0.09165871329770969
-0.30292235040615845 -0.015835469355475494 0.09087678976522373
-0.3028876307005768 -0.016138409962546417 0.0900066215561478
-0.3000704767699127 -0.013387357582938263 0.09193515964017795
-0.3013587417597656 -0.014536028494727203 0.0914770383404343
-0.29938204312275696 -0.01527947722901065 0.08948835916982578
-0.302796942233551 -0.014003580202948639 0.08986267633901523
-0.33067367696713257 -0.01374182640541751 0.09138325043188023
-0.3360085608954315 -0.006947880377661773 0.09504351206289219
-0.3327250900263672 -0.01148158847321231 0.09144106693731235
-0.31495763087223816 -0.01381335197914798 0.09392267652021336
-0.3213652493948822 -0.009751027216803619 0.09888333268629002
-0.32320849323223877 -0.012170498957526275 0.0931671280430405
-0.32212544703434753 -0.01364175020683963 0.08794945664869236
-0.3253357233996277 -0.008476352085959503 0.09156105108724522
-0.32693047547291565 -0.0119606906079169 0.08671420999036716
-0.33193559670399475 -0.009758954634558746 0.09050199575887607
-0.3369975211615448 -0.005772566189658233 0.09552782960401462
-0.33370680832814026 -0.008280968060385772 0.08990118093954014
-0.31563149118374634 -0.010806357254874298 0.09027141519056248
-0.3232617201800232 -0.008366888155829498 0.09622121043668674
-0.32719601416539 -0.008876418461691925 0.08845681138502048
-0.32300068163822937 -0.012560730566870758 0.08715817518697666
-0.32715938711117554 -0.008463656296622345 0.09055030532346653
-0.3281630995268707 -0.011114304652106353 0.08482459373937534
-0.33256895565937805 -0.014370118965994903 0.09120273776517795
-0.3356363596911316 -0.01129642664421756 0.0957415122555344
-0.3329751911158447 -0.010653501143347809 0.0925897080467789
-0.325551522016037 -0.012733375420462677 0.091807635502681
-0.32903302931736755 -0.011146640171897003 0.09593096561895298
-0.3300654711718445 -0.01135913073052127 0.0911403913067429
-0.3259721817965393 -0.013516461243521759 0.0907170195149033
-0.32900838279675293 -0.011598264565360138 0.09314674325452732
-0.32944111251782227 -0.012016599764716217 0.08891591616140293
-0.32247195863674927 -0.014240091433417389 0.10709998198018955
-0.3294282379145508 -0.01156849204529483 0.11230412312017368
-0.33054046058605957 -0.013510858406912872 0.10720300860868381
-0.309311789512146 -0.011185055365454742 0.10779768414960789
-0.31487990641545105 -0.011269336333167145 0.11345169134603428
-0.321025234698761 -0.01147565781105716 0.10720175691114353
-0.3099126639361267 -0.01456827460755069 0.10386681743131565
-0.31555713438938904 -0.012143706669699737 0.10819399543271946
-0.32074509286831665 -0.012313937535178253 0.10183689184652256
-0.3250419023032074 -0.011407738318335602 0.10495430417524265
-0.3321292819971924 -0.009799277176749298 0.1104299146698563
-0.3327274146075134 -0.01144680916298587 0.10467603989110874
-0.30888227844189453 -0.010929142823111603 0.10317120142446445
-0.3168021860117798 -0.011255627264868805 0.10940051265226292
-0.3250222923750763 -0.010484790196311065 0.10165691562162327
-0.31750519299458313 -0.014251535525214264 0.10167101212011265
-0.3217513384814148 -0.012344514717948028 0.10467800684438633
-0.3237250866885071 -0.013535117497336456 0.09871524758802341
-0.33830935978840637 -0.01527444063652713 0.11323329992757725
-0.34087143564175415 -0.01437959610451419 0.11736825294958042
-0.34188534045170593 -0.015073632588278839 0.11476490087972568
-0.33310134434651184 -0.015168076147925445 0.1147643644379227
-0.3360327603812103 -0.014530723681342193 0.11855331249700474
-0.3399998071188812 -0.014612799277197906 0.11474415846334385
-0.3314474048609619 -0.015022581210028717 0.11255625076757358
-0.3342092754835968 -0.013354604830634186 0.11486330814824985
-0.3362394692892914 -0.013637667288672516 0.1108666080998032
-0.3361527743334656 -0.014244531979453155 0.11138630099759983
-0.33837480568836975 -0.014256303896796295 0.11570367403493809
-0.338659090041626 -0.014879947295081207 0.11387965269552158
-0.3296933593745117 -0.014685725560080597 0.11243531294332432
-0.3326884629721527 -0.014624630799185821 0.11673447676168369
-0.33717415952633667 -0.014662092318427154 0.11289963312612461
-0.33127198839138794 -0.015559082617652008 0.11050179787145542
-0.33312241458843994 -0.014332508435141632 0.11263022013173984
-0.3339237692351227 -0.014736210694205353 0.10878023691640781
-0.3405339839453583 -0.012927358736884186 0.11086988635526585
-0.3410345139498596 -0.012768929591071197 0.11210027523504185
-0.3389029028410797 -0.012319242348563263 0.11347505636678623
-0.3369219424719696 -0.013509964337241241 0.110907794909343
-0.3376405360693817 -0.013235753168952057 0.11229482479558872
-0.3367076041693573 -0.013335114111792633 0.11348620243535923
-0.33616278791378784 -0.014378582825553009 0.11125201173292087
-0.3367495062346344 -0.014096235623251983 0.11205455847249912
-0.33745322847317505 -0.013381009688269684 0.11037194915281223
-0.314644140243042 -0.00952408253182132 0.08943554945455479
-0.3160529556269531 -0.00826457678307254 0.09182214923368381
-0.31456087255429077 -0.008660172810446808 0.09020179696546482
-0.3099511685366516 -0.010225271572959015 0.09093880839811253
-0.3116700770850067 -0.008962904801261017 0.09323597140775608
-0.31317911767910767 -0.009082948555838653 0.09036117978559421
-0.31122840666722107 -0.008695488562476227 0.08859279938207554
-0.3128995718951111 -0.007000243058096954 0.09018412418828892
-0.31305537843655395 -0.0075080448292608945 0.0870677549408524
-0.31411163234661865 -0.008762990822684356 0.08845827169881748
-0.31576369428585815 -0.007723962654959747 0.09142214246259617
-0.3142272653574829 -0.0075094157360907285 0.08950343914495396
-0.3075889768595581 -0.010125403990637848 0.08971563168035435
-0.30893794918011475 -0.009257917990576812 0.09264898486600803
-0.3122989060873871 -0.008600985398184845 0.08890730329023289
-0.3102471055979614 -0.008487438549887726 0.0882462877796738
-0.3111716630453949 -0.0075801366471167295 0.08932709880338596
-0.311841827868927 -0.007576053728949615 0.08608460612760471
-0.31473575258206177 -0.009567713131796905 0.09071442671285557
-0.3147232654089813 -0.009673094143759796 0.09031328745351719
-0.3120215358729248 -0.00688779889572818 0.09293031878934788
-0.31296790862034607 -0.009613370289694854 0.09135723300443577
-0.3130732002253418 -0.009713744511496612 0.09096959419713901
-0.31144915246914673 -0.007499253144156524 0.09275305457578586
-0.3131162943835144 -0.007768457522284576 0.09270352311597752
-0.3116589906210785 -0.008374249329459259 0.0916686374710648
-0.3138515772814636 -0.007340794196021148 0.09054681845174717
-0.3178094747061615 -0.012019103159796783 0.12374600954519199
-0.32448689365338135 -0.0062547677658911435 0.12745663710103916
-0.32256738567303467 -0.0101620906494971 0.12322285957799839
-0.3015639903540497 -0.010505651821982452 0.12481978722082065
-0.30866668844174194 -0.008417075266730377 0.13119003363119053
-0.311727059125412 -0.010456358780753204 0.1249676663445084
-0.30370418453167725 -0.0132765823506232 0.11945447512136387
-0.3116203966135864 -0.007377778878104278 0.1239029485748856
-0.31508965516041565 -0.010194783797156402 0.11836537905202793
-0.3207336189741974 -0.009132032980811187 0.12249329872594761
-0.32704047584484863 -0.0051547640465613095 0.12734666653142857
-0.32607157254170227 -0.0076388174198981015 0.12086865492330479
-0.30366150760601807 -0.007600938668143341 0.12101921625600742
-0.31190471076916504 -0.006385242333304474 0.12777450867162632
-0.3165306272501831 -0.006994789233100006 0.11976847239004063
-0.3107509436602478 -0.011807476868521759 0.11853459663854526
-0.316034806012619 -0.007554357638251373 0.12227931805120396
-0.3183895173067932 -0.00993851362694461 0.11612323112951206
