ply
format ascii 1.0
element vertex 189
property float x
property float y
property float z
element face 0
property list uchar int vertex_indices
end_header
-0.32098532938908386 -0.018650149693381378 -0.1230450551940353
-0.32621012353848267 -0.016251360764395782 -0.11888468079103542
-0.328347456693161 -0.0164198928974982 -0.1223976593448074
-0.3168119015688782 -0.01096952496994693 -0.12180310301317288
-0.323564034938324 -0.009443795075308868 -0.11717161349786831
-0.3261034908289795 -0.010266011347662994 -0.12068387679590298
-0.3130642595286255 -0.0107055956028815 -0.1258519273234756
-0.3190826895232086 -0.008378391852271148 -0.12083354405893398
-0.3225183608527069 -0.009486799826514312 -0.12525766901506497
-0.3254024806017761 -0.013504123082053253 -0.12408834509386135
-0.3300603749747162 -0.011256402125250885 -0.12000524811281277
-0.3326991024012451 -0.011683558812033722 -0.12420266680254055
-0.31841729307125854 -0.00877872644890506 -0.12426951341165615
-0.3247420909399872 -0.008081799139868805 -0.11867651156915737
-0.32893933081578064 -0.008555685868155548 -0.1232458632422836
-0.3168823244566803 -0.013376986374747345 -0.12656810693277432
-0.32246260070751953 -0.01072550355423648 -0.12186714820398403
-0.3262378396983032 -0.01162913977135379 -0.12730133347047878
-0.33080766820858765 -0.01441607414711673 -0.12403231672777248
-0.3332379879946594 -0.013070737709891388 -0.12121999077333523
-0.33467663550328064 -0.013075476279151031 -0.12424480728639675
-0.32638071203182983 -0.011716132750403473 -0.12411230616106106
-0.3295556130404358 -0.01071593700875003 -0.12097266129983975
-0.33246479654263306 -0.01127353846062381 -0.12365716509355618
-0.3251998248095398 -0.013394092907797882 -0.12615781836046291
-0.3294357182974701 -0.01139069138992984 -0.12254288606180264
-0.33056713366459656 -0.012363528599631378 -0.1263475101424606
-0.2851997139449005 -0.018418228020560333 -0.08248010091318203
-0.2886702539915924 -0.016585713019263336 -0.07968464307321621
-0.29231042885731506 -0.016796355833899566 -0.08295580558313442
-0.2780838432307129 -0.01718438207138736 -0.082281081004277
-0.28072027587841797 -0.01650184928406436 -0.07909169606699062
-0.28713677549313354 -0.01674598990906436 -0.08222380094064785
-0.2763929786677246 -0.020694887032401153 -0.08553841523660732
-0.2781576337809448 -0.01945820986260135 -0.08162066154016567
-0.2847055914397125 -0.01939794956673343 -0.08620434813036038
-0.2856591465468292 -0.01698214351166446 -0.08361679129137112
-0.2892319383616333 -0.015323644270789215 -0.08042695931924893
-0.29333017492245483 -0.015422260155570099 -0.08426153473390652
-0.27843318605374145 -0.01465750276077945 -0.08434259705080105
-0.2822741093630676 -0.014209752669226715 -0.08040493540300442
-0.28850887441586304 -0.014501427998435089 -0.08400052599443508
-0.27635805034588623 -0.021478509297263214 -0.08644470386041714
-0.27921186113308716 -0.020193492760550567 -0.0827802699042709
-0.2855606200690155 -0.019998376955878326 -0.08761548809541775
-0.3189352574343567 -0.022505527129065582 -0.07637697271837307
-0.3223226191992645 -0.02158278762329776 -0.07325196079744412
-0.3278858783240204 -0.021367018809210846 -0.07562973908914639
-0.3140318813319092 -0.01949105202187259 -0.07647311501039578
-0.31863431358288574 -0.018829649081122467 -0.07309439591898037
-0.3263141336436157 -0.019176190485846588 -0.07527795247568203
-0.3124238374228363 -0.018672412028204986 -0.07753965072168423
-0.31428770446728516 -0.018390750279318878 -0.07348194531930996
-0.32159431004475403 -0.018066232790839264 -0.07756227068437649
-0.3223693790430908 -0.02021530806053836 -0.07510310225023342
-0.3252962651247864 -0.01952001987923343 -0.07248294167055203
-0.3315089764590149 -0.019382720579993316 -0.07481369189752651
-0.3170232894415741 -0.01721942960251529 -0.07611748389734341
-0.32119337940167236 -0.016743844141852447 -0.07300153188242031
-0.3298271121973877 -0.01717439829338748 -0.07498985342516018
-0.31492908024739075 -0.018789445748221466 -0.07668077759279324
-0.3167601945395355 -0.018730615963828155 -0.07296937517656399
-0.3240653398032074 -0.018379634013068268 -0.07713568024171902
-0.3285422744746094 -0.021998559822928497 -0.07118677906526638
-0.3301342251295929 -0.021324520697485992 -0.0695273857547195
-0.33447141671131897 -0.02090594707955081 -0.071124253792897
-0.32568309926937866 -0.020033424487006256 -0.07139426283372952
-0.3279517116541748 -0.01948172389496524 -0.06929144076837612
-0.3339481773371582 -0.019349520792853424 -0.07091551832689358
-0.3238475444311981 -0.018421416869055816 -0.07292312197221829
-0.3254865827555542 -0.01787788211334903 -0.0698793213797958
-0.3306665840144043 -0.01795453368653018 -0.07279148511423184
-0.30403284454296875 -0.005035882582556793 -0.10340735129846645
-0.3044505240912323 -0.003988599171530792 -0.1025270801021011
-0.30353633785198975 -0.003438418497931549 -0.1044886689616592
-0.3014784874911194 -0.0046193355225439756 -0.10196775011552883
-0.3024768056864624 -0.0033168548249121396 -0.1008747499419601
-0.3024145188326721 -0.0036052220963354795 -0.10270649008287502
-0.3016533675188904 -0.0034281664990301816 -0.10577925853265835
-0.30385558032940674 -0.000509595265280792 -0.10391190461649014
-0.3039244236941223 -0.0018996947907324521 -0.10643714479936672
-0.30523325228642273 -0.004497354617011139 -0.10462269000543667
-0.305660826205719 -0.0035789066456671445 -0.10383048467172695
-0.304845613479126 -0.0029592567585821836 -0.10576495341791226
-0.3027836503977661 -0.0039011889599676816 -0.10321521572603298
-0.303603005647171 -0.0027999335430975644 -0.10223343781961514
-0.30374507331799316 -0.0030562931202765195 -0.10401311330331875
-0.30294872546147156 -0.0032545679711218564 -0.10661658458246304
-0.3047460737223511 -0.0005962604187842099 -0.10491838864816738
-0.3047879757876282 -0.0018463188313360898 -0.10747858695520474
-0.3081162395472412 -0.00323719321716983 -0.1055468600226791
-0.30811564350079346 -0.003209924092185089 -0.10553300194276882
-0.30720419907521057 -0.001224701990973541 -0.10613632015718533
-0.3073903443808441 -0.0026317888401861875 -0.10450210980905605
-0.30739150667141724 -0.0025348716877814023 -0.10444661788477017
-0.30652074241589355 -0.0012695842884894101 -0.10510209016336514
-0.30814306163739014 -0.0033636146687384336 -0.10640218667520596
-0.30890811705540466 -0.0015830749176855771 -0.10559120587839199
-0.30802334570835876 -0.0018616074227209775 -0.10716301016344143
-0.32756770873020935 -0.024043118348013946 -0.11247396282686306
-0.33293877267788696 -0.023218607296835968 -0.10848012380136562
-0.33875341439198303 -0.02318081795204837 -0.1116692703200729
-0.32260690355252075 -0.018290316452872345 -0.11309045366777493
-0.32875673198651123 -0.018635099520575592 -0.10836219601167751
-0.3355759801859741 -0.019211893668067047 -0.11130970530046536
-0.31808306002568054 -0.01853386103142459 -0.11375960521234585
-0.32178337597798157 -0.018346166005026886 -0.10929134301675869
-0.32943145656536865 -0.01792896329392154 -0.11416232399477078
-0.3335966887469177 -0.01822117506493289 -0.11221027187837673
-0.33887351775120544 -0.017430161824118683 -0.1083961408568771
-0.3451110544199829 -0.01756388484467227 -0.11193498782648159
-0.32633490586231995 -0.014247512211691925 -0.11412519030107571
-0.33275665068577576 -0.01519272266854007 -0.10850712470544888
-0.3406605842108612 -0.015281950821768829 -0.11243429593576504
-0.323650133847702 -0.01764199673165042 -0.11424699239267422
-0.32885648035954285 -0.01686573564041812 -0.1102114599181564
-0.3358276607985382 -0.016290908446204254 -0.11576750688089443
-0.3389128866190796 -0.020132755627524444 -0.11258888058199001
-0.3412951650614624 -0.01946503459442813 -0.11038255505098415
-0.3464887561793213 -0.019501572241675445 -0.11242466978563381
-0.33532954478215027 -0.016889517893683502 -0.11326509527696682
-0.33840651535939026 -0.016644006361853668 -0.11062037758363796
-0.34518070244740295 -0.01693827449310977 -0.11261036805643154
-0.3330944302077179 -0.019384121289145538 -0.11423814110292507
-0.336941880225647 -0.018577104201209137 -0.11097794584764553
-0.34089521789501953 -0.018809085478674957 -0.11485451273454739
-0.3027093532080536 -0.015727316727530548 -0.08483275584711147
-0.30556820058773804 -0.014959459891211578 -0.08200993947519375
-0.31202821159313965 -0.015042489161383697 -0.0846481304599197
-0.2974440875048523 -0.013930594315421173 -0.08496036939157559
-0.30065367841671753 -0.014343952526938507 -0.08116495422853542
-0.3083437504763489 -0.014461314072501251 -0.08411919884218289
-0.2930664839739685 -0.018427615752112457 -0.08589190058244778
-0.2954483153815155 -0.017737155547034332 -0.08282074145807339
-0.3035763921732788 -0.01691386639107425 -0.0876083355380447
-0.30640743398617554 -0.010927950730216095 -0.0835243146850021
-0.30912299179981995 -0.01021835743416507 -0.08101305179132534
-0.3153995397086029 -0.010624980320822784 -0.08339777402414394
-0.30034072422932434 -0.009389137616049835 -0.08433809690012051
-0.30396140837620544 -0.009942864766013214 -0.080255774779454
-0.31190739297817993 -0.01004079519737918 -0.08329292945398403
-0.29831705713223267 -0.014865791191947052 -0.08452173881067349
-0.30034260177563477 -0.014314895262610504 -0.08202916197313381
-0.30763001465748596 -0.013498490443121978 -0.08677738718523098
-0.3345479192728882 -0.016406511654746124 -0.12651574425233914
-0.33906174921940613 -0.014025753130805084 -0.12232827953828884
-0.3416650118822937 -0.014587467303168365 -0.1266408245994003
-0.32874582433651733 -0.01079094945419986 -0.12559050135149075
-0.3334507467741852 -0.010002737631690094 -0.12044262699617458
-0.33770297193478394 -0.010546093573462555 -0.12522432021631313
-0.3268603506083374 -0.014444714178931305 -0.12901279143823696
-0.33195347809742737 -0.011457180371176788 -0.12422865442766262
-0.3359005274767761 -0.01232988177765567 -0.12966343574060513
-0.3383936407561188 -0.009635036578070709 -0.12842961959375454
-0.34276203536938477 -0.007644599070441314 -0.12412559799684597
-0.3448688211436157 -0.00822255550850589 -0.1284653525782974
-0.3307135822768097 -0.005736713995825836 -0.12886443547739102
-0.33568124198864746 -0.00547713576782901 -0.12288212589754177
-0.3409893336291199 -0.005775963654410431 -0.1283398549987228
-0.33067683601330566 -0.010345613350760528 -0.13105532340540005
-0.33484320068310547 -0.00792784034241397 -0.12670847587122036
-0.3385135056967621 -0.008506959071051666 -0.13243046216501309
-0.3432107689375763 -0.01135823666084964 -0.12900531105531765
-0.3444335880274658 -0.01059967814911563 -0.12663152627481533
-0.34536765241574097 -0.010229563107382843 -0.12873107008470608
-0.33951534056614685 -0.008776074042212555 -0.12894403748048855
-0.3417878570551758 -0.00817198096741397 -0.125877169890538
-0.34308899664830017 -0.00895923911560733 -0.1281356792880447
-0.3404522957796936 -0.009833281626593658 -0.1303244512511642
-0.34167365455578613 -0.008496677269827911 -0.12758859805597378
-0.3433979871268158 -0.008875494589697906 -0.13129338435663296
-0.31084669852207947 -0.019384687533270904 -0.09685858897699429
-0.31755338334988403 -0.018150930991065094 -0.09196224622263027
-0.3240015926356201 -0.018204843392264435 -0.09592497162355496
-0.3032922568316345 -0.014596497406851837 -0.09703182987703396
-0.31031338596295166 -0.015106683363806793 -0.09150570444597317
-0.3178396942610626 -0.015857731690299103 -0.09507721476091457
-0.3012651028628235 -0.017409419407736847 -0.09807109646333767
-0.3042887272829895 -0.01714581786621768 -0.09328996948732449
-0.3138867440218811 -0.01628059684265811 -0.09893259219659878
-0.3203089656824951 -0.010430043330084869 -0.09223773889078213
-0.32651628279637146 -0.00952768861283023 -0.08814501575960232
-0.332422358035553 -0.009710585465323517 -0.09235083870424343
-0.31076971912335205 -0.006838237633597442 -0.09448358230127407
-0.31814919137905884 -0.007747506489646026 -0.08877086452974392
-0.3260336639876251 -0.008060341467749664 -0.09305992536081387
-0.3086936297411804 -0.012324994196784088 -0.09506550244821621
-0.3133071484560852 -0.011784231057059356 -0.09081429056657864
-0.32221792364071655 -0.010742014040839264 -0.09682881645692898
