ply
format ascii 1.0
element vertex 448
property float x
property float y
property float z
element face 0
property list uchar int vertex_indices
end_header
-0.19034689411075933 -0.03467093198565163 -0.09048206603572123
-0.1915439341917835 -0.03070707409647622 -0.08794636523768656
-0.19161148115547522 -0.030219865730082177 -0.08780328428790324
-0.18839257701786383 -0.03817824809816994 -0.09431740140959971
-0.1884541784182392 -0.03842101781634011 -0.09420111274764292
-0.18772907301338537 -0.03197802393702187 -0.09557000792071574
-0.1878602777376972 -0.030252439668451928 -0.0953223208193516
-0.19140119596870764 -0.028038663556849145 -0.08824873960063212
-0.18779499575050695 -0.02927844016817727 -0.09544555342242472
-0.19189980372341497 -0.041694445302759786 -0.08719251549288981
-0.19146215661915167 -0.02652592747477212 -0.08811960613772624
-0.1925861214056812 -0.038378400495325704 -0.08300093805835002
-0.19260813042076452 -0.03256405680445351 -0.08177528774783366
-0.18906783803852423 -0.025470657041346215 -0.09304256236598246
-0.1926064912930332 -0.038611424854075094 -0.08186615502879374
-0.19263909503372534 -0.030999732902323388 -0.0800521472696995
-0.18922914310844763 -0.02356765954760232 -0.09273805713698619
-0.19263401373775824 -0.02954678027895608 -0.08033422625109904
-0.1901660238161884 -0.022395474603449487 -0.09086523449465983
-0.1925791327610813 -0.03280211775568642 -0.07798321044490092
-0.1926537428751789 -0.027420533588205957 -0.07923663651988261
-0.1926091735020481 -0.0245185920503489 -0.08171767985865824
-0.1925025854960285 -0.03951306431559243 -0.07778809464022868
-0.19239201887997015 -0.030411762883936547 -0.07750625407740824
-0.19222174331100805 -0.021140945842539453 -0.08651057875201457
-0.19171365841778143 -0.03596947877672829 -0.07577721273944132
-0.1908369635001026 -0.01879255264071145 -0.08944393193766825
-0.19053217514904364 -0.018277955940043115 -0.09008956944987528
-0.19260461374672277 -0.020774615695749902 -0.08197123801753275
-0.19262785955818518 -0.021591080119883203 -0.08067698276087992
-0.1890727554217182 -0.017996592214380883 -0.09303329384371989
-0.1908464108362995 -0.03905643313196816 -0.07356674468562358
-0.19257302328499182 -0.01794130890635171 -0.0837299922709202
-0.19208369895370825 -0.021889133146082543 -0.0767203966383671
-0.19003416344078405 -0.03222022741106667 -0.07149640715167277
-0.19226395830067022 -0.020101023605143212 -0.07717988884494059
-0.18900648995788916 -0.028391284635340356 -0.07111991441294901
-0.18961009129436834 -0.014222008874689721 -0.09201885259196513
-0.19012811526211126 -0.025628132512842797 -0.07173589861438029
-0.18787884458454474 -0.02824122994211831 -0.07070718205020182
-0.19032984718235357 -0.023939443519388818 -0.07225004828021281
-0.18946774050148352 -0.025758249452387475 -0.07128874456927531
-0.19260216995628698 -0.014870090177332543 -0.0821074942354893
-0.19080820425899847 -0.013044370105539941 -0.0895048478846287
-0.19266068681629522 -0.015468491008555078 -0.07884977257296794
-0.189651114191135 -0.011441094568049096 -0.0919414261584019
-0.19158446535023077 -0.016883624484812402 -0.07544795668170207
-0.1886128161803089 -0.011090440442835473 -0.09390159940764659
-0.1926154617920719 -0.012624455383097314 -0.08136631047770732
-0.1905872349396549 -0.008942169835840844 -0.08997292316004984
-0.1902803455248676 -0.008917582919870996 -0.09062291181132548
-0.18943330391796454 -0.008939785650049829 -0.09235240018412821
-0.19123604639919622 -0.01198480813769021 -0.07455987727687113
-0.19005661949070318 -0.014052970102106713 -0.07155365741297953
-0.19537432238014563 -0.033115131547724386 -0.06266869103953593
-0.19643774374874456 -0.03860048740175881 -0.06294555461451762
-0.1937162701741062 -0.03717468469408669 -0.062235693097565103
-0.19532078250797613 -0.03020868985918679 -0.06265483295962565
-0.19163568064125402 -0.037340027978693624 -0.061692963004562784
-0.19202926501186712 -0.009116841247355126 -0.07658163702533
-0.19266374155433996 -0.008092922857081079 -0.0786800781492924
-0.19116386517437323 -0.031063420465265893 -0.06151250994250529
-0.18989386900814398 -0.00518066971567788 -0.09144059813067668
-0.1925665263787113 -0.0058039256837717525 -0.08409215009257548
-0.19218370064648016 -0.02630503266123452 -0.06183580553576701
-0.19817271574886663 -0.03569628088740029 -0.061625073314163614
-0.18854479237945898 -0.0120366641786448 -0.07095093524501078
-0.19408300265224798 -0.02424935786989846 -0.06233144795939677
-0.19224214300068243 -0.004300309112345361 -0.08646697795436137
-0.19265909239204748 -0.006016207626139306 -0.0789387623076176
-0.19321545704754217 -0.02128089754847207 -0.06210447347209208
-0.1988630716458164 -0.0277018675115458 -0.06085614359423869
-0.19174587472828253 -0.006472093751703881 -0.07585934793994181
-0.19866162284763678 -0.025433046510492944 -0.06108132994220011
-0.18953151747139318 -0.04013319103983559 -0.058753291726562906
-0.19971452399643286 -0.030553234508310937 -0.059904555440399576
-0.19992978617103918 -0.038382662227427145 -0.05965570604846232
-0.18992182358654364 -0.02350248186854043 -0.059417704701874186
-0.2002203886166416 -0.0401343831327311 -0.059329907060120035
-0.18778089925201757 -0.0020127126481882564 -0.09547811245963328
-0.20067316039951666 -0.03161211102274575 -0.05882928764865153
-0.18856474503429754 -0.03759716241625466 -0.05711911118075602
-0.19149879857452734 -0.017134232213770532 -0.06164313352153056
-0.188850892032703 -0.02678037970331826 -0.05760277307078593
-0.1926508371487461 -0.0027040371206156245 -0.07939792668864482
-0.1983745519772373 -0.018649859121119165 -0.061389724374267984
-0.18809187158497198 -0.034074229886805196 -0.05631981289431803
-0.19968227788360937 -0.02207357971933999 -0.05994073545977824
-0.18807542070301397 -0.03234778135088601 -0.05629200732753031
-0.19138201817425116 -0.015869421651636743 -0.06160796678111308
-0.19453142329605444 -0.014779252698694848 -0.062437782645676065
-0.19242794557960852 -0.0003455111291758052 -0.08607254421756022
-0.1898979221239887 -0.01901276200083413 -0.05932507908389323
-0.20134472593220099 -0.02847410528925576 -0.05786056315943949
-0.18777787431629522 -0.02943219034937539 -0.05578903353259318
-0.18793709322365149 -0.027607781579767846 -0.05605814850375407
-0.1926236723318897 -0.0006562897470346919 -0.08091006672427409
-0.20040681704433783 -0.021532637765680932 -0.05913225805804484
-0.19774976118954046 -0.014772010734354638 -0.062071452498886515
-0.18771551295669897 0.0003473034593709477 -0.09560574090525858
-0.19214962169082983 -0.0017475613859049312 -0.07688842213198893
-0.19148009761722906 0.0011717847082265385 -0.0880811909441685
-0.19130289300831183 -0.0021426805761209956 -0.07473025715396159
-0.18775060519131048 0.0011127165052541264 -0.09554075694129222
-0.19253852709682806 0.0013507178518422612 -0.08560384309336894
-0.20224463685901983 -0.04016811936167397 -0.055552969336960245
-0.20215740546139105 -0.041833204915796895 -0.05577562248751872
-0.2020935837879978 -0.02570195286539712 -0.05594770109698527
-0.19256964072140081 0.0023777058813222417 -0.08387658989474528
-0.19951908036621435 -0.014307601144587182 -0.060101906419250894
-0.192094442690929 0.0004053881857045659 -0.07674781477496379
-0.1926045243397556 0.0021962991449483403 -0.0819486180548405
-0.20264319821747168 -0.03203336684969582 -0.05455140268847697
-0.18837198361309393 -0.0018554159906260005 -0.07088769471690409
-0.18876693889053686 -0.015586597612177514 -0.057308236718628336
-0.19254265471847876 0.0034349730703481206 -0.08535472548053019
-0.20139017447384222 -0.017624241998469018 -0.057733813882324625
-0.1888167534724079 -0.01480458467272439 -0.05736885464236491
-0.19246375306995733 0.0037216714117177495 -0.08599622046992533
-0.18913748606594427 0.004129754612172461 -0.09292271232650035
-0.19256709262283667 0.003682779381001807 -0.0840177336935734
-0.19633893414886816 -0.007778627565180444 -0.06292248761698954
-0.20301939293297155 -0.03530318825510659 -0.053586790919754435
-0.19932920977028235 -0.011405540397440576 -0.060302058816406656
-0.20280576988609655 -0.02539713471201577 -0.05413098132655375
-0.19264967485817297 0.003320085117543555 -0.07816303765818827
-0.20317563160808905 -0.04150275676516213 -0.05318752920672648
-0.19057404741199835 -0.008103413274561547 -0.06021256244227641
-0.1920666073218189 -0.00640021055010476 -0.06174943840548747
-0.20355634137543066 -0.03828070848253884 -0.052214125752899576
-0.19038389369400366 -0.0073142477777353755 -0.059883634210083414
-0.1916030321970783 -0.005472315242563867 -0.06162030494258158
-0.2036671762123905 -0.02639128058222451 -0.05193928873584025
-0.1974132333651386 -0.004553867271219873 -0.06239233410403483
-0.2029192273274265 -0.018937332322870874 -0.05384782946154826
-0.19253998741062506 0.006783025572026587 -0.08542976772830241
-0.1912281040802799 0.0041198602411397466 -0.0745396116976475
-0.18785826608093603 -0.010934186866556787 -0.055730263352844644
-0.20114618286045416 -0.009593588998591088 -0.05828360712573283
-0.19075231000336035 0.00757916481229148 -0.08962927258059733
-0.19086839004906042 0.0077552667352803716 -0.08938280737445109
-0.1896234874382816 0.007943885633672095 -0.09200538194224589
-0.19259063645752295 -0.0030477473047129146 -0.061866472125503946
-0.20434696718605383 -0.03429500549105324 -0.049903462291214395
-0.1878769819393955 -0.009259057929789209 -0.05578411614939921
-0.20212308808716162 -0.01112760393885293 -0.05585352575824015
-0.1892396186247669 -0.005503786495005273 -0.057982097030136515
-0.20141593858154638 -0.008042676141535424 -0.05763853585765116
-0.20462539538296087 -0.03338376968172707 -0.049051294684860636
-0.1884108309403263 0.004918711492741919 -0.07090191042468302
-0.19916209324749334 -0.0033002027776590816 -0.06046078598544352
-0.20366902395637854 -0.017336679389750146 -0.05193982517764323
-0.18774866804035528 0.009430842706883765 -0.09553166723296397
-0.1975747917548023 -0.0009172686841837398 -0.06218645966098063
-0.1906574641123615 -0.0007032880094400874 -0.060298571944687296
-0.205060568894466 -0.028928709914957666 -0.0477279821638798
-0.20458648845108374 -0.021654290845667504 -0.049168089986298014
-0.19327248379143103 0.000991868087972022 -0.06202326214358561
-0.20402291163357122 -0.016034019878183984 -0.05090586340472453
-0.19225378080757483 0.011300551006520606 -0.08644096052691691
-0.20513570054920538 -0.026169551303660058 -0.04749603068873637
-0.20539247735889776 -0.034753246000086446 -0.046693156123611856
-0.2053223971978031 -0.02876443951395669 -0.046924779773209024
-0.19804428264053686 0.00094960839482627 -0.061647037625763346
-0.20126706108005865 -0.0028886923101297847 -0.05800346529528849
-0.19074885293396338 0.008925365516866065 -0.07331807410762065
-0.20451386019142492 -0.016852719476496362 -0.04940221703097575
-0.19030512615593298 0.001042234012807227 -0.05972809588954203
-0.2028914217606388 -0.007579309633051538 -0.05389709270045512
-0.1916720543757282 0.012555795023167945 -0.08767638599917643
-0.1925316725626789 0.012545095989430762 -0.08581639325663798
-0.20577656968983038 -0.03511155932215371 -0.045516947865936686
-0.20246113583000525 -0.005271387985026025 -0.05498830473468058
-0.1895436172142826 0.013067918131078101 -0.09215591347262614
-0.2037292097464405 -0.010012073209559106 -0.05177868402049296
-0.19376136108787878 0.0037428012582906255 -0.062169591546509195
-0.20586438223274572 -0.041616869857584615 -0.04525191581294291
-0.19263525053413733 0.012600140878880835 -0.08020926511332743
-0.20472724481972082 -0.014515978982721948 -0.04874513542697184
-0.2061182682171665 -0.034690869739329 -0.044241438270065714
-0.20616423829944952 -0.03803823678759255 -0.044004778027985025
-0.18803898736389502 0.014332490274632789 -0.09499157464549296
-0.20201381787212713 -0.0009684690740458003 -0.05611632263705485
-0.20578710481079443 -0.020409298827921533 -0.045503507018539835
-0.2032103513136707 -0.0045867392328135005 -0.05309439694926493
-0.1898758982077442 0.003954725572789527 -0.059108535409424234
-0.19888567670734747 0.004277901956761695 -0.060692081809494425
-0.19076004370601995 0.005166786024297095 -0.06064439809367411
-0.20627969249637945 -0.02926523773935952 -0.043419788241836954
-0.19120566293152197 0.015379743883336402 -0.08866650855586283
-0.20627490922363623 -0.026697857072626733 -0.0434531072382664
-0.2050520752325855 -0.012551290681635522 -0.047744850278351236
-0.20411617800148352 -0.006947083165918969 -0.050603161216232706
-0.20625452443512304 -0.024375511100565576 -0.043560097575638224
-0.19265888377579077 0.014568763086522437 -0.07892952358767741
-0.18783038600834234 -0.03437538235453286 -0.03990290558383219
-0.20643755539806707 -0.041020883014475484 -0.04259611165568583
-0.19262751683147772 0.01548372418614707 -0.08062819635913127
-0.18789438649566992 -0.028900278499399804 -0.03966567909762614
-0.20564336820991858 -0.014285219600474023 -0.045937220216247965
-0.20086063190849646 0.0043805411550649175 -0.058577458024475504
-0.19088531776817663 0.014094101497853614 -0.07366586720988505
-0.2064318929568134 -0.023849857738291406 -0.042642484069321085
-0.188101020897945 -0.0416028627660624 -0.038899550796005655
-0.18870061382206305 0.005381183931554175 -0.05715368187472575
-0.1912731800928913 0.015009390423024512 -0.07465449965045207
-0.1914913777962528 0.008642839500630713 -0.061400334001038004
-0.187774551357349 -0.020811928203379296 -0.040109912515137125
-0.18821309253128393 0.013856070348943091 -0.07082952058360331
-0.2068090264454685 -0.031531197717463155 -0.04068125283763163
-0.20153185471447332 0.004605906316960669 -0.05730582273051493
-0.18823986991794928 -0.027375800302302026 -0.03838480508372538
-0.19212992235573156 0.016608165809834815 -0.07683823502108805
-0.19307872399242743 0.010357724735463477 -0.06191922223613017
-0.18882263943107946 0.007316934177602149 -0.05743236339137309
-0.20531230911167486 -0.006712479284083032 -0.0469396213297581
-0.19246376797111853 0.01765965134831748 -0.07768912112757914
-0.18874327584656103 -0.03383739083079018 -0.03651837503955119
-0.18794880553634985 -0.01677061407831826 -0.039462725282165934
-0.18806873008163794 -0.01770065515307107 -0.03901834285304301
-0.20390632494839056 0.0004092624876149663 -0.05126572644755595
-0.20698517307194098 -0.024231476476465844 -0.039780418038818766
-0.19255858405979498 0.019523786613667823 -0.084370384574387
-0.19258223220260962 0.019440489122594214 -0.0830799440149998
-0.20384558781536444 0.0011787286493428716 -0.05144883191630595
-0.2047754947796665 -0.0023947486188761226 -0.04859177267596476
-0.1890560512200199 -0.03736816137102761 -0.03570804989382975
-0.18900458260925634 -0.030721260001932763 -0.03578291332766764
-0.20670710250290258 -0.016905022552286767 -0.04122001922175639
-0.20292235657127722 0.004462586948598243 -0.05381221568629496
-0.18807373687179907 -0.015021873405253076 -0.03900052106425517
-0.18844598277958258 -0.01898367493418374 -0.03762007749125712
-0.20641652985962256 -0.012067479779993676 -0.04270730412051432
-0.18868851407917364 -0.021529597928797387 -0.03672138845965617
-0.2072260801449619 -0.02525760023859658 -0.03853432333514445
-0.20730618878754004 -0.041271609952723165 -0.0381185809378361
-0.2007171486273609 0.009640442440236426 -0.0587179461722111
-0.18850472315700872 0.020695047685826636 -0.09410418069407694
-0.18925404294880255 0.020970003912175513 -0.09268955385730021
-0.1880259488478504 0.020805644104207374 -0.09500805532977336
-0.2072619621411167 -0.02930764644411721 -0.03745613491580241
-0.1906356637135349 0.021312820026601172 -0.08986810839221232
-0.2063452427044712 -0.00918532698420205 -0.04307202494189494
-0.2071178232088886 -0.030957503011500024 -0.03699941432521098
-0.18972226723583563 -0.04162843315867104 -0.034738818765137125
-0.20171448334606512 0.00927107245656333 -0.05680791533038371
-0.18923313661964758 -0.021842432906901025 -0.03545037901446574
-0.2071713779822193 -0.026166779687678002 -0.03717071807429545
-0.20701667412670477 -0.040116978576456686 -0.03668324148699992
-0.19280813380630835 0.014114128658498145 -0.06191493070170634
-0.19253751381786688 0.02167569310399375 -0.08558006084010356
-0.18965044363888128 -0.02407248108652749 -0.034843305707428385
-0.20699460550697668 -0.027929557254587793 -0.036609182715866495
-0.19034594043644293 -0.03056172817019143 -0.033831457257721353
-0.18933932229431494 0.012383776018346167 -0.05842907226130717
-0.20593595250995977 -0.0040926465299479 -0.04502869641825907
-0.18892565115841253 -0.018344921758448266 -0.03589842712924235
-0.19263493760975225 0.0213553777429708 -0.08022571599528544
-0.19036987170132025 -0.027539415052210473 -0.03379661834285014
-0.1908209596529804 0.020026790210927344 -0.07350186502978556
-0.20534170910271032 -0.0005898305681101314 -0.04685888683840983
-0.18999501809032782 0.02290867478581748 -0.09122554457232707
-0.1921797220364414 0.021423863479817725 -0.07696516311213725
-0.20650635405929907 -0.03893594234255471 -0.0350653628115391
-0.20721998557003363 -0.01516030519274392 -0.03856576478526347
-0.19855940088184698 0.014873700449193335 -0.060999194741699625
-0.20688406869324072 -0.02100871293810525 -0.03626487648532145
-0.19465957328232153 0.016344772884572364 -0.062478909850571085
-0.18783673390301092 0.020188139984334327 -0.07069177424952738
-0.2012034778252445 0.013183640548909522 -0.05807394778773539
-0.1974827472821079 0.016518848249638892 -0.062193254590485025
-0.2070335422411762 -0.009948415448938989 -0.03952402865931742
-0.18972132846268042 0.015471117803777076 -0.059237043023559977
-0.20085488006027563 0.01392488391133628 -0.05856082832858317
-0.20686192556770666 -0.01745767681864419 -0.03619490063235514
-0.18858404203804358 0.021666603395665503 -0.07096529996440165
-0.20673788830192907 -0.00557042448786416 -0.04104797041461222
-0.18833034976871832 -0.005946172168528222 -0.03815517818972819
-0.20577926680000647 -0.039539856603418966 -0.032761255860779215
-0.19161940857323034 0.02357362420293174 -0.0755370060209965
-0.19079304977806433 0.02566291601392112 -0.08953557407901042
-0.2043748621598087 0.007659452268803931 -0.04981414473101847
-0.20338412865551336 0.010548489401067115 -0.0526413122420048
-0.20714670165928228 -0.007984054973398828 -0.03894088661715739
-0.18968489512356146 -0.011215192964350366 -0.034798035979721476
-0.20269416018875464 0.012323396513188697 -0.054368982673141886
-0.19255380078705175 0.025648342678273536 -0.08475253975436442
-0.20487642034443243 0.00637836963864646 -0.04828296101138346
-0.2057721440449558 0.003295647213185645 -0.04554859793231242
-0.19081182524116858 -0.014312458923136376 -0.03315521276042216
-0.18839065476806982 -0.003996981075083398 -0.03796563541934245
-0.20617210611255987 0.0012669435236104497 -0.043975571752045084
-0.1919964079514347 0.02615298540326438 -0.08698661124751322
-0.18873429044636114 0.017012613126958228 -0.05758092796847575
-0.2064285252943836 -0.013894123723780297 -0.03482035791918986
-0.20601483925732 -0.016593558481012963 -0.033508400083038736
-0.20709621652515753 -0.008644474437510156 -0.0369342068438267
-0.2042704795256458 0.010093229124272681 -0.05013755953356974
-0.18794032677563055 0.02695806534024558 -0.09516988194033854
-0.1892469201937519 -0.0063476690557352534 -0.03545031940982096
-0.19258290275486334 0.027006106683934546 -0.08314428722903483
-0.19151723131092413 0.026132362196172095 -0.07527656352565043
-0.19790521010311468 0.020631568739140845 -0.06178770458743327
-0.2064026419773899 -0.009676230838572168 -0.034738163114044596
-0.19931079193504675 0.020516770193303443 -0.06025535857722514
-0.18982809528263433 0.021061795065129615 -0.059486905694458414
-0.2061735068217121 -0.009412957122599267 -0.034011552691910196
-0.1885764573469959 0.0008275678846486577 -0.03721852099940531
-0.20643783852012976 0.0048422089311727055 -0.04261172807261698
-0.20584782704265936 -0.010808629682337426 -0.03297872340724223
-0.2070047084942661 0.0011921992990621098 -0.03967393434092753
-0.20275450989158972 0.017272042343343116 -0.05420751369044535
-0.19152663394363745 0.023387329885686255 -0.06167183315798991
-0.1886547331467472 0.021263377973759986 -0.0574708381895756
-0.20725925012977942 -0.0008841583040110103 -0.03744746243998759
-0.1886166606798969 0.002798186847890235 -0.037131080985519815
-0.2049399737969242 0.012813167879308082 -0.04809845483348124
-0.19076731547268255 0.03075893432828269 -0.08959121501490824
-0.1896736745491825 0.02795948297711692 -0.07136411464259379
-0.19349792345913275 0.024432795355046607 -0.06220907962367289
-0.18883286162765844 0.0026114156934865483 -0.0362112323050236
-0.20731481655987127 0.0014300218317159184 -0.03807435429141276
-0.18764921769054754 0.009070443222249366 -0.04103596007868998
-0.20471212014110907 0.01474498421880088 -0.048796693444702555
-0.20735274001510962 0.0019050112459310063 -0.03774369752452128
-0.20278008028419836 0.01949228555890403 -0.054137925267670084
-0.19135893627556189 0.030061738798344947 -0.07487306988284342
-0.20629609867485388 0.009721355745519019 -0.04334564006373637
-0.20169940337093695 0.0219848623964437 -0.05685834085986369
-0.20594614490421637 -0.003759605577265405 -0.03328774368808024
-0.19260437532814367 0.0317536464426168 -0.08197761571452372
-0.19465943917187079 0.026391910621846534 -0.06250901019618266
-0.2042109344855152 0.017569856950963355 -0.05032534396693461
-0.20117203637512548 0.023581134388173438 -0.05819899833247416
-0.20652246221454962 0.00958840758534751 -0.04217455780551188
-0.19259059175403936 0.03245984227391563 -0.08275027072474711
-0.19817797585876806 0.02595551521512351 -0.06156704819247477
-0.18798999234588964 0.010431992122853614 -0.03960148489520304
-0.19012498601826056 0.03346301824780784 -0.09095219767138712
-0.190574405039867 0.0033907464239247807 -0.033526013255569864
-0.19159824892433508 0.032252984354222636 -0.07548303401515238
-0.18926767751129492 0.034344094106877665 -0.09266553318545573
-0.18775866671951635 0.013046192238057471 -0.040539602399322916
-0.19262669726761206 0.03375257761212669 -0.0807419518236851
-0.19022890671642645 0.005365150282109595 -0.034025142550918985
-0.2001579080477558 0.026505695888722754 -0.05937726295039408
-0.19055784984978064 0.005091684171880103 -0.03354598081156962
-0.19831153496654852 0.028564887354100562 -0.061440030694458414
-0.19261485084446295 0.035024540731633524 -0.0814009705786442
-0.19570964321049078 0.02977578551503501 -0.0627777377371525
-0.20694386705311163 0.007330792257512427 -0.03645227348849528
-0.19210135682972296 0.035720484564030985 -0.08676580584094279
-0.18823365613373144 0.013710247585500098 -0.03858981525943034
-0.19024200483711584 0.03386910469266258 -0.07202620303675883
-0.19065567597301825 0.0341839066240438 -0.0730805794005131
-0.2071527068272434 0.011326002189839698 -0.03891361749217265
-0.1885348086014591 0.03644718439313255 -0.09404934442088358
-0.20370863124283178 0.024209009716237403 -0.051827500224564005
-0.2050935302630268 0.02095891744824729 -0.04760924971148722
-0.20695815726669653 0.013537096092427588 -0.03991974389598124
-0.19119925543220861 0.03158073336812339 -0.0615890125040745
-0.19430301829727514 0.032167511293614726 -0.062401841044876505
-0.19227739914806707 0.0378610363695272 -0.08639285957858317
-0.1878414128676258 0.03779702098103843 -0.09535839653060191
-0.19024699672611578 0.0315952470991262 -0.06003654992625468
-0.19027730568798407 0.031864809105122904 -0.06008110439822428
-0.2064173941269718 0.01836364180775962 -0.0427039662604069
-0.20210143669994696 0.029147880384648658 -0.05589957034632914
-0.1892394100085102 0.03900988609525047 -0.09271896874949687
-0.20562179132850988 0.02222217828961692 -0.04599122202441447
-0.19261048480423315 0.03861929685803733 -0.08164451515719645
-0.1915417586222492 0.03919632942410789 -0.0879511336092686
-0.20620646819027288 0.010580854723180152 -0.03411615884349101
-0.19156868502052649 0.0336149802896627 -0.06168288981959574
-0.1885983024493061 0.017018752405370093 -0.03702301776454203
-0.19047473117264135 0.013517366955006934 -0.033643017173263956
-0.20641045018585547 0.012162940809453345 -0.03476304805323832
-0.206963342870792 0.017502444097722388 -0.039887378573868204
-0.2055701588049732 0.023620235035146094 -0.046150575042221476
-0.19782116755398138 0.03426440269681297 -0.062012354493591715
-0.1907523994103275 0.03448988706799827 -0.06085840857074015
-0.19244232520016058 0.03957690508099876 -0.0776344934706425
-0.18835617348106726 0.019743757555211402 -0.03787116205737345
-0.19662134095581396 0.03563530952664695 -0.06300015246913188
-0.18791278942974432 0.03294231207105003 -0.05606288707301371
-0.188364533032497 0.033567833015645365 -0.05682394897982829
-0.20358305915745123 0.029751943657124854 -0.05215508735224955
-0.1887203131571613 0.019280361244405127 -0.036527464747879435
-0.190460098232349 0.041696774074757914 -0.090242365956757
-0.2064740930453144 0.02245854050847373 -0.0424106518034672
-0.20269505425842627 0.03154714615079246 -0.054417471051666666
-0.1910508100643955 0.039971368620122294 -0.07408771908328288
-0.206952196802219 0.01689155609341941 -0.036485830903503824
-0.20636576160343512 0.01536955148907981 -0.03462303674266093
-0.2066748712912403 0.021971540758336402 -0.04137528932139628
-0.20542876168640478 0.026534037897313453 -0.04658631479785197
-0.1982820306673847 0.0361883810255178 -0.061501036048386026
-0.1926164303675495 0.04173536808224998 -0.08131344115779154
-0.20488770052345617 0.02842720062466941 -0.048249820828888346
-0.194152725185474 0.037943469593251566 -0.062353859305832315
-0.19261756285580023 0.042718725511754374 -0.08124987280413859
-0.20660085722359045 0.0242029598447927 -0.041757712722275186
-0.1917221818819843 0.042291598627293925 -0.07579893863246195
-0.18823791786583288 0.024365024873936988 -0.038268903851959635
-0.2042697493687473 0.03164892108174644 -0.05015076196238749
-0.19012747451217993 0.03817109973164878 -0.059781471848938394
-0.18797981485279425 0.025613801786626197 -0.039149145246002603
-0.20319832607658728 0.034186588833058695 -0.0531317690615391
-0.1944581542864643 0.053440856048787455 -0.06242916977450602
-0.19061544283779486 0.06821419508191429 -0.06058547890231364
-0.19567195817383154 0.08780865580769859 -0.06274635589167826
-0.20647151514442785 0.10695417434903465 -0.0424351195101475
-0.20239132388981207 0.10630263597699485 -0.05519182479426615
-0.20679804428966864 0.04464788944455467 -0.03599462902590983
-0.19948719188125952 0.0908102563116201 -0.060157755971405436
-0.19230122610481604 0.07917125732632957 -0.08634219563052409
-0.20653879388721808 0.08855112106534324 -0.04207397496745341
-0.19775877639206274 0.07510574371548973 -0.06208700931117289
-0.20564952238949163 0.04368521482678733 -0.045924792647812296
-0.18790429576786383 0.0988029411527761 -0.09523918724105113
-0.1882581983462177 0.044865684816563944 -0.03831539547488444
-0.19807804867180212 0.07040833146306358 -0.061733941197845865
-0.19056793793590887 0.05516745359631858 -0.060505340457413126
-0.19264264151008947 0.08588423044415794 -0.07985387241885417
-0.18895518525989874 0.0942102840635427 -0.09325524663970225
-0.1889024500504337 0.05271963984700523 -0.035931477904770304
-0.1919624780073963 0.0726600459310659 -0.07641140615985148
-0.19206510230453833 0.04632519395085655 -0.07667301094577067
-0.19085499390514715 0.05076529295178733 -0.07358861959025614
-0.19066253050716742 0.03437431366177879 -0.03338692581698649
-0.1929363731995426 0.08738173753949485 -0.0620325008635258
-0.18840072795303686 0.07078592688771568 -0.05684186017558329
-0.2066288267031513 0.06328742415639244 -0.04161907231852763
-0.20647151514442785 0.10695417434903465 -0.0424351195101475
-0.19125798090847357 0.11216806084843955 -0.08855209744021647
-0.19775877639206274 0.07510574371548973 -0.06208700931117289
-0.19082647308262213 0.0633543601724752 -0.07351593172595255
-0.20572936281116827 0.06479199440213523 -0.03260097897097819
-0.20732000216396673 0.08201141864987693 -0.03804744279429667
-0.18892611309440954 0.10006921202870689 -0.09331012761637919
-0.20732000216396673 0.08201141864987693 -0.03804744279429667
-0.2003416989699207 0.10767476470204673 -0.059194634318802286
-0.19348361834438665 0.04934700042935691 -0.06217510497615092
-0.20723101242931707 0.06127040297719322 -0.03850639855906718
-0.19407161816509588 0.07658188254567466 -0.06232808029696696
-0.18845493837746008 0.06141312629910789 -0.03758732473895304
-0.19107924147995337 0.023205029079640723 -0.0327670971159672
-0.204327148641666 0.08573074848386131 -0.049958298564407755
