ply
format ascii 1.0
element vertex 587
property float x
property float y
property float z
element face 0
property list uchar int vertex_indices
end_header
-0.03561044975670201 0.05047048837872825 -0.20523292815730326
-0.09127123400123936 0.08758183033200584 -0.18995482718989604
-0.0729930524483524 0.08291195542546592 -0.19260212278411143
-0.039110434497912946 0.05191455991002403 -0.18768678104922526
-0.07653437301071507 0.061776535818303446 -0.19332502281710856
-0.03812779232414586 0.07442264468404136 -0.188127766013596
-0.041021419014056745 0.09527383954259239 -0.18767132854506724
-0.08084319278152806 0.05189962894650779 -0.1936230460409855
-0.06014294668587071 0.06430496484967552 -0.19847431278273814
-0.0512039785042606 0.04329164535733543 -0.2037493685488438
-0.06225703402908665 -0.000521791866099023 -0.19443675375029795
-0.09325900420101506 0.07879366190167747 -0.18893289065406077
-0.08744694038780552 0.06838076026173912 -0.19187084829852336
-0.05467368408592564 0.10100148827763877 -0.1874861518149113
-0.061647814954837385 0.014325844356740332 -0.19667742645785563
-0.033881974662860456 0.06712614209386192 -0.18990852928206675
-0.062071454967578474 0.10541995079251609 -0.1964529702667927
-0.08526141687782628 0.08004014403554283 -0.192752833128426
-0.05714420720489842 0.05441893846722923 -0.20091391599223368
-0.03861210986526829 0.09328086883756004 -0.2061539540295338
-0.06062705561073643 0.026726411888326026 -0.19786628580138438
-0.0626122181073032 0.05550046474667869 -0.1953451285366749
-0.05914909883888585 0.07154958159657798 -0.18950652575537913
-0.06112117811592442 0.07552163512441001 -0.19734070694491618
-0.07813419147880894 0.10577728063794456 -0.19368692731902354
-0.0819245402470432 0.008894102880681373 -0.19340693450019114
-0.06011582657249791 0.013503687689030982 -0.18986211216494792
-0.05912022038849217 0.0969680121633657 -0.18935092783019297
-0.07171983763130528 -0.03274823515680947 -0.19043243920848124
-0.07575686022194249 0.04881336004468284 -0.1931490550045704
-0.058711779560168806 0.04899014742108665 -0.189369762897942
-0.061486822809299055 0.09444852382870994 -0.19127387797877543
-0.05787031098755223 0.08054633648129783 -0.18905722594306223
-0.057955575431903425 0.039663331815923075 -0.2004965493683552
-0.04524467631729466 0.08422501594754539 -0.1875299612288212
-0.058446181263049665 0.011247055837834693 -0.18915000057265513
-0.057943416084369245 0.08927826792928062 -0.20046995079562419
-0.06209046884926182 0.08381550223561607 -0.19359264767215006
-0.06231395646484715 0.0823694637510427 -0.19436698651358836
-0.059713048185428205 0.0077021589967854985 -0.1897626171116566
-0.09378342076691014 0.10306407720776878 -0.18865845596835368
-0.03336666270645482 0.10551037103864036 -0.19000218308017008
-0.054147613491138044 0.02813519746991477 -0.2024826208357548
-0.06232081099899632 0.0003010800573476323 -0.1963999668364262
-0.06145690127762181 0.05824636132451377 -0.19709403312251322
-0.061364871706088606 0.09876950294705711 -0.1909106621746754
-0.060458523477634016 0.027549790451253272 -0.1980551431183552
-0.060567033733447614 0.08671884448262535 -0.19793465232894175
-0.05643249794395787 0.02843831689092002 -0.20126859343096964
-0.07134677215965611 0.03889970690938316 -0.18948122358367198
-0.061235052789767805 0.05404930026265464 -0.1905127266649937
-0.050902528013309065 0.043465988943303446 -0.20383256173178904
-0.05030376955421788 0.0836335292551168 -0.18765018379733317
-0.05332152291687352 0.08739607245656333 -0.20292131102130168
-0.0798609678402744 0.04024015576573692 -0.19381865358397715
-0.06172729774864537 0.025470393011296607 -0.1966419169907307
-0.05480976148994786 0.03376899869176231 -0.20214057958171122
-0.058746946300586286 0.03118242532941184 -0.18912013864562266
-0.05780680223854405 0.01776541979047141 -0.20053234195754283
-0.04988039776237828 0.10232113511296592 -0.20410644507453196
-0.04593910023125035 0.06022496731015525 -0.20518259203479045
-0.058555824007113996 0.10730712325307212 -0.18918436265036814
-0.061941338028033796 0.034539984771931986 -0.19298329448745005
-0.05889455720337254 0.0305639377329 -0.19975824153468363
-0.03768796965034825 0.09976797015401206 -0.18929147219702952
-0.04298110052498204 0.0781350305769094 -0.20608914887950175
-0.04543168589027745 0.048282729694569926 -0.20536373055026286
-0.05747885748298985 0.021160083124364234 -0.2007041523461079
-0.07058857127579075 0.07415773184033714 -0.1875481555466389
-0.040519816125949445 0.10592992813321433 -0.18768052256152384
-0.054019195283969465 0.013321029255116797 -0.20257038867518656
-0.09544943019302708 0.11042680055829368 -0.1877905974392628
-0.07372219606788975 0.09135340363713584 -0.19271026051089518
-0.03753553077133519 0.010626273462499 -0.18800559139296763
-0.03315789743812901 0.10443185479375205 -0.19034420943305247
-0.048697901214679304 0.08640594989987693 -0.20440834260031931
-0.06270725771339757 0.05211653024884544 -0.19577899074599497
-0.0341172938004337 0.08516778261395774 -0.20479046797797434
-0.07916836186798436 0.08916719467374168 -0.19401536381289713
-0.07213772579582554 0.04542233259412132 -0.19149784243151896
-0.06112910553367955 0.10103334696027122 -0.19743811583564036
-0.04692543789299351 0.09188856394025169 -0.20489243662402384
-0.09274963780792576 0.0760353973600515 -0.1892011711601948
-0.039162439550479475 0.07084147841664634 -0.20627146458670848
-0.07911117121132237 0.10935898334714256 -0.19392351305529826
-0.061249536718448225 0.07046576053830467 -0.1909546951060032
-0.059652281250079695 0.03747554332944236 -0.1897025058274006
-0.05851013704689366 0.06911112577649436 -0.18925353384062998
-0.038608861412128034 0.016061710426534034 -0.2061965862517094
-0.08416874452980382 0.10881038219662986 -0.1929570237402653
-0.06247324987800938 0.07248436124059043 -0.19495623803183787
-0.03780261918457371 -1.086085108437454e-05 -0.18788787221953623
-0.08136124655159337 0.026818709680760718 -0.1935199300055241
-0.0613089327469669 0.054426865884984355 -0.19077196216628306
-0.0802729551449619 0.08634169609280906 -0.19382109737441294
-0.0551884596005283 0.08098797709676109 -0.1880180040602421
-0.03916926428230626 0.09576381952496849 -0.2062895545963978
-0.08110929771812779 -0.03829203336504616 -0.19356950616881602
-0.03651521846207005 0.00018702656956992234 -0.18818284070536845
-0.07715330764206273 0.0956976583692678 -0.19358303642318003
-0.033568007196506086 0.010578381130421973 -0.20444143807933085
-0.0883717362538181 0.10990847856732688 -0.191407139063332
-0.038602394308169904 0.10004098922940574 -0.20611462986514323
-0.06155012294205052 0.04624085337849937 -0.19699497020289652
-0.061915886844714704 -0.021236343076502465 -0.1966520944838261
-0.06161902591141087 0.037550108740056376 -0.1969001094107365
-0.0384832446232639 0.019728826591695166 -0.20614975190207713
-0.07171804949196202 0.09832610399457298 -0.19093337154433482
-0.05473355695160252 0.0681717863771566 -0.18759431934401744
-0.09454078718574864 0.04834501654836021 -0.18826403713271372
-0.05559207245262486 0.08857996971341453 -0.2017145851855015
-0.09390409037025792 0.06452097208234153 -0.18860108649775736
-0.07389203950317723 0.0058287552091725835 -0.19272697961375468
-0.04522128149422032 0.03080366761418662 -0.2054040530924534
-0.036659998144229475 0.008370863506520606 -0.20546216762110942
-0.03572047993095738 0.0970772376749166 -0.20519375300452464
-0.07712773724945408 0.09994630725118003 -0.19351139164016
-0.03397707387359959 0.035014199325764994 -0.189796547055695
-0.061982226814349714 0.006653653690541602 -0.19650467729613535
-0.05651603385361058 0.10645525366994224 -0.18821005022570841
-0.05563930913360936 -0.02625112026003518 -0.20170112943694346
-0.05654470368774754 0.057143705198491435 -0.20123153424308055
-0.04526190205963475 0.10017724544736228 -0.2054091939930653
-0.04203386351021153 0.06465406925412498 -0.20638900494620555
-0.05118296786697728 0.09482111246320091 -0.20374781882807963
-0.09577850743683201 0.011865781852925635 -0.1876198599343037
-0.054467779840549055 0.07716424972745262 -0.20232334232375376
-0.032927167858203474 0.0505427888128408 -0.19029797112986796
-0.035471749748309675 0.108036922523702 -0.18848636245772593
-0.08623178049476964 0.05488018901082359 -0.192478636861298
-0.07377765818985325 0.10570074827405296 -0.19271210825488322
-0.08083106323631627 -0.0044174322393290034 -0.19362546002909892
-0.07546736046226842 0.10412068874570213 -0.19309029972598307
-0.06238640591057164 0.05830215127202354 -0.19611572718665354
-0.09522579356582982 0.06996725709172569 -0.1879066178803181
-0.054826480592807356 0.06506110937329612 -0.20214068388983958
-0.07239447280319554 0.035920398542607646 -0.1921524504427647
-0.04543848081978184 -0.029018593719278955 -0.20532841479823344
-0.04503078504951817 0.005067305872166968 -0.2054992715124821
-0.04856578751953465 0.08878292352887474 -0.20444534218356364
-0.05751351758392674 -0.0061580964830271236 -0.20075921213671916
-0.05888579532059056 0.04516719491216026 -0.19980389869258158
-0.06055868908317906 0.11298503191205345 -0.19014347589061015
-0.05475388213547093 0.08954440266820274 -0.18832618987605326
-0.08615104600342137 0.02902589947911582 -0.19251928722903483
-0.06253166242988926 0.0330583921167501 -0.19588389492079966
-0.05818076177986485 0.08267761976453147 -0.1892152378563618
-0.033726555551608625 0.03321497351857505 -0.20459152257487528
-0.061335248197635237 0.0013100674841054448 -0.1905948320631718
-0.07128767415436131 0.0044072440359242925 -0.1893304983381962
-0.047780555929263654 0.0070640316698201665 -0.20470004773185008
-0.03500185653122288 0.04954125196667991 -0.20501741266295664
-0.033100706781467024 0.048175918171132426 -0.19031612074420207
-0.037346256221850935 0.024498658487523414 -0.20579421019599192
-0.037930471147616926 0.07637451798650108 -0.18817853426978343
-0.05711678906830174 0.05509804398747764 -0.18862381076857798
-0.0335011307850681 0.06010075123044334 -0.1898854324822163
-0.06164078160675389 0.03448488027783714 -0.19193823134944193
-0.05624694868477208 0.05412371666165672 -0.20138553774401896
-0.06190918132217747 0.038549559423650126 -0.1928591678147053
-0.03792385503204686 0.04349811584683738 -0.2059299299721455
-0.046288800682147566 0.10055475146504722 -0.20509883260771983
-0.04888479157837254 0.08629249245854698 -0.18752070760771983
-0.08607281490715367 0.061355369398320536 -0.1925583729748463
-0.037620646204074445 0.03967862040730796 -0.20582700765177958
-0.08849172040375096 -0.01752115576532998 -0.1913470724825596
-0.07502473637016636 0.0786456039640554 -0.19298539555117838
-0.03628082319649083 0.1098212471696981 -0.18828649318263285
-0.08077488585861546 0.06430243165227256 -0.1936366508011555
-0.03776953860672337 0.048665629932607035 -0.18810700869605296
-0.085072678770145 0.044384883949483256 -0.19278077280566447
-0.09033544107826573 -0.03856132715014138 -0.1904233047966694
-0.03835184618385655 0.06054030568333946 -0.20607536530539744
-0.062252235855182234 0.09867121488782249 -0.19406915700480692
-0.0847118024483524 0.04503448517056785 -0.1928526411061024
-0.08703569814117772 0.0420056155416616 -0.192076141596291
-0.037006181921084944 0.10799972922536216 -0.188169891596291
-0.058072221721728864 0.07667385251256309 -0.18897294497534983
-0.056972665037234846 0.08506705076428733 -0.2009777972702717
-0.058859867300113264 0.0808118751737722 -0.1894566962723469
-0.03335408612640721 0.027729379245961524 -0.19005552923724406
-0.035456878389438215 0.09070016653271995 -0.205191398621056
-0.03288562342079503 0.0915598741266378 -0.20425490534350627
-0.062419814313968244 0.08154125721188865 -0.19475323951289408
-0.06257994219215733 0.05938108474942527 -0.19523578381583445
-0.06240473433884007 0.049361216137135844 -0.1946185330157017
-0.04208831235321385 0.10732247144910179 -0.2063871870045399
-0.05033565803917271 0.05533661157819114 -0.20396479463622325
-0.08998267098816258 0.021793173858846045 -0.19059994316146128
-0.06152622147949559 0.10969512374135337 -0.19153809046790354
-0.033367854799350324 0.005350368330205298 -0.1900076816086506
-0.07035912319572789 0.09544016630383811 -0.1875248799328541
-0.03584207340629918 0.07689546258183799 -0.1887901822333073
-0.06152049943359715 0.09318526298734031 -0.19139784073874705
-0.05371655270012242 0.11033298284741722 -0.20272197818801158
-0.09000290676506383 0.036742167780125956 -0.1905904809241032
-0.07878936573418004 0.11140297562810264 -0.19388545548960917
-0.0364046518460117 0.10056512267323814 -0.18964260315940135
-0.054375184024890486 0.09842615039082847 -0.20237083232447856
-0.0722005788937412 0.05101259262296043 -0.19165798521086924
-0.07072274133118016 0.019947635242665625 -0.18789021170184367
-0.07843141003998143 0.026173727819646216 -0.1937543699745869
-0.04422352954300267 0.0336016586515554 -0.20571737980887644
-0.08211911960991246 0.09805365116330467 -0.1933050999645924
-0.06142286702545506 0.08954124362202964 -0.19125879800364726
-0.0597164456501804 0.07272662431928001 -0.19888317084357493
-0.05202324434669835 0.088246541330541 -0.18764198815867655
-0.04830474897774083 0.0826194158289083 -0.20452178514048808
-0.04397819682510716 0.08927785069676719 -0.2057901272778248
-0.03889147683533055 0.0876589289400228 -0.2062237063650822
-0.061542672361453596 0.062276857206548075 -0.19699997699305766
-0.036522549833377424 0.06553714186879478 -0.18834048008963816
-0.05719227835090977 0.04638813645573936 -0.20089613890692942
-0.07691482945831639 0.07044868380757652 -0.1934111217264866
-0.08932099982651097 0.03320767194959007 -0.19093185162589305
-0.05465651794823033 0.020122306654179908 -0.20220753049895518
-0.07285685583504063 0.09789119870396934 -0.19257914519355052
-0.060697746719440046 0.08799089700909934 -0.1899016002421116
-0.05792785927208287 0.0019166937563069829 -0.20057926571414225
-0.035903794015964094 0.00502900988789878 -0.18863291537806742
-0.053647292102893415 0.02891378314229331 -0.20275060331866496
-0.060343963350375715 0.09282578737469993 -0.19821628427550547
-0.0882656399861179 0.024162905523503638 -0.19146015739485972
-0.04392455264480931 0.025615530321324683 -0.20580964779898875
-0.06243581816109044 0.11230202228757225 -0.19472982978865855
-0.033615988935550276 0.03223420889111839 -0.18998151516959422
-0.09084214016350133 0.05633171112271629 -0.19016958272502177
-0.055215728725513044 0.08097006590100608 -0.20192113018080943
-0.08430187150390965 0.08944379002782188 -0.1929342249636387
-0.0920880858555637 0.04731659800740562 -0.1895419756178593
-0.0723710779801212 0.06304206163617454 -0.19209272658869975
-0.04310078665169102 0.07060115248891197 -0.2060517171625828
-0.03769264861496312 0.0822318962309011 -0.1880570153002476
-0.07602594539078099 0.09107290417882286 -0.19326981401488535
-0.07155196114929539 0.10716809541913352 -0.19050846493289225
-0.094031778420528 -0.0025631913450113765 -0.18853018677279704
-0.07684935375603062 0.09110070974561058 -0.19347238040015452
-0.08320308967979771 0.06290872604581199 -0.19315312302157633
-0.08939228698166234 0.06065280945035301 -0.19089582061812632
-0.057108712638934675 0.0689666739198812 -0.20094474649474375
-0.0614227776184879 0.00453929812642417 -0.1915563592915272
-0.05166850730331761 0.11143993050786338 -0.20361013209864848
-0.04649309560211522 0.07304765493604026 -0.20501937961623423
-0.06270648285301549 0.04669161350461326 -0.19568004703566783
-0.037552249874194685 0.07536827237340293 -0.18825242912814372
-0.047673744405826154 0.10540764243336997 -0.20471047854468577
-0.0425076906338535 0.09618263156148277 -0.20624902343795054
-0.08850525065811497 0.0878970196935781 -0.19134026265189402
-0.05972750231178624 0.03585590631696067 -0.1988999644522404
-0.05553592487724644 0.06017668754788719 -0.20176802074954264
-0.08346475407036168 0.10922001511784873 -0.19309618568465464
-0.09009043618591649 0.0823736062738546 -0.1905459115509724
-0.0930317167893253 0.08842011005612693 -0.18904952204272502
-0.034330171789249006 0.1118993333074697 -0.20490261411711924
-0.071840656246265 0.06431089551183067 -0.19074049091384165
-0.0711280827179752 0.025671797105992652 -0.18892365193412058
-0.04278422638328892 0.010618822881902076 -0.20618359243914836
-0.03600133701713902 0.08144240290852867 -0.20532497262999766
-0.06027461334617955 0.0789708665105947 -0.1982433447842335
-0.05278186246307713 0.04108594567509971 -0.2032114217285847
-0.09196136638077122 0.08909194380971275 -0.189607600331757
-0.09089900299461705 0.07405935437413536 -0.19014664983794444
-0.0788591925755344 0.03408609540196739 -0.19385119772002452
-0.09230355664642674 0.10532538802357994 -0.18942972517058604
-0.09102974578293187 0.0859276822301992 -0.19007570540950053
-0.041839433158954206 0.11108149797650657 -0.20645915961310618
-0.07974602028282506 0.08164550573560081 -0.19388259446665995
-0.07917318984421116 0.07297618896695457 -0.19392226135775797
-0.05450401946457249 0.0586093536111959 -0.20230827724978678
-0.0717299704209171 0.11168296844693504 -0.19083560502574198
-0.09437368556412083 0.03721742541524253 -0.1883508065943455
-0.03447778269203526 0.0767610243055471 -0.20472454524085276
-0.08392072960289342 -0.003614229848658227 -0.19301016128108256
-0.03626937910469395 0.0828265121671804 -0.2054447481636738
-0.0775517944947086 0.09369509131642662 -0.193648527026627
-0.05918498083504063 0.07501201541158042 -0.18946875131175273
-0.04579879089744908 -0.041554791620051046 -0.20522716140792124
-0.05194611593635899 0.07376332790585838 -0.20354166126296275
-0.062052679504474226 0.07374160201283775 -0.19361136353060954
-0.06115595742615086 0.06829284341069541 -0.19739993906066172
-0.058184963907321516 0.10867844731541954 -0.20037462806746714
-0.060053658927997175 0.02147345454427085 -0.18968043720767253
-0.051568878139575544 0.033773558447087626 -0.20364312326953166
-0.09347571178825718 0.11222966224881492 -0.1888189712767338
-0.033561689104159895 0.08702592761250816 -0.18983822560355418
-0.08225439235123021 0.0784024170133718 -0.19334108626887553
-0.034643006767352644 0.08327295095654808 -0.18921105063006632
-0.03721765920074803 0.08729155571194969 -0.18867448961779826
-0.05539913221748692 0.06919919163915 -0.2018395910267567
-0.09275552376659733 0.0650437346193441 -0.18920009827658885
-0.061909300531467024 0.10558597953053794 -0.19288494682357066
-0.06265701099785191 0.0701348355505117 -0.19574483728453868
-0.03389976664932591 0.01660342724057517 -0.18969836330458872
-0.07811911150368077 0.06889598281117759 -0.19368367886588328
-0.0558884267464481 0.10980873019429527 -0.18790041899726145
-0.08773638054283482 0.03173713595601402 -0.19172526395365946
-0.07475109144600255 0.02389650256368003 -0.192921409965012
-0.06079645201118809 0.10472573549481712 -0.19779604172751658
-0.056984317745288435 0.0021014979574330815 -0.18832692003295176
-0.040270132268985334 0.013460474321568824 -0.20671858882949107
-0.06248350187691075 0.11185445100995384 -0.1960175136332249
-0.035487783397754255 0.024719732114995337 -0.18875164783046
-0.07151664539726597 0.10839598090382896 -0.19039083516642802
-0.036379230465015 0.06199039728375755 -0.2055137852434849
-0.07110835358055455 0.07428620965215049 -0.18887340521857493
-0.09043304368408543 0.04375575692387901 -0.19037496542975657
-0.06251327439697606 0.08077265531750999 -0.19505236542269938
-0.0848547045842014 0.018791096517766333 -0.19282254076049082
-0.041407269682010237 0.013466941425526954 -0.20660507178351634
-0.04270331307800633 0.03838603408070884 -0.20618554449126475
-0.07937334224136693 0.059339301893437724 -0.19391574955031626
-0.07572708770187718 0.05136789591046653 -0.1931423047785496
-0.036878389562686506 0.09767954261037193 -0.18936892843291514
-0.03356294080170018 0.062258618185246806 -0.18991049623534434
-0.08925159021767003 0.09565998823376975 -0.19096670544192546
-0.04536814733894688 0.05872230441304527 -0.2053621957306599
-0.06086556359680516 0.0520037582609304 -0.19030169642016642
-0.056817901577075544 0.005309688160146094 -0.18821264302775614
-0.046704304660876814 0.09601246030064903 -0.20496342575595133
-0.07875014587791783 0.05696134478780113 -0.1938265064959263
-0.033622336830218855 0.03162177116605125 -0.20456698036238902
-0.08747403069885594 0.0735188892576345 -0.19185734784648173
-0.042072338308414045 0.10847632796498619 -0.2063915083412861
-0.06262196346672398 -0.009630871703898095 -0.19519267475650065
-0.07128716751488072 0.0033170154783376225 -0.1893293211464619
-0.05933536335380894 0.08285753638478599 -0.19926140701815837
-0.05894423767479283 -0.03237555711535134 -0.19968126213595622
-0.08079717799576146 0.014746474334920264 -0.1936315248017048
-0.0328718845501743 0.08788655907842002 -0.19030110037371867
-0.09568816169651372 0.09672643453809104 -0.18766557669684641
-0.05785296603592259 0.07752670557233177 -0.2005343685154652
-0.046821815218051496 0.06941874534818016 -0.20491034781977885
-0.03766582652481419 0.10267923981877647 -0.20584520196959727
-0.048058820213397566 0.026735889026845313 -0.2045749971871113
-0.04256365939529759 0.04175208718510948 -0.2062348077301716
-0.03577147170456273 0.06822262913915 -0.18869316077277415
-0.06156871959122044 0.043967591831410746 -0.1916815588478779
-0.07420785471351964 0.008386777946675635 -0.19279846048400157
-0.07390214249046666 0.06597052724095664 -0.19272927439257853
-0.071903151716312 0.11286325962277732 -0.19128442800090067
-0.08810625716598851 0.11147339851590476 -0.19154004252001994
-0.08768103763016087 0.018391894409383155 -0.19175241386935465
-0.05019534870537144 0.09304483444424949 -0.18749592697665446
-0.03637324019821507 0.10103886038991294 -0.20538456237361186
-0.07485435649307591 0.10999034554692588 -0.19296437001273387
-0.04164410873802525 0.06020276457997642 -0.20651731884524577
-0.055481774057468 0.03837894112798057 -0.18784523999736064
-0.08359376832397801 0.021472113439763404 -0.19307434058234446
-0.05933962508591038 0.09422002942296348 -0.1993039498333668
-0.035104883159717146 0.08232356817456565 -0.20505393540904276
-0.05771861716659886 0.11043562204572044 -0.20061762130305522
-0.055829954589923445 0.04636652977200828 -0.18813971674487345
-0.07498554631622655 0.035509066889012675 -0.1929744879011845
-0.033860785211642805 0.05768864066335044 -0.2047566870455479
-0.052407575096210066 0.002618687460149146 -0.20340996480033152
-0.03554926558884007 0.10585959465237937 -0.18882971501395457
-0.09043632193954808 0.04012333066197715 -0.19037338590667002
-0.08041457578094822 0.07563524157735191 -0.19370789325282328
-0.0893330399647556 0.07874252111646018 -0.1909264127020573
-0.05488155528457982 0.021891104290212012 -0.18754188215777629
-0.07134254022987706 0.008237647125447608 -0.18947046494529002
-0.033031118358691755 0.021984564373219825 -0.20453521108672373
-0.03504393741043431 0.07068313867780052 -0.20500961935565226
-0.0623903696194492 -0.0033569463994852534 -0.19403206801459544
-0.03691838427933079 0.07265259535046897 -0.2055486837630009
-0.0925749365940891 0.09767358214589439 -0.1892883429531788
-0.04300547882469517 0.05238287360402427 -0.20610627031371348
-0.060484540905078474 0.06709327013226829 -0.19811123108908885
-0.07878608747871739 0.08230005414220176 -0.19389886653468363
-0.07372940822990758 -0.006518555572306298 -0.19269018864676707
-0.038744610990603987 0.1048962941858419 -0.2062014291290974
-0.07996771975906712 0.07206569821568809 -0.19379707670256846
-0.041089576925357404 0.08201588899823509 -0.2066710243229603
-0.05138425275238377 0.07286952645512901 -0.20369138813063853
-0.07179121419342381 0.10108734876843772 -0.1910893718008732
-0.04165251299293858 0.07446022541257225 -0.2064947286848759
-0.07292712971123082 0.05732049257489524 -0.19250860309645884
-0.05800984546097142 0.08799626142712913 -0.18917126452967875
-0.04293583079727513 -0.0110889205243937 -0.20610796904608958
-0.07206891223343236 0.09075169474812828 -0.19170352315947764
-0.07744805261047703 0.044444756815160136 -0.19353180623099558
-0.04599313184173924 -0.002759260824000024 -0.2051737407450413
-0.055724692787250105 0.0413838794920095 -0.1880083034043049
-0.039331061090549055 0.056008475134099345 -0.1877729246620869
-0.05996505662353856 0.08672498376103721 -0.1985868016485905
-0.09176783009918553 0.053681241581166605 -0.18970624601886027
-0.06117431565674168 0.09077261597844444 -0.1973098764424061
-0.04289577647598607 0.01651771576138816 -0.20615364110514872
-0.035041642631610456 0.037439959356511454 -0.18915388977572672
-0.09446851655395848 0.07908462197514854 -0.18830184137866252
-0.07083286091240269 0.10998131544324241 -0.1885549972061848
-0.05668757602127415 0.07293431670399986 -0.1884472171072697
-0.07917360707672459 0.0181243887636312 -0.19392233586356394
-0.04615868374260289 0.07469706446858726 -0.2051224062447285
-0.08870173736961705 0.09494303376408897 -0.1912420043949818
-0.05509693666847569 0.05215339572163902 -0.18775650358245127
-0.09589814886005742 0.06119998008939109 -0.18756117916152232
-0.07946581884773594 0.05289809615346275 -0.19389734661624186
-0.06110416098984105 0.04311444074841819 -0.19039749598548167
-0.042675954546054426 0.08886660845013938 -0.20619162416503184
-0.08859012767227513 0.1090585461351522 -0.19129777944133036
-0.08032132431419713 0.10531540424558006 -0.19368382787749522
-0.040583980526050153 0.05809368402692161 -0.18754998838946574
-0.05142743631752354 0.06325368792744956 -0.2036769489054417
-0.07237674042137486 0.025389062473500586 -0.19210719561621897
-0.08579914018066746 0.049778627464497904 -0.1926360974316334
-0.03864486261757237 0.043058233568395 -0.2061655322317814
-0.03690986081512791 0.030024515697682715 -0.18826902902171366
-0.07247976704986912 0.062073575565541605 -0.1923699179892277
-0.033905011858066145 0.02858339459630332 -0.18974673247382395
-0.06212655946167332 -0.029517454793726586 -0.19629138207480662
-0.0400701586857639 0.06408618600102745 -0.18756210303351634
-0.0582683210030399 0.09879945428105674 -0.20033069944426768
-0.07436524077804905 0.0849220624658712 -0.19294727838084452
-0.08845557018669468 0.03651984245511375 -0.1913652668003773
-0.04347438856514317 0.05321820289822898 -0.20596387481734507
-0.043201995338519636 0.035472737858022074 -0.2060309151415562
-0.08171228810699803 0.10609938413831077 -0.19343812263056986
-0.03652856990249974 0.02019949466916404 -0.18823594844386332
-0.07601819678696019 0.06598736555310569 -0.1932081977133488
-0.07117624327095372 0.046606587478841166 -0.18904645240351908
-0.05794505521210057 0.09542815596791587 -0.18910389637992137
-0.04064096256645543 0.07151396782132469 -0.20672471320674174
-0.07078234597595555 0.05860869796010337 -0.18804214394137614
-0.06238017722519261 0.10297535569402061 -0.19453653192565196
-0.0767968420639835 0.053478764602864604 -0.19338441884562724
-0.05598596974762303 0.028152870247090674 -0.18790648376986735
-0.056171459402164045 0.0233920684549459 -0.18814570701167338
-0.03411896273048741 0.053798960754598 -0.18939774727866404
-0.07186169668587071 0.09218730241986595 -0.19119803106829875
-0.05939815684707982 0.05263592512341819 -0.19926185405299418
-0.053240728820880476 0.06996388942929588 -0.20297046995208018
-0.09457564100178105 0.10310466797086082 -0.18824561929747813
-0.07314412042053563 0.07369609386655174 -0.19255771732375376
-0.062066537584384504 0.019787298748219825 -0.19368303811595194
-0.050483417953570905 0.03129793913098655 -0.20393813645884745
-0.09400258704574925 0.08549784333440147 -0.1885430911783909
-0.07212455316933018 0.02140529663297019 -0.19146428501651042
-0.0942403052702747 0.0373628309461721 -0.1884203056101536
-0.08049751564415318 0.10816596657964073 -0.19368051981971018
-0.047020447696765486 0.0904665461275228 -0.20486378169104807
-0.09090555950554234 0.10104413540097557 -0.19013843929812663
-0.09566527351291997 -0.03410537331370034 -0.18767661845729106
-0.062103760685046736 0.10004483372899375 -0.19640618062064402
-0.04332662865074498 0.08215896994801841 -0.20599072670981639
-0.08259008571060521 0.05768452794286094 -0.19327514863059275
-0.060179484333118025 0.07037057192059837 -0.1899558851723408
-0.06256739541443211 0.027769463369572974 -0.19516019022509806
-0.08154289170654637 0.0843526294920095 -0.1935511181359028
-0.040830028499682966 0.015451865503514624 -0.20678333437487834
-0.07419843717964512 0.0005807450506337651 -0.19279632961795085
-0.04782972976120335 0.012841837713445044 -0.20468925929114573
-0.04230682298096043 0.09837828786107383 -0.18789411580607646
-0.09043501063736302 0.07240952760907493 -0.19037824368521922
-0.035625976766666 0.019220279762471534 -0.2053014138941502
-0.05309439941795689 0.09609277755948387 -0.20304627215907328
-0.0893395666733585 0.05981336743565879 -0.19092207646414988
-0.08608807369621617 0.10603957087727867 -0.19255065417334788
-0.05607194944771153 0.028754012891972876 -0.18790864443824046
-0.09051908298881871 0.0007157197687276372 -0.1903332421784138
-0.08170519515426976 0.029627936193669654 -0.19345142936751597
-0.03672124191673619 0.06621270091267906 -0.2055305341486668
-0.04022402807625157 0.10429965169164024 -0.18793192005202525
-0.041556400503238264 -0.039967639138971944 -0.20654157793566935
-0.047418100084384504 0.04127000481816612 -0.2047859529261326
-0.03794763728531224 0.05167179019185386 -0.20598214364096873
-0.0439190094128452 0.0021444133016713628 -0.2058150718216633
-0.05847964927109105 0.012692349264348365 -0.20021813607260935
-0.05398566767128331 -0.011178714921747827 -0.20258062577292674
-0.05043749257477147 0.06909705908032737 -0.20393843448207133
-0.08033309623154027 -0.007308197906290673 -0.19372462725684397
-0.058660728181918684 0.11202256591054283 -0.1892225096230244
-0.07246277972610814 0.07818980724545799 -0.1923265556101536
-0.08490152403267247 0.022072898456776954 -0.1928141067032551
-0.04276178523453099 0.02933056862088523 -0.20615897572085612
-0.08174617334755284 0.09726415784093223 -0.19338826334521525
-0.07218853875549656 0.040458875009740214 -0.19162737822577708
-0.0500479464188419 0.01725129992696128 -0.20405469334170573
-0.04895142957123143 0.09581093699666343 -0.20435288047835581
-0.06190077706726414 0.013241933891499854 -0.19337333238169901
-0.0601085846081577 0.058125185081685404 -0.1899432787899708
-0.04545275613220555 0.08246232778760276 -0.20534421002909892
-0.03730942055137974 0.06808649213048301 -0.2056891421084141
-0.0374441866532169 0.08829821855756126 -0.18880837655112498
-0.05860049768837315 0.1092527976724752 -0.18920739984557383
-0.04089398428352696 0.1071834138128408 -0.20674883818671458
-0.07214323922546727 0.08289949805470787 -0.1916559139494633
-0.05638284727485997 0.10097556025716148 -0.20132508373305552
-0.08790014430435521 0.09402351290913902 -0.1916433373694157
-0.038697106088718 0.028149651596272803 -0.1877835342888569
-0.07358298942001683 0.04508017213078819 -0.19265704846427195
-0.0844516877785526 0.0749578049871572 -0.19290242588565104
-0.03551991030128819 0.0396841040346273 -0.2051414946322178
-0.0876865510598026 0.0484259298536428 -0.19175022339865916
-0.06234512969406468 0.06075825006696067 -0.19442422187373393
-0.05150352164657933 -0.00209297030237832 -0.20366054272696726
-0.03493387743385655 0.06776626617642723 -0.20499801135108225
-0.0807028536454044 0.06682653934689842 -0.19365100061938517
-0.034092498268207136 0.09354700357648216 -0.20478057360694163
-0.09445355578811986 0.09605209738942466 -0.18830906844184153
-0.060210776771625105 -0.01437966316012063 -0.1899181256298756
-0.05469916507156712 0.05963777215215049 -0.1874769577984547
-0.09024439498337132 0.008429961511815406 -0.19047329819247477
-0.05860410376938206 0.09840373904439292 -0.20009795820758097
-0.0863459531918369 0.10160847217770896 -0.1924215356116032
-0.09447824701221806 0.043998258421147685 -0.18829659616992228
-0.07165153070839268 0.1056064239236959 -0.19074433541342967
-0.08848376318367344 0.06965799839230857 -0.1913526902203297
-0.053684395994266096 0.08906795294019065 -0.18803624308154337
-0.08156721040161473 0.09538002521725975 -0.19345151877448313
-0.05500335737617833 0.05970572144719444 -0.1876125881676411
-0.05706546946915013 0.10489781410428367 -0.18849713599726908
-0.06102035685928685 0.02061636955472312 -0.19041941559359782
-0.06158853813560826 0.06458457023831687 -0.1918046275381779
-0.03651974841507298 0.08453627140256248 -0.18829924857661479
-0.04027755304725987 0.10393624217244468 -0.2066666731838917
-0.06231422468574864 0.00768791348668418 -0.1947803000216221
-0.05018155023010594 0.02195151359769187 -0.20400742685839884
-0.03395952030571324 0.044732349226201396 -0.18987494206473582
-0.06116343780907017 0.02929331571790061 -0.1904647598271107
-0.04740045710953099 0.1006708017084249 -0.20478106534526103
-0.054052573885043684 0.09319274337025962 -0.18830023205325358
-0.0410719041481815 0.08902485878201805 -0.1882737526898121
-0.07306323691757542 0.07116721780034385 -0.19253940379664652
-0.05390999957474095 0.1035774818155416 -0.20262377953574412
-0.053704721178134504 0.04648463637563072 -0.2027306506638264
-0.06261278435142857 0.03827674896451316 -0.19532484805629008
-0.05759332820328099 0.09577192575665794 -0.18895202374503367
-0.09161157652290684 0.02805890352460227 -0.1897844324116444
-0.09287389859112126 0.03410949022504173 -0.1891324023012852
-0.06212617203148228 0.11300824792119346 -0.19364283478305094
-0.035676700319369856 0.040130006382191996 -0.20519415533587687
-0.043790501798709455 0.08378060371610008 -0.18755533790633433
-0.09324164434822423 0.03473417670461021 -0.18894075846717112
-0.07422350093277318 0.059785532066548686 -0.1928020069603657
-0.04682679220589024 0.07777218730183921 -0.20492335653350108
-0.04946528121384007 0.08013545186253868 -0.2042119303946232
-0.05645571395309788 0.03793589980336509 -0.1882834682469105
-0.07149262472542149 0.0687818995210775 -0.18985312676474803
-0.0624451164856754 0.0293718150350698 -0.19470665848300212
-0.040196788753589216 0.04035835177632652 -0.18765072023913615
-0.05927134796532017 0.011238860199178077 -0.1895935187344288
-0.057715428318103376 0.07960696727963767 -0.20060087239787333
-0.03561044975670201 0.05047048837872825 -0.20523292815730326
-0.09127123400123936 0.08758183033200584 -0.18995482718989604
-0.0729930524483524 0.08291195542546592 -0.19260212278411143
-0.039110434497912946 0.05191455991002403 -0.18768678104922526
-0.07653437301071507 0.061776535818303446 -0.19332502281710856
-0.03812779232414586 0.07442264468404136 -0.188127766013596
-0.041021419014056745 0.09527383954259239 -0.18767132854506724
-0.03616194173248631 0.019755648681844092 -0.1883966127638554
-0.08084319278152806 0.05189962894650779 -0.1936230460409855
-0.06014294668587071 0.06430496484967552 -0.19847431278273814
-0.0512039785042606 0.04329164535733543 -0.2037493685488438
-0.09325900420101506 0.07879366190167747 -0.18893289065406077
-0.08744694038780552 0.06838076026173912 -0.19187084829852336
-0.05467368408592564 0.10100148827763877 -0.1874861518149113
-0.061647814954837385 0.014325844356740332 -0.19667742645785563
-0.033881974662860456 0.06712614209386192 -0.18990852928206675
-0.062071454967578474 0.10541995079251609 -0.1964529702667927
-0.08526141687782628 0.08004014403554283 -0.192752833128426
-0.05714420720489842 0.05441893846722923 -0.20091391599223368
-0.07191793366821629 0.012462662765706397 -0.19093746936366313
-0.03861210986526829 0.09328086883756004 -0.2061539540295338
-0.06062705561073643 0.026726411888326026 -0.19786628580138438
-0.0626122181073032 0.05550046474667869 -0.1953451285366749
-0.05914909883888585 0.07154958159657798 -0.18950652575537913
-0.06112117811592442 0.07552163512441001 -0.19734070694491618
-0.07813419147880894 0.10577728063794456 -0.19368692731902354
-0.0819245402470432 0.008894102880681373 -0.19340693450019114
-0.06011582657249791 0.013503687689030982 -0.18986211216494792
-0.05912022038849217 0.0969680121633657 -0.18935092783019297
-0.058711779560168806 0.04899014742108665 -0.189369762897942
-0.041330737318118635 -0.02956937043932595 -0.20659079647109263
-0.050604713405688825 -0.013188225915705346 -0.20390304422423594
-0.061486822809299055 0.09444852382870994 -0.19127387797877543
-0.05787031098755223 0.08054633648129783 -0.18905722594306223
-0.057955575431903425 0.039663331815923075 -0.2004965493683552
-0.04524467631729466 0.08422501594754539 -0.1875299612288212
-0.058446181263049665 0.011247055837834693 -0.18915000057265513
-0.057943416084369245 0.08927826792928062 -0.20046995079562419
-0.06209046884926182 0.08381550223561607 -0.19359264767215006
-0.06231395646484715 0.0823694637510427 -0.19436698651358836
-0.09378342076691014 0.10306407720776878 -0.18865845596835368
-0.03336666270645482 0.10551037103864036 -0.19000218308017008
-0.054147613491138044 0.02813519746991477 -0.2024826208357548
-0.061364871706088606 0.09876950294705711 -0.1909106621746754
