ply
format ascii 1.0
element vertex 567
property float x
property float y
property float z
element face 0
property list uchar int vertex_indices
end_header
-0.21064056202324255 0.21911452920171104 -0.03968347108409159
-0.19905349358471258 0.2046386471483358 -0.060390124679062296
-0.19974319383056982 0.22488747746678672 -0.08009664213702433
-0.20297030850799902 0.2475671640131124 -0.06950331723735087
-0.2018605892315708 0.21420960337849937 -0.06683541333720439
-0.20297816141994818 0.2323282829019674 -0.07091550028369181
-0.21185599013717993 0.2389302125665792 -0.03356290853068583
-0.19905239089878424 0.2318053117487081 -0.08161426579997294
-0.1978998456850849 0.2156475058290609 -0.07786829268977397
-0.1883548621788822 0.2235166898462423 -0.1044294039015507
-0.19491986676605566 0.23113982588979087 -0.09124220407054179
-0.1893246148482166 0.21343969018193565 -0.034600059152100016
-0.19867421432884558 0.23667954117986045 -0.08232311403796427
-0.19540574892910345 0.2130023709032186 -0.0858328143362736
-0.19529573365600927 0.25486652762624107 -0.08360073959872477
-0.1883703444853626 0.23416839749547325 -0.10412898159072154
-0.1883989398136936 0.26800726563664756 -0.05604339635417216
-0.21177994951160772 0.24594234139653526 -0.03274903690860026
-0.20998897894771917 0.21763967187138877 -0.04132203257128947
-0.20769777640255316 0.2267127505037435 -0.0540032187704777
-0.1905131314650379 0.20538287074300132 -0.060666332602951456
-0.19310526296051367 0.24210398108693443 -0.09438192343756907
-0.20902114852817877 0.21501665026875816 -0.04423336184069865
-0.20529825731666906 0.2270579210016378 -0.06331268942401164
-0.19448955103309973 0.26144330413075767 -0.07752836740061991
-0.18980380638988836 0.25793288857671104 -0.06939042604014628
-0.19027636691482885 0.11984153301450096 -0.07210714614436381
-0.19915802523048742 0.20814125449391685 -0.061757216811630655
-0.19534323855789526 0.25391422421666465 -0.08540869748637431
-0.19148447855862005 0.1979172697755941 -0.061671743751022745
-0.18967252715977057 0.24080603034230552 -0.10132657980963938
-0.20432460054310186 0.21793012530537925 -0.0645705262427067
-0.187759024347385 0.2136074176523336 -0.06960765516803019
-0.1984173928156696 0.1924577823373922 -0.06134466326281779
-0.199602765287479 0.17764137894841514 -0.06002239382312052
-0.19324239834698065 0.2603010407182821 -0.07180629169986003
-0.19303585335167273 0.26347910077306114 -0.07466746366069071
-0.19184955700786932 0.1473947039339193 -0.08729747927233927
-0.21172424897106512 0.24135337979527793 -0.03408364450976603
-0.2051056449070774 0.25699798972340904 -0.05097861087367289
-0.20712385817917212 0.1527214518282064 -0.03905854618594401
-0.20326566442402227 0.2410259714815267 -0.0695587197546696
-0.20593964799793585 0.18349372060033164 -0.04502565658137553
-0.18796193345936163 0.13498331815930686 -0.03941516077563517
-0.20347019776256903 0.2554273477289327 -0.05823094642207377
-0.20342026397140844 0.14039568812581382 -0.05256916081950419
-0.20268036171348913 0.20677422196599327 -0.055505375028107096
-0.19929766401203497 0.2557356825563558 -0.06586600339457743
-0.1880520854845844 0.19893031031819663 -0.03904674446627848
-0.19265705093296392 0.21035592467519126 -0.06203720963046305
-0.20863009735496862 0.25329534918996177 -0.04027147090480082
-0.2109020475998722 0.22010104567738853 -0.03930849826380961
-0.20719346150310858 0.19917969615193687 -0.038236449122879435
-0.18787276491077765 0.18069158704015098 -0.03974581754252665
-0.19271699830444677 0.1919537654611715 -0.07950277125880473
-0.2068668876543842 0.2587494722101339 -0.03565255796954386
-0.19105308994205816 0.20428638369771324 -0.03256879246279948
-0.18942744776161535 0.13770584971639 -0.05857739841983073
-0.20196239396484716 0.2590885034296163 -0.05855734145686381
-0.19368295117767675 0.2652014961931356 -0.07671077048823588
-0.2082142804518543 0.2467359176370748 -0.048484901547882486
-0.19466526552589758 0.21825765282842002 -0.09107131755397074
-0.19851277514847143 0.21800248534413658 -0.079823265433762
-0.1877689634219013 0.2643278113100179 -0.033455918193314005
-0.20342576249988897 0.23221139819356285 -0.0695637861494755
-0.20137239738853796 0.25090675265523277 -0.06947330629870646
-0.19482205554397924 0.25645755440923057 -0.083822528481934
-0.2079876039877735 0.24800323159428916 -0.049032698035690714
-0.18919680758865698 0.26397024304601036 -0.06906844174906962
-0.19657954319866522 0.25968449027272544 -0.06287423765704386
-0.18932771428974493 0.2619024983141073 -0.09479566907927744
-0.20469158634098394 0.2139488926622518 -0.06030435359523051
-0.1904421572342716 0.13553695590230308 -0.09028835094020121
-0.19987044974716528 0.23801522166463218 -0.07927076017901652
-0.2010094647065006 0.12777517945500694 -0.0584587851767277
-0.19599866613300665 0.23372905165883384 -0.08876545226618998
-0.18889912709148748 0.2499943247530111 -0.10044182336375468
-0.19536559029968603 0.2212394943925985 -0.09062595164820902
-0.207390588964542 0.2245300284120687 -0.05572555458590739
-0.2023956303253971 0.2127054801675924 -0.06340835487887614
-0.1908023183003269 0.25644062669011436 -0.09414429462001078
-0.19396990283878668 0.20776806981297813 -0.08498681581065409
-0.19285651787670477 0.21112077147694908 -0.09032363688990824
-0.19498182579429968 0.25055174739095054 -0.08763215935275309
-0.2001777712956272 0.25932894856664024 -0.06136287248179667
-0.19257312759312017 0.194690393516744 -0.08477936184451335
-0.18982653066070898 0.20769773633214317 -0.034122894168350626
-0.19769425436409338 0.2530897131654867 -0.07093034184024088
-0.19092039510162695 0.22730671078893028 -0.09955171740100138
-0.19859628125580175 0.20894323498936973 -0.06324122345492594
-0.2051463101759754 0.2651479712221273 -0.051214675069305826
-0.19520856186302527 0.16251407773228965 -0.06262479221865885
-0.20595125600250586 0.2481317392084249 -0.056854496360275675
-0.20259392007740362 0.2191940417978414 -0.07061148679301493
-0.2063190762654148 0.2263235321733602 -0.05933381116435282
-0.20356806858929022 0.22544937045308433 -0.06963310635134928
-0.19308033331783636 0.26255212933751426 -0.07376251614138835
-0.19321833297165258 0.2286450734827169 -0.09468884265467875
-0.19536342963131292 0.23195485980244956 -0.09031508362338297
-0.21197822436245306 0.2343705168459066 -0.03309665119693034
-0.20662818595321997 0.26381884724828086 -0.04223815596148722
-0.19333420440109594 0.25924222380849204 -0.07144720351741068
-0.19969257458599432 0.24055360467168174 -0.0795367459063267
-0.18913827582748755 0.20793555886479698 -0.09621780610129588
-0.190835994924625 0.2047548762056478 -0.07275180017993205
-0.19016831859501226 0.2113898268434652 -0.060060242772552896
-0.20709186538608892 0.258746790001119 -0.03643910086199992
-0.19129208966644629 0.2587981096002706 -0.09186671173617594
-0.206165042962154 0.20170198590489707 -0.03447828686282389
-0.1903399352684818 0.26663057715627037 -0.09275187051341288
-0.2049995039358936 0.215589629718984 -0.06078250205561869
-0.19557016834171637 0.2579465976450094 -0.06323803460643046
-0.20570599779041632 0.229402946541036 -0.06134332215831034
-0.1975197915688358 0.21422861726018272 -0.0766196647886967
-0.19396297379883154 0.2561271658632406 -0.08760974800631754
-0.2058988337174259 0.2384751311037191 -0.05867035186335795
-0.18813295408638342 0.21244393498631797 -0.03736091649577372
-0.19095070406349524 0.2678868642542013 -0.03303427493617289
-0.19037584706695898 0.20512823970052085 -0.07174853479907267
-0.2070681725397907 0.21707265288564048 -0.05364776647135966
-0.20164146765621527 0.11398829729291282 -0.05708850419566386
-0.20362809046657904 0.2388313880655416 -0.06840396916911357
-0.19780938073547705 0.22237138659688316 -0.08448753750369303
-0.19530324384125097 0.21172712952824913 -0.0840446153883671
-0.18898910030277594 0.24479823024007163 -0.1023246744875645
-0.18944802626522406 0.1988240948412069 -0.09241385257289164
-0.20719910904320105 0.22153841168614707 -0.05679808056399577
-0.19402084990890844 0.2669368854257711 -0.08233327662989848
-0.1885304276600681 0.19923649937840782 -0.03727893030688517
-0.19007624431999548 0.2125356665346273 -0.09742062783286326
-0.1996313159123264 0.23015581280919395 -0.08029205596492045
-0.20704693838508947 0.19669382483693443 -0.0369036892657017
-0.20516437038334234 0.25242541939946495 -0.05558315908953898
-0.1881325219527088 0.2016658058855184 -0.03858322894618266
-0.19155974432381018 0.24627922684880577 -0.09700211381957285
-0.209377077664455 0.21561615378590904 -0.03269029653117411
-0.20518178984077795 0.2330022922250875 -0.062956730485413
-0.2080551807537876 0.24609522731038413 -0.04936496412799113
-0.19359090670498236 0.20614116103383384 -0.08476332819506877
-0.19510100528152807 0.2575505247804769 -0.08020792400881999
-0.19001547738464697 0.20935957343312583 -0.05990756547496073
-0.19068570181282385 0.26675658137532554 -0.0920772949461674
-0.2048004095211826 0.14748926670285545 -0.048507402301285196
-0.19187253459843023 0.2560985556337484 -0.06735561287448161
-0.20775831982048376 0.20948468358250938 -0.04389635717913859
-0.19175767644794806 0.19295750767918907 -0.07568509376094096
-0.20735758289249762 0.2635896077844747 -0.03776262199923747
-0.19615101560505255 0.2538894286844381 -0.06891418492839091
-0.2070803020850025 0.20007084519597373 -0.038820783257934977
-0.20507953807266577 0.22297053248616538 -0.0645230511431431
-0.18889508887680395 0.20615039975377403 -0.05795059597537272
-0.20993241413982733 0.21656947047444663 -0.03371719515368693
-0.19062736376674994 0.19628952653142295 -0.03339816129252665
-0.20655102774055822 0.20251850993367515 -0.03557924425647013
-0.20986646160038336 0.23723952681752525 -0.042407641768906046
-0.19717332466991766 0.21416853577824913 -0.0738270381693577
-0.19365034743698462 0.2536617985460409 -0.0889020065073704
-0.2088973049774967 0.24905728013249717 -0.03755862510249369
-0.19569642588051184 0.19534413726064048 -0.06274170672938578
-0.19730536385925634 0.24048464209767662 -0.0856278935675358
-0.19328155859859808 0.2137929073068746 -0.09114156162783854
-0.19985814138801916 0.26719103963109336 -0.06039742624804728
-0.19251554950626715 0.2551733723375448 -0.09088532125994914
-0.19776819392593725 0.23870174796315513 -0.08459154760882609
-0.21122020229252203 0.24199323565694175 -0.03658417856738322
-0.19041473909767492 0.23608981282445274 -0.09991625940844767
-0.2091511313572727 0.22485082061024986 -0.048479239106628824
-0.2045625720873676 0.2170711627695211 -0.06322140491053813
-0.19850986942203863 0.13081197650166831 -0.061251888633224894
-0.1927614782706104 0.2162401548120626 -0.0934263715748524
-0.20176692053230627 0.23969446332188926 -0.07373095548197978
-0.2061461482897602 0.2459979525301107 -0.05736867582843058
-0.1961850498572193 0.21589933545323692 -0.08616162335917704
-0.19408161684425695 0.2073280683252462 -0.08120016253039591
-0.19430273517521246 0.21241127164098106 -0.06479866302058451
-0.1925629202977024 0.19358502537938438 -0.08477530872866862
-0.18847122534664495 0.1993622651788839 -0.03749642765567057
-0.20839275165947302 0.20882837683888755 -0.04060871398493998
-0.19097992524059637 0.14178194315167747 -0.0891383985285496
-0.19011309489162787 0.20768861682149253 -0.060004780650589395
-0.18884059533031805 0.20868312031956993 -0.057927648187134195
-0.20827908560188635 0.2336160412523397 -0.050218204617950846
-0.20361138626488073 0.2023372522089132 -0.052273640990707804
-0.18957537158878668 0.12438045651646934 -0.09209204709574931
-0.2045584742680393 0.2053303590509542 -0.05060128366992228
-0.20772562667282446 0.21290658623906455 -0.04810012376353495
-0.20748613521011694 0.21181397349568687 -0.047823230386230875
-0.2031284843340717 0.26202707202168785 -0.05640123283908122
-0.2031900112286411 0.1699781885835775 -0.05315635597750895
-0.18929040178211554 0.26769684464665733 -0.07023147738024943
-0.19635615989120825 0.2274371853563436 -0.08846301829859965
-0.19028873487861975 0.17995272786351524 -0.09060520923182719
-0.2082559589997135 0.22297059209081016 -0.052647481322739054
-0.18938582881840094 0.14107604534360252 -0.05850706493899577
-0.20949254676254614 0.24411718756886802 -0.04255698120639079
-0.1920496796027027 0.24058698327275596 -0.09658380842253916
-0.19865150495918615 0.2338729968759664 -0.08249340450808756
-0.19740117832573278 0.20209197909566246 -0.06254834926173442
-0.2063706640854679 0.26471941382619224 -0.04556045925662272
-0.19833959385307653 0.24928735406133018 -0.0802972713713383
-0.1963492308512531 0.25026016146870933 -0.085690865874741
-0.20785575851353033 0.2401913872453817 -0.050792346358749796
-0.19278143092544897 0.20323299081059776 -0.08205811178729289
-0.20492270335110052 0.26334904343816123 -0.05120153224513285
-0.18768763288410528 0.1736054292413839 -0.09564831352278941
-0.20576040192993506 0.24899541051122032 -0.05672783649012797
-0.20926856740864141 0.22158836037846885 -0.04838267958209269
-0.20454762622269018 0.11554931313725791 -0.04928154742762797
-0.190733758057674 0.2607819905969747 -0.09221691882655375
-0.1884359841004215 0.2507204285356649 -0.10095777607009165
-0.2057835434332691 0.2369158139917501 -0.05948812758967631
-0.18936204656513556 0.23792056948872886 -0.1019954929356312
-0.1926721309080921 0.20371233136388145 -0.07844651734874003
-0.1916110490218006 0.15078620822163902 -0.08780346310183756
-0.19382856532486303 0.2654335370752462 -0.08520368731066935
-0.19068395837696417 0.22476826817723594 -0.09997766709372752
-0.18934195979984625 0.1952312460634359 -0.058432886958572794
-0.20448855801971777 0.26068501383992515 -0.05186347162768595
-0.20652627691181524 0.26471118838521324 -0.04436380660578959
-0.1909747992411457 0.21311812312337242 -0.06998724734828227
-0.18799096092136725 0.1973003617021688 -0.05614925420329325
-0.18846076473148687 0.15304534346791587 -0.071683297515366
-0.20530360683353766 0.17405824572774253 -0.046967188477966715
-0.18978491171749456 0.2602409592363485 -0.05987102782771342
-0.19145278378876074 0.264267014572347 -0.06148983037516825
-0.18960818394573553 0.21546404273244224 -0.06628064310595744
-0.20781025036724432 0.24018757254811607 -0.0509686568979954
-0.20408943041714056 0.1983702054712423 -0.0507451096777653
-0.18800671144874914 0.20372222573491416 -0.03876982128665202
-0.20243496939094885 0.20250295312138877 -0.05535838997409098
-0.18832657977493628 0.266470121452535 -0.03669584786936991
-0.19686600312145575 0.2555763593408712 -0.06567565596148722
-0.19934488579185827 0.25682191760274253 -0.06434691941783183
-0.19582478448303564 0.24061463982793174 -0.08881441748187296
-0.2087262992516361 0.22984259040089927 -0.049014339805099894
-0.1912455682411991 0.2487197986337789 -0.09660571312949412
-0.19894630953224524 0.24597160727711997 -0.08088625466868632
-0.19302882000358923 0.22066031605931602 -0.09440868592307322
-0.2072292540922962 0.25769303948613487 -0.04237527644679301
-0.19512626274975164 0.2457334271165975 -0.08950618898913615
-0.19947992011459692 0.21560989529820762 -0.07310901081607096
-0.1987047021046482 0.24718313128682456 -0.08139122521922343
-0.20101545497330053 0.22265307814809165 -0.07635120546862834
-0.2048806075707279 0.2470646372530111 -0.0631114939455723
-0.2083717261210285 0.23453866154881797 -0.049611727357361246
-0.20830893262775763 0.2234166136476644 -0.052334527135345865
-0.2066501204624973 0.19787304312917076 -0.03563193476245158
-0.20509962483795507 0.24092202098103843 -0.06237537658259623
-0.19171668335350378 0.17471485049458824 -0.07578227913424723
-0.20426676913650854 0.2428599467966207 -0.06593732035205119
-0.20672613128574713 0.21647642762395225 -0.0545251766447758
-0.2100923483029209 0.24836002499791465 -0.033408949733231
-0.19083787247093542 0.14392860443326316 -0.03311578428790324
-0.20686828836353643 0.1838837733957418 -0.04037634527728312
-0.20024984821232183 0.22988550574513755 -0.0786546269659733
-0.18880009397419317 0.16471348912450157 -0.03630770242259257
-0.18879240497501715 0.2084365955087789 -0.09749742841765635
-0.20666719719322546 0.20218186289998374 -0.04209203517482035
-0.1925599847689472 0.19613193185063682 -0.0778163770441746
-0.1924422953978382 0.15479968697758995 -0.07939971482798808
-0.20984951898010595 0.24146734387608848 -0.04180101549670451
-0.19439893707187994 0.2405452004167684 -0.09179134166285746
-0.20743427916916235 0.25516937882634483 -0.0442639986281132
-0.19273312136085852 0.20274214656087242 -0.08206225431010478
-0.20633230849655493 0.25503389746877037 -0.048276225686523844
-0.19377360984238012 0.21111922175618492 -0.07630936300799601
-0.1991166596070133 0.13571341545316062 -0.06056893861338847
-0.20798282071503027 0.2114714256021627 -0.0363844136004185
-0.20479403182419165 0.243918167659963 -0.0640028218035435
-0.18823151036651953 0.19533132226201377 -0.038405964732620645
-0.19952590509804113 0.249180721351827 -0.07419226563021891
-0.20541350289734228 0.21245925338002525 -0.055090169072601725
-0.19978409751804693 0.2589166036340841 -0.06225759780452006
-0.20783611878307684 0.23722742707463584 -0.051356176496002603
-0.18937994285972937 0.22039364487859092 -0.10206606483504527
-0.2057736043587528 0.15519397170277915 -0.03274116909548991
-0.19228665276916845 0.2595187297556051 -0.08981890475795024
-0.20695589229019506 0.2079231610986837 -0.03428966796443217
-0.20734832927139624 0.23441063077184043 -0.05380512273356669
-0.20592164739521368 0.22010301263066612 -0.06050578749224894
-0.20285305127056463 0.15473841340276084 -0.05401925241992228
-0.1885328714505039 0.2166983953210958 -0.10202291107222788
-0.205474284733852 0.192420946666921 -0.046477595925781656
-0.20355058952720984 0.1979601255151876 -0.05227691924617045
-0.18988409384640081 0.1976225248071798 -0.09153143560931437
-0.19066051885040625 0.18953494937154136 -0.060661683440658976
-0.20192171379478796 0.21825777203770957 -0.07259411609217875
-0.20768987878712042 0.24818538338872276 -0.04972959554240458
-0.18767180785091742 0.2571748367044576 -0.05677590763613932
-0.19742989286335333 0.2504644265863546 -0.08281160390422099
-0.18822581812294348 0.21194069297047935 -0.037057648063156534
-0.21103782698067053 0.23639624030324302 -0.037905911565277506
-0.20796930536182745 0.25087534100743614 -0.03630585467860453
-0.19247129305752142 0.14621837646695457 -0.07876015698954814
-0.2068727587118946 0.2661850920412191 -0.04020098841235392
-0.20313416167648657 0.26163833052846275 -0.05627329146907084
-0.19567428275497778 0.2547240129205831 -0.07490224635646098
-0.2087989722147785 0.24337063939305625 -0.04584495222613566
-0.18908111497314795 0.2073162070009359 -0.03523779904887431
-0.18929518505485876 0.2586145868990072 -0.05967907106921427
-0.18890839561375006 0.21206085593434654 -0.0992784748081898
-0.20245429619701727 0.1961651912424215 -0.055068830609772135
-0.20618733509929998 0.25435821921559654 -0.05120245611712687
-0.20333207889946325 0.2457002869341024 -0.0687318245177006
-0.20395649715813025 0.24973933608266197 -0.06503207480952494
-0.20953616246136053 0.21929173381062828 -0.04513798153445475
-0.19973054274471624 0.2442024818155416 -0.07898847258136027
-0.2072331134930454 0.2625595203134664 -0.03690810000941508
-0.18788550540359839 0.2381648293230184 -0.10494757688090556
-0.20079436644466742 0.18214772851201377 -0.05869332945391886
-0.20629274591358526 0.20313208014699302 -0.044454256654236246
-0.20108686133774145 0.20612763077946983 -0.057972768903229166
-0.2040087108269535 0.19986491114827476 -0.05103827512309306
-0.20437590524109228 0.2502818575594076 -0.06270248687312358
-0.20774307593258245 0.253017174312795 -0.045328925013992716
-0.19569833322914465 0.21408830792638145 -0.07340107357547038
-0.20703537508400305 0.23410146147939048 -0.05510033166453593
-0.20518494888695105 0.19537447602483116 -0.04737869894549601
-0.20901389166267736 0.2338323465082296 -0.0468500057463383
-0.19220849617870672 0.22585205943318687 -0.09693470096633189
-0.20094606026562079 0.255800651619161 -0.06315685308024638
-0.20613163455875738 0.2659044137689718 -0.046819398761246134
-0.20182227834614141 0.22399877221318565 -0.07412428653285258
-0.19323080524357183 0.18332849652501426 -0.0621092716459965
-0.19190031036289557 0.19131593615743003 -0.07606599724337809
-0.18800401433857306 0.23584656626912437 -0.10477779305026286
-0.1917401526823841 0.20209001214238487 -0.08802826201960795
-0.20058423026951178 0.26440380723210655 -0.06002674496218913
-0.20876852914245947 0.21371869952412925 -0.03560657298609965
-0.19179959341438635 0.2159982195589193 -0.09535933530375712
-0.19453075274380072 0.2254094949457296 -0.09225673472926371
-0.18998905762585028 0.15510104806157432 -0.09124005830332987
-0.20586047812851294 0.23949949652882896 -0.0587293306593632
-0.20286075517090185 0.19290183694096885 -0.05399809277102702
-0.19673648222835882 0.23165242583485923 -0.08724189794108622
-0.20777632042320593 0.21696792752477012 -0.0509437123541569
-0.2038972650423847 0.21133099705907188 -0.058648178935501505
-0.20143660649212225 0.2359731665346273 -0.07503760850474589
-0.2014304523125492 0.23120717913838706 -0.0754822591547703
-0.21151564761551245 0.22490607411595664 -0.036866108537170816
-0.19855074330719336 0.22900025756093345 -0.08316836750552409
-0.20953073843868597 0.23377762944432579 -0.04450584447428935
-0.20667963966282232 0.24909953982564292 -0.05276788270518534
-0.20190314694794043 0.2188389769289144 -0.07286782062098734
-0.18804210170658453 0.1976157298776754 -0.09497884905383341
-0.20657792433651312 0.19885395676823936 -0.04165587818667643
-0.19411945089252813 0.26497493893834434 -0.08338357007548564
-0.2058573935881458 0.23233448178502403 -0.06019414460704081
-0.20264130577000006 0.25371436984273277 -0.06338338053271525
-0.2016603027239643 0.1910614839288839 -0.05705458915278666
-0.209611532534679 0.24188058287831626 -0.04256380593821757
-0.2021262620344959 0.13842775137158714 -0.05586166179225199
-0.20271149023922308 0.246833788463796 -0.07030026114032023
-0.20408105596454962 0.2088227143976339 -0.055097798467132975
-0.18870155259521826 0.21690242202016197 -0.068677584290955
-0.19869923337849005 0.11760284216138206 -0.0610351065401768
-0.20366489633472784 0.23220531851979576 -0.06876392161891215
-0.21132381006630285 0.22267012507649742 -0.0377414623503422
-0.19051904722603186 0.22915606410237632 -0.10018759465262644
-0.19175263985546454 0.2236222496721395 -0.09772949910208933
-0.1914330248490177 0.22621809155675254 -0.09856491780326121
-0.189331409777721 0.19121782691212974 -0.035307417273971964
-0.20610016330631598 0.24126498610707603 -0.05761117732569926
-0.20412222787292822 0.24479983956548057 -0.06639660394236796
-0.20554749413879736 0.20204459340306602 -0.046330461860153604
-0.189031076873859 0.19998596818181358 -0.03560672199771159
-0.19781127318294867 0.25198506028386436 -0.07671446597621195
-0.20875867947491034 0.2515600791666158 -0.0402468243841862
-0.18779977902325018 0.21912996680470787 -0.06324256455943339
-0.19318870946319922 0.26452540070744834 -0.07577190792605631
-0.20346334322841986 0.25868778140279136 -0.05564824736163371
-0.18943421288879736 0.2064105740282186 -0.09421370422885172
-0.1936050628081165 0.1999098530504354 -0.062185565591309
-0.1909379337683521 0.23522125394078575 -0.09889460599467509
-0.208947447384914 0.22151045710774742 -0.049802730441543985
-0.19779389842899664 0.22539256722661338 -0.08535862958476298
-0.20985875770004614 0.2293561568948873 -0.04397920763537638
-0.19719011827858313 0.25329642207356773 -0.07887984311625712
-0.19566124423893316 0.23995779664250694 -0.08919743692919962
-0.18875454112442358 0.14633994013997398 -0.07172034180209391
-0.19044406458290442 0.19635246903630577 -0.09032161033198588
-0.1943096493140064 0.21252827555867515 -0.08820597326800578
-0.19584277018459662 0.20381544739934288 -0.06252492463633769
-0.1910684679404102 0.2100543251726278 -0.09354948496863597
-0.19378153726013525 0.21164964349004112 -0.06266976392314189
-0.2086386655226551 0.2511544695589193 -0.03962571418330424
-0.19741721197517736 0.21638874919148765 -0.08336244022891276
-0.19050673886688574 0.21439646393987022 -0.06071106588885539
-0.20468817397507055 0.23838483006688438 -0.06442464387461894
-0.1894561772003971 0.12648304016324363 -0.09232122695491068
-0.21039585515411718 0.23229299695226036 -0.041141937137100626
-0.18872490271480902 0.252324568340505 -0.09969636297271006
-0.19265237196834906 0.2126712671014913 -0.06519673264071696
-0.1982617054835163 0.2574313750955709 -0.06363532936618083
-0.19385665401371344 0.25579427392217 -0.07029582059428446
-0.18809152885826452 0.26204161555501304 -0.09723925089881175
-0.21198725446613653 0.22170679480763755 -0.034084359765503336
-0.2009370450630985 0.2470278015825399 -0.0726470450167393
-0.19436186298282965 0.26495646149846397 -0.07918934023425334
-0.1946235273733936 0.23584930808278404 -0.09154284989878886
-0.20053750022800787 0.24137710244389854 -0.077015648246262
-0.20698499425800665 0.21378587395879112 -0.05145124590441935
-0.20453028127106054 0.23585723550053916 -0.06527573859736674
-0.2049031679287754 0.22393743903371177 -0.06507439410731547
-0.19474088891895636 0.25719951302739463 -0.0840049186949467
-0.1899768684759937 0.19267682940694175 -0.0912627676729893
-0.19888943179996832 0.21976570994588218 -0.08104811108157389
-0.2083670918598972 0.2486222258302816 -0.04670567309901469
-0.1910675589695774 0.20577632100316368 -0.0730931857828831
-0.18965923532398565 0.19937633187505088 -0.05910597240969889
-0.1911922369852863 0.2361621132585653 -0.09837112820193522
-0.19269308194073065 0.19576536328526817 -0.07963032519862406
-0.21053687974365576 0.23937337310048423 -0.03949225938365214
-0.20617596551330908 0.19179378659459434 -0.04399384057566874
-0.20390298708828314 0.19322662265034996 -0.0512735942606663
-0.2002896492138706 0.218887912342275 -0.07572449243113749
-0.1925870899811588 0.1929530373308309 -0.08403108513400309
-0.20379155620487555 0.22397713572713218 -0.06866342818782084
-0.20931833728702887 0.22594581753941856 -0.047410706639740396
-0.20655452951343878 0.22592835337849937 -0.058577577233765055
-0.19143077477367743 0.1586060395929464 -0.07593763864085429
-0.20564706369789465 0.11736981780263267 -0.04591376578852885
-0.20070595785530432 0.19961695582600913 -0.05886662995860331
-0.1908051942244373 0.25150095135899864 -0.09825391566798442
-0.18791667863281591 0.19195865304204307 -0.03958291804835551
-0.1909587506905399 0.21301852376195274 -0.06704188382670634
-0.1986158017769657 0.2515531054231771 -0.07360527908847087
-0.19297528013141974 0.21006100089284263 -0.08939276135012858
-0.1906059060946308 0.20456658513280235 -0.09123397862956278
-0.19308686002643927 0.20174609334203086 -0.062030712724182535
-0.20644223436268194 0.20711915404530845 -0.04645142948672526
-0.19596846147926672 0.21341310651036582 -0.07484836375758402
-0.18975293382557257 0.19120107800694786 -0.05912757909342997
-0.19038034721763952 0.1952416172716268 -0.09040663635775797
-0.210428280080875 0.22782509238454185 -0.04161305224940531
-0.18879236027153357 0.21440373570653282 -0.10030793643042796
-0.2081016574755512 0.20959596545430503 -0.03692940866992228
-0.19078814729603155 0.1938807240221151 -0.06088290607974284
-0.1894214872971378 0.2648212185594686 -0.06937224662348979
-0.20175707086475714 0.21634315163823448 -0.07030401623294108
-0.20964441939743383 0.22652690322133384 -0.045700440764877726
-0.2062408004656635 0.19463025243016563 -0.03421829140231364
-0.19744151576908453 0.24594186455937705 -0.08486188447520487
-0.20666046186836584 0.23265002877446495 -0.05683646595523112
-0.1911191318884693 0.15007631690236412 -0.03270659840152018
-0.20940707370193823 0.24783466965886436 -0.04070041573092692
-0.19314156218918188 0.26588361174794517 -0.08629665768191569
-0.2092860464707218 0.24940155656071983 -0.033129135728332926
-0.19314065321834906 0.20761256129475913 -0.07676849758670085
-0.19199774905594214 0.20008431584569297 -0.07642195618197672
-0.19214038297088964 0.20009963423940025 -0.08697308099314921
-0.19035288437755926 0.20428751618596397 -0.09165559208438151
-0.196979713882526 0.26461379439565025 -0.06201059615657084
-0.21064056202324255 0.21911452920171104 -0.03968347108409159
-0.19905349358471258 0.2046386471483358 -0.060390124679062296
-0.19974319383056982 0.22488747746678672 -0.08009664213702433
-0.20297030850799902 0.2475671640131124 -0.06950331723735087
-0.2018605892315708 0.21420960337849937 -0.06683541333720439
-0.20297816141994818 0.2323282829019674 -0.07091550028369181
-0.21185599013717993 0.2389302125665792 -0.03356290853068583
-0.20635403438957556 0.1893263331148275 -0.043045173049423624
-0.19905239089878424 0.2318053117487081 -0.08161426579997294
-0.1978998456850849 0.2156475058290609 -0.07786829268977397
-0.1883548621788822 0.2235166898462423 -0.1044294039015507
-0.19491986676605566 0.23113982588979087 -0.09124220407054179
-0.1893246148482166 0.21343969018193565 -0.034600059152100016
-0.19867421432884558 0.23667954117986045 -0.08232311403796427
-0.19540574892910345 0.2130023709032186 -0.0858328143362736
-0.19529573365600927 0.25486652762624107 -0.08360073959872477
-0.1883703444853626 0.23416839749547325 -0.10412898159072154
-0.1883989398136936 0.26800726563664756 -0.05604339635417216
-0.21177994951160772 0.24594234139653526 -0.03274903690860026
-0.20611330613048895 0.1738710871431478 -0.03382072842166178
-0.20998897894771917 0.21763967187138877 -0.04132203257128947
-0.20769777640255316 0.2267127505037435 -0.0540032187704777
-0.1905131314650379 0.20538287074300132 -0.060666332602951456
-0.19310526296051367 0.24210398108693443 -0.09438192343756907
-0.20902114852817877 0.21501665026875816 -0.04423336184069865
-0.20529825731666906 0.2270579210016378 -0.06331268942401164
-0.19448955103309973 0.26144330413075767 -0.07752836740061991
-0.18980380638988836 0.25793288857671104 -0.06939042604014628
-0.19915802523048742 0.20814125449391685 -0.061757216811630655
-0.19534323855789526 0.25391422421666465 -0.08540869748637431
-0.19148447855862005 0.1979172697755941 -0.061671743751022745
-0.18967252715977057 0.24080603034230552 -0.10132657980963938
-0.20432460054310186 0.21793012530537925 -0.0645705262427067
-0.187759024347385 0.2136074176523336 -0.06960765516803019
-0.1984173928156696 0.1924577823373922 -0.06134466326281779
-0.19324239834698065 0.2603010407182821 -0.07180629169986003
-0.19303585335167273 0.26347910077306114 -0.07466746366069071
-0.21172424897106512 0.24135337979527793 -0.03408364450976603
-0.2051056449070774 0.25699798972340904 -0.05097861087367289
-0.20326566442402227 0.2410259714815267 -0.0695587197546696
-0.18796193345936163 0.13498331815930686 -0.03941516077563517
-0.20347019776256903 0.2554273477289327 -0.05823094642207377
-0.20268036171348913 0.20677422196599327 -0.055505375028107096
-0.19929766401203497 0.2557356825563558 -0.06586600339457743
-0.1880520854845844 0.19893031031819663 -0.03904674446627848
-0.19265705093296392 0.21035592467519126 -0.06203720963046305
-0.20863009735496862 0.25329534918996177 -0.04027147090480082
-0.2109020475998722 0.22010104567738853 -0.03930849826380961
-0.20719346150310858 0.19917969615193687 -0.038236449122879435
-0.19271699830444677 0.1919537654611715 -0.07950277125880473
-0.2068668876543842 0.2587494722101339 -0.03565255796954386
-0.19105308994205816 0.20428638369771324 -0.03256879246279948
-0.20196239396484716 0.2590885034296163 -0.05855734145686381
-0.19368295117767675 0.2652014961931356 -0.07671077048823588
-0.2082142804518543 0.2467359176370748 -0.048484901547882486
-0.19466526552589758 0.21825765282842002 -0.09107131755397074
-0.19851277514847143 0.21800248534413658 -0.079823265433762
-0.1877689634219013 0.2643278113100179 -0.033455918193314005
-0.20342576249988897 0.23221139819356285 -0.0695637861494755
-0.20137239738853796 0.25090675265523277 -0.06947330629870646
-0.19482205554397924 0.25645755440923057 -0.083822528481934
-0.2079876039877735 0.24800323159428916 -0.049032698035690714
-0.18919680758865698 0.26397024304601036 -0.06906844174906962
-0.19657954319866522 0.25968449027272544 -0.06287423765704386
-0.18932771428974493 0.2619024983141073 -0.09479566907927744
-0.20469158634098394 0.2139488926622518 -0.06030435359523051
-0.1904421572342716 0.13553695590230308 -0.09028835094020121
-0.19987044974716528 0.23801522166463218 -0.07927076017901652
-0.19599866613300665 0.23372905165883384 -0.08876545226618998
-0.19253223880680426 0.14333372027608238 -0.08583332097575419
-0.18889912709148748 0.2499943247530111 -0.10044182336375468
-0.20723226412685736 0.12267925054761253 -0.03849993145510905
-0.19536559029968603 0.2212394943925985 -0.09062595164820902
-0.207390588964542 0.2245300284120687 -0.05572555458590739
-0.2023956303253971 0.2127054801675924 -0.06340835487887614
-0.1908023183003269 0.25644062669011436 -0.09414429462001078
-0.19396990283878668 0.20776806981297813 -0.08498681581065409
-0.19285651787670477 0.21112077147694908 -0.09032363688990824
-0.19498182579429968 0.25055174739095054 -0.08763215935275309
-0.1883294556990467 0.1864344349596151 -0.03805259859606974
-0.2001777712956272 0.25932894856664024 -0.06136287248179667
-0.19257312759312017 0.194690393516744 -0.08477936184451335
-0.18982653066070898 0.20769773633214317 -0.034122894168350626
-0.19769425436409338 0.2530897131654867 -0.07093034184024088
-0.19092039510162695 0.22730671078893028 -0.09955171740100138
-0.19859628125580175 0.20894323498936973 -0.06324122345492594
-0.2051463101759754 0.2651479712221273 -0.051214675069305826
-0.19032670303734167 0.17163621098729454 -0.09052480256602519
-0.20595125600250586 0.2481317392084249 -0.056854496360275675
-0.20259392007740362 0.2191940417978414 -0.07061148679301493
-0.2063190762654148 0.2263235321733602 -0.05933381116435282
-0.20356806858929022 0.22544937045308433 -0.06963310635134928
-0.19308033331783636 0.26255212933751426 -0.07376251614138835
-0.20499407991321905 0.14923934848042808 -0.04791767394587748
-0.19321833297165258 0.2286450734827169 -0.09468884265467875
-0.19536342963131292 0.23195485980244956 -0.09031508362338297
-0.21197822436245306 0.2343705168459066 -0.03309665119693034
-0.20662818595321997 0.26381884724828086 -0.04223815596148722
-0.19333420440109594 0.25924222380849204 -0.07144720351741068
-0.19969257458599432 0.24055360467168174 -0.0795367459063267
-0.18913827582748755 0.20793555886479698 -0.09621780610129588
-0.190835994924625 0.2047548762056478 -0.07275180017993205
-0.19016831859501226 0.2113898268434652 -0.060060242772552896
-0.20709186538608892 0.258746790001119 -0.03643910086199992
-0.2062645678177677 0.16365640074941 -0.03430039680049174
-0.19964642568977697 0.15404449612828575 -0.05998135602519267
-0.19129208966644629 0.2587981096002706 -0.09186671173617594
-0.20640717193039282 0.12638415605756126 -0.03474823629901164
-0.206165042962154 0.20170198590489707 -0.03447828686282389
-0.1903399352684818 0.26663057715627037 -0.09275187051341288
-0.2049995039358936 0.215589629718984 -0.06078250205561869
-0.19557016834171637 0.2579465976450094 -0.06323803460643046
-0.20570599779041632 0.229402946541036 -0.06134332215831034
-0.1975197915688358 0.21422861726018272 -0.0766196647886967
