ply
format ascii 1.0
element vertex 186
property float x
property float y
property float z
element face 0
property list uchar int vertex_indices
end_header
-0.1895901088372074 0.3416215649339803 0.1803148587937618
-0.1965013717070423 0.35001985938283287 0.14221184456303365
-0.19922572120579107 0.3499824276659139 0.1623378595109249
-0.21919853731544836 0.3383071294519552 0.14420219266369588
-0.19981166466625555 0.32956247241231285 0.1595565875764156
-0.1976048324957691 0.3523328176233419 0.15309845411732442
-0.20638073727043493 0.34827171475621543 0.1567971607442165
-0.2026072864189945 0.3520550599786886 0.14982478821232564
-0.18834405883701666 0.31873886496754966 0.14853172504856832
-0.1981749658242069 0.3521548381540426 0.14589866006329305
-0.19210915013702734 0.3306641450616964 0.1715565522904659
-0.2050385300770603 0.34073089272710166 0.1619604429002071
-0.2118429814234577 0.32994733960362754 0.14516430103733785
-0.19296340390594824 0.34858851344319663 0.17286654317333944
-0.1926035706654392 0.3248491159174093 0.1546825369591976
-0.21364536627682074 0.33021663338872276 0.14323054754688985
-0.2037979786053501 0.33343307883473716 0.16267307603314168
-0.1895520661726795 0.35256062657567344 0.16254510486080892
-0.20333280905636175 0.3522906175348409 0.14216091239407308
-0.22100758298786505 0.3344124427530416 0.13748531544163473
-0.1989686463728748 0.32596646458836875 0.14112903678372152
-0.18883979066761358 0.3245428672525533 0.15734090411618
-0.20309427126797064 0.3407426944467672 0.16508110368206746
-0.19546147927196844 0.3469067087862142 0.1377404233212734
-0.21446759745033606 0.3478467932436117 0.1452228029961849
-0.2042227809086643 0.3445246687624105 0.16217233741238363
-0.20133794590385778 0.32894848496648155 0.1378985544438625
-0.1974737767830692 0.3260806074831136 0.15220855677082784
-0.2036519323244892 0.3497180214616903 0.15702038013890035
-0.19514174505623205 0.3474761119577535 0.16970618569805868
-0.18933742984684332 0.350223886081899 0.1741483410592342
-0.20209754749687536 0.3370468488428243 0.16658737266018636
-0.18790764852913244 0.34950475604268394 0.17729445302441366
-0.18769600733669622 0.31639157445165 0.1464701493973995
-0.19422739490421637 0.3500071635934957 0.16804399096920736
-0.20352661355884893 0.3442480436060079 0.16325994336560018
-0.19981935366543158 0.3500168195459493 0.16132303082897909
-0.19666079923065527 0.3281391730997213 0.1349020501370693
-0.1890005443945728 0.3254703751299032 0.15990986430599935
-0.20540050908478125 0.32717018038960777 0.14330728852703817
-0.19972914203556402 0.3270637860986837 0.14169399940922506
-0.1938603644028507 0.3506431451532491 0.1470650037522579
-0.19189476713093145 0.327636109897817 0.1637265881295467
-0.2080735538855396 0.3477714529726156 0.15374656522228963
-0.21354147538097723 0.33627127320500694 0.1500579019780422
-0.19793213650139196 0.3285749426576742 0.15911426150753744
-0.19091512009056433 0.316516028949941 0.13659884536221273
-0.22039825960548742 0.3449365964624532 0.13896205031826742
-0.19243147715481146 0.32201735884877525 0.1338763138051296
-0.2059395287886463 0.34456764371129356 0.15994616353466756
-0.19123771532924994 0.31727795512410484 0.1410271128411556
-0.20781956359299047 0.3287814131471761 0.14712198579266317
-0.1876974974528156 0.3141322603914388 0.14213483536198385
-0.20137415572555883 0.3408123722765096 0.1669033368821407
-0.20394286259563787 0.33037291676732383 0.15640308463528402
-0.20144964500816687 0.3319465389940389 0.163109262823608
-0.18787054463775976 0.3282139769289144 0.16924383246853597
-0.19309295460136755 0.35185043723317466 0.16179015243008382
-0.19423389181049688 0.3351024857256063 0.17349072301342733
-0.19685356065185888 0.3399477472993978 0.17316349351361043
-0.18991379186066015 0.3295659294817098 0.13210963213398702
-0.19796661778839453 0.3276145330164083 0.1562851568455959
-0.20885917290600164 0.331506537506307 0.1530129810567165
-0.1904399518624149 0.3479504457208761 0.17560412490322835
-0.19649496420772894 0.3370563855859884 0.17275728785946615
-0.1986380939141117 0.33923100144597373 0.16962178552105672
-0.21622426554115637 0.330349253723348 0.13930158817723043
-0.20139574750812872 0.33885799557896934 0.16712745034649618
-0.19630738839062079 0.3311446181032308 0.16791071498348958
-0.20432978614719732 0.35208730609151206 0.1388487716908718
-0.19333217784317358 0.3296745291444906 0.16787852847531087
-0.22485545023830755 0.3444965353700765 0.1323421796555782
-0.19357277199180944 0.3412605396005758 0.13720910751774557
-0.18935119851978643 0.344797598430837 0.18042471015408285
-0.19384735568912848 0.35085360915395103 0.16630359494641073
-0.188082647766193 0.3222194781992086 0.1545718213315273
-0.20987252637298925 0.3376707902643331 0.15517454349949605
-0.20085796460064276 0.3265825381967672 0.1491672893758083
-0.19456702217014654 0.3476803770753988 0.1716098388428951
-0.19259188815506323 0.3191243878099569 0.1395966907735134
-0.19117200120838507 0.34165416867467246 0.1779659589524532
-0.18827464922817572 0.35154389054509483 0.1693992813821102
-0.22024856254013403 0.3488501778337606 0.13525699579670675
-0.2198102299824558 0.34453420550557456 0.14029481017544515
-0.21441077932270391 0.3391603699419149 0.148726721643951
-0.2115574304715 0.32908891350957237 0.14137574040844686
-0.2062533919468723 0.33817790658208213 0.1601231297250057
-0.19559658810051306 0.32262872369023643 0.13792898261502035
-0.20847715183647497 0.33901904732915245 0.15704332792713888
-0.18922659500988348 0.33397607714864097 0.17760374152615316
-0.22059420987518652 0.34163920790883384 0.14020185673191793
-0.19327245398910864 0.33356701047154746 0.17328896129086263
-0.20779631778152807 0.35129992873402915 0.14654247963383443
-0.19581918164642675 0.3435061445924886 0.13554953539326436
-0.20939834162147863 0.33078174502583824 0.15080731117680318
-0.21698696657570227 0.3374981156084188 0.1452959378953243
-0.21849609657677038 0.3487949243280538 0.13712566101506002
-0.19178363427074774 0.3408358565065511 0.17694028222515829
-0.19598588093670233 0.3301177492830404 0.16585661971524007
-0.1949870859042011 0.32228641421529136 0.14568721258595235
-0.19440358623417242 0.3270855417940267 0.15922584140255697
-0.19051782533081396 0.322537290165151 0.15262835228398092
-0.2023893271342121 0.348507749149526 0.16043331229641683
-0.19565441950710638 0.34801982552739463 0.13884757959797628
-0.21472751840504034 0.3439501991960653 0.14827372634365804
-0.20685127123745306 0.3476086130830892 0.15652876102879293
-0.21251505359562262 0.33609418780537925 0.15139262878849752
-0.20518396541031225 0.3317530027124532 0.15841772162869222
-0.21295936151893957 0.35087250382634483 0.14101060235455282
-0.19959246858509405 0.352371799061025 0.14973472559407003
-0.19371953352840765 0.3401579728815206 0.17523243033840902
-0.19980585321338995 0.33454196364613853 0.1678898533578182
-0.20249992355259283 0.3320604434702047 0.16221370303585775
-0.20921812697800024 0.344143735477651 0.1551126738782192
-0.2218854550972782 0.34204636723729454 0.13742520415737874
-0.19756524011047705 0.3263434043619283 0.1373477777238155
-0.19314560040386541 0.3214095106813558 0.14666830503895528
-0.20204435035141333 0.3522618284914144 0.14699508750393636
-0.19746276482494696 0.3404358497354635 0.1722926100487972
-0.19434900328071936 0.3452052942011007 0.17362244927838094
-0.22070939585121496 0.3311998716089376 0.13238592946484334
-0.2051257316723667 0.3364130130502828 0.16170628869488485
-0.21598133191021307 0.3365513554308065 0.1461063822503353
-0.19667097672375067 0.3267465105745443 0.15535353624775655
-0.20740939422996862 0.35216842801305137 0.13771082961514242
-0.20780853673370703 0.35096858651372276 0.13179033005192525
-0.1912572060480915 0.34630470187398277 0.17578043544247396
-0.2069553409472309 0.3325981369707235 0.15639471018269308
-0.1895901088372074 0.3416215649339803 0.1803148587937618
-0.19922572120579107 0.3499824276659139 0.1623378595109249
-0.21919853731544836 0.3383071294519552 0.14420219266369588
-0.19059480472954138 0.3214918843004354 0.15036578977062948
-0.19981166466625555 0.32956247241231285 0.1595565875764156
-0.1976048324957691 0.3523328176233419 0.15309845411732442
-0.2026072864189945 0.3520550599786886 0.14982478821232564
-0.18834405883701666 0.31873886496754966 0.14853172504856832
-0.2163702522173725 0.34087984473439537 0.14597733819439657
-0.1981749658242069 0.3521548381540426 0.14589866006329305
-0.19210915013702734 0.3306641450616964 0.1715565522904659
-0.20000371083172186 0.3515016308519491 0.15490402781918294
-0.2050385300770603 0.34073089272710166 0.1619604429002071
-0.2118429814234577 0.32994733960362754 0.14516430103733785
-0.1926881049528919 0.33423404605122886 0.13687472546055562
-0.19950051351936682 0.3502712121698507 0.16062196099713094
-0.19296340390594824 0.34858851344319663 0.17286654317333944
-0.1926035706654392 0.3248491159174093 0.1546825369591976
-0.21364536627682074 0.33021663338872276 0.14323054754688985
-0.21178589507492407 0.3282011619302877 0.1353721519704128
-0.20195112868698462 0.3281965127679952 0.15289427840664632
-0.2037979786053501 0.33343307883473716 0.16267307603314168
-0.1895520661726795 0.35256062657567344 0.16254510486080892
-0.22100758298786505 0.3344124427530416 0.13748531544163473
-0.20649379238041266 0.3520573845598348 0.13625000917866475
-0.1893185947790943 0.33856050879689537 0.1391689380402828
-0.1989686463728748 0.32596646458836875 0.14112903678372152
-0.18883979066761358 0.3245428672525533 0.15734090411618
-0.20309427126797064 0.3407426944467672 0.16508110368206746
-0.21359570070656164 0.328882025787557 0.13602991902783163
-0.2102410320893131 0.33288400084706626 0.1527807613606716
-0.21446759745033606 0.3478467932436117 0.1452228029961849
-0.2042227809086643 0.3445246687624105 0.16217233741238363
-0.202002507890781 0.3299534788820394 0.15781482064678914
-0.20133794590385778 0.32894848496648155 0.1378985544438625
-0.1974737767830692 0.3260806074831136 0.15220855677082784
-0.2036519323244892 0.3497180214616903 0.15702038013890035
-0.19514174505623205 0.3474761119577535 0.16970618569805868
-0.18933742984684332 0.350223886081899 0.1741483410592342
-0.20209754749687536 0.3370468488428243 0.16658737266018636
-0.18790764852913244 0.34950475604268394 0.17729445302441366
-0.19422739490421637 0.3500071635934957 0.16804399096920736
-0.20352661355884893 0.3442480436060079 0.16325994336560018
-0.19981935366543158 0.3500168195459493 0.16132303082897909
-0.1890005443945728 0.3254703751299032 0.15990986430599935
-0.20540050908478125 0.32717018038960777 0.14330728852703817
-0.1938603644028507 0.3506431451532491 0.1470650037522579
-0.19189476713093145 0.327636109897817 0.1637265881295467
-0.2104328994408451 0.3469706645700582 0.15186827385380514
-0.2080735538855396 0.3477714529726156 0.15374656522228963
-0.21354147538097723 0.33627127320500694 0.1500579019780422
-0.19793213650139196 0.3285749426576742 0.15911426150753744
-0.22039825960548742 0.3449365964624532 0.13896205031826742
-0.18974345668705328 0.3511271348688253 0.15520330274060018
-0.2059395287886463 0.34456764371129356 0.15994616353466756
-0.19123771532924994 0.31727795512410484 0.1410271128411556
-0.20781956359299047 0.3287814131471761 0.14712198579266317
-0.20834552987964972 0.34898685128423057 0.15267856919720418
