ply
format ascii 1.0
element vertex 422
property float x
property float y
property float z
element face 0
property list uchar int vertex_indices
end_header
0.08030016974059719 0.26656131655904136 0.06824501359417684
0.1075230415209927 0.26047669560643516 -0.0033996204142307538
0.11613966778365749 0.2553729286882528 0.0863691767449642
0.1160538966998257 0.25842331559392295 -0.0012907782797550458
0.0930981512412228 0.25816129357549034 0.05717270576908834
-0.018461597408374376 0.25696496875020347 0.11351682746365316
0.07381691292373317 0.2568386665079244 0.10145856940701253
0.10481338456718105 0.2615277639124044 0.025917490362670492
0.1200063999041714 0.2572855225298055 0.02355434501126058
0.12128494933692592 0.25788270146581016 0.04911412799313314
0.09531353667823451 0.2571729889604696 0.08086623752072103
0.11738224581329006 0.2575530281755575 -0.016418079495880533
0.12174947813598293 0.25959973246785484 -0.024487654328796793
0.07832946137038845 0.2569270601961263 0.11362119519665487
0.10606880739776271 0.26365195424290977 -0.008379409671280313
0.10418178394881862 0.2594676485750326 0.031194527983214926
0.050531434570232805 0.26106356293889366 0.09432821476414449
0.10085936144439357 0.26234530122014366 0.03605105483486898
-0.017818314279635972 0.2572191825601705 0.11629303300335653
0.10969864085761684 0.2569638958665975 0.08360724651768453
0.11776222542373317 0.13140316517087303 0.12235607707455404
0.11742063120452541 0.25648693949910484 0.07755516970112569
0.10269920781699794 0.257143425056661 0.0447637637849117
0.06366257623283046 0.2573690882417806 0.1198956271405483
0.10878624275771755 0.25801812321873985 -0.02790604031131022
0.09831427291480678 0.2563932409975179 0.07287295663311727
0.12019612148849147 0.11705617816182456 0.11864550912335164
0.11616020158378261 0.2538472285959371 0.09817834699108846
0.12201167896834987 0.14863626868459068 0.12007479870274312
0.09666915491668361 0.254798876354421 0.11200146877720601
0.09413047388641017 0.25639073760243736 0.06516631448223836
0.06121100739089626 0.25784467370244346 0.09074469411328084
0.12041770175544399 0.2588109245988973 0.010677059530761313
0.12017439559547084 0.25127594382497154 0.1071419318909908
0.08005683377830165 0.25698946625920616 0.1107640763516689
0.11101408556548732 0.2567604652139791 0.08389254414990194
0.07924841598121303 0.2559924593660482 0.08520202839329488
0.039427715097347674 0.2563552132341512 0.11271347606137044
0.09388728693572658 0.25990461022588096 0.05316673719837911
0.06096564487067836 0.2562876811716207 0.09581582748844869
0.0935125525340237 0.2589363923761495 0.05513529980137594
0.10304297760574001 0.25412158877583824 0.11024339997723348
0.1176914449080624 0.25779603631230674 -0.012629757285568644
0.03360890105811733 0.25649826438161216 0.10667358839466817
0.030597495590130263 0.25586401135655723 0.11243884766056783
0.11775483444778102 0.2511646619531759 0.11086111271336324
0.0574337418421902 0.2567151656839498 0.09751992428257711
0.11997775987235683 0.26503639132710777 0.1220253309006954
0.11951859549132961 0.26756982714864097 0.11234249675228841
0.10722400501815456 0.2590842118951925 0.016442885040786337
0.11672295883742946 0.2575725784990438 0.05181532108738668
0.1016694481715359 0.25596784264775596 0.05450912320568807
0.09447811797706264 0.2576978674623617 0.08963402116253621
0.10772471383659023 0.25530998618337 0.09919943416073568
0.08990441516486782 0.256693350383962 0.10674493515446432
0.10580165937987941 0.25718467147084556 0.086733450531509
0.0826398010596432 0.25607709796162925 0.11603196465924032
0.10705591991988796 0.26124279410573326 0.006082882523086141
0.04120479777900356 0.25677077681752525 0.11529742681935079
0.016207265411297255 0.2585341206285604 0.12130682671025045
0.09496785954085964 0.2544457188341268 0.11507897579624898
0.12181000665275234 0.2585018745157369 0.015512098907973837
0.10629745081512111 0.2630752197000631 0.009138007998015951
0.09328480318633693 0.25324957282277427 0.12236653768971212
0.036763625894466814 0.2591723075601705 0.10266162955715902
0.0926905150756039 0.2570796480867513 0.10304843389942892
0.09300427392570156 0.25742422253819786 0.09966941678478963
0.10857744768706935 0.25857417494984947 0.003262152313735555
0.11095966652480739 0.25579278380605064 0.0918209155793453
0.10711013034431117 0.25907652289601646 0.023989518522765707
0.07096059874145168 0.26036553294392906 0.07979579770519979
0.10534550503341335 0.2642389407846578 -0.020722995162460733
0.10156958058921474 0.2634203901979574 -0.0317311981920933
0.031936931167522845 0.2557168474886068 0.1130122145409847
0.11644123748389858 0.2548313012811788 0.0902831455464626
0.019986527715603285 0.257110523292745 0.11150290572598226
0.01942731693832057 0.25754587561818443 0.11929677927448995
-0.004186761821826524 0.2586748471948751 0.10902633273556478
0.10886575535384792 0.2567798367235311 0.056749512791183065
0.10108901814071315 0.25665156752797447 0.07045458757832296
0.08263771489707607 0.26008294732304893 0.06896998488857992
0.05672504261581081 0.25742517621251426 0.09618260467007406
0.032155739818493304 0.2559915056917318 0.1148335834737087
0.1135696347102322 0.2572836747858175 0.053699572920348715
0.1038863535269894 0.25768487364980064 0.04003267490818746
0.11338643983451503 0.25674049765797935 -0.024117390275452066
0.08429886654464382 0.25628076703282676 0.08116670453503377
0.105418043886105 0.25294880778523765 0.11401956284001119
0.06454353288261074 0.2563797703477987 0.09321232640698202
0.09705822423545497 0.25711547047826133 0.055174519657638144
0.10573284581748622 0.2567740550729879 0.03745495283558614
0.12181072190848964 0.13659648806783042 0.11901866400196798
0.07554929212180751 0.2571366301271566 0.1030775209660793
0.07904972389785427 0.2561569681856283 0.087988515734222
0.09633605435935634 0.26088337809773765 0.04669143760159261
0.11865024522391933 0.25851993472310386 -0.02124584710643046
0.11485205844489711 0.25309585244389854 0.10410328710034139
0.11289771154967922 0.2578925958368429 0.06557624542668111
0.12199546650497096 0.13870458514424644 0.11903472745373495
0.11994128182975429 0.2519740930292257 0.1035142143960262
0.11595674112884181 0.2504023781511434 0.11571951711132772
0.07910140112487453 0.26028757006856285 0.0722034474606777
0.06747819737044948 0.2571477761957296 0.10674830281689413
0.07162644222823757 0.25674562365743003 0.11973001563503988
0.11051656559554714 0.2538406720850118 0.10485290491535909
0.05690954879371303 0.2559260597917684 0.10004888975575216
0.10205863669959682 0.2677864900323995 0.03062938654377706
0.11552499488441127 0.2571790090295919 -0.024608502746078897
0.0728717620715298 0.2559888830873617 0.09430121386006124
0.1045724923953213 0.26450960547658287 -0.02491662895724528
0.0735903854712643 0.2564383617136129 0.08648528659298665
0.11199926093665737 0.25753514678212486 0.07220136129811056
0.09375919655410427 0.2573466768953451 0.09975423419430501
0.0956730122908749 0.25568567425938926 0.10856305563404806
0.1107242281779446 0.25625829608174644 0.04518028104260213
0.08844413117019313 0.2575009337160238 0.09373169147923238
0.08403404310790676 0.25683187157842 0.07407092058613546
-0.010472220625003404 0.25802754075261436 0.1178424855466152
0.09634380296317714 0.25633113295766197 0.06281088793232686
0.05407713607398647 0.26395546109410606 0.09147976839497335
0.1109049196585812 0.25336609990331016 0.10755120718434102
0.11558114245978969 0.2568132749292501 0.07666229212239034
0.08586485937682765 0.25691436440678916 0.0729758342499996
0.045055466447750506 0.2576297393533834 0.10011886560871847
0.07150067642776149 0.2558236590120443 0.09418382251217611
0.10241027430144924 0.2520999780389913 0.11984707915737874
0.06471251205054897 0.26152251870366416 0.08441614115193136
0.10771833613959926 0.25942479283543907 -0.01976675784632914
0.11980305865852016 0.2572820058557638 0.03930958116009481
0.08750660971252101 0.2576386800500997 0.06735127174809225
0.11334784582702297 0.2539751997682699 0.10089658701374776
0.10413365319816249 0.2568290105554708 0.06770302855923421
0.10840873674003261 0.2573654523584493 0.07513390982105977
0.02561487511245387 0.2561443320009359 0.11299033963635213
0.10602472976295131 0.26371108205052696 0.013770928024795126
0.04585220173446315 0.25681369216176353 0.10267867648556478
0.11885063603965419 0.2534088960382589 0.09618320071652181
0.10092668489066738 0.25641952664586387 0.06693761551335103
0.11510385826675075 0.254702018806661 0.09335075819447286
0.10658596709815639 0.2571080795023092 0.06759347522213704
0.04689835265723842 0.2574289313051351 0.09947236382916219
0.07571093991843837 0.25682305009099327 0.11640374863102682
0.10234244421569484 0.2610072961542257 -0.029639760613892008
0.11136503771392482 0.25649272114964805 0.04730435216381795
0.1015333409651913 0.2637840977403768 0.03294601046993978
0.12175090864745754 0.2577634325716146 0.022121151327636313
0.10284479216186183 0.2569736710283407 0.09492530429318197
0.08393658951369899 0.25973485619756065 0.06797402107670553
0.0755854125365414 0.2655364146921285 0.07323082292034871
0.08716498569099086 0.2571390739175924 0.10596128308727987
0.10711317018119472 0.2562709322664388 0.04612057411625631
0.1144158716544308 0.25690685422154746 -0.012917230487320353
0.02805204943267482 0.25677101523610435 0.11111419403507955
0.07584910348502773 0.26595215708943687 0.07295723760082967
0.11924676850883144 0.2571797242853292 0.022150327801253866
0.11168517426101345 0.25629513175221763 0.04547460877850301
0.09565602496711391 0.26180790574284873 0.04698966944172628
0.11964307979194301 0.2576478591653951 0.044204851030852865
0.010761397634426528 0.25877325446339927 0.10823835933163412
0.0994080181464352 0.26790456683369956 0.037929495214965414
0.11952387050239223 0.13279392034741722 0.12084807956173665
0.10953901961890834 0.25659667165013633 0.08741023147061117
-0.006226283754428453 0.26674126298161827 0.10568161809399373
0.05376439050284999 0.26607190282079063 0.09112038218930013
0.038870888505855974 0.2558880320284017 0.107286771177795
0.04937349513618129 0.25661866576405845 0.10076721513226278
0.08494039133636135 0.25486152083607994 0.12107457721188314
0.07128019884673732 0.2574488392564901 0.11493011319592245
0.12191073850242275 0.25756113440724693 0.02824630343868978
0.09370126083938259 0.2536198964807638 0.12016289436772115
0.10323681191054958 0.257472740719045 0.08517985546543844
0.005222487007061415 0.2616159191820272 0.10651000344708211
0.10680191472617763 0.2620051971170553 -0.003615776658508708
0.09666882709113735 0.2576789131853231 0.09239848458721883
0.03562976673690456 0.2562675944063314 0.11484547460034139
0.1142107422694363 0.2572632303926595 -0.01117427146479838
0.11549996093360561 0.2537065020296224 0.10028096044018514
0.1221704955443539 0.2592619529459127 -0.009577999473068644
0.10797296718207973 0.2589985004160055 0.0018902918095851642
0.08872138217536586 0.2656427493784078 0.05910899245693929
0.005073803220669203 0.2576762309763082 0.1130156120057369
0.12164204076377529 0.25823103100987754 0.017152210115935873
0.11921330050079006 0.2589037886354574 -0.005704323411438395
0.11080484346000331 0.2576248517725118 0.016235997318770956
0.04432301477042812 0.2576296797487386 0.12184085452511556
0.05437882498351711 0.2572977414819845 0.11324422562077291
0.10858039811698574 0.258006679126943 0.026422162889983725
0.11229299262611049 0.2583064308855184 0.009949346422698568
0.11407028392402309 0.25693617970677696 -0.013667712569687296
0.05770336345283168 0.261290895054067 0.09028961265042074
0.10124553993789333 0.2568771711084493 0.07476212584927328
0.11215244487373012 0.2571789494249471 0.05459671223118551
0.09124951318351406 0.26092355162831626 0.05651988589718587
0.04647718623725551 0.2576072087976583 0.09942769014790304
0.11848868683425563 0.25785337598058067 0.053869893192794394
0.06504221514312404 0.2583374849054464 0.08854191505863912
0.12092976525870937 0.2551420798990377 0.08359675610020406
0.09663240865317958 0.26396416337224327 0.04388188326313741
0.09636943296043056 0.2563070526811727 0.06244306766941793
0.08353750661460536 0.25710140378209434 0.09445010626271017
0.07910047725288051 0.25729583413335166 0.10782139503910787
0.10624851540176052 0.2681224218103536 -0.0035919348005985516
0.11597515896407741 0.2569769492838033 0.04363619291737325
0.04318805292693752 0.25614999444218955 0.10962661111309774
0.05466653660384792 0.2569070330354818 0.10990639531567342
0.05161743119804042 0.2564858070108541 0.10449792945339925
0.04710497215835231 0.25644450099202476 0.10607134306385763
0.1193941111907162 0.14177637011739097 0.12186705076649434
0.11075262979118007 0.25802348763676963 -0.014540801406357218
0.11314352110473293 0.2563856116029867 0.08354841673329122
0.06540079668609279 0.256712721893514 0.1047104796166683
0.08408589914886135 0.25662856013509117 0.11183707916691549
0.08310754850951808 0.26681833178731285 0.06620367371990926
0.10173084095565456 0.25690524489613853 0.04782335960819967
0.06979356959907192 0.2651111951563009 0.07946528994992025
0.06888805583564418 0.25738404900761924 0.11690934503033407
0.11048068359939235 0.25803606421681724 -0.018862942815277506
0.10744239643661159 0.26024346263142906 0.0033090611691737873
0.11947120979873317 0.24884085566731773 0.12020282947972066
0.02399371818153041 0.2563904395792135 0.11493914329960592
0.09750543788520473 0.2577403655740865 0.05223884189083822
0.08128319934455532 0.2574144473764547 0.0990061064954067
0.11216117695418971 0.25841509015294395 0.00718553864910848
0.11527394012061733 0.25698517472478233 -0.015046189189407755
0.11733325079528469 0.12385879666539512 0.12203799688771017
0.08048771575538295 0.25688408524724327 0.07853083813145406
0.12001119807807582 0.14573158533307395 0.12160675728276021
0.11752026036826747 0.2584801188203939 -0.031165430903885294
0.1094470794543423 0.25868146331044517 -0.0028800765280460614
0.12109036997405666 0.25788031728001914 0.019341667532470297
0.06553419188110012 0.2624735108110555 0.08297993743374593
0.09925748661605495 0.25737075717183433 0.08062698447659261
0.11404510096160549 0.25769262225362144 0.061534812092330526
0.07644431546775478 0.26656620413991294 0.0723451277013088
0.10408012822715419 0.25262503535481773 0.11651655042126424
0.11764456585494655 0.2540569773409017 0.09406559669926412
0.11859162405578273 0.12857295782300315 0.12131499254658468
0.11014323190299648 0.258053647587026 0.011640628218200277
0.0925032968863644 0.25644086510869346 0.10642491781666524
0.05765559033004421 0.2575381866190084 0.11684431636288412
0.0886784370288052 0.26283113867970787 0.05843280756428487
0.0976006861075558 0.25344316870900474 0.11791219317868001
0.10780765369979518 0.26811264664861045 0.12148537242367513
0.08102874711600917 0.2567221990320333 0.09254335367634542
0.09920273974982875 0.2668370476457723 0.03712641203358419
0.07335935786811489 0.2571745982858785 0.10400878393605001
0.10159977034179347 0.26491122157307945 -0.03018711006686442
0.1050980861529507 0.2565179935190328 0.04652946197941549
0.041814910922924456 0.26296369940968833 0.09775938594296224
0.09891952828017848 0.26509528071614585 0.03852399194195516
0.09397317722884792 0.2553469410631307 0.11130373680546529
0.11931245282737392 0.26789878518315635 0.11118613684132345
0.1069029744013943 0.2562697997781881 0.09344886743977315
0.09847669557181972 0.2573412528726705 0.09515704715206869
0.11659504726974147 0.25801544100972496 -0.008393327355835367
0.10936005667297023 0.25850396067830406 -0.0017366508249973553
0.09233232096282619 0.2662996521684774 0.05116697156384237
0.07552616551963466 0.2565207353326925 0.09866263472988851
0.10654123381225246 0.2615337839815267 0.017524739145782064
0.09707759574500698 0.2577626577112325 0.09122972691014058
0.11286296204177516 0.25654725939961753 0.037644495605971884
0.09667192653266567 0.2571186891290792 0.09914811456158407
0.08678980425445217 0.25692509324284873 0.06984271609738119
0.035748797212521013 0.2564511767122396 0.11612158024266012
0.11244125917998928 0.25712250382634483 0.05282648408367879
0.10088067010490077 0.25751309306355796 0.08649491274311788
0.08872263387290615 0.25735204131337486 0.08921520912602193
0.0892751987322964 0.2564349046442159 0.08041300380184896
0.09012295559493678 0.2538310161325582 0.12164171540692098
0.11118881658164638 0.2565667501184591 0.03639011585667379
0.11381243423072475 0.25772164971562705 0.06984676921322591
0.11624096587745326 0.25791274220677696 0.007919689058806967
0.0771904762133755 0.2599388828966268 0.07493712508633382
0.04275129989234584 0.2575045099947103 0.12140782678082235
0.11086561039535182 0.25697563798161827 0.0806289514298702
0.09100596860496181 0.2674958577844747 0.05573244893505819
0.10114439085570949 0.25628732354375205 0.06381394469692953
0.09836457923499721 0.2565003505441793 0.10252570116474874
0.1176969881400265 0.25805638940068565 -0.009885529637787271
0.08459298566428798 0.25646870047780357 0.11230431997730977
0.11072691038695949 0.2510453930589803 0.117500474094894
0.08325328186599391 0.26719205291005454 0.06619878613903768
0.10153056934920925 0.25365488440724693 0.11419196927502401
0.08402119830695766 0.25630937726231895 0.08285789692356832
0.10451345399467128 0.25522767216893516 0.10424291098072774
0.08399884656516689 0.25483726174565635 0.12211974465801961
0.10656328753081935 0.260776864597524 0.022836049437072348
0.10274134830085414 0.25719176442357383 0.07818635308697469
0.08948748067466396 0.2563491931650289 0.07665460312321432
0.09061043218223232 0.2553101053926595 0.11421637737705953
0.10718541101066249 0.2615383735391744 -0.009586224914047647
0.10710720971671718 0.25670002610417686 0.08951990807011373
0.04933379844276088 0.2595259419176229 0.09656115376904256
0.09949024275390285 0.26625983626576744 0.036441375851180624
0.09578363851157802 0.2604155412408956 0.04827581846668966
0.11507149294463771 0.2500173321458944 0.11842875683262594
0.010750013147274428 0.2575781813356527 0.11405008041813619
0.11104293421355861 0.2562182417604574 0.04054500663235433
0.1057459886416592 0.26361613185139976 0.02199809753849752
0.06345968202201503 0.2560041418764242 0.09899299347355611
0.10439558580962795 0.25632606656285606 0.061310102581527304
0.11365844563094753 0.26699541718694053 0.12045057618572957
0.1218163843497433 0.2680161467287191 0.1083423098321224
0.10716273144332546 0.26094292313786827 -0.017662058234665323
0.11998163417426723 0.2575883737299093 0.04335330927326925
0.12180902317611354 0.1525362005922445 0.12124704325154073
0.1208425040587582 0.14134402782651267 0.12040775024845846
0.08088048056213039 0.256294774124349 0.08906128013088949
0.11623756841270107 0.25750582129689537 0.054896732210662436
0.08230619386283534 0.2619054189417013 0.0673589011426235
0.06215103224364894 0.26762752444478355 0.08587752783253438
0.03940166786758083 0.2585515251848348 0.10219283902600057
0.1060855563029446 0.267386185238088 0.0015054544205928546
0.10638891414252895 0.25638883025380454 0.04530512297108419
-0.02662215873154027 0.262500452110494 0.10479681694462545
0.10617344335166591 0.26330612809392295 -0.005208949208710124
0.11549483493415492 0.254074143478597 0.097422828316238
0.10674329355804103 0.25720863253804527 0.07114343845799215
0.06045143560020107 0.256180392811025 0.10375609004452474
0.08202131346313137 0.25656490237447105 0.11349641287281759
0.06482403234092372 0.25679163844319663 0.10599284374668844
0.11534120396224636 0.256694423267568 0.07804330193951375
0.1080163891657986 0.2587422004434713 0.015054722666289877
0.11816732839194911 0.25742934853764854 0.06322251760914571
0.04953231171218532 0.25776957185002647 0.11912005150273092
0.12230523184386867 0.2552742830011495 0.0801394482846523
0.028397130523601943 0.2657079568597921 0.10335551702931173
0.08659975484458583 0.2567101588937887 0.1093128224606777
0.1092264528617062 0.25701175839635215 0.061040868401076864
0.11730660751907009 0.12152292043896995 0.12183963262989767
0.05408992127029079 0.2563784590456136 0.10623987519696004
0.11358134702293056 0.25793598801823936 0.06584354245617635
0.11869229630080837 0.2558074465486654 0.08198975527241475
0.02681423977462428 0.257976161548818 0.10769297683193929
0.10336096838561672 0.2569615712854513 0.07107992970898397
0.05677481249419826 0.25747512490483604 0.11640628182842977
0.10703496888724941 0.25686888606282554 0.06399925553753621
0.09847753003684658 0.2579346171114095 0.048953702091720175
0.03360601023284572 0.26725428015920005 0.10101406776860006
0.10858570293037074 0.2511637082788595 0.11879571282818563
0.10861911133376735 0.2584447136613973 -0.022288838983032633
0.06633620217887538 0.25822542817326866 0.08716039860203512
0.10954843715278285 0.2583226433488973 -0.019912610412094522
0.06071321920005458 0.25694297463628135 0.1090320845837856
0.10574804500190395 0.26450257212849937 -0.002380500197861125
0.11771945909110683 0.2583593002054342 0.009377350449111532
0.09594412401763576 0.25611566216679893 0.07243915402844198
0.10630728558150905 0.25681339413853965 0.03264032804920919
0.1097827728137173 0.2583454719278463 -0.017665008664581705
0.09520106271354335 0.2572851052972921 0.083969881176498
0.09044902280418056 0.257844792911733 0.09545349085285909
0.10550306991187709 0.26563374907704673 0.0017127593751216632
0.12026287869063991 0.26037471205922447 -0.0005434254412388103
0.1216955359324612 0.127956675598348 0.11819856369450338
0.11991019800750392 0.2576820722314962 0.01829745376065023
0.0813447709426083 0.25662128836842857 0.11382757627918966
0.10952474430648464 0.25638465792867027 0.030768324970748495
0.020166176114956313 0.25925938994618736 0.10701953375294454
0.11828650787917751 0.2586453428957113 -0.028649369836304117
0.07436003044692653 0.25649325759145103 0.08877711498692281
0.10028790191260951 0.25753347785207115 0.044947614311721396
0.10033889368621486 0.25585989863606773 0.05353747808888204
0.11660300448981899 0.2574587932321676 0.01308499777271993
0.09551988795844692 0.2564230433199056 0.07585935795262105
0.1078107531413235 0.26018487126561485 -0.012781629920456339
0.09390570477096218 0.2562252751085409 0.0745351215596462
0.11917980269042629 0.14378096372815452 0.12225266301586873
0.1083421583518185 0.2531703582498678 0.1108536919350887
0.11849878982154506 0.25310282618733726 0.09918819868519552
0.10216386869994777 0.2676063647958883 -0.030160943627808023
-0.028311413969119615 0.2659531107637533 0.1023606261010433
0.1154810960635342 0.2493984571191915 0.12079529964878805
0.0764740581854977 0.25670246989461265 0.0813100239033962
0.11863686398116725 0.12016080529424034 0.12047575914814718
0.08972312763778346 0.2569091788026937 0.06684239709332235
0.03011842325774806 0.25655590207310996 0.11711927258923299
0.09079154089538234 0.26641915948125205 0.05531089508488424
-0.00586954995544774 0.2659062615129598 0.10538970434620626
0.020346688781658583 0.2587891689035543 0.10759421193554647
0.1147285576209225 0.2568139901849874 -0.025149593711349894
0.08557574704734462 0.25696645886632286 0.07267083728268392
0.08918889120666164 0.2575604787561544 0.09175150597050435
0.09234799698440212 0.25428329617711387 0.11766018474056966
0.04882405952064174 0.2571310868951925 0.1160160204167629
0.11952941373435634 0.2515349260065206 0.10646455490544088
0.04935257390586513 0.2618777623865255 0.09440817439511068
0.10668827847091335 0.25543986470433555 0.09979840123608358
0.09869049743262905 0.2551333180162557 0.10877030098393209
0.07024504498092311 0.25706236273976646 0.1047286292310024
0.09008841470328945 0.2558495274278768 0.06835733854725606
0.09537272409049648 0.2566987148019918 0.07741453254177816
0.106279301200787 0.2631977072450765 0.00892724597409017
0.10535107806769985 0.2656016221735128 0.01968352997257955
0.06549589589683193 0.2576309314462789 0.08926423394634969
0.08465187505332607 0.26466058404179893 0.06381698453381307
0.09842257455436366 0.2663153877946981 0.041652252316024374
0.11676608279792446 0.26617287308904014 0.12079893553211934
0.023281412874142104 0.25722997100087486 0.11987947428181417
0.11823059872237819 0.1327009371015676 0.12204315268948324
0.10500179484931606 0.25767396599980674 0.08226563537075765
0.10419287041274684 0.2587811222765096 0.03338490927174337
0.10672919705955165 0.26231311471196495 -0.012879411340210367
0.10444166020003932 0.2661690583917745 0.02645479643299825
0.009184556756893569 0.25825624377461753 0.11507763469174154
0.09657682732192653 0.2653505078050741 0.04393454396679647
0.11061652258483547 0.2550042143556722 0.09723766648724325
0.09737678125945705 0.2577133050653585 0.08723481500103719
0.0763752336844601 0.25648986012669883 0.11852227652027852
0.10803233340827602 0.25883798510762535 0.005777110695388387
0.11876775578109401 0.2598190179559835 0.000491996645476888
0.06846960142699855 0.267985390732015 0.08145611488774068
0.04686628535834926 0.256435679504598 0.11012058460667379
0.09755392626372951 0.2575992813799032 0.09309210383847005
0.1212731476172604 0.24841045052739463 0.12014551961376913
-0.02426533147247655 0.2636881938669332 0.10471959912731893
0.10761185244170803 0.25884716422292076 -0.02171383297488444
0.10916061953155178 0.257608877727712 -0.030031720757934977
0.11628647402373928 0.2566583028528341 0.024883826612975668
0.10821332291213649 0.2529298535081991 0.11181916797116048
0.10759623602477687 0.2553942671510824 0.09889336430981405
0.12104220942107814 0.25780402333470664 0.057218809961822104
0.09062849238959926 0.264849769184316 0.05445363128140218
