ply
format ascii 1.0
element vertex 567
property float x
property float y
property float z
element face 0
property list uchar int vertex_indices
end_header
0.14194451526252405 -0.20292396633890786 0.14922319853260763
0.13971917584983484 -0.2163552173879496 0.12392579519703634
0.13800438002196924 -0.22012020437983193 0.14664365851834066
0.1444781000956692 -0.2412612268236033 0.13694711530163534
0.1331189747199215 -0.24896578281191506 0.1424323519463802
0.13346447304336206 -0.25066800205973305 0.14259110891773946
0.16053356484023706 -0.20168117969301858 0.13324188196614034
0.1284328575476803 -0.23064972250727334 0.16415299975826986
0.1512164349898495 -0.22485288768080391 0.1402268608804012
0.13468794778434412 -0.21445838897493996 0.13611563050701864
0.13762144998160974 -0.2434752115514628 0.15317766869023092
0.16141475990859644 -0.23192265420225777 0.13220589363529928
0.15606330588904993 -0.21591640799311318 0.13746120536282308
0.14863728240577356 -0.22319537191656746 0.1392757197613979
0.167071777139584 -0.2065801897552363 0.12492268288090475
0.14208211258498804 -0.22019508271483101 0.13028289878323324
0.13777531937209742 -0.22486094920900979 0.1524264117474819
0.1374597723826565 -0.22881191759375252 0.14554341638043172
0.12476395324317592 -0.24597218423155465 0.1434346040482784
0.16100372627822535 -0.21475651650694527 0.13267918431713827
0.128098833118359 -0.2289505430963389 0.14225401484921224
0.16578914478866236 -0.19985602586535134 0.1268085738415981
0.14283506826011316 -0.2511069902685038 0.1324937840695644
0.13970081761924402 -0.21665158658293404 0.12796216213658101
0.1382813032015957 -0.2041717001703135 0.15393011772587545
0.13461356118766443 -0.21285688667563119 0.15804495418026693
0.15358458713142054 -0.21108069806364693 0.13911624753430135
0.12432109073249477 -0.23881487338808693 0.14355226361706502
0.13698928311912195 -0.213133452227389 0.14344878995373495
0.12594197944251673 -0.20887788920668282 0.12374602758839376
0.12442694858161586 -0.30439124791887917 0.16772123181774862
0.1397446866377987 -0.19885892956522622 0.1527352234120632
0.13546143725959436 -0.24180151312616982 0.15697707736447103
0.13299460962859766 -0.216440496733462 0.14238186681225545
0.13589833930579798 -0.20004203706053414 0.15744235122158773
0.131629722867886 -0.22782684653071084 0.14202781522228963
0.14192982271758692 -0.2878748604562632 0.1345946689839626
0.14374675110427515 -0.22881506173876442 0.12366273009732015
0.1346596355780758 -0.2055713811424128 0.15831281745388753
0.12328203276244777 -0.2874277064111582 0.17670812213375814
0.15502642348853723 -0.19753612368372597 0.1387802263493801
0.13026808456031458 -0.23978967755106606 0.1625330647225643
0.16356118277160303 -0.28509671776560463 0.14022921526386983
0.12787316993323938 -0.2355878332164637 0.16466601693585164
0.1431495721682705 -0.19985189824370064 0.14603810512974508
0.16161014393417017 -0.25127981393603005 0.13002394640400655
0.1380126948699154 -0.24758507101801552 0.15240572893574483
0.13768174007980005 -0.21532577066687264 0.12382241094067342
0.1650248940333523 -0.2358428963926188 0.12781163060620077
0.15913076952544825 -0.248641384532725 0.13451366627171285
0.142951207910458 -0.2286060878541819 0.12790297472431905
0.14163811758605616 -0.3030678161886088 0.15894569957211263
0.12486665204612392 -0.2642101475503794 0.14762221777394063
0.13438679531661646 -0.24004408507612862 0.15820928418591268
0.142512815748135 -0.23933242051867165 0.12988855445339925
0.15728016451446192 -0.2273282387760035 0.13669951760723836
0.16679944351760523 -0.22004443197516121 0.1252081295247341
0.1487730915888943 -0.24246296077040352 0.13947327935650594
0.1482758100375332 -0.20831207721499123 0.1401694616074825
0.12258072451202053 -0.20281474082735695 0.12572975957348592
0.14382545903770105 -0.24881994514731087 0.12325759732678182
0.14413906887618677 -0.23842157213953652 0.13611118996098287
0.1529047961577572 -0.2377284446266047 0.1393096348042751
0.1446880574568905 -0.20457581966189065 0.1451665958161617
0.13845236853210108 -0.23739546327856698 0.15053196752026327
0.1410848374709286 -0.2088132628705851 0.14538084471180684
0.1633672292575039 -0.2073048332240931 0.12982847297146566
0.165265398775021 -0.20155146508482613 0.12747233116581685
0.16099263981429712 -0.20900326757696785 0.13272955024197347
0.14273418739883081 -0.2342385181691996 0.1325066288705135
0.12375103190986293 -0.29588390677241005 0.15206005179836996
0.12456856921760219 -0.2453367391136042 0.16718806827023275
0.1310697074278988 -0.21379957883623757 0.13093077146961934
0.1438239093169369 -0.2345039674547068 0.12319167458966024
0.13678659752456324 -0.23871157853869118 0.14340900385334737
0.13434134677497522 -0.24168850271967568 0.1425367792840267
0.16745837286559717 -0.24066507606772103 0.12435211741879232
0.12496646002380031 -0.22170497267512002 0.1668946346040035
0.16748966530410425 -0.22452585189608254 0.12413301074459798
0.1249342735156216 -0.21011030464438119 0.12634878361180074
0.12427349642364162 -0.21843364625242867 0.14273475611164815
0.13257341340629236 -0.22710802941588082 0.16040762269451864
0.13797261074630396 -0.21880203275946297 0.1516849895711208
0.15532665208427088 -0.19849723367956795 0.13850884640171773
0.13321282223312036 -0.2235804030206553 0.15965386235668905
0.13001223162261621 -0.19682651548651375 0.16282083594753988
0.16463853672591822 -0.2081811258104197 0.12823363149121053
0.128335284744183 -0.241937203100001 0.14210339391186483
0.16271926716415064 -0.2890994378831736 0.1411961516137386
0.13502763465491907 -0.23121888726023354 0.1575044294591213
0.1284481163367428 -0.2111725935247294 0.16422535979702718
0.15499900535194056 -0.24039013474253335 0.13806678855374105
0.1531690831526913 -0.22946792631415047 0.1390865942235256
0.13460703447906153 -0.22268233983782448 0.14278616511776693
0.14396988109199182 -0.21263891248968758 0.13977580273106344
0.14154120043365137 -0.21451623528269448 0.13404904806568868
0.12519552067367212 -0.19728843658236184 0.1671150525803829
0.13619382933227198 -0.2966474422719828 0.14106725656941183
0.14990307644454615 -0.2167378941085688 0.1396594246621395
0.12670465067474024 -0.22289719968107857 0.14303671324208028
0.13194300488082544 -0.21130478172568 0.1611311634774471
0.15926535681335108 -0.21253362088469185 0.13464661443188436
0.15380369380561487 -0.2200219461229197 0.13875170552685506
0.13230984166709558 -0.22522501437929787 0.160720666288879
0.1304983373030819 -0.24010447948244729 0.14164536201908834
0.1559885616645016 -0.23323352425364174 0.1374168595071102
0.15123738602248804 -0.22107727616099038 0.14024319255306966
0.15561975792495386 -0.20445902436045327 0.1382221480603481
0.1404631014212765 -0.213792232563769 0.13747679197743184
0.13599632934180872 -0.26832051365641274 0.14145149791195638
0.1533870275363125 -0.231622261693751 0.1389674147362972
0.12414933994857448 -0.23778152256277718 0.1675514777894283
0.12430326894370693 -0.2403173574712626 0.14354880654766805
0.13741855577079432 -0.26279224245814004 0.14429767930462606
0.1449985976561703 -0.20028586476114907 0.14478861296131856
0.15501307204810755 -0.2628638276365153 0.14562668406918294
0.16527934626189844 -0.21957449405459084 0.12740739190533407
0.13725544766036646 -0.21439859061506905 0.14370812976315267
0.1340567942008175 -0.23610766022471108 0.1586311658616329
0.1579455311640896 -0.2361410090234629 0.13596754276707418
0.14255537346450464 -0.2496433982160441 0.13123353326275594
0.14815892532912867 -0.2221845516469828 0.1390788158173824
0.15255065516082422 -0.24720909981993355 0.13933228456928975
0.1253220315322079 -0.2294157573488108 0.14325552189305074
0.14138217524139063 -0.21803813963202157 0.12668608629658468
0.13803129151908533 -0.2252595999744288 0.14691688620999105
0.12446312860099452 -0.20550292520788827 0.1678065260644222
0.1262406881198086 -0.2664238640573374 0.1477978726620937
0.1291270430430569 -0.23771907179621377 0.1635565956826473
0.17273499325362818 -0.28976298659113564 0.12894689047291524
0.15685121968833582 -0.2504580745008341 0.13684730732395894
0.12578140452949182 -0.24964986532000222 0.16425987088635213
0.13825990513412134 -0.23129631369379677 0.14736883842900045
0.13095121339408533 -0.21734376042154946 0.16195579373791463
0.14350624636260645 -0.23223292618063607 0.12495528662159688
0.15912600115386621 -0.23233039467600503 0.1347094675298
0.12800918773261682 -0.2596703895833842 0.14491014683201558
0.15066312507239954 -0.20062064914969124 0.1420659323926235
0.14631538346854822 -0.2051339873578898 0.144389381050613
0.1458266849860348 -0.23115639179018654 0.1382558544869686
0.13048978403655664 -0.23381097405222573 0.162357469439056
0.14581595614997522 -0.2349999973085276 0.13827525579884298
0.13423188284484522 -0.26510791270998635 0.16697015368893392
0.13843395069686548 -0.24944795458582558 0.15169387066319234
0.13131781176177637 -0.24112428515223183 0.16157259547665365
0.16491212204543726 -0.24806237011221566 0.12721120321705587
0.13473849252311365 -0.2007016220596186 0.1585347851510311
0.16531498983947412 -0.22215397446421303 0.12736191356137044
0.14243869737235682 -0.225885418942248 0.13129766786053426
0.1366931672438778 -0.25202938704756417 0.14354138576939351
0.1298412855014004 -0.2075521477964274 0.16302247846081502
0.1548809285506405 -0.25110569386747994 0.13831414782955892
0.1386085028990902 -0.24018181650904336 0.14769806468441732
0.1443594272479214 -0.28557623713282265 0.13203274214222677
0.15497909740058557 -0.299003077438151 0.14689259731724508
0.16695399836150782 -0.24946422665384926 0.12413074576809652
0.13731609538642542 -0.21229754178789773 0.15445448958828695
0.16772170618621485 -0.21719236462381997 0.12379225099041707
0.12442799166289943 -0.2042513617780558 0.1678302487130428
0.16202165440169947 -0.20137141435412087 0.13150506222203023
0.13802416876403467 -0.22386222868231453 0.1515259047742153
0.12535046294776575 -0.21266244142321267 0.13100608193829305
0.1299621041163601 -0.2436507770326487 0.14153929555371053
0.128965931688229 -0.26217748015192666 0.16830201947644002
0.15304853275863306 -0.23317979066637673 0.13916512334301717
0.14280168965903894 -0.19776800065306344 0.1425166925187374
0.12468450025169033 -0.23201159923342385 0.16711195313885457
0.13625125840751307 -0.2596265205648295 0.1620355447526241
0.15774192169753687 -0.2223347255494944 0.1362445851559902
0.1632628615245022 -0.23708091466692605 0.13003145658924825
0.16113712147323267 -0.24686413793829598 0.13194443786099203
0.13626890138236658 -0.21463936357763924 0.1345728536839748
0.14433790997115747 -0.23250329284933724 0.12252478802159078
0.1225263054713406 -0.2147394844797007 0.1368217667336727
0.12891246632186548 -0.21756607084540047 0.16375501954510457
0.1331817086085476 -0.23851455538538613 0.1422715684170986
0.1319191332205929 -0.24206261127260842 0.16098572814419515
0.15927805260268824 -0.2429520168807856 0.13458468520596273
0.13745947435943262 -0.21789572923449196 0.14519973599865682
0.16249008730498926 -0.2149298766162745 0.13093151652767904
0.1406244213923611 -0.2886814603116862 0.16334619128659017
0.13716422275153772 -0.23519345908430733 0.15462856495335348
0.14294235662070887 -0.2361851462629191 0.12775670492604024
0.16602261618224756 -0.23799070506361641 0.12657548987820394
0.1296986217841305 -0.22814185707834878 0.14167847239926107
0.1339429791316189 -0.2162556627300135 0.1588111122842098
0.1229048545703091 -0.21434187679556527 0.13594897592022664
0.1344545061930813 -0.25511584966448464 0.143623520969894
0.1368281121596493 -0.2195615002420298 0.1553940972085262
0.12481235221473354 -0.22060535638598122 0.16701396310284383
0.15068416551200525 -0.23032663553026833 0.14010392630055196
0.1338017459258236 -0.23893742053774514 0.1588871678109432
0.16793479279128687 -0.21419714181688942 0.12349097931339986
0.14041506007758753 -0.21219138591555275 0.14385657513096578
0.14779924110023157 -0.20445754914549508 0.1425871154065395
0.12683363512603418 -0.2370589801576487 0.16557087504818685
0.1374253805026211 -0.24562601535586037 0.14426072442486532
0.14659165099708216 -0.23403514712122597 0.13856055343106038
0.13835244134513514 -0.22992242663172402 0.15040679776623495
0.1319346602305569 -0.29243905632761635 0.17034228646710164
0.16626997545806543 -0.3047866353299967 0.12928618991329915
0.12275631979552883 -0.24260964780119576 0.14430396759464986
0.12800012782661097 -0.20161990611818947 0.16463430726483114
0.13217912868110315 -0.258741242578303 0.16447099053814657
0.13367344692794458 -0.24407429783610024 0.15895541512921102
0.16013254479018824 -0.22138637094763436 0.13361050689175374
0.14474948004333155 -0.26899407594469704 0.13188408815815694
0.14381112412063257 -0.2396030554082743 0.12312187755062826
0.12726827219573633 -0.2003945091274134 0.16526999080136068
0.12825565293876307 -0.211740327766215 0.12669770920231588
0.12542100504485743 -0.21859097271231331 0.1422517200703884
0.15805425003615992 -0.2282900193240992 0.13588931167080648
0.1289671535834469 -0.2140802124050013 0.16373672091915853
0.1250609333857693 -0.22311839251784005 0.1668178638215328
0.14237056926337854 -0.30323113291529336 0.13844661915257223
0.1666483457430996 -0.20510834245947518 0.12554686272099264
0.16598727062789576 -0.22447964339522042 0.12647961580708272
0.13752793029395716 -0.20830304711130776 0.15409391128971822
0.1276006276950039 -0.2923593053129069 0.1482326289410854
0.1434053356990017 -0.24470548122194924 0.1252524455781246
0.12253101423827785 -0.20031428127554574 0.1694067319627071
0.13789655521957056 -0.2151229211595408 0.14482795202687032
0.12593387321082727 -0.23911829083231606 0.16627719008877523
0.13017921403495447 -0.22685541003016152 0.1417159637208248
0.1559747631892361 -0.23750881641176858 0.13743000233128316
0.1237871821269192 -0.250436154892718 0.16765632235958822
0.14628593877402918 -0.2658637294080607 0.15600719058468587
0.16198291138259546 -0.22944877832201638 0.13157181942417867
0.15057899311629908 -0.2486861923244349 0.13960625731899984
0.1259846861704983 -0.24950055568483986 0.16391440236523397
0.15192409113494532 -0.24249042361048379 0.14004846417858846
0.1435024912699856 -0.22904163389471688 0.13435017073109395
0.13850642994491236 -0.2495651075151316 0.15151270234539754
0.1252266044959225 -0.19741719751623787 0.12537293636753805
0.13411267355529444 -0.24490968673494973 0.15842982137158163
0.16195000961867945 -0.2240001091268412 0.13160120451405294
0.12351076558677333 -0.21570072858599343 0.16810317838146932
0.13706033185569422 -0.2413788863923899 0.14373676979496725
0.14949052289573328 -0.22500861971644082 0.13961951935246236
0.1328605885848202 -0.21453110664156594 0.16009612882092245
0.12905495122520105 -0.22850465564993538 0.16360761725857503
0.14390464380828516 -0.25081136613157906 0.1352544327969814
0.13431833938209192 -0.2262548187282435 0.15834542119457967
0.16407825306502954 -0.2869087585714213 0.1397054394479061
0.12283502772895473 -0.20631654351023354 0.169174035429504
0.13185958818046228 -0.21807423024443306 0.16114993894055135
0.16675605133620874 -0.2360802420881144 0.12538557255223043
0.14245413497535364 -0.22659393935469307 0.13074432814076192
0.14230205372420923 -0.23523120372561135 0.13146435224964864
0.138557213102261 -0.21450465708044686 0.14824568235829122
0.16552497700301783 -0.24723648815420785 0.1264888545270229
0.16004260138122217 -0.2383102157619349 0.1337176760430599
0.14215155199615137 -0.28944419114855446 0.1620677908654476
0.12331240132896083 -0.24311424582270302 0.16830249631359823
0.13903136805144922 -0.2112982699182383 0.148818274378326
0.14315302923766748 -0.22694961517122902 0.13343932235195882
0.13739817098228113 -0.24413116066721596 0.14432307088330038
0.13854854062644617 -0.22027101903227486 0.1496141453976894
0.14460225657073633 -0.23188470094469704 0.1370956500764156
0.14355902627555506 -0.2342700192239634 0.12459715211346395
0.13144009069053308 -0.21300494461325326 0.12622200453236349
0.15260209396926538 -0.24554663687018075 0.1394193669553066
0.1322138781890072 -0.2452534416225306 0.14208226406529195
0.13712863877860682 -0.22905064909723916 0.14476641023113973
0.13708572343436853 -0.1989180424716822 0.1562086244817043
0.12248297289458888 -0.30174334137705483 0.17441906535580404
0.15548558786956446 -0.29642809717920937 0.1479492684598232
0.1406939204081692 -0.2157029488590113 0.13099881017163045
0.13514642671195642 -0.19812951772478737 0.1581859787698055
0.1421561117514767 -0.21897254674700417 0.1263520618672634
0.1284110720500149 -0.224391055991923 0.16416843736126668
0.12353016689864772 -0.23091779439715066 0.14389800035908468
0.16617883995620386 -0.29502917616633095 0.13703717791989095
0.15079660967437403 -0.24509255378512063 0.1399936279053951
0.16443719223586695 -0.21269660978583016 0.12848021590664632
0.16843815401641504 -0.2079684415366999 0.12288509809925802
0.1224705751284756 -0.2535268494394175 0.168044885038879
0.15846492603866236 -0.2045294323470942 0.1356662114854122
0.1312053675994076 -0.2486614861991755 0.1610657771821285
0.1393906350478329 -0.20920872478750863 0.15053897106602437
0.14592607573119776 -0.2431859800126902 0.13851632678463704
0.14166470125762598 -0.20836411206988015 0.14552186930134542
0.1454195256575741 -0.2181685992982737 0.1383422812218929
0.12939812496749536 -0.24426011531618752 0.16313328349545247
0.14352371052352564 -0.2433337697294108 0.1245924135442043
0.14223508790580408 -0.21521438448694863 0.13338400924160726
0.13326026753036158 -0.22353474586275734 0.15959771478131063
0.13591106489745752 -0.20759559958246865 0.1569524308438564
0.14401604488937036 -0.2364081570413462 0.13575186335995443
0.14225615814773218 -0.21852576523092904 0.12455131614163167
0.14357196048347132 -0.22040481655863442 0.12438567483380086
0.13596330836860315 -0.21417085616854348 0.13916896784260518
0.12544368461219446 -0.21327073662546792 0.16670515143826253
0.15818734720794336 -0.21853211312559762 0.13579328858807332
0.1317025895461239 -0.21470577805308022 0.1383071740861202
0.12970699623672144 -0.2172797003295771 0.14104448759510763
0.14140473559943811 -0.2046774306800715 0.14814626181080587
0.15913202122298853 -0.20305529027250924 0.1348817249532009
0.13497688129989283 -0.2538759240415446 0.15988757216885335
0.13433422401992456 -0.20926533429888405 0.15857710444882162
0.14761479452697412 -0.2519109377172343 0.1391377052064205
0.12513773397056238 -0.20116314082411446 0.1671823462243343
0.12269522503463405 -0.19706928520468392 0.13156681263401754
0.1319981093749203 -0.22764400928286233 0.14211006963207967
0.16500129059402124 -0.2287410327699534 0.12777512276127584
0.14264674738494532 -0.24028624384668984 0.12914132082417257
0.14951505020705835 -0.198871595552241 0.14176790916874654
0.1390420968875088 -0.21355232386854806 0.1496166189904476
0.12454976395217555 -0.23505891649988808 0.16722311580136068
0.14421864107696192 -0.21955396025446572 0.1355155607457424
0.16637845591155664 -0.2437849619891993 0.12569769227459676
0.1275759215697445 -0.22512718825606026 0.14257155859425313
0.12518380836097376 -0.22186447470453896 0.16673602664425619
0.16416760042754786 -0.22955401032236733 0.12882631027653463
0.14135833338348047 -0.21730398922232308 0.13030587637379415
0.12278916195480007 -0.24258829443720498 0.14428075158550985
0.1451668913706936 -0.2179065623786799 0.13834877812817342
0.1293524976119198 -0.24704369693068184 0.1419503887887264
0.12714998677817957 -0.2101856002118937 0.1653859218354488
0.14335583404151575 -0.2230240383651606 0.13296495878651388
0.15437467650024073 -0.21479210047987618 0.13852729403927572
0.167795437131802 -0.23313002078798928 0.12370701634838827
0.1558155889853634 -0.20657898276117959 0.13797422254040487
0.13616086796371119 -0.2472796866205088 0.15661834680989034
0.13813592747298853 -0.2428430595901362 0.1518920859093929
0.13263480619041101 -0.2346890547778956 0.14221735799267538
0.13475780442802088 -0.2333910295274607 0.15782697999432332
0.1589293654307522 -0.21118958084849038 0.1350592573876644
0.16573418930617945 -0.23312984197405495 0.1268868049378658
0.14141308024970667 -0.27839030115870156 0.1622358759637142
0.12643511847106592 -0.21268601506022133 0.13019706809475667
0.1384787435874142 -0.24991793720987954 0.1476239761109615
0.13439850762931482 -0.21399709372786202 0.12635149562313802
0.13822184756843225 -0.21264701872137703 0.14406635367825277
0.16233779743758814 -0.2019296118524424 0.13111337029888875
0.15814240530578272 -0.2421493956354014 0.13580348098232992
0.12336705878821987 -0.23135648458269753 0.16805799806072957
0.16175528124419825 -0.21358962147501626 0.131834050058868
0.1475090260848202 -0.23847810714510598 0.1390218933816219
0.12760196879951136 -0.2453156688716761 0.1646753152604366
0.14654831842033045 -0.2067726829555384 0.14222606027081258
0.1565264935835995 -0.22518345504072823 0.13713942968800313
0.1444303865775265 -0.24412341206339516 0.13678391778424032
0.13206340626327173 -0.24505318491724648 0.14203887188389547
0.1327116365775265 -0.2067804315593592 0.16037031018688924
0.1377121682509579 -0.23452864377764382 0.15272571647122152
0.12241818264571803 -0.291257453849589 0.15278988087132223
0.1402639623030819 -0.2137377241161219 0.1383577784295345
0.13342230275718348 -0.21335729747084298 0.12358595931484945
0.15368698791114466 -0.20584817021158852 0.13969268405392415
0.12496687725631374 -0.2246306070592753 0.1668800910706783
0.12401114657966274 -0.24675513594416298 0.14371635520413167
0.16532297686187403 -0.21272553293970742 0.12736405932858236
0.1257965143069424 -0.19876441149977364 0.12435026967480428
0.1646306093081631 -0.2465945014264933 0.12774827086880453
0.14230798438636438 -0.2281912395265452 0.13129018747761495
0.14946885660735743 -0.2087137380149714 0.1398800214524532
0.13194854811278955 -0.19691274850634255 0.12443034851506002
0.12833608940688745 -0.24943934171465554 0.1623935302491451
0.16030545786468164 -0.24700681655672707 0.13289095962002523
0.16510488346664087 -0.2419911751058451 0.12760489189579732
0.14734806374160425 -0.23095477907923379 0.13883801305248983
0.1516814406260647 -0.19988657324579873 0.14134867989971883
0.12826000407783167 -0.2147845753934733 0.1359727879758144
0.13762392357436792 -0.2203167357948176 0.152958055376556
0.13547168925849573 -0.23900708346632638 0.14281727874233968
0.13232733563033716 -0.22322422056463875 0.14235862100079305
0.13050671175567286 -0.2554054090288035 0.16162170970394857
0.14194451526252405 -0.20292396633890786 0.14922319853260763
0.13971917584983484 -0.2163552173879496 0.12392579519703634
0.13800438002196924 -0.22012020437983193 0.14664365851834066
0.1444781000956692 -0.2412612268236033 0.13694711530163534
0.1331189747199215 -0.24896578281191506 0.1424323519463802
0.13346447304336206 -0.25066800205973305 0.14259110891773946
0.16053356484023706 -0.20168117969301858 0.13324188196614034
0.1284328575476803 -0.23064972250727334 0.16415299975826986
0.1512164349898495 -0.22485288768080391 0.1402268608804012
0.13468794778434412 -0.21445838897493996 0.13611563050701864
0.13762144998160974 -0.2434752115514628 0.15317766869023092
0.1264182205542721 -0.2957592734601847 0.17334755265667684
0.16141475990859644 -0.23192265420225777 0.13220589363529928
0.15606330588904993 -0.21591640799311318 0.13746120536282308
0.14863728240577356 -0.22319537191656746 0.1392757197613979
0.167071777139584 -0.2065801897552363 0.12492268288090475
0.14208211258498804 -0.22019508271483101 0.13028289878323324
0.13777531937209742 -0.22486094920900979 0.1524264117474819
0.1374597723826565 -0.22881191759375252 0.14554341638043172
0.12476395324317592 -0.24597218423155465 0.1434346040482784
0.16100372627822535 -0.21475651650694527 0.13267918431713827
0.128098833118359 -0.2289505430963389 0.14225401484921224
0.16578914478866236 -0.19985602586535134 0.1268085738415981
0.14283506826011316 -0.2511069902685038 0.1324937840695644
0.13970081761924402 -0.21665158658293404 0.12796216213658101
0.1382813032015957 -0.2041717001703135 0.15393011772587545
0.13461356118766443 -0.21285688667563119 0.15804495418026693
0.15358458713142054 -0.21108069806364693 0.13911624753430135
0.12432109073249477 -0.23881487338808693 0.14355226361706502
0.13698928311912195 -0.213133452227389 0.14344878995373495
0.12594197944251673 -0.20887788920668282 0.12374602758839376
0.1397446866377987 -0.19885892956522622 0.1527352234120632
0.13474314168540613 -0.30549190728930153 0.15067317092373617
0.13546143725959436 -0.24180151312616982 0.15697707736447103
0.13299460962859766 -0.216440496733462 0.14238186681225545
0.13589833930579798 -0.20004203706053414 0.15744235122158773
0.131629722867886 -0.22782684653071084 0.14202781522228963
0.14374675110427515 -0.22881506173876442 0.12366273009732015
0.1346596355780758 -0.2055713811424128 0.15831281745388753
0.15502642348853723 -0.19753612368372597 0.1387802263493801
0.13026808456031458 -0.23978967755106606 0.1625330647225643
0.16093559816924707 -0.25849847286013283 0.12280200922444112
0.12787316993323938 -0.2355878332164637 0.16466601693585164
0.1431495721682705 -0.19985189824370064 0.14603810512974508
0.16161014393417017 -0.25127981393603005 0.13002394640400655
0.1380126948699154 -0.24758507101801552 0.15240572893574483
0.13768174007980005 -0.21532577066687264 0.12382241094067342
0.1650248940333523 -0.2358428963926188 0.12781163060620077
0.15913076952544825 -0.248641384532725 0.13451366627171285
0.12666966274825708 -0.2964560815599314 0.1723543604607845
0.142951207910458 -0.2286060878541819 0.12790297472431905
0.13438679531661646 -0.24004408507612862 0.15820928418591268
0.142512815748135 -0.23933242051867165 0.12988855445339925
0.1507654066428341 -0.286456508329188 0.15354352199986226
0.15728016451446192 -0.2273282387760035 0.13669951760723836
0.16679944351760523 -0.22004443197516121 0.1252081295247341
0.1487730915888943 -0.24246296077040352 0.13947327935650594
0.13790439323035852 -0.2988563904073588 0.1402922769780422
0.1482758100375332 -0.20831207721499123 0.1401694616074825
0.12258072451202053 -0.20281474082735695 0.12572975957348592
0.14382545903770105 -0.24881994514731087 0.12325759732678182
0.14413906887618677 -0.23842157213953652 0.13611118996098287
0.1529047961577572 -0.2377284446266047 0.1393096348042751
0.1446880574568905 -0.20457581966189065 0.1451665958161617
0.13845236853210108 -0.23739546327856698 0.15053196752026327
0.1410848374709286 -0.2088132628705851 0.14538084471180684
0.1633672292575039 -0.2073048332240931 0.12982847297146566
0.165265398775021 -0.20155146508482613 0.12747233116581685
0.16099263981429712 -0.20900326757696785 0.13272955024197347
0.14273418739883081 -0.2342385181691996 0.1325066288705135
0.12456856921760219 -0.2453367391136042 0.16718806827023275
0.1310697074278988 -0.21379957883623757 0.13093077146961934
0.1438239093169369 -0.2345039674547068 0.12319167458966024
0.13678659752456324 -0.23871157853869118 0.14340900385334737
0.1627888853892483 -0.252467764308726 0.12645490968182332
0.13434134677497522 -0.24168850271967568 0.1425367792840267
0.16745837286559717 -0.24066507606772103 0.12435211741879232
0.15570701912490503 -0.27840102999476113 0.14805235469296224
0.12496646002380031 -0.22170497267512002 0.1668946346040035
0.16748966530410425 -0.22452585189608254 0.12413301074459798
0.1249342735156216 -0.21011030464438119 0.12634878361180074
0.12427349642364162 -0.21843364625242867 0.14273475611164815
0.13257341340629236 -0.22710802941588082 0.16040762269451864
0.13797261074630396 -0.21880203275946297 0.1516849895711208
0.1327091927870907 -0.2832137176301829 0.14371841156437642
0.15532665208427088 -0.19849723367956795 0.13850884640171773
0.13321282223312036 -0.2235804030206553 0.15965386235668905
0.13001223162261621 -0.19682651548651375 0.16282083594753988
0.16463853672591822 -0.2081811258104197 0.12823363149121053
0.128335284744183 -0.241937203100001 0.14210339391186483
0.13502763465491907 -0.23121888726023354 0.1575044294591213
0.1284481163367428 -0.2111725935247294 0.16422535979702718
0.15499900535194056 -0.24039013474253335 0.13806678855374105
0.1531690831526913 -0.22946792631415047 0.1390865942235256
0.13460703447906153 -0.22268233983782448 0.14278616511776693
0.14396988109199182 -0.21263891248968758 0.13977580273106344
0.14154120043365137 -0.21451623528269448 0.13404904806568868
0.12519552067367212 -0.19728843658236184 0.1671150525803829
0.1386085327014126 -0.2534393498208872 0.14656596386387594
0.14990307644454615 -0.2167378941085688 0.1396594246621395
0.12670465067474024 -0.22289719968107857 0.14303671324208028
0.13194300488082544 -0.21130478172568 0.1611311634774471
0.15926535681335108 -0.21253362088469185 0.13464661443188436
0.15380369380561487 -0.2200219461229197 0.13875170552685506
0.13230984166709558 -0.22522501437929787 0.160720666288879
0.1304983373030819 -0.24010447948244729 0.14164536201908834
0.1559885616645016 -0.23323352425364174 0.1374168595071102
0.1550979490622677 -0.3063809403684489 0.13085838162853963
0.13862772539703028 -0.29022489278582253 0.138187011122253
0.15123738602248804 -0.22107727616099038 0.14024319255306966
0.15561975792495386 -0.20445902436045327 0.1382221480603481
0.1404631014212765 -0.213792232563769 0.13747679197743184
0.1533870275363125 -0.231622261693751 0.1389674147362972
0.12414933994857448 -0.23778152256277718 0.1675514777894283
0.16441376761047022 -0.25944421975878396 0.12917943799450643
0.12430326894370693 -0.2403173574712626 0.14354880654766805
0.1707403834208645 -0.27520103543070473 0.13132377469494588
0.14984734610168116 -0.27420170395640053 0.12570111954167135
0.1449985976561703 -0.20028586476114907 0.14478861296131856
0.14363052204696314 -0.2696382531431071 0.133528043865707
0.16527934626189844 -0.21957449405459084 0.12740739190533407
0.13725544766036646 -0.21439859061506905 0.14370812976315267
0.1340567942008175 -0.23610766022471108 0.1586311658616329
0.1579455311640896 -0.2361410090234629 0.13596754276707418
0.14255537346450464 -0.2496433982160441 0.13123353326275594
0.14815892532912867 -0.2221845516469828 0.1390788158173824
0.15255065516082422 -0.24720909981993355 0.13933228456928975
0.1253220315322079 -0.2294157573488108 0.14325552189305074
0.14138217524139063 -0.21803813963202157 0.12668608629658468
0.13803129151908533 -0.2252595999744288 0.14691688620999105
0.12446312860099452 -0.20550292520788827 0.1678065260644222
0.1291270430430569 -0.23771907179621377 0.1635565956826473
0.15685121968833582 -0.2504580745008341 0.13684730732395894
0.12578140452949182 -0.24964986532000222 0.16425987088635213
0.13825990513412134 -0.23129631369379677 0.14736883842900045
0.13095121339408533 -0.21734376042154946 0.16195579373791463
0.14350624636260645 -0.23223292618063607 0.12495528662159688
0.15912600115386621 -0.23233039467600503 0.1347094675298
0.15066312507239954 -0.20062064914969124 0.1420659323926235
0.14631538346854822 -0.2051339873578898 0.144389381050613
0.1458266849860348 -0.23115639179018654 0.1382558544869686
0.13048978403655664 -0.23381097405222573 0.162357469439056
0.14581595614997522 -0.2349999973085276 0.13827525579884298
0.13843395069686548 -0.24944795458582558 0.15169387066319234
0.15928574160186426 -0.2953252324369303 0.14486088359310872
0.13131781176177637 -0.24112428515223183 0.16157259547665365
0.16491212204543726 -0.24806237011221566 0.12721120321705587
0.13473849252311365 -0.2007016220596186 0.1585347851510311
0.16531498983947412 -0.22215397446421303 0.12736191356137044
0.14243869737235682 -0.225885418942248 0.13129766786053426
0.1366931672438778 -0.25202938704756417 0.14354138576939351
0.14722995713798182 -0.30580766289499917 0.1498806079621578
0.1298412855014004 -0.2075521477964274 0.16302247846081502
0.1548809285506405 -0.25110569386747994 0.13831414782955892
0.1386085028990902 -0.24018181650904336 0.14769806468441732
0.16695399836150782 -0.24946422665384926 0.12413074576809652
0.13731609538642542 -0.21229754178789773 0.15445448958828695
0.13091515258399622 -0.2915578016546122 0.17116942012264974
0.16772170618621485 -0.21719236462381997 0.12379225099041707
0.12442799166289943 -0.2042513617780558 0.1678302487130428
0.16202165440169947 -0.20137141435412087 0.13150506222203023
0.12294422343818324 -0.25389872281817116 0.1656962236161495
0.13802416876403467 -0.22386222868231453 0.1515259047742153
0.1512447769984402 -0.2746803292539469 0.12416534626438863
0.12535046294776575 -0.21266244142321267 0.13100608193829305
0.1299621041163601 -0.2436507770326487 0.14153929555371053
0.128965931688229 -0.26217748015192666 0.16830201947644002
0.15304853275863306 -0.23317979066637673 0.13916512334301717
0.14280168965903894 -0.19776800065306344 0.1425166925187374
0.12468450025169033 -0.23201159923342385 0.16711195313885457
0.15774192169753687 -0.2223347255494944 0.1362445851559902
0.1632628615245022 -0.23708091466692605 0.13003145658924825
0.16113712147323267 -0.24686413793829598 0.13194443786099203
0.13626890138236658 -0.21463936357763924 0.1345728536839748
0.1310104008063473 -0.3072710165288798 0.16142102086498983
0.14433790997115747 -0.23250329284933724 0.12252478802159078
0.1225263054713406 -0.2147394844797007 0.1368217667336727
0.12891246632186548 -0.21756607084540047 0.16375501954510457
0.1331817086085476 -0.23851455538538613 0.1422715684170986
0.1319191332205929 -0.24206261127260842 0.16098572814419515
0.12693466499892847 -0.28657121746805825 0.17388709390118368
0.15927805260268824 -0.2429520168807856 0.13458468520596273
0.13745947435943262 -0.21789572923449196 0.14519973599865682
0.16249008730498926 -0.2149298766162745 0.13093151652767904
0.13716422275153772 -0.23519345908430733 0.15462856495335348
0.14294235662070887 -0.2361851462629191 0.12775670492604024
0.16602261618224756 -0.23799070506361641 0.12657548987820394
0.13123063996879236 -0.27270363061693825 0.1450648506875301
0.1296986217841305 -0.22814185707834878 0.14167847239926107
0.1339429791316189 -0.2162556627300135 0.1588111122842098
0.1229048545703091 -0.21434187679556527 0.13594897592022664
0.1368281121596493 -0.2195615002420298 0.1553940972085262
0.12481235221473354 -0.22060535638598122 0.16701396310284383
0.15068416551200525 -0.23032663553026833 0.14010392630055196
0.1338017459258236 -0.23893742053774514 0.1588871678109432
0.16793479279128687 -0.21419714181688942 0.12349097931339986
0.14041506007758753 -0.21219138591555275 0.14385657513096578
0.14779924110023157 -0.20445754914549508 0.1425871154065395
0.12683363512603418 -0.2370589801576487 0.16557087504818685
