ply
format ascii 1.0
element vertex 141
property float x
property float y
property float z
element face 0
property list uchar int vertex_indices
end_header
0.11277880028335231 0.04741527349683128 0.11902891600086934
0.10997890189735073 0.018493758747304297 0.1188391348119045
0.11291219547835964 0.04102544696065269 0.11830197775318868
0.12023081139175075 0.029812829801762915 0.10986705625012166
0.1045245404585995 -0.0239157506730906 0.11983503901913412
0.11821510151473659 0.06532310158940635 0.11551763617947347
0.11588405326453823 0.0702752938959249 0.11823760473683126
0.11486242965308803 0.09941615373822532 0.12201558554127462
0.11984880522338527 0.09558512479993186 0.11686961853459127
0.11753390983192104 0.07552342326375328 0.11721142137005575
0.12183885530082363 0.052187549183095316 0.11040263378575094
0.11760370687095302 0.08077241689893089 0.1176707645650173
0.11704154566375392 0.10457201511594139 0.1204761763806606
0.11360593393890041 0.003660993883336402 0.11402045690968282
0.11231650665847438 0.0713981559965261 0.12169679009869344
0.11712380007354396 0.09505705744954429 0.1195018192525173
0.11797265962211269 0.0043636134359487065 0.10980402433827169
0.11533282950965541 0.011731581995213843 0.11313547694638021
0.11376007155028957 0.08827673108311973 0.12196045124485738
0.11666865900603908 -0.004539651563440942 0.11021884286358602
0.11116953447906154 0.05303763062688194 0.1210124393697048
0.11850001171676296 0.026000218698705054 0.11136289441540487
0.10707803324309963 -0.006306959083353662 0.11924465501263387
0.11215605095473903 0.062244551489079813 0.12105788791134603
0.1163198526248135 0.06261129886838279 0.11722206079914815
0.11733772114364284 0.01979939849110923 0.11191855871632345
0.11541275933829921 -0.0031809636857859126 0.11161526048138387
0.1135761614188351 0.08173300535413108 0.12147172296002157
0.12174238518325466 -0.03459392278460183 0.10136874520733602
0.114580082450787 0.015849339077199317 0.1143080195184017
0.11430491760818141 0.019337432691777564 0.11492403352215536
0.1095938558921017 0.04219676763745628 0.12142397963955648
0.1103928859576382 0.06048320443364463 0.12249245250180013
0.1120042677268185 -0.004378570010935449 0.11483012640431173
0.12090511873809474 0.03923754603597007 0.11009859049275167
0.11767260984031337 -0.02376381843355813 0.10716702544644124
0.1212389643534817 0.070191281149114 0.11283909285023458
0.1133036787852444 0.0645392111036428 0.12016360962345846
0.11268641308395046 0.030243950197423316 0.11746232712223775
0.11860515431014675 0.011499660322392798 0.10978164279415853
0.1196457620009579 0.11080898554059349 0.11858730518772848
0.11940939978210109 0.0595478883478292 0.11380668485119588
0.1108988399848141 0.05160273821088157 0.12112786376431234
0.12009389952270168 0.05304913432332359 0.11240657174542196
0.12213860705939907 0.09230806143018089 0.11419092619374044
0.11677976206390041 0.0060195794794209966 0.11113153898670919
0.12223939851371425 0.10475008399220787 0.11535321676686056
0.11369820192901271 0.0491503647062429 0.11832534277394063
0.12002171829787868 0.050573753425801615 0.11223800980999715
0.12125538543311733 0.10654814750882469 0.11653088533833272
0.11695908263770717 0.11275361687871299 0.1213326057191158
0.11790721372214931 0.10731543810101829 0.11993517482235677
0.11941935375777858 0.07514526159497581 0.11523063981487996
0.1197133536681332 0.10227503092023216 0.11767419183209188
0.11667026833144802 0.07721139700146995 0.11819260323002584
0.11842985704986232 0.03420396358701072 0.1122577389474178
0.11998237923232692 0.029243486234868384 0.11008410656407125
0.11867578581420558 0.02235071570607505 0.11079682910397298
0.11611716703025478 0.0880287757608541 0.11975722515537984
0.11852421120254177 -0.0018709430005899898 0.1085576316113735
0.11687849715797084 -0.03692783205774941 0.10664885246708639
0.11434389904586452 0.035211013862813334 0.11643679940655477
0.12162800386993068 0.06536452681752525 0.11202477419331319
0.12169696644393581 0.10234846384259544 0.11566518747761495
0.11511285856811183 0.09350846917363487 0.12122066819622762
0.11905108646003383 0.08401544601651512 0.11651750409558065
0.12044506028739589 0.03417243272992454 0.11007358634426839
0.11635051921455043 0.043669926235402445 0.11530508601620443
0.1131937380179562 0.062230067560399394 0.1200712224240566
0.11845521882621425 0.07396684796544395 0.11609994375660665
0.11976851776687282 0.09266950399609886 0.11666082346394308
0.10651265338508266 -0.01911623566416421 0.11847042047932393
0.11079599217025417 -0.004843575647150659 0.11596312129452474
0.11099802211372035 0.032239811727727274 0.11921801173641927
0.1135122354373135 0.07503672153683982 0.1209165056939388
0.11479126170722621 0.027672993252004004 0.11524828278973348
0.11579729870406764 0.0888118317815908 0.12012841308071859
0.11530752733794826 0.07143940241071067 0.11889924609616048
0.10942171767799037 0.011849748203481055 0.11867593729450948
0.10351364568320888 -0.036556912353312154 0.11955382430508382
0.1182468111857571 0.08977462560864768 0.11792134249165304
0.11023874834624904 0.047620551893437724 0.12138619029476888
0.11873378113357204 0.08331947238179527 0.11676987016155965
0.11001225069610256 0.025421785423482276 0.11947773897602804
0.118733393703381 0.055091785499776225 0.11404131853535421
0.11968754485694545 0.09449739963742576 0.1169257363076473
0.1075261707648434 0.03187339217397056 0.1223629614110256
0.11568610623923915 0.014656232902730323 0.11306746804669149
0.11572103456107753 0.07898284704419456 0.11923499906018026
0.11201663569060939 0.060075896093572 0.1209400197263027
0.11413894847480434 0.06657804758282981 0.11954699957325704
0.12011389688102382 -0.02175728767183938 0.10468523704960592
0.11861031011191982 0.0856806209776052 0.11713953816845663
0.11560081199256557 0.0566903820726522 0.11732765042736776
0.1213528092250027 0.046520220348561625 0.11035807931378133
0.11517898992149013 0.04615299613210044 0.11667062842800863
0.10447557524291652 -0.004751218250071191 0.12167840206578023
0.11869119361488002 0.06612329394551597 0.11509694659664876
0.1203309471949734 0.027399765560353614 0.1095043917889858
0.11552463725654262 0.052162604639256815 0.11691178882076986
0.11231003955451625 0.04035483510228477 0.11879899108364828
0.11762525395003932 0.007217036792958594 0.11041714751675374
0.11703653887359279 0.094276415416921 0.11950870358898885
0.10827537134734767 -0.009827209403788232 0.11787950003102071
0.11744623139945644 0.10753835947247825 0.12038444483235128
0.11877273276893276 0.011116462061131812 0.10955994331791646
0.11291219547835964 0.04102544696065269 0.11830197775318868
0.11407344297019618 -0.011006248882090234 0.11218961083843954
0.11821510151473659 0.06532310158940635 0.11551763617947347
0.11588405326453823 0.0702752938959249 0.11823760473683126
0.12166770056335109 0.020966904470647193 0.1073550781007076
0.11039801195708888 0.026063071796620704 0.11918335163548238
0.11486242965308803 0.09941615373822532 0.12201558554127462
0.11984880522338527 0.09558512479993186 0.11686961853459127
0.11753390983192104 0.07552342326375328 0.11721142137005575
0.12183885530082363 0.052187549183095316 0.11040263378575094
0.11760370687095302 0.08077241689893089 0.1176707645650173
0.11704154566375392 0.10457201511594139 0.1204761763806606
0.11231650665847438 0.0713981559965261 0.12169679009869344
0.11712380007354396 0.09505705744954429 0.1195018192525173
0.12165262058822292 0.0434668234083303 0.10971980297520406
0.10818387821761745 0.021208839723790503 0.12075843417599447
0.11533282950965541 0.011731581995213843 0.11313547694638021
0.11376007155028957 0.08827673108311973 0.12196045124485738
0.11850001171676296 0.026000218698705054 0.11136289441540487
0.11215605095473903 0.062244551489079813 0.12105788791134603
0.1163198526248135 0.06261129886838279 0.11722206079914815
0.11733772114364284 0.01979939849110923 0.11191855871632345
0.1135761614188351 0.08173300535413108 0.12147172296002157
0.11430491760818141 0.019337432691777564 0.11492403352215536
0.1095938558921017 0.04219676763745628 0.12142397963955648
0.1103928859576382 0.06048320443364463 0.12249245250180013
0.1212389643534817 0.070191281149114 0.11283909285023458
0.1133036787852444 0.0645392111036428 0.12016360962345846
0.11982803300468105 0.01465471298428855 0.1087310215230251
0.11730797842589992 0.03675116808148704 0.11365201079800374
0.1196457620009579 0.11080898554059349 0.11858730518772848
0.11940939978210109 0.0595478883478292 0.11380668485119588
0.1038664753779568 -0.01608706801203408 0.12110578024342306
0.1108988399848141 0.05160273821088157 0.12112786376431234
0.12009389952270168 0.05304913432332359 0.11240657174542196
