ply
format ascii 1.0
element vertex 761
property float x
property float y
property float z
element face 0
property list uchar int vertex_indices
end_header
0.16563846424667017 0.10814692289563499 0.12638585770085103
0.13013740137664453 0.03455765754910789 0.16308494412853963
0.12706364945022242 0.10957141430112205 0.13562106096699483
0.1439745600566067 0.08806957514020286 0.1354561945195461
0.12429274872390407 0.0515803864690908 0.1437296172375942
0.15959741428939478 0.10278721363278709 0.1332308551068569
0.14428682879058496 0.09579591662618003 0.12264769279911764
0.1454040582522549 0.11208160431119285 0.13795199000790365
0.12298612550346034 0.06997986347409568 0.16830148303463704
0.16563590124694483 0.044171409914220194 0.1269194980855251
0.1288426990851559 0.03858415991994224 0.16415836417629964
0.1473370368823208 0.06706755072804771 0.13854803645565755
0.14365031078902857 0.0800978413316854 0.12446548545315511
0.16094972447005884 0.09352587372990928 0.131933828234222
0.14326446012107508 0.08776821405621849 0.12644894921734579
0.13225089267341272 0.06076412112447105 0.1424200435872341
0.14763890460578577 0.07579411775800071 0.13866107666447408
0.13173569992629663 0.036724584409917216 0.16162570321514852
0.16158230856506006 0.09028111607762657 0.13137428963139303
0.13706048086730616 0.04037653119298301 0.14488207304432638
0.12718008712379114 -0.028506619622980737 0.14285664761021383
0.14524860933868067 0.04932315857144676 0.13776578509762533
0.14320849135963098 0.05091919214459739 0.13355841243222005
0.14308284476844446 0.05852465541097007 0.1273823877568508
0.1494972880229153 0.042198108741963725 0.1393568714852596
0.13126449540702478 0.056339757749760966 0.16166963183834798
0.12936748818008081 0.077226774999822 0.1633361777062679
0.13644214228240625 0.06581159145566307 0.15545680129482992
0.1259025807723202 0.06413482339116416 0.13302459323361165
0.14238070205299036 0.06663947016927085 0.1309921344514156
0.12373082593528408 0.1112812331411489 0.14254461729481466
0.12653269127456324 0.10200427682133995 0.14316659176304586
0.1455706830367245 0.08883761079045616 0.1378833254571224
0.12436406568137783 0.06670509488316856 0.13472874963238485
0.1619174058779873 0.050770836183751444 0.1311214765305782
0.15928747013656275 0.07177521497937522 0.1338382562394405
0.12404550865737575 0.043131457874501566 0.16763730847790487
0.13043545440284388 0.09886886388989768 0.13185360038235433
0.1381755049571194 -0.0288482138421885 0.14733474457218892
0.13637732223121302 0.047342913458073954 0.1557373305554653
0.1669973905429043 0.07903172285291038 0.1248690387006069
0.14388413981048243 0.1001563838216909 0.12390704953625448
0.13575892404166834 0.047111677238667826 0.14324601495220907
0.14330901459304468 0.07502676756116233 0.12621982896282918
0.1524416978701748 0.08235399634572349 0.13882674777462728
0.13791515186874048 0.09092422039243064 0.14693101251080282
0.13374506190864222 0.09133275062772117 0.12804587686016805
0.16833277300445215 0.1012429168913015 0.12263732159092672
0.13681327060310022 0.10727258236142478 0.12589251005604513
0.13572709516135828 0.07961692125531517 0.15637060010388143
0.1442138429030575 0.08685742528172813 0.13604899251415975
0.15864558771697657 0.04695643694135032 0.13449313247158773
0.15233497575370447 0.009168969700063086 0.1388923426862026
0.12660487249938623 0.08620955259534202 0.1344362994427944
0.14434372142402307 0.049614774296010355 0.12259920442059286
0.16241647556869165 0.07931582839223228 0.13055439794018514
0.1359566624507107 0.09198369295331321 0.1256973346467281
0.13917590931502954 0.10033758194180808 0.12276994192555196
0.1550706203326382 0.06321947486134849 0.13731046521618612
0.13510374978629724 0.07785560400220237 0.1571638783211971
0.1440144951686062 0.10757680446835838 0.1333713432545925
0.12824671224204676 0.0755211880895742 0.16431500518276937
0.13216896608916895 0.10795815498563133 0.16089012229397542
0.16209550455657618 -0.02451719134119668 0.13081039988949544
0.13780527070609705 0.08694802434178672 0.15192170941784627
0.16320331648437159 0.06943528563710533 0.12966837489559896
0.12402992204276699 0.01492743403645835 0.1437933346028591
0.1327261801108517 0.10116310627194725 0.1601911982293392
0.1441077466353573 0.08904333622189842 0.1228589912648464
0.1308442528590359 0.0050565174314626225 0.16246249282315023
0.16221423700896875 0.04739426285954795 0.13078611099674947
0.13742105916587488 0.0518727174493917 0.15299793088391073
0.12844126180259363 0.10030983597966514 0.16414590680554159
0.13144980624763147 0.10285116941663108 0.13078226649716146
0.15462740019408838 0.05300705344411216 0.13756596052601583
0.1554617162093319 0.09828771860333763 0.13693418109371908
0.16321499899474756 0.09949581534596763 0.12940143549397237
0.13082091764060633 0.049148725578511576 0.1622516115899349
0.12282334521857875 0.10676564485761009 0.1393736203904415
0.12958835319129602 0.04357265145512901 0.14212854707196004
0.128501402889172 0.10074161202641807 0.1640933355088497
0.1528968389376797 -0.00852609961298623 0.13861631357624776
0.12979699925033228 0.04519869596692405 0.12710972630932577
0.14377437785712854 0.08328084857198081 0.12382744753315694
0.12274368361083644 0.0511986783239492 0.16846885287716634
0.15016909197417871 0.06645514280530296 0.1396087905164028
0.131014990363995 0.07278953702184043 0.14212905371144063
0.15211515382377283 0.04629372269841514 0.13901450240566976
0.15938408926574366 -0.0352406629827372 0.13436468446209676
0.1436904545172848 0.044145928928578715 0.12425901496365316
0.15076159194556848 0.11030473024579368 0.13974814617588766
0.1351990278109707 0.07160322577687583 0.15704240405514486
0.12475367144195217 0.09017621190282188 0.16703154647305257
0.1426274056777157 0.057226347038472514 0.13211875164463766
0.14943383887855188 0.03888623625966392 0.1393329104180599
0.12952746704665796 0.08490960509511314 0.13161369168713338
0.154998886142651 0.09318708092900596 0.137324829935577
0.16675587252227442 0.04534225375386558 0.12526686990216024
0.12717466310111658 -0.006832016399180078 0.12517862522557027
0.12907026961890833 0.05289624840947471 0.14228515827610738
0.1336675758704342 0.04865427524777732 0.15922369563534505
0.12488274530021327 0.05158339650365196 0.1322910984750057
0.14997159198371546 0.06837971718045555 0.13953482115223653
0.15447448447791712 0.04053051979276023 0.13765405619099386
0.1376384969100155 -0.010273588588511132 0.14618357026531942
0.13301374271957056 0.061696367571080546 0.15981229150250204
0.14262025312034265 0.07214977056714378 0.1321011980767513
0.15849431112853662 0.06280128867360435 0.13464744889691121
0.14330561712829248 -0.009183836868082666 0.12623738253071554
0.13731120780555384 0.07359077245923362 0.14551108086064107
0.13482524708358423 0.10942752868863426 0.1575196584458614
0.1384155030593075 0.07176830084058128 0.15019213163807638
0.15852721289245264 -0.0280583926942698 0.13492395484402425
0.1388088639125027 0.03893794328900657 0.149130751728561
0.15411834672538416 0.049239145824635844 0.13785942399456746
0.1343225415095486 0.07207252294751487 0.1429077883954311
0.12315784648505824 0.10444607050153099 0.13888393843128927
0.16258241489974634 0.07694854051801048 0.13036926591351278
0.12990243986693994 0.11219831020566307 0.14212011301472433
0.1508136566027798 0.07273747236462913 0.13976581895306356
0.13829596594421045 0.0945709219667562 0.12319903576329
0.16548027351943628 0.06094707758160911 0.12709530198529012
0.14306430772391932 0.04991384060117088 0.13320111238911397
0.1533640201434292 0.04847525269719444 0.13829444849446065
0.14259116605369226 0.04184653074475608 0.1299100121255184
0.13368787125198023 0.09341143281194053 0.1427583595509792
0.1301503355845608 0.07707552821370445 0.13032939040615804
0.12475954249946254 0.11266927630635581 0.16702731454327352
0.13720770433990137 -0.022072387626444482 0.14521234238102682
0.1290935750350155 0.05022989423009239 0.1284877558942104
0.16774668053237574 0.10944338352414451 0.12346028292134054
0.12929378703681604 0.06285359174939475 0.14221759641125448
0.16360278681365625 0.011736588785374976 0.12925877177670247
0.14239783838836328 0.09031890542241416 0.13090388977482564
0.15194671109763758 0.07321603805753074 0.13911234343006856
0.16651185110656397 0.081783579895223 0.12560971581890829
0.13604088381377832 0.07985593588086448 0.1559712489838863
0.13880042985526697 0.04748778254720054 0.14911394321873433
0.14311288550941126 0.025938051054204322 0.1333238383527065
0.14483158544150965 -0.02475096075800576 0.13760497176602132
0.12710710123626368 0.07532073766919456 0.133064438938644
0.12834246710387842 0.10210614115926109 0.13413139188244588
0.14714272574035303 0.06104369671079002 0.1384752591843868
0.13553332046119348 0.10881231934758506 0.14320780837490804
0.12331052378265041 0.05938323051663719 0.1348015269036556
0.13473190620986597 0.058746921131337504 0.12346379959538228
0.12278749302474636 0.0903779140207418 0.1443883975739742
0.1354397709712185 0.10151182324620567 0.1268514295811916
0.15670140341369287 0.03885881812306724 0.13637064897969015
0.1289850647792019 0.033527480671132426 0.1423108180756832
0.12370281175223964 0.0893776288721212 0.16778685653164632
0.14305262521354334 0.0720562210771688 0.127537836670425
0.13457556322662012 0.06713058263989768 0.1429673930402065
0.13738407448379175 0.046884076902593 0.1533860167260433
0.13277091339675562 0.11292262584897361 0.1429933210606838
0.13568134859649317 0.0968675187322744 0.1432292362447048
0.1522860105380215 0.0697729757520803 0.13891660177662618
0.1542739744528927 0.037849860498631815 0.13776983821347005
0.15775706127730982 0.04232906014653526 0.13540013635113485
0.13540096834746973 0.11301703960629783 0.1280135413403774
0.14438931897727625 0.037408130476201396 0.122544099926498
0.13508250073043482 0.044754998991216044 0.15740959846928365
0.12989233687965052 0.06685663969250999 0.1420366367097164
0.16431613520232813 0.06167321116658531 0.128410776495483
0.1428511913165249 0.08788131386967979 0.12857319915249593
0.13330953076926844 0.08357809693547569 0.12784050905659444
0.12260444716064113 0.043873088667119364 0.1333715518708492
0.12945069626418726 0.043406890938008647 0.16346039378597982
0.12514211491195337 0.046565102646077494 0.1668580373521114
0.16245784119216578 0.10492153675290428 0.13012521469547994
0.12521873668281214 0.09806110174390159 0.16669728362515218
0.12837840870467798 0.10525687248441062 0.1426544686551357
0.14447553709594385 0.06986819417210899 0.1366972228284145
0.12281598404494899 0.07122536213132225 0.14436309540226705
0.13313640907851831 0.07945643574925743 0.12753721082165487
0.13782324150649683 0.10349922091695152 0.15187062823727376
0.13736714676467554 0.062049644300664286 0.1531564196343685
0.12999491647330896 0.06968654901715599 0.16278698050930746
0.13229756311027185 0.10664706141682945 0.16073729598477132
0.16429211453048365 0.10748766572209678 0.12793182337239034
0.12315015748588222 0.0983655324670919 0.1681841214890743
0.13807852820006983 0.10264657647343955 0.14730172359898336
0.12860052541343348 0.10478638322087608 0.14257027709439046
0.14250614002792017 0.03779663355084739 0.13034676516011007
0.12305899218169826 0.06266246945592246 0.14418067538693197
0.16095282391158716 0.08470396907063804 0.13213940465405233
0.1313661809310116 0.0792557171079763 0.14221178495838888
0.15534807995406763 0.07920514256688438 0.1371503969426418
0.16185696676818506 0.10951103479596458 0.13069533312275655
0.14824681237784998 -0.04082141607073464 0.13915579521610982
0.1431716556891598 0.1120705774519094 0.12969775998547323
0.14560787633506433 0.04665188700887046 0.13790040218785055
0.1682185705050625 0.0640618375036367 0.12298001849606283
0.13151745751945154 0.058865504572118144 0.1614404519791866
0.12906141832915918 0.10866524488660179 0.13342278206303365
0.16412164524642603 0.04202164919110618 0.12863104546025045
0.1270786996230282 0.011097984621251441 0.16577597463085897
0.14384649947730677 0.04170473129483543 0.12345608079388387
0.13700090602485315 0.08981330902310691 0.15420397126629598
0.14250691488830225 0.05875526578160606 0.13034295046284444
0.1258296842917599 0.08167804987164817 0.14326490962460287
0.14276479438392298 0.03697113902303062 0.13245909416630514
0.13777424648849146 0.10971646220418296 0.15204124653294332
0.13830767825690882 0.07239936501714073 0.1478521426911617
0.13434921458808557 0.08618645579549156 0.1581251820321346
0.1425143058642544 0.11256496817799888 0.12719046080067403
0.12972803667632715 0.06259782821866355 0.14208631718113668
0.1585699494227566 0.06146966130467735 0.1345702012772823
0.14382834986297266 0.10837327153416954 0.12996165955021627
0.12901403263656275 0.06998963863583885 0.1636440356965328
0.12744920209495203 0.0814672580454 0.13326316082432516
0.16575499132720606 0.08273576409550987 0.1267662247414852
0.14306526139823572 0.08042614371510826 0.13320364558651693
0.13494830087272303 0.07438166649075828 0.12509398662998922
0.14232845858184473 0.11307342560025535 0.12421577179386861
0.13037695244399683 0.06621368438931785 0.1290761133427883
0.15748943642226831 0.054329084465230326 0.135672499775436
0.14764140800086634 0.10256456048222862 0.1386304994817043
0.15643932179061548 0.08559276373120628 0.1365192135567928
0.13369898751823084 0.06714351684781394 0.1589496334786678
0.1380083735331692 0.05434905202123008 0.15133266651585348
0.15257947400657312 0.05919893295499168 0.13874732458546407
0.15300299481002466 0.10614700824948631 0.1383640667195583
0.12638886526672022 0.10827528149815879 0.16585620248272664
0.12642915800658838 0.040947931120122294 0.14308356249287374
0.15691589072791712 0.055768328020299296 0.1362460454697872
0.1280681367262997 0.047266202280248026 0.12909238541081197
0.13087748244849817 0.037635343382085185 0.12534387910321004
0.14377917603103296 0.004854189464772559 0.13497476780369527
0.1362497384890713 0.09554620296689353 0.12561269605114705
0.1276646132811703 0.061970906564915995 0.16481955850079305
0.15541966513244287 0.10442148358556114 0.13685559236958272
0.13497360304443018 0.0942844024393209 0.15733038389637716
0.1359486754283108 0.10839109332295738 0.1432561179394985
0.16417195156661646 0.0019873252603658208 0.12871243560269124
0.133317875419537 0.09046678454610191 0.1594379147286678
0.1433852787360348 0.06101791770192466 0.13399635755970724
0.13408358648864405 0.037707494804585795 0.15889825427487142
0.13754661635009424 0.0818356743547567 0.1460647186036373
0.13495655611602442 0.10032497555943809 0.143060137867477
0.14281131580917017 0.05066783935757957 0.12877835833981283
0.13528557375518457 0.04309399635526023 0.15721481049015767
0.1305284078463711 0.06389896781178794 0.12868039810612447
0.16755451515761988 0.09059591800900779 0.12392481172039754
0.1285120423182644 0.03967879922124229 0.16441961133435018
0.15600417808143274 -0.0020259150770060054 0.13695098960354574
0.13668866709319727 0.1090086570474752 0.14383169019177205
0.14393802240935938 0.046397106954778056 0.1353655954594875
0.13770549253074305 0.055626349756444315 0.14643176400616414
0.1373793359145321 0.11269630701276145 0.14546148979618795
0.13528885201064722 0.0795037320348867 0.12524648511364705
0.1587404187068142 0.028355228016103125 0.13439853990032918
0.1439989979609646 0.009564267704213477 0.12299813830807454
0.1264027233466305 0.05998049885960899 0.165841778158691
0.13599570349303858 0.11001129657956443 0.15602924430325277
0.14386950687019007 0.06525086075993858 0.12333848082974203
0.1340195114955105 0.09365816623898826 0.12791781628086812
0.12560136869994776 0.07754783541890464 0.14333396160557516
0.12485383704749721 0.10985775501462303 0.13739075267269857
0.1682697112902798 0.06060119182797752 0.12290056550457723
0.1343760366782345 0.06360499770375572 0.12452056014492757
0.16069276884643213 -0.026679856469904565 0.13240851962521322
0.125122177158276 0.09734444529744468 0.13684414827778585
0.13880537704078333 0.07292805821629844 0.14908628666355855
0.15104456499663965 0.09816225082608543 0.13960905873730428
0.13349138454047815 0.06724669248792015 0.1427121361489559
0.15851439789382593 0.10878594429227195 0.1341575285191799
0.13637237504569666 0.05111886770459495 0.14339043700649984
0.12384201840011257 0.09323288709851585 0.13757978880360372
0.14868955567924158 0.09771387488576255 0.13901784026577718
0.1251008684977688 0.08663018257352195 0.1358173092599178
0.14341999844161646 0.04922940046521507 0.13408227765515096
0.14285616830436365 -0.012808723142420434 0.12854798638775594
0.1355715270384945 0.06050221831532798 0.14320190751507528
0.13745771602241175 0.10672350437375389 0.15291862690403707
0.12269081429092067 0.06699387938710533 0.13629852735951192
0.13193880275336878 0.1086092463228353 0.1610912283654476
0.14289330199805872 0.04713680059644065 0.12835680448963888
0.13710560158340113 0.04407797963353477 0.15430777275517232
0.15860273197738306 0.08798603923055015 0.13453503453686483
0.12428196028319972 0.08503519208165489 0.16737063729717977
0.13257731751052515 0.10360647947522483 0.16038062179043538
0.1617827589854397 0.0802737048360952 0.1312729021306301
0.14915730312911646 0.08637570054265342 0.13922982418492086
0.1428204651221432 0.11224009306165061 0.1284335454697872
0.16282387331573145 0.10056822211476646 0.12984152638867147
0.1443041737422146 0.10557659179898582 0.13629119598820455
0.1425530786856808 0.08012454421254478 0.1301059623952175
0.12987189248649256 0.10635830671521507 0.13241263234570272
0.14764262989608423 0.05397848994466148 0.13866244757130392
0.12341900423614162 -0.003485811641489648 0.12902199232533224
0.127967077051083 0.08867894322606407 0.1333899697060848
0.13656153038589136 0.04540546447964988 0.14374541246845968
0.12302015975562709 -0.03963972418574013 0.12510569894268758
0.14374886706916468 0.04282988817426048 0.12395854794934041
0.13065164044944422 0.10566802532407127 0.1315872272248531
0.15038754299728052 0.08233951241704307 0.13969056808903463
0.15615923956481592 0.0664448610040792 0.13668253028347738
0.12358607605544704 0.10150926024648033 0.14410509669735677
0.1376927669390835 0.05894459993573509 0.14640494191601522
0.1432491715296902 0.051617162534917216 0.13365926349118
0.15755762413589136 0.05003766925069175 0.13560294115498311
0.13478712991325037 0.09451557905408225 0.15756775939419515
0.13495306924430506 0.07743664295407615 0.1573556860680843
0.12605865553466455 0.06783409626218162 0.16609205806210287
0.12663923457709925 0.07595305354329429 0.1656756004090572
0.1673362429484524 0.07264037639829002 0.12435319030239828
0.1260670299872555 0.07883180887433372 0.16608723008587606
0.16745139912215845 0.03302775532933555 0.12417962157681234
0.15673046067802088 0.1091212800237783 0.13598059618428
0.1280492420539059 0.06996731669637046 0.13167267048313863
0.15237505987731592 0.11068825633260093 0.13878353440716512
0.12774275497047083 0.03871681005688987 0.12856610619976766
0.1261093790873684 0.09450186998578392 0.14319251978352315
0.14382155493346827 0.039926098892415385 0.12358345591976888
0.1385624881133236 0.06743152649136863 0.14977495872929342
0.13791422799674646 0.0944486132356771 0.15161251032307393
0.12284232929793971 0.0742772391531118 0.16840519511654622
0.12859283641425745 -0.007985008647715234 0.14242952072575338
0.14363675073234217 0.10600574524136863 0.12851553165867574
0.12338404611198085 0.0423849096986898 0.16809227073147542
0.14250989512054102 0.07987596304150901 0.13182770216419942
0.14913483217803614 0.084737019846166 0.13922139012768514
0.13301833227721827 0.014260458061421729 0.14259790384724386
0.13715173557845728 0.06748472363683067 0.15377490723088033
0.12548713639823572 0.08099906356068931 0.13499583804562337
0.13504006222335474 0.10984556586476646 0.14323087537243612
0.14304177716819422 0.09842236549588523 0.12770869338467367
0.12234311059562343 0.09568299562665306 0.13917316997006185
0.1375496263846554 0.0962227454874166 0.14607187116101034
0.14328660324660913 0.0697615912649282 0.1263350745435024
0.16004647568313257 0.046738373348439555 0.13306411111309774
0.12422798827735561 0.04005275876256309 0.16758360469296224
0.14471169069854395 0.1102416983339437 0.1364656885857845
0.16589333370772974 0.0536972454282888 0.12661497795536764
0.1322804863795437 0.10077364952298484 0.16075845563366659
0.12882857278434412 0.05803136737080894 0.12978931271984823
0.13846446827499048 0.09718232066365562 0.14822228753521688
0.16382254913894312 0.0661818257066854 0.1289685567612911
0.13653619841186182 0.08607433945866905 0.15534143650486715
0.14463563517181055 0.09659128100606285 0.13707955682232625
0.1509964640483059 0.08573939115735374 0.13966043794110067
0.13320358351318018 0.046255277702535014 0.12364243471577413
0.14251880601493494 0.046835081884587626 0.13184990489437826
0.13720704868880884 0.07682018191548667 0.12284409010365255
0.13034124926177637 0.0995043686124929 0.16248615586712606
0.1280886705264248 0.11164365918370567 0.13468872511341817
0.14377103999702112 -0.011410636594568872 0.1238447328801418
0.1351116175994076 -0.006602598121439599 0.15764363610699422
0.15501766160575525 -0.001806659391199731 0.13748072588398702
0.13284586623756067 0.10657753259869895 0.12968262040570028
0.15892465666381494 0.0813454559538015 0.13420846068814046
0.1669489319667019 0.08137466222974143 0.12492006027653463
0.1378923530921139 0.10477678687306724 0.15167768800213582
0.12253408387748378 0.06307788402768455 0.13599323236897237
0.13815520957557337 0.09929235489102683 0.1509288450475002
0.1440709109648861 0.04196052462788902 0.12292828166439779
0.12891520813552515 0.0712896457407125 0.1637305220361019
0.1271286185130276 0.08022438199254356 0.1428722044225002
0.13824145749656336 0.08335478813382469 0.14769806468441732
0.13394572094527857 0.05983047396870933 0.15862252318814046
0.14446895078269617 0.04073812277051292 0.13668086135342367
0.12591864422408716 0.10382317216130577 0.13644324743702657
0.14358441785422937 0.06338085443707786 0.13448964559986837
0.13083507374374048 0.1063393226358541 0.14246367418720968
0.15986992672530786 0.061848955461705546 0.13324411714031942
0.16211356476394312 0.07888631732198081 0.13089849555447347
0.1296428914412655 0.09745489270421348 0.16309620940640218
0.1244968648299374 0.10378374368878684 0.16721614205792196
0.1560129995688595 0.07429884583684288 0.13676684105351217
0.12570472315398828 0.09912105114194236 0.16634794080212362
0.14388741806594507 0.09899868280621849 0.1352183421845699
0.13400720313636438 0.058248656103337626 0.14283355081036336
0.16085650280563013 0.08241300494405113 0.1322375735039974
0.1287969227179684 0.06489230901929222 0.16383179032757528
0.13773285106269495 0.07855437905522666 0.14650254452183492
0.1384302850112118 0.10201399237843833 0.14813693368389852
0.15810944393722193 0.09793307096692405 0.13479589426472433
0.1380255396708645 0.08572240383359275 0.15129663550808675
0.12786890820113794 0.05977954179974876 0.1308218737836147
0.12476365521995204 0.036820279667104105 0.1435867449040676
0.12575246647445337 0.10961844236584983 0.14305438601925619
0.13668795183745996 0.06938718468877159 0.15509100758984334
0.12646030143348352 -0.02586291520861306 0.16617902123883016
0.1541513975009121 0.1128981879446157 0.13766082131817586
0.15854485586730616 0.08717401535245262 0.13459451997235067
0.14523177102653162 0.1073820164892324 0.1262754997010494
0.12406789020148891 0.07459537894460044 0.14379759633496053
0.14450897530166285 0.10835148603650413 0.12399964535191305
0.13838191584197657 0.049053954193318705 0.1479802628751064
0.1664984400614895 0.08431206853123985 0.12563081586315877
0.14584382132140772 0.10742758424016319 0.13802360498860128
0.13494731739608423 0.06893842131825767 0.12446015083744771
0.16605802134124414 0.07076995284291587 0.12635575735523946
0.14274476722327845 0.07294903905125938 0.12912057840779073
0.1437856133326687 0.06514130742284141 0.1349880298371578
0.13406248644439356 0.0956281593534597 0.12795170152142293
0.1684869106158413 0.07282649190160118 0.12254705035641439
0.12919442609397547 0.053330051014150004 0.16350581252529867
0.13865854099837915 0.04894204647275291 0.1495151122803951
0.14426656321136133 0.061484294244969706 0.13617955648854024
0.12309219196883815 0.11141960532399497 0.14255084598019369
0.16702516630736963 0.06919111520978294 0.12484436237766988
0.1332965667590298 0.09911848814221702 0.12888794147923238
0.12987728670684473 0.08777843625279746 0.14204116666271932
0.13645889118758814 0.08346022875043235 0.14350791776135213
0.1289584215029873 0.08636881620618186 0.14231898391201742
0.13131807998267786 0.05229519517155967 0.12640257680371053
0.14670093611327784 0.08645133883687339 0.13830926024868734
0.1491385276660122 0.1037710180971273 0.13917066657498128
0.14360018328277246 0.08458681614133201 0.13452871644451864
0.12453644231406825 0.04196332604619346 0.13158791267826803
0.14253522709457056 0.03861044556828819 0.13189043605282552
0.1439934249266781 0.10763861448499046 0.13307430350735433
0.1262365753993191 0.07009746343823753 0.16596444451763875
0.1645921047076382 0.08731262595387779 0.1280881365533138
0.13305415466872828 -0.01310153095987954 0.16025735938503988
0.1306572730883755 0.06198619515630088 0.12834693992092855
0.14231662705985682 0.025285857031071998 0.1313522955174709
0.13862635449020044 0.09186308295461021 0.14860277378514058
0.12463952854720729 0.052854674169743876 0.1436247726674343
0.16146733120528833 0.09313024790021263 0.13140042626812704
0.14925487593261377 0.0395884385797628 0.13926588499500997
0.1283762033328213 0.09334789426060996 0.13335235917523153
0.13239680484382288 0.05199326784344993 0.1607763370270992
0.12805731848327295 0.0024470558855184087 0.16491701209500081
0.13423745587913172 0.05356867820950828 0.1234613260026241
0.12465037659255641 0.036915468284810404 0.13106911385014303
0.1518141503676571 0.010438012191975928 0.1391837199921871
0.16255744055358545 0.059066938469136576 0.13039823377087362
0.13090376809684412 0.10934291989537559 0.1316340168710018
0.12741549566833155 0.09204565198155723 0.16504194343045003
0.12899856523124353 0.07309170276852928 0.142306884169128
0.1628326948031582 0.05469112307759605 0.13008712732746847
0.13637791827766077 0.10196300060483299 0.1258860131497646
0.12728657082168238 0.09709431440564475 0.13482578599407918
0.1301469381198086 0.02104790718289695 0.12462072575047262
0.15631918862907068 0.09398983628484092 0.13653313124134786
0.13123481229392664 0.09256909997197471 0.16170563304379232
0.1429381544932522 0.09226812631818138 0.12813352549031026
0.1351716692790188 0.04719914705487571 0.14310770237400777
0.13869177058784143 0.08128737122746788 0.14940633380368
0.1445066507205166 0.09755130321713767 0.13675497972920186
0.1533349926814236 0.05164693505498252 0.1383113166089321
0.14345051601974146 0.0618817678186544 0.12549238407566793
0.15885408476440088 0.09848048002454124 0.13403435552075155
0.1378937836035885 0.05820377380582176 0.14687552058651693
0.12619917348472254 0.112975465366567 0.13635181391194112
0.12283309057799953 0.006383167812550879 0.13060738646939046
0.1382484014376797 -0.018819374730860376 0.15094770991757162
0.13857226327506678 0.11277197510930381 0.14983736479237325
0.16130645826903955 0.03389533073636375 0.13177870714619405
0.14379810050574915 0.050533937523091654 0.12370543682530172
0.1327549989566006 0.07331912429066978 0.1601534088845516
0.15045048550216333 0.09935505897733055 0.13966118299916036
0.12990854934302942 0.09757875115605674 0.14204381906941183
0.12816508368102686 0.0551550558302053 0.1299565037484432
0.15091406062690393 0.09144817502232871 0.13969971740200765
0.1438093359812893 0.05583487660619102 0.12364779913380392
0.13138370469657557 0.08787869126530967 0.1422158380742336
0.15715663388816492 0.09553863317700706 0.13588040077641256
0.1250533933982052 0.08196835429402671 0.1668161352868343
0.13168989375678675 0.05535198957654319 0.12640794122174032
0.14325292662231104 0.0364707878324636 0.12650563323452718
0.14356284097282068 0.022978173801625586 0.13444005453541524
0.1450140948638119 0.09726493270131431 0.13767786824658163
0.13235332325545923 0.05046053440305076 0.16088594996884115
0.12934126213637964 0.0013190975877889165 0.12368266785099752
0.13165931657401697 0.06514875800343833 0.12761872017338521
0.14739240959731714 0.04718084842892967 0.13856892788365133
0.16677738979903833 0.06430538208218894 0.12523310387089498
0.13011677816955225 0.04975719959470115 0.1628292402024532
0.13298042372314112 0.04169266135426841 0.14259179437115438
0.12938027337638514 0.05763550312253318 0.12923048937275655
0.14375691369620935 0.0920452347490438 0.1349170705075527
0.1370998497351803 0.06189049989911399 0.15391298139050252
0.1621903951510586 0.09552403003903709 0.13054378831341512
0.13064061359016077 0.07393656880589805 0.1295728584523464
0.13430013016311304 0.10814346582623802 0.1581881841416622
0.12560357407180445 0.056227641412938456 0.1664097508187557
0.1236973579272427 0.04729457409116111 0.16784658038571126
0.1529680068835415 0.06646748096677146 0.1385232111211086
0.12401427582351345 0.07453243643971763 0.1358020802731777
0.15422897294608728 0.11187409074040733 0.1376052995915676
0.1317769761428036 0.02453981549474082 0.1616410216088558
0.16042925671188013 0.07417609007092796 0.13267346227123983
0.15661017850486414 0.07578169018956504 0.1364223560090328
0.13869659856406824 0.06692745001050315 0.14876513683750875
0.14920507625190393 0.07681884081097923 0.13924770557835348
0.12847189859000818 0.09246610314580284 0.14246611797764547
0.13762416199294703 -0.03721453039911904 0.14604326093151815
0.1671453888758816 -0.03428737609652199 0.12465797865345724
0.13502158478347437 0.04495595605107627 0.15748654806568868
0.16750081137267725 0.09065570146771751 0.12400724494412191
0.1438430126055874 0.07830618531438194 0.13513024651959188
0.1253411348208584 0.07197918207379661 0.14341263973667867
0.14242862418738977 0.0027699640485890874 0.13163243734791524
0.1382188375338711 0.04589815647336326 0.14758883917286642
0.13403998569099085 0.0975936225149282 0.14284329616978414
0.16161217049209253 0.0904488733503469 0.13133515918209798
0.13767694190589563 0.05782480747433982 0.15227585041477926
0.12775109962073938 0.08991004736157737 0.16474880778744466
0.12997003153411524 0.07087655575009666 0.1420131524796749
0.12557964280692713 0.0851138702127584 0.13525222742512472
0.15971465662566797 0.06413044244977317 0.13340248668148763
0.1387919063910641 0.08892913372250877 0.14912222826435811
0.13695656016914026 0.11149044544431053 0.12574600183918722
0.12773885086623804 0.08756630332204185 0.1335086425538326
0.1658008869036831 0.0721920898649343 0.12673075997784383
0.1431607182368435 0.07207818538876853 0.13343997800305135
0.1304748828753628 0.0826158097478994 0.16236944997265584
0.15832926586715357 0.041215734789098124 0.134816547274139
0.12566729143706934 0.05805386812421165 0.14331405365422017
0.13346116498557703 0.03611336858006797 0.15972967946484334
0.12266408160773891 0.0752717128488668 0.14447711908772237
0.16065617159454004 -0.03625072329310097 0.13302492105915792
0.14349599436370508 0.09640099317761741 0.12537344300701864
0.1303191657408871 0.04032202274533592 0.1261357566113735
0.13179083422271387 0.04905261308881126 0.14231171214535482
0.13178436711875574 0.02426608116360984 0.12308876717045553
0.13714824870673792 0.036416040966237406 0.15448879206135518
0.13139368847457544 0.046952503034795146 0.12569280469372518
0.15851976231185572 0.10763021023007713 0.13416268432095296
0.12824230149833338 0.027876543113911963 0.1647540529961849
0.1296794886931576 0.09014643938275657 0.13192163908436544
0.1261629338606991 0.08750690729352317 0.14316414797261007
0.14764468625632898 0.07249514968129478 0.13866325223400838
0.1359876866683163 0.04815037758084617 0.15621819102719076
0.13465880111304895 0.0704259744379171 0.1429870029683376
0.13500012711135523 0.011303322622502662 0.14306609833195455
0.12744404629317896 0.09504108340474449 0.14278750622227437
0.13249455646125452 0.08416350395413719 0.12870349490597494
0.1335033948764004 0.08954592258664451 0.15920188033535726
0.13339577869025843 0.11303608329030357 0.12984188401654012
0.16797651604262964 0.049851404735768656 0.12335883581593282
0.12300409630386012 0.06355090648862205 0.13562803471043355
0.13419254377929346 0.08752800733777366 0.14287718141033895
0.12865226224509851 0.07442467124196372 0.13153629505589254
0.12363817051498073 0.10828627855511985 0.1678334077592159
0.1587438161715664 0.10499246628018699 0.13401853048756368
0.1553416128501095 0.08508704812260948 0.13715361559345968
0.13024191812125818 0.09109039814206443 0.1625729998345638
0.13736059025375025 0.09335004002782188 0.15318336093380697
0.138730096374432 0.10392587096425376 0.14883699023678548
0.12546842053977625 0.06233306438657127 0.16651477420284994
0.13182534531203882 0.04500968963834129 0.16136821114971883
0.13703294352141993 0.06253709108563743 0.14485641324475057
0.1675769861087002 0.03724955231877647 0.12398334348156698
0.16208030537215845 0.046928571769917826 0.13093756639912374
0.12342988208381313 0.07794307381841026 0.1365480324025417
0.13025076941100733 -0.03612257330683388 0.14194913709118612
0.1639684017047085 0.1113047471735128 0.1283097466225887
0.12599472955314295 0.03391255647870384 0.14321457350209005
0.15929980829803125 0.06719823391171775 0.1338257094617153
0.1586336071833767 0.045970903942311625 0.13450544083073385
0.1437620993003048 0.09156941086980186 0.12393276894047506
0.12795733169166223 0.08840941102238975 0.16456862294628866
0.1337639863833584 -0.015067828586374902 0.15934969985440023
0.12717430547324793 0.043840991565907816 0.1428583761449123
0.1364778454646267 0.06490911752911888 0.14355238282635457
0.13663898662177698 0.0645363202783712 0.14393096172764547
0.1370388145789303 0.06835429579945884 0.15409593784764058
0.1440982992991604 0.1024035385343679 0.123231013655212
0.12473441914168971 -0.025295300176417016 0.12530141079380758
0.13389687493888514 0.07354228408070884 0.14280762278988607
0.1252275283679165 0.05476908595296226 0.16667743527844198
0.13223575309363977 0.0370733907911428 0.12373073899700887
0.13793780163375513 0.09195412904950462 0.14698426926090963
0.1427337105616726 0.0692134967538961 0.12917741143658407
0.14944635585395472 0.059998648473943095 0.13933806621983297
0.12300254658309596 0.1073563566896566 0.14444636309101827
0.12412671998588222 0.09471307904454551 0.1674822171921993
0.12897311404792444 0.048018561908925395 0.12833329045727498
0.1301309640750088 -0.021208567312037133 0.16309334838345296
0.1349619205340542 0.08693032176228843 0.157345285057571
0.12707607701865808 0.08262823731633506 0.16533829772427328
0.12540589526740686 0.09610776812764488 0.16656275594189413
0.13458787158576624 0.07975389272900901 0.1429702838654781
0.15749903277007715 0.0735559335443624 0.13566272461369283
0.1271518345221676 0.11079596192571006 0.16527225577786214
0.1343920405253567 -0.0025415846612802974 0.1585613688226009
0.14383329704848902 0.0800128451082357 0.12352453672840841
0.1632187540873684 0.09282456547948204 0.12946518266155965
0.1477798099860348 0.0005973151418813237 0.1386716564889217
0.14819123104659693 0.11179952532979331 0.13885538780644185
0.12427051619140285 0.08714162022801719 0.167378803133514
0.1333841855868496 0.05546461255284629 0.14268689358189351
0.13401572660056726 0.040376084158147196 0.14283554756596334
0.1281635339602627 0.03836669237347923 0.14255910122349508
0.13613529757110254 0.058618771145070414 0.15583046281292684
0.1286135490283169 0.09244309575291954 0.16399540507748372
0.13567121580688135 0.0689434281084188 0.1564409335847164
0.14449413374511377 0.07254375726910911 0.1367432674165035
0.12631203487960474 0.040205138036931376 0.16619916760876424
0.12423874691573757 0.10118879587384544 0.1377571126218105
0.15161739543525354 0.1082626751157888 0.13925703370526082
0.15007065490333216 0.08746819407674156 0.13956849777653463
0.16005774096099512 0.05416263849469505 0.13305251800968892
0.1292430634841122 0.0814714005682119 0.1634454330201412
0.15176408246604578 0.058658855268681864 0.13921769463970907
0.13758419707862513 0.07869170815678916 0.15254764759495504
0.14273028329459803 0.0840232244226583 0.1291950246091152
0.1272938127860226 0.061929660150731425 0.13154109322979696
0.1285430367335476 0.05763389379712425 0.16404136025860555
0.15001376226989405 0.05401070625516258 0.139550616383102
0.13039021447745935 0.038345651933873515 0.1259535750146175
0.14766051128951685 0.06045185239049278 0.13866915309384115
0.1350639040812649 0.08678497583600364 0.12636285030796773
0.14345170811263697 0.057214038679326396 0.1254861851926113
0.16557385281173365 0.051845537731374125 0.12698962295010335
0.1329198952063717 0.08426000387402854 0.14257754886105306
0.13749189928619043 0.08354597003194175 0.12318714463665731
0.14902459338752405 0.037710087606633524 0.13917966687634237
0.1654102380618252 0.04288585693570457 0.1271745761628414
0.1378930683478512 0.05322350771161399 0.14687081181957967
0.16745938614455835 0.09756611497136436 0.1239929696316982
0.12424381331054347 0.04789315373631797 0.1437443991894985
0.12538369253722803 0.04713203222485862 0.14339979493572957
0.12438281134215969 0.04924257309171043 0.1325110098119045
0.13434367135612146 0.07135789305898033 0.12541486823513753
0.12809144214240686 0.05121867568227134 0.14258112513973958
0.13347031429855005 0.052253382513249735 0.1241463025803829
0.132511812005917 0.07449080259534202 0.1276882489915157
0.12490801766959804 0.06567086488934837 0.1669193109269405
0.16563846424667017 0.10814692289563499 0.12638585770085103
0.12706364945022242 0.10957141430112205 0.13562106096699483
0.1439745600566067 0.08806957514020286 0.1354561945195461
0.12429274872390407 0.0515803864690908 0.1437296172375942
0.14263360456077234 0.0279430618974813 0.13213642442181356
0.15959741428939478 0.10278721363278709 0.1332308551068569
0.14428682879058496 0.09579591662618003 0.12264769279911764
0.1454040582522549 0.11208160431119285 0.13795199000790365
0.12298612550346034 0.06997986347409568 0.16830148303463704
0.16563590124694483 0.044171409914220194 0.1269194980855251
0.1288426990851559 0.03858415991994224 0.16415836417629964
0.1473370368823208 0.06706755072804771 0.13854803645565755
0.14365031078902857 0.0800978413316854 0.12446548545315511
0.16094972447005884 0.09352587372990928 0.131933828234222
0.14326446012107508 0.08776821405621849 0.12644894921734579
0.13225089267341272 0.06076412112447105 0.1424200435872341
0.14763890460578577 0.07579411775800071 0.13866107666447408
0.1677811320170559 0.005662488052571631 0.12370054924443014
0.1591170604571499 -0.02481822459963479 0.134092350840118
0.13173569992629663 0.036724584409917216 0.16162570321514852
0.16158230856506006 0.09028111607762657 0.13137428963139303
0.13706048086730616 0.04037653119298301 0.14488207304432638
0.14524860933868067 0.04932315857144676 0.13776578509762533
0.14320849135963098 0.05091919214459739 0.13355841243222005
0.14308284476844446 0.05852465541097007 0.1273823877568508
0.1494972880229153 0.042198108741963725 0.1393568714852596
0.13126449540702478 0.056339757749760966 0.16166963183834798
0.12936748818008081 0.077226774999822 0.1633361777062679
0.13644214228240625 0.06581159145566307 0.15545680129482992
0.1259025807723202 0.06413482339116416 0.13302459323361165
0.14238070205299036 0.06663947016927085 0.1309921344514156
0.12373082593528408 0.1112812331411489 0.14254461729481466
0.12653269127456324 0.10200427682133995 0.14316659176304586
0.1455706830367245 0.08883761079045616 0.1378833254571224
0.12436406568137783 0.06670509488316856 0.13472874963238485
0.13544760898200647 0.025607215473378516 0.14317264163449056
0.1619174058779873 0.050770836183751444 0.1311214765305782
0.15928747013656275 0.07177521497937522 0.1338382562394405
0.12404550865737575 0.043131457874501566 0.16763730847790487
0.13043545440284388 0.09886886388989768 0.13185360038235433
0.13637732223121302 0.047342913458073954 0.1557373305554653
0.1669973905429043 0.07903172285291038 0.1248690387006069
0.14388413981048243 0.1001563838216909 0.12390704953625448
0.13575892404166834 0.047111677238667826 0.14324601495220907
0.14330901459304468 0.07502676756116233 0.12621982896282918
0.1524416978701748 0.08235399634572349 0.13882674777462728
0.13791515186874048 0.09092422039243064 0.14693101251080282
0.13374506190864222 0.09133275062772117 0.12804587686016805
0.16833277300445215 0.1012429168913015 0.12263732159092672
0.13878618434516565 -0.008945150068079614 0.14922087395146139
0.13681327060310022 0.10727258236142478 0.12589251005604513
0.13572709516135828 0.07961692125531517 0.15637060010388143
0.1442138429030575 0.08685742528172813 0.13604899251415975
0.15864558771697657 0.04695643694135032 0.13449313247158773
0.12660487249938623 0.08620955259534202 0.1344362994427944
0.14434372142402307 0.049614774296010355 0.12259920442059286
0.16241647556869165 0.07931582839223228 0.13055439794018514
0.1359566624507107 0.09198369295331321 0.1256973346467281
0.12527980164138453 0.023740845033849097 0.1296706696744228
0.13917590931502954 0.10033758194180808 0.12276994192555196
0.1428557808741726 -0.03473602025774636 0.13269131386235006
0.1550706203326382 0.06321947486134849 0.13731046521618612
0.145504998718182 -0.011798543622767114 0.1378481885190273
0.13510374978629724 0.07785560400220237 0.1571638783211971
0.1440144951686062 0.10757680446835838 0.1333713432545925
0.12824671224204676 0.0755211880895742 0.16431500518276937
0.13216896608916895 0.10795815498563133 0.16089012229397542
0.13780527070609705 0.08694802434178672 0.15192170941784627
0.16320331648437159 0.06943528563710533 0.12966837489559896
0.1327261801108517 0.10116310627194725 0.1601911982293392
0.1441077466353573 0.08904333622189842 0.1228589912648464
0.16221423700896875 0.04739426285954795 0.13078611099674947
0.13742105916587488 0.0518727174493917 0.15299793088391073
0.12844126180259363 0.10030983597966514 0.16414590680554159
0.13144980624763147 0.10285116941663108 0.13078226649716146
0.15462740019408838 0.05300705344411216 0.13756596052601583
0.1554617162093319 0.09828771860333763 0.13693418109371908
0.16321499899474756 0.09949581534596763 0.12940143549397237
0.13082091764060633 0.049148725578511576 0.1622516115899349
0.12282334521857875 0.10676564485761009 0.1393736203904415
0.12958835319129602 0.04357265145512901 0.14212854707196004
0.128501402889172 0.10074161202641807 0.1640933355088497
0.12979699925033228 0.04519869596692405 0.12710972630932577
0.14377437785712854 0.08328084857198081 0.12382744753315694
0.12274368361083644 0.0511986783239492 0.16846885287716634
0.15016909197417871 0.06645514280530296 0.1396087905164028
0.131014990363995 0.07278953702184043 0.14212905371144063
0.15211515382377283 0.04629372269841514 0.13901450240566976
0.1436904545172848 0.044145928928578715 0.12425901496365316
0.15076159194556848 0.11030473024579368 0.13974814617588766
0.1351990278109707 0.07160322577687583 0.15704240405514486
0.12475367144195217 0.09017621190282188 0.16703154647305257
0.1426274056777157 0.057226347038472514 0.13211875164463766
0.14943383887855188 0.03888623625966392 0.1393329104180599
0.12952746704665796 0.08490960509511314 0.13161369168713338
0.154998886142651 0.09318708092900596 0.137324829935577
0.16675587252227442 0.04534225375386558 0.12526686990216024
0.12907026961890833 0.05289624840947471 0.14228515827610738
0.1336675758704342 0.04865427524777732 0.15922369563534505
0.12488274530021327 0.05158339650365196 0.1322910984750057
0.14997159198371546 0.06837971718045555 0.13953482115223653
0.15447448447791712 0.04053051979276023 0.13765405619099386
0.13301374271957056 0.061696367571080546 0.15981229150250204
0.14262025312034265 0.07214977056714378 0.1321011980767513
0.1424421246394314 -0.005156738450800561 0.1316598852868343
0.15849431112853662 0.06280128867360435 0.13464744889691121
0.13731120780555384 0.07359077245923362 0.14551108086064107
0.13482524708358423 0.10942752868863426 0.1575196584458614
0.1384155030593075 0.07176830084058128 0.15019213163807638
0.1388088639125027 0.03893794328900657 0.149130751728561
0.15411834672538416 0.049239145824635844 0.13785942399456746
0.1343225415095486 0.07207252294751487 0.1429077883954311
0.12315784648505824 0.10444607050153099 0.13888393843128927
0.15839608267394678 -0.008960528066431665 0.1347661515469814
0.16258241489974634 0.07694854051801048 0.13036926591351278
0.12990243986693994 0.11219831020566307 0.14212011301472433
0.1508136566027798 0.07273747236462913 0.13976581895306356
0.13829596594421045 0.0945709219667562 0.12319903576329
0.16548027351943628 0.06094707758160911 0.12709530198529012
0.14306430772391932 0.04991384060117088 0.13320111238911397
0.1533640201434292 0.04847525269719444 0.13829444849446065
0.14259116605369226 0.04184653074475608 0.1299100121255184
0.13368787125198023 0.09341143281194053 0.1427583595509792
0.1301503355845608 0.07707552821370445 0.13032939040615804
0.12475954249946254 0.11266927630635581 0.16702731454327352
0.1290935750350155 0.05022989423009239 0.1284877558942104
0.16774668053237574 0.10944338352414451 0.12346028292134054
0.12929378703681604 0.06285359174939475 0.14221759641125448
0.14239783838836328 0.09031890542241416 0.13090388977482564
0.15194671109763758 0.07321603805753074 0.13911234343006856
0.16651185110656397 0.081783579895223 0.12560971581890829
0.13604088381377832 0.07985593588086448 0.1559712489838863
0.13880042985526697 0.04748778254720054 0.14911394321873433
0.14311288550941126 0.025938051054204322 0.1333238383527065
0.15120782211867945 -0.03224028437403359 0.1400379439587856
0.12710710123626368 0.07532073766919456 0.133064438938644
0.12834246710387842 0.10210614115926109 0.13413139188244588
