ply
format ascii 1.0
element vertex 248
property float x
property float y
property float z
element face 0
property list uchar int vertex_indices
end_header
-0.194007341344225 0.2326161785422248 -0.18601572805378516
-0.17934214003788193 0.2268364949522895 -0.1910646139952906
-0.20248029061065873 0.22788094714268867 -0.18027341657612403
-0.1982122255157109 0.19506555035695258 -0.17982797616455634
-0.18461341090904435 0.2123743219672126 -0.19889545732472022
-0.17829317279564103 0.1639690323172492 -0.1902604579303034
-0.18154447205768784 0.22363107636555854 -0.18189536326859077
-0.20226739772068222 0.23934077456578437 -0.1907499908778437
-0.17874046095119675 0.22692637875661079 -0.20773779147598823
-0.1994348806928273 0.20436977580174628 -0.18228288286659797
-0.20907947846161087 0.23881118729695502 -0.18457001739475806
-0.19099253841148575 0.23371427491292182 -0.1943556844565638
-0.21048024721847733 0.2360314650832099 -0.18191412383053382
-0.19392712839351853 0.18807785943135444 -0.1874969183776148
-0.21270208485828598 0.23463707402333442 -0.17917828553650458
-0.18068412371383866 0.225259534865467 -0.1986775278422602
-0.18911274202572068 0.23487394288167182 -0.19913009100887855
-0.18528645165668686 0.21367894843205634 -0.19703623944256385
-0.17956223018871506 0.22690152361973945 -0.1929755985114344
-0.1909146798442479 0.24149828389271918 -0.20288476639721473
-0.19591333397136887 0.16958662107571784 -0.17822218233082374
-0.1948514325212117 0.21671985819920722 -0.18501054042313178
-0.187077466924059 0.19767289593800727 -0.19522719377014716
-0.17861576803432663 0.18959747984990302 -0.19725933962795814
-0.20358521171318253 0.22637229397877875 -0.1797624408576258
-0.20080586202846726 0.24463533595189277 -0.19383354776833137
-0.17787369020687302 0.23025619223698798 -0.1873840569827326
-0.19505362637745102 0.24705182746037666 -0.1998340218636759
-0.1859400612901326 0.21698354914769355 -0.19065802091095527
-0.20037362404571732 0.2136596961317939 -0.18368158036205848
-0.20496184058891495 0.2362712545691413 -0.18610021763775428
-0.17956932314144333 0.2301292343436164 -0.20885253244373878
-0.21377346344696244 0.24604134991749946 -0.18112740212414344
-0.18482292123542984 0.24214028552159492 -0.2095565527055033
-0.19524537451969345 0.2401751203833503 -0.19805425697300513
-0.20890270598636826 0.24834745362385932 -0.1860364406678446
-0.18416767247425278 0.23638444378956977 -0.20739266568157752
-0.18143985100494583 0.22343759968861762 -0.1783581554267176
-0.18642661400543412 0.2390934152899665 -0.20744975203011115
-0.1850945396016713 0.2055197282133979 -0.19736352854702552
-0.1885113013576146 0.2321160359679145 -0.187995436725355
-0.1783690346072789 0.22286479905232612 -0.17830273800823768
-0.20601219363914688 0.24715089037999335 -0.1887922465178736
-0.1798237455676671 0.22311376765355292 -0.20381644659969886
-0.1931473208259221 0.24438720181569282 -0.20143215650055488
-0.18921097048031052 0.22691511347874824 -0.17967613333199103
-0.20524490304695328 0.21436344817265693 -0.17894055241081794
-0.18949158914791306 0.22093289330586616 -0.18515664630863746
-0.20364952512489518 0.22185664609059516 -0.1796740024659403
-0.18974559434162339 0.19851922228917304 -0.19318640523884376
-0.18801084585891922 0.21994214490040961 -0.18741524511311133
-0.2011024398397084 0.24556248620137397 -0.19374461763832648
-0.19156443007694443 0.22700690463170234 -0.17948168807957252
-0.18702456780182083 0.225622825175373 -0.18086211675140937
-0.18703705497490128 0.21936165526494208 -0.18883720332119544
-0.19266346522079666 0.21211748555287543 -0.18732311123344977
-0.19582954474197586 0.20063971713170234 -0.18643419736359199
-0.1789546800445195 0.2138311786948127 -0.20509653085205634
-0.1836492908786412 0.22552870944127265 -0.1783785104129084
-0.19540007837520798 0.20792322590932075 -0.18628700369331916
-0.18294941313968857 0.2213537617026252 -0.193126234349943
-0.18894948490368088 0.18232315018758002 -0.190423700151182
-0.18702988751636704 0.1775895877180976 -0.19033493393395026
-0.18171236344085892 0.20104312136754218 -0.1992811142775782
-0.19407315977321823 0.18485092356785957 -0.18576461368534644
-0.19285777636276444 0.17837255433186713 -0.18454096013043006
-0.20602971740471085 0.2458935303984565 -0.18872572773430427
-0.18727417715297898 0.24251323178395454 -0.20711195760700782
-0.18603924341903885 0.22311329081639472 -0.18446301215622504
-0.18044674821602066 0.23282586768254462 -0.18622494035694678
-0.18427254684673508 0.23185365632161323 -0.1950609564158686
-0.18327773042427262 0.2334358020125312 -0.2054332672927149
-0.18874834902988633 0.18700080350026313 -0.19226217561695655
-0.19388594158397873 0.24164133504018012 -0.20008537465069373
-0.1937694890092488 0.1656555159388465 -0.17832188600037177
-0.19569348223911484 0.17482297852620307 -0.1810434489819773
-0.18536569603191574 0.17348217204198066 -0.18930289441082557
-0.18220498092876633 0.23939245179280463 -0.21149446361992438
-0.1813731087039586 0.2233483119307441 -0.20007667237255652
-0.20643693633781632 0.24483310416325751 -0.18827484839890082
-0.1859950465749379 0.2324355168639106 -0.18147087388966163
-0.1971131605695363 0.23071788981541816 -0.1806695192429789
-0.18167792685733994 0.23117493823155585 -0.20360607200596412
-0.19375130959259232 0.23439776137456123 -0.19275974029038032
-0.20246327348457535 0.21777450278386298 -0.18234387331936439
-0.1824566764424916 0.23462104037388984 -0.20822994702789863
-0.19728565641151627 0.19380664065465156 -0.18207168870899756
-0.17886609264122208 0.1660231573878211 -0.19170655601952155
-0.1965170545171376 0.21145235732182685 -0.1856051265570887
-0.1834441912959691 0.17927383616551582 -0.1945668488118418
-0.19359715708004196 0.209964386969654 -0.18706980639431556
-0.19030112453209122 0.1824973745642585 -0.18914918893311103
-0.17881134577499588 0.1761172337828559 -0.19761938148472388
-0.1869100672792073 0.2033340854941291 -0.1957599549863108
-0.18968899973140915 0.23322664931401435 -0.19486078911755164
-0.19240405090557297 0.22663777306660834 -0.17963539355728705
-0.18045594223247727 0.2397204561530036 -0.2135996549699076
-0.17972049542175492 0.11165472105130377 -0.18362812989685615
-0.19841130502926071 0.20087312892064277 -0.18296784454319556
-0.2047893000434514 0.2390667720137519 -0.18829469674561103
-0.19036844797836502 0.2476296348868293 -0.20427052968475898
-0.18526557512985428 0.22186385825261298 -0.18724760704968055
-0.1931804759095784 0.19037639334782783 -0.1888852744672068
-0.18490735121475418 0.24028634265050117 -0.20909725421402534
-0.18165246077285965 0.23338680699452583 -0.1795965015265711
-0.18929802306400498 0.206501833945362 -0.19280709618065436
-0.18386288412319382 0.24586110547169868 -0.21092443459961494
-0.18370393343673905 0.1887217088042182 -0.19601898187134345
-0.2003976149152394 0.20065670445546333 -0.17958423787090858
-0.1867134464572545 0.188546888381092 -0.1945639579865702
-0.18252873845802506 0.21786981061085883 -0.20174555772278388
-0.18245798774467667 0.2057866378127021 -0.1998645692441233
-0.1995637459348317 0.23471479848012153 -0.18834600144360145
-0.18851478822933396 0.18526249364003364 -0.19182515436146338
-0.19893117674099167 0.24670057728871528 -0.19583790296051581
-0.189848725278246 0.23406492903813544 -0.1966425209615
-0.20940998621689041 0.24227970078572456 -0.18499629491303046
-0.17963976093040665 0.17304759457692329 -0.19665146165821631
-0.20114767976509293 0.2208545728026313 -0.1822091966244944
-0.18982926436172684 0.21679275467976752 -0.18791482144329627
-0.2030633432458516 0.24672483637913886 -0.19170847826931556
-0.1865797532390233 0.17874675229176704 -0.19139887684319098
-0.1831380171369191 0.23217641547307197 -0.20195350342724402
-0.18836270697818955 0.23183619216069404 -0.17792181962463935
-0.20633943804012497 0.23534672692403022 -0.18395391398403724
-0.2106188280175801 0.23753272727116767 -0.18256749504540046
-0.18602951296077927 0.2119082732497138 -0.19417098456356605
-0.1884025228808995 0.2329227848349494 -0.19364178472492774
-0.20584762521492203 0.2258095665274543 -0.17932080024216254
-0.1954603684733983 0.22951876357182685 -0.1803221433732279
-0.19052942522274216 0.1892679257689399 -0.19120811217758735
-0.1980000478814717 0.20253717139348212 -0.18382720941040595
-0.1874470306228276 0.23755579426869575 -0.2050552397343882
-0.1887973142455693 0.19070743754491035 -0.19332933717701514
-0.20350522227989395 0.23408626750096503 -0.18489946716759284
-0.18937729724155625 0.20097493365391914 -0.19365559810135444
-0.2082070154737111 0.23060017064198676 -0.18031138473484595
-0.17787921853767594 0.1631240172682685 -0.18592354947064002
-0.20616099663482865 0.21758394673451606 -0.17816059583160956
-0.18574272521244248 0.23320990040883247 -0.19970524602863868
-0.18982120283352097 0.2118814511595649 -0.1892454355332621
-0.19225006230579575 0.23548328116521064 -0.19681370550129493
-0.20283368654953202 0.23833709195241157 -0.18953182095024665
-0.1939840806316014 0.24728166297063056 -0.20099184208843787
-0.19178361125694474 0.2324248476324958 -0.18780218356583198
-0.1967936796735402 0.1963440699873847 -0.18418149941895087
-0.19430907495723923 0.18923901751622382 -0.18726195686791022
-0.19259304233299454 0.20665656760319892 -0.18933899992439826
-0.21308841236339768 0.2423788829146308 -0.1814125507447489
-0.1856496823619481 0.23236059382542792 -0.1852478712174662
-0.18364170618759354 0.21142422392949287 -0.20000030392143806
-0.19791001506553849 0.2340875788031501 -0.18884112232658942
-0.19570079870926102 0.21507870390996162 -0.18528463238213141
-0.19301660783992966 0.19831412270650092 -0.18992591196034034
-0.19565067120300492 0.19096904233082954 -0.1848464935395487
-0.18289184995399674 0.22374831870183173 -0.18631926470730384
-0.19561635382877549 0.18793015912160102 -0.1844711332890757
-0.18368094094501694 0.22140645220860664 -0.18905276351902564
-0.1971319956372853 0.23188775017842475 -0.1844461440417536
-0.1787027759145375 0.1740015669165534 -0.1974275439355143
-0.19302721746669968 0.23273497059926215 -0.18766564422581275
-0.193792257983553 0.2033325953780097 -0.18918380433056434
-0.17871118016945084 0.22307061389073554 -0.17816302472088416
-0.1845924449752446 0.23200612500294868 -0.1945220708224543
-0.18573937245117386 0.23208337262257758 -0.18900722557041724
-0.1794565213512059 0.17982476189717475 -0.19777782553169806
-0.1877512676309224 0.17491673663243476 -0.1877033143613108
-0.19495040603386124 0.20203106835469428 -0.18779698306057532
-0.1957482887099858 0.20284395650014106 -0.18683021062347968
-0.1978002531121846 0.2176252527533454 -0.18395938271019538
-0.18551153369651993 0.21080403760060493 -0.1956238626811274
-0.2007810515950795 0.23102163508519355 -0.18161462539169868
-0.18089041538940628 0.2311714215575141 -0.1911523073289164
-0.18067364819751938 0.22619383767232124 -0.1976687341305979
-0.19922285207020005 0.24659787848576728 -0.19557577663395484
-0.1976416153501149 0.20195507243260566 -0.18420158618424018
-0.2033614856790181 0.2209795041380805 -0.179896134075857
-0.2051680726598378 0.22335415318593208 -0.17938085192177375
-0.18299450405346115 0.23166608050450507 -0.19072656625244697
-0.18722366221653183 0.194334082156269 -0.1947352021310099
-0.1781306905339833 0.24602966740712348 -0.21671283536884864
-0.20533140428768357 0.22975032761677924 -0.1804529904696711
-0.1790944082330342 0.1977367325125617 -0.1991401641938456
-0.20817488857017716 0.23566447928532783 -0.1830072432133921
-0.1928908271382924 0.17435150578602973 -0.1828912227723368
-0.1847816003154393 0.21546416714772407 -0.19694641524288733
-0.20585260220276078 0.22317063048466865 -0.17922944122288306
-0.19892436691032608 0.21660255625828925 -0.18372650736305793
-0.20423111744629105 0.23323535159215156 -0.1835250734660395
-0.19263931043850144 0.17087956503018562 -0.18135559850666602
-0.1785472822974797 0.23848818972691718 -0.2152570217225321
-0.18411298521267136 0.19928317502125922 -0.19733700448010047
-0.1831612629483815 0.2209872527419013 -0.19180786901447852
-0.18204963632332047 0.23103999331578437 -0.19838658266995032
-0.2135088188241597 0.23439531758412543 -0.1782658725354441
-0.17995565064655503 0.23309253886326972 -0.18263273232910712
-0.18315971322761734 0.2462151570616645 -0.21159586602184852
-0.19637698360191544 0.23525022700413886 -0.1924570082995661
-0.1791998190473195 0.22970693543538276 -0.19036458724472602
-0.1807491970847722 0.22590940430745307 -0.19882995182011207
-0.18654740281807144 0.2323487921057624 -0.19111846679184516
-0.19286887772785385 0.20069640114888374 -0.19025643461678107
-0.188117985207903 0.21080356076344672 -0.19254194491837104
-0.1965325964282628 0.23077993825062934 -0.18087454431984504
-0.1879791808913823 0.24084442093953315 -0.20608246618244727
-0.185211051781046 0.16582413747891608 -0.18142859929535468
-0.1791218263696309 0.21369158461674873 -0.2049670844647654
-0.18121673591839035 0.22786664202794257 -0.1995489626500376
-0.19705726631389817 0.1977200432120246 -0.18424713903400977
-0.19919006951557358 0.22165470555409614 -0.1822709470364817
-0.19183247216449936 0.19992517665013496 -0.19140310877297004
-0.20882153936134537 0.22755592301472846 -0.17826916569206794
-0.1874857736419316 0.23987197116002265 -0.20635383122894843
-0.19529773720012863 0.22954606249913398 -0.1803052007529505
-0.20111863740192612 0.23679142430409614 -0.1902963548276194
-0.1962138009856816 0.247922412901966 -0.19856381708118995
-0.21263000794159134 0.2444230838118476 -0.182129222092367
-0.18085799046264847 0.18390022948369208 -0.19682327204678138
-0.1841325355361577 0.23208831980809394 -0.1906845747802027
-0.20624459214912613 0.23894803956135932 -0.18727031641933997
-0.18295291491256913 0.24638425543889228 -0.2118199645850428
-0.19353297777878006 0.22266780570134345 -0.1831089585397013
-0.1971603525470372 0.23769836857899848 -0.1949524610612162
-0.18814246781574448 0.22291021779164497 -0.1843921422335871
-0.18027985521064957 0.22927903369054023 -0.20688543015453895
-0.18998626299606522 0.22562050059422675 -0.1810833840939768
-0.20121878810630997 0.2114350123701972 -0.18269543641541083
-0.19718501396881302 0.18896620705708686 -0.1799268900725611
-0.194445271570551 0.20770543053731147 -0.187123957214094
-0.18015440233455857 0.22260069087132636 -0.20208761387798865
-0.1798854512761708 0.22750680878743354 -0.2062315672013529
-0.18418065138565262 0.21847038701161567 -0.19529497915241797
-0.19603027828441819 0.17557608321294013 -0.1809584378573664
-0.215261642415392 0.24111466839894477 -0.17907549732658942
-0.18097195454345902 0.23284565642461005 -0.18351522379849036
-0.189633179981577 0.17006563380345527 -0.18265733414623816
-0.20163619943367203 0.24473970368489448 -0.19302729063961585
-0.21171665616737564 0.23409926131352607 -0.17977756553623755
-0.19259383209453781 0.23804765179738227 -0.20024422102902015
-0.18796870537506302 0.1687600536642951 -0.18241809600327094
-0.1983856601308461 0.20614831879719916 -0.1840092270943888
-0.1813178850005742 0.22477262452229682 -0.1939315676066645
-0.1977433157752629 0.17456441357716743 -0.17807230645153602
-0.18370083399521073 0.21086036398991767 -0.1998004048440226
-0.17945321329342087 0.20885770753010932 -0.20338683122131904
-0.18035977013813217 0.2237571401892585 -0.18540281349155982
-0.19631211884723862 0.18392723038777534 -0.18243673735592444
-0.18020621367202957 0.2285095973311347 -0.19422114187214454
