ply
format ascii 1.0
element vertex 245
property float x
property float y
property float z
element face 0
property list uchar int vertex_indices
end_header
-0.17188027926193436 0.10559432938679876 -0.1520553707453974
-0.1716924948285695 0.10614433124646368 -0.1518798052642115
-0.1709200782369252 0.10954611733540716 -0.14980417781803687
-0.1672875327657338 0.10880895689114752 -0.1527115433785685
-0.1759247524331685 0.10900025799855413 -0.14965933853123267
-0.17767577298389634 0.1062009556590003 -0.15167326026890357
-0.17332330771194657 0.11059897378071966 -0.149230349001623
-0.16571718879448136 0.10806941226109686 -0.15345180326435645
-0.17620513268219193 0.11112522318944158 -0.14868358069393714
-0.16732395120369156 0.11285155251607122 -0.15158465796444495
-0.1656536204408284 0.11156868174657049 -0.15304288559887488
-0.16329077311264237 0.10564186409100713 -0.15440482192967017
-0.17323832638965805 0.11442898944005193 -0.1485712855431803
-0.1669067633937474 0.11457636192425909 -0.15136093193028052
-0.1693200958560582 0.11644061639889898 -0.14993129962418159
-0.1616359693597432 0.10938408210858526 -0.1555792271468409
-0.16607536800609787 0.11582984760388555 -0.15193467133972724
-0.1677937550138112 0.11690597966298284 -0.15096374147865851
-0.17251879401909073 0.11750661566838445 -0.14833355241749366
-0.17521560617195328 0.11698158815488043 -0.14725013369057258
-0.15935711987720688 0.10705985859021368 -0.1568694143864878
-0.15876838989959915 0.10743235781773748 -0.15727398091290076
-0.16173714824424942 0.11490141585454168 -0.15671861463520606
-0.165971909243929 0.11895250514134588 -0.15320065909359534
-0.16328639217125138 0.11720635727032842 -0.15603013628456672
-0.1736051780770894 0.1204463763533515 -0.14750747674439033
-0.17016207106815537 0.12087043359860601 -0.14923554950687964
-0.1584386123012181 0.11122696831807317 -0.1578983097646006
-0.1604423565457936 0.11491190627202215 -0.157597470221258
-0.17021102138267716 0.121173225194065 -0.14914031618568976
-0.17778091557728012 0.11953371003255071 -0.1462107627961405
-0.17359462805496415 0.12134449914082708 -0.14743095928165992
-0.1774525684903737 0.12055667474850836 -0.14604458504650672
-0.16580035217510422 0.12140317991360845 -0.15477104776833137
-0.1660045576881047 0.12168382838353338 -0.15471655422184546
-0.17717999644981583 0.12123050525769415 -0.1459663688514002
-0.15647526510463913 0.10867892935857 -0.15998469584915717
-0.17199193366275986 0.12327413991078558 -0.1480358123156794
-0.157945249755251 0.11477883890256109 -0.1596264123294123
-0.15840974875198563 0.11585798099621954 -0.15939759009811957
-0.15977277286754807 0.11777337625607671 -0.15962055617306312
-0.156022180397379 0.11094670727833929 -0.1609660267207392
-0.1580288601707097 0.1160688026247901 -0.16004848772022803
-0.16951467521892746 0.12470408514126959 -0.14987792366478522
-0.16589530237423142 0.12358876302823248 -0.15765774541828712
-0.17587297089801987 0.12392621472462835 -0.145691233811117
-0.1697664750407811 0.12534841135129157 -0.14982016676399787
-0.15834087558494767 0.11758508518323126 -0.16079144471619208
-0.16677077539669236 0.1254667563734931 -0.15685177141163428
-0.15426974423633774 0.10756259396657171 -0.1635537176701792
-0.1659009499143239 0.12492128446683111 -0.1592921494815119
-0.16422063537346085 0.12370588615521612 -0.16109669500324805
-0.16064012475715836 0.12122171357258978 -0.16280611151192267
-0.17540240712867936 0.12634687855824653 -0.1453657179448374
-0.17455174453960617 0.12679442003354255 -0.14589996927712043
-0.16159759886966904 0.12242197230443182 -0.1631656914326914
-0.15464967914329728 0.11446704700574102 -0.1638344257447489
-0.1538687539886113 0.1119372768698615 -0.16443184309933265
-0.16923830338226517 0.1282654030619544 -0.15273011022541602
-0.17591193743454178 0.12698446944340888 -0.14480763965580543
-0.1670366270135518 0.12741201356038276 -0.1579639493796595
-0.15475176699863633 0.11552893355473699 -0.1640458881232508
-0.1570551884959813 0.11939557626828375 -0.16386285716030677
-0.17154413886772354 0.12899505332097236 -0.14946203225586494
-0.1634660405706044 0.12416886523350897 -0.16459964507553657
-0.17396930285202225 0.1289840562640113 -0.14721282118294318
-0.1527591986249562 0.1046024186907691 -0.16682569974396308
-0.17465544172035416 0.12895803883656684 -0.14625665837261756
-0.16322859056698044 0.12430869773015203 -0.1648960440728434
-0.16046642192112168 0.12345700696095648 -0.16472302669022162
-0.16614354081855973 0.1280050797758979 -0.16250245564911445
-0.17239255138145645 0.1310154421626014 -0.14931497269604285
-0.1658570957969304 0.12817435696706 -0.1641766458127268
-0.15179036982761582 0.11158224180325689 -0.1680221288773783
-0.17028895445572098 0.1321552319823188 -0.15477280610535224
-0.15152486093746384 0.11459528639897527 -0.16716246598694404
-0.17555991240249832 0.13128819301709357 -0.14491346770260413
-0.1685334486554738 0.1314997895060462 -0.15940444463226874
-0.15349108405815323 0.1201266570387763 -0.16580263071987708
-0.16141438909279068 0.12624993160351936 -0.1668104111525782
-0.1695855451415654 0.13263934090718452 -0.1575138896081217
-0.15095501073108872 0.1145213468371314 -0.16793175333473762
-0.16654479928718766 0.1302253527937812 -0.16441867047283729
-0.1715553594421025 0.1336895747481269 -0.15264617198441108
-0.16826931067215165 0.13165163233861152 -0.1621266483638056
-0.17064997978912552 0.13351335361584846 -0.15586024814579566
-0.1754616094421025 0.13270773723706428 -0.14498655789825995
-0.16434264608131607 0.12853854134663764 -0.16703279608223517
-0.15218854375587662 0.10546096399411382 -0.1725488930318125
-0.15032948978649338 0.11176287367924871 -0.16959907406303962
-0.17756222613559922 0.13194634750470344 -0.14245514863464911
-0.17288667388664444 0.13398223355397407 -0.148524063763357
-0.1539024455140706 0.12278478577717962 -0.1664829581353434
-0.1503839535306569 0.1081618292628211 -0.17151175731155952
-0.15026522107826432 0.10852723553761663 -0.17193840735886176
-0.15503271349178513 0.12480076387509527 -0.16687315994236548
-0.16658863850341996 0.13147085145100776 -0.16613064998123725
-0.15056807227836808 0.11860191062077703 -0.1686504214379557
-0.15750669368015488 0.12736254170521918 -0.16730068915817817
-0.17562860675560196 0.13488399222478095 -0.144784930286146
-0.14991105027900894 0.10979916885480108 -0.1727622925612696
-0.17251703568206986 0.1361874265967292 -0.15245166712734778
-0.1544067008088704 0.12590476110562507 -0.16721210175488074
-0.15150203235851487 0.12308707073315801 -0.1678145855042704
-0.17196548410164078 0.13544373944386665 -0.16137717956039985
-0.1726733637641545 0.13660224512204353 -0.15748592012856086
-0.14994028635727127 0.12014161780461492 -0.16946429306004127
-0.16909811325775345 0.1344713790713233 -0.16481831961605628
-0.1770887864421483 0.13561721876248542 -0.14317031496498664
-0.1511800778697606 0.10612549617871465 -0.17631742650005897
-0.17469913192497452 0.13716553881749335 -0.14645754092667182
-0.17342329450355728 0.1376217229662818 -0.15675594204399665
-0.1713892263959523 0.13522314265355292 -0.1657073675963648
-0.1718995762656804 0.1348233146963996 -0.16656884842846473
-0.17351448961006363 0.13599329426869575 -0.16458711319897254
-0.17277758248554428 0.1346402092276496 -0.16759941273663123
-0.17101127334343155 0.13225971892461005 -0.17143942707512458
-0.14855693705784043 0.11250456407651128 -0.17434011691544135
-0.17287530430065354 0.13446503117665473 -0.1681355118129023
-0.16836840339409073 0.13373916581258002 -0.16950190359089454
-0.17478739150272568 0.1371712608633918 -0.16264914267990668
-0.1740648788999196 0.13841628268346015 -0.15954467946026404
-0.1499804449866887 0.1082926316557807 -0.17770119303200324
-0.1483377856801625 0.120070211440174 -0.1715803324553736
-0.17467411287533005 0.13441925480946723 -0.16961761110756476
-0.17699489422546585 0.1299276871977729 -0.1751947432133921
-0.15833655424820145 0.1312678082285804 -0.16974820488426764
-0.1746434909890767 0.1394270880518836 -0.1488837628934153
-0.17776823468910416 0.1329549475012702 -0.17159261101219733
-0.17424986191498001 0.13870932891949836 -0.16002065235111793
-0.14782561786876877 0.11816220715626898 -0.17281453603241523
-0.17509024270282944 0.129249237328617 -0.17651464336845954
-0.14975585468517502 0.1249789519606513 -0.1695547729108103
-0.16302535362945755 0.13290574386700812 -0.17086905532810767
-0.1746294242929097 0.13059442475423041 -0.17548275285694678
-0.17438595422016342 0.13897546365842048 -0.159905198154188
-0.17404875584350785 0.1399001105128211 -0.15364657634232123
-0.1717467499564763 0.13077940776929084 -0.1755464404198893
-0.17734264262424668 0.13537075355633918 -0.1690888285014399
-0.14752336271511277 0.11877020433530035 -0.17309859686825355
-0.1729611349891301 0.12950169280156318 -0.17756508582565864
-0.16881257720695694 0.13241397574528876 -0.1744230567786463
-0.16790351696716507 0.1340247614680213 -0.17241169804070075
-0.14841366239296158 0.12393014863118353 -0.17127982073757728
-0.16112326510654648 0.13374777868375007 -0.1718639611575373
-0.1473055673431035 0.11623653009518804 -0.17625755363438209
-0.17755689151989182 0.13907053306683723 -0.16499261849854072
-0.17616068251835068 0.14041220381840888 -0.16167418950531562
-0.17515176959739884 0.14207556083783332 -0.15188893967602332
-0.15083340235458573 0.12961345151051704 -0.17031635635826667
-0.17668520339237412 0.14246933892354194 -0.1461996465298899
-0.17559574969516953 0.14323934152707282 -0.15294726484749396
-0.1530859810899373 0.13252010181531135 -0.17089106434319098
-0.1516065789054509 0.1317364199458045 -0.17050622695419868
-0.14958939381347855 0.12945189312085334 -0.17127478414509376
-0.15720215864883622 0.13465999796971503 -0.17155689292881568
-0.16667309828506668 0.13439687326535407 -0.17628762417767127
-0.149998609502184 0.1303299887476844 -0.17119732790920814
-0.14611457713352402 0.11985497906789007 -0.17669114762280066
-0.16139805742012223 0.13619255259617988 -0.17385527783367713
-0.16203625925289353 0.13620915248974982 -0.17418414646122535
-0.17593257554279526 0.1444918437300605 -0.1522585629794367
-0.17773200996624192 0.1432250960169715 -0.1616378753754862
-0.16469626553760727 0.1359909696875495 -0.17605488294098456
-0.14575113781200608 0.12146591380223455 -0.17731090181801398
-0.17687908240066727 0.1447228713332099 -0.15872770839665015
-0.17643742688404282 0.14535804823025886 -0.1482767789933451
-0.1456241948197957 0.12594818308934394 -0.1749556987855204
-0.1623090548108693 0.1373763902483863 -0.17501949065659125
-0.14925975032554825 0.13225831821545783 -0.17226849788162787
-0.1454928708861943 0.12381114795788946 -0.17663736933205207
-0.15998089738594254 0.13737820819005195 -0.17417326861355384
-0.1458581132482167 0.12719922497853461 -0.174362766680456
-0.15406836994396408 0.13610707953557197 -0.17230882042381843
-0.15764537878738602 0.1372545881567878 -0.17368926399681647
-0.1545210225175496 0.13652314975842658 -0.17244191759560187
-0.17683096655117234 0.1461891753970069 -0.158133718309141
-0.17740105517612656 0.14616631701573554 -0.14567135566208442
-0.1759864730428334 0.14689966276272956 -0.15406893485519965
-0.14609653182731827 0.13028388455495063 -0.17466078990433295
-0.15132570691810807 0.13679011896237556 -0.17303504341576179
-0.15811162121998032 0.13942962124928657 -0.17461510294411262
-0.1761177671741124 0.1484464927016181 -0.15413791233036597
-0.17722046800361832 0.1482384426890296 -0.14758694463703712
-0.1765108449052449 0.14870121315106574 -0.15652339452240546
-0.14910382457481583 0.13646923735722724 -0.17357398861382087
-0.16128045745598038 0.14093016818150703 -0.17657976144287665
-0.145334262926447 0.1330249531565589 -0.17532426410648902
-0.17721936531768998 0.14958306387051765 -0.15934968286488135
-0.17756623454796036 0.15021380022153083 -0.14755301469299872
-0.17683667369590958 0.15017955735310737 -0.15802268975708564
-0.1570687336515065 0.1420015020666999 -0.17555496388409217
-0.16106321342693528 0.14236088827237312 -0.17732909613583167
-0.14787561126457413 0.1385164184866828 -0.1746260701987513
-0.1455892963002797 0.1363344116507453 -0.17520360940430244
-0.15118842252002915 0.14093222454175178 -0.17455430620644172
-0.17660031147705277 0.15206932261571113 -0.151084619698263
-0.14747545548187455 0.13871728613957587 -0.17477914982769568
-0.15453033574329575 0.14315130546673957 -0.17545165413353522
-0.15542824991451462 0.14357405140980903 -0.17574471527073462
-0.1546670538972493 0.14398359492406074 -0.1756771981093653
-0.1762875212024327 0.15402134492978278 -0.15242527717087348
-0.1766825509856816 0.15393235519513312 -0.15832834237549384
-0.17679265566574295 0.1546766979990882 -0.14934361272785743
-0.17777423985706528 0.15388529732808295 -0.16211954050991614
-0.15903774328933915 0.14649187758549873 -0.17759137147400458
-0.14697215386139115 0.14269702866658393 -0.17610003345940192
-0.14358365960823258 0.1400870902834815 -0.17721370154354651
-0.17715448566185196 0.15615539982899848 -0.1610897957656153
-0.15811911650406082 0.148373149186222 -0.17762907141182502
-0.17729306646095475 0.15589433148488227 -0.16306852096054633
-0.14919282921062668 0.14552994802579108 -0.17636426084969123
-0.1474935156892415 0.14456003144368354 -0.17633265548679908
-0.14500372536884507 0.14264895752057258 -0.17709034973118384
-0.1544006360362645 0.14870672658070747 -0.17654340260956367
-0.156239186007845 0.14923065140828315 -0.17706831091377814
-0.15404330619083603 0.14880876973256293 -0.17650200718376716
-0.15919717081295212 0.14994447663411323 -0.17775465839836677
-0.15892143972622116 0.1500310225783271 -0.17767089897129615
-0.14702883787857254 0.1462742312251014 -0.17694555514786323
-0.17529870994793137 0.1592119260130805 -0.15550785058472236
-0.1752049220393773 0.15948163703068916 -0.1552991896245249
-0.17655575700508316 0.15988542869672004 -0.1506503700587519
-0.1717646611522313 0.21846049264058295 -0.17510786944363196
-0.15846735664116104 0.17929183676823798 -0.17153135233852942
-0.16870141454445084 0.1596612556277198 -0.17716248625252326
-0.17116888292537888 0.17088561490163032 -0.16038845771286567
-0.1675953460525151 0.19048827126607124 -0.16430396133396705
-0.16116883285747727 0.16499485805615607 -0.17278971069786628
-0.17436117358909806 0.16570117309674445 -0.15784181946251472
-0.16751596756683548 0.19222097828969184 -0.16457690590355475
-0.16751596756683548 0.19222097828969184 -0.16457690590355475
-0.16741837986217697 0.20636539891347114 -0.16742880934212287
-0.1705637765716191 0.17427664235219184 -0.158980908927656
-0.15519175358520707 0.17288958266362373 -0.17426993244621833
-0.1727058631967183 0.16285621359929267 -0.17186482542488654
-0.15667167731033524 0.16296061113461677 -0.17453746789429267
-0.16090663202511032 0.19291769698247138 -0.17305130058262427
-0.14989403315292557 0.16708438828572456 -0.17744756036732276
-0.1650723261426564 0.19069581463917915 -0.166452872690893
-0.17518122919307907 0.22184693053349677 -0.17294436984989722
-0.17631486483322342 0.174735955744831 -0.15343709581825812
-0.16993533499942978 0.1632298453150672 -0.17330840521786292
-0.1505050254653569 0.1599928362666053 -0.17672169500324805
-0.17500468023525437 0.22023444607838813 -0.17071602040264686
