ply
format ascii 1.0
element vertex 638
property float x
property float y
property float z
element face 0
property list uchar int vertex_indices
end_header
-0.11648668773876389 0.3122047109900397 0.25411712831523336
-0.11621813901172837 0.31822334960087956 0.25390058464076437
-0.11745453305946549 0.3150797410307807 0.25356423563029684
-0.11476074584232529 0.25485556557759464 0.25470983690287985
-0.11623636313186844 0.2541254086790961 0.25396871274974264
-0.11301410623298844 0.25235240891560734 0.25590341991450705
-0.10331872530685624 0.24878459408864204 0.26091551488902487
-0.10370621510254105 0.25409435465916813 0.26024776405360617
-0.1015872848819371 0.24913286402806464 0.26163243955638327
-0.10183646209942063 0.2540219946204108 0.26104342645671286
-0.11096801288830002 0.254261843710987 0.25684219306971945
-0.10820988245712479 0.2558809442816657 0.25813144153621115
-0.11067498155342301 0.2503630442915839 0.25736486619975485
-0.10898761876331528 0.25275444224461735 0.2580109805491201
-0.09959459729896744 0.2517107053099555 0.2620210618403188
-0.10049905307995041 0.2510610146819037 0.26181459135081686
-0.09579576977001389 0.25181203320607365 0.26274877494838156
-0.09550555475460251 0.250308088809101 0.262735125484728
-0.09486370213733872 0.24860685303792182 0.26277905410792746
-0.09444930084453781 0.25358372166737736 0.26302641338374533
-0.09180368908153733 0.2529885096846503 0.26343083089854635
-0.0893776012252446 0.24909841254338447 0.2637963861849538
-0.09056976862655838 0.25418298676594914 0.2636819452669851
-0.1162282419990178 0.2623690886794013 0.25360268062617697
-0.11446816154228409 0.25908660128697575 0.25467443174388327
-0.11221646197544297 0.26038943961247624 0.25586926645305075
-0.11319305427776535 0.2701725883780402 0.25527852481868185
-0.11544643767582138 0.2701841516791266 0.25394886440303244
-0.1147663039754506 0.266313366442768 0.25438964075114645
-0.11251561768757065 0.2727396412192267 0.2557235330965749
-0.1131108445714589 0.2713463230429572 0.2553350300219289
-0.1144434256147023 0.2830727620421332 0.2542977899935476
-0.10479000635849198 0.26000427439793766 0.2593876094248525
-0.10707058437572678 0.2581184430418891 0.25855582660701193
-0.10222711094127854 0.26172732546910465 0.2603472442057363
-0.10941024549709519 0.2608192487059516 0.2571915954973928
-0.11062643357025345 0.2609636111555976 0.2566155762102834
-0.11079848237739762 0.2574807329474372 0.25664192146327414
-0.10864696331726273 0.2581856770811957 0.25773566669490255
-0.10406832822071274 0.2685573025046271 0.2596545786288015
-0.10220699437366684 0.2632679267226142 0.2602719039347402
-0.1038756413053151 0.26681791976079167 0.25963407463099875
-0.1102336985658284 0.26761602595433415 0.2568982214358083
-0.11167389579521378 0.2686697764693183 0.25613933509852804
-0.10942666657673081 0.2655898852644843 0.2572441667940847
-0.10511698253856858 0.2728022260962409 0.25950568622615255
-0.10292366572128495 0.27578138545140446 0.2604417175677053
-0.10440263577209671 0.2718200011549872 0.25971281236674704
-0.11094929702984055 0.27411627009495915 0.2566754192736379
-0.11053519376026352 0.27363794282063664 0.2569043607142202
-0.1076070112775441 0.27141862347706974 0.2583924502756826
-0.10867606528507431 0.27096395924672306 0.2577905029680959
-0.10353674419628342 0.281649105101673 0.2602883548166982
-0.10297602840172013 0.2771233244238776 0.26047163909938253
-0.10193185933338364 0.27721231415852726 0.2608398765948049
-0.11062668688999375 0.2831122799216193 0.2567048043635122
-0.11161832936512192 0.2789134307204169 0.25630396312739767
-0.10723732836948593 0.2837411089239997 0.25855582660701193
-0.10763597913490494 0.27888714507207096 0.2585702509310476
-0.09757709928261002 0.2615206761656684 0.2618135780718557
-0.10040514596210678 0.2561812920866889 0.26130628294017233
-0.09931554325329026 0.2570967598257941 0.26157962984111227
-0.09571829863296707 0.2560509367285651 0.26276480859782614
-0.09800576098667343 0.26827334597691715 0.26141178316142477
-0.10003960557686051 0.2633368892966193 0.2609558672335378
-0.0975531829188939 0.2647969050703925 0.2616449565317861
-0.092452604849207 0.2624925298987311 0.26301711505916037
-0.09224647708641251 0.26008742287739933 0.2632454604532949
-0.09171964653240403 0.2565176410971564 0.26352268165614523
-0.08981582947479447 0.2581639213858527 0.26377963727977194
-0.09429015644298752 0.2685968203841132 0.26235931819941916
-0.09530641563640793 0.26461296513661564 0.26230221694972433
-0.08985723980175217 0.26665597394093693 0.2634301752474538
-0.09382054634796341 0.2630605025587958 0.26268535560634054
-0.10075805016266068 0.275349490195362 0.2610580891993276
-0.09579956956611832 0.27042245104893864 0.2619552583124868
-0.09692965872989853 0.2742621226607245 0.2617161244776479
-0.09848317929016312 0.2823350353537482 0.2615923852350942
-0.10143892892109116 0.2774551434813422 0.26100468343760885
-0.09798723884330948 0.27935170367345036 0.2616481155779592
-0.09919208713279923 0.27914749816044987 0.2614350289728872
-0.0941775930713292 0.273798398524372 0.26229440874125876
-0.0911253286193486 0.2728850765524787 0.2629726499941579
-0.09029776283012589 0.27352332308873356 0.263151225509905
-0.0951405955146428 0.28227316573247135 0.2622061938669912
-0.09277874656425675 0.2821146173773688 0.2626574010279409
-0.09230483003364762 0.2778346462546271 0.26269072002437033
-0.09287776478038987 0.27783339455708683 0.26257711357142843
-0.08796951599823197 0.25208794310673893 0.2641684383776418
-0.08717367478119095 0.25540875628575505 0.26441877788569845
-0.08451408572899063 0.25166820719823063 0.2652194470789663
-0.0876700771640416 0.2500564379988593 0.2642534942057363
-0.07921067305313309 0.24877994492634956 0.2671502799418203
-0.07487582095371445 0.25558119252309025 0.26835989660289206
-0.07732357509838303 0.25660502150639714 0.2675379485514394
-0.0753053618262883 0.2503098173437995 0.2683484525110952
-0.07585980423198899 0.25100015833958805 0.2681660622980825
-0.08174421318279465 0.25374840930089176 0.26612078851725973
-0.08283906110035141 0.25540321305379093 0.2656158179667226
-0.0796308559964772 0.2515880985556525 0.26694082922007956
-0.080722246844637 0.25197672083958805 0.26655643886592306
-0.07085591979728897 0.24867247775181953 0.26958620256450094
-0.068481777388918 0.2568196578322333 0.27009308046367086
-0.07140765019165238 0.2572408242522162 0.26930254406001486
-0.07149354048477372 0.2500839753447455 0.2694339723017446
-0.07167800195919236 0.24991159871205512 0.2693923682596914
-0.06389669008957108 0.24844979479893867 0.27143662876155294
-0.06303316779838761 0.2568243665991706 0.27165001338984884
-0.06387567945228775 0.2559553308783454 0.27139031595256247
-0.0646256548951741 0.2502150459586066 0.2711470097925893
-0.0605222625325795 0.25005196765050114 0.27249747222926535
-0.0649117273877736 0.24976395800694648 0.2710606426623098
-0.0875741583894368 0.26101743414982975 0.26427542871501364
-0.08865207858787735 0.2586085720358771 0.2640512556460134
-0.08436055906521042 0.2598951382933539 0.2651455373194448
-0.08870363660560807 0.2658320589362067 0.26379972404506125
-0.08943614788757523 0.26839780047520817 0.2634914488222829
-0.08560641535030564 0.26519476607426823 0.264785644474291
-0.08523256011711319 0.2680995984373969 0.26489954895045675
-0.07784615882145127 0.2644725961981696 0.2672424883272878
-0.07810549863086899 0.2621152324973029 0.26719051307704367
-0.07454234786735733 0.25829046204671086 0.26839142745997824
-0.07927681930767258 0.2643511815367621 0.2667653531458608
-0.08250645228134354 0.2606314344702643 0.2656853765871755
-0.08300506003605088 0.2566535992918891 0.26548790639903463
-0.07879093714462479 0.25819962456807316 0.2670186728861562
-0.07679945655571183 0.269825808554737 0.26764303154017843
-0.07467402942882737 0.26499318316563786 0.2682754964258901
-0.07406942971454819 0.2663506193457526 0.2684881657984487
-0.08089016803013047 0.26952212288960636 0.2663156361010305
-0.07972392864929398 0.26469456389531315 0.2666321963694326
-0.08004029520260056 0.2672154827414435 0.2665708631899587
-0.08723660238491257 0.2769755645094794 0.26396590179469503
-0.08964114316211899 0.2761562390623969 0.2632553548243276
-0.085510585982668 0.27405934765919865 0.26459681695964254
-0.08926341362701615 0.280883245020954 0.26334964937236227
-0.08550669677959641 0.28451841309651554 0.26429569429423727
-0.08732243307338913 0.2789533658324164 0.26388573354747213
-0.08552143402801712 0.28370290234669865 0.26428341573741354
-0.07681012578712662 0.27394288018330754 0.26765244907405294
-0.07354350813137253 0.2724960966406745 0.2687134713556997
-0.07650153763996323 0.27296095326527775 0.26775729364421286
-0.08263497479664048 0.27482568457707585 0.26560586399104513
-0.08252813347088059 0.2732066436110419 0.265714702072405
-0.08006094821201523 0.2751525564490241 0.2665616244700185
-0.07719144650207718 0.284080438166706 0.26742189830806173
-0.07629800267921646 0.28240280583485783 0.26781594461467184
-0.07717173226581772 0.27877794936284245 0.26753061718013205
-0.08025910385357102 0.2833877129851264 0.2662468523409597
-0.08008259959922989 0.2837953491507453 0.2663035363581411
-0.08356672950493058 0.2778887076674384 0.2651203841593496
-0.0799663109372731 0.27889012530430973 0.2664803237345449
-0.07098529167877396 0.26065152123555363 0.26932942575480856
-0.07280505128608902 0.2618310971556586 0.2688586682703725
-0.07151979633079728 0.25838934615239323 0.2692432970431081
-0.06931367941604813 0.26253657773122013 0.2697258562472097
-0.07081270642982682 0.26877956822499455 0.26930641836192526
-0.0725311828445073 0.2675566001234931 0.2689009279635183
-0.06773186155067643 0.2679125590620917 0.27007102674510397
-0.07002255745636185 0.2683309240637702 0.2694935173418752
-0.06579199858413895 0.26283758118733586 0.2706907362368337
-0.06196007557617386 0.2639230413733405 0.27176242774989523
-0.06104085274444779 0.2621140404044074 0.27207940525081076
-0.061390165765153965 0.2599656505881232 0.27204018539454855
-0.06705850787864884 0.2696462197600287 0.27018809026744284
-0.06744340487228592 0.27123575642689884 0.2701080412295095
-0.06335911579834183 0.26573871806248844 0.2711889118578664
-0.06475303002105912 0.266610316783039 0.27069890207316794
-0.07096982427345475 0.2771269603072089 0.26935630744960226
-0.07196917064892014 0.27530794575795353 0.2691091269877187
-0.06739449926124771 0.27527057364567936 0.27019560045268454
-0.07245482929455002 0.2794548197089118 0.26906710571315207
-0.0729060960601445 0.28108566239461125 0.26898359960582174
-0.0675798101018544 0.28236346676930607 0.2705478639033071
-0.06732923217521866 0.2805788441000861 0.27046030468013205
-0.066960279424059 0.2734417839346808 0.2702235550310842
-0.06442326732383927 0.271669857054798 0.2706403107073537
-0.06438956089721878 0.2721989078818244 0.27065288728740133
-0.0666364473889943 0.28018515542134464 0.2705807656672231
-0.0655678255151387 0.28250085547551335 0.2709948987391225
-0.0666449112485524 0.27851127818211735 0.27042537635829367
-0.06146720476852616 0.2819203658400458 0.2717179626848928
-0.11308208533035477 0.2911149783430976 0.2548910946276418
-0.11354552634464463 0.2885928077994269 0.25470399564769186
-0.11466655560241898 0.2851332946120185 0.25407135194804586
-0.11489253171192368 0.2948504610358161 0.2536001176264516
-0.11283852585064133 0.2956930918990058 0.2551054925348989
-0.11296944745289048 0.30168723300084294 0.25510054534938253
-0.11350888438926895 0.3026343508063239 0.2547235459711782
-0.11419266887413224 0.31196432545766056 0.25514727539088644
-0.11463739402996262 0.3077561779318732 0.25458943552043356
-0.10726757772670945 0.29035883381947697 0.25866502231624044
-0.105333943445551 0.28472667172536076 0.2593551248934499
-0.10385398991810044 0.28635578587636173 0.2598950833704702
-0.10936439462410172 0.29028885796651066 0.25741624540355124
-0.11094911821590622 0.28978579476460636 0.25639217800166525
-0.1090997052978154 0.2880440278349799 0.25761896080043234
-0.10929763742195328 0.2856748028098029 0.2574366897967092
-0.10604763456093033 0.2961274905501288 0.25888371175792135
-0.10255547292934616 0.29187750056370915 0.26018845743205465
-0.10370654292808731 0.2931710405646247 0.2597686619189016
-0.11032979615436753 0.2950339837370795 0.2566381067660085
-0.11034177668796738 0.29482948020085514 0.2566291064646474
-0.10926522739635666 0.292411736994831 0.2573962182429067
-0.10522683389888962 0.3046785517035407 0.25943517393138327
-0.10646810062633713 0.3002094550429267 0.2587186664965383
-0.10676856764064988 0.29932331278905094 0.25856202549006857
-0.11028558440910538 0.3037837667761725 0.25691312259700216
-0.11095080204712113 0.3006897492705268 0.2564617962267629
-0.10775720008121689 0.30342554286107243 0.2584510416414968
-0.10895900853382309 0.300839893370716 0.25759154266383566
-0.10319835372673233 0.3115941210089606 0.26061808771159567
-0.10358658858047684 0.3074380083380622 0.26020127243068136
-0.10558392532573899 0.30621277526005924 0.25943308776881613
-0.11189015634762009 0.30974774792775334 0.2560728163149587
-0.10800536401973923 0.3107452316580695 0.25840776866938986
-0.10843047924743851 0.3073543830214423 0.25813752120997824
-0.100378949720728 0.2910458369551581 0.26069128221537985
-0.10036212630974015 0.28826772406682194 0.2608941168215505
-0.09752764232860764 0.28423356249913395 0.2617480725672475
-0.0979399574588414 0.2874036355315131 0.26143407529857077
-0.09975102968918045 0.29774772360905827 0.2604871959116689
-0.10039738245712479 0.29707997277363957 0.26040422624614157
-0.09958249755607804 0.29393815234288395 0.2606795997050039
-0.09815462358699997 0.292017392664997 0.261067268314623
-0.09429511852966507 0.287109367400257 0.2622323603060476
-0.09089795180069168 0.2913653178511542 0.26270645565059103
-0.09073362179504593 0.28943365052327336 0.2628501624491445
-0.09216645785080155 0.2872418089209479 0.2626709312823049
-0.09440489538418015 0.29565750792607487 0.2617052764322988
-0.09615999885307511 0.29779576495274723 0.26115393346812643
-0.0955472482036229 0.2922161741553229 0.26160537904765524
-0.0922692609618779 0.2957088275252265 0.2622158498194448
-0.10156548448311051 0.3054683132468146 0.2604952425387136
-0.10055931337581833 0.3038642330466193 0.2605181903269521
-0.09994289704071244 0.2993015570937079 0.2604288429644338
-0.1003799182962056 0.30800794795140446 0.26077872222926535
-0.1012738985608693 0.3118836207686347 0.26128273910548605
-0.09600532479988297 0.31076913312062443 0.26138400739695944
-0.10064332612262925 0.30650728180989445 0.260651168289446
-0.09441672690616806 0.3048790617285651 0.2615185350802175
-0.09538294800029953 0.303624681979267 0.26129483884837545
-0.09241171606289109 0.3020278735457343 0.26196092075374044
-0.09485243685947617 0.30085789397343815 0.26137745088603415
-0.09644227154957016 0.30680256322011173 0.26112961477305807
-0.09526607819305619 0.3072504921255988 0.2613743514445058
-0.09281079896198471 0.30846064522847355 0.26191806501414694
-0.09056069381939133 0.3092558903990668 0.2624110550310842
-0.11119461484657486 0.3184811396895331 0.2563824028399221
-0.11386123724685868 0.31552546456441105 0.2552135557558767
-0.1134111625741597 0.31441055968388737 0.2555111617472402
-0.10777715273605545 0.3235662503539008 0.2552040190127126
-0.1117702467034932 0.3221577925978583 0.2544304699328176
-0.11091940530048569 0.3198617024718207 0.2558357090380422
-0.0996358735154744 0.32578419879063786 0.2547038764384023
-0.09043448098407944 0.32629793122395695 0.25418787902858175
-0.10359536536442002 0.3164801521597785 0.26036190694835104
-0.10142054088817795 0.3134583754836005 0.26128416961696066
-0.10536095925079544 0.3133150263129157 0.25977742380168356
-0.11005427368389328 0.3168787284193915 0.2570936650660268
-0.10698607989059647 0.31614529326543034 0.25897991365458883
-0.10074447520481308 0.3237888737021369 0.25798517173793234
-0.103785772402155 0.32417433693989933 0.2559357256319753
-0.10709228046642502 0.32322489455327214 0.2561581105616323
-0.10382596083389481 0.3190445227919501 0.25996613210704245
-0.10206063516842087 0.3210226817427558 0.25977426475551046
-0.10986352391945084 0.31880395844563664 0.2570098609354726
-0.10081114299999436 0.3143266959486884 0.2613742322352163
-0.10013267822967728 0.3181041403113288 0.26149177259471335
-0.09629424341427048 0.31619846060857 0.2613475889590017
-0.09581914969192704 0.3248974008856696 0.2568725318339101
-0.09469935723053177 0.32434790566548527 0.2578040332224599
-0.09979173966156205 0.32331597045048893 0.25885533994700827
-0.09794544108616074 0.32092856600865544 0.26032286590602316
-0.10044427641140183 0.31862979367360295 0.2612758249666921
-0.09935279615627488 0.3186274690924567 0.2613363832857839
-0.09011233278022965 0.3189067168532294 0.26199310726191916
-0.09426446684108933 0.3178906364737433 0.26141255802180685
-0.08987127669559677 0.31482963994130314 0.26248216337230124
-0.08594093151794632 0.32509904339894474 0.2577387065317861
-0.08643837698208054 0.32555102542027653 0.25654643482234396
-0.09198992379413803 0.3242756648360175 0.25836687988307394
-0.09194128640400132 0.3245813174544257 0.25772136158015646
-0.09255944617496689 0.3226434512434882 0.2600178689387075
-0.09262273140655716 0.3224639220534247 0.2600933880236379
-0.09113909729229172 0.31973134711369694 0.2616791099932424
-0.08632713981376847 0.2917274160681647 0.26401257223155417
-0.08856971986995896 0.288230292349903 0.26346891826655783
-0.08677383192287644 0.2856549544630927 0.26399594253566183
-0.08570416696773728 0.2880590482054633 0.2642585606005422
-0.08762988873230179 0.2971527500449103 0.26352768844630636
-0.08911334403263291 0.2990744633971137 0.262935218277239
-0.08642428048359116 0.2928103728590888 0.26396953767802633
-0.07809661753879746 0.2876278682051581 0.2670853704836599
-0.07804011233555039 0.2877435012160224 0.26710897392299093
-0.07473457284675797 0.28670113518819035 0.2684128851320974
-0.07385535963283738 0.28525417283162297 0.26873820728328146
-0.08375522919403275 0.2897302432356757 0.26484363979365744
-0.08163063653217514 0.29110705092534245 0.26569735712077536
-0.08211943932281693 0.2876017613707465 0.26549875444438376
-0.08219097979770859 0.2873693032561225 0.2654688329127065
-0.0750788939784642 0.29766469433888615 0.26809107965495504
-0.07653010316597184 0.2933245225249213 0.2676656217005483
-0.07804803975330551 0.2921050710974616 0.2671184510615102
-0.08186799712883194 0.29685544207677067 0.2655998439219228
-0.08195640571819504 0.296578578501789 0.26556414073970236
-0.08170466550098618 0.2952715678511542 0.265662428798937
-0.08077872224556168 0.2922384662924689 0.266039249363207
-0.089325283248293 0.3049777074156684 0.2627697557833425
-0.0890760762284871 0.30102138951405705 0.2629184693720571
-0.08579229243503769 0.3019835276900214 0.26406520313289084
-0.08978333004223069 0.3098962827025336 0.26260691589381613
-0.08981149323688706 0.3096597118674201 0.26259553140666403
-0.08518751390682419 0.31100624039754093 0.2641357750323049
-0.08493407495723923 0.31163274481877506 0.2642146915819875
-0.07844779320465287 0.3043028636275214 0.2668198317911855
-0.07694802113281449 0.3016875310240668 0.26743930286433615
-0.07598029502140244 0.30051004126652897 0.267779287758135
-0.08285381324993332 0.3033100886641425 0.26513498729731955
-0.08058478363262375 0.30575453475102604 0.2659719557192556
-0.07990169950233658 0.3010945840178412 0.2663337559130422
-0.07956122287021836 0.3029977007208747 0.26642423576381125
-0.07785703666912278 0.3126577062903327 0.26686477369334616
-0.07800503500210007 0.3115336222945136 0.26683520978953756
-0.07409130461918076 0.31103747323140324 0.26845168775584616
-0.07597123511539658 0.30835413172825993 0.26772439188029684
-0.08368371852146347 0.3105977697668952 0.2646889657404653
-0.08055951126323899 0.30799972251042546 0.26592290109660544
-0.07909386285053452 0.3131139798460883 0.2663369149592153
-0.07292664476143082 0.2872007413206977 0.26910495466258444
-0.06951126881347855 0.28976034358128727 0.26995187706019796
-0.06884926982628067 0.2885504288969916 0.2700923056032888
-0.06767455168472489 0.2855192942915839 0.27054094976451315
-0.07282294758068283 0.29241328671559513 0.26913594907786764
-0.06953466363655289 0.29495876267537297 0.2700610727694265
-0.0733488691638585 0.29474585488423527 0.2688568205263845
-0.06830600329147538 0.29240184262379826 0.2702988953020803
-0.06504252978073319 0.28908460572346867 0.2710671991732351
-0.06407049723373612 0.29063688948735417 0.27123021787669577
-0.06450099178062638 0.28407417967900456 0.27134144014384665
-0.06471705861793717 0.28581898644551457 0.2712647289660207
-0.061804477650987705 0.29628580048665226 0.2720405430224172
-0.06404769845710953 0.29762499764546574 0.27150344556834616
-0.06322738953338822 0.29342740014180363 0.2715718717005483
-0.06233254500137528 0.29184382393941105 0.27168458408381857
-0.0734869135211583 0.30119841530903996 0.2686223954584829
-0.06915846892105301 0.3034048004446906 0.26994663185145773
-0.06856710143791397 0.30384253695592106 0.27012747234370627
-0.06951371260391434 0.3002605362234992 0.2698796362307302
-0.07315129466758927 0.29891305401906193 0.2687310547259084
-0.07159442134605606 0.3082834406195563 0.269109842243456
-0.07308987208114823 0.3120902104674262 0.2688289255526296
-0.06965002842651566 0.30757229760274113 0.2697051734354726
-0.06702763267265519 0.3111609144507331 0.2703235716250173
-0.06327072211013993 0.3050900025664252 0.2716684908297292
-0.06403524108635147 0.30553262665852726 0.2714459866907827
-0.06478545494781693 0.30001579955205143 0.27132838672664084
-0.0626630825589772 0.2978358192740363 0.27186017936732687
-0.060453687388765415 0.3019615335760993 0.27244102663066305
-0.06205010839210709 0.3121218605338019 0.2716547221567861
-0.06545445748077591 0.31160830691441715 0.2707478970911733
-0.06366917916046341 0.30905329421147526 0.27135938114192404
-0.06071323581443985 0.3085728807745856 0.2722191185381643
-0.07661627658115586 0.3263242764769477 0.253673788967394
-0.06746334262596329 0.32620178893193424 0.25368964380290426
-0.05602160521255692 0.3261648936568183 0.2536951274302236
-0.06086239643799027 0.32631897166356266 0.2536951870348684
-0.08493185468422135 0.31946098044499577 0.2633162111666433
-0.08522521384464463 0.31721018984898747 0.26357882923152365
-0.08345959015594681 0.3187118096648139 0.263927695217394
-0.07932436891304215 0.32583194211110295 0.25648981040980734
-0.0819398058246251 0.32619356349095524 0.25550859874751486
-0.08253187366234024 0.3249134345351142 0.2593990535166494
-0.0837095720361348 0.32550590470418156 0.2572158545878164
-0.08257022925125321 0.32401036456212223 0.2609915108111135
-0.08706395753132065 0.32229500249013127 0.26111340230967917
-0.08300716109977921 0.32137899830922306 0.26266157335307516
-0.07712872751461228 0.3165346308051032 0.2669215769198171
-0.07718378730522354 0.31607621148213566 0.26691418594386496
-0.07758482225643357 0.3136061353979987 0.26692676252391256
-0.07617858477340897 0.3144468589125556 0.267421302261614
-0.0843007756065007 0.31438713505849064 0.264257547321581
-0.0792438430379506 0.31536345913991154 0.2662222952273122
-0.08163479395614823 0.31520532801732243 0.265345570507311
-0.07036361523376664 0.32591890528783024 0.2588083118822805
-0.07191625662552079 0.3259955568610114 0.25797962850596823
-0.07315537758575638 0.32549910977467716 0.2607918948557607
-0.0760779870341893 0.32556741669758976 0.25811904377009787
-0.07415251858936509 0.32536642983540714 0.26086175149943747
-0.07479148038135727 0.32509534791096867 0.26175337738063253
-0.07761164434658249 0.32467883065327824 0.2618902892496816
-0.07757957704769333 0.32436542943104923 0.26274472183253683
-0.07643543608890732 0.3213251157103461 0.2661353320505849
-0.07447334058986863 0.32014810278996647 0.26728987401988424
-0.07928947039352616 0.3218860550223273 0.26503616279628195
-0.0696484787057515 0.3192283435164374 0.26880681222941794
-0.06896660156952103 0.3186059518156928 0.2689793080713979
-0.06765288539634903 0.31818484500035465 0.2692551583674184
-0.06927410193191727 0.31482618287190617 0.269442614975237
-0.06713170238243302 0.3262478633223456 0.2558490008738271
-0.06381789274917801 0.32638459637746037 0.26004165119197287
-0.06921709008918961 0.3258818908034247 0.26005762523677267
-0.0689887148927327 0.3260499759016913 0.2565824360277883
-0.06855482288109024 0.3260652346907538 0.25721639102961935
-0.06490004487739762 0.32616739705189884 0.2620181412127248
-0.07013836928116043 0.3249780459700507 0.26367783254649557
-0.0696269316266652 0.32456814482793034 0.26483177846934713
-0.06819299288498124 0.32347380354985417 0.26707458204295553
-0.06887567468391617 0.32134001687153996 0.2680073351290456
-0.06653887458549698 0.32059621050938786 0.2689432472613088
-0.06626722641693314 0.3153082652388495 0.2700508207705251
-0.06386906333671769 0.318107001334278 0.27022438949611105
-0.06306302972542008 0.3138567729292792 0.27121746248271383
-0.0610851389955159 0.31688403323277653 0.271216091575884
-0.05563134380089005 0.3264704866705817 0.25636893219020285
-0.05761367507682999 0.32650714352711857 0.2564606637385122
-0.058381472308504184 0.3265632314978522 0.25957446998622336
-0.0595449847768422 0.3265553040800971 0.2583936423685781
-0.06116569467292984 0.32609420254811466 0.26302641338374533
-0.06126892991768082 0.3261134548483771 0.2629610270884267
-0.06442982383476456 0.3253207726775092 0.2642070025828115
-0.06307334132896622 0.3244454784689826 0.26668071455027975
-0.06161830254303177 0.3228415174780768 0.26845800584819235
-0.06032330222831925 0.32384490206822575 0.26809370225932516
-0.06069529481636246 0.32303839161976994 0.268536385956072
-0.05856398173080643 0.25107305482014836 0.2731113404658071
-0.05767363734947403 0.25413184598073185 0.2733426064875356
-0.0550768119882222 0.2490050716696662 0.2741716474917165
-0.055676911551820835 0.25206827357396305 0.2739837140467397
-0.04770723410354813 0.24841373398884956 0.2761572570231191
-0.0483418745587941 0.25478284791096867 0.2760270208742849
-0.04502025671707352 0.25100278094395817 0.27670108980204977
-0.04457262583481034 0.2505614681540412 0.27682172960307516
-0.05297774501548966 0.2542828245459479 0.274764356079363
-0.049779002148973545 0.2558613343535346 0.27564930624034323
-0.0499280733655568 0.25354164078816593 0.27561294740703024
-0.05282786913620194 0.249722950011341 0.27481490081813253
-0.039823268134462436 0.24859952166661445 0.27763533300425924
-0.042787109095918735 0.2533060236273688 0.27707409566905417
-0.04128507204757889 0.2535349650679511 0.27734076684977926
-0.036221448857652744 0.25409959986790837 0.2781245083239309
-0.038013313491212924 0.24938421681508247 0.2778747052576772
-0.03717798419700821 0.2541155143080634 0.2779943913843862
-0.03496966191040238 0.25303953126057804 0.27823549217250265
-0.05990860291229447 0.25743602946385563 0.2725794286158315
-0.05702814884887894 0.2608373089133185 0.2734956712153188
-0.055930112082826694 0.25838976338490666 0.273854669990801
-0.05587807722793778 0.2604803366957587 0.2738684982683889
-0.05809662171112259 0.26887308791264714 0.2724806041147939
-0.059671853263246616 0.26968883708104313 0.2718443841364614
-0.060076628405916294 0.2646346612273139 0.2722910017397634
-0.056189749915468296 0.2649313731490058 0.2735787600901357
-0.04547477193580826 0.26017891600712956 0.2765564889338247
-0.04754636116729935 0.2577704115210456 0.2761720389750234
-0.04292685218559464 0.2592902107535285 0.2769477934267751
-0.04353174992309769 0.2593764586745185 0.27685254520442404
-0.05403781362281998 0.26168572142705143 0.2744473785784475
-0.050570641238557895 0.2628544493018073 0.2754619092371694
-0.05256370135055741 0.25820016100987614 0.2748910755541555
-0.05103782244430741 0.2593287153540534 0.275325354995989
-0.04785907693611344 0.26427214577778996 0.2762338489916555
-0.048190031726228794 0.2663092537222785 0.276148256721758
-0.04409233160721024 0.26692961886510075 0.2768884272005788
-0.054080043513643344 0.26849978402241886 0.27394824928309836
-0.05268615909324845 0.2692926450072211 0.2744756907847158
-0.05031839438186844 0.2685961051283759 0.2755711645510427
-0.05009240337120255 0.2655433936415595 0.27561312622096457
-0.05769849248634537 0.2758866472540778 0.2727686137583486
-0.060816679675447544 0.2735212369261664 0.2713272542383901
-0.05545816250549515 0.2730870766936225 0.2734794587519399
-0.058995549161302646 0.2726377768813056 0.27215158647563376
-0.056112472493517 0.28338532879933537 0.27289998239543356
-0.05860889383064469 0.27834533885106266 0.27220415777232565
-0.05707318015800675 0.2783304376898688 0.2728983730700246
-0.0451716823171254 0.2742466850577277 0.27670812315013327
-0.047809456069337924 0.27261894181355656 0.2760468692209951
-0.045156244714128574 0.27162181571110905 0.276705798568987
-0.04237437673317154 0.2726249022780341 0.2772515386965505
-0.05464700289474686 0.2745131178198737 0.27386563724543966
-0.0519255144189473 0.27664171889409245 0.274481472435259
-0.04965889878975113 0.2711522503195685 0.27558284706141867
-0.051348183829652866 0.27332013085469425 0.274542507591509
-0.0478194398473378 0.28108125165089787 0.27554118341472067
-0.04737359710441788 0.2787969632445258 0.27567255205180563
-0.04597756691681107 0.2799497766791266 0.2761916489031545
-0.04501662083374222 0.27736251786336125 0.2764776915934316
-0.05302700825439652 0.2834705634413642 0.2738273114588491
-0.051166002232896884 0.2809825463591498 0.27462744421031393
-0.05207488365875443 0.27735083535298527 0.2744821876909963
-0.04115942545639237 0.2602494879065436 0.27720421260859884
-0.041817907769548496 0.2622802181540412 0.2771894902613393
-0.037200067717897495 0.25976573660954655 0.27782636589076437
-0.03609359689460953 0.2598455472289008 0.2780268759157888
-0.03814182110534867 0.26679473355397404 0.27751958078410544
-0.04001304932342728 0.2666223569212836 0.2773901194956533
-0.03717023559318741 0.2638122959433478 0.2777713508036367
-0.034554068524705966 0.26569049790486515 0.277968701782488
-0.03459763952003678 0.2653370423613471 0.2779795498278371
-0.03691807814346512 0.27528994515523136 0.2779747814562551
-0.041676465947496494 0.27450793221577824 0.277370032730364
-0.04112151690231522 0.27601587012395085 0.2774568766978017
-0.03473380633102616 0.27316629126652897 0.27803253835704245
-0.04203328915344437 0.280570916682331 0.27733379310634054
-0.038927022893297275 0.2831634207068366 0.27776711887385763
-0.04011276789413651 0.28164242938145817 0.2776046366121999
-0.03574845619903763 0.2821805401144904 0.2782126039889089
-0.03711709805237015 0.2792814297972602 0.2780020803835622
-0.03489938803421219 0.2794833107291144 0.27827715581920065
-0.05892464943634232 0.28627698853596867 0.27261417812373556
-0.05960232444511612 0.28652333453282536 0.2723817796137563
-0.05499366350876053 0.2861683888731879 0.273435112896227
-0.054455701787340244 0.28664904072865666 0.27359533018138327
-0.05575848050819596 0.29704945519551457 0.27381503290202536
-0.05761641689048966 0.2961844129858893 0.2731939525034658
-0.05635762639747818 0.291949979811756 0.2734208077814809
-0.04906839557396134 0.28669696286305607 0.27514719671275534
-0.04828760452972611 0.2896779103575629 0.2754606575396291
-0.04588598438011368 0.2865554018317145 0.2762395710375539
-0.044883106429445346 0.285769514590351 0.27661102718379416
-0.054172996957170566 0.2852562589941901 0.27349102205302633
-0.0518279118131276 0.2886664195357245 0.2743548125651113
-0.05025336571441849 0.2860374374686164 0.2747415871050588
-0.047649507005083164 0.2965041919051093 0.2756718367960683
-0.04512268729912003 0.2966248317061347 0.2764694661524526
-0.04704478808151444 0.2939889355002326 0.27586817449595846
-0.046227459390031894 0.2920532746611518 0.2761484951403371
-0.05301273294197281 0.2927313967047614 0.27434277242686667
-0.049931053597795566 0.2931455297766608 0.27499913877513327
-0.052579764802324375 0.2922418637572211 0.2744367093470327
-0.05543706246124466 0.30369793608769596 0.27385282224681295
-0.05997991986976822 0.3036632461844367 0.2725739449885122
-0.058697227914201816 0.29811184838399113 0.2729337782290212
-0.05654645391212662 0.301993183642475 0.27353632158305563
-0.05580884643303116 0.3135305567084235 0.2736003965761892
-0.05667567678199967 0.3120739980040473 0.273382303180956
-0.0562987370084401 0.30825989678487004 0.27359246915843405
-0.054934535701143344 0.31159090235814274 0.27394705719020285
-0.04948723741279801 0.302368156462757 0.2750547499087087
-0.04548943467842301 0.30348318055257023 0.27633154100444235
-0.04488993116127213 0.301602296382038 0.27652841514613546
-0.05173021980034073 0.304965071230976 0.2746127814676992
-0.0539437872956868 0.3029051347075385 0.27427398866679586
-0.05189237423645218 0.3000461383162421 0.27467167085673727
-0.048949454505312046 0.3067735953627509 0.27525371021296896
-0.0482537192891713 0.3107268734274787 0.2756690353777639
-0.04549053736435135 0.3052767439185065 0.2763166994478933
-0.044433925826418 0.30855172112569035 0.2767511577036611
-0.05187231727348526 0.3109617157278937 0.2747987479593984
-0.05184209771858414 0.31162022784337223 0.2748016685869924
-0.05346015520797928 0.30608659222706974 0.2743744224932424
-0.04198179074035843 0.28784798815831364 0.27727341360118307
-0.039577995021211704 0.29017745688542546 0.2776168555643789
-0.04095313378082474 0.2896353526411933 0.2774069876101247
-0.037492309291231235 0.2865469379721564 0.2779640526201955
-0.04003453679786881 0.2854515238104743 0.27760094112422384
-0.04357105918632706 0.29478024676427067 0.27693903154399313
-0.043520454842912754 0.29346584513768376 0.2769560784723989
-0.04033506341682633 0.29664086535557926 0.2774158090975515
-0.03685495682464798 0.29417376950368107 0.2779902786638967
-0.041138265807497104 0.2928120417891425 0.2773281306650869
-0.03553459473358353 0.28852366641148747 0.2782290548708669
-0.04038688965545853 0.30471526816472233 0.2773638934519521
-0.04375958867775162 0.303830079585163 0.2768555254366628
-0.03810945578323563 0.3027172012625617 0.27771985239055075
-0.03645325132118424 0.304373554736225 0.27796280092265524
-0.04047072358833512 0.3099225087462348 0.2774094314005605
-0.04124486871467789 0.3113276882468146 0.27734565443065085
-0.03655320831047257 0.31223534777745426 0.2779970139887563
-0.037527625043260654 0.3106105847655219 0.2778355450060598
-0.04209548660026749 0.3065730853377265 0.27711075252559103
-0.03455183335052689 0.3051995559035224 0.2781750530627004
-0.03553355165229996 0.30003475382909 0.2780901164438955
-0.03432760067688187 0.31200455859288395 0.27825200265910544
-0.03444743581520279 0.3082759900389594 0.27820521301295675
-0.03460979886757096 0.31266575291737736 0.2782261342432729
-0.03490370937095841 0.3065035267172736 0.27813738292720236
-0.05495179124580582 0.32641463711842716 0.2549849123385183
-0.04197717138038834 0.32561229899510563 0.25427430576350607
-0.05795243807541092 0.3159417434035224 0.2723216981318227
-0.057014499385225376 0.3184816165266913 0.272109863224291
-0.053449903209077915 0.3197578115759772 0.27292984432246603
-0.054690275866853794 0.32644497588261784 0.2553699583437673
-0.05148795672165116 0.32621245816334904 0.255172607364916
-0.04835206695305069 0.3260959906874579 0.256093439522051
-0.05061841436134537 0.3266069217024726 0.26090413040187277
-0.05383339949356278 0.3264892025290412 0.2569759458925954
-0.05212283559547623 0.3260931296645087 0.2647475571062795
-0.051759426076280673 0.3257085604964179 0.26646756834056295
-0.04986453481422623 0.32581644490346134 0.26602363294627585
-0.05400291510330399 0.32494138911351383 0.2683791489031545
-0.056499962289201816 0.32520317271336735 0.26640319532420553
-0.05899411864982804 0.3230476303397101 0.26899671262767233
-0.05730396934257706 0.32416193917378605 0.2685864538576833
-0.05295718141304215 0.3208966775237006 0.27245652383830465
-0.05565837450729569 0.3222082777319831 0.27053105539348044
-0.04395860858665665 0.32607852652653874 0.25669038003947653
-0.04273650475250443 0.3264256639777106 0.2594830960657827
-0.042012159306871494 0.3267267270384711 0.26227557367350973
-0.04624703951584061 0.32645701602086247 0.2600577444460622
-0.04211724229561051 0.3265998287497443 0.26430910533931173
-0.04259822197662552 0.3265455885229987 0.26504003709819235
-0.04328293033348282 0.32639669612034977 0.26716172403361715
-0.046749238450395664 0.32579778864964665 0.2681679100420705
-0.0453296048234578 0.32648663952931584 0.265215274753832
-0.04812726803528031 0.3196597619353217 0.2749434084322683
-0.04706052370773514 0.31838976576909245 0.2753466338541738
-0.045549992997514804 0.3134884162245673 0.2764347762491933
-0.04622209497200211 0.313637904673664 0.27622908062007345
-0.05311358400093277 0.3194854183493537 0.2731267780688039
-0.051899705607759555 0.314611010104267 0.2746105164911977
-0.051196013171541294 0.3139355702696723 0.2748803467180959
-0.0454158229421254 0.32572876647099674 0.26962178653743185
-0.04399064608322342 0.32579659655675114 0.2699752420809499
-0.04693228431450089 0.3241421504317206 0.2733712763216726
-0.044835810143816074 0.3213176651297492 0.2749655813601247
-0.050980572183000644 0.32237177327260197 0.27302115863826193
-0.049824778516161045 0.32320331767186344 0.2732498616602651
-0.038654033620225986 0.32595812514409245 0.2566354245569936
-0.036756638963090976 0.3251187129317206 0.2544820875551931
-0.03423279948936661 0.3259640260039252 0.2589269847300283
-0.04041329451309403 0.326332680731861 0.2592991561320058
-0.03987443872200211 0.32652681305989445 0.2607398600008718
-0.03795972891555985 0.3266921563445014 0.2627726764109365
-0.03711396880851944 0.3265806956587714 0.2641949028399221
-0.03987077303634842 0.32647251322850407 0.26620894378688253
-0.03942156263099869 0.32632677987202824 0.26820754713084616
-0.04029292293297013 0.3193097634612006 0.27661293453242697
-0.042472754199373325 0.31748663619145573 0.2765229911234609
-0.03799993224846085 0.3163236303625983 0.2773982853319875
-0.03734136052833756 0.3159494324026984 0.277530309620165
-0.03664568491684159 0.3142034335432929 0.27782326644923605
-0.03531539865242203 0.32547568514928044 0.27129900163676657
-0.039906058986055454 0.3252478165923041 0.27173626131083883
-0.03971329756485184 0.3246191664038581 0.27308219379451193
-0.04219171829925736 0.32267075017079533 0.2746471733477346
-0.0395828527997609 0.3218398614226264 0.27537268108394064
-0.04092705674873551 0.3213139696417731 0.2754868835833303
-0.03496993013130387 0.32003920510396183 0.2769983977701894
