ply
format ascii 1.0
element vertex 375
property float x
property float y
property float z
element face 0
property list uchar int vertex_indices
end_header
0.25764983467353625 0.23194103673085395 -0.0706436961266764
0.2579517321993236 0.22401719525441352 -0.08647705906364997
0.26320159010185046 0.22642975285634223 -0.05751720362637122
0.2636483865190868 0.20551740363225166 -0.06069764786694129
0.2583458381105785 0.22612916663273994 -0.08586925559971412
0.25857936910880847 0.18366920188054267 -0.07275660627815803
0.2739161210466747 0.23612832263096992 -0.04883471423122962
0.2607922511507396 0.23266457751378242 -0.06633833342526038
0.2565883951593761 0.1807038111983222 -0.0763524054858454
0.2756030517031078 0.2465840502081794 -0.04892370396587928
0.27102624944938464 0.22762661412343208 -0.046702298459745245
0.2628897982050304 0.23690324261769477 -0.08636251383755286
0.2577139096666698 0.2232431693373603 -0.08278087073299964
0.26384371094001574 0.2120308800040168 -0.0408648281667002
0.2774386959482555 0.24366926386937324 -0.04126775556538184
0.25457697681678576 0.16849785283192817 -0.06271890097591956
0.26156824402107043 0.1616667135058326 -0.03502139740917762
0.25442295841468615 0.19915574029072944 -0.08188365691635688
0.2631399588991527 0.20227961972340766 -0.060960474548078375
0.254757102053297 0.2249995990096015 -0.09934041195843299
0.2538093285967235 0.22629987433537666 -0.10494184785816749
0.2624859767366771 0.20092242196187202 -0.05411351018879493
0.260211523096693 0.16222994759663764 -0.04427969747517188
0.256718988936079 0.19847654536351386 -0.046542081174588995
0.25762998632682604 0.2169686479864997 -0.07779018872711738
0.2606372790743236 0.24171631768330756 -0.1010292797658213
0.25907712749732775 0.22879534199818793 -0.08353755169842322
0.2667095022608165 0.24217670395955268 -0.07866961055729468
0.254817600767744 0.23175107672795478 -0.0702188640210398
0.2628735261370067 0.19740241006001655 -0.06380570226643165
0.25378644041312975 0.21625553801640693 -0.09569022351238807
0.2550219850946788 0.23745160534962836 -0.11342960887882789
0.2767702298570995 0.2386947198210639 -0.04117632204029639
0.27109866909278674 0.24445687964543525 -0.06476193958256324
0.25718992523444933 0.2011210842429084 -0.04473537498447974
0.2563720899034862 0.22391825154408637 -0.09384192818138679
0.27699023060096545 0.2381141705809516 -0.037567439613080816
0.26982581190360827 0.24094318583592597 -0.06837797456715186
0.27013223938239855 0.22262095645055 -0.04167563014957984
0.25752561859382433 0.2191685958205146 -0.08489315503571113
0.2623435812403087 0.19658660128697578 -0.060475799379087286
0.26127337984336657 0.19171112015828315 -0.058967921075559454
0.26912980846656603 0.2439183516798896 -0.07184562378857215
0.2689072447229747 0.22137319281682197 -0.04844066792461951
0.2692119436670665 0.2198770566283149 -0.046833935317731695
0.2615218120027904 0.20576303437337104 -0.06968635612461646
0.25457119516624255 0.18557875588521186 -0.04583779269192298
0.2575777726580028 0.24022632077321235 -0.11019873910877784
0.2660701828409557 0.23986052706822578 -0.07878089242909034
0.2569214063097362 0.2308522386847419 -0.059349897441602545
0.25786900095237536 0.19581895306691352 -0.07798207097981055
0.276219184916151 0.23811810448750678 -0.04405409389469703
0.27087288669837756 0.23519044354542915 -0.054653796491361456
0.2548144417215709 0.23209582999333564 -0.06478268199894507
0.26376014522804064 0.21626477673634711 -0.059539321002698736
0.26076435617698474 0.23516648247822944 -0.09594098025295814
0.26038235000861926 0.16368191674336616 -0.04365408712360938
0.2734578209329967 0.2292200250922126 -0.038454148111081915
0.27076875738395495 0.22422438099965278 -0.04275781208012183
0.261085386793745 0.1883627696333808 -0.06322029524777015
0.2618378954340343 0.23102509215459052 -0.0586791067693003
0.2595251160074596 0.16620113685712043 -0.052612873849607306
0.2566564040590648 0.1859823985396308 -0.0481466680142649
0.2603851514269237 0.18524985745534125 -0.055320146617627936
0.2575521426607494 0.16165568664654914 -0.051761361894346075
0.2681060390879039 0.21841561034306708 -0.03547230654690345
0.2595396595407848 0.21486520007237617 -0.06548610621426185
0.2595904426981334 0.1742302103339118 -0.04627663188908179
0.25949543289436144 0.19287752345189277 -0.053455981549955206
0.2623533564020519 0.23675852254018012 -0.08864580386612494
0.25972967914832873 0.17615180447682563 -0.04713321023914893
0.25865882210029406 0.18938987687215034 -0.07458272868130286
0.261750395815504 0.2015744967757148 -0.0504529207322367
0.25740307144416613 0.20626711085423652 -0.040366533336377936
0.26025855116142077 0.18381165698155585 -0.06593990617725928
0.26607852749122424 0.22902201846226874 -0.05483416014645179
0.2599106388498668 0.1849782390890998 -0.06934443407986243
0.2588195162226085 0.22796916201695624 -0.08856447332832892
0.25834935478462023 0.17029013469800178 -0.05790233903858741
0.26816987566245837 0.2217681331931037 -0.051565709647870855
0.2614948707033519 0.2098214550314826 -0.039474013385511236
0.255927379648817 0.18957441285237495 -0.049157413778043585
0.26545720867408557 0.2330012841521186 -0.05755731755230506
0.25691502861274523 0.21336262658223334 -0.0849988191697367
0.2624104576517467 0.20637004807576362 -0.06491163664791663
0.26384979061378283 0.21183817818745795 -0.03824430995915015
0.2596890883852367 0.18965732291325751 -0.07197574072811683
0.25520526937736315 0.2423178477583808 -0.11481507414314826
0.27035897545112414 0.24125706389531318 -0.06671411090824683
0.26836055092109484 0.2177327795325202 -0.0497398703667887
0.2641919212747936 0.2332245631514472 -0.06550208025906165
0.27257269195808215 0.24283950760945502 -0.05924183422062476
0.2616105037142162 0.24530410006627265 -0.09633234435055335
0.27011405996574206 0.22250961497410957 -0.04354840808842261
0.2620464520861034 0.2283042593298835 -0.058434757528043585
0.25601881317390246 0.2251856251059455 -0.09545779520008643
0.26031338743461413 0.17293562725171271 -0.04968652420971473
0.25949173740638537 0.22320257857426826 -0.062222930726743536
0.27420144848121447 0.2441990299521369 -0.05366128974888404
0.26243602804435534 0.2385353966055793 -0.09090279334518989
0.26126908830894274 0.1989439053831977 -0.07052362256977637
0.2563145118166332 0.2167005462943 -0.06600052410099586
0.2643269853998546 0.21606176331624213 -0.05842948251698096
0.2694553690363292 0.24513547852620307 -0.07066318684551795
0.26578878931297106 0.23628126814946357 -0.0768225371215113
0.2714972453523998 0.2275584860144538 -0.04536295228931983
0.2564699011255626 0.2319016976653022 -0.06992036396000464
0.27465873531593127 0.24222546055897895 -0.051519426641202765
0.26171761326087756 0.19565593436345283 -0.05755845004055579
0.264642413180006 0.2432588262854499 -0.08503391140434821
0.27679454855216784 0.23966967299565498 -0.04227981263134559
0.2589172082353954 0.20851813986882392 -0.038498493966794806
0.25981586746467394 0.24191551640614692 -0.10472142988178809
0.25867771677268786 0.24676596358403388 -0.10859163397286017
0.2589604812075023 0.2137163205443305 -0.06776237779591163
0.2673918562342052 0.21460025742634956 -0.046546342906690436
0.26988249592078967 0.2325725479422492 -0.052465084132886725
0.2670152144838695 0.21749781802281562 -0.055056604680753546
0.26429712347282214 0.24586402609929267 -0.08597986691925605
0.2548946099687938 0.17285513117894355 -0.07262450748417457
0.25810610822929186 0.1373425050078315 -0.04124617868397315
0.2574411588121776 0.2168812079726142 -0.08167641156647285
0.2560630994249706 0.2282398267088813 -0.059728655156827765
0.2536119180132274 0.22307877972706977 -0.06265604787800391
0.2754297810007457 0.24692707493886176 -0.04962864809963782
0.26064341835273547 0.16650875642880622 -0.042529943523145514
0.25791257194770617 0.21252869799718085 -0.07778162055943091
0.2605798201967601 0.20902007058247749 -0.06954390102360328
0.26411276630653185 0.20855557158574287 -0.05997941189739783
0.2564566688944225 0.24756514266118232 -0.11268754595253547
0.25852512888206286 0.1935386581717414 -0.05178273015949805
0.25574004225028796 0.22051494553670112 -0.09432754212353309
0.2547526913095836 0.20698063805684272 -0.08721697622273047
0.2633560257364635 0.23712324336156074 -0.08496073180172523
0.26045578293098254 0.233285121470539 -0.09398089641068061
0.26033103040946765 0.17502938941106025 -0.05115470581982215
0.25620585254920764 0.215288512259571 -0.08679192059967597
0.26021378807319445 0.18146472409352485 -0.06132626825306495
0.27316492370857043 0.24327688649281684 -0.05722332292530616
0.25991200975669665 0.19446694090947333 -0.0744215577218302
0.2568337874819164 0.22251301243886176 -0.08028213971588691
0.2540582971979503 0.24017935231312934 -0.1170383869979151
0.26215838960899157 0.19598751500233833 -0.06019291573498328
0.2723696189333324 0.2404192014037055 -0.057815107640958624
0.2772209005762462 0.24288254216298286 -0.042615416583753424
0.2561001139093761 0.20913236573323432 -0.08265471750233253
0.25737100414527697 0.2140331192313117 -0.08176751726601203
0.2732318001200084 0.23975443080052558 -0.0534211128327616
0.26300590805305285 0.22949647143468085 -0.05806193047497352
0.25799500517143054 0.2235163374243659 -0.08337222331497748
0.25686925224555773 0.19001113608464423 -0.07801230543587287
0.26457970909370226 0.20887749627217475 -0.05775913887951453
0.2540280776430492 0.22058438494786445 -0.07317927771542151
0.25416409544242663 0.2388454003630561 -0.11541018181774695
0.2626039939333324 0.20173703864201728 -0.05366218381855567
0.275514896433485 0.236278764754383 -0.04517594271633704
0.27129363588584704 0.24791216090306464 -0.0643098383519419
0.2569824414659862 0.24105095103367988 -0.11178924435112556
0.2610247688700084 0.23516886666402045 -0.09372994595501502
0.2713335113932018 0.23301809266194526 -0.050526323852277594
0.2606952147890453 0.20085387662038032 -0.049147966441846686
0.26411735586417956 0.20681368544682685 -0.049939486322141485
0.25769584945930285 0.19486921265706245 -0.07809999876949866
0.26163482240928454 0.20272075369939033 -0.0696145623299845
0.2601528125215892 0.24589752390965644 -0.10412484699223121
0.2611442761827831 0.22447609141453925 -0.06032792025539954
0.25625955633415026 0.23424892857655708 -0.10818000429604133
0.2602568226267223 0.23254030182942573 -0.07822992199394782
0.2621522503305797 0.21938627198323432 -0.06129482680294593
0.26259541086448474 0.24483542874440375 -0.09172167175743659
0.2617099838663463 0.23574113085850898 -0.09083746665451606
0.26361816696418566 0.208332888632862 -0.04666820460293372
0.25901871494544787 0.24240153267964545 -0.10739176267120917
0.255752499621046 0.2319300098715705 -0.06268850260708411
0.2535721617151622 0.17501055434331123 -0.08274863952133735
0.25785648397697253 0.21113806202992622 -0.07448119216892798
0.25557434133781237 0.20068602994069282 -0.08050027781460364
0.26183360389961047 0.208024792224018 -0.04304558330509742
0.25398307613624377 0.24357186987981025 -0.11680786603424628
0.2554905372072582 0.1859867496786994 -0.04690757685635169
0.25801896623863024 0.21625404790028754 -0.06549948745701392
0.2666186647821788 0.21499311164006416 -0.05495533638928016
0.2556713776995067 0.21713184550389472 -0.07295775705311378
0.2548827486444835 0.1831515355406684 -0.04442856007549842
0.2637520389963512 0.20968525841817084 -0.060242029962278204
0.26835739187492175 0.23274099066838447 -0.05405241542790015
0.2606249409128551 0.23170702889546577 -0.08799375885460456
0.2546035008837108 0.23274325564488593 -0.11163959198925574
0.2614379482675914 0.1625412626562995 -0.03482330137226661
0.2610817509104137 0.23272924855336372 -0.07439136796925147
0.2762664513994579 0.2367679996786994 -0.04151991301510413
0.2616993742395763 0.1961573882399482 -0.06824431115124305
0.26619422010673327 0.21303736403569404 -0.04447186284992774
0.2725626187731151 0.23387228682622138 -0.048687222537732916
0.25597160629524035 0.13994824126347724 -0.046321335372663336
0.2663825707842235 0.2158353848753852 -0.035917314824796515
0.26940011553062243 0.23912190631016914 -0.06709564023945411
0.2587701635767345 0.23270355895146552 -0.10021440976593574
0.2653865771700267 0.24688368275746528 -0.082438978490568
0.26109247974647326 0.19015973046406928 -0.06478002959225257
0.2539675193239574 0.2065333051978034 -0.0877429723117121
0.2659916239191417 0.23390578463658515 -0.0627289741608866
0.26770418457282824 0.21481697991475288 -0.04890954786274512
0.26453786663306994 0.2081771416960639 -0.055709901389814215
0.25489478878272814 0.21697258189305488 -0.06834599667522986
0.2628539758135204 0.24688851073369208 -0.09006129497025092
0.2754749017168407 0.23427849248036567 -0.040410640773511725
0.275120015661848 0.2374587579070014 -0.04816395336124976
0.25861399940742297 0.22155200675114814 -0.0631819098565348
0.2537301736284618 0.1926481051741523 -0.047507259187436895
0.26898586324943347 0.23219608500584785 -0.05341947370503028
0.25936704448951525 0.18657540515050117 -0.0718413769576319
0.2649184422899608 0.241178028136341 -0.08393645578358253
0.25878577999366564 0.1487817390261573 -0.04352593713734229
0.25928473047508044 0.1787444277106208 -0.06325543218586524
0.25423037580741686 0.22909664347752753 -0.07533122890923102
0.255433793585432 0.21383386090382758 -0.08832890087101539
0.2672405200411205 0.21639036372288886 -0.03406274610493262
0.25482230953468127 0.21496849492177192 -0.09249878221485694
0.26135992578758044 0.23321776822194282 -0.07567917102310737
0.2550438003946666 0.20641743376836005 -0.08444290154907783
0.2574406819750194 0.2026239557562751 -0.07833446854088386
0.26327228121055407 0.2046424670515937 -0.06274670654270728
0.254182036440504 0.22219341233357612 -0.07495738857719977
0.27536719612373156 0.24343239501103583 -0.04913810187313636
0.25632130674613757 0.17577957347020332 -0.07136613422367652
0.25796615652335925 0.22904955580815498 -0.08037066751453956
0.25784140400184435 0.17807769015416328 -0.06789297157261451
0.2725076036859874 0.22692929938420478 -0.03688529425594886
0.25716661981834216 0.1791619582472724 -0.07388225489590247
0.26738792232765 0.23430906966313544 -0.06079763465855201
0.2535424189974193 0.1796148939429206 -0.04073217802975257
0.2618589954782848 0.19839303925618354 -0.06856859022114356
0.256030614893568 0.20716052487477485 -0.08176507347557624
0.2550504165102367 0.22070693209752265 -0.09640032344791968
0.257355864565504 0.21469425395116035 -0.08406918042633613
0.2671840744425182 0.2398447318373603 -0.07694357925388892
0.2573958592821483 0.20762126877888862 -0.07864600711796363
0.26536863617194933 0.2130907697974128 -0.04247582250568946
0.25536387733711047 0.17122676208600227 -0.0651999443146952
0.2589936809946422 0.23258339598759833 -0.0674223929021128
0.2783384876657848 0.24692594245061103 -0.03528094583485206
0.2685939031053905 0.24513065054997626 -0.07352027588818152
0.26858096889747424 0.22257196143254462 -0.04989236885044654
0.2712259250093822 0.2369399590788764 -0.056291404304242926
0.26487791113151354 0.21380531027898017 -0.03806886368725379
0.2592019992281322 0.2315909190474433 -0.0966231107089289
0.2716417866159801 0.2259347958861274 -0.04224410944912513
0.2611538725305919 0.20722346737965766 -0.04286113673183997
0.2579595404077892 0.20653920605763618 -0.0768217920634516
0.2536306338716869 0.22540854647740546 -0.10399888747665961
0.2574000316072826 0.1756924314795417 -0.04207185202572425
0.26063161663306994 0.2367784304915351 -0.09921117418739875
0.2711101131845836 0.24263768628224555 -0.06449473196003516
0.2603785949159984 0.17549442484959785 -0.052229198751188116
0.261110063116682 0.24341201022252265 -0.09862754040691932
0.2750161843706493 0.23258339598759833 -0.03711360984776099
0.27454363874687 0.24113505318745795 -0.05132720166180213
0.2555823283602123 0.21006774142369453 -0.0873486875865229
0.25594740680946154 0.21855645611867133 -0.0748384177062281
0.2571808057237987 0.21995144322499458 -0.0884734719369181
0.25508951715720934 0.22478710845097724 -0.09784815007183631
0.27081501058830065 0.23792611792668525 -0.05950632983181556
0.2602959828783397 0.16935991480931464 -0.04720819288227637
0.2756180124689464 0.23441129162892524 -0.0393331378075846
0.26251226238502307 0.19890641406163398 -0.056859078941083746
0.2559741096903209 0.21993362143620673 -0.06422764354679664
0.26746606401695056 0.24061935380086127 -0.07643270784351905
0.25709175638450427 0.219538681059925 -0.08875778609249671
0.27736031584037585 0.2471049948035163 -0.042012426194883185
0.25516002945197863 0.19650524094685737 -0.08127457195255836
0.2655246811319713 0.23265867665394965 -0.05641416007015784
0.26123123935951037 0.2006444258986396 -0.07078394585583289
0.2676671700884227 0.21726613476857368 -0.04076278501484473
0.26075052789939684 0.2334880752859992 -0.09308468097183784
0.26198017172111315 0.23263835147008124 -0.064272794065214
0.2574288802553539 0.23050986960515205 -0.10074243241283973
0.2596963601518993 0.2056010885535163 -0.07425150567028602
0.2538263159204845 0.22611682847127143 -0.06089473062489112
0.2671144562174205 0.23544894888982001 -0.06941369467709144
0.26071780494941516 0.18652319148167792 -0.057673636016584234
0.2606111126352672 0.23167800143346015 -0.08808799379799445
0.2555372672487621 0.19673704341038886 -0.08091242903206428
0.2595081286836986 0.22940491870030585 -0.08894780570004066
0.26060348324073596 0.1863740606604499 -0.060596319970823126
0.257412131350172 0.18796955779179755 -0.05016079836819251
0.2754993992258434 0.23371272519215766 -0.037283602294660406
0.2581080155779247 0.2253914995489997 -0.060617420015073614
0.26834767631782336 0.2477582021056098 -0.0742394208285578
0.25360863975776476 0.20210336878880683 -0.08476281457874854
0.26613252929939074 0.23464088872060004 -0.06771925383541663
0.25661325029624743 0.24632929995640937 -0.11247271591160377
0.26380377582801623 0.23426794245824042 -0.0741752415272959
0.26224660448325915 0.24515413478001777 -0.0932259737822779
0.2572379665781383 0.2316313906012458 -0.102787899908758
0.25368201307548327 0.19898980095967475 -0.08351698809597571
0.257608767073286 0.19616603091344062 -0.04918194108936866
0.25538688472999377 0.17156472042187873 -0.06574032002422889
0.26062768272651476 0.23212527468785468 -0.08038819128010352
0.2660030084062938 0.21116053298100654 -0.05165580206844886
0.2582982736040477 0.17615514233693305 -0.06373182230923255
0.25482892565025134 0.18170373871907416 -0.04327822023365577
0.2569635467935924 0.23220580056294624 -0.0645249217126139
0.2764925914217357 0.24633764460667792 -0.04565400176975806
0.26236819795860095 0.1948773188887519 -0.06427654915783484
0.26307618192924304 0.21225350335225288 -0.03539210849735816
0.2582855182100658 0.18252920344456855 -0.07263569825623115
0.27547597460044665 0.23368155196294013 -0.03744414740536292
0.2611093478609447 0.23250608876332465 -0.08505457931492408
0.2541401939798717 0.22869401410206977 -0.1079904317233332
0.2609206395555858 0.20628207162007514 -0.04334804707501014
0.2709488826204662 0.2294595165549201 -0.04863933020565589
0.2638440685678844 0.2119461221991462 -0.04116294079754432
0.2576782660890941 0.16684754922970954 -0.055620434818006353
0.26356464199317736 0.23498802617177192 -0.0802717536065348
0.25370358995689196 0.2234718127547187 -0.07481822663281043
0.2669233637262706 0.22083383038624946 -0.054880234536863165
0.2731161075044994 0.2453248424826545 -0.05781311088535865
0.25917791895164294 0.16687231495961372 -0.03723869019482215
0.26069670490516467 0.23317920401677314 -0.07730436616871436
0.25656228832496447 0.23299615815266791 -0.10619098239872535
0.26107823423637194 0.19145607188328925 -0.05668121868107398
0.260805423777235 0.23179494574650947 -0.059092941817975836
0.25743984750999255 0.22234135106190864 -0.08883811825249274
0.2738954382349376 0.24414419367894355 -0.05479434424374183
0.2597624020983104 0.18557947114094916 -0.05375770026180823
0.2607325272966747 0.21717690661534492 -0.06381398731205543
0.25989532045615954 0.1711523158846778 -0.04378754192326148
0.2550562577654247 0.17401569321736518 -0.07527062588665565
0.256760116140974 0.19974499180897895 -0.04559219175312598
0.2563136773516063 0.2465874476729316 -0.1129381387803324
0.2611021356989269 0.19755636885747138 -0.0709784060094126
0.2712457733560924 0.24213563635930244 -0.06390878849957068
0.2575240092684154 0.2154861612616462 -0.07974605554077704
0.25614064506782336 0.23726653292760078 -0.1109106718871363
0.266123707811964 0.24731891587361518 -0.08051421040031989
0.27027535013450427 0.24596678450688544 -0.06761732989285071
0.26671838335288806 0.21258365347966376 -0.051805439529157477
0.27049749664558215 0.24157797530278388 -0.0665518968674906
0.27031975559486193 0.23994057610615913 -0.06443098479244788
0.25840627722038073 0.22988855078801337 -0.09659499221775611
0.26216429046882433 0.19406598046406928 -0.06413862400982459
0.2561984019686107 0.19350384905919257 -0.07954775088760932
0.25819086603416247 0.17756550744160834 -0.06559947424862464
0.2697904067446117 0.22116350367650214 -0.03562051349613746
0.27302366070045275 0.24151556923970405 -0.05715865188572486
0.2557834940363292 0.17447745040044013 -0.07116213732693275
0.2642628508020763 0.2069361133871955 -0.05168980651829322
0.2696590977121715 0.23761611416920844 -0.06292352372143348
0.27284252218498034 0.22782766059025947 -0.037832680282331305
0.25968724064124865 0.2322555704413337 -0.07775619917843421
0.25680356792701525 0.13025381401166145 -0.037324878511167364
0.25935232214225573 0.24141889050587836 -0.10618356162045081
0.2582985120226268 0.23997490838154975 -0.10805283778641303
0.27504658273948474 0.23459541037663642 -0.044161084232068853
0.25976794533027453 0.20118444398030463 -0.07598226064179023
0.26073181204093737 0.23194753363713447 -0.060307326850629644
0.2651517348696117 0.21062772706135932 -0.05534452491734107
0.26818322710288806 0.22100292876347724 -0.05134827190373023
0.25815921596778674 0.16090115144833747 -0.05039263063404639
0.25462764076484484 0.21397804453953925 -0.09071111970875342
0.26291149429572863 0.2012690825758857 -0.06448802643749793
0.26934361032737536 0.22701071932896796 -0.0502029686543711
0.2642976599146251 0.24612634614094916 -0.08592392796013434
0.26529472641242785 0.2218606396017951 -0.05711508089039405
0.26069694332374377 0.21027135089024726 -0.06814578467342933
0.26023506693137927 0.2348328156767768 -0.09854246967766364
0.26018517784370226 0.23656957581624213 -0.10291935795281013
0.2680649118830089 0.2465476913748664 -0.07498184138271888
0.2618739562441234 0.24644684031590644 -0.09502610856030066
0.26999806932700915 0.22324126198872749 -0.04489305907223304
0.2677202778269176 0.2170960827170295 -0.0433900385472544
0.2637540059496288 0.24204640820607368 -0.08826820844147285
0.27816301159156603 0.24601667359456245 -0.03674337559673865
0.2543758707453136 0.2256153149901313 -0.10168956511948188
