ply
format ascii 1.0
element vertex 352
property float x
property float y
property float z
element face 0
property list uchar int vertex_indices
end_header
0.253899689238203 0.2934254927931708 -0.11675820046398719
0.2538694100786571 0.29633682206258 -0.11650744372341712
0.2554868417192821 0.2948903961478156 -0.11389705830547889
0.2546864109445934 0.2898520751295966 -0.11552518897984107
0.25502365402473254 0.2888801617918891 -0.1148801177117594
0.2542058186937694 0.2990211768446845 -0.11568533175919135
0.2568874316622142 0.2920956535635871 -0.11126885109875281
0.25533049873603625 0.28604649737462223 -0.11425715976688941
0.25655430130256457 0.2988475485144538 -0.11149332219097693
0.2576214032579784 0.29564809039220036 -0.10920517438385566
0.2578521328379039 0.2919190450011176 -0.1085724263760813
0.25569909385932726 0.2840505166350287 -0.11358626478645881
0.2544821458269481 0.30336182549580754 -0.1150227814290293
0.2555904941965465 0.30277513697728337 -0.11320731335613807
0.25796973280204577 0.2896171732245368 -0.10826316767666419
0.25393658451331896 0.3047181887923163 -0.1158411830041178
0.25861936382545275 0.29345541432484806 -0.1061603456113108
0.2586159067560558 0.29220765069112004 -0.10619294935200294
0.2552243428636913 0.2820531053839606 -0.11404763453934272
0.2582505898882274 0.29986434414967716 -0.1073565810296305
0.2588558750559215 0.2922316713629645 -0.10540555709335883
0.2588052111078624 0.2898651881514472 -0.1056044875952967
0.25792938045753283 0.2847215457259101 -0.10833044641945441
0.258068914930952 0.30198942854985417 -0.10794258409473975
0.2579590039659862 0.30230366423711 -0.10819995695087989
0.255314107458723 0.28056972458943547 -0.11364336603615363
0.2588450270105724 0.29821931555852116 -0.10537067347500403
0.2581483679224376 0.2844580335913581 -0.10784036212894996
0.25864624552024645 0.29985325768574894 -0.1060355930897959
0.257619376700056 0.2825356645880622 -0.10888047808144172
0.25423037580741686 0.3076295776663703 -0.11524334841702064
0.25716054014457507 0.30568771794423283 -0.10992726975414832
0.2588810282160167 0.285309366732685 -0.10549898737404426
0.2579398708750133 0.3061227722464484 -0.1082447349402674
0.25831055216087145 0.2808956427870673 -0.1074234127375849
0.2595975356508617 0.286237887888996 -0.10319574469063361
0.2600000458170299 0.2944778724013251 -0.10090151720974525
0.25361203722251696 0.27631550267323673 -0.11589388841126044
0.25998156837714953 0.2967756910620612 -0.1009321390959986
0.2597706275392894 0.30008279517277897 -0.10192458623383124
0.2571851568628673 0.277900747805683 -0.10977007740471442
0.25725984148277087 0.3089498205481452 -0.10977310234043677
0.25699567369712634 0.3097614569960517 -0.11034553044769843
0.26022469572318835 0.2948455138502997 -0.09978145652744849
0.2550784902979259 0.3115372581778449 -0.11380066269371589
0.2592438416887645 0.3056601209937018 -0.10410543077919562
0.2603055196215038 0.2919683976469916 -0.09954646521542151
0.2603427129198436 0.2924072666464728 -0.0993389367434748
0.260225053351057 0.286887518912403 -0.10032218986485084
0.25939786009086413 0.2803059144316596 -0.1041352778050669
0.25855493120445056 0.27783405020817936 -0.10680260055992682
0.25952428154243273 0.280039898902027 -0.10377808207008918
0.26054244808448596 0.29089879229649723 -0.09845261567566474
0.2555473404337291 0.3129175825415534 -0.11301577383015235
0.2599728660990123 0.3040267749129218 -0.10094161623451789
0.2600688295771007 0.3037381096182746 -0.10043278628323157
0.25939178041709704 0.3080800099669379 -0.1038262426230677
0.2573949652124767 0.27465610936268986 -0.10920684331390937
0.2573098497797374 0.31270741656407536 -0.1096778541180857
0.26066255144370837 0.28526555731877506 -0.0985079287860163
0.26061081461204333 0.2830890937148017 -0.09899275296661933
0.2605822639871959 0.2825876994429511 -0.09918019467327674
0.25845104030860705 0.2743869347868842 -0.10727186792824348
0.2568671064783458 0.27274679377659977 -0.11010748439762671
0.25565856270088 0.3148956222830695 -0.11254139536354621
0.25983786157859606 0.30890243485554875 -0.10229121440384467
0.2600194769312267 0.2778797073660773 -0.10235545330975135
0.2541789369989757 0.27146314814671696 -0.11448043876621802
0.2562728481699352 0.31500565245732487 -0.11139875942204078
0.25393300823463244 0.3160427136717719 -0.11542180472347816
0.2605929332186107 0.30419784024342716 -0.09772807651493629
0.2593977408815746 0.3119245691595954 -0.10427317315075477
0.26058142952216906 0.27913223937138737 -0.0998528777930506
0.26020454935325427 0.3086761160193366 -0.10029064410660346
0.25919681362403674 0.3132713957129401 -0.1050721138093241
0.26112424902213854 0.3006508870421332 -0.09541321092579444
0.2602288680483226 0.2761266751585883 -0.10184051388237556
0.26087158493293566 0.27928172782048405 -0.09866579168770392
0.2565900640894298 0.27033864691838444 -0.11061579280827125
0.2613004999567394 0.2820432110129279 -0.09639028006527503
0.2615462499071483 0.29778992369755924 -0.09384280734989722
0.2616250472475414 0.2967122121153754 -0.09357844584915717
0.25895070604575915 0.2715359254179877 -0.10605585866901954
0.2618785458017711 0.2913186474142951 -0.09295101755592902
0.255466695349348 0.2683177514372748 -0.11247825914356788
0.2619761782099132 0.29073863461598576 -0.09262988263104041
0.26107167772544665 0.3059028311072272 -0.09558613890144904
0.25963371567024035 0.3147715850172919 -0.10333046608898719
0.26042937807334704 0.3119497223196906 -0.09988296323750098
0.2582315164018993 0.3170784039793891 -0.10711677664253791
0.2606787043024425 0.3102765007315558 -0.09816842072937568
0.26160716585410876 0.2804253025351447 -0.09559627169106086
0.2582403974939708 0.26934313014134587 -0.10795660608742316
0.2600797968317394 0.3140571637450141 -0.10211642378304084
0.2569272475649242 0.2680991216002387 -0.11013369554016669
0.25863587431205554 0.31711291506871403 -0.10584754043552955
0.26222985557807726 0.29457705453023136 -0.09135924571487983
0.2613805489946727 0.3062673135100287 -0.0943367212388285
0.25750088266624255 0.31874554589375675 -0.1081677108380564
0.26222550443900866 0.2977250738440436 -0.09117020958397468
0.26217293314231677 0.2998189254103583 -0.09128573828671058
0.26249992422355456 0.29069065287694157 -0.09067766660187324
0.2545782881189708 0.3207830710707587 -0.11236569577190955
0.25646233133567614 0.32020889952763737 -0.10974213772747596
0.26031314901603503 0.31538354590520085 -0.10015124374363502
0.2610518889833812 0.27211134865864933 -0.09954911762211402
0.2562294559885387 0.3209562225638312 -0.1096003382775553
0.2627997355867748 0.28684812024220646 -0.09020126157734473
0.2603965955187206 0.26908885672673405 -0.10250565701458533
0.25683629087699694 0.2652520461378974 -0.11037840240929206
0.26038020424140734 0.26884739831074894 -0.1025776743266352
0.2629721122194652 0.289828352480976 -0.08933589154217322
0.26169901661170764 0.27307789757832707 -0.09704208665821631
0.2630634265352611 0.29238372281178654 -0.08879724436733802
0.2538798408914928 0.2640189452467841 -0.11478297704193671
0.2591744022776012 0.26648806765660465 -0.10587638908360084
0.2616795258928661 0.3098450227080268 -0.09341906302902778
0.2617303090502147 0.30959003403767765 -0.09319308691952308
0.26305603555930895 0.2962421102820319 -0.0886333017918833
0.2626965003420238 0.2789877577124518 -0.09227490716908057
0.25400757364524645 0.3227606339751166 -0.11150531762573798
0.2623935299326305 0.27612584069356144 -0.09397255176041205
0.26162272266639514 0.3113527221976203 -0.09392863803837379
0.2572583513666515 0.26363926365956486 -0.10975782865021308
0.26153164676917834 0.26982413962468327 -0.09848185175392707
0.25948446563972277 0.3198341055212897 -0.10181720846626838
0.2635935502458934 0.2899550123511237 -0.08758414083454688
0.2629922585893993 0.30300860837086857 -0.08862832480404456
0.26344549230827136 0.2981398029623908 -0.08744947904083808
0.26174211076988024 0.31318777039632023 -0.09372461133930762
0.26108938030494494 0.2674119396506232 -0.10051273101303657
0.2602843599726085 0.31854163840398014 -0.09861342900726874
0.2569862561632518 0.2625812812148017 -0.11026022129986365
0.26266347936881823 0.2734982891379279 -0.09374881082508643
0.25955837539924426 0.3205428643523139 -0.10104771250221808
0.26340406708015246 0.27745532229527653 -0.09036423557732184
0.2560594039369945 0.3239893241225165 -0.10629219108555396
0.26224636606468005 0.2698102517424506 -0.09602326446507056
0.2633969145227794 0.27568089202031315 -0.09082900279495795
0.264164205114973 0.2845284862814826 -0.08676873439285834
0.2642972426821117 0.28777622416600407 -0.08594586246941169
0.2633675890375499 0.2747240586577338 -0.09102958732578834
0.26315408519996447 0.30756836369618595 -0.08814400726292212
0.2619614558626537 0.3145143909750861 -0.09236720496151526
0.2644395785738353 0.2848491592703742 -0.08597097092602332
0.2624264316965465 0.26895051434621037 -0.09526342445347388
0.25978165439857287 0.26239215567692936 -0.10487613373730262
0.2614471869875316 0.31670736506566227 -0.09339179390404304
0.2640939908434276 0.3017702026663703 -0.08554944687817176
0.2618083315302257 0.26553188994511784 -0.09800574475262244
0.2648435788561229 0.2878981752692145 -0.08443293267223914
0.26476507953895373 0.28355710938557804 -0.08534147137138923
0.26225918106330676 0.315021268874256 -0.090712624726034
0.2640967326570873 0.30545978978261173 -0.08551273041699012
0.2612655120302562 0.31851064398869694 -0.09339458042118629
0.2647682385851268 0.2962822838126105 -0.08334477537605842
0.2574825840402965 0.3245205207167548 -0.10052132898304542
0.26472574047340197 0.29742275908574284 -0.08343825036022742
0.2594349937845592 0.2602240963278693 -0.10595967167351325
0.2642371015955333 0.3054245634375495 -0.0851189523312815
0.2636886196543102 0.27193158105000675 -0.08975369029972632
0.2638612347055797 0.30952411130055607 -0.08621532016728004
0.25754063896430773 0.25814568236455143 -0.1096187412116297
0.2636752682138805 0.31136905387028874 -0.08679578000042518
0.2631498532701854 0.3141174836455268 -0.08823763125870307
0.26463836006416125 0.30508261159047306 -0.08382213407490333
0.264306183378828 0.2738301081953925 -0.08767773502800544
0.2595747070719127 0.3226448817549628 -0.09537008696529944
0.2548294620920543 0.32574283316716374 -0.09947775596115668
0.2545085506845836 0.256821326762287 -0.11438662105534156
0.25447773508323474 0.2568134589491767 -0.11443257623646338
0.26260309986366076 0.26556818917378605 -0.09443871968720038
0.2653754907060985 0.2825812025366706 -0.08351281577084144
0.2652550893236522 0.2802731914816779 -0.08420624130699714
0.25631022028220934 0.25679533913716496 -0.11169189506504615
0.2652257638384227 0.2960052414236945 -0.08143347793552955
0.25887000135673327 0.32392971947774113 -0.09602468007538398
0.26546716264976306 0.2917454166708869 -0.08129956119988044
0.2628367500711803 0.2655373735724372 -0.09343557351563056
0.2653135018755321 0.2958789987860602 -0.08112679713699897
0.26526808313621325 0.2780178113280219 -0.08442899876568397
0.25366311840308947 0.2558091802893561 -0.11582629674408515
0.26463007501853747 0.2734721226988715 -0.08666234010193427
0.264150138418806 0.2704186959563178 -0.0882031797740229
0.2622017221857433 0.262409500628559 -0.09612991207573493
0.26513945631278796 0.3048747701941413 -0.0820107638213404
0.26530420355094714 0.30045925810918034 -0.08090201312038978
0.26594459585441393 0.28534501031026066 -0.08113387518856605
0.2546134548593883 0.3260531945525092 -0.09605737322304328
0.2541210608888988 0.25471632912739933 -0.11535045796368201
0.25415789655937 0.3260580821333808 -0.09561962181065162
0.26388442091239733 0.26820557549580754 -0.08872765594456275
0.2560509400774364 0.32552169993504704 -0.09459469014141639
0.26591813139213366 0.2924659772215766 -0.07947826677296241
0.2616472201753978 0.32065754368886173 -0.08937146061394294
0.2609574156214122 0.25756751731023014 -0.10138787620995124
0.2662726598192577 0.2833842559157294 -0.08040936583015998
0.25983285478843493 0.25589828923329533 -0.1049241452786692
0.2549578504969005 0.32596027091130436 -0.09384639852974494
0.26099293998969836 0.2573898358641547 -0.10120888346169074
0.2656450825144176 0.30439334347829045 -0.08007534140083869
0.26327019504798693 0.2648237867651862 -0.09030472033951362
0.2633218126703624 0.317674450427143 -0.08626447909805854
0.2585619049478893 0.25439511969670475 -0.10836901062462409
0.2616192059923534 0.25845032170399845 -0.09819926613304694
0.2590370731760387 0.324495784789173 -0.09142370813820441
0.26164495519889636 0.3210717959700507 -0.08818422549698432
0.2576180057932262 0.3250061793623847 -0.09121561342213233
0.2596297817636852 0.32399892047032536 -0.0903519868228205
0.2666451292444591 0.2854558153448981 -0.07874776714775641
0.259695644896162 0.2544698043166083 -0.10552792542908271
0.2664660768915538 0.28145485356435 -0.07965033048126777
0.26169246010078234 0.25802432730778874 -0.0975042461726435
0.2652599769045238 0.3131362719832343 -0.08243198984596808
0.2539064245630626 0.3259880466757697 -0.09107154899571021
0.26603030733360095 0.2756161017714423 -0.08124891215298255
0.2660846071649913 0.30287908747777165 -0.0781846671674021
0.26589345506919665 0.30933766797169865 -0.08028081351254066
0.2580040054727916 0.25267183020695866 -0.10955474072430213
0.26375019125236315 0.3183252735434455 -0.08485497826073249
0.26312505773795886 0.26231294110402287 -0.08962808841202338
0.26674556307090563 0.2951356692610663 -0.07647066110107978
0.25808554462684435 0.2518651409445685 -0.10946870141956885
0.25748782924903674 0.32516591981038273 -0.08881436580154975
0.26675253681434435 0.28055404856785954 -0.0783970832202204
0.26605861953986926 0.2732871098814887 -0.08091195219490607
0.2654619174410228 0.3153138680754584 -0.0815149723860987
0.26204555801643176 0.2572639508543891 -0.09469232254955848
0.2672591762949352 0.28486835196599186 -0.07661436789963325
0.26622402242912097 0.312205426245777 -0.07978494757149299
0.2641473370005016 0.3191683812437934 -0.08339077526066382
0.2671522455622081 0.2919815106688422 -0.07547752850983222
0.2667838888574962 0.2780157847700995 -0.07811221772167762
0.26021718553794665 0.2519620580969733 -0.10415685468647559
0.263620729963911 0.26256918147191227 -0.08713767224285682
0.2657700138498668 0.2703617735205573 -0.08136272722218116
0.25626807979835314 0.24967049792393867 -0.11285712116692145
0.26104813389076037 0.25316905215367497 -0.10042430752251227
0.2538660126139049 0.3260771556197089 -0.08721828752491553
0.2612333255220775 0.2537367267905158 -0.09914680117104133
0.26288574508918566 0.321446947604267 -0.08392581635449012
0.2551394658495311 0.3260313792525214 -0.08706978255245765
0.2667249994684581 0.3059786482153815 -0.07635863417122443
0.2673724251200084 0.29355161622151554 -0.07456028753254493
0.2638835864473705 0.2629062457381171 -0.0860601692769297
0.2652791099954967 0.31773870423421086 -0.08121954196426948
0.26746588520301623 0.28229664996251286 -0.07579906576607306
0.2675741868425731 0.2904599829016608 -0.07433161431286414
0.25763654283775134 0.24930237963780585 -0.11049992137882789
0.2632659035135631 0.2606867475806159 -0.08766724461052497
0.26520829967750353 0.31828921273335636 -0.08118769818279822
0.2660842495371227 0.3160189314185065 -0.07963992947075446
0.2653840141703014 0.2678215427695197 -0.08137841814491828
0.26727395824683947 0.30147861674412907 -0.07430136495564063
0.26184498838676257 0.25488292410954655 -0.0944151758525141
0.2603638129640941 0.25045572951420964 -0.10364537232849677
0.25940560869468493 0.3248258753119391 -0.08427688771221717
0.26791363529456896 0.28452371790990055 -0.07423891418907722
0.26722538046134753 0.3044048471747321 -0.07448248856995185
0.26656698755515856 0.27307473853215397 -0.07786917978260596
0.2620534854341869 0.25573431685551823 -0.09225683206055244
0.2679355698038463 0.2868717832861823 -0.07376817160580237
0.26758884958518786 0.2990298195181769 -0.07320496731731971
0.26718246511710925 0.31230252221211613 -0.0769593595835932
0.25984268955482287 0.24905162289723579 -0.10564835661385139
0.267990584890974 0.29259293511494816 -0.07263081067535956
0.26520996860755724 0.26579397156819523 -0.08117707365486701
0.267899032156599 0.29623936846837223 -0.07242784195873816
0.26306283048881335 0.2584431691466254 -0.08727133565876563
0.2628815727640514 0.2576996608076972 -0.08774739795658668
0.26037925056709094 0.3246833010016364 -0.08237293654415687
0.2678864555765514 0.2789115233717841 -0.07432902151081641
0.2646186309267406 0.26266174748524845 -0.08272552782032569
0.2584681468416576 0.32531075909718693 -0.08202866011593421
0.2650155978609447 0.32131945326909245 -0.08007699542973121
0.2681601005007152 0.2803388161955756 -0.07330316596958716
0.2678818064142589 0.31226830914601506 -0.07488909655544837
0.2643192964006786 0.2606077118216437 -0.08320792311165412
0.26177691988242907 0.25128357842549504 -0.09494251304600318
0.2615069704462413 0.2500705046950263 -0.09721055918667396
0.26115983299506945 0.24892943337544624 -0.09980041080448707
0.26806717685951037 0.30299168065175236 -0.07145184570286353
0.2663932400156383 0.267600409537403 -0.07762067311737617
0.26810502580894274 0.3098090811072272 -0.07330279344055732
0.2673109131266002 0.27182089522465885 -0.07531832450363715
0.26216131023658557 0.25253915026768864 -0.09153686755631049
0.26769446901572985 0.3148236794768256 -0.07494840317699988
0.2684678988863353 0.2794964833556098 -0.0720869629952677
0.2675848560739879 0.2721630258856696 -0.07453134947750648
0.2682587461878185 0.31280481055363835 -0.07372622483704169
0.2594872670580272 0.32510410979375065 -0.07932004624340613
0.2647684770037059 0.32296323016270817 -0.07872785919640143
0.26832538418067736 0.30356841519459904 -0.07052183443043311
0.267180676977766 0.26915686562642277 -0.07539557212326606
0.26253526977790637 0.2526521606741828 -0.08954905265305121
0.26860975794090075 0.2997480554877204 -0.06959316426251014
0.26335757545722766 0.25498222544774235 -0.08599227958653052
0.26843928865684313 0.30892132952794255 -0.071248713073469
0.2692233281542186 0.2875376267729682 -0.06902709895107825
0.26423972419990344 0.3236342592535895 -0.07730415755245765
0.26891105942024035 0.29927580788716496 -0.06855336123440345
0.26902395061744494 0.29814981654271305 -0.06830564433071692
0.26940899662269396 0.28591125443562687 -0.06829509430859168
0.2561036901880626 0.3261255545912665 -0.0770807146403559
0.2692071156908397 0.29784416392430485 -0.0677718847367533
0.2637498932291393 0.2538536711035651 -0.08518053883049567
0.2671605306078319 0.26547955706700505 -0.07542276674244483
0.2678847866464977 0.31808816626652897 -0.07358826988670905
0.26954268984092516 0.2875126524268073 -0.06775862270329078
0.2661198335100536 0.26073919966801823 -0.07832835906479438
0.2688499050547008 0.2755818887053412 -0.07026031905148108
0.2668708520342235 0.26335763171300114 -0.07620592707130988
0.25551330618156237 0.32631366685017765 -0.07628876262638648
0.25802260212196154 0.3257884903250617 -0.07604307228062232
0.26898222736610217 0.30795132353886784 -0.06880104833576758
0.26883154682411 0.31438254550084294 -0.07109985047314246
0.2685207682062511 0.27175258830174626 -0.07131323510143836
0.26935141853584094 0.2794470115004462 -0.06860372715923865
0.26987427047981066 0.2920326514540595 -0.06679547124836524
0.25544797949088854 0.3263140244780463 -0.07587835484478553
0.27124177984489245 0.3118223471938056 -0.06269178086254676
0.27372848562492175 0.29510944321736515 -0.05559957319233497
0.2718447404314403 0.3115520401297492 -0.06093341403935035
0.2773296790529613 0.2524438424406928 -0.04172203236553748
0.2586114960123424 0.3262553735075873 -0.048424604472852545
0.26093673280967516 0.3263399524985236 -0.05669504695866187
0.26946138910545153 0.25225549176320256 -0.07017445856068213
0.25858521036399645 0.3263363762198371 -0.044100555715299444
0.27792876533759875 0.25258808568104923 -0.03792727285358985
0.2749914484430675 0.2882077021895331 -0.05091587000820716
0.2731685595919017 0.2513965888319892 -0.058208587703443365
0.25459056667579455 0.3256382866202277 -0.04050189548466285
0.25956809095634265 0.32647352650746525 -0.05085689121220191
0.2616050796915416 0.32658635810002506 -0.04391348653767188
0.27789169124854846 0.2691720052061957 -0.037215861615873175
0.27760958246482653 0.26079731419667423 -0.0390986829373606
0.27568041853202624 0.2823253197966498 -0.04829442792866309
0.273930902998579 0.2857447786627692 -0.05500626855824073
0.27088957599891467 0.26691149905308903 -0.06443172985050757
0.2748827295709972 0.2574005647002143 -0.05157497817013343
0.2673466163088207 0.252504817992298 -0.0762465625378855
0.2754322247911815 0.25072555974110783 -0.04987064295742591
0.25459056667579455 0.3256382866202277 -0.04050189548466285
0.26232653431190295 0.32544367745503605 -0.07006693178150733
0.27169829181922717 0.26199155285939396 -0.061902496156431036
0.27415155939353747 0.28280531600102604 -0.05421391421291907
0.27068906597389025 0.3209118767081183 -0.057531121310926275
0.27760958246482653 0.26079731419667423 -0.0390986829373606
0.25449800066245837 0.3257312698660773 -0.04337916069958289
0.2720518665720348 0.267386786490528 -0.06060245924923499
0.2642509298731212 0.32647328808888615 -0.03774649196598609
0.2770826774050121 0.28014498189076603 -0.04226002388928016
