ply
format ascii 1.0
element vertex 721
property float x
property float y
property float z
element face 0
property list uchar int vertex_indices
end_header
0.23866205982459823 0.2860562725363654 0.07535519904162805
0.24450128845466415 0.30801092818364323 0.05084123915698449
0.24035429529441635 0.3041723294554633 0.06905346817042748
0.22864043287528793 0.2893215937910956 0.10206848091151635
0.23486679367317 0.2910579963026923 0.08835452503230493
0.23381548694862167 0.31627529099568547 0.09283765858676354
0.24701749853385727 0.27878450587376774 0.04305109089877526
0.23245709709419052 0.27490996554478825 0.09522238081958215
0.2336730318476085 0.28016792967900456 0.09196975535418908
0.24512803129447738 0.30206000044926823 0.04916870302226464
0.24893867544425766 0.2798336072264594 -0.027892652091718515
0.23604499868644516 0.2655225916205329 0.0835410327341787
0.23643695883048813 0.2981855793295783 0.08212428993251245
0.24763005546821396 0.3051533026991767 0.04058956808116357
0.241398091833723 0.3196920080481452 0.06899970478084008
0.2518366532732372 0.3260589762030524 0.09664430922534387
0.2405195789743785 0.28515946105107487 0.06795727914836328
0.23867517284644882 0.3079391045866889 0.07534873193766992
0.24085104040397445 0.31252645686253727 0.06485381430652062
0.23055362276328842 0.28608452513798893 0.09877255267169396
0.2367438631464366 0.2680157347021979 0.08097022480037133
0.2328548388887767 0.27604448035344303 0.09431174105670373
0.24435239605201522 0.291189960986225 0.05132499045398156
0.2520443754602794 0.32619189456090153 0.08382352894809167
0.24604051880134384 0.31236832573994816 0.04616599983241479
0.24158799223197738 0.30579351618870915 0.059520331087373896
0.2490579443384532 0.30761896803960026 -0.02331921750042518
0.24319696001304428 0.2764618320761603 0.055263397159837885
0.2368044214655284 0.2691209240256232 0.08075365132357995
0.24194603733314315 0.32243280842885197 0.07298668927218835
0.24534737638725082 0.325655989199726 0.0674560934927694
0.23958384565604965 0.26789962485417546 0.07253515428569238
0.23183846048606674 0.26980625823125065 0.09639173454310815
0.2285453038622264 0.24879740908726874 0.10111391252543847
0.23332452348960678 0.2952638192473334 0.09295388764407556
0.2414268808771495 0.2892211599646491 0.06125217384364526
0.24258571438087265 0.2734975142775458 0.057072725954317255
0.2516111092974071 0.32137393191441715 -0.007223281202054818
0.23805319837821762 0.3157427830992621 0.07767757481601159
0.2387503343035106 0.26970361903294743 0.07508277601268212
0.24450462631477157 0.25701986983403385 0.05112570232417504
0.22733157448066513 0.2943642659483832 0.10409518784549157
0.24183660320533554 0.27997278407200993 0.05915364331271569
0.22429072431815902 0.2735571189223212 0.10902505821254174
0.23798918298972885 0.2890300674734992 0.07715868658091943
0.23729353718055526 0.2978038711844367 0.0789992482092611
0.24099760822547714 0.30496900513753117 0.06464907235171716
0.24805897049201767 0.2893803043661994 0.038996991577409906
0.23243188432945053 0.3204914255438727 0.1003012627985708
0.23754566482795517 0.2557361049948615 0.07803424901034753
0.23468428425086776 0.32453875973805607 0.10328659123446862
0.24645971826804916 0.3064427299796027 0.045079705181383295
0.2466393070627574 0.3231698198614997 0.06212708062198083
0.2431198912073497 0.29027216866597355 0.054967907133363886
0.23290162853492538 0.32079117730244816 0.09955691999461572
0.2371655660082225 0.3158031029997748 0.08036186999347131
0.24259119800819198 0.29758261874303044 0.056634482803606195
0.24509548715843002 0.3261945767699164 0.0911944181349508
0.23479324154151718 0.250802211314289 0.08434870547320764
0.23137944511665146 0.32316022351369084 0.10600289410617272
0.22760974935783188 0.28295468524083317 0.1036651999380819
0.24556457571281234 0.31853770449742497 0.051426854791902704
0.2446951823641185 0.3203941507635993 0.06043386167552392
0.24645506910575668 0.31655602887257756 0.04698466962840478
0.2530466275621776 0.32542376950368107 0.038825658026003046
0.24214350752128402 0.3189846797285956 0.06469216650988976
0.23480760626090805 0.25260912612065495 0.08581554597880761
0.2398404436518077 0.29247330859288395 0.07146492308642785
0.22723131946815292 0.25865649417027653 0.10430675453212182
0.2493823128153209 0.3265174551306647 0.0711322695639364
0.24882196954978744 0.26069753602132023 -0.02990004712078651
0.23757570556892196 0.2539030833540839 0.07779997295405786
0.2405881243158702 0.3042919559775275 0.06788459128405969
0.22499066166175644 0.2640994115172309 0.10785862511660974
0.22983884386314193 0.3089677019415778 0.10010596817996423
0.25184154085410876 0.3253173156081122 0.05066373652484338
0.23655128053916732 0.3105555696783942 0.08168378180529992
0.23079692892326156 0.26950203612431706 0.09833582943942468
0.24976729921592514 0.3174806757269782 0.020241198005937735
0.2409744816233043 0.28606026604756535 0.06495856946971337
0.2489080386568431 0.29538195565327824 0.035350945654176874
0.24536639026893417 0.2886966986952704 0.048432764473222895
0.23701750807060043 0.26651274397954167 0.07995068735148828
0.23355376295341293 0.2746283932028693 0.09232085651423852
0.23049836925758163 0.26462214425191105 0.09892856782939355
0.23896628193153183 0.3146005792914313 0.07470130628611962
0.24669438175452987 0.2936270160971564 0.044294115963243647
0.2482601361681346 0.26787101462468327 0.03814243978526513
0.23210370115531723 0.3039814157782477 0.09587004488971154
0.24905204347862045 0.27911489441975773 0.0033062071230642006
0.24906616977943222 0.31326811745747746 -0.01963135891888221
0.23232596687568466 0.2837639971075934 0.09545659727122704
0.235111470739973 0.30596106484517277 0.08735507434871118
0.2452241735865001 0.2504688425360602 0.0460649699595205
0.22419046930564682 0.27620672419652165 0.10919239825274865
0.23902403883231918 0.25719737246617497 0.07390567368533532
0.24120968155158798 0.326029889136402 0.09162136620547692
0.244804378073347 0.27979498341664494 0.0503241092589132
0.24067854456199447 0.3024534507094306 0.06750201887156884
0.22817706636680404 0.27726732924565495 0.10278805798556725
0.24883627466453354 0.31967466309651554 0.04022538370158593
0.24949883989585678 0.3228377027808112 0.04539873904254357
0.23655557207359115 0.3231087847052497 0.09237596100833337
0.24075924925102035 0.2688261790572089 0.06636663979556481
0.24915396742118637 0.3068604989348334 0.019416299524568716
0.24304693512214462 0.3250102324782294 0.07754838174846093
0.2285988288332347 0.29883360102757633 0.10213330096270959
0.2397733884264354 0.2786528988181037 0.07179164594676415
0.24589252046836654 0.30581825211629093 0.04690935915973107
0.2396629410196666 0.2620282693205756 0.07182371324565331
0.24352645448936264 0.29271458819493473 0.05372231906917016
0.24958133272422592 0.32651590540990055 0.09899174875285546
0.2512182550836925 0.32553135588750065 0.10771026915576379
0.2377742486406688 0.29219358399495304 0.07772662943866174
0.23001974396003524 0.30250822737797917 0.09977078146006982
0.24058395199073593 0.25211136773213566 0.06575613922145288
0.24286782316459457 0.32359617188557804 0.07202315038707177
0.22512244753135482 0.2990381045638007 0.10764592594172875
0.24042182735694687 0.3099522514639777 0.06805941170718591
0.24191695026649276 0.25531213715657414 0.05877721017863671
0.22442829183830063 0.2532501740752143 0.10840296453502099
0.24290668539298813 0.27176009848698796 0.05612194246318261
0.24552678636802475 0.28608297541722477 0.04801472729709069
0.23740481905235092 0.2827948255835456 0.0786984533694021
0.2416807370592479 0.32424723342045964 0.08028512901332299
0.2404161649156932 0.2885969801245612 0.06855213350322167
0.24831568769706527 0.3071550650893134 0.03779500431086938
0.2459272699762706 0.27501677706822575 0.046925363006853266
0.22920500807060043 0.2729297800360602 0.10120105451610009
0.2352550583292369 0.27522414162739933 0.08678635663058679
0.24403631262077133 0.26921188071355046 0.052743253174089594
0.23500334791435043 0.29334693387135685 0.08778568810489099
0.24794929794563095 0.2967722339926642 0.039436814251207514
0.2423819261003856 0.32665949299916447 0.10674008435275475
0.2410132246424083 0.3164144082365912 0.06631859845187585
0.23441749386085312 0.2529703898726386 0.08723574584987084
0.2359056430269603 0.29270511105641545 0.08404442376162927
0.24105494789375106 0.29286395743474186 0.06377851671245019
0.24640893511070053 0.32600175574406803 0.0779793531325094
0.24289142660392563 0.298639170676319 0.05563527053859155
0.22655206493629257 0.3008355422316474 0.10530373162295739
0.23269027046455185 0.29995208218678654 0.09476229256656091
0.24803161196006576 0.284520678073017 0.03911548561122338
0.22460436395896713 0.2529432697592658 0.10801136201884667
0.24128698877586166 0.3188682122527045 0.06854840821292321
0.24605541996253769 0.29480551913365544 0.04646330780055444
0.22656493953956405 0.27124952509984196 0.10528275078799645
0.2248778896738414 0.26332204774007023 0.10804542607333581
0.25112902693046374 0.32497405245885075 0.044692543211244745
0.22764831356300155 0.3224511666594428 0.10868829196956079
0.23618107609046737 0.3214447422324103 0.08885872072245996
0.24191802315009872 0.3040143771468085 0.05846997803714196
0.24140470794929306 0.2843041940031928 0.061528411569856806
0.24305265716804306 0.2515798731146735 0.055045124950670404
0.2487809019495372 0.3199578447638434 0.04083743399646203
0.23231696657432357 0.31584512427434147 0.09645303792025964
0.23304605058921615 0.28759538367375553 0.09374931162860314
0.22642713360084335 0.24943970873936835 0.10400280064608972
0.24712115101112167 0.31360142663106144 0.04180633729960839
0.2408019857813243 0.29631905987843693 0.0663640171911947
0.2313662724901561 0.3155277295409125 0.09802853769328515
0.2534622507501964 0.32660024598225773 0.07537987536456506
0.24745493702186386 0.27688800528630436 0.04136010712649743
0.23822921089423935 0.2721814437209052 0.07649942940738122
0.24567478470100204 0.25117068722829045 0.04362812346484582
0.2412764983583812 0.2729639931021613 0.0628307432558767
0.2416812138964061 0.31094150975331486 0.05964082187678735
0.2262741880823497 0.2546929045020026 0.10518216794993798
0.24230700306190292 0.32648491099461735 0.09531375474002282
0.2401809649874095 0.3165554924307746 0.07110649055507104
0.24696307949317733 0.27494775488957585 0.04325863427188317
0.24029135278953354 0.28341447547063053 0.06912252015139977
0.22395395807517807 0.2901688738165778 0.1095853716757528
0.25173329881919665 0.3250908775626105 0.04071029728915612
0.23143946699394027 0.2913350982962531 0.0971133679774038
0.24539786152137558 0.24953078463658515 0.04286622709300439
0.24540644459022323 0.3265684171019477 0.09303846663501184
0.22495698503745834 0.29410093262776554 0.10791980928447167
0.2430685120035533 0.2945481462775153 0.05517226165797631
0.2451229052950267 0.2591782732306403 0.049221929970049066
0.24618506006492416 0.32655613854512394 0.1040147215750448
0.23835175804389755 0.254122249632923 0.07554846710231225
0.24119370750678817 0.29642146065816105 0.06286665505435388
0.2492793755937938 0.2763855977354926 0.030269202652239004
0.242055411856306 0.3242729826270026 0.07843994802501122
0.2454663472582225 0.3258506579695624 0.08936592644717614
0.2310797529627208 0.26055704787358464 0.09789693063762109
0.2415240364481334 0.3165084643660468 0.06366911238696496
0.23959141544593612 0.2702784462271613 0.07259982532527368
0.24025553039802353 0.2616807146368903 0.06886347836520593
0.24300914577735702 0.32257329657658756 0.06763323849704186
0.23603224329246322 0.3011132402716559 0.08363383716609399
0.22949116997016708 0.30018406346425236 0.10075112885501306
0.22911119035972397 0.25433676674946964 0.10139465040233056
0.24905031494392196 0.27006649211034 0.015716162386202017
0.23692833952201645 0.2729175014792365 0.08033540553119103
0.24426686338676254 0.3115354700385016 0.051335421266817255
0.23977905086768905 0.2826918287573737 0.07172426289584558
0.24719023279441635 0.2576221151648444 0.042138126554750605
0.25248312525047106 0.3266391082106513 0.07357772892978112
0.24038892559303085 0.2909701390562934 0.06875168985392968
0.2371173458505992 0.25233297780141056 0.07879730767276208
0.2411875682283763 0.28916769459828556 0.06314408487346093
0.24018942884696762 0.3221747799216193 0.08079680508639733
0.24404984287513534 0.31917696431264103 0.058384475174211664
0.23513483576072494 0.2601906581221503 0.08733537501361291
0.23776191047920028 0.2825769706068915 0.07774942821528832
0.24016409687293808 0.31571780875310124 0.07045760458972375
0.22707986406577865 0.31731217339619816 0.10543459362056176
0.24567371181739608 0.2852032704649848 0.047631678047441645
0.2480782823969249 0.32272493079289616 0.052426663103365106
0.24485146574271957 0.2516416235266608 0.0482200951006643
0.2493900614191417 0.3220387025175971 0.04340856975581567
0.2322331028391246 0.25199829772099674 0.09272187656428735
0.2361621218134288 0.32441847756489933 0.09844919747378747
0.22770469955695907 0.3121722860632819 0.10349964803721826
0.22567414812339584 0.313365094214527 0.10670402354266564
0.2495632129122142 0.3172449393568915 -0.003345611629224618
0.23693877033485214 0.2862618489561957 0.08028697675731103
0.24004977516425888 0.2657228632269782 0.07013553089167993
0.23938691190971176 0.2628812713919562 0.07319855398204247
0.2422530608583812 0.26111333802327336 0.057997968855165644
0.23708945087684433 0.297329299002735 0.07972398108508508
0.24905013612998764 0.3066272659598273 0.01391428417231957
0.24658274225486557 0.30552446082219303 0.04463222331073205
0.22544699482215683 0.26637058690175236 0.10710361308123986
0.24819290212882797 0.2994116468726081 0.03840574330356042
0.24133723549140731 0.32634221747502506 0.1005567879107229
0.24571114353431503 0.24947678282841865 0.040268924894594355
0.23988633922828476 0.3234896583853644 0.08425888127353112
0.24472671322120468 0.26771896317586125 0.05060720151927392
0.23548578790916244 0.2559741659460944 0.0847004622843496
0.22419064811958114 0.3046184106169623 0.1091918022063009
0.2490425067354564 0.2619938178358954 -0.0038025110337503746
0.2260145502497081 0.30288850501164616 0.10616442269351403
0.23664176038993637 0.28309886887654484 0.08137395686175744
0.24657386116279403 0.301713757067768 0.04471146768596093
0.24794452957404892 0.2666315956412238 0.03946286148097436
0.22709708980811874 0.2620357795058173 0.104478266897463
0.24453132919563095 0.25107186272725285 0.04922508901622216
0.23800557426704208 0.3255805893240851 0.1045560211565725
0.24356203846229355 0.26697777941807926 0.05417573160197656
0.2344604092050914 0.3243558330832404 0.10321029728915612
0.22991650871528427 0.27077262833699406 0.09997874206569116
0.23618018202079574 0.28359394505604923 0.08307099050547997
0.24842547945274154 0.2890744133292121 0.0374282569315664
0.22996747068656723 0.25920038655385197 0.0999958485987417
0.25172388128532214 0.32165925934895695 0.017491009893678824
0.24258470110191147 0.26433341935261906 0.057051894130968256
0.24799239210380356 0.2673231287299079 0.03927537507083337
0.2362660127092723 0.3199601097403449 0.08649682706859033
0.23894387058509628 0.3076431079207343 0.07462855881717126
0.22529089025749008 0.316927425414173 0.10786944335963647
0.24762212805045883 0.30792342856511296 0.04044460958506982
0.23152970842613022 0.29423242047414006 0.09694450801875512
0.249057467501295 0.2908012194929999 0.01652508682277123
0.24091565183891098 0.2700173778830451 0.06534853285815637
0.23325675300849716 0.2958964629469794 0.09314709610011498
0.2309479670931224 0.2530568166075629 0.09660815900828759
0.23049211076988022 0.3209090156851691 0.10426509088542382
0.24547850660575668 0.32021789982899845 0.05463909811046044
0.227107103388441 0.3033375068007392 0.10444312995936791
0.24631094507468979 0.28731947377309025 0.045738694134020014
0.22710728220237533 0.27941756680592716 0.10444348758723657
0.2493183570314769 0.26782869532689274 0.02362483448054711
0.24952631763709823 0.2792529983817023 0.026352194013857046
0.2457981663156871 0.27657174304112614 0.047324684324525995
0.24905246071113388 0.29573386147603214 -0.001067432698942025
0.2439612703729991 0.3098069949446601 0.05231123870875756
0.22729718260062973 0.2811981363593024 0.10414898103740136
0.2388052897859935 0.29798095658406437 0.07498517340686242
0.23323142103446762 0.290597133189289 0.09321963495280663
0.23330401949180404 0.2694138212500495 0.09305536455180566
0.2336206989694957 0.25300680831059635 0.0896341473486654
0.23142110876334945 0.3203146977721137 0.10298707789447228
0.24555438331855575 0.29900508359059513 0.04789077943828027
0.22597568802131454 0.26348011925801457 0.10623007720973413
0.23094760946525375 0.2514922542868537 0.09568673080470483
0.23872476391090194 0.29472672179326237 0.07518535560634057
0.2285242634226207 0.2610230965910834 0.10229003137614648
0.24808203748954574 0.259340755492298 0.03880196517970483
0.24643051199210922 0.27749978736027897 0.045318302574419184
0.2480186777521495 0.2771545572577399 0.0391699344542257
0.24907481245292465 0.30172013476475895 -0.021101567086911997
0.2385579901148204 0.26903455689534367 0.07558533257510583
0.2270441608835582 0.27512793973073185 0.10454061335589807
0.22957461647285263 0.28056781724080265 0.10060655778911035
0.24647432140601913 0.3264591021834296 0.09218996471431176
0.2490843491960887 0.2992335481940192 -0.01851049357388099
0.23401373199714462 0.25741397574528874 0.09112932986285607
0.23554211429847519 0.27232324317082585 0.08561053580310266
0.24933510593665878 0.3247454686461371 0.060151901903413935
0.2467526750971202 0.32664477065190495 0.095416006508135
0.245872493307722 0.25010304883107365 0.04123311943080346
0.22988503746284286 0.25549279883488835 0.10023784345652978
0.23205691150916855 0.3248966260252875 0.10943257516887109
0.23534798197044174 0.27951764300450505 0.08640277093913476
0.2335291462351207 0.2680620475111884 0.09242003864314477
0.24130510858787338 0.3066791220007819 0.06218361562755029
0.2516111092974071 0.3252758903799933 0.052642253103517694
0.24789940885795395 0.2991167826949042 0.03962251252200524
0.24576943687690536 0.25946878626927555 0.047221240463518305
0.2389041142870311 0.2493032141028327 0.07315668171908776
0.23969840578330795 0.32579170897587956 0.0986952156450979
0.24152296356452743 0.2926824612914008 0.060567882719301386
0.24513876013053695 0.2903590126334113 0.0490823358919851
0.24641322664512436 0.30245500043019474 0.045323190155290766
0.24722992948783676 0.31904303267583073 0.046001282396578
0.23816334776176254 0.3147851152716559 0.07713612622287194
0.24122815899146835 0.2633907122908515 0.06299209302928369
0.2423009829927806 0.3265427275000495 0.09938800043132226
0.24937086872352401 0.2682279272375983 0.028734502258562247
0.23331051639808456 0.313065759688465 0.09252357191111962
0.2532479720522289 0.3264341874419135 0.08078157609965722
0.24722414783729355 0.29197149708851994 0.04225259727504174
0.24753689340843002 0.25271039441212834 0.0367050439741842
0.24838840536369125 0.3240867777167243 0.0559543640043966
0.22444343141807357 0.31572359040364445 0.1090428501990072
0.2481170254160289 0.3222470207510871 0.05024677223231713
0.22573905758155624 0.27730482056721867 0.1066208154585592
0.2450933413912181 0.2814209385214728 0.04940914815928857
0.23376774362815658 0.28940360978230656 0.09169095462825219
0.22969662718070785 0.24912100270375434 0.0972201795008413
0.24543278984321396 0.31710021927937687 0.05083763307597558
0.2362597542215709 0.2773588223753852 0.08280762738253991
0.23859786562217514 0.30305080845936955 0.07555776542689721
0.2401468115259532 0.2688811345396918 0.06975409096743981
0.2447225408960704 0.3104417248068732 0.05007090872790734
0.23199200205100814 0.2861753626166266 0.09608033007647912
0.23462229542030136 0.31759797766789616 0.09103306836154382
0.2432838635851268 0.30140113070592106 0.05445655888583581
0.22950583271278183 0.31539636090382756 0.10168668335940759
0.24114894441856186 0.28568797543629826 0.0637315184500448
0.2520732837129955 0.32580655053242863 0.09156417554881494
0.24619954399360458 0.32580625250920475 0.07409313029315392
0.2332203345705394 0.27755748465642155 0.09326457685496728
0.23993414215339462 0.2505801244078559 0.06876474327113549
0.2399012403894786 0.26032011941060246 0.07050704664256494
0.24703502229942123 0.2824357672034186 0.04298340982463281
0.24349015526069442 0.3241889996825141 0.07068472808864038
0.22488969139350692 0.30515097811803044 0.10803082293536584
0.24708252720130722 0.32628434136494816 0.08332240289714257
0.2365179019380931 0.27545373871907414 0.0818618506815664
0.23570739797843734 0.26501601174458683 0.08489992922809045
0.22756623796714584 0.2917244954405707 0.10373192733790795
0.24777000717414657 0.28141652777775944 0.04014345711734216
0.23193150333656112 0.29622554019078434 0.09619238680865685
0.2518152552057628 0.3252224846182746 0.04596900648143212
0.23052268795265 0.31549393370732487 0.09987517899539392
0.23351114563239853 0.25982194378956974 0.09255721873309533
0.24093973211540023 0.29845689967259587 0.0650992364313833
0.24097376636756698 0.27507030203923405 0.0650207669165365
0.24927651457084457 0.3120731635390204 0.030991283121370474
0.24474077991737167 0.25498103335484684 0.04979020065333764
0.241337056677473 0.27485453322514714 0.062364038887285395
0.24451702408088485 0.29429399207219303 0.05085304087665002
0.2358528333116893 0.3135746641455573 0.08406260317828576
0.236012931387556 0.2574501557646674 0.08331778353717248
0.22812044195426742 0.2668191118536872 0.10288533276584069
0.23905747703803817 0.3111836238203925 0.07414459890391747
0.24302911333335678 0.30041437581166447 0.055175986948274774
0.24373620323432724 0.2699209375677985 0.053665873470567865
0.24905299715293686 0.28656499817952336 -0.004705104169584115
0.23946755699409286 0.3124123139677924 0.07265901273753564
0.24630808405174057 0.2928369565306586 0.045745787086748285
0.23998182586921493 0.3010457678137702 0.07091673916842858
0.23028754762901107 0.2928571029005927 0.0992694765951864
0.23552840523017685 0.32271670535191715 0.09613135165240685
0.23333715967429916 0.2562708182631415 0.09253346628215234
0.24606012872947494 0.3257641716299933 0.07407757348086755
0.24688100389732162 0.30880098775014103 0.043249574365877314
0.2507899957109813 0.3259316010771674 0.10453632182147424
0.24906229547752182 0.2604307456313056 -0.023959490594602426
0.24424796871436874 0.31546496584996403 0.053591010036729975
0.23578220180763046 0.3040499611197394 0.08461358851458947
0.25057601503623766 0.3251349253950995 0.057599660816454096
0.24936115316642563 0.2661588115988654 0.024420526685976187
0.22603570989860336 0.2708244247733039 0.10612708038356225
0.24141150287879745 0.26404231026753605 0.06166746920611779
0.22461294702781479 0.2896352930365485 0.10849114960696618
0.23506921104682724 0.2980955167113227 0.08752071565654199
0.23702740244163314 0.3193475528059882 0.08298116630580346
0.2346469121385936 0.31469010546788395 0.08873098796870629
0.24242811970008651 0.3093907757101935 0.05697413987185876
0.24499177507652084 0.281877331286518 0.0497149795916311
0.23204797081245224 0.30842678979024113 0.09594040817286889
0.24448823503745834 0.32206272318944157 0.0636242002871267
0.24619549087775985 0.2553355021773261 0.04424467391040246
0.24905585817588607 0.31234823897465885 -0.019811692771650156
0.24258589319480697 0.3049986882506293 0.056549933614992304
0.23550098709358017 0.29357635214909733 0.08571919507052819
0.235349770109785 0.2786630316077155 0.08639597600963037
0.24446379713310043 0.320675782710163 0.06193831271197717
0.24612956814063827 0.29933952525242985 0.04625093645121972
0.23657464555991928 0.2615935130415839 0.08158349699046533
0.23274278215659897 0.2996506018935126 0.09461274451281945
0.22690653375877182 0.3031143470107001 0.10475381917025964
0.2420580940653209 0.2550467772780341 0.058357325258516474
0.23826473526252548 0.3057190103827399 0.07644670909907739
0.2503991680551891 0.32503222659215153 0.05536719864871423
0.23955767921699325 0.2776147051154059 0.07289212650325219
0.2414302783419017 0.2672235293684882 0.06158563202884118
0.23836683801902572 0.30360447600468815 0.07617428607013146
0.23332261614097397 0.26529931262120426 0.09304976171519677
0.24425369076026718 0.296996526270954 0.051601526203416986
0.24065315298332016 0.2815026564894599 0.06716799444224755
0.2448334651399974 0.3181949181853217 0.05363487905528466
0.22912144235862533 0.290496282130329 0.10132363146808068
0.23610221914542953 0.3079797549544257 0.08339106744792382
0.23667907289756576 0.25162243083104313 0.07987424439456384
0.22502940468086044 0.25318627789601506 0.10719728178050439
0.2502712564875011 0.31997065976247013 0.007150110664629142
0.22509377769721786 0.30673693850621403 0.10768860286738793
0.23970716766608993 0.2595983071623725 0.07137021130587975
0.2425386267115001 0.28301041558369816 0.05702194279696862
0.2277871923853282 0.268348745852558 0.10339569753672997
0.2473489599634532 0.2617812676726264 0.04170179075267236
0.23684328369392196 0.2958903832732123 0.08061641162898461
0.23410599998725692 0.32048552468403996 0.09504547423388879
0.25167202524436755 0.32513081267461 0.10901608771350305
0.24661492876304428 0.3260849042235297 0.0793838769819967
0.24023007921470443 0.30131488278493107 0.06974655097987573
0.24019556812537948 0.2555694504080695 0.0685159832861654
0.24876606039298813 0.3245985431967658 0.05810796922709863
0.23322933487190048 0.2881746216116828 0.09322645968463342
0.2420943932939891 0.26565711930379093 0.05850624746348779
0.22856092027915756 0.3073548598586005 0.10218906110789697
0.23389988712562362 0.3191261811552924 0.09447395509745996
0.24612897209419052 0.3264530821143073 0.10836332744624536
0.253094549696577 0.3255925102530402 0.09252258843448083
0.22668999008430282 0.3213244004546088 0.10948711341884057
0.23399763874305526 0.2820683641730231 0.09104141301181237
0.24642484955085556 0.2794245405493659 0.04534062451388757
0.23449271492255966 0.2623041196165961 0.08971070951487939
0.2418734984804515 0.31730013325795353 0.06315946287181298
0.23440724186195175 0.25952332451924504 0.08997994369532983
0.2521981554437999 0.3257918281851691 0.09021356410052697
0.23554777673972885 0.3154378457365912 0.08506297773387353
0.25069766811622424 0.3259167595206183 0.10526027983691613
0.24615042976630966 0.3260330481825751 0.08685204094912927
0.23339646629585067 0.29832636550053776 0.09275024837520043
0.240704412977827 0.2499370498953742 0.06482186621692101
0.24124776891959945 0.2628534360228461 0.0628169447806112
0.2409630375315074 0.2729167862234992 0.06507768935229699
0.23460346035255233 0.28108852341756047 0.08931535190608422
0.23751079611076156 0.3235137386618537 0.08814909762408654
0.242432768862379 0.2915913386641425 0.05713140672709863
0.2507985191751842 0.3263242764769477 0.10013574070002954
0.2461825566698436 0.26585208609685124 0.046110329094194574
0.25011783413184924 0.3262371940909308 0.08758625096347253
0.23613416723502914 0.30589716866597355 0.08327158993747155
0.23037671617759506 0.2861565871535224 0.09910362667109887
0.23712908796561996 0.30851929619893254 0.07960381812121789
0.24153315595878402 0.30310171082600773 0.05998441285159509
0.23736917547477523 0.2708030267058295 0.07878765172030847
0.24078499845756332 0.30872654154881657 0.06594443029429833
0.23254900745643417 0.31714867785557926 0.09669407910373132
0.24266832641853134 0.3266493006049079 0.1067317397024862
0.24123125843299667 0.3102484269438666 0.06251325911548059
0.24294685892356674 0.2814081831274909 0.05586808628108422
0.23924338392509262 0.2992984576521796 0.07382812804248254
0.2351819234300975 0.27316992714986027 0.08709361857440392
0.25054674915565295 0.32515131667241276 0.06672176426913659
0.249055083315504 0.26302265360936344 -0.011304143008924326
0.24078100494636337 0.2893885298071784 0.06643747991588037
0.23985850385917465 0.29457246497258366 0.07139458960559289
0.2268196301866893 0.2548137231169623 0.10447928017642419
0.24454271368278305 0.31738965943440617 0.05400651401545922
0.2250028806139354 0.2822607679663581 0.10784420079257409
0.24915229849113266 0.2952321095763129 0.03336333936717431
0.2384792523790721 0.2885715289412421 0.07584744400050561
0.23404806427253524 0.2987711353598517 0.09089466637637536
0.2442681746889476 0.2717514558134955 0.05203312343623559
0.24135571293128769 0.3259543700514716 0.0907218725111715
0.24320065550102035 0.2484695835410041 0.05415549582507531
0.24000256828559677 0.28530608847722233 0.07057672447230737
0.24652665428413192 0.2685168309508246 0.04492702788379113
0.2317748623300914 0.2594054861365241 0.09662797755267541
0.23241388372672836 0.2829940839110297 0.09529280370738427
0.2439964371134166 0.25946056082829655 0.05277138656642358
0.23275291494621078 0.3112426920233649 0.09429070061709802
0.2502213077951793 0.322659961730091 0.040647146168016596
0.238276536982191 0.32161640360936344 0.08362027710940759
0.24577378801597397 0.30308692887410343 0.04727393096949975
0.23043405584586898 0.3065165801344794 0.09899389452006738
0.24090945295585434 0.27919691041096867 0.06545006937053124
0.24346363119376938 0.2621626777945441 0.054441508713030023
0.24909460119499008 0.31460028126820744 -0.02795982652638038
0.23922878078712265 0.28049658969029606 0.07385685748126428
0.24682008795036117 0.2777922673521918 0.04381385153796594
0.24031972460044662 0.27728360131367863 0.06900906271006982
0.23604768089546005 0.2551377935706061 0.08256935781505029
0.24351435474647323 0.32519059613331974 0.0831525594618551
0.23132770828498642 0.24868880942448798 0.09181132620837609
0.23744493297828476 0.29234152272328556 0.07860570854213159
0.2412840085436229 0.3008349461851996 0.062073198023103876
0.24403464369071762 0.2757854385672492 0.05275287932422082
0.22747003607047836 0.3145347757635993 0.1039774090674154
0.24282139114631454 0.2868468685446662 0.05607816285159509
0.22942536644233505 0.32253550723179997 0.10661703056361596
0.23232364229453842 0.274460486918537 0.09547280973460595
0.2308798985887889 0.3022351785002631 0.09816068119075219
0.2352720456529979 0.3155559225378913 0.08633511966731469
0.24012100271476547 0.2989470882712287 0.07023971981074731
0.24678277544273178 0.2606021685896796 0.04380574530627648
0.24776374868644516 0.26958125069722355 0.0401615173247091
0.24386834673179428 0.3165798707304877 0.05544188326861779
0.23505204490913192 0.3021986408530158 0.08760317868258874
0.24641912750495712 0.26651715472325505 0.045326438608431024
0.23831617407096664 0.3188004417715949 0.07848322099711816
0.22983961872352401 0.29855453208073796 0.10010787552859704
0.23551290802253524 0.26002632811650456 0.08574369257953088
0.2399232941080455 0.3095737023650092 0.07072904414203088
0.2244716840196971 0.30034052565678776 0.10872634953524987
0.23082792333854477 0.28053169682606877 0.09826251572635095
0.24761044554008285 0.28621571496113957 0.04076006716754357
0.2503746705461864 0.32635580733403385 0.08530050224330346
0.24718516639961044 0.262188188582508 0.042338308754228754
0.23045306972755233 0.27306341364964665 0.09897166198756616
0.2404370265413646 0.25766145423039616 0.06761553591754357
0.2325632529665355 0.29093723729237736 0.0950100988772146
0.23927670292152206 0.314896277934162 0.07409068650271813
0.24107145838035385 0.26314031317815006 0.06409284180667321
0.24123888782752792 0.2568046970663947 0.06241836852099816
0.24135529569877426 0.27858828738316715 0.06214436596896569
0.24397772125495712 0.2486880345641059 0.05048232978846948
0.23440634779228012 0.27328448727711857 0.08989235466983239
0.23819440178169052 0.2740391416846198 0.07660627073314111
0.2405561762262706 0.3264387769995612 0.10950722998645226
0.2350346403528575 0.2936333341895026 0.08765595859553735
0.2357983546663646 0.2663929982481879 0.0845084161188833
0.2455218391825084 0.3266606254874152 0.09868007606532495
0.24941736034644882 0.32667862609013737 0.07256501621272485
0.23501121572746078 0.2803513927756232 0.08778261846568505
0.23521381191505233 0.3142056389151496 0.0863012046244375
0.23716204933418075 0.31546419098958195 0.08030250376727502
0.23386007122291366 0.30439596608266056 0.0914286345865957
0.25085866026176257 0.32514386609181584 0.05509313649203698
0.22783392242683212 0.311543337851612 0.10330342954661767
0.24714076093925277 0.32181446984395207 0.053174731197618647
0.24901252559913437 0.25711529687031925 0.00030889815356651985
0.24377828411353866 0.2518237753210944 0.05247267788913171
0.23738371900810043 0.26630204156026066 0.07871699041392724
0.2277528005052928 0.2726081533728522 0.10344662970569055
0.2408376293589 0.326204769164173 0.10054579085376184
0.2361645656038646 0.3075529856978339 0.08316278165843408
0.2499478416849498 0.32629578545674504 0.10191574400927941
0.24258249573005478 0.2722262664137763 0.05708145803477685
0.23726743034614364 0.2807919307051581 0.07908370799090783
0.22811233572257797 0.28686075642689884 0.10288661426570336
0.22775423101676742 0.25760721400365055 0.10353785461451928
0.24498045019401352 0.264215342551319 0.04981636709239404
0.23648565582526962 0.300395123511402 0.08196446007754724
0.24115311674369613 0.2983296437560004 0.06316867178943078
0.2492030816484813 0.2926865740118903 0.03223326510455529
0.24735754303230087 0.31284867957219303 0.040887680712007685
0.23760634235633651 0.3249106927214545 0.09399372047450463
0.24015372566474716 0.27106445267781437 0.06977817124392907
0.22897630504859726 0.28566133216008366 0.10154917544391076
0.24523883632911483 0.28047262862309635 0.048971352043413324
0.24581771663917343 0.280850879698841 0.04722931689288537
0.24687659315360824 0.28826599553212345 0.04359537071254174
0.23566871456397812 0.28228580191716374 0.08507495826747338
0.24749320320380966 0.3204262776671332 0.04664495295550744
0.23683297209037582 0.25811343625172795 0.08049788779284875
0.2351170139719371 0.28872930243596256 0.08732092088725488
0.2429086523462657 0.28253471091374577 0.05595111555125634
0.22493558696998397 0.2570885939894599 0.10795619792010705
0.2302945213724498 0.2655811829863471 0.09930160349872033
0.23301505617393295 0.2497798724471015 0.08909582799937646
0.24757456354392807 0.29237060978993595 0.04089772409465234
0.248214121382368 0.3245548529921454 0.0651278168585531
0.22468304209007064 0.2817985935507697 0.10837545699145715
0.24905103019965927 0.2709091229735297 0.01200747198131005
0.2414641933847789 0.25311993792638005 0.060342904987596674
0.2333767967630748 0.31063323453053654 0.09254431432750146
0.24130105547202865 0.30301540330037297 0.06198486393954675
0.2379403667856578 0.2767523451147956 0.07729977077510278
0.24688648752464096 0.2544044776259345 0.040880557956957025
0.2499499874521617 0.3193938656149787 -0.025569590863920053
0.2455707149912242 0.2606363816557807 0.04788070625331323
0.24314981273902694 0.2515655679999274 0.054752227726244135
0.24414282612098495 0.26978015139683903 0.052416709127687616
0.24363255075706283 0.2845229430495185 0.05377366847064416
0.24784886411918441 0.32624416783436955 0.0713202030089132
0.24191629461540023 0.3113173170386237 0.05898475355174462
0.23907601408256332 0.27671997979268254 0.07427012628581445
0.24839376978172104 0.2484189791975898 -0.02829605632755836
0.23509561590446273 0.2542121930418891 0.08581760233905236
0.24088400177253524 0.25100230410679997 0.06389465636279504
0.2347847180773143 0.2703103943167609 0.08873644179370324
0.244580145399702 0.3265780134497565 0.10249605483081262
0.23831682972205917 0.2772679848967475 0.07629638618495385
0.23473351768745224 0.3079627676306647 0.08867752260234277
0.23227011732353012 0.31158100798711 0.09542920893695275
0.2426948504854564 0.3161592407523078 0.05862763232257287
0.23630439810050766 0.2905976100264472 0.08260127610232751
0.2423891382624034 0.27648132279500187 0.057634440126680536
0.23186343483222763 0.2565386815367621 0.09649970835711877
0.22490846685661117 0.28485988810643376 0.10800096100833337
0.23738896421684066 0.2652240915594977 0.07869863218333642
0.24592756799949447 0.27378439143284977 0.04692294901873986
0.23866205982459823 0.2860562725363654 0.07535519904162805
0.24450128845466415 0.30801092818364323 0.05084123915698449
0.24035429529441635 0.3041723294554633 0.06905346817042748
0.22864043287528793 0.2893215937910956 0.10206848091151635
0.23486679367317 0.2910579963026923 0.08835452503230493
0.23381548694862167 0.31627529099568547 0.09283765858676354
0.24701749853385727 0.27878450587376774 0.04305109089877526
0.23245709709419052 0.27490996554478825 0.09522238081958215
0.2336730318476085 0.28016792967900456 0.09196975535418908
0.24512803129447738 0.30206000044926823 0.04916870302226464
0.23604499868644516 0.2655225916205329 0.0835410327341787
0.23643695883048813 0.2981855793295783 0.08212428993251245
0.24763005546821396 0.3051533026991767 0.04058956808116357
0.241398091833723 0.3196920080481452 0.06899970478084008
0.2490519242693309 0.277410618811695 0.012742576065324942
0.2518366532732372 0.3260589762030524 0.09664430922534387
0.2405195789743785 0.28515946105107487 0.06795727914836328
0.23867517284644882 0.3079391045866889 0.07534873193766992
0.24085104040397445 0.31252645686253727 0.06485381430652062
0.23055362276328842 0.28608452513798893 0.09877255267169396
0.2367438631464366 0.2680157347021979 0.08097022480037133
0.2328548388887767 0.27604448035344303 0.09431174105670373
0.24435239605201522 0.291189960986225 0.05132499045398156
0.2520443754602794 0.32619189456090153 0.08382352894809167
0.24604051880134384 0.31236832573994816 0.04616599983241479
0.24158799223197738 0.30579351618870915 0.059520331087373896
0.24319696001304428 0.2764618320761603 0.055263397159837885
0.2368044214655284 0.2691209240256232 0.08075365132357995
0.24194603733314315 0.32243280842885197 0.07298668927218835
0.24534737638725082 0.325655989199726 0.0674560934927694
0.23958384565604965 0.26789962485417546 0.07253515428569238
0.23183846048606674 0.26980625823125065 0.09639173454310815
0.2285453038622264 0.24879740908726874 0.10111391252543847
0.23332452348960678 0.2952638192473334 0.09295388764407556
0.2414268808771495 0.2892211599646491 0.06125217384364526
0.24258571438087265 0.2734975142775458 0.057072725954317255
0.2516111092974071 0.32137393191441715 -0.007223281202054818
0.23805319837821762 0.3157427830992621 0.07767757481601159
0.2387503343035106 0.26970361903294743 0.07508277601268212
0.24450462631477157 0.25701986983403385 0.05112570232417504
0.22733157448066513 0.2943642659483832 0.10409518784549157
0.24183660320533554 0.27997278407200993 0.05915364331271569
0.22429072431815902 0.2735571189223212 0.10902505821254174
0.23798918298972885 0.2890300674734992 0.07715868658091943
0.23729353718055526 0.2978038711844367 0.0789992482092611
0.24099760822547714 0.30496900513753117 0.06464907235171716
0.24805897049201767 0.2893803043661994 0.038996991577409906
0.23243188432945053 0.3204914255438727 0.1003012627985708
0.23754566482795517 0.2557361049948615 0.07803424901034753
0.23468428425086776 0.32453875973805607 0.10328659123446862
0.24645971826804916 0.3064427299796027 0.045079705181383295
0.2466393070627574 0.3231698198614997 0.06212708062198083
0.2431198912073497 0.29027216866597355 0.054967907133363886
0.23290162853492538 0.32079117730244816 0.09955691999461572
0.2371655660082225 0.3158031029997748 0.08036186999347131
0.24259119800819198 0.29758261874303044 0.056634482803606195
0.24509548715843002 0.3261945767699164 0.0911944181349508
0.23479324154151718 0.250802211314289 0.08434870547320764
0.23137944511665146 0.32316022351369084 0.10600289410617272
0.22760974935783188 0.28295468524083317 0.1036651999380819
0.24556457571281234 0.31853770449742497 0.051426854791902704
0.2446951823641185 0.3203941507635993 0.06043386167552392
0.24645506910575668 0.31655602887257756 0.04698466962840478
0.2530466275621776 0.32542376950368107 0.038825658026003046
0.24214350752128402 0.3189846797285956 0.06469216650988976
0.23480760626090805 0.25260912612065495 0.08581554597880761
0.2398404436518077 0.29247330859288395 0.07146492308642785
0.22723131946815292 0.25865649417027653 0.10430675453212182
0.2493823128153209 0.3265174551306647 0.0711322695639364
0.23757570556892196 0.2539030833540839 0.07779997295405786
0.2405881243158702 0.3042919559775275 0.06788459128405969
0.22499066166175644 0.2640994115172309 0.10785862511660974
0.22983884386314193 0.3089677019415778 0.10010596817996423
0.25184154085410876 0.3253173156081122 0.05066373652484338
0.23655128053916732 0.3105555696783942 0.08168378180529992
0.24905204347862045 0.2898253722487372 0.00976416176822106
0.23079692892326156 0.26950203612431706 0.09833582943942468
0.2409744816233043 0.28606026604756535 0.06495856946971337
0.24536639026893417 0.2886966986952704 0.048432764473222895
0.23701750807060043 0.26651274397954167 0.07995068735148828
0.23355376295341293 0.2746283932028693 0.09232085651423852
0.23049836925758163 0.26462214425191105 0.09892856782939355
0.23896628193153183 0.3146005792914313 0.07470130628611962
0.24669438175452987 0.2936270160971564 0.044294115963243647
0.24905418924583236 0.26146387293919743 -0.011028233108259042
0.2482601361681346 0.26787101462468327 0.03814243978526513
0.23210370115531723 0.3039814157782477 0.09587004488971154
0.23232596687568466 0.2837639971075934 0.09545659727122704
0.235111470739973 0.30596106484517277 0.08735507434871118
0.2452241735865001 0.2504688425360602 0.0460649699595205
0.22419046930564682 0.27620672419652165 0.10919239825274865
0.23902403883231918 0.25719737246617497 0.07390567368533532
0.24120968155158798 0.326029889136402 0.09162136620547692
0.244804378073347 0.27979498341664494 0.0503241092589132
0.24067854456199447 0.3024534507094306 0.06750201887156884
0.22817706636680404 0.27726732924565495 0.10278805798556725
0.24883627466453354 0.31967466309651554 0.04022538370158593
0.24949883989585678 0.3228377027808112 0.04539873904254357
0.23655557207359115 0.3231087847052497 0.09237596100833337
0.24075924925102035 0.2688261790572089 0.06636663979556481
0.24304693512214462 0.3250102324782294 0.07754838174846093
0.2285988288332347 0.29883360102757633 0.10213330096270959
0.2397733884264354 0.2786528988181037 0.07179164594676415
0.24589252046836654 0.30581825211629093 0.04690935915973107
0.2396629410196666 0.2620282693205756 0.07182371324565331
0.24352645448936264 0.29271458819493473 0.05372231906917016
0.24958133272422592 0.32651590540990055 0.09899174875285546
0.2512182550836925 0.32553135588750065 0.10771026915576379
0.2377742486406688 0.29219358399495304 0.07772662943866174
0.23001974396003524 0.30250822737797917 0.09977078146006982
0.24058395199073593 0.25211136773213566 0.06575613922145288
0.2486033397127513 0.29180341199025334 -0.03277445131275733
0.24286782316459457 0.32359617188557804 0.07202315038707177
0.22512244753135482 0.2990381045638007 0.10764592594172875
0.24042182735694687 0.3099522514639777 0.06805941170718591
0.24191695026649276 0.25531213715657414 0.05877721017863671
0.22442829183830063 0.2532501740752143 0.10840296453502099
0.24290668539298813 0.27176009848698796 0.05612194246318261
0.24907654098762314 0.26648973658665837 -0.020776125726438364
