ply
format ascii 1.0
element vertex 683
property float x
property float y
property float z
element face 0
property list uchar int vertex_indices
end_header
-0.16781605382609588 -0.13275859815705662 0.18435875430815038
-0.17152890165496093 -0.05519383711446172 0.18217293277494725
-0.16803608437228423 -0.12605136198628789 0.1840731288503867
-0.16530900796103698 -0.11438256067860966 0.18604753270857152
-0.1693772186820529 -0.07099726361859685 0.18339146033041295
-0.15727963646102172 -0.06141545934308416 0.19323781982176122
-0.18138207097697479 -0.10213747186292058 0.17409483447782811
-0.180558036762955 -0.09237885040868168 0.1749118353437644
-0.16726342936206084 -0.09366607231725102 0.18429640784971532
-0.17530630131411773 -0.10099213881123906 0.17958334937803563
-0.17771422465491515 -0.07763897938359623 0.17753092303983983
-0.16827904780554992 -0.13878260118592625 0.18417791381590184
-0.1584064473693393 -0.13226276201833134 0.19277075782530126
-0.17984324296164733 -0.06228917402852422 0.17562044516317663
-0.1592127044980548 -0.138445581623205 0.19206933036558446
-0.17746015985656005 -0.08232476873029118 0.17775798693411168
-0.16650506456542236 -0.07064744395841008 0.18534437671415624
-0.15842519303012115 -0.08775525850880986 0.1917761947225791
-0.16049316127944213 -0.11767756504643803 0.1904733563970786
-0.1751847823445819 -0.050911243387349904 0.1796790744375449
-0.1818080653731845 -0.08682515782941228 0.17367253556959447
-0.17765704889941436 -0.0953579203568781 0.17758203402273473
-0.17947047551322204 -0.07938783926595097 0.17596171155683812
-0.16093994279551727 -0.19899525804150944 0.18949953571073827
-0.16465273101973754 -0.09986298842061406 0.18652001872770604
-0.18393255372691375 -0.056038971372731984 0.17140246287100133
-0.16195557614016753 -0.1443882988177622 0.18963936820738134
-0.1546365578954242 -0.08597245378125554 0.19524488702528295
-0.16809592743563873 -0.07357129020322209 0.18405930057279882
-0.16524871786284667 -0.051904197164663136 0.18757472291700658
-0.16746301551509124 -0.11822276873219853 0.18431405082456884
-0.18346032102751952 -0.07521527571309453 0.1720344509195548
-0.16673253079104644 -0.09885498447049504 0.18471226945631322
-0.15588923891234618 -0.11375417871106511 0.19470445171110448
-0.1629433443133853 -0.05751546783078557 0.1891504313062888
-0.15604659517455322 -0.12012344164479619 0.19465033069364843
-0.16356078882861358 -0.10408851070035344 0.18749002471678075
-0.16065522630858642 -0.13742722136605626 0.19085572019331273
-0.17622328897166473 -0.12866486174691563 0.1788631166528922
-0.16416300435710174 -0.06027072233785039 0.1880649115156394
-0.16282558043647033 -0.14861048323739415 0.18875334516279516
-0.1691188027446292 -0.09676467938054448 0.18325320735685643
-0.1647773047273181 -0.11286553306210881 0.18649653449766454
-0.15796519418406707 -0.1045035080396021 0.19257561221830663
-0.16770281990218383 -0.06987794799435978 0.1845882917951804
-0.1599591781680606 -0.07830127639401799 0.19048480048887548
-0.1837401350324176 -0.16623721582520848 0.17166394844763097
-0.15922030409026366 -0.08038511438001042 0.19110784784071264
-0.16204738219428283 -0.09403928680051213 0.1887433315824729
-0.1651169021909259 -0.05213900966275579 0.18767605081312475
-0.18296271165061218 -0.04740941090215093 0.17252773895971593
-0.15705012877631408 -0.13838825685609227 0.19391129270307836
-0.18096465964961272 -0.0664907054387415 0.17450869932882604
-0.15717954536128265 -0.13457271022427922 0.19386343017332372
-0.15821085472750884 -0.08897402448285466 0.19195357814543065
-0.17091710467982513 -0.0819127218209589 0.18221563950292882
-0.18251180251288635 -0.09698274297345524 0.17297483340017614
-0.17088728745627624 -0.12678944630254155 0.18236140266172704
-0.17755493124175292 -0.11222344202626591 0.17767328873388585
-0.16587781508612853 -0.15389416677583104 0.18591252818815526
-0.16652807195830566 -0.06641128224957829 0.18573639646284398
-0.1778722514693759 -0.06234997076619512 0.17738971963636693
-0.16555618842292052 -0.07731097502339726 0.1856499101232749
-0.1769073267762683 -0.08596509260762578 0.17825187102072057
-0.18173935611891967 -0.1691629843198145 0.17374063387625036
-0.16274602313685638 -0.08051290673840886 0.18813715234510717
-0.17098950942206603 -0.12882546646226292 0.18231219902746496
-0.18351818223643523 -0.13248164517510777 0.17196560755483922
-0.16682964165854675 -0.15283166927922612 0.18510923639051732
-0.16519356866526824 -0.06458082360852604 0.1868945743154746
-0.16428380807090026 -0.12437778277028447 0.18712905898802099
-0.17396638889956695 -0.0739086524926508 0.18042669549696264
-0.15815771718669158 -0.09496551317799931 0.1920539523672324
-0.174945723015549 -0.13268856269944554 0.17982290044538793
-0.1789052744691394 -0.14218487901318913 0.17646671190969762
-0.17995600004840118 -0.04847958249677068 0.17550865665190038
-0.18159474034953338 -0.04755135936368352 0.17388401284925756
-0.1569476385896228 -0.12326494915116673 0.1939008022855979
-0.1581947465722583 -0.053593690820821584 0.19331476941816625
-0.15902456243682128 -0.13831935388673192 0.19222793832533178
-0.1682527174537204 -0.0767058686696375 0.18368045345060643
-0.1677041312043689 -0.14525769216645604 0.18462256446592626
-0.15497386058020812 -0.07578235430348759 0.19494382396452245
-0.17820633550334197 -0.08956670326817875 0.17709127917997655
-0.17323875029731017 -0.16929743749726658 0.18087975040190038
-0.15834356446910125 -0.06847184462178593 0.19191793456785497
-0.17620476682830077 -0.14591034812558537 0.17887962713949498
-0.17695681353259307 -0.0883492783986414 0.178207703978942
-0.16302468975234252 -0.16640772981274968 0.18766633525602636
-0.17623389859843475 -0.11266222161877995 0.1788536693166953
-0.1653271128718875 -0.12522644860375767 0.18621317401640233
-0.18084226151156646 -0.1641178683720911 0.17463002458326635
-0.15516036351371032 -0.05120312733281499 0.19538847461454686
-0.15709356566119415 -0.11673274201978093 0.19362095847837743
-0.166403259832146 -0.04556190533269292 0.18637076869718847
-0.1577374299352191 -0.08453633947003728 0.19236526742689428
-0.1600333263461612 -0.1309089170180643 0.1912491108488303
-0.1652716358487628 -0.0691183464013422 0.18649575963728246
-0.16312521298575622 -0.06973018807996159 0.18818942561857518
-0.169030155736687 -0.1640534804545725 0.18343789234869298
-0.1662198712413333 -0.12387190324891453 0.18538359657041845
-0.18127075930285674 -0.062110926338323415 0.17420519247762975
-0.18492289980101806 -0.12496663195718175 0.17005653038732824
-0.18024871845889312 -0.12235739392865544 0.1752184714388114
-0.1720966955010913 -0.09525948328603154 0.18153733864538488
-0.16093052526164275 -0.04930045766461736 0.191121020467208
-0.1752930839841388 -0.0718545274220789 0.17959780350439367
-0.17260296245265228 -0.09978219432462102 0.18123219266645726
-0.15437240501094085 -0.07997554106343632 0.19550357118360814
-0.17389054198909026 -0.06223800344098455 0.18057558789961156
-0.16042217214751464 -0.10271417660344487 0.19025526300184545
-0.17593437035727721 -0.05030390185941106 0.17912123456709203
-0.1769579460208438 -0.1533405886374796 0.17820669069998082
-0.16109989185977203 -0.11898494822610264 0.18993071571104345
-0.17313785453486663 -0.11067491335500126 0.1809143508981925
-0.16117880840945464 -0.07291134757626896 0.18953672900907811
-0.17366094489741546 -0.12474098367322331 0.18061999335996923
-0.17819445927787048 -0.10672586722005253 0.17710188880674657
-0.17851161559272033 -0.07627605957616215 0.1768184687208396
-0.16035966177630645 -0.0533860878430689 0.19152609363310155
-0.16679627795863372 -0.13998005849946385 0.1852330352377158
-0.1594832648818515 -0.06921502513516789 0.19101718917600927
-0.16714369853186828 -0.15359817010987645 0.18486163869612035
-0.17118909557509643 -0.13859678370583897 0.18226287618391332
-0.1692740430419467 -0.08351423902142888 0.18314901843778905
-0.15581684907126647 -0.07215636534322148 0.19415692344419774
-0.16159249444651824 -0.12975640160668736 0.18977419391386327
-0.18156577249217254 -0.1262136356316889 0.1739127422880393
-0.18196144302535278 -0.094736184307226 0.17352045431845006
-0.16828696032214385 -0.1168589846574152 0.18381867662184057
-0.15528744061637145 -0.05375408691991216 0.19526539102308568
-0.18324465652156097 -0.05680506987203008 0.17224825278036413
-0.15371316273856384 -0.13486255271066075 0.1969159628462058
-0.16279571850943786 -0.07626175446141606 0.1881136085104209
-0.17917564113784057 -0.11100226206410771 0.17622516408674535
-0.1828865667169116 -0.12043824357617741 0.17260328784696874
-0.16026828785586578 -0.04447036547292119 0.19169894710295018
-0.16028387447047454 -0.1418044523679102 0.19111017242185888
-0.1794395854060672 -0.07043852967847233 0.17598933830969152
-0.15972023804831725 -0.11046954555142766 0.19111029163114843
-0.15867678423571807 -0.19258428675759678 0.19158331409208593
-0.15785593887019378 -0.08164408368695622 0.1922562505316001
-0.15638009806323272 -0.07295724315274602 0.19363115087263402
-0.17472010453391296 -0.09953704042065983 0.17994014278166112
-0.15577725668597442 -0.11750128430951481 0.19483248248808202
-0.16713070471930724 -0.07205104393590336 0.18475768819563207
-0.16606895228076202 -0.12454491419423466 0.18553380027525243
-0.18063032229590636 -0.1313376532279337 0.1748401309560996
-0.17290682693171722 -0.05047812623608953 0.18120551958792028
-0.15857387681651336 -0.15864730937112217 0.1918861056875449
-0.183946024376633 -0.1088665382348383 0.1713841642450553
-0.16687038143325073 -0.05713480276692754 0.1861178065847617
-0.1663307954852603 -0.11586030883420353 0.18516609922163305
-0.1814932336394809 -0.14724032146561986 0.17398462548963842
-0.1598196436946414 -0.15064417881596928 0.19122592464201268
-0.18274308343577605 -0.13821737033952122 0.1727455343317252
-0.18038335045027953 -0.13872661752332097 0.17508504644148168
-0.17268773515868407 -0.16026217801202183 0.18126282945387182
-0.18272104461837035 -0.05771597785580999 0.1727673794340354
-0.18182660241770965 -0.15246167344678288 0.17365411773435888
-0.1720065881793521 -0.13620559436906224 0.181714841277526
-0.16876515348601562 -0.2015467540704096 0.18357197299711522
-0.16898308296847564 -0.06410759253133183 0.1841261769842368
-0.17655799885440093 -0.06097226900685674 0.17856408015005407
-0.17747936745333892 -0.0678400055848444 0.1777407611917716
-0.1556912918870471 -0.11123239559758549 0.19486395374052343
-0.1656478305642627 -0.05152213139165288 0.18726120248548803
-0.18360562225032073 -0.08137890262235051 0.17184681549780187
-0.1717232127969287 -0.0640526966534937 0.1819810058187705
-0.17453896601844054 -0.19559427661527043 0.1800637032102805
-0.17857819398093444 -0.07603224677670842 0.17675898328535375
-0.17472081978965026 -0.10367992086041813 0.17994058981649694
-0.1799920459573291 -0.06393366617787724 0.17547295346967992
-0.15633835991072875 -0.12000143093694096 0.1943830038618308
-0.15464990933585387 -0.059484209247716725 0.19542364135496434
-0.1754131575410388 -0.09649136228192692 0.1795178140711051
-0.18334760864424926 -0.13795795602429753 0.17214615002386388
-0.16263179083514434 -0.07880591911900883 0.18823424831144628
-0.17133427758860809 -0.047722275682576955 0.18223861709348974
-0.16691530843425018 -0.11033770007718449 0.18460688844435033
-0.17168122132468444 -0.06567504567731267 0.18195418372862157
-0.16435706217932922 -0.1186098710976923 0.18694392696134862
-0.1811977287118457 -0.11102762384045964 0.17427761212103185
-0.16687440474677306 -0.0657517270528162 0.18555728450529393
-0.15430354674506408 -0.13093792957890873 0.19634375825636205
-0.15436981220889312 -0.07291382116902714 0.1955075646948081
-0.16202452381301147 -0.13332876128781682 0.18947652831785497
-0.1821185906713031 -0.09256058497060185 0.17336467757932958
-0.15630545814681274 -0.1043429033242548 0.1941100145887595
-0.1644868959968112 -0.09613662523854619 0.1866516257833701
-0.167706753808739 -0.11078074140179997 0.184104361684249
-0.15996346970248443 -0.0613644973718012 0.19114527955763158
-0.17210985322642547 -0.05092644257176763 0.18175152793638524
-0.15692248542952758 -0.08973550362218266 0.19311503425352392
-0.16417404611754638 -0.19500934643376713 0.18678949132673558
-0.17882687946009856 -0.05807843370068914 0.1765367771696311
-0.16522448857474548 -0.06864079398740178 0.18656001344435033
-0.16152974565673095 -0.13772539360154515 0.19006238237135228
-0.17182999451804382 -0.12667046053040867 0.18177471414320287
-0.17383613784957153 -0.0798624710522974 0.1804531897615653
-0.16685245533633453 -0.0822019235574091 0.18456158891432103
-0.1754349877421878 -0.07539307636845952 0.17950875416509923
-0.16170417864966613 -0.13186089260209446 0.18973473563902196
-0.17819104691195709 -0.08015083832372075 0.17710483923666295
-0.175520714122536 -0.06629594726193791 0.17946241155378637
-0.16073830028224212 -0.08404284281361943 0.18983123555891332
-0.1604292949025653 -0.04644244474995977 0.19158927455656347
-0.17150851686644775 -0.11509882969487553 0.18193090811483678
-0.17905170818019134 -0.16995687348473912 0.17633584991209325
-0.1723171283786319 -0.045192952581533254 0.18155989900343236
-0.16529091795134765 -0.15272040230859166 0.18646339431516942
-0.18240521450686675 -0.06132784051526433 0.17308048263304052
-0.15953996380019408 -0.07337787313092595 0.19083730235807714
-0.18204179008651 -0.07633372706998234 0.17344079271070775
-0.16422931452441436 -0.05465384883511907 0.1883262182783347
-0.1814833094661258 -0.11145531696904545 0.17399449005834874
-0.17050000627684814 -0.18005767030347233 0.18254760757200536
-0.17869685192752105 -0.12804752153981572 0.17665294662229833
-0.17723716397929412 -0.06174632472623235 0.17795721545927343
-0.18308604856181365 -0.11585017604459172 0.172405519635604
-0.1582497020547412 -0.18548400265801793 0.19197324767820653
-0.18039856453585845 -0.08057367367375737 0.17506987705938634
-0.16013222535300475 -0.11452042622197514 0.19076798215620336
-0.1797830422704242 -0.058542575069555104 0.17568016901724157
-0.1830122878139041 -0.07296168369878178 0.172478624732421
-0.17802224655795318 -0.14042493266690617 0.17725572839491185
-0.17633074124503356 -0.13132148546803837 0.17876712337248143
-0.17346840699362975 -0.0935825662099207 0.1807014431070548
-0.15664046605277282 -0.07191788715947514 0.19338832154981908
-0.18227958281684142 -0.0769596950494135 0.1732050265382987
-0.15915293594050628 -0.06288554830182438 0.19168714538328466
-0.1656695713584445 -0.046769108005651296 0.18708393827192601
-0.1721880098168872 -0.14670559329617863 0.18164090171568212
-0.16835818787265044 -0.0520970777951563 0.1848726655554038
-0.1713192572181247 -0.12053159935105687 0.18206972733251867
-0.16700255473304015 -0.18472913963426 0.18462167039625463
-0.15690902968096954 -0.17167138619054204 0.1932933117460471
-0.1661387791221164 -0.07778787178624516 0.185139575154708
-0.1544742246453784 -0.10180234474767094 0.19570801511518773
-0.1751242538278125 -0.08792233032811528 0.1796931709360343
-0.16480677922415954 -0.11757167739499455 0.1865327145170432
-0.15901256700206023 -0.07323988837827092 0.19128153577558812
-0.1845609803979419 -0.05857815904248601 0.17054838791601476
-0.17637633879828674 -0.06488677425015812 0.17872635379545507
-0.17185437281775695 -0.12605635387528782 0.1817555214475852
-0.18312263091254455 -0.1164511100732172 0.17236922040693578
-0.16616333623576385 -0.07158976358998662 0.18553052201978978
-0.15626133580851775 -0.16286605162251835 0.19390920654051122
-0.1751847823445819 -0.1448707388125742 0.17967674985639867
-0.1643495817964099 -0.04760080141652471 0.18831769481413183
-0.1662968804423831 -0.16183301372159367 0.18526724830381688
-0.1560021003072284 -0.07728650731671696 0.19398412957899389
-0.18153018851924163 -0.10701486034024602 0.17394802823774633
-0.1598259766881488 -0.07978432936299687 0.19059798970930394
-0.17937773068595153 -0.07120370430577641 0.1760445918153983
-0.16208155055690032 -0.05105492038358098 0.190146842152999
-0.15945280690837127 -0.07690521640408879 0.19091037765257177
-0.16807797153640014 -0.068438257404455 0.18439803376905736
-0.1792309989516757 -0.13699340386021977 0.176175632626937
-0.18428997297930938 -0.12099639637101536 0.1709167148184043
-0.1658137102906726 -0.05278911752332097 0.18710110440962133
-0.18427000542330962 -0.146319578715452 0.1709438051294547
-0.18086799581694823 -0.0524327711545313 0.17460451379530248
-0.17496113081622344 -0.14907140595544224 0.17982599988691625
-0.1719278504436038 -0.1250154332600916 0.1817058409761649
-0.1689759453122638 -0.12345584792722111 0.18348226800672826
-0.16918392081904632 -0.07780733270276433 0.1831641282152396
-0.1562890817706607 -0.06353544754613286 0.19390628591291723
-0.15541700621295196 -0.04525857729543096 0.19526795402281102
-0.18209202190089446 -0.0840043978177393 0.17339099302999791
-0.17627667983222228 -0.0951164321385706 0.1788154031347495
-0.1643798907582782 -0.13712228400338536 0.18739984288923558
-0.17966763277697784 -0.052483643718847096 0.17578555002920446
-0.18212644358325225 -0.08393832606900578 0.173356869370864
-0.15834620197463256 -0.10775136513341313 0.1923472668241721
-0.18369103570628387 -0.04463621539700872 0.17173067584745702
-0.17936698694873077 -0.18386596006978398 0.17605412855856237
-0.17061163087535125 -0.10969355268109685 0.1824368323396903
-0.16476340194392425 -0.05572944445241338 0.18786255374662694
-0.1609677185599826 -0.054396177955755055 0.19096104160063085
-0.17703896363425475 -0.05648460549939519 0.1781343306612235
-0.1676701714580081 -0.11472558540929204 0.18416027084104833
-0.15731221039939147 -0.06874888701070195 0.19276187673322973
-0.1606245448176883 -0.06276475948918706 0.19055817380659398
-0.15649239321398956 -0.12630648476708775 0.19431171670667943
-0.1679538001601718 -0.08971574468243962 0.18390277877561864
-0.18045688768077117 -0.14211117786992436 0.1750120903562766
-0.17266110678363067 -0.08883764905560856 0.18119106546156225
-0.15456102390933257 -0.12741526527036076 0.19598863378279027
-0.15850457151580077 -0.053448732324727834 0.19306037679426488
-0.15826682348895293 -0.06259151858914738 0.19238249316923436
-0.1815801521127246 -0.06358554525006657 0.1738984669756156
-0.15664016802954894 -0.06695168776143437 0.1933895136427146
-0.1654457708184741 -0.13156516415704136 0.18627045408003148
-0.16200393040824157 -0.06679844421971684 0.18927190557234105
-0.16060541172671539 -0.06730562014211064 0.19030634418241796
-0.15538756151843292 -0.05318292541135198 0.19523982063047704
-0.18294879396605712 -0.07921632690060978 0.17254156723730382
-0.16360245247531158 -0.0991837338887537 0.1874295856069785
-0.16907466550517303 -0.04889884156812078 0.1841194416593772
-0.16323321660208923 -0.04502436084378606 0.18923793092481908
-0.1594459821765445 -0.10313683313954716 0.19112549081556615
-0.1837563176934741 -0.1253455684863413 0.17164198413603124
-0.16057037909674865 -0.16145722133744603 0.18993721261732396
-0.17460558911013824 -0.12220933599103337 0.18001950636617955
-0.1562285234515689 -0.11458220643628483 0.19439903751127538
-0.15771133800196868 -0.09864794773686772 0.192599930913375
-0.17966597874808532 -0.14013170761693364 0.17578701034300145
-0.16658119459796172 -0.1312981800519312 0.18522260442488012
-0.1582993527238391 -0.12182133955586796 0.1926367069792014
-0.17040995855975372 -0.0601614670239771 0.18306634679548558
-0.1555680294816516 -0.04721372885335332 0.19515112891905126
-0.18458695312190276 -0.10455506605733281 0.17051307216398534
-0.1735642363612674 -0.10396471185315495 0.1806462492059928
-0.1580813487355731 -0.10756000442136174 0.19258985772840795
-0.17409832378077728 -0.08615618509877568 0.18031675472967443
-0.16473435958075744 -0.10407208962071782 0.18646619573347387
-0.1645280679051898 -0.1604742066346491 0.18673584714643773
-0.1726205905263446 -0.06584566397298222 0.18136213079206762
-0.17761779924082977 -0.06933113498319035 0.17761711135618505
-0.17160619397807342 -0.1407528327189768 0.18200630799047765
-0.1780241241042636 -0.09094917339909916 0.17725402966253576
-0.18140782018351775 -0.12924396557439213 0.17406935349218663
-0.17435447474169952 -0.17522102160085087 0.1801795150350791
-0.1771965434138797 -0.1623626456939066 0.17799354449026403
-0.17939708729434234 -0.1498049305163706 0.17602727666609105
-0.16817675133395416 -0.10379051727879887 0.18380276218168554
-0.16109929581332427 -0.05488359493840581 0.19081506982557592
-0.18260696132827026 -0.05962118072141057 0.1728804792474967
-0.17081923385310394 -0.054101492591985524 0.18272567644827184
-0.17721534867930633 -0.048889036604055226 0.17797670617811498
-0.17163766523051482 -0.07248913807500248 0.18183548107855138
-0.17496139903712493 -0.05037492079366094 0.1798256124567252
-0.17104202111411315 -0.13601304156411534 0.18233720317594823
-0.16364316244769317 -0.13203100425828343 0.18794588104002294
-0.1759094705169223 -0.11888306898702031 0.17914352670423803
-0.15546637375998718 -0.16544065935243016 0.1947436715673667
-0.15950227876353484 -0.09832676810849553 0.19097630038969335
-0.17930218179869872 -0.1185750023804987 0.17611206427328405
-0.15990376074958068 -0.10644283456433659 0.1908228780340415
-0.17569471498179656 -0.047549124189504445 0.17933545366041478
-0.1693033685271762 -0.10136347574818974 0.1831581081461173
-0.1624737491195224 -0.07542523307431584 0.1884236122678977
-0.1712760885541461 -0.05461811585057622 0.1823440577100974
-0.17164361079383117 -0.10683330459226018 0.18182788148634252
-0.17676718135524017 -0.10245200557340031 0.17837715998403844
-0.1725249250714801 -0.12408011717427617 0.18132988467924413
-0.17510668535876495 -0.06929045481313115 0.17971483722441015
-0.15619721611190063 -0.06277593536008244 0.1940337802480918
-0.157693605620148 -0.147694330044874 0.19318745389692601
-0.16488769252944213 -0.09351336521733647 0.18629894510023412
-0.18388661344695312 -0.057864065595754445 0.17146489873640355
-0.1816390116994403 -0.09762948317159062 0.1738400842260581
-0.1758336236064456 -0.07355925006497746 0.17921129718534765
-0.16843738754439574 -0.051821853347905934 0.18479231849424657
-0.1843715568368457 -0.04691844744313604 0.17080582037679967
-0.15557682116675597 -0.15497631890405064 0.19467041745893773
-0.16491648157286865 -0.08549308342564946 0.18626306310407933
-0.1827606221025012 -0.0719392852269495 0.1727281297754508
-0.17766093810248595 -0.06710934204686528 0.17757851734869298
-0.18273236950087768 -0.12816944284070378 0.17275617376081762
-0.18214295406985503 -0.09287178082097416 0.17334050789587316
-0.1794141342227481 -0.10381158752072697 0.17601204767935094
-0.16873618562865478 -0.06126111311543828 0.18442914739363012
-0.18170821269202453 -0.07642411751378422 0.173771509082244
-0.16479383011508209 -0.1432227597915018 0.18713221803419408
-0.1723364700858615 -0.09083121580708867 0.1813895489286643
-0.16932168205428344 -0.0901868597947443 0.18313259735815343
-0.1545149197165988 -0.04862120313275701 0.1958107735227805
-0.17038316627192718 -0.14742107255090123 0.18283776298277196
-0.16494482358145934 -0.04545080227483159 0.18769583955519017
-0.1761252840344928 -0.06401091379750615 0.17895070567838964
-0.1580675502603076 -0.17588275236714726 0.19213918700926122
-0.18087370296168548 -0.12644117636311894 0.1745988811563712
-0.18204947908568603 -0.09235432309735661 0.1734331633161765
-0.17690023382354003 -0.13248842520345097 0.17825824871771154
-0.17831584413695556 -0.07797854704488164 0.17699334874861058
-0.1806033660953067 -0.0758654133759821 0.17486683383695897
-0.18476837475943786 -0.17561056775678044 0.17026654735319433
-0.16726603706526977 -0.07907989186871892 0.18424955859892186
-0.16201486786055785 -0.14585695726502781 0.18954417958967504
-0.18166535695243102 -0.1404120133601511 0.17381397739164647
-0.17646091778922302 -0.05442317885983831 0.17865080490820226
-0.15728048582720977 -0.14343155486215 0.19361762061827
-0.1693181653802417 -0.15589521391023045 0.18342343822233495
-0.15818976958441955 -0.09011634749997502 0.1919694329809409
-0.18402547736811858 -0.06671675605405217 0.1712761308263999
-0.15920433004546386 -0.1109870330773676 0.1916042353224021
-0.16405421097922546 -0.10864358706105595 0.1870907332014304
-0.17138085861850005 -0.0921933011494959 0.1819717969011527
-0.18371601005244476 -0.1157385663472498 0.17169673100225744
-0.18415678640055877 -0.0634510473691309 0.17109773412458715
-0.15469057460475188 -0.1645766155206049 0.19552341953031835
-0.17747631271529418 -0.05475195808041936 0.17774353280775365
-0.18145607014346343 -0.11994280976880436 0.17402152076475438
-0.17542877395796996 -0.0986574546777094 0.17950830713026342
-0.16535099943328124 -0.08968609137166386 0.18589148774854955
-0.16915863354850036 -0.0552231924020136 0.18420092120878515
-0.17830957074809295 -0.14282732767690068 0.17699898138754186
-0.15653673906970245 -0.07634600562680607 0.19348488107435521
-0.17905531426120025 -0.09962990445721989 0.17633263126127538
-0.17557826240706664 -0.06009617013562566 0.17942268505804357
-0.16107990940261108 -0.09495254916776066 0.1895556236814719
-0.15402052899050933 -0.11383473438847905 0.19639865413420018
-0.17953095932650787 -0.07174220246899968 0.17590767994634923
-0.1734157164876483 -0.05532559318173772 0.18088875070326146
-0.16284773846316558 -0.08014279169667607 0.1880489374708396
-0.17688765724349242 -0.08413764400113469 0.17826951399557409
-0.1842022498433612 -0.04704486889470464 0.17103592410795507
-0.17666786511588317 -0.09995406431783085 0.178465911300109
-0.16373599668193084 -0.14220131499398594 0.18811807885877904
-0.16370759506869537 -0.13764999372590428 0.18804244056455907
-0.1542404999320529 -0.0787311450921381 0.19562886014692601
-0.15868778129267913 -0.11855068368543034 0.19219366565458593
-0.17808392246413451 -0.08729707760442143 0.17720059409849462
-0.18088569839644653 -0.17533656520474797 0.17458693042509374
-0.17679071028876525 -0.08416315478909855 0.17835611954443273
-0.17066871722388488 -0.050631787010320485 0.1828083480905753
-0.15592452486205322 -0.10869565171826726 0.1946205879759055
-0.17385696967292052 -0.11697506470311528 0.1804824854444724
-0.18488271136927825 -0.07956248087514287 0.1701111282419425
-0.16734899182963592 -0.13115782601464634 0.18462155118696508
-0.17954669495272857 -0.1034198657952631 0.17589361325018224
-0.18359416325736266 -0.10733106298077946 0.17186237231008825
-0.15786321063685638 -0.07468154592145329 0.19224933639280614
-0.16164019306349975 -0.09543862504590397 0.18908862128965673
-0.17090546687293273 -0.09609660071957951 0.18224553123228368
-0.17051964600730163 -0.0593331412755335 0.18299055948965368
-0.16287275751281005 -0.08689522308934575 0.1880333806585532
-0.17931013901877624 -0.09663733405698186 0.176104911715911
-0.17404634853053313 -0.06541257662404423 0.1804691936086875
-0.16511514385390502 -0.12559972269166356 0.18641118064634618
-0.1763871123378299 -0.11466079516042119 0.17871675744764623
-0.15616526802230102 -0.12834104461301213 0.19463447585813817
-0.15558370550322753 -0.13836946649182683 0.19520125642530736
-0.16020007033992034 -0.1465254680596674 0.19104734912626561
-0.1839338650290988 -0.12203736168969517 0.17140067473165807
-0.16125461061644775 -0.14986045224297886 0.19005159393064794
-0.16329535444426757 -0.09424995941747075 0.18767998471967992
-0.17512632508921844 -0.1377911226235712 0.17970774427168187
-0.16120838721442443 -0.12648132009137517 0.1900211955618125
-0.15587605138468963 -0.15502576095689183 0.19439808383695897
-0.15468337734389526 -0.10688098830808049 0.19569901481382665
-0.15582729478526336 -0.14363319737542515 0.1948846365522605
-0.18251534898925048 -0.09005602759946232 0.172971286923812
-0.1766418923919223 -0.12634373767007237 0.17848906770460424
-0.16031518181014281 -0.09635525507558232 0.1901998902868491
-0.16299575169730407 -0.10611247582066899 0.1879973198484641
-0.18332919080901366 -0.10527947110761052 0.17216444864980993
-0.1545112987344287 -0.19472473425496464 0.19572220102064428
-0.17219544549632293 -0.10678955478299504 0.1814893569063407
-0.16045124431300384 -0.05299317402470952 0.19145546212904271
-0.16680630644011718 -0.09409999413121586 0.1846387173246604
-0.17222375770259124 -0.055193241068013967 0.18169839039556798
-0.15684480567622405 -0.06391912264455205 0.19342348829023656
-0.1783893515651248 -0.11528557104695683 0.1769276644300681
-0.15642869074988586 -0.1468282596551264 0.19430712714903173
-0.18493550618338805 -0.16038065714467412 0.17003933444731054
-0.1802916487042926 -0.0846077160321558 0.17517588392011937
-0.18184142907309753 -0.15433011514771824 0.17363942518942174
-0.17078221936869842 -0.08479782504666691 0.1823079969000083
-0.17539275785136443 -0.07938423318494206 0.17952666536085424
-0.16501269837069732 -0.12975111169446354 0.1866046573232871
-0.15802988012480956 -0.059991385170110524 0.19279281154386815
-0.1842993607108615 -0.04719927472699529 0.17090395942442235
-0.1683832516257785 -0.06705903572667485 0.18432507768385228
-0.16117801864791137 -0.10230871600736027 0.1895808364462119
-0.17786472638297302 -0.12441189152825718 0.17739648476354894
-0.15720472832370025 -0.11336272520650273 0.19349477544538793
-0.16878786285567504 -0.08066618008244877 0.1834041561197501
-0.17142876585173827 -0.05062046212781316 0.18220979824774083
-0.16897582610297424 -0.10871749682057744 0.183368095309661
-0.17745364804911834 -0.056275840231069386 0.1777637685846549
-0.16853956480670196 -0.13197084827054387 0.1838859106611472
-0.169256385165932 -0.13783478302586918 0.18350295081846532
-0.17206540306258422 -0.07507359547246342 0.18153301730863866
-0.17004726429629546 -0.11177482766736394 0.1827647770952445
-0.16573148568320495 -0.1452977613889063 0.18626318231336889
-0.15390778680491668 -0.09277638358701115 0.19615648046247777
-0.1541629989926837 -0.04561829132665044 0.19605843082182225
-0.1762601544444583 -0.13793578309644108 0.1788301850866538
-0.17092132170844299 -0.07546773118604069 0.18223015323393163
-0.16720835467028838 -0.11429681939710026 0.1844253326963645
-0.1593406160657428 -0.12599254710305577 0.19176665797941503
-0.17339574893164855 -0.10975220365155583 0.18075621977560338
-0.17678820689368469 -0.13787848813165074 0.17835832491628942
-0.16224030752825958 -0.06095310611356145 0.18941287055723485
-0.17985459764647704 -0.11233073038686162 0.17560920968763646
-0.16978157659220916 -0.04899259967435247 0.1835294152807456
-0.16938687463450652 -0.04490208191502935 0.1838147427152854
-0.1658505459611438 -0.16182297033894902 0.18562892928831395
-0.18364984889674407 -0.08649178905118352 0.1717866744112235
-0.15413534243750793 -0.0688136772595728 0.19572667136900243
-0.18461635311293823 -0.05067067904103643 0.17047310724966344
-0.16300956507373077 -0.053552176185735524 0.18934319272749242
-0.15466296275305969 -0.09700461787808781 0.19549796834699926
-0.16333075960326415 -0.0922199146233881 0.18764487758390722
-0.1549325247590564 -0.060221697517522634 0.1951890374731284
-0.1829224338119052 -0.1839923517190302 0.1725677634786826
-0.17239927848029357 -0.08602949542630559 0.18134943500273046
-0.16464817126441222 -0.1462902830325449 0.1872273470472556
-0.1608577628915332 -0.08606659931767827 0.18973288789503392
-0.17778539260077697 -0.09636574549306279 0.17746738448850927
-0.16608033676791412 -0.10408308667767888 0.185297467858718
-0.16365481515574676 -0.08333345813382512 0.1873528148245078
-0.1587232162539981 -0.09917798204053288 0.19169757619612035
-0.17801452775645477 -0.049213107057699025 0.1772626425337058
-0.16754385431456786 -0.16628676218617802 0.1843022491049033
-0.17710119088340026 -0.14745936853516942 0.17807871952764806
-0.15797946949649078 -0.14976365429986363 0.19287727132551488
-0.1571319361512683 -0.17600751978982335 0.19306967511884984
-0.17458866139102203 -0.13050017816651707 0.180038758666442
-0.15656989415335876 -0.10660326046574956 0.19395396962873754
-0.17145005961108428 -0.1988381550990427 0.18198216810934362
-0.18144782980132323 -0.11031505031216984 0.17402962699644384
-0.1714214344804309 -0.08166032595265751 0.18192363634817418
-0.169855128723862 -0.061117048689016164 0.18349892750494298
-0.18147459228682739 -0.1527408914052332 0.1740031029295188
-0.164547990757706 -0.055215920635351 0.18805209651701268
-0.16814332802939636 -0.09365048570264226 0.18379978194944677
-0.17683073480773193 -0.05698644680608159 0.1783203567575675
-0.1711378206794284 -0.10223441881764775 0.18212158337347326
-0.18067518969226104 -0.04578166765797979 0.17479569569341954
-0.1773965915029071 -0.11864921016324406 0.17781473055593786
-0.1614315321033023 -0.08879765433896428 0.18925426259748754
-0.1556840499227069 -0.09407233757604008 0.19444338336698827
-0.17875694831061584 -0.04737621111501104 0.1765992428373557
-0.16001675625491363 -0.12283344132531529 0.1910391236852866
-0.18017907043147308 -0.07744153899777775 0.17528752341978368
-0.16452890237021667 -0.07465171379674321 0.18665681138746557
-0.18085054655719024 -0.10467248720754033 0.17462179914228734
-0.17083897789168578 -0.08920621437657719 0.18227807536833104
-0.16374948223281127 -0.11166190666783696 0.18738678947202977
-0.16543551881957275 -0.14894081217873936 0.18645117536299047
-0.16379211445498687 -0.13411311370957738 0.18786422267668065
-0.16336318453002197 -0.15482960207093602 0.18792883411161718
-0.155049260455849 -0.09992691440213566 0.19513288989775
-0.15579580863166076 -0.05682599110234624 0.1945978190016013
-0.16342617173838836 -0.06621929568875676 0.18815902724973974
-0.15720149477172118 -0.08194741172421818 0.1928651119779807
-0.17422839601683837 -0.10686420960057622 0.18024260655157384
-0.18442898591208678 -0.09609520001042729 0.1707277680944663
-0.15958188076663238 -0.06103753609288579 0.19147012487165746
-0.17889505227256042 -0.09198292655576115 0.17647580161802587
-0.16148691971945983 -0.05583005709279424 0.19042161956541356
-0.15767526229071838 -0.11112618012059575 0.19303790584318456
-0.18289541800666076 -0.060618157812246144 0.17259449616186437
-0.16652573247599822 -0.06487392944920903 0.18590311065428075
-0.16314446528601867 -0.08711176676381474 0.18779835954420385
-0.1849339564626239 -0.10239848060239201 0.17004151001684484
-0.1600952853744052 -0.10295724434483891 0.19054732576124486
-0.18395426471877319 -0.08678563994992619 0.1713729585718375
-0.1613903452937625 -0.16004482967484837 0.18928108468763646
-0.17662477095771056 -0.1542764262639368 0.17850435629598913
-0.1555062939708255 -0.12100052399266606 0.19514951959364232
-0.1669390161817096 -0.06049772662747747 0.18595425143949804
-0.17977109153914672 -0.08697959346402531 0.1756919707369071
-0.17483739157366973 -0.12119814319241887 0.17987621680013952
-0.16592646737742645 -0.06210958523381597 0.18663165822737035
-0.16857374807048064 -0.15723095399964696 0.1838706518720847
-0.1603171785657428 -0.1864843325101221 0.19007013097517308
-0.15862139661956054 -0.05778887433637029 0.19257841363661107
-0.16660730143237334 -0.08713548941243535 0.18480209365598974
-0.17836288710284454 -0.044602747388967336 0.17695135727636632
-0.18220881720233184 -0.10696181220639592 0.1732752408098441
-0.18114958306002837 -0.05001228613484746 0.17432538524381933
-0.1826923300807498 -0.05896225137341863 0.17279578104727086
-0.17389738162207824 -0.07673018736470585 0.18041674152128515
-0.16504114468741637 -0.0607677058659876 0.18739137902967748
-0.15893068512130004 -0.09063049716580754 0.1913489486288291
-0.17646681864905578 -0.11777221722234135 0.17864550009481725
-0.16338432927775604 -0.07290294332135563 0.18776730552427587
-0.17360137005496246 -0.13485969168771153 0.18068004503958043
-0.16817079086947662 -0.08521967692006474 0.18377683416120824
-0.17955782612014037 -0.1597253189765299 0.17588362947218236
-0.15664183695960265 -0.13005174262154942 0.1942640925955039
-0.16491786738085967 -0.08585133714307194 0.18626222863905248
-0.16327648957419616 -0.10538225931752568 0.18774721875898656
-0.1674531509463809 -0.10446118874181157 0.18421886220686254
-0.16223026414561492 -0.11040615601170903 0.18873594060652074
-0.18254251380610687 -0.13605087561238652 0.17294434562437352
-0.18237173159766418 -0.14501805169213658 0.1731137122225028
-0.15706833799529296 -0.08741226358044987 0.19298289075605687
-0.18422929545092803 -0.13436898154843693 0.17099914804212865
-0.17521833975959045 -0.056327845283635915 0.17966667667143163
-0.1667747457807086 -0.10290044111836796 0.1846895600866538
-0.1689799984281085 -0.09387984437573796 0.18332854762785253
-0.1817203869407199 -0.06849413675893193 0.17375946894399938
-0.15618194242167693 -0.08351164621938115 0.19381342187635717
-0.15701140065837127 -0.11541121763814335 0.19369164958708104
-0.18274691303420287 -0.17074805063832646 0.17274171963445958
-0.15659537513900024 -0.06106331510175115 0.19380859390013036
-0.16451972325492126 -0.07835027141202336 0.18658111348860082
-0.17099266846823913 -0.1080217318021143 0.1822139705728751
-0.16109446783709747 -0.15019213718999272 0.19016490236036596
-0.15387123425650817 -0.047235812374242604 0.19623193994276342
-0.16975180407214385 -0.1208461479626978 0.18298367515318212
-0.16234264870333892 -0.07366653842557316 0.1886219765257102
-0.17902865608382446 -0.13629646165002232 0.17635650292150792
-0.17236318786788207 -0.08429538769353276 0.1813691641401511
-0.18439328272986633 -0.07138865751851445 0.17077631607763585
-0.1675217558925174 -0.09541034264195805 0.1841540123533469
-0.15389012892890197 -0.12508803171742802 0.19650773063413915
-0.1690395881717227 -0.1481848017655695 0.18374125018827733
-0.16095119317221862 -0.11967160863507634 0.1900858666013938
-0.1843969633166812 -0.0760478035889948 0.17077130928747472
-0.16781605382609588 -0.13275859815705662 0.18435875430815038
-0.17152890165496093 -0.05519383711446172 0.18217293277494725
-0.1736015190665744 -0.17048388285268193 0.18065167322866735
-0.1608563323800586 -0.13003052336800938 0.19047526374571142
-0.16530900796103698 -0.11438256067860966 0.18604753270857152
-0.1693772186820529 -0.07099726361859685 0.18339146033041295
-0.15727963646102172 -0.06141545934308416 0.19323781982176122
-0.18138207097697479 -0.10213747186292058 0.17409483447782811
-0.180558036762955 -0.09237885040868168 0.1749118353437644
-0.16726342936206084 -0.09366607231725102 0.18429640784971532
-0.16523545582938415 -0.20238530201543217 0.18597600713484105
-0.1749757488553546 -0.15983968538869267 0.17980641976110753
-0.17530630131411773 -0.10099213881123906 0.17958334937803563
-0.17771422465491515 -0.07763897938359623 0.17753092303983983
-0.16827904780554992 -0.13878260118592625 0.18417791381590184
-0.1584064473693393 -0.13226276201833134 0.19277075782530126
-0.17984324296164733 -0.06228917402852422 0.17562044516317663
-0.16045006712126952 -0.14003534180749302 0.19101242080442724
-0.1737465818707965 -0.14386578960049992 0.18061296001188573
-0.17746015985656005 -0.08232476873029118 0.17775798693411168
-0.16650506456542236 -0.07064744395841008 0.18534437671415624
-0.15842519303012115 -0.08775525850880986 0.1917761947225791
-0.17016261418509704 -0.16887491507161503 0.18275527015440282
-0.16049316127944213 -0.11767756504643803 0.1904733563970786
-0.1769538333003543 -0.17194409234155064 0.1782104159902793
-0.16428018708873016 -0.13843942744363194 0.18753192678205785
-0.1751847823445819 -0.050911243387349904 0.1796790744375449
-0.1818080653731845 -0.08682515782941228 0.17367253556959447
-0.17765704889941436 -0.0953579203568781 0.17758203402273473
-0.17947047551322204 -0.07938783926595097 0.17596171155683812
-0.18030701180148345 -0.18448777062524205 0.17516068473570165
-0.170635979372742 -0.15811088246930485 0.18256683006994542
-0.18393255372691375 -0.056038971372731984 0.17140246287100133
-0.17312831779170257 -0.17383402151692753 0.18094209686033544
-0.16195557614016753 -0.1443882988177622 0.18963936820738134
-0.1546365578954242 -0.08597245378125554 0.19524488702528295
-0.16809592743563873 -0.07357129020322209 0.18405930057279882
-0.16524871786284667 -0.051904197164663136 0.18757472291700658
-0.16746301551509124 -0.11822276873219853 0.18431405082456884
-0.18346032102751952 -0.07521527571309453 0.1720344509195548
-0.16673253079104644 -0.09885498447049504 0.18471226945631322
-0.15588923891234618 -0.11375417871106511 0.19470445171110448
-0.1629433443133853 -0.05751546783078557 0.1891504313062888
-0.16947990258383971 -0.10180905027020817 0.18305895581953344
-0.15604659517455322 -0.12012344164479619 0.19465033069364843
-0.16065522630858642 -0.13742722136605626 0.19085572019331273
-0.16416300435710174 -0.06027072233785039 0.1880649115156394
-0.16282558043647033 -0.14861048323739415 0.18875334516279516
-0.1691188027446292 -0.09676467938054448 0.18325320735685643
-0.17706904907870513 -0.10742261571515446 0.1781074489664298
-0.1647773047273181 -0.11286553306210881 0.18649653449766454
-0.16263275941062194 -0.1529152647935236 0.18866465345136937
-0.15796519418406707 -0.1045035080396021 0.19257561221830663
-0.16770281990218383 -0.06987794799435978 0.1845882917951804
-0.1599591781680606 -0.07830127639401799 0.19048480048887548
-0.1837401350324176 -0.16623721582520848 0.17166394844763097
-0.15922030409026366 -0.08038511438001042 0.19110784784071264
-0.16204738219428283 -0.09403928680051213 0.1887433315824729
-0.1651169021909259 -0.05213900966275579 0.18767605081312475
-0.18410212894129974 -0.15398108524907475 0.1711719717096549
-0.18296271165061218 -0.04740941090215093 0.17252773895971593
-0.18096465964961272 -0.0664907054387415 0.17450869932882604
-0.15717954536128265 -0.13457271022427922 0.19386343017332372
-0.15821085472750884 -0.08897402448285466 0.19195357814543065
-0.17091710467982513 -0.0819127218209589 0.18221563950292882
-0.18251180251288635 -0.09698274297345524 0.17297483340017614
-0.17088728745627624 -0.12678944630254155 0.18236140266172704
-0.16401515503573638 -0.10140028161633854 0.1870793487142783
-0.17755493124175292 -0.11222344202626591 0.17767328873388585
-0.16652807195830566 -0.06641128224957829 0.18573639646284398
-0.1778722514693759 -0.06234997076619512 0.17738971963636693
-0.16555618842292052 -0.07731097502339726 0.1856499101232749
-0.1769073267762683 -0.08596509260762578 0.17825187102072057
-0.16274602313685638 -0.08051290673840886 0.18813715234510717
-0.17098950942206603 -0.12882546646226292 0.18231219902746496
-0.18494253953147155 -0.10092764658559208 0.17002979770414647
-0.18351818223643523 -0.13248164517510777 0.17196560755483922
