ply
format ascii 1.0
element vertex 534
property float x
property float y
property float z
element face 0
property list uchar int vertex_indices
end_header
-0.18339874942946655 -0.04036756915677434 0.1720955158781272
-0.18322363098311645 -0.039202715583928884 0.17226908460371312
-0.18317204316306335 -0.04161425990689641 0.1723202551912528
-0.18270596464324218 -0.042563106247075856 0.17278231039755163
-0.18380775650191528 -0.043025429674276174 0.1715720976900321
-0.18236814041781646 -0.043568904825338185 0.17311725869886693
-0.18296202619719726 -0.036545063682683766 0.17252848401777562
-0.18241014679122192 -0.03585114640820867 0.17307562485449132
-0.17981829841780883 -0.04126941723454839 0.1756451810907584
-0.18091894288707 -0.04435386819470769 0.17455396905653295
-0.17974626620459777 -0.03782990140546209 0.17571524635069188
-0.17939601441073638 -0.04172610802281743 0.17602820053808507
-0.17974115510630828 -0.03667598528493291 0.17571986571066198
-0.18342312772917968 -0.033969576784261525 0.17207134619467077
-0.1847670485560916 -0.03390922708142644 0.1702683354925376
-0.17908189793277007 -0.036540444322713674 0.17630893841497716
-0.1841964234893344 -0.032869781681188405 0.1710438217233878
-0.18059733112502319 -0.03278854055035955 0.1748728241037589
-0.1771955599372409 -0.040292020269521535 0.17799437895529088
-0.17907009621310455 -0.03406428856480962 0.17631942883245763
-0.18152342339205962 -0.03196534080136663 0.17395470395796117
-0.17730415960002166 -0.04336398405660039 0.17789737239591893
-0.17675578196692687 -0.037628199287542165 0.17838735237829503
-0.18187255759883147 -0.030897672601827443 0.1736085201811057
-0.17898648579764587 -0.032743181415685475 0.17639420285932836
-0.1765100916211627 -0.03756698531735784 0.1786068762850028
-0.17504535217929107 -0.04335221213925725 0.17976249113790807
-0.1749813367908023 -0.04314821524251348 0.17980364814512548
-0.17623436053443176 -0.032896544166692555 0.1788532222818595
-0.17386000950980407 -0.037250335641988576 0.18052447691671666
-0.17351686556983215 -0.041272844501622975 0.18074739828817663
-0.17389329870391113 -0.03681733770001775 0.18050266161672887
-0.17634668548751098 -0.031292970605977834 0.17875284806005773
-0.17553850610900146 -0.03255611223805791 0.17944426193945226
-0.18057094116854888 -0.026801969238408864 0.1748989905428153
-0.18316666384387237 -0.026208783813604176 0.1723255600046378
-0.1744015028064273 -0.032349313923009694 0.18016285553686437
-0.1847251911942981 -0.02582117480862981 0.1703252281259757
-0.18388306697058898 -0.02566641134847051 0.17146969691030797
-0.17233612735915405 -0.04358472985852605 0.18153856054060277
-0.17190396388221008 -0.041972811647542775 0.18181056633703527
-0.17717173298049194 -0.027447725959905446 0.17801568761579808
-0.17199478645968658 -0.03546943826306707 0.18171540752165136
-0.17202931245017272 -0.03454666895497686 0.18168784037344274
-0.1843187471215747 -0.02441584629643804 0.17087755456678685
-0.1827260365073703 -0.024198289343007863 0.17276240244619664
-0.17697095473456603 -0.026600326725133717 0.17819506779424962
-0.17374454041171294 -0.030170376726278127 0.18057812109701452
-0.17024121781039459 -0.03726398510564214 0.1829849268507224
-0.18006355662989837 -0.02358537478078252 0.1754020537447196
-0.170309971768143 -0.035450066753515065 0.18289832130186376
-0.16971592207598907 -0.04083427352536565 0.18341321602575597
-0.17992573579001647 -0.02310680908788091 0.17553869739286718
-0.1768632342402957 -0.024661298223623097 0.1782912994932395
-0.18092871804881316 -0.022149171062597096 0.17454431310407933
-0.17273532946753722 -0.02799117130864507 0.18121255293600377
-0.17025215526271087 -0.032372708746084035 0.1829144741605979
-0.17901771863150817 -0.02243673367131597 0.1763662184786063
-0.16882857282805663 -0.04273402256596929 0.18419341102354345
-0.1688240428750537 -0.03724732560742742 0.18407378450147924
-0.16819364925074798 -0.039856369920858205 0.1846074248861533
-0.16934896608042938 -0.03250401777852422 0.1835800196241599
-0.18203748365092498 -0.020667161174901784 0.1734450544428092
-0.17518439491439086 -0.02402272386182195 0.17966470971815404
-0.17847109933543426 -0.02177992028821355 0.17685470834486303
-0.17464360197234374 -0.023674960561879933 0.18000272765867528
-0.17337978978800994 -0.024485375114568532 0.18079257860891637
-0.16739150484252197 -0.04040371937383062 0.18529544130079564
-0.16857032080340606 -0.03227927846539861 0.18416366830580053
-0.1777683903758548 -0.020977462955602467 0.1774825538706046
-0.1774084528272174 -0.020892675348409474 0.177804210336135
-0.1719644476954959 -0.024901236721166432 0.1816879595827323
-0.17207674284625274 -0.024409438797124684 0.18161512270681676
-0.16849605341601592 -0.029783006139882863 0.18419215932600316
-0.16649056573558074 -0.041426594682821095 0.18612817779295263
-0.1837258597199939 -0.018375183769353688 0.17168334975950536
-0.16676760812449676 -0.034753705688604176 0.18565241351835546
-0.1661748548333667 -0.038584734626897634 0.18630401149504003
-0.18377588291812164 -0.017865206428655446 0.17161537066213903
-0.17066514094519836 -0.024910862871297658 0.18256191268675145
-0.1751535495107196 -0.020593847461828053 0.1796829785417777
-0.16747419138598663 -0.030348862835058034 0.1849624897550803
-0.16573398907828552 -0.042567129560598195 0.1868545795988303
-0.1827456613366626 -0.01723992390263921 0.17274294152967748
-0.16897774835276824 -0.025958474107869924 0.18378994718305883
-0.16536211569953185 -0.037009324260839284 0.1869768883299094
-0.17757601638484222 -0.01806547803510076 0.17765445366613683
-0.165376808244469 -0.03568726343739873 0.1869234229635459
-0.16514612336802703 -0.041891987749227345 0.1873608018469077
-0.16507252653289062 -0.04288532895673162 0.18747059360258397
-0.16870095928359252 -0.0254438476048792 0.1839862252783042
-0.18415349324393493 -0.01614361567128545 0.17110217467062291
-0.1665328105275653 -0.028808738418706716 0.18573192611448583
-0.16466581423926574 -0.03572558922398931 0.18756631866209325
-0.16523634989905578 -0.03174456519711858 0.18694547668211278
-0.17521270712065917 -0.017938937374242604 0.1796449209760886
-0.17815041144538146 -0.01637908382047063 0.17714116826765355
-0.17264297207045776 -0.019561167188772023 0.1812495376180869
-0.16431562205004913 -0.04346322579015142 0.18818489566557225
-0.16956603129554015 -0.022512669988759816 0.18333865061514196
-0.1757161875550769 -0.017435486742147267 0.17931620136015233
-0.1656368782107852 -0.029575462766774953 0.18654308572523412
-0.16881286700415832 -0.023321505018361867 0.18388030782453832
-0.1642604728524707 -0.03385063571561223 0.18787542834989843
-0.16532404323268157 -0.02957200569737798 0.18682054534666356
-0.17080922027278167 -0.02013885540593511 0.18243775621168432
-0.16610328455615264 -0.026793296762594045 0.18607524886839208
-0.18348018427539092 -0.0141731755219782 0.17201478138677892
-0.1834003289525531 -0.01405718488324529 0.17209393635504064
-0.18010508616614562 -0.014272268243917287 0.1753608669351798
-0.16769001980471832 -0.022796358295568288 0.18469158664457616
-0.182025339204552 -0.01364001197446233 0.17345709458105382
-0.17985146840262634 -0.01370700759518987 0.17561233893148717
-0.16247750421214324 -0.03772928876508123 0.189592220933364
-0.17886510093856078 -0.01363807482350713 0.17650265351049718
-0.17709949215102416 -0.013968671985753835 0.17808020964376745
-0.16535406907248718 -0.025083269306310475 0.18670908466093358
-0.1739754786078952 -0.015554334350713551 0.18041221156828222
-0.16855680545020324 -0.01968520445454961 0.1840445782255393
-0.17157609363246185 -0.016553218790181935 0.18190852657072362
-0.1697492410724185 -0.018120344110616506 0.18317971482984838
-0.16166586776423675 -0.03881609005559331 0.19030652299635228
-0.18086255689311248 -0.01186728043187505 0.17460990801565465
-0.18296296497035247 -0.01155849856961614 0.17252750054113683
-0.16131968398738128 -0.037510539718755544 0.19053045764677343
-0.1706364264075778 -0.016536380478032887 0.18254868045561132
-0.16566122670817596 -0.0217110173188532 0.18639192834608373
-0.1635357995812915 -0.025353546568044484 0.18832490697614965
-0.172185610729935 -0.014489586778768361 0.18152216926328954
-0.16119978924441558 -0.03192725343335515 0.19045535579435643
-0.16066310902285796 -0.0350697295152033 0.1909902478765708
-0.16024864812541229 -0.04173716468442327 0.19159899011366185
-0.1695584168021701 -0.01573499602902776 0.18330637469999608
-0.1603316773955844 -0.03531589669812566 0.1912687803816062
-0.1601216902320407 -0.041677202411779225 0.1916996623586875
-0.18041075368571502 -0.010090823598989308 0.17505780711881933
-0.1657577713315509 -0.019770141073354543 0.18628332868330297
-0.17608135541129333 -0.01138972801793462 0.17898995533697423
-0.16004968782115203 -0.03551503581632024 0.1915054108213645
-0.17076347370791656 -0.014267172046788991 0.18245316401235875
-0.17922481496978027 -0.009822930523046315 0.1761812056612235
-0.1671979238574527 -0.01696449083913213 0.1850012923788291
-0.16659734745669585 -0.01735463304150945 0.18552778020613012
-0.16061254938292724 -0.029340501257070363 0.19085876003019628
-0.16289943059134704 -0.02309131188023931 0.18884632840864476
-0.16158356865096313 -0.025723393388875783 0.1899916316580039
-0.18402964969325286 -0.008511330314763844 0.17127049818746862
-0.15889560778784972 -0.038460429140218556 0.19255892291776952
-0.16328067680049163 -0.02163832945454961 0.18848130956404027
-0.16501980622458678 -0.018714125581868947 0.1869195486616355
-0.18279425402331573 -0.008321847149022878 0.17269481077902135
-0.18076687653708678 -0.008450801797994435 0.1747047390054923
-0.1623185088222049 -0.023167248197683156 0.18933460965864476
-0.1585010846440814 -0.038969542213567555 0.19290248409025487
-0.17205896576094848 -0.011356617637761891 0.1815983141969901
-0.15944543083358031 -0.030526484676488698 0.1918548728536826
-0.17154121001410705 -0.011575605102666676 0.18191979184858617
-0.1743322273080371 -0.0100494281731928 0.18018711462728795
-0.1802821864669345 -0.007919575401433766 0.17518530145399389
-0.17743110259223205 -0.0085368709050501 0.17778391495458898
-0.1790178676431201 -0.007936681934484303 0.17636612907163915
-0.16153485675502044 -0.023196335264333547 0.1899831677984458
-0.16024538477111083 -0.026306297012456716 0.19110516563169774
-0.1605915536468051 -0.02501052183736211 0.19079820171110448
-0.1583926339929126 -0.03303902907002813 0.192791261823104
-0.1578776945655368 -0.03777190608609563 0.1933545853208762
-0.1657713462893985 -0.015092249342092336 0.18623057857267675
-0.15721024175334197 -0.038126821943410695 0.19384680047743139
-0.15862521131682616 -0.02869745654691106 0.19247690692655858
-0.15709565182376128 -0.038426424690374196 0.1939419294904929
-0.16407416363406402 -0.016615446039327443 0.1877265359472495
-0.15788215001273376 -0.030896122881063283 0.19314298883192357
-0.1707987447564624 -0.009923245140203298 0.18241716280691442
-0.18121724923300964 -0.005809332557805837 0.17425821080915746
-0.17575497527766448 -0.007219101616033376 0.17928160086386022
-0.16827000280070525 -0.011301215120443166 0.18419996753446874
-0.15673872430968505 -0.03464966578114873 0.19412110105268773
-0.15645458896804076 -0.037658955284246266 0.1943655397009116
-0.16261437137770873 -0.01767986578572637 0.18901113525144872
-0.15664276083159667 -0.03415599031079656 0.19417969241850194
-0.18377735813307983 -0.005045469232686818 0.17161337390653905
-0.1561638375108264 -0.036778088041433156 0.19454441323988256
-0.1579353322570346 -0.026865418382772267 0.19301245465986547
-0.1788011302535556 -0.0052013353787744646 0.176559754760192
-0.15602415402579528 -0.03421678704846746 0.19464389339201268
-0.155718188483002 -0.03665428919423467 0.19486192718260106
-0.16478333969760162 -0.013246233888753713 0.18707785859815892
-0.1556666006629489 -0.04436137837994939 0.19511000171415624
-0.17360967000174743 -0.006491716333516896 0.1806331361841422
-0.16085899968791229 -0.018542643018850148 0.1904767538618308
-0.15873379607844573 -0.022751923032888234 0.19228921190016088
-0.16598380704570037 -0.010926003881582082 0.186016359479354
-0.17151090105223876 -0.006785984464773 0.18193102732412633
-0.17714681823897582 -0.004372592397817433 0.17803592339269933
-0.16880738337683898 -0.008375521131643117 0.18380836501829442
-0.1732997407500766 -0.005545909830220998 0.18082440748922643
-0.156768392521622 -0.025980349012502492 0.1939152862142783
-0.16713982422995788 -0.00916996163953191 0.18500498786680517
-0.16678966184306365 -0.009481515117772878 0.18531016364805517
-0.17541378338980895 -0.004501636453756154 0.17951888695471105
-0.16873214741397125 -0.007908518739827931 0.18385932698957738
-0.15436024566340667 -0.041469539829381764 0.19593934074156102
-0.1636474688832782 -0.01258289379704839 0.18806348100416478
-0.18035067220378143 -0.002933706470617116 0.17511025920622167
-0.158532108861687 -0.020467396207937062 0.19241855397932348
-0.17040915389704925 -0.0060577945195520524 0.18268350616209325
-0.1556385268752597 -0.027189995475896657 0.1947918321203452
-0.15912110706019622 -0.01845094127286321 0.1919129873823386
-0.1841237803285144 -0.002020801731237233 0.17114258661978063
-0.18217755456614715 -0.0018202321015680437 0.17329619184248266
-0.159332867461922 -0.017056520410665334 0.19172511354200658
-0.18042637010264617 -0.001612062879689992 0.1750304783891898
-0.1600010653321765 -0.015216882654317677 0.19115338578932103
-0.1811522056643985 -0.0010805980645502214 0.17430890455953893
-0.1564562280957721 -0.021791125961431325 0.19409100070707616
-0.1784494181458972 -0.0013748959981287126 0.17686242714636144
-0.17695800562548858 -0.00172963304150945 0.17819605127088842
-0.18311094840216857 -0.0005978004418695573 0.17237798228971776
-0.1843468507115863 -0.0006090657197321062 0.17083937779180822
-0.15960746606040221 -0.014723862835058034 0.1914746548246604
-0.16371397276568633 -0.009255017467626393 0.18798462405912694
-0.1742840667550586 -0.001897658535131276 0.1802134300779563
-0.15661452313113433 -0.01933696431744939 0.19395301595442113
-0.15545463164496642 -0.021978612371572316 0.19488177552931127
-0.1677908261601947 -0.005055363603719533 0.1845130111288291
-0.15637316902327758 -0.01917004150975591 0.19414279714338598
-0.15442835887122375 -0.023509140440114797 0.19571141257993993
-0.17317479451346618 -0.0014992610894525651 0.18089867487661657
-0.1573836018626712 -0.016108478733190358 0.1933122064184409
-0.1841724773232959 0.0011083527125036116 0.17107639566175756
-0.16858191390681487 -0.003454055019506276 0.1839564229559165
-0.16292114158320647 -0.008118982740529836 0.18866858735792455
-0.15785064895796996 -0.014690394827016652 0.19292501464597997
-0.15842058857131225 -0.013699080177434743 0.19244865432493505
-0.17624374826598388 0.00037262277971857743 0.17882735386602697
-0.16712055702853423 -0.0039528564893091325 0.18500159040205297
-0.16253020961928588 -0.00813328785527593 0.18899826064817724
-0.1784501483027957 0.0011706097639715071 0.1768535758566123
-0.18192497988391143 0.0017688019789373274 0.17354465380422887
-0.17285170753646117 -0.00024666947949773116 0.18109706893675145
-0.1613557298963092 -0.008714611955770314 0.18998078361265477
-0.16956744690585357 -0.001535172887929738 0.18326328054182348
-0.16779414911914092 -0.002591665216573537 0.18450556054823217
-0.1703939994161151 -0.0007965819321954851 0.18268657580129918
-0.1642633487765811 -0.005080427356847585 0.18748454108946142
-0.17926407952952605 0.0023974521673833724 0.17612240567915258
-0.15864753325629455 -0.011077340074666799 0.19224379316084203
-0.15419858296561462 -0.018930013605245412 0.1958529140066367
-0.16412223478007537 -0.00475579065907842 0.18760595575086889
-0.1737025340383075 0.0010885937727605696 0.18056718364469823
-0.16004512806582671 -0.00904997748959905 0.19107399240248021
-0.16984995802092773 -0.00035029215443974776 0.1830653335165244
-0.1840872128789447 0.003350292018762767 0.17119223728887853
-0.17839487989592773 0.002856527141443431 0.17689744487516698
-0.16215681632209045 -0.0059014813386285905 0.18929533019773778
-0.17786706586528045 0.0031337781466161604 0.1773716296266776
-0.15625996490168792 -0.013314183183797658 0.19418642774336156
-0.17967801888632995 0.003666137031427562 0.17575524106733617
-0.15932283898043853 -0.008474703260549367 0.19167117133848485
-0.1590211500709079 -0.008550907798894704 0.19192204728834447
-0.1544624080245517 -0.014768804737218678 0.1956395293783408
-0.17405920823264343 0.0031940086401616927 0.18035940185301122
-0.17160895069289428 0.0024181945837652083 0.18186200514547643
-0.1649725695436023 -0.0009795383893335466 0.18685565248243627
-0.18165587981391174 0.005521033576837718 0.1738165701936942
-0.15501130719828826 -0.012229587265142262 0.19518385186903295
-0.16642300387072784 0.00048578219782465654 0.1855966235708457
-0.1689969559495471 0.002053950599542796 0.183657744080947
-0.16127495070147735 -0.0037514225922907 0.19002220884077367
-0.16248893340277892 -0.0024223880254114274 0.18900523439161596
-0.1834225912873767 0.006165598205438792 0.1720717336248618
-0.15756269891906005 -0.0072677390061700944 0.19311718002073583
-0.1717558910434268 0.00408357816111201 0.18186683312170324
-0.18252542217421752 0.006651793292871654 0.17295978322737035
-0.17210991283107024 0.004408900312296092 0.1816804493974906
-0.1690723260228656 0.0030690475023900862 0.18360696092359838
-0.16250080962825042 -0.001432563491948903 0.18899212136976537
-0.16937692065882903 0.0034128172911321517 0.18341378226988134
-0.15439708133387786 -0.011169846483358205 0.19567576900236425
-0.18407609661269408 0.007074211410394847 0.17120737686865148
-0.1846754958217166 0.007584278158060252 0.17039276018850621
-0.1667631526772998 0.003424320987573802 0.18529621616117772
-0.16355508168387634 0.0011646791018163558 0.18807927623503026
-0.16704885264086944 0.0037302418268834944 0.18507019534818944
-0.15690877636122924 -0.00546881122220403 0.19363746896498021
-0.1544044872109912 -0.00864496392835027 0.1956698085378867
-0.15517150958228332 -0.007316227384694875 0.19504986062757787
-0.17995662589717132 0.008576725295892894 0.1754970039438468
-0.15818465848613006 -0.0033130900346124773 0.19259689107649144
-0.18271421988654357 0.0089094980276739 0.1727728928636771
-0.17583141823458892 0.007834409049860179 0.1793661500524741
-0.16625649829554778 0.004010502866617381 0.18573407188169774
-0.16467371185469848 0.002924714855066478 0.18710640922300634
-0.17976964612651092 0.009046648315302074 0.17568231478445348
-0.17517733176398498 0.008235250285974681 0.1798987473558646
-0.17641914983439666 0.008773122600427806 0.17887467995397863
-0.17534812887358886 0.008571807912698924 0.17979253187887487
-0.17802394529032928 0.009312187007776439 0.17734978452436742
-0.17721765835929137 0.009181623033395946 0.17811773076765355
-0.15940273900675994 -0.0005868927918756608 0.19157622113935766
-0.1821532060687564 0.011039112380853831 0.1733285273622733
-0.16062418718981963 0.002048973611704051 0.19054875627271947
-0.16847635408091766 0.007460836938730418 0.1842758442472678
-0.17072040935206634 0.008603577188364207 0.18295068398229894
-0.16283975144076568 0.004469667247644603 0.1886921907972556
-0.1687371095006488 0.00841629939447993 0.18419311300031957
-0.1840317507569812 0.011990581325403392 0.1712676669668418
-0.15628723402667266 -0.0013275997124994401 0.19413582339994725
-0.17650217910456878 0.011309598258844554 0.17884386435262975
-0.16650411089110595 0.007554267219415843 0.1856913353513938
-0.18460054298091155 0.012222353986612498 0.17049459472410497
-0.16454085310149413 0.006654594711176097 0.1872157241415244
-0.17099608083415252 0.01012024717699641 0.18290902033560094
-0.15907404919314605 0.0025253041304265852 0.19184223666899022
-0.17078190644431335 0.010423843435159862 0.18308527127020177
-0.18076550563025695 0.01306027608286494 0.17471761360876378
-0.1554340829436801 -0.0006715313874567155 0.1948267008375388
-0.17091640432524902 0.010878954700342357 0.18304357782118139
-0.17282932599234802 0.011927728227487742 0.18181682482473668
-0.16033806999373656 0.005070631078592479 0.19078341975920018
-0.15402271946120483 -0.0011573986493433122 0.19596789136640844
-0.16892005105662566 0.011013243965021312 0.18429301038496312
-0.16950405736613494 0.011276905111185252 0.18393210426084813
-0.1705940475051425 0.011885379127374827 0.1833661283563834
-0.17814950247454864 0.014407847694269359 0.17739654436819371
-0.17599436243224365 0.013927464059702098 0.17948422685377416
-0.1591311057393573 0.005288307241312205 0.1917916919302207
-0.16237921615290862 0.008187775186411082 0.18907211080305394
-0.17500085731196624 0.013965402416101634 0.18036288872473058
-0.178819071251633 0.01490477161776179 0.17670179262869176
-0.1803744544570468 0.015275989345422923 0.17512200132124242
-0.155403326946976 0.0022854550398504134 0.19484565511457738
-0.18134538431811553 0.015552823118082225 0.17416233673803624
-0.1569052298848651 0.0042172415770208235 0.1936259056638938
-0.17612607379603606 0.014863346389642894 0.17941198602430639
-0.16091778476882201 0.008951102069727122 0.19029394641630468
-0.1537364830558322 0.0025986178435003157 0.1961973692487937
-0.15655174453902465 0.00569338040720576 0.19391230598203954
-0.16779967744994384 0.013915692142358958 0.1851398135732871
-0.15401583512473327 0.0037744684733068343 0.19597009673826513
-0.1623853405301593 0.011209849885812938 0.18906269326917943
-0.18236025770354491 0.018093769124857127 0.17314142838232335
-0.1757800986354373 0.017153982690683543 0.1798777069162589
-0.1601340283935092 0.010226105026117503 0.1909478689741355
-0.1539632042233966 0.004582111410013377 0.19601283326856908
-0.16415014465499145 0.013033543399683177 0.18778989568464574
-0.16026164193797332 0.010770384839883983 0.19084022298567113
-0.17497805853533965 0.017667059472910106 0.18060106888525304
-0.182166319090607 0.018907670549265086 0.1733365143846732
-0.17488193114447814 0.017757300905100047 0.18068225041143712
-0.1560611387078784 0.007435653976312816 0.19430969014875707
-0.17714917262244445 0.018392507604471385 0.17847062006704625
-0.18129498859095794 0.019060437253824412 0.1742127920698386
-0.15848964055228454 0.009965036682001292 0.19232431903593358
-0.17137282689261657 0.017093036941400706 0.1834107424329978
-0.1613661160056613 0.012395535282007396 0.18991515889875707
-0.17441764076400024 0.018172655872217357 0.18105811730139074
-0.16882581611323577 0.016376410297266185 0.18474856868498143
-0.15719750126052123 0.009408061078897655 0.19338504329435643
-0.1649553139989398 0.014925871662012279 0.18727205053083715
-0.18365302284407836 0.02016789155375117 0.17178238287679967
-0.17911371191191894 0.01993498640429133 0.1764432574819785
-0.1835536171977542 0.020311330131403148 0.17191741719953832
-0.1758902927224658 0.01944980459581965 0.17980585351698217
-0.1743138541762851 0.01921835976015681 0.18115214362852392
-0.1539472301785968 0.007885877660623729 0.19602570787184057
-0.16323026617217284 0.015279357007852733 0.18861583724729833
-0.16966247161078674 0.018314425519815623 0.18456170812361058
-0.18233763774085265 0.021484707168451488 0.17315701499693212
-0.16159230073142272 0.014820401243082225 0.18982754007093725
-0.18116825421500427 0.02161968188654536 0.1743327166151267
-0.16627454360175353 0.01773581343065852 0.18640635267011937
-0.15574913819480163 0.010818575195184886 0.19456074491255101
-0.15882391830134612 0.013687406352869212 0.19204215064756688
-0.16479490299868804 0.017438028625360667 0.18752799287550267
-0.1806632091586612 0.022206012777200877 0.17483908787481603
-0.1563740630929492 0.011798862985483348 0.19405297294370946
-0.18312169213938934 0.02250469165217036 0.17237318411581334
-0.16963427861380798 0.01976821260820979 0.18470356717817601
-0.17669182618308288 0.02186796503435725 0.17901072755567846
-0.16251153846431 0.01660055356394404 0.1892381097387534
-0.1720291485373996 0.020802770427576243 0.18296212807409581
-0.16235121687102538 0.016836587957254588 0.18937150493376073
-0.15715889235186797 0.013431464008203685 0.19341484561674413
-0.17372007270503265 0.02177563743960017 0.18164873972647008
-0.17721920808005553 0.022724453977457225 0.17847443476431188
-0.16181110938239318 0.01711768346201533 0.18978992954008397
-0.18338097234416229 0.023650978378168284 0.17211396351568517
-0.1841719408814929 0.02401194410692805 0.17107708111517247
-0.18468869825053436 0.024043176940790355 0.17037481919042882
-0.1795860936229251 0.02409071164499873 0.1759237433981162
-0.17671425243067962 0.02393991189371699 0.1790241684030753
-0.16742369135070068 0.02116671638857478 0.18594119802229223
-0.17755212982344848 0.024178598693720042 0.17812312498800573
-0.1628329267089389 0.01915848689447993 0.1891467954229575
-0.15764329929995757 0.01585740285288447 0.19302002444975194
-0.15867155392813903 0.016955976060739696 0.19216839328520116
-0.17365100582289916 0.02376249866854304 0.18172723904363927
-0.18464903135943633 0.02555671768557185 0.17042870178930578
-0.16428215404200774 0.02076426582705134 0.18816230550520238
-0.1663555165116809 0.02177253799807185 0.18668172612898168
-0.16340444584536773 0.020418856910577952 0.1888072277616721
-0.17214086254286987 0.024406377843729198 0.18291837826483068
-0.1835075875108264 0.026325796417108714 0.17198003187887487
-0.1598046829288028 0.019517545274606883 0.19137112155668554
-0.1762407829349063 0.026306424907556712 0.17953676834814367
-0.18424236376929504 0.027255301050058543 0.1709813560556632
-0.18251134057688934 0.027329777053705394 0.17298118129484472
-0.1655712982003711 0.0231461866415655 0.18738953128568944
-0.15828252931285125 0.019312803319803416 0.19251451745741185
-0.18297761281180602 0.02755561905275935 0.17251385107748327
-0.1774368097369693 0.02754527764689082 0.17822156205885228
-0.16875797112632018 0.025231395534387767 0.1853265549253684
-0.15783026416945678 0.019772295526376903 0.1928667809080344
-0.16450330217528564 0.02360010581385249 0.1882281686376792
-0.18462310333895904 0.028356258443704783 0.17046395793669042
-0.1573249508922122 0.019642446807733714 0.19327769532911596
-0.15642748375582916 0.019009683898798167 0.19400743499510106
-0.15468990405249816 0.017840896419397533 0.19542054191343602
-0.1585188021247409 0.02081045942675227 0.19233701482527074
-0.15502932270217162 0.018283848337045848 0.19514439359419164
-0.16701587637114745 0.025222723058572948 0.18651566758863744
-0.18422731359648925 0.028776113561502635 0.17100183025114354
-0.1679463346784137 0.025863532594553172 0.18588761344663915
-0.18316472669291717 0.02908030586611384 0.17232663288824376
-0.1758997698609851 0.028255109361520946 0.17986322298757848
-0.16194761892009002 0.023438666633478343 0.1900872971128684
-0.16729810436415893 0.026077513269296825 0.18633333698026952
-0.16121807296920043 0.023450319341531932 0.19052741780988988
-0.1619828005616687 0.023912046722284495 0.1901025559019309
-0.17425505419421417 0.028623764089456737 0.18122986808531102
-0.17275875409293395 0.028303865960947215 0.18240235105268773
-0.18132228751826507 0.029985342792383372 0.17415646568052587
-0.15742951234030944 0.02160570459734553 0.1931925798963767
-0.17708386083293182 0.029654775432459056 0.17855692759268102
-0.15590393145728332 0.021463368705621898 0.1944331313680869
-0.17603498299765807 0.030287150911203563 0.179674008042739
-0.16562464435744506 0.027161811164728343 0.18753526464216527
-0.16434260805297118 0.027349178365579783 0.1885035420965415
-0.17848161955523711 0.0317637665785467 0.1770451451849204
-0.15725124974894744 0.023873750738016307 0.19333753839247045
-0.16067476173091155 0.02664885359179133 0.19106004491560277
-0.17697260876345855 0.03238472776781672 0.1786196912836295
-0.17712248464274627 0.03251380162607783 0.17846242442838964
-0.1807738502805255 0.03306815462481135 0.1746904636930686
-0.16280208130526763 0.028003220132700145 0.18966374650709447
-0.1672606577460788 0.03001848297487849 0.18641141906492528
-0.17154565056014281 0.031463359168878734 0.18328420177213964
-0.16470025082278472 0.02935794430147761 0.18821761861555394
-0.18314811189818603 0.03374469714533442 0.17234305396787938
-0.17314284642386657 0.032830183080545604 0.18199933424703893
-0.17807274659323913 0.033971463016382396 0.17746207967512426
-0.16519797940898162 0.03037888245951289 0.18786720290891942
-0.15776444574046355 0.026721750072351634 0.19292018666975316
-0.17233581443476897 0.03304514723192805 0.18263358727209386
-0.1689781059806369 0.032043044141641795 0.18520579591505346
-0.17146025200534087 0.03327128725420588 0.1833133484434348
-0.1684789319818042 0.032639299205652415 0.18556878820173558
-0.1659234126393817 0.03176132278811091 0.18737695470564183
-0.17769622405219299 0.03505003886591548 0.1778477813314658
-0.15849382777858 0.028354410699716746 0.1924150969099265
-0.17175265749144775 0.0338820858515417 0.18307338014356908
-0.1579479535405658 0.028701637557855784 0.19277075782530126
-0.18355974157500488 0.0360948486841833 0.17190910235159215
-0.18189860482859832 0.0362685068167364 0.17357567802183446
-0.16266835828471404 0.03169918494593257 0.18972090736143407
-0.16230822702098113 0.03161576824556941 0.1899572397779685
-0.184899758297684 0.03686568575274104 0.17008794203512487
-0.17769190271544677 0.036648993066660106 0.17782757535688695
-0.16382652123618346 0.032668028644434154 0.18886760726682958
-0.17426618536162597 0.03607121544252986 0.1810046519350272
-0.17786289354014617 0.03685531454455012 0.17764575138799962
-0.17919501264739257 0.037173096708170116 0.17626384750120458
-0.1539399286096118 0.02770224647890681 0.19602988019697484
-0.1812364866321109 0.03755888777147883 0.17422775283567724
-0.1558012475554965 0.02925786810289973 0.19451651826612767
-0.18354494472193938 0.03795099692713374 0.17192924872152623
-0.17697518666434509 0.037513856462351024 0.17856294766180333
-0.1585996856277011 0.031316821149698436 0.19234893575422582
-0.1611883600537799 0.03271627860437983 0.19067160144560155
-0.17479039331126434 0.037544761470667064 0.18055171623937902
-0.1798929681365512 0.038599286846033275 0.17555398598425206
-0.1830442806069873 0.03912845688234919 0.1724437858175498
-0.16148204703974944 0.03395122723948115 0.1904610182356101
-0.15731484790492278 0.031872485450617015 0.19328526511900243
-0.16532481809306365 0.03568348722826594 0.1877592588972312
-0.18188273509192687 0.05685192780863398 0.17358196631185827
-0.17735097904849273 0.05477351384531611 0.17809618368856725
-0.17608947654414397 0.04641095238100642 0.17939660802595433
-0.16739105780768615 0.07317635851275081 0.18570307746641454
-0.15862430234599334 0.08233797984491939 0.19226995959989843
-0.17536268730807525 0.07636771040331478 0.17995161667578038
-0.183345358568909 0.09997135835062618 0.17217097535841283
-0.17608947654414397 0.04641095238100642 0.17939660802595433
-0.17674128313708526 0.11414352493654842 0.1792985881876212
-0.18188273509192687 0.05685192780863398 0.17358196631185827
-0.15840790768313628 0.05044141846071833 0.1924305941175681
-0.15888191362071258 0.05903354721438044 0.19208119168989476
-0.15698551734137756 0.10628909306894893 0.19355277076475438
-0.17910812397647125 0.06531179385553951 0.17632091894857702
-0.16666000683951598 0.0405961914576208 0.1865489269804221
-0.16472413738417846 0.08775476055513973 0.18775884166471776
-0.16648937364268523 0.04160613255869502 0.18662438646070775
-0.15413365860629302 0.07463133769404048 0.19587210670225438
-0.18298934002566558 0.10887933211695308 0.1726045991491538
-0.15933544536280853 0.06455302672754878 0.19175020709745702
-0.15625884731459838 0.11729541855227107 0.19414375081770238
-0.1598896791522525 0.05356535749804133 0.19134972348921117
-0.17360795636821014 0.10937563019167537 0.1817736412595969
-0.16599079569030029 0.06853861050974483 0.18678090825788793
-0.1547413875644229 0.0417403622187292 0.19537786498777684
-0.1803686579053424 0.055762980750909984 0.17506817832701024
-0.16781314809966308 0.09295151071917171 0.18538723245374975
-0.16094214816737396 0.11049190597902889 0.19058225408308324
-0.1821398993318103 0.0653210027731573 0.17332930222265538
-0.17863307495761138 0.08235833483111019 0.17679790511839208
-0.16288439531970245 0.07595915036570186 0.18916551128141698
-0.17460584242987853 0.09414747791658992 0.18054769292585668
-0.1760889103000186 0.06037259536158198 0.17936457052938756
-0.16228057046580535 0.10156506734263057 0.18960759893171605
-0.1833986153190158 0.08677843647371883 0.17209468141310033
-0.1549179961268924 0.10217687921892757 0.19523427739851293
-0.17033208509135467 0.05507758694063777 0.18362818017713842
-0.1704681326930545 0.0958778305567419 0.1835119511198264
-0.17348880668330413 0.06569889622103328 0.18133122578375158
-0.16537376840758544 0.045803253225198924 0.1873736168455344
-0.17910812397647125 0.06531179385553951 0.17632091894857702
-0.18490303655314666 0.044594173005930125 0.1700835014890891
-0.1826911528890155 0.043835644296518504 0.17279029741995153
-0.16387137373137695 0.07843754129778499 0.18841383710615453
-0.1794567813460849 0.1073337836779272 0.17663229361288366
-0.18130270739245635 0.09222162204157466 0.17419350996725377
-0.15440538128066283 0.03891677098642939 0.195651152284072
-0.17244270046401244 0.06543663578402156 0.18210036411993322
