ply
format ascii 1.0
element vertex 505
property float x
property float y
property float z
element face 0
property list uchar int vertex_indices
end_header
-0.1919493784492038 0.15773207383524532 -0.1612823818612832
-0.18915395041156036 0.15332562165629024 -0.16492520913369837
-0.16613082190203887 0.16402078109156246 -0.18816205009706202
-0.16515181561160308 0.18495530324350948 -0.16127530380971614
-0.16862719853568298 0.16275966601740474 -0.18646674498803797
-0.19490198393511993 0.1692743344820654 -0.1571719859529275
-0.18504505952048522 0.1566465540445959 -0.17081243440396968
-0.17512914140868407 0.17985994058024043 -0.17584105476625148
-0.16695966919112426 0.13253480630289668 -0.18756886467225733
-0.17652628918338042 0.16002178626429195 -0.18029766425378504
-0.17355362673449737 0.14730489688288326 -0.18284059211499873
-0.18724172909903747 0.18090355830561275 -0.1605349843192834
-0.16378585596728545 0.15488762097727413 -0.1899977390456933
-0.18373126884150726 0.18201595979105586 -0.16357337579019252
-0.16703433890986663 0.1701869411982214 -0.187616652696206
-0.18359855909991485 0.17280698256861324 -0.17264019593484584
-0.15373710890460235 0.18482161002527828 -0.1837527666974801
-0.16161059935736877 0.18394691186319942 -0.17970807000882807
-0.18085808654475433 0.18347502189051265 -0.15978927060849848
-0.19562120338130218 0.1620569272555029 -0.15655305132157984
-0.17002169390368682 0.18429542022120113 -0.1631926660228509
-0.1826587130610965 0.1841481967486059 -0.15601891919858638
-0.15959690113711578 0.1837807937182104 -0.18470574065931025
-0.1771912087981723 0.1761857910669958 -0.17816723033673945
-0.1692987938706897 0.16585058408152217 -0.18602981313951197
-0.15882339676070434 0.16160339551340694 -0.19383948191888514
-0.16471090515303832 0.18367088275324459 -0.17773982033021632
-0.1755679210011981 0.16593027549158687 -0.18119617447145167
-0.18410814901042205 0.16439235644709224 -0.17203613266236964
-0.16494696934867126 0.17511809306513423 -0.18869633123166743
-0.17957822580981475 0.16049814658533687 -0.17735946819074336
-0.1844028194730304 0.17568624453913326 -0.16991192743070307
-0.17326305409121734 0.1740747733629858 -0.1828423355508584
-0.17168248792338592 0.1660956187761938 -0.18432483717687312
-0.16412454446006042 0.16103566127192134 -0.18973142549283686
-0.1867982109372638 0.18261325793635005 -0.15642847761399928
-0.16449746092009765 0.16530251937281246 -0.18943653151281062
-0.16562512119460326 0.16863936620127315 -0.1886005018640298
-0.16160998840975982 0.17725503878962154 -0.19067048177011195
-0.18792752524066192 0.17189020352732295 -0.16684009775407496
-0.19522361059832793 0.1721218867815649 -0.15633014485128108
-0.1829818149392627 0.17767936425577754 -0.16888438805825892
-0.18096007009196502 0.17930651145350093 -0.17163570865876857
-0.18301918705153686 0.17981970744501705 -0.16588250443227473
-0.16169598301100951 0.16122305827509517 -0.19161694392450038
-0.19473971028971893 0.16883629994761104 -0.15748656436689082
-0.15716306467700225 0.1648955388582861 -0.19512482628114405
-0.19155807395625335 0.15832013326059932 -0.1617902879405755
-0.15944197376418334 0.18511861997019405 -0.15897165879495326
-0.16715882321048003 0.1786313100374853 -0.18518159434087458
-0.16383836765933257 0.18498897986780757 -0.16874622449166957
-0.1616400440518878 0.18515670733820552 -0.1697970841813821
-0.18493817349124175 0.18274337487589473 -0.16139677807576838
-0.15487420161414367 0.17674088912378902 -0.1951407109189767
-0.16703191002059203 0.15462434726130123 -0.18752408668286982
-0.18540958662677032 0.183643703035227 -0.15438758477456752
-0.19280150135207397 0.15692198710810298 -0.1601764921832818
-0.18650741477656585 0.17073268132578487 -0.16874051734693232
-0.16247441967177612 0.1845933838404333 -0.17538849159963313
-0.16591745217490417 0.18345880942713375 -0.1780239556718606
-0.17456943889308196 0.1720988793886816 -0.18217084452398005
-0.17106352348971587 0.18408942656885738 -0.1628470186877984
-0.15403410394835693 0.18546069102656002 -0.1616156910348672
-0.17971601684737426 0.17750311332117671 -0.17479018017537776
-0.1669251879041217 0.18238145547281856 -0.18136826798207942
-0.18097038169551116 0.18312025504480953 -0.16055355116613093
-0.16440662344145995 0.169900183252207 -0.18955197080857936
-0.16874694426703674 0.18457252221476192 -0.16367017373330775
-0.17773630817580444 0.1608403368509924 -0.17920232459790889
-0.15980544288802367 0.18506414132486934 -0.1580020253349084
-0.18234124382186156 0.18089056449305171 -0.16537842795140925
-0.1599015404765628 0.18255287843119258 -0.18786580011136714
-0.1899134178941272 0.1698730035341894 -0.1641144667554635
-0.16978036959815246 0.1835749192751562 -0.17208769068010035
-0.1872239520137332 0.17739791112314815 -0.1658140037942666
-0.16580119331526977 0.18509382443796749 -0.15449387475736323
-0.1560490538661502 0.18553561406504268 -0.17430450662858668
-0.1639923264567874 0.18512058692347164 -0.16444910213239375
-0.1571488936727069 0.1693641586817419 -0.1949038420606393
-0.19386353691268188 0.15267432170282955 -0.15879706188924494
-0.19459937115359527 0.15869451003443355 -0.15784401342160884
-0.1573566754643939 0.15725881295572872 -0.19497343048341456
-0.15643933017897826 0.15333021121393794 -0.19571404799707118
-0.19529771407294494 0.1590145869768774 -0.1569387529779214
-0.16945945819068176 0.18377340274225826 -0.17073165520913783
-0.15689321954894286 0.15925938325296993 -0.1953359459329385
-0.15393457909274322 0.18147147136103267 -0.19147723063714686
-0.18615710337805969 0.17552465634714717 -0.16831006750352565
-0.1888249476735614 0.158003632596842 -0.16535564407594386
-0.19105833371329528 0.1631330295122778 -0.16245656356103602
-0.16163032849478942 0.16801929908167476 -0.19167686149366084
-0.17373899717974883 0.18500423865687007 -0.15687105700261775
-0.16610876818347198 0.16354638772379512 -0.18818063184507075
-0.16446669002223235 0.18039417701136226 -0.18746321543939296
-0.17681487997222167 0.18199038939844722 -0.17225623771436396
-0.16188825269389373 0.17767733769785518 -0.19041090354211512
-0.170846219856026 0.18299693303476924 -0.17574355646856013
-0.19319386382746917 0.16905856566797847 -0.1597291593242425
-0.1717377414290927 0.18345731931101436 -0.16822483286149684
-0.1824506183450244 0.1841058178461706 -0.15644723817594233
-0.1903641631190799 0.16416806416880245 -0.1633680377889413
-0.16108768780875427 0.13426489072214717 -0.19209361716993037
-0.18659896751094085 0.18199754195582027 -0.1620305691648263
-0.15757098396468383 0.18554288583170528 -0.16621497914083186
-0.18927268286395293 0.16769689755808467 -0.1648674969363946
-0.16120691199946624 0.18503261046778316 -0.15861568495519343
-0.1706401218955539 0.15345371203791255 -0.185119054167344
-0.16491502125907165 0.1827446861780798 -0.18184671446569148
-0.18681263526129943 0.1655843301333105 -0.16824392124898616
-0.18323239286589843 0.18113381104838008 -0.16497922584302607
-0.18629787464785796 0.16744018035303707 -0.1690946732450265
-0.17765275736499053 0.17214793401133174 -0.17915800854451838
-0.15636856456446868 0.1855685158289587 -0.16746847972161952
-0.17483885188746673 0.15744418340098018 -0.18182326003797236
-0.16290452678847533 0.1851659460581457 -0.16389440640695277
-0.1621748616282962 0.14156085687052364 -0.19124960049874964
-0.17762371500182372 0.18372595744501705 -0.16042738303430262
-0.1712877412621997 0.15744913058649654 -0.18462359055764857
-0.18616379399943572 0.17695945935618038 -0.1672197495389718
-0.15568521221328002 0.1853226466692602 -0.16023669287450495
-0.19688362975764495 0.16027594046961421 -0.15504562005288783
-0.1791259308640979 0.17141032653223628 -0.1777170811582345
-0.1728068401401065 0.17589068847071285 -0.1828176592279214
-0.16250705321479064 0.16305053668390865 -0.1909866844106454
-0.17494196792292815 0.17653304772745723 -0.18089640781171504
-0.18803642292666656 0.1648376031435644 -0.16637600108869258
-0.1598417123143695 0.12637064295183772 -0.19305837795026484
-0.15603544910598022 0.18534410434137935 -0.1764465336490411
-0.17460794349360687 0.18153053956400508 -0.17340189859159175
-0.1877769341056369 0.14870578484903926 -0.1667656217504281
-0.1829948683564685 0.16194677787195796 -0.17345858260877314
-0.16922187407660705 0.15656727986704463 -0.1860740695882577
-0.19182611604380828 0.16869265275370235 -0.16157416149861994
-0.1730769087855838 0.18420118527781124 -0.1623408411432046
-0.17508244116950256 0.1712586923159277 -0.18173818930871669
-0.16422645350146514 0.18317443566691036 -0.17983945354707423
-0.18919071157622558 0.18199050860773677 -0.15567091748006526
-0.17206853230643493 0.18242353635202999 -0.17796722695119563
-0.1815103699748538 0.15346211629282588 -0.17520537122972193
-0.17393119235682708 0.17926764922510738 -0.18084479018933955
-0.16066531439471465 0.17872447209726924 -0.19038981839902583
-0.1911990155761264 0.17175066905390377 -0.16204523190744105
-0.19618384142565948 0.15192151503931636 -0.15587916120774928
-0.19028634925532562 0.1797047896898901 -0.1578971658635873
-0.16006199618029815 0.18534166055094356 -0.1690307472635049
-0.15705263217139465 0.1543674512423193 -0.1952082429815072
-0.1939458211247943 0.15158975558649654 -0.15869007155187312
-0.18249167104411346 0.18461889462839717 -0.15448167070634547
-0.15616175134825927 0.18556237655054683 -0.16864266142137233
-0.16718780596900207 0.18134415583979244 -0.1820707236219186
-0.18392067750144225 0.18275809722315425 -0.16188844188935939
-0.16843950350928527 0.1846297426737463 -0.16354405030496302
-0.16644930442023498 0.17857456641565914 -0.18648347899205867
-0.18083281417536956 0.1840831084765112 -0.1575432781863946
-0.19026256700206023 0.15853131251703853 -0.16348058625943843
-0.17998171945262176 0.15326267915140743 -0.17689930543191615
-0.15739605923342925 0.17337513404261226 -0.1942644332338113
-0.17198451955962402 0.1825472755945837 -0.17356974527127925
-0.16217638154673797 0.15715188222300167 -0.19124434038884822
-0.17270551224398834 0.16914600568186397 -0.18357805058248225
-0.17023045917201263 0.18433261351954097 -0.16603454097993556
-0.1780875881497882 0.16090244489084835 -0.17888516828305903
-0.18306468029666167 0.1822619481600439 -0.1628204052139062
-0.1626420428340457 0.18501174884211177 -0.1724830929923791
-0.18002317448306304 0.16796356873880977 -0.1769277666497964
-0.16066801150489074 0.16726804213892574 -0.19241934165246669
-0.19530497093844634 0.15231746869455928 -0.15692844137437525
-0.18991987009692413 0.11950791316401119 -0.16393070563562098
-0.17006377478289825 0.1819223804987585 -0.18066333874948207
-0.18461288114238006 0.13541567759882564 -0.1713580553222436
-0.17356331248927337 0.15385020213495845 -0.18282646581418696
-0.16701633830714446 0.17267209725748653 -0.18761929020173732
-0.17854192455458862 0.1819706006563818 -0.16663158580548945
-0.15784684916186553 0.1849567337549841 -0.17963915213830653
-0.162151094276192 0.15354836421381587 -0.19126295193917933
-0.15546768506217223 0.1528396053827917 -0.19652482017762843
-0.1791423966472171 0.18163735108744258 -0.16571936651952449
-0.16005780895400268 0.18510473208796138 -0.15948056325204554
-0.19152508278537017 0.17727309899698848 -0.15982041403539363
-0.1789880951230548 0.18235046105753536 -0.17147519335038844
-0.1730991860215686 0.17050427632700557 -0.1832756911206979
-0.19548700352359039 0.1658110065973913 -0.15671380504853907
-0.18338514466929656 0.17624146180521602 -0.17153262242562953
-0.1591911723201297 0.1633756800211584 -0.19355536147840205
-0.17731831570315582 0.17816889720331783 -0.1754229579854745
-0.17928096254515868 0.12371123271357173 -0.1776810203481454
-0.1716236581389926 0.18407369094263668 -0.16579628631360713
-0.16080066164183837 0.17282313542734737 -0.19188970968015376
-0.18161102731871825 0.1609083457506811 -0.17510384961850825
-0.17579906781363708 0.1849153085268652 -0.15532223030812922
-0.1600032409017108 0.1539079590357458 -0.1929252956796426
-0.18566599090743285 0.14219546752344722 -0.16997600242383662
-0.19060499568629485 0.16581958966623897 -0.1630899970222253
-0.1680514474694751 0.15334368186365718 -0.18684288009889308
-0.18856983979392272 0.15220487552057857 -0.16568668827302638
-0.19165372450995666 0.16664684253107662 -0.16175842925794306
-0.16700233121562225 0.17356527285944576 -0.1875341002631921
-0.15790752669024688 0.18364966349970455 -0.18623574718721095
-0.1590460946147464 0.18520528512369747 -0.1752136711765069
-0.17013863821673614 0.18400299983393306 -0.16734770581014338
-0.16999783714461547 0.17546004491221065 -0.18471521779782954
-0.18251160879779083 0.17901272015940303 -0.16690482839830104
-0.18157594998526794 0.17939031558405513 -0.16865693673379603
-0.17268077631640655 0.18185663657557125 -0.1790896569181222
-0.15429125328707916 0.1663109703577673 -0.19750282809026423
-0.17091737290072662 0.1830786510027563 -0.17206268653161708
-0.19431431193995696 0.16471010880838985 -0.15821499273069087
-0.16729972859072906 0.18261552291285152 -0.18042405590303126
-0.15516894658255798 0.15746891932856197 -0.1967745934415597
-0.166992243129494 0.18376899199854488 -0.17655666813142482
-0.17118428250003082 0.16063207822214717 -0.18471237167604151
-0.18066285153079253 0.18223536448847408 -0.16267976805455867
-0.177836205560448 0.18259478049646968 -0.16302446171529475
-0.1575831880157016 0.16852379279505367 -0.19470005378015223
-0.16752451260733825 0.1567546172655737 -0.1872008208919305
-0.18742915590453368 0.18078905778299922 -0.16041190072782222
-0.15503510435271484 0.18553811746012325 -0.16332044348008815
-0.1575877924745105 0.18490326838862056 -0.1803946261096734
-0.17905655105757934 0.1624858422793066 -0.17795099958665553
-0.16237593789744598 0.18501490788828487 -0.15969072922952357
-0.190247636038544 0.17105466561686153 -0.16371083900220576
-0.16813924511122924 0.18448669152628536 -0.16756380244977656
-0.17150701184916717 0.13398206668268794 -0.18443975493200007
-0.1754734923427127 0.1527538939036047 -0.18124414130933467
-0.1778379042928241 0.1822391791857397 -0.16653538390882197
-0.19654120107341033 0.16722035842310543 -0.15545836731679621
-0.16310065587210876 0.16917455630671138 -0.19054157182462397
-0.16169328590083343 0.17096978860270137 -0.1915389214444894
-0.18815965552973968 0.16002780633341426 -0.16621642455346766
-0.1570195813958667 0.16141754823099727 -0.19523500546701136
-0.19469265242266875 0.16309148507486934 -0.1577237461496133
-0.17360591490912658 0.15581936078440303 -0.18279548630006495
-0.18387896915126067 0.15748447614084835 -0.1723152165103692
-0.16022936602282745 0.1850102587259924 -0.17478323623426142
-0.1863179018085025 0.15454799371134395 -0.16897738620526973
-0.1837643345181964 0.16214740710627193 -0.1724697415519494
-0.16622347732234222 0.18499839740168209 -0.16637367650754634
-0.15469547708678466 0.12199259238611812 -0.19717080041654292
-0.17317373653102142 0.1634059591807043 -0.18315230950601283
-0.1851264794652484 0.17444086509119625 -0.17029232427365962
-0.16357343991446716 0.18284529881846065 -0.18381860002763453
-0.15636546512294036 0.1793569965876257 -0.19193687185533229
-0.16188755233931762 0.185150210431925 -0.168118378965928
-0.17679273684668761 0.15185946660410518 -0.18004449352510157
-0.1791014333550952 0.1773178620852148 -0.17527482554204646
-0.18605140944171172 0.1638165159739172 -0.1694042299676675
-0.18715531726527435 0.18179381327997798 -0.15876945003755275
-0.17671833534884673 0.11932883100878353 -0.18011207029111567
-0.1587997337167285 0.17696172433268184 -0.19261326536424342
-0.1861115058248065 0.18274629550348873 -0.15676868602521601
-0.1651096304242633 0.18065041737925167 -0.1860779140878457
-0.19612718721080047 0.17446744876276607 -0.15504633530862513
-0.17186262806105834 0.18479341702829952 -0.1592515324044961
-0.18625677724528533 0.18223256307016963 -0.16004567488916102
-0.1961036433761142 0.16483831839930171 -0.15597755357511225
-0.17147434850383025 0.18429857926737422 -0.16178483411557856
-0.1630620618646167 0.16231131987940425 -0.19055396959073725
-0.1547423561399005 0.17356026606928462 -0.19645740732438746
-0.16953737636256438 0.16005957560907955 -0.1858684186626214
-0.17447557647872192 0.15982091861139888 -0.18212150677926722
-0.15511473615813476 0.18327343898188228 -0.18869500502832118
-0.16278387208628875 0.18049985604654903 -0.18816726550347987
-0.17801026602435333 0.1823213143862402 -0.16756259545571986
-0.1939654608552478 0.1761419816530859 -0.15643007203824702
-0.15876288314509612 0.18536156850229854 -0.1745602254558343
-0.15684571464705688 0.15929395394693965 -0.19537571713216487
-0.17026459773230773 0.1811146183527624 -0.18114205345399562
-0.18715996642756683 0.16345620589624996 -0.16770114645250025
-0.16399287779975158 0.18501633839975948 -0.16259302839524928
-0.15729847152877074 0.17003351884256954 -0.19472185417897883
-0.1930882145946048 0.1427091999567663 -0.15980941697843257
-0.16204607089209777 0.12698609071146602 -0.19135106250531855
-0.18850056429553252 0.17667425113093013 -0.16431712254769984
-0.1798510809724353 0.15550631719004268 -0.17704809352643672
-0.1636898477857135 0.17279249863993282 -0.18991138681657496
-0.16116854150939208 0.18374002414118404 -0.1825265054393548
-0.16661358972239715 0.1848622603930151 -0.16818839952237788
-0.1671322544400714 0.16834897237192745 -0.18751551851518336
-0.18110629518676025 0.16287303405176753 -0.17566787347085658
-0.17086986799884063 0.18297124343287105 -0.17661588534600917
-0.17169694204974395 0.12683076100718135 -0.18430637463815394
-0.1799663712565921 0.18138522344004268 -0.1651574437309045
-0.17810563345599395 0.14792406993281002 -0.17885515734441462
-0.1633875926320575 0.17234939771067256 -0.1901820515085
-0.1855629642789386 0.15668619113337154 -0.17012748762853327
-0.1621971239631198 0.18506396251093502 -0.17225804075486842
-0.1919132878367923 0.16634738879572505 -0.16141071066148463
-0.17458380361247283 0.16069168286692256 -0.18203819438703242
-0.16018458803343993 0.1772618933237707 -0.19166057452447596
-0.1860769202296756 0.15830654340159053 -0.16935299977548304
-0.1758038808887027 0.16836250262629146 -0.18102597340829554
-0.15458724995303375 0.17130071359049434 -0.19694175466783229
-0.1583858092610858 0.18187511401545162 -0.1889930878568429
-0.15752426882434112 0.18555385308634395 -0.16482636973149958
-0.17442290087390167 0.18392122226130123 -0.16354019090421382
-0.15378072460341674 0.15628439622294063 -0.19793292030580226
-0.15380908151316863 0.1755877776659643 -0.196748710124566
-0.1564048488919757 0.18523318009745235 -0.15909924253709498
-0.19444606800723296 0.1756302161730444 -0.1562135581661004
-0.18059870203185302 0.17742330270182247 -0.174297458379342
-0.18913869162249786 0.17228717046152706 -0.1650702570367593
-0.18365478118109924 0.16612828212153072 -0.17263340100534144
-0.15870087941336852 0.18547243314158077 -0.16413815960176173
-0.19085737665343505 0.15419710116755123 -0.1627034310985345
-0.1850066294257663 0.15650058226954097 -0.17086147412545863
-0.19190001090216857 0.15469772057901973 -0.16134571179635707
-0.16500347455191833 0.1847978277720129 -0.1707196448732156
-0.17624133427787048 0.17622739510904903 -0.17980372056253138
-0.18599471052336913 0.15211624341379756 -0.1694608543802041
-0.17826179762530547 0.18171906905542964 -0.17256849154718104
-0.16863146026778442 0.16662115292917842 -0.18648176535852137
-0.1845735271756671 0.12612060146700496 -0.17142286047227565
-0.16931724150824767 0.1789704008616125 -0.18280272826440516
-0.17848784824061614 0.17388177352320308 -0.17823093280084315
-0.18756997187781554 0.1598315282381689 -0.16708070680387202
-0.15869888265776855 0.18114185767542476 -0.189410886614396
-0.17824270923781615 0.15869451003443355 -0.17873830243833247
-0.17054944832968932 0.14776140885721797 -0.18518490239865962
-0.18761725326228362 0.16186398702036495 -0.16700451716668788
-0.15579507847476226 0.18558055596720333 -0.16808221384771052
-0.18108334739852172 0.18084204631220455 -0.1663718287635583
-0.1665754278485797 0.17793178992640132 -0.18709557399041835
-0.17128234704184753 0.18018597798716182 -0.18140039488561335
-0.16381567319083434 0.15855867104899043 -0.18997538730390254
-0.1911956479136966 0.16027778821360225 -0.16226363822705928
-0.18581915994334441 0.15190434890162105 -0.16972600564248744
-0.19211344023394805 0.17167634206186885 -0.1607609753299493
-0.15902755757022125 0.15872359710108394 -0.1936809335637826
-0.15594741304564697 0.17426544862162227 -0.19520156726129237
-0.1580421437804721 0.18531454043757076 -0.16121811315305415
-0.19488524993109924 0.15852565007578487 -0.1574730192113656
-0.18181712527919036 0.17921656804453487 -0.16833374544866267
-0.19420481820750457 0.165596668294779 -0.15835720941312495
-0.1808140685145877 0.17381936746012325 -0.1756274019170541
-0.19674919148135406 0.14208007293116207 -0.15521358594186488
-0.19659475584674102 0.16884738641153926 -0.1554005061078805
-0.15393961568522674 0.18565381007563228 -0.1706566725660104
-0.17723714907813293 0.14432216124903316 -0.17964998528249446
-0.1948969771449588 0.17379469113718624 -0.156425303666665
-0.18736101289439422 0.15758550601374263 -0.1674031381297845
-0.16528223057437164 0.1799448175944006 -0.18673390790708247
-0.17913506527590972 0.17066353993784542 -0.17774633213765803
-0.1636372764890216 0.15901059346567745 -0.19011359557397547
-0.17177515824485046 0.12897453146349544 -0.18424727663285914
-0.15457368989634734 0.18482208686243648 -0.1834054802346963
-0.18993249138045531 0.1808726830996191 -0.15647994622476283
-0.1759985943620227 0.1781297369517004 -0.17724224075563136
-0.1699832340066455 0.1849293156183874 -0.15699767216928187
-0.18490257461714965 0.13496780829798335 -0.17098260566480342
-0.16699549158263427 0.18498075442682857 -0.15646660968549433
-0.17975823183703643 0.15875459151636714 -0.1771566335845727
-0.17834727068591338 0.17373222546946163 -0.17837969109304133
-0.15660389860320312 0.1248806758440649 -0.19558533176667872
-0.19580065806555969 0.16218662696253414 -0.15633886203057948
-0.18192970355200988 0.1639257116831457 -0.17475528165586177
-0.16008087595153075 0.12531194525133724 -0.19287254556901637
-0.1599056233947299 0.16884845929514522 -0.19301058992631617
-0.16262405713248473 0.1827131553209936 -0.18657878681905452
-0.18431241412806731 0.17401379781138057 -0.17141213163621608
-0.18177860577750427 0.1705509467638647 -0.17504345521218959
-0.1670453061645053 0.16079873280893917 -0.18751151010282222
-0.17408535977053863 0.16800338464151973 -0.18248885020501796
-0.18212984104800445 0.1698321147478735 -0.17464093014486018
-0.18393300076174957 0.160369936994425 -0.17225039645917598
-0.1698306163136981 0.1645166917360937 -0.1856795464444894
-0.18130756517100555 0.1715270324267065 -0.1755188916612405
-0.17429411013770324 0.1532911105669653 -0.18225534900911036
-0.19486300249743682 0.15230995850931758 -0.1574999605108041
-0.1832714488093875 0.16251773076426143 -0.1731038604665536
-0.16967269380736572 0.1600243492640173 -0.18577919050939265
-0.17348010440516692 0.18334573941599483 -0.1673559014488
-0.16893227000880462 0.17314362960230464 -0.1861983005691308
-0.15786015589881164 0.16721117930781002 -0.19458738610036555
-0.1539024223868869 0.17829865651499385 -0.1943309967208642
-0.16736751397299987 0.17614442544352168 -0.18688727065808955
-0.1605845202987216 0.18076217608820552 -0.18888442858941737
-0.18344552417445403 0.16594541507135982 -0.17290074273832026
-0.19616137047457916 0.17328173356424922 -0.15522003814466181
-0.16032433112311584 0.15150082545649166 -0.1926765505958337
-0.18472924431014281 0.1667604489840185 -0.17125350877530757
-0.1724725772922061 0.16654664712320918 -0.1837145154166955
-0.19699330230403167 0.17283285098444576 -0.1544425998616952
-0.15595379074263793 0.15198475556742305 -0.19611924037225428
-0.1792872210328601 0.15782762008082027 -0.1776778911042947
-0.16547160943198425 0.18507862525354976 -0.16578995332009974
-0.19355062742877227 0.1752939863718664 -0.1579218719888467
-0.16596091886210662 0.1571285768068945 -0.18831417605169
-0.15501814683127624 0.13016689257990474 -0.19691549882180873
-0.16289095183062774 0.18493593173395748 -0.15758465871102992
-0.1747902442996524 0.1732726140535986 -0.18177468225248042
-0.17485212882209045 0.16371143298517818 -0.18182323023564997
-0.18545966942954284 0.16394180493723506 -0.170301577894761
-0.16439216931510192 0.18270266490351314 -0.18316551193483058
-0.1752700616900943 0.1381352587259924 -0.18144223734624568
-0.18933347960162383 0.16125143008600826 -0.1646865670371789
-0.16054209669280273 0.18528765874277706 -0.1690847639728326
-0.176422711211922 0.1848549886263525 -0.1550740365672845
-0.19007750948119384 0.17761290507685298 -0.16185600206144038
-0.19431756039309722 0.17536950545679683 -0.15689217194802943
-0.19277934332537872 0.1737085624254858 -0.1593522791553277
-0.16364006300616485 0.153009895852915 -0.19010914012677851
-0.18849330743003112 0.17421460585962886 -0.16531354829557124
-0.18027448256659728 0.15272909837137813 -0.17657450482137385
-0.18837266762900573 0.16020828919779415 -0.16593889042623225
-0.1880476733033679 0.16642100053202266 -0.16643709584958735
-0.1736589034383319 0.1535986705340063 -0.1827517960954446
-0.16182289620089751 0.17158097463022823 -0.19136167213208857
-0.1895902713124774 0.1226395710028326 -0.16436044022329035
-0.1962932755534671 0.15847951608072872 -0.15574996814019862
-0.15678858359503967 0.16463619904886836 -0.1954247866559762
-0.1652471979444049 0.1198225064791357 -0.18886630877740565
-0.15460759003806335 0.16174817519556636 -0.1972502981115121
-0.18335395653891784 0.18387443261515254 -0.1561353419709939
-0.1782150079791568 0.15451002555262203 -0.17875581130273524
-0.15742784341025573 0.17697000937830562 -0.1932754878688592
-0.18649850388217193 0.17338562446009273 -0.16859229549653712
-0.15640537043261749 0.15335303979288692 -0.19574239000566188
-0.17045296331095916 0.1740331097162878 -0.18505713984258357
-0.18526374896216613 0.1728419704950964 -0.17024020001180354
-0.17118206222701293 0.18517387347590084 -0.1542801026988763
-0.1590782811229251 0.1539961143053686 -0.19364092394597712
-0.18440332611251098 0.17179161744486446 -0.17154519900567713
-0.1932378520553134 0.16715759473215694 -0.1596700911212701
-0.16008308132338744 0.18461937146555538 -0.17770223960168544
-0.1741312106435321 0.17527109818827266 -0.18188085302598658
-0.19212333460498077 0.1621833487070715 -0.1610576425481576
-0.17580563922572356 0.1796536489046728 -0.17485733970887843
-0.16507224341082793 0.17145151334177608 -0.1890647624421853
-0.16102574368167144 0.16097480492960567 -0.1921354298282403
-0.18844525118518096 0.15446156697641963 -0.16585028812177363
-0.17816659410643798 0.17484456735025997 -0.17834672972448054
-0.17780331869769317 0.16569471793543453 -0.17916325375325862
-0.17806680102992278 0.15296107964884395 -0.1788874034572381
-0.17307126124549133 0.1576667471445715 -0.1832221512485284
-0.15604964991259795 0.1601180477656042 -0.1960424099851388
-0.18385003109622222 0.15392411189447994 -0.17234251543767634
-0.16806964178729278 0.13338625865351314 -0.18682882830388728
-0.18815286060023528 0.18161797957789058 -0.15768558427579585
-0.16767952938723785 0.1841315074480688 -0.17505396053083125
-0.16908111770796996 0.17552066283594722 -0.18582441553361598
-0.15898975332427245 0.17338055806528682 -0.1931282345939416
-0.1919493784492038 0.15773207383524532 -0.1612823818612832
-0.18915395041156036 0.15332562165629024 -0.16492520913369837
-0.16613082190203887 0.16402078109156246 -0.18816205009706202
-0.18173527320075256 0.1214486403978979 -0.17495611950643244
-0.16515181561160308 0.18495530324350948 -0.16127530380971614
-0.16862719853568298 0.16275966601740474 -0.18646674498803797
-0.19490198393511993 0.1692743344820654 -0.1571719859529275
-0.18504505952048522 0.1566465540445959 -0.17081243440396968
-0.17512914140868407 0.17985994058024043 -0.17584105476625148
-0.16695966919112426 0.13253480630289668 -0.18756886467225733
-0.17652628918338042 0.16002178626429195 -0.18029766425378504
-0.18724172909903747 0.18090355830561275 -0.1605349843192834
-0.16378585596728545 0.15488762097727413 -0.1899977390456933
-0.18373126884150726 0.18201595979105586 -0.16357337579019252
-0.19049448867488128 0.13776499467264766 -0.1631849323201913
-0.16703433890986663 0.1701869411982214 -0.187616652696206
-0.18359855909991485 0.17280698256861324 -0.17264019593484584
-0.15373710890460235 0.18482161002527828 -0.1837527666974801
-0.16161059935736877 0.18394691186319942 -0.17970807000882807
-0.18085808654475433 0.18347502189051265 -0.15978927060849848
-0.19562120338130218 0.1620569272555029 -0.15655305132157984
-0.17002169390368682 0.18429542022120113 -0.1631926660228509
-0.1826587130610965 0.1841481967486059 -0.15601891919858638
-0.15959690113711578 0.1837807937182104 -0.18470574065931025
-0.1771912087981723 0.1761857910669958 -0.17816723033673945
-0.1692987938706897 0.16585058408152217 -0.18602981313951197
-0.15882339676070434 0.16160339551340694 -0.19383948191888514
-0.16471090515303832 0.18367088275324459 -0.17773982033021632
-0.1755679210011981 0.16593027549158687 -0.18119617447145167
-0.18410814901042205 0.16439235644709224 -0.17203613266236964
-0.16494696934867126 0.17511809306513423 -0.18869633123166743
-0.17957822580981475 0.16049814658533687 -0.17735946819074336
-0.16478500862765533 0.12243697481524105 -0.18922578439004603
-0.1844028194730304 0.17568624453913326 -0.16991192743070307
-0.17326305409121734 0.1740747733629858 -0.1828423355508584
-0.17168248792338592 0.1660956187761938 -0.18432483717687312
-0.16412454446006042 0.16103566127192134 -0.18973142549283686
-0.1867982109372638 0.18261325793635005 -0.15642847761399928
-0.16449746092009765 0.16530251937281246 -0.18943653151281062
-0.16562512119460326 0.16863936620127315 -0.1886005018640298
-0.16160998840975982 0.17725503878962154 -0.19067048177011195
-0.18792752524066192 0.17189020352732295 -0.16684009775407496
-0.19522361059832793 0.1721218867815649 -0.15633014485128108
-0.1829818149392627 0.17767936425577754 -0.16888438805825892
-0.18096007009196502 0.17930651145350093 -0.17163570865876857
-0.18301918705153686 0.17981970744501705 -0.16588250443227473
-0.16169598301100951 0.16122305827509517 -0.19161694392450038
-0.19473971028971893 0.16883629994761104 -0.15748656436689082
-0.19288882215666991 0.1351749940432226 -0.16006932303197566
-0.17638095815825683 0.142197911313883 -0.18043260916955653
-0.15716306467700225 0.1648955388582861 -0.19512482628114405
-0.19155807395625335 0.15832013326059932 -0.1617902879405755
-0.15944197376418334 0.18511861997019405 -0.15897165879495326
-0.16715882321048003 0.1786313100374853 -0.18518159434087458
-0.16383836765933257 0.18498897986780757 -0.16874622449166957
-0.1616400440518878 0.18515670733820552 -0.1697970841813821
-0.18493817349124175 0.18274337487589473 -0.16139677807576838
-0.15971777935672027 0.13753039079081172 -0.19315137609727565
-0.15487420161414367 0.17674088912378902 -0.1951407109189767
-0.16703191002059203 0.15462434726130123 -0.18752408668286982
-0.18540958662677032 0.183643703035227 -0.15438758477456752
-0.19280150135207397 0.15692198710810298 -0.1601764921832818
-0.18650741477656585 0.17073268132578487 -0.16874051734693232
-0.16247441967177612 0.1845933838404333 -0.17538849159963313
