ply
format ascii 1.0
element vertex 574
property float x
property float y
property float z
element face 0
property list uchar int vertex_indices
end_header
-0.09783592422652465 0.2768935604609167 -0.14429629489667598
-0.1501373459880374 0.25408876376520745 -0.10891917988546075
-0.0827685852830432 0.27865225510965935 -0.15275133296735469
-0.14328367610621673 0.2692422910250341 -0.10575366660840692
-0.10532250602889281 0.27699339824091546 -0.13839890703447047
-0.14714872439551574 0.2701377912081396 -0.10006684705503167
-0.14996403058219177 0.23463315205942745 -0.12458821281678857
-0.14605654378581268 0.25772184567820183 -0.11136478826291742
-0.1387516518418811 0.2784411950625097 -0.10293268307931604
-0.14839219649481994 0.2639734192408239 -0.10357034847028436
-0.11280813415694457 0.2664042158640539 -0.14019738778360072
-0.10867200394320709 0.2771814508951818 -0.1356941376615304
-0.1230290343349002 0.2500683112658178 -0.142594999520852
-0.08576331635165435 0.275242869428507 -0.15358392044789973
-0.14126340647387725 0.2766016765154516 -0.10181311413533868
-0.12443159123110992 0.25262904601465813 -0.139895385949685
-0.1251841892783664 0.25641924577128045 -0.13688687130696955
-0.10391831000495177 0.2682833714998876 -0.14584363147504512
-0.12892235418009979 0.2600439234293615 -0.13100621744878474
-0.10515676041293365 0.2548709555185949 -0.15307880088575068
-0.1476949562613986 0.252263133100382 -0.1136427585769433
-0.1501996030395053 0.2682104750193273 -0.09754726931340875
-0.12332537372756225 0.2616541429079687 -0.13487131044156733
-0.1291090359275363 0.24194592671763057 -0.14289372309930506
-0.10263678033995849 0.25833821730982415 -0.152845523207261
-0.15367756386447173 0.231820349267832 -0.1214622621227044
-0.1418591399972461 0.26897168593775383 -0.10782375082261743
-0.15168656011271697 0.27406877713572136 -0.08881667896993341
-0.1488551606719516 0.24331760840784664 -0.11934076890237512
-0.11052490373301727 0.2638903899706518 -0.14359783276803675
-0.12140476306128722 0.23494917588602657 -0.15265039250142756
-0.1514421065633319 0.23514074521433467 -0.1221367929864663
-0.15284072955298644 0.2769472642458593 -0.08255154535062494
-0.13280535836863738 0.26244211631189934 -0.12475112721212091
-0.13868592281985503 0.2744070334948217 -0.10718045279271783
-0.13982547422099334 0.2527914090670263 -0.1236658458400506
-0.11706229646849853 0.2643248482264196 -0.13829120144136134
-0.1299957444255374 0.27014071183573357 -0.12194070860631646
-0.11684082050967437 0.23915553527247066 -0.154045394508912
-0.09667053421187621 0.2795563383616125 -0.14301197871453944
-0.1475024183576129 0.23296171861063594 -0.12865068659074488
-0.12498512466597778 0.2654060168780004 -0.1311167691636819
-0.15147275825190765 0.1997119827784216 -0.13609441265351954
-0.119199331599953 0.2559903903521215 -0.14182641252763453
-0.14312332471060973 0.2560511870897924 -0.11658879265077295
-0.14299417634654266 0.24760848718058223 -0.12342835113294305
-0.11607706149268371 0.2615361257113134 -0.14071100100763026
-0.13460813065219146 0.2696467681444799 -0.1164663647104043
-0.1304571588819049 0.2495730562723791 -0.13683580502755824
-0.14981968303370696 0.24432224469553585 -0.11730054661519708
-0.12560917039561492 0.24693537192713375 -0.142579472510888
-0.11695836086917144 0.24530893998514766 -0.14995036169774714
-0.11910478373217803 0.26711833911310784 -0.13489843055494014
-0.10325264533210021 0.26994699674021355 -0.14529547735936824
-0.1491143067662738 0.26472658353220574 -0.10210446163900079
-0.14509825010943633 0.24357039170633907 -0.12401348993070306
-0.1309606989209674 0.2746563001192724 -0.11671174213178338
-0.10696109731841308 0.25636738973032586 -0.1507829044748086
-0.11111406584429961 0.2680637879885351 -0.14043662592656794
-0.11849473019290191 0.2503529234446203 -0.1457671289134759
-0.12218063672232848 0.23797798591028804 -0.15056089207418147
-0.14368757208037597 0.2551243348635351 -0.11656936153657617
-0.1491944452111743 0.25361085372339837 -0.11050409719236078
-0.12848646541285735 0.2503504200495397 -0.13805717870481196
-0.15180776615786773 0.23316801028620357 -0.12308714434392633
-0.1506590803449176 0.27169400887858025 -0.0933534120012063
-0.12272151907134277 0.23909092383753414 -0.14952494844682399
-0.15131623645472747 0.27243006663691155 -0.09141055390126886
-0.15163240929293853 0.2711709185160314 -0.0922087346006173
-0.10874102612185699 0.2753824039019262 -0.13704603060968104
-0.14954043527293426 0.2760695262468969 -0.09032793983705224
-0.11368017991233093 0.24670356946360225 -0.15156490251310054
-0.14673554499793273 0.24976420836817378 -0.11696628376729669
-0.1471151222770236 0.240637008718363 -0.12395172461755456
-0.1536231746261142 0.23771876531015987 -0.11784329160936059
-0.14192324479270202 0.2752934737719213 -0.10211471363790216
-0.12300183971572143 0.2375425739802038 -0.15019032999761286
-0.0925305743997119 0.2714560075319921 -0.15206885978467646
-0.14109016557383758 0.25009406047236077 -0.12401357933767022
-0.13757557769465667 0.2531101151026403 -0.12628350302465144
-0.10510496397662383 0.2661496444262182 -0.14631102129705134
-0.13097723920989257 0.2379010959185278 -0.14376988157518092
-0.12913459141898376 0.272291426233164 -0.1211689625669259
-0.14464424153018218 0.24088317590128536 -0.12675336643941584
-0.13340107699084502 0.24856228070627803 -0.13481079682595912
-0.08443432648825866 0.2760727448977148 -0.1539049063611764
-0.15058943231749755 0.2623784585512792 -0.10191530629880609
-0.1448374946897052 0.2739960594690954 -0.09954457625634851
-0.15148728688407165 0.26651305394541375 -0.09715988382585229
-0.14689486821341735 0.20975119309794063 -0.13869605108983699
-0.1340315749232791 0.2648693366564428 -0.12121904536969842
-0.15183075864958984 0.27332157330881707 -0.08947754546888055
-0.12624334891486388 0.2766723080195104 -0.12078753754384698
-0.12769518395114166 0.26730382876764885 -0.12684991106279078
-0.14231676955867034 0.23843598800074214 -0.13161443814523402
-0.13040326138186675 0.2710779948748266 -0.12066914781816186
-0.1497524787967227 0.2045148654497778 -0.13647506281621638
-0.08628859718489867 0.2777557416475927 -0.1514339660096902
-0.13548393150019866 0.23276287751566524 -0.14279811724908534
-0.11427972813296539 0.269813124708048 -0.13683194562680903
-0.10355752309012634 0.2703862829722082 -0.1447850082803506
-0.13345579405474883 0.20568800406824703 -0.15266247734315577
-0.12398463090110046 0.23269534545313472 -0.15198331221826258
-0.1444593926255725 0.20934325890909786 -0.14175756916291896
-0.10097176929164153 0.26659131484400383 -0.14914060279615107
-0.09891922374415618 0.2632225795305883 -0.15270400687940303
-0.0925654729192279 0.27886486487757317 -0.14727238461263362
-0.0862216760699771 0.2762778444803869 -0.1525163863588113
-0.11940721769976836 0.24087977843653316 -0.15093248233087245
-0.09750902255225402 0.27450836139093987 -0.14650335058458033
-0.13416403134513122 0.2793792529619848 -0.10795574530847253
-0.12085486550975066 0.26842785315882317 -0.13253352686650935
-0.09648492534804565 0.27480155663859 -0.14698264643438044
-0.14604538281607848 0.23865968423258418 -0.12664989277608577
-0.15007257064032775 0.2742078943766271 -0.09154251858480157
-0.1040727903430484 0.27178359465967766 -0.14350942417867366
-0.12496493359256011 0.24815053182016963 -0.14233095094449702
-0.1526734938209079 0.2457903667009985 -0.1124755655217904
-0.12736804385829192 0.25091398196589104 -0.13864349469430629
-0.15045243104148132 0.2703860445536291 -0.09507211193330468
-0.12870078881430846 0.24328005748163814 -0.14239851280934993
-0.14748315115618926 0.24652654366861934 -0.11842191859967889
-0.09499841530966979 0.27900708156000725 -0.14490959688909236
-0.14491195579219085 0.2669374986208593 -0.1054829125095147
-0.1202667166774295 0.2441561861551916 -0.1482530747342843
-0.10172812243151885 0.27922529416452996 -0.13988897845037165
-0.1335619350259326 0.25559163527857415 -0.12933408364541712
-0.13621347745108825 0.266325895360819 -0.11721152707822503
-0.1330753525083087 0.24226975875269527 -0.13942106708772364
-0.15318360527205688 0.2748718305147802 -0.08499289199598016
-0.1405390908305667 0.24145180421244258 -0.13179846748597804
-0.12559526761222106 0.2786775870836889 -0.1195423369098443
-0.12209133406329375 0.26752472358118645 -0.13223444566018763
-0.14647931953120452 0.26888931231867425 -0.10199367150552453
-0.09274854858565551 0.2728602929629003 -0.15099876269586268
-0.12164304752993804 0.23303080039393062 -0.15350256010778132
-0.11507419844317657 0.2728229804552709 -0.13416419073827449
-0.1351285537068866 0.2789371653116857 -0.106854996531083
-0.12917376657176238 0.26866060929667107 -0.1240056519199151
-0.1486233582084201 0.2517988725222265 -0.1127950464177865
-0.12013485630202514 0.2456423683680212 -0.14741691097505275
-0.14415286083865386 0.26796287732493035 -0.10564143106229486
-0.11441260178733093 0.27099651532541863 -0.1360094760347146
-0.14148088892150146 0.24233758883844966 -0.1296814893174905
-0.1497859468047641 0.25355184512507073 -0.1097982738900918
-0.11473379631686431 0.2789045019663488 -0.12980054959542933
-0.1395087947433017 0.27908993201624505 -0.10162795230634393
-0.14780456920314056 0.27092504935633294 -0.098514011948182
-0.11435639460730773 0.25230831342112175 -0.1476936255384225
-0.14371990760016662 0.25936365561853997 -0.11313804134614648
-0.1279886325185321 0.27751297192942254 -0.11730816110856714
-0.15165538688349944 0.2540019197977697 -0.10708083853013696
-0.13857562442469817 0.27151120143305413 -0.10993055149800958
-0.14455039401698333 0.271747951082102 -0.10220046982057275
-0.1221195568625949 0.24211436944376583 -0.14817545458562556
-0.14311191042113525 0.24232018428217525 -0.12758602842576686
-0.1443285902326129 0.2640320702112829 -0.1086032454658288
-0.12399579187083465 0.2604762359179174 -0.13509473845250788
-0.12349471052336913 0.2776181741274511 -0.12357737764604272
-0.12901427944350463 0.26417386966120354 -0.12774299725778285
-0.1401472498958133 0.2746462865389501 -0.10476896807439508
-0.1267836501185916 0.24232596593271846 -0.14445789798982325
-0.10661194821048003 0.27014846043955437 -0.14259365841634455
-0.10488423307585937 0.2593534036196386 -0.15059143945462886
-0.12641784151244384 0.25156939463984124 -0.13901240274198237
-0.13136306007552367 0.2522081180132543 -0.1341869150090951
-0.14848061998534423 0.2368695183314001 -0.12490036234147729
-0.1483385225121997 0.25687724786173455 -0.10931614681966485
-0.1506450136487506 0.26370448308359734 -0.10077685758359613
-0.12983072896647674 0.2679300351656591 -0.12389724597222986
-0.10305574138808471 0.27546847300898186 -0.14159812673814479
-0.11979426046061736 0.2538793726481115 -0.14266373857743922
-0.1298025061671756 0.2776642485178625 -0.11490047618634881
-0.15357984204936248 0.2699359698809301 -0.09029813751466455
-0.13674470384764892 0.27862048583399407 -0.10501932248361291
-0.10536019106555206 0.27779919343363396 -0.13771856471784297
-0.14327886303115112 0.2566550417460119 -0.11590184911973657
-0.12240951855826598 0.242201630643717 -0.14790878340490046
-0.10062950452018005 0.27155131535898797 -0.1463789109874505
-0.14555374880480987 0.239907507470957 -0.12640791281945887
-0.13094552953887206 0.2697836204088842 -0.1210401122260827
-0.14428956409144622 0.2773768945254003 -0.09660129889733972
-0.12316119273352844 0.2527192874468481 -0.14087065204866114
-0.11557350655246001 0.27462369637858025 -0.13242310926206294
-0.13164670367884856 0.2406290216959631 -0.14177960798032466
-0.11159193118262511 0.27622509436976067 -0.1344412331271905
-0.11866129537272674 0.25292450623880974 -0.14408413216359797
-0.1139960845296405 0.26534587579142205 -0.1400041644264001
-0.10863725443530303 0.268118743471018 -0.14233321592099848
-0.09796715875315887 0.2654542370356237 -0.1520566557336587
-0.14085769255805236 0.23960537152659053 -0.13274384185559931
-0.13545418878245574 0.268418614438883 -0.11637233838327112
-0.1036738713567279 0.27066564994227044 -0.1445200507331628
-0.12618288000273925 0.24406063990961666 -0.14386808022744837
-0.13418720265078765 0.24004781680475826 -0.13981073245294276
-0.13986491759467345 0.26097268300425164 -0.11681582674272241
-0.14832438131022674 0.27574676709543816 -0.09296061739213647
-0.14670566816973907 0.23584533172022457 -0.12779433175809565
-0.12502070863890868 0.26792580323588006 -0.12913606211431208
-0.13371635575938445 0.27444082932840935 -0.11315341934449853
-0.14957101245570403 0.2631727500475561 -0.10268979415185632
-0.10427847107100707 0.27633458810221306 -0.13968656107671443
-0.13529993196177703 0.2605460329569494 -0.12312174484021844
-0.14414995511222106 0.23773819642435665 -0.1295761083055276
-0.13926942248988372 0.27900946574579827 -0.10195410892255487
-0.09916731317687255 0.2785990877665197 -0.14211308106668177
-0.12546443541693908 0.2547290368593847 -0.13771394535787287
-0.13378125031638366 0.27015364604364983 -0.11713837727792444
-0.13511031468558532 0.26830411391626946 -0.11692396446950616
-0.15308339496302825 0.1891247673548376 -0.14278993651158992
-0.10206910570311767 0.262242381147257 -0.15094358369596186
-0.15149083336043578 0.27216190534006707 -0.09141347452886285
-0.09135952194380981 0.27075308995615593 -0.15326193615682307
-0.12958323558020812 0.2542484446085607 -0.13442011818177882
-0.14172361393618804 0.23662674861322994 -0.13376141235120478
-0.08239648838687164 0.2782089753664648 -0.15345970436818782
-0.12110411723304015 0.27055520253550164 -0.13098152622468653
-0.12871630092311126 0.27350640731226555 -0.1204956535983819
-0.13274265428233367 0.23329997496973628 -0.14475802227742854
-0.12559718986201507 0.23890752034556026 -0.14745049819238368
-0.1373652478044055 0.2524622126139318 -0.12703508779294673
-0.14685061176467162 0.27481478886973015 -0.09601794823892297
-0.12055672307658416 0.2576019807375585 -0.1397614990163583
-0.10914362569499236 0.2711157842196142 -0.14005315944440547
-0.13702334066081268 0.24260384278666133 -0.13492671295888606
-0.08899351556945068 0.27689218955408684 -0.15053277358300868
-0.13474253912615997 0.253347699216715 -0.12962900742776576
-0.13320627411055785 0.2679411812342321 -0.11969648942239465
-0.1534371187274478 0.24083120065104122 -0.11561568722016992
-0.13703722854304534 0.2626311822451269 -0.11913532659299554
-0.14789197941470367 0.2274696274317419 -0.13119966432340327
-0.12758352955031615 0.2491886659182226 -0.13959105953462306
-0.15161616702723724 0.24232674079310054 -0.11668983742482843
-0.14429017503905517 0.24966592030893917 -0.12006843730695428
-0.13195451696562988 0.23904639916788692 -0.14236063405759516
-0.12979009349990112 0.2521151347674047 -0.1357242082048196
-0.13246400256800872 0.22914457755457515 -0.14682399377114955
-0.12863105137992126 0.2167562885798132 -0.1533705954242486
-0.1381737699096225 0.27007896142374627 -0.11153923615701379
-0.10734745462584716 0.26100385623346917 -0.14787728235013667
-0.11426528890776855 0.2576724930323278 -0.14448206767327967
-0.12360652883696777 0.2705794616259252 -0.12874234363324824
-0.1222716679160617 0.24914199548136348 -0.1437115882325906
-0.1031034847085498 0.2560899301088964 -0.1539049212623376
-0.13507420917201263 0.2539747996843969 -0.12873092934377375
-0.10099573035884124 0.27644432025324456 -0.14237808331735316
-0.13437193234610778 0.23559946256052608 -0.14238773926980677
-0.12881350119757873 0.2690763516939794 -0.12413919612653436
-0.144927572209122 0.2613249464548742 -0.1099939708400506
-0.10882381697345 0.25715601878534905 -0.14891346439607325
-0.13715059657740813 0.25214046674143425 -0.1275450055290002
-0.11874003310847503 0.2797735972918188 -0.1259697143722314
-0.0952505280559085 0.2779640598810827 -0.14552270516641322
-0.13463802238154632 0.26009011702906243 -0.12434752926118554
-0.11334520180869323 0.2493183060206091 -0.15022908791787806
-0.13772473831820709 0.26025307612787835 -0.12022981688268365
-0.14449780781913024 0.2732049866236364 -0.10075738176591577
-0.10993121166873199 0.2652275605715429 -0.1431959335494775
-0.10094044705081207 0.26735860543619744 -0.14869155630357447
-0.12664383252310973 0.27821827369104973 -0.11854874238259973
-0.13719759483981353 0.24006253915201778 -0.13663650199659053
-0.13113642831492645 0.2550370736635839 -0.13250128075368586
-0.14454507430243713 0.23760682778727168 -0.12912616774327937
-0.14534476001906615 0.26674771743189446 -0.10510695621259393
-0.10653616090464813 0.26791787581812493 -0.14409360930211726
-0.1211352457587741 0.27679044442545525 -0.12630107149369899
-0.1463011165444873 0.2561928673304235 -0.11225800856836023
-0.11251800854850036 0.2790861173189794 -0.13146688684709254
-0.14291868706393462 0.23406947093378658 -0.134051537959649
-0.1482992877547763 0.2598710103548681 -0.10675347491986932
-0.1104255129878543 0.25043267445932976 -0.1517454449821252
-0.14021417101073486 0.27769726949106804 -0.10207357153184594
-0.15156963070082885 0.27071625428568474 -0.0927905206371087
-0.14018979271102172 0.2570469422854101 -0.11968750402219476
-0.12612962325263244 0.23509824710260982 -0.14922279760129634
-0.1097347547595523 0.26494497495066277 -0.14353047951944056
-0.1484436055009387 0.24651784139048213 -0.1172019307304162
-0.12361302574324828 0.2611864252604162 -0.13494322344548884
-0.11611383755851012 0.26831746535669915 -0.13630921289212886
-0.09226806064295989 0.2771664305246984 -0.1483480547357339
-0.12997048695731384 0.27904677825342766 -0.11305635318048181
-0.13794861336398345 0.24600524144541377 -0.131210020630433
-0.12286473413157684 0.25841838555704705 -0.1374871794868249
-0.11265094180751067 0.2605406685389196 -0.1439777080703515
-0.12014492948699218 0.27108967738520257 -0.1313688670087594
-0.1336392422502063 0.24272305207621211 -0.13845229789502803
-0.13339693446803313 0.27558714585672967 -0.11243747815377893
-0.13456970055747253 0.2500394626177465 -0.1323827271152276
-0.11400003333735687 0.2716214700258886 -0.13590811833627406
-0.09212144811797363 0.27654463487040154 -0.14876206859834376
-0.13801450629878265 0.26258695559870354 -0.1178953562665719
-0.1450571378057025 0.27708226876627556 -0.09594053670652093
-0.11931731899428588 0.27426404195200554 -0.1296286945033807
-0.12787948151278716 0.23306286769281978 -0.1488600437331933
-0.1280966361348651 0.26170820432077996 -0.1305250738549966
-0.09168582757163268 0.27089381652247063 -0.1529629741597909
-0.1399820407216571 0.23460138278376216 -0.13694856211431208
-0.11814827819514495 0.26033980088602654 -0.13983087882287684
-0.15073810120272857 0.24093962149988765 -0.1189460222411889
-0.1234962602441333 0.2675508304155981 -0.13091171428449336
-0.14794188340354186 0.2555670185602819 -0.11069140478856744
-0.13682342668223602 0.2755025668657934 -0.10820304497964563
-0.13895040352988464 0.27523142533671013 -0.10583499714620294
-0.1133884002749942 0.2768518968142187 -0.13242909952886286
-0.13396143515753967 0.2671540422953283 -0.11938766285665216
-0.10891662140536529 0.24987829165827388 -0.15336813673265162
-0.13029783566642028 0.25603682237040154 -0.13269748434312525
-0.1501460631673358 0.245255772642008 -0.1161200021196145
-0.11650199790644866 0.2700312181032812 -0.1351077769685525
-0.12221899231124145 0.26422542767893425 -0.13423810049779597
-0.11354323824095947 0.24648523764979 -0.15182622417695704
-0.14335523148226959 0.25480133729349724 -0.11726523086316766
-0.08106214900660735 0.2784261150873815 -0.15389584645517054
-0.14767504831004363 0.24773925977121944 -0.11734559282548608
-0.11353827615428191 0.2590259953058874 -0.14420742437131587
-0.13084099789309722 0.26745206551920525 -0.12323061272390069
-0.12119723458934051 0.2742701812304174 -0.12813385471589747
-0.12866013844657165 0.2735358520067846 -0.12054755434282007
-0.1240138371770404 0.23288160996805782 -0.15186863288171473
-0.13259186943221313 0.2673543139017736 -0.12096249207742395
-0.15080520113158447 0.27166539864908806 -0.09312962636239709
-0.11589647432017547 0.25486964421640984 -0.1449579064536828
-0.13624324997115356 0.2760026498354589 -0.10835654184110345
-0.11668619115996581 0.26213372187983147 -0.13984910294301692
-0.14016598065543395 0.2457840486086523 -0.12864785537011805
-0.13999960919070464 0.23413247304331417 -0.1372001980233926
-0.13952804704356414 0.26391494708429925 -0.11514147266633691
-0.1506065090482257 0.26878077226053826 -0.09645204886682214
-0.13923181195903045 0.24284410910975093 -0.13224358007199946
-0.15256540079760772 0.2097805781878149 -0.13140477880723658
-0.14942980905223113 0.2724219604052221 -0.09472917660958947
-0.09074776967215759 0.2766619368113195 -0.14956501766927424
-0.13723319371390563 0.2710269136942541 -0.11193259701020898
-0.12848372359919769 0.22674656348597164 -0.15079387172944728
-0.08740155001330596 0.27886951403986565 -0.15002921864278498
-0.12430628736663085 0.2717636271036779 -0.12737759098298732
-0.13458269437003356 0.2586590691126501 -0.12560260936505976
-0.09588856597590667 0.27010322051416985 -0.15069220110662165
-0.1439694126431964 0.23585874276529903 -0.13119774207360926
-0.12588372429061156 0.24278378920923824 -0.14485237643010798
-0.09147606392550689 0.2782360358751928 -0.14814913913495723
-0.14674035807299834 0.26724064784418694 -0.10304156586415948
-0.14600291450667602 0.2691134853876745 -0.10242762312181176
-0.1501182128970645 0.2619851275004064 -0.10288800939805688
-0.09736828108477813 0.2782256646670019 -0.14352946624047938
-0.1141232212369464 0.2490133090532934 -0.14987335249669734
-0.14347880681205016 0.26474667029749505 -0.10914882168061914
-0.11078722377467376 0.2563825293100988 -0.14787966653592768
-0.13327745695758086 0.25751162009607903 -0.12816562399156275
-0.13000367184329253 0.2355662627733862 -0.1456521068502206
-0.12402364214110595 0.24235028462778682 -0.1466053937364358
-0.134890209633591 0.27766257958780877 -0.10856614157445611
-0.14212563236403686 0.24806958871256465 -0.12414920970685663
-0.12115363379168731 0.24845463471781368 -0.14494805678613368
-0.1393174191300891 0.2615644975222265 -0.11703167006261529
-0.12133359511542541 0.24505484538447017 -0.14691486105210963
-0.1359588017051242 0.25374097066294304 -0.12781060382611933
-0.13189893563437682 0.2739524884737646 -0.11634152278192224
-0.14127617676902038 0.27599871592890374 -0.10236660286672296
-0.1085692902390979 0.27142513232599846 -0.14032768353707972
-0.1269033362453006 0.2597450657404577 -0.13310686394460383
-0.11455623408007842 0.2536091251886999 -0.14672186121232692
-0.15264893670726043 0.275875513128153 -0.08448365971334161
-0.14853159685778838 0.25145650344263665 -0.11320457503087701
-0.1155793627088092 0.2603461785830175 -0.14189446613080683
-0.1340337653939746 0.24457753138910884 -0.1368046616006631
-0.11302381356406432 0.276375476888529 -0.13306897029168788
-0.1414674629752658 0.26151615815531365 -0.11441516026742639
-0.14821844895529968 0.2760469956911718 -0.09286194190271081
-0.14147418339896423 0.2692447944201147 -0.10808981105573358
-0.1127978970592044 0.2462660117663061 -0.1525466208148736
-0.1525598575656436 0.24771064954172725 -0.11111054465062799
-0.13976735969233733 0.2666119380510961 -0.11240272864587487
-0.10338635345149261 0.26493651109110467 -0.1483654741931695
-0.1340311129872821 0.25228244500528924 -0.13134086772687617
-0.1197946478908084 0.2616173072374975 -0.13770454272515956
-0.1271714081351779 0.23885298209559078 -0.14626309916265193
-0.1529486437623523 0.24658900933634395 -0.11143711849935235
-0.13633256753134948 0.26379287677179925 -0.11919777735955896
-0.12888024349856597 0.249583963922373 -0.13822337135560694
-0.14541256030249816 0.23118603663813228 -0.13240928098447505
-0.12881993849921447 0.25351715522181145 -0.13566382869966212
-0.13314686318087798 0.25806671815287224 -0.1278690908838052
-0.12675442894149047 0.2632431431330358 -0.1307558779407281
-0.10587508578944427 0.2663324518717443 -0.1456194137025613
-0.13799997766661865 0.26733339267145745 -0.11422312900312127
-0.10942828257727844 0.26967573600184075 -0.1407036547351617
-0.15313297112632018 0.2407084746874487 -0.11610223993547143
-0.14567908247161132 0.25848085122477166 -0.1112592433381814
-0.10746745367694122 0.25388122039209954 -0.1519140367198724
-0.11050419111895782 0.261840347818247 -0.14490734681375209
-0.1192065884654544 0.24039984183680171 -0.15141270205266658
-0.1272312810008548 0.24246788459192867 -0.14404331788308802
-0.15364336569953185 0.2233824773348486 -0.12510522350557032
-0.1442448010032199 0.27594149546991936 -0.09822683676965417
-0.1414289583747409 0.21780169444452877 -0.14283395454175654
-0.1280973811929248 0.24392873483072872 -0.14249444648511592
-0.10928143163371307 0.27767759995829217 -0.13500521227605525
-0.14666844506907684 0.23864347176920528 -0.12587559863813105
-0.09329241116690856 0.27938342528711907 -0.14622471377141658
-0.15363946159529906 0.24902952151667232 -0.10875999078042688
-0.09858376880336028 0.26133764224421135 -0.15410718962438288
-0.13214923043894988 0.2454541368998205 -0.13804831251390162
-0.15337454875159484 0.261637334398142 -0.09854543849713983
-0.13731625278640014 0.23314774470697994 -0.1407341425109643
-0.10195305545973998 0.27387047248255364 -0.14347217127568904
-0.1455766816918872 0.24099272923838252 -0.1255388472963113
-0.14356726010489684 0.2555592699564611 -0.11638655409105005
-0.13705214460540038 0.2690889878786718 -0.11390822276361169
-0.1424169202630542 0.2576977057970678 -0.11621474370248498
-0.08902909954238158 0.2784153266466772 -0.14941771969087306
-0.12782887716937286 0.2613371058024084 -0.13102962717302027
-0.1081519534175418 0.25038785176645867 -0.15366371616609278
-0.11203889151263458 0.25825489001642815 -0.14586163207776728
-0.1405768950765155 0.22537219958674068 -0.14139567956216517
-0.14048625131297332 0.23694014983545894 -0.13500518247373286
-0.11202825208354217 0.25483906703364007 -0.14790669724233332
-0.15235676963973266 0.2775073094881689 -0.08279303356893243
-0.13049630423236114 0.25847381787668816 -0.13071796938665095
-0.15330019195723754 0.2792544408358251 -0.07813339576013269
-0.14055722554373962 0.2348592324770605 -0.13621615514047328
-0.14908465345549804 0.2676742716349279 -0.09964602336175622
-0.15190890033889037 0.2585739536799108 -0.10307144269235315
-0.1443542798345111 0.2634476466692602 -0.10904414102323236
-0.1324466278140567 0.25627202229868523 -0.13023652776963893
-0.13573121627021056 0.26340288358103386 -0.12020420178659143
-0.14540659983802062 0.26771456437479607 -0.10428573831803979
-0.1280172278468631 0.2670690460718786 -0.126628002970292
-0.09029073615718108 0.2753727479494726 -0.15078452870137873
-0.11372325916934234 0.2670692844904577 -0.13908318325765315
-0.12603871126818877 0.2663968844927465 -0.1291812871385354
-0.14698892434287292 0.242623571924082 -0.12240724906213464
-0.1321445961778186 0.275370244554392 -0.11430010840184869
-0.1067173888270877 0.2559335275210058 -0.1512154702831048
-0.1267625798766635 0.27002352910410515 -0.12596350058801356
-0.14584372540164214 0.26219702201258294 -0.10808627948053064
-0.09478567143130523 0.2676389856852209 -0.1529097174096841
-0.14961143930602294 0.2776668711222326 -0.08814976259954156
-0.12676710982966644 0.25825030045878045 -0.13431519910581294
-0.12930605908084136 0.272021536401621 -0.12119895860440912
-0.13369479377913696 0.2600247307337438 -0.1255988989759225
-0.11768421133208495 0.25968409018885247 -0.14063905820138636
-0.11093712945628387 0.2675120277918493 -0.14093329653032008
-0.09809940655875427 0.2697914286173498 -0.1493049775052804
-0.13547117610621673 0.2624797268427526 -0.12130416080243768
-0.15339649816203338 0.25011879639994256 -0.10816087469346704
-0.15210222800421935 0.24462712245356197 -0.11417726322896661
-0.09472517271685821 0.27604425387751214 -0.1475984071183938
-0.1522525211160205 0.27926791148554436 -0.08005749329812707
-0.12100655933070403 0.2385819001711523 -0.1510757718969125
-0.12383278806853515 0.258025650552622 -0.1369219039369363
-0.1375977655236743 0.2754943414248144 -0.10731316253431024
-0.12314316232848388 0.27761292891871087 -0.12400063022859277
-0.11455128689456207 0.27696407275568596 -0.13144656166322413
-0.14159482319998962 0.27583611445795647 -0.10207999393232049
-0.13768796225238067 0.25708413558374993 -0.12291163846738519
-0.11393650968718749 0.24402308898340816 -0.15318999335057917
-0.13813922901797515 0.2405243559397375 -0.13528030261285487
-0.12484913666892272 0.24231768088709468 -0.14597534283883754
-0.08538044591593963 0.2781253500498449 -0.15167600557096186
-0.13345227738070709 0.25598574118982903 -0.12917473062761012
-0.15005582173514587 0.26831061082255 -0.09766916081197442
-0.14926315446543914 0.23877126412760372 -0.12247184559590997
-0.11347731550383788 0.2534669085062658 -0.1476142023492593
-0.13031193216490966 0.24185425477396602 -0.14200346812493983
-0.13793889780688506 0.24148530202280635 -0.1347614292789239
-0.1076900770251773 0.2769734902895605 -0.136523923723771
-0.1351188083474658 0.26103735404383294 -0.1229486827541131
-0.10668225188899261 0.2648170633829748 -0.14597793564088526
-0.1483167370145343 0.2588349028147375 -0.1076123927522439
-0.12368605633425933 0.2783507748163854 -0.12247600301988305
-0.13111033638167602 0.24986255603205318 -0.13604009792096797
-0.1105708440129779 0.2607557220972692 -0.14551491185910884
-0.10803368290114623 0.273023848108164 -0.13976912841088954
-0.15247784157443267 0.2008144302881872 -0.13396904513127986
-0.1367706467692874 0.20948940949808711 -0.14908259257562342
-0.1079705466811679 0.2528017802752172 -0.15217719122655574
-0.10505987306285125 0.269630555681101 -0.1441339616466302
-0.12767386038947326 0.2352835579432165 -0.14784996852166835
-0.13515330453562957 0.24996293025385494 -0.13170710846669856
-0.1214525361840747 0.2556779428042089 -0.14034432813413325
-0.1415975352113269 0.2519206448115026 -0.12192953273542108
-0.1360781749074481 0.23948419528376216 -0.1381880854058999
-0.1127121706788562 0.25042128997217766 -0.15004480525739375
-0.11884827514338714 0.27077365355860344 -0.1327596072841424
-0.13829005857157928 0.2551252885378515 -0.12375587865598382
-0.14559125502753478 0.2288652105845129 -0.13326818391568843
-0.1363482733552478 0.2148636622942602 -0.1481923077989358
-0.14504137237715942 0.24174255566965694 -0.12557316467054072
-0.12611920734095794 0.2511988921679174 -0.13949984952695552
-0.13814557691264373 0.2716052575625097 -0.11037332460172357
-0.14601899285960418 0.2753633304155981 -0.09649117931611718
-0.1400530298535846 0.26235849099527947 -0.11546281620748224
-0.13720090289759856 0.24222761826883907 -0.13498783752210322
-0.13970695038485748 0.25635451512705437 -0.12089206918962182
-0.1425169219558261 0.25903338628183953 -0.11500861391313257
-0.11695234080004913 0.26294827895533196 -0.1391767625499505
-0.1363235672299884 0.23810375171076412 -0.13880469545610133
-0.1401932497804187 0.2653617306269323 -0.11297315999753656
-0.1424151768271945 0.2511825008906042 -0.12139893218763055
-0.11755050321269256 0.2416869445360815 -0.15187219425924006
-0.11817949612784606 0.2539464278734838 -0.1438222740579385
-0.15131485064673644 0.2605871601618444 -0.1023110364366311
-0.13147349258113128 0.24146300988566036 -0.14138284966237727
-0.11203693946051818 0.25646937327753655 -0.14695139869935694
-0.135465662676575 0.2364221854723608 -0.1407925252605218
-0.13092547257590514 0.276661281160227 -0.11451027437932672
-0.15294728775668365 0.19697606997858638 -0.1355025385308999
-0.14664637644934875 0.25237834887873284 -0.11494033679254236
-0.13632776935744506 0.24535590844523067 -0.13372524723298732
-0.1065931429450534 0.2781153960741674 -0.1364554081846017
-0.1370765676085971 0.27053022818934075 -0.11253339692838372
-0.1458637227599643 0.2483041925944006 -0.11921667203195276
-0.12662291129279357 0.27271801667582146 -0.12408322736509027
-0.12403960128474456 0.2772566123522436 -0.12322189554460229
-0.13420436878848296 0.2438033266581213 -0.13714610680825892
-0.1190508564298175 0.2650733037508642 -0.1360662047553796
-0.12177624900984985 0.2475099607027685 -0.1450635109830636
-0.1479953040664218 0.27879834609400383 -0.08999892219789209
-0.13292362888503295 0.2715451164759313 -0.11713761731870355
-0.1181127836291812 0.2780061407602941 -0.1277886395145196
-0.14559521873641235 0.25991160111796013 -0.11023668095357599
-0.12112679680037719 0.27819979625116936 -0.12523320957906428
-0.1523973306005023 0.20753711896311397 -0.13244650408513728
-0.12183138330626708 0.2514970346010839 -0.14260818704850856
-0.11388554771590453 0.26033157544504754 -0.14316276356465998
-0.11809184749770385 0.2766091270960485 -0.12884928926713649
-0.15073553820300323 0.2559981985605871 -0.10666311427838983
-0.11118278999972564 0.2668301506556188 -0.14118499204404536
-0.11504281659770232 0.24780339436899776 -0.14991430088765803
-0.1463008483235858 0.27558160262476555 -0.09593336924798669
-0.14921743770289642 0.18678635793100948 -0.1541521911311883
-0.12437733610320312 0.25603020625483147 -0.13786848530061427
-0.13565344710993987 0.27776480155359856 -0.10722502216584863
-0.11122662921595794 0.2521362348116552 -0.15025330230481806
-0.12279934783625823 0.2655094905413305 -0.133022627680375
-0.13183809419322234 0.26982832389246575 -0.11988206848390283
-0.09933633704829437 0.2722799821413671 -0.14696841582544032
-0.12215990920710784 0.26878083186518303 -0.1313286785770196
-0.15295289059329253 0.2467588825739538 -0.11128615483529748
-0.10487337012934905 0.2594640894449865 -0.15053448721654597
-0.11940013964820129 0.26855338054072014 -0.13377121731527034
-0.11118657489466888 0.27528971867930047 -0.13538696512468043
-0.14904416700053436 0.24844795899759883 -0.11504156038053216
-0.09552946289229614 0.2706400795496618 -0.15060137852914515
-0.14659377535033447 0.2347650571383154 -0.12856987759359065
-0.09995248516249877 0.26282990413080803 -0.15216889127977076
-0.12359027167010528 0.273964051774851 -0.12646870955712977
-0.14186802108931762 0.24873012738596553 -0.12398802384622278
-0.14428467651057464 0.2531736536539709 -0.11731276556737603
-0.15070791145014983 0.2330138726748144 -0.1247453455615777
-0.12838013072657806 0.2727620049036657 -0.12171878561265649
-0.14818439980197173 0.2712530537165319 -0.0977319394040841
-0.1315378506963275 0.23468053775202388 -0.1449516330648202
-0.13705950577903014 0.23341131644617671 -0.14086342498548213
-0.14407315452742797 0.23336810307871456 -0.13283546909578028
-0.09786887069392425 0.26548755603205315 -0.15210891410596553
-0.13203474481749755 0.25945407586466424 -0.12802276655919734
-0.1320278157775424 0.25062060790430657 -0.1346841667581338
-0.11953225334334594 0.24904525714289302 -0.14578949555642787
-0.12178644140410644 0.2568776054896032 -0.13933791860826197
-0.10604750712561828 0.27005529837977044 -0.14309432253129664
-0.13914165993380767 0.23575628238093013 -0.13713829859979335
-0.11497331758189422 0.25912464099299065 -0.14308092638738337
-0.14991917808699828 0.23203850226770992 -0.12620771571881953
-0.1496839781587146 0.2431653185404455 -0.11843063577897729
-0.10167419512915832 0.2614164991892492 -0.15172914311177912
-0.13973362346339446 0.2542673988855993 -0.12259351357705774
-0.13927156825709563 0.25013483004938714 -0.1264143650222558
-0.15102666218924743 0.23875982003580684 -0.12017121061570825
-0.1467302997891925 0.24481165843378658 -0.12086907669789972
-0.14933038850474578 0.2513737721956884 -0.11220686778314294
-0.10542247791934234 0.273698155454508 -0.14100701257474604
-0.13024969001460296 0.26078975634943596 -0.12901327654607478
