ply
format ascii 1.0
element vertex 177
property float x
property float y
property float z
element face 0
property list uchar int vertex_indices
end_header
0.004915435117004094 0.28067195849787346 -0.17284693464524928
-0.0028211285655520583 0.2985268874682104 -0.15748483583219233
-0.06087161203074676 0.28129804568659417 -0.16038656875379267
-0.024874131876709286 0.2802824421442663 -0.1700852577377099
-0.013641606766464535 0.2860253496683752 -0.16733520373590174
0.007079679768798528 0.2905687137163793 -0.16444282874353114
-0.014126758772613827 0.2939178987063085 -0.1600861464429635
-0.023170750338318172 0.2983436627901708 -0.15481955453641597
-0.008609484631302181 0.29945141511332146 -0.1561625067878503
-0.0027189960067294265 0.29248983102213494 -0.16275416955239955
0.0015650282318569993 0.2995569153345739 -0.1567181263852853
0.003617275756118474 0.28724968867670647 -0.16750062152631465
-0.033058356243851006 0.2926101131952917 -0.15853615745790187
-0.025540899235489193 0.2905886812723791 -0.16118953272588435
0.0013109038288571214 0.29785216288935296 -0.15826374933011714
-0.02630929251361114 0.2951793118036901 -0.1572369252134103
-0.002506505448105159 0.2945219917811071 -0.1610731695581216
-0.01630137463259918 0.294824008516184 -0.15907262906320277
-0.0331506540362857 0.2961152239359533 -0.15552585467584315
-0.025749873120071713 0.28551924662958733 -0.1658046011615533
-0.024796943861725155 0.2903028173960363 -0.16156486317403498
-0.026276748377563778 0.284293059877268 -0.16681329056508723
0.008201141160247501 0.29789871411692254 -0.15792409226186457
-0.029170881706955257 0.2937746091402685 -0.15802851959951106
-0.01028860707926971 0.2995731277979528 -0.1558534418035287
-0.00632972617793304 0.2983480735338842 -0.1573408161092538
-0.03727630873370391 0.28709495501886956 -0.1625973497319955
-0.014581989247085873 0.29681897597681633 -0.15770985826738063
0.007560391228912053 0.29684967236887566 -0.15892279788739863
-0.0019051541869662429 0.2811424179590856 -0.17252702161557856
-0.0005747487132571365 0.2967202706850683 -0.15935414180047694
0.0072224924976803636 0.3006025000132238 -0.15529907390363398
-0.026980619627716366 0.2852039976633703 -0.16587754234559718
-0.019126485783340755 0.2966044588602697 -0.1571889434743661
0.003322441380737004 0.2846938415087377 -0.16982232674844447
-0.003918539482834163 0.2877020283259069 -0.16694492742307368
-0.013364355761291805 0.29166341262232415 -0.16220892116315547
-0.023426007229568783 0.2823748035944616 -0.16874501749761286
-0.003228734928848567 0.28670573668848626 -0.1678758774686593
-0.012320589024307552 0.2996785684145605 -0.15542701527364436
-0.033482115465881646 0.2837190075434362 -0.165904126017167
-0.00508497257876617 0.2982383413828527 -0.15754248842485133
-0.00902057786631805 0.2896696968592321 -0.1647945855546731
-0.012414615351440731 0.28758079247843377 -0.16618949815519038
0.006830085318801579 0.30017155843149773 -0.15578953072316828
-0.01921812792468292 0.28559112983118645 -0.16672455415017787
-0.026233207184555355 0.28869766431223504 -0.16284539446122828
-0.01850144167590362 0.2953835769213354 -0.15835510834939662
0.001161474984405217 0.2894890351809179 -0.1655657653499383
-0.031796525913955986 0.2852815433062231 -0.1649115596700448
-0.01915670533824188 0.2856902523554479 -0.1666465018678445
0.006096322339294133 0.2836546345270788 -0.17057324096448603
-0.0016264130656741286 0.2862454100168859 -0.16839248582608882
-0.023158292967560116 0.28492528634440056 -0.1667259548593301
-0.015702854592087093 0.290435854963175 -0.16292945191152278
-0.02944318552661163 0.29204750495325676 -0.1594036583591241
-0.02587519188571197 0.2940836592234289 -0.15820369765050593
-0.043315123516800225 0.29034674601923577 -0.1585460220266122
0.006510723632095036 0.28577977853190056 -0.16876851662881556
0.00743745664906281 0.2821621938265478 -0.17170629545934382
-0.0070535649840853835 0.28358906941782586 -0.17037210509069148
-0.002703200775863948 0.29092270570170037 -0.1641708974529046
-0.0286110450809024 0.2890269203699743 -0.16216481372602168
-0.026719253260376278 0.2851361079729711 -0.1659961704898614
-0.0011666228358767653 0.29017818408381096 -0.16493623599298182
0.006319958966491399 0.29648369984995476 -0.15930931910760585
-0.009594898421051327 0.2921140237368261 -0.1624493812013406
-0.020777266222717587 0.28913629489313714 -0.16326834902055445
-0.002036403614761653 0.3009963675058996 -0.15489440306909266
-0.020996432501556698 0.28822386699091546 -0.16409625753648463
0.00516234735798615 0.2805978103197729 -0.17288962647206965
-0.00643653770137054 0.2820972247637426 -0.17148382112271968
-0.027777086693527523 0.2836434884585058 -0.16708020016439143
0.005374241870162663 0.2852957888163244 -0.16923194274194422
-0.010036360222580257 0.2839154644526159 -0.16982919618375483
0.0030103812630154466 0.29371846156489007 -0.16184257611520472
0.007343042891738591 0.2946181340731298 -0.16095317050702754
-0.014075975615265194 0.29783517556559197 -0.1568687771249551
0.007210720580337224 0.2842210574663793 -0.1700569455314416
-0.010125916201355282 0.28818655448328606 -0.16605482146032038
-0.00925360222506744 0.2926536245859777 -0.16199553653485957
-0.02538744707751495 0.29164618687998406 -0.1602314923692483
-0.019570540386917416 0.2818177385843908 -0.1696139340091485
-0.016080301005127254 0.28202182488810174 -0.17003189667947474
-0.027078013617279354 0.2975173039950048 -0.15491431102044764
-0.011391918856384579 0.2897343678988134 -0.16437927529103938
-0.015747409064056698 0.28577328162562005 -0.16717394336946192
-0.004463802773239436 0.2973330064333593 -0.15843231126554194
-0.009272467095138851 0.29448169904123894 -0.16045469686277095
-0.007555227476837459 0.2844810529268896 -0.1695887808490533
0.0016922841484524583 0.28841472106348626 -0.16650179669149104
-0.0038581301753543044 0.28925830560099236 -0.16557467624433223
0.00715400676083344 0.2872954054392492 -0.16738098010308924
-0.022867720324280087 0.29342520671259514 -0.15923536464460078
0.0026095400269009446 0.30040640073191277 -0.15581750020272914
0.005391408007857976 0.2996779723681127 -0.15641722723729792
-0.03909678359675628 0.2837841554201757 -0.16488899931199733
-0.017269145447494808 0.28906721310984246 -0.16392788931615535
-0.06668707330870849 0.28116804795633904 -0.15786632045991603
0.0018619785721279954 0.2854931993998205 -0.16913048073537532
-0.03329662581134063 0.2827550216234838 -0.1667048250127572
-0.029321800667526546 0.28228241639505974 -0.16792372509725276
-0.00561333795237762 0.2991274638689672 -0.15670146688707057
-0.00847993393588287 0.28883398013483635 -0.16562653228528681
0.000884760421035466 0.2965356751001989 -0.15946819528825465
-0.023876767355682674 0.28909075694452874 -0.16282708093412104
-0.016885261732818905 0.2905563755549108 -0.16259413108117762
-0.028426211077453915 0.2803759618319189 -0.1695548360038537
-0.016141842800857845 0.284744982293955 -0.16800904914624873
0.005580503743407903 0.29511291222941033 -0.16058718308694545
-0.018633316952469173 0.29844779210459343 -0.15552178665883723
-0.004334281880142512 0.2952737851656591 -0.16026642069108668
-0.024363260466339413 0.2937029047526037 -0.1587688390899438
-0.0328280438964389 0.28807998137842766 -0.16236925765760127
-0.030833970505478207 0.2958849115885412 -0.15603933378942195
-0.012552182871582333 0.28963184790979973 -0.16426401480920497
-0.01113457580256683 0.29416418509852044 -0.1604237918544549
-0.007615964609863582 0.29605114894281975 -0.15929355367906275
0.001638222735641179 0.29379290776621453 -0.1618203733850259
-0.02902213831591827 0.2955623312510168 -0.15658023103959742
-0.01893491645503265 0.29864371257197014 -0.15528341278321925
-0.03807974954295379 0.283796016744486 -0.16505905136354151
-0.044730555016281426 0.2873503609217321 -0.16121666774041835
-0.029182146984817806 0.29462486939798943 -0.15733551129586879
-0.06833356221366149 0.2820425076998388 -0.15659978136308375
0.004241783421752629 0.29048455195795647 -0.16459631070382777
-0.002153377730133357 0.282476071885935 -0.1715913180995721
-0.02588776846575958 0.28705519872080437 -0.16441886767633143
-0.0021239926402590896 0.2960509701288854 -0.15982621058709803
-0.001359145838501277 0.282675628236643 -0.17151964351422969
-0.00483707686114532 0.29625899033915154 -0.15938629850633326
-0.0053036024158023025 0.285100047162882 -0.1691804443288583
-0.015678535897018734 0.29928261475931756 -0.1552319590736169
-0.027508090931656185 0.29557615952860467 -0.15675111755616847
-0.011698674160721127 0.2999529285944616 -0.15527199849374476
0.0006133506710507248 0.28935301738154046 -0.16570184275396052
-0.03194664021182281 0.2859431548632299 -0.16435845836885157
-0.0015701462810061599 0.28024954038035027 -0.1731631968904275
-0.0010996272151492263 0.2825918241060888 -0.17160039290673915
-0.014872114855530087 0.2806934161699926 -0.17118207260854426
-0.028522263962509457 0.2943141503847753 -0.15766287490613642
-0.019652943808319393 0.2966381354845678 -0.15706599399335566
-0.01545513768840057 0.2928965731180822 -0.16071440920121852
0.004407990973708806 0.2881550236261999 -0.1666624759126443
-0.03108645578074676 0.2900195165194189 -0.16091627523191157
-0.057795982558014214 0.28538668589960686 -0.1582132194925088
-0.01367152829814178 0.2837864203966772 -0.16925463721044245
0.0011956582481839036 0.3008872910059606 -0.1553474579740304
-0.030995230871918026 0.29583806233774773 -0.15606499358899775
-0.004801045853378596 0.2866976900614416 -0.16778276011235896
-0.034556846815826714 0.28969449239145867 -0.16079044982679072
0.0007071087772824142 0.3015502138651525 -0.1542822633672494
0.008066196244476017 0.28038251834284417 -0.17297471210248652
-0.006392668682815852 0.2847951694048559 -0.16938283190019313
-0.016138326126816097 0.2952755137003576 -0.15875498101003352
-0.013687621552231136 0.2838946028269445 -0.16917706176526728
-0.02814153929400665 0.28785407977472893 -0.16333030804879847
-0.007185142237427058 0.28781259494196526 -0.16663641378171626
-0.01361386080432159 0.28895795779596917 -0.1647001270938653
-0.02876288791346771 0.2809128208674108 -0.1691174571204919
-0.02719483872103912 0.2895246191538488 -0.16193050786740962
-0.06090004344630462 0.2814120097674047 -0.16027425870187464
-0.01152716179537994 0.28016895490061394 -0.1721902702737588
-0.030155610043289486 0.28683215814005486 -0.16392161592729274
0.007775951426742253 0.2989765449083959 -0.15694975003488246
-0.01925663252520782 0.2910951419390356 -0.16165535792596522
0.005165089171645818 0.2829577966250097 -0.1711850975442666
0.0012131820137478684 0.28249389367472283 -0.17172247812040034
-0.010918002325775448 0.29875070290934197 -0.1565022830653924
-0.00845600267100555 0.29035860734354607 -0.16419718310125056
-0.01764528055834991 0.29359233813654534 -0.15981786593682948
-0.027770738798858944 0.29272276597391717 -0.15904366120584193
-0.015661339957001034 0.287138883642069 -0.16598979279287043
-0.02456800242114288 0.29742515521418206 -0.15545516356713954
-0.020009826618912045 0.2836289449251806 -0.1682898615289468
-0.005108963448288264 0.2864372773684179 -0.16799565300233546
0.0007353315765835617 0.29189974503885857 -0.16345137998349848
