ply
format ascii 1.0
element vertex 308
property float x
property float y
property float z
element face 0
property list uchar int vertex_indices
end_header
-0.1824123670642398 0.1590548201121008 0.1734832908224326
-0.16309852500605804 0.18275905089747066 0.18570033565275487
-0.17922603686499816 0.16980320649515743 0.17698586836569127
-0.1546258886640094 0.13934952454935665 0.19547180190794286
-0.17275975247073394 0.140123252443186 0.18228653922788915
-0.16554312010455352 0.15413171487223262 0.1871280457090598
-0.1626267989461444 0.1756413622416174 0.18972871556989965
-0.1712485363070987 0.18191820817362422 0.18107555165998754
-0.15444945891547424 0.15511066155802364 0.19563893333189306
-0.1831007113044284 0.17403269248377437 0.1724953438352805
-0.18429168661284667 0.16537541585337276 0.17131374135725316
-0.17128887375045043 0.144759003690592 0.18326652899496373
-0.18281653125930053 0.1784988685167944 0.17223406687490758
-0.16161213417697173 0.18559229808222408 0.17023576155416784
-0.15395214756179076 0.17279285626780147 0.1966390992712241
-0.16108363469290954 0.15904915767084712 0.19055829301588353
-0.1775958945338748 0.15638530688654537 0.17836187139265355
-0.15851835508990508 0.16290140586268062 0.19258967891447362
-0.16232782204795104 0.18088078933130855 0.18909648910276708
-0.1632647623603366 0.16559559541117305 0.18898759141676244
-0.16756541629481536 0.18498278098475093 0.17524222388975438
-0.16685461600470763 0.1779643340624487 0.1873748685430747
-0.16980237861323577 0.1717464967287695 0.18472603812925634
-0.1612593491857074 0.17233497338663692 0.19064829602949437
-0.1675999422853015 0.17197990851770992 0.1862023259710532
-0.17307145496058685 0.12864131169687862 0.18218094959966954
-0.1573717107360385 0.15413678126703853 0.19321397796385106
-0.15538845558810455 0.18559849696528072 0.17857695475332555
-0.16146388252425414 0.16454583840738887 0.19040671840421972
-0.17145086427378875 0.15206015544306392 0.18315265432112035
-0.17429840167212707 0.13971299367319698 0.18115408077947912
-0.1630974223201297 0.18102807240854854 0.18883238092176732
-0.16955609222102386 0.16318405108820552 0.1844403530668479
-0.15380127330470306 0.1536073728121435 0.19611881032697973
-0.1841782738750003 0.14677453475367183 0.1709987606119376
-0.16947346528220397 0.16086906628977413 0.18441847816221532
-0.15695340533900481 0.17666542964350337 0.1938511516165
-0.16973624725985748 0.1848704858339941 0.1748060072969657
-0.17590263088393432 0.17307287888895626 0.17990259185545263
-0.16085810561824065 0.13897312121760005 0.19064346805326757
-0.17542156179595214 0.13885903792749996 0.18032953992597875
-0.16636645396399719 0.1565501733339941 0.18649415031187352
-0.17692076762366515 0.15432203250300044 0.17903418198339757
-0.15401155849147063 0.1814948959864294 0.19327256932966527
-0.1595852037255786 0.15488195853602046 0.19157252565138158
-0.17639009257006866 0.1418290777720129 0.17953045025579747
-0.1557363828008197 0.1612978024996435 0.19485996022932348
-0.17268658776927215 0.16663927274119014 0.1824969138216239
-0.17163572807955962 0.13966191249262447 0.18307221785299596
-0.16656148036170226 0.1609376712359106 0.1863621856283408
-0.18349141975093108 0.1772333426989233 0.1715960885595542
-0.18305924137282592 0.1711550398386633 0.1729509617399436
-0.1648441960399173 0.164192859701029 0.18773798003904638
-0.16693569322276336 0.14412326054941768 0.1860555793356162
-0.1847023775165103 0.1602224154986059 0.17053345695249852
-0.16994604070830566 0.18077958064447994 0.18264044180624303
-0.17165706654238921 0.1389786048449194 0.18306151881925878
-0.16983438630748016 0.17207575278650875 0.1847341443609458
-0.1735526134555362 0.15033752160441036 0.18167183652632055
-0.16911480923342925 0.16114831405054683 0.18463979020826635
-0.1819841821973346 0.14697719054590816 0.1736414815496665
-0.18426076670336944 0.15961587863337154 0.17110819473974523
-0.16893840928721648 0.16786045270334835 0.18509797111265477
-0.17439798613238555 0.1840276165522253 0.17294497147314367
-0.18026390274214965 0.16223216491114253 0.1758200611185294
-0.17787915070700866 0.17361104922663326 0.17786420241110143
-0.16053615112948638 0.11844668226610774 0.19087789312116918
-0.16292827923941833 0.18559933143030757 0.17315567389242467
-0.17552348573851806 0.16697693305384273 0.1805204834055167
-0.1844941039865039 0.13688868718515987 0.17063949361555394
-0.15772765477347594 0.18223423200022335 0.191134550721572
-0.15696419377970916 0.18551797109018917 0.17942968860380468
-0.17350418468165618 0.17304665284525508 0.18191398039572057
-0.1578534354751132 0.18278861480127925 0.18947175994627294
-0.1585730572526477 0.13361543851267452 0.19230745092146215
-0.16010483701873046 0.18559599357020015 0.17207405820600805
-0.15797859032798034 0.13348561959635372 0.19274506822340307
-0.17741709550070983 0.16483986812006587 0.17869231954328832
-0.16860176225352508 0.1808293505228674 0.18406573787443456
-0.1848174144809268 0.17288017707239742 0.17032212868444738
-0.1640579958741687 0.1445238037623083 0.18827185884229955
-0.17125837107348663 0.1745577497996008 0.18349484458677587
-0.1601660509889148 0.1565060658968603 0.19120154634229955
-0.17590696712184173 0.17984980779062862 0.17938692227117833
-0.17939370473075134 0.17878169255625362 0.174949624688552
-0.1691858877723239 0.1848624988115942 0.17528645053617772
-0.17505269845175964 0.1416398926294958 0.180590995700286
-0.17305935521769744 0.1523271246470129 0.1820318485807639
-0.1777427007739566 0.15886146264444942 0.17822016134970006
-0.1691856791560672 0.14643282132517452 0.184553899915145
-0.15940206845450622 0.1856079741038 0.17527131095640477
-0.16561455627131683 0.15370512442957515 0.1870730902265769
-0.15828543503928405 0.18360776143442745 0.1866524006437522
-0.17326430578875762 0.1491789861239111 0.1818862940382224
-0.1831963469569705 0.163726870588175 0.17270041361563024
-0.17914072771716338 0.1286880715407049 0.17681831970922765
-0.1579011787955783 0.1849644823588049 0.1810812439035636
-0.15438530941653472 0.1855786486185705 0.1725449945043784
-0.1744976301972888 0.18275988536249752 0.17634842649214086
-0.16349863608527404 0.14779699283014888 0.1887026216100913
-0.18235753079104644 0.1410080237902319 0.17325631633512792
-0.15791624386954528 0.16663098769556636 0.19328085437528905
-0.1828018387143634 0.16214973168741817 0.17314819350950536
-0.1745047082488559 0.17280215459238643 0.18114528909437475
-0.1544967552011035 0.15473300652872676 0.19557527557127294
-0.1610609402244113 0.15769327121149654 0.19057575717680272
-0.17947764297175628 0.1656885190523779 0.17668319597952184
-0.16291457017112 0.18425715403925533 0.1817630018305045
-0.16232345600772125 0.17319977717768306 0.18987885967008886
-0.15723819633174163 0.1636249466456091 0.1937011863302451
-0.15813034375357848 0.1856060667551672 0.1756531979154807
-0.16219441195178252 0.1504243655718481 0.18966642871610936
-0.15832662184882385 0.18403310017954463 0.18500379577390966
-0.17770908375430328 0.13746929602991695 0.1782111312460166
-0.18420016368079406 0.1793550296343481 0.1703920449327689
-0.16099983056235534 0.15678018765818233 0.19060693040602025
-0.1790544648950122 0.1777189417399084 0.175824948699401
-0.18462980886149627 0.17733854489695186 0.17012641683332738
-0.18239381511855346 0.17828822570215816 0.1725975658010703
-0.1813496013467334 0.15040243106257076 0.17439637437574682
-0.1547152509276889 0.18037432866465206 0.19343832984678563
-0.1713620682542346 0.15417749123942012 0.1832038845133048
-0.1762797941749118 0.18051791625391597 0.1783392514299613
-0.16556259592223388 0.1472769423044836 0.1871130253385764
-0.1741307487075351 0.17949158387552852 0.18051073804609594
-0.1699955870692752 0.17335993485819454 0.18454215780012426
-0.1711254378144763 0.17594862418543453 0.18353880301229772
-0.16551246841597778 0.15965539651285762 0.1871580864500266
-0.1827066500966571 0.17169988589655513 0.17328173771612462
-0.1766619642560504 0.1620643778360998 0.17928696528189
-0.1659575810019992 0.18392622905146236 0.18066594854109105
-0.1644052972381137 0.1669418855227148 0.1881569410871726
-0.16890234847712737 0.17406011062037105 0.18541172996275243
-0.17188611229109985 0.18350047307383174 0.1768336977075797
-0.1640732546632312 0.15575659709345455 0.1882601167272788
-0.16990980108428222 0.1842877312220251 0.17655918851606664
-0.173750694591286 0.18310809569727535 0.17612735286466893
-0.18452383180308563 0.17461938100229854 0.17052785411588964
-0.18285600443530303 0.1711210651911413 0.1732045497011405
-0.16699452300715667 0.1690437241114294 0.18638698116056737
-0.17731467981982452 0.17187697129618282 0.17864645376913366
-0.16475760539221984 0.171250645688883 0.18808970704786596
-0.17666953404593688 0.17648309903513545 0.1787008430074912
-0.16275357802558166 0.16156530814539546 0.18927572026960668
-0.15503841241049987 0.18558866219889278 0.17429844394438085
-0.17791978617358428 0.14733648734461421 0.1779688979696494
-0.1548850496594928 0.16902161078821773 0.19611344590894994
-0.17994373639273864 0.17549610572229976 0.17549920931570348
-0.158033679920914 0.1252139254130041 0.19270024553053197
-0.1632678916041873 0.18392801719080562 0.18252513662092504
-0.15951454241919738 0.14049458938013668 0.19162181869261083
-0.1649844308679126 0.16708374457728023 0.18772903934233007
-0.15559233327555877 0.1486989303148901 0.19467804685346898
-0.17940000792193633 0.17500639396082515 0.17610535875074682
-0.18243315418410522 0.17697400288950557 0.17293588176481542
-0.1653520723168872 0.13285792308222408 0.18727520957701024
-0.17897836466479522 0.14241201119791622 0.17690751806013402
-0.17673766215491515 0.15362185674082393 0.17920259490721044
-0.17611178358245116 0.15076518493067378 0.1798069562029105
-0.15457847316909057 0.1630528016604101 0.19598672643415746
-0.17710922260928375 0.18313277202021236 0.17275796190016088
-0.18284718294787627 0.16649926143061275 0.17328620806448278
-0.1615969647948764 0.18333793120752925 0.1850448633741599
-0.17482143243003112 0.16671818929087276 0.1809935356687766
-0.15777676900077087 0.1551080985582983 0.19291786208860692
-0.17458429535079223 0.16639686065088863 0.18114171281568822
-0.18393863340068084 0.16910565333735103 0.17195770993940648
-0.16540596981692535 0.18517405228983516 0.1751705195020896
-0.1636607458179019 0.18459612565409297 0.18002391710989293
-0.17815182705569488 0.16582549052607173 0.17800948873274144
-0.17080103953528625 0.18320543008219356 0.178498813064025
-0.1719848026816867 0.1807571692980444 0.18146804824583349
-0.1580038626973651 0.1856045766390478 0.17539779201261815
-0.17168002923178893 0.15738243298899288 0.18303717032186803
-0.16333628793406707 0.1288268609560644 0.18882773175947484
-0.1586725672071002 0.14677304463755245 0.19223366037123021
-0.16212431688952667 0.18460315900217647 0.18063256994001683
-0.1589155604426883 0.18515307145487422 0.17964718595259008
-0.16036192675280792 0.1829795880831396 0.18740669742338475
-0.17162961860347015 0.1442561789072668 0.18305892601721105
-0.16636201341796142 0.17929792838465328 0.18775228515379247
-0.15429322024035674 0.16294742064844722 0.19622586026899633
-0.16179421146559936 0.16607416110407466 0.19017974391691503
-0.16251229842353088 0.15102559762369747 0.18943641439192113
-0.181654747325661 0.15685904460322017 0.17423720017187413
-0.18051942785430175 0.17303252654444332 0.17525474086515722
-0.18437315126109344 0.13885838227640743 0.17080024734251317
-0.17399067779231292 0.18253761964213008 0.1773311580728751
-0.15723570783782226 0.16991210418116207 0.1939610625814658
-0.17467797895121795 0.14627576308619136 0.1808498884748679
-0.18497989674258453 0.15499902205835933 0.17006499424688634
-0.1567562927787326 0.18084419207941646 0.19193253770582494
-0.1810315360610507 0.1685554428614294 0.17515204206220922
-0.17917520900416595 0.15145069795023555 0.1767651821684104
-0.1735034247224353 0.18424880938898677 0.17319444671385106
-0.16427906950164062 0.17842072682749385 0.1883671666692954
-0.15763923128295165 0.18515271382700557 0.1804631139349204
-0.16263591845679504 0.1660946651018774 0.18949452892057714
-0.17789779205966216 0.16765171723734493 0.17828602448217687
-0.1702428867404483 0.12328774171244258 0.18410090461485204
-0.17393169899630767 0.165158812574259 0.18154216662161168
-0.1721177955453418 0.17679679828058834 0.18267700925581273
-0.15406725903201324 0.18528044658075923 0.18341491475813207
-0.1600584795062564 0.14172316031824703 0.19122574582807836
-0.17892400522876006 0.14352405505549068 0.17695850983373937
-0.17582586010146362 0.182589654497019 0.1755630756925803
-0.170536663133385 0.1654673858202612 0.18396190658323583
-0.16914237638163787 0.1836035295046484 0.17898244515173253
-0.1711402644698642 0.16446936564814205 0.1835298921179038
-0.17013011475253326 0.17728263574015254 0.18418274179212865
-0.18017434676337463 0.156133834890238 0.1758169616770011
-0.1561503072564624 0.14879709916483516 0.19422391906492528
-0.16030954917121154 0.1679535551584875 0.19144139543287572
-0.17939786215472442 0.18156528907190914 0.173863598258422
-0.17629831631827575 0.17381757932077999 0.17943630471937475
-0.16816545625376922 0.15682948069941158 0.18519417300932225
-0.17658270497966033 0.1466069860972082 0.17931959882490453
-0.17173686226058227 0.1529464169062292 0.18297434702627477
-0.16029636164355499 0.17117929892908687 0.19144658103697118
-0.16394202013659698 0.18227345185648555 0.18675146356336889
-0.1713209112470172 0.1332773609675085 0.18332342162840184
-0.1720371355597995 0.1615865273989355 0.18285406485311803
-0.17253188391375762 0.15987301307093257 0.18247715488188085
-0.1625331004445575 0.15142238574396724 0.18942133441679296
-0.16302610536265594 0.1854209943331396 0.17494810477011022
-0.15973794062781554 0.1493160172022497 0.1914506341528159
-0.16004496415305358 0.17777991729151363 0.19106380000822362
-0.15987364550280792 0.1459668918169653 0.19136039272062597
-0.16628568967032653 0.16093612151514644 0.1865727092336875
-0.18356263240027648 0.1450070186175024 0.17184270277731237
-0.16585969527411681 0.18523455100428218 0.17407215491049108
-0.16798400481391174 0.1850003047503149 0.1747607077669364
-0.17557404537844878 0.1579549356020605 0.1802325333666068
-0.1612857540433429 0.17130524354349727 0.19065419688932714
-0.1542773207013629 0.1789769573725378 0.1951018954824668
-0.16549385686564666 0.1665781183756506 0.18733243003599462
-0.1778906544034503 0.16022652821909542 0.1780999685835105
-0.16824924548316222 0.1668057485140478 0.1854750300955039
-0.1588527669494174 0.185532872251383 0.1779628779005271
-0.15618823071170074 0.18560350375544185 0.17671123996488866
-0.16529909868884307 0.1511458797968542 0.18731603875868139
-0.16370760996985656 0.16859358983408565 0.18874035135023412
-0.1601139714305423 0.18462861018549556 0.18136028304807958
-0.17601807017970306 0.1487960262812292 0.17986885562650975
-0.15504909654307586 0.18558747010599727 0.17399761930219945
-0.15687878032374603 0.18559736447702999 0.17461646452657995
-0.1792777885978244 0.14887655215632076 0.1766137565683585
-0.16539680560279113 0.1679051561869299 0.1874746467184287
-0.1544941325967334 0.156158511213175 0.1956724907469016
-0.16446455915618163 0.18081027703653926 0.1880280758451682
-0.1849189509933017 0.17417437272440547 0.17006359353773412
-0.15786492427039367 0.15717757182489986 0.19290176883451757
-0.17291718323874694 0.15206522183786983 0.18213705077879247
-0.15461234350848418 0.17276668982874507 0.19605527177564916
-0.17362019022155029 0.15822339492212886 0.18166942253820714
-0.1564445604865573 0.18285346465479488 0.190078117997573
-0.15592158933329803 0.17177802758585567 0.194980302007125
-0.17813622553992492 0.14441538291346187 0.17775280133001622
-0.17657002409148437 0.17615980344187374 0.17884946718923864
-0.1658684273545764 0.18114024835001583 0.18647465959303197
-0.16696434815573913 0.15421182351481075 0.18603346601240453
-0.18173740406680328 0.16538411813150997 0.1743303026270133
-0.16293911238360625 0.14612412886988277 0.18912801995985326
-0.16596039732146484 0.17286706405054683 0.18735132470838842
-0.17558326919722778 0.17811257081400508 0.17977387562506017
-0.1657827307765506 0.14220172601114864 0.18694356933347997
-0.1600897570436023 0.16164625125300044 0.1913215304922324
-0.1568369378631137 0.16758925156962032 0.19427875533811864
-0.16994508703398925 0.1845102949656164 0.17590642824880895
-0.15997583766627532 0.18260944323908443 0.18881980434171972
-0.16597425540137511 0.15486342149149532 0.1867959882330161
-0.17742375631976348 0.1348732157267248 0.17851466789953527
-0.176117535430672 0.1816515965975439 0.17717889800779638
-0.16345813472914916 0.184789840749613 0.17929113760702428
-0.17943371434855682 0.17431277470957393 0.17616868868582067
-0.15991586049247009 0.18102491336237544 0.19036082282774267
-0.1645384987180255 0.13647914367090816 0.18790177360288915
-0.17007928689170104 0.17806405263315792 0.18379930511228856
-0.15783857901740295 0.17246222930323238 0.19333175674192724
-0.18362487455058318 0.1358524604357397 0.17182064905874547
-0.16628861029792052 0.18423670964609737 0.17971993342153844
-0.17843402524638396 0.15863419013392085 0.17756424203626928
-0.1719087173526309 0.17076671557795162 0.18315873399488744
-0.15796273549247009 0.15183270411860103 0.1927405978750449
-0.1829539199655078 0.15153724389444942 0.17270792380087194
-0.18072837193656188 0.18275082545649166 0.1700687195371848
-0.158166896301987 0.1737567229784643 0.19300357356779393
-0.17146484156298858 0.17077851729761714 0.18347401276342687
-0.16720027824092132 0.14384621816050167 0.18585179105512914
-0.16995620330023986 0.1853001161135351 0.17028496518842992
-0.16707087655711395 0.14488828616510982 0.1859514500211936
-0.1615279277150653 0.1342425389803564 0.19015566364042577
-0.1832840700929187 0.14076501565348262 0.17221833124868688
-0.15588493247676116 0.18559182124506587 0.17422924295179662
-0.16277183194804412 0.17452860312830562 0.18956951156370458
-0.1589319815223239 0.1765294714487707 0.19239804998152074
-0.1824123670642398 0.1590548201121008 0.1734832908224326
-0.16309852500605804 0.18275905089747066 0.18570033565275487
-0.17922603686499816 0.16980320649515743 0.17698586836569127
-0.17275975247073394 0.140123252443186 0.18228653922788915
-0.16554312010455352 0.15413171487223262 0.1871280457090598
-0.1626267989461444 0.1756413622416174 0.18972871556989965
-0.1712485363070987 0.18191820817362422 0.18107555165998754
-0.15444945891547424 0.15511066155802364 0.19563893333189306
-0.1757394333665393 0.16056263881098384 0.1801230694364768
-0.15577096839595062 0.14278203683268184 0.19454047933332738
-0.1831007113044284 0.17403269248377437 0.1724953438352805
-0.18429168661284667 0.16537541585337276 0.17131374135725316
