ply
format ascii 1.0
element vertex 100
property float x
property float y
property float z
element face 0
property list uchar int vertex_indices
end_header
-0.1641698886935733 0.2876497550524389 0.008782872111724
-0.1642124911134265 0.28752756553064934 0.00961939349882422
-0.1638758738820575 0.2876036806620275 0.011269369275496583
-0.1617527117316745 0.29025805430781 0.009330877215788942
-0.16318156917739135 0.2881224794901525 0.01272986188642798
-0.16054609020400268 0.29161090093027703 0.008777924926207643
-0.16106684108424407 0.2905653162516271 0.012527653129027467
-0.16359082956958038 0.28731978373896233 0.01455328717939673
-0.16696835656810027 0.2838133020914709 0.013216027171538454
-0.1683890481774829 0.28249198632609 0.009188243300841432
-0.15984707673239928 0.29196107821833245 0.011960634143279176
-0.168462466198685 0.2823134704149877 0.00961900606863318
-0.15993678172278625 0.2917124076403295 0.013052591235564332
-0.16851520140815002 0.2819492264307653 0.011263766438887697
-0.1661103775088809 0.28437960582148186 0.01577461615316687
-0.16832954784083587 0.2819685979403173 0.012659289987013917
-0.15844651659178954 0.29383933978449456 0.01009888306371985
-0.16207885344672424 0.28861332373987786 0.01705388084165869
-0.16374484797167999 0.28663379388224236 0.01750973716490088
-0.16492801507163268 0.285367016366831 0.017564096600936035
-0.1616616507356189 0.2889935417689001 0.017653294951842407
-0.1579505761449359 0.29424721436869256 0.011042424590514284
-0.16132385631251556 0.2894091649569189 0.01756391778700171
-0.15821875234294158 0.29356950955759636 0.013127842099593263
-0.16978568931269866 0.280204240850321 0.010876127631590944
-0.1700285335366748 0.2800760312594091 0.009634860904143434
-0.17016017039466125 0.28013837771784417 0.008174904735015016
-0.15929445226836425 0.2919357462443029 0.016435721070693115
-0.15935693283725005 0.29170382457148186 0.017616310269759277
-0.16954686840224487 0.28001755910288445 0.014858015925810915
-0.1650880535428546 0.28491199450861565 0.019597002417967895
-0.16955659886050445 0.27998632626902215 0.015050658137724977
-0.16727800269770843 0.2825424714602148 0.018421032578871826
-0.15652809639621001 0.296400312951914 0.008442291171477418
-0.1560282518451236 0.29678839879404656 0.00974766269438086
-0.15667666097331268 0.29490870671640984 0.01557744398824988
-0.1597111930434726 0.2908679290331518 0.020524152667449096
-0.16732340653586608 0.28213972287546746 0.020267971904204467
-0.16191985805678588 0.28809988932978264 0.021785774381087402
-0.1579862048213504 0.2929776950396215 0.019197591693328003
-0.15558945735144836 0.2963993592775976 0.014450826795027833
-0.16260590751815063 0.2871973557985937 0.022571423203871826
-0.16648448606181365 0.2829028411425268 0.021715768725798706
-0.16242688496756774 0.287392322591654 0.022674002797530273
-0.16213117142367584 0.28774095015894524 0.022642263324187378
-0.1632126679008029 0.2864661260164892 0.022838034779952148
-0.1634248455350421 0.28622693257700554 0.02293796196691809
-0.15526875456023437 0.296505395940653 0.01578391447775183
-0.1544774283950351 0.2985321326769506 0.009463527352736574
-0.1601488103454135 0.2900385304011022 0.022753396184371093
-0.15437478919673187 0.29757732587229363 0.015360900313780885
-0.15386551221060973 0.2990849061525976 0.00998482957594214
-0.16515618165183288 0.28406691985499016 0.0239636684965354
-0.1586093862836383 0.29171598391901604 0.023660608680174926
-0.15877540012049896 0.2915135665453588 0.0237921859335166
-0.16781560679126006 0.2809068007982885 0.023884722144530395
-0.16396516163993102 0.2851918979204809 0.02569500461332617
-0.16046969195056182 0.2892952604807531 0.025531240851805786
-0.16814726193595153 0.2803885384119665 0.023977437169478515
-0.1544781436507724 0.29675281482111565 0.020199426562712768
-0.16662129362273437 0.282106940320841 0.02534032717459021
-0.16672919293093902 0.2819342656649267 0.025974252374098877
-0.15519179006266814 0.2955251975573217 0.022798785121367553
-0.15408178766417724 0.29711074071299187 0.02101937785856543
-0.15574878056693298 0.29474854903589837 0.024022200257704834
-0.1555690129582904 0.2949596686876928 0.023912527711318115
-0.15999520917582732 0.28956979947458855 0.027232506425307373
-0.15688044925379974 0.2933305545366918 0.025533833653853515
-0.15373032887625915 0.29742348628412835 0.021778621823714355
-0.1675425877158664 0.2807709618128454 0.02676326885931311
-0.16068768103766662 0.2886076612986242 0.028096058518813232
-0.16412745018649322 0.2848154945887243 0.02826509729139624
-0.16123880048442107 0.28793371158014885 0.02858371392004309
-0.15566722651171905 0.29462671714197747 0.025593587310240844
-0.16643364329982024 0.2819243116892492 0.028441825063155273
-0.16258649130511504 0.28640151458155266 0.02933529868833838
-0.1663581689183734 0.2819143577135717 0.029025741965697387
-0.15708140631365997 0.2925217195070898 0.029312827737258056
-0.15772854884314758 0.2916641874827062 0.030007132441924194
-0.16182520588088256 0.28704578118692986 0.03126890316717444
-0.15641386409449798 0.2798834486521398 0.06677828088514624
-0.15506052573371154 0.2833772345102941 0.06281549587957679
-0.15416822930026275 0.2799387021578466 0.07165873900167762
-0.16074871619391662 0.2872411056078588 0.036112108380721195
-0.1550947835032962 0.28751522736918084 0.05035028711073218
-0.15544583995986205 0.28857553439509026 0.04762102022878943
-0.15585249264884216 0.292307500413767 0.03809360519163428
-0.15585249264884216 0.292307500413767 0.03809360519163428
-0.16080417831588012 0.2801324768580114 0.053011992127822025
-0.16438988943743926 0.2839774532831823 0.03170598402731238
-0.15695549150157195 0.2915816946543371 0.03624300018064795
-0.15544583995986205 0.28857553439509026 0.04762102022878943
-0.15540617306876403 0.2929758472956335 0.03685671940557776
-0.16138104696917754 0.28319400983225457 0.04485941782705603
-0.16074871619391662 0.2872411056078588 0.036112108380721195
-0.15527163048434478 0.2939358993090307 0.03258556977026282
-0.16531799336123687 0.28013647036921135 0.041987248809264285
-0.16080402930426818 0.2861602349795019 0.040553459079192264
-0.1601728161160968 0.28831303553949944 0.03435716882459937
-0.15544583995986205 0.28857553439509026 0.04762102022878943
