ply
format ascii 1.0
element vertex 472
property float x
property float y
property float z
element face 0
property list uchar int vertex_indices
end_header
0.17572732667279023 -0.20537308914292698 0.17969671741239843
0.1777202377731778 -0.20617301327813511 0.17804677143804845
0.17488898734402436 -0.20394242865670567 0.18039078369848546
0.1758339593822934 -0.20252058965791112 0.17960841313116369
0.1769049952442624 -0.20205057723153477 0.17872176423780736
0.17669092516255158 -0.19992115659345036 0.17889890924207982
0.1750388334209897 -0.19722400171388035 0.1802667166303855
0.1761374662334897 -0.20021405381787663 0.17935714975111303
0.17247151235890168 -0.1984080330811823 0.1822837378095847
0.17203201751065034 -0.1980754838668192 0.182609000356124
0.17307992677044648 -0.20432756406892186 0.18183345452062902
0.17270239095043916 -0.20066301090348607 0.18211282149069127
0.17300971249890107 -0.19962305886376744 0.181885340363906
0.17587937812161225 -0.194502990075239 0.1795708324026328
0.17504163483929414 -0.19474562568295842 0.18026433244459447
0.17417289714169282 -0.1930362091742838 0.1809836114954215
0.17712037662815827 -0.190655316539892 0.178543397338317
0.174418051045654 -0.1907122836791361 0.1807806576799613
0.17621876696896333 -0.19098023635972386 0.1792898561071616
0.17182304362606782 -0.19062280220616704 0.18276376381628331
0.17073794106793183 -0.18909912867177373 0.18356681719534215
0.17097025017094392 -0.19245774609673863 0.18339488759748754
0.17143382529568452 -0.18985563082326298 0.18305183306448278
0.1709743926937558 -0.19378223580945378 0.183391847760604
0.17069276074719208 -0.1946764246903742 0.18360028520338353
0.17103802065205354 -0.1947933988057459 0.18334473028890905
0.1853317211086728 -0.20547702474225407 0.17014876857511815
0.18526603679013032 -0.20546526772607213 0.17022410884611425
0.18002908329319733 -0.206442128249296 0.17590067640058812
0.18013723592114228 -0.20652465087998753 0.17579994455091771
0.1783528814728238 -0.20256773693192845 0.17746136441938695
0.1791572163517453 -0.2062972740613306 0.17671240225546178
0.18409295777630585 -0.20106140834916478 0.1715580309938651
0.18228079776119965 -0.2039026276551569 0.17365620389692601
0.18466617564511079 -0.2017729536973322 0.17089433327429113
0.1825047026092984 -0.20328172607053166 0.17339695349447545
0.18309171895336884 -0.19925067884553319 0.17271635785810766
0.18197955588650483 -0.19904359740842228 0.17400465265028295
0.18533732394528168 -0.19845398826230412 0.17011336341612157
0.17800067762684602 -0.19493226272691136 0.177789219767974
0.1797252188141324 -0.1993281648837412 0.17618358984701452
0.17788960437130708 -0.198591883607992 0.17789272323362645
0.1815627704079129 -0.20218693775761967 0.17447275772802648
0.18100969890904206 -0.20564728541005498 0.17498771205656347
0.18156077365231293 -0.20513464076150303 0.17447460547201452
0.18282463054013032 -0.19693822724450474 0.17302329197637853
0.18401961426090974 -0.19413926763165837 0.17163658991567907
0.18425424794506806 -0.19394960565198308 0.17136431589834508
0.18257271150898713 -0.19216122789014226 0.1733156825613242
0.1843840072567441 -0.1884912656031931 0.17123118892423925
0.18426146010708588 -0.1883655892096842 0.17137358442060766
0.18302123646092194 -0.19190157515633946 0.17279557243101415
0.1798787603790738 -0.18864960534203892 0.17604059830419835
0.17823957304310578 -0.18843827707398778 0.17756680503599462
0.17815976242375153 -0.19113631112206822 0.17764113202802953
0.1797666440422513 -0.1942654059611643 0.17614502564184484
0.1800448785240628 -0.1934689835988367 0.175885983855651
0.17964078883480805 -0.19512988192666417 0.17626214876882848
0.17707927922558564 -0.18551152510274296 0.17857740178816137
0.17698578934025544 -0.18645739121068364 0.17865476861707982
0.17440127233814973 -0.18881932956803685 0.18079457536451635
0.17607696751904267 -0.18296838862527257 0.17940721765272435
0.1773538182194211 -0.1781167642556513 0.17835009947531041
0.17710934976887482 -0.18348285121549016 0.17855254665129003
0.17073698739361542 -0.17946286065209752 0.1835645522188407
0.17164756755184907 -0.18270717126954442 0.18289277806989965
0.17228462199520844 -0.1850592748605097 0.18242225900404271
0.17347331742596406 -0.18773717743981724 0.18154246464483556
0.17187019090008515 -0.18566309971440678 0.1827289249014121
0.17415588001560944 -0.17905760867226964 0.18099770799391088
0.174268383782623 -0.17642709178555852 0.18090457573644933
0.17529462675404328 -0.1792989180766428 0.18005488172285375
0.17551510433506745 -0.1729132489644373 0.1798724021028739
0.17765887479138154 -0.17268368167508488 0.17809755459539708
0.17764847378086823 -0.17186682982076054 0.17810613766424474
0.17142866949391145 -0.17485199434388524 0.18305460468046483
0.17091082434010285 -0.1750395701609934 0.18343741551153478
0.17354567746472138 -0.17624564034570103 0.18148873105757055
0.17106874684643525 -0.17799165410626774 0.1833191896986228
0.1735524425919034 -0.17961340708363896 0.1814837242674094
0.17214225630116242 -0.18084640366662388 0.18252591148130712
0.17403845886540192 -0.17293498975861912 0.18109492316953954
0.1742417405064084 -0.17377218169797307 0.18092662945501622
0.17509173254322785 -0.16817876262296086 0.18022290721647558
0.1775075684006192 -0.16401910347569829 0.17822281375639257
0.17770992616963166 -0.16945100886453038 0.17805529490225133
0.1747171769554593 -0.16677578849423771 0.18053300038091954
0.1708840916569211 -0.16596601469148045 0.18346468463651952
0.17131175498318452 -0.16441115302670842 0.18314994230978307
0.17205860118222016 -0.17102273864377385 0.1825904037069541
0.17139201263737458 -0.16880897743333226 0.18308416858427343
0.1739147196228482 -0.16050488812554722 0.18119735375158605
0.17599280576061982 -0.162205706664213 0.1794768954824668
0.1745287070686795 -0.1628281877719248 0.18068901553861913
0.17688312033962983 -0.1558926658116663 0.17873979464285192
0.17674769858670014 -0.15583484930623417 0.1788519705843192
0.17564545969319123 -0.15881251854527836 0.17976445809118566
0.17062403659176606 -0.16127137405503636 0.1836619164060813
0.17195491890263337 -0.16216516060460454 0.18267230048887548
0.1734461079056241 -0.16493661267388707 0.18156350508444127
0.18339880208325166 -0.18440933091271763 0.17237187281362829
0.18435241679501313 -0.1862702922307337 0.17127326980345067
0.18166084985089082 -0.18527474565137272 0.17437417164556798
0.1852857063229062 -0.17970741850961094 0.17019305482618627
0.1837256739551999 -0.1819754944526041 0.17199320450537023
0.18240343431782502 -0.18307916385758763 0.1735181595396262
0.17810668448757905 -0.18239630324471837 0.17769054427854833
0.17789628009152192 -0.17831505400765782 0.17788643494360265
0.17984353403401154 -0.18223061723340397 0.1760734106611472
0.17908521394085664 -0.1850156591616953 0.17677948728315648
0.18035523990940827 -0.1888010607444132 0.17559705034010228
0.17941899995159882 -0.18734356326688176 0.17646873846761998
0.18096681336712617 -0.18589479786980992 0.17502752795927343
0.1820203254635312 -0.17947394711602574 0.1739592637132865
0.18225543598484772 -0.17782023114789372 0.17368803277723607
0.18195434312176484 -0.17726890308488255 0.17403543844930944
0.18378360966992158 -0.17199198467362767 0.17188684001676854
0.18530203799557465 -0.1716971651994074 0.17012376442663488
0.18230428199124116 -0.1751732484780634 0.17362830892317113
0.18063728908848542 -0.1750332222663248 0.17533440247289953
0.1780903528149106 -0.1753490821801508 0.17770580306761083
0.17799045543026704 -0.17520850462544804 0.17779875651113805
0.179830808442352 -0.1780126200400675 0.17608533159010228
0.1806380341465451 -0.18034795982468968 0.17533368721716222
0.1805663893635251 -0.1770226911984766 0.17540038481466588
0.18391229609799165 -0.16924199027646428 0.1717360402654868
0.182876724999664 -0.1712396250449503 0.17294920340292272
0.1830978880341031 -0.17018271548379307 0.1726901020120841
0.18258063892674226 -0.1677385674201334 0.17329592362158117
0.18536593417477387 -0.16658830208409672 0.17003131762258825
0.18344651560139436 -0.16481054885018712 0.1722795750211936
0.18414278725933808 -0.1670836613856638 0.17146495834104833
0.17990459899258393 -0.1674856947146738 0.17601657763235387
0.1780079493935086 -0.16254607898820286 0.17778248444311437
0.17919610838246125 -0.16429583294022923 0.17667622223608312
0.18105288247418183 -0.17009670598138218 0.17494750872366246
0.17992277840924042 -0.17093213958371525 0.17599962011091527
0.18136956195187348 -0.1718277142726267 0.17465261474363622
0.1843905041630246 -0.16245817703832036 0.17117223993055639
0.1818027983124234 -0.16361613137353306 0.174206980616973
0.18390302757572907 -0.16276512605775242 0.17174390807859716
0.18448831538510102 -0.1557388858281458 0.17107550159208593
0.1851006339008786 -0.15607001943219548 0.17035774245970067
0.1852992365772702 -0.1613536135636652 0.17010743275396642
0.18497004012417573 -0.1542144672356928 0.1705168272566062
0.18014742831539887 -0.15983786744702702 0.17579046741239843
0.1780050883705594 -0.15824515683282261 0.17778513684980687
0.17956181268048066 -0.15722374183762913 0.1763357605051261
0.17961965898823518 -0.16128782493699437 0.17628187790624913
0.17833583454441804 -0.16176329118836766 0.1774772192548972
0.18023293117832917 -0.16362127227414494 0.17571092501394567
0.17493303517651337 -0.15482447607148533 0.18035430565588292
0.1746157000477292 -0.15551697773564702 0.18061695352308568
0.17501084904026765 -0.15412176711190587 0.18028990283720311
0.1750409791882016 -0.1504310028039301 0.18026489868871984
0.1771624575073697 -0.14970938427079564 0.1785085286211234
0.17579372624707001 -0.14896839422810917 0.17964173212759313
0.17338280777287263 -0.15084148509133702 0.18161056295149144
0.17111324171376008 -0.15484422011006718 0.1832985664915305
0.17201845745396394 -0.15503368837464696 0.18262533202879247
0.17062549690556306 -0.15513254267800694 0.18366132035963353
0.17628683547329682 -0.14613978130448704 0.17923349991552648
0.17588548759770173 -0.1468074129306162 0.1795657660078269
0.17405538658451813 -0.1451504634105051 0.1810809458803397
0.17500476936650056 -0.14353616101373082 0.18029496923200902
0.1763118098194577 -0.14432662291158085 0.17921278730146703
0.1757743845398404 -0.1414282874547327 0.1796577657770377
0.17486311892819184 -0.14164107603658085 0.18041221156828222
0.1725826452190854 -0.1420551346026743 0.1822055365156394
0.17176564435314912 -0.14521112603772526 0.1828129674505454
0.1737977455074765 -0.14219603998292332 0.18129421129934606
0.17558174232792634 -0.13864479524720555 0.17981723800413427
0.17535581092190522 -0.13626397711861973 0.18000427737943944
0.1751199255402066 -0.13504933876622563 0.1801996018003684
0.1739985833580472 -0.13504427237141972 0.1811279441427451
0.17504479388546723 -0.13417233092416173 0.18026179924719152
0.17059044937443513 -0.13519000572789555 0.1836868311475974
0.17270554999661225 -0.1360175119124735 0.18211416259519872
0.172713447612045 -0.135915543266424 0.18210823193304357
0.1708036551887967 -0.13790948254693394 0.18352834239713964
0.17616658310246247 -0.13022939426530247 0.17933306947462377
0.17495583395313996 -0.1324742989026392 0.18033538118116674
0.1759378502781369 -0.13155214054215794 0.1795224036287528
0.17535309891056794 -0.12851003868211155 0.18000648275129613
0.17632337312054414 -0.12433056099046116 0.17920328036062536
0.17624228100132722 -0.1284891025506342 0.17927039519064245
0.1741790066177823 -0.12744451624978428 0.18097860470526037
0.17117320398640412 -0.12743870479691868 0.18325335636846837
0.17163481215786713 -0.12616259915459996 0.18291003361456212
0.1713062117512204 -0.12670030755627995 0.18315441265814122
0.17217444280934113 -0.12962609095204716 0.18250904336683568
0.17302088836979646 -0.13120835585225468 0.18187967792265233
0.17134891847920197 -0.1300631867133463 0.18312282219641027
0.18219705323529023 -0.15290975136388188 0.17374879971258458
0.18469985226940888 -0.1533762024127329 0.17083177819959935
0.18409924606632966 -0.15304591817487126 0.17153177514784154
0.18467660645794648 -0.15088507098782902 0.17086223617307958
0.18388013939213532 -0.1485694454394663 0.17179302230589208
0.18522061805081147 -0.14887713951695805 0.17023152962438878
0.1846894214565732 -0.14827036423314457 0.1708510304998618
0.17852928141903657 -0.14897432489026433 0.1772970642160636
0.17840515474629182 -0.1485551105223978 0.17741266742460546
0.17960657576870698 -0.15154185456860905 0.1762940670561057
0.18154110411953706 -0.15754784209359532 0.17449287429563817
0.17863779167485017 -0.15330801469910985 0.17719612375013646
0.18104817370724458 -0.15237195355523472 0.1749518002580863
0.1844995210583188 -0.14589051468003636 0.17107407108061132
0.18245198230099458 -0.1486421035014475 0.17345420375578222
0.18250368933033723 -0.1484163360081995 0.17339406266920385
0.18475301961254853 -0.1390111253939951 0.17078174010031041
0.18191586832356232 -0.14320101899732 0.1740774299215537
0.18215848903012055 -0.1435369060717905 0.17379535094015416
0.1812726447994687 -0.14329340619672185 0.17474282637350377
0.1778578350956418 -0.14360734386075383 0.17792228713743505
0.17842413882565278 -0.14460153443444615 0.17739508405439672
0.18004824618649262 -0.14606886667836552 0.1758827950071555
0.17979534367871064 -0.14488102061379796 0.17611832276098546
0.180266279977081 -0.14655583662618046 0.17567990079634008
0.18157203893017548 -0.15063334567178135 0.17446414485685643
0.18201272587132233 -0.14219831986058598 0.1739650751661521
0.1829097161705472 -0.13717463178265935 0.1729230965685111
0.183508444827316 -0.13830469114411717 0.17222759977094945
0.18398450712513703 -0.13323996526826268 0.17167592898123082
0.18299310306858796 -0.1361037449323023 0.17282632842771825
0.1839015374596097 -0.1361785785638178 0.17177135601751622
0.17957292894673127 -0.13387819690335637 0.17632538929693517
0.17813407282185334 -0.13542221052277928 0.17766503349058446
0.18020238379788178 -0.13345470590222722 0.17573932662718114
0.18062682847332734 -0.1365442828618372 0.17534408822767553
0.1783701072151639 -0.1382004575215662 0.17744533076994237
0.17957856158566254 -0.13988218767274266 0.17632011428587255
0.1821915398056485 -0.12927034062970524 0.17375788942091283
0.18419780234646577 -0.13023186785806065 0.17142883792631444
0.18179493049931306 -0.132422472664007 0.17421821609251317
0.185004730027435 -0.1296630458318079 0.17049218073599157
0.18415858249020356 -0.12664685709107762 0.17147220030538854
0.18311237196278352 -0.1260721640073145 0.17268676415197667
0.18351139525723237 -0.12622503502000218 0.1722235764574271
0.18109031419110078 -0.12653635007966405 0.17491261020414647
0.1786834786350705 -0.12402599615682011 0.17715350642912206
0.17952354649853486 -0.12703470451463109 0.176371344478057
0.17880131701779145 -0.1304220960818613 0.17704377427809057
0.18130009273838776 -0.1323977516375864 0.17471725598089513
0.18101863960575837 -0.13381506068337803 0.17497930780165014
0.17594601611447114 -0.12100566489327794 0.1795156385015708
0.1742705593521573 -0.12087362570393925 0.18090281739942846
0.1764009485657193 -0.12352904243100529 0.1791389669489127
0.17749445537876862 -0.12038677496541386 0.1782336618017417
0.17618559698414582 -0.11685901445973759 0.1793172742437583
0.17492284278225678 -0.11974687440026646 0.18036273971311864
0.17066713074993867 -0.11605229539502507 0.18362865701429662
0.1729912350590207 -0.12425049705136662 0.1819015528272849
0.17290850381207246 -0.12065240306485539 0.1819630648206931
0.1717766116077878 -0.1234304414473856 0.18280444398634252
0.174991119902847 -0.11535402698148137 0.18030623450987157
0.17521091203045625 -0.11439963740933781 0.1801242615293723
0.17431022624325532 -0.11410280627835637 0.18086991563551244
0.17633770803761262 -0.1111844138585413 0.17919135943167028
0.17401715020489472 -0.11144071383107548 0.18111253634207067
0.17718951801609772 -0.11317154330838566 0.17848614707701024
0.1767335126812436 -0.10995828671086674 0.17886374250166234
0.17206849555325288 -0.11092555088628178 0.18258778110258397
0.1722171793396451 -0.11525854034055119 0.18247670784704503
0.1719204376156308 -0.11370250148404484 0.1826972152303916
0.17108340958905 -0.11426657003987675 0.18331927910558996
0.1764983127529599 -0.10596817297566777 0.17905847087614354
0.17545847992253083 -0.10885583920110112 0.17991928115598974
0.1759366581852414 -0.10515978498090153 0.1795233871053916
0.17606474856686372 -0.10134625000584965 0.17941738024465856
0.1767967532093503 -0.10234766764272099 0.1788113202165824
0.1769328604156949 -0.1034588770352686 0.1786986972402793
0.17102854351353425 -0.10376503629315739 0.18336273089163121
0.17365615467381257 -0.11005317730534916 0.18140731111280736
0.17364921073269624 -0.10505082769025212 0.1814125563215476
0.171345461409805 -0.10694971246350651 0.18312657728903112
0.17291368941616791 -0.10797169370282536 0.18195975676290807
0.1760221908504941 -0.09984781903851872 0.17945260658972081
0.17700581650089997 -0.09883188767064457 0.17863825813047704
0.17400108675312775 -0.09948494596112614 0.18112591758482274
0.17618377904248017 -0.09245013756383305 0.1791774715494376
0.1769335458691098 -0.09376555246938115 0.17858464375250158
0.1758853385860898 -0.09443646235097294 0.1794935549806815
0.17060180405926484 -0.09333189887631779 0.18368230119459447
0.1731624792034604 -0.10162207049954777 0.18177498236410436
0.1725717077667691 -0.10080667895902043 0.18221489444486913
0.18369655708622712 -0.12399506134618168 0.17200655594579992
0.1833005736286618 -0.12373631758321171 0.1724670316290122
0.18323125342678803 -0.1242372201167429 0.1725476767133933
0.18311761717152375 -0.12177429658997899 0.17267982021086034
0.18419500092816132 -0.11723258657086735 0.17142615571729955
0.18459286193203706 -0.11512690348256474 0.17096305742971715
0.1850468705112912 -0.11905423862565404 0.17043585434667882
0.17934938172650117 -0.11774453086484318 0.17653349891416845
0.17911820511173981 -0.11797189278233891 0.17674876108877477
0.17834695081066865 -0.11605909032452946 0.1774668480467063
0.1800315568859555 -0.12394968731034642 0.17589841142408666
0.1814709792549588 -0.12026373607743626 0.174558200986312
0.17989115814518708 -0.12320863766301518 0.1760290946077567
0.18195777038883942 -0.11875290734399205 0.17402837529890355
0.18417795399975556 -0.11389717025388127 0.17144555702917394
0.1819156597073056 -0.11525603694547062 0.1740774001192313
0.18412705163311738 -0.1088168875657404 0.17151329770796117
0.18520857791256684 -0.10851808948148137 0.17025721922628698
0.1833882520611264 -0.10960325164426213 0.17237020388357457
0.1840632746632077 -0.10777908129323369 0.17158947244398412
0.17814885477375764 -0.10714730186093693 0.17765132442228612
0.1788963566238858 -0.11105468434918767 0.1769552911829215
0.1784776041920163 -0.109717394539007 0.1773452247690421
0.18092908362698334 -0.11387052697766667 0.17506278410665807
0.17900301913571137 -0.11549967093099003 0.1768559898447257
0.1805535147602536 -0.11289706391919499 0.17541239515058812
0.18221871952366608 -0.10931837124455815 0.17372737184278783
0.1819505284244992 -0.10530021352399235 0.17403823986761388
0.18290447096180695 -0.10662284059155827 0.17293257370703038
0.18452729682278413 -0.10400065345395451 0.1710525836061698
0.18528123597454804 -0.1026906029664362 0.1701799120020133
0.18243138889622468 -0.10338031811345463 0.17348123446218786
0.18372871379208344 -0.10027759832967167 0.17198015108816442
0.17778529624295014 -0.09987967772115117 0.17798978939764318
0.17876892189335603 -0.10261550111401921 0.1770739938329917
0.17848347524952668 -0.1000162021600092 0.17733974114172277
0.18151124219250458 -0.10714384479153996 0.17452073946707067
0.18157120446514863 -0.10851406616795903 0.17446486011259374
0.18131907681774873 -0.10992005033124333 0.17469955340139684
0.1815441439564206 -0.09661826057065373 0.174259790332244
0.18332516054463166 -0.09938394589055424 0.17239344969503698
0.18186389307331818 -0.09709462089169865 0.17392394796125707
0.1819302032406308 -0.09534877104390507 0.17376393929235753
0.18333848218273896 -0.09367635411847478 0.17195204749815282
0.1849761794025876 -0.09349578184712773 0.17004004970304784
0.17905222276997346 -0.0949035243474329 0.1766474331926566
0.17961945037197846 -0.09307616514790898 0.1760290946077567
0.17954440812420625 -0.09460269970525151 0.1761548306059104
0.18036516408276337 -0.09785192770589238 0.17546121135465917
0.18131398062062043 -0.10119697017300969 0.17464510455839452
0.1809393952305295 -0.09955367011655217 0.174956389815734
0.18099488715481538 -0.10002725882161503 0.17491806402914342
0.1742315779144742 -0.09422534269917851 0.18090091005079564
0.17431472639393586 -0.09018426699269658 0.18082673207037267
0.17406557897877473 -0.08860861820805913 0.18104908719770726
0.17636774877857941 -0.08690002126325017 0.17892927780859288
0.17465259532284516 -0.08726617259610539 0.18050245300047216
0.17750244240116853 -0.08754819197286015 0.17791546240560827
0.17292793492626923 -0.08675443691838627 0.1819497729849082
0.17259054283451813 -0.08622648877728825 0.1822011555742484
0.17108764151882905 -0.08644529742825871 0.1833206202100974
0.17335607508969086 -0.09088402552235966 0.18163088813535985
0.17221938471150178 -0.08994838161099797 0.18247760191671666
0.17193393806767243 -0.08914961976636296 0.18269021168463048
0.17378138403248566 -0.08085974616635686 0.1812979663919669
0.1762125084812619 -0.08238520784009343 0.17897460714094457
0.17586659292530793 -0.08300801677335148 0.1793051446985465
0.1758676062042691 -0.07947259707082158 0.17930869117491063
0.17646737794232148 -0.07807877225507145 0.17874143377058324
0.17642198900532502 -0.07872199577916508 0.17878256097547826
0.17240937451672333 -0.078835065790304 0.1823361004900199
0.1721282790119626 -0.07775497002232915 0.18254546180479345
0.17149062852215546 -0.07720338863957768 0.18302048102133092
0.17342920998883027 -0.081795270868429 0.18157643929235753
0.17320262293171662 -0.08318402928937321 0.18174520984403905
0.17336024741482514 -0.086045439668783 0.18162781849615392
0.17531933287930268 -0.0767862753354395 0.1798394109319907
0.1743134150917508 -0.07201137704480534 0.18079377070181188
0.17630897859883088 -0.07383515996564274 0.17890054836981115
0.17502348522496003 -0.07627987427342778 0.18012011900656041
0.17734887103390473 -0.07255610389340764 0.17791450873129186
0.17747168640446442 -0.06924971503842717 0.17779941216223058
0.17723597983670014 -0.06899565024007207 0.178023138196395
0.17274122337651032 -0.07047968668568974 0.18208892002813634
0.17091595033955354 -0.07355266375172978 0.18344847217314061
0.17177306513142365 -0.07565992636311894 0.1828100468229514
0.17213152746510285 -0.07613119048703557 0.18254304781668004
0.17387132744145173 -0.06540184778798466 0.18121338740103063
0.17408763269734162 -0.0669491843663538 0.1810083176206809
0.1761083791668393 -0.06517314476598149 0.1790929521631461
0.17574127415966767 -0.0638991252862299 0.1794410432886344
0.17480741838764924 -0.0634435371838892 0.18032620206587133
0.17693566183399934 -0.06476324362386113 0.17830903187506017
0.17334358791661042 -0.06365575952161198 0.18164015665762243
0.17139442662548798 -0.06436943573583012 0.18309209600202855
0.17249431113552827 -0.06735676092732792 0.1822728301595908
0.1735325346405484 -0.07005387110341435 0.1814995194982749
0.17219110230755585 -0.06512584848035222 0.18249867215864476
0.18372290233921784 -0.08994337482083684 0.17122847691290197
0.18280856708836335 -0.09209528131116276 0.17247364774458226
0.18403868774723786 -0.09002789420712834 0.17082450643293676
0.18442817429852265 -0.08698892159093266 0.17012141004316625
0.1778500566894986 -0.0881991044961298 0.17760426655523595
0.17762549619030732 -0.08672573728192692 0.17777595773451146
0.17813577155422944 -0.08862429422963505 0.1773409034322959
0.1812552104408719 -0.09377693695653325 0.17445821419470128
0.1798843036110379 -0.0888206021272028 0.17565260186903295
0.1797540376598813 -0.08945941490758305 0.17579648748152074
0.1798186788971402 -0.09239801330197697 0.17581436887495336
0.18235077361416596 -0.08084702057469731 0.1724064733099204
0.18130563597035187 -0.0845883445226038 0.17405665770284948
0.182803083461044 -0.08084305686581975 0.17181075468771276
0.1839770863468625 -0.07872047586072331 0.1702382649492484
0.18407209615063447 -0.07927551431287175 0.17013011232130346
0.17900579075169343 -0.0777245716534937 0.1761659766744834
0.17973916630100983 -0.07962300939191228 0.17538077488653478
0.18046231965374726 -0.07897316975224858 0.17461667314283666
0.18063013653111237 -0.08190762562383061 0.17457426443807897
0.18046527008366364 -0.08564126057256108 0.17497921839468297
0.18070309261631745 -0.0846990303479517 0.17467767849676427
0.18330528239559907 -0.07460695070851689 0.17103741422407445
0.1816591809208371 -0.07583039564717656 0.17322696104757604
0.18264983991932648 -0.07538616222966557 0.1719070459913474
0.18338044385266083 -0.07053690714467412 0.17095748439543065
0.18368314604115266 -0.07271268529523259 0.1705443944048148
0.18350740174603242 -0.06962742967236882 0.17079088941328344
0.17833649019551057 -0.07219597262967473 0.1768966700147849
0.17776005367588776 -0.07264390153516179 0.17750407114736852
0.17863785127949494 -0.06971996588338261 0.1765803779672843
0.18008636335682648 -0.07256894869435673 0.1750496412824851
0.17906557421040314 -0.07460408968556767 0.1761177565168601
0.1791204104835965 -0.07550775570500737 0.17605466500036535
0.18156828383755463 -0.0650851981126154 0.17338914528600988
0.1818815658504941 -0.06483342809308415 0.17297146573774633
0.18362264732670563 -0.0653555051766718 0.17064724221937475
0.18212797145199555 -0.06715032024014836 0.17263967648260412
0.18406047324490327 -0.06174101991284734 0.1700646068166953
0.1837154815609433 -0.062059696146138967 0.1705250228952628
0.1781227777416684 -0.06344928903211003 0.1771265055250388
0.180106926959274 -0.06271761221516972 0.17503685608618078
0.17910965184521455 -0.0608343140565241 0.17608741775266942
0.18104790548634309 -0.07088234586346989 0.17403877630941686
0.18044276933026093 -0.0647695915185297 0.1746822084497672
0.18009539346050996 -0.06459444326985722 0.17504850879423436
0.1742056200916745 -0.06183710260022527 0.18089661851637182
0.17374270061802644 -0.06157785219777471 0.18133524909727392
0.1755753050262906 -0.058619375654348195 0.17959872737638768
0.17689718703579682 -0.05427753491032964 0.17834565892927465
0.17656062940907258 -0.05621039433110601 0.17866487160436925
0.177392322819946 -0.05150961441625005 0.1778761531423789
0.17304943899464387 -0.05501380128491765 0.18185932293646154
0.17080860237431306 -0.05724238915074712 0.18352849140875158
0.172652412455795 -0.061603124567159474 0.18215508118383703
0.17241759995770234 -0.05987104339230901 0.18232996121160802
0.1744977424557187 -0.05367379946339971 0.1806195463251334
0.17393400172543305 -0.05296137494672185 0.18115396157018956
0.1747811327393033 -0.05021136564839727 0.1803509677957755
0.17571713427853364 -0.046383763977178395 0.1794637824606162
0.17612596253704804 -0.046793069072851 0.17907635226957616
0.17070569495510834 -0.046415950485357106 0.18360511317961034
0.17342494825672883 -0.05142426056493169 0.18157962814085302
0.17134826282810944 -0.05167242450345403 0.18312651768438634
0.1724220405037381 -0.051114107795842946 0.18232671275846776
0.17439736823391694 -0.04610842032063848 0.18071470514051732
0.18224032620739716 -0.06100713772405034 0.17249477759115514
0.18227793673825043 -0.058343942590841115 0.17244515672437963
0.18202244142842072 -0.061155314870961965 0.17278555885069188
0.18270053366970795 -0.056969221063741506 0.1718813861917716
0.1839712450916745 -0.05138390822041875 0.17018649831526098
0.18287299970936555 -0.05365412993062383 0.17165172949545202
0.1793885419781186 -0.05438708824742681 0.17579398408644017
0.17964171270680207 -0.053640599676259816 0.1755272831033927
0.1784998963291623 -0.05686264795888311 0.17673007503263768
0.1785820017273404 -0.05785235328305608 0.17664361849539098
0.18092306355786103 -0.056969489284642995 0.17417804256193456
0.18052484492611665 -0.06115972561467534 0.17459691420309362
0.18153377274822968 -0.05322119159329778 0.1734392131876212
0.18193059067082185 -0.048429335781225026 0.17291040077917394
0.18152444462132233 -0.052180434890874684 0.17345187917463598
0.18371971349072236 -0.04513534469235784 0.17052248969785985
0.18387143711399812 -0.0472195999108637 0.17032001271955785
0.1836423466618039 -0.0453110293828333 0.17062575474493322
0.1794323513920285 -0.04746827048886663 0.17574820771925267
0.17823900679898041 -0.04729672832120305 0.17700428620092687
0.18114819030117768 -0.0508155779324854 0.17394165054075536
0.17953791121792573 -0.050890262552388967 0.17563680663816747
0.18094815711331147 -0.0539700345479334 0.17415190592520055
