ply
format ascii 1.0
element vertex 329
property float x
property float y
property float z
element face 0
property list uchar int vertex_indices
end_header
0.17149301270794648 0.0890871925867712 0.18301872268431005
0.1777708421165921 0.05741939382921809 0.17749700799696264
0.18388717274021882 -0.008682365842946828 0.17030457511656102
0.17742653588604707 0.07384369211565608 0.17784351959936437
0.1762605200226285 0.04563963847529048 0.17894873872511205
0.17301626900982636 0.10756651001345272 0.18188402906172094
0.17890356878590363 -0.013207848497518361 0.17630443826429662
0.17525701622319 0.061263237766138255 0.17989985004179296
0.17415659527134675 0.028528992704263866 0.1809429313253623
0.17324348191571015 0.09303093390833492 0.18171475187055883
0.17348499993634003 0.0601410015143072 0.1815348650526267
0.17852904300045747 0.07879081802736873 0.17669875279180822
0.17138789991688508 0.07870114283930416 0.18309701338522252
0.17342146138500947 0.09970671372782344 0.18158222094290075
0.18282573322605866 0.11590740518938655 0.17171899333708104
0.18205137948345917 0.06901252704035396 0.17275051131956395
0.17268781761479157 0.051262532047144115 0.18212867632620153
0.17221175531697053 0.11527163224588985 0.1824833239626151
0.1826522539074399 0.0027280493296300765 0.17195005074255285
0.17978440622639436 0.09632811384569759 0.17537696018926915
0.17888866762470979 -0.04289006752599126 0.17632035270445165
0.17974977592777985 0.061575268081537425 0.17541346803419408
0.17246376375508088 -0.012623693176397145 0.182295599133895
0.18065895537686127 0.10863250928293819 0.17445618763677892
0.18367444376301545 0.10481265621554012 0.17058838263265905
0.1766565034801938 0.10475084619890804 0.17857340827696142
0.17618261675190705 0.09578100281130428 0.17902258887998876
0.17671619753193635 0.056519184879175365 0.1785167838644248
0.17855467299771088 0.10633367734324092 0.17667178169004735
0.1719540844376065 0.09360883074175472 0.18267519131414708
0.17672004203152436 0.0327890260733282 0.1785131181787711
0.17218651274990815 0.04201263623606318 0.18250206962339696
0.17895166973423737 0.09478056865107173 0.1762538339208823
0.18245102862667817 0.023620311788431346 0.17221821203939733
0.18356804947209138 0.031854782871118724 0.17073009267561254
0.18080898026776093 0.0872050269163763 0.1742983247350913
0.1761916766579129 0.08296424584757442 0.17901397600881871
0.182754654687164 0.07086280422579402 0.17181361571066198
0.18397383789372224 0.06281707125078792 0.17018962755911168
0.18316047291111726 0.08095166521441097 0.17127306118719396
0.1812600086147763 0.10556152897249813 0.1738047088693839
0.18021868566822785 0.07787621455561275 0.1749197925638419
0.18029602269482392 -0.009922410675176442 0.1748384322237235
0.1839140842373349 0.02842316465746516 0.17026908055059728
0.1760648081715085 0.08622488813768978 0.17913425818197545
0.1836230049545743 -0.02585055989850408 0.17065037146322545
0.17293881277394074 0.0996690435923254 0.18194169655554113
0.17091446022343415 0.08562475877176876 0.18344966426603612
0.17235599855732697 0.11599857049357051 0.18237585678808507
0.17798580626797456 0.03609744148623103 0.1772706593584281
0.17955826620411652 0.025289182237497508 0.17561514034979162
0.17589809398007172 0.06917632060419673 0.179292270095275
0.18044703106236237 0.07241240578066463 0.17467940703146276
0.18348388771366853 0.0747746868647253 0.17084223881475744
0.17123787502598542 0.011070136598459422 0.1832087124895316
0.17797573308300751 0.030790154508463084 0.1772812987875205
0.1813903341705777 0.029412720970026195 0.1736310209345084
0.17091884116482514 0.057012621930948436 0.18344641581289586
0.1802655349190213 0.07536939220797176 0.17487043991796788
0.1735424588139035 0.06082937555681819 0.18149203911535558
0.18293275336575288 0.06438243823420162 0.1715764488291007
0.1709576735908963 0.07128480511080379 0.18341741815321264
0.18157743315052766 0.020796243718973338 0.17338190332166967
0.17104335526776093 0.08294773536097164 0.18335364118330297
0.17310826877903718 0.005334143213144481 0.18181548372022924
0.18019979099583405 0.04863617258440608 0.17493973031751928
0.17626415590595979 0.09640330510508174 0.17894528165571508
0.1790927837307431 0.08667353229891414 0.17610520973913488
0.1737282464916684 0.04744643407236689 0.18134895816557225
0.17871089677166718 0.028433804086557567 0.17650730267278966
0.17593683699917573 0.10169765787493343 0.1792554940294486
0.17123665313076752 0.08340877728830928 0.18320963636152562
0.17286520103764313 0.08748674826990718 0.18199656263105687
0.1784923861439206 0.023513291648737132 0.1767373169969779
0.1709058473522641 0.06731170850168819 0.18345607176534948
0.1779265890533902 0.0771550579584753 0.1773330952238303
0.1787062774116971 0.02574974732767695 0.17651213064901647
0.18378673891377229 0.042986039689890086 0.17043874517195043
0.18085976342510957 0.08998331861864681 0.17424485936872777
0.17586408953022736 0.02492514686953181 0.17932445660345372
0.1740622411186673 0.11622479992281551 0.18103236809484777
0.1764498839790799 0.0826695306814825 0.17876920953504857
0.173614908259628 0.010186736158243358 0.18143812671415624
0.17351131538700837 0.0695290608919775 0.1815152253221732
0.17402805785488862 0.07332677083384151 0.1810647334169608
0.1717959533150174 0.06618968086611385 0.18279299989454564
0.1808628330643155 0.0072574658907567854 0.1742416109155875
0.17707468966793793 -0.010206098981984914 0.1781769479822379
0.18193413714718598 0.0497042282141363 0.17290667548887548
0.18292610744786042 0.01660055356394404 0.17158527031652746
0.17767315010380524 0.06053218679796809 0.17759982600920018
0.1833839009220578 0.10318005519281978 0.17097533598654088
0.1802999267990567 -0.003412182756551564 0.17483425989858922
0.17748712400746125 0.1149670525110876 0.17778609052412328
0.18283258776020783 0.0981651886023199 0.17170984402410802
0.17825653056454438 0.0754511697806036 0.17698565974943456
0.17522125343632478 0.009988491109720408 0.17993376508467016
0.17340051035237092 0.02026695447336787 0.18159777775518712
0.1791054199154355 0.011947785190454661 0.1760918582987052
0.1809962580616452 0.06414807277094478 0.1741011525701743
0.17584984402012604 0.11235452132593746 0.17933795705549535
0.1726799796040036 0.11100843983065242 0.18213451758138952
0.17517914275479096 0.05929702954661006 0.17997370019666967
0.17530055741619843 -0.009827162452825368 0.17985866323225316
0.17852767209362763 0.0602952881373083 0.17670015350096044
0.18151958684277314 0.07877430754076595 0.17345900192968663
0.18382464746784943 0.04808059769045466 0.17038831964247045
0.17484559516262788 0.09176949100863094 0.18028990283720311
0.1800528953487851 0.11718026237856502 0.17509431496374425
0.18300913671803254 0.011172179750314891 0.1714747037004691
0.18054323295902985 0.103677962592951 0.1745780493330222
0.18271078566860932 0.107111458352915 0.17187211766950902
0.18133481244396943 0.038281445077768504 0.1737051393102866
0.1764866898472287 0.020250473789087474 0.17873437062017736
0.17100547651600617 0.006597493461481273 0.18338183418028173
0.17780425051998872 -0.0014821247540796403 0.17746184125654516
0.17953880528759736 0.08541432457338924 0.17563561454527196
0.17642648915600556 0.041278366617075145 0.1787914122652274
0.1833766589577176 0.0005917890585576888 0.17098454490415868
0.17221047381710786 0.09687591033350582 0.1824842776369315
0.1793417821342923 0.06275859909426326 0.17584300890676793
0.17355867127728242 0.06134602861773127 0.18148005858175573
0.17466722826313752 -0.014875169225820363 0.18045894160978612
0.1825776288921811 0.05888539986979121 0.1720494712900382
0.17469819287609833 0.11110556559931392 0.18042955651991185
0.1775354335720517 0.09160528021227474 0.17774022474996862
0.1772556791717984 0.06597292857538814 0.17800540581457433
0.17440875272106904 0.06855240898501033 0.18070394650213537
0.17803617219280976 0.046982322505823314 0.177217611224578
0.18382122020077485 0.09720749097239131 0.17039287939779577
0.1741814206058957 -0.03228330177892095 0.1809194172929984
0.18366478781056184 0.09198663072954769 0.17060125723593053
0.17671908835720795 0.07263607221018428 0.17851404205076513
0.17759095529865998 0.029704277089945018 0.17768637195341405
0.17274131278347749 0.10463011699091548 0.18208886042349157
0.18403612474751252 0.11469394402872676 0.17010656848661718
0.18221427897763032 0.10388768153559322 0.17253349080793676
0.1767052004749753 -0.01954581899274236 0.1785271848749381
0.1747026334221341 0.05410367684733027 0.1804253543924552
0.17872573832821625 0.07200211720835323 0.17649165645353612
0.18283738593411225 0.013560359052530467 0.17170349612943944
0.1775511990005948 0.08632722931276912 0.17772535339109716
0.1739818344528653 0.018346761039606273 0.1811085726331931
0.1760223994667508 0.07754382925402278 0.17917440191023168
0.18250580529522675 0.07884982662569637 0.17214522615186986
0.17576383451771516 0.06654712992083187 0.17941958561651525
0.1721410940105893 0.050142679981104075 0.18253592506162938
0.17809026340794343 0.11151653962504024 0.17716071859113988
0.18098663191151398 0.10466194587122554 0.1741113151621085
0.1824998746330716 0.04338387089144343 0.17215309396498021
0.17211695412945527 0.09852046208750362 0.18255389586202916
0.1721684823448636 0.09482944445978755 0.1825155104707938
0.1708845386917569 0.11253262000452632 0.18347195640318212
0.1779084394390561 0.06342730360399837 0.17735216871015844
0.18188231090855378 0.0479984028853094 0.17297581687681493
0.18056916097950715 0.05809623437296504 0.17455078020803746
0.1735364387447812 0.04364538627039546 0.1814965690683585
0.17868681649517792 0.03290307956110591 0.17653260484449682
0.18094604114842194 0.08507967429529781 0.17415405169241246
0.17819388608288544 0.02026889162432307 0.17705155268423375
0.18365775446247834 0.04991308288942927 0.17061064496748266
0.18165685633969086 0.06236771183382624 0.17327607527487096
0.17138596276592988 0.043906901649347484 0.18309844389669713
0.17753442029309052 0.11049828367601985 0.1777412082266074
0.177811343472717 0.08584270315538997 0.17745433107130346
0.18088893989872712 0.0669144733465826 0.17421410337202367
0.1827696750576474 0.02707404332529658 0.1717936779569846
0.1781615505630948 0.04553416805636042 0.17708564654104528
0.17506145338368195 0.0996067865408575 0.1800852800916892
0.17518990139317292 0.09039876299273128 0.17996350780241308
0.17992295722317475 0.05407306986223811 0.17523110762350377
0.17872821192097443 0.08260548549067134 0.17648909345381078
0.17291333178829926 0.0003707750357305403 0.1819606806349021
0.173614908259628 0.09881714420687313 0.18143809691183385
0.17108838657688874 0.05456582146059626 0.1833201135706168
0.1713653097565152 0.020559255651346385 0.1831137920927268
0.17687987188648957 0.11697560983072872 0.17836166277639684
0.18122260670017976 0.04758537249933833 0.17385453835241613
0.1749504099304654 0.038262282184473216 0.18019054189436254
0.1726303587372281 0.0344132228411352 0.18217150226347265
0.17963780860256928 0.09531894760500545 0.17553133621923742
0.18246867160153168 0.00024852590929621415 0.1721943105768424
0.17680080632519501 0.058948282770029246 0.1784366156172019
0.18339305023503083 0.10172009902369136 0.17096326604597387
0.1772283206398465 0.05594999032389277 0.178031363637374
0.18091695408177155 0.09141883688341731 0.17418462887518224
0.17264290551495332 -0.011466916032918752 0.18216208472959813
0.1839901695663907 0.06935060458551998 0.1701677824568015
0.17706148723912019 0.09354654388796443 0.1781895543646079
0.1818171034271695 0.08251613812815303 0.1730625714372855
0.17938091258358735 0.11188048558603877 0.17580185189955053
0.17747243146252412 0.09104034738909358 0.17780003801100072
0.18170346717190522 0.11168802218805904 0.17321390763037023
0.1718429515774228 0.04113525586496943 0.1827580119680625
0.1772491524631955 0.026701007655969798 0.17801163449995336
0.18241151074719208 0.09914952950846309 0.17227075353376683
0.176882673304794 0.07661498027216548 0.17835904017202672
0.1744810531551816 0.08419537978541011 0.18063540116064367
0.1749647150452115 0.0060222788370763655 0.18017692223303136
0.17714752654385346 0.008504722885004222 0.17810801521055517
0.17935832242321748 0.04826811390291804 0.17582569375746068
0.1728054473812558 0.04309824543367976 0.1820410574983817
0.17487202982258576 0.035607640317789256 0.18026486888639745
0.1771980414803006 0.04575935440432185 0.17806009307615575
0.17949061493229646 0.06948098974596614 0.17568630829565343
0.17517988781285065 0.10901183324228877 0.17997295513860997
0.1745933781082608 0.023239080480447948 0.18052891746275243
0.1758034716064908 0.006859157852045238 0.1793819154810172
0.17928009132694978 0.041442845634332835 0.17590794816725072
0.17088933686566132 0.09860361056696529 0.1834683801244956
0.18152441481899995 0.010092352203241527 0.17345250502340612
0.17883731822323579 0.11566687064539546 0.17637411609403905
0.17294918398213166 0.00918686824213618 0.18193397775404271
0.17281704048466462 0.07887071805369014 0.18203247442953405
0.17981566886257905 0.10135418610941524 0.17534408822767553
0.183619369071243 0.0006519301451360579 0.17066121950857457
0.1816720555241086 0.014873598388544261 0.17325577989332494
0.17892940739941376 0.007544045022836864 0.17627719894163427
0.18242781261753815 0.01985651688944453 0.1722490574430686
0.17282285193753022 0.0769387527025854 0.18202812329046544
0.18384634355854768 0.07423752980600948 0.17035941138975438
0.1779600570614316 0.09253415899645442 0.1772977794718009
0.17427771190953034 0.08749628501307125 0.1808281327795249
0.17756508688282746 0.04234844880472773 0.17771212115995702
0.17963768939327973 0.0765597267664587 0.17553154483549413
0.1835173557217099 0.06147295670878047 0.17079762473814306
0.18312563399624604 0.013660047820917308 0.171319493205474
0.1770968029911496 0.042626951507440745 0.17815608635656652
0.18252836565327424 0.0889132662333166 0.1721150960039359
0.17169984082531708 0.015459869674555003 0.18286467447988805
0.18218230108570832 0.05177247958551997 0.17257619753591832
0.17511962751698273 0.10780030923258418 0.18003014579527196
0.18283488253903168 0.09891945557963008 0.1717067445825797
0.17695011596035737 0.1045772774733221 0.1782951439928275
0.1726083050186612 0.06672731476198787 0.18218792334310827
0.1729076395447232 0.03866643147837275 0.18196497216932592
0.17786477903675812 0.05690041618715876 0.17739812389128026
0.17581133941960114 0.07056716518770809 0.17937449470274267
0.18022977213215607 0.1002132638014471 0.17490813985578832
0.18290006021809357 0.054813806585184276 0.17161996021978673
0.17537294725727814 0.07086930113207454 0.1797899986814719
0.18061148027729768 0.06741086082827205 0.17450631514303502
0.17909317116093415 0.10548526482950801 0.17610473290197667
0.18246142963719147 0.06891009645830745 0.17220432415716466
0.17129062513661164 0.08518133001696224 0.18316940322630224
0.1831845829899289 0.09115887122522945 0.1712409938883048
0.17877464393925446 0.09389242964159603 0.17644018784277257
0.18367217878651398 0.00866756277453059 0.17059148207418737
0.18390591840100068 0.03841004209887141 0.17028007760755834
0.18087245921444672 0.005782101920953929 0.1742314483236533
0.18102045754742402 0.036931697896829783 0.17407564178221044
0.18195359806370515 0.08603826599489803 0.17288074746839818
0.1745633671696164 0.0010218663729345198 0.1805573488783103
0.18355851272892731 0.0941298349417364 0.17074281826727208
0.17231779198002595 0.10400778489481563 0.18240428820364293
0.17852585415196198 0.11089984016787166 0.17670209065191564
0.1792214105541684 0.038460139802805125 0.1759697879862052
0.18237431744885224 0.09267238216768856 0.17232034459821996
0.18161617616963166 0.0654871805227911 0.17333028569929418
0.17315341929745454 0.10883269148241634 0.1817818965028983
0.18258141378712434 0.08775586324106807 0.17204446449987706
0.17151339749645966 0.037782941631189525 0.18300349369756994
0.1757557580883481 0.07155442672144527 0.17942712560407933
0.1780183802063443 0.0808871431864416 0.17723635688535985
0.18199064235043305 0.11557990746866817 0.17283136502020177
0.17234801153492707 0.08950049119364376 0.18238175764791784
0.1795929561073758 0.1009316487826025 0.1755786027025443
0.17177381018948334 1.3981632105052044e-05 0.18280948057882604
0.18277196983647126 0.01653567390810603 0.17179060831777868
0.1837038586552121 0.05989760594736689 0.17054919257871923
0.176072765391586 0.10580778556238765 0.17912668839208898
0.17565007905316132 0.05425981121431941 0.17952729120962438
0.17467345694851655 0.027021501830927074 0.18045301094763097
0.17377193669628876 0.030221824220529735 0.18130753293745336
0.1807485411579587 0.05328074531923884 0.17436192289106664
0.183892566960571 0.0927679284132635 0.17029778018705663
0.173436183732269 0.11183238463770503 0.18157125368826207
0.1819369683678128 0.11113122539888973 0.1729029800008994
0.18057544926953095 0.10859254436861629 0.174544134290145
0.17206888298344392 0.0683531506575262 0.18258971825353917
0.17666922907185334 0.049187843374124705 0.178561308534072
0.172398586076019 0.07792756395708675 0.18234414711706456
0.18058555225682038 0.08162448244463558 0.174533524663375
0.17698477606129426 0.06306043701540584 0.17826215282194433
0.1759058723862149 -0.04160716695416814 0.17928487911932287
0.18133129576992768 0.0016339762724553938 0.17370969906561193
0.1782766173298337 0.05328026848208064 0.17696452990286168
0.17219846348118562 -0.0036362664185846452 0.18249318853132543
0.1753594766075589 0.11601275639902706 0.17980281368009862
0.18299217919659394 0.0021789117373144026 0.17149711504690465
0.18141617278408784 0.07554978566538448 0.17359674826376256
0.18157239655804414 0.053627495340219676 0.1733886088442069
0.1760514567310788 0.09492314296137447 0.17914689436666784
0.18141524891209382 0.11688080864321346 0.17359791055433568
0.1738999674732663 0.11432713704477901 0.18118620768301305
0.1765160153324582 0.0790343030012762 0.17870656505338964
0.18305604557347077 0.046167378000131785 0.17141214862577733
0.18388532499623078 0.10840943889986629 0.1703075255464774
0.17547031144451875 0.10261577802073116 0.1796977306913596
0.18017094234776276 0.046225969365945994 0.17497006908170995
0.17149301270794648 0.0890871925867712 0.18301872268431005
0.1777708421165921 0.05741939382921809 0.17749700799696264
0.1738423297817685 0.006949488691202342 0.1812408353399497
0.18388717274021882 -0.008682365842946828 0.17030457511656102
0.17742653588604707 0.07384369211565608 0.17784351959936437
0.1762605200226285 0.04563963847529048 0.17894873872511205
0.17301626900982636 0.10756651001345272 0.18188402906172094
0.17525701622319 0.061263237766138255 0.17989985004179296
0.17632399896931428 -0.004742439218648732 0.17888859763853368
0.17415659527134675 0.028528992704263866 0.1809429313253623
0.17324348191571015 0.09303093390833492 0.18171475187055883
0.17348499993634003 0.0601410015143072 0.1815348650526267
0.17852904300045747 0.07879081802736873 0.17669875279180822
0.17138789991688508 0.07870114283930416 0.18309701338522252
0.17342146138500947 0.09970671372782344 0.18158222094290075
0.18282573322605866 0.11590740518938655 0.17171899333708104
0.18205137948345917 0.06901252704035396 0.17275051131956395
0.17268781761479157 0.051262532047144115 0.18212867632620153
0.17221175531697053 0.11527163224588985 0.1824833239626151
0.17978440622639436 0.09632811384569759 0.17537696018926915
0.17974977592777985 0.061575268081537425 0.17541346803419408
0.18065895537686127 0.10863250928293819 0.17445618763677892
0.18367444376301545 0.10481265621554012 0.17058838263265905
0.1766565034801938 0.10475084619890804 0.17857340827696142
0.17618261675190705 0.09578100281130428 0.17902258887998876
0.17671619753193635 0.056519184879175365 0.1785167838644248
0.17855467299771088 0.10633367734324092 0.17667178169004735
0.1719540844376065 0.09360883074175472 0.18267519131414708
0.17218651274990815 0.04201263623606318 0.18250206962339696
