ply
format ascii 1.0
element vertex 191
property float x
property float y
property float z
element face 0
property list uchar int vertex_indices
end_header
0.17455037335705537 0.11954513626467342 0.1805696870397788
0.17694066862416047 0.11965021925341243 0.17830402508489904
0.17712422112774628 0.11837819652926082 0.17813009873144445
0.17191912631344575 0.12090361552607173 0.1827012981485587
0.17260535458874482 0.11883035736452693 0.18219012871496496
0.17493726710629243 0.12411562042605037 0.18020302906744298
0.17591859797787446 0.12326595621477718 0.17927280917875585
0.17468725542378205 0.12479788499247188 0.18043995753042516
0.1765591094906308 0.12632415132891292 0.1786657060693961
0.1772331486160733 0.12844184475313777 0.1780267740797263
0.17549263338398713 0.12795442777048702 0.17967651143781957
0.17067613105129975 0.1279709382570898 0.18362716689817724
0.17078011135411042 0.12991974192034358 0.18354971066229162
0.17234735588383454 0.12936824994455928 0.18238226428739843
0.17244856457066315 0.1288506432093298 0.18230683460943517
0.17217360834431428 0.12228045301806087 0.1825116957735282
0.17246599892925996 0.12410375910174007 0.1822939302038413
0.17228149275135773 0.1255801363505041 0.18243134871237096
0.18254585961651582 0.11868983941446895 0.1720918203901511
0.1840030143673398 0.12061632113825435 0.17015070572607335
0.1840015242512204 0.11844709949862117 0.17015273228399572
0.18322660426449555 0.12108555870424861 0.1711850251268607
0.17882778148007172 0.11972365217577571 0.17638421908132848
0.17967550854038972 0.12068263130556697 0.17549169913046178
0.17850999931645173 0.12304678993593807 0.17671875015013036
0.18095817069363374 0.11895657019983882 0.17414120689146337
0.1814428756649472 0.1244684501207983 0.17356113448850927
0.1819122622425534 0.12511167364489192 0.17293579235784826
0.18162642816853303 0.12135327296625728 0.17331660643331823
0.183624673884628 0.1292577727354681 0.17065466299764928
0.18284176687550324 0.12888557153116817 0.17169762507192907
0.18365355233502167 0.13019928770434017 0.17061621800176915
0.18234236935925263 0.12692434029947872 0.1723629023145896
0.17799742917370576 0.12741765814196224 0.17725841060392675
0.17973964313816804 0.1272542818106329 0.17542413726560888
0.1806145499165036 0.1284793062723791 0.1745029772829276
0.17909296254467744 0.12412971692453975 0.17610500112287816
0.17983268598866242 0.12468830185305232 0.1753262068342429
0.17896242837261933 0.12554440336596126 0.17624241963140783
0.17477183441471833 0.13153708415400142 0.18035984888784704
0.17490335206341523 0.12972629504572505 0.18023512616865453
0.17547415594410676 0.13384795623194332 0.1796940948080283
0.17663528422665375 0.13597691493403072 0.1785935248445731
0.1743521581108548 0.13561237292658443 0.1807576204847556
0.1759637782986142 0.1373994393862402 0.17923001304380712
0.17078011135411042 0.13414460854899043 0.18354971066229162
0.17087768415760773 0.1340238495386755 0.18347705260031041
0.17367478112530488 0.1353581591166174 0.18139351263754186
0.17139549950909394 0.13115719395052547 0.18309129133932409
0.1755789409096219 0.13924241500269527 0.17959476366751012
0.17387800316166657 0.14032435851465816 0.18120706930868444
0.17474191288304108 0.14165729718577022 0.18038813129179296
0.17496185402226228 0.14465958314310665 0.18017969384901342
0.17701529363941926 0.14340782599817867 0.17823330417387304
0.17727972964596528 0.14506984191309566 0.1779826964449149
0.17122249702763337 0.14394700961481685 0.18322018638365087
0.17067064742398041 0.1426009579218542 0.18363122001402196
0.17132564286541718 0.14126295285593624 0.18314338579885778
0.17347462872814912 0.1405872746027624 0.18154255405180272
0.17077909807514924 0.1405090733088171 0.1835504855226737
0.17508720259022492 0.15040070252787227 0.18006087198965368
0.1740559528286435 0.14639568763147945 0.18103838816397008
0.1759661922867276 0.14969844060312862 0.17922768846266088
0.1772963593418576 0.15180814700495357 0.17796687141172704
0.1764193962032773 0.15516859727274532 0.17879811778776464
0.1770924816544034 0.15145379739176387 0.17816019907705602
0.17209308246922272 0.15274167495142574 0.18257168784849462
0.17102389435124177 0.15470368104349727 0.1833681251119834
0.171989251178024 0.14957249598871822 0.18264905467741308
0.17232408027004975 0.14592516856562252 0.18239960923902807
0.17191161612820405 0.1504735394037878 0.1827068711828452
0.17546965579342622 0.15475136475931758 0.17969856515638646
0.1748419294769742 0.155839268735758 0.18029413476698217
0.17434479693722504 0.15616864400278682 0.18076566711180028
0.17666440109562653 0.159829382470957 0.17864383116476354
0.1767344961578824 0.16069114642511959 0.17861110821478185
0.17734034756970185 0.159889881185404 0.17802033677809057
0.17349566916775483 0.1562970920122778 0.18152920261137304
0.17285500864338654 0.15848327117334957 0.1820071424555045
0.17352293829273957 0.1535649939097082 0.1815075065206748
0.18258355955433625 0.13251716332804317 0.17204160347692785
0.1813326964790799 0.13420123296152706 0.1737078513216239
0.18351798157048005 0.13740581708323116 0.1707968200754386
0.1834338198120572 0.13502538638483638 0.17090896621458349
0.18227406243634003 0.13633233743082637 0.17245379939787206
0.17859594921421784 0.13665241437327022 0.1766283001016837
0.17871053914379853 0.13622975783716793 0.17650766030065831
0.17844073871922272 0.13416827159296627 0.17679167643301305
0.1810609589035489 0.13514554934870357 0.17403302446119603
0.18080716232609528 0.13025168018709773 0.1743002320837241
0.17859255174946564 0.13323289590250606 0.17663181677572545
0.1814399848396756 0.14316332774531002 0.1735649193834525
0.18291561703037995 0.13929766850840206 0.17159924760572728
0.18190659980129975 0.14164370732676143 0.17294339195005712
0.18236624101948518 0.14357918935190792 0.17233110323660192
0.18286930422138947 0.14409327941309566 0.1716609682153922
0.18165131310772675 0.144337062410227 0.17328340664617833
0.17802231411289948 0.14281827645670528 0.17723227396719274
0.17864631513905305 0.14617890553843135 0.17657522216551122
0.17824541429829377 0.14269382195841426 0.17699734225981054
0.17950316171002167 0.14072287516962642 0.17567313566915807
0.1802221725399472 0.1402016921557104 0.174916186482833
0.1800945887978055 0.1395732207811987 0.17505050554983434
0.18265073398899812 0.14743054347406978 0.1719520773004752
0.18217106561016816 0.14804220633875484 0.17259112849943456
0.18147661189389008 0.15129453378092403 0.173516222388671
0.18342622021984833 0.1531288071192419 0.17091906920187291
0.184061605733154 0.15142548518549556 0.17007265344373998
0.17886232237171906 0.15470248895060176 0.17634789005033788
0.18059991697621125 0.1519262834108984 0.17451838508360204
0.18017514447521943 0.15164596276651973 0.1749655987333518
0.18104143838238496 0.14619845586191768 0.17405352845899877
0.17932890753102082 0.14804369645487422 0.17585653916113195
0.18118264178585786 0.14761800008188838 0.17390493407957372
0.18139894704174775 0.15463203626047725 0.17369178786985692
0.18140136102986115 0.157334630063883 0.1737608696531516
0.18257071475338715 0.15745062070261592 0.17215419665090856
0.1822552571709134 0.15991586881052608 0.1727216030668479
0.1831087658817746 0.15891808705698604 0.1714970256399375
0.18260832528424042 0.15990257697474117 0.17224530235044774
0.17797635893177766 0.15860319571863765 0.17734591022245702
0.17858700851750153 0.15974760489832515 0.17676381126158056
0.17794822553944367 0.16297746138941402 0.17754597321264562
0.18119331101727265 0.15455568271051998 0.173960455806182
0.1797879229004361 0.1552059693850195 0.17540560022108373
0.18019886712384003 0.15532792048822994 0.17498997703306493
0.17423771719288605 0.16243166165720577 0.18096260085813817
0.17644931773495454 0.16280997233759517 0.17895431175939855
0.17748879293751496 0.16913003163706417 0.17849705472700414
0.17712267140698212 0.16864073710810298 0.17876709357015905
0.17591791252445954 0.16715544896494502 0.1796676899503928
0.170750636857269 0.16981667714487667 0.18374685302488622
0.1728686581070401 0.1677563829935705 0.18216279998533544
0.17188610534024018 0.16246849732767696 0.18274364724867162
0.17285539607357758 0.1636556430376684 0.1820742274831992
0.17350827555012482 0.1719237609423315 0.1808869625639182
0.17398773531269807 0.16817045646082515 0.18115464702360448
0.17664228777241486 0.1713872595347082 0.17901370778791723
0.17732172111820954 0.17323053317438716 0.17810345545522985
0.17744158605885285 0.1756597204722082 0.17738185182325658
0.1709104667122342 0.17332625823389644 0.1831004406522971
0.17246459822010773 0.17044741349588985 0.18216741934530553
0.17207436661076325 0.1724093599833166 0.1821992482256156
0.17208789686512727 0.1697734637774145 0.18266210809461889
0.175290454428909 0.1819509311236059 0.1726161922525626
0.17480065326046723 0.17644995885264034 0.17925480857603368
0.1744107792789914 0.17772919373880977 0.17944110289327916
0.17375107507061738 0.17431056933771724 0.18036071315519628
0.1753641257698514 0.1788466616190588 0.17800990596525487
0.1750886927063443 0.18003362851511592 0.1762584830831748
0.17535718182873505 0.1792818947352087 0.17715481773130712
0.17161749700855988 0.18234873252283687 0.17532811418287572
0.17191939453434724 0.181285624078623 0.178464450986312
0.17160930136990327 0.18081558184992427 0.18018499866239843
0.17237963179898041 0.17948693471323604 0.1808804060529929
0.1726511607582547 0.17591929870020503 0.18105248466245946
0.17259218196224946 0.1755098147905981 0.1811400438856345
0.18190862635922211 0.16501945691477413 0.17355568066351232
0.1818107853348233 0.15987956958185787 0.17331711307279882
0.18174527983021516 0.16019887166391963 0.17342794790975866
0.18329446415257233 0.16507041888605709 0.1717484082292777
0.1825350115711667 0.1662162585772192 0.17291910305731115
0.1833398530895688 0.16754210429560298 0.1721293713163596
0.17925377587628144 0.16668218808542842 0.17653257504217443
0.18007411460232514 0.16656852202784175 0.17569161310903844
0.18062241772961396 0.1645743294275915 0.17496598616354284
0.17834504346203583 0.16362423138987178 0.17716998711340246
0.1811418722088315 0.16339171367060298 0.17437640681974706
0.18198915223431367 0.17146110968958492 0.1741738106321555
0.1821004639084317 0.16704911427866573 0.17357901588194188
0.18395363191914338 0.17153025107752437 0.1714975024770957
0.18426300982785004 0.17198604779612178 0.17092693701498327
0.18438633183789033 0.17263102965723628 0.17057044163458165
0.18026645879101533 0.17350644307505245 0.17543701186888036
0.17908887962651032 0.1725508018053686 0.1768099452566367
0.18114392856907624 0.16893578009974117 0.17483712092153844
0.1813104341442563 0.16951716380488033 0.1747228886198264
0.1814475248272397 0.16691285806070918 0.1743309880804282
0.18301178912472504 0.17570323186289424 0.17161289706938085
0.18176268438648957 0.17693454461466426 0.17292366281263646
0.1816981623585202 0.17349189954172725 0.1741164113592368
0.17897649506878632 0.18146139817606563 0.17068211093656835
0.18108068804096955 0.17959803777109737 0.17169640317671117
0.17827831606220979 0.180672351888529 0.1725343252729636
0.17916240195584077 0.18072474437128658 0.17182437434904393
0.17756824592900056 0.18044305282007808 0.17340005293600377
0.17855425576519746 0.1785090013064062 0.1749927188467246
0.17612596253704804 0.18039900498758907 0.17416230693571386
0.18070064882588166 0.17625648217569942 0.17432475939504918
0.1807601342613675 0.17476642566095943 0.17466313496343908
0.180516261857269 0.17443991141687984 0.17496375098936376
