ply
format ascii 1.0
element vertex 247
property float x
property float y
property float z
element face 0
property list uchar int vertex_indices
end_header
-0.02887026099660509 -0.0748425210950469 -0.049853543575985294
-0.03654185561635606 -0.07101059808708181 -0.053613017138225895
-0.03177995113828294 -0.07027331843353261 -0.05263097101090656
-0.03043580679395311 -0.07589454307533254 -0.05760193878052936
-0.04675120739438646 -0.07402587785697927 -0.054364303883297306
-0.03583786515691392 -0.07530186429000844 -0.049883792933208805
-0.03314108280637376 -0.06641978874183645 -0.047529022034389835
-0.03408757476308458 -0.07504002108551015 -0.057055960234386784
-0.03320795921781175 -0.07650632514930715 -0.051327804859859806
-0.036052620692039655 -0.08176798477149953 -0.05474800878403888
-0.04084444670179002 -0.06902016057945241 -0.0513212781512569
-0.03229267029264085 -0.07167656078315725 -0.054615179833156925
-0.04769552378156297 -0.0741139735219573 -0.05399019533036457
-0.03298605112531297 -0.07906473531700124 -0.05862043314812885
-0.03475785879590623 -0.06719825520492544 -0.04958997183678852
-0.0350730481574785 -0.07806239380813589 -0.05215908103821979
-0.03499293951490037 -0.06922084941841115 -0.051669607695324284
-0.029662168307090928 -0.06871072306610097 -0.05102802329896198
-0.03542239098050706 -0.07200224056220998 -0.054706464346630436
-0.03766623763539903 -0.08174229516960134 -0.0584485929572414
-0.02967170505025499 -0.07007528200126638 -0.052718321617824894
-0.03411085037686937 -0.07989419355369558 -0.058579097326977116
-0.038208371681953596 -0.07312417879081716 -0.04745383077500568
-0.0304208162257921 -0.07097683205581655 -0.05401364975808368
-0.02999279527166002 -0.07863143935180654 -0.052973697718365055
-0.03430075077512376 -0.07495857133842458 -0.056988070543987614
-0.029108351750160386 -0.07093707575775136 -0.05381609016297565
-0.03383795051076524 -0.06863773717857351 -0.05104071908829914
-0.03608698276975267 -0.07150463118530263 -0.054205010470135075
-0.03514519957997911 -0.08098689570404043 -0.05849723034737812
-0.037664747519279645 -0.07491422548271169 -0.04933879786370502
-0.03793693212964647 -0.08045018568016042 -0.05331138783334003
-0.0353208246658098 -0.07740024580932607 -0.05170534067986713
-0.0372099938819658 -0.07789249076820363 -0.051688740786297184
-0.03507033614614122 -0.0818235363004302 -0.0572053592765163
-0.03229040531613939 -0.0731061483857726 -0.04803417139886127
-0.0378997984359514 -0.0758132721421813 -0.057327250775081974
-0.03497732309796922 -0.07581443443275442 -0.05047301464913593
-0.031076884550834825 -0.07243085756278982 -0.0553093951308559
-0.03818527488210313 -0.07665745272613515 -0.057862053450329166
-0.03335798410871141 -0.06917623534179677 -0.051640103396160465
-0.03230378655889146 -0.08085600390411367 -0.05625919514535175
-0.03652182845571153 -0.07301599636054983 -0.05545366817353473
-0.03859699396588914 -0.06798295035339345 -0.05043406301377521
-0.032568311972404645 -0.07579804315544118 -0.0575967531764339
-0.03535697488286607 -0.07762587919212331 -0.0585328739249538
-0.029796576781059434 -0.07403916969276418 -0.05661300831673847
-0.03362966207959764 -0.07861945881820669 -0.05279464536545978
-0.036867028755928205 -0.07845152273155202 -0.05216721707223163
-0.03303412227132432 -0.06649891390777578 -0.04789618664620624
-0.04511446384885423 -0.07362080469108571 -0.04713622742532001
-0.033573574108863996 -0.0708233798978423 -0.053372363384945255
-0.03231141595342271 -0.06629703297592153 -0.04763166123269306
-0.037925696654106306 -0.07726047291732778 -0.05823052936433063
-0.03383240727880113 -0.07757888092971792 -0.052041481074077946
-0.033308095021034406 -0.08067724957443227 -0.057770262297375065
-0.036945796293998884 -0.0750093842980956 -0.056854198511822086
-0.031092649979377916 -0.08050487294174184 -0.05526647978661762
-0.032256937308098005 -0.07708514585472097 -0.05822591000436054
-0.03323808936574571 -0.07406023993469228 -0.0488776963317226
-0.031465685648704694 -0.07540262594200124 -0.050186882551891666
-0.037391758246208356 -0.0709025944707488 -0.05352206045029865
-0.029861605448509385 -0.07393197073913564 -0.049086461600048405
-0.029454922957206895 -0.07898432865119924 -0.053281198080761295
-0.03789821891286485 -0.0768343891141509 -0.0579893689715694
-0.034215218109871076 -0.08157549157119741 -0.05736405664323078
-0.03521988419988267 -0.07477221741653432 -0.0568083923423122
-0.037490165514732526 -0.06841633572555532 -0.051023940380794865
-0.03396782903173082 -0.0808270956513976 -0.0543008547389339
-0.03413603333928697 -0.08146638526893606 -0.05556906276581989
-0.03151050834157579 -0.06640786781288137 -0.04822565132020221
-0.0312697353790056 -0.06903288617111196 -0.051565746601803165
-0.03774554161527269 -0.07882315769172658 -0.052206228312237125
-0.03653750447728746 -0.08194545760131826 -0.05486614518998371
-0.03529310850598924 -0.07351998343444814 -0.05593551212189899
-0.03574154405095689 -0.06987891449905385 -0.05243791156647907
-0.04291761545636766 -0.07048855080581655 -0.052498976525051456
-0.03199992207982652 -0.06959641828514089 -0.05214400106309162
-0.03840658692815416 -0.07836980476356496 -0.058811227616054874
-0.030015474838997056 -0.07517484679199209 -0.0573332410418819
-0.02927548317411058 -0.06569288029647817 -0.04697630816338764
-0.04141280679204576 -0.07339332356430044 -0.04732448869584308
-0.03259298829534166 -0.07707119836784353 -0.05822093301652179
-0.030966228527809312 -0.0772577609059905 -0.05803788715241657
-0.03817004589536302 -0.07913348927474965 -0.05901441985009418
-0.0359813037345659 -0.08236006751037588 -0.05613903218148456
-0.0375357630679857 -0.07028532876945486 -0.05293480568764911
-0.03578568129041307 -0.0801712061402892 -0.05340490752099262
-0.04184446362950914 -0.07687059893585195 -0.05762974434731708
-0.03669500975110643 -0.07435233249641408 -0.04887638502953754
-0.03900164989926927 -0.07665933027244558 -0.05780739599107013
-0.030401355309272935 -0.0767392004964446 -0.05158094578622089
-0.030668890757347276 -0.07929075612998952 -0.05766687804101215
-0.04211676744916551 -0.07858509674049367 -0.05176986270783649
-0.029613560719276597 -0.0668331171510314 -0.049290011461956364
-0.043135530037666486 -0.08241216196990957 -0.05752320104478107
-0.03021211056211107 -0.07366130604721059 -0.048657904204113346
-0.029081946892524888 -0.0728496695993041 -0.05572847538827167
-0.03142294911840074 -0.07428936018920888 -0.056721786793453556
-0.03566045193173997 -0.07435125961280813 -0.04909015708802448
-0.03285897402265184 -0.0754467929837798 -0.050298253830654484
-0.03640285758473985 -0.07876900687194814 -0.058992783364040714
-0.036537266058708356 -0.07572240486122121 -0.05017546826241718
-0.03473070888021104 -0.07125202670074453 -0.054098318155987125
-0.03813306121327989 -0.0821793164250945 -0.05766672902940021
-0.031081027073646714 -0.06583622946716298 -0.04698688798783527
-0.030985987467552354 -0.06758032097793569 -0.05012423807023273
-0.034413224739814924 -0.08156520976997365 -0.057838926848156315
-0.032007104439521955 -0.07825372471786489 -0.052503476675732
-0.03444034485318773 -0.0765762115953063 -0.05118448549149738
-0.033782160563255476 -0.07982126727081289 -0.053643922146541935
-0.03287497786977403 -0.0800011838910674 -0.05371553712723957
-0.0308020475337755 -0.06854129686332693 -0.05076308065293537
-0.03333795694806688 -0.07542262330032339 -0.05736542755006061
-0.03309271363713853 -0.08006895437217702 -0.05836642795441852
-0.03475350765683763 -0.08193937792755117 -0.05616621189950214
-0.03130755452611558 -0.07288435950256338 -0.055655102070553165
-0.032015508694435285 -0.07992718472457876 -0.057978342112285954
-0.03287611035802476 -0.0669115866658782 -0.04932741337655292
-0.03662074236371629 -0.06965480103469839 -0.052344332274181705
-0.04747960595586412 -0.0786872292993163 -0.052021334704143864
-0.038075065893913435 -0.07314474239326467 -0.0474869709575008
-0.036164230389381574 -0.07652504100776662 -0.05790917092202411
-0.03381845979192369 -0.08125031843162527 -0.05509037786362873
-0.03777295975186937 -0.06973121418930044 -0.052354286249859196
-0.034729129357124494 -0.07336104764915456 -0.04806379490731464
-0.03965515522458665 -0.0710728551385497 -0.053449044760448795
-0.04299876718022935 -0.06704802169776906 -0.04869378620026813
-0.03344172863462083 -0.0700824941632842 -0.05250606947777973
-0.037253803295875715 -0.08078394188858022 -0.05889324360726581
-0.03419691948392503 -0.07248852505661 -0.04711241536973224
-0.035835749192024396 -0.06654036893821706 -0.048338661726696354
-0.03675044207074754 -0.08244160666442861 -0.056636075314266544
-0.0382640722224962 -0.07682285561538686 -0.05078280979035602
-0.03101939587094896 -0.07669273867584218 -0.05169553571580158
-0.033534145636345075 -0.06815806879974355 -0.05065775924561725
-0.0360496106574785 -0.07731286540008535 -0.058363805350048405
-0.03203887371518724 -0.07629347696281423 -0.05164484196542011
-0.034779823107505964 -0.0679065371987914 -0.050418625410778385
-0.03521794704892747 -0.08015770568824758 -0.053558836516125065
-0.035889572186256574 -0.07562980904556264 -0.05733556562302814
-0.03330854205587022 -0.07338208808876028 -0.05594960862038837
-0.03787369160153978 -0.082308420085678 -0.055291871365291935
-0.03820455698468797 -0.08119759812332143 -0.05392224603532062
-0.03562686471440904 -0.06612456693626394 -0.04767085128663288
-0.03677142290570848 -0.06773550167060842 -0.050270418461544376
-0.03853065399625413 -0.06940738215423574 -0.05200485401986347
-0.03498209146955125 -0.06625215067840566 -0.04768429213402973
-0.03138426570394151 -0.06647498264289846 -0.04851613455651508
-0.033550566715980695 -0.07524976983047475 -0.05021242314217792
-0.031480795426155256 -0.07064519181228628 -0.053395907219631535
-0.03674746183850877 -0.07699773564315786 -0.051006237801296574
-0.04607928423383348 -0.07372153654075612 -0.05461503082154499
-0.03307447461583726 -0.07113546981788625 -0.05397168808816181
-0.03783935932614915 -0.06846848978973379 -0.051059256132824284
-0.0317580166290056 -0.0728903497693633 -0.04780892544625507
-0.029119915051246812 -0.073522278213272 -0.04857764654992328
-0.032016045136238264 -0.06696996941543569 -0.049710909661037785
-0.03170365719297044 -0.07943946971870412 -0.05341989808915363
-0.030525780005241563 -0.08013541355110158 -0.0544553797805141
-0.03319842247464769 -0.07225725903488149 -0.055071155365688663
-0.02932152776219957 -0.07978088512397756 -0.05451477580903278
-0.03631741432645433 -0.07463232531524648 -0.05663911515115009
-0.03616041569211595 -0.0736595775125121 -0.04817024880288349
-0.03142437962987535 -0.07798529520011892 -0.05847455078004108
-0.030622846169258287 -0.0759760226247405 -0.051094154652340275
-0.04289919762113206 -0.0690400685308074 -0.05105442815659748
-0.036318487210060285 -0.06831897153831472 -0.050933430727703434
-0.029578304571891954 -0.0800757791040038 -0.05528459959862934
-0.031419790072227644 -0.07395229592300405 -0.04899663740037189
-0.038031614107872175 -0.06641245737052907 -0.04840929323075519
-0.029749191088463 -0.07667739047981252 -0.05146832280991779
-0.03355584172704332 -0.07301686062789907 -0.05565456562875019
-0.03768870858647935 -0.06723068013168325 -0.04962054901955829
-0.029575085921074083 -0.07704637303329458 -0.057798336085064274
-0.037011212391639875 -0.07241318478561391 -0.054933677252514225
-0.030154085440422227 -0.07331425800300588 -0.056071380909664494
-0.03125394014814012 -0.07541830196357717 -0.05742652231095539
-0.03154019145467393 -0.08049062743164052 -0.05692736321328388
-0.029362833781028917 -0.07240847601867666 -0.04734535032151447
-0.02887026099660509 -0.0748425210950469 -0.049853543575985294
-0.03654185561635606 -0.07101059808708181 -0.053613017138225895
-0.03177995113828294 -0.07027331843353261 -0.05263097101090656
-0.03043580679395311 -0.07589454307533254 -0.05760193878052936
-0.03583786515691392 -0.07530186429000844 -0.049883792933208805
-0.03314108280637376 -0.06641978874183645 -0.047529022034389835
-0.03408757476308458 -0.07504002108551015 -0.057055960234386784
-0.03320795921781175 -0.07650632514930715 -0.051327804859859806
-0.036052620692039655 -0.08176798477149953 -0.05474800878403888
-0.0395649435947191 -0.07799146428085317 -0.051563034590465885
-0.039090788645530866 -0.07267425312973012 -0.05494279676316486
-0.03229267029264085 -0.07167656078315725 -0.054615179833156925
-0.044087267203117536 -0.08089364423728933 -0.05311186128495441
-0.03298605112531297 -0.07906473531700124 -0.05862043314812885
-0.03475785879590623 -0.06719825520492544 -0.04958997183678852
-0.042841500324989484 -0.07826236739135732 -0.05144424253342853
-0.0350730481574785 -0.07806239380813589 -0.05215908103821979
-0.03499293951490037 -0.06922084941841115 -0.051669607695324284
-0.029662168307090928 -0.06871072306610097 -0.05102802329896198
-0.03542239098050706 -0.07200224056220998 -0.054706464346630436
-0.03766623763539903 -0.08174229516960134 -0.0584485929572414
-0.02967170505025499 -0.07007528200126638 -0.052718321617824894
-0.03411085037686937 -0.07989419355369558 -0.058579097326977116
-0.038208371681953596 -0.07312417879081716 -0.04745383077500568
-0.0304208162257921 -0.07097683205581655 -0.05401364975808368
-0.02999279527166002 -0.07863143935180654 -0.052973697718365055
-0.03430075077512376 -0.07495857133842458 -0.056988070543987614
-0.029108351750160386 -0.07093707575775136 -0.05381609016297565
-0.03383795051076524 -0.06863773717857351 -0.05104071908829914
-0.03608698276975267 -0.07150463118530263 -0.054205010470135075
-0.03514519957997911 -0.08098689570404043 -0.05849723034737812
-0.046247697157646345 -0.07969386234260549 -0.05823368841050373
-0.037664747519279645 -0.07491422548271169 -0.04933879786370502
-0.03793693212964647 -0.08045018568016042 -0.05331138783334003
-0.039661324305320905 -0.07560313596702566 -0.04968268686173664
-0.0353208246658098 -0.07740024580932607 -0.05170534067986713
-0.0372099938819658 -0.07789249076820363 -0.051688740786297184
-0.03507033614614122 -0.0818235363004302 -0.0572053592765163
-0.03229040531613939 -0.0731061483857726 -0.04803417139886127
-0.0378997984359514 -0.0758132721421813 -0.057327250775081974
-0.03497732309796922 -0.07581443443275442 -0.05047301464913593
-0.031076884550834825 -0.07243085756278982 -0.0553093951308559
-0.03818527488210313 -0.07665745272613515 -0.057862053450329166
-0.03335798410871141 -0.06917623534179677 -0.051640103396160465
-0.04248837260701768 -0.07341588392234792 -0.055100868281109196
-0.03230378655889146 -0.08085600390411367 -0.05625919514535175
-0.03652182845571153 -0.07301599636054983 -0.05545366817353473
-0.03859699396588914 -0.06798295035339345 -0.05043406301377521
-0.032568311972404645 -0.07579804315544118 -0.0575967531764339
-0.03535697488286607 -0.07762587919212331 -0.0585328739249538
-0.029796576781059434 -0.07403916969276418 -0.05661300831673847
-0.03362966207959764 -0.07861945881820669 -0.05279464536545978
-0.036867028755928205 -0.07845152273155202 -0.05216721707223163
-0.03303412227132432 -0.06649891390777578 -0.04789618664620624
-0.033573574108863996 -0.0708233798978423 -0.053372363384945255
-0.03231141595342271 -0.06629703297592153 -0.04763166123269306
-0.037925696654106306 -0.07726047291732778 -0.05823052936433063
-0.03383240727880113 -0.07757888092971792 -0.052041481074077946
-0.033308095021034406 -0.08067724957443227 -0.057770262297375065
-0.036945796293998884 -0.0750093842980956 -0.056854198511822086
-0.031092649979377916 -0.08050487294174184 -0.05526647978661762
-0.032256937308098005 -0.07708514585472097 -0.05822591000436054
-0.03323808936574571 -0.07406023993469228 -0.0488776963317226
-0.031465685648704694 -0.07540262594200124 -0.050186882551891666
-0.037391758246208356 -0.0709025944707488 -0.05352206045029865
-0.029861605448509385 -0.07393197073913564 -0.049086461600048405
-0.029454922957206895 -0.07898432865119924 -0.053281198080761295
