ply
format ascii 1.0
element vertex 762
property float x
property float y
property float z
element face 0
property list uchar int vertex_indices
end_header
-0.24678256962066208 -0.258403092532166 -0.179589024581818
-0.2472434327340654 -0.25930538764477584 -0.17800892034998358
-0.24709041270976578 -0.259723037390717 -0.17745869497290076
-0.2449548974967531 -0.25896799555302474 -0.18136320153704108
-0.24700967821841752 -0.2547687291193089 -0.18118519226541938
-0.24585047218566453 -0.2560684680032811 -0.18279195467462958
-0.24349331710105454 -0.26103591909886215 -0.17914574483862342
-0.24343788478141343 -0.2590101956415257 -0.18279927114477576
-0.245098947022014 -0.2566773592519841 -0.18391556183329047
-0.24287979159122025 -0.2594569324541173 -0.18290174643030585
-0.2421578750348619 -0.2617023586320958 -0.1795684311770481
-0.24842326197391068 -0.25292310109616134 -0.180329671897797
-0.25118473026519333 -0.2544613777685246 -0.1765733722828907
-0.24765285703902756 -0.2614262401151738 -0.1735363368176502
-0.2452942118382982 -0.2623943685579381 -0.17405482272139014
-0.24687154445415055 -0.2621133028554997 -0.17330253759851874
-0.24345664534335648 -0.2549574970293126 -0.1861624185227436
-0.2509089097714952 -0.25158274164677474 -0.17741263548365058
-0.2507800445294908 -0.25129571547985885 -0.17762773374548377
-0.24633829149966752 -0.25046303859234664 -0.18355450669756354
-0.2406068280673555 -0.263586699872025 -0.17564775685301245
-0.24110849056010758 -0.25872459998608444 -0.18659023086061896
-0.2414824352002672 -0.263699084429749 -0.17435224989881934
-0.25064435455565964 -0.25026032319546554 -0.1779774043940586
-0.2432880238032869 -0.2535233496713719 -0.18678533176413
-0.2529707834458879 -0.2533507346201024 -0.17421301344862403
-0.2397114470935396 -0.2637431024599156 -0.17529026309481086
-0.24470567557578599 -0.2507220505762181 -0.1855718855046314
-0.24591600749259507 -0.2494874893713078 -0.1842836205147785
-0.24058447632556473 -0.2580648957777104 -0.18784613052835883
-0.23983232531314408 -0.2640333472776494 -0.17407559494009436
-0.2536388621068529 -0.25384727111340377 -0.1730298910521549
-0.23774647567039048 -0.26222246876240585 -0.18345204631319464
-0.25338879081969773 -0.2524386047411046 -0.17390515545835913
-0.2472848579621843 -0.24814802399159283 -0.18232960144510688
-0.25041282031302964 -0.24839365473271222 -0.1784150813006443
-0.23700998577838456 -0.26302653542042587 -0.18188737968435706
-0.23925757262473618 -0.2597481905508122 -0.18807036320200385
-0.2461763009763292 -0.24762146165848584 -0.18392789999475898
-0.23635297868018662 -0.26376679530621383 -0.17784013489714087
-0.25423189852004563 -0.25117748966694686 -0.1731827769660038
-0.2398920938706926 -0.2573194800901494 -0.1896685276412052
-0.2494782790875963 -0.24638648322106213 -0.17956655363073767
-0.24067449424033677 -0.2547542749929509 -0.18964121381273688
-0.23749637458091294 -0.2613082825231633 -0.1872358385705036
-0.23577457520728623 -0.26393997660160873 -0.17769313494196357
-0.24604037258391892 -0.24655482163906903 -0.18406598905554236
-0.24285966012244736 -0.24917355170727581 -0.18755695859423102
-0.25357186648612534 -0.24894845476628155 -0.17405604461660804
-0.24186518642669236 -0.2504977582979283 -0.18897045294275702
-0.2543477103448442 -0.24959045639515728 -0.17308507005205573
-0.23398506495719468 -0.2642767130422673 -0.17905016879072608
-0.24386633786922013 -0.24648523321629376 -0.18653640786638678
-0.24047136161094224 -0.25207853308201644 -0.19058371225824774
-0.24992918822532212 -0.24449023595333905 -0.17893247941961707
-0.23507776710753953 -0.26292893281460616 -0.18670389691820563
-0.23470802459483658 -0.2631965278673253 -0.18626332918634833
-0.23311367485290085 -0.2642028628873906 -0.18112303952207984
-0.23906099650626694 -0.2540427147436223 -0.19202802220812262
-0.24440634104972397 -0.24466320863247723 -0.18589446584215583
-0.23285721096759354 -0.2638693450975499 -0.18335375825396003
-0.23951488587623154 -0.25220474591732833 -0.19190081099501075
-0.23436325642829453 -0.26289260378361556 -0.18791923562517585
-0.25436165783172165 -0.24607491484165997 -0.17313828209867896
-0.23285433504348313 -0.26453408589840743 -0.17485778669348181
-0.2517535671926073 -0.2434163986730656 -0.17652987579336585
-0.24305826279883896 -0.2447412609148106 -0.18739998976221503
-0.2432076320386461 -0.24413712313652844 -0.18720108906259955
-0.23543621454005753 -0.26051419964314315 -0.1919166509293598
-0.24567919823890244 -0.24149942389012188 -0.18435231486788214
-0.23020219657187974 -0.26448249807835433 -0.1783855173968357
-0.23651735338931595 -0.25703203669072006 -0.19410658518305243
-0.23065380606418168 -0.26391327372074935 -0.1853503052376789
-0.24113733920817887 -0.24438875904560894 -0.18991061190596045
-0.2422426626420549 -0.24293309441090435 -0.18840900699129523
-0.23297133896117722 -0.2621981500673375 -0.19111191371908606
-0.23583841178184067 -0.25742104640484664 -0.19443837443819464
-0.23760428879027878 -0.25204247227192733 -0.19438645879259528
-0.24840400967364823 -0.23994478574276776 -0.1808085207127613
-0.25372877571349656 -0.24188581099987835 -0.1739040527724308
-0.23374825570350205 -0.2615400849866948 -0.19281370083322943
-0.23066888603930985 -0.26353666177273605 -0.18814802805414618
-0.23383927199607407 -0.2611258923101506 -0.19329351822367133
-0.23720639798408066 -0.2517616449880681 -0.1948776010655445
-0.22915229055648362 -0.2646150290060124 -0.17481604854097785
-0.2392841413951448 -0.24591831853867382 -0.19238794485559882
-0.24309703562026536 -0.2407543658304295 -0.18723181525698127
-0.2524922177529863 -0.24004481723786206 -0.17549619714250983
-0.22829848382239853 -0.2643898128557286 -0.18301359454622687
-0.2398698017335466 -0.2440226375150761 -0.19154990355005683
-0.2287812814450792 -0.2641875146913609 -0.18611838559141577
-0.23642343137031113 -0.2529479264307103 -0.1958764557026905
-0.23756825778251206 -0.24861061563969464 -0.1946111981057209
-0.249229966137462 -0.2383863627004704 -0.17971794942846717
-0.2275567040181688 -0.2646641730356297 -0.1776986036681217
-0.23671117279296433 -0.2508102654504857 -0.19563168922892035
-0.23658546659713303 -0.2504244147825322 -0.19584720472326697
-0.2538384184575609 -0.2395346461820683 -0.17372777203550757
-0.23174431774383103 -0.2618546783018193 -0.19384197036257209
-0.22689002606635605 -0.26470938315869186 -0.17652363220682563
-0.24982684705024277 -0.237467884926804 -0.17893367151251258
-0.23926669213538682 -0.24281498780728192 -0.1923087898873371
-0.23354188952212845 -0.2588709591913304 -0.1966079239033741
-0.22914013120894944 -0.2633873223352513 -0.19095361868372382
-0.2413937732911638 -0.23974238327027173 -0.18943232933512152
-0.2275920644736818 -0.264195054678925 -0.18837014476290168
-0.22579775604968583 -0.2645724414873204 -0.18191284576883734
-0.2264127716756395 -0.26475271573544357 -0.17372023204794348
-0.253014682266765 -0.2376721202421269 -0.17477776745787085
-0.25400832149749314 -0.2383185475158772 -0.17349257210722388
-0.24509230110412156 -0.23635996869088025 -0.18495751062860907
-0.22466319653754746 -0.2645431160020909 -0.18251065055361212
-0.22517403814559495 -0.2644568978834233 -0.1854726437710804
-0.23520007583861863 -0.24953317633152813 -0.19791591803064765
-0.23666605207686936 -0.2448238431501469 -0.1958926681660694
-0.24596208188300644 -0.23523750892163128 -0.1839077536248249
-0.23369544598823105 -0.2541898786115727 -0.19890151063433112
-0.2527312323785356 -0.2358374296712956 -0.1751278553389591
-0.22403380129104172 -0.26463332763195846 -0.17666888872614325
-0.23337741050487076 -0.25498467674733016 -0.19893605152597846
-0.22484904381995713 -0.26449674358845565 -0.18673122564783515
-0.2376827434039644 -0.24147230377674908 -0.19437871018877448
-0.23366063687568223 -0.2526497541952214 -0.19951308409204901
-0.23451773676639115 -0.24857045701027722 -0.19888854662409247
-0.2438082978463701 -0.23439300051213116 -0.1863394592188877
-0.22275298688178574 -0.26456531873226974 -0.18361351529589118
-0.2466859206891588 -0.23341816654682965 -0.18296683470240058
-0.2477557197547487 -0.23315966120243878 -0.18158773223390998
-0.2543519124723009 -0.23489844789982647 -0.17302542070379676
-0.2391969547009996 -0.23748844852925152 -0.19229894021978797
-0.2242467388845018 -0.2641556560087285 -0.19047624508371772
-0.22206492576365983 -0.2646266519117436 -0.1763035569571537
-0.22958871576552903 -0.2607802151727757 -0.198552048602013
-0.23318374011283433 -0.2520946263361058 -0.20051551500788153
-0.24000051471953904 -0.23642092934132428 -0.19121733943453254
-0.24420198652511155 -0.23340123882771344 -0.18590531388750495
-0.24884797487025773 -0.2323305307912907 -0.180167398252396
-0.2264088824725679 -0.26343634715557906 -0.19527185598841132
-0.23754015419250046 -0.23881706586361737 -0.19452238718500556
-0.24577557894950425 -0.23245391240597577 -0.18413749972811164
-0.251516936752849 -0.23258845499039502 -0.17670506874552191
-0.2330781802869371 -0.2504678069639287 -0.2008624140404743
-0.22132889780765092 -0.2646143137502751 -0.17465380469789923
-0.2411656067109636 -0.2343633770036778 -0.18965779880514563
-0.23116534802680527 -0.25778627386570785 -0.20136915782919348
-0.22162137779956376 -0.26457476606846664 -0.1874317739390415
-0.23446567210917985 -0.24408131828785748 -0.19903578499784888
-0.24084196839099442 -0.23408806314946026 -0.1900824669980091
-0.22126123163466965 -0.26458248486996505 -0.18789959589472235
-0.22844695899253403 -0.2607339917707524 -0.20009530226221503
-0.24849356565242325 -0.23086464396000714 -0.18062306086054267
-0.24006812128787552 -0.23413136592388958 -0.19110784570208014
-0.23171296570067917 -0.25304099908352706 -0.20226538816919745
-0.2275854930615953 -0.26175430408001754 -0.19937566558351935
-0.23721076402431046 -0.23729780307293744 -0.19496417681208075
-0.2529723033643297 -0.23166769733906598 -0.17480363587370337
-0.23496746871238267 -0.24141448727131695 -0.1982664827488941
-0.22888259444003617 -0.2596552073049626 -0.20119795838823737
-0.22340157482390915 -0.26394498339176986 -0.19458248356810035
-0.24106618616347825 -0.23259440055371136 -0.18978073338499488
-0.2204492673612169 -0.26467260709286544 -0.18825297693243445
-0.22296783182387864 -0.2641306816625676 -0.1940461460732502
-0.2445462927556566 -0.2304120360899052 -0.1855215493821186
-0.21901962015395676 -0.2646996079969487 -0.18349078933229865
-0.24761411401992356 -0.22973331799984784 -0.18175803760519446
-0.24304693791633164 -0.23090425124646038 -0.18716371695032538
-0.21893253776793992 -0.26461467137814376 -0.1758077208184284
-0.25222161266570603 -0.23028193405152173 -0.1757876340531391
-0.21846516284709488 -0.2646598218965611 -0.18138382474413337
-0.24332418892150437 -0.23046982279301495 -0.18684818486204566
-0.22668894979720627 -0.2618149518060765 -0.20042652527323188
-0.24959999177222764 -0.22937500467778058 -0.17919745186796607
-0.22920542809730088 -0.2582809626150212 -0.2029456261776966
-0.2389089897609285 -0.23342308393002362 -0.1926522616528553
-0.23025041672950303 -0.2555457650709233 -0.20374301711550177
-0.21805912110572373 -0.26461032023907516 -0.1769809935473484
-0.22136628482108628 -0.26443353286267135 -0.19338372985353888
-0.23485055420165574 -0.2385188042211613 -0.1984004441880268
-0.22001658234363114 -0.26459658136845443 -0.19161624351969184
-0.23296600434546982 -0.24227415016175122 -0.2010404829167408
-0.22104124579196488 -0.26428192844868514 -0.19453573862543524
-0.23126545402770554 -0.24770863345146985 -0.20342377463808478
-0.23060414049392258 -0.2502648233461461 -0.20417002479067267
-0.21989528689151322 -0.2645606099653325 -0.19275656978121222
-0.2168285534120134 -0.2645774780798039 -0.17470649520388068
-0.22298644337420975 -0.263400673775681 -0.19882336894503058
-0.21837353560691392 -0.2645951806593022 -0.19043549040785254
-0.2163248047566942 -0.26461035004139755 -0.18039575854769171
-0.2314830407834581 -0.24485447993756146 -0.20305304864874305
-0.2195044443345598 -0.2645750342893681 -0.1934016410492939
-0.23426048311954056 -0.23715394726277203 -0.19924253860941352
-0.22842988226180588 -0.2562965749788365 -0.20531398693552436
-0.23566940281158005 -0.23449555030346722 -0.19717866817942084
-0.21567706618075883 -0.26457914700985763 -0.1787541423224491
-0.2392357126212648 -0.2302701472330174 -0.19220302144518317
-0.22569735202556168 -0.26081454744816635 -0.20333298186293067
-0.23558094951873337 -0.2338472305822453 -0.19730441907873572
-0.23194739076858079 -0.2402624486970982 -0.2023486111544651
-0.2470780447459749 -0.22571220984936566 -0.18244648615351142
-0.25117984268432175 -0.22593356659890027 -0.17714481691351355
-0.24852339777713334 -0.2255977987337193 -0.1805844668530506
-0.21761606487994706 -0.26455366602421615 -0.1942979905985874
-0.22024622413878953 -0.2640736996221623 -0.19917616883745612
-0.22257953736548935 -0.2624374627161107 -0.20249033609857978
-0.24575543257957017 -0.22507798662663311 -0.18415034452906073
-0.2531180963254503 -0.2255452125358662 -0.17460019031992377
-0.22688913199668442 -0.2555382250833592 -0.20692632237902106
-0.2427866742349199 -0.22547072163105816 -0.18749148289194525
-0.21352380368476426 -0.2646005748796544 -0.18394280115595282
-0.2465643123126558 -0.22445806851864666 -0.18310809771051825
-0.21324729773765122 -0.2645710109758458 -0.1817056302212757
-0.21317681524520432 -0.264529824166306 -0.17685148755541266
-0.23201072070365464 -0.23728764048100323 -0.20223266521921576
-0.22963861975436722 -0.24364197245121808 -0.2054097865008396
-0.23963834199672257 -0.22705286732197613 -0.19166082779398383
-0.22708046290641343 -0.2538111506986699 -0.20761146286955298
-0.2295348033643297 -0.24302124968052716 -0.20552527050009192
-0.22296529862647568 -0.2614216803598485 -0.2050535146378559
-0.21312203857665574 -0.2646211384821019 -0.18693295756807746
-0.2205049679017595 -0.2635788916635594 -0.20229948202600898
-0.21208825561767136 -0.26452994337559554 -0.17942369619837226
-0.2479025110936693 -0.22320970883847088 -0.1813837353371662
-0.2275746003127626 -0.2500041424322209 -0.20794067422380866
-0.23863369080787217 -0.22671616068363995 -0.19300564269056739
-0.23308978829150712 -0.23358049979687542 -0.20080347994795264
-0.24526628706222092 -0.22332032015801281 -0.1847327117108387
-0.23556858155494248 -0.22964955857277722 -0.19730987290373267
-0.23241101059680497 -0.23429027190686078 -0.2016888473414463
-0.22802653763061081 -0.24567922940731854 -0.20746789018145026
-0.21136742684608018 -0.2645150422144017 -0.1771723244570774
-0.231287090513759 -0.23593659689904065 -0.20316196123590888
-0.24923398945098435 -0.22242158642292828 -0.1796560798071903
-0.212910203669124 -0.2647143601465306 -0.1905542675637287
-0.2227245107627443 -0.2611341177511296 -0.20646671096315802
-0.22790892276530778 -0.24537046244622082 -0.2076159928225559
-0.21847838017707383 -0.2638644277143559 -0.2017789397620243
-0.23539385053878342 -0.228863388209351 -0.19756252209177436
-0.229694871637874 -0.23901514699936718 -0.2052635018013996
-0.21113179478412186 -0.26457333555699203 -0.18398056069841803
-0.21733146760230576 -0.26424530139447067 -0.20061284939279975
-0.22818170342212235 -0.24315813174725384 -0.20727772156229438
-0.21535855386024033 -0.2644864319849095 -0.19751917461386145
-0.2518564448094896 -0.22221845379353375 -0.17624135951033057
-0.21282404515510117 -0.26475828876973007 -0.19254038373461188
-0.2505918726659349 -0.2216711639452061 -0.17789351085653723
-0.22323202941184556 -0.2596966921377263 -0.20826516190996588
-0.23427262756591355 -0.22934621563435406 -0.19919151703348578
-0.24060046527152573 -0.22318916013718457 -0.19037610928049506
-0.21509617421393906 -0.2644864021825871 -0.1987634811781925
-0.23339682671790635 -0.2300351857233128 -0.20039311686983527
-0.2411813423371843 -0.22251716247082562 -0.18960884849062384
-0.21153068396811997 -0.26471978416920516 -0.1917679671429676
-0.2276857927775911 -0.2421465664196095 -0.20791154245367469
-0.23868839297061478 -0.22392740836621136 -0.1929317627333683
-0.22494773421054398 -0.2554004191446385 -0.21053341666689337
-0.22324660274749314 -0.2587474583673558 -0.20971754828920783
-0.21151117834811722 -0.2647334634351811 -0.19294974843492926
-0.22503697726493394 -0.2537776826906285 -0.21073233226767005
-0.25144067260985886 -0.22046288838864178 -0.17678638438215674
-0.24432931694751298 -0.22061458220959515 -0.1857482258461994
-0.226943908665233 -0.2435244618940434 -0.20890957752695502
-0.2359572634435228 -0.2256617247152409 -0.1967381898545307
-0.22288635227447068 -0.25895196190358016 -0.20979421476355017
-0.2192343458867601 -0.2627319394636235 -0.20653978625765265
-0.22578516456847703 -0.24803720405579419 -0.21057278553476752
-0.2447039172387651 -0.22002452602864117 -0.18534294406404914
-0.23637696954970872 -0.2245936243820271 -0.19612852374544562
-0.21571567508941208 -0.2639231084871373 -0.20267159382334174
-0.23058804723983323 -0.2325632869291386 -0.20405898133745612
-0.24580496403937852 -0.21948195984841198 -0.18408859411707343
-0.21261322352653061 -0.2646141349363408 -0.1978874568127674
-0.2078910306430391 -0.2645189761209569 -0.18139556685915412
-0.22068872902160203 -0.2609611748743138 -0.20917714277735175
-0.24955265078311478 -0.2187867759752354 -0.1792429302119297
-0.20832612964873826 -0.2645955084848485 -0.18800715247621955
-0.2314816102719835 -0.22988811126232953 -0.20289242903223456
-0.2262301877475313 -0.24235697081566662 -0.20983228723040045
-0.23315393779044663 -0.22732019415379376 -0.2007049832724613
-0.22393169853454148 -0.2539121507692418 -0.212133831181435
-0.20729344937568223 -0.26451319447041366 -0.18193735817900122
-0.2255292222238115 -0.2450765072393498 -0.21083507577410163
-0.2291446164584688 -0.23373034587384076 -0.2059358570956272
-0.24034724983935868 -0.22029507151127667 -0.19071165362825812
-0.22798094007735764 -0.23626577845097393 -0.2074578318976444
-0.24804621789222275 -0.2179647832202992 -0.1811960403107685
-0.20857469591861283 -0.2646482287931523 -0.19152570406427802
-0.2295032725072435 -0.23218612363816113 -0.20546615759363593
-0.22356262657409226 -0.252847432999619 -0.21281648317804755
-0.20616973790889298 -0.26448100796223495 -0.17850305775633277
-0.21091174933677231 -0.26460477700711105 -0.19863725344171942
-0.22700717899566208 -0.23718932261944622 -0.2087437276028675
-0.20611685368781602 -0.26447668662548873 -0.17644338945379676
-0.21337053034072434 -0.2644336222696385 -0.20306438843241156
-0.24286843690639054 -0.21793138971806378 -0.18738532701960028
-0.23191843781238114 -0.22703617802143902 -0.20231792966356696
-0.22150167677169358 -0.2583255766916356 -0.21257264057627143
-0.2472088173366121 -0.21682970216751904 -0.18227872888079108
-0.207880108091884 -0.26463016858578536 -0.193281731405167
-0.20556115958457505 -0.2644712328004918 -0.17501997093191565
-0.24099327478175675 -0.218155100851067 -0.18985973934164466
-0.2275441274381212 -0.23398971548558087 -0.20802239219179572
-0.2479075774884752 -0.2163182943153462 -0.18137586752405585
-0.23492252681022202 -0.2224934696245274 -0.19823751489153327
-0.24213267717128312 -0.21741539230824322 -0.1883565549038929
-0.2160833165383867 -0.2632039486455998 -0.20824602881899298
-0.20511281344657456 -0.26447251430035446 -0.17585975567331733
-0.2358555332160524 -0.22131872168064923 -0.19688364008894385
-0.24382543418174302 -0.21664419761181683 -0.18629979232778968
-0.22375450882678544 -0.24573542168618054 -0.21314058343401374
-0.20545841607814347 -0.2645401953744969 -0.1881000612162632
-0.22569726261859452 -0.2379152475881657 -0.21048091987600745
-0.21942049119239365 -0.2601316272306523 -0.21231894830694617
-0.22416928264861619 -0.24338147035122723 -0.21254832188120307
-0.23919799778228318 -0.21817143252373547 -0.1922501687192005
-0.22209411713843857 -0.2534766494321904 -0.21427205840578498
-0.24842482659583603 -0.21538415542126507 -0.18071033696165503
-0.20965340587859665 -0.2646283804464421 -0.20050970355501593
-0.21857043955092942 -0.26049023857594344 -0.21218801180353583
-0.20953711721663987 -0.26462054243565414 -0.2006883088730854
-0.25138377997642075 -0.21536815157414288 -0.17688333133688391
-0.23615075502162491 -0.21954226484776349 -0.19645471016397895
-0.25218835327392136 -0.21512812366963238 -0.17582633236875952
-0.23203798982863938 -0.22373729935170025 -0.20215671400061072
-0.20703127834563767 -0.2646690308141789 -0.19736442605486335
-0.20541073236232316 -0.26461127391339156 -0.19360986987581671
-0.2308557316995195 -0.22504395237446637 -0.2037034992360157
-0.22058036777740037 -0.2551911472368321 -0.21496913472643317
-0.21827736351256882 -0.26024776688099716 -0.21339795629015387
-0.2226135716176561 -0.24580392232418866 -0.2145434979580921
-0.21434125158553635 -0.26344001284123275 -0.2094317887209934
-0.22219210717444932 -0.2473519741582951 -0.2149836186551136
-0.25030714127784287 -0.21398726096630902 -0.17828721443643988
-0.22583575401073014 -0.23373551657677502 -0.2102650169514698
-0.22001753601794755 -0.25620102873326156 -0.2151981655739826
-0.22965431067710435 -0.22601446500302166 -0.2052613262318653
-0.202404855225139 -0.2644750474977574 -0.17972990015974463
-0.24429118487601792 -0.21396204820156903 -0.1857986066721958
-0.20887988660102402 -0.26454812279225204 -0.20298229793539466
-0.22411513182883774 -0.23780173054219098 -0.21253148356905402
-0.2288817897773317 -0.22675949326039166 -0.20626398066511573
-0.2038685068822435 -0.2645712493944249 -0.1924773369216007
-0.22122412774329697 -0.2503216861772618 -0.21605116764536322
-0.24590197059875046 -0.2132677434969029 -0.18397379557123603
-0.21193107816939866 -0.2641773520994267 -0.208092904486565
-0.20262522849803483 -0.2645353972005925 -0.18875489274492682
-0.23906147334342515 -0.2154095469999394 -0.1924332890891117
-0.2325109824872545 -0.2210763691949925 -0.20153633395662726
-0.2015828624702028 -0.26448419681073043 -0.18303019443979682
-0.2361110732293657 -0.21726226797581524 -0.19651210943689765
-0.24198600504165207 -0.21372634163380475 -0.18855143228998603
-0.21615198108916794 -0.2611441015291295 -0.21374560038080634
-0.2253296360707811 -0.23238009205342144 -0.21093331912985266
-0.2016993448472551 -0.2645065187501988 -0.18692359963884772
-0.23332759592299973 -0.21955904355526776 -0.2004691127919239
-0.21986275765662705 -0.25343823423863265 -0.21685864666929663
-0.2023002788758806 -0.2645438312578282 -0.1911883417748493
-0.2266620084977678 -0.22885294249535412 -0.20917648712625922
-0.22576445195441758 -0.23060186198235363 -0.2103613678597492
-0.20268446061378037 -0.2645625471162877 -0.1929990712784809
-0.22243642661338364 -0.23955610385418744 -0.21470273176660956
-0.2222430393434099 -0.24018345764160962 -0.21496005991926612
-0.2209188625550798 -0.2457997052955708 -0.21656247118940772
-0.20351384434466874 -0.2646327017831883 -0.19648351410856665
-0.2005716398692659 -0.2644651531267247 -0.17392433325281562
-0.22424352023368394 -0.23333799829960675 -0.21233669558992804
-0.25150903913741623 -0.21170949926853985 -0.17671120802393378
-0.22414314601188218 -0.2333081065702519 -0.2124651734017414
-0.2003120169377855 -0.2644814251947484 -0.18481153885355414
-0.21078771207099473 -0.263801246790894 -0.20962352196207465
-0.218630059096866 -0.2559921740579686 -0.2174933020257038
-0.19987206015353715 -0.2644680439519963 -0.17942372600069464
-0.24120850715404069 -0.21249844124794812 -0.18957636395922126
-0.21327461156611954 -0.26269209375859115 -0.21297407785883368
-0.21730410907035386 -0.25849038353443954 -0.21684283653726996
-0.19972166273360764 -0.2644643484640202 -0.17635855714312018
-0.22133198234801804 -0.24141469588757367 -0.21600977221956671
-0.2533183381295732 -0.2115298806715092 -0.17433965841761054
-0.2081278846002153 -0.26462554922581527 -0.20675288776388587
-0.23706030699973618 -0.21437761178494305 -0.19513582328787268
-0.22945092472796952 -0.22219899287701458 -0.20551936964025916
-0.2512269005513719 -0.2108018397379002 -0.17707630137434424
-0.2387014612889818 -0.21299988022328228 -0.1929135833167118
-0.19929563853507554 -0.26447397461415145 -0.1835134539984745
-0.24354490492110764 -0.21098233750344128 -0.18660326937666358
-0.20778731856112992 -0.26465418925762985 -0.20717493335237921
-0.20590585324531113 -0.26472711554051254 -0.2046151224755329
-0.20161984715228592 -0.2645881175088963 -0.19603768626680793
-0.2180977151132158 -0.25419121971608016 -0.21848473588457526
-0.21851515624290024 -0.25191208711148116 -0.21862918774118842
-0.24949197325473343 -0.20980358114720196 -0.17932853738298835
-0.23290556523566758 -0.2169337271738133 -0.20102187136640967
-0.19867235276465928 -0.2644618152666173 -0.17420842389097632
-0.21966269466643845 -0.24509978285313458 -0.21794248262873114
-0.20302089903121506 -0.2646496891069493 -0.20061243216028632
-0.2406298205590776 -0.21101683369160504 -0.19033769408693732
-0.1987110361791185 -0.26448100796223495 -0.1869406316660923
-0.22712905559306656 -0.22401751568795056 -0.20854661504259528
-0.23769637796645676 -0.21246343842030377 -0.1942573253296894
-0.2305953637099794 -0.21905383458615155 -0.20403974393835486
-0.22285187098746811 -0.23289808621884198 -0.21412239114275397
-0.2271446869111589 -0.2238643168497166 -0.20852554480066718
-0.22804482135539567 -0.22233887007714123 -0.20734103659620703
-0.23921042535071885 -0.21130180349827618 -0.19223134855261267
-0.19792257103686844 -0.2644714116144261 -0.18304022292128028
-0.2467832699752382 -0.2091279923009953 -0.18282981852522315
-0.21685629937415635 -0.25668713441372726 -0.21885486582746924
-0.22155934426551377 -0.23598989835263104 -0.2156988147877735
-0.19954535219436204 -0.26451539984227035 -0.19284269849291266
-0.21611758920913254 -0.25833120933056686 -0.21839443484774054
-0.21894185099368607 -0.24576251199723095 -0.21875627974501075
-0.23395918164020096 -0.21477198591709942 -0.1996356610440296
-0.20905640575652634 -0.26383483400822494 -0.21152723471155585
-0.22221651527648484 -0.23348724833012433 -0.21493989864817084
-0.2319938525891832 -0.21638429155827374 -0.20221603552332343
-0.23062197718387162 -0.2177560030508122 -0.20400730411043586
-0.19710101041560685 -0.2644719778585515 -0.18351616600981177
-0.24264411482577836 -0.2089395820188603 -0.18768448273172797
-0.2138637587762407 -0.2601926325845799 -0.21763413290014685
-0.25306930992370164 -0.20859096935273022 -0.17466173211565436
-0.2342833862042955 -0.21361497035504193 -0.19916666189661444
-0.21826612803702866 -0.24488189807415814 -0.21934183577528418
-0.22092549357181107 -0.23486652961254925 -0.21639864782324256
-0.2190965697503618 -0.240803986697205 -0.2184715334557575
-0.19641390297179734 -0.2644709943819127 -0.184047973551659
-0.2431833729482225 -0.20809979727745861 -0.1869967792414707
-0.2032634899354509 -0.26470336308956954 -0.20609877149095954
-0.24833620939021622 -0.20697389533997387 -0.18082962075701178
-0.2191227063870958 -0.23861901453018994 -0.2184250418328327
-0.20338108989959275 -0.26469063749791 -0.20721892158022345
-0.23837818059688126 -0.2090209423589787 -0.19334504643907965
-0.19548398110633408 -0.2644699214983067 -0.18574713806143225
-0.2365223154759935 -0.20999807110310406 -0.19591853658190192
-0.19530823681121384 -0.2644690572309575 -0.18522278110018195
-0.2497318223453096 -0.20632782569409222 -0.1790123347424549
-0.22233608219390427 -0.22859583786011548 -0.21477881709566535
-0.20201748463874375 -0.26469171038151595 -0.20603506902685584
-0.21281763765578782 -0.25987255564213607 -0.21943057219019355
-0.21190512034659897 -0.26056382050991866 -0.21862817446222724
-0.19481539580588852 -0.26446166625500533 -0.17613703648081244
-0.23144100460773026 -0.21400459101677746 -0.2029432270907444
-0.21411290619140183 -0.25619471064091537 -0.22062384227743567
-0.20765553269153153 -0.2641473113584599 -0.21413207689752997
-0.24708063754802262 -0.20594894876957745 -0.18244745472898902
-0.19748224172359025 -0.2645292579221806 -0.19673874119749488
-0.22732728574042832 -0.2188754676866612 -0.20828204492559851
-0.25033870193725144 -0.20595917096615643 -0.17822670082083167
-0.22035196277862107 -0.23248147955418438 -0.2170292351626438
-0.22340041253333603 -0.22551673641682476 -0.21341425816049994
-0.21659681055312668 -0.24574588230133862 -0.2208635274552387
-0.20173486921554123 -0.2646916507768712 -0.20617849270334662
-0.24009379598861252 -0.20734116425991864 -0.19104707876673163
-0.19678911421065842 -0.264516293911942 -0.19552899042597235
-0.19578698131804978 -0.26448613396168563 -0.1922649357699436
-0.21609173569446122 -0.24734775712967724 -0.2212368164443058
-0.2105436012483171 -0.26136696329594467 -0.2180275980614704
-0.2097383126950792 -0.26203745594502303 -0.21720442811479987
-0.2324412152505449 -0.21246352782727093 -0.20163643995752753
-0.19608527276282822 -0.2644983529138646 -0.19370723406305732
-0.23702281567817246 -0.2086397110509953 -0.1951917175435108
-0.23010060045486008 -0.2146337329435429 -0.20468614140978278
-0.19385278079276597 -0.264465331940659 -0.1828488473080677
-0.21535388979678666 -0.24926760783673138 -0.22179574409952582
-0.20359036180739915 -0.2644466756868443 -0.21079338232508124
-0.22852519008880173 -0.215620219616898 -0.20672172943582953
-0.2542206034398607 -0.20540639749050946 -0.1731747750424427
-0.22544255707030808 -0.219964861779221 -0.21077159682741584
-0.20080280158286606 -0.26462900629521224 -0.20745069424143256
-0.2178509220815233 -0.2362019120740971 -0.21959716717234076
-0.19572512659793412 -0.2645167409467778 -0.19661972562303962
-0.21307253691916977 -0.25627657762051437 -0.22194556037416877
-0.22369640919929062 -0.22243174901486248 -0.2130263511323017
-0.22103139612441575 -0.22772184005261273 -0.2162697080754322
-0.19297893199687516 -0.26446065297604415 -0.17482323090067328
-0.2307801977134279 -0.2124006449270329 -0.2038037542485279
-0.2158209964967302 -0.24263718715191693 -0.22150138656130255
-0.19347879144912278 -0.2644718884515843 -0.18903987745275916
-0.19355198595290696 -0.26447278252125594 -0.18956165651312293
-0.2345234439111284 -0.20872475197792859 -0.198822325863747
-0.2118037924504808 -0.25886121383190963 -0.22161576787462653
-0.24255056533580338 -0.204468697218903 -0.18781287113657416
-0.21664433035617386 -0.238399401216515 -0.22070302704801978
-0.20295142981772935 -0.2644745706605992 -0.21186033526888312
-0.23073798272376572 -0.21169757833958477 -0.20385760704508246
-0.21495251211886918 -0.24426719537258954 -0.2222474877022785
-0.1919269547200731 -0.2644616960573277 -0.18144412974348487
-0.19697242829566514 -0.2645941971826634 -0.20261046926012458
-0.212944565746837 -0.2543567716169438 -0.22315790394773902
-0.2277184859252504 -0.21462340643883557 -0.20776925126543463
-0.193956865403705 -0.2644985913324437 -0.19583318273058356
-0.21039503667121445 -0.25953960409642074 -0.22163740436068
-0.22123047563796555 -0.22500449409962506 -0.21604538599482
-0.2532651409841112 -0.20330367973328442 -0.17441671232214392
-0.2523258313870958 -0.2030600904512486 -0.1756459240101856
-0.20070481154685532 -0.26459193220616195 -0.2106253717326206
-0.24445576820140397 -0.20284098377705426 -0.18561945001116217
-0.2321900561786226 -0.20919683566571087 -0.20195970574846686
-0.24552324268584763 -0.20242948821068615 -0.18445179502001227
-0.21239656064277207 -0.25308579197407577 -0.22378218809595526
-0.2471129283643297 -0.20222768178463787 -0.18240722159376563
-0.19091904017692124 -0.2644621728944859 -0.18364670018186988
-0.19078603241210496 -0.2644615172433934 -0.18150671462049903
-0.23584225628142869 -0.20573480418206067 -0.19690691570272864
-0.2048520878291658 -0.26339879622937057 -0.2171692613743824
-0.2142408773637346 -0.24178874483586163 -0.2227730814599079
-0.20348185155158555 -0.2639068066167912 -0.21566701570978583
-0.19120021018748795 -0.2644661068010411 -0.18896163145533026
-0.19450187537436997 -0.26454305639744613 -0.20069707075586737
-0.2487068459725908 -0.20169591894627423 -0.18035127858152808
-0.22317892167335068 -0.2196637838172993 -0.21369206050863684
-0.23697808239226853 -0.204707071094521 -0.19525692502489508
-0.23285275552039658 -0.20759722581387371 -0.2010957066201252
-0.21605704579120194 -0.23467931142330975 -0.22121529916754187
-0.2542620286679796 -0.202151358037003 -0.17312214414110602
-0.24267445358996903 -0.20199429979801983 -0.18764451781740607
-0.2271975413299135 -0.21311506619931073 -0.20846215526094855
-0.19536149356132065 -0.26459577670574996 -0.203849500813393
-0.21232107136016404 -0.24937203517437787 -0.22440352181425513
-0.22055008861785447 -0.22347241631031842 -0.21680066625109137
-0.2066937968469194 -0.2622814177560887 -0.22046834866037787
-0.24020098004107987 -0.2025148569631657 -0.1908993784569782
-0.20721903297668015 -0.2615957855272374 -0.22108337918749274
-0.21118077490096604 -0.2543924449968419 -0.22450745741358222
-0.23665536794429337 -0.2041117250013432 -0.19572565595140876
-0.21755844208961045 -0.22936141481877179 -0.2198460463666004
-0.24316528293853318 -0.20136788478375287 -0.1870149288558048
-0.21223583671813523 -0.2477634995269856 -0.22447324434748114
-0.20463102910285508 -0.2630741595316014 -0.21871549526682318
-0.19554051611190354 -0.2646223305749974 -0.2057437662266773
-0.19959769997363602 -0.26461276402951095 -0.21253120044699134
-0.2538461968637041 -0.2011401056337437 -0.17365217844477118
-0.21306970569854294 -0.24158155909062237 -0.2236907992743534
-0.20125013444190537 -0.26422086349011276 -0.21522610525122107
-0.2205265149808458 -0.2223007082033238 -0.21682686249247016
-0.22013355645900284 -0.2229330538797459 -0.21726325789919318
-0.2242641881442598 -0.21561655393124432 -0.21231464187136115
-0.2526448354459337 -0.20044998815537304 -0.1752242658518833
-0.18901377770667588 -0.26446014633656356 -0.1733263645552677
-0.214132367107921 -0.23630909612656445 -0.22279959062567176
-0.19994062039619004 -0.2645833193349919 -0.21410301963320197
-0.22936189028983628 -0.20876163235188336 -0.20563898126116217
-0.20989909622436081 -0.25545769920826766 -0.2252764765404743
-0.19028325233226334 -0.2644789516019902 -0.19484770933618964
-0.18944227549796616 -0.26446667304516647 -0.19132599870195807
-0.1935811624265245 -0.2645781933355412 -0.20409191290369452
-0.20673534128432786 -0.2608883379983983 -0.2228011701487583
-0.25152668211226975 -0.19960823646069378 -0.17668943742742957
-0.19437765929465806 -0.26461344948292587 -0.20615490416517676
-0.2380106583571962 -0.20173092177391858 -0.19383644203176917
-0.21853670332198655 -0.22453385582447857 -0.21895990411272467
-0.21262328181033646 -0.23905995479107708 -0.2240151230477375
-0.21168356988196885 -0.24266950777054638 -0.2247974042080921
-0.21442314836745774 -0.23310087612152905 -0.2225625876568836
-0.23780977580314194 -0.20129942884922833 -0.19410586992731513
-0.2479034796691469 -0.19880272439003796 -0.1813837651394886
-0.21538436267142808 -0.23011283567429394 -0.22180262843599738
-0.18790599558120286 -0.26446381202221725 -0.1876948241375965
-0.1906582996583513 -0.2644962071466527 -0.19926889876356543
-0.24144545051818406 -0.19962403169155926 -0.1892536644124073
-0.24411773535972153 -0.1989859937715611 -0.18597704807749213
-0.21684458706145798 -0.22655987730503888 -0.22049038747778357
-0.22515033039813553 -0.2123797833013615 -0.21116901079645575
-0.20987170789008652 -0.2507724761056981 -0.2261033717774433
-0.18869152519469773 -0.26446837177754257 -0.19284085074892462
-0.2230747476554445 -0.215314119963654 -0.21383348742952765
-0.21155521127944504 -0.24103203406811566 -0.22486758867731513
-0.1952301398253969 -0.26461854568005416 -0.20959783236017646
-0.24203589412932908 -0.19926348319531292 -0.18847525755396308
-0.22274964902167832 -0.2156575619268498 -0.21424855927458228
-0.21112245175605332 -0.2424652873563847 -0.2252098981522602
-0.24548244330649888 -0.1985601781892857 -0.18450230995645941
-0.20861291739707505 -0.25529062738896224 -0.22594679037561835
-0.1872480944133333 -0.2644614576387486 -0.18553013245096625
-0.1882025882936052 -0.2644655703592381 -0.19194943348398627
-0.24855586740737473 -0.19807711234570355 -0.18054058293333472
-0.1873977169728807 -0.26446381202221725 -0.18891470769873084
-0.18698727938895737 -0.26446014633656356 -0.1732919577740711
-0.21701755974059617 -0.2250329702186665 -0.22033352295389594
-0.23256175074344193 -0.2037963419246754 -0.20147686342230262
-0.18672668788199936 -0.26446014633656356 -0.1745124373816532
-0.1992187187409929 -0.26440083971501205 -0.21670158843031348
-0.21469992253547227 -0.22955185165882916 -0.22234351078501166
-0.18839180323844468 -0.2644798754739842 -0.19604534546366156
-0.19298522028689896 -0.26462247958660934 -0.20765969792833747
-0.2163153425193361 -0.2253631203460774 -0.22096861044397773
-0.20383281860118424 -0.2617825268793187 -0.2229748133801502
-0.2402524635530046 -0.19864900401116223 -0.19083241263857306
-0.18616101000075852 -0.2644600569295964 -0.17381551007261695
-0.19303318712478196 -0.2646344899225316 -0.20818475524416388
-0.22501446161037003 -0.21074560275555462 -0.2113430414580387
-0.18587270233397996 -0.2644605933713994 -0.18245389203062476
-0.23389087471728837 -0.2019258438634953 -0.19973922411432685
-0.18920922133689438 -0.26450210800648544 -0.200108445086388
-0.21381059143310105 -0.23003670564175457 -0.22304499784937323
-0.23192730400329148 -0.20320096602917523 -0.20230541268816413
-0.18808421346908127 -0.26448070993901107 -0.1970510993384403
-0.24657679948573624 -0.19694986930371136 -0.18309146801462592
-0.20895221683745896 -0.24716293802738995 -0.22684343794813575
-0.2493770107961229 -0.19682271769524426 -0.1794739876174015
-0.2482977345920137 -0.19679133584977002 -0.180871224799065
-0.2396738514638475 -0.19781874111176342 -0.19160873333445014
-0.20768511149650132 -0.2521623968172154 -0.22753860692015113
-0.1849287137723497 -0.2644605337667546 -0.18255587557783545
-0.24148520681624924 -0.19715136280537457 -0.18920314947596015
-0.19885167333846604 -0.264253705649384 -0.21894996503820838
-0.2521281823850206 -0.1963788866090855 -0.1758886490248722
-0.20935869071250474 -0.24146902552128643 -0.22651835421553076
-0.20768013450866257 -0.25069165220738265 -0.2276970509671253
-0.22330307814841782 -0.21145470431328625 -0.21353755036821784
-0.19782003614669358 -0.26433640709400985 -0.2184005741261524
-0.20227356109386002 -0.2621757983255467 -0.22373179236879767
-0.20036807510619675 -0.2638024686861119 -0.22158642748823584
-0.23798271867995774 -0.1978277861166081 -0.19387502113810004
-0.19026967737441575 -0.2645758389520726 -0.20652579406729163
-0.2245877817607454 -0.20911133280278058 -0.21188593546381415
-0.2288936660028032 -0.20419004550457806 -0.20625019709101142
-0.2111568883395723 -0.23330569258213849 -0.22510797420969428
-0.24683613929515397 -0.1954267918157658 -0.18275620678892554
-0.20226788375144517 -0.2620343565034947 -0.22411180178156317
-0.25253128859763657 -0.19569191327572674 -0.17535782495966376
-0.22573302540545975 -0.20744171729565472 -0.21038908401956977
-0.19906958791976487 -0.26414188733578536 -0.2207308326148075
-0.22832926962142502 -0.20444506397724957 -0.20698261896601142
-0.19664865586524521 -0.2644312082815251 -0.21770683566561164
-0.23603612038856064 -0.1983804403829655 -0.19662139455309333
-0.21216848346953904 -0.22996160378933758 -0.22434095183840216
-0.20839321467643296 -0.24141693106175274 -0.227241492667107
-0.22900417301421677 -0.2033635376978001 -0.20610765258303107
-0.18549999449019944 -0.2644695042657933 -0.195736205973534
-0.21965807530646836 -0.21526721110821576 -0.21779227892389716
-0.20631795975928818 -0.2529679535913548 -0.2284905079983753
-0.21906369778876816 -0.21613110592842907 -0.21845161060324134
-0.23523712012534653 -0.1983354090738377 -0.19778052608004035
-0.18737462017303025 -0.26451036324978683 -0.20211095253458441
-0.20696353766685044 -0.24791528275490612 -0.22836745420923651
-0.1924048051572374 -0.26473820200444076 -0.21263467411032141
-0.2088600680566362 -0.23793217530728192 -0.2268561188363117
-0.2449904963708452 -0.19465506067753643 -0.18503055612078131
-0.2043824926353029 -0.2586469649362645 -0.22784004250994147
-0.20478027913337266 -0.25777322044850204 -0.2282769147538227
-0.1833446905351213 -0.26446163645268295 -0.18890345732202948
-0.23331785056357895 -0.1989627479600987 -0.2004848633193058
-0.18981404456859147 -0.26462855926037643 -0.20908189455500067
-0.23686641309028184 -0.19656240931034893 -0.19541705290308417
-0.22613952908282792 -0.20507948091507763 -0.20985755959978522
-0.2247664913869432 -0.20670524230481 -0.21165709833136023
-0.22057187411551987 -0.21236321321011395 -0.2167763624571842
-0.21722800884013688 -0.21742823710919232 -0.22014257947435797
-0.18762811872725998 -0.2645278870153508 -0.20540306607714118
-0.23833358142142808 -0.19556263080120892 -0.19340471068849982
-0.21590325090652024 -0.21947695305825085 -0.221340454020409
-0.18212902400260483 -0.2644599973249516 -0.17800214032164038
-0.20491236302619492 -0.2551804780054173 -0.22921758035650672
-0.20898908231025254 -0.23413828006268353 -0.226740605034737
-0.22051939222579514 -0.21175187817097516 -0.21683462599745215
-0.1823184773660234 -0.26446115961552474 -0.18786660472383918
-0.242611570689731 -0.19374561300755352 -0.18771753350725592
-0.20152029249434983 -0.2611532806444249 -0.22668043414583625
-0.18176153156524216 -0.2644599973249516 -0.17630097905626715
-0.2076185629106096 -0.2378159462499699 -0.22779918352594794
-0.1850324258542589 -0.2644845544385991 -0.2012499336384815
-0.18193280551200425 -0.2644613086271367 -0.18856006006231726
-0.20679980370765244 -0.24006322017193646 -0.22846207658281745
-0.19312594685321366 -0.264679491429337 -0.21708170215120734
-0.25258558842902695 -0.19304114571095318 -0.17529059092035712
-0.25397440645461594 -0.19318458428860516 -0.17348027864923896
-0.1813942626452974 -0.2644603549528203 -0.18551710883608283
-0.18122032139068162 -0.2644603251504979 -0.18337338308325232
-0.18133453879123246 -0.2644599973249516 -0.17318864802351416
-0.21859502646689927 -0.21342891445637555 -0.21890661756029547
-0.1911112055516771 -0.2646805047082982 -0.21470876673689307
-0.1809321180320314 -0.26446014633656356 -0.1799940083407444
-0.2212761029935411 -0.2094142436075291 -0.2159943048142475
-0.2202738806939653 -0.21074895551682324 -0.21710727254381598
-0.2407654807305864 -0.19332537045956463 -0.1901560787343067
-0.24891643080478226 -0.19209039202214093 -0.18006742636194648
-0.24837870750194108 -0.1920446901607594 -0.1807651285313648
-0.2142653152680925 -0.21958069494248242 -0.2226778928422016
-0.22244241688018357 -0.20740525415421338 -0.21463558713427008
-0.22901317331557786 -0.20000433912754864 -0.20609164873590888
-0.22667395922904526 -0.20221909871579022 -0.20915784577360572
-0.2503732428288988 -0.1919163166570744 -0.1781851861857456
-0.19051021191840684 -0.2646661399889073 -0.21473622957697333
-0.21204075071578538 -0.22335532298565716 -0.2244300011776966
-0.23525065037971055 -0.1951962112474522 -0.19775991777410926
-0.20115500542884385 -0.26004913440228317 -0.22838909069528998
-0.20746928307776963 -0.23395979395390362 -0.22789996007910193
-0.18201096210246598 -0.26446765652180526 -0.19530368486872138
-0.2132286861873201 -0.2203376441288075 -0.22349155584803046
-0.23202788684134995 -0.1967637538004002 -0.20216832200518073
-0.23541334125762498 -0.1944628356981358 -0.19752395788660468
-0.18502116057639634 -0.26450309148312423 -0.20581585804453315
-0.18016756925349747 -0.26446071258068893 -0.18792528549662055
-0.18624031398063218 -0.2645543216753087 -0.20865333715906562
-0.23546361777549302 -0.17898206403733105 -0.19745690266123236
-0.19007544073825394 -0.23440021267414898 -0.24085301796427191
-0.22315110120540177 -0.1902990936327061 -0.21373269597521247
-0.17428687069182908 -0.18092282107354016 -0.2533564333104175
-0.25099140259986435 -0.17914184918881268 -0.17738098541727484
-0.19867063913112198 -0.25450608125210616 -0.23368934432497443
-0.1759887472129396 -0.1996217369127354 -0.25205186645021854
-0.1778074488378099 -0.2406812160301289 -0.25072792808046757
-0.22867050621276414 -0.18886399260044903 -0.20653376618853034
-0.18723663542037522 -0.20165640106678814 -0.2429834667824787
-0.1943584069943956 -0.19840842476368756 -0.23762369791498603
-0.19040384742980515 -0.21871918430806012 -0.24058014790049018
-0.24513396475081956 -0.17456629863262982 -0.18487233559122504
-0.19984435889487778 -0.17393526425839276 -0.23377314845552863
-0.19903677556281602 -0.2095518707323155 -0.2343383047961277
-0.17970067116981064 -0.21402055016041607 -0.24920069316854895
-0.17795397195582902 -0.2644599973249516 -0.17505492905607642
-0.17970067116981064 -0.21402055016041607 -0.24920069316854895
-0.23298138234382187 -0.19086144855500073 -0.2009215120457691
-0.20147996995215928 -0.24929866185665936 -0.23257518450251044
-0.19581957015758072 -0.1959993987369618 -0.2365791265152973
-0.20207927975421464 -0.21980875721455426 -0.23206052819719733
-0.19745373580222642 -0.26036450257778976 -0.23107495049467505
-0.19679415080314194 -0.26334655275822494 -0.22479773203363837
-0.20377203676467454 -0.1730055808115086 -0.23076974491110266
-0.20308053347831284 -0.20303091397763104 -0.23130161205759467
-0.2051984653211168 -0.20141586652279705 -0.22966251412859381
-0.20576573762660538 -0.17225605240345807 -0.22921381036272467
-0.1809684619641832 -0.22016099086285443 -0.24821040669908942
-0.19671323749785935 -0.237767293958672 -0.23599312345018805
-0.19843941781287705 -0.1885535716104588 -0.2347485486649555
-0.25404804799323594 -0.17265526941300244 -0.17338856200209082
-0.19743297848468339 -0.21474334588528485 -0.23545303086271704
-0.2253543272948793 -0.18865321567536206 -0.2109029356621784
-0.2498003527856401 -0.18755337586880536 -0.1789389167212528
-0.18137864622836625 -0.19007852664471478 -0.24789186457624854
-0.17650531086688553 -0.1750062107133946 -0.25166381041040836
-0.22265782806640183 -0.17613545051098675 -0.21436462441912116
-0.19533648941283738 -0.19022564580918164 -0.23691791931620063
-0.18791329715018784 -0.2165253161478123 -0.24246811012258948
-0.19081370386844193 -0.2064252494859776 -0.24026781956186713
-0.1918923393226198 -0.17916920772076458 -0.23946485558977545
-0.23093804571395432 -0.18711677184582562 -0.2036000851773304
-0.1784818008876375 -0.2609035669851384 -0.24412866572370948
-0.1770905390716127 -0.25309821954251144 -0.25081641117563663
-0.1736265406346849 -0.1853148340272984 -0.2538611952446979
-0.21433633420234238 -0.19325986495495648 -0.22262126842966498
-0.1792199895120195 -0.24600517740727276 -0.24973676244249762
-0.19533648941283738 -0.19022564580918164 -0.23691791931620063
-0.24780797812705552 -0.17297951868058056 -0.18150295952787818
-0.18663978430991685 -0.2403932510900578 -0.2436279420041126
-0.18019647750621354 -0.2646049558210454 -0.22215274611940802
-0.20823395106559311 -0.20381388059140057 -0.2272983853005451
-0.2077089235520891 -0.22036343803883404 -0.2276898239039463
-0.17628285143142258 -0.2644602655458531 -0.18746266404619635
-0.17835420224433457 -0.22621452799321026 -0.2502402726792377
-0.2160861775613359 -0.2118002324390492 -0.22117458919516028
-0.24426342401271378 -0.1828847824621281 -0.1858145807169956
-0.1912945196366838 -0.23047029963017315 -0.23991928140154303
-0.18066769692664658 -0.18797974279404492 -0.2484485421561283
-0.18957766744857346 -0.21539723864079327 -0.24120772520533026
-0.1745249167419008 -0.2644599973249516 -0.17449701467981757
-0.22758780274158036 -0.17801880827427716 -0.2079492870949787
-0.21903967711692368 -0.20432910314083905 -0.21847822407713355
-0.21033140871291672 -0.18475812664509625 -0.22572523991098822
-0.17650531086688553 -0.1750062107133946 -0.25166381041040836
-0.20146033022170579 -0.18239782741547436 -0.23254058400621833
-0.1837540552354387 -0.20093309870243878 -0.24606484810343207
-0.23394295427566086 -0.17986828079701275 -0.19966564218035163
