ply
format ascii 1.0
element vertex 661
property float x
property float y
property float z
element face 0
property list uchar int vertex_indices
end_header
-0.2956864521241716 0.2626816631269374 0.0423001881457287
-0.2880156025624803 0.2562817932081142 0.016503476700873966
-0.29857969138389145 0.2620841265630641 0.03502943476209223
-0.30742031190162217 0.24005872020243793 0.015143805346580141
-0.28151839825873887 0.24063479909419208 0.06570195516118585
-0.303354083035045 0.2525336743307033 0.04127337893018305
-0.28495749685531174 0.26125645646571305 0.05139213164815485
-0.2955253407693437 0.25016039618968156 0.08869444688329278
-0.30434071872001206 0.23907125005244403 0.040057622990699406
-0.29869183752303635 0.2627637387227931 0.030256414017768497
-0.2824648008084825 0.2594817281675258 0.0656666990138012
-0.3086345777249864 0.24685460338114887 0.0014510389185863673
-0.2702592894769243 0.24591952571391254 0.09695705135831414
-0.28353595587974106 0.2478148342084804 0.04505472739705622
-0.3052333876824907 0.26069742450236466 0.011976503930183046
-0.30098932835822617 0.24887317428111225 0.0607417758322674
-0.2865939721799425 0.26394248017787125 0.08569126685628473
-0.2839909777379564 0.24492752561091571 0.037089013657661075
-0.29626348469024216 0.2644175888013759 0.00998493393430292
-0.2902672276235155 0.26000159987925675 0.008985334239097231
-0.30721303674941575 0.25863701114176896 0.004218989214988345
-0.2971616968846849 0.24746036538600116 0.08443193992147027
-0.29978558275466477 0.24347245702265888 0.07449933250913202
-0.27581775042777573 0.2479730249357143 0.08379807432660638
-0.29158517572646653 0.2627320290517726 0.025839054188819523
-0.303126393292003 0.24241554746150165 0.048970812163444156
-0.3037089690900377 0.25686001786708024 0.033401691517921085
-0.27415454241996323 0.24328160295008808 0.08800431450376092
-0.30067327472930466 0.2614535094213405 0.0322080787039715
-0.27168422791724717 0.24634355315684467 0.09367060025701104
-0.27464786026244675 0.26226377496241715 0.09583457668790399
-0.2999431774354509 0.24883401402949482 0.073367797932716
-0.27061810943847214 0.24832892426966816 0.09587719400891839
-0.2937321350312761 0.2622013688993373 0.06889336665639459
-0.3002370283341936 0.2468925715398708 0.0709104176379162
-0.27732252928977524 0.24860584744929462 0.0801049109316784
-0.2825334355569414 0.26400423058985856 0.08938729127416192
-0.2943529174066118 0.24429863700389057 0.0912997957087475
-0.28372779342895066 0.2438589931440273 0.04957603772649347
-0.2828053519464067 0.2583065033864894 0.058412545523734684
-0.28599157783752 0.2639361024808803 0.08576136191854059
-0.28767785284286057 0.24493342647074848 0.015084707341285341
-0.2979103610253862 0.2584729195547023 0.07207720836171685
-0.29403617832427537 0.24935704478739887 0.09218307693967401
-0.29633736464744126 0.24815195807933002 0.0866729851580578
-0.2819400117135576 0.23924779901026874 0.06330608685979425
-0.2846838817334703 0.23592782029627948 0.03873001893529474
-0.2867740676141313 0.25891578206538346 0.033815615973563785
-0.29160907718902146 0.24870091685771137 0.09808915217885553
-0.2816148981786302 0.2530337573003688 0.0650348003722149
-0.2849415526128343 0.2627185584020534 0.06950848659047662
-0.2946859583592943 0.25774985560893204 0.0884793337202984
-0.2889984831548265 0.26377052077769425 0.05365457495221674
-0.30808210227256333 0.25627893218516495 0.002883845172019595
-0.30812778923278367 0.24674826869486957 0.010090612969489687
-0.3070773169732622 0.24445688733576923 -0.01409602800836981
-0.30355000350242173 0.2565667630147853 -0.02889058629503668
-0.30016517493491685 0.25534600028514054 0.05831652244100153
-0.3036171183324388 0.24454820165156513 0.04560750087270319
-0.29915347549682175 0.24588382253169208 0.07730417808064996
-0.2889895722604326 0.2437019945096889 0.005402081809135074
-0.30863231274848496 0.24090707311152607 0.00023954471120416526
-0.30076604935889756 0.2468734384488979 0.0629896458006817
-0.29292332980399644 0.255087137312881 0.09373545011052667
-0.28910523507361924 0.23797255763529926 0.003972136578651065
-0.27715536806350266 0.24696701774119525 0.08057355245122491
-0.3030765340066484 0.2496708632421413 0.04992907603749811
-0.2739214286542467 0.23605293044566303 0.08861791451940118
-0.28541859838729416 0.252820611090652 0.02799265941152155
-0.28360578272109543 0.2387157679510036 0.05331566294202387
-0.30470496270423447 0.2509898544263759 0.03582920988568842
-0.2834179684854082 0.24961107978343158 0.04685356577405512
-0.27970090362792527 0.23970162877558857 0.07347115238675653
-0.2857077405190996 0.2631326914739528 0.0722909506178814
-0.2695597395635179 0.24960219869136005 0.0982183154440838
-0.3006934807038835 0.24348264941691547 0.06633874138364373
-0.30840489122634446 0.24332582959651142 -0.006738847889809018
-0.29451507184272324 0.25261056432246354 0.09036146958837091
-0.2839786097741655 0.2551411987256923 0.04056417306432306
-0.2996953711247972 0.2551262379598537 0.07086470087537347
-0.28314629051452195 0.24142777928828388 0.05597805341252863
-0.2786588952279619 0.2432243824911037 0.07665171583661615
-0.28589644882445847 0.2586049438428798 0.03919573982724726
-0.28215053531890427 0.2439631224584499 0.06271996458539544
-0.3065054402089647 0.25183188924311783 -0.01738930384149969
-0.3086765095925859 0.2361556888532558 0.0025536652422863187
-0.28291138860946213 0.2579646111440578 0.05439239104756891
-0.3015095576978258 0.25573664912699845 0.05192323883542597
-0.2814195141530565 0.24037480363368183 0.0662695403910595
-0.2887858137822679 0.23821091660975605 -0.0005438391350787937
-0.306829242441707 0.2571757436704555 0.010865741572471254
-0.30433320853477036 0.258741557688705 0.022858941159339542
-0.29224049899344956 0.26300930985926774 0.02804633339414179
-0.27853476855521714 0.2578572035741725 0.0775339241839367
-0.2952865943646959 0.26156497010707047 0.06518574913510858
-0.29382091614966904 0.26338297137736466 0.022172265849204655
-0.29006409499412095 0.26035082349299576 0.015570365986915224
-0.30063801858192 0.25166159877299454 0.06345044930944024
-0.3038872465825609 0.23775684842585712 0.04349427779683649
-0.3043979689813188 0.24729329356669574 0.039875948033424015
-0.28606599423652207 0.26216590413569596 0.05597659309873163
-0.30594459030395066 0.24940991410731464 0.027974509797187443
-0.30210208747153794 0.2557808757734218 0.0423590477324444
-0.3050228938794664 0.2587730289411464 0.016550147137733097
-0.2824902519918016 0.2642340064954677 0.0935580964899975
-0.2796955392098955 0.24670541295527607 0.07341923674115716
-0.2858399734235338 0.2618867755842128 0.05850812157163202
-0.28706028911834275 0.2564861179304042 0.021931641898246403
-0.3045387551522783 0.24584466228007465 0.03871371706494867
-0.30064302537208115 0.24353259810923725 0.062247031531425114
-0.2911148652768663 0.2547987104368129 0.09868257602223932
-0.300679294798427 0.25358420619486954 0.06019207199582636
-0.30264556262259995 0.23665690431117206 0.05042796691426813
-0.30863115045791184 0.2471103073072353 0.0065970655299144925
-0.2937756762242845 0.24782997378825336 0.09276732166776239
-0.30869898054366623 0.24731820830821186 0.005892389617057437
-0.28259360644584214 0.2457522750806728 0.058958375058265323
-0.278869299624019 0.24509668359278827 0.07595770915517389
-0.30558618757491623 0.24267107257365375 0.03057616313466608
-0.29773878905540024 0.24696969995021015 0.08285116513738214
-0.2811164841390184 0.26129883536814835 0.0774390037871319
-0.2746324226594499 0.2615067363691249 0.09246634801396905
-0.2950516328549913 0.26394397029399064 0.01591684778699457
-0.29618960473304307 0.25836306819438126 0.08267655333051263
-0.28155693266158616 0.2548248172712245 0.06457548697957574
-0.2962593123651079 0.26059234151362565 0.0656490262366253
-0.2976267621255449 0.2615903020811 0.04442148765096247
-0.29929005954032456 0.2591714859914699 0.05566009243497431
-0.299598036739879 0.2578824163389125 0.05886479576596796
-0.28253474685912644 0.24884778270243793 0.0571041341639477
-0.3083866224027208 0.25296831140040543 0.00023510416516839866
-0.2841343269086412 0.25031203040599015 0.03415524323949396
-0.2765316352582506 0.25728994616984513 0.0825017627097088
-0.2851354167199663 0.25401318082331803 0.03030925353536188
-0.27013218257194077 0.23715603360652118 0.09793769677648126
-0.30323141667609727 0.2532064915609279 0.040497147641273136
-0.28558233234649216 0.2570719719839015 0.031169408164115543
-0.2737548038697771 0.2507396937322536 0.08879717548856317
-0.2949394867158464 0.26230883607386735 0.05779012402066767
-0.2961992308831743 0.25958013543604996 0.07940783461103021
-0.28343862149482285 0.24956339606761127 0.04634266456136286
-0.26995691511397873 0.25069230803965714 0.09718563517102777
-0.27207708213096177 0.2376302481603542 0.09310241898068963
-0.2931329593396715 0.261513352484695 0.08684533198842584
-0.27690642926459824 0.23951441058634906 0.0813125308371502
-0.27309775206809556 0.24301421651362567 0.09054093917378961
-0.28845682594543015 0.2517240048360744 0.010548555455299013
-0.296826241943889 0.26179903754710343 0.05301316936978876
-0.2827917918897203 0.26223224410533097 0.07285042961606561
-0.2998456046319536 0.23656463632105976 0.07388167937764703
-0.27554499957328354 0.2585121990156093 0.0865080293036419
-0.2930260882115892 0.2624772191953578 0.07342138250836908
-0.27403223368888413 0.26137250670909074 0.09306468924054681
-0.28626420948272263 0.25077390679835465 0.022189938626380558
-0.28277259919410264 0.24829357871531635 0.050443821749778385
-0.3026384100652269 0.25700724133967545 0.03830691536435663
-0.2949855313039354 0.26175761231898453 0.07163643201360284
-0.2873220429158739 0.2626449466657558 0.05094700416097223
-0.2893738732076219 0.2602053881597438 0.09751226862439691
-0.26970818493133103 0.2530813218068996 0.09765278657445489
-0.3018725797868303 0.26229453095912125 0.018669747910590763
-0.2958945319390825 0.2566827536535182 0.08562880118856012
-0.286759285662227 0.251367449851028 0.02007448037633478
-0.280830262634807 0.2603003979635158 0.07649212440023004
-0.3007099613881639 0.2448878289174953 0.06503590305814325
-0.2841573939061693 0.2569989562940517 0.044750207266898746
-0.279369799826198 0.2559651137304225 0.0752785440302807
-0.3000749335027269 0.2426772714567104 0.07194062431821405
-0.3019847557282976 0.24916064748286396 0.05598282178411066
-0.2831076071000627 0.2585741878461757 0.05334847529897272
-0.2892315373158983 0.26041138181208756 0.09758453925618707
-0.30151137563949143 0.2577714920949855 0.04161074121961176
-0.27596717927222764 0.2615786791753688 0.08836036284932672
-0.3007358894086412 0.2615287900876918 0.03159656485089838
-0.2816604361272386 0.2575791479062953 0.0660571392394024
-0.285470782253795 0.25706535586833146 0.03226515015134394
-0.27363931987052476 0.24744975575923114 0.08910974224576532
-0.2827658936715654 0.2464669943761745 0.0565819378710705
-0.3038736269212297 0.2599062324476161 0.019575768313499088
-0.30598261806731736 0.23693287381648212 0.027402007184119816
-0.30294930789237534 0.2588146925878444 0.03174024184712946
-0.28240880224471604 0.2510929704618373 0.056713902554603214
-0.28849434706931626 0.2603408695173183 0.027617954812141056
-0.3043018862939409 0.24174642571925312 0.04035212954053461
-0.2974581703877977 0.23938977727412372 0.0835209425307232
-0.2842173859811357 0.2638554573964992 0.08409478624829828
-0.2821317896581224 0.25505536803721574 0.055276715359778995
-0.30163019749885117 0.25617629298686173 0.05002644022473871
-0.27629241201644456 0.23661810168742328 0.08280777295598565
-0.29039397690063035 0.26344043025492814 0.06907203157910882
-0.2936979517674974 0.26221001157282975 0.06742157896527826
-0.28723713609939133 0.25000053653239396 0.017050766549201603
-0.3010312006211809 0.2385743261289516 0.05852558573255121
-0.2849634275174669 0.23793655642985492 0.043148421845527286
-0.3067413851953081 0.23970562228678852 0.020886474452109928
-0.29404157254462754 0.24261975297450214 0.09203054865369378
-0.2883841082788042 0.2636265755605617 0.0637310381747204
-0.28431370708709275 0.2493351698827663 -0.031565463938621884
-0.30678364488845383 0.24485290059565692 0.020540737710090275
-0.2983092651105455 0.261197030634872 0.04655390342244684
-0.2825500950551561 0.252036452383987 0.050604575476737614
-0.29059988114600693 0.2595859170865932 0.09463634451398431
-0.307123808596187 0.2545391322088161 0.011867278418632143
-0.30143871757751023 0.2619946003866115 0.024265044531913395
-0.30062392208343064 0.23661971101283222 0.06534987052449762
-0.29181662056212937 0.2614105940771022 -0.0054660801075977145
-0.2917707249856523 0.24201226243495136 0.09755107124814569
-0.29875963780646836 0.24066966781138568 0.0789411302424389
-0.2980458125806383 0.25700145968913224 0.07781266530522882
-0.30059075209861313 0.23783326158045917 0.0661118861056286
-0.2794609949327043 0.2627494932126918 0.08506166299352227
-0.30490192625289475 0.24197590360163837 0.03580143412122309
-0.3070271596646837 0.2505906821203151 0.018038147292228336
-0.2944224164224199 0.263710618109695 0.012311005196662539
-0.29306784126525437 0.26279658088206437 0.04634472092160761
-0.2828819439149431 0.24241119632243305 0.057698601088615055
-0.28489163372283494 0.2577158213567653 0.043775850138755436
-0.2980566010213426 0.26412874469279435 -0.0011130038880389989
-0.2827312335706285 0.2612207532834926 0.06947540601262628
-0.29030185792213 0.26227808007716324 0.04077717026242792
-0.2817334220147661 0.24929249295710712 0.06415348609456598
-0.26994892809157883 0.2588685155820766 0.09887077768811761
-0.2860896870828203 0.25923651465891984 0.040734046301932926
-0.27405810210471665 0.25104880342005875 0.0881639953471142
-0.2925017163491777 0.2524764538717189 0.09547086914548455
-0.2891483888364366 0.26362079391001847 0.058943503699393864
-0.28549444529777085 0.2506527305555263 0.02620273192891657
-0.2817276403642229 0.25475203999995377 0.0625776584959942
-0.2970379874444536 0.25259119281291154 0.08390855153569757
-0.2952741965985826 0.2633512021016994 0.038321756920905704
-0.30261602852111374 0.24840497979640155 0.05311688145169794
-0.29738470766311204 0.26376616963862565 -0.004639929928688413
-0.3021871731019548 0.24932622918605 0.05527611931333124
-0.3046814486718706 0.24807947883128315 0.03775318821439325
-0.2961848661637834 0.2607558966588893 0.06239225824842035
-0.3015155777669481 0.24240750083445697 0.05786388476857721
-0.2943257376885942 0.24209612617015033 0.09135078748235284
-0.27853786799674546 0.2505555749845424 0.07676994164952813
-0.2779434010720781 0.26283633718012955 0.09256836136350213
-0.3072019800878099 0.23940163859843402 0.01669495662221491
-0.2843268797135881 0.2384542227697292 0.03360533078679621
-0.3026725039220384 0.24185127028941303 0.05063640435704767
-0.29264983389144456 0.24102598437785297 0.09540482719907342
-0.29555365297561204 0.26136475810526993 0.0609880920268017
-0.2856432482934526 0.25917500266551163 0.044790947041602726
-0.30175939056640183 0.24450796851634174 0.056003057561011906
-0.28169447037940537 0.262133777232162 0.07656725605496942
-0.30373477790122544 0.25946146258830216 0.024021797976585026
-0.2843748018479875 0.2382919193220058 0.04830431302556574
-0.30363425466781174 0.2609657050084987 0.016421877942176456
-0.27908265444999253 0.23878598222254901 0.07540755828389703
-0.27438655349975144 0.24306637057780414 0.08743911345967828
-0.30867910239463364 0.24600768098353534 0.004145705304237002
-0.30317529890304123 0.24605292090891986 -0.03550759593477667
-0.2715896949506334 0.2528966666173854 0.09357085188397943
-0.28034254762893235 0.2533604503583827 0.07134720047483026
-0.2883784160352281 0.24838000545024067 0.010568701825233095
-0.2938580796456865 0.26296979197978165 0.04627370198735773
-0.28740301582580124 0.24753838786601215 0.016385191283317203
-0.3034946307874254 0.2580164075803676 -0.026502108969597225
-0.29747497889762436 0.2590527535390773 0.05989726742276728
-0.29610055539374863 0.25648379334925797 0.08522366841802179
-0.2867422089314989 0.2528330088567653 0.021161549887748356
-0.302438555691295 0.2628129125547328 0.012435817322822207
-0.3002296969628862 0.23917758473872333 0.0698141988135296
-0.2786560044026903 0.25401389607905533 0.07657038529882013
-0.2801750585771135 0.24919140347956806 0.07156988342771112
-0.28206533047919785 0.2510920167875209 0.06084957083234369
-0.29805359098678147 0.24262458095072895 0.08192064722547113
-0.2775089130139879 0.26130753764628556 0.08261823018559991
-0.2997274384236864 0.24331945189952045 0.0747488375521618
-0.28294813487296616 0.2480430007886806 0.0497808690882641
-0.30061080906158005 0.2439313531827846 0.060872816643806095
-0.2785568520761064 0.24439793834208637 0.07691492994794427
-0.2789500043130449 0.24939197310923725 0.0756319101668316
-0.30509468767409836 0.2528795004796901 0.030940019688697452
-0.3028658315873674 0.257850706667892 0.03428145607480585
-0.29039716574912583 0.26222836980342057 0.023228251538367863
-0.29839953634505784 0.24872052678584247 0.08064731319913446
-0.2845412478185228 0.26291334638117936 0.07430049141416131
-0.3054751441216997 0.24711406239985614 0.03161313494214594
-0.2861015484071306 0.2520341874074855 0.023878687224479313
-0.29487159702544724 0.2617191673231044 0.07635419925221978
-0.28545716259246384 0.24163544187068134 0.025656067929359073
-0.27136069390540635 0.23950856933116108 0.09473618229398309
-0.2997133121228746 0.2563602329206386 0.06840356548795282
-0.2992558762765459 0.24723058948039203 0.07688044866094171
-0.28929874155288254 0.2567322851133266 0.001842134795280093
-0.30103713128333603 0.25800925502299454 0.04493817051419794
-0.3047988102174333 0.2546069026899257 0.03141813834676325
-0.2754027530885271 0.23979562530039936 0.0849710341311413
-0.2828489825463823 0.24790245303630024 0.05393981297978937
-0.28902256343131577 0.23637264976023822 0.001648658118339175
-0.30028235766654526 0.23655283460139423 0.06925704439649163
-0.29553422186141526 0.26218801745890763 0.04735531767377436
-0.28723877522712266 0.24002933511256366 0.01731457670697748
-0.2838299259877733 0.24073272952555805 0.050731801591010685
-0.29177117202048813 0.26263117799281266 0.08478253444203912
-0.28108152601485764 0.25348073253153947 0.06852429469594537
-0.28421467396979844 0.24086427697657734 0.04126959403523981
-0.29842033836608445 0.26008999356745865 0.05408179124364435
-0.28601327392821824 0.24887830028056293 0.023068540892692203
-0.28436308953528916 0.2391694189023891 0.031134956679435367
-0.28964164707427537 0.26010549077510026 0.09678571780690728
-0.30541947338347947 0.23767894515513568 0.0318498547888714
-0.3073458358979753 0.24294096240519672 0.015658342442603702
-0.30873110744720017 0.24008697280406147 0.005410784087272281
-0.2933194622731737 0.26321077355860856 0.013061487279029482
-0.2724708602166704 0.25952130565165665 0.09267046412000238
-0.2889021024442247 0.24252772340296894 -0.00015071670046270486
-0.28892207000022446 0.2639697195005336 0.07819067796239434
-0.2870872602201036 0.25830984124659684 0.027009421191306705
-0.2843514070249132 0.23961418876170307 0.03922947605619013
-0.28764563653235947 0.25340545186518815 0.016755097708793278
-0.3001452371812395 0.24723106631755024 0.07164105137357293
-0.2703527793622545 0.24593740710734516 0.09673812349805413
-0.2931900903916887 0.2545751930189052 0.09315877517232476
-0.30208602401977097 0.25374990710734513 0.05130805929669916
-0.2883445903993181 0.26373416194438126 0.08905630668172418
-0.27973922941451584 0.25311654815196183 0.07352846225270807
-0.2825704798436693 0.24918919810771137 0.05080982407102167
-0.3064054236150316 0.25067681083201554 0.023558610282035465
-0.28686076256995713 0.24517250070094257 0.019112640223594303
-0.2851003095841936 0.24768751868724018 0.027847492299171085
-0.2796971783376268 0.23626631507395893 0.0734896298266369
-0.2916881725526384 0.2624787093114772 0.012757145962806337
-0.2908405050969652 0.26312941321849015 0.08103912433156549
-0.277871517870479 0.2633107305478969 0.09509232004651605
-0.3051894888616136 0.24862015256404071 0.03389182051190912
-0.30166125151877915 0.2627652288389125 0.014509641728492373
-0.29421299550300156 0.2594414950323024 0.0881736512995678
-0.29917481395965134 0.23936796197413593 0.07714226206311761
-0.29911160323386704 0.25745773324488785 0.06666960676679193
-0.2963495835996202 0.24832719573496967 0.08664562662610589
-0.3008071169591478 0.2471160889577785 0.061223768792243595
-0.28957918140655076 0.257873535246841 -0.004047817387489682
-0.3023147866464189 0.2625840307187953 0.014143550000281923
-0.29112976643806016 0.2626488209676662 0.03429728110799372
-0.28014480921989 0.24505341062068134 0.07183288892278253
-0.2869090423322252 0.23831385383128315 0.018807851872535343
-0.2893259510732225 0.25758856544016984 0.005869918665977115
-0.2922745928502611 0.2630549670171657 0.030632102093787784
-0.30242222401862656 0.25495696076869157 0.04449074824819147
-0.26973473880057847 0.25676774987696793 0.09767323096761285
-0.2842375025487474 0.261296272368423 0.06078662832746088
-0.29834717366462266 0.23721957215785175 0.08072822650441705
-0.2864262745118669 0.26242142924784806 0.05348145326146662
-0.2879449710584215 0.23801213511943012 0.013646864495368593
-0.28972205374007737 0.26080381879328873 0.02098693808087885
-0.2841874048448137 0.2623705268812099 0.06884401401052057
-0.3027062997556261 0.26309913405894425 0.009740107855888002
-0.3004561052060655 0.23993182191371112 0.06802954634198724
-0.28752511594062363 0.23944437512873798 -0.01211575309267462
-0.2821865067220262 0.23620951184748798 0.06163206060895502
-0.29575168940787827 0.2381073833417812 0.08797731359967767
-0.27335280034308945 0.2556086183500209 0.08998280128011285
-0.28054839226966416 0.26421082028865006 0.09461640676030694
-0.27804916951423203 0.2621045113515773 0.084631704888435
-0.2881435737348131 0.24207228431224018 -0.00652442018022955
-0.284754423830562 0.239712655634872 0.04303719957837641
-0.3037542984223894 0.24185729035853534 0.044500642619224186
-0.27528413984542405 0.2461904288244167 0.08521624763974725
-0.2826071963048509 0.2593199015569606 0.06367500980863153
-0.28147441003089463 0.23716622600077777 0.06593354900846063
-0.29479405138259446 0.2615001798581996 0.07948010524282037
-0.2880529746747545 0.24924880275248676 0.012432241044135683
-0.28157561871772324 0.24074369678019672 0.06541573365697442
-0.2889626309609941 0.2556785942029872 0.009087287983985537
-0.286049155924373 0.26270824679850724 0.06627639492520868
-0.2911523864007524 0.2632450462293544 0.05089502891072809
-0.2946289465165666 0.26040732869624283 0.08475758989820062
-0.2903897449708513 0.26277768620967057 0.04944964607724726
-0.30539670440917527 0.25012749442576554 0.03208609779843866
-0.28860097977881943 0.250695526690475 -0.004113412299065
-0.27896657440429246 0.2400023342084804 0.0757484074450451
-0.3078007087445787 0.2572280169439235 0.0032725866652446927
-0.27214372012382065 0.2583619953107753 0.09262182672986566
-0.2959236488080553 0.24071651706217914 0.08757066091069757
-0.3063581869340471 0.25435346374034074 0.018941187462897892
-0.2760438308454088 0.255786120982162 0.08322733005055963
-0.2908006891942552 0.2632901073408046 0.07842218240270196
-0.306067226860576 0.24195820102214008 0.0266882713652569
-0.29097676131492173 0.26158297070979264 0.009792440734000795
-0.28791603300338303 0.2640038729619899 0.07761412223348199
-0.2931813583112291 0.2633416653585353 0.02952122052678644
-0.2821409985757402 0.2552186847639003 0.051951193413825626
-0.2988396570420793 0.24303674706935077 0.07859443982610284
-0.2796610877252153 0.26413118848323014 0.09575977285871087
-0.29483595344787156 0.25242602834223893 0.08965750893125116
-0.30075418803458726 0.2371017337751308 0.06338434775838434
-0.28391668054824387 0.2635039688062587 0.09806033333310663
-0.29823338839774644 0.23825961360453754 0.0812212463236767
-0.285822002623134 0.2629868985128322 0.0687472756720501
-0.2840413138604692 0.24296915540217548 0.048669153056235905
-0.29165899607902085 0.25363504895686295 0.09742417295941888
-0.3053096518254808 0.24556297072886615 0.0328085060931164
-0.28185054514174973 0.2641974092435756 0.09626724680432855
-0.27779140922790085 0.2635250092458644 0.09619074424275934
-0.28481042239432847 0.26315069207667496 0.0785410042620617
-0.28063654753928696 0.24818152198313861 0.06989076097974359
-0.28248631808524644 0.24980473527430683 0.05539458354482233
-0.305774270031505 0.24107009181498676 0.029139482579322452
-0.28357338759666 0.25173783311366227 0.03977295120725214
-0.2952807531095079 0.25287884482859757 0.0884558196879345
-0.29318070266013657 0.23753148326396137 0.09411832054624139
-0.28386896703010117 0.2474961281728664 0.0345429118491131
-0.303976117107921 0.2397109867048183 0.04282146056661188
-0.29985782358413254 0.25280988225459244 0.07224571069249688
-0.27483388635879075 0.2578840852689662 0.08781718572148858
-0.27535801980262314 0.2583094836187282 0.08695571979054986
-0.30216747376685654 0.2452266813230434 0.05339463909635126
-0.2725512966847948 0.23890632400035053 0.09193378051290094
-0.30194264504676377 0.2561376691770473 0.047335558734031315
-0.3074417397714189 0.25046944627284196 0.01489617784986078
-0.302349536154323 0.23652374753474384 0.0513498719550091
-0.30714255425696885 0.24708443889140277 0.01728745659360468
-0.284591613743358 0.25611907252787736 0.03641938527593195
-0.3028792128301195 0.253587007613174 0.04299213846692621
-0.2837313399053148 0.2446684242200771 0.042537325224967594
-0.29918864223723923 0.2515072227430263 0.0764885779238659
-0.287671504948192 0.2508816123914638 0.014828884205909365
-0.2949537918305925 0.2614209652852931 0.07848473747739373
-0.29534503671889817 0.2490043044996181 0.08908446987638055
-0.29673266265159165 0.26427352437495377 0.013873183331580751
-0.29670670482879197 0.263907253832809 0.023426168761344547
-0.2885364279485277 0.2630200982999721 0.09138935168752252
-0.2953333542085222 0.2626225353193202 0.044095122418494816
-0.2996449753976396 0.25096964845179703 0.07474189361104547
-0.2932484135366014 0.26313471803187516 0.017660194239707584
-0.2851607784963182 0.24501460799693256 0.027343535027595157
-0.2871212348676256 0.2637994886350551 0.08058538397321283
-0.30136862251525437 0.2572880388212123 0.04712637623319208
-0.3025299296117357 0.25218522557734635 0.05042602976331293
-0.29198717925315415 0.262253463358871 0.08638381322392999
-0.28398695442443406 0.24439609059809833 0.03354229887494623
-0.2990421936250261 0.25660812863825944 0.07420792540082513
-0.2721448824143938 0.24754148730754047 0.09257125218877374
-0.28446915600066697 0.2518600822400966 0.03342168887624323
-0.2841527149415544 0.25772881516932633 0.04540496428975641
-0.2970505938268236 0.2622377277326503 0.04038136561879694
-0.2754382476544908 0.26127004632472184 0.08988302310475885
-0.2801762804723314 0.24150770911692768 0.07174935301312982
-0.27933156344657456 0.2607225776624599 0.07895334919461786
-0.2990199610925249 0.2514015437078395 0.07727723678121148
-0.2986394450402788 0.2631794215154567 0.023153179488273258
-0.30322077724700486 0.24568122634410053 0.048676514229865665
-0.2973150894380144 0.2593434453916469 0.07158806284436761
-0.29110771271949326 0.2631512881231227 0.06628125270375787
-0.30699485394721543 0.2561932803106227 0.010575973591895693
-0.27626284811263596 0.24486309298991352 0.08283313473233758
-0.2869494840837053 0.24626129874705463 -0.01595926920404852
-0.28657904121642624 0.2577496767949977 0.02766638358602106
-0.2761523709035448 0.2478015423726955 0.08298184832105218
-0.29964253160720383 0.25341492900370743 0.07325824459561883
-0.2923738643861345 0.24676013001917987 0.09612458308705865
-0.30430224392180955 0.2586293817472377 0.02402728160390436
-0.3032259628511003 0.2487105132055202 -0.035625046887306576
-0.3000310644841722 0.2592527867269435 0.050085389218421573
-0.28056493255858933 0.2525409460973659 0.07041110952863275
-0.2888773665166429 0.24695390471934467 0.00565143784055292
-0.283201871845775 0.24096834668635517 0.05570160707006037
-0.2980592832303575 0.2504664660406032 0.08188425858983575
-0.306787578795009 0.24157464513301044 0.02046593388089716
-0.278828172419124 0.2632830739927211 0.09335189422139703
-0.30725326988463914 0.24063265332698017 0.01630362232694208
-0.2885383054948381 0.26187819251536515 0.04344516356954157
-0.30570730421309983 0.2581944466543117 0.014003985724540346
-0.2773555800653032 0.25266742715357926 0.07995798548230706
-0.3008061036801866 0.2509414554548183 0.06152033170232355
-0.2843941733575395 0.2363194228124538 0.03415294846067011
-0.27836644503837144 0.23981696376322895 0.07751586397656976
-0.3032238766885332 0.23617416629313617 0.04851599892148554
-0.2970161721444658 0.25974047193049576 0.06099303921231806
-0.3014695927835039 0.25341874370097306 0.054990911088081
-0.28951087448363816 0.2635710836362758 0.08581309875020562
-0.27593973133330857 0.2532933951330104 0.0834506984568554
-0.28777527663474595 0.25082862386225846 0.014149003825278872
-0.3026244029737047 0.25397700080393937 0.0477848883486706
-0.2867147907949022 0.24636679896830707 0.019797169766517277
-0.2994577870107225 0.24991899737834125 0.0760361488676983
-0.28948548290496384 0.26187747725962784 0.09409194549092828
-0.3003311738706163 0.2533491850805202 0.0646770830965954
-0.3008858844972185 0.25666016349314835 0.056500905356498356
-0.276612459156566 0.2408597470235744 0.08202930649289666
-0.29223403188949143 0.24449563035487323 0.09642940124044
-0.29053613397841965 0.263460636229507 0.05213206370839655
-0.2809091195798448 0.2638081909131923 0.08871417602071344
-0.30160987231498276 0.25910693416117814 0.037931882939429874
-0.30471518490081345 0.25808846959590104 0.023516052565665836
-0.2753390059209398 0.24552619466303974 0.08509539922246515
-0.2981068179345659 0.23639738568782 0.08176966866025506
-0.30061682913070237 0.2531412840795436 0.06121208628186762
-0.2889772042966417 0.24972641477107196 0.0009521778441387356
-0.2827404126859239 0.24724942454814106 0.05622061451444208
-0.2831056699491075 0.24657344827174335 0.05261596401700556
-0.2799575612283281 0.2371441126775661 0.07254704197415887
-0.30853792879348313 0.24362725028514057 -0.003092980780510312
-0.3030675933099321 0.2573280931425014 0.03472694118985712
-0.2898670122361711 0.2585264445257106 -0.0025687579297107516
-0.2727820858693651 0.24120205649851947 0.0913164850092846
-0.2907072291112474 0.2623186112356105 0.021887892088981266
-0.28242403123145615 0.25073367366313126 0.056911462149711246
-0.3064564749932817 0.2429558039617458 0.023405545554252262
-0.3051995024419359 0.23918676385401874 -0.022922343411354427
-0.2925242171025804 0.2537480593633571 0.09517505129346429
-0.2963643655515245 0.2641828061056056 0.018894695839973087
-0.2839865967965654 0.25101441154002335 0.03583800157079279
-0.30105572793250596 0.2597963214826503 0.03947969635495722
-0.2846136078572801 0.24087119111537128 0.04633977373609125
-0.28127023432021653 0.25508701810359147 0.06794139107236444
-0.2977538690305284 0.2603068352651515 0.058070772490592594
-0.30686139914756333 0.23967570075511127 0.019794964394660587
-0.2832581088281206 0.2593058944654384 0.05707451065549433
-0.27715515944724595 0.26059502372264054 0.08323755224713861
-0.28035685274367844 0.2622871399831691 0.08081015308866082
-0.2739814207292131 0.24509483584880024 0.08837839325437127
-0.29024261090522324 0.2634679079961696 0.07966690619954644
-0.28680932376151597 0.2454175353956142 -0.01738697926035345
-0.28327685448890244 0.24960386762141376 0.04105972608098566
-0.29981201741462266 0.25467240819453385 0.07040383776197015
-0.28458744141822373 0.2641416789007106 0.09126605947980462
-0.28359675261741196 0.24197566518305927 0.05213790496358454
-0.28760543319945847 0.24419891843318134 0.015565061173530214
-0.2926696524358324 0.2631909848165431 0.05419688781270563
-0.3027760371900133 0.2537301779699245 0.04698260982999384
-0.29631683084731614 0.24049884089945942 0.08658822735318719
-0.2928635463452867 0.24367624530314594 0.0948863263941723
-0.2893720552659563 0.2610925436925807 0.02495949824819147
-0.28105747554069077 0.24456429490565448 0.06841027101049005
-0.30032309744124924 0.26254135379313615 -0.024474597372917538
-0.27989813539748704 0.23600131282328754 0.07276242335805475
-0.2942160651422075 0.26358282575129655 0.024769329629035587
-0.29736962768798386 0.23712950953959613 0.08375876506337701
-0.2910824701524309 0.26229894170283463 0.017704957327933903
-0.2888197884297899 0.24532651910304218 0.007251613936515445
-0.2921273395753435 0.26300007113932755 0.03321375807294428
-0.27421331259971177 0.2517527938795009 0.08782737811574517
-0.2827076003289751 0.24398672589778095 0.058557504019828434
-0.29337185475593125 0.2631077171277919 0.041142278513999576
-0.27234548184638535 0.25342965135096696 0.09187369903096734
-0.30403971526389634 0.24366819867610126 0.04235502441892206
-0.3042269632554582 0.24257755288600116 0.04092048963079035
-0.28627097460990464 0.2581316829633632 0.032336169085593815
-0.2881745383477739 0.24305158862589984 0.01233374436864435
-0.2897047981954149 0.2586839199972072 -0.008882111706642515
-0.2830545589662126 0.23743051299571186 0.0574519272662121
-0.28315281722312485 0.25799369821070817 0.04861699899205744
-0.2911754832006029 0.26339417705058243 0.05669834574231684
-0.2999103054738573 0.26235383758067277 0.028238111338706608
-0.28144022676711594 0.26287609347819474 0.08189039786824762
-0.2883636340833238 0.26405894765376237 0.08313780387410699
-0.3084427699780992 0.2457060218763271 -0.006048477091698056
-0.29905801865821396 0.26145118484019425 0.038617097935767765
-0.29986843321090256 0.24164736279963642 0.07364007195004998
-0.28191828582053696 0.249325692744247 0.06310146411428033
-0.30014821741347825 0.26423889407633927 0.0042222674704509916
-0.2925399527288011 0.26210975656031754 -0.017822450795082455
-0.3061905786729387 0.2477439046811977 0.02582087477216303
-0.30363008234267747 0.24846309432505756 0.04575374086865961
-0.3004665658212236 0.24675023564814716 0.06940364202031671
-0.2895677075124315 0.2624155283880153 0.09188511332044183
-0.30641159269576584 0.24100208291529804 0.023784035048575992
-0.2923467740750841 0.26278674611567643 0.059261852107139225
-0.27501702162986313 0.2441341281843105 0.08590128382215081
-0.30136209580665146 0.23762291678904682 0.056165867648215885
-0.30187556001906907 0.24303942927836567 0.0543117757655102
-0.30389359447722947 0.25834083566188004 0.02899312337407648
-0.28442075702910935 0.24267208585261493 0.030688845715613956
-0.2857021972871355 0.24767786273478656 -0.024069106974510555
-0.2769193932748369 0.24122726926325946 0.08128126820096551
-0.30825838300948655 0.2545948029470363 -0.003458714880852109
-0.30866363498931443 0.23950529107569843 0.001879596314521426
-0.2842189357018999 0.25108009585856583 0.034355485043616886
-0.2997486874795488 0.2566466928434291 0.06313558777341424
-0.2753772721028856 0.255711555571548 0.08492928107747613
-0.28218331787353074 0.2529875637006679 0.05831583698758661
-0.2918187365270189 0.262600839228622 0.004681074223609561
-0.27028339955573594 0.25801116237162736 0.0971579488135296
-0.2837889775968126 0.24513965854167133 0.04096286853322565
-0.30042186233764206 0.2487425208997646 0.07026731332311212
-0.2830979511476091 0.259665846915237 0.06037023027906
-0.2990664229131273 0.2536884547185817 0.0760494705058056
-0.28311508748298203 0.24614530810832172 0.053791427216621036
-0.30286818597083603 0.25039076814173844 0.05052035411366999
-0.3000756487584642 0.24046915778636127 0.07144569715032159
-0.29168325516944443 0.2626405359220424 0.04401787479886591
-0.29751959297423874 0.26443272838114884 0.004655116400809878
-0.30127298686271226 0.24859464177607685 0.05957888921269953
-0.2916751191354326 0.26204842338084366 -0.0001840953015369236
-0.27173614356284653 0.241385817618362 0.09381681045064508
-0.30357488844161545 0.26049178847788956 -0.013246393599419004
-0.2985320970750383 0.25811147698878434 0.06874590476522027
-0.2942337379193834 0.2470850945424953 0.09165295322904168
-0.2824735924935869 0.26181495198725846 0.07209738453397332
-0.29522982094054734 0.26162093886851456 0.07327821215161859
-0.28029098961120164 0.25166696319102433 0.07123654445180475
-0.2915498897767595 0.259837806315414 0.09259932597646295
-0.30435189459090745 0.26232022056101945 0.007403993210883731
-0.3033749744630388 0.24308276185511737 -0.03361830750933111
-0.2827553138471178 0.23981165894984394 0.05924781521329462
-0.28951811644797837 0.2626385689687648 0.0911287899828869
-0.3080230936742357 0.2415522337865749 0.010953718028159731
-0.29857969138389145 0.2620841265630641 0.03502943476209223
-0.28151839825873887 0.24063479909419208 0.06570195516118585
-0.303354083035045 0.2525336743307033 0.04127337893018305
-0.2955253407693437 0.25016039618968156 0.08869444688329278
-0.30078717920547043 0.2550738454770961 0.05625151952275812
-0.30434071872001206 0.23907125005244403 0.040057622990699406
-0.29869183752303635 0.2627637387227931 0.030256414017768497
-0.2824648008084825 0.2594817281675258 0.0656666990138012
-0.2702592894769243 0.24591952571391254 0.09695705135831414
-0.28353595587974106 0.2478148342084804 0.04505472739705622
-0.3052333876824907 0.26069742450236466 0.011976503930183046
-0.30098932835822617 0.24887317428111225 0.0607417758322674
-0.2865939721799425 0.26394248017787125 0.08569126685628473
-0.2839909777379564 0.24492752561091571 0.037089013657661075
-0.30822732898955857 0.25585407027720597 -0.0002179209374469578
-0.2891210303044847 0.26361531028269913 0.06267859896192132
-0.30721303674941575 0.25863701114176896 0.004218989214988345
-0.2971616968846849 0.24746036538600116 0.08443193992147027
-0.28504541370635544 0.24863994130610614 0.028141015372367496
-0.29978558275466477 0.24347245702265888 0.07449933250913202
-0.27581775042777573 0.2479730249357143 0.08379807432660638
-0.29158517572646653 0.2627320290517726 0.025839054188819523
-0.303126393292003 0.24241554746150165 0.048970812163444156
-0.3037089690900377 0.25686001786708024 0.033401691517921085
-0.27415454241996323 0.24328160295008808 0.08800431450376092
-0.30067327472930466 0.2614535094213405 0.0322080787039715
-0.27168422791724717 0.24634355315684467 0.09367060025701104
-0.27464786026244675 0.26226377496241715 0.09583457668790399
-0.28897422406440293 0.24193716058253437 0.0012232001639324367
-0.2999431774354509 0.24883401402949482 0.073367797932716
-0.27061810943847214 0.24832892426966816 0.09587719400891839
-0.2867441460824541 0.2453116775464931 -0.017942196526436215
-0.30408325645690476 0.23879265794276386 0.04201018174657404
-0.28908094618087327 0.25104230651377824 -4.324952593267556e-05
-0.2937321350312761 0.2622013688993373 0.06889336665639459
-0.3002370283341936 0.2468925715398708 0.0709104176379162
-0.27732252928977524 0.24860584744929462 0.0801049109316784
-0.28637820336585557 0.2420833707761684 0.02133023103246271
-0.2825334355569414 0.26400423058985856 0.08938729127416192
-0.2943529174066118 0.24429863700389057 0.0912997957087475
-0.28372779342895066 0.2438589931440273 0.04957603772649347
-0.2828053519464067 0.2583065033864894 0.058412545523734684
-0.28599157783752 0.2639361024808803 0.08576136191854059
-0.3006333992219499 0.2619386316251674 -0.030094659724144344
-0.2979103610253862 0.2584729195547023 0.07207720836171685
-0.29403617832427537 0.24935704478739887 0.09218307693967401
-0.29633736464744126 0.24815195807933002 0.0866729851580578
-0.2819400117135576 0.23924779901026874 0.06330608685979425
-0.2846838817334703 0.23592782029627948 0.03873001893529474
-0.29160907718902146 0.24870091685771137 0.09808915217885553
-0.2816148981786302 0.2530337573003688 0.0650348003722149
-0.2849415526128343 0.2627185584020534 0.06950848659047662
-0.2946859583592943 0.25774985560893204 0.0884793337202984
-0.30170485231643235 0.2638641000699916 0.007450306019874209
-0.2889984831548265 0.26377052077769425 0.05365457495221674
-0.28563710901504075 0.23882055291651874 0.02470629771718561
-0.30016517493491685 0.25534600028514054 0.05831652244100153
-0.29915347549682175 0.24588382253169208 0.07730417808064996
-0.30076604935889756 0.2468734384488979 0.0629896458006817
