ply
format ascii 1.0
element vertex 553
property float x
property float y
property float z
element face 0
property list uchar int vertex_indices
end_header
-0.16565416607623612 0.2360358239126125 -0.259574985899834
-0.16336873028045212 0.23688828954219013 -0.26130450407495914
-0.16527116153007065 0.23936963090418964 -0.2598659757756275
-0.16974295530086075 0.2373366952848354 -0.25682444015970646
-0.1615103617644838 0.23662829408167987 -0.2627403501652759
-0.16130654368167435 0.23776894816874652 -0.2629014615201038
-0.16233828518157517 0.24086421737193256 -0.2621046666287464
-0.16120649728541886 0.2397785783719936 -0.2629831198834461
-0.16912029537921464 0.24182820329188495 -0.25722242037287174
-0.16615451726680314 0.24331462392329364 -0.2591911319874805
-0.17097802314525162 0.24053728589533954 -0.2559361819409412
-0.16752771887546097 0.24487078198908954 -0.2582222882889789
-0.15832364413505112 0.23691612491130024 -0.26510033647051273
-0.16584718081718003 0.24574810275553852 -0.25943124929895817
-0.1583505705333284 0.23930853614329486 -0.26508966723909794
-0.17072343680625474 0.24463880071162372 -0.2561321024083179
-0.17104671749835526 0.24435782441615253 -0.25588015357485233
-0.16477653238540207 0.24669748553752094 -0.2602697078370136
-0.16039556119208848 0.2445577383947292 -0.26360101143351017
-0.16964799020057236 0.24626123914240985 -0.25688717404833256
-0.16710652265315568 0.24855637559413105 -0.258553451695351
-0.15697043988471543 0.24292361745356708 -0.266003585257439
-0.16039316210513627 0.24724340447901874 -0.263599998154549
-0.1639876351094774 0.2494603992414394 -0.2609194580697101
-0.16791836771731888 0.24956631669520526 -0.2580539349698108
-0.15423728379970109 0.23793166884898334 -0.26765195170870243
-0.1617121234870485 0.24924880275248676 -0.2626403037690204
-0.15914583060508286 0.24769729384898334 -0.2645336155079883
-0.15940721187358414 0.24815815696238666 -0.264334267773537
-0.1728449598289064 0.2475796938848415 -0.25448042789926945
-0.15460455271964585 0.2413366437864223 -0.2674711112164539
-0.1561019853091768 0.24483621129511982 -0.2665744785450977
-0.16393014642959153 0.25083351144313004 -0.2609822813653034
-0.15807418379550492 0.24784725913523822 -0.2652489308499378
-0.15305690321689164 0.23697656402110248 -0.26822373906603275
-0.17137493047481095 0.2498975397062221 -0.25559789577951847
-0.1605001673436693 0.250668466181747 -0.2632949713849109
-0.15592868480449235 0.24671363839625507 -0.2666834060334247
-0.1522543564773134 0.23918575057505756 -0.2686133448266071
-0.16970321390395676 0.25177812585353043 -0.25666481892099796
-0.1519847944713167 0.23881548652171283 -0.26874399820795475
-0.16407370421653306 0.25307846078395035 -0.26047203580370365
-0.1667695626950792 0.253766656012527 -0.2586403552674335
-0.16148039552932297 0.2531920076322475 -0.2622278396271747
-0.15311701450114762 0.2460857630681911 -0.26821548382273136
-0.16583189222579514 0.2546582222890773 -0.2590911153935474
-0.15361222479110276 0.247763991446487 -0.26799417177668033
-0.15686097595458542 0.2514362336110988 -0.26592133084764896
-0.1667422190642885 0.2552245260190883 -0.25841308275690494
-0.17205333564048325 0.2536947132062831 -0.2548392478608173
-0.14915329072242295 0.24012362966059833 -0.27002451459398685
-0.15111535641913926 0.23654335746287494 -0.2450465623520893
-0.15139350149398362 0.23768001803874164 -0.24482066074839057
-0.15614513907199418 0.2533677817296901 -0.2662268344544452
-0.15321545157199418 0.23669177302836567 -0.2427589211844486
-0.15329392108684098 0.23596006640910297 -0.24268451968660773
-0.1585021749473146 0.2553085685682216 -0.26394451300135074
-0.149881719086223 0.23888438949107318 -0.24594160059919776
-0.14863794896369492 0.24286335715769916 -0.27024105826845585
-0.14965292665725266 0.2397240401220241 -0.24607632199755133
-0.1554085448718599 0.23993182191371112 -0.24069616834154547
-0.1726640299296907 0.25609654197215226 -0.25386208931436954
-0.15694524202113663 0.2397392989110866 -0.23956919352045478
-0.15373259637122666 0.24220192441462665 -0.24197692314615668
-0.14646223041778123 0.23918765792369037 -0.24852164725294532
-0.15313093218570267 0.24364465484141498 -0.2425096992634815
-0.15076923224692856 0.24386882791041523 -0.24458245078554572
-0.15079058561091935 0.2498103977155605 -0.26944110433092533
-0.14632893953090226 0.23679333934306293 -0.27121255437364994
-0.1569940284228853 0.24230843791484027 -0.23954018095961035
-0.1498359576201967 0.24425625810145526 -0.2454885903977436
-0.14650474343066727 0.2400476337385097 -0.27113915125360905
-0.14705903682475602 0.24201494464396625 -0.2478725675725025
-0.16748727712398087 0.25845873364924576 -0.2560212079667133
-0.159673480722957 0.23616993436335712 -0.23754200974932135
-0.1590377226806215 0.23987287292002826 -0.23803036550512732
-0.1596662387586168 0.23868036279200702 -0.23756169418325843
-0.1572921410537294 0.25753384837626603 -0.262848592200188
-0.14590674493079697 0.24214613446711689 -0.24868192414274634
-0.15908790979152237 0.24220532187937885 -0.2379994008921665
-0.1663217529988817 0.2593758107137599 -0.25704289118280826
-0.15450347814326798 0.24593114861964374 -0.24137700239649237
-0.14829414937263047 0.24568790206431537 -0.24695137778749884
-0.15665818605189835 0.2574658990812221 -0.263598001398949
-0.15276211354499375 0.25396108636378434 -0.267957634129433
-0.14489954564338242 0.241252601237289 -0.2494241360806507
-0.15532947931056534 0.24624687442301899 -0.24077428022852362
-0.1480802134013704 0.2478448749494472 -0.2705149118088764
-0.15340901765590226 0.2474411130857387 -0.24227247277727545
-0.14652317616706406 0.2457113266897121 -0.24805604557028235
-0.14332485053306138 0.23778098830699115 -0.25002849737635074
-0.1623972788787416 0.23902523526667743 -0.2355301443718952
-0.1507270321584276 0.24809128055094867 -0.24442390243044318
-0.14646170887713944 0.2458232046079555 -0.2711525622986835
-0.1501709357238344 0.25237607964991715 -0.26929745713701664
-0.16302811953788315 0.2380068303060451 -0.23507476488581122
-0.1485956147647432 0.24856936940669208 -0.24658245483866156
-0.1428289994931749 0.23965150126933246 -0.2502630118512195
-0.17201363894706284 0.2592681051206508 -0.2530750993870777
-0.155018357965999 0.25775027284144547 -0.26573771873941837
-0.14731371257072007 0.2487420440626064 -0.2708314422749561
-0.16869164857631241 0.2601799965810695 -0.25367364922991215
-0.15877312276130234 0.24739068755625873 -0.23821783701410712
-0.16126386675601517 0.24470198163508564 -0.23636849860182227
-0.14360321912532364 0.24337321528910785 -0.24983353058329047
-0.1483451858497194 0.24928444633006244 -0.24682470301618994
-0.15877161774402176 0.2603800893735805 -0.26011503378382145
-0.1581466630435518 0.2602024675321498 -0.2605145637177509
-0.16220237169032609 0.24372714766978412 -0.23566707114210547
-0.15145538601642167 0.24992507705210834 -0.2437415484570545
-0.15456680807834183 0.25797796258448746 -0.2659886244916004
-0.1640176460481218 0.26137346038340714 -0.25766388217440067
-0.1655580833888582 0.26128411302088883 -0.255961841740517
-0.15489099774127518 0.25844204434870865 -0.2653019491814655
-0.16094809624915635 0.26111447820185807 -0.25864822308054386
-0.1454021618104509 0.24597591170787006 -0.2715918783330005
-0.15650662634139573 0.24975693234919696 -0.23986690381994666
-0.14566941413646256 0.24781888732432514 -0.2484681371830982
-0.14354194555049454 0.23924845466136127 -0.2723594967507404
-0.16488079581027543 0.23675131806849628 -0.2338517222785038
-0.16407324228053605 0.24121230849742084 -0.23438677827349128
-0.14078464958434617 0.2377179265928188 -0.2509753767632526
-0.1695507899261049 0.26126593360423234 -0.25269103685846744
-0.1428064689374498 0.2455316186857143 -0.25003332535257755
-0.15981006476645981 0.262004017920486 -0.258482730784325
-0.14112618419890915 0.2419601083707729 -0.2508850757264179
-0.1552111789918474 0.25245678433894303 -0.24115768710604132
-0.16350336227183854 0.2624539733838954 -0.2556468013905567
-0.16243912133937394 0.2625026703786769 -0.2565476957940143
-0.14010830077891862 0.23750483998774677 -0.25124696532717167
-0.1586720034814409 0.2620991469335475 -0.25854260365000187
-0.1467418060041002 0.25134521731852677 -0.2476790759944004
-0.15292455110316788 0.2588977218580165 -0.26667950192919193
-0.14190333935981309 0.24562662848948627 -0.2504348222397846
-0.16483497473960435 0.24489200124262958 -0.23387359718313636
-0.15877328667407548 0.2514069677305141 -0.23815161625376166
-0.16664695594077622 0.2621541620206752 -0.25149650017252384
-0.15385401103263413 0.2537029386472621 -0.24232072273722113
-0.16653369221454178 0.24165898570536762 -0.23276463786592902
-0.16296425316100632 0.2484472394895473 -0.2350798908852619
-0.14198426756625687 0.24120575198649555 -0.2729936007641834
-0.13929918262725388 0.23904550084590107 -0.25156209508409916
-0.15766285214190995 0.25298565635203507 -0.23910368124475898
-0.16569448861842667 0.24510020026683002 -0.23331002036562384
-0.15284003171687638 0.25482231387614396 -0.24339250365724982
-0.15922023210292374 0.2524027825307765 -0.2378269944571537
-0.15360565337901627 0.26114839324473527 -0.2632310752057117
-0.15677276108031785 0.2626906634282985 -0.2573867205761951
-0.1684492066836885 0.23607194432734638 -0.2315205101155323
-0.13854865584140336 0.23831576117991596 -0.2518511776112598
-0.13867020461326157 0.23969471463679462 -0.25180459658136783
-0.16500086936717545 0.24780941018580585 -0.23372060696115912
-0.15231987688308274 0.2561327219915309 -0.24421853462686957
-0.14132599386935746 0.24264436969279438 -0.27325943747988163
-0.16228656325107133 0.26328778275965836 -0.251035905280022
-0.14679683599238907 0.2550638915014186 -0.27027378121843754
-0.16852226707702195 0.2628611923170009 -0.24912325183382453
-0.14969843480353867 0.25612902650355485 -0.24619779626360358
-0.16939735266929185 0.2628147006940761 -0.24921104947557868
-0.14535897824531113 0.25319713363169816 -0.2711382869862598
-0.14289936277633225 0.24841028460978656 -0.2726295951985401
-0.15670887980227982 0.25603920230387833 -0.24052128831377448
-0.15579189214473282 0.25669431695460465 -0.2417099539422077
-0.1627700463271669 0.25163328656672623 -0.23525214830866278
-0.1396871641612581 0.24614113578318744 -0.2514007155083698
-0.14603954407935654 0.25437790164469865 -0.27075011173716007
-0.1425499901509813 0.25085484990595963 -0.24991092721453131
-0.16283649060493027 0.2632440329503932 -0.24958006183138312
-0.14042895886664902 0.23994606742381244 -0.27362394968500553
-0.14927638921504532 0.2565103770208278 -0.2467136148594898
-0.14226306829219376 0.2474428416204372 -0.27288252750864445
-0.1423194244838289 0.25097537049769547 -0.25002071897020756
-0.14676499221091782 0.25605320939540055 -0.2699060205601734
-0.15815904590850388 0.2634577752065578 -0.2518369321011585
-0.13707609328990494 0.23731112489222675 -0.25241858402719913
-0.13877266499763047 0.24542808541773944 -0.2517630521439594
-0.1570637509561113 0.26378703126429703 -0.25422564784517704
-0.17030198726420914 0.23706763991831928 -0.23040334025850714
-0.16741506609683549 0.24719351539134174 -0.2321283880852741
-0.1683990791774324 0.24559372672557025 -0.23149499932756842
-0.17008100304370438 0.2411898971509853 -0.23046067992678107
-0.17072939727073227 0.23741525420664936 -0.2301222745560688
-0.13951581570869004 0.24814969310282856 -0.2514353756093067
-0.1400570109820894 0.24246054896830707 -0.2737673882626575
-0.15882350358729874 0.2635533214521327 -0.24978539983263434
-0.1587952658868364 0.2635530830335536 -0.2495324079178852
-0.1527622327542833 0.263086199851028 -0.2565174762391132
-0.162521301243358 0.26376032838343766 -0.24809428194990576
-0.1514214113688997 0.2587947846364894 -0.24578804413309516
-0.1664445087647966 0.26337474593638566 -0.24659613410463752
-0.16595229360824143 0.25059175500392106 -0.2330201927804035
-0.1526147112584642 0.2631734014463344 -0.25622478763094364
-0.16064005944495713 0.25606989869593766 -0.23739571014872016
-0.13808551285033738 0.24621313819407611 -0.25201938191881595
-0.14757308218246018 0.2590057850789943 -0.26792926231851993
-0.15541536960368668 0.2597001791906276 -0.24341148773661078
-0.15334625396495377 0.26056927451609757 -0.2464293007039112
-0.15696409199004685 0.2621150017690578 -0.24628195802202643
-0.15736690017943894 0.2629098297071376 -0.2475816671036762
-0.17061944160228287 0.24256193646907 -0.23011683563223304
-0.15265029523139512 0.26078492412089493 -0.24715459982386054
-0.15575909468894517 0.26013481626032975 -0.24343023339739264
-0.14926564547782456 0.2611233592939296 -0.2660532657288593
-0.14203958067660843 0.25342220077037003 -0.2503737870835346
-0.15095499012237107 0.2625017763090053 -0.26502741018763004
-0.15702287707095658 0.25999164590357926 -0.24225827197065772
-0.14731502387290513 0.25828748950480607 -0.24871226290693701
-0.15271076414351975 0.2626494766187587 -0.25095028320780216
-0.1462178811765245 0.2574336529683986 -0.24882487098207892
-0.14431910071139847 0.25605005034922745 -0.24965558091631354
-0.1610850230193666 0.2631334663343349 -0.24544139842024268
-0.15159523341422593 0.2623661161374965 -0.2515288356923145
-0.15101381990676438 0.2630757094335475 -0.25605697075357853
-0.14515395316844498 0.25689750918864396 -0.24935952464571418
-0.1529543236232332 0.263718843550674 -0.25389165321817814
-0.16998325142627274 0.262949526400558 -0.24472062925329627
-0.1651133880353502 0.2532716394376674 -0.23366574088564337
-0.1507841632104448 0.2624143362951198 -0.2520158950470966
-0.16001511964564835 0.25834828624247697 -0.23846996466150702
-0.16042512509589707 0.26113969096659806 -0.24147032836904944
-0.1443844125009111 0.2565321327161708 -0.2702423993729633
-0.16194620582824265 0.26280683288096574 -0.24348438421717108
-0.13493282947307145 0.23902875194071918 -0.2532447640084308
-0.16096956882243668 0.25845390567301896 -0.23792923132410468
-0.1383893922305635 0.24152660378932148 -0.2744347218655628
-0.16045157465701615 0.25942230233668473 -0.2390050653599781
-0.14723136875396287 0.259528637022964 -0.2492473487042469
-0.16592344496017014 0.2632246614408412 -0.24337764719953955
-0.14938388619189774 0.26322412499903824 -0.2610394124173206
-0.16936246905093705 0.26321971425532487 -0.24343780318727912
-0.1633772388434938 0.25747662791728165 -0.23611102143755378
-0.1645870939231447 0.2554073334646144 -0.23419094721308173
-0.17025384161239182 0.24741333732127338 -0.2300270859383625
-0.16306501481299912 0.2626513839673915 -0.2419935826443714
-0.14575634751086747 0.2597236634206691 -0.26795462409487186
-0.17250554117923295 0.24221503743647724 -0.22878692189684333
-0.13526004407172715 0.24486202010630756 -0.2531119052552265
-0.13385896239047562 0.23695129165171772 -0.2536584500454944
-0.14537446055179154 0.25990015277384904 -0.25070545712938724
-0.1401153937316469 0.25070536145686295 -0.273791408934502
-0.13934349868064438 0.249043345541946 -0.2740847531937641
-0.16716573986774003 0.26346093425273087 -0.24171040097704352
-0.13850742432837998 0.2530332804632106 -0.25247106591692386
-0.14236003014808213 0.25537145146845963 -0.27222982684603153
-0.14331288490062272 0.25757062444209244 -0.2704073254250568
-0.1476861670947603 0.26345562943934586 -0.25718263427248417
-0.16556253883605515 0.2563003302526393 -0.23365903536310614
-0.14739893231158768 0.26325339087962296 -0.26257634798517643
-0.1477483943439058 0.2636926771116176 -0.2600773636483234
-0.16726371500258957 0.2631179691266933 -0.2408326778792423
-0.14199189696078812 0.2576234937620082 -0.25138018170824467
-0.14345007989173447 0.25879710921763566 -0.26906973759165226
-0.16632564220195328 0.2617577315282741 -0.23857772985926093
-0.14748838398223435 0.26382142314433243 -0.2609700922154468
-0.13834878656631028 0.24791890391825824 -0.2744750742100757
-0.17047603282695328 0.26359516391276505 -0.24149978796472968
-0.14566483947997605 0.2624167800855556 -0.25509590546122013
-0.1431547686791948 0.2597053051900783 -0.2523482505463642
-0.168820990655475 0.2533789874029079 -0.23102197686663092
-0.17031094286208665 0.2510254383993068 -0.22982562223902167
-0.13248856220012223 0.23930084714411884 -0.254266387619881
-0.13590445968871628 0.2505444885206142 -0.252832061448006
-0.16917183849578415 0.2631241680097499 -0.2396149400853199
-0.14446377608542954 0.2621825338315883 -0.2557210687779468
-0.13575272116427933 0.23750978717326313 -0.27549029032221256
-0.16893812868361985 0.25425314912318375 -0.23098172883024634
-0.14558157179122483 0.26351624736308243 -0.26168454329004703
-0.14132997247939622 0.2566259504270473 -0.272427803673653
-0.13314907107120072 0.24567627915858417 -0.25395534078112064
-0.16785278770690476 0.2617784739446559 -0.23685026804438056
-0.14252492639785325 0.2610858679723659 -0.25475752989283024
-0.13753817829852616 0.24899989375590473 -0.27481166163912235
-0.16737122688060319 0.25915563115595963 -0.23400587479105414
-0.13496728095775162 0.2507248521757045 -0.25333557168474613
-0.17132571193938767 0.26272565135478165 -0.23820280174246253
-0.1422472283578447 0.26144969472407487 -0.2557347182416004
-0.1705091581082872 0.25301986941813615 -0.22957555095186652
-0.14376285526519333 0.26293277749537614 -0.2631482545517963
-0.13911028060679947 0.2578601242017665 -0.25366590062609135
-0.14358919713264023 0.26266634473323014 -0.26404184738626896
-0.13246627006297623 0.24558579930781513 -0.25426102320185123
-0.142068757150226 0.26174420127391007 -0.256684577860741
-0.1374874547458223 0.2559806109380641 -0.25370315352907596
-0.17251427325969254 0.26302039632319596 -0.23830326537123145
-0.1686238780952028 0.2604696155500331 -0.23440063635340155
-0.13473249826198136 0.24044722327708393 -0.27590981761446415
-0.1311790481544069 0.24222403773783832 -0.25484982768526493
-0.1382022187448076 0.2576113940191188 -0.2539881829403919
-0.14176031801467454 0.2622411848020473 -0.2581174735211414
-0.1304570272899202 0.23779553184031635 -0.25517091790666996
-0.13037644181018387 0.2359389067602077 -0.2552066806935352
-0.131277604434543 0.24383223065852314 -0.2547999982022327
-0.13792046758895432 0.2528738976430812 -0.2744777564190906
-0.13433846685653245 0.24073725947856098 -0.2760709885739368
-0.14239550981288468 0.2630952001523891 -0.26264021436205326
-0.13122685107951676 0.2453250289869228 -0.2548154656075519
-0.17081567499404465 0.2558808327627101 -0.22995095590582312
-0.13969021889930283 0.2574246526670375 -0.2729819778584522
-0.17003464553123032 0.26090818652629044 -0.2335479621075672
-0.13361115607982194 0.23920106896876484 -0.2763650480889362
-0.13945859524970566 0.261027991862289 -0.2562168900155109
-0.13234099600081956 0.2501639128637233 -0.2544066671513599
-0.13579220924144303 0.24983102092265277 -0.2755184833191913
-0.14090193662410294 0.26257044085978654 -0.26440883318415104
-0.13296350691085373 0.25205755242823746 -0.2547045413636249
-0.135476960275226 0.24960005292414814 -0.2756415669106525
-0.13361638638740098 0.24430978307246357 -0.2763609353684467
-0.12868681404357468 0.23827481278895526 -0.25595930854311405
-0.1387130007482103 0.2617217899274745 -0.25839806238642155
-0.14006607088809525 0.2608862520170131 -0.27063218394747196
-0.1282125398850969 0.23656857022761493 -0.25616855064859806
-0.17194923612838303 0.26028567561625626 -0.23151752988329352
-0.1380374715066484 0.2617930770826259 -0.2589465145253223
-0.13837335858111893 0.2622343898725429 -0.2599099938057941
-0.13277533504729783 0.2440922261190334 -0.27670372168054996
-0.13671728822951829 0.26064586648463395 -0.25674093405237614
-0.13766704354053055 0.2577933073949733 -0.27377120295992313
-0.13619834038978135 0.25552088031291154 -0.27476731578340946
-0.1336989239192537 0.2574440837812343 -0.2562241319798511
-0.13792116794353043 0.26245731124400284 -0.2666691903256458
-0.1304012969470552 0.2524197698545375 -0.2558758620404285
-0.1344528779721788 0.2532474399518886 -0.2757897738598865
-0.13503718230491196 0.2606658340406337 -0.25767750183573185
-0.13112485263114487 0.242887020201675 -0.27733731905451237
-0.12683763954406296 0.24238383779048114 -0.2567531828068775
-0.12737917754416977 0.24508243808268695 -0.2565099362515491
-0.13150083873038804 0.24501001843928485 -0.27719179431429325
-0.13831488642459427 0.26214605578898575 -0.2709064845227283
-0.13789130601649796 0.2626577020597377 -0.2691859368466419
-0.130292354557567 0.23767459401606708 -0.27763212362757145
-0.1305050090289644 0.2425258756589809 -0.2775673333787006
-0.13564492616420304 0.2624867559385219 -0.26321769396295963
-0.13000209483867203 0.24022573241709858 -0.27774769703379093
-0.13636405620341813 0.26057833442210343 -0.27250955144396244
-0.13330739590888535 0.2600598932218471 -0.25729284326067386
-0.13453370187049424 0.25655573615550187 -0.27523232141962467
-0.12627519521480118 0.24507647761820942 -0.25698412100305973
-0.13551124784713303 0.26272255191325333 -0.2643260721348804
-0.1336241051888994 0.2553560138654628 -0.2758963171624225
-0.1327182486987642 0.2601644993734279 -0.2576226059578937
-0.1323350802398256 0.25335508594035294 -0.27663130203714786
-0.12434910092120682 0.23592805871485859 -0.25781074801912723
-0.12693549546962296 0.25063949832438615 -0.2569073800229114
-0.12588021013503586 0.24772775182246357 -0.25713501016130863
-0.12923385057216202 0.256222665400497 -0.25734496752252994
-0.12763960513835465 0.2543901802015224 -0.2575717333935779
-0.12787428352599656 0.23628515014170795 -0.27853018681040226
-0.12948784086471116 0.25821733483790543 -0.2576706174992603
-0.13445277366405045 0.2637050152730861 -0.2679577235364002
-0.1313819870687059 0.2614208460760036 -0.26119164268007694
-0.1306709185576967 0.25287377843379166 -0.27738431731691776
-0.1329718068576387 0.26307106027125504 -0.2648036841534656
-0.1267617330289415 0.2536448837232509 -0.2575667266034168
-0.12878931913142716 0.2469921112966457 -0.2782263521336597
-0.12341514084106003 0.24324756869792133 -0.25820717851152836
-0.13351492438083207 0.2613219619703212 -0.27280525008669315
-0.1334949568248323 0.2639033199262538 -0.2675616804741901
-0.13328116986518418 0.26313889035700944 -0.26946411172380863
-0.12306122336154496 0.2444610596609035 -0.25835619012346683
-0.1277206376529268 0.25742548713206437 -0.25826052466860233
-0.13074010464911973 0.2565401793432155 -0.27618957201471744
-0.1245455876327089 0.2513502241086879 -0.25765589515200077
-0.12656323466067826 0.24114137897013813 -0.2789956096791309
-0.13096538040404831 0.2628912330579677 -0.26489392558565555
-0.12877824756866013 0.2518103719663539 -0.2783416275166553
-0.130161060426288 0.25727337607859757 -0.27604637185564457
-0.12676381919150864 0.24597716340541034 -0.2789617244385761
-0.1256139710879854 0.23933637151240497 -0.2793242994927448
-0.12817992124324357 0.26070737847804215 -0.26095453540316044
-0.1313280001617006 0.2639114261579433 -0.26735330263605533
-0.12862518284087693 0.26149070271968033 -0.26197732130518375
-0.1309760645366243 0.2629558444929042 -0.2700284783028644
-0.12254963669543778 0.2495124937009731 -0.25852159301271854
-0.12055733654265915 0.24100911626338153 -0.25941020885935245
-0.12023903283839737 0.2374793291997829 -0.25954420010080753
-0.13081472966437852 0.261807382197372 -0.2732999686383289
-0.12922528240447556 0.26322680720805314 -0.2659747962140125
-0.12833501252894913 0.2555378676366725 -0.2781350974225086
-0.1258350745177797 0.2592159510564723 -0.2606971625470203
-0.12384365353351151 0.23730480679988056 -0.2799406711243671
-0.11886244866614853 0.23587244758128315 -0.26012346784105717
-0.12688013765578782 0.25446480521678116 -0.2788898114346546
-0.12428088340526139 0.2456699014615932 -0.2798641387604755
-0.12539486441379105 0.2500573993635097 -0.2796045009278339
-0.12532169971232926 0.2604837418508449 -0.2619655493878406
-0.12762187275653397 0.25697720059870865 -0.27824950853815494
-0.12051820609336411 0.2503177524518886 -0.2593587700509113
-0.12785367522006547 0.25805258759974625 -0.2778931323670429
-0.1180748775935701 0.23837053784846454 -0.26045147220125614
-0.11961975548034226 0.24844855079173236 -0.2597560052060169
-0.12303633842235123 0.24198144683360248 -0.28024522105684696
-0.12767618748908555 0.2627294064474025 -0.2711683873318714
-0.12241826805835282 0.23779243239878803 -0.28046754638185917
-0.11761475953822648 0.23772835740565448 -0.260643101134209
-0.1275866911149553 0.2611185313177028 -0.2750867370747608
-0.12607721838717972 0.2633920312833705 -0.26683298388948856
-0.11797135922675644 0.24585437783717304 -0.2604735557221454
-0.11758023354774033 0.2442486883115688 -0.2606511477612537
-0.11698333773379838 0.24104756125926166 -0.26090607682695804
-0.11896470043426072 0.2508936525297084 -0.26007748285761295
-0.12053924653296982 0.255899965853683 -0.2600393060826343
-0.12061647925143754 0.2564302087736049 -0.26020274201860843
-0.12243124696975266 0.2483946681928554 -0.28062362114420353
-0.12539602670436417 0.26308101424693253 -0.27022067347994266
-0.12612537894015824 0.2619892359685817 -0.27500421444406925
-0.12577822658782517 0.26222217092036393 -0.2736807231091541
-0.12529407295947587 0.26263433703898575 -0.27148911992540775
-0.12346811446910416 0.2622694970083156 -0.26461476723185
-0.12074644717937028 0.24133998164652973 -0.2810974184655231
-0.12425279471641099 0.25628960141657975 -0.2797423068665546
-0.12394165847068345 0.2555384040784755 -0.2799668077611011
-0.12218186113601243 0.2613009215307155 -0.2629285518311542
-0.12155361327891862 0.2480217219304958 -0.2809126440667194
-0.12168305966620957 0.26060611018656876 -0.26247436443796573
-0.11856257769828354 0.2542610169362941 -0.2606235806130451
-0.11592788848643815 0.2463681698751369 -0.26132268349161564
-0.11961024853950059 0.23769545564173847 -0.28152335325708805
-0.11915659758811509 0.25706881293772843 -0.26092252770891605
-0.12163534614806687 0.2617906332921901 -0.2637801233910602
-0.11748975369697129 0.2533464432668605 -0.26092008391848026
-0.11914883408313309 0.2367486358594814 -0.2816971604012531
-0.12193566415076768 0.2535082698774257 -0.2806331280850452
-0.11610053334003007 0.2503358722639003 -0.2612818841122669
-0.11950693878894364 0.24460077294825702 -0.28157973925104557
-0.11397866759067093 0.2399185300779262 -0.2621559266232532
-0.11367142054801499 0.23947083959101825 -0.2622823778771442
-0.12006097886329209 0.26120758065699723 -0.2633003954075855
-0.12354464683299576 0.26082819709300187 -0.2780651215695423
-0.12134009454017197 0.2544894219350734 -0.2807394925736469
-0.11910311732059037 0.24692034730433612 -0.2817647520684284
-0.1141647532916597 0.2473975420904079 -0.26204661170473514
-0.1218576267695955 0.2591890693616786 -0.279281115927605
-0.11735276732211625 0.23749470719813495 -0.2825118366860431
-0.12232932302718674 0.26199710378169205 -0.27737633029451786
-0.11419232043986832 0.25088822850703385 -0.2621418599270862
-0.11758963618045365 0.24472463140010028 -0.2823859516762775
-0.12056113633876359 0.26370871076106217 -0.27055109182825504
-0.11632513854270493 0.2580457330655971 -0.26261887589922367
-0.11864298436408555 0.2622327209424892 -0.2663295332573932
-0.11863598081832444 0.2520285845708766 -0.28179369012346683
-0.1198766514993242 0.26363754281520035 -0.27070269624224125
-0.11651259515052353 0.24145621070384174 -0.28296417633524357
-0.11826245341067826 0.2624837757062831 -0.26716560760965763
-0.12064932141070878 0.2625031472158351 -0.27643412987223087
-0.11959782097106492 0.25700479754923966 -0.2810475889824909
-0.11166635010009324 0.24612677106379657 -0.2630958918713611
-0.1163780078626207 0.2605798841428676 -0.2641163233899158
-0.11068156215911423 0.24136972436427265 -0.263512826361565
-0.11956719908481156 0.2594030500364223 -0.279606736102013
-0.11819034669166123 0.25431495913981583 -0.28162414471140323
-0.11502639803653275 0.25852561006068375 -0.26342788974276005
-0.11561031493907487 0.24014496812342792 -0.28345156351557194
-0.11200299713378464 0.2510755063009181 -0.2629506353520435
-0.11552940163379227 0.2604355216932216 -0.26440740267267643
-0.11904257390265977 0.26270413407801774 -0.27574676910868107
-0.10978248569732224 0.24157172450541645 -0.2638828221940082
-0.11241681728129899 0.25419443854808 -0.26309508720865665
-0.11041554662948166 0.2465726138067165 -0.2636139754437488
-0.11687080416446244 0.25338995465754655 -0.28231049219599186
-0.10931904468303238 0.24048930415629535 -0.26406944433679996
-0.11702835414176499 0.263032853693954 -0.2723202470921558
-0.1152561143374971 0.2479568124723354 -0.28364989797106205
-0.1127365067935518 0.2571287752103725 -0.26402977744570194
-0.10974667820697342 0.24758434304713398 -0.26388148108950077
-0.11481086764102494 0.2462943197202602 -0.2838718060635608
-0.11518387350802933 0.2620270849180141 -0.26829976479044376
-0.11392035934691941 0.23979109534739643 -0.28436390201082645
-0.1078616664147905 0.2366926670980373 -0.26465342084398685
-0.11472979042296921 0.26239192494868424 -0.27045947948923527
-0.10888266417747056 0.2492167354535976 -0.26420966426363407
-0.1164957121348909 0.26142650851725724 -0.2791142527245563
-0.10705903026824509 0.23588532218455463 -0.26497504750719486
-0.11251334700351273 0.2384435535383144 -0.2850903634213489
-0.11300353560214554 0.24542343625544696 -0.2848477725171131
-0.11343696567779099 0.24900901326655536 -0.2845290068768543
-0.1153178796506456 0.2622617484044948 -0.2768109206341785
-0.11350846144919907 0.26219832906245377 -0.27032557765474735
-0.11484460386996781 0.25624215611933854 -0.2828487817429584
-0.1120762363410524 0.23882246026515155 -0.2852751378201526
-0.10759807977443253 0.24854695806025653 -0.26472637692919193
-0.10910434875255143 0.2549610138845363 -0.2649989191674274
-0.11281965527301346 0.26215744027613785 -0.27073470393648563
-0.1144650861955217 0.2583697439145961 -0.28161639610758243
-0.10627916309600388 0.24297958621501117 -0.26528755465975223
-0.11435760411983048 0.2578546405744472 -0.28197774926653324
-0.11379097256427323 0.2627400160741725 -0.2747362617634815
-0.10648651275401627 0.24702847012995868 -0.2651810411595386
-0.11292970034843003 0.2534101606321254 -0.2842237416886371
-0.10938161465888535 0.2582258583021083 -0.2662654582642597
-0.10874801728492295 0.25733232507228043 -0.266059315600304
-0.11072236153846299 0.2612478137922206 -0.26875001827707706
-0.10517519566779648 0.24251574286936908 -0.2657299105309528
-0.11225496086841141 0.2625048757505336 -0.2737685505532306
-0.11074685904746567 0.2436996103238979 -0.2858325604580921
-0.11230960342650925 0.25364810237406876 -0.28448278347483097
-0.11109776649241959 0.2478938103628078 -0.28568322102060734
-0.11186593625312363 0.25361257800578263 -0.28471509257784305
-0.11195523891215836 0.25428950795649674 -0.28457317391863285
-0.1044776127076677 0.24415820846079975 -0.2660012308739704
-0.11216349754100358 0.2593949438047328 -0.28166866938105045
-0.10603858384852921 0.2535247803640285 -0.26606643835535465
-0.11182907078033005 0.26224774131297257 -0.27792490164270817
-0.10349172208076035 0.2397773266744533 -0.26639530698290287
-0.03904822323089158 0.2639137507390895 -0.2947368089341205
-0.06367575976615464 0.24895143517970234 -0.27980465332498966
-0.10967127833133256 0.2508072257947841 -0.2863152090691608
-0.07129971537356888 0.26295793065547135 -0.2909635666989368
-0.0975913092828325 0.2637779117536464 -0.2808153096818012
-0.043144463036113134 0.2632852793645778 -0.2898881796978992
-0.04720300290351426 0.24134421357630878 -0.2823067669056934
-0.06479333195453202 0.2604493499708095 -0.2967034939908069
-0.10589744004970109 0.24383699903010517 -0.2878757778786701
-0.039626388285212866 0.23964965352534442 -0.30251557270517765
-0.08842237148051774 0.262448251337997 -0.2899787787579578
-0.10295815620189225 0.25102609405039933 -0.289057499565987
-0.05792277905707871 0.24828541287898212 -0.3010888461255115
-0.06830562505488907 0.24674016246318012 -0.3003035847329181
-0.082760496470981 0.24978405246256977 -0.27496573964586674
-0.10117627534633195 0.25972425946711686 -0.27041224280825077
-0.059507115218692175 0.26226669559001115 -0.2942284111165088
-0.05019655678039109 0.23833221206187397 -0.2819163564824146
-0.10120765719180619 0.25527477273463395 -0.2890622977398914
-0.06219276640182053 0.24979358920573383 -0.27997765580645023
-0.102546034786754 0.24749749907969623 -0.2893076304577869
-0.039737342331462255 0.24322444209574848 -0.28301463166704593
-0.07971100363498246 0.2542244792890468 -0.27642644087305485
-0.06112819764380967 0.24036359796046405 -0.3012221221112293
-0.10540635738139664 0.2623133064222255 -0.2742149595402759
-0.0501049742436937 0.25806540259837296 -0.30032048264971195
-0.06830562505488907 0.24674016246318012 -0.3003035847329181
-0.07711218151813065 0.2588050366353908 -0.29642347136965214
-0.10488752875094925 0.25294375428675797 -0.2664048735283893
-0.05622857663398301 0.2560659647893825 -0.281584000983147
-0.10120765719180619 0.25527477273463395 -0.2890622977398914
-0.10079687688117539 0.23882299670695453 -0.28998539487352787
-0.04579239938025986 0.26269346484660294 -0.2874409321927112
-0.06787536892657792 0.2390676737737575 -0.27926991025438724
-0.09405168745284592 0.24150502690791278 -0.292676872410683
-0.0518059715962938 0.25193476686000016 -0.30108395854463993
-0.0816901758647493 0.26288962373255875 -0.2903132800244373
-0.09367209527259385 0.2506636382055202 -0.29294685164919315
-0.06751470122104203 0.2481876016569057 -0.27928642074099
-0.07129971537356888 0.26295793065547135 -0.2909635666989368
-0.08660560700660264 0.26354259261607316 -0.28115833441248356
-0.06498657021289383 0.23861038693904071 -0.27968750039568363
-0.08533732447391068 0.24983108052729755 -0.27386296431055485
-0.05241393897300278 0.26292985686778214 -0.2876547936581653
-0.08804264518981492 0.24994343528269916 -0.272782332100777
-0.043546228144221655 0.2510464788389125 -0.2826887730740589
-0.0720589891410402 0.23790943631648212 -0.278553611435799
-0.09652073535686051 0.261415958495132 -0.2870127026223224
-0.0775787964797548 0.2598307729673305 -0.27949277202120243
-0.06546772870784318 0.24396133431910663 -0.30078629294863163
