ply
format ascii 1.0
element vertex 522
property float x
property float y
property float z
element face 0
property list uchar int vertex_indices
end_header
-0.03522750589614426 0.23699522027491718 -0.30311984459391056
-0.03647655102973496 0.2375132442426601 -0.3029432062291187
-0.033021657202296606 0.23737359055995136 -0.3034355405949634
-0.036066977713160864 0.23963123569010883 -0.3030090693615955
-0.03412163111930405 0.24166381368159442 -0.30329251924982487
-0.030454544756465307 0.2374030352544704 -0.30381665269365726
-0.030792443487696997 0.2396668792676845 -0.30377069751253544
-0.029031394455485693 0.2366544009160915 -0.30403489510050236
-0.02990299317603623 0.2404761315298 -0.3039100233696979
-0.03478076908355271 0.24365532407282978 -0.3032142583512348
-0.030348895523600927 0.24223649510859638 -0.30384627620211063
-0.034660427305751196 0.2452843190145412 -0.3032735649727863
-0.036015121672206274 0.24663829812525898 -0.30311820546617924
-0.025055913660579077 0.24085623034953266 -0.30465886632433353
-0.02788972708945786 0.24519169339656025 -0.3042527798794788
-0.024831084940486303 0.2409648896169582 -0.3047078613423389
-0.02689674350982224 0.2449505926084438 -0.304402387537865
-0.023734389278941503 0.24036937961100727 -0.3049808208130878
-0.029345093700938574 0.2478158474874416 -0.30408919493189274
-0.02265325042968308 0.2367556096029201 -0.3052436772965473
-0.03209340426688706 0.24939364203929096 -0.3037405673646015
-0.02961179468398606 0.2491201163244167 -0.30408502260675846
-0.02678838226562058 0.24768608817576557 -0.3044574920319599
-0.03400322649245774 0.2518317104291835 -0.3034476999424976
-0.036565719578318945 0.2526106835317531 -0.3030477527760547
-0.02313622686629807 0.24724239120005756 -0.3051559392594379
-0.027745722267680517 0.2512227893781581 -0.3042893175267261
-0.03036850545173203 0.2523650527906337 -0.3038941089295429
-0.019987075064235083 0.24208098659037738 -0.30591896811953007
-0.028070806000285498 0.25161409387110856 -0.30419383088579593
-0.03327700350051438 0.25335389384745743 -0.30348340312471805
-0.023946730825953833 0.24946874389170795 -0.3049875561379474
-0.03043976280456101 0.25349944838999894 -0.3038677338742298
-0.01794150326018845 0.24095720061778217 -0.30635256210794864
-0.019010870192103735 0.24468660363673359 -0.30614621082773624
-0.022062985632472387 0.24942469605921894 -0.30540994445314823
-0.019376783106379858 0.24559158095835834 -0.30606073776712833
-0.018493084642939916 0.24403536328791767 -0.30624524394503055
-0.028664647076182714 0.25468230256556657 -0.3039251033448261
-0.03436076495414292 0.2561172843885341 -0.3031926814698261
-0.01612043235068833 0.23835617312907367 -0.3066861693047565
-0.016074745390467993 0.23782354602336078 -0.30669359008303104
-0.022913275692515722 0.2523912192296901 -0.30490947405329166
-0.03151732537513291 0.2404795289945522 -0.2839490834855121
-0.035741744968943945 0.24019300946711689 -0.2834438745163959
-0.03278690430884873 0.24168580779551654 -0.28379497567644535
-0.029395876858287207 0.2407505513143459 -0.28424838820925175
-0.03666007373099839 0.25707459458827164 -0.3028109733246845
-0.03076487633948838 0.25666475305079606 -0.30368987361422
-0.020883975956492773 0.2510636449766078 -0.30545056501856266
-0.02589240524535691 0.23748350152491718 -0.2847425405167621
-0.035428790781550756 0.24384325751780658 -0.2834814254426044
-0.025322972271495214 0.23818635949610859 -0.28482285777559696
-0.025302825901561132 0.23839306840418964 -0.2848256889962238
-0.030582813952021948 0.24456465253352314 -0.2840721670769733
-0.03188595030074631 0.2578443885755458 -0.30319467822542606
-0.036896614763789526 0.25811749705790665 -0.30231771508684574
-0.016670702431254736 0.24679887303828388 -0.3065810565136951
-0.023327647182994238 0.25556230554103043 -0.3043649260186237
-0.02725753042464768 0.24631625422953754 -0.28452808300486027
-0.028979776833110205 0.25846576699732926 -0.3031846348427814
-0.029566584560923925 0.24772238740443378 -0.2841947738312763
-0.026924131844096533 0.2581971288633266 -0.3033456865929645
-0.03280401084189927 0.2487902046155849 -0.28376153747072635
-0.030747829411082617 0.25960433492182877 -0.30222690741053043
-0.03235521766906296 0.24938100585459858 -0.28381047288408695
-0.03408729884391343 0.24943888196467548 -0.2836008135460895
-0.021746037933879248 0.24323266753672748 -0.28530458251467167
-0.014939574930720678 0.24760651597499042 -0.3068971101426166
-0.01991781446700608 0.23893648395060688 -0.2855477396630329
-0.022810815308146826 0.24542123088359027 -0.28514689842691837
-0.021400509808116308 0.24357116231440692 -0.285349733033089
-0.024965702030711523 0.2475859523725429 -0.28484199086656986
-0.013012318346553198 0.24355846652506977 -0.3073183659695667
-0.03465455624824082 0.26045715817927506 -0.30119193235865055
-0.030727921459727636 0.25027275094508317 -0.28410736361971317
-0.03469738218551194 0.2503087521505275 -0.2835169796132129
-0.030972866747432104 0.250562310309402 -0.2841544810914081
-0.033953098986201635 0.25052082547663834 -0.28362233082285343
-0.01212870929008042 0.24132394799708515 -0.30751923362245975
-0.018919585678630224 0.23937588939189106 -0.2856808964394611
-0.01862040016418015 0.23846453437327533 -0.2857203845166248
-0.011570005152278295 0.23626077184199482 -0.3076462809227985
-0.024537502262645117 0.24866312751292377 -0.2848922375821155
-0.019234059784465185 0.24280399093150287 -0.28564027587404667
-0.015777467224650732 0.2513200045537868 -0.30667883793344913
-0.011232374641948095 0.2405962348890224 -0.30772394577494083
-0.01959362480407273 0.25620919475077775 -0.30490655342569767
-0.02498164627318894 0.25970172891139176 -0.30236074964037357
-0.021494714949183813 0.2479432226133266 -0.2853035692357105
-0.033342896435313574 0.25452005872248795 -0.2848903004311603
-0.03348144743209397 0.262097954840652 -0.29996684829225956
-0.03228011581664597 0.2552933097791591 -0.2853078905724567
-0.015694020721965185 0.2378981114339748 -0.2861056689404529
-0.01665681454902207 0.24281597146510273 -0.28598207870951114
-0.02982061955695664 0.2554183007192531 -0.28568533698549686
-0.02939155552154099 0.26211386928080704 -0.2999771300934833
-0.012953220341258398 0.2502080203008571 -0.30730999151697574
-0.0146338627076677 0.25285416850566056 -0.30682629982462345
-0.0335494265294603 0.25644874581813004 -0.285412764944939
-0.036639539930873266 0.2627167702627101 -0.2972262565278095
-0.010117022726588598 0.24414652595042377 -0.307982242503075
-0.02292984578376328 0.2529296279859462 -0.2857760850571674
-0.022897212240748754 0.2529155612897792 -0.28577447573175846
-0.03012424561744248 0.2571620942068019 -0.2865682903908771
-0.034990190002971044 0.2566786409330287 -0.2849409047745746
-0.03142756078010117 0.2583627105665126 -0.2873559359692615
-0.014405398104243627 0.23925673970698505 -0.2862764958523792
-0.028858332369380346 0.2575811744642177 -0.28699687758913456
-0.03341576311355149 0.2594563365888515 -0.2883586947106403
-0.03187566849952256 0.2628917098951259 -0.296471810736565
-0.029673306677394262 0.2626991868925014 -0.2972247068070453
-0.02017164084678208 0.2594901920270839 -0.3029562596463245
-0.017066030237727514 0.25700628766535905 -0.3047028247498554
-0.018327413532786718 0.24903392800807148 -0.28571808973780094
-0.01473304483657395 0.2423146964025417 -0.2862359646939319
-0.025683461163096777 0.26225268849848893 -0.2996997896813434
-0.03327956650023972 0.2626700402212062 -0.2941613558911365
-0.008737354013972631 0.24101036796092182 -0.30829501787653385
-0.03391402814155137 0.2628991604757228 -0.29444683233728824
-0.035971789095454565 0.2583854795408168 -0.28599247972002445
-0.02123236510520493 0.2533331514310756 -0.286031878390221
-0.03336360904937302 0.2609308362913051 -0.28970280925264774
-0.03181263658767258 0.2620440126371303 -0.29217929283609806
-0.020100472900920263 0.2600376010847011 -0.3025515441082996
-0.02067467424636399 0.253119945616714 -0.28606197873583256
-0.02528500411277329 0.2624548078489223 -0.29877114931574283
-0.013242064449839941 0.25336164245127824 -0.307074940600304
-0.03541040274863755 0.2633053661298671 -0.2944462064885181
-0.03538402769332444 0.2634509206724086 -0.294763213791756
-0.0283972904420427 0.26294100293635514 -0.2960273389004749
-0.02474331710105454 0.25831437119959977 -0.28857872525682865
-0.02347695681815659 0.25783896455287125 -0.28876355926027714
-0.010351716015391699 0.24904203423976093 -0.30795235077372013
-0.009114383194499365 0.24590319404124408 -0.30822623411646305
-0.014872370693736425 0.2561383248281398 -0.30601680914392887
-0.014034388992839208 0.25533849009989884 -0.30639228860369144
-0.025381384823375097 0.2618551255178371 -0.29404205719461857
-0.012199281189494482 0.2528495193433681 -0.3073616389416736
-0.012940703365855566 0.2422587276410976 -0.2864727143429798
-0.023755191299968115 0.2610039115857997 -0.29301465193262516
-0.024157492849879614 0.2609645129156032 -0.2923763755940479
-0.027624426815562597 0.26174807557582047 -0.29107756058206974
-0.023146002028041235 0.25962114343165543 -0.2902105812214893
-0.007162271473460546 0.24070853003977924 -0.30838710705271183
-0.02184092852836167 0.25913232573985245 -0.29030001799097477
-0.022029368612819067 0.26022559413432267 -0.2918275062226337
-0.011160312626414648 0.23693287381648212 -0.2867207292698902
-0.021753726933055273 0.2625349760961452 -0.2988696161889118
-0.01548692438369309 0.2504376769971767 -0.2861720387124103
-0.01634621474509751 0.2519446612310329 -0.2863135401391071
-0.00677105638747727 0.24289149055003315 -0.308401650586037
-0.011444090340190283 0.2540987730932155 -0.3073633376740497
-0.014030455086284033 0.24967217454432636 -0.28628677765360294
-0.014082847569041601 0.24976116427897602 -0.2862790886544269
-0.018278090689235083 0.2556905151319423 -0.2868889931820911
-0.01007988903289353 0.24028021106242328 -0.28692761699190555
-0.018968491289668432 0.25731337079524186 -0.28786951939096866
-0.01961520168548142 0.2625142932844081 -0.29906228820314823
-0.016613929007106176 0.2544424534749904 -0.2867943112038654
-0.009873001310878149 0.2414490581464687 -0.28696808854570804
-0.01892444345717942 0.2584879995298305 -0.28891948501100956
-0.012187837097697607 0.2484416962575832 -0.28654099146357
-0.020059584114604345 0.26195228108882096 -0.2939213577889484
-0.020017056200557104 0.2619231344175258 -0.2938510839127582
-0.0062475189900926265 0.24568796166896015 -0.30844134727945743
-0.01019406172996079 0.2446468473386684 -0.2868955794953388
-0.019002942774348608 0.2627493143987575 -0.2981097463749927
-0.01569565984969651 0.2608906627607265 -0.30249035994043766
-0.004901824924998632 0.23933136472224384 -0.30846894422998844
-0.008893220160060278 0.24010425815104633 -0.2871481839798969
-0.011735348436885229 0.24858379373072773 -0.28659988085260807
-0.008678256008677832 0.2363991142225185 -0.2871805493020099
-0.005208282206111303 0.24263471374034076 -0.30845824519625126
-0.007914452288203588 0.250695526690475 -0.3083934847497028
-0.013798533413462988 0.2597972751569667 -0.30461258331766544
-0.017150042984538427 0.2575293780279079 -0.28782404104700504
-0.01108100864654099 0.25672537097453263 -0.3068429295205158
-0.0106227383351854 0.24879443654536396 -0.286788440146355
-0.01585793349509751 0.2624514103841701 -0.2993915442608875
-0.012132076952510229 0.25307852038859513 -0.28705967108240543
-0.015039651129298559 0.25754076251506 -0.28805679718485294
-0.013789086077266088 0.2615978718709865 -0.30284548441400944
-0.011543987724833837 0.2593029738378444 -0.3059643570565265
-0.010941325161509863 0.2517735362958827 -0.28693125287523685
-0.0033786282277635245 0.24333882340907245 -0.30852538982859073
-0.014561353657298437 0.26256674537181046 -0.2989458803319019
-0.011668829653315893 0.2540888787221828 -0.28724781314363895
-0.005728183720164648 0.2395472527456203 -0.28774971405497013
-0.013310788605265966 0.26214486369609025 -0.30252910295954166
-0.015533803436808935 0.2629427910756984 -0.2950958077096027
-0.002509592506938329 0.24382251510142475 -0.3085602883481067
-0.0035993740296891836 0.24797236928462177 -0.30855298677912174
-0.014761714670710913 0.26269805440425065 -0.2943612400673908
-0.007792143557124487 0.24950188407420307 -0.28728706280222355
-0.004928736422114721 0.2517072559308925 -0.30845052639475284
-0.0015640840268663077 0.23851609239100605 -0.3085904184960407
-0.00661083910232102 0.24722248324870258 -0.287528700032143
-0.014061807129435888 0.2619611621808925 -0.2923922900342029
-0.0038996026254228262 0.23794454345225483 -0.28817475477686344
-0.0037779793477586416 0.23581665763377338 -0.28820768634310184
-0.008038459751658789 0.2524823547315517 -0.28736234346857487
-0.012524990770869604 0.263260543436996 -0.29644722382059513
-0.00043356272941147373 0.24100643405436664 -0.3086186710976642
-0.01142150017982041 0.25954234609126237 -0.2894318465374988
-5.513283973251866e-05 0.23711031684397846 -0.3086259726666492
-0.01189049932723557 0.26194065818308976 -0.2928241852902454
-0.00627165887122666 0.2574135065984645 -0.30748141447534977
-0.007631598446421972 0.2595468164396205 -0.3064090971135181
-0.0029560909009507803 0.24181079873561054 -0.2883668903492969
-0.002667753431849828 0.2519719005536952 -0.3085005644940418
-0.01034924242263352 0.26007908591746476 -0.2898003224515003
-0.005622832510524145 0.25807547578334 -0.3072032992028278
-0.003615079853587499 0.25465691098689225 -0.3082950774811786
-0.0009204730725816398 0.24879926452159076 -0.308648711838631
-0.007154940102153173 0.25491702565669205 -0.2876538101815265
-0.006824581358485571 0.2601290942144313 -0.30621499458780704
-0.009247659180217138 0.2630600334119716 -0.3037370804928821
-0.0021129235959581045 0.24489688882350116 -0.2885146800660175
0.0006201877855726571 0.24461990603922992 -0.30864740053644596
-0.001953332159571996 0.24613767871379047 -0.28850296775331913
-0.0003924653268388419 0.250021755785934 -0.30865643064012943
-0.007219402525477758 0.26209670314311173 -0.30522147456636844
-0.00889202806716477 0.26078945407389786 -0.2904435161732715
-0.007611988518290869 0.2585039735746303 -0.289010918536095
-0.0027382657266191153 0.2491723895978847 -0.2882356111191791
-0.0017632529473832754 0.25425195703028824 -0.30841443578234135
-0.00022986385589157627 0.24171847114085346 -0.28883645574083744
-0.0010820016599229483 0.24589121350764423 -0.2886762682580036
-0.006796447966151586 0.258048415274612 -0.2887587908886951
-0.005575327608638159 0.25569063434123185 -0.287965095438866
-0.00340506288772141 0.2519029975843349 -0.2880910400532764
-0.008492766354136816 0.2624094487142482 -0.29298827687731205
-0.00852167460685288 0.2635543347310939 -0.2961619559907001
0.0024878993296095224 0.24111789474009662 -0.30867523590555607
0.002721042897648463 0.2388332487058559 -0.308679765858559
0.0004716828131147714 0.2393796444845119 -0.2889259223126453
-0.007417319748454443 0.2604187727880397 -0.2900298897408527
0.0014868393206068369 0.24820756921290546 -0.30868885556688724
0.001342953708119044 0.23654294023036151 -0.2890448335789722
0.0036057844423719736 0.23613226422785907 -0.30869687239160953
-0.00708192441230332 0.26401293286799576 -0.29736126104822574
0.0008061244749494881 0.2520962358426967 -0.3085942629956287
0.0015956177973219248 0.25002497443675187 -0.3086962763451618
-0.007042764160685888 0.26385915288447526 -0.29580876866808353
-0.002733318541102758 0.2593901754331508 -0.3067287568234485
0.0018519177698561044 0.24176806220530658 -0.2890543405198139
-0.0006055221295884757 0.25089859971522477 -0.28859839478960453
-0.004462210867457739 0.2627795935583034 -0.303867674269585
-0.004889129135661474 0.2634274960470119 -0.3026011649750751
0.004007251527256617 0.24466294059275775 -0.3087126974247974
0.0021223440432020517 0.2441086770009914 -0.28905687371721683
-0.002567319605403295 0.25597012052058365 -0.28835997621050297
-0.004885701868586889 0.26130926618098405 -0.2904040280961078
0.001932354237980494 0.254050612540237 -0.30853185693254886
0.00357583310837234 0.23951107272624164 -0.28918272892466007
-0.0043141529298356684 0.26222550878047135 -0.29173777142992435
-0.0002652690148881583 0.25456613311289933 -0.2886625889920276
-0.0036694392896226553 0.2644360066366115 -0.3002065781735462
-0.0023027941918901114 0.259168803782455 -0.2893357042454761
0.005694480206913599 0.24480658778666645 -0.30874598661890446
-0.0015269503331712393 0.2621931434583583 -0.30462659040918766
0.006714285876698145 0.239299476237289 -0.3086301449917835
-0.001535205576472631 0.25859516868113663 -0.2892083887242359
0.0037445142530866953 0.24773073205470234 -0.28901294509401737
0.005170257356114039 0.24148601302622943 -0.28909096757402836
-0.0025384113526872305 0.26425588140010026 -0.2967556778573078
0.003221453692860255 0.2506479025792995 -0.28890178243151127
0.0003030612730451913 0.26153332004069474 -0.30556396285524784
0.0006316020750471444 0.2611598969411769 -0.30606333056917606
-0.000647066566996923 0.2594477535200038 -0.2896046106003803
0.003165991570896754 0.25658804187297013 -0.3082375589989704
0.0006262972616621346 0.2613282800626674 -0.3059038285397571
0.0006965711378523202 0.2567622662496486 -0.2887422804020923
-0.0021191820836595206 0.26415419587611344 -0.29574338237276493
-0.0019910618997148184 0.2635679841947475 -0.2940719787262958
0.0050671711229750005 0.2455924154233852 -0.289006150164513
0.008261026408619532 0.23585700997828632 -0.30840907136431156
0.004514457251972803 0.25473266849040177 -0.3085746232651752
-0.0012058005071214346 0.26276081809519913 -0.2924492422722858
0.008536459472126612 0.23778605470179706 -0.30836934486856876
0.007319630649037012 0.24722844371318012 -0.30859777966967045
0.004465045001454004 0.2560673356962123 -0.3084746066712421
0.0014963760637708994 0.25763601073741105 -0.28901568690767704
7.400062317336513e-05 0.26427304753779557 -0.30003280083170353
-2.9681656413426865e-05 0.2626948357534328 -0.29226723948946415
0.009234280850834498 0.24135881671427875 -0.3082690004490894
0.00943920161957229 0.24058276423930317 -0.3082396749638599
0.007786901261753687 0.23728591212748676 -0.2889961961888355
0.000954122807926783 0.26417112359522965 -0.301198578276543
0.0052096858286329595 0.2522569895696559 -0.2888266209744495
0.00836035754913772 0.2490866781186977 -0.30847371260157047
0.0006926670336195321 0.2633370758008876 -0.29352278152933536
0.00851786282295669 0.2403882146787563 -0.28893861810198246
0.00969576981300796 0.24607956418513446 -0.30823371449938236
0.002688856389469752 0.2601428628873744 -0.29001251498690067
0.002050133016056666 0.26421767482279923 -0.2973870400570911
0.006067486073917994 0.25316250333308365 -0.2887784306191486
0.002242805030293116 0.2642233372640529 -0.29755384365549503
0.006051184203571924 0.25448101768016007 -0.2888248626374286
0.0050727441572614995 0.2567821145963588 -0.2889794472836536
0.007521273162312159 0.25070613631724503 -0.28870857397547184
0.004932256009525904 0.2617114187192836 -0.3051849965237659
0.003515066173023829 0.2641111613225856 -0.30078280607691227
0.009055973555988917 0.24576675900935321 -0.28879601398935734
0.011183293130344996 0.24681741008280902 -0.3080290023469013
0.009057880904621729 0.24793213614939838 -0.2887237433575672
0.006218196418232569 0.26093697556971696 -0.3064401213311237
0.008044542338795313 0.25735694179057267 -0.3079418007515949
0.010333241488880762 0.25176650294779923 -0.30798689166536747
0.006383360888905176 0.26123201856135514 -0.30600953737726627
0.012016297843403467 0.24702221164225727 -0.3079093460225147
0.010816813971943506 0.2521489859533229 -0.30786583463182865
0.004640789296574244 0.26401585349558976 -0.2947317425393146
0.011348219182438501 0.24343538293360859 -0.2885422174119037
0.006397695805973658 0.26329147824763444 -0.30240703264704166
0.010647268559879908 0.2552639842939296 -0.3074685398720783
0.01401645090813125 0.2412918210935512 -0.3075821165226978
0.012786985900349268 0.24893969306468158 -0.30781129638185917
0.014501334693379053 0.23727309712886005 -0.3075128857277912
0.006815792586750635 0.2639394999456325 -0.3002598051213306
0.010610790517277369 0.2506402731847682 -0.28842852155199467
0.007256956365055689 0.2603015900564113 -0.28999004403582035
0.008478046920246729 0.2618758679342189 -0.3046409849309009
0.006448329951710352 0.2637183667135158 -0.2940517131470722
0.010048033263630518 0.25358301410197404 -0.2885505322598499
0.014759273793644556 0.24170726546763568 -0.307474977173714
0.01228523400063003 0.2457968593549648 -0.2883412603520435
0.010193915631718287 0.25407439479350236 -0.2885384325169605
0.012108834054417261 0.24742919215678363 -0.2883167628430408
0.009622932937092432 0.26070886859416154 -0.3060782913350147
0.007220567729420313 0.26203799256800797 -0.29069486896028934
0.013181121613926539 0.2423718572568813 -0.288289642729668
0.014728815820164332 0.24583178767680317 -0.30748239795198856
0.007977099683231959 0.26062774667262223 -0.2900782887124103
0.013567627932972559 0.2406531573247829 -0.2882450882576984
0.01149138953918899 0.25177973517893937 -0.28836724797716556
0.011052669551319727 0.25853389510630753 -0.30703554193010746
0.008747608926243433 0.26360434302806046 -0.3016308609627765
0.014087380435413965 0.24231845149516254 -0.2881617907666248
0.010402621295399317 0.2614818216276088 -0.30479634443750797
0.016615660455174097 0.23827767381190448 -0.307209617295174
0.012983979251331934 0.25002378234385636 -0.28811318317881046
0.01692235615486587 0.23587429532527118 -0.30717632810106693
0.012256027724690088 0.25880873212336686 -0.30611056725016056
0.01064828183884109 0.25838881740092423 -0.28899261991014896
0.009255917336887964 0.26388967046260026 -0.2943410340928119
0.015166790749973902 0.2415163517904201 -0.28801298777094303
0.014394165542072901 0.2547081709813991 -0.3066691819809955
0.015893848206944117 0.24186873445033222 -0.2879008714341205
0.014797301557011255 0.2559739352178493 -0.3063768510006946
0.01624089625114883 0.2391519547414699 -0.2878614429616016
0.013931484487003931 0.25878328094004777 -0.3052187029503864
0.01857325580353225 0.24082160005091816 -0.30699340144625126
0.011973829534001001 0.2595228553724208 -0.28937411943903385
0.014044316079563746 0.25921320924281266 -0.3048934404038471
0.015370310809559473 0.24862438449381977 -0.28782073298922
0.015943260457462916 0.246263325304977 -0.28780660668840824
0.016904593970722803 0.2374047041845241 -0.2877665225647968
0.018062026765293726 0.24798965463160663 -0.3070597116135639
0.011764557626194605 0.26420408496379044 -0.2957190040730518
0.016618789699024805 0.2547274828863063 -0.30624864140978275
0.012148202922291407 0.2640804649305263 -0.2971451346062702
0.012604208257145533 0.26139575252055314 -0.2901029948376697
0.01268014457458938 0.26276558646678116 -0.2919949058674854
0.012915463712162623 0.2633467317533412 -0.29315394798746525
0.018217863109058985 0.25288063296794083 -0.3065921727799457
0.013239087130970606 0.26414209613322404 -0.2962891523026508
0.013335438039250025 0.26256406316279557 -0.2914937500142139
0.017982782390064844 0.24551934012889057 -0.2875165704869312
0.017507256534046778 0.2489074469518581 -0.28749269882669864
0.01479387428993667 0.2626875043821254 -0.3003218833588642
0.01697239425415481 0.25138574847697404 -0.2876163188599628
0.016588391330189356 0.25327098378657487 -0.2877442304276508
0.01683506515259231 0.2524897457075038 -0.28768712917795597
0.02160653617615188 0.23776811370371967 -0.30665869156351505
0.021656484868473658 0.2388778329801479 -0.3066531781338733
0.01878157403702224 0.25523191699504044 -0.3060423795365375
0.015602917935795435 0.263265848250381 -0.29827023188105045
0.016767801310963282 0.2624807358693996 -0.30090368429651676
0.022509695556110987 0.24077045926570087 -0.30655891338816105
0.022014440562672266 0.24547386178492694 -0.30662090221872745
0.022236646678394922 0.2439367176008144 -0.3065905634545368
0.02147281315559829 0.2491159439992824 -0.306694126524834
0.01710263040298904 0.2578703165960231 -0.28817618528833805
0.01624643948311294 0.26107072839259293 -0.28973255197039066
0.01714581396812881 0.2627204061460414 -0.3001345459603351
0.02150529768700088 0.236547589392654 -0.2870464686535877
0.021073193814701685 0.25451833018778947 -0.3060428861760181
0.021598549153751978 0.2531757355642238 -0.30619943777552067
0.017579288747257837 0.263288140387527 -0.29817286769380985
0.021752835776753077 0.24015319356440692 -0.28699136415949283
0.023812682893223414 0.24255317458628803 -0.3064049843930286
0.021088094975895533 0.2468354106855312 -0.2869989637517017
0.01769343164200271 0.2635650635671535 -0.2972027126931232
0.0193457618021437 0.2613178492498317 -0.30249640981188236
0.0234118714594313 0.2493637801122585 -0.3064754668854755
0.024847061898655542 0.24125218400477558 -0.30628279487123905
0.01823786046738113 0.2615041733693996 -0.2897784177445453
0.021030546691364893 0.2517464757871547 -0.2870449189328235
0.021100611951298365 0.25861114272593644 -0.3042842511319202
0.018233270909733423 0.2637513280820766 -0.29387406150331913
0.02432868030304397 0.24751979121684223 -0.306360966362862
0.020049692656941065 0.26181352147578385 -0.30198756495943485
0.021939159896320948 0.25029796370982316 -0.28678039351931034
0.021795631911701807 0.2588708997678676 -0.3040176097535175
0.022951962020344385 0.2566099763822475 -0.30554944912424503
0.024031223323292383 0.24002081164836078 -0.2865673963212055
0.02007186558479751 0.26044583329676774 -0.28919774929514347
0.021582008864826807 0.2552381158780971 -0.28735662142267643
0.02162140753502334 0.26140803107737687 -0.30205855409136234
0.020066024329609522 0.26312136659144547 -0.29245296756258427
0.026163579490131983 0.24657434234141498 -0.30614182988634525
0.02478698041672195 0.23712247619151264 -0.28643397132387577
0.021439404752201685 0.2581587434720912 -0.28791607061853824
0.026720763709492334 0.2459707261037746 -0.3060732249402088
0.022333504226154932 0.2617983818960109 -0.3014996413373035
0.02740553167099441 0.23754435786723285 -0.3059805993222278
0.024114640023655542 0.24878752240657 -0.28642967978945194
0.02739116695160354 0.24083548793315082 -0.30598226825228153
0.022043587233967432 0.25779443988322404 -0.28765541950693546
0.02549418952698196 0.2536935807180324 -0.3059510354184192
0.02137211110825027 0.26339781293391373 -0.2930980686329883
0.02455175068611587 0.25868719825266984 -0.30402622262468754
0.0253727450632521 0.25788986691950944 -0.30455569068422733
0.02624145295853103 0.24444037684916645 -0.2861115399979633
0.02432724979156936 0.2613300085973659 -0.3019572261952442
0.024036408927387842 0.2619691492032924 -0.3009479109429401
0.023719193007893213 0.25784432897090104 -0.28750500718584476
0.026876421239323267 0.24034380921839862 -0.2860188249730152
0.023736537959522852 0.2638893128347316 -0.2959472004555744
0.02510675933594192 0.2562320829343715 -0.2869875494622272
0.02879044559235061 0.25010353335856583 -0.305841094651131
0.02623823430771316 0.2522289753866115 -0.2863161627434772
0.03016609099144424 0.24137860545634418 -0.305639154114632
0.02648353722328628 0.2597305179548183 -0.3031260434769672
0.02808892872566665 0.2546042204809108 -0.30565110484590946
0.028138370778507837 0.2425878644895473 -0.2857668463372272
0.029256404902882227 0.251012384982101 -0.30573374668589054
0.03021496680016006 0.24743211278437763 -0.30565384665956913
0.025739552047199854 0.2627984286260524 -0.29882005492678104
0.026631684567875513 0.25521200904368546 -0.286693966784386
0.028484941985554346 0.24512827405451923 -0.2856690649174732
0.03153020289177383 0.24042242774485736 -0.30546075741281925
0.02559399750465835 0.2635218501996913 -0.2936537329339069
0.028690428998417505 0.24723184117793232 -0.28559554258814274
0.030984939601368555 0.2474031449270168 -0.3055543069027942
0.030437083508915552 0.25120675572871354 -0.3055919472359699
0.02910053875679458 0.25641018161296036 -0.3053465251111072
0.0319001093172499 0.2408355475377956 -0.305412388243584
0.02852887060875381 0.2500762344312587 -0.2855766777180713
0.028865756061024317 0.258397638888351 -0.30390749017229496
0.03122511651749099 0.24988055238246112 -0.3055350248002094
0.030425758626408228 0.23931902656077533 -0.2852996353291553
0.026734234359211573 0.2630859614324489 -0.2924724582814258
0.0298588290476271 0.24748939284800678 -0.2853534881257099
0.029841722514576563 0.24837982663630634 -0.2853446964406055
0.029487670924610743 0.2528634668302455 -0.2858381334923786
0.033578933741993555 0.23941248664378315 -0.30519283453455387
0.0278160884642073 0.26300108441828873 -0.2921699945115131
0.03162411000961746 0.25457936534403947 -0.30526185671320377
0.02887618687386001 0.2588028312635341 -0.28763512412538944
0.02959644940132583 0.2621541620206752 -0.29998526612749515
0.028571189906544336 0.26204866179942277 -0.289803451695351
0.030710668828434595 0.26032084235667374 -0.30248824397554813
0.030321212079472193 0.2545509935331264 -0.2859952513360065
0.029325248267597803 0.26023167380808976 -0.28863940278521
0.034384430911488184 0.2452283502530971 -0.30509913603296696
0.033987702395863184 0.2501823903036037 -0.3051704827927631
0.030310215022511133 0.2629318834257045 -0.2981172863625568
0.034525246884770044 0.24819791326045185 -0.3050997618817371
0.035460145738072046 0.23869001874446064 -0.30494684616556583
0.03189161565536941 0.253273069949142 -0.28560639063349186
0.03372821357483352 0.23992466935633808 -0.28456614057054935
0.03357333090538467 0.24294233331202655 -0.28458235303392826
0.04304501559967483 0.24837058791636615 -0.30397892633905826
0.08363074209923232 0.2561187149000087 -0.2970930401467365
0.04578280594582046 0.2573912740659633 -0.3029412094735187
0.08877194073433364 0.26273822793482926 -0.29028943816652714
0.0443910076879927 0.24244165429591327 -0.3037681047104877
0.04209730174774612 0.2500636578512111 -0.28286153713694034
0.04767826345200027 0.260424792857162 -0.28431648651590763
0.06282600906128372 0.2401544452619472 -0.3004390362881702
0.03840917494530166 0.2509547472906032 -0.2836582426213306
0.04327708628410781 0.23606675872325092 -0.3039150897645038
0.06449571397537673 0.25406903037547257 -0.3003937069558185
0.08937671926254714 0.2521744967412868 -0.2950768832348865
0.09011539962524856 0.24746716031550556 -0.2948928240918201
0.06336724903816665 0.26240009078501847 -0.29492080847254215
0.0936841681265303 0.2539606691312709 -0.27168578545084415
0.08228519704575027 0.24919259557246357 -0.2764692370080036
0.09312179830307449 0.25454449662684586 -0.29329270760050236
0.07769164588684524 0.25569760808467057 -0.29859674612513004
0.08414083864922012 0.2587824464750209 -0.295843011536507
0.04326144006485427 0.2617408038091579 -0.29941148201456486
0.08642712381119216 0.25437599429606583 -0.274863905110268
0.05048406269783462 0.25231939563273575 -0.3029547695302051
0.08155703690285171 0.23763442048548847 -0.2768787209176105
0.035846413638538965 0.2609699965429225 -0.3015158538006824
0.08095258620018447 0.25177299985407975 -0.2769869629525226
0.06818175461525405 0.2640169263791957 -0.28774387279978214
0.09081241634125198 0.24041688451289325 -0.27315235773554264
0.088746370341725 0.2358633876752773 -0.295434600510506
0.04894215014214004 0.24605578193186908 -0.28264520207872806
0.04297611263031448 0.23803865918635517 -0.282837605872063
0.03393861797089065 0.24886751183985859 -0.2844190363072437
0.06818276789421523 0.26081103095530656 -0.2960975829743427
0.06394371536011184 0.25125467786311295 -0.30094031135073124
0.09727400686974014 0.262683093638412 -0.2864721779011768
0.04228091385597671 0.23649483928202777 -0.2828720871590656
0.08931616094345535 0.24081319579600483 -0.27374020854463993
0.09420505311722244 0.24601012477397113 -0.271729207434563
0.09888121631378616 0.26384460935115006 -0.27821148077478824
0.05389064696068252 0.2417280674886623 -0.3022735182427448
0.0891794278883406 0.2633663416814723 -0.2800333861493152
0.06623599078888381 0.26401364812373307 -0.2879578832768482
0.07771268632645095 0.26270335921763566 -0.2923595968865436
0.09888121631378616 0.26384460935115006 -0.27821148077478824
0.088746370341725 0.2358633876752773 -0.295434600510506
0.0936725452207991 0.2579659820508876 -0.2921140555523914
0.08937671926254714 0.2521744967412868 -0.2950768832348865
0.07357528951401199 0.26348543176173356 -0.29032424727907596
