ply
format ascii 1.0
element vertex 686
property float x
property float y
property float z
element face 0
property list uchar int vertex_indices
end_header
-0.06203102919822251 0.24295711526393085 0.30111029108533444
-0.04817369434600388 0.2619988919210353 0.2862239118433911
-0.10352021310096299 0.2526277900648036 0.28794630726346554
-0.09466227743392502 0.2411278487157741 0.2918216224528271
-0.058164267275386206 0.26117432126521256 0.29967662056455197
-0.12146200093989884 0.25772362956523087 0.259855949483009
-0.10400920960670029 0.24691545972346454 0.2878112431384045
-0.09862188849216019 0.24097031363963275 0.29004379471311154
-0.09156806621318375 0.24048662194728046 0.2932921286440808
-0.050838379595332495 0.2623636723470607 0.29860534628400387
-0.08673530671363389 0.24439769992350727 0.29521479567060055
-0.08274435851340806 0.24318921575068622 0.29664137323865475
-0.10657445940738236 0.262089729399673 0.28240253885755123
-0.08936787996058976 0.23957639941691547 0.2942405577517468
-0.06000184867148911 0.2629703880262294 0.2926249738551098
-0.09029552194839036 0.2434309721898952 0.271921002469154
-0.06792279932265793 0.25298446425913956 0.3001488681651074
-0.06596904847388779 0.26369595536708024 0.2886643048144299
-0.06930933747058426 0.2582440973234096 0.28025295694837155
-0.08851092908149277 0.2634822131109157 0.28360798319348873
-0.049142955277018896 0.2363100052785793 0.28237827976712765
-0.08798502239947831 0.2518665791463771 0.29471995790967526
-0.05756279680495774 0.2633392811727443 0.29280635078916134
-0.05601411912208115 0.2633910776090541 0.2946506377078015
-0.08150435838466202 0.23874223241328388 0.29707714279660763
-0.07193152460818802 0.24745172271250873 0.27831383903989376
-0.06518971774344956 0.25748950252055314 0.2996893163538891
-0.053499220345073095 0.2629651428174892 0.2871035571909863
-0.05277925584083115 0.23663735398768573 0.28155794104108395
-0.13840456161265885 0.24041128167628437 0.2521785732127148
-0.089765472743564 0.2396780253362575 0.2940930362559277
-0.07572606060271775 0.24500012406825214 0.2774198289729077
-0.09119970950847184 0.2527300120305934 0.293461107812019
-0.0817558154798082 0.2505494953107753 0.2753784294939953
-0.096133960816913 0.2556101084661403 0.26962169369229855
-0.04369923326736008 0.25985139617442277 0.2859181996203381
-0.06908251199489152 0.26202690610407975 0.28390248974332394
-0.09487221989398514 0.26034426698207047 0.2902313705302197
-0.07233324501281296 0.2628631592702785 0.29133787115583004
-0.052782951328807226 0.23725712308406025 0.3008526202059704
-0.09953033778434311 0.25750035056590226 0.26856275757321896
-0.10228508565192734 0.2503894568395534 0.2885800238467175
-0.08147604617839371 0.254425048918716 0.2966332074023205
-0.08724792155986344 0.2472689152669826 0.295043253502937
-0.08151827606921708 0.24713760623454242 0.29706695040235104
-0.09893631789451157 0.25919896373271134 0.28798546751508297
-0.04975762817626511 0.2626157999944606 0.2870033021784741
-0.08248136791949784 0.24876421699046283 0.2750897641993481
-0.05362158868079697 0.24256348618983417 0.3008797403193432
-0.1011323169208101 0.2410619855832973 0.26741977890500607
-0.08358101401095902 0.26217508325099137 0.2916531201220471
-0.06940971169238602 0.24017006167887836 0.30031439026364865
-0.17180806252723252 0.26282280692576554 0.23873683174619256
-0.07556502375369584 0.24230337152003437 0.27746638020047726
-0.08060286793475663 0.2584221363973537 0.2956716652728039
-0.09684911224608933 0.2590685487699428 0.2698298331118542
-0.0936317727304033 0.2488679886770168 0.29240038355359615
-0.05855145904784714 0.26069676885127213 0.2999533649302441
-0.08722795400386368 0.24012959012507587 0.2950334783411938
-0.04895308468108689 0.2518196702909389 0.3013717170573193
-0.08103167865043198 0.24396365890025287 0.2756751414156872
-0.09427690360312974 0.23695117244242817 0.2920047279215771
-0.0554189071393541 0.26102489242076066 0.2997380729533154
-0.03839245292907273 0.24627888211726337 0.30269356926450314
-0.05235281440978562 0.24531161794184833 0.28157945831784786
-0.04055547568564927 0.2577618361425319 0.28474172314176144
-0.07880912575488602 0.23880898961543232 0.2765057321406323
-0.11872070882087266 0.26240140208720353 0.26487764080533566
-0.1026920810676149 0.2578850985479274 0.26735504826078
-0.0953201487994722 0.2475242019605556 0.2697670694209057
-0.12453749630218064 0.2530122400236049 0.2793820734835583
-0.09433251473670518 0.2635732890081325 0.27913101871976437
-0.07085141393905198 0.2485100031804958 0.2785315152026135
-0.06490045640235459 0.262870192618362 0.2926105495310742
-0.04798662516837632 0.2433745861959377 0.2821856375552136
-0.10413865599399125 0.24412620076655536 0.2660231228686291
-0.04650491330390488 0.2469732166242519 0.2823924060679394
-0.09146635088687455 0.26334351310252335 0.2832553621149975
-0.05607896897559678 0.2496526838254848 0.2808113332606274
-0.03843706700568711 0.2532086969327846 0.28358682354459347
-0.07845474633937394 0.24556851396083026 0.2766291733599621
-0.04071035835509812 0.2585952878904262 0.3012529846049267
-0.08116568479304825 0.24069476136683612 0.27562638481626095
-0.09797997627025162 0.25758510837077286 0.2688627477503735
-0.04008224460845505 0.26207005986689713 0.2884126540041882
-0.08132418844466721 0.25736302146433976 0.2962626453257519
-0.05813655111556565 0.2625421286535182 0.29690172632703365
-0.07536373886828934 0.2491416336011806 0.2774875398493725
-0.09170484397178208 0.24621069440364032 0.293258094391914
-0.09259685728316819 0.2619048953962245 0.2766291733599621
-0.05100884887939011 0.25659191617488053 0.30116155107984127
-0.05427390191321885 0.2456098199796596 0.28122105558881344
-0.15858848247294938 0.25350236901759293 0.2639228340006787
-0.0508204385972551 0.2640280724477687 0.29504456480512203
-0.09081745002036606 0.262256920428268 0.2891760106898266
-0.044049887392573706 0.25369799146174576 0.283337497315498
-0.14828276488547837 0.24165821084498554 0.2692001100398022
-0.059244154427104345 0.25601077088832047 0.2806121941424328
-0.06379172060256516 0.24957478055476337 0.30107905825147213
-0.09167706820731675 0.25124281653880265 0.2713245387888867
-0.03944933268790757 0.24064439544200092 0.30246731003293575
-0.06722900125747239 0.2362455726575771 0.3006731506205517
-0.08429559919600998 0.2635341883611598 0.2871762152529675
-0.13381118926768815 0.2466440201711574 0.25383975466260494
-0.05402156564956223 0.23583352574824482 0.3008223410464245
-0.07666028890376603 0.2631675601911464 0.28569694717893185
-0.09222568425899064 0.25403207549571183 0.29294004400739254
-0.10178924951320206 0.26146745690821793 0.27050884922513546
-0.06750619265800034 0.25111174592494157 0.27919062336453976
-0.052523820135646215 0.2589789033842006 0.2826888795710522
-0.07956230494742905 0.2627459169340053 0.28406890591153683
-0.08065837476020371 0.26310765752314713 0.2891450162745434
-0.04536333534484421 0.24942588815211444 0.2825677629328686
-0.10427942726378953 0.23777973660945087 0.28764470776090206
-0.05027952644591843 0.2638777495336452 0.2918473120547253
-0.06845897290473496 0.2617524267148891 0.29532208403119625
-0.09445100877051865 0.2435903550100246 0.2702188130236584
-0.04358687851195847 0.2604686618757167 0.28634169062146725
-0.15804108831649338 0.2637084127378383 0.2530464168406445
-0.09143264446025406 0.23587906369685321 0.2714589472628552
-0.09372895810370957 0.25713241109370377 0.292029702267738
-0.10118976089721238 0.23888856181620746 0.26739337404737057
-0.08092459890609299 0.2372642756414333 0.2757163878298718
-0.06223252269988572 0.2621279955816188 0.28497763832578243
-0.053761093351893774 0.23703092345713764 0.2813064094401318
-0.07553028914695298 0.2586783767652431 0.29677315910825314
-0.05333867523437058 0.2635338307332912 0.2882045741892773
-0.0933471605516008 0.2497212291669765 0.2925496931887585
-0.06707107875113999 0.2538222075414577 0.3001355167246777
-0.11035674664741074 0.2626693845701137 0.2697109218455273
-0.17150299105411088 0.23894143113612323 0.254457258782478
-0.05126425478225266 0.25127619513987687 0.3011980887270886
-0.06949871632819687 0.24684381494044452 0.30031605919370236
-0.086239962313228 0.2589057088804164 0.2743736143923718
-0.05089717957740342 0.24585515269755512 0.30108406504163326
-0.040655194256358496 0.25871312627314713 0.3011903401232678
-0.14438113424544846 0.25576114663600114 0.27086927851209225
-0.0905092791057161 0.24233251819132953 0.27183415850171627
-0.08552253100638901 0.2594516278219142 0.27470483740338864
-0.12286852154498612 0.2358628512334743 0.2584402199603039
-0.04347067925696885 0.24646800765513568 0.3020578857279736
-0.05065503570800339 0.24895870694636493 0.2817201252795178
-0.06720448884730851 0.26346796760081437 0.2894201513148266
-0.09785607311492478 0.25081527242182877 0.29047783573636593
-0.09561799320941483 0.23854106673716693 0.29138025005826534
-0.049202828142695776 0.24555915603160053 0.3012910123682934
-0.06822497997050797 0.24268323192118793 0.2790546651698071
-0.10446651134257828 0.2623364926290431 0.2712053294993359
-0.15054261538749253 0.23833638438700824 0.24581530054578363
-0.08028350624805008 0.26241666087626603 0.29170789679059567
-0.09530988189940964 0.2446955443334499 0.2915416594363171
-0.10014235827689683 0.23924344787120014 0.2678522702074963
-0.09776759001975571 0.24770921477793842 0.2904968496180493
-0.08838207874064957 0.26305961617945817 0.2878035541392285
-0.042560218308024755 0.23784083137034565 0.302052998147102
-0.0390837774015001 0.2360769511175075 0.2832360502100903
-0.03770264837508713 0.26243770131587174 0.28988316019544186
-0.07142807397609269 0.26173239955424454 0.28286966045865597
-0.04192769381766831 0.25005501517771866 0.30234816034802975
-0.07421862933402573 0.23950690040110736 0.29923852642545284
-0.04564761969810044 0.26312524089335587 0.29740818699369015
-0.1399756357408098 0.26293569812297013 0.2657972212649304
-0.07198464724784409 0.25812351712702897 0.27972664793500485
-0.04635649773841416 0.2625441552114406 0.2877579565859753
-0.08930492255454575 0.26326119908808854 0.28589268883237423
-0.08041179034476792 0.2474982739400783 0.297439002595039
-0.06418394896750962 0.2609053255033412 0.29703524073133053
-0.05054733011489426 0.24394285687922626 0.3010726209498364
-0.1457686260676912 0.23945611724375873 0.24898978432187616
-0.042852579090648046 0.24494200953959613 0.2827767964220959
-0.06698685738807236 0.24600046882151752 0.27926959951886715
-0.08208101842170273 0.23987865457057148 0.29687871893415035
-0.08511546108489548 0.2524370552015224 0.2741251226283032
-0.07890672836070572 0.2618339658689418 0.2809665437556225
-0.06264199170833146 0.25787627706050065 0.2998247977114636
-0.09495556208854233 0.259485125632278 0.29115667303571285
-0.04787582013373887 0.24087482699870258 0.30139025410184445
-0.09908449504142319 0.26294291028498795 0.2760339017725903
-0.09622558805709397 0.26070421943186906 0.2722048993922192
-0.06761997792487656 0.24578452119349628 0.27915211876401486
-0.058682052824550024 0.2556040287923732 0.30104806383618893
-0.06741429719691788 0.24085724362849384 0.2792069550372082
-0.06039567146068131 0.2612727881383815 0.29793741663465084
-0.06352320167785203 0.25322979697703507 0.30075302084455074
-0.11683836433654343 0.25951749095439103 0.28046193083295407
-0.09637410793071305 0.25803250083445695 0.26953812798032345
-0.08931699249511277 0.2497953773450771 0.294354343018623
-0.06323453638320481 0.2510595322561183 0.2798759575701672
-0.06054484698539292 0.2535819412183681 0.301054143509956
-0.05916672799354111 0.2420594097089687 0.3009171124316174
-0.08996121439700638 0.26328438529490616 0.27948059996137203
-0.0911501631475023 0.2620428205442348 0.28973808249005856
-0.12025445554023301 0.258511483759872 0.26069023569593014
-0.05676659796004807 0.24703609952448993 0.2807215090609509
-0.08959962281947648 0.2487248183202663 0.27216573914060177
-0.10410964343314683 0.24349075564860492 0.26605209072598995
-0.057464568350367895 0.25233083972453263 0.301035308442207
-0.0785754606462053 0.2598227859449306 0.27884062489041866
-0.040519832108073583 0.23583269128321796 0.30230476816663326
-0.04428040835624253 0.23846310386180072 0.30183907707700314
-0.15231203887229477 0.26262760171412614 0.2617225881434399
-0.09148479852443253 0.2536620498609462 0.2932826515055615
-0.05803629610305344 0.2502551675748744 0.30101432760724606
-0.08943134400611435 0.2597576380681911 0.2929036255694348
-0.10385319444900071 0.26379960784434464 0.2749967809534985
-0.08999724540477311 0.2630553842496791 0.27907510956296505
-0.10159090015655076 0.24418264636515766 0.2887754078722912
-0.05543544742827927 0.25160437831401017 0.2809559937334973
-0.07741875800853287 0.2553610802602687 0.2976817127085644
-0.08108642551665818 0.24225300559519916 0.27565594872006954
-0.06040209386115586 0.2422875166845241 0.30097385605344357
-0.13485462817912613 0.2494349480581203 0.2749585743761975
-0.039950965378337255 0.24496185788630634 0.30246200521955074
-0.05211087915664231 0.25168627509593156 0.3011692400790173
-0.0651903435922197 0.23953109988688617 0.30100079735288204
-0.05889609310393845 0.24714362630366474 0.2803986307002026
-0.049216924641185156 0.2529035211515346 0.28222670515546383
-0.07109737250571763 0.25602728137492325 0.29892166813382687
-0.06542780849700486 0.26258879909037736 0.29364361723432125
-0.041696666214518896 0.26300084599970963 0.29037972649106564
-0.04875156137710129 0.26395261296748307 0.2955268259859997
-0.07690360996490037 0.23652476081370502 0.2771456476069409
-0.05933515581851517 0.2632084489774623 0.29129203518399777
-0.037945596907191625 0.24190765628337055 0.30266203840741696
-0.15939248952632462 0.24620950231074482 0.23805406054029046
-0.0760436937547258 0.2621261478376308 0.28249963482389034
-0.08074335608249222 0.24676167973994403 0.2973230119563061
-0.07026010606055771 0.2573760152769008 0.2988363738871533
-0.08382597419982468 0.24155443915843158 0.27457162102231564
-0.08143594715362107 0.24494391688822895 0.2755195136881787
-0.05460014793639695 0.2638425231885829 0.2926015492297131
-0.04098462912803208 0.2383520008039394 0.28306999166974606
-0.0996730462050966 0.2577429414701381 0.2887746926165539
-0.09841742965941941 0.25246953973292496 0.2685162063456494
-0.0916812852359346 0.25756895551203873 0.27222123106488766
-0.1035361573434404 0.2559620142888942 0.28771790226468624
-0.0778960869050554 0.26367384204386857 0.2876862521983105
-0.10010710212951218 0.2534549833249965 0.2676943775034863
-0.06780266616111313 0.2484053374242702 0.3005469675875622
-0.08167263719802415 0.2522081137609401 0.2967662449694592
-0.08216376456981217 0.26065534362315324 0.27721228559979977
-0.07803943607574021 0.26021009692668107 0.29503580292234005
-0.05781334492927109 0.2531010509443202 0.2806515332079846
-0.07461175176864182 0.26266288766383317 0.29204943140515865
-0.0676872119641832 0.2629235983800807 0.29144664963254513
-0.06845520291095292 0.26188349732875016 0.2837044235087353
-0.03898092958694016 0.2609169484090724 0.30016275604734005
-0.045572666857295385 0.26429075011729386 0.2949146266795117
-0.07194578501945054 0.24610483655451923 0.29976471622953
-0.10169535729651963 0.2637326122236171 0.2776884075022656
-0.08411131653552567 0.24841362246989399 0.27441754301557125
-0.0933270588851503 0.2610487342786708 0.27462776859769406
-0.08914437744384324 0.24560701856135517 0.2723724480486828
-0.04411077353721177 0.2432498336744228 0.2826723690844494
-0.10282347950702225 0.25855314740657 0.2676677342272717
-0.062196849319987646 0.25205713519572404 0.3011009331561047
-0.14840340468650376 0.26376199731349137 0.25844308098325314
-0.08494452986484086 0.2551201582860866 0.2742827769137341
-0.1421854928470186 0.23889189967631488 0.2506870861865002
-0.04992565366988694 0.24229544410227924 0.28191902597913326
-0.10090868029361283 0.2534389496755519 0.2889588113642651
-0.05947171005969559 0.25938373813151505 0.3003755446291882
-0.08706059906249558 0.2575870157194057 0.2944941755152661
-0.04273897263770615 0.23681771764277607 0.28292157610425533
-0.07380683574443375 0.24981671580790668 0.29936327894696774
-0.04442962858443772 0.25722938785075333 0.3015158410883862
-0.15026357624297654 0.24150758990763813 0.26817860563764157
-0.0961233064866594 0.24859243640422016 0.2912589546061474
-0.08018018159633195 0.25795471677302506 0.2771977420664746
-0.12188321206336533 0.256108284087173 0.2590897913790661
-0.09577289078002488 0.23737764367579609 0.2696743245936352
-0.06592380854850327 0.24206769475459247 0.3008773561335522
-0.04648581001525437 0.258444070906631 0.30095692833432736
-0.04565954062705552 0.2575898171377101 0.28393366297254147
-0.052672086689525 0.24741333732127338 0.30105235537061276
-0.07249308976893937 0.25726354131220963 0.29847654064664425
-0.08857397589450394 0.24066203841685443 0.29453321655759396
-0.05546793195968186 0.26018297681330826 0.28291889389524044
-0.11175988468890702 0.2594391108465114 0.2653997178889233
-0.047330527041011206 0.24058038005351215 0.30145927628049435
-0.06716970953708207 0.2580188513708034 0.2805221315241772
-0.03787889930968796 0.25197815904139664 0.3027221794939953
-0.07008808705573594 0.2549924255323329 0.29930677374372067
-0.10060843679671799 0.2374953032445827 0.28917767961988033
-0.1037975088096193 0.26252561816691544 0.28250786026486935
-0.08513533923392808 0.23925262698649555 0.2740304108477551
-0.08788359019523179 0.2541999817800441 0.27296676596173824
-0.06834935996299302 0.258519709200851 0.28056713303098263
-0.05814793560271775 0.240092933268539 0.28054668863782467
-0.1347965881562761 0.26338595160960343 0.2686909671641308
-0.08077990863090073 0.2627301813077846 0.2830170627451855
-0.09946325275664841 0.26134926089762833 0.2866168852663952
-0.17131696495776688 0.23594462880610614 0.2545800443507153
-0.06104172620540177 0.2561894656133571 0.300810539326759
-0.11757267865901505 0.2379833460760036 0.2817055817461926
-0.06106032285457169 0.26327210673808243 0.2875187035418469
-0.038806675407939306 0.26337820300578263 0.2922548886156994
-0.09787542972331559 0.24454963216303974 0.2687751289225537
-0.06751686188941514 0.23815274247645526 0.3006247516489941
-0.07831092033153092 0.24815744170664936 0.2981486554957348
-0.08870540413623368 0.25885069379328873 0.27349986990460934
-0.09471480402713334 0.26355737456797745 0.28058811386594357
-0.08595572266345536 0.25974273690699723 0.29345323999890865
-0.04386940452819382 0.2593838573408046 0.3007918234682995
-0.054573415253215185 0.2389797569227138 0.28119250496396603
-0.04142594191794907 0.25954848536967423 0.3007465239382702
-0.047460345957332006 0.25600135335444596 0.3013441201067883
-0.06200051162009751 0.2441563607168117 0.2800285454607922
-0.05165868851905381 0.24018889674662738 0.28163447340497555
-0.04952424618964707 0.2558343411397853 0.282467090687843
-0.05244797322516953 0.26095706233500626 0.2835167284823376
-0.09263914677863633 0.2594977618169704 0.27283647020825924
-0.07292829308276688 0.24399209031581073 0.29952993353375973
-0.07471953186755692 0.24720638999461322 0.27764877041348995
-0.05035167786841904 0.24971401700495868 0.3012702103472668
-0.07817597541575944 0.24505865582942157 0.29819341858396115
-0.07613491866355454 0.2381943465185085 0.27732982595929684
-0.0944731667972139 0.26353776463984635 0.2806492682314831
-0.1045052394605211 0.24461978682994037 0.2658391233302075
-0.0912206456399492 0.2401646376562038 0.2934589024401623
-0.17072090360885178 0.2526477576208034 0.2551196451998669
-0.08851294073825394 0.25541692981242325 0.29448475798139157
-0.09113725874190842 0.24509704122065692 0.2935129042483288
-0.053187309238963476 0.2636303902578273 0.28885283430585446
-0.0870581403708986 0.26317250737666276 0.28131356199750485
-0.0717220887876085 0.2576031685781398 0.298332774243446
-0.08078588399653946 0.26006388673304703 0.29451843460568966
-0.04017045948272263 0.23595184096812397 0.30234941204557003
-0.060310213301234594 0.24569118031977802 0.3009836908198315
-0.03808870765929734 0.24846208104609638 0.30278947313794674
-0.06656445417171036 0.2590398789358058 0.2981574769831616
-0.10122504684691941 0.2621950508069911 0.27185382803449215
-0.08882973942523514 0.2621844411802211 0.2905926938868481
-0.12066037807231461 0.2375583053541103 0.28038980921277584
-0.06043360981708085 0.25710004577159074 0.2809745903826672
-0.08235975954299485 0.26142013082026627 0.278212928376289
-0.06172062310939347 0.2386564613294521 0.2800683017588574
-0.0769909456706575 0.26238435515879777 0.2829759355402905
-0.04222261760001694 0.2507962585401454 0.28288646896848263
-0.06094375107055222 0.26240545520304825 0.29603710134992184
-0.042375682327800146 0.2625100017499843 0.2988230224467236
-0.07068852934604203 0.23927426347254901 0.2785915966845471
-0.06359863135581528 0.23949414500712543 0.27983268459806027
-0.047789184782557836 0.2602473498296657 0.30015816648969235
-0.13279966864352738 0.23898601541041523 0.2542807098246533
-0.04956790659194504 0.2443166972112575 0.2819468017435986
-0.07471372041469132 0.25157439717768815 0.27772774656781735
-0.04855593893294846 0.24672579774378925 0.2820657130099255
-0.09821100387340104 0.2629808188390651 0.28321608265409054
-0.05257648083930527 0.2398887873601833 0.28151264151105465
-0.06483039114242112 0.24861288079737812 0.27964379747876705
-0.07154495868449723 0.2556689382505336 0.2988901372767407
-0.08550664636855637 0.2514334917974391 0.295638465485664
-0.07322341058021103 0.25646257409571793 0.2984885211802441
-0.08362573239570176 0.26317691812037614 0.28225382526883663
-0.0839080348945192 0.2635254860830226 0.28687837084302487
-0.07796127948527848 0.2553802133512416 0.27719345053205074
-0.08178984973197495 0.24134624013423114 0.2969722982264477
-0.04911911341910874 0.25842171916484025 0.2828926082468945
-0.08669146749740159 0.24925905475138813 0.2733384009219128
-0.08737234625583207 0.2552440763425746 0.27320333679685177
-0.04069739434485947 0.2582246662092128 0.2850986357546765
-0.05925303551917588 0.2605261207532802 0.2827659483767468
-0.07240077707534348 0.2505088449430385 0.2996573682642895
-0.0518963024354509 0.23841530093669086 0.30088117083081783
-0.04635050747161423 0.23958450564860492 0.3015799756861645
-0.1587788299060396 0.2635764480543056 0.2494244213915783
-0.05859881493812119 0.24150484809397846 0.3008901711321789
-0.043577908012919775 0.24059617528437763 0.28280749281415524
-0.09675115201240098 0.2387017012548366 0.2908755775309521
-0.046916870806269995 0.26353997001170304 0.29641970356473507
-0.0757370874620012 0.23984628924845844 0.2774251337862927
-0.04404687735801255 0.26241683969020035 0.2881126042223889
-0.08852222416167771 0.2395426631879726 0.2726415630198437
-0.09717111143832718 0.23981034764765888 0.26909323891171993
-0.041411010954432836 0.2574609518957057 0.3017757769442517
-0.06443691107993638 0.246812641711227 0.2797051902628857
-0.08009664568667924 0.24026477345942646 0.2975509401179272
-0.04469057771926438 0.24388265618800312 0.2825876708842236
-0.06415240320926224 0.2414582372617641 0.27976318558225216
-0.05422526452308213 0.2488740087461391 0.301057600579353
-0.048991559479289404 0.2634395361852565 0.2896054621554333
-0.05736878368621384 0.2625104189824977 0.28621133526334347
-0.09767699095969712 0.2554120422315517 0.29028376301297726
-0.09239227924113785 0.2588037253332057 0.2919698592043835
-0.09861232194667374 0.262732982726089 0.2746609087801892
-0.053589223358683935 0.24926167735575824 0.2812083597994763
-0.06419674906497513 0.24773746737956195 0.3010626073695141
-0.049801020357661596 0.24340301761149555 0.3011578555918652
-0.07359419617419755 0.2525328994703212 0.27806004246244015
-0.07931814942126786 0.2547723651838222 0.2971874113894421
-0.06129385385280167 0.25103765735148575 0.3010479446268994
-0.07280942651992356 0.2617567182493129 0.28261049946317257
-0.07613430771594559 0.26360845574854996 0.2881118293620068
-0.06473010632758652 0.23989325770854145 0.2796907063342053
-0.08728679868941819 0.2503247857999721 0.27308758457669796
-0.06897368881469285 0.2558655739736476 0.279192947945686
-0.10133957717185532 0.24319881209849506 0.28887536486157955
-0.06211165938144242 0.26080375918864396 0.2826490040636975
-0.0964703694320253 0.2527387739133754 0.26934822758206906
-0.042247025702052465 0.2541292310666957 0.30197157820233883
-0.16825882944827592 0.23818576344966083 0.25651123484143795
-0.0855814203954271 0.24776870021342426 0.2956595655299145
-0.07134719047313248 0.2543166876745143 0.2787034746027905
-0.07381319854026352 0.2397768498372951 0.27788617571363033
-0.08949863765006577 0.26348912724970963 0.2820051546908337
-0.10201063606505906 0.2636880279493251 0.2769266601420361
-0.14839061949019944 0.24740719804286151 0.2468754883624035
-0.09473928663497483 0.2423202396345058 0.27010008057126583
-0.05923908803229844 0.2509852648687282 0.28037550409802975
-0.06607931706672227 0.2549620271634975 0.27960988243588986
-0.04472792002921616 0.2465273142766872 0.2826051350451428
-0.09212544414763962 0.2472476364087978 0.271152758202644
-0.04642879817252671 0.24066281327723651 0.3015777703143078
-0.06947648379569565 0.2631917596769252 0.2867552872515637
-0.05323216173415696 0.24199914941310077 0.3008839126444775
-0.09624452743297135 0.2522209287595668 0.26941027601728024
-0.058421073887400976 0.24650168427943378 0.30097778995999874
-0.05989657196765458 0.2633931041669765 0.29012128075131954
-0.16088485572104966 0.26322609195231583 0.255386316380592
-0.08849011215930497 0.2471129895162502 0.27262505253324093
-0.06654144677882706 0.24969255933283954 0.3007109399653393
-0.08265447470908677 0.2545719743680873 0.27528926094541134
-0.04608994576697861 0.2361481786680141 0.30159219463834347
-0.09430304023986374 0.2630456686925807 0.28272827824124874
-0.07774656865363633 0.2603039742422023 0.27933349569806637
-0.10422263893847977 0.2557653189611354 0.2661435838557202
-0.10461824986701523 0.24081850060938984 0.2658184405184704
-0.07963690016036545 0.25181221971034196 0.29748978575238766
-0.08543479296927964 0.2629987002324977 0.2890604968882519
-0.08475039753680741 0.24806416043757587 0.2959693308688122
-0.07621113810306107 0.2367144227933803 0.2987926836825329
-0.06908139440780198 0.2600690723371425 0.2813195224619824
-0.1022849366403154 0.2520020605039516 0.2884918089724499
-0.06394077691798722 0.2549730540227809 0.30042000969419064
-0.09184880409007584 0.2607346774053493 0.2917434211588818
-0.04193174693351304 0.2516457439374843 0.28304579218396725
-0.05423417541747605 0.2552722097349086 0.3011353846407849
-0.09291712794070756 0.26055526742457535 0.2740533586359936
-0.08513097319369828 0.2617765665960231 0.2776920433855969
-0.03820597979789292 0.24504899987696796 0.2833016153193432
-0.08827584836249863 0.2617087365102687 0.292018556199165
-0.09087176475291764 0.26278328904627946 0.2871125574923474
-0.06471758935218369 0.2537981868696132 0.2797986503458935
-0.048872588608317724 0.26069819936274674 0.2842261429644543
-0.08673885318999802 0.2422521711301723 0.2733674879885632
-0.04121595475440537 0.24194103488444477 0.30225219686994137
-0.05458023998504197 0.2624741793584743 0.28615059813031735
-0.045603959295802465 0.24138599643229633 0.2825588818407971
-0.08770111057525193 0.23933988818644672 0.2948598500109631
-0.07712778303390061 0.25094300517558243 0.27710934837827267
-0.06607745442157303 0.2411295772504726 0.2794581886149365
-0.05792590830092942 0.23781776437281757 0.30082752665052
-0.07320138666396653 0.2621033788633266 0.2833953734255749
-0.0746229574418596 0.2579001189184108 0.2789286609507519
-0.09774343523746049 0.24271857747553974 0.26885464151868405
-0.10498343262439286 0.26342201241969254 0.27751436193952145
-0.10480619821315323 0.235987126917831 0.2657320733881909
-0.06455980095630204 0.2367856503438869 0.2797120447970349
-0.09841129038100754 0.2359742523145595 0.26857491692075314
-0.05978271219497239 0.25128692397593644 0.30097975691327633
-0.044473646614604345 0.2561524511289516 0.28389015158185543
-0.09341315779452836 0.255542516798965 0.27071984966764034
-0.03830641362433945 0.2442108989667812 0.3026495810366589
-0.08061680052047288 0.24904203423976093 0.2757987018443066
-0.07051427516704117 0.24316716203211933 0.30006732901105465
-0.06514996144538437 0.2633585930776515 0.290384673676582
-0.09938822541003739 0.24981260308741718 0.2679947253085095
-0.0929506704545549 0.24098944673060566 0.2708351846552807
-0.15701131376987015 0.24527359017848163 0.23978056868085443
-0.10209004435306107 0.2516452074956813 0.2668485875941235
-0.07393011305099045 0.26141679296015885 0.2948675986147839
-0.09763106558089768 0.2624714971494594 0.28511055668363156
-0.07295220944648301 0.2393825651121059 0.2995218273020703
-0.06399454030757462 0.25116872796534684 0.2797849412775952
-0.057455001804881445 0.2429400683355251 0.2806807394839245
-0.14855746779208695 0.2589326501798549 0.24739929398068963
-0.04768764827018296 0.251029372305862 0.3016020294047314
-0.07380267832046067 0.2479935885381618 0.2993577357150036
-0.09328037354712998 0.25426769265650895 0.29247596224317135
-0.04214042279487168 0.2642169595670619 0.2949056859827954
-0.05589610192542588 0.2559618354749599 0.2810452814913708
-0.042647628519587866 0.25334590682505753 0.2832769389964062
-0.10685577842956101 0.23743981132029682 0.2865757580615002
-0.04255339357619797 0.2484283448171535 0.2827947374201733
-0.046279875967555395 0.25301045188426163 0.30160703619489254
-0.10293206426864182 0.2623888851118007 0.27172859867581906
-0.054014413092189184 0.26004540929316666 0.3001054759837109
-0.07915451977019822 0.2568685413312831 0.29706373175153317
-0.07198956463103806 0.2425072194051662 0.29973723848828854
-0.15358485135798966 0.24228620538233905 0.24272807796964227
-0.14591051492457902 0.263269305319778 0.2584647770739514
-0.08484679314857041 0.2555708886098781 0.2955079313136059
-0.046256451342158666 0.2627748847913661 0.2887471552706677
-0.09808404598002946 0.25203722724436906 0.29034581144818844
-0.05560925457244431 0.26373493680476334 0.29237832983502926
-0.10724978003268754 0.2540773750257411 0.28640922268399777
-0.0980992004609636 0.24758219727992206 0.26858749350080074
-0.10057590756183182 0.2463027835798183 0.2892247076846081
-0.05406463000541245 0.24600893268107563 0.30096664389142574
-0.1617198720908693 0.2634300590467372 0.24631317814359246
-0.10607522580390488 0.2494572401952663 0.26518603523740353
-0.044237403605037084 0.23830610522746234 0.28278466423520626
-0.0703262523150972 0.244817853064529 0.27865054567822994
-0.04299682233100449 0.25134962806224015 0.3021497364855725
-0.043022631142192236 0.2634058595609584 0.2968071337557751
-0.04599457833533799 0.26113003501414445 0.2861311074114758
-0.07886063906913315 0.2605466843557277 0.2945965166903454
-0.1677599236703447 0.24165922412394672 0.25682541092404904
-0.09945501241450821 0.25953096160411027 0.28755607565412106
-0.08608269545798813 0.26192706832408097 0.27763255795011105
-0.08192831132178818 0.25415432462214615 0.27555885275373043
-0.0799702987409166 0.24640589961527973 0.2975841995097119
-0.09354911598926102 0.2423418165159145 0.29235025604734005
-0.051441876623683325 0.2617979646634975 0.2994525071001965
-0.06504037830596482 0.26151710757731583 0.2835276361323315
-0.05254447314506089 0.257840097041122 0.3009348150111157
-0.0949914738870195 0.2469228506994167 0.269935512147041
-0.04454880807166611 0.26368427285670426 0.2926175232745129
-0.04742497060065781 0.25623071202754166 0.2830437060214001
-0.0522293433881334 0.25045663127421525 0.28141864498624386
-0.06060686561828171 0.2623873949956813 0.2857021923876721
-0.08148710283999955 0.2595117093038478 0.277006291947456
-0.06203102919822251 0.24295711526393085 0.30111029108533444
-0.15906952175860917 0.25378280887126115 0.23807587584027826
-0.04817369434600388 0.2619988919210353 0.2862239118433911
-0.10352021310096299 0.2526277900648036 0.28794630726346554
-0.09466227743392502 0.2411278487157741 0.2918216224528271
-0.13635362539058243 0.25120282182215836 0.2743892904139477
-0.058164267275386206 0.26117432126521256 0.29967662056455197
-0.10400920960670029 0.24691545972346454 0.2878112431384045
-0.09862188849216019 0.24097031363963275 0.29004379471311154
-0.09156806621318375 0.24048662194728046 0.2932921286440808
-0.050838379595332495 0.2623636723470607 0.29860534628400387
-0.08673530671363389 0.24439769992350727 0.29521479567060055
-0.08274435851340806 0.24318921575068622 0.29664137323865475
-0.08936787996058976 0.23957639941691547 0.2942405577517468
-0.06000184867148911 0.2629703880262294 0.2926249738551098
-0.09029552194839036 0.2434309721898952 0.271921002469154
-0.06792279932265793 0.25298446425913956 0.3001488681651074
-0.06596904847388779 0.26369595536708024 0.2886643048144299
-0.06930933747058426 0.2582440973234096 0.28025295694837155
-0.08851092908149277 0.2634822131109157 0.28360798319348873
-0.17010871920352494 0.2625654936742702 0.24895342548856317
-0.049142955277018896 0.2363100052785793 0.28237827976712765
-0.08798502239947831 0.2518665791463771 0.29471995790967526
-0.1500548556781343 0.24230366954325824 0.26828613241681637
-0.05756279680495774 0.2633392811727443 0.29280635078916134
-0.05601411912208115 0.2633910776090541 0.2946506377078015
-0.08150435838466202 0.23874223241328388 0.29707714279660763
-0.07193152460818802 0.24745172271250873 0.27831383903989376
-0.06518971774344956 0.25748950252055314 0.2996893163538891
-0.053499220345073095 0.2629651428174892 0.2871035571909863
-0.05277925584083115 0.23663735398768573 0.28155794104108395
-0.089765472743564 0.2396780253362575 0.2940930362559277
-0.07572606060271775 0.24500012406825214 0.2774198289729077
-0.09119970950847184 0.2527300120305934 0.293461107812019
-0.0817558154798082 0.2505494953107753 0.2753784294939953
-0.096133960816913 0.2556101084661403 0.26962169369229855
-0.15160906169181382 0.2620826960515895 0.26358624657163204
-0.04369923326736008 0.25985139617442277 0.2859181996203381
-0.06908251199489152 0.26202690610407975 0.28390248974332394
-0.09487221989398514 0.26034426698207047 0.2902313705302197
-0.1557396635747484 0.2634235025358119 0.25534238775739254
-0.07233324501281296 0.2628631592702785 0.29133787115583004
-0.052782951328807226 0.23725712308406025 0.3008526202059704
-0.09953033778434311 0.25750035056590226 0.26856275757321896
-0.10228508565192734 0.2503894568395534 0.2885800238467175
-0.08147604617839371 0.254425048918716 0.2966332074023205
-0.08724792155986344 0.2472689152669826 0.295043253502937
-0.08151827606921708 0.24713760623454242 0.29706695040235104
-0.09893631789451157 0.25919896373271134 0.28798546751508297
-0.04975762817626511 0.2626157999944606 0.2870033021784741
-0.13003600988154923 0.25041645774363663 0.25538238247403683
-0.08248136791949784 0.24876421699046283 0.2750897641993481
-0.05362158868079697 0.24256348618983417 0.3008797403193432
-0.1011323169208101 0.2410619855832973 0.26741977890500607
-0.08358101401095902 0.26217508325099137 0.2916531201220471
-0.06940971169238602 0.24017006167887836 0.30031439026364865
-0.14754627499347245 0.252432644457809 0.26952674349317135
-0.07556502375369584 0.24230337152003437 0.27746638020047726
-0.08060286793475663 0.2584221363973537 0.2956716652728039
-0.09684911224608933 0.2590685487699428 0.2698298331118542
-0.0936317727304033 0.2488679886770168 0.29240038355359615
-0.05855145904784714 0.26069676885127213 0.2999533649302441
-0.08722795400386368 0.24012959012507587 0.2950334783411938
-0.04895308468108689 0.2518196702909389 0.3013717170573193
-0.08103167865043198 0.24396365890025287 0.2756751414156872
-0.09427690360312974 0.23695117244242817 0.2920047279215771
-0.0554189071393541 0.26102489242076066 0.2997380729533154
-0.03839245292907273 0.24627888211726337 0.30269356926450314
-0.05235281440978562 0.24531161794184833 0.28157945831784786
-0.04055547568564927 0.2577618361425319 0.28474172314176144
-0.10564564022784745 0.24245113143443256 0.265359723172279
-0.07880912575488602 0.23880898961543232 0.2765057321406323
-0.1026920810676149 0.2578850985479274 0.26735504826078
-0.0953201487994722 0.2475242019605556 0.2697670694209057
-0.09433251473670518 0.2635732890081325 0.27913101871976437
-0.07085141393905198 0.2485100031804958 0.2785315152026135
-0.06490045640235459 0.262870192618362 0.2926105495310742
-0.04798662516837632 0.2433745861959377 0.2821856375552136
-0.10413865599399125 0.24412620076655536 0.2660231228686291
-0.04650491330390488 0.2469732166242519 0.2823924060679394
-0.09146635088687455 0.26334351310252335 0.2832553621149975
-0.05607896897559678 0.2496526838254848 0.2808113332606274
-0.03843706700568711 0.2532086969327846 0.28358682354459347
-0.07845474633937394 0.24556851396083026 0.2766291733599621
-0.04071035835509812 0.2585952878904262 0.3012529846049267
-0.08116568479304825 0.24069476136683612 0.27562638481626095
-0.09797997627025162 0.25758510837077286 0.2688627477503735
-0.04008224460845505 0.26207005986689713 0.2884126540041882
-0.08132418844466721 0.25736302146433976 0.2962626453257519
-0.05813655111556565 0.2625421286535182 0.29690172632703365
-0.07536373886828934 0.2491416336011806 0.2774875398493725
-0.09170484397178208 0.24621069440364032 0.293258094391914
-0.09259685728316819 0.2619048953962245 0.2766291733599621
-0.05100884887939011 0.25659191617488053 0.30116155107984127
-0.05427390191321885 0.2456098199796596 0.28122105558881344
-0.0508204385972551 0.2640280724477687 0.29504456480512203
-0.09081745002036606 0.262256920428268 0.2891760106898266
-0.044049887392573706 0.25369799146174576 0.283337497315498
-0.059244154427104345 0.25601077088832047 0.2806121941424328
-0.06379172060256516 0.24957478055476337 0.30107905825147213
-0.09167706820731675 0.25124281653880265 0.2713245387888867
-0.03944933268790757 0.24064439544200092 0.30246731003293575
-0.06722900125747239 0.2362455726575771 0.3006731506205517
-0.08429559919600998 0.2635341883611598 0.2871762152529675
-0.14541491720443284 0.2488355041456142 0.24895515402326165
-0.05402156564956223 0.23583352574824482 0.3008223410464245
-0.07666028890376603 0.2631675601911464 0.28569694717893185
-0.15518292639022385 0.26347965011119034 0.25505175550946774
-0.09222568425899064 0.25403207549571183 0.29294004400739254
-0.10178924951320206 0.26146745690821793 0.27050884922513546
-0.06750619265800034 0.25111174592494157 0.27919062336453976
-0.052523820135646215 0.2589789033842006 0.2826888795710522
-0.07956230494742905 0.2627459169340053 0.28406890591153683
-0.08065837476020371 0.26310765752314713 0.2891450162745434
-0.04536333534484421 0.24942588815211444 0.2825677629328686
-0.10427942726378953 0.23777973660945087 0.28764470776090206
-0.05027952644591843 0.2638777495336452 0.2918473120547253
-0.1691465661263994 0.25966733703135636 0.2547851439333874
-0.06845897290473496 0.2617524267148891 0.29532208403119625
-0.09445100877051865 0.2435903550100246 0.2702188130236584
-0.04358687851195847 0.2604686618757167 0.28634169062146725
-0.17047376785045182 0.26256704339503434 0.24864801128873407
-0.13725386414294755 0.23944622287272602 0.2525853153086621
-0.135633392665439 0.2573961020421901 0.2743138309336621
-0.09143264446025406 0.23587906369685321 0.2714589472628552
-0.09372895810370957 0.25713241109370377 0.292029702267738
-0.10118976089721238 0.23888856181620746 0.26739337404737057
-0.08092459890609299 0.2372642756414333 0.2757163878298718
-0.06223252269988572 0.2621279955816188 0.28497763832578243
-0.053761093351893774 0.23703092345713764 0.2813064094401318
-0.07553028914695298 0.2586783767652431 0.29677315910825314
-0.05333867523437058 0.2635338307332912 0.2882045741892773
-0.0933471605516008 0.2497212291669765 0.2925496931887585
-0.06707107875113999 0.2538222075414577 0.3001355167246777
-0.05126425478225266 0.25127619513987687 0.3011980887270886
-0.06949871632819687 0.24684381494044452 0.30031605919370236
-0.086239962313228 0.2589057088804164 0.2743736143923718
-0.05089717957740342 0.24585515269755512 0.30108406504163326
-0.040655194256358496 0.25871312627314713 0.3011903401232678
-0.0905092791057161 0.24233251819132953 0.27183415850171627
-0.08552253100638901 0.2594516278219142 0.27470483740338864
-0.04347067925696885 0.24646800765513568 0.3020578857279736
-0.05065503570800339 0.24895870694636493 0.2817201252795178
-0.06720448884730851 0.26346796760081437 0.2894201513148266
-0.09785607311492478 0.25081527242182877 0.29047783573636593
-0.09561799320941483 0.23854106673716693 0.29138025005826534
-0.049202828142695776 0.24555915603160053 0.3012910123682934
-0.06822497997050797 0.24268323192118793 0.2790546651698071
-0.10446651134257828 0.2623364926290431 0.2712053294993359
-0.13846433017020737 0.25735098132609513 0.25275346001157345
-0.15054261538749253 0.23833638438700824 0.24581530054578363
-0.08028350624805008 0.26241666087626603 0.29170789679059567
-0.16930851194625413 0.24113243827342182 0.2558290596819836
-0.09530988189940964 0.2446955443334499 0.2915416594363171
-0.10014235827689683 0.23924344787120014 0.2678522702074963
-0.1414799526668123 0.2408800722074428 0.27218201120862545
-0.09776759001975571 0.24770921477793842 0.2904968496180493
-0.08838207874064957 0.26305961617945817 0.2878035541392285
-0.042560218308024755 0.23784083137034565 0.302052998147102
-0.0390837774015001 0.2360769511175075 0.2832360502100903
-0.03770264837508713 0.26243770131587174 0.28988316019544186
-0.07142807397609269 0.26173239955424454 0.28286966045865597
-0.04192769381766831 0.25005501517771866 0.30234816034802975
