ply
format ascii 1.0
element vertex 149
property float x
property float y
property float z
element face 0
property list uchar int vertex_indices
end_header
0.23669707920784439 -0.25949552646160934 -0.19117643574705542
0.2377455249094435 -0.25763484826565597 -0.1903888348721546
0.23812246468300308 -0.2575734554815373 -0.18989092747202338
0.23522281792396987 -0.2602561413335881 -0.1933875594519657
0.23783886578316177 -0.2604157327699742 -0.188376626768021
0.23826354887718643 -0.25485727181912277 -0.19151406625738562
0.23516613390678848 -0.25674605360508773 -0.19554307202330054
0.23640847351784194 -0.2550444006013951 -0.19429723063936652
0.23864448216194595 -0.2611857353735051 -0.18625917176237525
0.24028426554436172 -0.25995635977269027 -0.18694388011923255
0.23765051510567153 -0.2540676592874608 -0.19280800858965338
0.23883694555992568 -0.2541284560251317 -0.19126433769693793
0.24210792925590957 -0.2575817107248387 -0.187002873816399
0.2422577753328749 -0.2556201218652806 -0.18715367356768073
0.23662811663383926 -0.26302608838559005 -0.18373004237642707
0.2419470563196608 -0.25374993672848556 -0.187683946289925
0.2354341759943434 -0.25241619339466903 -0.1959861282490772
0.24329525377983535 -0.2574548422384343 -0.18554175535669745
0.2412819280886122 -0.25227135410786483 -0.18847945968141974
0.23989987519020523 -0.25027677407742355 -0.19017661253443183
0.23652488138908828 -0.24999314537525982 -0.19434154669275702
0.23982083943123306 -0.2623746692228398 -0.1819902424000782
0.23906904604668106 -0.2496170400667271 -0.1911188725613636
0.24353790428871597 -0.25392794600010726 -0.18595874945154608
0.23819607641930068 -0.2632262109804234 -0.1815809075020832
0.23973930027718032 -0.24949434390545697 -0.19038832823267401
0.23545688536400283 -0.24973520627499432 -0.1957156125687641
0.24492556002373184 -0.2573477028894505 -0.1825683478497547
0.24582511332268203 -0.256195604710587 -0.18209252397051276
0.2406635895037123 -0.26336175194264266 -0.1784138743065876
0.24042123701805557 -0.263491690068253 -0.17834366003504218
0.24085557606453384 -0.24626624575138897 -0.18918321172228278
0.2359868898653456 -0.2459033577728352 -0.19469699899187506
0.24490714218849624 -0.24992883196354718 -0.1845481012248081
0.24550664570564712 -0.26079082479954574 -0.17963994184961737
0.24509441998238052 -0.261084258465775 -0.17935489753714026
0.2443199172281691 -0.26160925617695663 -0.178890502848534
0.24469691660637344 -0.24862277498722882 -0.1848118964814228
0.2383258357309767 -0.24457472553730816 -0.19185528794756354
0.24717372801537002 -0.2585563658762059 -0.18039684633245887
0.24679988768333877 -0.2605010270166478 -0.1787561092757267
0.24728363898033584 -0.25134435286999557 -0.18163137773504676
0.2465847149156996 -0.2494964300680241 -0.1826269988202137
0.2378532901071974 -0.2642306684541783 -0.175428948202042
0.24441427138084854 -0.24575528493405194 -0.18512711564531745
0.24316638853783096 -0.24435964217663617 -0.18645242492189826
0.2390134945177504 -0.24226093283177227 -0.1909740332745594
0.2409777059816786 -0.24275806537152142 -0.1888375643872303
0.24907922890419448 -0.2566590010213933 -0.17920153478613318
0.24182069447273696 -0.26384305944920394 -0.17399015168180884
0.2356809988283583 -0.24130837610245556 -0.19466651121607245
0.24951666739220107 -0.2535463570642552 -0.17871702352991523
0.2438945784830519 -0.2635219990301213 -0.1742333982371372
0.2449319377207228 -0.24375680079937787 -0.18443650642862738
0.24293416884178604 -0.24194885781288952 -0.18657661119928778
0.2498416319155165 -0.2583054303217015 -0.17690922955503882
0.2395303263925978 -0.2396138160514912 -0.19024506846895636
0.23899156000847305 -0.23944079866886944 -0.19080450276365699
0.25039976980919326 -0.25560834994793746 -0.17684791127672614
0.24747103598350967 -0.26191484919072006 -0.17419358233442725
0.24847048666710342 -0.246942400841721 -0.18034725526800574
0.23917275812859023 -0.23892819872380108 -0.1905876908682865
0.2496885671877333 -0.24902498713017315 -0.17865421513548316
0.25053078081840957 -0.25054758778096053 -0.1775542561196369
0.24494171288246597 -0.240878626613625 -0.1842635635518116
0.2510650768541762 -0.256949394850739 -0.1753773305796665
0.23685795214409316 -0.23802147796631665 -0.1930123929165882
0.23858559277290786 -0.23745661964894146 -0.19117752353182257
0.25126809027428115 -0.25079244366169784 -0.17660692969789923
0.2426656499170729 -0.23834365597248883 -0.1866959545992893
0.2517221584581801 -0.25757142892361495 -0.17429820338716925
0.2449023738169142 -0.23941218843937725 -0.18422483543386878
0.25173896696800674 -0.2598279117631993 -0.1736136440419239
0.2515050783419081 -0.26028436413288925 -0.17342417577734412
0.2491867556833693 -0.2439822255659184 -0.17922877410879554
0.25193268206352676 -0.25085657825947616 -0.17575646082392157
0.24890250113243545 -0.24318543067456097 -0.17954570690622748
0.24545401480431045 -0.23892346015454144 -0.18358642498484076
0.2482033982538649 -0.24118363848210186 -0.18032274285784186
0.2530561104082533 -0.25420168033123824 -0.17414102593889655
0.2417871966623732 -0.2360503076601109 -0.18763928750982703
0.24122250225777114 -0.23548856368542523 -0.1882635418557209
0.23620379116768325 -0.23483318081379742 -0.19358844200601996
0.25171518471474136 -0.24646829059601635 -0.1761487934969944
0.2444768562578627 -0.2360570727872929 -0.18460885325899543
0.2364892378115126 -0.2339586316633305 -0.1932279531144184
0.2538954034113356 -0.2527912258195958 -0.17315601448049964
0.25358182337517227 -0.2500400244283757 -0.17364110688200415
0.24966907646889175 -0.239873468785294 -0.17830297986498297
0.25169849541420425 -0.24325792482376904 -0.1759416673563999
0.2366963043474623 -0.2319042681741795 -0.19294606784811438
0.24972909834618057 -0.2381407617616734 -0.17814095953932227
0.24619680788750137 -0.23413947215557904 -0.18264109531870307
0.24506503489250625 -0.23333457103253216 -0.1838896040104908
0.23997128155464614 -0.23129165163517804 -0.18958530465593756
0.2514493479990431 -0.2404334544229588 -0.17606056372156562
0.24733257439369644 -0.23488125195980877 -0.1812018517636341
0.24825936701530898 -0.23448455324650616 -0.17996596435537757
0.2490515723490187 -0.23507732143879742 -0.17893253902426184
0.23644423630470718 -0.22925929716111035 -0.19315532485475959
0.23775833990807022 -0.22865298381329388 -0.19182715455522956
0.24208915379280532 -0.22880132487297863 -0.18719243148794593
0.2416556492113539 -0.22816929212094159 -0.1876774046801609
0.25204706337685073 -0.23615290215493054 -0.1751186613225025
0.25304782536262954 -0.2373809664535603 -0.1737964812897724
0.2512561693453261 -0.23405885687352032 -0.17607184390058936
0.24195736792320693 -0.22684361031533093 -0.18732965628138007
0.24550968554253066 -0.22833500793457837 -0.18334282080164374
0.24949282553429092 -0.23109275093556256 -0.17827560643186988
0.2509398474955031 -0.23264487078667492 -0.17643996218672217
0.250073970820851 -0.2312796412992558 -0.17753154674997748
0.24567294266457046 -0.22735068192959637 -0.18315368036261023
0.2435746207498976 -0.22633279850960583 -0.18550752738943518
0.24008411314720596 -0.2243746816206059 -0.18942353765001715
0.2479551449083754 -0.22727924576283307 -0.18026920298567237
0.24962347891563857 -0.2287447451639256 -0.17809373775949897
0.2392566218637892 -0.2237284778642735 -0.19026566187372626
0.24442458298439468 -0.22488954654217572 -0.18454695383539618
0.2482532873415419 -0.2261582165050587 -0.17986772099962653
0.24900013354057754 -0.22653442612171978 -0.17888463179102362
0.25290197279686416 -0.23067156961441845 -0.1738180432700199
0.24647539999718154 -0.22422774127007336 -0.18220489362707556
0.2367646112703749 -0.22160269310952038 -0.19273961225977362
0.2398701324724623 -0.22157782307148785 -0.18964832166662635
0.23513478186363662 -0.221250981001862 -0.19455528894892157
0.2429095521234938 -0.22133687129498333 -0.18624918798437537
0.24799615290398086 -0.22339938571930737 -0.18019974867334784
0.24528283026451553 -0.22146084895611615 -0.18357776741018714
0.2529416098856398 -0.22714091828347058 -0.17373102048864783
0.24377679970497573 -0.22026042631150097 -0.185272521176247
0.24210339930290664 -0.21922670295716137 -0.18715233246317328
0.24694472697014297 -0.2210562377262196 -0.1815821293973011
0.2451615348123976 -0.2187778054761967 -0.18371269742479743
0.25226938870186294 -0.2238103299427113 -0.1746420476817173
0.2502633347773024 -0.22192923715592236 -0.17724601069918097
0.24021113064522231 -0.21722406139851422 -0.18927312532892646
0.23858326819176162 -0.20617562523365826 -0.19090395311346472
0.25301271822685684 -0.20780274262905926 -0.17378466466894568
0.2465673103594252 -0.18579709520817608 -0.18207528332701148
0.2426198735498854 -0.18121558418751568 -0.1865741376065296
0.25049692538017715 -0.22089405348778576 -0.17694429198732795
0.2520578518175551 -0.1726509778785786 -0.17493472138872565
0.23798233416313613 -0.2070065437841496 -0.19149405399790229
0.24909532215828384 -0.21481448402882428 -0.17874894181719245
0.24093353893990005 -0.20304816952229351 -0.18846296409597815
0.24847990420097793 -0.17480769744397015 -0.1795587156199497
0.23903656151527847 -0.18144009998322339 -0.19045673946371497
0.24326020624870742 -0.2178465723085484 -0.18585345784655036
0.24800908711189712 -0.21534839263439984 -0.1801775906466526
