ply
format ascii 1.0
element vertex 282
property float x
property float y
property float z
element face 0
property list uchar int vertex_indices
end_header
0.25345713045830215 -0.039251089005478336 -0.1733195696257633
0.2410603180193373 -0.04311203947544904 -0.18984857837191046
0.25328129675621475 -0.11409938326359602 -0.17352249363890113
0.2364296331667372 -0.07569141676903578 -0.1961700085782093
0.2448459878229567 -0.054871171622284366 -0.18414006272783698
0.24417859461540664 -0.06383779635907026 -0.18492955605020941
0.2439173474573561 -0.04650866976261945 -0.18525651732912482
0.2504982366823622 -0.060567766337402774 -0.17694040278425635
0.2369443192743727 -0.08079607775688978 -0.19544545451631964
0.23808455612892593 -0.062072962431915714 -0.19371882716646613
0.2528001680635878 -0.10350228837014051 -0.1740779046200794
0.23905015137428726 -0.08232924333096357 -0.19233382383814276
0.24526262428993667 -0.047222524790771915 -0.1836488161467594
0.24952900555366958 -0.07437856486321302 -0.1781907890223545
0.24333965924019302 -0.05589517941952558 -0.1859563205622715
0.23681849386925186 -0.15111459782601208 -0.1926241580628437
0.24889749434227432 -0.05415230980397077 -0.1790091756962818
0.24734538939232315 -0.07846444836140486 -0.181051409640221
0.23551595356697524 -0.07991589596749159 -0.19731335977545203
0.2378584161066481 -0.16571460655213208 -0.1916078392647785
0.2448369875215956 -0.06608127048493238 -0.18415886799326361
0.25102490332359756 -0.12420111885548445 -0.1762609098338169
0.25288361456627334 -0.12582013001919598 -0.1739815239094776
0.23900264647240127 -0.09480865290642591 -0.1922429267548603
0.2414662852549025 -0.07950608423233839 -0.1887469802283329
0.25225776579613174 -0.10744476309300276 -0.1747040067099613
0.246172489192433 -0.05976793160916181 -0.18257988134851874
0.24523949768776382 -0.0846427082109532 -0.1837525133275074
0.24355328228706802 -0.08166322103024336 -0.1858213607453388
0.24797904637093032 -0.04524201145649762 -0.18021765986910285
0.24956518557304824 -0.09998932471752973 -0.17814416328897895
0.2516785278582045 -0.08756756773472639 -0.17541765312185706
0.2517215624117323 -0.10235123327256056 -0.17536216119757117
0.25320017483467544 -0.0555131732511601 -0.17361613253584326
0.24663740542168106 -0.0846240370559773 -0.18198301533689917
0.24553156044716323 -0.08810758581639143 -0.1833617899798435
0.2435891642832228 -0.10186290731907698 -0.18549867609968604
0.24888026859993423 -0.09770032754422041 -0.17903187016478003
0.24716735031837905 -0.03987660995007367 -0.18128570059767188
0.2416302576326796 -0.07899726918221327 -0.1884989504002613
0.25194937136406387 -0.0777864008236012 -0.17506820599070014
0.2516598716043898 -0.07829427710057112 -0.17544171849718512
0.24797344353432144 -0.03974542012692304 -0.1802250359438938
0.24177128222221816 -0.06355340769768568 -0.18819730619421424
0.2516114726328322 -0.10529197743416639 -0.17550409475794257
0.2418428674005934 -0.14295114567757458 -0.18744443992605628
0.2392055406832167 -0.07619427135468336 -0.19205725828638495
0.24260080006355728 -0.08506859829903456 -0.18724145630827368
0.24334156658882583 -0.05518662920475812 -0.18595304230680884
0.24494302418465103 -0.05397516479969831 -0.184025681414513
0.2508148565554091 -0.04434460392475934 -0.1765319321536106
0.2407829776071974 -0.036386847405441715 -0.190504169859795
0.24322450306648696 -0.06518660476685377 -0.18613078335752906
0.2396710529589125 -0.051393210797317936 -0.19147104660501899
0.25130468752617324 -0.07078155866146894 -0.17589994410505713
0.24813544895882095 -0.057226478962906314 -0.180011889734177
0.24855297949547256 -0.1004542111444554 -0.17946252862444342
0.23980319645637954 -0.0857771783161244 -0.19128600398531379
0.24866277125114883 -0.07447195044041487 -0.17931807676783026
0.24633383896584 -0.06024576714516492 -0.18238245586386145
0.2506746068262526 -0.10784339895726057 -0.1767128471516651
0.24672508385414565 -0.1350693105745396 -0.1818676654480976
0.23726320412392105 -0.09955614796162458 -0.19461548964014472
0.23832720663780654 -0.058266863136299564 -0.19335130492678107
0.2373412862085768 -0.04947325578213544 -0.19498116413584174
0.23815018084282363 -0.04814255228520246 -0.1939155522965473
0.23841899779076065 -0.14035415640354962 -0.19106007257929267
0.24375963356728042 -0.045879095702179386 -0.1854619447373432
0.23525262024635757 -0.036922961382873966 -0.1976430777691883
0.23816615488762344 -0.08862440279007765 -0.19367832581034125
0.23758769181007827 -0.12871816745282025 -0.19187242428293647
0.2389161005281874 -0.08459457746029707 -0.1925531689309162
0.23697900917763198 -0.0877252220201573 -0.19540349284639777
0.24110645201439346 -0.1063300370264134 -0.18829045335283698
0.249196650054402 -0.08139134934426161 -0.17861954013338507
0.23784923699135269 -0.09921041121960493 -0.1936157111310047
0.23916107561821426 -0.15731914332390637 -0.1903348628663105
0.2385057821535536 -0.16725148251534314 -0.1909751955651325
0.24126821902031387 -0.1002788542795262 -0.18834457437029303
0.24650204327339614 -0.09759610882283064 -0.18216117362013282
0.2370406999849745 -0.06543777873993727 -0.19529569784632148
0.2454255237841078 -0.07858042409897657 -0.18349217514028968
0.2468247428202101 -0.13809743514538617 -0.18173652032843055
0.2394993319773146 -0.053285449652679874 -0.19168759027948798
0.24677938368553604 -0.04471242418766828 -0.1817962292813343
0.25086116936439956 -0.08713918915272566 -0.17647217849722327
0.24980813410515273 -0.16282638898373455 -0.17783074716558875
0.24609226134056533 -0.06966887405396315 -0.18267593423357428
0.24329275038475479 -0.07793341567993971 -0.18611120323172034
0.24603378918404067 -0.09576182058335157 -0.18273446599474372
0.24939710047478164 -0.08519388726235243 -0.17836100498667182
0.24803906824821914 -0.06940533211708876 -0.18013872841825904
0.24934721138710464 -0.09602670362473341 -0.17842540780535163
0.24590104964012588 -0.07617385676384779 -0.18291001657476844
0.2373439684175917 -0.06781256189823957 -0.19483802358141364
0.2352232351564833 -0.05310368528843732 -0.1976798538350147
0.24787193682426895 -0.08895049980164381 -0.18035868445864142
0.2359445109629103 -0.057768165974625064 -0.19677715639105262
0.2531048074030348 -0.09646552792073103 -0.17372617761125983
0.2520164265894362 -0.09894581130028578 -0.1749825541161579
0.24990272667641128 -0.13372525563717694 -0.17770869175424994
0.2375733270906874 -0.09480248382569166 -0.19454618433943213
0.2428092971109816 -0.04379323115826459 -0.18711485604277076
0.2407333865427443 -0.041174471287735416 -0.1904217962407154
0.2383493199610182 -0.04279667129994245 -0.19372890035143317
0.2535620942377516 -0.05110776415348859 -0.17319837848177375
0.25161802914375747 -0.045729219822891666 -0.17549564579954566
0.24478280689949478 -0.0693616270113072 -0.18423000613680304
0.2423132672571608 -0.07543531051159712 -0.18747774402132453
0.2509012832903334 -0.1371120660591206 -0.17642038206091346
0.23999601748222793 -0.09609706690789076 -0.19049513975611151
0.23946184065575088 -0.09016233673573347 -0.19186840096941413
0.2501361980699965 -0.051219284443863346 -0.17740744987955512
0.24268120672935928 -0.08849911382675978 -0.1870360139988941
0.2509688153528639 -0.061265334396370365 -0.17633324007025183
0.2442167415880629 -0.040191203265198185 -0.1851989094399494
0.2500969186090895 -0.07139004757881971 -0.1774581436299366
0.23827892687553848 -0.08381766071797224 -0.1934832398079914
0.24419814493889297 -0.08505207291127058 -0.18505097071161689
0.23881966021294082 -0.06662066271782728 -0.19261196891298712
0.24401658919090713 -0.0597635953712544 -0.18511742989054145
0.24453991797203506 -0.10337509205818983 -0.18441363314619483
0.25141316797966445 -0.07062163939953657 -0.17575997749796332
0.2401573672556349 -0.06741791954518171 -0.19060496131411017
0.2511878028177687 -0.05514860144139142 -0.1760506991528553
0.24641215946907485 -0.08939564218998762 -0.1822793994330448
0.239692153003163 -0.06393066039563032 -0.1912981037282032
0.2386157527231642 -0.09929807475090834 -0.1922962133072895
0.2496936335825392 -0.10044342270375105 -0.17797844747534217
0.2440248742365309 -0.08568242183209272 -0.1852585140847248
0.23960894491905654 -0.07541409125805708 -0.19145244995584906
0.25322747376198257 -0.10164497783661695 -0.17358464638224066
0.24444276240105117 -0.04737138739109845 -0.18462332228651465
0.2535159006380507 -0.08370685568333479 -0.17325170973768653
0.2363542928957411 -0.11970323315144392 -0.19341731707086982
0.23665619042152847 -0.05657204976559491 -0.19587776700487555
0.24676913168663467 -0.06459446242333265 -0.18180968502989234
0.24004173424477065 -0.08104556789875837 -0.19085598627558173
0.23722517636055435 -0.04036036124707074 -0.19518535474768103
0.23977923538917983 -0.10017357757569166 -0.19059777895441474
0.25373059656853164 -0.05759236207486005 -0.17300393322935523
0.2401140346788832 -0.05829344680786939 -0.19066584745874823
0.24600500014061416 -0.09984660139561506 -0.18276295701494635
0.23868715908760513 -0.06900435677052351 -0.19281362632742347
0.24508345272774185 -0.09690579762936445 -0.18382043282022895
0.24011021998161758 -0.08863693466664167 -0.19090754429331244
0.2463827147745558 -0.07666988661766859 -0.1823181871556324
0.23886609223122085 -0.05009812107563825 -0.1927384797715229
0.24629950669044937 -0.05624586334706159 -0.1824276361846012
0.24855810549492324 -0.06466335049153181 -0.1794557783984226
0.23558259155983413 -0.10308460882187696 -0.19714505115976752
0.24006456282371963 -0.09814846506596418 -0.19027037064066352
0.25177985575432266 -0.0802401750373921 -0.17528694013586463
0.24031108763451065 -0.07282292833805891 -0.1904011730336231
0.23980903771156753 -0.04074674835682721 -0.19190158585539283
0.2413274660372206 -0.05336254826069684 -0.18894567231169165
0.2510874882006117 -0.1597110628175816 -0.17618017534246863
0.24981045868629898 -0.04475173345089765 -0.1778277371310276
0.24876707937950576 -0.06076665213585706 -0.17918083707323493
0.2530481829904982 -0.038839876561172916 -0.17379159370890082
0.23541849997276748 -0.08762104800225111 -0.19743589202394904
0.25197678950066055 -0.05259695640087934 -0.1750329051398319
0.241503836181111 -0.0736784189033589 -0.18863872329225959
0.23594194796318496 -0.05037859073162885 -0.19678038994303168
0.24157291796440566 -0.05344504108906598 -0.18857758382788123
0.2537326827310988 -0.0823037325429997 -0.17300148943891944
0.2399798646234938 -0.0946640967416844 -0.1906434212111515
0.2409213199877211 -0.04659488788128705 -0.18989867607584418
0.2413613810800978 -0.06780357649803968 -0.18881995121469916
0.23635995533699478 -0.03973424425602765 -0.1962571803711933
0.25147318985695327 -0.0947934239196858 -0.1756825212620777
0.2428576960825392 -0.06851470461369367 -0.18667072693338813
0.2497910275721022 -0.10887230923653456 -0.17785274127951087
0.2530540242456862 -0.05869482448578687 -0.17378481368055762
0.2509862795137831 -0.09168705335141035 -0.1763107691191715
0.24088066961998428 -0.08922401061535688 -0.18973065058222235
0.24259352829689468 -0.07213623812676283 -0.187063908972649
0.2366713896059462 -0.08177725961685987 -0.1958534036063236
0.2474818840288588 -0.048680514006622745 -0.18087188045015754
0.24118417647118057 -0.043835967688568546 -0.18964754680624427
0.2525274768137404 -0.05951327076435895 -0.17439263204565467
0.2402770533823439 -0.06713677933693739 -0.19042581955423774
0.24949133541817153 -0.06549687674523207 -0.17823938170900763
0.24684083607429946 -0.10240043690682264 -0.1817153308772129
0.2436632528566786 -0.057700276284225895 -0.18553132454386176
0.2451826348566481 -0.07280056169510694 -0.18376693765154303
0.24225980189079727 -0.04649835815907331 -0.18782503048410834
0.2527468219065138 -0.08622205248356672 -0.17413940171232642
0.24870991852516616 -0.06725610783577772 -0.1792559687279743
0.24457019713158096 -0.09433287373066755 -0.18443102280130805
0.24142813828224624 -0.09828209867955061 -0.18833843509188117
0.23680842068428481 -0.11742968848229261 -0.19307503739824713
0.25291019823784316 -0.07354548564434858 -0.17395090202322425
0.2525128736757704 -0.07823427012444349 -0.1744095001601261
0.25051796581978286 -0.04714524736882062 -0.17691490689745368
0.2408425822519728 -0.11948889484883161 -0.1885647986315769
0.2406989350580641 -0.05060112467289777 -0.18997359911432685
0.2488554134630629 -0.07482480993748518 -0.17906450370779456
0.2406466617845961 -0.051997750906952335 -0.18999773899546088
0.25124198343986953 -0.07697078576565596 -0.17598082760801734
0.23670268204445327 -0.0721096693563542 -0.19580591360559882
0.2526676073336073 -0.15322279921055645 -0.17423086503973426
0.2510214462542006 -0.09683486810208174 -0.17626540998449744
0.24550104286903823 -0.044015705494888736 -0.18338151911726416
0.24777269509071792 -0.07861009231091352 -0.18048920372953833
0.24168831255669082 -0.09448961904526564 -0.18818824628820838
0.24616617110008682 -0.07556627681732984 -0.18259043137064399
0.24670577194923843 -0.0992354302692494 -0.18189305702677191
0.2366006388925978 -0.03765660515309186 -0.19595598319998206
0.23712223913902725 -0.09425947061062666 -0.19519088307848395
0.2433808460497328 -0.06268885722637983 -0.1859020505332035
0.25267142203087295 -0.06417447319508406 -0.17422648409834326
0.24142670777077163 -0.11908361306668135 -0.18791059295168341
0.2370203748011061 -0.05763396611691327 -0.19532620052328528
0.24635166075462783 -0.11362405112267347 -0.18235903123846472
0.23587674048180068 -0.0656798928070149 -0.1968619588994068
0.24937385466331924 -0.15145476153374524 -0.17839103082647742
0.24803209450478042 -0.040918171315201236 -0.18014789263239325
0.25369644310707534 -0.06782063832760664 -0.1730432573937458
0.23717510845894302 -0.07269060602665754 -0.19509392122259558
0.2477914109491774 -0.09383639684201094 -0.18046461681356848
0.25251257565254653 -0.08533845832825514 -0.17440987268915595
0.2367440476679274 -0.06103157988072248 -0.19574306050768317
0.23659277107948745 -0.07812240710736128 -0.1959658328675312
0.2373291864656874 -0.03758779159069867 -0.19505523780813636
0.2535223975443312 -0.06785546234131666 -0.17324422935476722
0.23611873533958877 -0.08928269138813826 -0.196560180582909
0.25055945065254653 -0.08314070096493574 -0.1768613223218006
0.24995941069359268 -0.062327757387169315 -0.17763548234930457
0.2515181913637587 -0.03829699745655866 -0.17562446633806647
0.25032878067726577 -0.04360923161984296 -0.1771590028189701
0.24687665846580947 -0.08522212496281477 -0.18166828791132392
0.23658937361473525 -0.07488791635514112 -0.19597009459963263
0.2517709746622511 -0.050633400588043644 -0.1752983991288227
0.24212885048622573 -0.04377862802029462 -0.1881872479104084
0.25345713045830215 -0.039251089005478336 -0.1733195696257633
0.2410603180193373 -0.04311203947544904 -0.18984857837191046
0.2364296331667372 -0.07569141676903578 -0.1961700085782093
0.2448459878229567 -0.054871171622284366 -0.18414006272783698
0.24417859461540664 -0.06383779635907026 -0.18492955605020941
0.2439173474573561 -0.04650866976261945 -0.18525651732912482
0.2504982366823622 -0.060567766337402774 -0.17694040278425635
0.2369443192743727 -0.08079607775688978 -0.19544545451631964
0.23808455612892593 -0.062072962431915714 -0.19371882716646613
0.24342674162620986 -0.11103282859803053 -0.1856678191803974
0.2528001680635878 -0.10350228837014051 -0.1740779046200794
0.2403278961443373 -0.14950692644596905 -0.18914130965700568
0.23905015137428726 -0.08232924333096357 -0.19233382383814276
0.24526262428993667 -0.047222524790771915 -0.1836488161467594
0.24952900555366958 -0.07437856486321302 -0.1781907890223545
0.24333965924019302 -0.05589517941952558 -0.1859563205622715
0.23681849386925186 -0.15111459782601208 -0.1926241580628437
0.24889749434227432 -0.05415230980397077 -0.1790091756962818
0.24734538939232315 -0.07846444836140486 -0.181051409640221
0.23551595356697524 -0.07991589596749159 -0.19731335977545203
0.2448369875215956 -0.06608127048493238 -0.18415886799326361
0.23900264647240127 -0.09480865290642591 -0.1922429267548603
0.24124813225502456 -0.12685543289662213 -0.18811058143606604
0.2414662852549025 -0.07950608423233839 -0.1887469802283329
0.246172489192433 -0.05976793160916181 -0.18257988134851874
0.24523949768776382 -0.0846427082109532 -0.1837525133275074
0.24355328228706802 -0.08166322103024336 -0.1858213607453388
0.24797904637093032 -0.04524201145649762 -0.18021765986910285
0.24956518557304824 -0.09998932471752973 -0.17814416328897895
0.2516785278582045 -0.08756756773472639 -0.17541765312185706
0.2517215624117323 -0.10235123327256056 -0.17536216119757117
0.25320017483467544 -0.0555131732511601 -0.17361613253584326
0.24663740542168106 -0.0846240370559773 -0.18198301533689917
0.24553156044716323 -0.08810758581639143 -0.1833617899798435
0.2435891642832228 -0.10186290731907698 -0.18549867609968604
0.24888026859993423 -0.09770032754422041 -0.17903187016478003
0.24716735031837905 -0.03987660995007367 -0.18128570059767188
0.2416302576326796 -0.07899726918221327 -0.1884989504002613
0.24658614542717422 -0.16194185605526776 -0.18205047289362372
0.25194937136406387 -0.0777864008236012 -0.17506820599070014
0.2516598716043898 -0.07829427710057112 -0.17544171849718512
0.24797344353432144 -0.03974542012692304 -0.1802250359438938
0.24177128222221816 -0.06355340769768568 -0.18819730619421424
0.2392055406832167 -0.07619427135468336 -0.19205725828638495
0.24260080006355728 -0.08506859829903456 -0.18724145630827368
0.24334156658882583 -0.05518662920475812 -0.18595304230680884
0.24494302418465103 -0.05397516479969831 -0.184025681414513
