ply
format ascii 1.0
element vertex 302
property float x
property float y
property float z
element face 0
property list uchar int vertex_indices
end_header
0.24808550026649917 0.040824294180861996 -0.17984663585653723
0.25212156918281997 0.04695159205912738 -0.1748612437628788
0.24006241705650772 -0.009700029997833686 -0.19126642385950507
0.23980367329353774 0.0971240998220363 -0.19168189803591193
0.24415022280449356 0.09530779728411821 -0.18408105412950934
0.2499673381113478 0.09646150478839068 -0.17674406508436621
0.2354794755243727 0.08612129101275591 -0.1973592404507679
0.24229115393394912 -0.016055852084167915 -0.18801147381296576
0.24225396063560928 0.0984843374204555 -0.18730492035379828
0.2399786725305983 0.05266353497027545 -0.19136644045343817
0.23607564118141616 0.03765147933482318 -0.19661307970514716
0.2406582846903273 0.04149675378321795 -0.1901401344918293
0.24193120148415054 0.040370404810897396 -0.18793911377420844
0.24744373705620254 0.07875177273272661 -0.18001109997263373
0.25004178431267227 0.09490436324595598 -0.17670913676252784
0.25203341391319717 0.06667786845683245 -0.1749629292868656
0.24740612652534927 0.03634604820727496 -0.18061964849462928
0.25101810839409316 0.0921759010267177 -0.17571396271219672
0.24142283346886123 0.05339053282260089 -0.1887730870627445
0.24454164650673355 0.06287139663218645 -0.1836655203484577
0.24260014441246475 0.09348168978213457 -0.18669365982046546
0.2408396616243788 0.03748628506182818 -0.18980718294611396
0.24148965027565444 0.09596827635287432 -0.18865559140673102
0.23871523287529434 0.038938313813201474 -0.19316292444696845
0.23660344031090225 0.0760347844076076 -0.19595242182245673
0.24500322487587417 0.059959203095428036 -0.18305232266416968
0.24903202202553237 0.062040865511886166 -0.178304827608971
0.24027663614983047 0.0830373466920772 -0.19083288947573127
0.23816681053871597 0.0958729089212337 -0.19388953486910285
0.23820662644142593 0.06240278491496234 -0.19383693377008857
0.24155324843162979 0.0983980894994655 -0.18854141870966376
0.2522912636064955 0.0582202673864284 -0.17466530839434088
0.2508435859941908 0.05560922631739764 -0.17638171354761542
0.2505117669367262 0.06687641152857927 -0.17664538959494056
0.24273109581703628 0.07520514735697893 -0.18640673796167792
0.24159091856712783 0.0899154246759334 -0.18847382704248847
0.253082992103047 0.03963276752947955 -0.1737514648818058
0.2432852401995131 0.08423954257487444 -0.185451782145409
0.24513578560585464 0.08080679187297014 -0.18270065525999488
0.23837036040062393 0.058284759612075375 -0.19362085203161658
0.2471268191599318 0.08039897689341692 -0.18030825892916144
0.2486892357134291 0.06890565165995745 -0.17869012693396033
0.2357907309793898 0.0322650671911159 -0.19696960488787116
0.23998999741310562 0.0588286817979732 -0.19134720305433692
0.24191373732323135 0.08029955634593157 -0.18789533416262091
0.25203728821510757 0.07427901038645891 -0.17495845893850745
0.24134349968666519 0.0447353721570888 -0.18891050557127417
0.23882645514244522 0.0677235723447719 -0.19301874081125678
0.24044275429481948 0.05146566042422442 -0.19053280989160956
0.2503573313021132 -0.006224155335434393 -0.17712210754385413
0.24553829577202285 0.05982440719126849 -0.1823821280383152
0.251926244761891 0.004228800625793024 -0.1750980679177326
0.250769497420735 0.08090278515338091 -0.1763429854296726
0.24969524290794815 0.033143848271361874 -0.1779422525548023
0.24803227331871475 0.09364748010157732 -0.17899616698255957
0.24511516239876235 0.035031259150497006 -0.18344574312200965
0.2459099903368422 0.040517449469558285 -0.18231823185911597
0.2500696196817824 0.061360567898742245 -0.17718206981649817
0.24026459601158584 0.0820636750173488 -0.1908545855664295
0.24163431074852432 0.07520440229891924 -0.18839595357408942
0.24215322878593887 -0.02241170397282453 -0.188288918533234
0.2515140786432692 0.05192148694514422 -0.17561841646662177
0.24065238383049453 0.06704762587069658 -0.19015844801893653
0.25008052733177627 0.043874651284209774 -0.17743214110365332
0.2367837443613478 0.010112077088347955 -0.19571166376104773
0.24690139439339126 0.09338203081607012 -0.18023774663439215
0.23882508423561538 0.07427477845667986 -0.19302052895060004
0.24100661423439468 0.033913493247024105 -0.18949725369444312
0.2441074862741896 0.09090170273303179 -0.1841383043908161
0.23989790823692764 0.0687088669252315 -0.19151276985636176
0.2532864823603102 0.036163121552459286 -0.17351654807558478
0.24188614037270034 0.08620917806147722 -0.187950379052071
0.24915558245415176 -0.03024426093579145 -0.17867258826723517
0.23884940293068374 0.09690281757830767 -0.1929884318493885
0.24693578627342666 0.04425737270831256 -0.1811526928328556
0.2500295653604933 0.07305145272730974 -0.1771992061518711
0.2371158018373915 0.03501775869845538 -0.1952760432147068
0.2500884547495314 -0.03205001345158429 -0.17746908108225287
0.24186742451424087 0.06341582545756487 -0.1879695121430439
0.24489015486473525 0.041190147490493344 -0.18371526042452277
0.25023555901283706 0.03627726444720416 -0.17724045256605567
0.24751293804878677 0.06659644851206926 -0.18001472095480384
0.2384319319986769 0.08331775674342302 -0.19353952149382056
0.2497861995958754 0.041145265192977475 -0.17780648807516516
0.24978244450325454 0.019891947598449273 -0.1778638277434391
0.23603660013908828 0.06156209120272784 -0.19666186610689582
0.2407178297304579 0.03946521887301593 -0.1900311473988575
0.24166697409386123 0.06373295197009234 -0.18833527604570807
0.24651855375999893 0.03965020188807635 -0.1816252086543125
0.23844611790413345 0.04834070810794024 -0.1935200456761402
0.23712265637154067 0.04103583106516986 -0.19526747504702033
0.2459186926149794 0.084914893002502 -0.18156059721937598
0.24278175976509536 0.05583849558352618 -0.1862478915833515
0.23868727829689468 0.036356836647979306 -0.19319877664080085
0.25105786469215835 0.051350176424972103 -0.17619653681745948
0.24764132645363296 -0.01850599041462751 -0.18066201249590338
0.23684907105202163 0.03592491158961444 -0.19562858978739203
0.2369877114557692 0.0627746284913936 -0.195446020760445
0.2385211005472609 0.03187492498873858 -0.19341606537332953
0.23838198330635513 0.07494336375712542 -0.19360547403326453
0.24646401551002944 0.07978743323802141 -0.18109128514757575
0.24616730358833755 0.03392180809497027 -0.18210516015520514
0.2432931676172682 0.050369441599837826 -0.18558882812490882
0.23909157660240615 0.07888054856776384 -0.19266877213945807
0.24494642164940322 0.08370530614375261 -0.18292639295092047
0.23862636234993423 0.05139097580432086 -0.19328240195742072
0.25203883793587173 -0.0006223320055088562 -0.17495668570032538
0.24300241616005386 0.07206872114657549 -0.18590871135225714
0.247210086848683 0.09911838182925371 -0.17990086118212165
0.24670982506508315 0.060560017914763974 -0.18099615613451422
0.24807411577934707 0.08416157969950823 -0.1791286085032505
0.2463297262453505 0.052131325097075985 -0.18158141414156379
0.25241005566353286 0.03444132217883258 -0.1745281730078739
0.2507913723253676 0.08820605287074236 -0.17607023457518042
0.24877268221611465 -0.031664132981308414 -0.179173386492638
0.23760205652946914 0.09592559942721514 -0.19463506976595343
0.24689680483574356 0.05685687074183612 -0.18092440704336585
0.23758584406609023 0.05112001308917193 -0.1946562443160099
0.24736327078575576 0.05385896572589068 -0.18040316442480506
0.24930966046089614 0.0004628003549495178 -0.17847382167807044
0.24095291044945205 0.06728377947329668 -0.18961899618139685
0.24876451637978042 0.033187031836501645 -0.17911083141794623
0.2464890494608351 0.022537887186996026 -0.1821537081383747
0.24692827608818496 0.033307820649138974 -0.18126813212862433
0.243192912604756 0.06270521888255266 -0.18554977218141974
0.24015671160454238 0.04515939960002093 -0.19104478398790778
0.23987388756508315 0.0733751357507625 -0.19155586401453437
0.25130152848000015 0.07047367105006365 -0.17577998975744666
0.24928271916145767 0.03975352653979449 -0.1784453306578678
0.2506462350153395 0.09377449759959368 -0.17606750766268195
0.24302858259911025 0.035942524762145565 -0.18629663328161658
0.2438653126024672 0.09690269836901812 -0.18454674521913947
0.2530648722910353 0.06409293422221331 -0.17377231160631598
0.2482256903910109 0.05733338007449298 -0.17938274780741156
0.2465733304285475 0.09125855574130205 -0.1806382451437992
0.24331528094047988 0.03971460470675616 -0.18588588277330817
0.23751294758552993 0.09787282356738237 -0.19475268463125647
0.24662947800392593 0.04813066133975177 -0.1813529644393009
0.23573386814827407 0.07119348654269365 -0.1970407281302494
0.24566126015419448 0.06428766259669451 -0.18211439887514533
0.23855167773003066 0.08497655400752215 -0.1933814797781986
0.2506881966852614 0.06433585295199541 -0.17644842604628028
0.2410222902559706 0.07181909689425615 -0.18949446717729987
0.24723428633446182 0.09648242601870684 -0.17986596266260566
0.23548132326836074 0.08669117102145342 -0.19735682646265448
0.2393382802271315 0.04788365969180255 -0.1923417363547367
0.24212026741737808 0.04844275125979571 -0.18757337967386664
0.2458212986254164 0.07006999859332232 -0.1819565508746189
0.24992942955727065 0.08741399654864458 -0.17703506986132087
0.24525714066261733 0.013302981944076104 -0.18383663038244666
0.24257946160072769 0.07923024901866106 -0.1866967145585102
0.2528467192911574 0.034634530634872006 -0.1740241859339756
0.24295127537483657 0.05088558802127032 -0.18612307945719184
0.25344044115776504 0.06308239707469133 -0.17333880702486457
0.23789847042793716 0.08080250033854632 -0.19424379507532538
0.237480820681996 -0.009798556475647407 -0.1947805050992054
0.2507496490740248 0.06884387144564776 -0.17639160791864814
0.23805105831856216 0.04322993764399676 -0.19404116908541144
0.2488696589731642 0.07854944476603655 -0.1784179870270771
0.2492092266344496 0.09860691437243609 -0.17760170141687812
0.24760764982933486 0.048857659192077206 -0.18029982487192572
0.23790162947411025 0.05887991199015765 -0.19423953334322394
0.2432975783609816 0.07522094258784441 -0.18541418651571692
0.2353675976061293 0.09527143845080523 -0.1974992219590229
0.25332659628624404 0.09349814066409258 -0.17323922256460608
0.237841726806111 0.09164965161799578 -0.19431868831148566
0.25182658579582656 0.06733360895632891 -0.17519234756460608
0.24045610573524917 0.08580735334872393 -0.19051084558000983
0.24261999275917495 0.04607054600237994 -0.18677823881140174
0.2398325815462538 0.0937683881235042 -0.19163004199495734
0.2360731377863356 0.06409749397753862 -0.19661617914667548
0.23862058069939102 -0.013628750948914008 -0.19326070586672248
0.24636829045052017 0.010534495205871148 -0.18233715633383216
0.24922341253990615 0.07084506759165911 -0.17809762696257056
0.25138169672722305 0.0767683983755031 -0.175690001644997
0.23701131489510024 0.05587378153323321 -0.19541486243238868
0.24513894465202773 0.04822447905062823 -0.18313085178366126
0.23920643475288833 0.010358333678237481 -0.19246632496347846
0.23876309540504898 0.09240764388560442 -0.19310233632555426
0.24448132660622085 0.044405847878448056 -0.18420839945307196
0.24005383398766006 0.09656259426592974 -0.19123286644449652
0.2519859090113112 -0.027765840201385932 -0.1750210587166828
0.2415301814341017 0.07969409236430315 -0.18858281413546027
0.2484286442064711 0.08716508755206255 -0.17871896068087043
0.24027902033562148 0.011784106583587212 -0.19092888275614203
0.24789756682152236 0.06851783403872637 -0.17958848814001502
0.23777634051079238 0.0742378831815639 -0.19440490643015326
0.24796271469826187 0.07211655387400774 -0.17952283362379493
0.2481699600481459 0.01263850936412005 -0.17996648589601935
0.24318570044273818 0.0831860602807918 -0.18561804930200995
0.2382064476274916 0.0804486871671596 -0.19383723179331244
0.250450791385121 0.03904759892939715 -0.176967433490662
0.23712849762672866 0.09905853876589922 -0.19526011387339057
0.24048453715080703 0.025455594153396172 -0.19041076938143195
0.2364664688372084 0.04671788224696307 -0.19612388948431433
0.23817306902641738 0.08943980941294817 -0.19388123492231787
0.2521042838358351 0.08233654508113054 -0.17486186961164893
0.24487835314506973 0.09217366585253862 -0.18288100401392401
0.24698525812859023 0.04983904966830401 -0.180914810695557
0.24965870526070083 -0.03017351022244306 -0.1780234191798252
0.23559534695381606 0.0879727304887691 -0.19721419254770697
0.24363005306953872 0.07999718198298601 -0.18492237369051398
0.23622942116493667 0.04918086537837176 -0.19642055670252265
0.24988347437614883 0.0050955415677943665 -0.1777334872864765
0.24006480124229873 0.05672505506991534 -0.191212839283852
0.24384236481422866 0.04789400109767108 -0.18493241707315863
0.24464339163536514 0.06992867598055987 -0.1835553560637516
0.2534044399523207 0.04940056809901385 -0.1733803961657566
0.24001407768959487 0.09759768852709917 -0.19130425790777625
0.2414885773920485 0.08568319687365679 -0.18865743915071906
0.23983895924324478 0.03541761645793109 -0.1916078690671009
0.25021422055000747 0.043154627175323056 -0.1772628788136524
0.24480199959511245 0.050227612347594784 -0.1835473243378681
0.24928355362648452 0.04812896260737567 -0.17844395975103797
0.23686260130638565 0.06349459299563555 -0.19561114052763404
0.24102890637154067 0.04356303820132403 -0.18947518507471503
0.251838149096913 0.06001368174075274 -0.17519210914602698
0.23783713724846328 0.04716035732745318 -0.19432421664228858
0.24826407578224624 0.0368613601636806 -0.1796469006918949
0.2447471633219191 0.08392640957354693 -0.1832162503384632
0.2384890928530165 0.06810957202433733 -0.19346404711237372
0.2397960438990065 0.05859443554400592 -0.1916955474995655
0.2497350588106581 0.08446940788745073 -0.17728561798563422
0.24326783564323867 0.07290372261523394 -0.18545285502901496
0.2506952300333449 0.08398780235766558 -0.1763015751027149
0.2499344363474318 0.02682957062243609 -0.17765893677702368
0.23593235161537612 0.09122365722178606 -0.1967924300812763
0.2452315702700087 0.06836062678813128 -0.18274404744139136
0.2352029099726149 0.05887433895587115 -0.197705319919495
0.24389511492485488 0.055858105511657284 -0.1846268240593952
0.2441094532274672 0.06238725790499835 -0.18426480034819068
0.2390897884630629 0.08146661529063372 -0.1926710967206043
0.24201476719612564 0.0960782767248073 -0.18772529701223792
0.25320470478767837 0.05549415955065875 -0.17361090222826422
0.2532785549425551 0.050461411566726254 -0.17352566758623542
0.24529951956505264 0.0992908478689113 -0.18221727649202765
0.24254757311577285 0.06030756244181781 -0.18672875205507697
0.24747926142448867 0.07512536653994707 -0.18007472793093146
0.23607790615791763 0.06257975110530047 -0.19661024848452033
0.2517569675707289 0.09734287867068438 -0.1747345689915699
0.24808550026649917 0.040824294180861996 -0.17984663585653723
0.25212156918281997 0.04695159205912738 -0.1748612437628788
0.23980367329353774 0.0971240998220363 -0.19168189803591193
0.24415022280449356 0.09530779728411821 -0.18408105412950934
0.2499673381113478 0.09646150478839068 -0.17674406508436621
0.2354794755243727 0.08612129101275591 -0.1973592404507679
0.24225396063560928 0.0984843374204555 -0.18730492035379828
0.2399786725305983 0.05266353497027545 -0.19136644045343817
0.23607564118141616 0.03765147933482318 -0.19661307970514716
0.2406582846903273 0.04149675378321795 -0.1901401344918293
0.24193120148415054 0.040370404810897396 -0.18793911377420844
0.24744373705620254 0.07875177273272661 -0.18001109997263373
0.25004178431267227 0.09490436324595598 -0.17670913676252784
0.25203341391319717 0.06667786845683245 -0.1749629292868656
0.24740612652534927 0.03634604820727496 -0.18061964849462928
0.25101810839409316 0.0921759010267177 -0.17571396271219672
0.24142283346886123 0.05339053282260089 -0.1887730870627445
0.24454164650673355 0.06287139663218645 -0.1836655203484577
0.24260014441246475 0.09348168978213457 -0.18669365982046546
0.2408396616243788 0.03748628506182818 -0.18980718294611396
0.24148965027565444 0.09596827635287432 -0.18865559140673102
0.23871523287529434 0.038938313813201474 -0.19316292444696845
0.23660344031090225 0.0760347844076076 -0.19595242182245673
0.24500322487587417 0.059959203095428036 -0.18305232266416968
0.24903202202553237 0.062040865511886166 -0.178304827608971
0.24478918459648574 -0.02144679418087812 -0.1845742527627033
0.24027663614983047 0.0830373466920772 -0.19083288947573127
0.23816681053871597 0.0958729089212337 -0.19388953486910285
0.23820662644142593 0.06240278491496234 -0.19383693377008857
0.24346196797127212 0.02201658496379046 -0.18598743418684424
0.24155324843162979 0.0983980894994655 -0.18854141870966376
0.2522912636064955 0.0582202673864284 -0.17466530839434088
0.2508435859941908 0.05560922631739764 -0.17638171354761542
0.2505117669367262 0.06687641152857927 -0.17664538959494056
0.24273109581703628 0.07520514735697893 -0.18640673796167792
0.24159091856712783 0.0899154246759334 -0.18847382704248847
0.253082992103047 0.03963276752947955 -0.1737514648818058
0.2432852401995131 0.08423954257487444 -0.185451782145409
0.24513578560585464 0.08080679187297014 -0.18270065525999488
0.23837036040062393 0.058284759612075375 -0.19362085203161658
0.2471268191599318 0.08039897689341692 -0.18030825892916144
0.2486892357134291 0.06890565165995745 -0.17869012693396033
0.2357907309793898 0.0322650671911159 -0.19696960488787116
0.23998999741310562 0.0588286817979732 -0.19134720305433692
0.24191373732323135 0.08029955634593157 -0.18789533416262091
0.25203728821510757 0.07427901038645891 -0.17495845893850745
0.24134349968666519 0.0447353721570888 -0.18891050557127417
0.23882645514244522 0.0677235723447719 -0.19301874081125678
0.24044275429481948 0.05146566042422442 -0.19053280989160956
0.24553829577202285 0.05982440719126849 -0.1823821280383152
0.250769497420735 0.08090278515338091 -0.1763429854296726
0.24969524290794815 0.033143848271361874 -0.1779422525548023
0.24803227331871475 0.09364748010157732 -0.17899616698255957
0.24511516239876235 0.035031259150497006 -0.18344574312200965
0.24151045229668106 -0.0005900560903629822 -0.18909592072000922
0.2459099903368422 0.040517449469558285 -0.18231823185911597
0.2500696196817824 0.061360567898742245 -0.17718206981649817
0.24026459601158584 0.0820636750173488 -0.1908545855664295
0.24163431074852432 0.07520440229891924 -0.18839595357408942
0.2515140786432692 0.05192148694514422 -0.17561841646662177
0.24065238383049453 0.06704762587069658 -0.19015844801893653
0.25008052733177627 0.043874651284209774 -0.17743214110365332
