ply
format ascii 1.0
element vertex 114
property float x
property float y
property float z
element face 0
property list uchar int vertex_indices
end_header
0.23135846998924697 0.19894641646861225 -0.169859221973328
0.22967422154182876 0.1795923412752071 -0.17231813708773078
0.2325319066309401 0.1093456746053615 -0.16781955102911414
0.23493266251320327 0.15903040775775104 -0.1637271706246418
0.23366630223030532 0.17319461712359577 -0.16579685250750006
0.23047810938591445 0.16943344482897907 -0.17114543060293616
0.23235124495262588 0.20709007987498432 -0.16814168433180274
0.2296177163385817 0.20268559464930683 -0.17240057031145514
0.22963208105797256 0.23017317065714984 -0.1723810795926136
0.2313262238764235 0.1872762144517818 -0.16990636924734534
0.23387533571953262 0.21823638686656147 -0.16542412976255835
0.23265546705955947 0.12294238814829973 -0.16759917775621833
0.23211896565193618 0.20950329312800556 -0.16855574289789618
0.23177480843300308 0.20413732537745624 -0.16916949192514838
0.2303617611193129 0.18809163579463153 -0.17131435016622962
0.23168045428032363 0.18047460922717243 -0.16933766643038214
0.23077267554039443 0.20389825114726215 -0.1707144443177265
0.233788193728871 0.1091405154180446 -0.1655795041703266
0.23023450520271743 0.11227047452448992 -0.17151885370245398
0.23179900791878189 0.1865380109262386 -0.1691263083600086
0.2331635370516249 0.23108577737330585 -0.1666938726090473
0.23296111967796768 0.20588302621363788 -0.16705422739019812
0.23353791382545913 0.19864845284938007 -0.16602574924459876
0.2295789137148329 0.17607393869876056 -0.17245762685766639
0.23224783089394058 0.22255933293818622 -0.1683261011027378
0.2298041596674391 0.17226320514201313 -0.17212978641024054
0.23227644112343276 0.19913816461085468 -0.16827504972448767
0.23439061787361587 0.18980851778506427 -0.1645053539656681
0.23283332731956924 0.20236325273036151 -0.16728203634252967
0.23147213604683364 0.1906263531160274 -0.16969337204924048
0.23122924711937393 0.2307194472265163 -0.17004916707506598
0.23129338171715225 0.21101146945475727 -0.16995433608522834
0.23135250952476943 0.21107667693614154 -0.1698679540537876
0.22978669550651992 0.19537079343318134 -0.17215391139021338
0.23257047083610977 0.22666054973124652 -0.16775090137949408
0.231019319560475 0.17857801923274189 -0.17035437265863837
0.22950977232689346 0.22920238980769306 -0.17255938688745917
0.23022735264534439 0.22460496434687763 -0.17151071766844214
0.2341412916445204 0.19424909362315326 -0.16494984070291938
0.23481184389824356 0.131337970585815 -0.16388787964811743
0.23238855746025527 0.21301621207713275 -0.16807507614126624
0.2322967067026564 0.22977036246775775 -0.16823952535620154
0.23205310251945938 0.19064942011355548 -0.16867323855390967
0.2329484834932753 0.2104758621168056 -0.167076817550568
0.23009520914787734 0.11423486480235247 -0.17172530929079474
0.2299754038118788 0.1872147024583736 -0.17187834421625556
0.23293870833153213 0.23502784976481586 -0.16709587613573493
0.2298690691255995 0.20545244225978046 -0.17203362921705664
0.23205870535606826 0.19344985494136005 -0.1686632249735874
0.23380887654060806 0.18645480284213214 -0.16554263869753302
0.23244899657005752 0.2159739137601772 -0.1679673705481571
0.2346143141054579 0.17208009967326313 -0.16415058711996497
0.2329245224260756 0.21050775060176044 -0.16711950937738837
0.23112851526970352 0.18552598366259723 -0.17019497493734778
0.2303610458635756 0.19613587865351825 -0.17131542304983557
0.2331952467226454 0.18324640402316242 -0.16663681606283606
0.2300824537538954 0.2078603506994167 -0.17172215024462165
0.23467838909859146 0.18320801863192707 -0.16406532267561377
0.22955984022850479 0.19718408593653827 -0.17248508969774665
0.23100000765556777 0.19387274989604145 -0.1703826550625843
0.23044520762199844 0.17984265098094135 -0.17119262258043708
0.22999847080940689 0.16997763523577838 -0.17184597889414252
0.23195427801842178 0.2357163430166164 -0.16885227600565375
0.23496145155662979 0.2021353841733852 -0.163688904442696
0.23053312447304214 0.2236296535444179 -0.1710641745709461
0.23444128182167495 0.20127296456813007 -0.16441506782999457
0.23479640629524673 0.23557066926478534 -0.1639090690993351
0.2335001840853163 0.22545772799967914 -0.166092953481583
0.23245006945366348 0.2175215483617702 -0.16796537379255713
0.23426103737587417 0.22419190415858417 -0.16473632196417273
0.22932821657890762 0.21779388198374897 -0.1728232864522022
0.23276746418709243 0.2137872577619472 -0.167399442591576
0.2329833522104689 0.17866429695605426 -0.1670145604991001
0.23375445749992813 0.17660325774668842 -0.16563964525690497
0.23479813482994522 0.21509426841258197 -0.16390608886709632
0.2320833220743605 0.16881579169749408 -0.16861925164690436
0.23364281800026382 0.1844753921937862 -0.16583866516581
0.23167854693169082 0.19131717094897419 -0.1693411533021015
0.23286354687447036 0.22721266755580097 -0.16722830275526465
0.23071187880272354 0.17337235817431598 -0.17080397049417914
0.23093241598839248 0.22667646417140155 -0.17048173288336219
0.23256695416206802 0.17202088245867878 -0.16775701085558356
0.23228883888954605 0.23176777371882587 -0.16825377086630286
0.23468536284203018 0.16525474199771076 -0.16405612865915717
0.23440891649956191 0.1566380263280788 -0.16447276512613715
0.23312372114891494 0.17898371824740558 -0.16676428059568824
0.23153895285362686 0.17309215673922687 -0.16958995799055518
0.23255986120933975 0.22042131433009296 -0.16776964704027594
0.23013413098091567 0.2207493782949367 -0.17164666096201361
0.23508340265984023 0.22112524518489032 -0.16352672020426215
0.23135846998924697 0.19894641646861225 -0.169859221973328
0.22967422154182876 0.1795923412752071 -0.17231813708773078
0.23366630223030532 0.17319461712359577 -0.16579685250750006
0.23047810938591445 0.16943344482897907 -0.17114543060293616
0.23235124495262588 0.20709007987498432 -0.16814168433180274
0.2296177163385817 0.20268559464930683 -0.17240057031145514
0.22963208105797256 0.23017317065714984 -0.1723810795926136
0.2313262238764235 0.1872762144517818 -0.16990636924734534
0.23387533571953262 0.21823638686656147 -0.16542412976255835
0.23211896565193618 0.20950329312800556 -0.16855574289789618
0.23013615753883804 0.11790642151354937 -0.17166829744806708
0.23177480843300308 0.20413732537745624 -0.16916949192514838
0.2303617611193129 0.18809163579463153 -0.17131435016622962
0.23421239998573745 0.13183218249797016 -0.1648230765246433
0.23168045428032363 0.18047460922717243 -0.16933766643038214
0.23077267554039443 0.20389825114726215 -0.1707144443177265
0.23179900791878189 0.1865380109262386 -0.1691263083600086
0.2331635370516249 0.23108577737330585 -0.1666938726090473
0.23296111967796768 0.20588302621363788 -0.16705422739019812
0.23353791382545913 0.19864845284938007 -0.16602574924459876
0.2295789137148329 0.17607393869876056 -0.17245762685766639
0.23319435265297378 0.14196261772631794 -0.16663836578360022
0.23224783089394058 0.22255933293818622 -0.1683261011027378
0.2298041596674391 0.17226320514201313 -0.17212978641024054
