ply
format ascii 1.0
element vertex 298
property float x
property float y
property float z
element face 0
property list uchar int vertex_indices
end_header
0.19577580836052383 0.23693358907221942 0.21007015665540277
0.19539451744789565 0.23666524896144062 0.21036233862409173
0.1958829179071852 0.24086475381373554 0.20998855789670526
0.1967936172747084 0.24085277328013568 0.2092906471110302
0.1971053495668837 0.24094712743281513 0.20905193050870477
0.19371044781441177 0.24172693500041156 0.21148636301526605
0.19743913557762588 0.24257564553736835 0.2087968226290661
0.19066313054794753 0.2374280096006313 0.21361943443784295
0.20117074396843398 0.23866778621195942 0.20570453365811883
0.19886279251808608 0.24359726914881855 0.20770534237393914
0.1894424870275923 0.23701632031916767 0.21457775791654168
0.201059283282704 0.24101758012293964 0.20580168922910272
0.2002757802271315 0.242534339518539 0.20648320873746454
0.20012307312721694 0.24348735818385273 0.20661606749066888
0.20281440165276016 0.23665493735789447 0.20427545269498407
0.19724518206352676 0.24626147756098896 0.20893105228910028
0.19909805205101455 0.2460114360761562 0.20748832186231195
0.19305610802406753 0.2468881607961574 0.21189936359891473
0.18892774131531204 0.24320441493510395 0.21497985085019647
0.20162856724495376 0.2445141077947536 0.20530679186353265
0.188555838134236 0.2431374193143764 0.21527179440030633
0.20005649473900283 0.24635618934153705 0.20665969809064447
0.19661998894447769 0.24796926984309345 0.20939781626233636
0.20463162806267227 0.23936551818370014 0.20238723715314447
0.1887110486292311 0.24549692878245502 0.2151478763438183
0.2052038922571608 0.23777246484278827 0.2017264004565197
0.19363147166008438 0.24947291621684223 0.21149452885160028
0.18739646818870986 0.2445439101171413 0.21616228779325067
0.20425558235878433 0.2452298403692165 0.2028214569903332
0.20564091351265396 0.24137449273585468 0.20122178753385125
0.19837922003502334 0.25055104503153947 0.20802476366529046
0.18471920635933364 0.24016278991221576 0.21820452173718988
0.18411830213303054 0.237416148276321 0.21866526564130365
0.18657368567223037 0.24610495576380878 0.216781043610664
0.20652765181297744 0.23602843293666034 0.20019783934125482
0.20644897368187393 0.23917484292506366 0.2002886768198925
0.205970229175038 0.24236184367655902 0.2008414502955395
0.20367658283943618 0.24771875152110248 0.20349004229077874
0.189647169377751 0.24983888873576313 0.21438302954206048
0.20266336348289932 0.24915409097193866 0.20442827900418817
0.19603216793770278 0.2521073223066249 0.20983024796018182
0.2034706487917372 0.24849045285700946 0.203722440800758
0.1889598086142012 0.24999308595179706 0.2149213786936718
0.18472710397476638 0.24421370038508564 0.21818842848310052
0.1840477004312941 0.24237394341944843 0.21871676405438958
0.18337187316650833 0.24038082370280414 0.2192408676958996
0.19970941689247573 0.2520184517812648 0.20713957508573114
0.19421357062096084 0.25281935939311173 0.21120508869657098
0.18371930864090408 0.24351376304148822 0.21896710356244622
0.1891586497091719 0.25126028069972184 0.21476461847791253
0.18607306626076187 0.24840790042399555 0.21714671810636102
0.20483845618004287 0.24864250430583149 0.20212503632077752
0.19494640972847427 0.25455057630061295 0.21097143848905145
0.19211262610191787 0.2542891503286281 0.21286311110028802
0.18152624514336074 0.2397856117200771 0.22066434582242547
0.1887403443121382 0.252734899611465 0.2151621218539196
0.19483935978645767 0.25499141225337174 0.2111173506594616
0.20746129896873916 0.24546617278575092 0.1990984912730175
0.2083936944269606 0.24191594132899433 0.19792416056165277
0.18687132146591628 0.2516624332380214 0.21657862623700677
0.2059937134050795 0.24956470736979633 0.20078071316251336
0.19248306896919692 0.25516122588633683 0.2130094405032116
0.1806004061960646 0.23694443711756855 0.22137840946683465
0.1807069494986006 0.23958832034587055 0.22129603584775506
0.18528878834480728 0.2507718802404323 0.21785577496060907
0.19344729330772842 0.25600910195826676 0.21229114492902337
0.20159155276054824 0.2549816370916286 0.20580621918210565
0.2057134523653456 0.2512410283994594 0.20120491941937982
0.191859425570912 0.2558631897878566 0.213687622151466
0.19856882241005386 0.25637531289576676 0.20859446486005365
0.20983946469063247 0.23637676248072773 0.19604226311215936
0.20201838162178481 0.25633507976054337 0.20617392023572503
0.1801603451036879 0.24424970159052997 0.22171416243085443
0.183631361987538 0.25139743098735 0.21916272600659906
0.2103269710802504 0.24073982247828632 0.1954087849474865
0.20571065094704116 0.25362193593501237 0.20145168264874994
0.2095870390200087 0.23859924087046772 0.2261729474879223
0.21025121357674087 0.23609453448771625 0.22565045317182122
0.21022170927757705 0.23826557406901508 0.22567346056470453
0.20657152083153213 0.2391142250013271 0.22850813826093255
0.21008044626945938 0.24424076089381366 0.19573202093610345
0.20217281725639785 0.2572786808919826 0.20685466488370477
0.2053891434931227 0.25450897225855973 0.20192691048154413
0.21162063029045547 0.2394704819631496 0.22458138426312982
0.21187806275124038 0.23944878587245136 0.22438796719083368
0.18088683631653274 0.2481960655164638 0.22114475925931512
0.17838311341042007 0.23705941447734027 0.22309031446942865
0.20936596539253677 0.24730229386805683 0.1966290112353283
0.20469564345116104 0.23725765952586322 0.22992017229566156
0.21271324303383315 0.23731893310069233 0.22376044949063836
0.20449954416985 0.23694789418696552 0.23006775339612542
0.21100300696129287 0.23615503320216327 0.19442262609967767
0.21083706763023818 0.24179261931895404 0.2251891132212597
0.21245336678261245 0.24034440526484638 0.22395565470227777
0.18561926629776443 0.2547946573209682 0.21795108278760492
0.18300068524116958 0.2522550822210231 0.21965327223310052
0.20782333758110488 0.24384218463420063 0.22757377584943353
0.20940756943459 0.24847936639308124 0.1965551610804516
0.2113173022531935 0.23748749503611713 0.19394257029065667
0.20474869158501113 0.24308818587779193 0.22987952192792474
0.2129315748476454 0.24275511512278705 0.22359629829892694
0.21553129103416885 0.2370346785497585 0.22150489052304803
0.21094387915367568 0.24416732797145038 0.19451560934552728
0.20072704699272598 0.25936383018016007 0.20913835724362909
0.1866087630056807 0.256655752749435 0.21775575836667596
0.2163459077143141 0.23661190280436664 0.22059907873639642
0.19397646334404434 0.2594684363317409 0.2149012919283825
0.19909620430702651 0.25981795796870377 0.21021386345395623
0.20241773274177993 0.24207842359065204 0.23162677248487054
0.20628631260628189 0.2458074689817348 0.22873743732938348
0.21169775870079482 0.23951363572596698 0.19335993488797723
0.21673172857994522 0.23694038400172382 0.22017493208417474
0.20410847809547866 0.24478387841700702 0.2303608890391308
0.20079249289268936 0.2596825362157741 0.20933004578122674
0.21465748694176162 0.24311459073542743 0.22230514248380243
0.20073986199135269 0.2388979197454372 0.23288115223416864
0.17722889926666702 0.2403489352178493 0.22400661667356073
0.17768058326477493 0.2432568670225063 0.22362317999372064
0.2162585273050734 0.24167943009852558 0.22072257956037103
0.2112979307436415 0.24462783345698505 0.19397237261304437
0.20815396454567398 0.25373071441172745 0.19859554728040277
0.18016600754494155 0.2508864403676906 0.22169330080518304
0.21166062500709976 0.24385720500468402 0.1934171553469616
0.18274033215279067 0.25444865235804703 0.22011699636945306
0.20006692555183853 0.24091565618037372 0.23338338097104608
0.1881568744444319 0.25861471900462296 0.21738668640622674
0.19905865338081802 0.2383134962034145 0.23413010796079217
0.2012414350771376 0.24462634334086567 0.23250933846005975
0.19917333271736587 0.2406458855581203 0.23405101259717523
0.20437610295052017 0.24801069507121234 0.2301882143832165
0.20395571139091934 0.24800151595591693 0.23050346334943353
0.20081257965797866 0.26106488713740494 0.21028705795774041
0.21960121538872207 0.23781967172145038 0.21695508917340814
0.21967512514824356 0.23727136859416156 0.2168863650179821
0.2121071234011122 0.24929976472376972 0.22425862511167108
0.21615100052589858 0.24643081435679584 0.2208938833094555
0.20035362389320815 0.24518758067607074 0.23317780455121576
0.21035754826302017 0.25086277732371476 0.1952830787516552
0.21589028980965103 0.2469373346280971 0.22117480000028192
0.2100978508257338 0.2503182292890468 0.22582980354795038
0.1917124405168959 0.26094985017298844 0.21657594402799188
0.20962995436424697 0.25048738727091935 0.22619601448545038
0.2112676515840956 0.2502188683462062 0.2249042626238781
0.20203483250374282 0.24805510053157 0.23193892200955926
0.20770079043144668 0.25699734696864274 0.20016100367078363
0.21957928087944473 0.24251937875270038 0.21699788530835687
0.20309829857582534 0.24925678977488666 0.23116143902310907
0.22039300348991836 0.2401742936086574 0.21598496397504388
0.21764332201714004 0.2470076085042873 0.2193522687769848
0.21267807629341567 0.2507789135885158 0.2238497372485119
0.17642718699211563 0.24587547788142353 0.22473361452588617
0.18353170302147354 0.2572436929654994 0.2205184932566601
0.21065157797569717 0.2518031001996913 0.19482781847486078
0.21058082726234878 0.25206220159052994 0.1949401136256176
0.20089697983498062 0.2624009252500453 0.2122130628443676
0.18182203319305862 0.25597518691538956 0.22116234262952386
0.17821264412636245 0.2509522438955226 0.22333981951245843
0.20768034603828872 0.25234699258326676 0.2275082107401806
0.17998629954094375 0.25401848563670304 0.22216525038251458
0.22092050459618057 0.24245208510874897 0.2154174681521374
0.2069962039255568 0.2605202794980922 0.20660355051526605
0.17490410950417007 0.23753857621668964 0.22616335114011346
0.19882148649925674 0.24705982217311054 0.23430486877927362
0.21320152428383315 0.24320024260996967 0.1911854978419262
0.2071705475115248 0.2605289817762294 0.20630314310559808
0.2219643011354872 0.237271785826675 0.2139528032160717
0.22193294909233535 0.2390219570112148 0.2139506574488598
0.20610493567223037 0.2527129054975429 0.228777372441383
0.2152041807436415 0.2509225011777797 0.22162302692899286
0.19947374012703384 0.2629202605199733 0.21430441101560174
0.17584923055405105 0.24588042506693988 0.22525706251630365
0.18343472626442398 0.2578839064550319 0.22091146667966424
0.17524275329346145 0.24330258378504901 0.22581138571271478
0.21389889862770523 0.23892533788203388 0.19030331929692804
0.1904123142027327 0.26199060687541154 0.21831794937619745
0.21869087364906753 0.24849891671656757 0.21836765964994012
0.22013902809853042 0.24676060685633808 0.2165630694247204
0.20845395472282852 0.2595715523672023 0.20236095150479852
0.203456105258412 0.2525256277036586 0.23087331017026483
0.20408398058647598 0.2532387376737514 0.23023381193646966
0.2171013369821974 0.2505967021894374 0.22009261806973993
0.21465408947700942 0.2525935173940578 0.22192408998975335
0.20856171992058242 0.2543445826482692 0.22669663389691888
0.21285683062309707 0.2534917593908229 0.22339543064603387
0.17417407181496108 0.23752576121806293 0.22672047575482904
0.20977074053520645 0.2562991381597438 0.19689782818326532
0.20014631893867935 0.2632756234121242 0.21568640430936395
0.17553144839043106 0.2467728854131618 0.22550620993146478
0.17428192641968215 0.24008101233958393 0.22661867102155267
0.1978721633219191 0.2628258467626491 0.21869727333554803
0.1802751138472029 0.2558748722982326 0.222335242829414
0.2126525655054518 0.248745858759872 0.1919504042483288
0.19023898389572585 0.2621006370496669 0.21961500605115472
0.22264039662117446 0.24204409131526142 0.2128917213297802
0.2078441396021315 0.26154470452784684 0.20752044876584588
0.19249445345634902 0.26270335921763566 0.21921452244290887
0.19998383667702163 0.2518981100034633 0.2329112525797802
0.20490229275459731 0.2629108429860988 0.21323534210691034
0.22157037403816665 0.24588769683360248 0.21482434233197747
0.20617139485115493 0.2625961900663295 0.2119297023631054
0.201409043338246 0.2636647821378627 0.21495761831769525
0.21312183287376846 0.2543995977353969 0.22292854746350824
0.207348825004048 0.2622612119626918 0.2102822299815136
0.1884478047155806 0.2616029382657924 0.22074361999997674
0.1985994591974684 0.2512061596822658 0.2338488336420971
0.22376811650032485 0.23752576121806293 0.2110095854617077
0.20876872685188735 0.26174473771571305 0.20787420233258783
0.20317137387031997 0.255325973124496 0.23009844978818475
0.20558166649574722 0.25619399556636 0.22818108757504998
0.17647504952187026 0.2513505221319118 0.22475984056958734
0.22396332171196426 0.24080246695994525 0.2107201453066784
0.20921439078087295 0.26182681331156876 0.2061475749827343
0.2243739977144667 0.23686736831187397 0.2101943131304699
0.22448134567970718 0.2370566726636806 0.2100422020770031
0.20507580187553848 0.26357847461222794 0.2153663273669201
0.2105900063776442 0.2571286560010829 0.19601693113812982
0.18666333105797256 0.2614547611188808 0.22205301483640252
0.21497756388420547 0.24115723380564838 0.18892567714223443
0.19882846024269546 0.2636439205121913 0.22067185600766717
0.213732840087361 0.2566455007505336 0.22146871050366937
0.1993284836077162 0.2549687028837123 0.23254903515348016
0.20669007446999038 0.26348710069178727 0.214442336163612
0.2095911517404982 0.262472927660934 0.2121474381304699
0.1759946956896254 0.25212246188639786 0.22516914566525995
0.21187478449577773 0.2548742891263881 0.19366117676267205
0.205001892116017 0.2582557202291408 0.22772189339170038
0.20104205754036392 0.2637948394727626 0.22021093328961908
0.18063220527405227 0.25829577455042985 0.22302057703504144
0.2097119703554579 0.2615222335767665 0.20263185461530267
0.1972932830118605 0.2528901697111049 0.23454877098569452
0.2198396935724684 0.2520228625249782 0.21712901552686273
0.21077758219475234 0.2621001602125087 0.21157690247067987
0.19802773144478286 0.2543120981168666 0.23364260157117425
0.20295900252098525 0.25795227298258927 0.22932102640637933
0.21543651964897598 0.2393062711667934 0.18834417422780572
0.21027308848137344 0.26039445409297135 0.19979312380322992
0.2073449507021376 0.26292014131068375 0.21777256687650262
0.22316318896049941 0.2475288511228481 0.21273812016019403
0.20706176903480972 0.2591855526876369 0.22587760647306024
0.19831788685554946 0.2550288439702907 0.23329182823667108
0.1998676672243544 0.26372110852717545 0.22187974413404046
0.20651310827965225 0.2592782975149074 0.22619994839200555
0.20492214110130752 0.2630941272687831 0.22042270859250604
0.20583516504997695 0.26287311324595597 0.220407330594154
0.20112353708977188 0.2638323903989711 0.2215209241724926
0.20836669352287734 0.2601385117483058 0.22373440226087152
0.1808104231619307 0.258837878794662 0.22355028351316034
0.19285380985969985 0.2630685568761745 0.22407003601560174
0.19731730368370498 0.26287853726863053 0.22463562448987542
0.20497697737450088 0.2618651987028041 0.2235399719096142
0.20144379284615005 0.2628442049932399 0.22367563208112298
0.20956611778969253 0.26100504407405045 0.22108193596372186
0.21004128601784194 0.2605783940267482 0.22141041716107904
0.21570205834145034 0.23962581166743427 0.18799802025327264
0.21052646782631362 0.2617637515973964 0.20246025284299432
0.21808797266716445 0.25505507001399186 0.21820899208554803
0.20580637600655044 0.26133537301539567 0.22420945127973138
0.21832800057167495 0.25497180232524064 0.21798976620206414
0.2218875303530165 0.2509307266187587 0.21453913410672723
0.21041572239632095 0.2620144487333217 0.21765210588941156
0.21964579966301406 0.253821849913589 0.21689435204038202
0.20985168364281143 0.2619354129743495 0.21903856953153192
0.22579026367897476 0.2373814583730617 0.20836385448941766
0.22227496054405654 0.2507074476194301 0.21409126480588495
0.17192042019600356 0.2392696739149013 0.22838660439023553
0.17189985659355606 0.2390909791898647 0.22840400894650995
0.20030719187492813 0.26216250667094376 0.22600694855222284
0.21142643835777725 0.2621381879758754 0.21569325884351312
0.2059462085031935 0.2604461313199916 0.22605951984891473
0.19341695454353774 0.26319509753703263 0.22489633520612298
0.21690863516563857 0.2568870187711635 0.2187663551188427
0.21481597569221939 0.24857580670832782 0.1891057129717785
0.19407642033333267 0.2619642616224208 0.23074545820722162
0.21812218573326553 0.26290780314921525 0.19929548462400018
0.21314251568550552 0.2603408695173183 0.19577714165219842
0.16783085611099685 0.2373846174192348 0.23148556908139764
0.2275728001856276 0.2550000549268642 0.17407661040792047
0.2327426090502211 0.2520679236364284 0.20049693544873773
0.22517407086128677 0.24529272326945453 0.1759446497775036
0.22437065985435928 0.25881582507609513 0.20818706711301385
0.21807825711006606 0.23802465209483295 0.18487497528562127
0.2124970569872328 0.26245731124400284 0.20080443581113397
0.21898675110573257 0.2397514582586208 0.18369194229611932
0.21951085474724258 0.24916517743586689 0.1829947169638592
0.16703966405624832 0.24887514123438984 0.23184224327573358
0.17238575365776504 0.2542493940305629 0.22844418247708856
0.23166942742104019 0.24347543725489765 0.20100291927823602
0.22475218918556655 0.2597449422788539 0.18119260033139764
0.2347025289797255 0.2592688203763881 0.16877927740583
0.2275728001856276 0.2550000549268642 0.17407661040792047
0.21974349167580093 0.2559661270093837 0.21600487192639886
0.21645534184212173 0.2608315349531093 0.1918695207453686
0.22628235962624038 0.2499435544919887 0.2087369795657116
0.2267541303896376 0.23938822755335956 0.2072423334933239
0.16900295164818252 0.24251246461390644 0.2305549021578747
0.23225909617180313 0.2499927283239284 0.1666399176932293
0.22757816460365737 0.26215773829936173 0.1966747876025158
0.2278481736444899 0.24492025384425312 0.17257960995206414
