ply
format ascii 1.0
element vertex 204
property float x
property float y
property float z
element face 0
property list uchar int vertex_indices
end_header
-0.04009947892024025 0.23780307206794743 -0.17500535786588403
-0.042253769596357196 0.23795458707496647 -0.17152490854699823
-0.035553760488767475 0.23780646953269963 -0.1730179005904934
-0.04541543837382302 0.23783674869224553 -0.17509282768209192
-0.03395063396288857 0.23786774310752873 -0.1731259191079876
-0.03404626961543068 0.2378128472296906 -0.1715930664582989
-0.03397414799525246 0.2378304902045441 -0.1705917382283947
-0.04472500797106728 0.23817965421363835 -0.16867492735822412
-0.03743378039195046 0.23792025479957585 -0.16750259340245935
-0.04327092285944924 0.23814424905464177 -0.167358126644685
-0.03896535154177651 0.2379874888388825 -0.16657226920564386
-0.03068185563876137 0.23795369300529484 -0.17336780965764734
-0.04539001699282631 0.23830029401466374 -0.16700777054269525
-0.0376254987318705 0.23796728286430363 -0.16546831667859765
-0.031918026169080585 0.23782077464744572 -0.16903411984880182
-0.03885421868159279 0.2380322519271088 -0.16412062585790368
-0.033245153387327045 0.23785677585289006 -0.16626995444734308
-0.03057519312693581 0.23781344327613835 -0.16865162194211694
-0.032420284708280414 0.23784509334251408 -0.1665026807828686
-0.03570304032160744 0.23793426189109806 -0.16426255941827508
-0.02846664901568398 0.23794665965721135 -0.17324953914125177
-0.027821935375470966 0.23789802226707463 -0.17096797764737817
-0.03789538856341347 0.2380376163451386 -0.16222563028772088
-0.02730954404665932 0.2379244867293549 -0.17268143237073633
-0.02438492294146523 0.2379196587531281 -0.17156716824014398
-0.04086817022158608 0.23815831575080876 -0.15892903149564477
-0.025930232961912006 0.23781201276466374 -0.16712984085519525
-0.03247246857478127 0.23782023820564274 -0.16061088085611078
-0.02936584468676552 0.23779812488243107 -0.16273247838456842
-0.035371549089689105 0.23784861001655583 -0.15906418502767297
-0.03133318539454445 0.23777726325675969 -0.1607643628164074
-0.02392325516535744 0.23790904912635807 -0.16992565632302972
-0.02662704106165871 0.2377481761901093 -0.16436048984964105
-0.036074764688749164 0.23784777555152897 -0.1573563480420849
-0.02873224731280312 0.23770394954368596 -0.16076409459550592
-0.028480238874692768 0.2377045455901337 -0.1608525627895138
-0.04087082262827858 0.23812612924263005 -0.15667158008058282
-0.04118639942004189 0.2381453815428925 -0.15660391390760156
-0.04704344983889565 0.23842880162879948 -0.15695054471929284
-0.023061968048353046 0.2377108636824799 -0.16561041415174219
-0.047808743675489276 0.23841390046760563 -0.15616139412362787
-0.03663859482600197 0.2378424111334992 -0.15487379968602868
-0.03981990333392128 0.2379668656317902 -0.15407169998128625
-0.02325031872584328 0.2376539412467194 -0.16231053710420343
-0.020434476097364276 0.23768165740653996 -0.16478359342057916
-0.047184563835401386 0.23833170566246037 -0.15359279156167718
-0.03928301449610695 0.23772892388984684 -0.1523621344609997
-0.03136486526324257 0.23753896388694767 -0.15401380897004815
-0.04287845607592568 0.2379697862593842 -0.15235215068299982
-0.01788429137064919 0.23795244130775456 -0.16976484299142572
-0.03373191471888527 0.23750540647193913 -0.15303481758077356
-0.017073161562223285 0.2377941909758759 -0.1750897282405636
-0.027862675150174945 0.23739716443702702 -0.15533867121179315
-0.021895296533841938 0.2375635806052399 -0.16065744698484155
-0.044290460308332294 0.23809173736259465 -0.15191082299192163
-0.017957128246564716 0.23784634504005436 -0.16700857520539972
-0.01980764385058388 0.2375694218604279 -0.1629289650960705
-0.028597272594709247 0.23739150199577336 -0.1539684051318905
-0.03354731913401589 0.23727986249610905 -0.15129419804055902
-0.03586692329241738 0.23732015523597721 -0.15058077514608117
-0.025367237289686054 0.23725536498710637 -0.15491218507726404
-0.024714745243329853 0.23727867040321354 -0.15536415219743463
-0.028755046089429706 0.23736915025398259 -0.15272402406175348
-0.015620596369047016 0.23785695466682438 -0.16867251337011072
-0.01860026236369118 0.237511545750351 -0.16165387273271295
-0.04065144773318276 0.23757317695304875 -0.14920150876481744
-0.03867841478182778 0.23742327127143864 -0.14918888748128625
-0.019295759161252826 0.23743799361869816 -0.15929886341531488
-0.024737245996732563 0.23719242248222355 -0.15373766065080377
-0.030370331962842792 0.23714575204536442 -0.1505630427642605
-0.014378226955671161 0.23781684074089054 -0.16939758897264215
-0.013869173486966938 0.23775014314338688 -0.17161468804319116
-0.014275438745756 0.23777291211769108 -0.16818044722516748
-0.036218143661756366 0.23802641067192082 -0.14812446773488733
-0.018036700447339862 0.23740461501762394 -0.1591072195812008
-0.016112632711667865 0.23741039666816716 -0.16131311297853204
-0.021360762079496234 0.23723825845405583 -0.1546950155540249
-0.011756099422712177 0.23775574597999577 -0.17108687401254388
-0.014923251827497333 0.23736271295234684 -0.16096919417817804
-0.017185158689756244 0.23733946714088444 -0.15750170886953088
-0.028492279012937397 0.23810455236122136 -0.14758459866483423
-0.02912364121272072 0.23833856019660954 -0.14726189911802026
-0.025354452093381732 0.23748138580009465 -0.14848971009690973
-0.0202607583601664 0.2371138635604096 -0.15176960468728753
-0.010145492513913959 0.23754623565361027 -0.16622638345201227
-0.023644305427808612 0.23759183320686345 -0.14837635696370813
-0.011610544880170673 0.2372778359381867 -0.16175387442548486
-0.017074621876020282 0.23706099424049382 -0.15320002675492975
-0.008507199247617572 0.23772218856498722 -0.16933285832841607
-0.010876692493696064 0.23723295364067082 -0.16079117000539514
-0.012776471336622089 0.23726263675376896 -0.156752076153352
-0.019733883102674335 0.2370324436156464 -0.14917137861688348
-0.0072575282652567324 0.23776152763053898 -0.17135493100126
-0.007559366186399311 0.237716406914444 -0.16903210819204065
-0.018515653570432514 0.23704329166099553 -0.14991582572896692
-0.01957399364306435 0.2377888265578461 -0.14798949301679346
-0.006278343160886615 0.23772218856498722 -0.16932545245130273
-0.006617255171079486 0.2375803295104218 -0.1666700059219143
-0.010960109194059223 0.23721131715461735 -0.15636908650834772
-0.00777066465212807 0.23730799588844304 -0.1623447650714657
-0.018337972124357074 0.23798975381538395 -0.1476556175990841
-0.012408800085325092 0.23709812793418888 -0.15366406381566736
-0.005187876184720844 0.23774972591087346 -0.170693766479089
-0.00472951646639809 0.23779961499855046 -0.1740463042302868
-0.005876160820264667 0.2375042739836884 -0.1654427909894726
-0.007447696884412616 0.23723194036170964 -0.1609685534282467
-0.012642003258008808 0.2368110719649506 -0.15207202375371667
-0.006776816805143207 0.23722925815269474 -0.16047308981855127
-0.005777246912259906 0.23730036649391179 -0.1622176134629986
-0.014410711487073749 0.237658292385788 -0.14791945755918237
-0.0024347674448679385 0.23786279592201237 -0.1749543213887951
-0.007763124664563983 0.23720642957374577 -0.15556808948953363
-0.0024001371462534365 0.2376614514319611 -0.1703624093576214
-0.003130741079587787 0.23745831880256657 -0.1647379362626812
-0.01147247072054848 0.23654654655143742 -0.14942966044385644
-0.002394117077131122 0.23754611644432072 -0.16630375028093072
-0.010149903257627338 0.23642471465751652 -0.14981983244855615
-0.0021509003241251407 0.23749372396156315 -0.1653337740941784
-0.003563858230848163 0.23722240361854557 -0.15931202114064905
-0.0078030299742411074 0.2367970052687836 -0.15154042482812616
-0.0007133853037546573 0.23753276500389103 -0.16726153731782648
-0.007372147997159809 0.2368062439887238 -0.15155279279191705
-0.0009042095740030703 0.23744866285011296 -0.16490886748273584
0.0007271099488545957 0.23796388539955143 -0.17513228595693323
-0.004339791496534198 0.23719707164451603 -0.15408037245710107
-0.0010424029429148135 0.2372172776190949 -0.1595867985530636
0.0020868111054708066 0.23793891105339054 -0.17490051329572412
-0.006522304971952289 0.23691144618675236 -0.1490778440280697
-0.0014456879694651065 0.23721161517784123 -0.15714239716966363
-0.0051796805460642276 0.23674151334449772 -0.1493564063354275
0.002873562614183575 0.23744681510612492 -0.16779783010919305
-0.004102803428907245 0.2366839352576447 -0.15026470661599847
0.0027604628007222715 0.23729553851768498 -0.1632312500520489
0.0019132721822072568 0.23720964822456364 -0.16009838521917077
0.004055850545625836 0.23739853534385685 -0.1670873427434704
0.003990792075853497 0.23739686641380314 -0.16590885460813257
0.004667274991731793 0.23748484286949162 -0.16961000502546045
0.002448760310869366 0.23720857534095768 -0.1598856413408062
0.004094146529894024 0.23725250396415715 -0.1621948593898556
-6.408210589393948e-05 0.23716601762458805 -0.1516234093948147
0.00679733637974754 0.2374451461760712 -0.17024162054498407
0.006649755279283673 0.2373388710944367 -0.16856486738164636
0.0024001229207326474 0.23715630206748967 -0.15167519092996332
-0.0004727613527964053 0.23832443389579777 -0.14686925352056238
0.006269149820070416 0.23720219764396672 -0.16012081146676752
0.008635603229265362 0.23751917514488224 -0.1726509743972561
0.005711846391420514 0.2372017208068085 -0.1570497119470379
0.0007174837987233701 0.2380298677413178 -0.14745227635343286
0.008077763358812481 0.23719802531883244 -0.15862325966794702
0.00946065072224632 0.23719820413276677 -0.1630560869022152
0.006970756093721539 0.23719605836555485 -0.15447570026357385
0.01122172955678001 0.23734107646629338 -0.170105170611932
0.010959320108156353 0.23719587955162053 -0.16701948285539361
0.011351399461488873 0.23731181058570866 -0.16965885103185388
0.012432895938615948 0.2374248209922028 -0.17153903484781
0.006334118882875592 0.23703840408012394 -0.15014999747712823
0.012118272821169049 0.23718920383140568 -0.16769486308534357
0.005585931579332501 0.23744460973426823 -0.1485464239164135
0.006834172050218731 0.23703578147575383 -0.15083375215966913
0.006215237418871075 0.23764976892158513 -0.1482352429672024
0.01309921626256004 0.2371959391562653 -0.1629434788270733
0.012796573678712994 0.237195223900528 -0.16166773081262323
0.015128605405550152 0.237503320309372 -0.17362326026399347
0.013259582559328228 0.2371945086447907 -0.16031731307943078
0.009633742610674054 0.23808816108390812 -0.14745406449277612
0.014765553514223248 0.2371937337844086 -0.16009452581842157
0.017050527374010235 0.2375641170470429 -0.17497703075845453
0.01386823538945213 0.23719480666801457 -0.15593237817723962
0.014828227798204571 0.23719432983085637 -0.1550660991712353
0.013628535310487896 0.23653194341346745 -0.15144388020475122
0.014252476731996686 0.23681530389472966 -0.15263670325715753
0.012422763149004132 0.23735883865043644 -0.14831086636026117
0.018698208371858746 0.23733648690864567 -0.1708337181850216
0.019042216579179913 0.23752835426017765 -0.1744815224452755
0.019373081962328106 0.23737528953239445 -0.17159288764436456
0.016115986148576886 0.2371939722029877 -0.15428068876702997
0.018973045388918072 0.2371862235991669 -0.16308679819543573
0.018953703681688458 0.23718848857566838 -0.16227891684015008
0.020356737415056378 0.23732319507286076 -0.17068345487554284
0.01865782622502342 0.23719260129615788 -0.1599149519248745
0.019814543763857037 0.237181157204361 -0.16436676323850366
0.02054458145306602 0.2372433844535065 -0.16920543849904748
0.015455775300722271 0.23619505796119694 -0.14984431505639764
0.016202263871889264 0.23631730708763127 -0.15045591831643793
0.018510602752428204 0.23719057473823552 -0.15421065330941888
0.021982841531496197 0.2371707263915253 -0.1655423158450863
0.036398433486681134 0.23695752057716374 -0.15009866297681543
0.07361789826558128 0.23719021711036686 -0.17091598749597284
0.030095659534197003 0.23716434869453434 -0.15368637085397455
0.026175819675188214 0.2371898594824982 -0.15346480548818323
0.08769284967587486 0.23711195621177678 -0.15221860647638055
0.05210425738499656 0.23718491229698185 -0.16866881788213464
0.024952762166719586 0.2371799651114655 -0.1632634365602276
0.05815397981808677 0.23719385299369816 -0.15524066627462121
0.04680731181309715 0.23715850743934636 -0.17464175463159295
0.0799209404389669 0.23719343576118473 -0.1538354122682354
0.05144091729329124 0.23715820941612248 -0.17386239409883233
0.02517329935238853 0.23718759450599675 -0.16166039944131586
0.063341908494692 0.23710641297981266 -0.15275558472116205
0.08232202414677635 0.23718830976173405 -0.15003202498395654
0.03323381427929893 0.23718217048332219 -0.16835632563073846
0.036158971826296 0.2371913495986176 -0.16030113041837427
0.05084606293843284 0.23719355497047429 -0.1572081261916897
0.08837830309079185 0.2371939722029877 -0.15927371025521966
