ply
format ascii 1.0
element vertex 320
property float x
property float y
property float z
element face 0
property list uchar int vertex_indices
end_header
-0.18159281428648932 0.2374660078017426 0.19787508606474188
-0.17933813448740943 0.2376801076857758 0.19681787848036078
-0.17893569882704718 0.23727211389228825 0.19886458277265814
-0.18503298576666816 0.23719093236610417 0.19925189375440863
-0.17787804420783027 0.23755314979240422 0.1974291837171772
-0.17950163002802833 0.23718658122703556 0.20121443628828314
-0.18540870364500983 0.23718223008796696 0.2000880873159626
-0.18044253404929145 0.23718979987785344 0.20278078674833563
-0.18020031567408545 0.23842373523399357 0.19307130932371405
-0.17887692864729865 0.2371886673896027 0.20277303814451483
-0.17460963841273291 0.237137109371872 0.20039004444639472
-0.1818818074066828 0.23719361457511906 0.20550531506101874
-0.17382482405497535 0.23732557925865178 0.19847166895429877
-0.18147481199099524 0.2371945086447907 0.20581806063215521
-0.1734878044922541 0.2374185028998566 0.19798493742506293
-0.17517735775305732 0.23718127641365055 0.20470416903059271
-0.17761086638762458 0.23719272050544743 0.20736641048948554
-0.17468389089896186 0.23719027671501164 0.20679259657423285
-0.17037492211653693 0.23822584781333928 0.1937367951826313
-0.18451058085753425 0.23719128999397282 0.209707382913039
-0.1692962121565531 0.23772338065788273 0.19636285662214545
-0.18445286866023047 0.23719140920326237 0.2100646531538227
-0.18333391066386207 0.23719242248222355 0.21047473310987738
-0.18499175425364478 0.23719140920326237 0.21032566189329413
-0.16904640909029944 0.23713406953498845 0.20095640778105048
-0.17014361139132483 0.23716697129890446 0.203945401902602
-0.16872469302012427 0.2379738989798737 0.1950407659963825
-0.17972446199252112 0.2371939722029877 0.2114074265913227
-0.1851939779122065 0.2371918264357758 0.2111662065939167
-0.1777219843466471 0.23719367417976384 0.2113909757093647
-0.16695477779700263 0.23726663026496891 0.19874471783201483
-0.18111317570998176 0.2371939722029877 0.21286702513258246
-0.17130730267359717 0.23722490701362614 0.20936584829847601
-0.17120061035944922 0.23722520503685002 0.20939875006239203
-0.17267992313696845 0.2372126284568024 0.21100348591367987
-0.1678842079241465 0.23718348178550724 0.20592624306242255
-0.16594665463759406 0.23798462781593327 0.19497478365461615
-0.17332681234671576 0.23720619115516667 0.21180355906049994
-0.1653831821282099 0.23712262544319157 0.2000800406889179
-0.1835503798325251 0.23719635638877873 0.21466136335890082
-0.16772035475565894 0.2372068468062592 0.20787555336515692
-0.16524074192835791 0.2371554676024628 0.20327055811445502
-0.16598472710444434 0.23717817697212223 0.2054477965788105
-0.16412910040213569 0.23795989188835148 0.19510341047804144
-0.1802205216486643 0.23719504508659367 0.21559179186384467
-0.17237322743727668 0.2372206750838471 0.21313709377805976
-0.16381729360415442 0.2381075921981049 0.19432592749159125
-0.1642065566380213 0.23842808637306218 0.19264060616056708
-0.1753989827234934 0.2371881905524445 0.21545815825025824
-0.16282489116980536 0.23712369832679753 0.20018583893339423
-0.16546984728171332 0.23723414573356633 0.20855772852461127
-0.1763167154391001 0.23718640241310124 0.21767431854765204
-0.16886115785433753 0.23727765712425236 0.21419406294386176
-0.16300418194128974 0.2372032109229279 0.20702195524732855
-0.16347201879813178 0.23723438415214543 0.20849067329923895
-0.16014934297396644 0.23782727155372624 0.19579637407820014
-0.1838732134897898 0.23731187019035344 0.21958923697035101
-0.16046736355616553 0.23715707692787175 0.20344794153730658
-0.1611669283707331 0.23718169364616398 0.20585382341902045
-0.15958494659258826 0.23768487605735783 0.1965458428816059
-0.17596762593581183 0.2372492257086945 0.2193053996519306
-0.1595051806767176 0.23712721500083928 0.20053243994276312
-0.163913733919401 0.2372814122168732 0.2114553487257221
-0.18038579042746528 0.23734673890754704 0.22025430559675482
-0.1694173138935755 0.23732927474662785 0.2177524006323078
-0.17871410365893348 0.23744824561759953 0.22152972578565863
-0.18283618207766517 0.23752173814460759 0.22200757622282294
-0.16393681581809028 0.23742958936378483 0.21501487850706366
-0.1601940166552256 0.23726019296333317 0.21002239346067694
-0.15757224675013526 0.23715630206748967 0.20337444901029852
-0.15644267912699683 0.23733922872230534 0.19836449980299262
-0.1560702693064402 0.23780080709144596 0.19593662380735663
-0.15896234627558692 0.23725035819694523 0.20996189474622992
-0.1752539348204325 0.2375413480727387 0.2228089010671833
-0.1619044017393778 0.23744234475776677 0.214806739087508
-0.1562995832760523 0.23716256055519108 0.20398247599165228
-0.17952843721701606 0.2377232018439484 0.2245965635732868
-0.17871423776938422 0.2377122941939545 0.22452867388288764
-0.1634528261025141 0.23754903707191471 0.21765411257307318
-0.16938912089659675 0.23754558000251774 0.22179520487348822
-0.16544263776137336 0.23752936753913884 0.21933633446256903
-0.1839706074793528 0.23778244886085514 0.2249753510908344
-0.1537860554058741 0.23760810527488713 0.19695043921034125
-0.1694388609726618 0.23762348327323918 0.22295689940016059
-0.15403803404166205 0.2371632162062836 0.20404935240309027
-0.18114178593947394 0.23784026536628727 0.2261120116667011
-0.17301218922926886 0.2377178970305634 0.22499007343809393
-0.1530782949526499 0.2371266785590363 0.19948321938078192
-0.154489643533964 0.23719576034233097 0.2070233261541584
-0.18437658961607917 0.23789241943046574 0.22652083992521552
-0.16025448556735022 0.23762467536613469 0.21743059515516547
-0.15240047093226416 0.2371210757224274 0.1999316251234272
-0.15380061384036048 0.23719623717948918 0.20731389879743842
-0.16868019815279944 0.23773899707481388 0.2242475783781269
-0.15663304146124823 0.23739805850669865 0.21338880419294623
-0.15450654145075782 0.23723283443138127 0.20995742439787177
-0.15765117820097907 0.23761454257652287 0.21599322914640692
-0.16283334012820228 0.23777660760566716 0.2213965690092304
-0.16551417823626502 0.23780325088188176 0.2235260641531208
-0.1514400314886759 0.23713061246559147 0.20086098074476508
-0.15122129734351142 0.2375350299803925 0.1973347103552082
-0.18150401826693519 0.23799559507057194 0.22829348206083563
-0.17080794986083014 0.23782268199607853 0.22661155819456366
-0.1734034937222193 0.2378835383383942 0.22777313351194647
-0.16527657922102912 0.2378653589217377 0.22429579853575018
-0.15072705562903388 0.23715832862541203 0.20357257484953192
-0.15620607848956092 0.23766949805900578 0.21648627876798895
-0.15001627024008735 0.23798009786293034 0.19499349951307562
-0.15700910206629737 0.23776325616523747 0.21836287140409735
-0.1515092920859049 0.23721018466636662 0.20978713392774848
-0.1524985056717585 0.2372778359381867 0.21222019552747992
-0.18385469134642585 0.23814073238060002 0.23042774557630805
-0.1502568792898844 0.23718854818031315 0.20729154705564765
-0.1534711938698481 0.2375386658637238 0.21511006712476996
-0.17165904458357795 0.23802176150962834 0.230035010571883
-0.1633244973023127 0.23800089988395695 0.22621703505079535
-0.14811184223486884 0.23834702405616764 0.19306338190595893
-0.164090074260969 0.23798397216484074 0.22688019632856635
-0.1571008485157679 0.23791399631187443 0.22132557987730292
-0.15982059355570777 0.23805829915687565 0.22455257534544257
-0.1660715263683985 0.23799482021018986 0.22878128647367743
-0.1770401519139002 0.238188237282486 0.2323516643003681
-0.17172396894289954 0.23809966478034977 0.23136699556867865
-0.15041471238924964 0.2374161187140656 0.21391851067106513
-0.14776518162085517 0.23718801173851017 0.20710409044782904
-0.15813312645747168 0.23804864320442204 0.22395867466490058
-0.15256852622820838 0.23777762088462834 0.21788448452513007
-0.14627245779826148 0.23769649896308903 0.19648540377180365
-0.18277107890440925 0.2382884922949982 0.23322838902036933
-0.17595525797202094 0.23820093307182316 0.23294186949293402
-0.1529327255089472 0.23787537250205998 0.21923697351972846
-0.18433158810927375 0.2382984462706757 0.23373967766325263
-0.14566235955550177 0.23785850438758854 0.19563329577009467
-0.14698138054205878 0.23718997869178776 0.20811570047895697
-0.14555705304934485 0.23835000428840641 0.1930474674658039
-0.15151890333487494 0.23783764276191716 0.21882570147077826
-0.14498587663962348 0.23714104327842717 0.20188272356550482
-0.164284325798292 0.23810169133827214 0.23044777273695258
-0.14617321606471045 0.23718920383140568 0.20866901039640692
-0.1454062831003855 0.23718354139015202 0.2060390150503376
-0.16725622828795417 0.23811659249946598 0.2321273720220783
-0.15115929361178382 0.23786982927009587 0.21932298302213935
-0.14471314068629249 0.23715737495109562 0.2034755384878376
-0.16966480727984412 0.23818323049232487 0.233350280518935
-0.14397398348643287 0.23713114890739445 0.19945949673216132
-0.18320695277049048 0.23840674791023259 0.23576426863233832
-0.16974765773608191 0.23821458253547673 0.23401087879698065
-0.15907026048495276 0.23821964893028263 0.22888410448591498
-0.14346636052920325 0.2383635941474152 0.1929757630781391
-0.17897769029929145 0.23840174112007145 0.2364078199819782
-0.1852487098772715 0.23841550979301457 0.23654717564146308
-0.14524514194323523 0.23732516202613835 0.2133096492246845
-0.161803178151388 0.23820969495460514 0.2320925033048847
-0.18606797571970923 0.23842838439628605 0.23726946472685126
-0.17672955210997565 0.23841217193290715 0.23734391092817572
-0.15209004994227393 0.23817595872566227 0.22474307179014472
-0.15041998740031226 0.23810914191886906 0.22311956047575263
-0.14300189133479102 0.2371828857390595 0.209111098046706
-0.1558822762568186 0.23829874429389958 0.2289654648260334
-0.14112441953017218 0.23715409669563298 0.2031536138014057
-0.15503454919650062 0.23831895026847844 0.22912800669233588
-0.1468864005406092 0.23786881599113469 0.21977144836942938
-0.14052983339621528 0.23713001641914372 0.1994655764059284
-0.14961244877173407 0.2381475273101044 0.22371596455137518
-0.15354182537390693 0.23830542001411442 0.22806936859648017
-0.14121102507903083 0.2371845546691132 0.20682406782667426
-0.15640336986376746 0.23835232886955265 0.2307105100111225
-0.16328146274878486 0.2382732335059357 0.23510730623762396
-0.1720081638891886 0.23842927846595768 0.23847329973737982
-0.14698051627470954 0.2379957142798615 0.22158897280256537
-0.15373689647509559 0.23834893140480046 0.22926366686384467
-0.13971116360022529 0.237963468167038 0.19508082031767157
-0.13977155800654395 0.23824843797370915 0.19358170389692572
-0.14335311170413 0.2374972406356049 0.21539879202406195
-0.14022948559119208 0.23719576034233097 0.2065740263418415
-0.15674927051856025 0.2383626404730988 0.23228633760969428
-0.16893111880614264 0.2384166422812653 0.23841178774397162
-0.14713352139784797 0.23808059129402165 0.22278905272047309
-0.16081143136813147 0.2383093539206696 0.23508209347288397
-0.15388087149455054 0.23840132388755803 0.23065936922590521
-0.1396060061056803 0.23721185359642033 0.20768976568739203
-0.13931163366629584 0.2372102442710114 0.20674538969557074
-0.13829845901324256 0.23714396390602116 0.20080721735517768
-0.1643528413374613 0.23839613828346257 0.2381510174230793
-0.14059937711550696 0.2373194399802399 0.21339828133146552
-0.13797118480994208 0.23719504508659367 0.20439410566847113
-0.16468406434847815 0.23841801318809513 0.23860717176954535
-0.1381334137518595 0.23720648917839054 0.2056797778562763
-0.1436696719725321 0.23791685733482365 0.22102898716490058
-0.16107474978758796 0.2383836809127045 0.23749602198164252
-0.1476093899805735 0.23832383784935002 0.2271242177442768
-0.15390197153880103 0.23842266235038762 0.23353213429014472
-0.15409442003561957 0.2384243908850861 0.23384297251264838
-0.13635618205859168 0.238315612408371 0.1932283675626972
-0.13838162239386542 0.2373351756064606 0.21316719412367133
-0.14196062799288733 0.23796990546867375 0.2220621740774372
-0.14005913551642402 0.23774459991142277 0.2187759315923908
-0.1395234387715052 0.23769977721855168 0.2179505264715412
-0.13503161784007056 0.237131268116684 0.20020836948911933
-0.1449879777033518 0.2382793131797028 0.2269989883856037
-0.13442290540530188 0.23775950107261662 0.1961537039236286
-0.15483994003130896 0.23842981490776066 0.23675376534025458
-0.15210946615530951 0.23842141065284733 0.23475546001951483
-0.13463693078352912 0.2372790280310822 0.20768106340925482
-0.1443410586912821 0.23833367261573796 0.2283737099127033
-0.13344230469061835 0.23834529552146916 0.19307226299803046
-0.14350949939085944 0.2382989231078339 0.2278530037359455
-0.13255726512267096 0.2371756139723969 0.201728228326247
-0.1334334832031916 0.23732271823570256 0.20831936955015448
-0.13233756240202887 0.23825612697288517 0.1935410535291889
-0.13201158459975226 0.2377775016753388 0.19605929016630438
-0.13562334295107825 0.23770758542701725 0.21722615122358588
-0.13327225263907416 0.237369567486496 0.21031600594084052
-0.13466931100680335 0.23763635787651066 0.21603185295622138
-0.13175835426642402 0.23725679549858097 0.2051805889562824
-0.1304466497500132 0.23807838592216496 0.1944764292196491
-0.13781269605948432 0.23811569842979435 0.22490084528486518
-0.130028076132078 0.23811522159263615 0.19428235649626044
-0.1386512589056681 0.23820748958274846 0.22677898764173773
-0.13427067514254554 0.237852543923111 0.21967047810117987
-0.1354709040720652 0.23801764878913884 0.223324064011977
-0.13789280470206244 0.23824742469474797 0.22770494579832343
-0.12855318899943335 0.2371925416915131 0.2019164597944477
-0.12838824804617865 0.23712369832679753 0.1997448837713459
-0.13631572540595038 0.2381630841223908 0.22605717539350775
-0.1315053027470301 0.23787346515342717 0.21777981876890448
-0.13266143914057715 0.23792025479957585 0.22055989861051825
-0.12815750356509192 0.2373122278182221 0.2058357632116535
-0.12803735550238593 0.23744604024574284 0.20820731281797675
-0.13404246385886176 0.23809096250221257 0.22474468111555365
-0.13060734387232764 0.23789653215095524 0.2175601160482624
-0.13058239932848914 0.2378959361045075 0.21753752588789252
-0.12842563505961402 0.237780362698288 0.21437508225004462
-0.1262681257326792 0.23728415403053288 0.20497978090803412
-0.1430271190006922 0.23838797244712834 0.23831701635877875
-0.12556990202261908 0.2376069727866364 0.19695651888410834
-0.12509211119009955 0.23801562223121647 0.19480669855634955
-0.12511435862376197 0.23830947312995915 0.19326067328016547
-0.13071875985457404 0.23806807431861882 0.2230716383413532
-0.1319998722870539 0.23814180526420597 0.22569007038633612
-0.12718967314555152 0.23786076936409 0.21497977137129096
-0.1392145973046015 0.23838964137718205 0.23603129744093207
-0.1380752992232035 0.23840484056159977 0.23485601305525092
-0.13972479816271766 0.2383728328673554 0.23720819115202216
-0.1288652789194773 0.23805293473884587 0.2208787834600666
-0.13974548097445472 0.23836395177528386 0.23779386639158515
-0.12623386796309455 0.23791775140449528 0.2156333959058979
-0.12362269278361306 0.2383895221678925 0.19283950686018256
-0.12481530721976265 0.23766401443168644 0.21068197845976142
-0.12389630790545449 0.2373184863059235 0.20574945568601874
-0.12289100106551155 0.2372358742682648 0.20412081837217597
-0.12622312422587378 0.23807808789894108 0.21836221575300482
-0.1326809298594187 0.23840394649192814 0.2314521110014179
-0.12383676286532387 0.23778310451194767 0.2123919761137226
-0.1220775615771006 0.23815098437950138 0.19409436344663886
-0.13096360083415015 0.238376647564621 0.23092031836073187
-0.1223868798811625 0.23771390351936345 0.2104105389074543
-0.12822956558062537 0.23823592099830632 0.22642249226133612
-0.12112671848132119 0.2371518317191315 0.20099717735807685
-0.12506119128062232 0.2381923500029755 0.2208676373914936
-0.1209777217705439 0.2373315993277741 0.2059808409170368
-0.13328980620696051 0.23838362130805973 0.2354242837385395
-0.12063684280707344 0.2372182312934113 0.2037864959196308
-0.12641314383341773 0.23823681506797795 0.22592378019850043
-0.11975514109923348 0.23718658122703556 0.20259553551237372
-0.12873075123621924 0.23837456140205388 0.23093897461454657
-0.12103838439776406 0.237877756687851 0.21277618765394476
-0.1320792954762171 0.23837819728538517 0.23578155397932318
-0.1189967465002726 0.2372892204253388 0.19862789272825507
-0.1302693110306452 0.23840263518974308 0.2339453732923725
-0.1238786053259562 0.23827388915702824 0.22267550587217597
-0.12723638828589423 0.23836055431053166 0.2299504911855915
-0.11847082491709694 0.2378775182692719 0.19553298115293768
-0.12051359530283913 0.23807141217872624 0.21635169148008612
-0.11778154190375313 0.237219900223465 0.20461541771452216
-0.12102378125979409 0.23819032344505314 0.21906131863157538
-0.12089673395945534 0.23819497260734562 0.2191268837408283
-0.11684579368426308 0.23713746699974064 0.20097178577940253
-0.12061851437880501 0.23827418718025212 0.2209981715635517
-0.1274231892426203 0.23838827047035221 0.2348388469175556
-0.1167815547783564 0.23752465877220158 0.20836031794111518
-0.1158498000700663 0.2373121682135773 0.20609581827680853
-0.12949625368906958 0.2383345070807648 0.23882323860685614
-0.11530100520445809 0.23715683850929264 0.20232999681989935
-0.11496733840300545 0.23806872996971135 0.1945270931677082
-0.116527236660261 0.2379148307769013 0.2132406270460346
-0.11666629429652199 0.2379593554465485 0.21386707186262396
-0.11425500329329476 0.2376076880423737 0.1969524657682636
-0.11499921198679909 0.23750296268150334 0.20824718832533148
-0.12501823123290046 0.2383909526793671 0.2345882093862751
-0.11493442173792824 0.23764923247978215 0.20986026882688788
-0.05873630162074074 0.23770561847373967 0.20325935244123725
-0.10076189752413735 0.23778536948844914 0.2115616834120014
-0.0687548887331675 0.23819741639778141 0.21315163731138495
-0.05839548226191506 0.23827233943626408 0.23230803370039252
-0.10792236741377816 0.23838737640068058 0.22345549225370673
-0.11571214314295754 0.2380959692923737 0.21593648552458075
-0.10521063919856057 0.23761585387870793 0.20993590712110785
-0.07547145303084359 0.23827871713325505 0.23565131783048895
-0.09406209703280434 0.23796650800392155 0.21029514431516913
-0.10064499791457161 0.23814210328742985 0.21897566675703314
-0.09304531629874215 0.23777708444282536 0.2069067990736225
-0.09045546468092903 0.23826047811195378 0.21616614222090033
-0.06871066208674416 0.23831811580345158 0.22733909248869208
-0.06781796332194313 0.2383565607993317 0.22417146324674872
-0.09839641269042 0.23784568938896183 0.21143401026289252
-0.1080583703119944 0.23782798680946354 0.1957935726598957
-0.05097932334734902 0.23834070596382145 0.21573037266294745
-0.10138455744578347 0.23820200595542912 0.22017914413969306
-0.10895667191340432 0.2378259006468964 0.2129194772199848
-0.06803414936854348 0.23837175998374943 0.22314107775251654
-0.05505479093386635 0.23827502164527897 0.21527290701429633
-0.05928302522494301 0.23829224738761906 0.21553910135786322
-0.0687548887331675 0.23819741639778141 0.21315163731138495
-0.06655941124751076 0.2382262650458527 0.193405691380904
-0.10909882899119362 0.2372221055953217 0.20546210169355658
-0.08890251036478981 0.23838642272636418 0.22843367218534735
-0.08229774947955117 0.2374647561042023 0.20139682650129584
-0.09262006696059212 0.23828920755073552 0.2368392384008625
-0.050817198713559955 0.23814818296119694 0.20648008942167548
