ply
format ascii 1.0
element vertex 147
property float x
property float y
property float z
element face 0
property list uchar int vertex_indices
end_header
-0.2220781893620732 0.3060568403864303 0.04485841949985789
-0.2179069669137242 0.3122610878611007 0.037631594739420876
-0.21766144048073316 0.31192527529243613 0.00020890792415903813
-0.19853928696014905 0.31172148701194907 0.09525313337848948
-0.19543887685635114 0.30808315989021445 0.08265163858936594
-0.2011028678307774 0.3108613323831954 0.06959527095363902
-0.21727567921974683 0.31224058386329795 -0.00862530509425832
-0.20797753344872022 0.3120308947229781 0.06263937910602854
-0.19529740523197675 0.30591355082039023 0.11435406764553355
-0.2069302649388554 0.3054498266840377 0.039433562360270485
-0.19897145043709302 0.30401800390724326 0.06563993652866648
-0.2203156353125813 0.31143961664680625 0.01046409567402171
-0.20097315322258497 0.30684594627861167 0.10486059745357798
-0.21849346171715284 0.30865011927131797 0.04985525568531321
-0.21105630706646467 0.30725817200187827 0.0826236542086439
-0.20987345289089704 0.3101042341852584 0.03709348400638865
-0.2239683122525456 0.3090869617128768 0.03129088243053721
-0.20962110172607923 0.3060528468752303 0.09032794197605418
-0.1984357685933354 0.31196783300880576 0.10002478321598338
-0.20714205514290357 0.30499796387199546 0.03758119901226328
-0.19505706440308118 0.312425000634233 0.09833832939670847
-0.2139466555009129 0.30901680704597617 0.01676353176639842
-0.1973688454518559 0.30821560141090537 0.0808146234373884
-0.21380381296970868 0.311099214520494 0.06285330017612742
-0.19834069918491865 0.3116710614824691 0.09464170893238352
-0.2092423589120152 0.3081931900644698 0.03391539414928721
-0.2169509829173329 0.3075324725771346 0.060648196540339455
-0.21934883307316327 0.3041040730142989 0.05900906880901621
-0.21629929553368116 0.30948816057685996 0.0563305850844221
-0.2104317994008305 0.31094382521156455 0.044583940110667214
-0.20099592219688917 0.309872133698503 0.06558721622036265
-0.22530086349346662 0.3088914584780135 0.011229776940806378
-0.2002147139201405 0.31176273342613364 0.09347077568577097
-0.2189748139271977 0.3033928107881942 0.061168157659037575
-0.20963054906227613 0.3106441330576339 0.07900043686435984
-0.21689946960308576 0.3118468951845565 0.04220219811008738
-0.21374307583668256 0.3110738229418197 0.066765898070796
-0.21649967144825483 0.3116710018778243 0.04611992200420664
-0.19256298254826093 0.31297056194786216 0.1007656391482191
-0.22380450378754163 0.30882982727531577 0.037338578305705056
-0.20848098408081556 0.3063369822168746 0.03220742305324839
-0.20420101295807386 0.3036240768099227 0.04715379437015818
-0.22047807287075544 0.3060911130571761 0.05065151413486765
-0.2053298057208302 0.3070181440973678 0.049372070632441506
-0.21023328613140607 0.30929301496986533 0.03024049957798289
-0.19343757640221143 0.311562819447557 0.11122124751613902
-0.1951514930615666 0.311585111584703 0.08812924583957957
-0.21438223134377027 0.31010018106941367 0.06899844964550303
-0.22647042583324933 0.30548338409904624 0.02147819956348704
-0.20666199933388257 0.3133121561670699 0.06890799959705637
-0.2003925294766667 0.3082067799234786 0.06135415395305918
-0.2034152151236775 0.312441987957994 0.06991314252422617
-0.2240036429057362 0.3074046206140914 0.03963663538502024
-0.21585613499977613 0.30467442986015464 0.07191407044933604
-0.2023718060145619 0.3098417353296676 0.09667029341266917
-0.20541571091511274 0.30988173004631187 0.05703049262569712
-0.20281930278637433 0.3119923901224532 0.08135470112369822
-0.21797537814476514 0.31216524359230186 -0.001784420408741963
-0.2056688965449574 0.31047682281974937 0.057780825696452126
-0.21406410645344282 0.31065170284752036 0.026457690797312725
-0.2164704502711537 0.30581395145897056 0.06869023402736948
-0.22488123189308667 0.31001590010170127 0.0064181919913129685
-0.22134658705093885 0.3105704617166915 0.04070773085163401
-0.20336499821045423 0.3083393406534591 0.09708746632145213
-0.20043960224487806 0.3071557116175094 0.10588356216953562
-0.21015623222687269 0.30979530331138755 0.03483631571338938
-0.21172747026779676 0.307262225117723 0.014390611253245342
-0.20380671333172345 0.31155900475029136 0.0896564956526594
-0.21368859719135785 0.3035131525659957 0.07837876041935252
-0.20711909245350385 0.31249509569648887 0.07390933593319224
-0.20077502738335157 0.31169561859611655 0.0954838927607374
-0.20898383866646314 0.31263170954231406 0.06934418638752268
-0.20954252790310407 0.30769543167595054 0.027985477052195538
-0.20065565418102765 0.30349080082420493 0.05743070801304148
-0.21553619216778303 0.30879013058189536 0.06391876300380991
-0.21492943178513074 0.3079120945597091 0.07225363811062144
-0.208117112625623 0.3097162675524154 0.09007196982906626
-0.19585101317265058 0.306044442620317 0.11325561364696787
-0.22216111432411695 0.30951998945717 0.04120301564739512
-0.20123599480488324 0.3117614221239486 0.09316729863689707
-0.20461377512314344 0.31186614748481895 0.08195092638538645
-0.20047420274117017 0.31046549793724204 0.07403170426891612
-0.209527224410558 0.3078071307802596 0.08690857251690196
-0.22372783731319928 0.3094340991640487 0.033286714158518776
-0.21938744198181653 0.3078067135477462 0.04912927111194895
-0.21807070087292219 0.31202022549156333 0.040037953458292946
-0.21126446138718152 0.3074269723558822 0.024215840898020733
-0.19759498547413373 0.31016228910926963 0.10853206475780772
-0.20410586904385114 0.31188545938972617 0.07551457842396067
-0.21306107949116254 0.3110747766161361 0.0717140968661146
-0.2147924603114369 0.31137762781623984 0.026933008037074078
-0.2065902204404118 0.30363796469215537 0.03686591347263621
-0.20643420528271222 0.3084090780878463 0.09345089753673838
-0.20520165573456312 0.31233553406242515 0.06455286701725291
-0.20434507738449598 0.3058828544283309 0.09923484285877512
-0.2071104795823338 0.3117243480348983 0.08131321629093455
-0.2135213763604405 0.31126086231712485 0.05943428834484385
-0.2173091919312718 0.3112990092897811 0.04701041539715098
-0.19307304929592634 0.30561362024788047 0.08432739337490366
-0.193820819366956 0.30594210144523765 0.11736267169521616
-0.21293023239471937 0.3056599926615157 0.07955806811855601
-0.2127184570918324 0.30503533598426963 0.08088507612751292
-0.1983127297053578 0.3121576141977706 0.098877155385478
-0.19661064456799054 0.3083038758898177 0.11062493284748362
-0.21040791283943677 0.30331323858741904 0.0893343623499708
-0.21499489258625532 0.31116883274559165 0.055540108285410866
-0.19496542226173902 0.3117803167963424 0.08988856633709238
-0.20977817486622358 0.31175570007805015 0.07630252202556895
-0.19831432412960553 0.30371378180030967 0.07315176089809702
-0.2056870461592915 0.30552916046623374 0.04461305697963999
-0.1934848577866795 0.3084526490831771 0.1146365936617689
-0.20016200851299787 0.30946789499763633 0.07263492902324961
-0.20840229104855085 0.311402006115953 0.05912470181988047
-0.2004194111714604 0.30824033733848716 0.06474217136905955
-0.20637604605057264 0.31250624176506187 0.07347136100338267
-0.19873693596222425 0.30871866461280967 0.07851024826572703
-0.22629703592159772 0.3058979344034591 0.01823198159740733
-0.19321002076962018 0.3070108127260604 0.11753224690960215
-0.19705645750858808 0.304373664822618 0.07648810108707713
-0.20629021536209607 0.30896960016731406 0.05120691021488474
-0.20166449259617353 0.3037754130030074 0.10554035862491892
-0.2062674165854695 0.310982985463182 0.09023990591572092
-0.2131880820880177 0.3071060013437667 0.07613777478740977
-0.1931492091307881 0.3125887941980758 0.10610114892528819
-0.20845608424046064 0.31091771837715293 0.047604763112528786
-0.20722538243629957 0.3113804292345443 0.08605294784115122
-0.21432104717590833 0.30778740164283896 0.07440193851993845
-0.20356252800323987 0.30389211889747764 0.10193040331409739
-0.21489405642845655 0.3102820348406234 0.020712071261866558
-0.20763614784576917 0.3051879834795394 0.09428148826168345
-0.20999301980831647 0.31155346151832725 0.056275391183360085
-0.19683168839314008 0.3122961949968734 0.10103764494465159
-0.2021589280257466 0.31173418280128623 0.08926402886913584
-0.2220781893620732 0.3060568403864303 0.04485841949985789
-0.2179069669137242 0.3122610878611007 0.037631594739420876
-0.19853928696014905 0.31172148701194907 0.09525313337848948
-0.19543887685635114 0.30808315989021445 0.08265163858936594
-0.2011028678307774 0.3108613323831954 0.06959527095363902
-0.20797753344872022 0.3120308947229781 0.06263937910602854
-0.19529740523197675 0.30591355082039023 0.11435406764553355
-0.2069302649388554 0.3054498266840377 0.039433562360270485
-0.19897145043709302 0.30401800390724326 0.06563993652866648
-0.20097315322258497 0.30684594627861167 0.10486059745357798
-0.21849346171715284 0.30865011927131797 0.04985525568531321
-0.20785194646217847 0.3126894664431014 0.07260715325878428
-0.21105630706646467 0.30725817200187827 0.0826236542086439
-0.1995268912205937 0.30984298702720786 0.07735293468044566
