ply
format ascii 1.0
element vertex 350
property float x
property float y
property float z
element face 0
property list uchar int vertex_indices
end_header
0.09395303610966697 0.2508102360694123 -0.03457262754876824
0.09356602315114036 0.2507651749579621 -0.03487830996949883
0.09406959299252525 0.250825971695633 -0.03099995494325371
0.09685208682225242 0.25110694799110417 -0.037244912390305716
0.09816625003026024 0.2511208954779816 -0.035432513956620414
0.09373661164448753 0.25080081853553776 -0.030164506439759448
0.0984874892632772 0.25112006101295475 -0.034201171402528006
0.09920840744183555 0.25117090377494816 -0.036017771963669974
0.10099577192471519 0.251197487446518 -0.033946450953080375
0.09764464978383079 0.25129905376121525 -0.02842551112611504
0.10195779089139 0.2512854042975617 -0.030439075235917285
0.10331883315251365 0.2513069215743256 -0.035668250326707084
0.09492789987729087 0.251031369301529 -0.02517214060266228
0.10338451747105613 0.25129827890083317 -0.03077804685075493
0.10063149813817039 0.2513030472724152 -0.02669348955590935
0.10209950093434349 0.2513957920996857 -0.027969893221451953
0.1045675206582357 0.25125834378883366 -0.036158200506760795
0.09376772526906028 0.2509291473357392 -0.022136118416382983
0.10562267188237205 0.2513880434958649 -0.02891221285302849
0.1011771488587667 0.25130346450492863 -0.023670371775223926
0.10691197995350853 0.2511806789366913 -0.036709185843064505
0.09245672110722557 0.25077685746833805 -0.021326568131043628
0.10036038641140953 0.2513066235511017 -0.022655036453797534
0.10494180802510276 0.2514679733245087 -0.02649706244905205
0.09137346629307762 0.25063154134437565 -0.02080863357026787
0.09302135590718284 0.2508581582038117 -0.02007883429963799
0.1090354252259542 0.2511681619612885 -0.03367381930787774
0.10512664202855125 0.2513992491690827 -0.024271514420106128
0.0955427813927938 0.2511577311484528 -0.019391831163956836
0.09812458638356224 0.25125834378883366 -0.01962518334825249
0.1100565720002462 0.25092723998710637 -0.03618695974786492
0.0907837379376699 0.25057271155998234 -0.018589344029023364
0.09288971904919639 0.2508713904349518 -0.017659958605363086
0.10989367250607505 0.25136634740516667 -0.02827098608453484
0.10967706922696129 0.25143489274665837 -0.02712007999856682
0.11133848909543052 0.2509707513777924 -0.032344546322419364
0.09089051965878502 0.2506570521323395 -0.016701396708085254
0.10240065340207115 0.2513801160781098 -0.018488433365418628
0.10869177464650169 0.2515448037116242 -0.023752626185013965
0.11267667297528282 0.25082138213798527 -0.032590594296052176
0.10491069440053001 0.2512955370871735 -0.019268717770173267
0.10583870891736046 0.25129911336586 -0.01863312364061089
0.09707772020504966 0.25113335284873967 -0.014670338635041432
0.10300805453465477 0.25132861766502385 -0.015686538223817065
0.10238390449688926 0.25128719243690495 -0.014685835842683034
0.10938950661824241 0.25137409600898747 -0.019373621944977954
0.11565124277279869 0.25055691632911686 -0.031071689133240894
0.09748335961506858 0.25112244519874577 -0.012535717491700368
0.1054677892129232 0.2514014545409394 -0.015071984533860402
0.11576881293461815 0.2507476511923981 -0.02841862678964348
0.11478986624882713 0.2511686984030915 -0.025204178099229053
0.10952305082486168 0.25130781564399723 -0.01781367898423882
0.11702286485836998 0.24977561864540104 -0.035227533583237845
0.10389640216038719 0.2513202730147553 -0.012875940804078298
0.11102505807087913 0.25123265418693547 -0.017723079924180225
0.09794434193776146 0.25111886892005925 -0.010865684752061086
0.11805003170178428 0.2498556676833344 -0.034652497772767264
0.11276157979176536 0.2511068883864594 -0.018975611929490283
0.11816146258519188 0.2504080835311127 -0.029757496122910693
0.10634037141011253 0.25138768586799626 -0.012890990976884084
0.11671074513600364 0.25108709964439396 -0.02393245339830132
0.11559280041859642 0.25105419788047795 -0.02126407266099663
0.11595063690350547 0.251058429810257 -0.021519061331345752
0.10947292331860557 0.25138911637947087 -0.014235999588563161
0.11728840355084434 0.25104740295097355 -0.023377474550797656
0.10485699061558738 0.2513367835013581 -0.010795857910706716
0.09564369205639854 0.25093695554420475 -0.00817969084222527
0.09922688488171592 0.2511310878722382 -0.008590426449372487
0.11176740411923423 0.25113996896430973 -0.014677431587769704
0.12066968564198509 0.24971416625663762 -0.036340024475648124
0.10291671041653648 0.2512696090666962 -0.00906586289842339
0.1174657869736959 0.25090160998985295 -0.020760890249802783
0.1014661121766378 0.25120464000389103 -0.008106824163987355
0.09248562935994163 0.25059035453483586 -0.007013227943970876
0.12137972597287193 0.24981525573417668 -0.028608914618088916
0.12202542308972374 0.24882665309593205 -0.03439303875405999
0.11773943189785972 0.25074896249458317 -0.019088771347596362
0.09160053018734947 0.2504996362654877 -0.0062583351178905535
0.0941731262605001 0.2506808939902497 -0.006074901823594289
0.12231790308163658 0.2485990825621796 -0.03652825594384881
0.11024989966557518 0.25141122970268254 -0.011110093597962575
0.10891809348271385 0.25141075286552433 -0.01012712359864922
0.0963946211736013 0.25086453590080265 -0.0059688055558940935
0.10254552249119774 0.2512260380713654 -0.006959196333481984
0.10872738842175499 0.25140002402946476 -0.009698566202714162
0.11625804785893455 0.25066491994544987 -0.015900846724106982
0.11715751175091758 0.2505909505812836 -0.01657202482660027
0.12276726249859825 0.24857023391410832 -0.0264778101487896
0.12298678640530601 0.2483740750281525 -0.027138289217545703
0.117059611121874 0.250589520069809 -0.015263851885392385
0.10025530342267051 0.2511115375487519 -0.004916813377930837
0.1235174763600637 0.2473367157904816 -0.028047170643403247
0.1232803690831472 0.24783650073692326 -0.02635070324380608
0.09449880603955284 0.2506287399260712 -0.0034355783506176043
0.12472682480023399 0.24515953693077092 -0.03355118275125237
0.11730911616490379 0.25058040055915837 -0.013623561863496022
0.12410970811055198 0.246086985203476 -0.026913520102097705
0.11519201878712669 0.2508305612532807 -0.011185225252701955
0.11992757801220909 0.250551313492508 -0.01655533552606316
0.09622373465703025 0.25074002179786686 -0.0029413366361400652
0.12241246585057274 0.2493947449652863 -0.019706335072114185
0.12327774647877708 0.24819746646568303 -0.021079894308640674
0.1255088973443319 0.24363938007041935 -0.0371797943158886
0.12556182626889245 0.24357101354286198 -0.03209799170930596
0.12406142834828392 0.24654290113136296 -0.022889372114731982
0.12581827525303857 0.24323967132255558 -0.034691538815095145
0.11384408954785362 0.251108855339737 -0.008484002356126027
0.10964109782383934 0.2513197961775971 -0.0052269065423748064
0.125250928441744 0.24397346410438542 -0.024656798843934253
0.12590964917347924 0.2431219521491242 -0.02733462691743584
0.12175833467648521 0.24983081254646305 -0.015490051512314992
0.12656422738240258 0.242275208565445 -0.03027051330049248
0.12424176220105186 0.24626067313835148 -0.01941752076585503
0.10751330141232505 0.2513582411734772 -0.003174331192567067
0.09334444288418785 0.2504689398734284 -0.0003578329129955339
0.09722163561985984 0.25073543224021916 -0.00021582484681816576
0.11238574270413414 0.2512974444358063 -0.005371209387376027
0.12395479563878074 0.24703505668327336 -0.017837252621247485
0.10236024145291343 0.251088410946579 -0.0009257459684154559
0.09263112429783836 0.2504248920409394 0.000240299697325511
0.12250252846882835 0.24898329410240178 -0.014635559324814992
0.12208240513012901 0.24944165382072453 -0.013550575975968556
0.1174452233712484 0.2506754699675751 -0.008406844143464284
0.10226564888165489 0.2510547343222809 -0.00017013788659782885
0.12526392225430505 0.2439573112456513 -0.018748130802705005
0.12757136706517236 0.24097225103065495 -0.02685644865472527
0.10916685346768394 0.25140348109886174 -0.0018960797830364275
0.1278282630841543 0.24064013394996647 -0.027498927120759204
0.12471412901089683 0.24495592746421818 -0.016600098614289478
0.09931846741841331 0.2508421245543671 0.0013422703699329328
0.1266288388173391 0.24219098720237736 -0.0209025406881115
0.1240161884228994 0.24682357940361027 -0.014284964804246144
0.09805523637936607 0.25075748595878605 0.0019204652265766096
0.10894685272381797 0.25138357314750676 -0.0010529720826885271
0.09110566262410179 0.25032535228416447 0.002094033952162547
0.12283512238667503 0.24858763847038273 -0.01183870077569695
0.09941258315251365 0.25083914432212834 0.002097967858717723
0.11985107545063987 0.2505473795859528 -0.007692214254929738
0.09445273164914146 0.25055012139961247 0.003174874778197093
0.12635868076489465 0.24253717097923283 -0.016769763235642627
0.13009541515515344 0.23925361070320134 -0.030658867363526538
0.1292540657918264 0.23961159619972233 -0.025344964270188525
0.1288190710942556 0.23979607257530217 -0.02293142319162102
0.11322959546254173 0.2514130774466706 -0.0013365113778850603
0.13060089234517114 0.23903772267982487 -0.03331091642816277
0.12540923837826745 0.24377360973045353 -0.013455029730393605
0.11354317549870506 0.2514026466338349 -0.001390930418564992
0.13072662834332482 0.2389838996855927 -0.03345295429666253
0.12161486629651085 0.2497933808295441 -0.007416274551942067
0.10123177651570335 0.2508961263625336 0.0036729013876178693
0.11984627727673546 0.25077709588691716 -0.005428876881196218
0.13096924904988305 0.23887965116188054 -0.029566105608536914
0.1179608631532003 0.25111016664192204 -0.0034216904683849383
0.1236935782830526 0.24646136197731022 -0.008687462811066823
0.12167765978978172 0.24948564204856877 -0.006110038761689382
0.13020753149197595 0.2392033043830109 -0.023063924316956714
0.12396418337033287 0.24599096212074284 -0.008784439568116384
0.12658732418225305 0.24223855170890812 -0.013145979647233205
0.12960969690487878 0.23945698175117497 -0.020455058817460254
0.09201159362004295 0.25036779079124455 0.0056227779344776106
0.11250516060994163 0.251447469326706 0.0011565422968128156
0.11206191066906944 0.25143733653709416 0.001659456487105174
0.09027912501500145 0.2502378526656342 0.005795482392714305
0.10837885026143089 0.2512246075598908 0.003379199500487132
0.10990890149281517 0.2513124648062897 0.0027774310068347883
0.10951095108197227 0.25127771529838566 0.0033767259077289533
0.12478452209637657 0.24458912048027043 -0.007863607410981374
0.10640012506649986 0.25109049710914616 0.005167338843748851
0.12259598855183616 0.24831196698829655 -0.00384917498071404
0.129662447015505 0.2394278350798798 -0.01541986704309197
0.12709029797719018 0.24155518445655827 -0.009672638182236867
0.11857979778454796 0.2512451711623383 8.12149004199934e-05
0.12252184037373558 0.2483796778647614 -0.0030230546041271258
0.11815183643506065 0.2512234154669953 0.0007554626421192121
0.12351661209271446 0.24689558181449894 -0.003580477242066579
0.12946560267613427 0.23950108918830876 -0.013023164276673512
0.1253822076718618 0.2436857524840546 -0.005748029951646047
0.10806723717854515 0.2511429491965485 0.006535295243666453
0.12070649151013389 0.2498350444762421 -0.000240352158143239
0.09866859797642723 0.25078681144401554 0.008930180068419261
0.12759607319043176 0.24085351857826237 -0.007966276411606984
0.09414299611256614 0.25042304429695134 0.009524557586119456
0.11576708439991966 0.25113871726676945 0.0040094590143421125
0.10536118630574241 0.2510269585578156 0.00839341043989448
0.10787712816403404 0.2511166039435578 0.007828924651549144
0.11116724495099083 0.2512257996527863 0.006641093488142772
0.13104232434437768 0.2388380471198273 -0.012093600039078908
0.11440255526707664 0.25102975997612004 0.005703810449049754
0.12911015037701623 0.23962613973304753 -0.00843444109399529
0.1156194734971334 0.25101515683815007 0.005375627274916453
0.0996800887982656 0.2507598105399323 0.010740194316313548
0.11958303336308494 0.2502600851981354 0.003702465291426463
0.0900517928998281 0.2501917782752228 0.011471006865904613
0.10677450184033409 0.251067191693039 0.009921524520323558
0.09761294011281028 0.2506227198569489 0.011758152242110057
0.12447699193165794 0.24569329652473454 0.0002211964086749983
0.12472593073056236 0.24529925021812443 0.00041553735296515944
0.1209198463361074 0.24935796889945988 0.004071716065810008
0.12381743673489586 0.2469709816901398 0.001974526639387889
0.13046967271969812 0.23904255065605168 -0.0061245226903698016
0.09539317373440757 0.25045737657234196 0.013323489423201365
0.1258097517888357 0.2435721460311127 0.0009129381136157941
0.11559220437214866 0.2505533996550751 0.008543196912215037
0.1099681485097219 0.2511156502692414 0.011649969811842723
0.11906861547635093 0.2502569857566071 0.007596913571760936
0.09082853082821861 0.2501366439788056 0.014563742871687694
0.12617050890133874 0.2430637780158234 0.0026260054067829084
0.10605626587079063 0.25081566009208683 0.013842407460615916
0.12566527012990014 0.24400171670600895 0.0033968722776630354
0.11503478173420921 0.2505479160277558 0.01077366232435493
0.13120280985043542 0.23868534001991276 -0.0023061299367687273
0.12718587402508752 0.2413465681998444 0.0028470790342548322
0.12805333022282617 0.23995456132575993 0.00184002875845222
0.12432833794758812 0.2465299669234467 0.006242070193693919
0.12078022245572105 0.24902841481849675 0.0088675951914051
0.12987612966702478 0.23913970622703556 0.001065347190306468
0.09813287142918602 0.25038644704505925 0.017373714442656323
0.12863539938138024 0.23958978089973454 0.0029504334882953596
0.10911335829899803 0.2508467141120148 0.01563373565237312
0.11345701698468223 0.2506581250159455 0.014114919896529002
0.09788190607235923 0.2503412071196747 0.017844263310835645
0.11987074498341575 0.2495889965026093 0.011332336659834666
0.11015941981480613 0.2508756223647309 0.0158309376196125
0.10876163129017845 0.25080183181449894 0.016471985574171826
0.1226385164658834 0.24824145469352726 0.010221097464964671
0.0987815189759542 0.2503370943991852 0.01855036973516731
0.11811377886937156 0.2500911060301972 0.013138566012785716
0.10256045345471397 0.25042542848274235 0.018215808864043042
0.1214485991399099 0.2489013973204804 0.011414829488203807
0.0906936455170919 0.25010839137718205 0.01896220802824287
0.10625474933789268 0.25059768590614323 0.017684075828001782
0.1092754531304647 0.25078102979347233 0.016935858722136304
0.12972532991574304 0.2392025891272736 0.00381565451185493
0.09544690732167259 0.2502013150183869 0.019218478198454663
0.11886604909108177 0.24988064202949528 0.013947699065611644
0.12491729144261375 0.24634966287300114 0.010154012437269969
0.12954723123715417 0.23928508195564274 0.005584154124663157
0.10654168609784141 0.2505035105673981 0.018882755036757275
0.12455498460934654 0.24743810329124455 0.011788073773787303
0.09775983575985923 0.25020554694816594 0.02096489429037361
0.1275305676858236 0.24125966462776188 0.009383413787291331
0.09188472513363853 0.25007787379905705 0.02176532506506233
0.11345582489178672 0.25058767232582096 0.018407646413252637
0.10975127700970665 0.2505563202826691 0.019677612777159497
0.10304095629857078 0.25023236903831486 0.021250817771361157
0.0979648161332418 0.2501654926268769 0.021942380662367627
0.09355267171071067 0.2500815692870331 0.022281829114363477
0.09947069768116966 0.25007519159004216 0.022491577859328076
0.11353021148846641 0.2506389323203278 0.019369456763670728
0.12159093503163353 0.24877271089241032 0.01594731568853645
0.11851637844250694 0.2499394718138886 0.017617706056044385
0.13076119903729455 0.238948256108017 0.008872363562987132
0.11609690670178428 0.2503843608824921 0.019313368792937085
0.10383494977162376 0.25002333554908757 0.023166242833540723
0.1114126670758535 0.25046053561851506 0.021415237183974072
0.12659563903019921 0.24327710303947453 0.014028791184828563
0.09096988324330345 0.2500688138930512 0.0245589649633625
0.1254663098256399 0.24551209840461735 0.015282992120192332
0.127804719249468 0.24120381507560734 0.013270232673094554
0.12235360626385704 0.24853172931358342 0.01768735408346443
0.1262602138917257 0.24395814571067814 0.014999542231962962
0.10978295687840477 0.25025293264076237 0.023194108004973218
0.125309579412203 0.2455299201934052 0.016397688384459302
0.10438992861912742 0.249798983666153 0.025137159820006177
0.125170521775942 0.2456616464583588 0.017286363835737988
0.11515262011693016 0.2504695955245209 0.022803071732924268
0.10950138453648582 0.2501199546782685 0.02472591757337837
0.12005715850995079 0.24946227702781681 0.020959231849119946
0.10321220044301048 0.24973294171974186 0.02656433343450813
0.09049483422444358 0.2501063648192597 0.027338478560850903
0.09617888216183677 0.2501501146285248 0.02757490038435249
0.11561375145123497 0.2504166069953156 0.02375489830534248
0.12589531425641076 0.24445346030876164 0.01849618911306648
0.0958653915326406 0.250159353348465 0.027935270066664502
0.10851921919987693 0.24987581405326847 0.02628863215009956
0.13339620117352502 0.23846986922904972 0.01264363884489326
0.12993168119595544 0.23984214696571354 0.016158792968199536
0.12444242123768821 0.2465263310401154 0.021123323436186597
0.09381132606671348 0.2501712742774201 0.029256168599531934
0.1171695816914846 0.25021496448204045 0.024930957551405713
0.1318204927842428 0.23877427014991764 0.015583369727537913
0.10496755723164573 0.24961748752281193 0.02881369351904182
0.10836466435597435 0.249707430931778 0.02820310353796272
0.10310234908268943 0.2497188154189301 0.029186341758177563
0.1004907715718557 0.24990549716636662 0.029735211129591748
0.12194713238881126 0.24893108043357853 0.024476174111769482
0.11897268180058494 0.24959299001380925 0.02609297990362434
0.11173488978550926 0.24994120034858708 0.028618935342238232
0.12705921415493981 0.243268221947403 0.02171603202383308
0.1076650548379232 0.24968501958534245 0.029927883143828198
0.1320597756306936 0.23872867259666447 0.01806015133421211
0.10170700434849754 0.24984422359153752 0.03128490209142951
0.1316516328255941 0.23893782529518132 0.01891759395162849
0.12295153025792137 0.2478967014281464 0.025307122464583203
0.09003569964573875 0.2500896755187226 0.03191379069845466
0.13336493853734033 0.23859509858772282 0.01771539806883125
0.09962897781537071 0.2500617805449677 0.03207153439085273
0.1052975285451223 0.2495926323859406 0.03157845496694831
0.1213185120026876 0.249080092045517 0.026721391673491284
0.13154985789464013 0.23900851640388493 0.019939515586302563
0.09623425487683311 0.25022563371345524 0.03277308105985908
0.09663369540379539 0.2502345148055268 0.03286743521253852
0.12926440719769494 0.241153747173996 0.022722188229964062
0.12761309031651513 0.24282416734382634 0.02406821012060432
0.11930515650914207 0.2493893805472565 0.029447946544096753
0.1059178042809774 0.24965384635612492 0.033548090453551095
0.11471938375638023 0.24988767537757878 0.03183362245123176
0.12345724586651817 0.24689605865165715 0.028630796666548535
0.11322607878849998 0.24998250636741642 0.03261623143713264
0.09864278916523948 0.2501809302298737 0.03521836161176948
0.09201540831730858 0.2501384917227936 0.03556648253958015
0.12079709057019249 0.24857601556465153 0.03023109197180061
0.10249709371731773 0.24998894366905217 0.03533664702932624
0.1262425113122274 0.24417069587394719 0.02809912323515205
0.13226234201596276 0.23879924449607853 0.023889336581633374
0.11147438768551841 0.2499425712554169 0.03462431191961555
0.12564920667813317 0.2447567883460236 0.029295597072050854
0.13184478167698876 0.23908761176750187 0.025093052382872388
0.1315395164887716 0.23938044938728337 0.025548133845732495
0.11526253108189598 0.24992713365242009 0.09262070416967659
0.09410550479100242 0.25024470719978337 0.05376851915876655
0.11906298283741966 0.24922087821647648 0.09585303425352364
0.11163090948269859 0.2502546015708161 0.09226096033613472
0.12382786754773155 0.246092290016861 0.03976044415991096
0.13066630844281213 0.24034830960914616 0.052078191037581247
0.10414024476216331 0.2503224316565705 0.09886852263967781
0.1289360750119497 0.24148860606834416 0.040838960404799264
0.1304304528634359 0.24039438399955754 0.027873430247710034
0.1237989294926931 0.24628201160118107 0.08355337738554268
0.1249547231595327 0.24506309661552433 0.06102863311331062
0.11485066298649803 0.24990865621253971 0.049166742558882516
0.12604641203091638 0.24401214751884465 0.0769126152948597
0.09405853633091942 0.2502824369399262 0.07448298096220284
0.11172198537991539 0.25033512744590763 0.07117039322416573
0.10546033863232628 0.25005385312721257 0.04729622959654121
0.10584252361462608 0.2502429190604401 0.0636117792085865
0.09412192587063804 0.25021955403968815 0.04802871107618598
0.101875923911791 0.2503620687453461 0.09124079703848152
0.1324841010968496 0.23899111184761052 0.02918973922292976
0.12974303249524133 0.24101612004920964 0.05271101355116157
0.1234506297509481 0.24682047996208195 0.09708851933042793
0.11211546544240013 0.25036749276802067 0.08575356363813667
0.13416617397473352 0.23891910943672184 0.08237561940710335
0.09744089130566612 0.25027063522026066 0.054025266166136544
0.09131305698559776 0.2501944604842377 0.07584187745611458
0.11697535995648399 0.24959489736244206 0.04348537683050422
0.09038763527081504 0.2501511875121308 0.06594428777258186
0.1251521635453512 0.24488654765769963 0.07701522469084053
0.1339644420544912 0.23894187841102604 0.0339341497377613
0.12436797503636375 0.2455289665190888 0.04227438926260261
