ply
format ascii 1.0
element vertex 765
property float x
property float y
property float z
element face 0
property list uchar int vertex_indices
end_header
0.2639853585164358 0.28742262754127507 -0.2534289920373699
0.23383512381718652 0.3105492893187714 -0.263396408562257
0.27268227223561303 0.3101519051520539 -0.25883707046945303
0.28880854729817407 0.24293473395988469 -0.26670837045152396
0.22865458611653344 0.27679047021553044 -0.2667259836240551
0.2645659077565481 0.305022269818039 -0.266603674892976
0.28132715109990136 0.304721862408371 -0.2544956171556255
0.28712304715321557 0.29175207051918034 -0.25340559721429556
0.2465745437543203 0.2937542501418305 -0.2667259836240551
0.22841980342076318 0.30792149934455876 -0.2560609841390392
0.277165972034197 0.28835442695304875 -0.2534289920373699
0.2608880627553274 0.27731469306633 -0.2667259836240551
0.27798523787663476 0.292528361412735 -0.2534289920373699
0.2620595324437429 0.3099775019614411 -0.2587729060693523
0.24567439440892236 0.276806503864975 -0.2667259836240551
0.23664244298146264 0.28245338830635075 -0.2667259836240551
0.2830413210789968 0.30412939223930363 -0.2665205562158367
0.22911139611409204 0.29199013147041325 -0.2667259836240551
0.2700885761182119 0.31058695945426945 -0.26269238830049246
0.246773921291094 0.2958301607100678 -0.2667428815408489
0.24915941838429467 0.28759363326713566 -0.2667259836240551
0.2533022392194082 0.2804199162451935 -0.2667259836240551
0.26512303237126367 0.2762807312934113 -0.2667259836240551
0.2298497188489248 0.2751152220694733 -0.25342815757234305
0.2638694870869924 0.3085865083663178 -0.2653422021909496
0.26169957999394433 0.29938092860862736 -0.2534124815507671
0.2628017294804861 0.3075142804114533 -0.2658883893533489
0.29397936944172876 0.2786981168715668 -0.2660858297391674
0.2755139696996023 0.28957590493843083 -0.2667259836240551
0.28392096642659204 0.2937258187262726 -0.26675536871392935
0.26580783013508813 0.2953684631316376 -0.25342568397958487
0.26481672410176293 0.25206926498100285 -0.25347664595086783
0.29760488156483667 0.27494320306465153 -0.26389419675309866
0.2762935984532644 0.28250691327735905 -0.2534289920373699
0.28804542903111474 0.30496665868446354 -0.25460788250405997
0.282237731258135 0.2941923442809296 -0.25342380643327445
0.2599904764096548 0.2915761176078034 -0.2667259836240551
0.27813931588337915 0.23921093377754216 -0.24898528695543024
0.23294111375020043 0.30804678830787663 -0.2561023795648357
0.2675907838742544 0.2982266846625519 -0.2667719090028545
0.2293306816022207 0.3042188588111115 -0.25455560923059195
0.2973802316586782 0.24902048740074162 -0.25808593273599356
0.2982693541447927 0.28551533851310734 -0.2591312193914196
0.25432129983113305 0.2891494933097077 -0.2534289920373699
0.27461697940037744 0.30701103839561467 -0.2660936081453106
0.2715443003575613 0.28943583402320866 -0.2667259836240551
0.2561621296803762 0.28531816634819035 -0.2534289920373699
0.296539329330187 0.3096924129454804 -0.25991600394685477
0.2557973492543508 0.28103289041206364 -0.2667259836240551
0.24084433201954858 0.2792969051329804 -0.2667259836240551
0.292667053977709 0.2869768444029999 -0.25460084915597647
0.29236730221913354 0.30719831618949894 -0.2557323837323925
0.2732861864964773 0.244902104469986 -0.2667259836240551
0.23756369237111108 0.310786635014267 -0.2613630557103893
0.2791242826382925 0.27996787461921696 -0.2667259836240551
0.26451804522679345 0.2759382430045319 -0.2534282767816326
0.26877947930501 0.3006748858420563 -0.26680159211595267
0.291532062331896 0.3106798830954743 -0.26189532518823355
0.25281121615574853 0.28139475021049504 -0.2667259836240551
0.2619461644093801 0.31059977445289616 -0.2623828017755291
0.27352311495945947 0.28674396905586247 -0.2534289920373699
0.27385767583058374 0.29587534103080754 -0.2667434179826519
0.25744082812474267 0.2792641821829987 -0.2534287536187908
0.23628499392674462 0.29305002126380925 -0.2534289920373699
0.26754244450734155 0.3107855025260163 -0.2600854897542736
0.2325279939572622 0.29825809631034855 -0.26677229643304556
0.27679213170216577 0.2766017023055268 -0.2667259836240551
0.2854909527699758 0.2990870181052399 -0.2668203973813793
0.28727301243947045 0.27963122758552555 -0.25340485215623587
0.24008479003117578 0.2852306071250153 -0.2534289920373699
0.27457191828892724 0.27639105949089054 -0.25342836618859976
0.2807462442319204 0.30832144651100163 -0.2653270030065319
0.2727278697888662 0.3084845844237519 -0.25665241122682303
0.2288317311208059 0.29217126998588566 -0.2534289920373699
0.29592915658162133 0.30017438563987736 -0.26484706640680045
0.26788493279622094 0.3071775737731171 -0.26604038119752615
0.2976426113049795 0.30718597802803044 -0.2624651157899639
0.26954086903737084 0.31041380796119694 -0.2643610799356243
0.23144211653874414 0.23886528644248967 -0.24815976262529107
0.28023364428685205 0.2841484847991181 -0.2534289920373699
0.2657711136739065 0.3047284785239411 -0.25465613246400565
0.25858040932820336 0.29419323835060124 -0.2667259836240551
0.2879433262746145 0.28521570596382145 -0.2667525374933025
0.2971434224049856 0.30746594104454045 -0.2590878570123455
0.26155348900959985 0.2943147126166535 -0.2667259836240551
0.2737664807240774 0.28012147578880314 -0.25342890263040274
0.2390446889798452 0.2767488661734772 -0.25342839599092215
0.28034409169362084 0.30456969175025944 -0.2544523441835186
0.2362358796994497 0.277627557846756 -0.2534285152002117
0.2735215652386953 0.28907182845756535 -0.2667259836240551
0.249927841464739 0.29684069785758976 -0.26675513029535025
0.2653300393025686 0.2945144477812958 -0.2667269372983715
0.24458601359532373 0.29983463916465763 -0.2534076535745403
0.29625847224400537 0.2748543921439362 -0.2569367849870464
0.24863871220753686 0.3104940954177094 -0.26366823554475516
0.27793725613759057 0.29194751414939885 -0.2667259836240551
0.23243495110676782 0.28023436698600773 -0.25342890263040274
0.28063108805821435 0.3088736835448456 -0.25699099541146964
0.2610008943478872 0.2846660915343476 -0.2534289920373699
0.27744253758595483 0.2829842272727204 -0.2667259836240551
0.247392498294573 0.3098176423041535 -0.2585179173990032
0.2952134836118032 0.25613465938255314 -0.2556156182332775
0.291769825259905 0.29202374849006657 -0.266523655657365
0.23898985270665185 0.30760160121604924 -0.25560098529298514
0.2936644184987356 0.30860671434089665 -0.2645490729852459
0.23411913994954126 0.30893775853797917 -0.25726621985872
0.24686720256016748 0.2773631516425324 -0.2667259836240551
0.24723645333455102 0.2754259410826874 -0.2534282171769878
0.2850716936986257 0.31073638829872136 -0.2636248135610363
0.23103752021000878 0.28318366441413884 -0.2534289920373699
0.24495341662571923 0.2769116464583588 -0.2667259836240551
0.24736502055333154 0.2878992262808991 -0.2667259836240551
0.29809393767521875 0.2778764072386933 -0.2630749905153057
0.2927411425511648 0.2759319249121857 -0.2664670908494732
0.2908448803822805 0.25730034742042546 -0.2665794754071972
0.25955893878148095 0.27449771794960026 -0.2667259836240551
0.257790230552416 0.28880593213722233 -0.2534289920373699
0.29562398080037133 0.2909604016272736 -0.2562581861062786
0.24644865874455468 0.2752096358267975 -0.25342818737466544
0.25205376032994287 0.30659714374229435 -0.25530525684793204
0.24390097741292016 0.27528616819068913 -0.2667259836240551
0.26870235089467065 0.3016411367385102 -0.2535634601159832
0.24701692942784326 0.3038003746001435 -0.25431877017457694
0.26971402053044335 0.29729512366935734 -0.25341769695718497
0.2593878734509756 0.29444459113761906 -0.26672607303102225
0.23252882842228906 0.30147048864051823 -0.26677333951432913
0.2887367833058645 0.2809642258612824 -0.2667053306146404
0.2517678964536001 0.28050777349159245 -0.25342893243272513
0.28510942343876855 0.30830732021018986 -0.26524108291108817
0.23191430453465478 0.31027480992958073 -0.25902616620500296
0.2521162259976675 0.2590616050688935 -0.2667259836240551
0.2434007156293203 0.3107123080222321 -0.2612095737500927
0.286038898269396 0.28874442014381413 -0.2667755448861858
0.2574857700269033 0.2645523253409577 -0.2534076535745403
0.2305857766072561 0.2818075719802094 -0.2534289920373699
0.24791380051777856 0.29751893911048893 -0.26676332593400687
0.2411419380109121 0.27939608726188664 -0.2667259836240551
0.2972002852361013 0.2935052219359589 -0.257941063646867
0.2869706380765249 0.294909268948288 -0.25340488195855826
0.2982005703847219 0.2810274663893891 -0.2606764102025768
0.24014999751256005 0.2920144501654816 -0.2667259836240551
0.2642759311597158 0.3104816976515961 -0.2639134490533611
0.2563084590832998 0.30818983945533757 -0.2655495071454784
0.2702070105473806 0.3072409931151581 -0.2554734313531658
0.2364635694424917 0.2773797813384247 -0.2667259836240551
0.2429889667432119 0.2802606526343537 -0.25342890263040274
0.26510807160542504 0.3103671971289826 -0.2592969203038952
0.2393331754605581 0.2761365476576996 -0.2667259836240551
0.23949321393178002 0.27786001596138005 -0.2534285748048565
0.27804943207905786 0.30253616008445744 -0.26670083046395987
0.2934708226125051 0.2822490635840607 -0.26639327049691885
0.2591861117284109 0.29423484239265446 -0.2534289920373699
0.2814012396733572 0.23983719978019719 -0.2499328815980694
0.252469562331896 0.2962292734114838 -0.2534231507821819
0.2889307964246084 0.30754151973411564 -0.26556807399232596
0.22954615239308374 0.28329870137855534 -0.2667259836240551
0.28315075520680444 0.27912768754646305 -0.266748037342622
0.2554775107304861 0.2780090871779633 -0.2667259836240551
0.2748737562100698 0.2819388810126496 -0.2534289920373699
0.27197697047398584 0.305895060631485 -0.26653307319123953
0.23040612820790307 0.29047468337699894 -0.2667259836240551
0.2895593274037649 0.30001816186592106 -0.2666310036226055
0.2897849905888845 0.3007980290381623 -0.2538989150567791
0.2718103754918386 0.2968432608573151 -0.26675516009767264
0.2819867957036306 0.2927221361128998 -0.25342473030526846
0.2487701404492666 0.2836172882048798 -0.2534289920373699
0.2374727952878286 0.24045154485389714 -0.2667259836240551
0.266995929519396 0.28843584689781193 -0.2534289920373699
0.2857932675282766 0.262317031952591 -0.2533774340196392
0.2706209052007009 0.29450371894523625 -0.26672678828675955
0.28442134741948144 0.2790200415579987 -0.2534154021783611
0.25118472460911767 0.3041593137709809 -0.26665335536439627
0.28723206404850976 0.27710166606590275 -0.26678689957101553
0.23110499266789453 0.29504475030586247 -0.26673334479768485
0.23155888203785913 0.28905144366905217 -0.2534289920373699
0.2885054576794912 0.2760155502288056 -0.25362604499299735
0.27523388747380273 0.2885906997649384 -0.2534289920373699
0.2980906594197561 0.2904950681655121 -0.2631550991578838
0.2921555269162466 0.28681108388587956 -0.2544811332269451
0.250524662772875 0.31076356801673893 -0.26042639852006644
0.2900879609982778 0.29638126525566105 -0.26657008767564505
0.29672237519429223 0.2942124906508637 -0.2644262576146862
0.24184151772664086 0.29640522632286076 -0.26674985528428763
0.23361655358479516 0.28702405128166203 -0.2667259836240551
0.24113043431447045 0.2646169367758942 -0.25340801120240897
0.2849887240330984 0.2868097129790497 -0.26676553130586356
0.25346847657368676 0.29320904645607 -0.2667259836240551
0.2746264565388967 0.308544785114975 -0.2566982471986553
0.29822274331257836 0.26957306298896794 -0.2601717078729412
0.25052722577260034 0.28489723834678654 -0.2667259836240551
0.26967188004658715 0.27833446893379216 -0.25342863440950125
0.26323845271275537 0.2784883681266022 -0.2667259836240551
0.2912784445683767 0.30358246001884465 -0.2661678457303783
0.254710339347582 0.29540595445320134 -0.26673772573907584
0.2730705368916799 0.3107970062224579 -0.2600503528161785
0.2613125670354177 0.29180964860603337 -0.2534289920373699
0.24518206004307763 0.29229792985603337 -0.2667259836240551
0.2347044575612356 0.2932107749907685 -0.2667259836240551
0.22976484183476464 0.29365524682685856 -0.2667259836240551
0.2822907197873403 0.3062390390364838 -0.25495496035058707
0.2783642042081167 0.2493283453910065 -0.2667259836240551
0.2954642403523733 0.2972312274901581 -0.2651438677354595
0.24927314404652612 0.3002259436576081 -0.2667961382909557
0.2788737643163015 0.2785079780547333 -0.2667259836240551
0.2940426695744802 0.27954569492027287 -0.2549217605634472
0.274789058009844 0.30602726373359684 -0.2549902463002941
0.2713582742612173 0.31021079454109196 -0.2589376533075115
0.24023195389912622 0.23992905053779606 -0.2501980030580303
0.25799968127415673 0.2974572483031464 -0.2534191274686596
0.2731781828801443 0.2864300313918305 -0.2534289920373699
0.24861445311711328 0.30984726581260685 -0.26470681667764395
0.2411707866589834 0.3085724416701508 -0.2653506958528301
0.25721897963688867 0.29081258210823063 -0.2534289920373699
0.24242117289708154 0.28411445054695134 -0.2667259836240551
0.29677441004918115 0.3021535578696442 -0.2642312908216259
0.26296456937001245 0.2823425236670685 -0.2534289920373699
0.2441871989171316 0.30299684438392643 -0.26670500278909415
0.2936161387364675 0.2943093481986237 -0.25482254863221854
0.28788503293202417 0.29829123649284367 -0.25346693039376944
0.2467698085706045 0.24049827489540104 -0.2667259836240551
0.2863021123807241 0.2795558277098847 -0.2534084582372448
0.27566327933476464 0.2803392711608124 -0.2667259836240551
0.2749433744351675 0.24710693988487248 -0.25377446055848807
0.2949514019887258 0.284678191277237 -0.2654982173486492
0.22972675446675317 0.2849706712691498 -0.2534289920373699
0.27615716342137353 0.2839684787718964 -0.2667259836240551
0.2604125965039541 0.3052092495886994 -0.25482302546937674
0.23477574471638696 0.2817349139182282 -0.2667259836240551
0.2522421706120779 0.29928210410758976 -0.25341316700418204
0.245375417510729 0.30640658769294743 -0.25522020101983756
0.2666604149739553 0.29563912782356266 -0.26674055695970267
0.2759186256329824 0.30847713384315495 -0.2565839254899761
0.26024409417317407 0.3036649528472138 -0.266675319675996
0.2977047789494802 0.29144468936607365 -0.2584873998208782
0.29084142331288354 0.30143389138862614 -0.2542145216508648
0.27182098511860864 0.293555349442215 -0.2667259836240551
0.2676111686627676 0.2892394963233185 -0.2534289920373699
0.2853279936711599 0.30402591857597355 -0.25426283121545523
0.25274720076725976 0.30666598710700993 -0.2663229370160839
0.24647750739262597 0.28709694776222233 -0.2667259836240551
0.27902277592824 0.30177149209663395 -0.25359385848481864
0.27914538268254296 0.29893460902854924 -0.2667804920717022
0.23574557189152734 0.29813167485877995 -0.2534096801324627
0.2892505157391836 0.2799738350836945 -0.26667475343187064
0.2697283852498342 0.3106907311408234 -0.25960766911943167
0.2421902048985769 0.2988792959181977 -0.2534091734929821
0.2383197772900869 0.28918638858482365 -0.2534289920373699
0.2372565496365835 0.2974516454665375 -0.2667625212713024
0.24590500477955834 0.31068775090858464 -0.25967335343797415
0.24000968817875878 0.30655255946800236 -0.26637947202165335
0.28438331965611474 0.283475786778183 -0.26675977945764273
0.2515527832906057 0.2898830476729584 -0.2534289920373699
0.28493698720143334 0.2887190285651398 -0.2534137332483074
0.29107054356740014 0.30438706311866764 -0.2547400558038494
0.25920119170353906 0.3093049231497956 -0.2649835312410137
0.2541579234998037 0.2994493547408295 -0.25341260076005667
0.28760167245076196 0.3036608401267243 -0.2665282452150127
0.29332443360493676 0.2918812933890534 -0.2664312088533184
0.26408764008687036 0.29611989888832096 -0.25342300177057
0.2959439981381704 0.28164026174232487 -0.2648982369943401
0.2945077646176626 0.3046066466300202 -0.2557953858419201
0.28668811206028955 0.29489460620567326 -0.2534059846444866
0.238961421291094 0.27954229745552067 -0.2667259836240551
0.24060335044072167 0.3063829842536164 -0.26646643519838065
0.27915724400685327 0.2731548253028107 -0.25342723370034903
0.2390592325131704 0.2854461375205231 -0.2534289920373699
0.23928561095402734 0.2713504734961701 -0.2534256243749401
0.2933446991841604 0.3106415573088837 -0.2595012450261852
0.24987497214482324 0.3038664761511994 -0.25434901953180045
0.25682403926060693 0.2857637110678864 -0.2667259836240551
0.22948875312016503 0.307906836601944 -0.25601124406297415
0.24627413634465234 0.2867933217017365 -0.2534289920373699
0.26254942301915185 0.28140321407005314 -0.2667259836240551
0.27678372744725244 0.30557552013084416 -0.26653298378427237
0.2510877478520681 0.3035113516776276 -0.2666821444078228
0.2833177078168203 0.309721976849289 -0.2644541227861187
0.26317795399830834 0.3045290413825226 -0.2545861864133617
0.2863040793340017 0.2972771230666352 -0.26680841684777945
0.2509899366299917 0.2845260206191254 -0.2534289920373699
0.25157006863759057 0.31047549876853947 -0.25942992806871146
0.23986103419468896 0.31007179650947575 -0.25874334216554373
0.24468406323597924 0.3106427494017792 -0.26201593518693655
0.25004567984745996 0.30546072158500676 -0.26659553885896414
0.2579108703534414 0.3079729977576447 -0.2560859584852001
0.28382434729741113 0.2831650677649689 -0.2534178757711193
0.27115728739903466 0.3069252077071381 -0.25534426808793753
0.28509124402211206 0.3024134341208649 -0.2537728810354015
0.25182171944783227 0.31043359670326237 -0.26441007495362967
0.297529958526354 0.2933179441420746 -0.2639382445855877
0.2548947561185171 0.29764631423637394 -0.266764875654771
0.2554471719662954 0.29053404960319523 -0.2667259836240551
0.22905667905018823 0.2824183407752228 -0.2667259836240551
0.24379762295887963 0.3061969581572724 -0.2665609681649944
0.29445018653080957 0.2787105146376801 -0.2658012473626873
0.29446961764500634 0.29163065585777287 -0.2550226712270519
0.26361628655598657 0.30629947814628605 -0.26650344968278616
0.266110919753771 0.30584368142768864 -0.2550471389337322
0.2794844139020254 0.29524490270301823 -0.25342577338655203
0.2982897389333059 0.30142471227333073 -0.26206925154168814
0.22918810729191796 0.2800734344451142 -0.25342887282808035
0.23896773938344018 0.295602411362381 -0.25342300177057
0.24316086653874414 0.29522064361259465 -0.26673549056489676
0.2585447061459829 0.28307536277458195 -0.2534289920373699
0.2845807898442556 0.28688135776206974 -0.26676165700395316
0.2382807958524038 0.30089864167854313 -0.26679822445352286
0.262113117019396 0.2928970757453156 -0.2534289920373699
0.23314478282139794 0.30608049068138127 -0.26657229304750174
0.2839029062192251 0.27510687741920475 -0.266755189899995
0.2543836462895681 0.30281350049659733 -0.25398379207093924
0.24110689047978417 0.29189810189888005 -0.2667259836240551
0.2817968953053762 0.3106357756583405 -0.26269971967179984
0.25544365529225366 0.31060025129005436 -0.2623861992402813
0.28000810031102197 0.2842739525763703 -0.2667259836240551
0.23787578229115502 0.2403210702864838 -0.2508592867894909
0.23460140113041894 0.28353574905082707 -0.2534289920373699
0.2768908369939138 0.27479538354560856 -0.25342812777002066
0.2612309682767202 0.29871419105216984 -0.25341480613191336
0.2367927062909414 0.2985866967169953 -0.2667762899442455
0.26382847909138696 0.3056693974463654 -0.26657706141908377
0.2832305062215139 0.2996539774863434 -0.25340202093560904
0.22874029759572045 0.2879391017882538 -0.2667259836240551
0.26158323172734277 0.2749831977812958 -0.2667259836240551
0.2556942928235342 0.26911333236381535 -0.2667259836240551
0.2770642865102102 0.29309555921241764 -0.2667259836240551
0.2708486545483877 0.2931230965583039 -0.2534289920373699
0.2685755122105886 0.28590497407600407 -0.2667259836240551
0.2763872969548513 0.28373274240180973 -0.2534289920373699
0.2583303082387258 0.27706101569816594 -0.2667259836240551
0.2709549296300222 0.2771136465995026 -0.2534284555955669
0.29371901635334985 0.3079393807379914 -0.2649299466653606
0.23292752389119165 0.30199167165443425 -0.2536365056081554
0.27866026047871606 0.3007343116728974 -0.25340366006334036
0.2779225933949758 0.31064537200614933 -0.2623689436956188
0.22971024398015039 0.30804160270378117 -0.2656374239965221
0.28302403573201196 0.2923331562010956 -0.2667468154474041
0.23285748843358056 0.2930091920821381 -0.2534289920373699
0.2872057784001638 0.28472480210945134 -0.26678666115243643
0.29716315154240625 0.30910351905509953 -0.26003986239869803
0.2489251125256826 0.2924441400496674 -0.2534289920373699
0.23376884345219628 0.2773749533621979 -0.2534284853978893
0.25299670581028955 0.29436615142509465 -0.2667259836240551
0.2584313381116201 0.27318522367164616 -0.2667259836240551
0.2406708825032522 0.2975815239875031 -0.26676410079438895
0.28030481223271386 0.28998515042945866 -0.2667259836240551
0.26875396851704614 0.2697708312003327 -0.2534242236657879
0.26789071444676416 0.2971353832213593 -0.2534190976663372
0.29516395215199487 0.2991900149314118 -0.2557144129319927
0.23926290158436792 0.2880654040305329 -0.2667259836240551
0.23416283015416162 0.24433395299598698 -0.25318574548204154
0.23547526482747094 0.26169058713600163 -0.25339233518083304
0.28935983065770166 0.2858715358702851 -0.25382685304124564
0.23598321561024682 0.28679826888725285 -0.2534289920373699
0.2831034291188528 0.3094835582701874 -0.25768851876695364
0.2700249183575918 0.2783442440955353 -0.2667259836240551
0.23340263251469628 0.29444363746330265 -0.2534289920373699
0.2882172692220022 0.29031428727790837 -0.25355943680246085
0.2928542721669485 0.2960805598227692 -0.2664137446923992
0.26828428391621606 0.30621930989906315 -0.2551539504571697
0.2789743173520376 0.2993020716635895 -0.26678496242006033
0.29815103892491357 0.2862783375708771 -0.2617922985597393
0.2963499057690908 0.24283245238945012 -0.2648043298764965
0.277043901721697 0.2954879704444123 -0.26673870921571463
0.2295108664433767 0.29763367805168156 -0.2667647266431591
0.28359808806584375 0.2959571186034394 -0.2667685413404247
0.275235675613146 0.28241249952003483 -0.2667259836240551
0.24904545430348413 0.30777594480201725 -0.2557900214238903
0.2767091620366384 0.29188093576118473 -0.2534289920373699
0.29259713772938745 0.27514275941535954 -0.26647567391832083
0.24633773450062768 0.29273638162300114 -0.2534289920373699
0.23772742633030908 0.2554609480826569 -0.2667259836240551
0.241014324466448 0.3108375373809052 -0.2603995764299175
0.26425578478978173 0.2493685785262299 -0.2536387407823345
0.2639088261525442 0.276624471279831 -0.25342839599092215
0.2786987054745962 0.28116604718849186 -0.2534289920373699
0.2299686301152517 0.2883947196929169 -0.2534289920373699
0.24012097005055444 0.2825898829428864 -0.2534289920373699
0.23959030989811914 0.30723080072090153 -0.2554710471673748
0.28748717192814843 0.31087204847023014 -0.2620385551496288
0.29543622616932885 0.2883453670470429 -0.25605708003480643
0.2322010028760244 0.30320945415184025 -0.25411605477769583
0.2839160192410757 0.3074212375609589 -0.25530787945230216
0.26325299624608056 0.2552116814582062 -0.2667259836240551
0.2952743399541189 0.28687331113502507 -0.25588366032083243
0.23993691090748803 0.288456529709549 -0.2534289920373699
0.25770386342213647 0.28437450561210637 -0.2534289920373699
0.29053666476414697 0.293459028336258 -0.26659723759134024
0.2673182714383413 0.2846834364859772 -0.2534289920373699
0.29061635617421167 0.2809201184241486 -0.2541204655214092
0.26924075965092675 0.27600738439247136 -0.2667259836240551
0.26679810170338647 0.3019150200812531 -0.2536694669767162
0.23778124932454126 0.29839882287666325 -0.25340851784188956
0.2870914566914846 0.30513986978218083 -0.26635312676866263
0.28424819592640893 0.2855493131606293 -0.25341629624803275
0.2982684004704763 0.29218366775199894 -0.2591628694577953
0.26866140250370996 0.27683910760566716 -0.25342842579324454
0.2400399077336599 0.3002823296515656 -0.26679682374437064
0.2641815174023916 0.28861406478569035 -0.2534289920373699
0.24676849726841943 0.3036954704253388 -0.26667394876916617
0.2828868854443838 0.2935217324225617 -0.266745504145219
0.2841722596089651 0.30822744998619084 -0.26530214786966055
0.2807722318570425 0.29981347951576237 -0.25340735555131644
0.26543798331425683 0.30323222312614445 -0.26668583989579886
0.2839925516049673 0.28910478982612614 -0.26675605416734427
0.250582240859728 0.308642715546341 -0.2569637262864849
0.2592711079518606 0.3105277124373627 -0.26327442765672415
0.2722594368855764 0.299245149227829 -0.2534096801324627
0.2888191569249441 0.28179481658622746 -0.2537002825780651
0.23446156863377587 0.29738667640373234 -0.2667617464109203
0.2368152368466665 0.2795669737784577 -0.2667259836240551
0.2639336812894155 0.28824707898780827 -0.2667259836240551
0.23927994851277368 0.3063872757880402 -0.26646330595452994
0.2604908574025442 0.2783491316764069 -0.25342863440950125
0.24051358584568994 0.3027009073226166 -0.2539143824620983
0.24214645508931176 0.2940022054640961 -0.2667259836240551
0.2586992013852407 0.3086637559859467 -0.2570116484208843
0.2719605195920278 0.27932050857231144 -0.2667259836240551
0.2732135284344961 0.29666051301643376 -0.253420081142976
0.2820190418164541 0.2600992027251435 -0.26673724890191763
0.24020107869313256 0.2932991686789704 -0.2534289920373699
0.2689729559819509 0.29274871978446965 -0.2534289920373699
0.24387457255528466 0.29769256744071965 -0.2534169220968029
0.2681463587682058 0.28108546170875554 -0.2667259836240551
0.2973563301961233 0.2894427481620026 -0.25811406612832755
0.2969138253133108 0.27834317121192936 -0.2643119061036846
0.27230586890385644 0.2410518232314301 -0.2520958745523235
0.2570820677678396 0.2808690372435761 -0.2534289920373699
0.27735408429310815 0.29902252587959294 -0.26678156495530814
0.27047111872838037 0.2838335338561249 -0.2667259836240551
0.2545319426457693 0.2979620400397492 -0.26676872015435904
0.2647918093602468 0.28466901216194157 -0.2534289920373699
0.29667773131535546 0.2808944288222504 -0.2573863530202648
0.2847562063138296 0.2780793014495087 -0.2534140014692089
0.29107465628788964 0.25355759296104435 -0.25415134072740286
0.2511383521954824 0.3035754862754059 -0.26667928338487357
0.2397424805562307 0.30219051274940495 -0.2537336909814617
0.23472180251286523 0.2856108847586823 -0.2534289920373699
0.2620874870221426 0.28237608108207707 -0.2667259836240551
0.2519349682729055 0.31070706281349186 -0.261110510830476
0.2730283964078237 0.3083372417418671 -0.2653930747552654
0.23278477076695459 0.3107135597197724 -0.2624278628869793
0.28177627209828393 0.2774031463591767 -0.2667349243207714
0.2887178290288259 0.3041330877272797 -0.26636203766305655
0.22920539263890283 0.3099896017043305 -0.2647040152593395
0.2820549238126089 0.2846877876250458 -0.25342449188668936
0.2574414837758352 0.2869238558737946 -0.2667259836240551
0.23825504664586084 0.28568878802940373 -0.2534289920373699
0.23965349082158105 0.29234352740928654 -0.2667259836240551
0.24142249707386987 0.2832827869384003 -0.2667259836240551
0.29698022488759057 0.3020223084418488 -0.2641118729158184
0.2975362766187002 0.2953101101844025 -0.26391848564584464
0.256777845660906 0.29477813872978215 -0.25342788935144156
0.23846431855366723 0.3007614317862702 -0.2533960902734539
0.25976749543355004 0.29308757219001774 -0.2667259836240551
0.26749201897786157 0.2843092385260773 -0.2667259836240551
0.2781641710202505 0.3068184557883454 -0.26619106173951834
0.27266141060994165 0.30253317985221867 -0.2667075955911419
0.2752894390027334 0.2774535122840119 -0.2534285152002117
0.28793253783391015 0.30229368838951115 -0.2537688577218792
0.2958548891942312 0.26880887183830265 -0.25650125384767264
0.2593139636914541 0.31064239177391056 -0.25966122389276236
0.28427966717885034 0.303720623585434 -0.26649284005601614
0.24801453236744897 0.2869926992385102 -0.2534289920373699
0.24546202305958764 0.28603193196937565 -0.2667259836240551
0.24986048821614282 0.2905382815329743 -0.2667259836240551
0.2713962424199392 0.31070438060447697 -0.2611725294633648
0.2659653056065847 0.2923618260352326 -0.2667259836240551
0.2735284197728445 0.31072941455528263 -0.2609983050866863
0.27417125586674707 0.24759361180946354 -0.2667259836240551
0.24007823352025048 0.2870968285529328 -0.2667259836240551
0.2964378822247793 0.2846831980673981 -0.2645996177240154
0.27263929728673 0.2738772932021332 -0.2667259836240551
0.25836243514225976 0.28476807508155827 -0.2667259836240551
0.23538353327916162 0.2866615954367829 -0.2667259836240551
0.26747699860737817 0.2931453290908051 -0.2667259836240551
0.2974914539258291 0.27969780597373967 -0.25825795174081534
0.2910321581761648 0.31090113553688054 -0.25892907023866385
0.24076332930729882 0.30598583850547795 -0.26657300830323905
0.2834764349858572 0.3078583780257416 -0.25563126445253104
0.2973216998975088 0.3090762201277924 -0.26258319259126395
0.2616863477628042 0.2887937131850434 -0.2534289920373699
0.2546259391705801 0.25239840182945256 -0.2667259836240551
0.2688793170850088 0.27826473149940495 -0.2667259836240551
0.27006282691166894 0.30279406938240055 -0.2666932904763958
0.29481305960820214 0.2764626446692658 -0.25538849473436087
0.27790536765263574 0.24594911966011052 -0.2667259836240551
0.2571811306874563 0.30530837211296086 -0.26660230398614615
0.2736227739255239 0.2798289361922455 -0.2667259836240551
0.24630483273671167 0.2974839511840058 -0.25341769695718497
0.26350637559102075 0.2871805730788422 -0.2667259836240551
0.2563861835400869 0.3008061352698517 -0.2534081900163433
0.2963712442319204 0.29124870929405217 -0.2646391654058239
0.2374626624982168 0.31093332204505925 -0.2598730588002941
0.24206581000493066 0.2896611991851044 -0.2534289920373699
0.2489057410161306 0.2914828959433747 -0.2667259836240551
0.26297106627629296 0.27739593419715886 -0.2534285152002117
0.29258086566136376 0.28583094510719304 -0.26647662759263724
0.23204036835835473 0.2957424822776032 -0.2534220182939312
0.2683871019284536 0.2620593014685822 -0.2667259836240551
0.25875987891362207 0.30715516242668156 -0.2660746240659496
0.2655790675084402 0.30938687953636174 -0.2579865419908306
0.25571056489155786 0.3034663501708222 -0.2542125844999096
0.2909553873936941 0.3105532232253266 -0.2585147881551525
0.29539313201115625 0.2986789647071076 -0.2559653484864971
0.28106894377873437 0.24500975045845036 -0.2534027957959911
0.24033739451573388 0.2804301086394501 -0.25342893243272513
0.29446616057560937 0.30324628982231144 -0.26556032538850516
0.23327841643498437 0.28782525691673283 -0.2667259836240551
0.290563725272875 0.2750413123099518 -0.2541075909181377
0.2434690225522329 0.29343077573463444 -0.2534289920373699
0.29309072379277246 0.29426655206367497 -0.25469994187791556
0.25857558135197656 0.29057762059852604 -0.2534289920373699
0.2981139648358633 0.2864433232276154 -0.2626244688077709
0.27627237919972436 0.24529561433479313 -0.2667259836240551
0.29697772149251 0.24492016467735295 -0.25732862592179984
0.29819449071095483 0.2867816987960053 -0.2608133220716259
0.23834147338078515 0.3057319227187348 -0.254945423607423
0.2891286838452627 0.27878621253654484 -0.26668199539621085
0.2533684003751089 0.27704349193260197 -0.2534284555955669
0.2905476916234304 0.2943898144690705 -0.2665965521379253
0.29677274111912744 0.29575708541557316 -0.2574699783368847
0.298281751910906 0.29876622590705876 -0.2602640354676983
0.27209850434468286 0.2882556620566559 -0.2534289920373699
0.2639165151517202 0.29885903033897404 -0.26677956819970816
0.2981550324361135 0.2935967746703339 -0.2617285811944744
0.2577570307652761 0.27836230430290226 -0.25342863440950125
0.250805162231188 0.2754240337340546 -0.2667259836240551
0.2783474553029348 0.30561986598655705 -0.26652574181993216
0.23631187562153833 0.30328670177146916 -0.26669263482530325
0.29811068658040063 0.2764207426039887 -0.26269846797425955
0.28115131739781396 0.2966475192038727 -0.2534193360849163
0.23918994549916284 0.31036099824592595 -0.2644411885782024
0.24371203068898217 0.31015321645423893 -0.25892379522760123
0.26995965127156274 0.24175366792366032 -0.2523570621057293
0.2579041350285818 0.30301955375358586 -0.2540563607259533
0.23114993457005517 0.3108287754981232 -0.26188325524766654
0.2599928605954458 0.3027929368941498 -0.25397717595536917
0.23038169030354516 0.2786332670180512 -0.2667259836240551
0.2920791733662893 0.29838553104087834 -0.2544409000917217
0.25314464453862207 0.28689906034156804 -0.2534289920373699
0.28442206267521875 0.27121564778968815 -0.25341218352754324
0.2785247791211416 0.2884082499472809 -0.2667259836240551
0.2777393091122915 0.30175188216850285 -0.2667467558427593
0.28382935408757226 0.2997700873343659 -0.26681491375405997
0.2978518832127859 0.30039188298866276 -0.25855192184884757
0.2319801080624868 0.29551252755805973 -0.25342326999147147
0.2920902598302175 0.2636898461310578 -0.2544417047544262
0.25361021641896264 0.2906074825255585 -0.2534289920373699
0.24917408112690942 0.29334744844123845 -0.2534289920373699
0.22994097356007592 0.3012441698043061 -0.26678323388536185
0.24395044926808374 0.2814675274817658 -0.2534289920373699
0.2383004057805349 0.2471647563903046 -0.2537710034890911
0.23426737670109765 0.24533560905143742 -0.2535074615522167
0.2724747288625051 0.30223265323326115 -0.25375875473458975
0.2760067809026052 0.30687931213066105 -0.25524398327310294
0.24632819775746362 0.2799816432921601 -0.25342887282808035
0.25295235995457666 0.28524068030998234 -0.2667259836240551
0.2649330127637197 0.2987608018843842 -0.26677840590913504
0.24628045443699853 0.2391151491133881 -0.2667259836240551
0.2892447340886404 0.3108924928633881 -0.2603366339250347
0.23666807297871606 0.27353784475013737 -0.2534275615258953
0.2508087981145193 0.29985353383705143 -0.2534106338067791
0.29096957329915063 0.2875272336928559 -0.26657250166375845
0.2527061331670095 0.2977728548972321 -0.2667664253755352
0.2617194879452993 0.2843101922003937 -0.2667259836240551
0.2557087767522146 0.3014895025222016 -0.2667719686074993
0.2862382758061697 0.31078949603721623 -0.2636536622091076
0.2529455054204275 0.2537752691237641 -0.2667259836240551
0.2648698318402578 0.3106805983512116 -0.2614226603551647
0.29628803614781396 0.2671586576430512 -0.2569629812284252
0.24418398026631372 0.3052210513083649 -0.2548044288202068
0.2526957023541738 0.2768503728835297 -0.2667259836240551
0.2929055917661001 0.30826351079627995 -0.25671898961503714
0.2687998640935232 0.283165306183548 -0.2534289920373699
0.2979768145482351 0.3042488399474335 -0.2632255816503307
0.23963626507924096 0.3069733682601166 -0.25538253426988333
0.24918945912526147 0.30062469873115544 -0.25340705752809256
0.2474302876393606 0.2658882442443085 -0.2667259836240551
0.26064255122349755 0.288348526093216 -0.2667259836240551
0.2900732386510183 0.2805815640418244 -0.25399341822107047
0.27460923079655664 0.2776710096327973 -0.2534285450025341
0.22925844077275292 0.2767798605887604 -0.2667259836240551
0.2769047248761465 0.3003396693198395 -0.2534052395864269
0.2944135296742727 0.3040238920180512 -0.2556006574674389
0.2418196428220083 0.3086843195883942 -0.25689604521234244
0.2844877469937612 0.2820747199980927 -0.2534154021783611
0.28724440220997827 0.25584498080894474 -0.2667870187803051
0.2380587089459707 0.3061303201644135 -0.2550808751626751
0.2914095151822378 0.294115275475235 -0.2543065214200756
0.2888632047574331 0.30997374686882023 -0.26411831021745413
0.28281434659169213 0.28513988885566716 -0.25342166066606253
0.2388715374867727 0.30069008502647404 -0.2533965373082897
0.24729713086293237 0.27564331922218327 -0.2667259836240551
0.2484104860226919 0.2554902139632416 -0.2534152531667492
0.2601524818341543 0.27576467427894596 -0.2534282469793102
0.2485412586133291 0.286783367726059 -0.2667259836240551
0.25074037198231713 0.3020300570456696 -0.253707345728471
0.2702933180730154 0.29034653339073185 -0.2534289920373699
0.26411094550297753 0.28228822383567814 -0.2667259836240551
0.2566647756497671 0.2850060764281464 -0.2534289920373699
0.26633598689244287 0.23957893285438542 -0.24991732478578302
0.25474562529728906 0.27573761377021794 -0.2667259836240551
0.23822500590489404 0.30490967664405827 -0.2666208708329937
0.2907385456960012 0.28977909717247013 -0.2541494929834148
0.2555731761853506 0.304153710934372 -0.2666535937829754
0.28150155429051416 0.2624911371199799 -0.25339421272714346
0.26662161235020654 0.25428393516227726 -0.25342279315431326
0.2639853585164358 0.28742262754127507 -0.2534289920373699
0.23383512381718652 0.3105492893187714 -0.263396408562257
0.27268227223561303 0.3101519051520539 -0.25883707046945303
0.22865458611653344 0.27679047021553044 -0.2667259836240551
0.2645659077565481 0.305022269818039 -0.266603674892976
0.28132715109990136 0.304721862408371 -0.2544956171556255
0.28712304715321557 0.29175207051918034 -0.25340559721429556
0.2465745437543203 0.2937542501418305 -0.2667259836240551
0.22841980342076318 0.30792149934455876 -0.2560609841390392
0.277165972034197 0.28835442695304875 -0.2534289920373699
0.2608880627553274 0.27731469306633 -0.2667259836240551
0.2959883439938833 0.25603535804435734 -0.25646778583963126
0.27798523787663476 0.292528361412735 -0.2534289920373699
0.2620595324437429 0.3099775019614411 -0.2587729060693523
0.24567439440892236 0.276806503864975 -0.2667259836240551
0.23664244298146264 0.28245338830635075 -0.2667259836240551
0.2830413210789968 0.30412939223930363 -0.2665205562158367
0.22911139611409204 0.29199013147041325 -0.2667259836240551
0.2700885761182119 0.31058695945426945 -0.26269238830049246
0.246773921291094 0.2958301607100678 -0.2667428815408489
0.2807452309529592 0.26291748914405827 -0.25339889169175833
0.24915941838429467 0.28759363326713566 -0.2667259836240551
0.2533022392194082 0.2804199162451935 -0.2667259836240551
0.26512303237126367 0.2762807312934113 -0.2667259836240551
0.2298497188489248 0.2751152220694733 -0.25342815757234305
0.2638694870869924 0.3085865083663178 -0.2653422021909496
0.26169957999394433 0.29938092860862736 -0.2534124815507671
0.2628017294804861 0.3075142804114533 -0.2658883893533489
0.29397936944172876 0.2786981168715668 -0.2660858297391674
0.2755139696996023 0.28957590493843083 -0.2667259836240551
0.28392096642659204 0.2937258187262726 -0.26675536871392935
0.26580783013508813 0.2953684631316376 -0.25342568397958487
0.2754453647534658 0.2726390067069245 -0.2534267866655132
0.26481672410176293 0.25206926498100285 -0.25347664595086783
0.29760488156483667 0.27494320306465153 -0.26389419675309866
0.2762935984532644 0.28250691327735905 -0.2534289920373699
0.28804542903111474 0.30496665868446354 -0.25460788250405997
0.282237731258135 0.2941923442809296 -0.25342380643327445
0.2599904764096548 0.2915761176078034 -0.2667259836240551
0.23294111375020043 0.30804678830787663 -0.2561023795648357
0.2675907838742544 0.2982266846625519 -0.2667719090028545
0.2293306816022207 0.3042188588111115 -0.25455560923059195
0.24646391753361718 0.25133803519889836 -0.2667259836240551
0.2710183489720632 0.25307896766349797 -0.2667259836240551
0.2982693541447927 0.28551533851310734 -0.2591312193914196
0.25432129983113305 0.2891494933097077 -0.2534289920373699
0.25043275241063134 0.24863776597663884 -0.2536825799985668
0.27461697940037744 0.30701103839561467 -0.2660936081453106
0.2715443003575613 0.28943583402320866 -0.2667259836240551
0.25269296054051416 0.2442435327498627 -0.2667259836240551
0.2561621296803762 0.28531816634819035 -0.2534289920373699
0.296539329330187 0.3096924129454804 -0.25991600394685477
0.2823496687810232 0.2485044303862763 -0.2536874973817608
0.2570144761006643 0.24205347928688054 -0.25245332360704154
0.2557973492543508 0.28103289041206364 -0.2667259836240551
0.24084433201954858 0.2792969051329804 -0.2667259836240551
0.292667053977709 0.2869768444029999 -0.25460084915597647
0.29236730221913354 0.30719831618949894 -0.2557323837323925
0.23756369237111108 0.310786635014267 -0.2613630557103893
0.2791242826382925 0.27996787461921696 -0.2667259836240551
0.26451804522679345 0.2759382430045319 -0.2534282767816326
0.26877947930501 0.3006748858420563 -0.26680159211595267
0.291532062331896 0.3106798830954743 -0.26189532518823355
0.25281121615574853 0.28139475021049504 -0.2667259836240551
0.2619461644093801 0.31059977445289616 -0.2623828017755291
0.27352311495945947 0.28674396905586247 -0.2534289920373699
0.27385767583058374 0.29587534103080754 -0.2667434179826519
0.24756934527562158 0.26397284898445134 -0.253404554133012
0.25744082812474267 0.2792641821829987 -0.2534287536187908
0.23628499392674462 0.29305002126380925 -0.2534289920373699
0.26754244450734155 0.3107855025260163 -0.2600854897542736
0.2325279939572622 0.29825809631034855 -0.26677229643304556
0.27679213170216577 0.2766017023055268 -0.2667259836240551
0.2854909527699758 0.2990870181052399 -0.2668203973813793
0.28727301243947045 0.27963122758552555 -0.25340485215623587
0.24008479003117578 0.2852306071250153 -0.2534289920373699
0.27457191828892724 0.27639105949089054 -0.25342836618859976
0.2807462442319204 0.30832144651100163 -0.2653270030065319
0.2727278697888662 0.3084845844237519 -0.25665241122682303
0.2288317311208059 0.29217126998588566 -0.2534289920373699
0.29592915658162133 0.30017438563987736 -0.26484706640680045
0.26788493279622094 0.3071775737731171 -0.26604038119752615
0.2976426113049795 0.30718597802803044 -0.2624651157899639
0.26954086903737084 0.31041380796119694 -0.2643610799356243
0.28023364428685205 0.2841484847991181 -0.2534289920373699
0.2657711136739065 0.3047284785239411 -0.25465613246400565
0.25858040932820336 0.29419323835060124 -0.2667259836240551
0.2879433262746145 0.28521570596382145 -0.2667525374933025
0.22872408513234155 0.24459108743354802 -0.2532683575197002
0.2971434224049856 0.30746594104454045 -0.2590878570123455
0.26155348900959985 0.2943147126166535 -0.2667259836240551
0.2737664807240774 0.28012147578880314 -0.25342890263040274
0.2390446889798452 0.2767488661734772 -0.25342839599092215
0.28034409169362084 0.30456969175025944 -0.2544523441835186
0.2362358796994497 0.277627557846756 -0.2534285152002117
0.2735215652386953 0.28907182845756535 -0.2667259836240551
0.249927841464739 0.29684069785758976 -0.26675513029535025
0.2653300393025686 0.2945144477812958 -0.2667269372983715
0.29078956727192895 0.26601001653358464 -0.254149582390382
0.24458601359532373 0.29983463916465763 -0.2534076535745403
0.29625847224400537 0.2748543921439362 -0.2569367849870464
0.24863871220753686 0.3104940954177094 -0.26366823554475516
0.27793725613759057 0.29194751414939885 -0.2667259836240551
0.29716648940251367 0.26985904607460026 -0.257907088999345
0.23243495110676782 0.28023436698600773 -0.25342890263040274
0.28063108805821435 0.3088736835448456 -0.25699099541146964
0.2610008943478872 0.2846660915343476 -0.2534289920373699
0.27744253758595483 0.2829842272727204 -0.2667259836240551
0.247392498294573 0.3098176423041535 -0.2585179173990032
0.291769825259905 0.29202374849006657 -0.266523655657365
0.23898985270665185 0.30760160121604924 -0.25560098529298514
0.2936644184987356 0.30860671434089665 -0.2645490729852459
0.23411913994954126 0.30893775853797917 -0.25726621985872
0.24686720256016748 0.2773631516425324 -0.2667259836240551
0.24723645333455102 0.2754259410826874 -0.2534282171769878
0.2850716936986257 0.31073638829872136 -0.2636248135610363
0.23103752021000878 0.28318366441413884 -0.2534289920373699
0.24495341662571923 0.2769116464583588 -0.2667259836240551
0.24736502055333154 0.2878992262808991 -0.2667259836240551
0.29809393767521875 0.2778764072386933 -0.2630749905153057
0.2927411425511648 0.2759319249121857 -0.2664670908494732
0.257790230552416 0.28880593213722233 -0.2534289920373699
0.29562398080037133 0.2909604016272736 -0.2562581861062786
0.28753872994587915 0.2433399263350678 -0.266778942350938
0.24644865874455468 0.2752096358267975 -0.25342818737466544
0.25205376032994287 0.30659714374229435 -0.25530525684793204
0.24390097741292016 0.27528616819068913 -0.2667259836240551
0.26870235089467065 0.3016411367385102 -0.2535634601159832
0.24701692942784326 0.3038003746001435 -0.25431877017457694
0.26971402053044335 0.29729512366935734 -0.25341769695718497
0.2593878734509756 0.29444459113761906 -0.26672607303102225
0.23252882842228906 0.30147048864051823 -0.26677333951432913
0.2887367833058645 0.2809642258612824 -0.2667053306146404
0.2517678964536001 0.28050777349159245 -0.25342893243272513
0.28510942343876855 0.30830732021018986 -0.26524108291108817
0.23191430453465478 0.31027480992958073 -0.25902616620500296
0.2434007156293203 0.3107123080222321 -0.2612095737500927
0.286038898269396 0.28874442014381413 -0.2667755448861858
0.2305857766072561 0.2818075719802094 -0.2534289920373699
0.2540874112050344 0.2667284909217072 -0.2534193062825939
0.24791380051777856 0.29751893911048893 -0.26676332593400687
0.2411419380109121 0.27939608726188664 -0.2667259836240551
0.2972002852361013 0.2935052219359589 -0.257941063646867
0.2869706380765249 0.294909268948288 -0.25340488195855826
0.2982005703847219 0.2810274663893891 -0.2606764102025768
0.24014999751256005 0.2920144501654816 -0.2667259836240551
0.2642759311597158 0.3104816976515961 -0.2639134490533611
0.2563084590832998 0.30818983945533757 -0.2655495071454784
0.2702070105473806 0.3072409931151581 -0.2554734313531658
0.2364635694424917 0.2773797813384247 -0.2667259836240551
0.2429889667432119 0.2802606526343537 -0.25342890263040274
0.26510807160542504 0.3103671971289826 -0.2592969203038952
0.2393331754605581 0.2761365476576996 -0.2667259836240551
0.23949321393178002 0.27786001596138005 -0.2534285748048565
0.27804943207905786 0.30253616008445744 -0.26670083046395987
0.2934708226125051 0.2822490635840607 -0.26639327049691885
0.2591861117284109 0.29423484239265446 -0.2534289920373699
0.252469562331896 0.2962292734114838 -0.2534231507821819
0.2889307964246084 0.30754151973411564 -0.26556807399232596
