ply
format ascii 1.0
element vertex 112
property float x
property float y
property float z
element face 0
property list uchar int vertex_indices
end_header
-0.01679486047127271 0.3113845419550338 -0.22104475537730886
-0.05228370438911939 0.30701671358589316 -0.20298135916187002
-0.05096316348412061 0.31186036583427573 -0.21184352675868703
-0.05462116013863111 0.3079951238298812 -0.21696507076217367
-0.020318031419301275 0.30882070776466514 -0.21183403471900655
-0.07021352659561658 0.3135410380030074 -0.20637411514713003
-0.09078431140282178 0.3034043740892806 -0.20838286618186666
-0.04837107669212842 0.30894253965858604 -0.20561139921142293
-0.04276844869949842 0.3099661898279586 -0.2195335392136736
-0.021765947450185064 0.30800853487495566 -0.22560696939422323
-0.018971622098469976 0.30462817665580894 -0.22723036149932577
-0.024531424153828862 0.312280638184587 -0.22026092449619009
-0.03970977674820447 0.3120859098101058 -0.22081606725646688
-0.03442755352356458 0.31317548271659995 -0.21864158550693227
-0.04001992951729322 0.31083969589714194 -0.20991920570327474
-0.06628781567909742 0.31123541113380576 -0.20179063717319204
-0.02401214848854566 0.31314836260322715 -0.21805166343642904
-0.05581679951050306 0.31002662893776084 -0.2036798957963152
-0.06053653370239759 0.31206308123115684 -0.21250621119929983
-0.06401515017845655 0.3087197374964156 -0.20077458659602834
-0.025593847144627813 0.3131981324816146 -0.2176579449553652
-0.07373785983421827 0.3108141851091781 -0.21196315328075124
-0.04262945066788221 0.3108823728228011 -0.2182176623721285
-0.04340285073616529 0.3096558880472579 -0.2190179143328829
-0.033242851604008916 0.3043652605677047 -0.22590973118735982
-0.10046994696953321 0.3054858874941268 -0.20218547324134542
-0.02765354524948621 0.3096543979311385 -0.2244345311303301
-0.025268167365575078 0.3109294008875289 -0.2231363270659609
-0.019062578786397222 0.3080484699869552 -0.2257719848532839
-0.046234041560673955 0.3038564157152572 -0.22226279119445516
-0.04383343469002271 0.3033816647196212 -0.204262635507123
-0.04022407542564893 0.3112329077387252 -0.2154393259663744
-0.016677767146611455 0.3109590243959823 -0.22246750334693624
-0.06368306290009046 0.30337230679039145 -0.21679247061206533
-0.06579753767349744 0.3139903974199691 -0.20730235318137838
-0.0528041721472981 0.30856858011726523 -0.20341030398799612
-0.08369994174339795 0.3056571316385665 -0.19367947319938375
-0.08981138478615308 0.3061587047243514 -0.20779728034927084
-0.08744364987709546 0.3100279998445907 -0.19488366583778097
-0.026701361049199346 0.3073525857592025 -0.20984894672824575
-0.05473431955673719 0.31202642437461997 -0.21244973579837514
-0.05893072496750379 0.3054269981050887 -0.20086686948730184
-0.0761452914366963 0.3069990110063949 -0.1970955942053957
-0.06912302981712842 0.3064765166902938 -0.2148995015998049
-0.04681268345215345 0.3061887454653182 -0.2040987078328295
-0.07024189840652967 0.3075608443880477 -0.214101440109746
-0.07878148566582227 0.30974177834037925 -0.1981259647984667
-0.020931720841908696 0.30611871000770713 -0.20979664365245534
-0.07147508870461011 0.31116030928138877 -0.20125845710231496
-0.07245188962318921 0.30861936327461387 -0.19925855735732748
-0.10846623789169813 0.3070088457727828 -0.19883061090900137
-0.08062678586342359 0.30540434834007407 -0.19470911363555624
-0.041006624806905034 0.310957236256639 -0.21354205051852895
-0.03310963522293592 0.309184296097795 -0.20972183982326223
-0.01744595180847669 0.3042605352068343 -0.20860915521575643
-0.020599812377476934 0.304712278809587 -0.20876791218711568
-0.08653995405533338 0.311881525483171 -0.20437531808807088
-0.02013137947418714 0.3084376287126937 -0.22553478816940023
-0.04028102766373182 0.3107818793917098 -0.22168026009990408
-0.06405904899933362 0.3052753638887801 -0.21627897659732534
-0.06826862703659559 0.3128132652902999 -0.2097650531907244
-0.035285353768849614 0.31107894894127036 -0.2223961714883013
-0.03788298379280591 0.31229744669441367 -0.21595834831191732
-0.05370357643463636 0.3100002836847701 -0.21563587228252126
-0.07281968008377576 0.31288341995720054 -0.20968454221679403
-0.022606104720616582 0.31051026102546836 -0.2241400245804949
-0.030629634965443853 0.31106279608253623 -0.2229411367554827
-0.04347419749596143 0.3056854438448348 -0.2232051257271929
-0.033509105552220586 0.311517698731462 -0.2219076220173998
-0.07882276188232923 0.3110672068262496 -0.20700406173659994
-0.051459282744908574 0.30955968615059043 -0.21652305761768056
-0.01756516109802747 0.31144492146019126 -0.22082727292968465
-0.020115405429387334 0.31049595591072227 -0.2137276891846819
-0.02891099463799024 0.3044611048365035 -0.20797552803947164
-0.02838960300781751 0.3072789740229049 -0.20939246455623342
-0.028196573365712407 0.31126980301384116 -0.21177280584766103
-0.03575015078880811 0.31183419939521934 -0.21226679424239828
-0.08153486262657667 0.31143937822822715 -0.20397434274150564
-0.032317012656712774 0.31282935854438926 -0.21517106036140157
-0.03238895546295667 0.31006340500358726 -0.2103399846930666
-0.08102595816948438 0.305500431027452 -0.21210095921947195
-0.04283273230888868 0.3054836821222701 -0.22343579570247366
-0.05929857503273511 0.31039570089821006 -0.20280743280841543
-0.030788004506612066 0.30692200180534507 -0.2252126995701952
-0.02415269624092603 0.3110488485956588 -0.21341197828246786
-0.06734076153137708 0.3121712040567794 -0.211350015201108
-0.08392059813835645 0.31175981279853965 -0.20248526970340444
-0.029241830218816045 0.3123291563654342 -0.21422632674171163
-0.060975074876332525 0.30764744993690635 -0.21574542561961843
-0.0494530500064137 0.3087503146791854 -0.2050028506894274
-0.036573797572636846 0.30742846247200156 -0.2080967042823
-0.03197154413559461 0.30969165083412314 -0.2236701611657305
-0.03256160031654859 0.31090865847114707 -0.22294583062125875
-0.0396283270011189 0.3046156596804061 -0.2056005511660738
-0.04383096109726453 0.31035046097282554 -0.20879197756244375
-0.07287943374016309 0.31104461666587974 -0.20078723768188192
-0.04920816432335401 0.31201343056205894 -0.2088768545766039
-0.041942685950780156 0.31100193974022056 -0.21284740308715536
-0.016451478112721685 0.3095284533167281 -0.21251804272128774
-0.0797005892882588 0.31136236902717734 -0.2001497958083315
-0.04198095213272596 0.3051870894098678 -0.22374414543105794
-0.05654528747894788 0.31279448982719565 -0.2091110561270876
-0.029166042912984136 0.30999241587165977 -0.2106161032099886
-0.047589212764287236 0.3078706693315902 -0.21869834402991964
-0.062679022658849 0.31352595802787925 -0.2087646935362978
-0.048869937766576055 0.30659405704979087 -0.21929146985007955
-0.04935890446999097 0.30453418013099814 -0.2205418560881777
-0.06633523117401624 0.31273196455482627 -0.20489389339877798
-0.01679486047127271 0.3113845419550338 -0.22104475537730886
-0.05228370438911939 0.30701671358589316 -0.20298135916187002
-0.05096316348412061 0.31186036583427573 -0.21184352675868703
-0.05462116013863111 0.3079951238298812 -0.21696507076217367
