ply
format ascii 1.0
element vertex 212
property float x
property float y
property float z
element face 0
property list uchar int vertex_indices
end_header
-0.011875242103123906 0.3042235803270736 -0.20892511943771078
-0.013006866086507085 0.30985073563102866 -0.21298066417171194
-0.0081550181994679 0.30625353571418906 -0.2105381254334612
-0.008394271243596318 0.30922268148903037 -0.2126302782673998
-0.004137188304448369 0.3046120237970748 -0.20953193942500783
-0.00459545861580396 0.3035349678659835 -0.20875272790385915
-0.008766323436284307 0.3109071683550277 -0.2225482527394457
-0.014623791087651494 0.31181286093238975 -0.21793050209476186
-0.013533383716130498 0.3116947841310897 -0.21793421248389913
-0.010870218385243657 0.31041095968727256 -0.21506326536132528
-0.00798589001991773 0.3038974833155074 -0.22767972091628744
-0.008716911185765508 0.30839244839195395 -0.22591792682601644
-0.014293551553273443 0.308904869523088 -0.2256111566205187
-0.008705735314870122 0.30927888866905356 -0.2255515817780657
0.0008059440960643265 0.30935810324196006 -0.21273376683189107
0.0017939506878612015 0.3084879946375289 -0.21211912373496725
0.004021733890986201 0.3058317136431136 -0.21055837611152364
0.0013844965805766556 0.30478457924369956 -0.20977338293983175
0.0003058313240764114 0.30351231810096885 -0.20893517772151662
-0.0029112101683857468 0.3034712505007186 -0.22769806424571706
-0.00026538978912854467 0.3109054398203292 -0.22291067878200246
-0.00860685120918775 0.3118635844850936 -0.21995990613891317
-0.006186157573247197 0.3109359573984542 -0.2224789623398943
-0.0033629537711384323 0.31172303673271323 -0.21779810527755453
-0.0016828776488544968 0.31181572195533896 -0.21753205994559957
0.0018544195999858353 0.31058679338935996 -0.2138003472466631
-0.003331005681538823 0.304704589810411 -0.22736611107780172
0.0012525616993663284 0.308222336735765 -0.22605276743365957
-0.002641707767033818 0.30881248232368613 -0.2258054081578417
-0.003556251634145024 0.3093468975687423 -0.22558361927463247
0.008093297373270747 0.30925296064857627 -0.2126232896227999
0.007575839649653193 0.30499170538429404 -0.21014764050437643
0.012697636972880122 0.30480275866035605 -0.21060485283328725
0.010563224445795771 0.30665467497352744 -0.21122463683082296
0.0070136784424540966 0.31107728001121665 -0.22346422711803152
0.0017155705799815628 0.31168709513191367 -0.2213040802855654
-0.00013560067513013159 0.31170187708381797 -0.22070229689075185
-0.00027579079964185034 0.31232361313347007 -0.2182385090966387
0.003964245211100337 0.31239174124244834 -0.21965760628177358
0.007054716240381953 0.31156049486641074 -0.21653770545913412
0.009761482368921992 0.30390129801277305 -0.22767073551608755
0.009736865650629756 0.30405704494957114 -0.22761332134200765
0.005819141756510493 0.30736242052559043 -0.22638492921783163
0.002944379936671016 0.3095263075495162 -0.22557566205455495
0.013329505812144038 0.3106038999224105 -0.2135664139170809
0.017599820982432124 0.30909387585167075 -0.21368113795711233
0.015376537929987666 0.3036207389498153 -0.2105083678145571
0.018581896912073848 0.30326913115028525 -0.22763676086856557
0.01757413138053393 0.3116789889002242 -0.22238366941405965
0.015940993916010615 0.31184308048729087 -0.22206405440761282
0.012050777565455195 0.3123933505678573 -0.22114651540710165
0.014103561531519648 0.3127805423403182 -0.2204660389800234
0.010373979698633906 0.3119374346399703 -0.21753116587592794
0.013130575310206172 0.311673743691484 -0.2150005016703768
0.015767067562556025 0.31100414511207725 -0.21506652871562673
0.018510311733698603 0.30467711206916953 -0.22733866313888265
0.012472957264399287 0.3051644396448531 -0.22717713455154134
0.012076914202189204 0.30924020525459434 -0.2256673488993807
0.020850032459711787 0.3069543671274581 -0.21171175579024984
0.02472430456778979 0.3118778895998397 -0.21902046243144704
0.023093521486735102 0.3113999795580306 -0.22068976501418783
0.018723875175928828 0.31221704002861167 -0.22103290895415975
0.019650936018442866 0.3109749984407821 -0.22309511045409872
0.017723023783182856 0.3119621109629073 -0.21741149465038015
0.022013991962885615 0.30988763090614463 -0.21420972684814168
0.02343595017096972 0.304301483597795 -0.2272523556132479
0.025408804308390376 0.30778382536415244 -0.22509965936137868
0.019471496235346553 0.30967877623085166 -0.22527409235431387
0.02020484198234057 0.3066673111582198 -0.22644931713535024
0.031872331987833735 0.30571465012077476 -0.20844826737834646
0.027673095356440303 0.3053027820253768 -0.20959002415134145
0.02217492450377917 0.3060226273203292 -0.21116051713420583
0.034515976797556636 0.31145922657493735 -0.2213440004964037
0.029903918396448848 0.3128675651216903 -0.21752091387702657
0.028148770224070307 0.3104746174478927 -0.2230368022103472
0.034005075584864375 0.30875794407371665 -0.224208063282506
0.034626036774134394 0.3045786451960006 -0.22596993187858297
0.03291466821334338 0.310235960450212 -0.22338595131828023
0.0297514497151134 0.30943660255912925 -0.2239385012765093
0.02948659647605395 0.3128127288484969 -0.21703443566753103
0.026443928371882197 0.3121675085688033 -0.21572156886054708
0.028090387474512812 0.3106935453081527 -0.2113873128075762
0.029444873224711177 0.3085013460779586 -0.21025673190547658
0.02362385381362414 0.3094960283899703 -0.21274282673789693
0.02420988668105578 0.30708847757820273 -0.210964894690053
0.04701885570189929 0.3044614028597274 -0.2220040027280016
0.0389546750893352 0.3042269777918258 -0.22463542858554555
0.03418502200744128 0.3040718865061202 -0.20788251499129964
0.04414197791717028 0.30711094852928306 -0.2214927140851183
0.04113224137923693 0.3074063491487899 -0.2231399331469698
0.0391779838909862 0.3103672694826522 -0.22217022518111898
0.039140939604258296 0.31155441519264365 -0.2201279018302126
0.038146555315470454 0.30584792610649253 -0.22480182985259725
0.03665241588256335 0.30917165991310264 -0.22369848827316
0.040481269251322505 0.3122167420053878 -0.21399960557414724
0.04013603914878344 0.31218240972999717 -0.21192880610419942
0.03556928027770495 0.3125936221743026 -0.2128717515845461
0.036470413099741694 0.3110706042910018 -0.2104918871302767
0.03506252158782458 0.3121965956354537 -0.21115904191924764
0.039442360292887446 0.3117308449411788 -0.21056917945338918
0.03567725409171557 0.30686347004417563 -0.20824097732497884
0.04130220402381396 0.30446539637092734 -0.20646832028819753
0.04547175754210925 0.30547974821571494 -0.20535149315787984
0.05117925990722155 0.3034429382944503 -0.2213265959401293
0.05120542634627795 0.3042974304819503 -0.22119574884368612
0.04711204756400561 0.31152580496315146 -0.21667148808433248
0.04897430528304553 0.3115005921984115 -0.2150559190888567
0.04481071222922778 0.311823410954515 -0.21014632920219137
0.04151400912902331 0.31208358522895957 -0.21061798075629903
0.04057469953200793 0.31131534096244956 -0.21016963461829855
0.043995827328181025 0.3095702361727157 -0.20870678762389852
0.04454395164153552 0.30879281279091025 -0.20814642945720388
0.04778215278289294 0.309903724160234 -0.2081776026864214
0.05386862147948718 0.3064500522280135 -0.21942562500430776
0.048231691013788935 0.30991665836815024 -0.21822560469104482
0.047707468162989375 0.31078611132148887 -0.21777095536185934
0.046487420689081904 0.3100167345667281 -0.21874643007709219
0.054123252521967646 0.3054910134935775 -0.2027716700215502
0.05627739418647265 0.3048810791635909 -0.22010289768172933
0.05988702167174792 0.3109441828394332 -0.2119548086304827
0.058951258551096675 0.3110340070391097 -0.21145444253875448
0.056227832924341914 0.3112515043878951 -0.20777939895583822
0.04964447010657763 0.311515314545671 -0.2107164178271456
0.052212834249949214 0.309983594384233 -0.207288718618886
0.04981374729773974 0.3069022726679244 -0.20512353519393636
0.055196165930247065 0.30710808750633384 -0.20396868030025198
0.055555909763788935 0.30821494575981284 -0.20494774619533254
0.05746239412925219 0.306050283875505 -0.21900682786895467
0.05679428566596484 0.3067668509149947 -0.218650019564168
0.0568280516972301 0.30874441381935264 -0.21700128058387472
0.06293091167113757 0.3044187259340682 -0.21869977454139425
0.06780076016089892 0.3109087776804366 -0.2138110462804003
0.06712478388450122 0.3110548686647811 -0.21342243889762594
0.0645339785923717 0.3116434645319381 -0.21164675692512228
0.062480300556635615 0.31156413074974204 -0.20949628094627096
0.06707692135474658 0.3066721987390914 -0.21680960694743825
0.06927978981635546 0.30912779089454795 -0.21525274852706625
0.06523931015632128 0.31005225893501426 -0.21492414812041952
0.05674406875274157 0.3050647210741439 -0.20176679531528188
0.06227052200934863 0.3118352722788253 -0.20696400741531087
0.06366732705733752 0.31209842678550864 -0.20731662849380209
0.05870819080970263 0.31104700085167075 -0.20654528478576376
0.06047412742278552 0.3064152431154647 -0.20056971053077413
0.06193724263808703 0.30620078560356284 -0.20072083810760213
0.055427491556620356 0.3061568569803634 -0.20275244752361013
0.056774556528544184 0.3057020139360824 -0.20182358364059164
0.07938408840796923 0.30579052683357383 -0.21326009074641897
0.07621029008529162 0.30687962290290977 -0.21374676267101003
0.07655346382758593 0.3106625508928695 -0.21170955041839315
0.07499063004157519 0.31183324572090293 -0.20993571618987752
0.07063066948554492 0.31180779453758384 -0.21099430958224966
0.07509398449561572 0.3058787417078414 -0.21504805127574636
0.0692072807659862 0.30516122099403525 -0.19926839212371542
0.07329714287421679 0.30627946373466636 -0.1989474807162447
0.07377195347449755 0.31183247086052085 -0.2034263078351183
0.06953927863738513 0.31288777109626914 -0.2068571511883898
0.06888306130073046 0.3126942944193282 -0.20594333747817709
0.06609922636649584 0.3090641927385726 -0.20126908163024618
0.06967300165793872 0.31177894588951255 -0.202331802644269
0.07276445616385913 0.30907331224922324 -0.20056148508979513
0.07520523656508898 0.30433170315269614 -0.19778340200378133
0.08727976668975329 0.30484656807426597 -0.21119516233398153
0.07970070828101611 0.3115908932352462 -0.20913558343841268
0.08438968647620654 0.31191865917686606 -0.20075597504569723
0.0861927269806621 0.3112791013384261 -0.20725885669185354
0.07388874877593493 0.3117679786348739 -0.2026093516726656
0.07803395379683947 0.3117032479906478 -0.20769142250014974
0.08271464694640612 0.3119714092874923 -0.2008362028975649
0.07959797967574572 0.3118216824198165 -0.2006184820313616
0.0767180024494884 0.3093986344004073 -0.199939361609952
0.07664707292220568 0.30723254200462485 -0.19856985548927023
0.08083671320579028 0.3067387771273055 -0.1964574519772692
0.08468213666579699 0.306499285664598 -0.21121791640712453
0.08614900697371936 0.3096753191614547 -0.20902978519393636
0.08171501744887805 0.30747793432716514 -0.2115134809394045
0.09352612484595751 0.3044369649553695 -0.2079915914912386
0.09039247025153613 0.304335458245317 -0.20969220141364767
0.08078733075759387 0.3050876688623824 -0.19522162417365743
0.0938642619957683 0.30638585802559043 -0.20673065523101522
0.09675329912803149 0.3057881426477828 -0.20551685134364797
0.09269583214423632 0.30876253363136436 -0.2071518961568041
0.09431281675002551 0.3112321328783431 -0.203271544374959
0.0929967163910625 0.31158982035164023 -0.20283254126502706
0.08779680718085742 0.31147162434105063 -0.20451000968410207
0.0907020567764995 0.3061824869776168 -0.20930354932738973
0.09010687459609484 0.30962894674781943 -0.20829015115691854
0.09523269523284411 0.31163970943931724 -0.2003375057358904
0.09235176433227038 0.31159464832786704 -0.19692138472987844
0.0933341084828136 0.3114414643907943 -0.19426415006114675
0.08836683620116687 0.31078634974006797 -0.19416556397868825
0.09000754345557666 0.3100989293718734 -0.19244258741332723
0.08400577295920825 0.30865375515464927 -0.19517318049861623
0.08261173952720141 0.306113166775743 -0.19454262296153738
0.10025089968345141 0.3117345404291549 -0.19924340287639333
0.10194128740928149 0.31310693737510825 -0.193982592620389
0.10017734755179858 0.3126219343805709 -0.19640447834922506
0.1006142197956798 0.31294350143913413 -0.19439694920970632
0.09739351261756396 0.3121547531748214 -0.19796640316440298
0.10376781214377856 0.3084490728044906 -0.20067614952518179
0.09862959374091601 0.30846731182579185 -0.20269932488395406
0.10204184044501757 0.30846486803535605 -0.20150069037868215
0.09706133593223071 0.31100897308830405 -0.2015799943585558
0.11104550946853137 0.3037015628481307 -0.19802152255965902
0.10765227664611315 0.30406521078590537 -0.2001609716792269
0.11423012603423571 0.30801753517631675 -0.19395828882648183
0.110029637705302 0.3087815475130477 -0.19707096258594228
0.10890564311645007 0.3104846906328597 -0.19678600768043233
0.10650634754798388 0.31157092567924644 -0.19645053783847524
0.1092744468559978 0.31208924767021323 -0.19290434459640218
0.1063832639565227 0.3052218985224166 -0.20094699303104116
0.10622468579909777 0.308943612542192 -0.19948411623431875
0.11715966452262377 0.3065021466875472 -0.19373547176315023
