ply
format ascii 1.0
element vertex 354
property float x
property float y
property float z
element face 0
property list uchar int vertex_indices
end_header
-0.08710443612426813 -0.06870615111468734 -0.027171813007005125
-0.08009093638748224 -0.06771751867412032 -0.02867459511340466
-0.08316126104682978 -0.06729894505618514 -0.028729252572663695
-0.04526203509658869 -0.0659661851990074 -0.030371747966416746
-0.06024390097946222 -0.06568479167102279 -0.030539117808946043
-0.0652655624994665 -0.06468852983592452 -0.031247191186555296
-0.07135951157898004 -0.07013070212481917 -0.027045182939179808
-0.09246101614326532 -0.0676894746887535 -0.027631633039124876
-0.06059011455864008 -0.0685304068195671 -0.028506211991914183
-0.09521948930114801 -0.06567996369479598 -0.028997086043961912
-0.06901952263206537 -0.06721683965800704 -0.02953001117289868
-0.09007435675949152 -0.06989875064967574 -0.0257525668102583
-0.05856090422958429 -0.0674276612865776 -0.029411725755341917
-0.11213697131961878 -0.0657472573387474 -0.02732550358355847
-0.07254340883583124 -0.07185726987002791 -0.024989448543198973
-0.09213280316680963 -0.06905358658908309 -0.02639433002055493
-0.056307193005982 -0.06946304069636763 -0.027795247789033323
-0.05230092641204889 -0.0665845237839073 -0.029927425141938597
-0.05201956268638666 -0.06985023246882857 -0.027385942693360716
-0.06516000267356928 -0.07078006492732467 -0.026509366984971434
-0.05844640370697077 -0.06583550201533736 -0.030455462690003782
-0.04468553897232111 -0.07117920743106307 -0.02610116457522717
-0.056460347140732364 -0.06767367945788802 -0.02919908618510571
-0.06910037633270319 -0.07086598502276839 -0.026279322858460814
-0.07432406779617365 -0.0685851238834709 -0.028289429898866087
-0.06451528903335627 -0.0680542253124565 -0.028880171533234984
-0.10239824291557367 -0.06463783608554305 -0.02915798878253308
-0.048570241893234806 -0.0724049173462242 -0.02441068744242993
-0.04251041647285517 -0.06610890852092208 -0.030326657052644163
-0.06401520606369074 -0.07096612082599105 -0.02627357101023999
-0.05745258566230829 -0.07201429830668868 -0.02497538184703198
-0.043935712541046695 -0.06436639653323592 -0.03147863602221814
-0.051405783856812076 -0.07253586875079573 -0.024266056771882445
-0.04324909683555658 -0.06747668610690535 -0.029322944636948973
-0.05808817979187067 -0.06561213360904158 -0.0306029245811781
-0.06029888626426752 -0.07029002534030379 -0.027055285926469236
-0.10229172941536005 -0.06894754992602767 -0.025584630723603636
-0.07257336016983088 -0.07208728419421614 -0.02469893550456372
-0.07318195339531 -0.06894296036837996 -0.028033666368134886
-0.04622715350479181 -0.06456583367465438 -0.031310997958787355
-0.06715455290168817 -0.06897210703967513 -0.02809452271045056
-0.04367506142944391 -0.06508767233966292 -0.031029813047059446
-0.07071652647346552 -0.06966259704707564 -0.027458660359986693
-0.09344055887550409 -0.07127907501338424 -0.02409245824397412
-0.0911957883486181 -0.06625911222575606 -0.02889429783404675
-0.07139396306366022 -0.06587645040629805 -0.03045018767894116
-0.05463590856880243 -0.06862240658877791 -0.028413616176255613
-0.05668979522079523 -0.07010215149997176 -0.027302019353516966
-0.09907766815513666 -0.06602668391345443 -0.028408549781449705
-0.0478557610163122 -0.06871154533503951 -0.028267584796555906
-0.059433993066254215 -0.06824162231563033 -0.02876084303439465
-0.05654033657402094 -0.07251691447375716 -0.024311862941392332
-0.04466461774200495 -0.07212572919009627 -0.02482744311869946
-0.07850917812675531 -0.06550037490008773 -0.03048627829135266
-0.06263672944397028 -0.07234647499202193 -0.024489753003724486
-0.050646629298630313 -0.06676074491618575 -0.029842726941712767
-0.06309410568565424 -0.06719037519572676 -0.02952071284831372
-0.057172443831863956 -0.07135888563273848 -0.02580969786227551
-0.11485191818565424 -0.0680467151272148 -0.02509319042743054
-0.05804732080787714 -0.07191195713160933 -0.025119118447907835
-0.08101474877685602 -0.06977912412761153 -0.02662100648463574
-0.05224588152259882 -0.07190206276057662 -0.025044374223359495
-0.0846103095659643 -0.07106640564082564 -0.02505814289630261
-0.10171085234970148 -0.070570465193972 -0.023953132386811644
-0.06219449278205927 -0.06916772948382796 -0.02796160435260144
-0.05091386672348078 -0.06604459510920943 -0.03030627226413098
-0.07867055770248468 -0.06714224444507064 -0.029254369493134886
-0.043208714688721256 -0.07242509351848067 -0.02455773210109082
-0.06969412800163324 -0.07129421459315718 -0.025741659160264403
-0.07648130890220697 -0.06432485209582747 -0.031389348264344606
-0.09266915556282099 -0.06491300092814864 -0.029788009877808958
-0.05906822916359003 -0.07174834238170089 -0.02532466506541577
-0.08477505680412348 -0.067491110430941 -0.02846383308947888
-0.058878328765335636 -0.06487300621150435 -0.031081937308915526
-0.12483372923225458 -0.0657198690044731 -0.02592789387286511
-0.05120321747154291 -0.0649811588394493 -0.03099497413218823
-0.05174156662315424 -0.07072868572352828 -0.026492498870499998
-0.04598533746093805 -0.06500136481402816 -0.031040273662217528
-0.111113380754891 -0.06877296792148055 -0.024636767860062986
-0.06571524974197443 -0.06573679672358931 -0.03054665779651013
-0.05294975277275141 -0.06547689067004622 -0.030661515946992308
-0.06346177693695124 -0.065809723006472 -0.030469916816361815
-0.052504565680924015 -0.0697193704712242 -0.02749579405368176
-0.060807552302780704 -0.0680350922214836 -0.028914712424882322
-0.09347271558136042 -0.06747611986277999 -0.027726315017350584
-0.043683435882034855 -0.0717342756855339 -0.025363139863618284
-0.054002102578583316 -0.06769463049052657 -0.029134623761781126
-0.04963814851135309 -0.07190620528338851 -0.025030158515580565
-0.10832577582687433 -0.064233955012545 -0.028850667234071165
-0.09300014015525873 -0.06988876687167586 -0.025511704440720945
-0.061836090053024845 -0.06807034836886824 -0.028872273917802244
-0.11035489674896296 -0.06516143308757247 -0.02786656474650708
-0.06037413712829645 -0.06445803867457808 -0.03134845947802869
-0.06313082214683588 -0.0690492056476921 -0.02805846190036145
-0.05352976557106073 -0.071230705844149 -0.025873266215928465
-0.0859249794134527 -0.0668780766594261 -0.028884582276948362
-0.04973390337318476 -0.07054289804576339 -0.02668606495440808
-0.10044511791557367 -0.06753778086780013 -0.027071468587525755
-0.05389859911293085 -0.06860416756747664 -0.02840306615413037
-0.0436065458902746 -0.06788086520312728 -0.02902104711116162
-0.05046125885337885 -0.07248064504741134 -0.024345688577302366
-0.0651592278131872 -0.06560080872653426 -0.030632041450150877
-0.07971211906761225 -0.07134002076266707 -0.02508377289355603
-0.06732615467399652 -0.06785714255450667 -0.02903472637713757
-0.10328569647163446 -0.0677354894745201 -0.026579730268128782
-0.09559464093536432 -0.06683596597789229 -0.028055243249543577
-0.043836649621429996 -0.06927144156573714 -0.027960382457383543
-0.058385130132141666 -0.0645665191280693 -0.031280629392274294
-0.05719717975944574 -0.06706231461642684 -0.029637001510270506
-0.08224799867958124 -0.06639510022281112 -0.029517255778916746
-0.05384724971145685 -0.07176100836871566 -0.025209806914933592
-0.06458872195571955 -0.07187831030963363 -0.025094173904069334
-0.08036005135864313 -0.06424805151103438 -0.031186573262818724
-0.08632841345161493 -0.07111382113574446 -0.024820886607774168
-0.08693793054908808 -0.0714995823967308 -0.024345062728532225
-0.06611758109420832 -0.07208573447345198 -0.024834089036591917
-0.08072641130775507 -0.06965547429202498 -0.026772670503266722
-0.1193882190832525 -0.0642128847706169 -0.02787881350100842
-0.1225431823381811 -0.06444406138537825 -0.0273111388641676
-0.05947130557388361 -0.06945305691836776 -0.027764879222520262
-0.04509442683548029 -0.06614887343524398 -0.030243270154603392
-0.06225180264801081 -0.07234948502658309 -0.024490498061784178
-0.08440020319313105 -0.06528639422534407 -0.030235581155427366
-0.06692015763610895 -0.06703865157245101 -0.029658220763810545
-0.06351169582695063 -0.06477754937289656 -0.03116735076487866
-0.06839805480331476 -0.07228225098727645 -0.024535559173234373
-0.07912402983993586 -0.06604727731822432 -0.030036620851167112
-0.07693770166725214 -0.06419926510928572 -0.03144880389750806
-0.06440603371948297 -0.0670117996799797 -0.029651723857530028
-0.09567281242698725 -0.06799721346972884 -0.027034513707765013
-0.048431899512711124 -0.0668953024017662 -0.029716812129624754
-0.07486033078521784 -0.06922757254718245 -0.027698271031983763
-0.060306187833252506 -0.07048418747065963 -0.026896141524918944
-0.06719871994346674 -0.06908875332950057 -0.027995251174577147
-0.10093202825874384 -0.0656859837639183 -0.02851089095652905
-0.046327706540527896 -0.07169735060809554 -0.02537768339694348
-0.08242973324150141 -0.07202234493373336 -0.02421208476603833
-0.10136213537544306 -0.06432097779391707 -0.02950959658206311
-0.05222671862930353 -0.06827780233500899 -0.028685770984300047
-0.09198349353164728 -0.0702635906803459 -0.02522119140208569
-0.05644130345672663 -0.07053711639522017 -0.02684628223956433
-0.04254680510849054 -0.072340484725222 -0.024814091678269774
-0.05268305178970392 -0.07179516183017196 -0.025172106977113157
-0.04735254880279596 -0.07182857023356856 -0.025110177751191527
-0.06329506274551447 -0.07038995252726973 -0.02695553755343762
-0.07572355505317743 -0.07210716234324874 -0.02450519060672131
-0.06011384364456232 -0.06761714445231856 -0.02926581358493176
-0.06355160113662775 -0.06873112546084822 -0.02831988787234631
-0.102523412669602 -0.06903639064906539 -0.025473289247163206
-0.07156827684730585 -0.07044109331248702 -0.02676194166720715
-0.06968888279289301 -0.0698785148727745 -0.02728229021609631
-0.05365499492973383 -0.07022231446383895 -0.027104161735185057
-0.09402665134758051 -0.06433483587382735 -0.030098311658509642
-0.05978357430786188 -0.07246681676982344 -0.024399004932053953
-0.08006661769241388 -0.06729939209102095 -0.029009603019364744
-0.09177541371673639 -0.06916087494967879 -0.02632167195857373
-0.06457921501487787 -0.0692565404045433 -0.027888231034882933
-0.07410904404014643 -0.06921934710620345 -0.02776154136241284
-0.08468839165062006 -0.06971579419253768 -0.026442341561921507
-0.05975433822959955 -0.07111850010035933 -0.02611839031756726
-0.0939830803522497 -0.06509104000209273 -0.029551886077531248
-0.05942058202117975 -0.0706639550793022 -0.02669330691874829
-0.10539307829231317 -0.06841227041362227 -0.025704495664246946
-0.058889087403717594 -0.06897312031863631 -0.028174988980897337
-0.043727662528458194 -0.06985979901431502 -0.027514450307496458
-0.06276809808105524 -0.06460269914744796 -0.031273774858125124
-0.04757591720909174 -0.07045074926494063 -0.02687575673640576
-0.05100646253913935 -0.06633421407817305 -0.03011759376109448
-0.04512503382057245 -0.06736352668879927 -0.029367946143754393
-0.10929706331581171 -0.06857797132609786 -0.025109402890809446
-0.07435965176910456 -0.0647939406502098 -0.03113969420970288
-0.06549936171859796 -0.07079895959971846 -0.026486299987443358
-0.047917630637589054 -0.07215413080333175 -0.024705700631745726
-0.09526064630836542 -0.07076695190547408 -0.024417601581223875
-0.07385176059097345 -0.06667348371623458 -0.029803834910996824
-0.06317168113082941 -0.06804895030139388 -0.02888166164935437
-0.07657777901977594 -0.06710674987910689 -0.029399745221742064
-0.04771312710136469 -0.06466632710574569 -0.03121065353930798
-0.052973177398148136 -0.06672030316470565 -0.029824905152924925
-0.04696842666954096 -0.07006898151515425 -0.027241520639069945
-0.054177966082993106 -0.072554107772097 -0.02421294903338757
-0.06698113318771418 -0.06928374992488326 -0.0278376862961134
-0.10267108317703302 -0.06861263142703475 -0.02584552025378552
-0.058453675473633365 -0.07225456462977828 -0.024686805959351927
-0.1265891456255346 -0.06433722005961837 -0.026839517112382322
-0.10607564088195856 -0.06802874432681502 -0.02598675345958081
-0.07404353853553827 -0.06851225720523299 -0.028362654204972654
-0.11835154529899652 -0.066373106108889 -0.026082210298188597
-0.06735288735717829 -0.07246604190944136 -0.02432160830081311
-0.04665568109840448 -0.06972068177340926 -0.027528815026887327
-0.08637657400459345 -0.07128202544330062 -0.024631194825776487
-0.08094825979560907 -0.06541153417705001 -0.030368052478440672
-0.06824189063400324 -0.07021161543010176 -0.027021519895203978
-0.06327432032913263 -0.06901689993022384 -0.028084985967286497
-0.06415933009475763 -0.06452521310923995 -0.03133197879374829
-0.07141351338714655 -0.06622111426471175 -0.030211173053391844
-0.05673774715751703 -0.06723570452807845 -0.029511742349275023
-0.07538711663574274 -0.0688607655632347 -0.027974359746583372
-0.06258403893798883 -0.07192214952586592 -0.0250412151771864
-0.046192612613144474 -0.07180270181773604 -0.025251261945374876
-0.044750508035126285 -0.06843265520213546 -0.02857943629802075
-0.05058359738678034 -0.06820711122630538 -0.028761319871552855
-0.07658582564682062 -0.06696009265063704 -0.029510311837800413
-0.06002026435226496 -0.07247218118785323 -0.024386398549683958
-0.08265289303154047 -0.06536700950740279 -0.030292622800477415
-0.08622741338104303 -0.07185127960322799 -0.02403130387843457
-0.04787200328201349 -0.06417348610042037 -0.03152325009883252
-0.07262479897827204 -0.06680553780673446 -0.02976211165965405
-0.09631359216064508 -0.06424882637141646 -0.029971949811585814
-0.07317256566375788 -0.07215353475688399 -0.024587802644380003
-0.046171125138702945 -0.07049071417926253 -0.02695735549510327
-0.059872117007675724 -0.06517535077212752 -0.030882410760529905
-0.08063643809646662 -0.07213863359569014 -0.02416291093409863
-0.07436036702484186 -0.0700567625629753 -0.02700804924548474
-0.07566275831550653 -0.07133134828685225 -0.025439642425187498
-0.05003887053817804 -0.07270991431353988 -0.024044148679383665
-0.07399725552887018 -0.0712958835232109 -0.025627277846940428
-0.08412471052497919 -0.0658981464969963 -0.029836021419175535
-0.06365069385856684 -0.07237866150020064 -0.024446450229295164
-0.1087262296327978 -0.06924873219607772 -0.02449785923541394
-0.08671864506095942 -0.06657984481929244 -0.029057346339829832
-0.04348620411247309 -0.06607523189662398 -0.030328862424500853
-0.11308642860740717 -0.06854429470179976 -0.024672351832993895
-0.043421056235733585 -0.06425016747592391 -0.031554244514115724
-0.09414615866035517 -0.06965347753642501 -0.02563124155581799
-0.07027220364898737 -0.0644960366356224 -0.03139268612445203
-0.06835233804077204 -0.07021987067340316 -0.02701138710559216
-0.049636032546463565 -0.06462674962161483 -0.03122516727031079
-0.04365905758232172 -0.07186248527644576 -0.02519058441699353
-0.10993703838676508 -0.06504302846072615 -0.027999244685777098
-0.08081712957710321 -0.06437494979976119 -0.031074725146897703
-0.07544278737396296 -0.06471898780940474 -0.03116672491610852
-0.12825992342323358 -0.0655847154724449 -0.02551951264918652
-0.061470892394486026 -0.06677716599582137 -0.029798083062776
-0.07603579398483332 -0.06953081117747725 -0.027316026445039183
-0.05537926789611872 -0.06731545554278792 -0.029435060973771483
-0.09995934006065424 -0.0706920586693138 -0.02401640271724072
-0.04754489299148615 -0.06455194579242171 -0.031286709066041384
-0.0807573461183935 -0.06656837092517318 -0.02950584148944226
-0.05276441212982233 -0.06895592437861861 -0.028119020219453245
-0.08919649955123957 -0.06777888165591658 -0.02785595511973706
-0.09891652699798639 -0.06857874618647994 -0.026246450896867186
-0.07189190026611383 -0.06894912944911422 -0.028065227027543455
-0.047700103486481266 -0.06538018213389815 -0.030724935289033323
-0.04963791009277399 -0.07008197532771529 -0.02715545153201428
-0.06808036204666193 -0.06868692861674727 -0.0283160433727583
-0.0733023249754339 -0.07029446588633956 -0.026881627793916136
-0.11678425606578882 -0.06816881524203719 -0.024662010427125364
-0.043313589061203556 -0.07126336918948592 -0.026001386399873167
-0.08580153819412287 -0.06623676048396529 -0.02942319964946118
-0.04853257175773676 -0.06781023369906844 -0.02904536580622998
-0.04619043704361017 -0.06523924695132674 -0.03086503600657788
-0.0820352100977331 -0.06946977602122725 -0.0268245563465437
-0.052078601087036686 -0.06500535832522811 -0.030975811238892943
-0.0846391284117132 -0.07038327680705489 -0.025798045154221922
-0.09319272276252802 -0.06622621046184005 -0.02873333549083081
-0.10378580924362238 -0.06639432536242904 -0.02767451858104077
-0.09920772549003656 -0.06644644962428511 -0.028070770259507567
-0.10909303661674555 -0.06759059058307113 -0.02602656936229077
-0.054389800990524845 -0.06681337581752242 -0.029761128183015257
-0.09185781713813837 -0.0686447285282463 -0.026803784127839476
-0.09760075446456964 -0.06419756637690963 -0.02987604593814221
-0.04812457796424921 -0.06925657020686568 -0.027817331309922606
-0.08489885565132196 -0.06464913116572799 -0.030629091020234495
-0.07089590665191706 -0.064512994157061 -0.03137498354495374
-0.11202711995929773 -0.06487127767680587 -0.02798562502444592
-0.05096810695022638 -0.06927936898349227 -0.027856014724381834
-0.06455486651748713 -0.0642288886177391 -0.03152456140101758
-0.07391932245582636 -0.06835618244288863 -0.02849989389956799
-0.0776285493025213 -0.07089516149638594 -0.025765918250687986
-0.07746830221504267 -0.07030358539699019 -0.02648355817378369
-0.07965910073608454 -0.0705743394958824 -0.0259434208828291
-0.057526912654343204 -0.06896766649363936 -0.028205923791535765
-0.11337262030929621 -0.06627758966563643 -0.026864342446931273
-0.06274118658393915 -0.06742274390338363 -0.029359124656327635
-0.10764544841140802 -0.067004289494738 -0.026735775228150755
-0.08550285931915338 -0.06889253483889998 -0.027155689950593382
-0.048046406472626285 -0.06491475926516951 -0.031047843452104002
-0.07521170016616877 -0.06878885255931319 -0.028055153842576414
-0.09505560633033808 -0.06517523156283797 -0.029405824895509153
-0.07472797867149408 -0.0654217265713066 -0.03069614624560681
-0.07739522692054804 -0.07135372983096541 -0.025252960677750975
-0.07815828558296259 -0.06991892682193221 -0.026788674350388914
-0.0677272939333349 -0.0721595846283287 -0.024696104283936888
-0.04841822024673517 -0.06966575609324874 -0.027481995578416258
-0.05271720525116022 -0.06488147007106246 -0.031063966508515745
-0.07633128401130732 -0.07092284785388411 -0.025859676356919676
-0.10602253314346369 -0.06577160583613814 -0.027931802030213743
-0.07383900519699152 -0.06738060341952742 -0.029307775254853636
-0.04289185639709528 -0.06942981110690535 -0.027853034492143065
-0.056141194070282535 -0.06819775329707564 -0.028782747741349608
-0.045738335812988834 -0.07008841262935103 -0.027304641957887083
-0.06257399555534418 -0.06660180913089217 -0.02992104744494763
-0.10650941368431147 -0.0645764433014244 -0.02880444383204785
-0.07691713806480463 -0.0719808302986473 -0.024559937472947508
-0.09148820873588617 -0.06617828832744063 -0.028929434772141844
-0.08087011810630854 -0.06966039167521895 -0.026752226110108763
-0.0892683529505163 -0.06797387825129927 -0.02766560768664685
-0.11480693158001001 -0.06703936682818831 -0.025981925483354002
-0.09947979089111383 -0.06601553784488143 -0.02838196610987988
-0.050095882380905704 -0.06453075634120406 -0.031284473891862306
-0.04646345611900385 -0.07260089741824569 -0.024175755735047728
-0.06597140070289667 -0.06779124961970748 -0.029100231881745726
-0.06752401229232843 -0.07061376796840133 -0.02664815640033093
-0.07264914747566278 -0.06720107422946395 -0.029483370538361937
-0.08476259943336542 -0.0677650533783287 -0.028234653230317503
-0.13198116060585077 -0.06463548170207442 -0.02560257172168103
-0.05263265606254633 -0.07261916624186934 -0.024147622342713743
-0.04284593101829584 -0.06834312902568282 -0.02871610974849072
-0.0965203904756933 -0.06767513977168502 -0.027270756717332274
-0.06431501742691095 -0.07095458732722701 -0.02628659462512341
-0.08502232667297419 -0.06497892366527022 -0.0303992257076582
-0.04628949996322687 -0.06456586347697676 -0.03130941843570081
-0.09742408629745539 -0.06583633648036422 -0.02870046352923718
-0.11512200173229273 -0.06778072939990462 -0.0252834186512312
-0.10039513942092951 -0.0647285543548912 -0.029290847535737425
-0.06622111436218317 -0.07138385997889937 -0.02572321152270642
-0.1312474870333105 -0.06553494559405745 -0.02500098204196301
-0.07020210858673151 -0.06541671978114547 -0.030782841201432615
-0.05888962384552057 -0.06515451894877852 -0.030900232549317747
-0.08234625693649347 -0.07147490607379378 -0.024781577344544798
-0.054640647138062076 -0.06913163887141646 -0.02800761913836804
-0.09806063410133417 -0.07023712621806563 -0.024656020160325438
-0.0494811796793371 -0.07007729636310042 -0.027157209869035154
-0.049928780759277896 -0.07189812885402144 -0.025044225211747557
-0.07227840658515985 -0.07060813532947005 -0.02654316281855908
-0.048792269195023136 -0.06525760518191756 -0.030823312755235106
-0.048748847211304264 -0.0658862553703636 -0.03041347121775952
-0.0995871686586767 -0.06846662984965743 -0.026316963191636473
-0.11027206119388636 -0.06532382594226302 -0.02775298809588757
-0.08150156971305902 -0.06904455648539962 -0.027291648145326048
-0.08190735813468988 -0.06862723456500472 -0.027660779710420042
-0.08830520149559076 -0.0668659769165367 -0.028680883403428465
-0.06676596042007502 -0.07270970569728316 -0.02403204893649426
-0.10208642121643122 -0.06644340978740157 -0.02781169867099133
-0.09112131234497126 -0.06554877387164534 -0.02947493648112622
-0.10683321591705378 -0.06539424883006514 -0.028137676473267943
-0.07027491566032465 -0.06429856644748153 -0.03151937579692212
-0.11125199135631617 -0.06747603045581282 -0.025864891763337523
-0.05594867106765802 -0.07273894177554549 -0.024006031509049803
-0.10333054896682795 -0.06741752849696578 -0.026871077771790892
-0.06327461835235651 -0.06762125717280806 -0.02922638511241284
-0.0758568310388952 -0.06450953708766402 -0.03129785513461438
-0.06298532720893915 -0.07274961100696029 -0.023966334815629393
-0.05969205137580927 -0.07147660480616988 -0.02566628908694592
-0.07602995272964533 -0.06698044763682784 -0.029524527545579344
-0.0846061968454748 -0.0670994483101219 -0.028803639169343382
-0.09954475995391901 -0.06447434054492415 -0.02952458715022412
-0.07115319010109003 -0.07128536330340804 -0.025728188510545164
-0.08474710222572382 -0.06587114559291304 -0.029817752595551878
-0.07923188444465692 -0.06538226829646529 -0.030515275951035887
-0.0635451936373144 -0.065213438140139 -0.030879430528291136
-0.0502441191324621 -0.07251810656665267 -0.02429675316394177
-0.10303306218475397 -0.06481599436877669 -0.02895482635081616
