ply
format ascii 1.0
element vertex 578
property float x
property float y
property float z
element face 0
property list uchar int vertex_indices
end_header
0.2900821006646723 -0.041504915820345295 -0.029819093700059324
0.27735132340103097 -0.031765010224565876 -0.030391417499192625
0.2869146502366633 -0.05077314005969466 -0.02891861652911511
0.3001565373292536 -0.027389999495729817 -0.024157010074265867
0.3085253870835871 -0.039234723912462605 -0.025647781844743162
0.2807054555764765 -0.05036824570773543 -0.030020706411012083
0.287851754461822 -0.0214596949684471 -0.02395381784022656
0.292895380293426 -0.04267301784633101 -0.029254548307069212
0.3023843205323786 -0.030525203810915363 -0.025276087279923826
0.29794955614715524 -0.03675526009677352 -0.02789174770892468
0.2911393678536982 -0.05932545291064681 -0.024871908183701903
0.2939397728791804 -0.04985826836703719 -0.028022192474015623
0.28076720598846383 -0.01794153081057967 -0.02420612430156079
0.3051466977944941 -0.045175816880449665 -0.026223562713273436
0.30147433642059274 -0.03958293424724044 -0.02728866791308728
0.2848516142716975 -0.028795029984697712 -0.028207473512299925
0.28811461094528146 -0.051877673732027424 -0.02845101809085217
0.28782201174407906 -0.04087906705020369 -0.03017904614985791
0.29584288958221383 -0.03641876207469405 -0.028332643266328245
0.3078174627175898 -0.04479238020060958 -0.025612048860200316
0.29281026486068673 -0.0319330357181877 -0.02793740486682263
0.2981957233300776 -0.030122276412233723 -0.0259816870647749
0.29403531912475533 -0.027453240023836506 -0.025715254302628904
0.2796947396150202 -0.019961413012728108 -0.025461785550721556
0.305513206755218 -0.03976291047213973 -0.026303611751206785
0.29292309645324655 -0.0269489847290367 -0.0257014558273634
0.3038277066102595 -0.046651776896700275 -0.02636563038409558
0.28420931461959786 -0.01954137908099593 -0.023941479678758055
0.2865408695092768 -0.041151102648958576 -0.030354850049622923
0.2975885308137507 -0.02956783400653304 -0.025875471587785154
0.29698574904113717 -0.04686960207103194 -0.028038077111848265
0.28474170330673165 -0.024941470490679157 -0.026432000156052977
0.3037821686616511 -0.040540780888780964 -0.026759706493028074
0.28844762209564156 -0.024338390694841755 -0.025332622285493284
0.29998696211486764 -0.028450991975054157 -0.02471562480510083
0.28212303284316964 -0.04620352016566695 -0.030566863771088987
0.2814210093370051 -0.020823832617983234 -0.025375925059922606
0.28423357371002145 -0.0233437977897972 -0.025857649798997313
0.2776535189500422 -0.03090452777026595 -0.030115298982270628
0.28423864010482736 -0.047081466780886067 -0.030191622729905516
0.286303046976623 -0.03943401204226912 -0.030406259055741697
0.2812203801026911 -0.03861489521144332 -0.031013809199937254
0.29724371794372506 -0.03366547452090682 -0.027504377122529417
0.301980320250091 -0.03973236309169234 -0.027185253854401976
0.29184282187133737 -0.03804048524974288 -0.029445789809831053
0.2860686219087214 -0.02859398351787032 -0.02792989468158093
0.2847945726266474 -0.029937740432009113 -0.028695397134431273
0.27567726734786935 -0.01883211361049117 -0.02605836844027844
0.2887454665055842 -0.0469590686428398 -0.029472939725526243
0.29436850908904977 -0.04897606001971663 -0.02814858412326184
0.2888437545648188 -0.0418359898197502 -0.030010245795854002
0.29730481270461984 -0.026482161151155842 -0.024351947065003782
0.29893529776245065 -0.03482499347804488 -0.027350239511140257
0.28665870789199777 -0.02746739612697066 -0.027288965936311155
0.2988795078149409 -0.04100313411830367 -0.027907989974625975
0.28443193796783395 -0.02010568605540694 -0.024175368304856688
0.30014360312133737 -0.036271031962618244 -0.027339153047212034
0.2935754692903132 -0.03275403009532393 -0.028038434739716917
0.30317557219177194 -0.0314159356224388 -0.0253902301746687
0.2966560161462397 -0.02623402701495589 -0.024358503575929075
0.29948336247116036 -0.04931842909930648 -0.026996098514207274
0.2985909617295832 -0.030634578334078205 -0.026159159894593626
0.31303418043762155 -0.03730454670070113 -0.02429264044345227
0.3033645189157099 -0.03055354581950606 -0.02504714583934155
0.28878426912933297 -0.027276571856722248 -0.0267862901645979
0.28195923927932687 -0.041313644515261067 -0.03095888351977673
0.2860052025666804 -0.025684114562258137 -0.026642166133531004
0.286359313761291 -0.02489012108920516 -0.02614992117465344
0.2865179217210383 -0.056182321177706135 -0.027245484347947508
0.2896365559449763 -0.036350157128557575 -0.02964871382296887
0.28445566061645455 -0.02133208142398299 -0.024787955041535765
0.298380318914947 -0.046805288659319294 -0.02777086948932019
0.2937195933213801 -0.029911186562761677 -0.027006708140977293
0.29941916826873727 -0.029611583815798176 -0.02543704962313977
0.28297019365936227 -0.04645543919681014 -0.030433677192338377
0.2826162016740412 -0.03703236209033431 -0.030671261306413084
0.2865038550248713 -0.038480576144441975 -0.03033187245906201
0.3122989571443171 -0.044187869893297566 -0.024652980323441893
0.2996821439614863 -0.049553390609011067 -0.026882968898423582
0.30479735497146554 -0.038649704323992146 -0.026441715713151365
0.2894476092210383 -0.04134976492999495 -0.029925875421174437
0.3109220898500056 -0.03413992749331893 -0.024313859696992308
0.30365413788467355 -0.0363849662411064 -0.02638515090525952
0.2921837008348078 -0.02558424697993697 -0.025109402890809446
0.28033024433761544 -0.05051695929645003 -0.03002902125895825
0.28892410162597604 -0.032288488017305744 -0.02890416240275708
0.2926311529031367 -0.042123433219179524 -0.029325209613450438
0.29112881783157296 -0.023165401087984455 -0.02404242014468518
0.3000981843820185 -0.03799274192927779 -0.02753304695666638
0.2931460774293513 -0.029280181990847004 -0.02687215065539685
0.3021664059510798 -0.04880982266543807 -0.026489280219682127
0.3151094949594111 -0.04440688716052474 -0.023942522760041624
0.2822565472474665 -0.04299801217196883 -0.030929617639192015
0.28956252697616525 -0.029782261716112507 -0.02787613129199353
0.31126875046401925 -0.035979535447344196 -0.024543426986344725
0.29214775923400826 -0.04332464562533797 -0.029379330630906492
0.2811340129724116 -0.018539544211611164 -0.02436476206363049
0.27772659424453683 -0.03448012100337447 -0.030969433541901976
0.3043587839952082 -0.029357519017443073 -0.024262927528031736
0.2749034798493952 -0.02059667931674422 -0.027030579801209837
0.31404465798049874 -0.04215532170413436 -0.024330429788239866
0.28453559044509835 -0.04481497036097945 -0.03046285366595593
0.30226189259201 -0.04846801982997359 -0.026521556134828
0.2932330406060786 -0.03624948488353194 -0.02897553896487561
0.2887923753610224 -0.03056454287646712 -0.02832635497630444
0.297153774534759 -0.036229755746111286 -0.0279769525486311
0.3107960260263056 -0.040535476075395954 -0.02512951945842114
0.28547418478637643 -0.034245725737795246 -0.02993270015300122
0.2841618097177119 -0.048652227984651936 -0.029945842977174193
0.2923329508653254 -0.02600335703967513 -0.02530964469493237
0.27998310688644357 -0.0315716825592369 -0.029968671556123167
0.27716362837463326 -0.044009294377550495 -0.03158801054538098
0.28833431366592355 -0.023981388674959553 -0.025166206117280394
0.30833185080200143 -0.03950011359332503 -0.025688760038026243
0.2833702600350947 -0.049377556906923664 -0.02989273523867932
0.276335481440124 -0.026110734807237995 -0.028840594049104124
0.28263455990463204 -0.03343453632472457 -0.030037455316193968
0.30903786781936593 -0.03523996101497115 -0.02501507854045239
0.29979002836852975 -0.03417619691966475 -0.026979260202058226
0.3094487822404475 -0.03328060732959212 -0.024328641648896605
0.28199273708969064 -0.024576749669298542 -0.02699538325846997
0.2866661584725947 -0.033804025517687214 -0.029654495473512083
0.27580005291610665 -0.04382615910647811 -0.03165512537539807
0.2875017559877009 -0.04895454274295272 -0.029347263332017332
0.30353695515304513 -0.0383010469543785 -0.026735805030473143
0.27705157164245553 -0.02334197984813155 -0.02764647459567395
0.2748938835015864 -0.03730207310794295 -0.031775377746232424
0.3110904133668513 -0.04117044435618819 -0.02504795050204602
0.3001480734696955 -0.03081982957004012 -0.025909058805116087
0.285043064390716 -0.03641563283084334 -0.03028779482425061
0.29178381327300973 -0.0347057841884941 -0.02901031827510205
0.2996099031320185 -0.03088008986590804 -0.026045106406815916
0.30594951275497384 -0.03992703186152877 -0.026190571542390257
0.2913185990205378 -0.027153935300096882 -0.026194237228043944
0.29708510998397775 -0.03629305587886275 -0.02800231432498303
0.28455543879180856 -0.021753724681124104 -0.0249782428699812
0.29391587141662545 -0.039205636845812214 -0.029170446153291136
0.28287965420394845 -0.03752207385180892 -0.03069796418727246
0.27506232622772164 -0.04058819638369979 -0.03191908454478589
0.28069883946090646 -0.032032575474962605 -0.0299831256824812
0.2919476664414973 -0.032236125336870564 -0.02822669601023999
0.30612093571334786 -0.03236624227641524 -0.024887763019212156
0.27644527319580026 -0.049572434293016804 -0.030780278201707274
0.3032396471849055 -0.03980812059520186 -0.026908122058518797
0.27548379067092843 -0.029992457495912922 -0.030243627782472044
0.2759414351335139 -0.03864639626620711 -0.03173428034365979
0.3010489380708308 -0.04534437881587447 -0.027180753703721434
0.2842954433312983 -0.062495078908190144 -0.024229995961793333
0.3024563229432673 -0.039277013407930744 -0.02709495281756726
0.3000626600137324 -0.04199301825641097 -0.02758207177699414
0.30021119478851266 -0.028422560559496296 -0.024645023103364378
0.28292060259490914 -0.027463849650606525 -0.027988456245072752
0.29178178671508737 -0.03559851275561751 -0.029175601955064207
0.2770572340837092 -0.045262452231630695 -0.031654976363786134
0.29728466633468575 -0.04210599886058272 -0.02831190084994641
0.2782300150743098 -0.02898889409182967 -0.029424391742356688
0.2758452928414912 -0.035156484709963215 -0.03137802338183728
0.28246158722549386 -0.04695459829448165 -0.03042861079753247
0.2933112419000239 -0.02395104991076888 -0.02392407512248364
0.30641693237930245 -0.04628023134349288 -0.02575462317050305
0.2882142699113459 -0.05651512371180953 -0.026907734628327757
0.2770095503678889 -0.031387057172045124 -0.030358605142243773
0.2774542010179133 -0.025087144242510212 -0.028225205894120604
0.29149192932754464 -0.028254237042650593 -0.026763700004228026
0.3107801115861506 -0.04370739685176314 -0.0250547752338728
0.29292840126663156 -0.046826627122148884 -0.028754554744370848
0.3113527334085078 -0.0472778044807762 -0.024461828227647215
0.2759031689515681 -0.03035586701510848 -0.030273221488603026
0.3053947723260493 -0.043258246051058186 -0.026354037280686766
0.3037123716226191 -0.04584955798266829 -0.026488624568589598
0.28851837280898995 -0.03427007423518599 -0.02949624514163342
0.28999585274368234 -0.02989771591304244 -0.02785449480594006
0.28676802281051583 -0.03062793241618575 -0.02868067478717175
0.30174488190322823 -0.027815755473360432 -0.023978464360841185
0.2770428693643183 -0.03705072032092513 -0.03137665247500745
0.28201252583175607 -0.03272157536624373 -0.02996244287074414
0.29017067316680856 -0.042406078444704426 -0.02978023147166577
0.2836834228387446 -0.02606629954455794 -0.02721776818812695
0.2855103648057551 -0.039185073243364704 -0.030509226079591185
0.2820100224366755 -0.022477503882631672 -0.02605139469683972
0.2979629075875849 -0.03063115106700362 -0.026294849868424803
0.285317722593841 -0.05111980067370833 -0.029040657039292723
0.285906318460998 -0.04149433599589766 -0.030439369435914427
0.3056887424340815 -0.0338977836239189 -0.025386773105271727
0.2964864409318537 -0.027680184708818806 -0.025252275224336058
0.28304261330276437 -0.02092113720057906 -0.024976335521348387
0.2836441433778376 -0.023861583338961018 -0.02620824431956616
0.2808241880288691 -0.023550268279299152 -0.026858232970841795
0.29809242848068185 -0.03254353629229964 -0.026896350141175657
0.2818724549165339 -0.01841079817889632 -0.02406024193347302
0.2880747354379267 -0.03894632683871688 -0.030163668151505858
0.2994125521531672 -0.03039502726672591 -0.025852613206513792
0.2902136481156916 -0.023401882516130817 -0.024388156886704832
0.27830440167098947 -0.018570180999025715 -0.025253467317231566
0.2750938570848078 -0.04438414798854293 -0.03168555354655591
0.29524797562271066 -0.032997485266909016 -0.0279328749138197
0.28735101584106393 -0.027080681191667927 -0.0269640610176405
0.29094517592102 -0.04249113427279891 -0.02963887905658093
0.28354859713226266 -0.04957237468837203 -0.029799841399796873
0.28086889151245065 -0.05645873771785201 -0.02794917678416577
0.2818390167108149 -0.02955323086856307 -0.02900423860133496
0.2802116310945124 -0.041941728459581745 -0.031145684476502806
0.2791023886552424 -0.017838533984407795 -0.024685911889680296
0.2880774176469416 -0.03744345532535018 -0.02999269222796765
0.28425604466110177 -0.03944733368037642 -0.03066199278415051
0.27710670593887277 -0.05119406806109847 -0.030255101676591307
0.29318249586730905 -0.04555219040988387 -0.028889589067109495
0.2921626603952021 -0.028416868315920246 -0.026697538848527342
0.294387284552154 -0.026954498158678425 -0.02533977484286633
0.3152668512216181 -0.03770359979747237 -0.02396070217669812
0.3049825466027827 -0.03533073888896407 -0.025881312842973143
0.2891443407884211 -0.05541297422526778 -0.0272270963150343
0.3150317108979792 -0.04361897336123885 -0.02404602622569409
0.27918553713470406 -0.020725395547136677 -0.02598064398349133
0.2954208290925593 -0.04165163265345992 -0.02874120330394116
0.2872420585504145 -0.0223502777683586 -0.024579368587144285
0.305584851538238 -0.04288798199771346 -0.026304803844102293
0.2768981492868037 -0.06380626188395919 -0.0245856270748457
0.28937697771697946 -0.02464970575450362 -0.025277130361207396
0.2777375614991755 -0.01681702958224715 -0.024591110702165037
0.3085649049630732 -0.04723697529910506 -0.025112144704469114
0.31048179033904977 -0.034374918805345905 -0.024476997609742552
0.278588477407989 -0.022625889645800007 -0.02697711443484631
0.2963559067597956 -0.04539572821734847 -0.028256110902436644
0.3078007734170527 -0.030876543389543903 -0.024028353448518187
0.3113076126924128 -0.044432010518297566 -0.02484207605899182
0.2905814087739558 -0.050750967131838215 -0.028458111043580443
0.27996945742279 -0.026738163100466145 -0.0283257291275343
0.29045576218276925 -0.044192787276491535 -0.029635034556992918
0.30163753393798776 -0.03335600720523299 -0.026266895290025145
0.27624011400848336 -0.028084334002718342 -0.029549710507996946
0.3037959373345942 -0.0352093242275566 -0.026148311849244505
0.2838382161012263 -0.03130218015788497 -0.029387049432404905
0.306223336493072 -0.042294766770586384 -0.026145242210038572
0.27822113398223824 -0.02757370101092757 -0.029012672658570677
0.3026322162499995 -0.030664023028597248 -0.02528768038333264
0.298463646208343 -0.039797630177721394 -0.028043650146134764
0.29555875424056954 -0.03548293934939803 -0.028295420165666014
0.2851620352616877 -0.034133609400972736 -0.02993681287349072
0.2811986244073481 -0.040837135182604206 -0.031043551917680174
0.27883702877670236 -0.04595163093684615 -0.031085692401536375
0.2781255877366633 -0.056934531794771565 -0.02815439557612744
0.2759292757859797 -0.019405957328066242 -0.026253812070496946
0.307587865625915 -0.04619383441089095 -0.025481067653306395
0.27768588427215524 -0.046209152804598225 -0.03132959460795728
0.2809363043656916 -0.027405109273180378 -0.028310798164018065
0.301088157927093 -0.03186428176043929 -0.026072435136445433
0.27838319901138253 -0.05289673434375228 -0.0296324119526228
0.28831053141265817 -0.03984123097537459 -0.030121944900163084
0.3127989209046931 -0.0433410369026512 -0.024620495792039305
0.2765139377465815 -0.01754349099276961 -0.025241814609177977
0.3055523670068354 -0.03458430992244185 -0.02558895206034985
0.30579060677200265 -0.030045177804216755 -0.024194531198151976
0.27959269646316476 -0.02194994317172469 -0.026424907203324705
0.2956162727227778 -0.029444929229006184 -0.026402436252244383
0.2759566939225764 -0.019366230832323444 -0.02622982120097485
0.2809954917779536 -0.02299773322223128 -0.026576481814988524
0.2887465989938349 -0.027488823996767414 -0.026908420081742674
0.3036244547715754 -0.03096258269427718 -0.02515178179324475
0.28514856461196847 -0.021835591660723103 -0.02486225223124829
0.2945348060479731 -0.025735195742830647 -0.024615190978654295
0.2827453053346247 -0.03441226111529769 -0.030237011666901976
0.2839624321809382 -0.023264106379732502 -0.025906138177522093
0.29001927736907906 -0.03697129713176192 -0.02966528391421643
0.2778521812310786 -0.04160582648395003 -0.031514547820695314
0.28083300951629586 -0.028405096398577107 -0.028666548486359984
0.293869022165832 -0.0294894538986534 -0.026759676690705687
0.2922997510781855 -0.030515100823625935 -0.02764346456111279
0.29911888006835885 -0.04591020570872725 -0.027648679967530638
0.2850607669702143 -0.043368157016024006 -0.030536733623155028
0.2778286373963923 -0.041990336047396076 -0.031522564645417604
0.3107876217713923 -0.05087241159556807 -0.023955695386536986
0.2985832131257624 -0.04795929418681563 -0.02757789945185986
0.2780546582093806 -0.03237697111247481 -0.030410163159974486
0.3143394625535578 -0.041006680594667805 -0.024242661948808104
0.29648542765289254 -0.04041239248393477 -0.028528444524415403
0.2823023832192988 -0.01876151190875472 -0.024089150186189085
0.2780049479356379 -0.02255031095622481 -0.027099661584504515
0.2778590953698725 -0.0244785212147087 -0.02790804957927075
0.27911389235168405 -0.04691820965884627 -0.03091158723414746
0.286530200277862 -0.020956780778154743 -0.024036519284852415
0.28647536400466866 -0.036909934149965656 -0.03015457844317761
0.2990879452577204 -0.04766204582332076 -0.027499489541657835
0.28413403395324655 -0.0463673733341545 -0.030307494159348875
0.2827426231256098 -0.036586400138124836 -0.030587486978181273
0.28568339708953805 -0.03639796005366744 -0.030201993938096434
0.2989475167146296 -0.043726380931124104 -0.0278582797008833
0.27901435259490914 -0.026825215684160603 -0.028577052112229735
0.28418678406387277 -0.019531097279772175 -0.023942641969331175
0.3117070234170527 -0.04307522998927535 -0.024868391509660154
0.29127467039733834 -0.03259911762355269 -0.028490625377305418
0.2962672746530146 -0.030664321051821125 -0.026727907415040403
0.2850647008767695 -0.035391177998766316 -0.030167333837159544
0.27723855141311593 -0.01768418775676192 -0.02512436365664807
0.2823348081460566 -0.031129237281069172 -0.02955766772807446
0.2813888228288264 -0.048083391057237995 -0.030431799646027952
0.280050400530395 -0.04761185871241988 -0.03068723535121289
0.28015101317077584 -0.02578687296985091 -0.027925096507676512
0.2837412393441767 -0.03780009971736373 -0.030617110486634642
0.2999632990708918 -0.05195715652583541 -0.026142232175477415
0.28388554218917794 -0.0357831083404869 -0.030350022073396116
0.30565160874038644 -0.04573773966906966 -0.026025734897263914
0.29062939051299996 -0.05167215691684188 -0.028255097623475462
0.28256386879592843 -0.059209134446367634 -0.026451252456315428
0.30878621700912423 -0.03484493123172225 -0.024960599895127684
0.2855386770120234 -0.021235134469255817 -0.024443827624925047
0.2769824302545161 -0.02152594553111495 -0.026954464669831663
0.27681005362182565 -0.03634631262896956 -0.03134428715289441
0.3077373540750117 -0.03217336164592208 -0.024375997539170653
0.2884734905114741 -0.025606568919405354 -0.026018731351502806
0.3091435468545527 -0.04119589553950728 -0.025502674337037474
0.2763255274644465 -0.04757445679782332 -0.031276337857850466
0.30803150299697823 -0.03484969960330428 -0.02511840319217053
0.31142205361038156 -0.04977836834071578 -0.024048678632386595
0.2862709200730891 -0.04489278422473372 -0.030226670261033445
0.27974772814422555 -0.020826574431642902 -0.02585666632235852
0.276876572405395 -0.01689460502742232 -0.024845533128388792
0.3050736224999995 -0.05169057475207747 -0.02489676332057324
0.2758401668420405 -0.021620776520952595 -0.02732007956088391
0.30851978424697823 -0.031787659989580525 -0.024055503364213377
0.2974667585244746 -0.04722329603312911 -0.02793946122706738
0.2818908727517695 -0.02092450486300887 -0.02529933309138623
0.2748293912759394 -0.04416313396571578 -0.03178679203570691
0.30950385693221993 -0.03599965201495589 -0.025011949296601683
0.28739405039459176 -0.03973796592830123 -0.030250869746812254
0.29277944925933785 -0.03900280223964156 -0.02936979388774243
0.2926517165055842 -0.02477076278804244 -0.024541191812165648
0.27562469605117745 -0.014850642548784626 -0.02426742767871228
0.2837412393441767 -0.021948095427736652 -0.025299124475129515
0.2804768717637629 -0.04286598788379134 -0.031146369929917723
0.2833647168031306 -0.029773142205461872 -0.028851829524644285
0.28432119253784127 -0.0612844191658348 -0.02504625176966992
0.28744787338882394 -0.031304683552965534 -0.028852455373414427
0.308090213572082 -0.0440824292766899 -0.025641046519883543
0.3089015519967646 -0.03859066592334212 -0.025494627709992796
0.27833176020294137 -0.028554495440706623 -0.029272906537660032
0.27588820818572946 -0.01973083244441451 -0.026406280751832396
0.2873341477265925 -0.04530882464526595 -0.029980115647920042
0.27761781576782174 -0.0316431187260002 -0.030302189345963865
0.2863992488732905 -0.02720349656222762 -0.027230016942628294
0.2978464401116938 -0.03357508407710494 -0.027270250077851683
0.2777777946343989 -0.041503217087969196 -0.03150745486796704
0.290475729738769 -0.0274866782295555 -0.02657627319873181
0.2892555034509272 -0.027245994673952473 -0.0266911015468916
0.29580337170272775 -0.039376582967028034 -0.028722100015290648
0.3069427049508662 -0.03786837683795394 -0.02579831337512341
0.3119733965745539 -0.042236831055864704 -0.02482526754916516
0.28368914488464303 -0.025338765250429524 -0.026808582301743895
0.2905464208474726 -0.0390259586441368 -0.02980440115512219
0.29026687506347604 -0.03279876338122786 -0.028793744798310667
0.27952194574981637 -0.036120232211336506 -0.031145177837022215
0.2812204397073359 -0.0342276655304283 -0.030416272636063963
0.28297478321701 -0.0247841738331169 -0.02676194166720715
0.28851884964614816 -0.04449557887195052 -0.029912971015580565
0.2769864833703608 -0.015355106459841145 -0.024104528184541136
0.2796654737344355 -0.018273022042498005 -0.024708174224503904
0.3032311833253474 -0.033468958007082356 -0.02588703488887158
0.28318286303192086 -0.03049134837268294 -0.029177866931565672
0.3034878409257502 -0.04324122892497481 -0.02681719517291394
0.2757456934800715 -0.01545291768191756 -0.024477951284058958
0.2855912483087153 -0.031104918586000813 -0.02906643604815808
0.2782890832772822 -0.04835912214396895 -0.03085195278704968
0.28672218683868356 -0.04435500131724776 -0.030240379329331785
0.2904778755059809 -0.022626277075991047 -0.02392860507548657
0.30700624350219674 -0.033263113366350544 -0.024857007022508055
0.27966446045547433 -0.04236256705401839 -0.03122439240992871
0.28412193421035714 -0.04684865103839339 -0.03024601196826306
0.2967693841806025 -0.03028988467334212 -0.026452295537598997
0.2894403374543757 -0.022160138951525105 -0.023915521855958372
0.30128783348709054 -0.031532134877428425 -0.025929533000596434
0.2871507442346186 -0.03638705240367354 -0.030000470634110838
0.2958526051393122 -0.0389365814792961 -0.028662137742646605
0.2879561221948237 -0.03158080206988753 -0.02886223053515759
0.29744869831710763 -0.03016513215182723 -0.02621095633090344
0.31412119034439034 -0.040533121691927326 -0.024316869731553465
0.2777535951486201 -0.06374829636691512 -0.024498932119019896
0.2960554397454829 -0.05017950760005416 -0.02756705140651074
0.28624266747146554 -0.035373594628557575 -0.030009590144761473
0.30319220188766427 -0.04786866532443465 -0.026380322929032713
0.2946937120309443 -0.03704627977488936 -0.02871005987704602
0.2950483000627131 -0.025765117274507893 -0.024496994968064695
0.28943848971038766 -0.028916504250749958 -0.027535818572648436
0.28347325686126656 -0.04427277670978011 -0.03065942978442517
0.28105324867874093 -0.020596142874941242 -0.025360576863892943
0.2906842267861933 -0.04690053688167037 -0.02915268396914807
0.2903285062661738 -0.036690231429323567 -0.029575847144730955
0.28982675436645455 -0.03654068337558211 -0.02964352821887341
0.2813100850930781 -0.035961445437654865 -0.030705414767869383
0.29003888729721017 -0.03381362186549605 -0.02912216639102307
0.29473036888748116 -0.03227704392550887 -0.02775391196788159
0.28105849388748116 -0.04723479972957076 -0.030586682315476805
0.3102753794541926 -0.03526776658175887 -0.024703912492402464
0.28289902571350045 -0.02276849375842513 -0.02595233177722302
0.2998019492974848 -0.027046915160402668 -0.024061583037980467
0.2758805787911982 -0.04291486369250716 -0.03178574895442334
0.30140942696243234 -0.05330183731196822 -0.025223754401811033
0.2773338592401118 -0.01575007663844527 -0.02419265365184155
0.3031351602426142 -0.04670515285609664 -0.026533387656815916
0.3076568878045649 -0.049615230427965534 -0.024842910524018675
0.2760140335908503 -0.04499107228396834 -0.03153797244609204
0.30041200283676095 -0.041249003278002155 -0.02749737357676831
0.2807617223611445 -0.06171616541026534 -0.02535428857386914
0.2955249584069819 -0.04512193428157271 -0.028483264203675657
0.3108108675828547 -0.03896331416247786 -0.025104098077424437
0.28943193319946237 -0.022222962247118366 -0.023951195235856444
0.28227752808242745 -0.04516407476542891 -0.030684433932908445
0.2849225437989802 -0.02938380466578902 -0.028441362138398558
0.30115604761749215 -0.04467063771365584 -0.02721973514140454
0.28256821993499703 -0.02856009827731551 -0.028491996284135252
0.29731297854095406 -0.0509832762348503 -0.02709015464366284
0.2799267804971308 -0.03781491147159041 -0.031152449603684813
0.27926504973083444 -0.025780495272859943 -0.0281217918354353
0.31176722410827584 -0.035206910239443195 -0.02430155133784619
0.3043118155351252 -0.03961690889476241 -0.026623956914552122
0.3005528486123652 -0.028744395838961018 -0.024730376954682737
0.2828254735818476 -0.04069539533732833 -0.03084795927584973
0.3080601728311152 -0.04142489658473433 -0.025755755658753782
0.29461557034164376 -0.030795600281938923 -0.027195088620789915
0.30747008684783883 -0.04273172842143477 -0.02587332582057324
0.31146270397811837 -0.04927378522036971 -0.02413939690173474
0.2907337582460017 -0.025070663558229817 -0.02517157053531018
0.2750740087380976 -0.025866325961336506 -0.028981559033997923
0.28152352932601876 -0.02373313532947005 -0.02676855778277722
0.28737932804733224 -0.028442379103884113 -0.027656577582963377
0.3048609531274409 -0.032848801480516804 -0.025333128924973875
0.303848270212707 -0.036482717858538044 -0.02635487174571362
0.29044515255599923 -0.030312445031389607 -0.02795939898074475
0.2785833514085383 -0.01795926319240035 -0.024889878984101683
0.27986538771301217 -0.03765046225665511 -0.031159900184281736
0.2857699430337519 -0.04731168972133101 -0.029909335132249266
0.2871197498193354 -0.029969360696062458 -0.02834653114856091
0.2905517852655024 -0.046302761899217976 -0.029275201316483885
0.3145565426698298 -0.043801363574251545 -0.024162612910874754
0.2803921735635371 -0.024850752221331013 -0.027489684577592283
0.2766749894967646 -0.02159794794200362 -0.02707552170337048
0.2808200753083796 -0.04328766094325484 -0.031110338922151
0.2972511089196772 -0.036890056000933064 -0.028042696471818358
0.3028188383927912 -0.041396822797045124 -0.026987157817490965
0.2961429989686579 -0.03356679903148116 -0.027843080516465574
0.2821013367524714 -0.055513378249391926 -0.028099082465775877
0.2804660237184138 -0.052849944697603596 -0.029277108665116697
0.298704329763946 -0.036822523938402546 -0.02782865619242993
0.30915141466766305 -0.03176068888781966 -0.023903600927003294
0.2947390115609736 -0.03443309293864669 -0.028354637380250364
0.2813878095498652 -0.05455514417766036 -0.028502278085359007
0.3041410482278437 -0.03878256307719649 -0.02664118265689221
0.29677939776092477 -0.04279782997249068 -0.02840926503718701
0.3032836950173945 -0.03579726444362105 -0.026373796220429808
0.2812456524720759 -0.03304606305240096 -0.030140958781846434
0.2885066306939692 -0.0396837853062004 -0.03009625529826489
0.2979067600122065 -0.03418072687266768 -0.027446977849610716
0.2916649616113276 -0.031082119809374226 -0.027982078548081785
0.29589760664611764 -0.03594448791621627 -0.028261505122788817
0.3110321796289057 -0.03846615182040633 -0.02497100090564099
0.2798115051141352 -0.049803372489199055 -0.030291967149384886
0.27624619368225045 -0.04101600872157515 -0.03169061994136182
0.281450752054748 -0.027685042487368 -0.02829393004954663
0.31433236960082955 -0.04077744113086165 -0.024246536250718504
0.2891673481813044 -0.03303596006511153 -0.02906694268763867
0.3103109038224787 -0.04662510381816329 -0.024779550786622435
0.2948969042649836 -0.028190340863451374 -0.025925539489396483
0.2812799847474665 -0.03584241496203841 -0.030701540465958983
0.2926216161599726 -0.04147860036967696 -0.02934899186671582
0.29816311958938546 -0.02702644096492232 -0.024464301820405394
0.2843201196542353 -0.05072384701846541 -0.029297553058274656
0.3148996866098017 -0.04443779216884078 -0.023999117370255858
0.28334951761871285 -0.03287592159388961 -0.029811285491593748
0.29904520872741647 -0.035085108147844685 -0.027381174321778685
0.2939782178750605 -0.0305553935634941 -0.027251742835648924
0.29210371140151925 -0.03420298920749129 -0.02878867840350476
0.29250431421905465 -0.023693647252306355 -0.023980133290894896
0.300316456591186 -0.055796589719042194 -0.024578832145341307
0.2819446361413569 -0.02973633633731307 -0.029065214152940184
0.27908361319213815 -0.02924662457583846 -0.029294632430680662
0.27546626690536447 -0.05955525861857833 -0.027385525460847288
0.2752985990396113 -0.031130727397188557 -0.030585907455094725
0.2979972994676203 -0.0341511331665367 -0.027418814654954344
0.2839609420648188 -0.03955155240176619 -0.030698500629075438
0.3017069733491511 -0.0378859006035179 -0.027065031285890013
0.28189480665832467 -0.032463964091524494 -0.029920332189210325
0.30311304691940255 -0.032426711188539875 -0.025656692739137083
0.280917886530456 -0.031879451142534626 -0.029919080491670042
0.2974221146455378 -0.043451961146578205 -0.028252385612138182
0.27828777197509713 -0.04144832121013106 -0.031481675859101686
0.284149829184112 -0.051076557503923786 -0.0292107388931593
0.28710973623901315 -0.032864835129961384 -0.02933525299609509
0.3008893168321223 -0.036478187905535114 -0.02707930659831372
0.28934139374404855 -0.04466223345874251 -0.029746286626466185
0.30332303408294625 -0.029008593426927937 -0.024286501165040403
0.2876998818269343 -0.033580299483522785 -0.02943678950846997
0.307496849333343 -0.038125988112673176 -0.02572112536013928
0.287984434401092 -0.024138238297685993 -0.025338314529069334
0.2781013882508845 -0.025081660615190876 -0.028096132035859495
0.2852335608354182 -0.025917287932619465 -0.02688895916522351
0.2795044219842524 -0.02405511962054671 -0.027373544927247435
0.30750900868087716 -0.038150962458834065 -0.025721989627488524
0.31047642592102 -0.041320648061022175 -0.02518420672000256
0.28011584643035836 -0.030192371474489582 -0.02948632096827832
0.2905380165925593 -0.034947391616091145 -0.029330812450059324
0.2935127652040095 -0.04521765934108199 -0.028881035800584227
0.2950907385697932 -0.03137084470866622 -0.027312658782609373
0.2972487247338862 -0.05111780391810836 -0.027067445274003416
0.2900821006646723 -0.041504915820345295 -0.029819093700059324
0.28874343994766183 -0.04519033061145247 -0.02976083015979138
0.27735132340103097 -0.031765010224565876 -0.030391417499192625
0.2869146502366633 -0.05077314005969466 -0.02891861652911511
0.3001565373292536 -0.027389999495729817 -0.024157010074265867
0.3085253870835871 -0.039234723912462605 -0.025647781844743162
0.2950243389955134 -0.04915418850062789 -0.02799417829097119
0.287851754461822 -0.0214596949684471 -0.02395381784022656
0.3023843205323786 -0.030525203810915363 -0.025276087279923826
0.29794955614715524 -0.03675526009677352 -0.02789174770892468
0.3097655809274287 -0.03774863110660018 -0.025192610974915892
0.28212321165710397 -0.057421501742586506 -0.027388267274506956
0.28076720598846383 -0.01794153081057967 -0.02420612430156079
0.2848516142716975 -0.028795029984697712 -0.028207473512299925
0.28811461094528146 -0.051877673732027424 -0.02845101809085217
0.2949587142816157 -0.04917382823108138 -0.028000734801896483
0.28782201174407906 -0.04087906705020369 -0.03017904614985791
0.29023361567169137 -0.04284301029323043 -0.029758147950776487
0.29584288958221383 -0.03641876207469405 -0.028332643266328245
0.27927959326415963 -0.03957849370120467 -0.0314361081081709
0.2755914366593928 -0.03220396863101424 -0.030825875754960447
0.29281026486068673 -0.0319330357181877 -0.02793740486682263
0.2981957233300776 -0.030122276412233723 -0.0259816870647749
0.29403531912475533 -0.027453240023836506 -0.025715254302628904
0.28416258457809396 -0.02648400889514388 -0.027339927907594114
0.2796947396150202 -0.019961413012728108 -0.025461785550721556
0.305513206755218 -0.03976291047213973 -0.026303611751206785
0.29292309645324655 -0.0269489847290367 -0.0257014558273634
0.3112696445336909 -0.04565241562007369 -0.024690501447328
0.28420931461959786 -0.01954137908099593 -0.023941479678758055
0.2824540174356074 -0.04210191594241561 -0.030909530873902708
0.2767578995576472 -0.039800073968157185 -0.03157781815112439
0.2975885308137507 -0.02956783400653304 -0.025875471587785154
0.29698574904113717 -0.04686960207103194 -0.028038077111848265
0.29884499672561593 -0.04016685114978255 -0.027932189460404783
0.28474170330673165 -0.024941470490679157 -0.026432000156052977
0.3037821686616511 -0.040540780888780964 -0.026759706493028074
0.28844762209564156 -0.024338390694841755 -0.025332622285493284
0.29998696211486764 -0.028450991975054157 -0.02471562480510083
0.2814210093370051 -0.020823832617983234 -0.025375925059922606
0.29265201452880807 -0.03697195278285445 -0.029169164653428465
0.28423357371002145 -0.0233437977897972 -0.025857649798997313
0.2776535189500422 -0.03090452777026595 -0.030115298982270628
0.2755018508782954 -0.02935111151812972 -0.030053936000474363
0.28423864010482736 -0.047081466780886067 -0.030191622729905516
0.2812203801026911 -0.03861489521144332 -0.031013809199937254
0.30088526371627755 -0.03871699796794356 -0.027347140069611937
0.29724371794372506 -0.03366547452090682 -0.027504377122529417
0.29356128338485665 -0.03293162213443221 -0.02809672808230725
0.30646169546752877 -0.03554239498256148 -0.025564871783860594
0.29184282187133737 -0.03804048524974288 -0.029445789809831053
0.2860686219087214 -0.02859398351787032 -0.02792989468158093
0.2847945726266474 -0.029937740432009113 -0.028695397134431273
0.27567726734786935 -0.01883211361049117 -0.02605836844027844
0.2888437545648188 -0.0418359898197502 -0.030010245795854002
0.29730481270461984 -0.026482161151155842 -0.024351947065003782
0.29893529776245065 -0.03482499347804488 -0.027350239511140257
0.28665870789199777 -0.02746739612697066 -0.027288965936311155
0.28443193796783395 -0.02010568605540694 -0.024175368304856688
0.30014360312133737 -0.036271031962618244 -0.027339153047212034
0.2935754692903132 -0.03275403009532393 -0.028038434739716917
0.30317557219177194 -0.0314159356224388 -0.0253902301746687
0.2966560161462397 -0.02623402701495589 -0.024358503575929075
0.2905823624482722 -0.042084362374529255 -0.029717229362138182
0.2765046990266413 -0.03815447913287581 -0.031585268731721315
0.2985909617295832 -0.030634578334078205 -0.026159159894593626
0.31303418043762155 -0.03730454670070113 -0.02429264044345227
0.3033645189157099 -0.03055354581950606 -0.02504714583934155
0.28878426912933297 -0.027276571856722248 -0.0267862901645979
0.29320502642303414 -0.05657189713595809 -0.02585240459025708
0.28195923927932687 -0.041313644515261067 -0.03095888351977673
0.2860052025666804 -0.025684114562258137 -0.026642166133531004
0.286359313761291 -0.02489012108920516 -0.02614992117465344
0.3000091350427241 -0.0410648249256462 -0.027604602332719236
0.2896365559449763 -0.036350157128557575 -0.02964871382296887
0.28445566061645455 -0.02133208142398299 -0.024787955041535765
