ply
format ascii 1.0
element vertex 331
property float x
property float y
property float z
element face 0
property list uchar int vertex_indices
end_header
0.12512162732667864 -0.05548024185394495 -0.05973756815086023
0.12109098243303239 -0.05445456512665003 -0.053744589339596194
0.12173021244592606 -0.05569913991188257 -0.05784574652801172
0.11824453281946122 -0.05370566256736963 -0.052097802411419314
0.09197986530847489 -0.05582237251495569 -0.0596848478425564
0.11935288118905961 -0.05480262644981592 -0.06354365254531519
0.11046407031602799 -0.05622106798385828 -0.057423864852291506
0.10204902696199357 -0.053574770767442874 -0.051554029237133425
0.1250112991291994 -0.05352726586555689 -0.05241287256370203
0.10861176657266557 -0.05439320214485376 -0.05253607536445276
0.12123707341737687 -0.055400520641557864 -0.05603579188476221
0.07746854829378068 -0.05430430181717127 -0.05699861551414148
0.12203684854097306 -0.05389812596534937 -0.06543556357513086
0.09524822640008866 -0.05344456442093103 -0.051771407376629275
0.10964817213602006 -0.05542010076736658 -0.05418846512923853
0.11720735239572465 -0.05594092615341394 -0.05696681643615381
0.10774696278161942 -0.053415685970537356 -0.051269923697811526
0.12910047578401507 -0.05403426297401636 -0.06301269436965601
0.1124091784913057 -0.05507808931564539 -0.053336446534496706
0.10489660906381547 -0.05484583981727808 -0.06393173838744776
0.10680622267312943 -0.05595543988441675 -0.06062257791648523
0.09762698816842973 -0.053492784578554324 -0.06662035490165369
0.10168558764047562 -0.05610075600837915 -0.060254400025707644
0.09885833072252213 -0.05616882451271265 -0.05907577777991907
0.12372237848825395 -0.05373099454139917 -0.05246431137214319
0.10247901486940324 -0.05574205525612085 -0.062332933198315066
0.11793613838739335 -0.055926799852602176 -0.05712134147773401
0.11153445052690446 -0.055942565281145266 -0.05920920277724878
0.0988739173371309 -0.05418568857406824 -0.06587636972556726
0.10582024263925492 -0.05527669199203699 -0.05365893746505396
0.09883082317895829 -0.055052161295168094 -0.054141049634319705
0.09190002488679826 -0.05476886041855066 -0.06413040066848413
0.12804350661821307 -0.05465602882599085 -0.05555782223830835
0.12839422034807146 -0.05438417204117029 -0.05492032076011316
0.11034384774751603 -0.054201006967775515 -0.0524010708440365
0.12377098607606828 -0.054007172662965945 -0.05289236212859766
0.10826144027299821 -0.05624818809723108 -0.057644998084408205
0.09846467184610307 -0.056150376875154666 -0.05934426690230982
0.11272675203866898 -0.05603668101524561 -0.058225219498974246
0.11073550986833512 -0.05596226461624353 -0.059363817225796145
0.10089990901536881 -0.05576649316047876 -0.06231245900283472
0.12129646944589555 -0.05416217454170435 -0.05304167176376001
0.11257091569490373 -0.05442979939674585 -0.052683179627758425
0.12781727718896807 -0.05484837301468103 -0.06174579764495508
0.0962760488945955 -0.05341693766807764 -0.0515904178727688
0.11838412689752519 -0.05567458279823511 -0.05936584378371851
0.10622698473520219 -0.05579343445991724 -0.0553111484159054
0.11815777825899064 -0.05590233214592188 -0.05718532706390039
0.1250175576169008 -0.05548176177238672 -0.060103749286037844
0.11935431170053422 -0.05504897244667261 -0.05519202853332178
0.09536067056245744 -0.054243296463243655 -0.06558770443092005
0.12205943870134293 -0.05403280266021936 -0.06522986794601099
0.10161286997384965 -0.054991513569109134 -0.05327418948302881
0.12597147035188616 -0.05490532525276392 -0.062307064782482546
0.1233666877705568 -0.05477201946472376 -0.05450031663070337
0.08987325834817826 -0.05568698056434839 -0.058269177924496096
0.12832478093690813 -0.05445566781257837 -0.06245595718513147
0.1278477351624483 -0.05443218358253687 -0.05489588285575525
0.10859856414384782 -0.055809259493105105 -0.05532685423980371
0.12187189268655717 -0.05481168635582178 -0.05453357602248804
0.12501863050050677 -0.05552285917495935 -0.05806676055083887
0.10544309424943864 -0.056316018182985476 -0.05736291910300867
0.1139619390923494 -0.05572411425804346 -0.060396616708141726
0.1224995892006868 -0.054671824056856326 -0.054161881457668704
0.09921768712587296 -0.05431333192085474 -0.06573543454299585
0.09195816921777665 -0.05585706241821497 -0.0580790391076626
0.13062489437646807 -0.05377486355995386 -0.06169140840659754
0.11939704823083817 -0.05567589410042017 -0.060518448602062624
0.09314185785837113 -0.053973287422411136 -0.06588989997993128
0.12963137435502947 -0.05454894908165186 -0.05849564577232019
0.10170084642953812 -0.05599617965912073 -0.061532383214336794
0.10286370324678361 -0.05548372872566431 -0.06281939650664942
0.09211782025880753 -0.055646479208223514 -0.05653623248229639
0.12376362490243852 -0.05423474319671839 -0.0645369043458523
0.12729224967546404 -0.05522829302047937 -0.05965647603164331
0.08914676713533341 -0.053457200605623416 -0.05157429481635706
0.129013453002643 -0.05364453800415247 -0.05381468440185205
0.09179419683999955 -0.05573382981514185 -0.06135583425651209
0.11072865533418595 -0.05604645617698877 -0.05874935294280664
0.1178045015294069 -0.05351963647102564 -0.05179116631637232
0.12071204590387284 -0.05563834317421167 -0.06133369113097803
0.08129272269792497 -0.054064065296404056 -0.05447873974929468
0.10103938388414323 -0.05593007810806482 -0.061921482335430544
0.117825571771335 -0.05464008458351343 -0.053789590846401614
0.12577027487344683 -0.054393023330919436 -0.06368187571654932
0.10622045802659928 -0.05453005440925806 -0.05257630849967615
0.10572594809122025 -0.05588796742653101 -0.055642729054790896
0.07765138554162919 -0.05381301053261011 -0.054935668956142825
0.10135254668779313 -0.05604815490936487 -0.06098518277297632
0.11196083235330521 -0.056163072664491824 -0.05748111511359827
0.10841706800050675 -0.0544182957003042 -0.06428275014053003
0.09217098760194718 -0.055260717947237185 -0.06296498085151331
0.11370948361940324 -0.054876029569856814 -0.06321937347541468
0.12205908107347428 -0.05569916971420496 -0.057427888165813845
0.10620722579545915 -0.055048406202547244 -0.06335169578681604
0.11374602126665055 -0.05606696017479151 -0.05775830651412622
0.12444758820123612 -0.05427578099464624 -0.053438608895641726
0.12111652302331864 -0.05471098430847376 -0.06376639510284082
0.11371675538606583 -0.05574157841896265 -0.06026930118690149
0.113357398982715 -0.053353488523714236 -0.06600505615363733
0.11715996670312821 -0.05506953604912012 -0.06297451759467737
0.11514175343103349 -0.056035429317705325 -0.057654445420605105
0.09899905728883683 -0.05446517475342005 -0.0654219141114773
0.11811045217103898 -0.05530652411674707 -0.055619066010815066
0.1230806450802797 -0.055603414852373294 -0.05983782316337244
0.098283175702762 -0.05442491181587427 -0.06544673944602625
0.12964213299341143 -0.054472714740984134 -0.05966946984420435
0.12671745228357256 -0.05528900035118311 -0.059864913474422854
0.11608350681848466 -0.05554348238205164 -0.06158090139518396
0.10941079663820207 -0.054549515325777224 -0.05274341012130396
0.09390065478868424 -0.054572403509370974 -0.053316926013332766
0.10709700393266618 -0.05560100086425989 -0.05464956666122095
0.09813437270708024 -0.055615931827776126 -0.05565226579795496
0.10226464676446854 -0.05604052551483362 -0.06084335352073328
0.10030058431215226 -0.05444478996490686 -0.05274069810996668
0.09226063298768937 -0.0537146926710531 -0.05209580565581934
0.11098105120248734 -0.0551538766214773 -0.06271589304099695
0.1301416199166292 -0.05437943347191065 -0.057567035209041995
0.10346019672937333 -0.05575498946403711 -0.06219113374839441
0.09395146774835526 -0.05342724927162378 -0.051809405337673586
0.12001976775712907 -0.0553469062635824 -0.062420611630779665
0.12415761160440385 -0.055055260736696414 -0.05559996272216455
0.08149961041994035 -0.05357962854599207 -0.06491283084045069
0.09423423218316972 -0.05536735065674036 -0.06295040751586573
0.12948206471986712 -0.05412170298790186 -0.062202875863415164
0.10450038718767106 -0.05577909954284876 -0.0553724219907345
0.11531383204050004 -0.055050313551180056 -0.05361465121398584
0.10867384481019914 -0.05576068170761316 -0.061613207112652224
0.09701994466371476 -0.05544799574112146 -0.055426781426769656
0.1176054220158571 -0.055213391859285525 -0.06267476583610193
0.10983503269739091 -0.055083423931352786 -0.06292316819320337
0.1296019892651552 -0.05462312706207483 -0.05714124942908899
0.10638261246271073 -0.05631083257889002 -0.05743378902564661
0.11107007073945939 -0.05560693152641504 -0.054872577439648074
0.11078373002595841 -0.05534079678749292 -0.05400580669532434
0.11939147519655167 -0.05544650562500208 -0.062152301322323245
0.11938581275529801 -0.0539893508741781 -0.06532982493529932
0.1144744496304506 -0.05564525731300562 -0.06102774048934595
0.1143736879784578 -0.054078549225084475 -0.06473321224342005
0.08919287132806718 -0.055635213930360965 -0.057773922931057375
0.1043091754872316 -0.05388495333885401 -0.05182528997550623
0.12989056515283526 -0.05442905433868616 -0.058751796733242434
0.11337355184144914 -0.054841876108400515 -0.05311385298858301
0.1270823817212099 -0.05398735411857813 -0.0641055455316128
0.12620142507142962 -0.05523884304260462 -0.06137463952193872
0.12100735711641251 -0.053820699531786136 -0.05247101689468042
0.10749450730867326 -0.05628424890732019 -0.05672696734557764
0.1277113597352022 -0.05501958735679834 -0.05646405125747339
0.11907813357896745 -0.05571806438659876 -0.05873287225852625
0.12714878129548968 -0.05495926745628565 -0.056175117741924685
0.12252206015176713 -0.055519074280016116 -0.06169572974334375
0.12635967540330828 -0.054571241218797854 -0.05493325496802942
0.09263363885469376 -0.054288417179338626 -0.052873139630657595
0.09049794482774674 -0.054145544845812014 -0.06542617584357874
0.07375675844736039 -0.053930997926942996 -0.05933788920531885
0.10654321717805802 -0.05595257886146753 -0.060724293242794436
0.12338564204759538 -0.05454283960556238 -0.06386605406890528
0.10525453495569169 -0.05591458090042322 -0.0614381482709469
0.11370495366640031 -0.055406600315324954 -0.062263642798763674
0.08521241354532182 -0.055260330517046145 -0.060676311503750247
0.0995464961487764 -0.055252939541094 -0.05443078781257288
0.13046774673051775 -0.05419781811928003 -0.05832702423225061
0.1157409291226381 -0.05373477943634241 -0.05207664276252405
0.10194182800836503 -0.056303769428484134 -0.05726385618339197
0.10480010914392411 -0.053742587644807986 -0.05164719129691736
0.12226897883005082 -0.05530381210540979 -0.05593947077880518
0.10795709895677506 -0.05412605412697046 -0.06488046551833765
0.09182903575487077 -0.0545970500299856 -0.05325857306609766
0.11930072712488114 -0.05427894004081934 -0.06468606496940271
0.12516007232255877 -0.05380085118507593 -0.06504861022124903
0.13093275236673296 -0.053599059660188846 -0.05451232696662561
0.07294917511529862 -0.05377125747894495 -0.05858901644836084
0.12400794434137284 -0.055570691902391604 -0.05713385845313684
0.09944570469446122 -0.05334284909462183 -0.06672415639053003
0.12737048077173174 -0.05527389057373255 -0.05874154473434107
0.12267381357736527 -0.05475145586227625 -0.05433777476440088
0.09783304142541825 -0.05525314815735071 -0.06349197531829492
0.09896979140825211 -0.05476981409286707 -0.0647078802693905
0.09486025976724564 -0.05501422293876856 -0.05450755859504358
0.11607721852846085 -0.0554476679155752 -0.05518878008018152
0.10810107397623002 -0.05621546514724939 -0.057973211060863894
0.10550070213861405 -0.05453345187401026 -0.0525839378942074
0.10143202948160111 -0.05522882946228235 -0.05386984850059168
0.1031953136879915 -0.05631631620620935 -0.057340597163540286
0.12106666373796403 -0.05347019441818445 -0.051923458825451296
0.09730503367967545 -0.05606520183777063 -0.06019351388106958
0.1272760968167299 -0.054369360286943606 -0.05459768081794397
0.09320891308374345 -0.05518254645561426 -0.06329232956061975
0.08922553467340409 -0.054597854692690066 -0.06400487328658716
0.12236485290117204 -0.05380433805679529 -0.052492325555187624
0.09976119207925736 -0.05354741223549097 -0.05160508061538355
0.08572584795541703 -0.05489745743965357 -0.05565026904235498
0.10698312925882279 -0.05588513620590418 -0.06120512391219751
0.09353846716470658 -0.053989082653276614 -0.052509759913784426
0.10897356676645219 -0.054802835066072635 -0.06351241971145288
0.1192192177731508 -0.05524510153030603 -0.0556284239400448
0.10231081056184708 -0.05617350347732752 -0.05920163298736231
0.0966674427945131 -0.05367028721069544 -0.051844214450222414
0.10759243774003922 -0.055905997831575564 -0.060864721785885256
0.10805255579538285 -0.0541165173838064 -0.06488386298308985
0.10541367935724198 -0.056331813413850955 -0.05716911460052149
0.10804698276109635 -0.056284993965379886 -0.057359104405743044
0.11754471468515336 -0.054674953300707034 -0.06374061609397547
0.12261215257234513 -0.055528014976732425 -0.061663245211941164
0.11013299631662309 -0.056119233448259524 -0.056420957099300784
0.11179483341760575 -0.055650591928713015 -0.061284725915295046
0.12883270191736163 -0.054826378900758914 -0.059689675818783205
0.0942536334950441 -0.055846750814668826 -0.06125429774413721
0.10057068275995194 -0.05571818359588831 -0.05527854467521326
0.12272793459482133 -0.055149138052217654 -0.055548583518368166
0.11564100193567216 -0.053399533111803225 -0.06609529758582727
0.12077820705957353 -0.055711120445482425 -0.05865046883712427
0.12580264019555987 -0.05528327830528467 -0.06141305471549646
0.10695654558725297 -0.05381533511375635 -0.06564996148238794
0.12757131862230242 -0.05340442069267481 -0.05275634432922022
0.09506375002450883 -0.056051343757860354 -0.057726328622204226
0.09994072126932084 -0.055898249227754764 -0.05592433119903223
0.1132491569478029 -0.055618017990343264 -0.061376308451992434
0.10635316776819169 -0.05410504348968714 -0.05206048990378992
0.09195459293909013 -0.05586192019676416 -0.05755326653609888
0.11187288569993913 -0.05553567417358606 -0.06196225191245691
0.12355313109941422 -0.05560749777054041 -0.05900204683433191
0.09297043489999711 -0.05380037434791773 -0.06604382897506372
0.10940426992959916 -0.05344277628158777 -0.06604472304473535
0.11428985404558122 -0.055282592851869754 -0.06250906492362635
0.11108249830789506 -0.05470693119262903 -0.06353188062797205
0.11583421039171159 -0.054771393615953616 -0.06357232237945215
0.12068710136003434 -0.05348807581161707 -0.051938359986645144
0.1235892813164705 -0.05562806137298792 -0.05795318390021936
0.09900802778787553 -0.0562316776106283 -0.057254081021648806
0.12492686914987504 -0.05551537879204004 -0.05882663036475794
0.08328408407754838 -0.0550555289575979 -0.058850978862148684
0.12164310025758683 -0.05569928892349451 -0.05795026327262537
0.11500129508562028 -0.056101769287340335 -0.057029878150326174
0.10565033959932267 -0.053571015674822024 -0.06618929411063806
0.10052124070711076 -0.055059135038606814 -0.05370653177390711
0.08218217300958573 -0.05367952593063562 -0.06490541006217615
0.13166499542779864 -0.053530782539598636 -0.05874112750182764
0.12029722737855851 -0.054394722063295535 -0.06453803683410303
0.10770711707658708 -0.055703997690431765 -0.05495602394233362
0.10417780685014665 -0.05441096432899683 -0.06490800286422388
0.13074407386369646 -0.05384969719146936 -0.061027800093990725
0.09554052757806718 -0.054179400284044436 -0.0526301910985531
0.12993351029939593 -0.0544824899027273 -0.05703753734717981
0.13064456390924395 -0.05392217643951624 -0.06070539857040064
0.11830300497598588 -0.05589896448349207 -0.057119493733745974
0.10110938953943192 -0.054232031185381106 -0.06568059826980249
0.08819085764474809 -0.05431395776962488 -0.06445417309890406
0.11345974015779435 -0.05398496993278711 -0.06481457258353845
0.1221312026936525 -0.05402007706855982 -0.06525031233916895
0.11728790807313859 -0.05484980352615564 -0.063404118071896
0.10714084314889848 -0.05471473940109461 -0.05279574299941675
0.10244292425699174 -0.054523885328523806 -0.06488463784347193
0.09734255480356156 -0.05474117406105249 -0.06462708617339746
0.12675378131456316 -0.055324614126436404 -0.059202705870968264
0.09787646340913712 -0.05614194281791895 -0.05886564160476343
0.09671560334749162 -0.05610066660141199 -0.05705905462394373
0.10194048690385758 -0.05606731780266016 -0.056397800694805544
0.1003513376671785 -0.055046200830690555 -0.06403354312072412
0.117041800494861 -0.05528119214271753 -0.055321787844997805
0.1288935284573549 -0.053804665882341556 -0.06375170255790369
0.0981172661740297 -0.05613347895836084 -0.05960107351432459
0.11195308374948441 -0.05596414216255396 -0.058943932305675906
0.11964193391389787 -0.05578207977508753 -0.05726066733489649
0.12003764915056168 -0.05577787764763086 -0.05736691261420862
0.1244222264248842 -0.05554062135910242 -0.05971539522300379
0.10685924100465714 -0.05510544784759729 -0.0631355097402157
0.11345708775110185 -0.053369164545290164 -0.05164820457587854
0.11470616268701493 -0.05447977789139002 -0.06400374079833643
0.12434986638612687 -0.053623259145967654 -0.06529322768340723
0.11819991874284684 -0.054906040508501223 -0.05470246578345911
0.09369171070642411 -0.05530667312835901 -0.055416589032513064
0.09591207313127458 -0.05600073941444605 -0.05954009796271936
0.10225180196351945 -0.056219458658449344 -0.05865422392974512
0.0919297079998964 -0.05550798781608789 -0.06230089570174829
0.12477773832864701 -0.05388051279281824 -0.06504801417480127
0.09036139058656632 -0.054342627603761844 -0.064907704841
0.11505181002206742 -0.055667013008348636 -0.05560416484962122
0.07196194338388383 -0.05352815993522852 -0.057026123057705325
0.12772918152399004 -0.05371722586845606 -0.053276484261852664
0.08770138430185258 -0.055206418115846805 -0.05587685609946863
0.11594105171747147 -0.054980635721437625 -0.06318441535125391
0.11759519981927812 -0.05411407359337061 -0.0648663094152035
0.09914994644708573 -0.0540705025980398 -0.052331571828228396
0.09504583882875382 -0.05516383059715479 -0.054903720866543215
0.0846081714589113 -0.05518782146667688 -0.05783337856422083
0.10831889915056168 -0.055795669634096316 -0.061489587079388064
0.07780489730424821 -0.05342167623733728 -0.05353814865241663
0.10432747411317765 -0.055313348848573855 -0.05378121639381067
0.07600230383462846 -0.054146200496904544 -0.05802864338050501
0.11425614761896073 -0.05387678750251978 -0.05218852068076746
0.1053586642701143 -0.05545216806625574 -0.06262577081809656
0.10896662282533585 -0.053742200214616946 -0.06553668285499231
0.114042852397632 -0.055476933796159915 -0.05481029058585779
0.10569170522279679 -0.05613556512092798 -0.059320872079235476
0.09266239809579789 -0.05403608091568201 -0.06578553224692957
0.10948899793214738 -0.055124551136247806 -0.0628649642575802
0.12510651754922808 -0.055006235916368655 -0.062378858577114504
0.08414635467119157 -0.055133611042253665 -0.0572107484448971
0.11019561099595963 -0.055126875717394046 -0.05333486701141016
0.11297750877923905 -0.05603924401497095 -0.056488846789699954
0.12450594114847123 -0.054663568813554934 -0.05452242995391504
0.09906152295656144 -0.05517405279373377 -0.0637446394074978
0.10794723438806474 -0.05591407426094263 -0.06071696187148706
0.0871633927781099 -0.0553011298963949 -0.06176054979453699
0.09936103629655778 -0.05566528447365015 -0.055467670213085574
0.09586731004304826 -0.05511361368393152 -0.06364107633720056
0.1190486888844484 -0.05575397618507593 -0.05786669756065027
0.11651373314447343 -0.05473232277130335 -0.053173785458904665
0.09748298334665238 -0.055690825063936404 -0.055940156232220095
0.09797043013162553 -0.05610179908966272 -0.060345148097378176
0.11897886204309403 -0.05572465069984644 -0.058396314631802004
0.08295521545000016 -0.053822636682741336 -0.05360907817969934
0.12509811329431475 -0.055377870876543216 -0.05686000491271631
0.11287823724336564 -0.05556049950813501 -0.0549277415383877
0.1209698359925264 -0.05521669991707056 -0.06260276342521326
0.12512162732667864 -0.05548024185394495 -0.05973756815086023
0.12109098243303239 -0.05445456512665003 -0.053744589339596194
0.07903057741708695 -0.054595142681352786 -0.059945856582027834
0.12173021244592606 -0.05569913991188257 -0.05784574652801172
0.11824453281946122 -0.05370566256736963 -0.052097802411419314
0.11935288118905961 -0.05480262644981592 -0.06354365254531519
0.11046407031602799 -0.05622106798385828 -0.057423864852291506
0.1250112991291994 -0.05352726586555689 -0.05241287256370203
0.11113369869775712 -0.05436441310142725 -0.06415996457229273
0.08890924262590348 -0.05380231149887293 -0.06570175791869776
0.12123707341737687 -0.055400520641557864 -0.05603579188476221
0.12203684854097306 -0.05389812596534937 -0.06543556357513086
0.09524822640008866 -0.05344456442093103 -0.051771407376629275
0.0970910530049318 -0.053811639625780276 -0.052001183282238406
0.11720735239572465 -0.05594092615341394 -0.05696681643615381
