ply
format ascii 1.0
element vertex 418
property float x
property float y
property float z
element face 0
property list uchar int vertex_indices
end_header
0.16784993218965472 -0.006438881237260987 0.33529898022522314
0.1737265627343172 -0.004421293813936402 0.3123454699407993
0.1711317937333101 -0.0028962791750356456 0.3184315214048801
0.1722961108643526 -0.0069356561491414805 0.31900956724991186
0.1793054680783266 -0.014217883426897218 0.28609856461395605
0.17093360828943194 -0.0024575889894887706 0.2947641858946262
0.17058143424577654 -0.0021298230478688975 0.31839420889725073
0.1709111969429964 -0.0026692748854085704 0.32423081492294653
0.1735577027756685 -0.007282942611925294 0.315874184120792
0.1697437803704256 -0.0016745329687520762 0.31306984518875464
0.17228320645875872 -0.004869252521745851 0.3230016479383884
0.16888720202035845 -0.009521007616274049 0.32749595736374243
0.17552170562334002 -0.014562159855119874 0.29301002119888647
0.17489359187669695 -0.00894334920143335 0.3122934350859104
0.17188767003602923 -0.005498379547350099 0.32574983929504736
0.16845721411294878 -0.002900928337328126 0.3349294314276157
0.17213935064859331 -0.0030378104040548106 0.31242939328064306
0.16766715454645098 -0.0006031394789144297 0.3325674781691013
0.17201334642953814 -0.010032832700960328 0.3163774857412754
0.17155936765260638 -0.008931785900346925 0.3207437047850071
0.16959882187433184 -0.0014418364355489512 0.320496405113834
0.17281690644807757 -0.0037838519403859874 0.3133954653631626
0.17060706424302996 -0.011407584030382325 0.3167676577459751
0.17458159136362017 -0.009258389551393678 0.31333627795090063
0.17011559414453448 -0.007364124138109376 0.3300609836470066
0.16931081223077715 -0.001525282938234498 0.3294896135221897
0.17090255426950396 -0.0073611439058706065 0.3284895667921482
0.16832921313829363 -0.0005947352240010997 0.32205703352798803
0.17042637276239336 -0.009783834297411134 0.3226180920492588
0.17065343665666521 -0.0020258725473806163 0.32054492329468115
0.17318347501344622 -0.01527574666237085 0.29326828812469824
0.17316103386468829 -0.007113814432375123 0.31693371628631933
0.17609462546892107 -0.012265086252443482 0.2992583165060459
0.1736444573361391 -0.004849970419161012 0.284063185204166
0.16915309834070147 -0.0011733175108358165 0.32364484166015967
0.17604580926485003 -0.0053288341352865 0.28723671530594214
0.16844332623071612 -0.0009261966535970469 0.33068307732452734
0.17878839778490008 -0.010987073261491944 0.29609503840317114
0.171496305938434 -0.0029847324678823253 0.3141833195578037
0.16945538329667986 -0.006852984506838014 0.3310508975874363
0.16925687002725542 -0.012640416700594117 0.31284960602630957
0.17580089377946795 -0.009746223766557862 0.3072391400228916
0.1710000674683565 -0.009512245733492066 0.3212700137983738
0.16937408256120623 -0.0014593303987905284 0.31938209627975805
0.1689614694077486 -0.005554407913438966 0.33271273468841894
0.16844511437005938 -0.004292190153352906 0.335965360153812
0.1708239655453676 -0.006428569633714845 0.3292858848463474
0.17164203929490984 -0.009152770120851686 0.3195781359564243
0.16951069640703142 -0.012091666538469483 0.31526633595337256
0.17264888095445574 -0.00457236178611963 0.3157172450910984
0.17185438084192217 -0.011447697956316163 0.31340863798965796
0.1697803180176729 -0.009392410595171144 0.3246181855093418
0.1687325577694887 -0.005285352546922853 0.3339584717642246
0.16844672369546831 -0.009894013483278443 0.32715692614426
0.168318633313846 -0.0075386763403341075 0.3322606930624424
0.17486492204256 -0.012290507633440187 0.3035726199041782
0.16963833975381792 -0.004413426000826051 0.33198686932434424
0.16772315311021746 -0.0003147722074910899 0.3210657486807285
0.17160663413591326 -0.002945125181429078 0.31343844031204565
0.17073834347314776 -0.0022828877756521006 0.3228227147947727
0.1713219325501436 -0.01183542617058008 0.31248202418197973
0.16823542522973955 -0.012461185533754518 0.31611456965317114
0.17140230941362322 -0.006341725666277101 0.3273780593763767
0.171915863033008 -0.003351181823961427 0.3155246624838291
0.1710133593041414 -0.010055124838106324 0.31911494826187475
0.1676731746155733 -0.006204724390260865 0.3360262164961277
0.16767153548784197 -0.0057131946871206065 0.33668270205368384
0.16909575867242754 -0.013752996999971559 0.3074850091825901
0.17316723274774493 -0.009441793043367555 0.3140218505751072
0.16922268676347674 -0.0033812225649282237 0.3333251128088413
0.16859338092393816 -0.008741259653322389 0.3294397244345127
0.1809947829205507 -0.010537982065431764 0.2841780433546482
0.17322045969552935 -0.010736018497697999 0.31238051747192724
0.1695964674908632 -0.001457125026933839 0.3246082315336643
0.16807902264184893 -0.0009960830995961924 0.3136536130796848
0.17147684502191485 -0.0030151010343953868 0.31609543656219824
0.17506394195146502 -0.008414954025499513 0.31141826008667334
0.17201307820863665 -0.00531280048584192 0.3249089965712009
0.17059094118661822 -0.0036025048086568614 0.3292604336630283
0.16832161354608477 -0.0005082190821096202 0.3247249970327793
0.17105040359086932 -0.0022877157518789073 0.31100984906067236
0.1703175644833559 -0.011489778835527589 0.3170886287580906
0.16953897881097735 -0.0015482009241506358 0.31921794508804663
0.16890880870408953 -0.01246297367309778 0.31458910797943457
0.1687631051499361 -0.0008686483690664073 0.32219138239731177
0.16958889770097674 -0.010725945312730958 0.32071765755524023
0.17322838711328448 -0.004152238447420289 0.31326141451706274
0.16806617784089983 -0.0012464524099752208 0.29963775967468603
0.17199621009416521 -0.009935796339265992 0.31666793917526587
0.17013067411966265 -0.008448034603349855 0.32917806004394873
0.17448035287446917 -0.005638748485796144 0.3139411458860813
0.16827318477220476 -0.0012455881426259776 0.3315410861860691
0.16779604959077776 -0.012055337507478883 0.31821223591675146
0.17133030700273455 -0.009669751007311036 0.31923898552765234
0.1697030405957216 -0.0017711819002553721 0.2984423289190708
0.16869664597101153 -0.001343160946123292 0.31171729658951147
0.17203224110193194 -0.014915376980058839 0.29597803448547705
0.16914618420190752 -0.013708382923357179 0.307666803349155
0.1707627217728609 -0.008505910713426759 0.32552679871429785
0.17028686809129656 -0.00977793343757837 0.3228457817923008
0.17049318956918658 -0.011857211668245484 0.3143370995413242
0.1704134385544771 -0.0045461953470632335 0.33030554150452
0.17103487658090533 -0.007879853327028443 0.3277961263548313
0.16901848125047625 -0.0014075935671254893 0.3171767244230686
0.1734349172074312 -0.007160365659944703 0.31604817007889136
0.16812041806764544 -0.0010306835958883067 0.3129059920202671
0.17282402920312823 -0.008153736669771363 0.3175509819876133
0.17109334873742998 -0.00431373723243921 0.3284507641683994
0.17954513835496844 -0.008631140072099855 0.2878018865477024
0.16780570554323138 -0.0008782447168752452 0.31382086371292456
0.17198723959512652 -0.004164069969408204 0.3237779984365879
0.1743521730858797 -0.010878950435869386 0.3100479493032871
0.17457679318971575 -0.005999863226167848 0.31386211012710913
0.1682536940533632 -0.0010992885420247813 0.31267746781219824
0.16840371894426287 -0.011351585466615846 0.3209572682272373
0.17397538232393206 -0.004820793945543458 0.31301119421829565
0.17050409721918047 -0.011842370111696412 0.3143952140699802
0.1748290400464052 -0.006154686290971925 0.31102779005874975
0.17228559064454974 -0.004949122745744874 0.3221050152670322
0.1677799861390108 -0.0001361668894216319 0.32409873103012427
0.17587218093461932 -0.00468266018127649 0.2991263518225132
0.16792339491434038 -0.007597237903825929 0.3329656968008457
0.16934827375001849 -0.0013917983362600108 0.3274132261167942
0.17222387003488482 -0.005669266063921144 0.3201478371511875
0.17236891793794573 -0.01027992375587671 0.3148954162489353
0.17195147680826128 -0.003984809000246217 0.3206523308645664
0.16993272709436358 -0.001766204912416627 0.3263644227873264
0.17103436994142474 -0.002594202835313966 0.31440069769729956
0.1737844388443941 -0.016688674766771487 0.28481557463516577
0.16909638452119768 -0.012952208597414186 0.3114891300093113
0.17238212036676348 -0.005641460497133424 0.3185711154829441
0.17248446154184283 -0.011734843332521607 0.31087526177276953
0.17139035868234576 -0.0037494004557058116 0.32730283831467016
0.16814724015779436 -0.0036574602911397715 0.3370725164305149
0.17159909414834917 -0.0036037565061971446 0.3237918267141758
0.17202222752160967 -0.004551917392961671 0.32537593935837134
0.17486510085649432 -0.006455540735475709 0.31101646517624243
0.17941555785722674 -0.008588105518572023 0.2880628952871738
0.16976422476358355 -0.0016363859960958262 0.3264659294973789
0.16756159472055376 -0.011709302742235353 0.32085838412155493
0.17085338043756426 -0.00994527347778528 0.31951388214935644
0.17142212795801104 -0.0036803782770559092 0.3264128813635288
0.1710974018532747 -0.009497225363008668 0.3222915778051792
0.17080906438417376 -0.0037768185923024913 0.3288455853353916
0.16848850655145586 -0.0006843210050985118 0.32188304756988867
0.17161125349588335 -0.0026060939619466563 0.3119751462828098
0.17138100075311602 -0.0031042099783345958 0.32036396359314306
0.1703226010758394 -0.001987069923631837 0.31548502539505346
0.17049131202287615 -0.008378148157350709 0.32718899344314917
0.1721943359333986 -0.004360199053041627 0.3212156543623386
0.17170906471795977 -0.008334636766664674 0.32354029511322363
0.16774762081689776 -0.0051780641863271495 0.3371281871687351
0.1679095368344301 -0.0039292872736379405 0.3379969248663364
0.17353433775491656 -0.012161940414659669 0.3075031289946018
0.16907969522066058 -0.008216381151430299 0.33018287514557226
0.16845083641595782 -0.013075471002809693 0.31229283903946264
0.17478880691118182 -0.006701678116075685 0.3139376888166843
0.16839752006120623 -0.0011157096216604014 0.3131946573149143
0.16783366012163103 -0.0006135702917501231 0.31913920735229834
0.1708954315144533 -0.012268811542741944 0.3110841760527073
0.171549652095508 -0.007908552963487794 0.32566603516449316
0.17582634496278704 -0.0051400066206380626 0.29234811161865576
0.17214936422891558 -0.008640438396684815 0.31905582045425757
0.16755190896577776 -0.012873351652376344 0.3144684085737644
0.17322221803255022 -0.010382175523988893 0.3127993593107639
0.16940763997621477 -0.011729151088945558 0.3177485713850437
0.17270189928598345 -0.0052876175234243174 0.31727686022629126
0.17057529496736468 -0.0025875867197438975 0.3274632940184055
0.17302206563539446 -0.005369454700700929 0.3152683625112949
0.16887534069604815 -0.0010362864324971934 0.327780807961124
0.17211828040666521 -0.007704734880678346 0.3195789108168064
0.1694637577492708 -0.0044644177744313975 0.3322029957662998
0.1729885380227083 -0.01142174013351648 0.3113037595640598
0.17406821655816973 -0.004022032100908448 0.3053159961592136
0.1676784794289583 -0.011688828546755006 0.32044031714310034
0.1690924804169649 -0.006718039591066529 0.33161749934067114
0.16833150791711748 -0.015026271421663453 0.30014106129516943
0.1716084520775789 -0.0080143810102865 0.32494624947418554
0.1688037853199953 -0.0061585307905599376 0.3328532824407993
0.17153150248117388 -0.006470799524538209 0.3267458925138889
0.1746040325123781 -0.005840361196748902 0.3129235753904758
0.17555383252687395 -0.007753223259203126 0.30940141772140844
0.1680248718220705 -0.000950843174211671 0.3166979203115879
0.1683210473019594 -0.009415328581087281 0.32843055819382055
0.16814992236680926 -0.00098809607719629 0.317576790798801
0.16852730917520464 -0.010078400451891114 0.32587918137420996
0.17001566695756853 -0.002271711904756715 0.32976921891083105
0.16998148369378985 -0.0034177304098531505 0.330962861527103
0.17211097883768023 -0.006281137544862916 0.3228995451818882
0.16861781882829607 -0.0011741817781850596 0.31818243359436377
0.1747292916733736 -0.011638790447466065 0.3067527661215244
0.17474076556749285 -0.00904047497009485 0.31355544422973974
0.17405540155954302 -0.007730901319734742 0.31532039736618384
0.1722728650528902 -0.005121976215593507 0.3213342080007969
0.17396358060426653 -0.007028937418214967 0.31526079272140844
0.1719446520764345 -0.005953371603243043 0.32498618458618506
0.1679354648549074 -0.001457303840868165 0.33423348759521826
0.1698604862648958 -0.009400904257051637 0.32428672407974585
0.17367989229745806 -0.004292845804445436 0.29115983342041357
0.1717196743447298 -0.007475078184358766 0.32520880793442114
0.16994056510515154 -0.0017026663610860606 0.3034653911482273
0.16936001586503924 -0.011415898878328492 0.3193008551489292
0.1728582124669069 -0.010454386551134278 0.31321009491791113
0.16958386110849322 -0.0014018715212270518 0.3207373270880161
0.17335054683275164 -0.008524835188142945 0.3150320300947605
0.1687098185975069 -0.009131074030153443 0.3287152299772678
0.1687829236943239 -0.011343240816347291 0.3204227933775364
0.16759315537996233 -0.0002442003080770274 0.33163007592071875
0.17441016840524615 -0.0050879717657491465 0.2874529013525425
0.1681968312222475 -0.006760805923692872 0.3340185532461582
0.17226878213472308 -0.005310028869859864 0.3190917620550571
0.17213535713739336 -0.006369292814485719 0.32187363003601416
0.1747692565876955 -0.01660770185684412 0.2841704735647617
0.17209247159547747 -0.004393160421602418 0.32437410448898657
0.16932154106683672 -0.0031859875509664317 0.33263548706879004
0.17164245652742327 -0.0035077930281087657 0.32044127081741675
0.16854200172014178 -0.012822181064836671 0.31345906351913794
0.17588922786302508 -0.006896376688234498 0.3063863763700901
0.16910395431108416 -0.015873283226244143 0.29406800364364966
0.173051778550815 -0.006072908718340089 0.3163815388571201
0.17130712079591692 -0.0055145324060842296 0.3281353959928928
0.1691360812146181 -0.0013256371805593272 0.32852431630005224
0.1680500547844881 -0.0125556886980459 0.3159312853704868
0.1723147373158449 -0.004654169161073854 0.32234325503219946
0.17401442336625994 -0.00467801101898401 0.31223979090561255
0.1717084984738344 -0.0027575791666433116 0.2940345058332859
0.16839018868989886 -0.0036793948004171153 0.3363988647352634
0.16930240797586382 -0.0015229583570882579 0.32961156462540014
0.17153186010904253 -0.010927289802782228 0.3161977777372776
0.1705767254788393 -0.004638224918596437 0.3298461089025913
0.1675481538731569 -0.006795466024629762 0.3357374915968357
0.16898554968423785 -0.010515719730608155 0.3228355893980442
0.17117512631006182 -0.0030075908491536876 0.31789883469452246
0.1714869182068819 -0.008901745159380128 0.3223526129614292
0.16868988084382952 -0.000828772861711671 0.3222983727346836
0.16802561688013018 -0.001703798849336793 0.3343951949964939
0.16901672291345538 -0.004945665676347901 0.3330242881666599
0.1677196662384981 -0.010461717922441651 0.3262973079573093
0.16784993218965472 -0.006438881237260987 0.33529898022522314
0.1737265627343172 -0.004421293813936402 0.3123454699407993
0.1711317937333101 -0.0028962791750356456 0.3184315214048801
0.1722961108643526 -0.0069356561491414805 0.31900956724991186
0.17411208557672442 -0.0038291514704152842 0.3022008190046726
0.17910913037843645 -0.00821170218681543 0.2948298702131687
0.17058143424577654 -0.0021298230478688975 0.31839420889725073
0.1709111969429964 -0.0026692748854085704 0.32423081492294653
0.1735577027756685 -0.007282942611925294 0.315874184120792
0.1697437803704256 -0.0016745329687520762 0.31306984518875464
0.17228320645875872 -0.004869252521745851 0.3230016479383884
0.16888720202035845 -0.009521007616274049 0.32749595736374243
0.17489359187669695 -0.00894334920143335 0.3122934350859104
0.17188767003602923 -0.005498379547350099 0.32574983929504736
0.16845721411294878 -0.002900928337328126 0.3349294314276157
0.17213935064859331 -0.0030378104040548106 0.31242939328064306
0.16766715454645098 -0.0006031394789144297 0.3325674781691013
0.17654368686265887 -0.009428560812227418 0.3037181744467197
0.17201334642953814 -0.010032832700960328 0.3163774857412754
0.17155936765260638 -0.008931785900346925 0.3207437047850071
0.16959882187433184 -0.0014418364355489512 0.320496405113834
0.17281690644807757 -0.0037838519403859874 0.3133954653631626
0.17060706424302996 -0.011407584030382325 0.3167676577459751
0.17458159136362017 -0.009258389551393678 0.31333627795090063
0.17348546194620074 -0.00328260668014734 0.29789164160599096
0.17011559414453448 -0.007364124138109376 0.3300609836470066
0.16931081223077715 -0.001525282938234498 0.3294896135221897
0.17090255426950396 -0.0073611439058706065 0.3284895667921482
0.16832921313829363 -0.0005947352240010997 0.32205703352798803
0.17042637276239336 -0.009783834297411134 0.3226180920492588
0.17834791946000994 -0.012089341957323243 0.29612847660889013
0.17313537406511248 -0.004289567548982789 0.2892204770933567
0.17065343665666521 -0.0020258725473806163 0.32054492329468115
0.17040306734628619 -0.0030107200930043956 0.2890729555975376
0.17316103386468829 -0.007113814432375123 0.31693371628631933
0.16915309834070147 -0.0011733175108358165 0.32364484166015967
0.17604580926485003 -0.0053288341352865 0.28723671530594214
0.16844332623071612 -0.0009261966535970469 0.33068307732452734
0.171496305938434 -0.0029847324678823253 0.3141833195578037
0.16945538329667986 -0.006852984506838014 0.3310508975874363
0.16925687002725542 -0.012640416700594117 0.31284960602630957
0.1710000674683565 -0.009512245733492066 0.3212700137983738
0.16937408256120623 -0.0014593303987905284 0.31938209627975805
0.1689614694077486 -0.005554407913438966 0.33271273468841894
0.16844511437005938 -0.004292190153352906 0.335965360153812
0.1708239655453676 -0.006428569633714845 0.3292858848463474
0.17992422389573992 -0.013667911369554689 0.2859575400244175
0.17164203929490984 -0.009152770120851686 0.3195781359564243
0.16951069640703142 -0.012091666538469483 0.31526633595337256
0.17264888095445574 -0.00457236178611963 0.3157172450910984
0.17185438084192217 -0.011447697956316163 0.31340863798965796
0.1697803180176729 -0.009392410595171144 0.3246181855093418
0.1687325577694887 -0.005285352546922853 0.3339584717642246
0.17471391367502154 -0.005149751980058839 0.2853508243452488
0.16844672369546831 -0.009894013483278443 0.32715692614426
0.168318633313846 -0.0075386763403341075 0.3322606930624424
0.16777351903505267 -0.016488760788194827 0.29100724552978857
0.16963833975381792 -0.004413426000826051 0.33198686932434424
0.16772315311021746 -0.0003147722074910899 0.3210657486807285
0.17160663413591326 -0.002945125181429078 0.31343844031204565
0.17073834347314776 -0.0022828877756521006 0.3228227147947727
0.1713219325501436 -0.01183542617058008 0.31248202418197973
0.16823542522973955 -0.012461185533754518 0.31611456965317114
0.17140230941362322 -0.006341725666277101 0.3273780593763767
0.171915863033008 -0.003351181823961427 0.3155246624838291
0.1710133593041414 -0.010055124838106324 0.31911494826187475
0.1777352433163637 -0.0069602132627889415 0.29083725308288916
0.1676731746155733 -0.006204724390260865 0.3360262164961277
0.17165047335214556 -0.016988098699800662 0.2855103859793125
0.17263555931634844 -0.013931542713396241 0.3016038188826023
0.16767153548784197 -0.0057131946871206065 0.33668270205368384
0.17316723274774493 -0.009441793043367555 0.3140218505751072
0.16922268676347674 -0.0033812225649282237 0.3333251128088413
0.16859338092393816 -0.008741259653322389 0.3294397244345127
0.17322045969552935 -0.010736018497697999 0.31238051747192724
0.1695964674908632 -0.001457125026933839 0.3246082315336643
0.18005296992845476 -0.012226104814760377 0.2876354703794895
0.16807902264184893 -0.0009960830995961924 0.3136536130796848
0.17147684502191485 -0.0030151010343953868 0.31609543656219824
0.17506394195146502 -0.008414954025499513 0.31141826008667334
0.17201307820863665 -0.00531280048584192 0.3249089965712009
0.17059094118661822 -0.0036025048086568614 0.3292604336630283
0.16832161354608477 -0.0005082190821096202 0.3247249970327793
0.17105040359086932 -0.0022877157518789073 0.31100984906067236
0.1703175644833559 -0.011489778835527589 0.3170886287580906
0.16953897881097735 -0.0015482009241506358 0.31921794508804663
0.16890880870408953 -0.01246297367309778 0.31458910797943457
0.1687631051499361 -0.0008686483690664073 0.32219138239731177
0.16958889770097674 -0.010725945312730958 0.32071765755524023
0.17322838711328448 -0.004152238447420289 0.31326141451706274
0.17199621009416521 -0.009935796339265992 0.31666793917526587
0.17013067411966265 -0.008448034603349855 0.32917806004394873
0.17448035287446917 -0.005638748485796144 0.3139411458860813
0.16827318477220476 -0.0012455881426259776 0.3315410861860691
0.16779604959077776 -0.012055337507478883 0.31821223591675146
0.17133030700273455 -0.009669751007311036 0.31923898552765234
0.16869664597101153 -0.001343160946123292 0.31171729658951147
0.1707627217728609 -0.008505910713426759 0.32552679871429785
0.17028686809129656 -0.00977793343757837 0.3228457817923008
0.17049318956918658 -0.011857211668245484 0.3143370995413242
0.1704134385544771 -0.0045461953470632335 0.33030554150452
0.17103487658090533 -0.007879853327028443 0.3277961263548313
0.16901848125047625 -0.0014075935671254893 0.3171767244230686
0.1734349172074312 -0.007160365659944703 0.31604817007889136
0.16812041806764544 -0.0010306835958883067 0.3129059920202671
0.17635706471986712 -0.01029440768455713 0.30312451218475683
0.17282402920312823 -0.008153736669771363 0.3175509819876133
0.17109334873742998 -0.00431373723243921 0.3284507641683994
0.17954513835496844 -0.008631140072099855 0.2878018865477024
0.1676230173069948 -0.014080882150880982 0.3069145927320896
0.16780570554323138 -0.0008782447168752452 0.31382086371292456
0.17198723959512652 -0.004164069969408204 0.3237779984365879
0.17457679318971575 -0.005999863226167848 0.31386211012710913
0.1682536940533632 -0.0010992885420247813 0.31267746781219824
0.16840371894426287 -0.011351585466615846 0.3209572682272373
0.17397538232393206 -0.004820793945543458 0.31301119421829565
0.17050409721918047 -0.011842370111696412 0.3143952140699802
0.1748290400464052 -0.006154686290971925 0.31102779005874975
0.17228559064454974 -0.004949122745744874 0.3221050152670322
0.1677799861390108 -0.0001361668894216319 0.32409873103012427
0.16792339491434038 -0.007597237903825929 0.3329656968008457
0.17029399084634722 -0.0165324211904928 0.28901156281341894
0.17567041921205462 -0.015840172846071414 0.287222946632999
0.16934827375001849 -0.0013917983362600108 0.3274132261167942
0.17222387003488482 -0.005669266063921144 0.3201478371511875
0.17236891793794573 -0.01027992375587671 0.3148954162489353
0.17195147680826128 -0.003984809000246217 0.3206523308645664
0.16993272709436358 -0.001766204912416627 0.3263644227873264
0.17103436994142474 -0.002594202835313966 0.31440069769729956
0.16909638452119768 -0.012952208597414186 0.3114891300093113
0.17238212036676348 -0.005641460497133424 0.3185711154829441
0.17554578589982928 -0.011604309160463502 0.3043401489149509
0.17248446154184283 -0.011734843332521607 0.31087526177276953
0.17139035868234576 -0.0037494004557058116 0.32730283831467016
0.16814724015779436 -0.0036574602911397715 0.3370725164305149
0.17159909414834917 -0.0036037565061971446 0.3237918267141758
0.17202222752160967 -0.004551917392961671 0.32537593935837134
0.17486510085649432 -0.006455540735475709 0.31101646517624243
0.16976422476358355 -0.0016363859960958262 0.3264659294973789
0.16756159472055376 -0.011709302742235353 0.32085838412155493
0.17451244997568072 -0.012892693359605958 0.30144282673706396
0.17085338043756426 -0.00994527347778528 0.31951388214935644
0.17142212795801104 -0.0036803782770559092 0.3264128813635288
0.1710974018532747 -0.009497225363008668 0.3222915778051792
0.17080906438417376 -0.0037768185923024913 0.3288455853353916
0.16848850655145586 -0.0006843210050985118 0.32188304756988867
0.17161125349588335 -0.0026060939619466563 0.3119751462828098
0.17138100075311602 -0.0031042099783345958 0.32036396359314306
0.1703226010758394 -0.001987069923631837 0.31548502539505346
0.17049131202287615 -0.008378148157350709 0.32718899344314917
0.17380392956323565 -0.015517860729448487 0.2906596312414585
0.1721943359333986 -0.004360199053041627 0.3212156543623386
0.17170906471795977 -0.008334636766664674 0.32354029511322363
0.16774762081689776 -0.0051780641863271495 0.3371281871687351
0.1679095368344301 -0.0039292872736379405 0.3379969248663364
0.17353433775491656 -0.012161940414659669 0.3075031289946018
0.16907969522066058 -0.008216381151430299 0.33018287514557226
0.1774814467389101 -0.013267219145052125 0.29348012303223
0.16845083641595782 -0.013075471002809693 0.31229283903946264
0.17478880691118182 -0.006701678116075685 0.3139376888166843
0.16839752006120623 -0.0011157096216604014 0.3131946573149143
0.16783366012163103 -0.0006135702917501231 0.31913920735229834
0.1708954315144533 -0.012268811542741944 0.3110841760527073
0.1801330785710329 -0.008843988258592774 0.28677549456467016
0.171549652095508 -0.007908552963487794 0.32566603516449316
0.17214936422891558 -0.008640438396684815 0.31905582045425757
0.16755190896577776 -0.012873351652376344 0.3144684085737644
0.17322221803255022 -0.010382175523988893 0.3127993593107639
0.17025426435060442 -0.01716437943672388 0.2853698978315769
0.16940763997621477 -0.011729151088945558 0.3177485713850437
0.17270189928598345 -0.0052876175234243174 0.31727686022629126
0.17057529496736468 -0.0025875867197438975 0.3274632940184055
0.17593452739305437 -0.015846788961641482 0.28666898106445654
0.17302206563539446 -0.005369454700700929 0.3152683625112949
0.16887534069604815 -0.0010362864324971934 0.327780807961124
0.17211828040666521 -0.007704734880678346 0.3195789108168064
0.1694637577492708 -0.0044644177744313975 0.3322029957662998
0.1729885380227083 -0.01142174013351648 0.3113037595640598
0.1676784794289583 -0.011688828546755006 0.32044031714310034
0.1690924804169649 -0.006718039591066529 0.33161749934067114
