ply
format ascii 1.0
element vertex 137
property float x
property float y
property float z
element face 0
property list uchar int vertex_indices
end_header
-0.1988177184359467 -0.07670818263517784 -0.06246007014769643
-0.19888756017846226 -0.07668243342863487 -0.062292044654074605
-0.1983643357054627 -0.06362925464140343 -0.06776926447409719
-0.19870081882638096 -0.06736887985693382 -0.06596792270201772
-0.1996179405943787 -0.06789438420759605 -0.06318566729086965
-0.1993081454531586 -0.10877817863451408 -0.04390150834578603
-0.19908701222104191 -0.10861332708822655 -0.045754765763464864
-0.19835482876462102 -0.11497452849375175 -0.04489395548361867
-0.19831581752461552 -0.10295833641516136 -0.0530270688678655
-0.19889390807313084 -0.10613428050505089 -0.048752342953864033
-0.1986266259447968 -0.10717374080645012 -0.049341207041922505
-0.1992037777201569 -0.09431241446958946 -0.05447468687552541
-0.19845842163724065 -0.09653772407995628 -0.05575204421538442
-0.19847666065854191 -0.09575016790853905 -0.05607212115782827
-0.19996692578953862 -0.09385181957708763 -0.05127111603278249
-0.20026275854272008 -0.09467177087294029 -0.04928666879195302
-0.19951385598343968 -0.09969578677641319 -0.049641614451590474
-0.19878246228856206 -0.10076488548742699 -0.05217239786643117
-0.19932484965485692 -0.10002546006666588 -0.05026615191954702
-0.19987723570031285 -0.1039503067158358 -0.04409021665114492
-0.19998380880517125 -0.10305421048628258 -0.04415989448088735
-0.20077222924393773 -0.09509576851355003 -0.045818095698538716
-0.20085569064778447 -0.09411527210699486 -0.046194290414038594
-0.20040943067235112 -0.09680567676054405 -0.0471429877426061
-0.20044422488373875 -0.0988584607266085 -0.044553165927115376
-0.20449243824643254 -0.06221656495558189 -0.05095726777571767
-0.20451695065659642 -0.06697405868994163 -0.04735649158019155
-0.20414996485871434 -0.0662441402100222 -0.05015010167616933
-0.2040728215472138 -0.06790046388136314 -0.049312239184561665
-0.20398356359166264 -0.06988199049459862 -0.04844305445212453
-0.2032345567242539 -0.06991343194471764 -0.052345906987372334
-0.20307191054982304 -0.07021068030821251 -0.052820210948172505
-0.20218198340100407 -0.06741569930540489 -0.05750161935347646
-0.20263739268941044 -0.06648944312559532 -0.05620384742278188
-0.2032783959404862 -0.06579880410658287 -0.05413306285399526
-0.20452002029580235 -0.06873144203649925 -0.04582965899962514
-0.20351049642724156 -0.07805730396734642 -0.04390126992720693
-0.20315085690182805 -0.07688133412825035 -0.048062180772009785
-0.20323497395676732 -0.07347322994696068 -0.050556605353537495
-0.2041081372992432 -0.07198952132688927 -0.04543203641432851
-0.20534853975934148 -0.06276278192030357 -0.045372729792777
-0.19869184832734227 -0.08671648794638084 -0.05941191841620534
-0.19877598028344273 -0.09250889712797569 -0.05662051369208425
-0.19941783290070653 -0.09302701050268578 -0.05440825749892324
-0.19879821281594395 -0.09271870547758507 -0.056458657279196675
-0.20005599002999425 -0.08834548288809227 -0.054408555522147115
-0.20040904324216008 -0.08577148610578941 -0.05437464047926992
-0.20031123202008366 -0.08661504084097313 -0.05429414440650075
-0.20082058351201176 -0.08899734908567833 -0.050066655173483784
-0.20093153755826115 -0.09046749764906334 -0.048681860461417134
-0.199022370983783 -0.08303602034079002 -0.05976164866942495
-0.19964324276608586 -0.0807644575260775 -0.05864346553343862
-0.2004564438359177 -0.08323271566854881 -0.05529392291564077
-0.20029236715001225 -0.0813428311966555 -0.05643156696814626
-0.2010653648869431 -0.0789900868557589 -0.05477098156470388
-0.20131102543038487 -0.08231155568586754 -0.05267921616095632
-0.20143676142853856 -0.0818640440128939 -0.05240572024840444
-0.20157657902402043 -0.08469350630270409 -0.04954559136885732
-0.20275722782773137 -0.07944278413282799 -0.04860821892279714
-0.20206134359997868 -0.08735258871542381 -0.04476360012549489
-0.2011716846720612 -0.09222401672827171 -0.04636747170943349
-0.2026859108702576 -0.08219136291967796 -0.045636152520361836
-0.20208318870228886 -0.08562578255163597 -0.045860116973105367
-0.20224652033013463 -0.08569686109053062 -0.04494056631583303
-0.20129463415307164 -0.07304914289938377 -0.057436650290671284
-0.20044392686051488 -0.073778584542145 -0.05927682448882192
-0.20124855976266026 -0.07381369167791771 -0.05718872477072805
-0.20103951137227177 -0.07726280385481285 -0.05581227470892995
-0.2002227340237534 -0.0771747677944796 -0.05842620660323232
-0.20281102101964116 -0.07323585444914268 -0.052435910000983174
-0.20234424214524388 -0.07368300849424766 -0.05371067453879445
-0.20261769335431218 -0.07537974411474632 -0.05173093606490224
-0.20307946543854832 -0.07432498032080101 -0.05085254241484731
-0.20069581608933568 -0.06628008181082176 -0.06141347219008535
-0.20078350942296147 -0.06735508138166832 -0.06081951190489858
-0.20005569200677037 -0.0710700302742617 -0.060908412232581075
-0.19985697012108922 -0.07125081116186546 -0.06128997136611074
-0.1992463950411713 -0.05827973777281212 -0.06749678184050649
-0.19825491647881627 -0.05870454007612633 -0.06969419647711843
-0.19831866364640355 -0.06237114960180687 -0.06828326512831777
-0.19853277843159794 -0.06305719906317162 -0.06754550863761037
-0.20078581910294652 -0.04972611361967491 -0.06673613716620534
-0.2008256052033341 -0.050506189408172836 -0.06635636617201894
-0.19900092821282506 -0.055393651070465316 -0.06905735065001577
-0.1994038407103455 -0.05667649203764366 -0.0676747613098058
-0.19827366213959813 -0.043937668146957626 -0.07517573763388723
-0.1991841528908646 -0.04500819736944603 -0.07255131532210439
-0.1988191936509049 -0.04545818263517784 -0.07327360440749257
-0.20185844938916325 -0.04398317629324364 -0.06653634239691823
-0.19990367036027074 -0.04766608768927025 -0.06967142750281423
-0.20185791294736027 -0.046570613922943344 -0.0654780023242864
-0.20304191451233983 -0.05634571606146263 -0.05867514540213674
-0.20312083106202244 -0.0546949356220858 -0.059083705439749654
-0.2032360021368897 -0.05948801332937645 -0.05683565665740102
-0.20436866920155644 -0.057355984988083114 -0.05415309001463979
-0.2034951333300507 -0.06223718816267418 -0.055125450387183125
-0.20371157269639134 -0.062223151268829574 -0.054438924088660176
-0.20117952268284917 -0.0626113265179293 -0.06134045650023549
-0.20126958530110478 -0.06470556551443504 -0.06064582397002309
-0.2001578543679154 -0.062333330454696884 -0.0639528386737737
-0.20109309594792485 -0.06119568640219139 -0.06198987890738576
-0.2024226371542847 -0.0560987442158358 -0.06047139097708791
-0.20143322985333562 -0.05858357244955467 -0.06204626490134328
-0.2047468457714951 -0.055239126028885116 -0.05350024034041494
-0.2048204873101151 -0.0583512335442202 -0.05151865412253469
-0.20492543618840336 -0.0598405450009005 -0.05012941886443227
-0.20536755364102482 -0.05742378527151512 -0.0492641978408727
-0.20478447120350957 -0.04880066210256981 -0.05621514250296682
-0.2035106454388535 -0.050638481917251815 -0.059606497779074605
-0.2041689787403977 -0.05122460419165062 -0.05714276958960622
-0.2039953206078446 -0.053251728358139266 -0.05691481162566274
-0.20188491385144353 -0.05116106564032005 -0.06353837777632802
-0.20229201357525944 -0.052693620266784896 -0.06201237966078847
-0.20258163254422307 -0.05146314198004173 -0.06173864532965749
-0.20187835734051823 -0.0502456575058596 -0.0638903432037267
-0.2050423059956467 -0.051789477410186996 -0.0540816240455541
-0.2052017186180985 -0.052966758551468124 -0.05257070590514272
-0.20568892698449254 -0.05185018474089073 -0.05081183244246572
-0.20588945191067815 -0.050881847681869735 -0.05038676191825002
-0.2051891271368897 -0.05365745717512535 -0.05222669769782155
-0.2060145620600617 -0.056270137371887435 -0.04587585259932607
-0.20576370101136326 -0.05908600980268883 -0.04538190890807241
-0.20696604590577244 -0.04893206054197716 -0.044686501517477925
-0.20657998662156224 -0.05132193857656883 -0.045749192729178365
-0.20653294365567326 -0.05323074752317833 -0.04420838285941213
-0.20496709983510136 -0.04582516843305992 -0.05714023639220327
-0.20540438931149602 -0.043203040900100936 -0.05691019226569265
-0.20231861214799046 -0.0477543621681826 -0.06381246973532766
-0.2031603936449921 -0.04533289367185997 -0.06270629693526357
-0.2039383683697617 -0.04460589581953453 -0.061021154418173726
-0.20372554998559117 -0.044000402035583724 -0.061798995032492574
-0.20669888298672795 -0.04264549905287193 -0.05135283400076955
-0.2060866836802399 -0.0462514906548159 -0.052147155299368794
-0.20694905858201146 -0.04522441321836876 -0.048418944373312886
-0.2071243260399735 -0.04537440830694603 -0.04625541497725576
-0.2072057161824143 -0.045085713209976425 -0.04551569153327077
-0.20731364529294133 -0.0457305162571566 -0.04388565351027578
