ply
format ascii 1.0
element vertex 646
property float x
property float y
property float z
element face 0
property list uchar int vertex_indices
end_header
-0.010426375676814313 -0.07209305459486412 -0.2082920276071462
-0.02219921689194798 -0.11728477472292351 -0.20091511835116477
0.02247771282034755 -0.053928181471695175 -0.20786662925738425
-0.0008409057156479313 -0.0581170170925753 -0.210828890695754
0.036218729208287004 -0.057660117688049545 -0.20523144830721946
0.04170846600371242 -0.07598443323599266 -0.2030905388738546
-0.007824454118434186 -0.13004705304132866 -0.20131744970339865
0.04436391253310085 -0.08618827158438133 -0.20132124949950309
0.04059096832114101 -0.09880821401106285 -0.19971336950320334
0.011782970617588763 -0.11406005913244652 -0.20243748058337302
-0.0013153586880600408 -0.13083177799211906 -0.20123515059012503
0.006328162144001727 -0.042977020087112655 -0.19876196016329856
0.015196647833164935 -0.061577603163589706 -0.20814315010565848
0.058370735834416154 -0.06085793668257164 -0.2016000204231176
0.028931316326435808 -0.09559233480917381 -0.20247681964892478
0.043354776094731096 -0.0636685639046328 -0.2035124205495748
-0.020592514087382552 -0.09202827507482933 -0.20480494727152915
0.03157704729872585 -0.06471474462973045 -0.20497769643324942
0.03073465485411525 -0.08725272113310265 -0.20321684111613364
0.055650528858479265 -0.0722391455792086 -0.2009774946119222
0.0010135139926040217 -0.13340273493753838 -0.20085651208418936
0.009543951938923602 -0.13278608018385338 -0.20007494617957206
0.05507874150114894 -0.05965374404417442 -0.20253214766043753
0.025336977432545427 -0.11158832901941704 -0.20025679995078177
-0.003944579173747296 -0.07131500536428856 -0.2086277507688436
-0.00357508998078465 -0.059422120394577255 -0.2105036430503759
-0.012240621854487653 -0.1083678602598803 -0.20367415775317282
-0.006078067828837628 -0.08554352814184593 -0.20712140728491873
0.052183803509052995 -0.058530256094803085 -0.20308207501429648
0.03127184171515346 -0.10758784407602714 -0.19984002937335105
-0.00976667146844029 -0.07538200909124779 -0.20812531341570945
-0.001849893142405744 -0.12754780048357414 -0.20168635775107474
0.026113894174870256 -0.04564352327810692 -0.20869778622645468
0.03104760904150844 -0.0857228487156527 -0.2031932227756414
0.012609269808110004 -0.0669719725273745 -0.2080581091787252
0.057026412676151994 -0.07864297920690941 -0.19946775366324515
0.065519985149678 -0.06563876563536095 -0.1984593622829351
0.06516953964072109 -0.05588813120352196 -0.1998273186828527
0.062209215353306535 -0.07517896586882042 -0.1982672714139852
-0.0005122457043564274 -0.10991834098326134 -0.20430604149359793
0.01754277605849147 -0.0523947327755587 -0.20903379251021476
0.05996030230360866 -0.05119837814794945 -0.2024103902723226
0.06218292970496059 -0.07534654432760643 -0.1982513122703466
0.04124903340178371 -0.08490507298933433 -0.20216633905428977
-0.0029162798420822576 -0.12104877823816704 -0.20258220066088767
0.05261459607916713 -0.08988244825827049 -0.1986993901874456
0.05907937545615077 -0.043187037052978744 -0.20346561600226493
0.008119907568272357 -0.11260390275942253 -0.20341010917681784
0.0339822437270248 -0.06231154495703148 -0.20493457247275443
0.01984494585829616 -0.07945747667776512 -0.20503086377638907
0.06726055998640895 -0.04714144760595726 -0.20028345812815757
-0.01578691940468907 -0.09411482507215904 -0.2052073382284078
0.05216049809294582 -0.085246428789963 -0.19973058034438224
0.0620039071543777 -0.042791590037216415 -0.20281141032237143
0.02865054864722133 -0.09806631499754356 -0.20209426213759513
0.0063163604243362 -0.07635666424261497 -0.20778911341685385
-0.00370207767647862 -0.08641429239736961 -0.20703290928858847
0.04271885413962245 -0.043374136032928695 -0.20629835654753775
0.055864807556446794 -0.046479448618759384 -0.2038204871560964
0.014319416473683124 -0.07814748579489159 -0.20636721481341452
0.04051866788702846 -0.04360271984564232 -0.20657648672122092
0.013521429489430194 -0.07105906301962303 -0.2074397705938253
0.043036427686985734 -0.06984429055677818 -0.20315866698283286
0.015956428240116838 -0.10278619820105003 -0.20355961252707572
0.05421590466338039 -0.04762609297262596 -0.203982269063178
-0.0114257369534409 -0.0660193710945742 -0.2088261448289785
-0.013990524818125958 -0.10508322710024284 -0.20387229849356742
0.018817480991657975 -0.10148483509050774 -0.20300795663851828
0.013833102176960712 -0.050259098353256454 -0.21047317017573447
0.0662216510279739 -0.05121602112280296 -0.20010698367613883
-0.005218837072077985 -0.11409349733816551 -0.2037132434989843
0.03127377886610866 -0.06808553630339073 -0.2045790754701528
0.013378944586094623 -0.11174957448469566 -0.20253843595046134
0.040946867655094865 -0.10477748507486748 -0.19858250547904105
0.0413376953108871 -0.05456732207762169 -0.2049360625888738
0.020153042267140153 -0.054450347962249984 -0.20818390478152365
0.03427526016074062 -0.04271306091772484 -0.20767601360339255
0.0041054453356826354 -0.059216007532943954 -0.21066013504523368
-0.002430323173228498 -0.06390048557745384 -0.21002997983950705
0.052543696354206804 -0.05429886275755333 -0.20337257315177054
-0.004907671024028058 -0.0731965749882357 -0.20846251179236502
0.0022772516711318538 -0.08999584609495567 -0.20642358590621085
0.011023726652439838 -0.130064606609215 -0.20026821424025626
0.01664796132880092 -0.04686455422865318 -0.21047272314089865
0.019783284853276017 -0.09754191333280968 -0.20342703689593405
0.034671899269398454 -0.05799849325643944 -0.20541036654967398
0.022371109913166765 -0.08061085635649132 -0.2044177554990682
0.00868406553107143 -0.09579689795004295 -0.20508620668906302
0.01262160796957851 -0.07686202222334312 -0.2068947755243215
0.010574039409931903 -0.1412684320830004 -0.19880940546053977
0.06233048100310207 -0.046719834151138534 -0.2023566566850576
0.009393927048023944 -0.10205608600603508 -0.20443973471182914
0.022648718546208146 -0.12072414154039787 -0.19924597968119712
0.02854463119345546 -0.11321437353121208 -0.19934464026946158
-0.008321288634959454 -0.06795309478269981 -0.20896542598265738
0.030274626205738786 -0.113129809441437 -0.19903436829108329
0.016277160833653215 -0.10727664822565483 -0.20276067186850638
0.013144340704258685 -0.06862972671019005 -0.2078040443803701
0.04651733894186855 -0.08227305108534264 -0.2016341291810903
0.020406898449238542 -0.11235001677500175 -0.20108257760066123
0.01746093888121486 -0.1260014473818438 -0.1994935773755941
0.04566147584753871 -0.050537630858291854 -0.20487927426356406
0.0659271146758163 -0.06074745947348045 -0.1989582680608663
0.06092428822356105 -0.04645101720320152 -0.2027298711683187
0.04450210590201259 -0.09855611616598534 -0.19899152745265097
0.028816875408467058 -0.06339628988729881 -0.20556329716700644
0.05427661199408412 -0.0500274449013369 -0.20364332725066275
0.05896937508421779 -0.05094154173361229 -0.20267616738337607
0.03302374143439174 -0.10518109792696403 -0.19995439578551383
0.034106519411381486 -0.0820854454659121 -0.20317060281294913
0.0056359137995803405 -0.1189942508362429 -0.20253994096774192
0.033958878706272844 -0.11274345213400291 -0.1984714769269857
0.03256997127371669 -0.09298031026350426 -0.2022992276098165
0.020578559826191667 -0.11425741011129784 -0.20071563650626273
0.04058664698439479 -0.06553216272818016 -0.20359385539549918
0.0243050124152267 -0.06228618318067955 -0.20645136167067618
0.05098381299811244 -0.043660566153396835 -0.20505564440745444
-0.004177871753398175 -0.08307678991781639 -0.20744593967455954
0.05339836735564113 -0.060472920479645004 -0.20272845555800528
0.0079567994578445 -0.04749758535849022 -0.21181649495619864
0.049834486435230974 -0.06615643197523521 -0.20293342103022666
-0.0009249482647812321 -0.13229399913774895 -0.20103230108279319
0.02229088206129909 -0.07498724752890037 -0.20518307913798423
0.04147919673758388 -0.07903383666502403 -0.2028335534479055
0.027155485342320207 -0.051029637398590316 -0.20750049282569022
-0.024854603816691634 -0.0945545285366671 -0.20381077159899802
-0.04091766815346837 -0.0427833943985598 -0.20782717098254294
-0.006757829000178571 -0.14392818504797386 -0.19942538966197104
-0.0006090436474716618 -0.08124394709097313 -0.20769922961253257
0.030044224451359514 -0.10438585275637077 -0.20066232015151114
-0.009254429151240582 -0.14424072200285362 -0.1993053310062322
0.05386775393324733 -0.07675780350195335 -0.2006798737193975
0.030650820921238664 -0.08413974935041832 -0.20326062072772116
0.03856846351462245 -0.055147990527023544 -0.2052419834281835
0.0677966739638412 -0.053833410086502304 -0.19893321920889945
-0.011385623027507062 -0.08414290839659141 -0.2069435023214254
-0.02332231741112828 -0.13756504649149345 -0.19824360837000937
-0.0012658570305740789 -0.04521106177793907 -0.2125894926931295
-0.004979435016337628 -0.09112997347341942 -0.20646250773924918
0.03454532880621791 -0.06918631488310265 -0.2039350472833547
0.04825800318556667 -0.059061065258850326 -0.20345704783457846
0.04507904906111598 -0.05793352419363426 -0.20395629633921714
0.0032895471556747004 -0.1380367576502459 -0.19998045791644187
0.05218052525359035 -0.06606735283361839 -0.20288304020423026
0.022794362495716813 -0.04918147617803978 -0.20886427690047354
0.019743379543598893 -0.09365306788908409 -0.203650956645194
0.02787676114874721 -0.05534459644781517 -0.20674589802283377
0.04439279098349452 -0.07353912288175987 -0.20313439299124808
0.05025365609961391 -0.055806651654114 -0.20352909494895072
0.05721860785323024 -0.08174826199041771 -0.19880684246081443
0.0006608631117904232 -0.10187812143789696 -0.2051354252244863
0.014705058525379901 -0.05927319818960594 -0.20852543939608664
0.006411251018818622 -0.09289287024961876 -0.205613305463973
0.06342517990904689 -0.06386326247679161 -0.19958110679644675
0.006554838608082538 -0.1335819064997332 -0.20026743937987418
0.009304043243702655 -0.09172834450231956 -0.20547174443263144
0.05862292308646083 -0.04904146486746239 -0.20299284686106772
0.06559237499075771 -0.06573252374159264 -0.19841583599108786
0.04144158620673061 -0.09683851891981529 -0.19992304374236197
0.05253892798262477 -0.06980334216581749 -0.20214380849856467
-0.028676543046656844 -0.13027624780165123 -0.19845648635882468
0.027799513529118303 -0.06118933850752281 -0.20600086976546378
-0.011114302684489484 -0.11476409429537224 -0.20304090310591788
0.014020081947621112 -0.09312327200399803 -0.20458484221953482
0.03247794170218349 -0.07231082016455101 -0.20383364488143058
0.0037088360293471858 -0.046216025891174545 -0.2121888749744329
0.015434827993687396 -0.08114732796179222 -0.2057334386255178
-0.022311124612513777 -0.058237120451797714 -0.20828591813105674
0.01672464270430446 -0.10516987735258507 -0.20308626224059195
0.05067178268271327 -0.06600151950346397 -0.20280670155543418
0.0024432506068313166 -0.1507764011047976 -0.1983813249017629
0.030380066822346452 -0.07602266961561607 -0.2037100397493276
0.0476281907065475 -0.04256157571302818 -0.20570502211112113
0.06032067198592067 -0.05676881963240074 -0.20169553686637015
0.039677527139958146 -0.08427987987028526 -0.20256574977892966
0.01564409990149379 -0.07493354374395775 -0.20651251603621573
0.0035911168559157893 -0.12770354742037224 -0.20139398206729026
0.006290521810826068 -0.05039598041998314 -0.21160364676970572
0.025403496216114763 -0.09632773691641258 -0.20290297795790763
-0.018783304502192733 -0.12302178138719963 -0.20071276058215232
0.0288749005301559 -0.11841163033472465 -0.19844379056948752
0.0066815282805526306 -0.126498892845978 -0.20126800765055747
0.04427113790350795 -0.09269453579412865 -0.20014116693991751
-0.009753618051234479 -0.14585028583036827 -0.1990217619087133
0.006723579357441669 -0.11036255949961113 -0.20383973945635886
-0.0006983314053451969 -0.08758141094671654 -0.20690146614569754
-0.008647653867427106 -0.09404875332342552 -0.20611122776526541
-0.01150656085175633 -0.13496750587450432 -0.2002511375095281
0.020165320823963884 -0.08758215600477623 -0.2040343933250341
0.0238663818343246 -0.11651077860819267 -0.19967678715247245
0.01294967193442226 -0.06933666759954857 -0.20776586760539145
0.037278797815617326 -0.09950532013403343 -0.20020591248530478
0.03435849804716945 -0.0756774693153994 -0.20337550868052573
0.04559164900618434 -0.050263598503936996 -0.2049266748573217
-0.0016557608143722966 -0.10021485382543968 -0.20536123742121787
0.01761868257361293 -0.13263094419466423 -0.198507090702239
0.04165169257956386 -0.09402136498915123 -0.2004115187074575
0.0016662444575393245 -0.13236199313627647 -0.2009351157094869
0.029366579244908098 -0.045785680355896224 -0.2079551868583593
-0.011394712735835309 -0.04936523729788231 -0.21129105021018119
0.0492797758086288 -0.09732107812391685 -0.1982665263559255
0.03951131958800197 -0.10285831982122826 -0.19916226495761008
0.005714323709782367 -0.06806872779356407 -0.20870735277194113
0.021006223152455095 -0.08515255147444176 -0.20411484469431967
0.05541056055861354 -0.08723221713529991 -0.19831778635043235
0.049851861189183 -0.07947517925726341 -0.20135520924586386
0.019415822218235734 -0.0845534651898043 -0.20443077911395163
0.04029917378264308 -0.07044599944578575 -0.20327525366801352
0.043757077644642595 -0.05445243412481712 -0.20461339284438224
0.03886592049437404 -0.044742003025879135 -0.20664986003893943
0.014380183409031634 -0.06488747889028953 -0.20792840947169394
0.02835923094588161 -0.11642822617517876 -0.19882937301653952
0.0594874288542831 -0.06278713041769432 -0.20106490482348532
0.03338732976752162 -0.047632619681228866 -0.2070475869323644
0.02036010880308986 -0.07539646321760582 -0.20547624458331198
0.04654222388106227 -0.06496514374243187 -0.20317994584101767
-0.013442013074580426 -0.07654468709455894 -0.20750915040034384
-0.03492361645859837 -0.06362150603758263 -0.20638560284632773
0.03209116716223598 -0.1034935116194384 -0.20044145514029593
0.007918473671253924 -0.14347340160833763 -0.19878359664935202
0.0053897168143355895 -0.08264134818540977 -0.20707972873705954
0.002663102339085345 -0.1202118247173922 -0.20256665874976248
0.037661042402561906 -0.0927208214424746 -0.20139770735758872
0.04944774169760585 -0.06377913052069115 -0.20309623111743064
0.006265517662342792 -0.10114008182512688 -0.2048147522355947
0.047203239391621354 -0.09115500742422508 -0.19982815314787955
0.028744843195255998 -0.08268870407568382 -0.20338643123168082
0.06159710545378566 -0.05413024121748375 -0.201685225262824
0.04220294613676906 -0.061401888670791854 -0.2038951121713552
0.04662859101134181 -0.07295797759519981 -0.2032023869897756
0.05029633302527309 -0.07356984907614159 -0.20223808814543814
-0.016706142236415145 -0.12480629974829124 -0.20079437424201102
0.011492815206822162 -0.05460764461981224 -0.2102209829236898
-0.0027684901253616765 -0.1530531197212832 -0.19826393355387778
-0.007127586414042706 -0.05295233422743248 -0.2115160279418859
0.045522835443791154 -0.08351384097563194 -0.20159431327838034
0.00015237588721156577 -0.051790282072891464 -0.21184655059832663
0.03485366363364101 -0.1068981438301699 -0.1992932163621816
0.01987337727385402 -0.08993710571752953 -0.2038909994508657
0.0508591796858871 -0.09512741857992577 -0.19831309248465628
0.04445156116324306 -0.08598776155935692 -0.20134068061369986
0.009364869783695941 -0.042507991137375106 -0.2120970540191564
0.024381097744282487 -0.0671431868694918 -0.20583893884677024
0.012428369711216693 -0.057445570769180526 -0.2097123168851766
0.03991222042876125 -0.06449578696714806 -0.2038008772279653
0.01811343092757106 -0.052913203778137435 -0.20887353052157492
0.01730551976996303 -0.12466436618791985 -0.19971794415968985
0.03704613108473659 -0.04810519510733055 -0.20642838408011527
-0.034075174142543074 -0.09274779254423546 -0.2028834425355825
0.003951456735905414 -0.12233631307112144 -0.20213175345915885
-0.0014226768509781316 -0.050050124468673934 -0.21194504727381797
0.04343816299277187 -0.04526369267927574 -0.20592801798838706
0.02816277403670192 -0.08233277493940758 -0.2034642599965963
0.009151544760044818 -0.14600153261648582 -0.19831830789107413
-0.01890191774529576 -0.04740126425253319 -0.2104639016534719
-0.006941739131633038 -0.14379844063745903 -0.19944203425902457
-0.0007122788922226383 -0.11787191027628349 -0.20303465951937766
0.04110005159216762 -0.07168482238279747 -0.2031796478177938
-0.03521696071786046 -0.09598888451086449 -0.2022813015129003
0.009479519317921405 -0.09154970938192772 -0.20547761549014182
0.02646529335814357 -0.07809089118467735 -0.20401317407149405
0.031529333780583146 -0.044917479100097885 -0.20775670339125724
0.043325569818791154 -0.062218621315826644 -0.2036279641534719
0.0630524124606216 -0.04923380905615257 -0.20174158145445914
0.008031364868458514 -0.1273384093664782 -0.20100939799803824
0.021517750213917497 -0.1071636229179995 -0.20178293217677207
0.052619275043782 -0.04768247896658348 -0.20423865844267935
0.06153684515791774 -0.0645523517750399 -0.20012872447032065
0.06979140300589443 -0.047933295311798324 -0.19896540571707816
-0.015685770322505233 -0.12213306123243736 -0.20133831132907004
0.01549517769652248 -0.11177846783625053 -0.20212854970950217
0.03810673613386989 -0.1060826777838366 -0.19883747924822898
-0.00504032116097569 -0.09014640742765831 -0.20659319092291922
0.007628705690678363 -0.12239758664595055 -0.20177548159617514
0.018518504093464616 -0.08673118049131798 -0.2043456040765676
-0.008670959283534284 -0.09991903597341942 -0.20545283485907645
0.0339793230994308 -0.11160728329645561 -0.19864531387347312
0.024154540489491227 -0.061289504113067855 -0.2066046052123937
0.015622314403828387 -0.10841408366190361 -0.20266116191405387
-0.014296028424922223 -0.14308437699304985 -0.1987691127206716
0.049434628675755266 -0.04496498400198387 -0.20511274565714926
0.033280220220860246 -0.0923148840092318 -0.20229037632006736
0.017010387371357683 -0.1019373535536425 -0.20345183242816062
-0.007636818696681256 -0.04658229643331932 -0.21255586077231498
0.022195097397145036 -0.11068001383768486 -0.2010276966239843
-0.013049456884089703 -0.09264342481123375 -0.20573306609648795
0.01294603605109096 -0.09003828460203575 -0.20506415297049613
-0.010448161174479718 -0.09614504868017601 -0.20562835563677878
0.07137384672003627 -0.046531423869003524 -0.1984416597034368
0.02509423751669765 -0.10940533870684074 -0.2006880842592153
0.01891106028395534 -0.06542219215856956 -0.2070139252092275
0.009178575466450458 -0.11888644093500542 -0.20221506585139365
0.013356533239659076 -0.11423322552668022 -0.20210604895609946
0.01031261343794704 -0.12367218727098869 -0.2013083748962316
0.013919230888661151 -0.1162932216547625 -0.20165275563258261
0.030654158781346086 -0.08907677227484154 -0.2032128476049337
0.040542003105458024 -0.04979319864736961 -0.20570128191966147
-0.0008445117966568424 -0.05511315161215233 -0.2113837801362905
0.044731941412266496 -0.09863169485556053 -0.19892927040118308
-0.011677089740458722 -0.08847124868856834 -0.20639989305991263
0.03707664866286159 -0.051142558398117294 -0.20600283671874137
0.028036859224613908 -0.06778784090506004 -0.2051049374486837
-0.03912073712510228 -0.10717660182939934 -0.2000823520566854
0.040714886377629045 -0.08776400977598595 -0.20174766112822623
0.005829152057942157 -0.13626289361940788 -0.19996935655135245
0.0022006000979507014 -0.07552491122709679 -0.20823237825888724
0.03618222136336208 -0.0554959028385775 -0.20552667011279196
0.005538758228596454 -0.10372766846643852 -0.2046059869672689
0.06430771608191371 -0.05945308500753807 -0.19974582423228354
-0.01940828900498509 -0.13150222593771385 -0.19957319427985282
-0.0006133351818954899 -0.14851579064356255 -0.19883892466086478
0.0050199892027938415 -0.0777921527050631 -0.20773943294543357
0.03487559814291835 -0.08466680342184471 -0.20292252828139395
-0.00697779994172215 -0.061912521662582626 -0.20987979103583426
0.008066501806553607 -0.06237708026396202 -0.20936592449206443
0.01727783341246486 -0.04492603236662315 -0.21058552493113608
0.0019101764662826106 -0.10485672945009636 -0.20478384722727866
0.009447243402775531 -0.11051900679098534 -0.20342746902960868
0.003102388571079974 -0.08662603789793419 -0.20678668250102133
0.012965228746708636 -0.10585501784311699 -0.20351988603133292
-0.01398519020241856 -0.12214542919622826 -0.20158574511069388
-0.03079870681923985 -0.10848306113706993 -0.2009676002408895
0.02713578600722194 -0.07655175024496483 -0.20409679938811393
-0.01937273483437657 -0.12042927736269401 -0.2009077720786962
0.02130862731772304 -0.06856973463522362 -0.20619564284342856
-0.009055886079493756 -0.05150692159162926 -0.21139544774550528
-0.0016415749089157537 -0.11992010468470024 -0.20279928077715964
0.04678901691275478 -0.04501791292654442 -0.20548043180960746
0.01496383209067226 -0.0697878151558535 -0.2072983287717733
0.05092551965552211 -0.07878078514563011 -0.20116416145819754
0.053288366983708146 -0.07146076852308678 -0.20178075660723777
0.02362820167380214 -0.0970436483048098 -0.20317641426581473
0.0619101788504684 -0.07038690144049095 -0.19910152782458396
0.047069784591969255 -0.06437309080587791 -0.2031808548118505
-0.026085380126658675 -0.04260669642912315 -0.21020162631529898
0.005195524881657367 -0.13863968843447136 -0.1997049801494512
0.03890242833929897 -0.05428434902655052 -0.2053136729146871
0.015607383440312152 -0.1174165605925219 -0.20116700757998557
-0.01545858721894383 -0.09921096259581016 -0.20457646776694388
0.03184312243300319 -0.053376391472686996 -0.20644248057860465
-0.014461759139720197 -0.1407646983288424 -0.19903688658732505
-0.014396998693171735 -0.05022121960150169 -0.21049811471957297
0.04147404093581081 -0.0705287008904116 -0.20318683017748923
-0.010032627393428082 -0.13198801869379448 -0.20088445176142783
0.058232751081761125 -0.07493783527838158 -0.1996626310493383
-0.031976315786067244 -0.05263797933088707 -0.20784685541648001
0.0222831036551559 -0.07181255513655113 -0.2056018911744985
0.014447655866917377 -0.10048861795889305 -0.20383199085253806
0.034976806829746965 -0.05341990286337303 -0.20598495532530875
0.018178817222889665 -0.06300620728956627 -0.20741788078803153
0.02146118540602565 -0.12886591249929832 -0.19826794196623893
0.015469249676045184 -0.0893130152844088 -0.20464826156157584
-0.010176006366435284 -0.06695760780798363 -0.20886822570818991
0.03931113738852382 -0.0613216012142794 -0.20430940915602774
-0.0014891658322250798 -0.1491199582241671 -0.19876577486056418
0.006850120018299823 -0.06015036994444298 -0.20994771052855582
0.015822496603306535 -0.13225167983995842 -0.19894099761504264
0.04510473866301418 -0.044738128723968734 -0.20576148261088462
0.062320676039036516 -0.06485627585874962 -0.19981065918463797
0.040025528858479265 -0.07792110735403465 -0.20316133429068656
0.06930178065138698 -0.04522790009008812 -0.19962396253604026
0.052283879707630876 -0.055256470980514755 -0.2033053391124639
-0.0017334554688370183 -0.12447014445291923 -0.2020783625986013
-0.011309180070582623 -0.0436746924542086 -0.21230114032286734
0.028733667324360612 -0.10649351769911217 -0.20051983524817557
0.01918607611494899 -0.09455414110647606 -0.2036424778844747
0.03069290180045009 -0.10489472741114067 -0.20044601489562125
0.06503882665472865 -0.04852043086515831 -0.20103166033286185
-0.014243218709651227 -0.04325176769720482 -0.21192084778803916
0.05096006054716945 -0.09151639038549828 -0.19891267050761313
0.008613821457203632 -0.0517344921253817 -0.21108896066207022
0.004651125858601337 -0.052795007767547836 -0.21140832234877677
0.03720566291647792 -0.04589126998411583 -0.20672826994914145
0.04738926548796535 -0.08422084146963524 -0.20109659959334464
0.01987492699461818 -0.09197066718565391 -0.2037524335529241
0.03887354988890529 -0.06176908308493065 -0.20431028832453818
0.02757453579741359 -0.06345285469519066 -0.2057503961469564
0.020199176262196306 -0.1030689179323809 -0.20265172947901816
-0.01198914985818028 -0.07448007160650658 -0.20787236620444388
-0.03164252977532506 -0.120960220637192 -0.19925609756964774
0.03268599171477199 -0.09996642166601585 -0.2009816520358953
0.010398801754292255 -0.05234374100195335 -0.21076356400508017
0.010411944578465228 -0.07787661248670982 -0.2071933947946462
0.04240506548720241 -0.07015980774389671 -0.20317233134764762
0.04926788468199611 -0.05581395322309898 -0.20364885558146567
0.03627267141180873 -0.11016221338735985 -0.19849218954104514
0.057173695753391984 -0.08244742447363304 -0.19868477214831443
-0.00974765758675694 -0.0834410339020388 -0.20725115169543357
0.0730825330718124 -0.04281605774389671 -0.19831802476901145
0.041220095346745256 -0.07733760768400597 -0.20298925568122
0.0479079451068008 -0.054741665663589706 -0.20398650099295706
0.057514693926151994 -0.06529889995085167 -0.20153952170867057
0.01877632398444057 -0.1215398013018267 -0.19988854755419821
0.019191231916722062 -0.12856557959543632 -0.19875343669909568
0.03374620933371425 -0.08994294697271751 -0.20253724385756583
0.03189795870619655 -0.07157348090635704 -0.20401970078009696
0.05609321255522609 -0.0645010023735659 -0.20229620267409415
0.04578375477629543 -0.08735026413427757 -0.2008312099124822
0.013552096079167133 -0.07532598072515892 -0.20689856041926474
0.031901385973271135 -0.09684319788443016 -0.20170857538241477
0.02425846118765712 -0.12037707859503197 -0.19899277915019126
0.017915960739430192 -0.1140499412439959 -0.20126617480773062
0.05708902735548854 -0.0463488548420565 -0.20363390971678824
0.03551554341154933 -0.09985725575910973 -0.2004703782941732
0.054064508865650895 -0.08136467629896568 -0.1998655848647985
0.014124747703846698 -0.12842075520979332 -0.19985066880244345
0.038800176571186784 -0.10739064210878776 -0.198516240015212
0.06488698382216335 -0.05109544092642235 -0.20075171221751303
0.02920710701781154 -0.11642794305311607 -0.1986884676362905
0.04808938164549709 -0.07059378916250633 -0.2030616604234609
0.037961181591328386 -0.06400452548490929 -0.20413847793597312
0.011794504116352801 -0.05955566460119652 -0.2094577752496633
0.0028168823226058528 -0.11431525641905235 -0.2035107516195211
0.041602429340657 -0.10201746219622063 -0.19892398048895926
0.06669589538412929 -0.04325209552275108 -0.20124865104216666
0.0602927472098434 -0.07162679726110863 -0.19946730662840934
0.03104152936774135 -0.08709178859220909 -0.20321727324980826
0.05697005648451686 -0.057580962719787826 -0.20239982534903617
0.0009797777636611506 -0.09207044536100792 -0.2062805347587499
0.010701176117237811 -0.06250555807577537 -0.20884515871066184
0.04956051368552089 -0.05381388956533836 -0.20387940634745688
-0.00287124853295445 -0.07614608103262352 -0.20825662244814963
0.040855434130009416 -0.07079751783834862 -0.203208719983283
0.011348989198979144 -0.09328790003286766 -0.20501608182448477
0.05764859576063991 -0.08061532670484947 -0.1988902442600164
0.05379983444052577 -0.0687257497929232 -0.20213345219153495
0.015457716177281146 -0.09865213924871849 -0.20387822915572257
0.038997885177906755 -0.07696939999090599 -0.20315261711138816
0.042610731313999894 -0.0442385523937838 -0.20619105328578086
0.054641899059590104 -0.07434953743444847 -0.20088974167365165
0.042380925606068376 -0.08084066206442284 -0.2025649451162252
0.008606192062672382 -0.11919847125040459 -0.20222595860022635
0.049015786836918596 -0.07707141334043907 -0.2019834273006353
0.04927563328581691 -0.09768988186346458 -0.19820464183348746
0.061770584772404435 -0.06789390737043785 -0.19953385521430106
0.05598434467154384 -0.044201359095443954 -0.20398772288817496
-0.0025581751362717107 -0.09103704983221458 -0.20645560850161643
-0.010160270740214581 -0.09973444038855003 -0.20526513983267874
0.01771285791235805 -0.08598579460607933 -0.20459913243311972
0.029451068828877214 -0.08321599656568932 -0.2033310138132009
0.04844012517767787 -0.053035274090637435 -0.2041443340923223
0.0484863187773788 -0.047197744192947616 -0.20493713547247977
0.04038652438956142 -0.09321190411077904 -0.2007980697299871
0.022617724130924943 -0.05041314655767845 -0.20865093697566123
-0.01277032833260655 -0.11196532839762138 -0.20309258033293814
0.02481698651152492 -0.0833507030628817 -0.2037756942655477
0.03355279226141811 -0.0859337895535128 -0.20296694864291281
0.042696860025700334 -0.06298173958288597 -0.20361400176543326
0.061994161794956926 -0.05580361181723045 -0.20131697286624045
0.0673810507758224 -0.05993326002584862 -0.19845606912631125
-0.015418026258174176 -0.12297448510157036 -0.2012444340135488
0.04939904470282436 -0.08915700012670921 -0.19975957800406546
0.01404222507315517 -0.13465555006491112 -0.19898728062171073
0.02607619423704982 -0.043126389326919784 -0.20927335847872824
0.03148340840178371 -0.10985876614080833 -0.19938946296233268
0.024813142011936906 -0.10361061984526085 -0.20179606009978385
0.012524899433430438 -0.07147781545149254 -0.20759180714148612
0.002169814298924212 -0.13736747199522423 -0.2001862578536901
-0.02343985777062535 -0.11042562121378349 -0.2017266802932653
0.03036999363737941 -0.05615417653547691 -0.20627463389891715
0.02077158946829677 -0.07735685998426842 -0.20514402319449515
0.004129466007527118 -0.1106777488611834 -0.20395967890280814
0.06596436757880092 -0.04579766088949608 -0.20113151301402182
0.0004219080908858822 -0.06797264510618614 -0.20919825662631125
0.053884622047718767 -0.07899524265753197 -0.2002962433244619
0.0090266134245956 -0.13934843236433433 -0.19922417928237052
0.013440933416661029 -0.10220973187910484 -0.20377532173651786
0.03398418087798 -0.057238414826263656 -0.20561533202189536
0.002401944588001971 -0.1255054324291842 -0.20179775883215995
0.0012998249037826106 -0.06675769382940697 -0.20928426612872214
0.0555564727290237 -0.07729147368894981 -0.20011225868720145
0.02643903751212001 -0.10707420104967522 -0.20084734787005515
0.0202037956221664 -0.0680504887722628 -0.20644438792723746
0.05349352617102504 -0.05311490589605736 -0.2033762835409078
0.03675698895293117 -0.04624144727217125 -0.20674330522078604
-0.0002667639748489811 -0.11296248430239128 -0.2038929366018209
0.05308365483122707 -0.04449297482000755 -0.20446533490676017
0.009553697298344379 -0.06801475578771995 -0.2084405027772817
0.02247771282034755 -0.053928181471695175 -0.20786662925738425
-0.007824454118434186 -0.13004705304132866 -0.20131744970339865
0.04436391253310085 -0.08618827158438133 -0.20132124949950309
0.04059096832114101 -0.09880821401106285 -0.19971336950320334
0.0026666786177718684 -0.08865909272657799 -0.2065612875368032
0.011870112608250384 -0.13654661172853874 -0.19918759693163962
0.024443235586460832 -0.07443483168112205 -0.20486739803809256
-0.021814856340113875 -0.08623729640470909 -0.20535783995646567
0.006328162144001727 -0.042977020087112655 -0.19876196016329856
0.058370735834416154 -0.06085793668257164 -0.2016000204231176
0.007715013216313129 -0.055600836815704574 -0.2106295578624639
0.005642291496571307 -0.06706039601789879 -0.2088270836021337
0.028931316326435808 -0.09559233480917381 -0.20247681964892478
0.043354776094731096 -0.0636685639046328 -0.2035124205495748
0.0063725378020370056 -0.1006372123383181 -0.2048549406673345
-0.009514692832652326 -0.05581824475752281 -0.21078523029345603
-0.0053463016049301575 -0.11966376000868248 -0.20273693431872458
0.03157704729872585 -0.06471474462973045 -0.20497769643324942
0.03073465485411525 -0.08725272113310265 -0.20321684111613364
0.055650528858479265 -0.0722391455792086 -0.2009774946119222
0.0010135139926040217 -0.13340273493753838 -0.20085651208418936
0.009543951938923602 -0.13278608018385338 -0.20007494617957206
0.05507874150114894 -0.05965374404417442 -0.20253214766043753
0.025336977432545427 -0.11158832901941704 -0.20025679995078177
-0.006910416890803571 -0.1275043039940493 -0.20161754418868155
-0.006078067828837628 -0.08554352814184593 -0.20712140728491873
0.052183803509052995 -0.058530256094803085 -0.20308207501429648
-0.00976667146844029 -0.07538200909124779 -0.20812531341570945
-0.001849893142405744 -0.12754780048357414 -0.20168635775107474
0.026113894174870256 -0.04564352327810692 -0.20869778622645468
0.03104760904150844 -0.0857228487156527 -0.2031932227756414
-0.004861507226649518 -0.12141366297232078 -0.20247342218417258
0.027172621677693132 -0.04847939306723045 -0.20787801374453635
0.057026412676151994 -0.07864297920690941 -0.19946775366324515
0.065519985149678 -0.06563876563536095 -0.1984593622829351
0.06516953964072109 -0.05588813120352196 -0.1998273186828527
0.062209215353306535 -0.07517896586882042 -0.1982672714139852
0.01754277605849147 -0.0523947327755587 -0.20903379251021476
-0.010204467584315534 -0.1255853324555056 -0.2016389720584783
0.015985276888188127 -0.08376295858847069 -0.20526512493151755
0.05996030230360866 -0.05119837814794945 -0.2024103902723226
0.06218292970496059 -0.07534654432760643 -0.1982513122703466
-0.005024943162623639 -0.07269011432157921 -0.20849495162028403
0.04124903340178371 -0.08490507298933433 -0.20216633905428977
0.05261459607916713 -0.08988244825827049 -0.1986993901874456
-0.03643021326226353 -0.11324988299833702 -0.19963469137209983
0.05907937545615077 -0.043187037052978744 -0.20346561600226493
0.008119907568272357 -0.11260390275942253 -0.20341010917681784
-0.020627263595286605 -0.11268243187891411 -0.20193030466097922
-0.011521581222239728 -0.06574888521658348 -0.20884395171660514
0.038426187227543596 -0.09463848167883324 -0.20089836944598288
0.0339822437270248 -0.06231154495703148 -0.20493457247275443
0.01984494585829616 -0.07945747667776512 -0.20503086377638907
0.06726055998640895 -0.04714144760595726 -0.20028345812815757
-0.000360283662501569 -0.1151139288567202 -0.203533729210082
0.05216049809294582 -0.085246428789963 -0.19973058034438224
0.0620039071543777 -0.042791590037216415 -0.20281141032237143
0.03006907958823085 -0.09233330184446739 -0.20268691112059684
0.02865054864722133 -0.09806631499754356 -0.20209426213759513
0.0063163604243362 -0.07635666424261497 -0.20778911341685385
-0.00370207767647862 -0.08641429239736961 -0.20703290928858847
0.04271885413962245 -0.043374136032928695 -0.20629835654753775
0.055864807556446794 -0.046479448618759384 -0.2038204871560964
0.014319416473683124 -0.07814748579489159 -0.20636721481341452
0.04051866788702846 -0.04360271984564232 -0.20657648672122092
0.013521429489430194 -0.07105906301962303 -0.2074397705938253
0.043036427686985734 -0.06984429055677818 -0.20315866698283286
0.05421590466338039 -0.04762609297262596 -0.203982269063178
0.02314459938841701 -0.051873788180221786 -0.20805417527217002
0.0662216510279739 -0.05121602112280296 -0.20010698367613883
-0.005218837072077985 -0.11409349733816551 -0.2037132434989843
0.013378944586094623 -0.11174957448469566 -0.20253843595046134
0.040946867655094865 -0.10477748507486748 -0.19858250547904105
0.013444241474446063 -0.07884712511526512 -0.20645864833849997
0.0413376953108871 -0.05456732207762169 -0.2049360625888738
0.020153042267140153 -0.054450347962249984 -0.20818390478152365
0.03427526016074062 -0.04271306091772484 -0.20767601360339255
0.0041054453356826354 -0.059216007532943954 -0.21066013504523368
0.052543696354206804 -0.05429886275755333 -0.20337257315177054
-0.025166842748347518 -0.07701481873022484 -0.20598112572688193
0.011023726652439838 -0.130064606609215 -0.20026821424025626
0.034671899269398454 -0.05799849325643944 -0.20541036654967398
0.022371109913166765 -0.08061085635649132 -0.2044177554990682
0.00868406553107143 -0.09579689795004295 -0.20508620668906302
0.01262160796957851 -0.07686202222334312 -0.2068947755243215
0.010574039409931903 -0.1412684320830004 -0.19880940546053977
0.06233048100310207 -0.046719834151138534 -0.2023566566850576
0.022648718546208146 -0.12072414154039787 -0.19924597968119712
0.02854463119345546 -0.11321437353121208 -0.19934464026946158
-0.008321288634959454 -0.06795309478269981 -0.20896542598265738
0.030274626205738786 -0.113129809441437 -0.19903436829108329
0.04651733894186855 -0.08227305108534264 -0.2016341291810903
-0.005794021894160504 -0.093640223088135 -0.20615698923129172
0.020406898449238542 -0.11235001677500175 -0.20108257760066123
0.01746093888121486 -0.1260014473818438 -0.1994935773755941
0.009638425300892596 -0.12431026989447044 -0.20128542710799308
0.0659271146758163 -0.06074745947348045 -0.1989582680608663
0.06092428822356105 -0.04645101720320152 -0.2027298711683187
-0.01303089003724217 -0.08343632513510155 -0.2068180345441732
0.04450210590201259 -0.09855611616598534 -0.19899152745265097
0.028816875408467058 -0.06339628988729881 -0.20556329716700644
0.05427661199408412 -0.0500274449013369 -0.20364332725066275
0.037470188329991105 -0.10494457179533409 -0.19916138578909964
0.05896937508421779 -0.05094154173361229 -0.20267616738337607
0.03302374143439174 -0.10518109792696403 -0.19995439578551383
0.034106519411381486 -0.0820854454659121 -0.20317060281294913
0.0056359137995803405 -0.1189942508362429 -0.20253994096774192
0.033958878706272844 -0.11274345213400291 -0.1984714769269857
0.03256997127371669 -0.09298031026350426 -0.2022992276098165
0.020578559826191667 -0.11425741011129784 -0.20071563650626273
0.04058664698439479 -0.06553216272818016 -0.20359385539549918
0.0243050124152267 -0.06228618318067955 -0.20645136167067618
0.05098381299811244 -0.043660566153396835 -0.20505564440745444
-0.011824313213053937 -0.14126874500738548 -0.1993520908500585
0.05339836735564113 -0.060472920479645004 -0.20272845555800528
0.011573221872624164 -0.09250880772100853 -0.20504306782740683
0.0079567994578445 -0.04749758535849022 -0.21181649495619864
0.049834486435230974 -0.06615643197523521 -0.20293342103022666
-0.018441114236537215 -0.14054125541674065 -0.19852296043891043
-0.04249951582116246 -0.06128565961347984 -0.20579997231024832
-0.0009249482647812321 -0.13229399913774895 -0.20103230108279319
0.008782115171726947 -0.07965050631987022 -0.20712817241210074
0.02229088206129909 -0.07498724752890037 -0.20518307913798423
0.04147919673758388 -0.07903383666502403 -0.2028335534479055
0.027155485342320207 -0.051029637398590316 -0.20750049282569022
0.0003467764361465023 -0.1358731239460604 -0.20053175617713065
-0.006757829000178571 -0.14392818504797386 -0.19942538966197104
-0.0006090436474716618 -0.08124394709097313 -0.20769922961253257
0.030044224451359514 -0.10438585275637077 -0.20066232015151114
0.05386775393324733 -0.07675780350195335 -0.2006798737193975
0.030650820921238664 -0.08413974935041832 -0.20326062072772116
0.03856846351462245 -0.055147990527023544 -0.2052419834281835
-0.0025792453781998113 -0.1522230505369799 -0.19837032784480185
0.0677966739638412 -0.053833410086502304 -0.19893321920889945
-0.02332231741112828 -0.13756504649149345 -0.19824360837000937
-0.004979435016337628 -0.09112997347341942 -0.20646250773924918
0.03454532880621791 -0.06918631488310265 -0.2039350472833547
0.04825800318556667 -0.059061065258850326 -0.20345704783457846
0.04507904906111598 -0.05793352419363426 -0.20395629633921714
0.0007624890311324642 -0.09659220272528099 -0.2057372682239446
0.03414243120985866 -0.05327303701864647 -0.20612551797885031
0.0032895471556747004 -0.1380367576502459 -0.19998045791644187
0.05218052525359035 -0.06606735283361839 -0.20288304020423026
0.037284102629002336 -0.06928224855886864 -0.20358513821620078
-0.005351218988124127 -0.10030366474615501 -0.20544320870894522
-0.009779784490290875 -0.14861211174951958 -0.19868428040999503
0.022794362495716813 -0.04918147617803978 -0.20886427690047354
0.019743379543598893 -0.09365306788908409 -0.203650956645194
0.02787676114874721 -0.05534459644781517 -0.20674589802283377
0.04439279098349452 -0.07353912288175987 -0.20313439299124808
0.05025365609961391 -0.055806651654114 -0.20352909494895072
0.002158578823384051 -0.09523712092863487 -0.2057709448482427
0.05721860785323024 -0.08174826199041771 -0.19880684246081443
-0.01727205853623509 -0.12751863891111778 -0.20037729074019522
0.014705058525379901 -0.05927319818960594 -0.20852543939608664
-0.01960862021607518 -0.06407339865194725 -0.20784818161982627
-0.008320931007090802 -0.10117523366438316 -0.20531885851878257
-0.005735192109767194 -0.13900637620912956 -0.20007721115607352
0.0007376040919387386 -0.060866251530517806 -0.21044591595191092
0.06342517990904689 -0.06386326247679161 -0.19958110679644675
0.006554838608082538 -0.1335819064997332 -0.20026743937987418
0.0007724728091323421 -0.07028059655653404 -0.2088360690023336
0.009304043243702655 -0.09172834450231956 -0.20547174443263144
0.05862292308646083 -0.04904146486746239 -0.20299284686106772
0.06559237499075771 -0.06573252374159264 -0.19841583599108786
0.04144158620673061 -0.09683851891981529 -0.19992304374236197
-0.0031321678654587224 -0.13897611195074486 -0.2000878952886495
0.05253892798262477 -0.06980334216581749 -0.20214380849856467
