ply
format ascii 1.0
element vertex 146
property float x
property float y
property float z
element face 0
property list uchar int vertex_indices
end_header
-0.06327212195557713 -0.07673673326002525 -0.19852284122962088
-0.06473303179902196 -0.07075215870367454 -0.19867364098090262
-0.06409344415825963 -0.06620736414419578 -0.19966832329291434
-0.0635558102623856 -0.07048054033743309 -0.19918552567023368
-0.0634935830132401 -0.06991507107244896 -0.19930370677966208
-0.06593951921624303 -0.0640347748421328 -0.19922189940470786
-0.07165173034829259 -0.053407832922806014 -0.19825509716528983
-0.07101503353280186 -0.053143396916259994 -0.1985448651458654
-0.07284191589516759 -0.049586549343933334 -0.19835839201468558
-0.06458667259377598 -0.06330643588529991 -0.19989739884394736
-0.0657981369988358 -0.05941675597654747 -0.19985221852320761
-0.06871539693040013 -0.05986921483503746 -0.1985678427364263
-0.0688625011937058 -0.05673067265974449 -0.1989096008684072
-0.06613174419564366 -0.05644695455061363 -0.20010564257163138
-0.0680654082791245 -0.05543573194967674 -0.19942783345240683
-0.0683158371941483 -0.050515517535080184 -0.2000520579959783
-0.07026753168267369 -0.052630260529388656 -0.19891715575713248
-0.07424468140763402 -0.04596368962751793 -0.1983401678945455
-0.0720275972382462 -0.04435421520697044 -0.19952661324996085
-0.07315129380387425 -0.04284195596205162 -0.19932365943450064
-0.06626570563477635 -0.04841540748106407 -0.20124391247290702
-0.06676537137192845 -0.04740093642698692 -0.20119752515811057
-0.06693065505189061 -0.044344112219681014 -0.20162791539687247
-0.0696958933369553 -0.042442336621155013 -0.20081627894896598
-0.055806520988169905 -0.0956677048824923 -0.19857614268321128
-0.05657473545235753 -0.0965316146038668 -0.19820488025206656
-0.054945680906001326 -0.099859967770447 -0.19821143676299185
-0.05690849166077733 -0.09456084662901329 -0.19838943113345237
-0.057480457832041976 -0.09372584516035484 -0.1983249538089666
-0.05055177550477147 -0.10624490672575401 -0.19846012224215598
-0.048477146436396834 -0.10547186428533958 -0.19902259637374015
-0.052474531938258406 -0.10468129807936119 -0.19822334279078574
-0.052351686765376326 -0.10206553334223198 -0.19856867720145316
-0.04866794090432286 -0.09987972671019005 -0.19970371355074973
-0.04809937219781041 -0.09486640984045433 -0.2004739992763433
-0.04981041293305516 -0.09960423404203819 -0.19947113622683615
-0.053183052350703475 -0.09522821003424095 -0.1993332408811483
-0.052585634996119734 -0.09488879138456749 -0.19950849343794913
-0.04711744527978062 -0.10990290338026451 -0.1987005673791799
-0.04623711447877049 -0.11403305822836327 -0.19826789726275534
-0.04560968618554234 -0.10720440739618706 -0.1992441021348867
-0.04545852880639195 -0.1028805076502459 -0.1998188399221334
-0.046975705434504744 -0.10206189745890068 -0.19973883558768363
-0.04604846577805638 -0.09989108139501976 -0.20011774231452079
-0.04606989364785313 -0.09910450870024132 -0.20020749200839133
-0.04512766342324376 -0.0980059056900637 -0.2004504852439794
-0.04782083969277501 -0.0936607866905825 -0.20067763854521842
-0.05554896931809544 -0.08786334091650413 -0.19973449934977622
-0.05717867951554417 -0.0905942767285006 -0.19884916175860495
-0.06037864427727818 -0.08591262990461754 -0.19847602178114981
-0.05625424127740025 -0.08691753441320824 -0.19963659872073264
-0.05569690804642796 -0.080209568085541 -0.2006062172796163
-0.05727884512108922 -0.08392097050177025 -0.19968577255267234
-0.05842566828889012 -0.07989548140989708 -0.19978820313471884
-0.06025567989510655 -0.08033128077017235 -0.19916581143397422
-0.05320674519700169 -0.09300591045843529 -0.19964209724921317
-0.04875356297654271 -0.09141318494306969 -0.2007532768394384
-0.05035961013001561 -0.08705274754988121 -0.20093423654097647
-0.052491221238795516 -0.08793853217588829 -0.20040239919680686
-0.054728332568827864 -0.08887116605268883 -0.19984382916945548
-0.05138823728722691 -0.08495475346075462 -0.20108077456015677
-0.05151743035477757 -0.08280389005171226 -0.2014883213188085
-0.049691382457438704 -0.08557103568540977 -0.20130269755381675
-0.054129752923671004 -0.08436585957037376 -0.20060292412299247
-0.05260640721482396 -0.08204139763342308 -0.20131750930804343
-0.05597600679558873 -0.06402601295935081 -0.20304646123904319
-0.05218807201546788 -0.06536732608305382 -0.2038488440658483
-0.05403277616662144 -0.06875552231298851 -0.20293660987872214
-0.05577773194474339 -0.06904141599165367 -0.20244765807646842
-0.05244392495316624 -0.06809888774382042 -0.20342562128562064
-0.054087344218913314 -0.07021097833143639 -0.20274007846373648
-0.048425022174540755 -0.06957159930693077 -0.2039876036788854
-0.04890498857659459 -0.06976427132116722 -0.20388407041091056
-0.047420654107753035 -0.06368099147306847 -0.20495096375006766
-0.05191493373078465 -0.06208096438871788 -0.20430945385951133
-0.0510082576767838 -0.06457562738882469 -0.2041922562267217
-0.0563669834629929 -0.07788519555555748 -0.20072849620837302
-0.05590591173333287 -0.07552517944799828 -0.20134001006144614
-0.05661723356408238 -0.07665224367605614 -0.20089310933608145
-0.06010681729478001 -0.07523189479338097 -0.199990769519988
-0.05866605382126927 -0.07150225335585045 -0.2010206632759008
-0.059476766397181746 -0.06987686449514793 -0.20098206926840873
-0.06014889817399144 -0.06964628392683433 -0.20074885119456382
-0.061316255141917464 -0.06926031404959129 -0.20033090342539878
-0.06126189570588231 -0.06706820422636436 -0.20072353412169547
-0.05175915699166417 -0.07646812492834495 -0.20235163499373526
-0.05257660489243626 -0.07498104864584373 -0.202372600927535
-0.05325577001732945 -0.07292877131925987 -0.20258565773028464
-0.04550925235909581 -0.09050618106352257 -0.20150910843867392
-0.04783115129632115 -0.08933009201513695 -0.20118167032260031
-0.045675579120341536 -0.08812786633001732 -0.20174786974448294
-0.045111152936640975 -0.08546684676634239 -0.20217818547743888
-0.04560146074456334 -0.08241660887228416 -0.20254953731555075
-0.04694009165925145 -0.08412022882925438 -0.20204389621275992
-0.04944888096017003 -0.07332710916029381 -0.2033033721591863
-0.04761278968018651 -0.070633813681473 -0.20397517611044974
-0.04598611931962132 -0.07516099506842064 -0.20355137218493552
-0.04920885305565953 -0.07732714706884788 -0.20289882053393454
-0.04494580965203404 -0.07765878731237816 -0.2033629619028005
-0.04435074668091893 -0.0762701481007235 -0.2036085926439199
-0.04461321573418736 -0.06746189290510582 -0.20481025208491416
-0.0439710352913773 -0.06537710124479698 -0.20514095355528922
-0.04566172104043126 -0.0682304351948397 -0.20459802974719138
-0.06133261661690831 -0.0546382516049044 -0.20230007697600455
-0.0605784092442429 -0.05630742007719444 -0.2023561798478994
-0.06365302543801427 -0.06284995371328758 -0.20034236241835685
-0.0632615421311295 -0.0620266645573275 -0.20058632422942252
-0.05873883109254002 -0.06532733136640953 -0.20204748739260764
-0.05898547511262059 -0.06558091932760643 -0.2019238375570211
-0.056262109090510604 -0.0608006268166201 -0.20327008296507926
-0.057537231256190535 -0.060360416712631454 -0.20291849006671042
-0.05647006969613194 -0.057883575501312484 -0.2035538457776937
-0.05678275566262364 -0.05776791268812584 -0.20346898366469474
-0.05849230628174901 -0.05497191840635704 -0.2032772504236135
-0.06194681267899632 -0.04954577976690697 -0.20282011260050864
-0.06401747803849339 -0.050548985543121566 -0.20183237422961325
-0.0622106228367722 -0.05230747157560753 -0.20228875209349723
-0.06422433595818638 -0.055786505284179916 -0.20099105466860862
-0.056866380979243514 -0.0536730735920565 -0.2039573245193395
-0.05777946453255772 -0.05155147606359886 -0.2039251380111608
-0.05690574984711766 -0.04904721671568321 -0.2045461588050756
-0.05867705087823033 -0.04706512385832237 -0.20435390402335257
-0.04822013120812535 -0.06113065773474144 -0.20511442948836417
-0.047322634269419905 -0.06158934527861046 -0.2052315824176702
-0.0502440963284409 -0.05967585736738609 -0.20489775170344443
-0.052200141956034896 -0.05648334318624901 -0.2048641495849523
-0.05063617568177342 -0.055358633341659774 -0.20528927971381278
-0.04783609848183751 -0.05062673980223106 -0.20640099574584098
-0.05052894692582249 -0.052584901394714584 -0.20563865233916373
-0.05411079864663243 -0.05182819062696861 -0.2050283752824697
-0.05411830883187413 -0.0536016374252932 -0.20481373895663352
-0.0625731978909409 -0.04412721091734337 -0.2034164868738088
-0.06031880121392369 -0.043897584023346176 -0.20434378613490195
-0.06260705332917332 -0.0482084899567263 -0.202763562693778
-0.06177041273278355 -0.046421751322616805 -0.20337974061030478
-0.05645469169777989 -0.0445514767788546 -0.20534547199267478
-0.0586841438309586 -0.043766334595550765 -0.2048350625183019
-0.04977381568116307 -0.046633168997635116 -0.20649092425364585
-0.05138784985703587 -0.042306795658935775 -0.2067163043167028
-0.046524766494456526 -0.05779726797567772 -0.20574532975215049
-0.04430985789460301 -0.056329503598083724 -0.20615248908061118
-0.04695794325036168 -0.0540315359257357 -0.20610946942824454
-0.04516774754685521 -0.0487975328587191 -0.20690699447650046
-0.04632532935303807 -0.048434629979004135 -0.20682129789847464
-0.04397240619820714 -0.048145487847198715 -0.20711270500678153
-0.04552370648545384 -0.04263018065916466 -0.20744619299429984
