ply
format ascii 1.0
element vertex 757
property float x
property float y
property float z
element face 0
property list uchar int vertex_indices
end_header
0.09803124923544765 -0.03540317708479332 -0.17343748141783805
0.10086083073454738 0.050890401063094864 -0.18475823630351157
0.078239973972615 -0.018367424549926983 -0.18517630328196616
0.10818415541487575 -0.03043507033811973 -0.16737244059104056
0.09314933080511928 -0.037545040192474594 -0.19082594443816275
0.09427386183577419 0.06656853860391213 -0.19030550648230643
0.07119628448325038 0.04760621493829323 -0.19806716372031302
0.08497318286734462 -0.0019486098908083314 -0.18434066106337638
0.09940486807661891 0.042723462042938004 -0.18432061900157065
0.08745076913672328 -0.03517948085295128 -0.17845979858893485
0.06718572635489345 -0.00777696067320274 -0.1914708517934713
0.05792483348685146 -0.026651784720291363 -0.1923109941627416
0.097796436737355 -0.0013567059658663148 -0.1789314948465261
0.04484960098105312 -0.020032450499405132 -0.19739646245497794
0.07116913456755519 0.03328682487977577 -0.1960821055318746
0.10392355580168605 0.014514580426345599 -0.1780939601804647
0.03900658745604396 -0.02984918648230003 -0.19690770436781974
0.10009994764166713 -0.025239929499496685 -0.17366149057406516
0.11022898216086269 0.006397172865997089 -0.18892998029250235
0.0906434323294723 0.10376866167558266 -0.19716217149752707
0.10205721516447902 -0.018183037581314312 -0.18954211999434561
0.092502829025563 0.09521625941766335 -0.1949483804847631
0.07570227641898036 0.03270624583734108 -0.19393101860541434
0.09206363220053554 0.07635076349748207 -0.19230287302989096
0.08573457259970546 0.08930380648149086 -0.19723702003020377
0.09417754072981716 -0.010583534779419172 -0.17935498584765525
0.08295368809538722 0.07129968708528114 -0.19591199387568564
0.0746815468772018 0.012537494359145892 -0.19118540514964194
0.0976208414538467 -0.015733674111236797 -0.19199549187678427
0.09186660904723049 0.10303525632394386 -0.19649415244120688
0.07411467690306545 0.0006016046382291442 -0.18968257833975882
0.09287017245131374 -0.021105214896072613 -0.1933592461492452
0.09844833273726344 0.0808656067229612 -0.190058027997199
0.09456899423437953 -0.030581697764267193 -0.19117157687205405
0.054817106912907365 -0.03078435355650352 -0.19280447591799826
0.08275308866339565 -0.029112413468231426 -0.19643471170920462
0.03643050451117397 -0.03611256176458763 -0.1963362001325521
0.0942023958666885 0.025627806840072407 -0.18396959234732718
0.09184813160735011 -0.03319124871717857 -0.17674306561011405
0.10722881216841579 0.007446453032623065 -0.19079745341796012
0.08351272005873561 0.0007169694281919127 -0.18536906470316977
0.09803163666563869 0.0035258979178769715 -0.19442824055213065
0.10877361554938197 -0.035280510725845565 -0.16622157920855613
0.06432103772002101 0.018370047268996968 -0.196648901000205
0.04058935899573207 -0.03587190801130699 -0.195841839208785
0.055134322832401994 -0.03700081998335289 -0.1917604856635961
0.08894496817427516 -0.02097345882879661 -0.1800480388547811
0.07915967364149928 -0.034275636019577255 -0.18233015169161887
0.09865483302908779 0.09302391117585732 -0.19184202481764884
0.11038168926077724 -0.010470464768280256 -0.1867512666131887
0.07168328423338771 0.019768104014526142 -0.19381759096640677
0.04314106364088893 -0.017857745232452617 -0.1979885004903707
0.10014617104369045 0.0724037439204557 -0.1883291952754888
0.0813193585379684 0.05164004868043495 -0.19378454019087882
0.10568880696135402 0.024839446005950703 -0.17832366158026786
0.08709731359320522 -0.008810326399673689 -0.18274730969924063
0.0889741744502151 0.049717292246948014 -0.19011708129901023
0.06964608688193202 -0.006209686341156232 -0.1907398455287847
0.10338413376646877 -0.028378799500335918 -0.1713025622512731
0.08981129188376308 -0.004573211016525494 -0.1821319215442571
0.07996624369459987 0.04042033856881691 -0.1930514477636251
0.09503489394026637 0.012567237076888811 -0.18233331073779196
0.07837843556242824 -0.02944932872282432 -0.19801116515654654
0.1080745424731338 0.05859152978433205 -0.18198241819399924
0.05646705288725734 0.007247492728362811 -0.19768265415686698
0.08760997314291835 0.004968956170211566 -0.18403359283465476
0.08683535117941737 0.06734095519555641 -0.19348851372260184
0.09688204188185573 0.04928855603707863 -0.1865521870996389
0.08824455399351955 0.08763875072969032 -0.19584736753958792
0.07523756880598903 -0.022116258683075176 -0.1860551737691793
0.07691397924261928 -0.03936399513708519 -0.1825165801193151
0.09099912304716945 -0.028817728104461895 -0.19321473468798728
0.07244488258200527 -0.007636770548691022 -0.18942440082091422
0.10915705222922206 0.02035184210313393 -0.1751852982189092
0.058619406412419084 0.007782623229156268 -0.19702874650019736
0.09485011954146266 -0.0009408741615908021 -0.19531661798018546
0.10976072807150722 0.03587891167176796 -0.19388866950530143
0.05802794952231288 0.014006689248214495 -0.1979492508317861
0.10052078623610378 0.005199953971038593 -0.17846799422759146
0.09870651025610805 0.0617356747962339 -0.1878954224731359
0.09599876065092922 0.042335107979903946 -0.1859149240400228
0.03846555609541774 -0.02870450908171104 -0.19713391889590354
0.0682069625361526 0.026947364268432392 -0.19641955722827048
0.07666989822226405 -0.0015443413876192445 -0.18831761707324118
0.08745163340407253 0.02814029162896706 -0.18764290739554496
0.10574203390913844 -0.020423337759842144 -0.17079839636344046
0.10742947120505214 0.04717640584481789 -0.19664906491297812
0.1065324511035049 0.111047014651428 -0.19075407613772483
0.09651145000296474 0.07451830810082985 -0.19010074962634177
0.10784056444006801 0.026661679206023945 -0.17704371143836112
0.10171472687559963 0.01491828268540932 -0.19461975027579398
0.0950665440066421 -0.03767631942259239 -0.17460200716513724
0.10347407717543483 -0.04054619366156029 -0.18586880494612784
0.08850079436140895 -0.04090203339086937 -0.17713450421351523
0.055954780767735246 -0.0068046897076265685 -0.19599623013991446
0.0646686222060287 0.00735755270494057 -0.194647809162322
0.0952961709006393 0.0184457749701841 -0.1829031609441671
0.1011875237925613 -0.012673512043823469 -0.19070554305571646
0.09982517022925258 -0.039614126028885116 -0.17180333067435355
0.09087490696745754 0.03409416979325844 -0.18687902916926474
0.10814389247732997 -0.036863669695724716 -0.1664304338838491
0.07602584023314357 -0.039765313210357894 -0.19763933648127646
0.08907720107870937 0.035065218863616715 -0.1879564278270635
0.08181428570586086 0.0563086420871122 -0.19408472408312888
0.09252625365095973 -0.02498613292204307 -0.19308621217269034
0.10159605402785182 -0.002380296530594098 -0.1765022032405767
0.10381790656882167 0.10923327511323525 -0.19186673094290824
0.10706364769774318 -0.027031913342346416 -0.18637526561278434
0.10168623585539699 0.03225572412980629 -0.18135026623267264
0.10288184542494655 -0.034335359873642196 -0.18731639315146537
0.06061070818739772 -0.026864573302139507 -0.19141065110224814
0.03502261299925685 -0.04083953792082237 -0.1958323918725881
0.09720155258017421 0.019749715981612934 -0.1971856259252462
0.041887488554295305 -0.016273990216125713 -0.19810893167513938
0.07776754755812526 -0.004677548947204816 -0.1874308787729177
0.08053889531927944 -0.009048148932327497 -0.18549851109046073
0.10542034764128566 0.02857400482667519 -0.19488038648623557
0.1058925654395187 -0.03891579801069664 -0.18494251896399588
0.08346998352843166 -0.023170307221283184 -0.18216449548262686
0.09000187773543239 0.07110993569863869 -0.19263755311030478
0.07958843965369106 -0.029450580420364605 -0.1975181751396093
0.050477680157002214 -0.027693614306320415 -0.1946686558868322
0.08259057659941554 0.07892088597787453 -0.1971403263952169
0.0986683632834518 0.037128791270385514 -0.18387526799697013
0.07771882076102138 0.03285537665856911 -0.19296148945349784
0.07565581459837795 0.05551619833482338 -0.1971710674907598
0.09383934397536159 -0.003099277558197247 -0.19545570541876883
0.1090988482935989 -0.00014699989782737438 -0.18854699064749808
0.07780253548460841 0.0052185506202085145 -0.1888816856290731
0.10245954651671291 0.042514994797836075 -0.1825914137508306
0.08203190226393581 -0.0316558628700869 -0.18141410280722708
0.09781115908461452 0.02466528123391701 -0.18234928478259177
0.09786295552092433 0.020597472844253315 -0.18195508946436972
0.08884977955656886 0.02903176849855019 -0.18707754243868918
0.09192528982001186 -0.024712487997879253 -0.1778681926872167
0.10679447312193752 0.052401408610473404 -0.19776632417697043
0.09647833962279201 0.09795890754235817 -0.19365349937934012
0.09092160720663905 0.09320677822602821 -0.1953492068197164
0.04585003514128566 -0.03960992390142845 -0.19413799573439688
0.06752043623762966 -0.014300331416000593 -0.19041368891257376
0.05838992853003383 -0.03483353549467491 -0.19086811472434134
0.09340908784705043 0.008750304637084734 -0.19730191458720298
0.10743915695982814 0.04269988840592934 -0.19603741694945426
0.10595416683989406 -0.013972833695282209 -0.18827508915919394
0.11002924699622035 0.03342364734185768 -0.17630683411616416
0.08936890621024013 0.027560040412078633 -0.18655753661650748
0.10496484894591213 0.08512540167344643 -0.1876588069345388
0.09075882692175746 -0.008960381092895734 -0.18132523228186698
0.1069301332934463 -0.02495963865744041 -0.16929741729754538
0.10789599675970912 0.0129337162352903 -0.17481145788687796
0.08197918195563197 0.011322543082366717 -0.18772592176455588
0.10345062274771571 -0.03849242621885704 -0.16963504780787558
0.10959064621764064 0.10318405931962563 -0.18815647591609092
0.08968656916457057 -0.028783872666229473 -0.1939327918435964
0.07288381118613124 -0.038158848824371566 -0.18445523609179587
0.09493088383513332 0.09143622225297524 -0.19324330021399588
0.10221114415961147 0.07232074445260597 -0.18752617169875235
0.10615154762106777 0.08187212055696083 -0.18659918536204428
0.07444697279768825 0.007541135010848773 -0.19058928419608206
0.09351730007964015 0.0031222552634580262 -0.1964631282236013
0.10543653030234218 0.05790434783471657 -0.18363881637114615
0.06316414136725307 0.021964028535018696 -0.1975307070161733
0.10231926698523403 0.037237659154067765 -0.19751969505805106
0.0874444212420547 0.04023350780976845 -0.18948664297122092
0.09166416187125087 0.004293039498458637 -0.197422986521903
0.10829004306631923 -0.008295223059524763 -0.1706198059465322
0.09885131974058986 0.006796255765090717 -0.17981884409445853
0.10679855604010463 -0.0023631303928987853 -0.17284982432383628
0.08737924356299281 0.07121612137330605 -0.19377285768050284
0.10402381081419826 0.035071298537383805 -0.19642453421610923
0.10756742615538478 0.012174233851562273 -0.19147572447318167
0.10197046060400844 0.04803060000909401 -0.18372433413523764
0.09167462248640895 0.08198516076577736 -0.19317164052981467
0.07255834002333522 -0.008324697556366193 -0.18928409148711295
0.11000942845183254 0.060295090136657487 -0.197360952987853
0.09818139333563686 0.05921398108972145 -0.1877014391567144
0.1034368540747726 -0.035606786551346054 -0.18683973480719657
0.05732538957434535 -0.02532561117636131 -0.19272006083983512
0.09597205777006984 0.09509398048890663 -0.193434333100501
0.07744842428999782 -0.028231784643997417 -0.1841107659484777
0.09858053583937526 0.06423686450494362 -0.18828331460017295
0.07662319798308254 0.038544103560577164 -0.19437876869696707
0.10355054993468166 0.00726290052903725 -0.19272053767699332
0.08534073490935207 0.0591988415099485 -0.19305231203097434
0.06126275319891811 0.015850320515762104 -0.19721161355036826
0.10799747366743923 0.05228610342515541 -0.19718137909430594
0.09890797395544887 -0.02280400687681602 -0.1745761983539495
0.10345750708418727 -0.029450461211075054 -0.1877229713346395
0.10996475477057338 -0.035636380257477035 -0.16538109411257834
0.05687585134344936 -0.018157556595672832 -0.19389641810912223
0.10357841510611415 0.058558329997192154 -0.18466914226073355
0.09472113509016872 -0.0046396105908052794 -0.1948243581201467
0.095557507465657 -0.035130515637268295 -0.19005579282301993
0.10759386081534267 -0.01655580097662376 -0.18790711988467307
0.10348969359236598 0.10814209288133217 -0.19187281061667533
0.08056768436270595 0.01519577210916115 -0.18904647757071585
0.10481792349654079 0.029268458542953266 -0.1952729128744039
0.10015976090269924 0.015874788222442402 -0.18070212532538504
0.0450954701407516 -0.028989538493026958 -0.19590816427725882
0.06465512175398708 0.026804015097747578 -0.1976814173604879
0.072780248115834 -0.03302748495565819 -0.1854849808360967
0.06890287656622768 -0.011151924671997297 -0.19030882944125266
0.05120870132284999 -0.02244089538084434 -0.1953986190702352
0.0788273479445541 -0.040659621300567855 -0.19636974264639945
0.11007845063048244 -0.0002811997555391664 -0.1879680954362783
0.10023674030142665 0.09408538049233986 -0.19130045701521964
0.10031720657187343 -0.042008474411834945 -0.17115684379595847
0.10516941208678127 0.017791017947326435 -0.17784096826571555
0.09174036640959621 -1.509481893943493e-05 -0.18188112010020346
0.08155741948920131 -0.011248066964020002 -0.1848441116954717
0.05053424496489406 -0.01751621061788963 -0.19643877972621054
0.040143188427265886 -0.041450902762283554 -0.19491187263983817
0.1102493073447311 0.1105366796828611 -0.18853876520651908
0.1100383367045486 0.09691934293283058 -0.18693878282565207
0.08141463656264186 0.0127695054389341 -0.18827003766554923
0.07143807072478175 0.010250017104278338 -0.19221514989394278
0.06220087070303798 -0.007819876017441022 -0.19329505194682212
0.09547543186980129 0.05489508813394142 -0.18819375862139792
0.1052221323950851 0.018111690936218037 -0.1778449319745931
0.07395654578047633 -0.017880424799789654 -0.18739128638762564
0.08226623792487026 0.08462546771539284 -0.1981294505741033
0.09260606427031398 -0.021916493716110454 -0.1780038230564031
0.06993379850226283 0.00012929743302894886 -0.19140005637663932
0.06756814975577236 -0.03734029823767113 -0.18690403331774802
0.1021199788554275 0.03731955593598915 -0.18195161749381156
0.09751754660445094 -0.022681131901611553 -0.1910685055400762
0.09534623880225063 0.09084762638581825 -0.1929671816970739
0.10024067420798183 -0.034453704895843734 -0.18842979301470847
0.1089091863139236 -0.027623131813873516 -0.18538296748656363
0.07402991909819484 -0.0054764896057741515 -0.18900460530776114
0.05156644840079189 -0.02617453032957481 -0.19455461730021567
0.1059787835581863 0.05092476314080788 -0.19792058099764914
0.10985657234030605 0.09946970647348 -0.1874740027334127
0.1098695065482223 0.10824702685845924 -0.18850620616931052
0.07380997795897365 0.05249519651902748 -0.19756420482653708
0.09599318761664272 -0.03266008192526268 -0.17488755811709494
0.09007253904181362 0.10208083694947792 -0.19709753026026816
0.047794815491017106 -0.026350840868820415 -0.19559839893836112
0.07712942023115993 -0.04156707221495079 -0.19688609768408866
0.10259952802496791 -0.01865880185591148 -0.18923976053256125
0.08978631753760219 0.026441946683059468 -0.18614513207930655
0.1070263053877914 0.09742869442475868 -0.1886990718986425
0.1018015112383926 0.0021610111571653016 -0.19266352583426566
0.07114117998915553 -0.012087866606582868 -0.1893316559936437
0.04150372404890895 -0.03166736656652855 -0.1963492982532415
0.05826925892668605 -0.020061477961410747 -0.1931591980602178
0.0832838680251205 0.06919123238099648 -0.19545494545954795
0.10500937361555934 0.10370166605485512 -0.19037327696341605
0.08835321326094508 0.08414457744134499 -0.1952360772039327
0.07296204228239894 -0.02479504043089317 -0.1867304049875173
0.0776679183943832 0.06246100371850563 -0.19726414014357657
0.0748266245825851 -0.03452657157408165 -0.18419148553866477
0.10619818825560451 0.042952075657974015 -0.18062997390288443
0.09970372576552272 -0.017629370035995708 -0.1907415293599996
0.042626884172734025 -0.02733431750761436 -0.1967791520502004
0.09523713249998927 -0.019335702004303203 -0.1771590613271627
0.0689173604949081 -0.001458510699142682 -0.19158483077544303
0.06374695558386684 0.010734483657012713 -0.19547430206793875
0.09461033005553127 0.034344449696670304 -0.18517076005000205
0.09503888745146633 0.06694059079660011 -0.19002709318656058
0.08343034643965602 0.06957827514184547 -0.1954211645271215
0.08294504542189479 -0.017257526459564434 -0.19806023468035788
0.10758524794417262 0.009801253733764422 -0.17450944115180106
0.08264898915129543 -0.02888683969007896 -0.18149963547247977
0.07937550206023097 -0.03569395834433006 -0.18205439080256552
0.09842821616965175 0.05480642622483803 -0.18668614853877158
0.0756135251029098 -0.04048509890066551 -0.19768830169695945
0.10833513398009181 0.010340824780593645 -0.1907141559268865
0.0616812970145309 -0.036103203835357894 -0.1895733677293691
0.07677948136168361 0.005723938403259052 -0.18941920031565757
0.080623265693959 0.045892104563842545 -0.19338343073386283
0.09972634572821498 0.01614780729783608 -0.18093407680052848
0.026473906229313615 -0.03635843092428612 -0.1977342121745977
0.10150488872366786 -0.024994865002502666 -0.18897027303237052
0.10555350441771388 0.012955203709731829 -0.17670207251566977
0.06668162007170558 0.012630090174804461 -0.19442175854701133
0.08977487344580531 -0.0005313902519838685 -0.18257219125289054
0.09611668844061733 -0.03251709038244652 -0.1748477273132238
0.10354363579588771 -0.038064852299560775 -0.16964160431880088
0.1013093258841598 0.023312017378936543 -0.19607395459670157
0.08031472225027919 0.03549070662034584 -0.19210963477152915
0.10640501637297511 0.05333314841760231 -0.19809493948477835
0.10020735521155238 0.02995248144639565 -0.18174255420226187
0.09129121560889125 0.017849370894561543 -0.1842250578548345
0.10738774795370937 -0.022481873574127422 -0.18685727347392173
0.08177363533812404 0.024255707917342915 -0.18969905902403922
0.08556753058272243 0.08455835288537575 -0.19666974772471518
0.10667338628607631 -0.036756619753708114 -0.16757101346510977
0.09067046303587795 -0.0149232595585482 -0.19508529235381217
0.08102425594168544 -0.016780182661880718 -0.18420465816516013
0.09445634145575404 0.11167611187470985 -0.19676116634863944
0.09718879718619228 -0.007215931954254376 -0.178363030448142
0.09158894080954433 0.08900617068780495 -0.1943896316434774
0.06015580553847194 -0.017971470894684063 -0.19265573252696128
0.06359171528654933 -0.029221430363525615 -0.19015060891169638
0.09501412172156215 0.07505162065995766 -0.19084626962203116
0.08584281463461757 0.06306959694398476 -0.19354130853671164
0.08844765682059169 0.04533909266961647 -0.18968615461844535
0.1035935546858871 0.01618970936311318 -0.1785875760461721
0.08457460660773158 0.01317541306985451 -0.1865284346486959
0.1067816879256332 0.021308973488937153 -0.17713082362670035
0.10731613297301174 0.014183059392104876 -0.17549881865042777
0.10586294193106532 0.04070819920075966 -0.19644497860926718
0.05634188313322902 0.005581989941726459 -0.1975673042680654
0.0934159423811996 -0.03873963648306297 -0.1752868049289617
0.10128071565466762 0.008968994078765643 -0.17878771354216666
0.10781627554732204 0.017455861029754414 -0.19245072235125632
0.07108977098303676 0.0028909892417295106 -0.1913564704801473
0.10566216368513942 -0.00799228245245384 -0.17260607112902732
0.08900946039992214 0.07978446787370277 -0.19418840636271567
0.08340406079131008 0.017968162951598896 -0.18793714572447867
0.08877542276221156 -0.015732005181183086 -0.19581416775244803
0.0987572636111343 -0.007121458592285382 -0.19273980487841696
0.07986801524001003 0.035947516617904435 -0.1923955731536779
0.0747590329154098 -0.011159494461883772 -0.18790345419901938
0.07615092058020473 -0.0357338338516848 -0.19813390602130027
0.06737047095137477 -0.012798860611786115 -0.19065957297343344
0.11022004146414638 -0.01947592193113731 -0.16773213972109885
0.050434228370960954 -0.010323211493362653 -0.19743271698016257
0.10830181498366237 0.07649125164521767 -0.1846569084073934
0.06658965010481716 -0.023919805827011333 -0.1895917855646047
0.08670702237921596 -0.004928603710998761 -0.1832867615367803
0.09496226568060756 0.08292205637467934 -0.19188964892882437
0.08956938643294216 0.02121759956849648 -0.18556722034472556
0.10636201162176967 -0.0073301940582888 -0.1722432725574407
0.03648441691237331 -0.024201914610733257 -0.19795278240698905
0.0851444568141067 0.09060357516778542 -0.19767128457087607
0.09047329087096095 0.04156996315492226 -0.18827099133986563
0.08662131090002895 0.012883618531356585 -0.18551113237399192
0.10480662841635585 0.04347015923036171 -0.18149574626940818
0.0953623022540176 0.047328487095962296 -0.18696894277590842
0.10441410202818752 0.0836514086104734 -0.18770739962119193
0.10699441690283656 0.04677341884149147 -0.19678412903803916
0.07900929112273097 -0.030516222061981426 -0.19763604332465262
0.10317149419623256 0.013352796492706072 -0.17837431062716574
0.0947746898634994 -0.012496635260452497 -0.17870995928305716
0.1024636890395248 0.021444842276702656 -0.19531839121836753
0.08172225613432765 0.05386735504640175 -0.19381620515841574
0.10242327709036708 -0.014374777617325056 -0.17369327475089164
0.08970036763983608 -0.0023417621277468078 -0.1971710674907598
0.10474067587691188 0.0288387090541227 -0.17943606306571097
0.03422414917784572 -0.02993439132200645 -0.19751245309371085
0.06445109505492091 -0.035140737833847274 -0.18883041073340506
0.09682440419035793 0.09004516905320717 -0.19221815992850394
0.08789464492636562 -0.02269668871389793 -0.19530837763804526
0.10825505513983608 0.04512687033189369 -0.17985319127101035
0.09099045057135463 0.06401620810998512 -0.19144522179621787
0.09874719042616725 -0.025602653565277324 -0.17429687608737082
0.11033567447501064 -0.03056089574324058 -0.18411303092497916
0.09141882915335536 0.05866353219522072 -0.1904823981668386
0.06842648644286037 0.02410124248040749 -0.19597715665358634
0.07204529304343105 0.022612944302688374 -0.1941643558885488
0.028285708616551164 -0.028642877879013286 -0.19815111686247916
0.07321005720930934 -0.02628637844549583 -0.18646623720187278
0.05430459637480617 -0.01609103375898765 -0.19526555170077414
0.1004081036551559 0.05946896976007057 -0.18662161160964102
0.07487281818228603 0.028310790715347065 -0.19382086922186942
0.04590439457732082 -0.03198002273069786 -0.1952460609819326
0.10784741897421718 0.06596617406381203 -0.18332155574816794
0.046637501905735734 -0.01689277583586143 -0.19747710753935904
0.06840452213126064 -0.02441318327413963 -0.1887624763395223
0.10733133215742946 -0.03613220149504112 -0.18496057917136283
0.07716369290190578 0.003064945397506488 -0.1887494527246389
0.10415106673079372 0.0693047792292936 -0.18612050045985312
-0.035652104427043196 -0.027160718979706035 -0.1968000136758718
0.09065708179312587 -0.0033609717510835998 -0.19666982223052115
0.097762998531636 0.0451162011004789 -0.1854898237134847
0.09782564301329494 0.02132166927827431 -0.19715185989398093
0.09480011124449611 0.0045221299506528504 -0.18131626178282828
0.08936899561720729 -0.011881187500824201 -0.19599789906996817
0.07532876391249538 -0.0147362797878878 -0.18721133996504874
0.07703742046194911 -0.02003817254530357 -0.1854699902679357
0.10282715816336513 0.05867271131051613 -0.18507890929240317
0.09843960065680385 0.09657739108575417 -0.19253027965087027
0.06451064009505153 -0.032131388726104965 -0.1893326394702825
0.08981725234824062 0.03248588746560646 -0.18716890145796866
0.08635782856779933 0.01548309629930092 -0.18603864838141532
0.07533013481932521 0.026002481637130512 -0.19334124554652304
0.07946163077193141 0.010631516633163226 -0.18904744614619345
0.09668659825163722 -0.007932826819290388 -0.19345185686606498
0.07195707816916347 -0.041351959051956405 -0.18427387405890555
0.09743681211310268 0.00698409980310036 -0.19528241981524558
0.10231580991583705 0.02095405763162209 -0.19533651103037925
0.10340621728735805 -0.013730063977112043 -0.1731474303151998
0.07181018252211452 0.01947887247575356 -0.1937240414764318
0.07055583257513881 0.005178406891952289 -0.19193602134245963
0.07029288668471217 -0.0011690109394686097 -0.19107389976042838
0.1031880940898025 -0.01847852760778831 -0.18906637062090964
0.10500865835982204 0.10091687744630409 -0.19008040954131217
0.08385613221960903 0.08225582545770241 -0.19710335661429496
0.07629611749487758 -0.038554951491226425 -0.19769318927783103
0.09055703539687038 -0.029091164412369 -0.1779532187129888
0.08319493789511562 0.06867401307595802 -0.19544424642581076
0.062268939207371476 -0.02428798371778892 -0.19114403952616782
0.10818647999602199 0.0503196865893705 -0.1806888781930837
0.10021400112944484 -0.008442625346054304 -0.17623757351893515
0.09977563876944423 -0.019343271794189678 -0.17458268035906882
0.09037455577689052 0.06004498904717995 -0.19113567997473807
0.09554269571143031 0.0033679456092221864 -0.19559920360106559
0.06559034843283534 0.00783522432817055 -0.19435020317095847
0.0796718861563766 0.05340556806100441 -0.19489129413622946
0.09795957465010524 0.07350040977967812 -0.18932335604685874
0.07317605275946498 -0.020451888384689556 -0.18721680869120688
0.10011312026816249 0.08608897036088539 -0.19025293518561454
0.09219979901152492 0.0661081821299894 -0.1911140583898458
0.08281281251746059 -0.017341837229599224 -0.1833507322217855
0.10928088087874294 0.03822658961785866 -0.1776536308671865
0.09601413864928127 0.043325796780715714 -0.18606272865790457
0.05878650803404689 -0.007144138159622418 -0.1947272323514852
0.08699831027823329 -0.01522754127012657 -0.1820251100208196
0.056011166761692766 -0.001579597535003888 -0.19671266306895346
0.0961988534434402 0.10526742046845985 -0.19490021993178458
0.028979059646900895 -0.030964955630172954 -0.19801532258051963
0.10547226328688503 0.009544625935683978 -0.17613824237841696
0.1044364239676559 -0.02144299441801475 -0.18836829592246146
0.0987276997073257 -0.015093341412414777 -0.19154863585490317
0.10321622748213649 0.02027736609948708 -0.19486751188296408
0.08539163727599025 0.04548634594453407 -0.19110900689620108
0.09879350323515773 0.0031543821669919618 -0.1940418236400518
0.07485752959090114 0.008001998124252093 -0.19049993683356375
0.08729743618803859 -0.018850877823700176 -0.19606406022566886
0.10311358828383327 0.0911439806796415 -0.18958755363482566
0.10820877213316799 3.3826209409361634e-06 -0.1723348550941381
0.10416194457846523 0.04774157708657814 -0.1825131975557241
0.09422903914290309 0.015350714383254778 -0.1829898409988317
0.10575583238440395 0.0006908327914579039 -0.19053410519618125
0.08602532405691982 0.06842432921899391 -0.1939810120012197
0.08874252099829555 -0.023698672594894634 -0.17968868245143027
0.10168665308791042 -0.017967984022964702 -0.17358619500655265
0.08170678872900844 0.03132252400888039 -0.19083570469874472
0.07725861329871059 0.047025248465667496 -0.1952496968652639
0.1100334789259994 -0.036757513823379745 -0.18290852536219687
0.0938858355982864 -0.039947494807113876 -0.1748428397323522
0.08842661638098598 -0.022953197302688823 -0.1950428538467321
0.07342901487189174 0.016632542071471943 -0.19252276946562857
0.08727964420157314 0.021439686474929585 -0.18656726707476706
0.08060156960326076 -0.01094706350790428 -0.18527782489317984
0.08364584703284145 0.05374695366395546 -0.19291246463317008
0.055092301557835344 0.0034440309382779725 -0.19769093920249076
0.07835253734427333 0.06843031948579384 -0.1977794819023046
0.06668430228072048 -0.029612734856476055 -0.18878490258711905
0.10315543074446559 0.0029801279879911073 -0.17650597323435874
0.04384120960074306 -0.034575387778152694 -0.1953843288566503
0.10273196954565883 0.02972163265718056 -0.19632128407019706
0.0877767171366775 -0.019454494061340557 -0.19577627409953208
0.0827023353083694 0.036277517733703385 -0.19110034932154746
0.096205141733464 -0.010669067444671857 -0.17827860046881766
0.0922650064929092 -0.002802446427215802 -0.1813956700708303
0.09955826062994838 -0.011899843754638898 -0.1760589532997045
0.07205792922812343 -0.038747861924041976 -0.18470845152396292
0.09628298539954067 -0.01343514019476341 -0.19295581211108298
0.08976131338911891 0.04518689220918251 -0.18909808029193015
0.064530816267308 0.015932396111617817 -0.1962436937238607
0.09423032064276576 -0.018026933016647564 -0.17790908147353263
0.07897233624297023 0.07292161887658669 -0.19809154202002616
0.09618857164221645 -0.0032379477642671935 -0.17951490510958762
0.09990182180243373 0.07197399443162514 -0.18841429580706687
0.077610250900563 0.03835694497598244 -0.19389586676615805
0.09368693489867091 0.03233070677293373 -0.18523236145037741
0.09683808345633388 0.10293410724176003 -0.1941795848752889
0.10334273834067226 -0.035841986479629745 -0.17012677122611136
0.05976709384756923 -0.018751844706405865 -0.19271632064837546
0.07232355732756496 -0.02260474854933189 -0.1872756086732778
0.1008748378260696 0.09849227970613075 -0.1916486226465139
0.10178881544905544 0.03177015489114357 -0.1970163040306005
0.08436444063025356 -0.015764132084717022 -0.19765504230517478
0.03769245405035854 -0.027185663523544536 -0.1974411361362371
0.07813557643729091 0.01379467552674843 -0.19000681270617575
0.07098596949416042 0.030533388314376606 -0.19575591911334128
0.08617630262213588 0.028803572116027607 -0.18838172186869712
0.08370107073622585 -0.03563038999067711 -0.1952310108091268
0.1084548201068008 -0.04033367330061363 -0.18311079372424216
0.07144760746794582 -0.022298350872863994 -0.18770564128417105
0.08140891451674342 0.0066865236140592225 -0.18731794287222953
0.04869347472029567 -0.025693193020691143 -0.1955066226865682
0.0832855667574966 0.04890657967103554 -0.19260566462534995
0.05921464819746852 -0.03551374370085167 -0.19047937323111624
0.0855509008868301 -0.01666404301153587 -0.19706976939696402
0.0774811770423019 0.04225568479074074 -0.1942333631660375
0.10593717951613307 0.036737874207626114 -0.1957946174289617
0.10991373319464565 0.0629009157992704 -0.18141611446398825
0.09763714332419277 0.021091476140151753 -0.18210152317542166
0.10685684938269496 -0.01505152875410484 -0.18811469306010337
0.08917233009177089 0.05459709471238686 -0.1907059602882299
0.09010833163100124 0.050090745148788224 -0.1897257470037374
0.09588369388419032 -0.02579499775396751 -0.175862511291686
0.10671010274725795 0.034241631684432755 -0.17860504020709128
0.06943118233519435 -0.0003198831699983949 -0.19154772688407035
0.042915758083637956 -0.03756316000448631 -0.19510196675318808
0.07186779041128993 0.0419983119346006 -0.1969201170350942
0.10872020978766322 -0.005152419152130353 -0.17101547647971244
0.09945755858260036 0.011509701666961443 -0.19506733645457358
0.08784484524565578 -0.03281889850126671 -0.17868584920424552
0.09053945202666164 -0.03505714231954979 -0.1924427651311788
0.06665765900450588 0.0339697748996122 -0.1977586202766332
0.09456672925787807 0.06957985466493202 -0.19043197263735862
0.09854682941275478 0.051261916813979874 -0.1860377394105825
0.10040333528357387 -0.038486525359024276 -0.18761224080580802
0.07831179756956935 0.06795923417581154 -0.19773364593047232
0.10362532396155238 0.023651793656478657 -0.1793967240001592
0.09245216507750392 0.03956072038186623 -0.18692678739089102
0.10943612117606044 0.042346879897247086 -0.1950893305684957
0.07565074820357204 0.028761014399657978 -0.1934891246702108
0.06636425514059902 0.03351576632035805 -0.19781373967188925
0.09049477834540248 0.014083847460876238 -0.18414314617175193
0.07070943374472499 0.03349350398553444 -0.19629295696276755
0.10419770736533046 -0.0011181085728304261 -0.19109744359511466
0.1032532717688644 -0.019098564925064312 -0.17252316106814475
0.08388712663489223 0.04354654258264137 -0.19157992829341025
0.09044256467657924 -0.011557713093628156 -0.1955769114639196
0.06841438669997096 0.022793725190292134 -0.19579297830123038
0.09005206484633327 0.021835342106948628 -0.18543471921938987
0.09580272097426296 -0.01786004001127647 -0.17714703609007926
0.09376963634329677 0.027980789599548115 -0.1843096219446096
0.08296677131491542 0.00898052757752968 -0.18679254282969565
0.10297295112448573 -0.031176075281967388 -0.18777548302668662
0.09285151619749904 -0.014055415930618513 -0.1794272415782842
0.08644973893004299 -0.026224657835830913 -0.1954223864223394
0.10895603556471706 0.04292650526536537 -0.19540766407507987
0.10473489422636867 0.03819461172593666 -0.19658427466410727
0.046180066059407 -0.03824453050123619 -0.19419469465273947
0.07884990830260158 0.029259666857848896 -0.19192745317477317
0.09923070330458522 0.019838288483749165 -0.1964151166822347
0.04756369848090053 -0.008147105517257917 -0.19801787067908377
0.053620960901554826 -0.005558684410919415 -0.19680421580332846
0.10957610268431545 -0.016266688647140728 -0.1686753832246694
0.07878416437941432 -0.025881573500503765 -0.18374483813304038
0.08680972118216396 -0.020392164530624615 -0.196068530574027
0.08659022707777858 0.023313507495055927 -0.18724200655478568
0.07448145408469081 -0.03446654969679283 -0.18435000409144492
0.05450671572523952 -0.041300222220291366 -0.19162893821257682
0.0871603157027328 -0.041101500334610214 -0.17761640776652426
0.09138178486662746 0.008306905684600603 -0.1981316112424764
0.06435948271590114 -0.005490228476394879 -0.19293356467742057
0.10145595331030727 0.06072334950936867 -0.1862702571298513
0.10440757531958461 0.013397738394866717 -0.1775950395013723
0.07214870710211635 0.009574249444137347 -0.19176333178538413
0.08566125888663173 -0.041505441012253036 -0.19361125458735556
0.08894517679053188 0.06767822807801796 -0.19270714153308005
0.09738391299086452 -0.035105690302719345 -0.18940598298567862
0.08447610993224025 0.023426577506194843 -0.18828183938521476
0.09589656848746181 0.06443037098420692 -0.18950640191096396
0.10278355736571193 0.015088215527663958 -0.17891508866805167
0.06374594230490566 -0.005362078490127789 -0.1931715958263311
0.09199314970808864 0.00196279591096474 -0.18200417388934226
0.06205436248618007 -0.009979978146423566 -0.19298111428279013
0.09670307893591762 -0.019736960472931133 -0.17636250485438437
0.08698221702414394 -0.02013100677954124 -0.18122405339736075
0.08932411331969142 -0.005906328501571881 -0.18218371798056693
0.0978131260378921 0.08391945069802834 -0.1910328917648229
0.10354774851637721 0.0708708614684446 -0.1866832130100164
0.10707997937041164 0.07343535130990578 -0.18501323987502188
0.0904145802958572 -0.017727658095230327 -0.1799458168889913
0.0660801794035995 0.015668377337585224 -0.19541357983607383
0.10000529546576381 -0.003499641957153546 -0.17737334002513022
0.10561188716727138 0.00012190645707680042 -0.1905303650047216
0.09283962507086635 0.04801718896401955 -0.18817578782099814
0.09066855568724513 0.04438151424897743 -0.18860568632144065
0.11035108227568508 -0.024865284504760967 -0.16672076810855002
0.10348388213950038 0.0014023930407865172 -0.1759763412620458
0.09388544816809535 -0.03193460399137901 -0.191286494627181
0.06637087125616908 -0.020590886416305767 -0.19006132115382285
0.05592283267813564 -0.0007321088932649965 -0.19688275982398123
0.09493860263663173 0.06083442276490761 -0.1894389592554006
0.09521168131667018 -0.009056433977951276 -0.19387668897170157
0.08545288104849696 -0.03083597117887901 -0.19520190884131522
0.0779955949290359 0.06957195704949928 -0.1980981879379186
0.07288348336058498 0.05390729015840126 -0.19809271921176047
0.10712667960959316 0.06041438883317543 -0.18289137412566275
0.100014534185704 -0.01725862914549278 -0.1906439118530187
0.09624024886923671 0.02109591668618752 -0.19773288597125144
0.10089656371909023 0.08480615919602943 -0.18963507343787284
0.1070824827654922 -0.003994896950592267 -0.18901034225482077
0.05889504809218288 -0.0020184367321627013 -0.19558010031241507
0.08238300342398525 -0.03729729348646568 -0.19551133145350547
0.07214250821905971 0.03075237577928139 -0.19526818920630545
0.05803376097517848 0.0026268810607297547 -0.1966275923396978
0.1035659577353561 0.06508158153070046 -0.18582201529997916
0.09515845436888576 0.07956017559541298 -0.19133630920905204
0.10026433725195766 0.043040409741531144 -0.18391378749865622
0.05496862191992641 -0.03750793630110191 -0.19178382088202567
0.10325234789687038 0.04000987118257118 -0.18174720336455435
0.09587290544348598 -0.03536473208891319 -0.17457074452895255
0.07396402616339565 -0.033571287932266464 -0.18470617164630027
0.06518098373251796 0.02277852600587441 -0.19698788751620383
0.0382668044074142 -0.024652436318268047 -0.19771761228102774
0.08542194623785854 0.04171322291863991 -0.1906167917396459
0.10184165496664882 0.035007402358184586 -0.1974123172904882
0.0591674711211288 -0.003646448197235333 -0.19513190318602652
0.107324686239537 0.031083211360107197 -0.1778960578586492
0.0818848874075973 0.050144538340698014 -0.1933531962778005
0.09630572457152248 -0.027884766402115093 -0.1908277474786672
0.10180568356352687 -0.031282588782181014 -0.1882737629558477
0.06540810723143459 0.0025452226973874696 -0.19384989668387503
0.10790013928252101 0.020350530800948872 -0.17618859340209098
0.09891599078017116 -0.011300310435165632 -0.19196603228110404
0.08335208554106593 0.04834909742845131 -0.1924946211721334
0.08386680145102382 -0.020966008248199688 -0.19701736201304526
0.03474914688902736 -0.034946367087234725 -0.19673109580535025
0.0935125913127029 -0.0015786736630098695 -0.19581318427580924
0.08059966225462795 0.06226445740235878 -0.19602992166537375
0.10363390703040004 -0.03525383764730858 -0.18681838144320578
0.04265957732039333 -0.03181673580633568 -0.19615930844801993
0.10439422387915492 0.09168882673753334 -0.18905140985507102
-0.04202366213959813 -0.036642417254318466 -0.19485444356459708
0.10451435704069972 0.09986113017571999 -0.1901917659189138
0.09255164522963405 0.07478962844384743 -0.19191143442648978
0.09868123788672328 0.10485450929177834 -0.19356267680186362
0.09731331128912807 0.006435528454910053 -0.18052381803053946
0.10399675030547023 0.049833282885680924 -0.18294895221251578
0.07840329069929958 -0.0048574357651369445 -0.1870714329625997
0.10330959815817714 0.014465376792083514 -0.1938705347921285
0.03989109058218837 -0.034069105925430526 -0.1962080352451238
0.1038437451823318 -0.039755716862549056 -0.1690857165004644
-0.04320642690819859 -0.025195285620559917 -0.19603646327513785
0.10310160775023341 -0.003771647753586041 -0.17514578033942313
0.10286348719435573 -0.02405719453321861 -0.17220661570090384
0.1065360869868362 -0.018357202353348003 -0.1705902867462072
0.08770486373740077 -0.007946595492233503 -0.1825998627092275
0.04030230302649379 -0.01910324388967918 -0.19802640904444785
0.07239749688940883 -0.03583891684042381 -0.18508495916384787
0.0855557288630569 0.05621407931817604 -0.19244416584033103
0.09941318292456508 0.02022899693025185 -0.18132414449709983
0.09058126468497157 0.058179453072677384 -0.19072402049559684
0.08566102046805263 -0.041829898896087875 -0.17814751495379538
0.06165179271536708 0.018752679286132588 -0.1974910252239141
0.06577300686674953 0.01738052075875832 -0.1960268818284902
0.06409006972151637 -0.036187753023971786 -0.18878095377940268
0.06726100702124477 -0.013315692486633527 -0.19062908519763083
0.10227974910574794 -0.003196731152405011 -0.19172500599879355
0.08804767985182643 -0.0018359869145052308 -0.19787335921782584
0.0994872416956985 -0.027980312647690044 -0.18938948740023703
0.08908247608977199 -0.003592744412292706 -0.182505195632163
0.10714333910780788 -0.006359860243667828 -0.18865684200781913
0.08749645609694362 -0.006613150181640851 -0.19745509852427573
0.07736679572897792 0.05394895380509926 -0.19625668753642173
0.04659682173567653 -0.032897546830047836 -0.19488813509005637
0.10152288932639003 0.10594393318666054 -0.19233544696826071
0.10029783506232143 -0.008874550404419172 -0.17609750260371299
0.10244577784376979 -0.00918336206900047 -0.1905642651464376
0.10910185832816005 -0.030087932886947857 -0.1667162083532247
0.04960265416937709 -0.018957212509979473 -0.19659056295413108
0.1033431257708633 -0.0034025757931368224 -0.17505147089022727
0.1052836443884933 -0.008621349873413313 -0.18928874064940543
0.09846350211935878 -0.0018447487972872133 -0.19369940985697837
0.07780617136793971 -0.03331916028486656 -0.19778956998843283
0.09879612583952785 0.09122575825227333 -0.1915519588138494
0.07581075687247157 -0.02242033177839683 -0.18573703397769065
0.10246777195769191 0.05396576231492592 -0.1845164649631414
0.0919256772502029 -0.03329069906698631 -0.17668752898234458
0.07972305674391628 -0.037752970995773544 -0.19641568292636008
0.10790222544508815 0.016490504202972187 -0.19225089777964682
0.07058706540900112 -0.015592381300796735 -0.18908919919985862
0.0772125687106216 0.02073501056207253 -0.19137453068751425
0.10428833622771144 0.005797937569747699 -0.17622526515978904
0.08821016211348415 0.05418147152436806 -0.1910104208137426
0.10265791077452541 0.06605668371690346 -0.1864904217864904
0.05521404404478908 -0.03533001238333153 -0.1919106595661077
0.0977622832758987 0.014982596097121966 -0.18156911958712668
0.06282719631033779 0.010925009904037249 -0.19598584403056235
0.09152915735083461 0.1108774692393644 -0.19781731595057578
0.1094630922778213 0.004289642033706439 -0.17226610113638968
0.10565682906943202 -0.0022972672604219787 -0.19014442492980094
0.07237901944952846 -0.0320244877957003 -0.1858061455633077
0.08413722772436977 0.06683306401742531 -0.19470392693537802
0.041949417780216935 -0.01690314704405235 -0.19807695378321738
0.06903260607558132 0.007827535328994524 -0.19297430445212455
0.09025743264990688 0.10567043727410866 -0.1976023965026769
0.09231328625517726 0.09741528337968422 -0.19541156817931266
0.08914643187361598 -0.039944276156296005 -0.19238143195170493
0.10679101605254054 0.03972397750390602 -0.17962509919661612
0.10755160112219692 0.02280671900285317 -0.17675687898654074
0.09967562217551112 0.0018497855044705992 -0.19354330529231162
0.10460349578696132 0.07726149266732765 -0.18665588428038687
0.06081875819998622 -0.022528394999374615 -0.19187559713381858
0.10359063405829311 0.032063111720214615 -0.18020697464007468
0.10448240895110011 -0.005177274289001691 -0.17389737595576377
0.09591853279906154 -0.03196589642988609 -0.175019165172759
0.08770048279600978 0.016763225255141987 -0.18564637531298728
0.05718072910147548 -0.031064227166046367 -0.19189501334685416
0.10794847864943385 -0.03863607341276573 -0.16622901488799185
0.08444162864523769 -0.022139832320083843 -0.18194240857619376
0.0999510552390182 -0.011497691216339338 -0.17586370338458152
0.08751800317602992 0.09373290842546059 -0.19704497386473746
0.08768862147169948 -0.012251093926300275 -0.19667204250353904
0.10433682460623622 -0.01253409677969383 -0.18923414279479117
0.0912160243495071 0.10907466715348793 -0.19770326246279807
0.08366152305441737 -0.011215344014038313 -0.18396135200518698
0.09153848547774196 -0.000727847161163556 -0.18188098598975272
0.03393706340628505 -0.02724640065657066 -0.19793266583937735
0.09847595949011684 0.011888280568252337 -0.19553292323607535
0.04780780930357814 -0.03082625562178062 -0.1948958389903936
0.06847983259993434 -0.029770478548874126 -0.18796992827910514
0.058493849228199724 -0.03655929857717918 -0.1905697934772405
0.08144226331549526 0.07127641147149635 -0.19670402039546103
0.10408359427290798 0.02734075492394997 -0.19534467686671347
0.10118466276961208 0.027380928454528584 -0.19667873312491507
0.05301013250189662 -0.005133405270447003 -0.19701588679808707
0.10687902231055141 0.07370464509500099 -0.18518487144965262
0.09597980637389064 0.09662015741838051 -0.19367549349326224
0.1013887788756454 0.08017601078523232 -0.18861681748885245
0.09124529023009181 -0.03847666079031395 -0.19159439732092948
0.08247598666983486 0.019239291606078877 -0.188692500486556
0.07168110866385341 0.04533122485650612 -0.1975336127426061
0.0691779818041885 -0.007159605564941632 -0.1907793187047872
0.06491529602843166 -0.020016267838348614 -0.19072087635058493
0.09701841730910182 0.029366776404510273 -0.18344077993887992
0.08194917101698757 -0.002454891743530499 -0.18554440666693778
0.08362301845389247 -0.036940112652649154 -0.1798879407789144
0.07950821180182338 -0.03633417183386253 -0.18190508116740317
0.060721632431324724 0.0013593286849362975 -0.1953194044973287
0.08680310506659389 -0.028914675059189068 -0.19503549267310233
0.05165847797232509 -0.03527139121519493 -0.1931168340589437
0.07810663838225246 0.006543710885177387 -0.18900147606391043
0.09667029638129115 0.06338112061990334 -0.18903099526423545
0.1043051447375381 0.051461294350753556 -0.18315029670256705
0.0851899947627151 -0.028992399515976177 -0.18037950028437705
0.10962685603934169 -0.009075954499115217 -0.18719485928076834
0.09713273901778102 -0.027219310345520244 -0.1905671261693868
0.0952615406020248 0.0021762103415830262 -0.18079333533305258
0.04629942436056972 -0.025253757777084575 -0.19619930316466422
0.07250347394781947 0.04236911242974831 -0.19673182596224875
0.0913456048472488 -0.02699564391600059 -0.1777793370630178
0.082817610691365 0.03337763255609108 -0.19062804211634726
0.05750605125265956 0.0037942082263333924 -0.1970288955118093
0.08572944660025478 0.05552239721788002 -0.19225074876803488
0.08657768030005336 0.02796147769464089 -0.188037564649764
0.10127994079428554 0.026330605206619038 -0.1808541022684011
0.10032972354727626 0.056812480149398575 -0.18612833847064109
0.10111763734656215 0.02394981688035561 -0.1808196805860433
0.09024169702368617 0.03970159595979286 -0.18802482415694327
0.10632040757971645 0.011140599904189837 -0.1920124046947393
0.08255716819601894 -0.029093906226028667 -0.19650483657378287
0.11012595553236842 0.03709675377381874 -0.19391371835726828
0.10402512211638332 -0.01167948538290428 -0.17308636535662741
0.09448763389426112 -0.030228540243973003 -0.17593826879519553
0.09222021360236049 0.0727498680926664 -0.1918377630855474
0.08011272210913539 0.07491366570962502 -0.1977976762201223
0.03877943415480495 -0.03823418909536766 -0.19570318390387625
0.0759066011412704 0.013835206685195696 -0.19088230062979789
0.1036071147425735 -0.004726931395401227 -0.19080268372553916
0.08611949939566493 -0.018346473517288433 -0.18189691533106894
0.09082239527541042 0.08442686503900124 -0.19404504229086966
0.09586792845564723 0.07599873846543861 -0.19056080807704062
0.08183121342497707 -0.016426399292816387 -0.1839344256069097
0.09573569555121303 0.00916390126718117 -0.19635060955542655
0.07045483250456691 -0.03733225161062645 -0.18562387455958457
0.06889184970694423 0.02102504676354958 -0.1952259295131597
0.10820087451773525 0.03195141261590553 -0.17731304992693991
0.10992419380980373 -0.03451572352873253 -0.18362725307005973
0.10542064566450954 0.0991507322169645 -0.18968731690901847
0.06809371371107936 0.004399821219573749 -0.19301091660517783
0.09197902340727687 -0.03672270471083092 -0.17617561449069113
0.05376121063071132 -0.00031174713598655407 -0.19758146037119956
0.10158505697089076 -0.034391358437408676 -0.17151804794329734
0.10891690511542201 -0.03367255622373985 -0.1844476663019094
0.09222045202093959 0.011157050786147845 -0.19814505208987326
