ply
format ascii 1.0
element vertex 207
property float x
property float y
property float z
element face 0
property list uchar int vertex_indices
end_header
0.08505371202132678 0.3059979509973922 0.19215383490131663
0.11812958110473132 0.30660722967628623 0.19251635035084055
0.08325701941153979 0.31216476675514365 0.20123341043995188
0.07695943106315112 0.3112641405725875 0.20174285133884715
0.12896889437339282 0.3102187943125167 0.1813945408682661
0.10354647029540515 0.31364653822425986 0.19108583887623118
0.0887310205807445 0.3119999599123397 0.202551209531291
0.11751398433349108 0.3060223292971053 0.17321034630344675
0.10654398788115954 0.3115724157953658 0.19377853830860423
0.09213528026244616 0.3125492763185897 0.19985892733143137
0.07370361674926257 0.3032961320543685 0.19584449490116404
0.12111830700538134 0.31157527681831504 0.17648985346363352
0.11494770635268664 0.31216375347618247 0.18171247204349802
0.11962002504966235 0.308948917355577 0.1892143126349287
0.1172199248184917 0.31032793041710044 0.1897059317450361
0.08103728283545947 0.31028477665428306 0.1951053973059492
0.11032941926619982 0.31176005121711875 0.1911979552130537
0.09530839313170886 0.3065761160517135 0.2053590651373701
0.09135085333487963 0.307060284581224 0.19039376934574412
0.10645115364692187 0.3039585780764022 0.20015331467197703
0.09562262881896472 0.31212286468986655 0.19720705708072947
0.14496201265952563 0.307417197194139 0.17237236460254954
0.07417842734954333 0.31143359657768394 0.20665689667270945
0.09993571032187915 0.30578611608986045 0.20330282410190867
0.13602727640769458 0.3067831229830184 0.16140588482425974
0.032833635698771235 0.3054938745165267 0.20806577166126536
0.10435569275519824 0.3107906412744918 0.18472477158115672
0.09285444010398364 0.3123273682260909 0.20004227121876048
0.09469282616279101 0.30817977901939536 0.20495834311054514
0.11989107717177844 0.31164113995079185 0.17648657520817088
0.10923144210479235 0.3114704322481551 0.18408133944080637
0.10647398222587084 0.30348835703376914 0.17928501328037547
0.09237685788772082 0.30549447056297446 0.18812736233280467
0.1380600332131145 0.31034003015998984 0.16252174337909983
0.1263402997364757 0.30577789064888145 0.16870053967045115
0.1316121219506023 0.30672637936119224 0.1633116241316633
0.11925351608893847 0.3088874053621688 0.17459579666660593
0.09812059987685656 0.31075469967369224 0.1998065348486738
0.07703879464766955 0.3046111297274032 0.2118605013708906
0.0882768927922008 0.30658785816673423 0.20829101761387156
0.13067412365577197 0.3109049033785262 0.16946049889133738
0.14363586891791796 0.30684022423271323 0.1744536991934614
0.08186122764251208 0.3068715166712203 0.1933017011504011
0.004749953638529536 0.3041648697519698 0.22630878647373484
0.07204502810142016 0.30553881641868735 0.21343525608585642
0.018992394100641963 0.31316821094993735 0.21599438150928782
0.0958518086781261 0.3077959847116866 0.18576928337620066
0.12303346384665942 0.31296984669212485 0.1813596721510725
0.11860060681006884 0.3085256051683822 0.17451729734943675
0.08860856283805346 0.311270637478868 0.194350206456645
0.07789018739364123 0.31055895802024985 0.20615603884266184
0.10657140601775622 0.30501101728920127 0.1998089786391096
0.12645143259665942 0.30653457161430503 0.1698651548247175
0.11365982879302478 0.31165008064750815 0.1861208911757307
0.1025152801384685 0.3127977084780135 0.1889546748022871
0.031247019659495112 0.3069344591761031 0.22403826674030589
0.12466171373031115 0.3055636715555587 0.170111023984416
0.08413147915503955 0.3088549208307662 0.2073693509917097
0.13654828060767626 0.31029204842094565 0.1763038869719343
-0.014537274945760015 0.3045970630312362 0.20777543743656443
0.1010581849922893 0.31145565029625083 0.19763191898868845
0.10065412510535693 0.3093870114946761 0.2006469603400068
0.07919093955657458 0.3111250829363265 0.20551195105121897
0.11103263486525988 0.3119176458979049 0.18570079763935374
0.10426643479964709 0.3114737105036178 0.1854204173903303
0.12588152278563952 0.3104098271990218 0.18476691206501292
0.12903153885505175 0.3116305899286666 0.17912980278538035
0.077077418457484 0.3089145850801864 0.19722070654438303
0.11859962333343005 0.30837528225425864 0.19073405226276682
0.07753401983878588 0.3067363929415145 0.2111070390562849
0.08422586311004138 0.30661563393119956 0.20928307732151316
0.1021752356400249 0.3109924029970565 0.19756003578708933
0.13849854458472705 0.3089453410768905 0.17724409063862132
-0.00478154431679273 0.31023637768272544 0.21108832319782542
0.11192056525847888 0.304110689129869 0.17585685213611887
0.08181837190291857 0.31228415485862876 0.1989324327330427
0.12117317308089709 0.3082247805262008 0.188945674500926
0.1506850718369243 0.3075903486872115 0.16812213619755076
0.010273218046641108 0.3110415768289962 0.22121878822849558
0.06048947561881518 0.3077686261797347 0.21606155594394968
0.11390471447608447 0.30575756546501304 0.1951109405379133
0.1319780944695232 0.31176225658897544 0.1693260308127241
0.14785945404670214 0.3091814350748458 0.16920062264011668
0.15759789932868457 0.30883548971656943 0.15979757269428538
0.13317120064399218 0.306121392216722 0.16241397818134592
0.10508102167746997 0.3079597186708846 0.1824074025969343
0.13425558794639086 0.30781797882560874 0.1813932891707258
0.1250125466694591 0.3099427055979171 0.1732753749708967
0.07293683279654956 0.3082123231554427 0.19861456116245554
0.01529166091582751 0.3057861756945052 0.2083611722807722
0.0685361324658153 0.3119006585741439 0.2073722120146589
0.1467366813530681 0.31203375574592734 0.16284956892536448
0.13309907902381396 0.3105746340418258 0.17408546169803904
0.15495651949546313 0.3079427909517684 0.16192390879200266
0.11243244994780993 0.3059196900988021 0.17600192984150217
0.09076735366485095 0.3105084728861251 0.19269868095920847
0.020570248257136103 0.3106798958444991 0.21050115784214304
0.03522244084975695 0.30325142857078696 0.2071700330595808
0.08851847041747546 0.30394415375236655 0.20945658644245432
0.08733558643958544 0.3090264629984298 0.20650448759601878
0.1210229693760631 0.31106929298881675 0.18675526341007517
0.04279112805030322 0.30592541214470054 0.2217259045462446
0.09619176376960253 0.3103864025736251 0.201413833699687
0.12782531965873217 0.30946062323097373 0.17185112198398875
0.14104437817237353 0.30846117254738 0.1750500436644392
0.11309644569060778 0.3097595405245223 0.1778356071333723
0.14046138514182543 0.3072449993753829 0.17703905066059397
0.139878213297343 0.3045276832247176 0.1785559292654829
0.10134613503119921 0.31180243011955405 0.1954241033415632
0.14668285835883593 0.30842928406242515 0.17035456856296824
0.1438910364022014 0.31030683037284995 0.1703759666304426
0.13160878409049487 0.3077130150461593 0.18305447062061594
0.09168919910094714 0.30481897112373496 0.207847201428874
0.04328143585822558 0.31245200153831626 0.2126820321898298
0.1284501551499126 0.3053873014116683 0.18650027473972605
0.0956725775112865 0.31123427864555503 0.19097843130634592
0.1422496436943767 0.31139527079109336 0.16526796778248118
0.09833523620269274 0.3099976610804 0.18619945009754466
0.07768478978774523 0.31103609320167686 0.1995612021307783
0.12165406335494494 0.3083642553949752 0.17329677303837107
0.09996217478415942 0.30904249664787437 0.18517883976505564
0.13192343701026416 0.30455688950065757 0.1846938367705183
0.028563409935450312 0.3126411270761886 0.21851232012317942
0.07550680626533007 0.3115882110262313 0.20467188318775462
0.14013582457206225 0.3107049297953048 0.1664132710318403
0.12368211139342761 0.31261454340461875 0.17986121138141917
-0.00833889852859998 0.30717681166175986 0.20882137974308299
0.09843108047149157 0.3066187333727279 0.18412407597111033
0.13477289665839648 0.3108082842493453 0.17429127653644846
0.12272560585639453 0.3115620445871749 0.17669680079029368
0.15310364950797534 0.30770657774452354 0.16371639927433299
0.08684852708480334 0.31196735617164756 0.19639774521396922
0.11747828115127062 0.31181262251381064 0.18526699503467844
0.12012788642547106 0.3051673602724471 0.17144831379459666
0.07618704427382922 0.31061999317649985 0.20773365458057688
0.11165064562461352 0.3088258933687606 0.17870053013370799
0.11836403597495532 0.30665556904319907 0.192380094132884
0.13579338778159594 0.3119716477060714 0.1685202356200056
0.10235744703910327 0.3056152891779342 0.18207248409794138
0.0958563982357738 0.31003705975059653 0.18834956844852732
0.10649570811889147 0.3106208276415267 0.1959986325125532
0.091608166586375 0.3053965401316085 0.189151072106822
0.13299357880256152 0.3098600339556136 0.16512372454212473
0.10014417756698107 0.3114309739733138 0.19664838274524973
0.12456619728705859 0.30944798704628135 0.18697037657306956
0.13130116451880908 0.30901132341865684 0.1815173264365034
0.11232525099418139 0.3095754813814559 0.1937318678717451
0.11313036073348498 0.3093728255892196 0.19341840704487132
0.1504419444908855 0.3095168900156417 0.16551336010502146
0.05149826396605944 0.3111231755876937 0.20937373598621653
0.07861584414145922 0.3083339166307845 0.19534918030308054
0.13038176287314868 0.3095827531481185 0.18118491133259104
0.1047316788544414 0.308887345757524 0.19807412584827708
0.14442771662375903 0.3106500935221114 0.16898682077930735
0.15086203802726245 0.30491398092750693 0.16884287556217478
0.1200597285141704 0.31220768209938193 0.1778620119910078
0.15281468619010424 0.30943588730339194 0.16223421057270335
0.09054723371169543 0.3077050280237594 0.19104191025303172
0.08043220628402209 0.3118675183916488 0.19827862938450144
0.12727648008964038 0.3052616548204818 0.1664389606337385
0.14594501246116137 0.3099787664080062 0.16950079163120554
0.08505371202132678 0.3059979509973922 0.19215383490131663
0.11812958110473132 0.30660722967628623 0.19251635035084055
0.08325701941153979 0.31216476675514365 0.20123341043995188
0.07695943106315112 0.3112641405725875 0.20174285133884715
0.12896889437339282 0.3102187943125167 0.1813945408682661
0.10354647029540515 0.31364653822425986 0.19108583887623118
0.0887310205807445 0.3119999599123397 0.202551209531291
0.11751398433349108 0.3060223292971053 0.17321034630344675
0.10654398788115954 0.3115724157953658 0.19377853830860423
0.09213528026244616 0.3125492763185897 0.19985892733143137
0.07370361674926257 0.3032961320543685 0.19584449490116404
0.12111830700538134 0.31157527681831504 0.17648985346363352
0.11494770635268664 0.31216375347618247 0.18171247204349802
0.11962002504966235 0.308948917355577 0.1892143126349287
0.1172199248184917 0.31032793041710044 0.1897059317450361
0.08103728283545947 0.31028477665428306 0.1951053973059492
0.11032941926619982 0.31176005121711875 0.1911979552130537
0.09530839313170886 0.3065761160517135 0.2053590651373701
0.09135085333487963 0.307060284581224 0.19039376934574412
0.10645115364692187 0.3039585780764022 0.20015331467197703
0.09562262881896472 0.31212286468986655 0.19720705708072947
0.14496201265952563 0.307417197194139 0.17237236460254954
0.07417842734954333 0.31143359657768394 0.20665689667270945
0.09993571032187915 0.30578611608986045 0.20330282410190867
0.13602727640769458 0.3067831229830184 0.16140588482425974
0.10435569275519824 0.3107906412744918 0.18472477158115672
0.09285444010398364 0.3123273682260909 0.20004227121876048
0.09469282616279101 0.30817977901939536 0.20495834311054514
0.04578259576461291 0.3070532512331405 0.20622935255573557
0.11989107717177844 0.31164113995079185 0.17648657520817088
0.10923144210479235 0.3114704322481551 0.18408133944080637
0.10647398222587084 0.30348835703376914 0.17928501328037547
0.09237685788772082 0.30549447056297446 0.18812736233280467
0.1380600332131145 0.31034003015998984 0.16252174337909983
0.1263402997364757 0.30577789064888145 0.16870053967045115
0.1316121219506023 0.30672637936119224 0.1633116241316633
0.11925351608893847 0.3088874053621688 0.17459579666660593
0.09812059987685656 0.31075469967369224 0.1998065348486738
0.07703879464766955 0.3046111297274032 0.2118605013708906
0.0882768927922008 0.30658785816673423 0.20829101761387156
0.13067412365577197 0.3109049033785262 0.16946049889133738
0.14363586891791796 0.30684022423271323 0.1744536991934614
0.08186122764251208 0.3068715166712203 0.1933017011504011
0.07204502810142016 0.30553881641868735 0.21343525608585642
0.0958518086781261 0.3077959847116866 0.18576928337620066
-0.013375192988896611 0.30899481293205405 0.22321006020115183
