ply
format ascii 1.0
element vertex 728
property float x
property float y
property float z
element face 0
property list uchar int vertex_indices
end_header
0.13962545652228237 -0.20534512394892143 0.13140597413521676
0.13850357789831996 -0.21602962905394005 0.13050639103394418
0.14726188440161586 -0.24155704671369957 0.11206671069603831
0.11953344602423549 -0.28592576080786153 0.1353998131607142
0.1497646834357345 -0.21831318730341362 0.11504810522538096
0.1127853955729568 -0.19912379974352287 0.1547484345291224
0.1316358115180099 -0.2034739702366488 0.13933216999512582
0.14247521419363857 -0.26987253123747273 0.11294379304390818
0.12352969903784633 -0.22549605363832878 0.14253740976792245
0.1113430823786819 -0.2680815308712618 0.12502014111023813
0.11271482367354274 -0.2684925048969881 0.1437405295227137
0.11851822991209865 -0.2206056862496035 0.14719616840821176
0.1529138352377975 -0.2036606817864077 0.11338185738068492
0.12314986843901515 -0.2620552628658907 0.11512249182206065
0.12203210253554225 -0.2240859269522326 0.12354525397759349
0.12131997604208827 -0.26334734255300923 0.11683141659241587
0.14257847924071193 -0.23541273170935081 0.12068810533028514
0.12035712261038661 -0.20543809229360985 0.14807050894242196
0.1208064522250259 -0.2534715979717867 0.13982355068665414
0.11893459815817714 -0.20092326396929192 0.13070558975678354
0.11317145485716701 -0.21272139245497154 0.1328326709125605
0.11422037739592433 -0.30322121078001424 0.13679885338288217
0.1480337049468124 -0.244478926005234 0.11053493092995555
0.1333079602225387 -0.23554126912580894 0.1323361642215815
0.12176370282011867 -0.21025303000437187 0.1461134500358668
0.12620412964659572 -0.19851124280916618 0.12406432102661998
0.12832456488448024 -0.2509299367092745 0.1345220751617518
0.12458809871512294 -0.21274805063234734 0.1433876700256434
0.13926016945677638 -0.28088904911505147 0.11498087118607432
0.11963438649016261 -0.19844135636316704 0.1499036497924891
0.12085911292868495 -0.2333969175242083 0.14330449174385934
0.14200830120879054 -0.24025408917890953 0.12023877571564585
0.13583773035841823 -0.2911709993504183 0.1177669710968104
0.12845393676596523 -0.21176230901705193 0.1190714783523646
0.11874210495787502 -0.25497432047354146 0.1412969477031794
0.15132119912939906 -0.21629695588575767 0.11348783443909556
0.13601129908400417 -0.27490960055815145 0.12119301627617747
0.12760057706671596 -0.23574717337118553 0.13761642049294381
0.1179203655226791 -0.20779132837282585 0.13005136917572885
0.1556570198042953 -0.19911080593096184 0.11059322427254588
0.14790513772803188 -0.22780908638464378 0.1151952690933314
0.12150030989485622 -0.23877152794825005 0.1213736183498469
0.1297216977580154 -0.19891799980627464 0.14172586272698312
0.12948032874899745 -0.22779397660719322 0.11416768501740367
0.11911075968581081 -0.201571211161484 0.1304748303745356
0.11671405691939235 -0.3240960388802187 0.13149034450989633
0.14808061380225063 -0.19886475795732902 0.12108849953156382
0.11505403776007533 -0.21287809306608604 0.15106439064484506
0.12855544347601772 -0.245967522206177 0.1352607555244532
0.13524812121230007 -0.30479432636724874 0.115832263932046
0.11272254247504115 -0.2489254921101229 0.14663177202683358
0.12158977646666408 -0.2507845609806673 0.11891611884575755
0.14331623573141933 -0.2445551752470629 0.11691489289742381
0.11906319517928005 -0.21675576263891624 0.12763389419060617
0.11783492226439357 -0.24821892374979423 0.12307044337731272
0.13291155953245998 -0.21901744598375725 0.1117065794323054
0.1325758363707626 -0.2054457067869799 0.11521693538170726
0.11275016922789455 -0.280257597508301 0.14162980984192758
0.11585074324446559 -0.1973927318476336 0.15272330711823373
0.1284499134524429 -0.2021037935637133 0.14216881464463144
0.11673131246405483 -0.29642517858969136 0.11535494993668467
0.14185613055067897 -0.2277160435341494 0.12336644004326731
0.14296346564131618 -0.22033911937700676 0.12365948627930552
0.11278569359618068 -0.281635269465317 0.1413945503089991
0.1315089132292831 -0.2040430902861254 0.11684968541603953
0.14361449737387538 -0.22121901804434227 0.12251162003022105
0.13182335753279567 -0.22420948738085197 0.13607328604203134
0.13761809129553676 -0.2995458095692293 0.11361306379776866
0.14203494448500514 -0.22989116603361534 0.12268438409310252
0.14453562755423427 -0.2044154106997149 0.12508603404503732
0.1262288655741775 -0.288883849921097 0.12965663741570382
0.12218451161223293 -0.20465035730825828 0.14670544336777597
0.12182160873251796 -0.2417884915493624 0.12042775224190623
0.141388144682225 -0.27102197700964376 0.11429467271309764
0.12489139695006252 -0.2511973529480593 0.11517899702530772
0.14116975326376796 -0.22467766696440147 0.12513926099282174
0.12404402751761318 -0.22314572328554558 0.1424992627952662
0.1330386664374435 -0.2718758433483736 0.12561219404679208
0.12807732481795192 -0.3034121840618746 0.1250221378658381
0.12417408485251308 -0.22950334841238426 0.12025820682984263
0.12768801708060146 -0.21236272150503563 0.1411545224044886
0.15531709451514125 -0.19820015126692223 0.11096459101181895
0.12914505262213588 -0.3247991650723116 0.11941632102471263
0.11273282427626491 -0.22554364794718193 0.13093807767372995
0.1250619556410873 -0.22758048767076897 0.1409866757248011
0.14535376090842128 -0.19652575248705315 0.12576898406487375
0.15089562196570278 -0.2024465202711718 0.11626737783890635
0.12029143829184413 -0.28142754727827474 0.11442091535073191
0.11745205182867885 -0.20531028503405022 0.13094898532372384
0.1135469045146072 -0.2144089191578524 0.15196352671128183
0.1324682797892654 -0.24240364128576683 0.1322836525295344
0.12414368648367763 -0.27283655101286336 0.1113689489219752
0.1481649543746078 -0.21358554059492516 0.11789643238526255
0.13668095726805568 -0.29598681622969075 0.11561983297806651
0.12577610869246364 -0.2292053549908297 0.1401845164154139
0.12735059518652797 -0.24475662404524254 0.13644119571190744
0.14344820041495204 -0.23506556445585655 0.1195103771541682
0.1407804157240951 -0.25266472989546224 0.11923297713738353
0.14360847730475307 -0.2123710363529818 0.12482287953835398
0.15266176719504237 -0.21823075407968925 0.1111441798065272
0.12738600034552455 -0.2570384591244356 0.11079796622734935
0.12072133679228664 -0.29296167189108296 0.13340323637467294
0.11414897103148341 -0.3335869758747713 0.13163807462197213
0.14470877904730678 -0.26336421066748067 0.11180367539864451
0.11298295516806484 -0.23233763867842125 0.12972312639695077
0.12782463092642665 -0.2236966490172045 0.11718511055451304
0.11395671624976039 -0.19687217468248772 0.1543122477386561
0.11758541722136379 -0.22116652125345634 0.12799503873330026
0.13037475604849696 -0.22090645128714012 0.11462082932930857
0.14189812202292323 -0.22317057842241692 0.12430414031487376
0.14608633179503322 -0.19825576240049766 0.12427648375969798
0.13100990314322353 -0.305333360972275 0.12119394014817149
0.13507592339354396 -0.19764009112345146 0.13768070410233407
0.12312620539503932 -0.23841492825972008 0.11967756818276316
0.15131953019934535 -0.22233077877985405 0.11205991576653392
0.11760699410277248 -0.2123884558104174 0.12946232627373605
0.13194888491469264 -0.25024168187605306 0.13135972093087106
0.11253294010001064 -0.2204443811796801 0.13195791314583688
0.14602449197607875 -0.2517883031986849 0.11217000554543406
0.12549465555983425 -0.29945521050917073 0.12826922009926706
0.12905752320128322 -0.21425354475008415 0.13967337678414254
0.14049935002165675 -0.26891972118841573 0.11602705191117198
0.12994339723425746 -0.19840662175642418 0.11994155715447337
0.12762999195891261 -0.2938512116097109 0.12737941215973764
0.12221833724814296 -0.2045371978901522 0.12702115844231515
0.11445802111464382 -0.21148219698892998 0.1320797152374354
0.11578806896048427 -0.22371836000906395 0.14878135393601327
0.12297773022490383 -0.260421171727051 0.13717013071518808
0.14717548746901393 -0.23363752657400536 0.11462845872383982
0.11338236589270473 -0.24497266108023094 0.14689364503365426
0.1375119354231918 -0.2685639708660738 0.12018650244217784
0.13692009110289455 -0.29908098274694844 0.11472984622460276
0.12480505962210536 -0.23011977964865135 0.11945002745133311
0.1202566291792953 -0.2067562639139788 0.14798747967224984
0.1370076205237472 -0.2698433547638552 0.12060975502472789
0.13150754232245326 -0.2818893044613497 0.12559368680458932
0.13274806399184108 -0.23602662974821495 0.13284983705025583
0.145048793743428 -0.21446768933760094 0.1225226468895045
0.1402439739211166 -0.23184870177732872 0.12481748531800181
0.12706333060103298 -0.200745314302315 0.12274440597039134
0.13309779424506069 -0.19946612411962913 0.11573042939644725
0.126252349804219 -0.20490190381037163 0.1228409058902827
0.1421888436778152 -0.21439447993265556 0.12625848721009164
0.12156012315588832 -0.19933259481417107 0.12855168651085763
0.1386020745738113 -0.24894453579412865 0.12302264045220286
0.1276287998660171 -0.196987271251549 0.143673980936822
0.11055078763800502 -0.2717705517433779 0.12504553268891244
0.14130717177229762 -0.23589639359938072 0.12241637180786998
0.15175446529227138 -0.19845028215872215 0.1157244689319697
0.13974323530035854 -0.20465573662744926 0.13141381214600473
0.11577403206663966 -0.19941836589800285 0.1332740135047999
0.1464952196581924 -0.2527805417202608 0.11137374709587962
0.14110222120123744 -0.2080188989065783 0.12889438341599374
0.12472477216559291 -0.2408051639221804 0.13910829494934945
0.14470061321097255 -0.2590766995571749 0.11266609500389964
0.13382762331801296 -0.19987218076216148 0.13827031324845224
0.1179474856360519 -0.248845860304703 0.1429224259708491
0.1207325722678268 -0.2710806577824251 0.1368133373115626
0.11642703075247646 -0.29289899760710164 0.11635520528298289
0.1389641727908218 -0.3040303140305178 0.11084073255997569
0.14617001671629787 -0.2465102970026629 0.11253645490151316
0.11264103312331081 -0.2552667706631319 0.1262556857917872
0.12078603763419032 -0.3122385292671816 0.12995844553452401
0.12746184725600124 -0.2303570061348574 0.11621570061188609
0.13205176253157497 -0.24153669172750877 0.13281341861229806
0.15312978286581874 -0.20688083762155937 0.11270415256958873
0.12826186079817653 -0.26452706748472615 0.13173901508789926
0.12066301364737392 -0.2588940709255831 0.11838334272843272
0.11986875195341945 -0.2526915221832888 0.1408474392746058
0.15326556224661708 -0.20356591040121483 0.11294826339226634
0.11574107069807887 -0.22113825375067162 0.12940403293114572
0.11983409185248256 -0.33394290501104756 0.12735738824349313
0.11534464020567775 -0.21269448095785545 0.15086650322419076
0.1307185854418838 -0.29208280140386983 0.12431039880257518
0.11505385894614101 -0.29376746708380147 0.1174642391059962
0.11469602246123195 -0.25006686145292684 0.12549334238510995
0.13300677795248866 -0.2147792726181643 0.13633864592057138
0.12792265076475978 -0.20682638877855705 0.1416350550506678
0.11099445481139064 -0.21894894534574913 0.13337343405228524
0.13633951206045986 -0.19775716954695152 0.11206832002144725
0.1132300760253036 -0.25813339644895955 0.14505195091706186
0.11629119176703334 -0.2779932468556063 0.1393745786998835
0.11801430244284511 -0.2642140834950106 0.12006350825768382
0.13045876879530788 -0.21398666495310234 0.13867470096093087
0.14255755801039577 -0.20664861792551445 0.12731560538750558
0.12640365619498134 -0.2553414552830355 0.13523238371354013
0.11899450082617641 -0.24956776195990013 0.14191737245064645
0.11848026175337673 -0.30104236299024983 0.13382052849274545
0.1410376395686233 -0.20272307092176842 0.13028314183693795
0.11826970834570766 -0.2841677218102114 0.13670500586968332
0.14947589893179775 -0.20236046606527733 0.11831959556084544
0.1500386263831222 -0.2254426925800936 0.11309748362046153
0.12982135672407985 -0.20893959695326256 0.13980945418816476
0.122901257465657 -0.24485470348822044 0.1398076958511439
0.13925197381811977 -0.26458670193182393 0.11873897384148509
0.13241931457358241 -0.21017767483221458 0.11460843156319529
0.14276393909293056 -0.24011313909517693 0.1190981216285792
0.12244513292151332 -0.26007394486891194 0.13765146802407174
0.12481954355078578 -0.19786582881437706 0.12564205597382455
0.15522041578131557 -0.20339673751818108 0.11068707178574473
0.11995795030432582 -0.30149810010420247 0.13250824283104806
0.114851381967839 -0.22245337063299583 0.14969878862839608
0.1167037751181686 -0.23365887993799614 0.1464120693061915
0.11186524886923671 -0.22410437458979057 0.1517141408775416
0.12595790285902858 -0.255303367915024 0.11298798988800914
0.1189361478789413 -0.2741494327210085 0.11724757622223765
0.11605333943205715 -0.1979628800772326 0.15247070263367563
0.1386580433352554 -0.23870591813551353 0.12547075222474008
0.15315356511908412 -0.20835615688787865 0.11247953246575267
0.12563928623038173 -0.27363218361364766 0.13259601067047982
0.11329200525122524 -0.26653228694425984 0.12379523585778147
0.12786754627066493 -0.2623602002285616 0.13269796441536813
0.13891943950491786 -0.22480410331713127 0.12790828417282968
0.13923295993643642 -0.24702005082594322 0.1225417799804774
0.1408221091731155 -0.28803627187239095 0.11076923678856761
0.12508201260405422 -0.22286669904219078 0.12065055440407664
0.11834993619757533 -0.23268793517576622 0.12534725140076547
0.12579062242346645 -0.2653211205624239 0.11091735433083445
0.1497111584647262 -0.20289528364168571 0.11789670060616404
0.12054887075262904 -0.24536381656156944 0.12104430268746287
0.1396789218886459 -0.21823568636404442 0.1285660512302485
0.1346258189185226 -0.22340807312952446 0.13358026216965585
0.1430399682028854 -0.2628124206684725 0.11413800190430552
0.1373702253802383 -0.26320315891729756 0.12184890578728587
0.14383232254820705 -0.24060089880453514 0.11726211975556285
0.11044519800978542 -0.21493175620066093 0.15428333948594003
0.11465146798926235 -0.2540100663326876 0.12492879699211985
0.1156085099680984 -0.21944808954225944 0.1298364348266688
0.1158437098963821 -0.2705767005108492 0.14098679493409066
0.14030760187941432 -0.24115337425695824 0.12241965006333262
0.1389784779055679 -0.2899687140606539 0.11318081091385752
0.12819286842184902 -0.2969155758045809 0.12607711027604013
0.15129318494635463 -0.22503474349008964 0.11143665979844004
0.11419102210837245 -0.28807039553152486 0.11937167714577586
0.1405336226924026 -0.2610546796940462 0.11766880224686534
0.1364876296027267 -0.3038353174351351 0.11444246242981822
0.11211514134245754 -0.2620029597901003 0.1453119463775721
0.14331307668524623 -0.21712155634390282 0.1241311080310908
0.14634638686018825 -0.19989959889875816 0.12349545429688365
0.12677782435255885 -0.21114483469950127 0.12103670309525401
0.11823695559340358 -0.27609883243071004 0.11759906481247813
0.12435897846060634 -0.2765115945957796 0.11048402856331736
0.12509363550978542 -0.22041501099096703 0.12117289970856578
0.13774820823508144 -0.2272604554318087 0.12883522580605417
0.13077461380797267 -0.23577058309542107 0.1112248248909083
0.12650659341650844 -0.29249884182440206 0.12867903183442025
0.11336153406935573 -0.21876829856859611 0.13166588018875985
0.11912077326613307 -0.21723961824404167 0.14719008873444467
0.1227043535216415 -0.20010551804529594 0.12732433746796518
0.11474209685164333 -0.222384199442734 0.12992304037552743
0.13954388756590724 -0.29738767439352437 0.11103146742325694
0.14924093742209316 -0.21797527367102074 0.11577546070557505
0.13417347926932216 -0.26835747057424947 0.12482264111977488
0.1123780276282394 -0.20672613376604485 0.15387874315720468
0.14295747537451625 -0.2673057764195101 0.11301260660630137
0.13517203588324428 -0.27930141979681417 0.12156310151558787
0.13794919509726405 -0.2112631797217028 0.13226469825249582
0.1356443132861221 -0.21742953354345726 0.13342448543053537
0.12981438298064113 -0.23472188407408165 0.13582765530091195
0.1381159688933456 -0.2761630564354555 0.11797162364464671
0.13477590341406703 -0.2265854328297274 0.13264238308411508
0.14827188510733486 -0.19982919091211723 0.12056675027352244
0.14686086435156703 -0.21712024504171776 0.11905246447068125
0.13345771689253688 -0.258969321789612 0.12796642850380807
0.13258465785818935 -0.2774809151314394 0.1251591987464991
0.12471881170111537 -0.2716094105862276 0.11089667151909739
0.14343502778845668 -0.23762878769861626 0.1188544578407374
0.14478101987677455 -0.24333395058142113 0.11487230132561595
0.11239030618506313 -0.23903915280329155 0.12937026689988046
0.12268235940771938 -0.2657558470390932 0.13614054988366037
0.11920061368780971 -0.22093476349340843 0.14661287735443979
0.11482172865706325 -0.21072365337835716 0.1516056008194056
0.12940674681502223 -0.20748575026022362 0.11877726982575328
0.12363761324721217 -0.19986279303060936 0.14630612205010324
0.1355881061060989 -0.20533442491518425 0.1359629280422297
0.14165296811896205 -0.22000981861578392 0.1254605002258387
0.12884625453787685 -0.1986947655104296 0.14244400928955941
0.11605342883902431 -0.203173577728142 0.15174942682724862
0.13261663575011134 -0.21078008407579826 0.13740241001587777
0.11768504638510585 -0.23523649567591118 0.12549045155983835
0.12390544671851039 -0.2500017433785097 0.11659800480347544
0.12254652042227626 -0.2710172086380617 0.11383225987893016
0.11331700939970851 -0.20330283040033745 0.15363788078766732
0.12013011832075954 -0.2879690676354067 0.11340316604119212
0.12601577896910549 -0.2567131965778963 0.1353470034454432
0.13914426822501064 -0.22941134864317345 0.12663027118187814
0.12441873211699367 -0.24166120583044456 0.11768066357117564
0.11161464114027858 -0.28946937614904805 0.12147288988572032
0.120265599678334 -0.2729152291439669 0.11604624460678965
0.146172102878865 -0.24501727515684532 0.1128679461334315
0.1230143572791183 -0.19899789983259605 0.14699774454575448
0.14096772332030177 -0.24466459447370933 0.12058320115548045
0.14023953337508083 -0.2105501144550936 0.12949361871224313
0.14711683649855495 -0.22117748850809502 0.1177568085048762
0.14218246598082424 -0.28264512115942403 0.1104696638439265
0.14525386352377773 -0.25689215952383443 0.1123268551681605
0.135030802677449 -0.25009985262381 0.12792506288033395
0.1385293867095077 -0.24162232870088982 0.12484508226853282
0.11888336796599269 -0.3098682909630434 0.13212122987252145
0.11953910846548915 -0.226541355194916 0.1253842062805262
0.1411069597704971 -0.21414230758177208 0.1276694483612147
0.11796578426199794 -0.209264025034775 0.12969678114396005
0.1304480697615707 -0.24644370371328758 0.13345699976426034
0.1356401409609878 -0.27667795115934773 0.12143817018013865
0.15385928411322475 -0.2112484424732821 0.11119412849884898
0.15472873706656337 -0.20239159459101128 0.11150130103569895
0.13304513354140163 -0.24096028501020836 0.13188418220024972
0.1475933458312118 -0.20045240217672752 0.12145637939911753
0.13875350017386318 -0.23364633316027092 0.12639018367272287
0.1286240484221542 -0.21298781031595634 0.1186178572033015
0.1241454448206985 -0.24542561167704033 0.11724039386254222
0.11684015054541469 -0.26819114381300374 0.12040617536049754
0.12358659167128444 -0.25007219606863423 0.11692141960602671
0.12821745533781886 -0.28126351529585286 0.12914064000588327
0.11184170503455043 -0.31041900807844564 0.13748359154206186
0.11778685111838222 -0.2627147286556856 0.14066370795708566
0.12544554133253932 -0.21237213903891014 0.12228893707734019
0.13828077573614955 -0.26559279853331014 0.11980768512230784
0.12355577606993556 -0.2670591920040743 0.13512986372452646
0.12718420882063747 -0.23033219570146965 0.138739819035348
0.13101830739813686 -0.24346826964842247 0.13345062206726938
0.13686164874869228 -0.25487719470487996 0.12426632116776377
0.1285559501154983 -0.2806593030117647 0.12895976971131234
0.11967754025298 -0.20117072755323814 0.14943247507553964
0.13420420546370387 -0.30605350429045125 0.11687027882080943
0.14354848522978664 -0.26000703865515157 0.1140227563236323
0.1444037820799911 -0.22303979093061851 0.1209228880260554
0.13378023762541652 -0.2250619530104296 0.13402828048211007
0.12487819452124477 -0.21923279756533073 0.1423711128089991
0.11693977970915675 -0.2137796580217974 0.12978186677437692
0.13329860229330898 -0.25452385837065145 0.12892776201706796
0.12448879737692714 -0.2561440020226137 0.11472171019059092
0.13934015889006496 -0.2865841239117281 0.11347495983582408
0.13583793897467494 -0.29398427897917195 0.11726438473206431
0.1322369839652145 -0.29179842764364644 0.12260105679970652
0.1363236274226272 -0.20269903534876274 0.13567500780564218
0.12719928879576564 -0.20267172152029442 0.1430614240024653
0.1139145459635818 -0.24331670993791985 0.12732296656113534
0.1487918164237106 -0.20429904753195213 0.11887368033867747
0.14820375699835658 -0.24205054337011742 0.11095627616387278
0.14089432020026088 -0.2598939090393679 0.1174269265983668
0.12741306085425258 -0.21421134466158318 0.14084758828621774
0.11622354049521327 -0.30696301156507894 0.1345848090503779
0.11500197310286403 -0.19814854854570793 0.15318345497589975
0.13871410150366664 -0.2631267755650179 0.11995833586197764
0.1500088240607345 -0.19900956744181084 0.11816715668183238
0.1146903302176559 -0.2827931790970461 0.1198072976921168
0.11575775999861598 -0.2721842675827639 0.1407929606292811
0.11741861362295986 -0.2327969520710604 0.12614771197777658
0.11550318856078029 -0.22676527494417595 0.1286057777259913
0.13146042485075832 -0.28951396042334004 0.12408914636116893
0.14281633157568813 -0.20616959029661583 0.1270765013549891
0.12631544132071376 -0.24537466460691856 0.11462437580567271
0.12747519869643092 -0.2170462756775515 0.11916526626091868
0.12611728567915798 -0.20016731316076683 0.1238593704555598
0.1444425250990951 -0.23223687702642845 0.11881192992669017
0.1338228847487533 -0.20017725223528313 0.13821508954506784
0.11435374278860927 -0.3428827970646517 0.12913289140206247
0.14791509170370937 -0.220116212906708 0.1169895179126826
0.12477919120627284 -0.3017541020535128 0.12860562871437936
0.11200061101752162 -0.32572768622862264 0.11441507409554393
0.13395386595564723 -0.26513041550146504 0.12577864001732736
0.12488552589255214 -0.23074676090704369 0.14064028333168893
0.13181671161490321 -0.2629588692806856 0.1287486500595179
0.11962398547964931 -0.23468677693830894 0.14402061174851327
0.1303659643633926 -0.2823330312393801 0.12670197556954294
0.1431053246958816 -0.23092459136473106 0.12102832864266307
0.14561694521742702 -0.25299046927915975 0.11251949738007457
0.11265307326155544 -0.2526572793148653 0.1461989230964747
0.13366078991728664 -0.21558858448492454 0.11155402134400279
0.14406728405791164 -0.23987323039995598 0.11713584731560618
0.13388365168410182 -0.27312718326078816 0.12415942023735911
0.1249185766680801 -0.2174212186955111 0.12196021746140391
0.12155148048239589 -0.23599581414686607 0.1218478627060023
0.12254264612036586 -0.24545486265646385 0.1399808473442164
0.12570196051436305 -0.21728035801874565 0.14196830461960702
0.1361776258452499 -0.21982449287401604 0.13234886001091867
0.13533121008711696 -0.27293513709532186 0.12237154911499888
0.11620786447363735 -0.21909187728392052 0.14918732117157846
0.13771673698264003 -0.1992271392964022 0.13489302466851144
0.12124958295660854 -0.2677712290905611 0.11599558065873057
0.13905346054869533 -0.25510801369177266 0.12110518883210093
0.13341757316428066 -0.28977526718603536 0.12159648011666209
0.1262063350184524 -0.26044450694548055 0.13454076121788888
0.11273637075262904 -0.2703595011852877 0.12357919882279307
0.12325593490439296 -0.22358013683782982 0.14305406282883554
0.1250045265658462 -0.2575880139492647 0.11369403670769603
0.11083587665396571 -0.20358599716650413 0.15549814175110727
0.12727111239272 -0.25297276669966146 0.11174052427750499
0.11871945519286037 -0.22682440275179314 0.1460351891372767
0.11397152800398708 -0.20177581900583672 0.1533848590705958
0.1164087619288528 -0.24448515469061302 0.14463996361237436
0.1463297869666183 -0.23289446526991295 0.11594703267556102
0.13142764229613185 -0.22946441167818474 0.11131646703225047
0.12495377321081996 -0.24054716521727013 0.11729999850731761
0.11841615695792079 -0.2756087630413668 0.13818892310601144
0.11052411455946803 -0.23485173279272484 0.1509182400558558
0.13994076509314418 -0.19702121609674858 0.13297187756043344
0.1288035180075729 -0.22764493519293236 0.1378707833145228
0.12168761749106288 -0.2049831300400393 0.1274177379463282
0.11735111136275173 -0.21697780484186577 0.14862513016205697
0.11669906635123134 -0.25537107879148885 0.1426777489040461
0.13816105980711818 -0.28140471869932576 0.11657198737603099
0.1411321129305923 -0.2165868281744616 0.1271556861255732
0.12981000203925014 -0.27535842353331014 0.1284992046211329
0.12700542468863368 -0.20396408432947563 0.12220382164460093
0.1260639693244064 -0.22676698857771324 0.140337879166421
0.1274464096530044 -0.20359951251970695 0.142673665985879
0.11989506740408779 -0.32191951567160054 0.12943908046227365
0.12327959794836879 -0.27504955226408406 0.13432353209000497
0.11552798409300685 -0.27295576030241414 0.1207509286258784
0.12341510910826564 -0.22390952700601982 0.14287676881295114
0.13591497797804714 -0.19981971377359795 0.11205186913948924
0.11800500411826015 -0.269463524165024 0.11911287377816111
0.12673475999670863 -0.2315741180800097 0.1389342791889277
0.14883824844199062 -0.2274750619553225 0.1140881724212733
0.14762505550223232 -0.23253713542448448 0.11430975268822581
0.13271623511153102 -0.24401347333418297 0.13171049426537423
0.12630170245009303 -0.22096739703642296 0.11974939177971751
0.11333733458357692 -0.23651690775381493 0.14846372078400522
0.1517965461714828 -0.2135205268286364 0.1133608169410792
0.13381749052840114 -0.20579232269751 0.11345076035004527
0.12502938170271755 -0.24912421399580406 0.11544629405480296
0.1130404438479507 -0.2179463058136599 0.1517824478004542
0.14725023169356227 -0.207432046475281 0.12050374816399485
0.12420579452353359 -0.25847227865683003 0.11443891595345408
0.1313505138857925 -0.21085453027712273 0.13835071991425424
0.11541601676779628 -0.19884482020365166 0.13368266294937997
0.11073264140921474 -0.2204189150951998 0.15320282648545175
0.11871140856581569 -0.21428062015997337 0.1479769296501246
0.12795689363318324 -0.22354204946981834 0.1394530780170527
0.1382353569968307 -0.20400622481333183 0.13331943224411874
0.14552193541365505 -0.24812559777723717 0.11322694490891368
0.13262679834204555 -0.28525291377531453 0.12356206248742015
0.12410142679053188 -0.320571318211426 0.1257458276603785
0.12816688079672695 -0.2369638233803408 0.11417677472573191
0.1155181791289413 -0.24709485465513634 0.12536739777069955
0.14425983686285854 -0.1977604030989306 0.12710034321289926
0.13951724428969264 -0.24691443139540123 0.12215136955719859
0.12113651294546962 -0.2398993521355288 0.12152260015946299
0.11991798539000392 -0.20826452964769768 0.14802652071457773
0.1117032434447372 -0.26912407571302815 0.14440068076592355
0.11057978529768825 -0.2760386615418093 0.14399021337967782
0.1184016134245956 -0.22180667513834404 0.14709108541947274
0.11718541045027614 -0.21493396157251762 0.1294096357677546
0.15120914239722133 -0.20674794906603264 0.11515935729485423
0.12162685055571437 -0.2429092078827517 0.14113211105805307
0.12345522303419948 -0.2504402249477999 0.13831677506905465
0.12844106216269374 -0.23475967341886925 0.11418216894608409
0.12567513842421413 -0.2473586797140734 0.13723894427758127
0.1395183171732986 -0.21986396605001854 0.1281567163322535
0.1382394697173202 -0.2141509800575869 0.131257171139535
0.11659347672301174 -0.27547778183447286 0.11931162546616465
0.14439123530226589 -0.24630041414724754 0.11494576405030162
0.1155201162798965 -0.25771076971517964 0.14328151415329843
0.12244483489828945 -0.30835373693930074 0.12948601912003427
0.1230722631915176 -0.295693650784363 0.13105764459114938
0.12928762693243862 -0.2416223883055346 0.1119000859115687
0.1262453462584579 -0.26372759038435384 0.11069720457535655
0.13570937175589443 -0.22406765812860893 0.132096672758874
0.12403896112280727 -0.207601547183861 0.14466300080758004
0.13084303994017482 -0.22627206140982078 0.11273824642640025
0.12010371346312404 -0.24138830596434044 0.14251782964211374
0.13377734680014491 -0.20266316825376915 0.11413779328804881
0.13891076702910304 -0.20166288310514854 0.13306995700341134
0.12331747670012355 -0.2296798079632418 0.12115388582688243
0.1490359570487106 -0.20582482213007378 0.11825951407891185
0.12656446952658534 -0.21178163582312035 0.12115638922196299
0.11925738711195827 -0.29359899455534383 0.11307340334397227
0.11345174569922328 -0.25234548741804524 0.14563378165703683
0.11824428696471095 -0.3099360912464754 0.13259478877526193
0.13319259543257594 -0.22884143883215355 0.13362821410637765
0.12763908166724086 -0.20666563505159782 0.12096213768464
0.12265041131811977 -0.25450031453596517 0.13830154608231454
0.13212135095435024 -0.2066410183333056 0.11560737560730845
0.13290831107931972 -0.22193214291559624 0.11095347474556834
0.12808796424704433 -0.2034901976011889 0.14217897723656564
0.12485775012808681 -0.3034763186596529 0.1282509512756434
0.13857987184363246 -0.22509865457045006 0.1282734520290461
0.13804173130827785 -0.21845313900934624 0.13046678374749093
0.12636345286208034 -0.24296668166147636 0.13748895596009164
0.14415463466482997 -0.20744408661352562 0.1247988588665095
0.11864360828238368 -0.23954035336004662 0.14388656090241342
0.12057596106367946 -0.3018596022747652 0.1319900996540156
0.1409012939436996 -0.27249865228163167 0.11460723947029978
0.13543522019225002 -0.27880035335050984 0.12132867644768626
0.13106193799811244 -0.20952039951311516 0.13877883027535348
0.12240370769339443 -0.28257627779470845 0.11199557255249888
0.1195159818633163 -0.25066702062117024 0.12106212447625071
0.149333324621495 -0.21272383624540733 0.11657812665444285
0.12056925554114223 -0.23841108376013206 0.14266183446389108
0.13836478848296047 -0.25227259093748494 0.12264462779503733
0.1243237223132217 -0.2835115342758791 0.13227027128678231
0.12923574108916164 -0.28471641236769124 0.12740474413376718
0.13099902529555202 -0.2657471149586336 0.12878584335785775
0.11610200662451625 -0.24257804447637962 0.12568753431778817
0.12744381685095668 -0.30503310257421895 0.12537103365403085
0.13889181275206447 -0.24330633872972893 0.12389894793969065
0.1332048143847549 -0.21403533214556145 0.13629733990174203
0.12125157971220851 -0.19997151190267967 0.1287520773265925
0.12254482168990016 -0.21132194990145134 0.12541263769608407
0.11202653903799892 -0.25900949532019063 0.1261226780269709
0.14124390144186855 -0.25391085440145894 0.1183146185730067
0.1228227879508102 -0.2188826351784365 0.14397748778801828
0.1393429901106918 -0.27872623497473165 0.11533754538041026
0.11285084147292018 -0.2963948696278231 0.13867636989098459
0.13660761375265956 -0.20197963708864616 0.11056851814728648
0.13414442200499416 -0.2768306582592623 0.1232942886207667
0.11790546436148525 -0.2527236192845003 0.12220599721413523
0.11291312832671047 -0.205447867455353 0.13441246222000985
0.13790151138144374 -0.28959973150717183 0.11491363714676768
0.11907776851492763 -0.2570287733696596 0.12035864065628916
0.13157009739714504 -0.22323590511309074 0.1365400798175898
0.1242452229960525 -0.2042780368946688 0.12512880037766366
0.14158153195219875 -0.24734185630308556 0.11908125351410777
0.1163196231825912 -0.20271596306787895 0.15161901186448007
0.12877246398764491 -0.23871220642553734 0.136276120648202
0.11693679947691799 -0.22699518496023582 0.12747439216118722
0.12033903260069728 -0.22688911849485802 0.1245804078434077
0.12768068570929408 -0.1965319215677874 0.12287669847947032
0.1334666575892532 -0.21911945933329033 0.1354722030017939
0.12446131963568569 -0.20074827963339256 0.1455185360763636
0.11967089433508754 -0.2402858882568972 0.142992372021493
0.13113164563017726 -0.2228392958067553 0.11308356593590647
0.12182983417349696 -0.2535839527271883 0.1390231795166102
0.13056608695822597 -0.26957841211782857 0.12831261228066354
0.1176752414210403 -0.2384770959042208 0.12495374153595835
0.1296448971732223 -0.20442275697218346 0.11909999917488963
0.11849370260077358 -0.283936157765259 0.1365829951618281
0.13014474172430873 -0.23761187488066124 0.11169900964241893
0.14387055892783046 -0.20128934079634117 0.12685086797219186
0.12211489338713527 -0.21632854634748863 0.14487957428437143
0.11938109655218959 -0.19896139198767113 0.13060399363976388
0.11302986402350307 -0.24728451663481163 0.1271997637603846
0.12729030508833766 -0.25031481677519246 0.13547983239632516
0.11768659610587001 -0.24736008042322563 0.12336885403138072
0.11813509125548244 -0.23608796292768883 0.12493064473610789
0.12522378225165248 -0.2660969644211428 0.1339865572307673
0.12633272666769862 -0.2432424425505297 0.11516230772477061
0.12055760283308864 -0.29723997408377095 0.1108857638691035
0.13649209995108486 -0.22373440855966972 0.13120373557549386
0.12416940588789821 -0.27569095784651204 0.13352471064072519
0.12733214754897 -0.2741276770256655 0.13100400041085153
0.11219566721754909 -0.23156736785398888 0.150078291401681
0.12193798680144191 -0.20846582943426537 0.14625796149712472
0.13838365335303188 -0.1989430486582415 0.13423880408745675
0.13148086924391628 -0.20232701295839714 0.11722775767784983
0.1271383430464828 -0.267971083464493 0.13213824699860482
0.11478763480025173 -0.20645895594583916 0.13282247851830392
0.11976000327902675 -0.26038663083540364 0.1395296401832667
0.1373646225436294 -0.2865381687306063 0.11650350163918406
0.12095725197630763 -0.2558129578255312 0.139328802332696
0.12408750910597682 -0.23556189233290123 0.1191613323543635
0.12474825639563442 -0.24128077918516563 0.13900777171593576
0.12209435958701015 -0.19763156765924858 0.14803468655091195
0.13738247413473964 -0.2090591191671984 0.1333606786583033
0.12049781937437892 -0.2134793251179354 0.12690361808281808
0.11367392201262355 -0.26947097474562093 0.1229949242923823
0.14528023857909084 -0.26245091849790975 0.11122637461167247
0.11587318439322353 -0.2353950887344973 0.12695863316994577
0.12916254658537746 -0.22279316181169914 0.11565347980004222
0.11114459891157985 -0.20768913620935844 0.13530113767128854
0.11410107869940639 -0.23994660371767448 0.14723953078728585
0.13930344242888332 -0.2007106393002169 0.13285535047989755
0.13226064700919032 -0.22077397996412682 0.11210175822716624
0.112532046030339 -0.22237235301958488 0.13159557651024728
0.12477340955572963 -0.21303109818922447 0.14320930312615304
0.11351650614577175 -0.23074732715116905 0.14923750828247934
0.13815152306395412 -0.2316261380337374 0.12746920655709176
0.14576267857390285 -0.21160987013803886 0.12194477985840708
0.13796874542075038 -0.2076141833685534 0.1329654104564753
0.14621567387419582 -0.22321900719629692 0.11847215364914805
0.11214080114203334 -0.23248827451692985 0.1499782748077479
0.12057920951681972 -0.27675060922132894 0.13631456564408212
0.14419990439253688 -0.22166369849668907 0.12155022691231639
0.12087317962485195 -0.25634203845487996 0.1186483747814265
0.11481570858794093 -0.25461472565161153 0.1443441159580317
0.11242752928572536 -0.2000566869400637 0.13573926161271005
0.13115781206923366 -0.214750423970093 0.13799702595215707
0.11252924461203456 -0.2471099644325869 0.1470732934330073
0.1183350052340591 -0.2680308371208803 0.1394070632312861
0.11971783299284816 -0.2834168820999758 0.11468487452011973
0.1142606701357925 -0.2365724592827456 0.1281405038688746
0.11223867196875453 -0.2978479712628023 0.11938285301667124
0.12186166305380702 -0.2202220558546679 0.12452801536065013
0.11789208311873317 -0.20597511524187492 0.14999657343369394
0.13238894600706935 -0.27610634261595174 0.1255670733306971
0.12165090102988124 -0.21849940711485313 0.14496698449593454
0.12417757172423244 -0.23824255162702965 0.1399663336132136
0.12171876091795802 -0.284357026162018 0.13405408929329782
0.13057344813185573 -0.33546684676634236 0.11454274724465281
0.12249719757872463 -0.2125778793715136 0.12524750302773385
0.1198620762332046 -0.25856278830992147 0.11929419110756785
0.1180061068041885 -0.2630933671616213 0.14043127964478402
0.12154844064551235 -0.21608127647863792 0.14537268351059823
0.129337545822438 -0.22638191277014183 0.11465358208161265
0.14472311396437526 -0.20892967277990745 0.12383454512101084
0.12924909252959133 -0.2697284668110506 0.12963786195259958
0.12718125839072109 -0.2702761738918917 0.13164096544724374
0.11836900968390346 -0.2698776572369234 0.11869614790421397
0.12749528546172023 -0.2281634061955111 0.11664232085686595
0.12266823310690761 -0.2389414458893435 0.14098584125977426
0.12904780764418483 -0.23320682341085838 0.13666134546738534
0.13804867524939418 -0.2535696774147646 0.12288107942086131
0.1369691457255447 -0.19665075832830833 0.11157100866776377
0.12991070408659816 -0.21544791752325462 0.1389442033622828
0.12122252244788051 -0.31628371769415303 0.12888618777733712
0.11201700229483486 -0.2008402197979586 0.15540348957520395
0.12223443050223232 -0.2240594922922747 0.12335949610215098
0.11197819967108608 -0.26377601915823384 0.12529786895256906
0.12813415784674526 -0.23939837509619163 0.11379813621979624
0.12104081768828273 -0.2420782148264544 0.12119697998505503
0.12198340554076076 -0.2303732484005587 0.12244912456017405
0.12967306036787868 -0.2066923677347796 0.1402763373706904
0.15189036388235927 -0.2159987538479464 0.11281644772034556
0.15002056617575527 -0.19662354880796837 0.11869334648590953
0.1247982050879562 -0.19756196433531212 0.12571739624482065
0.12970608134108425 -0.24783374363409447 0.13389276932221322
0.11636858839827419 -0.270136907639374 0.12049170802575022
0.11714192886191249 -0.22810597712027 0.1470270104263392
0.11150592226820827 -0.21182443195806908 0.13421773384552865
0.1117499734862411 -0.3389600067757265 0.13238989780884652
0.11272120137053371 -0.20649245375620293 0.15365689466935067
0.12469604272681117 -0.2512166946552889 0.13724120925408273
0.14339193363028407 -0.26093299681173726 0.11405664156418711
0.13925423879462123 -0.20679083460794853 0.13159200023156076
0.1287914182646835 -0.21850235754476952 0.11723666857224375
0.11420485038596034 -0.258129432740082 0.14428659747582345
0.12607204575377345 -0.24961550528036522 0.13652467201691537
0.13571077246504665 -0.231439158263077 0.13047280381661325
0.12289490957098842 -0.20235754543768333 0.12676208685379892
0.14581185240584255 -0.21228466922270225 0.12174689243775279
0.11649492044287563 -0.23445037001596855 0.14643087457161813
0.1264640357001388 -0.23006631428228783 0.11756142447930247
0.11518326062994838 -0.2244930266760485 0.14911907385331064
0.12300574440794826 -0.23120321327673363 0.14201119016152292
0.12920936603384853 -0.3115932791851656 0.12179761599045665
0.11047804016905666 -0.22438701981531547 0.13286277125817209
0.14579879898863674 -0.2409839182518618 0.11420955728035838
0.12200668115454555 -0.2876452654026644 0.11138486336213023
0.1126430000765884 -0.24252973491178917 0.1476584024284449
0.13295671005087734 -0.26532702142225667 0.1267330593917933
0.12200191278296352 -0.19805619114862846 0.12831913898926645
0.13202306289511562 -0.2994778006695406 0.12101578186493785
0.1313623454077804 -0.21513500803934502 0.11474850247841746
0.11902603168326259 -0.2528762071751253 0.1414851493690577
0.11413985152083278 -0.2469418942354815 0.1458882040832606
0.13317781348067165 -0.2973452656887667 0.12013056348305613
0.11661842126685024 -0.22615836554991173 0.12785434196930795
0.1503644253714645 -0.21461421245562004 0.11496132086258799
0.13093542713957668 -0.2977511733196871 0.12279852698784739
0.11751189489203334 -0.26494847232328816 0.14055442284088998
0.13342138786154628 -0.26021198922621175 0.12779992292862802
0.11457979340391994 -0.20560424024092125 0.15246313284378915
0.12358477372961879 -0.219220519008507 0.12305873106461436
0.11857878823119045 -0.27100576454626485 0.13871210287552743
0.11776017803984523 -0.25713886314855977 0.12156846593361766
0.14161297340231777 -0.2497500031613009 0.11848845551949412
0.12485047836142421 -0.209410846176018 0.12350674937706858
0.12838080186682582 -0.24784179026113914 0.1350893027637568
0.11595493216353298 -0.22965763503538536 0.12779080341797738
0.11863296885329128 -0.22893808776365684 0.1457520372722712
0.1142105426295364 -0.24365921312796043 0.14636802147370248
0.12581720609503627 -0.22540868813024925 0.11932438086014659
0.14593222398596645 -0.22796349221693443 0.11779608796578318
0.12611677903967738 -0.21168418222891258 0.12166851232987315
0.11093386668997646 -0.29795499140249654 0.1204431004379359
0.1345471109850967 -0.2588176875733034 0.12665762971383004
0.12664001841383815 -0.25222192698942586 0.11270546387177378
0.1253424252970779 -0.2082693427227633 0.1434743649814692
0.13089555163222194 -0.23868462437616753 0.1342759675834742
0.11836823482352138 -0.2661993652008669 0.11936506103020579
0.12719884176092983 -0.22403705114351677 0.13992407392006784
0.14482319016295314 -0.2009097337149279 0.12552260826569467
0.11463853378134609 -0.22699867183195518 0.1490973777626124
0.12898435849982143 -0.248240813555588 0.11047565411072642
0.11662947792845607 -0.2376269846581118 0.12601649235230356
0.14416139979201198 -0.22561772161947655 0.12067350219231517
0.13754760880308986 -0.23592348391043114 0.12758239577752023
0.12041780013876796 -0.2376308589600222 0.1429108030651179
0.13111298937636257 -0.22912017995344566 0.11178034018021495
0.1262858178122604 -0.23997785145269798 0.11586659620743663
0.11312824148970485 -0.1992179601811068 0.13535192082863717
0.11488344926672817 -0.27212114626394673 0.14145770143013864
0.13993096012907863 -0.26659719640242024 0.11731585334282786
0.13905176181631923 -0.23457141214834618 0.12588712047081857
0.11075535077887416 -0.22962155932413505 0.13184734652977853
0.12342300672369838 -0.21614393586145805 0.12380077908974559
0.14980187673407436 -0.2091407924317019 0.11659171651345164
0.13076570291357875 -0.21862235659586357 0.13800847004395395
0.11689027805167079 -0.21020728343950676 0.1303658432815638
0.13542687554198146 -0.2186091988705294 0.1334745235298243
0.12445124645071864 -0.27644829446302815 0.13318961332779794
0.14433553476172328 -0.21840387577043938 0.1223681218479243
0.11555164713698268 -0.28726069623457356 0.11821832726937205
0.11855259198981166 -0.2568727880142824 0.12088855575066478
0.12833398241835475 -0.21380376810060905 0.1187995023582545
0.1165540780528152 -0.2898131757401125 0.13692822526436715
0.11803787607985378 -0.2433585076950686 0.12378298710328013
0.1128566231234634 -0.28270371252523824 0.12159534762841136
0.1283704604609573 -0.2580444067143099 0.13315829108696847
0.13468527455168605 -0.21306774014460014 0.1108097083423701
0.12394478578406215 -0.30899889761434957 0.1279479510639277
0.14081975478964687 -0.23781381541716026 0.12260919283371836
0.14178296584921718 -0.28290103370176717 0.11092125843506724
0.13532423634367824 -0.260173574032654 0.1254365689609614
0.12965163249808193 -0.20239353174196648 0.1195023603294459
0.12058332223730922 -0.29046846920477315 0.13396226833802133
0.1477871205313766 -0.2242222874783175 0.1162360257957545
0.11046883125143886 -0.2967144697331087 0.12098985384446055
0.1331931914790237 -0.27931748324858113 0.12412929008942515
0.1465943123801315 -0.22457502776609825 0.11765795420151622
0.12028434533911586 -0.26785878831373616 0.11701768110733897
0.13163828511076808 -0.21263365441786217 0.1147566385124293
0.13334208388167262 -0.21218787127958702 0.11284124325257212
0.150812235067662 -0.22028243535982536 0.1132545120571223
0.13286491889792323 -0.2881219237469332 0.12263491223793895
0.11421146650153041 -0.2522868066452639 0.12551974724274545
0.11724716086226344 -0.24597845965849327 0.14383023451310067
0.11119961399870754 -0.29100780183302327 0.14097430776101022
0.13441380519705654 -0.24221836024748253 0.13022160004120736
0.11745607514220119 -0.20823258155809807 0.14998870562058358
0.12573903460341335 -0.21523693198191093 0.14210891197663217
0.11811062354880214 -0.22895307833181786 0.14614787171822458
0.12023621458845973 -0.2834998815678255 0.1353397316787806
0.13599320907431484 -0.24180579179750847 0.12855648468476205
0.12304284829932094 -0.2076732366703646 0.12561082313996225
0.12579446692305446 -0.22846630209909843 0.11870201896172435
