ply
format ascii 1.0
element vertex 355
property float x
property float y
property float z
element face 0
property list uchar int vertex_indices
end_header
0.11364945430594325 0.11405484384072853 -0.2031619899417791
0.1120866503222549 0.11418099707139565 -0.20393175412673087
0.11249637265044093 0.11552225059045387 -0.20389691521185965
0.1147714819415176 0.1159055978633268 -0.20284724761504264
0.11847176809149623 0.1132137328959806 -0.20070909489649863
0.11299544234114528 0.12042669957650734 -0.20426650871295066
0.11981525678473354 0.11656750744355751 -0.20049682785529227
0.11907523531752467 0.11899818485749794 -0.20115283657569022
0.11591353673773647 0.12204553192628456 -0.20307748545664878
0.11897605318861842 0.12025307124627663 -0.20131181706446738
0.11926036734419704 0.12032093113435341 -0.20118132759589286
0.11803474683600307 0.12199519580377174 -0.20197281767386527
0.1155799295409286 0.12378524249566628 -0.20346849192637534
0.11253818530875087 0.1237704009391172 -0.20507135023135276
0.11084785718756557 0.12489943212045265 -0.20624414612311454
0.11508822102385402 0.1260304004527433 -0.2041353486921224
0.12357818741637111 0.11919806903375221 -0.19852558304328055
0.12188771028357387 0.1238241643287046 -0.20019050468463034
0.11574741859274745 0.12699912494195534 -0.20395593871134848
0.12088721651869655 0.12484358256829811 -0.20079123009699912
0.11548381705122829 0.12719438975823952 -0.20413749445933432
0.12406372685271144 0.12162224954141213 -0.19838479687232108
0.11228119988280177 0.12748874729646278 -0.20595959354895682
0.11067938465910793 0.1293391436911924 -0.2069907241012487
0.12437352199393154 0.1252829582072599 -0.1985053323652181
0.12365391511755824 0.12678526347650124 -0.19923189808386893
0.11599680442648769 0.13096396630776955 -0.20450574685591788
0.12141441960173488 0.13015566771997047 -0.20137818683642478
0.11085620183783412 0.1315870434619291 -0.20722239245432944
0.12160730023222804 0.13066749280465675 -0.20136249591368766
0.1179666187270248 0.13249666994584633 -0.20367450047988028
0.11132001538115383 0.13251818722261025 -0.20712301661032767
0.12493753094511867 0.12897951906694008 -0.19868644107836814
0.12014001269179225 0.13288415974153114 -0.2025556914951238
0.11373027820425868 0.1337871999122007 -0.20611213673609824
0.12330832738715053 0.13155873125566078 -0.20040755499857993
0.11558153886633754 0.13411085313333107 -0.20520116914767356
0.12020194191771388 0.13475947087777687 -0.20286182095069022
0.11771893162566066 0.1354884356833799 -0.2043385558273229
0.12591263313132167 0.13268481200707985 -0.19866192866820426
0.1112655665381515 0.13637323683274818 -0.2078577928687963
0.11167910356360317 0.13727574056161476 -0.20789813031214804
0.1240231360896194 0.13544853037370277 -0.20066790808695883
0.12233155627089382 0.13638792937768532 -0.2020289056445989
0.11186590452032924 0.13781984156144692 -0.2079338483955297
0.11078670282202602 0.1394940168238981 -0.20856106807250113
0.12462976236182094 0.1383510083533628 -0.2009031676198873
0.11646562475996852 0.14068894094003273 -0.2059197031404409
0.12686016816931606 0.1372105032779081 -0.19894971479434104
0.12288388271170497 0.14039598411096169 -0.2024758063699636
0.12033602256613612 0.14137913292420937 -0.20407401551264853
0.11125647682982326 0.1417108923770292 -0.20855516721266837
0.1200236346228683 0.14261223381532265 -0.20438807238597007
0.12026410956221462 0.14293651288522316 -0.2042930774833593
0.12620135803061366 0.14129106706155373 -0.2004228882934484
0.11604588885146022 0.14429803198350502 -0.20685297776717276
0.11447733301955104 0.14488573378099037 -0.20777491261023612
0.12450322170096279 0.1433909983016355 -0.2019901924278173
0.11337318677740932 0.14635427301896645 -0.20847258497733206
0.12486585635977626 0.14530892675889565 -0.20204921592730613
0.1135442223055923 0.1481895596362455 -0.20869611729640097
0.11519851941901088 0.14895181363595558 -0.20804459382552237
0.12437486309843898 0.1478068680144651 -0.2025932573224935
0.12856861610251308 0.14598159497750832 -0.1994896732713613
0.12005841393309474 0.1491089612819059 -0.2053442053939733
0.11519863862830043 0.14946676796449257 -0.20811012913245291
0.12046616930800319 0.14924742287171913 -0.20512252081889243
0.1283042993052566 0.1466626972533567 -0.19983232547301383
0.11473253030615688 0.14995725458634926 -0.208424305215064
0.11954563517409206 0.15098251408113075 -0.2059150539781484
0.1280071105464065 0.1490232200003965 -0.20034546185988517
0.12092309851485133 0.1513050348140104 -0.20512699116725058
0.12899443168478847 0.14883859461320473 -0.19967945446032614
0.11240937967139125 0.15177120274079872 -0.20960999061125846
0.11807733435469508 0.15204788750184609 -0.20684917797106833
0.12650334496336818 0.15080942219270302 -0.20148386587161154
0.12521180171805263 0.15207774942887856 -0.20258401860255332
0.12215950746374965 0.15346761053575111 -0.20465921391505332
0.11378320712881923 0.15477074688447548 -0.2093088381435308
0.1276058222754562 0.15276487177384926 -0.20101421107310385
0.11199274320441127 0.1550315172053678 -0.21018447507876487
0.11685591597395778 0.15586550539506508 -0.20792556334990592
0.11538758535223842 0.15596123045457436 -0.20870882798689933
0.1223853494628036 0.15554071968568398 -0.20478286375063987
0.11722391505080104 0.15689451998246742 -0.20785809089202018
0.1271897222502792 0.15556110447419716 -0.20175344277876944
0.11141633648711086 0.15744175022615028 -0.2108082823898229
0.1298725869162643 0.15507192915452553 -0.19976319898623557
0.12356516380148769 0.15772332256806923 -0.20439899493712516
0.12862988967734218 0.15747119492066933 -0.20106395114916892
0.11168440837698818 0.15949787205232216 -0.21099325050372214
0.1171336736186111 0.16015668219102455 -0.20857842792529196
0.1250658001406753 0.15945447987092567 -0.20370322991866202
0.11472147364455104 0.16051681345475746 -0.2097241782094869
0.13053044338065029 0.15824659174455238 -0.1998163812305364
0.12336912412482143 0.1610621363498075 -0.20511767794150443
0.12076297063666225 0.16144271200669838 -0.20687965084570975
0.11933955211478114 0.16192932432664467 -0.2078449629690084
0.12578135390120387 0.16102476423753334 -0.20345105756777854
0.13069951195555568 0.15983606880677773 -0.19993161191004843
0.11340090293722987 0.16258217400086952 -0.21062213708418936
0.12150558490591884 0.16266901796830727 -0.20663403500575156
0.11995115537482143 0.16431196039689613 -0.2076703362609777
0.11885609884100795 0.16466619080079628 -0.20834190179366202
0.13084301013785243 0.16236008709443642 -0.2001569472696218
0.13084825534659267 0.16304589813722206 -0.20024058748740287
0.12510028142767787 0.16495867079270912 -0.20459543694514365
0.1290674771769607 0.1641897112704618 -0.20161903430480094
0.1238099898799026 0.16548420494569374 -0.2056237213756475
0.11807325143652797 0.16621322935594154 -0.20906313289660544
0.1121653582556808 0.16666127747071816 -0.21180630256194205
0.11163437027769924 0.1674958021022184 -0.21214105714816184
0.11725228686171413 0.16796197002900673 -0.20975149203795523
0.13127112049895168 0.16567195957673622 -0.20034121502894492
0.11687025089102626 0.1683832556582792 -0.20999725688952536
0.12587251920538783 0.16764290636552406 -0.2044974767114553
0.12238502163725734 0.16940309113038612 -0.20743600060004325
0.11523234505492091 0.1696942598201139 -0.21096368659991355
0.12380775470572353 0.16959972685350014 -0.20644580353755088
0.12101226706343532 0.1700764448024137 -0.20831341077345938
0.1333094205363357 0.1684476286746366 -0.19944374789256186
0.13421532172995448 0.1685276181079252 -0.19881763090151877
0.11899348754721523 0.1718709618426664 -0.2096045367862615
0.11272960562544704 0.17222668236268593 -0.21234374274272055
0.11557986993628383 0.17259873455537392 -0.2112493567611608
0.1296167935832107 0.17114253347886635 -0.20239291121024222
0.13396924395399928 0.16985686129106117 -0.19924836386698813
0.13022651929694057 0.17133720224870277 -0.2019979559327993
0.11984643001395107 0.17308522766603066 -0.20938379098433585
0.13041856546240688 0.17158789938462807 -0.20191309381980033
0.11366173286276698 0.17337329691423012 -0.2121404312993917
0.12581091780501247 0.17319430416596962 -0.20561552573699088
0.12293463606673122 0.17363496130479408 -0.20774876107234092
0.12120684642630458 0.17420913284791542 -0.20889476467627616
0.11088809032278896 0.17490197723878456 -0.19819933702010245
0.11758696694212795 0.17496527737153603 -0.21074519087332816
0.13527351279097438 0.1724987179614408 -0.19873796929377646
0.11824348230200649 0.17602856462968422 -0.21058418382662863
0.12389725107985378 0.17637790745271278 -0.2074930422450933
0.133490857075032 0.1742263585902555 -0.20023474623221488
0.12986609000998378 0.17545934027207924 -0.20310339857596488
0.13296225328284145 0.17468322819245888 -0.20062321950453849
0.12353828210669399 0.17709781235230995 -0.20786582459467978
0.11644884605246425 0.17798145121110512 -0.21171260406035514
0.1152813102706039 0.1784584075785978 -0.21227619577902884
0.11390018124419093 0.17897833889497353 -0.21296427179831595
0.1254078413947189 0.17880858486665321 -0.20679389466303916
0.13080814142065883 0.17793215816987587 -0.2028737269784841
0.12823232669669032 0.1789144427157743 -0.2049128465797338
0.12008097429114223 0.1800639778949125 -0.21029860307234854
0.1354638602240646 0.1772207171298368 -0.1992305271770391
0.12362852353888393 0.18014623230470253 -0.20830639232653708
0.12105384130316615 0.18039305513871742 -0.20987237025755973
0.12850480933028102 0.1799130589343412 -0.20489457775611014
0.1119522418482864 0.18088509148133827 -0.214120408191863
0.11156212944823146 0.1813539416171415 -0.21435870756167502
0.1368957724078262 0.1782859117366178 -0.19837548364657492
0.13240986723738551 0.18003518885148598 -0.20196755756396384
0.13429283757048488 0.1800920516826017 -0.20036900569457144
0.11378845233755946 0.1827221066333158 -0.21359277297515006
0.12727549333411098 0.1823339015818937 -0.20620568622607321
0.13386898894148708 0.18089587992204262 -0.2008779995586309
0.12129202146368862 0.18327768152726723 -0.2102306686784658
0.13051765818434596 0.18236471718324257 -0.2038960509445104
0.11797475476103664 0.18397416180146767 -0.21193604697245688
0.13153078813391567 0.18247474735749794 -0.20312631656188102
0.12677657265501857 0.18398840731156899 -0.2069865666772756
0.11170896549063564 0.18442733591569496 -0.2147017471935186
0.11180662770110011 0.1852749735690458 -0.19933791984576316
0.11320501227217555 0.18547506636155678 -0.19869034518260092
0.13668554682570339 0.18226917093766762 -0.19906031121272177
0.12316825647192836 0.18593491619599892 -0.20969236423033805
0.11344167251425624 0.1871045381404264 -0.1987846099283132
0.13683920759993434 0.1835177690364225 -0.19917679358977408
0.11920416016417384 0.18674047297013832 -0.2117686175252828
0.1362519528372848 0.18392266338838173 -0.19963419963378043
0.1290594901545608 0.1861006171084745 -0.2056241833116445
0.1231214072211349 0.18731279676927162 -0.20995231498736472
0.1292016770346725 0.18691231316102577 -0.20570177365798087
0.1243193413718307 0.18793983763230873 -0.20936567117232413
0.1328167881472671 0.18718428915513588 -0.20277943243044944
0.1345340277655685 0.18738301104081703 -0.20154876042861075
0.12854131717520595 0.18902124470246864 -0.2066869490291509
0.11573320288496852 0.19026465719712807 -0.21367352236765952
0.11072098870116115 0.19098497932923866 -0.20083909262675376
0.11057632822829128 0.1904515773631437 -0.21602067877310843
0.12525513429480434 0.19052864616883827 -0.20930338431853385
0.12997510690527797 0.19008030003083778 -0.20567961563128562
0.12226113338309169 0.19105477636827065 -0.210738336339179
0.11414762992697597 0.19203712051881386 -0.19907230664748282
0.11419179696875453 0.19267745321763588 -0.19913924266356559
0.11995601315337062 0.19223655766023232 -0.21193559993762107
0.13582613725500942 0.18977345531953407 -0.20091039468306632
0.1232245828612411 0.1922741085864408 -0.2103885911847982
0.13141294975119472 0.1913397461749418 -0.20470539261359305
0.11568969149428249 0.19262982910646034 -0.21392383207339377
0.1275532807810867 0.19207490986360146 -0.20811079968470664
0.11076667566138149 0.19237799948228432 -0.2161428384925756
0.11562055010634303 0.1937932521678312 -0.19848824073332877
0.11496659774618984 0.19347406929505898 -0.21437819828051657
0.13229941983061672 0.19212986534608437 -0.20414805938262076
0.11706098575430751 0.1936699301577909 -0.21344668199080558
0.11331933398085475 0.19436736410630776 -0.1998932116176519
0.1366901065810287 0.1911936551905973 -0.20048967529791922
0.13923170823889613 0.19087488955033852 -0.19871299494761557
0.11064803261595607 0.1952142268992765 -0.20152134229201407
0.13607170839148403 0.1922903806544645 -0.20119168390292258
0.1261324550612533 0.19428558653367592 -0.2090644143964681
0.12177437205153346 0.19490815704835487 -0.21131180752772422
0.11163654584723354 0.1948344857074125 -0.21596849490660758
0.13402714986639858 0.19372023647798134 -0.2030905239726934
0.12177303094702602 0.19592018431199623 -0.21141788889426322
0.11217814345198512 0.19672174757493568 -0.2008881770517263
0.12232330102759242 0.1960759908534391 -0.2111718558217916
0.11528411168890834 0.1970377714015348 -0.199166332974616
0.12815791029768825 0.19611270731462074 -0.2078003935958776
0.11430349607306362 0.1968108565188749 -0.21520434845942588
0.11612391133147121 0.19690223043931557 -0.21440193583029837
0.13569083471136928 0.19489850109590126 -0.2020027839090261
0.13236599821883083 0.195737138447891 -0.20477054049033255
0.13776638765173793 0.19434244936479164 -0.20030668903845877
0.11580830473738551 0.1980695874072416 -0.19902012278098197
0.11780863661604762 0.19769980019105507 -0.2136738352920446
0.12349316139059902 0.1976801306582792 -0.2107850365783605
0.13140228051977992 0.1969958693362577 -0.2057217859174642
0.11388674039679408 0.198775366006027 -0.21574406851786704
0.13125174898939967 0.19805200403703285 -0.20597455431479544
0.1282592679961288 0.19887711113465859 -0.20813765157717795
0.12300383705931545 0.19946850842012 -0.2112101220037374
0.13595470447378993 0.19750614470017983 -0.20217323829192252
0.11480745334463954 0.20058877771867348 -0.19994266857165427
0.1370345320208633 0.1978321821071012 -0.20137405921477408
0.1362889971240127 0.19867016380799843 -0.20207486082572074
0.11360725421744228 0.2009762675143583 -0.21618612636584372
0.12028821964102626 0.20119817560685707 -0.21297711659926505
0.11699387092429042 0.20191885536683632 -0.19886363078612418
0.12095614929037929 0.20141990488542152 -0.2126403354551229
0.11625718731718898 0.2024634034015043 -0.19935811091918082
0.11491197008925319 0.20259262627137734 -0.2001569770719442
0.11710083145933986 0.20203198498262 -0.21475337971705527
0.11194717545348049 0.20348091429246498 -0.20188203979987235
0.14152684469061733 0.19893606012834145 -0.19818527032393546
0.12588175792532802 0.20247431105149818 -0.2100659661437902
0.1286272074683273 0.20218671864045692 -0.20852621425646872
0.1115465428336227 0.20249183481706215 -0.21729456414240927
0.13031077046233058 0.20207329100144936 -0.2072539829160604
0.1191621090872848 0.2031306773997648 -0.21392031539935202
0.11432003636198879 0.20391602819932533 -0.2006858937885198
0.11362418193655849 0.20342583960069252 -0.21652739275950522
0.12432381172018886 0.20351858442796303 -0.2110936545278463
0.13480016250449062 0.20233215397370888 -0.2037994020130071
0.11655333299475551 0.20436795061601234 -0.21532995034712882
0.11045336384611965 0.2053157836772306 -0.20266818036097617
0.12922173399763942 0.20414783066285683 -0.20842223395365805
0.13952853936987758 0.2019697577334745 -0.2000886552478704
0.11394837159949184 0.20578779285920692 -0.20099795390624137
0.11545684594946742 0.205333724675308 -0.21593176354426474
0.1413704421027267 0.20209296053422524 -0.19873217274207206
0.12229227680998683 0.2060283572055204 -0.21265142191905112
0.11147197742300868 0.20626117294801308 -0.21773161520022483
0.11482846398192287 0.2076593787051542 -0.20064171184558005
0.13951173086005092 0.2042440325595243 -0.20043685068148703
0.1132908727629745 0.20793987816346718 -0.20151334036845298
0.11128502745467067 0.2068356425143583 -0.21790259112376303
0.1136043037875259 0.20712055271638466 -0.2168817870761785
0.11786195297079921 0.20820339029801918 -0.19910425473708243
0.12167092819052577 0.20799227064622475 -0.21327454377669425
0.11677607555228114 0.2080301792003019 -0.2156242929841909
0.13264253396826625 0.20716907089723183 -0.2062601946737203
0.13539829511481166 0.20716191833985878 -0.2041140400316152
0.12939896840887904 0.20836479967607094 -0.2088176213647756
0.13709759373503566 0.2069254667140348 -0.2027308099414739
0.12522646446066737 0.20910979813111855 -0.21144953896063895
0.13749405402975917 0.20726831263078285 -0.20247135092276664
0.12108912725287319 0.2094853073932035 -0.21380667914408774
0.14238538999396205 0.20593203609956337 -0.19856441546935172
0.12783169407683254 0.20944531267655922 -0.2099005334522161
0.13482063669997096 0.20856817072404457 -0.20478201438445182
0.11558055538969875 0.21021975582612587 -0.21637282301444144
0.11146065254050136 0.21129854029191567 -0.20309207369345755
0.1317755844100082 0.209569826779495 -0.20725742508429618
0.11559191007452846 0.21144188946260048 -0.20075047542113394
0.13371723551588893 0.2093886882640226 -0.20576964844721884
0.12113481421309352 0.21074540918840004 -0.2139555119420919
0.11469453234511257 0.21078170841706825 -0.21686357785719962
0.14064934511023403 0.20796127623094154 -0.20015076328772635
0.14175423641043544 0.20857943600190712 -0.19940814901846976
0.14006042141753078 0.2093719989634855 -0.20083675314444632
0.11976235766249538 0.2128487974978788 -0.1987555526639852
0.1135047342284286 0.2121764571048124 -0.21769503284949393
0.1282105710013473 0.21210624283326698 -0.21005732347029776
0.12033530731039882 0.21273793285859657 -0.21480288137454123
0.1216061975462997 0.21281214064134193 -0.21398063529986472
0.11229431290465236 0.21375192707551552 -0.20301318694609732
0.11887523193198085 0.214031234440933 -0.19945073653716178
0.11696126718359828 0.21466620272172524 -0.20064989258307547
0.13702600855666042 0.21206660574449135 -0.20366542567271323
0.140604373405751 0.2115663439608915 -0.2008256666805181
0.13282024521666408 0.21356506651414467 -0.2072365187551412
0.11054625768500209 0.21431149548066689 -0.2193115406181249
0.13886332173186183 0.2126976401187284 -0.20235436190623374
0.12393995780783534 0.2150593549586637 -0.2130033724452886
0.11686542291479945 0.21515299385560585 -0.21664870311278434
0.12929457087355495 0.2152693421222074 -0.20983309079665274
0.11758353967505336 0.21674014633668495 -0.2007358424808416
0.11897438425856471 0.21677984303010536 -0.1999726050044927
0.13601743836241603 0.21460242575181557 -0.20495342244166465
0.12111398238974452 0.2163360268451078 -0.21485294927615256
0.11731850762205959 0.2172377259112699 -0.20100966621893973
0.11213645000296474 0.21621866529954506 -0.21888024140853019
0.11802345175581813 0.2167647630549772 -0.21646792222518058
0.14151450652914882 0.21406497066987587 -0.20059031774062247
0.1429210569365585 0.21394850319398476 -0.19947478701132865
0.11379986662703395 0.21721674507630898 -0.21830194224375815
0.1357082392676437 0.21625669306291176 -0.20553800989646048
0.13939121026831508 0.21558053797257973 -0.20246521164435477
0.1365942027075851 0.21624721592439247 -0.2048249446298513
0.12782904167014003 0.21755732601655556 -0.21102102626818747
0.13099538941222072 0.2173850089885099 -0.20906596411723227
0.12435891885596156 0.21809311216844154 -0.21317054857272238
0.12821316380339504 0.218054249940048 -0.21085517634409995
0.11284044046240688 0.21819557255281044 -0.21885291267890067
0.1339590515597427 0.21738179033769203 -0.20714901913661093
0.13849538225966335 0.22885055845750404 -0.20554116894263358
0.11055925149756313 0.23013134306443764 -0.22162151862639518
0.14441969652014613 0.22072227304948402 -0.19940703143138022
0.13879421014624477 0.25395978992951945 -0.2091642372753057
0.14741646904784084 0.23699589079392983 -0.19975188900488944
0.13434666056471706 0.25019188231004313 -0.21198379029292197
0.12406906146841884 0.24391479795945717 -0.20160514642256827
0.14692818779784084 0.22694082563890053 -0.19860867191809745
0.13291403312521816 0.23187984531892372 -0.2099143170263204
0.1210602786048019 0.24593777960313393 -0.20340848495024771
0.14741646904784084 0.23699589079392983 -0.19975188900488944
0.13019117374258876 0.25518287724031047 -0.19908673097151847
0.12937354702788234 0.26050819462312297 -0.20065647889632315
0.11391910571890712 0.2639587671138151 -0.2100352250482473
0.12240567464667201 0.22401781385911537 -0.19931947220820517
0.14444312114554286 0.23233635729325844 -0.2012618832733068
0.11072215099173427 0.2571117431498869 -0.21043624509829612
0.13222226161795497 0.21790982788575722 -0.20835347999590964
0.12213596362906337 0.26077611750138835 -0.2051773570920858
0.11171430010634303 0.2459131628848417 -0.2236603551055822
0.11123203892546535 0.21891458338273598 -0.2196516000177297
0.12566399235564113 0.22240354126466347 -0.2131610416318807
0.14234110374289394 0.2522913367129667 -0.2062299304153356
0.14010041613417507 0.23792763060105873 -0.20578943718928427
0.11392223496275783 0.22877426451219154 -0.21989489127654166
0.11333536763029933 0.24332572525514198 -0.2224686794425878
0.12589481134253383 0.249625876603256 -0.2012679033424291
0.12958940524893642 0.22511412209046913 -0.21160448123473258
0.11123203892546535 0.21891458338273598 -0.2196516000177297
0.12621995467978359 0.2633881122447355 -0.21901982058543296
0.11935388703184963 0.22840733831895424 -0.20224258829611869
0.13941695947485805 0.23827369516862465 -0.2062950633909139
