ply
format ascii 1.0
element vertex 635
property float x
property float y
property float z
element face 0
property list uchar int vertex_indices
end_header
0.15614220161276698 0.2680743486262663 -0.19844832052249045
0.12608274478751064 0.3501621634341581 -0.21637668241519065
0.11780440468626857 0.2986836582995756 -0.21323124100226493
0.15509822625952602 0.3433912546016081 -0.21099874903220267
0.12671383876639247 0.32737560575975017 -0.21322925914782614
0.11202892322378993 0.3055593520976408 -0.21654661525744529
0.11464193124609828 0.3233825713969572 -0.23313561607855887
0.11188345808821559 0.28781856602204875 -0.2141388111259374
0.12922367114859462 0.3484599739886625 -0.2076708279992971
0.13707586784201503 0.32668001955522136 -0.20555097390669913
0.11340936679678798 0.31253494328034953 -0.23223038543719382
0.14133512635069728 0.2927891761638029 -0.21362226237315268
0.14389910955267787 0.329038992581497 -0.1994664274598989
0.13976916332083583 0.2993813902713163 -0.21583189596194358
0.15516760606604457 0.32778210943711833 -0.20910725523490042
0.12037357349234462 0.32778669899476603 -0.2315934353019628
0.15170213241415859 0.3275333792544706 -0.2117095642234716
0.11576193232375026 0.32049633568299846 -0.21767557193297477
0.14621129293280483 0.31296433514131144 -0.21322534014243216
0.14705940742331386 0.3325100094653471 -0.21627110768813224
0.16062351722555995 0.2870249897815092 -0.1981866263296041
0.12797027487593532 0.2945373803950651 -0.22303295661467643
0.12097832221823573 0.31610979145539836 -0.22938690115470023
0.11428695578413844 0.33365358418000773 -0.21885617603320212
0.11924534697371364 0.3042153269626005 -0.2133199327136907
0.14131661910849452 0.3119996935702665 -0.1995814942266378
0.11846065182524562 0.3500363380290373 -0.22140162219065757
0.1641203429205978 0.34092809265626506 -0.20344602097529502
0.15575834770041347 0.3076701909877165 -0.20528382588881583
0.1173729862673843 0.3350700289584501 -0.2160781376506719
0.11496171016531825 0.32849974936021403 -0.23400757242697806
0.13054790754156947 0.29054702824128703 -0.20479353298205466
0.11661412973242641 0.32383318251145915 -0.21781215597647757
0.12253516573744655 0.31650991743577556 -0.2136212490941915
0.14600217003661037 0.3051752597667082 -0.2122399561550054
0.14222645420866847 0.3411600739337309 -0.220525255098525
0.12697785754042507 0.29684497421754436 -0.20831257630843253
0.13531216640311122 0.3492425829745634 -0.21730822850722403
0.12859427590208888 0.29397751396668986 -0.20666415025252433
0.11907714266615749 0.3501244932986601 -0.22041254271525473
0.141043689440068 0.3371147066928251 -0.19910254110354514
0.13959309120016933 0.3291203529216154 -0.20324980248469443
0.11480623144942165 0.3046280295230253 -0.21526708234805197
0.15361317653494716 0.31033040588868693 -0.2072920106794271
0.14149769801932216 0.3355159909106596 -0.22082065571803183
0.13421725888090968 0.32737345999253825 -0.20800036717909903
0.13119777698355556 0.34054400032533244 -0.2017603420164022
0.13794985074835658 0.3105349094249113 -0.219389801516715
0.13767090101080776 0.3426131755687101 -0.22305545736807914
0.15843471546011806 0.3018838316775663 -0.20225553740519614
0.12518784065085292 0.3153564483500822 -0.2272166215326223
0.1410749520762527 0.3120889217234953 -0.19980282117385
0.14996543187933803 0.30863256758225993 -0.20976786841410727
0.13959142227011562 0.32621909683717326 -0.20340621997374625
0.12256028909521938 0.34798498457444743 -0.22626090575713248
0.15581538934546352 0.3069767505503996 -0.2051208965923223
0.14238181371527553 0.3482694179393156 -0.19897664119261832
0.1523279811843002 0.33035542076600627 -0.2118124716426763
0.11970919031935573 0.3433289677478178 -0.21053647030848593
0.157004919241246 0.30932743853105144 -0.2045490496303472
0.11922698874312282 0.3024788052417143 -0.22806099583167166
0.1276113953097427 0.3292138130046232 -0.21259832908171744
0.11647054214316249 0.2849202901698454 -0.2269048743392858
0.1282425488932693 0.3171010763026579 -0.21067527462500663
0.12122502584296108 0.3242128640986784 -0.21577582289237113
0.1604725386603439 0.34031166141999797 -0.206837853088561
0.1244898702605331 0.33580262964738444 -0.23099116016882987
0.15049269456702113 0.3275985867358549 -0.21255781282443137
0.1407445635302627 0.3132857829905851 -0.20028837551135154
0.1119892861350143 0.34396751230729655 -0.2132325225021276
0.14224883575278163 0.29838760202897624 -0.2138304911996755
0.11907702345686794 0.29195661848558024 -0.2267191313650045
0.14288097281294704 0.31969828909410075 -0.21704218317526908
0.14327484030562282 0.32052715128434733 -0.19954771329421134
0.13375869054633022 0.3234433681346281 -0.2242823295738134
0.1354529525740707 0.3428121358729704 -0.22539657880324454
0.12851148505049587 0.3494337350703581 -0.22165988911646933
0.13029878992873073 0.29850889748109416 -0.20617121984023185
0.15152665633993984 0.3436217457629545 -0.2126340024616155
0.11386972327071071 0.33272786444200114 -0.2195511363889608
0.11603638191061855 0.34924776857865886 -0.22684306432265372
0.11501139063673854 0.3381431848384245 -0.23532729376811118
0.12526332993346095 0.3160050064898832 -0.21193798412341208
0.1676569845183456 0.33618094032777385 -0.20055720736044974
0.12666469473677516 0.2986520082331999 -0.2088425659086141
0.15440639514761806 0.3232936412669523 -0.2088605367090139
0.13213291425543666 0.3475687057353361 -0.2234885745193395
0.13731202144461513 0.3023523837901457 -0.2183710836316976
0.13112416524725795 0.3394885808802946 -0.20320471157092185
0.11347287554579616 0.31724239891542033 -0.2180821352149877
0.1300583745940292 0.3323896676875456 -0.2279809765960607
0.14480191130476833 0.33760173624528483 -0.21842937697428794
0.16254123706656337 0.2965370566226347 -0.19835386206168265
0.13686710257368923 0.33300973480714396 -0.2055103682424459
0.11587950248556972 0.3284450322963102 -0.23360439170855613
0.1252133216364944 0.3142652661181791 -0.22705835629958243
0.1691712405188644 0.3358981758929594 -0.19937520255107016
0.16128661889868617 0.33141268795503215 -0.20535696078795523
0.12647047300177455 0.3440379053927763 -0.22884193588751883
0.1125880147917831 0.31826682394517497 -0.21867761541861624
0.13244554061728359 0.2921417505122526 -0.2036347441818151
0.14800163764792323 0.3167699725009306 -0.21245295335311026
0.1436071958048904 0.323737159428726 -0.21710081924456687
0.13118236918288112 0.3101763874865873 -0.22380644608992667
0.1120781864626968 0.3469365984774931 -0.23343430985468955
0.11648171801405788 0.3498125225879057 -0.22007965077418418
0.16478332538443446 0.340000107941757 -0.20283431340712638
0.13381665606337428 0.31993807858003215 -0.20698550869483084
0.11616882343130946 0.29151649778855876 -0.22793332268256278
0.14211049337225795 0.34925355022920207 -0.2023149781371984
0.11555033583479762 0.34381903713716105 -0.2341777436878118
0.14118531007605434 0.31162007158769206 -0.19963057865161032
0.14678719301062465 0.28665478533280925 -0.20853363503474326
0.16561093587714076 0.3268591315127714 -0.20097208549040885
0.1611092950804794 0.3344642669535978 -0.20589915443915457
0.12404068965750575 0.3477441222049101 -0.209503104582015
0.14372315664130092 0.32951767748368815 -0.2183177970792684
0.1605277325614059 0.31951351469529704 -0.2034852706338796
0.13938346166449428 0.34973730152619914 -0.21234180559176535
0.11609798331099391 0.30432392662538127 -0.21466130544203849
0.14357491988974452 0.3191526681758268 -0.19906576503771872
0.1653606559737289 0.3422468454219206 -0.20207453300017447
0.12350836057501674 0.32886447018159465 -0.230470603003684
0.1623859073622787 0.311372235474716 -0.2005568497325811
0.13806131143408656 0.3077907115794523 -0.20164758492964835
0.12161284346419216 0.34213109320176677 -0.20952418972510428
0.12265005369025112 0.3398278505183561 -0.23195621897238822
0.1307549144728744 0.3493535072184904 -0.22103101541060538
0.13172268528777004 0.3476815373278959 -0.20410687257308097
0.14376622099715114 0.3314207345820768 -0.19892783988970847
0.1393320824606979 0.31606788939012126 -0.21931322444933982
0.11483484167891383 0.3134989292003019 -0.21657209624308676
0.1540294553740585 0.3450386077739103 -0.2111938797380361
0.16613265533285976 0.31998606031907634 -0.19921240736502738
0.11075096983748317 0.3180200011111601 -0.23412144710082144
0.13120773095923305 0.2691251785136564 -0.2173250519182119
0.16161164302664638 0.2922832519389494 -0.19846261073607535
0.11413436789351344 0.34622801846040324 -0.23378769089240165
0.12895202298003078 0.34627576178086833 -0.20380218853015036
0.12516185302573085 0.34876193111909465 -0.211196561947051
0.113987204025563 0.30610610550416545 -0.23123598624724478
0.11114394326048732 0.3493089825488432 -0.22018068064707846
0.14896168966132045 0.3317374140597685 -0.21468157102126212
0.13810735602217555 0.2980953008509977 -0.2001877181674871
0.12423932213621974 0.3019090444423063 -0.22614881922263236
0.15334674377280116 0.31441320484651164 -0.20803334344882102
0.12468787689047695 0.34643556183351115 -0.20658012260455222
0.1284174587233627 0.32757546013368205 -0.21223238636511893
0.13411953706580043 0.3460427672244413 -0.22486906279582114
0.1469251181586349 0.34756208961976603 -0.2125422411109838
0.15474596280890346 0.3491814882136686 -0.20349810053366751
0.12768879194098354 0.3094403893329008 -0.2253475092794332
0.12908628244238735 0.2904620320178373 -0.2058341704751882
0.13560977239447475 0.2770636231280668 -0.21536912549990744
0.11494257707434535 0.3058099896289213 -0.2152670227434072
0.12923669476347804 0.3184719235278471 -0.22606729496974082
0.12201037664252162 0.268313780484329 -0.22182772089499564
0.1313982274039352 0.3143931776858671 -0.22447844375628562
0.12320318479376674 0.32630588119996623 -0.23004207541007132
0.1106646623118484 0.27924545115007 -0.22838977505225272
0.11338367719488979 0.30844195192826823 -0.23180065084952445
0.133879360149678 0.3499428183413847 -0.21046571959513755
0.16357847709494472 0.3364714533664091 -0.2037844263460073
0.13096594471770168 0.3308658749438627 -0.21020611156481833
0.16429695148306728 0.32986743753923015 -0.20269345273036093
0.14575230736571193 0.3328568488932951 -0.2173269741680059
0.1453144516451919 0.34066559380067424 -0.21784592200774283
0.1323474015696609 0.2823187858439787 -0.20208518733042807
0.1332927014334762 0.3466158658839567 -0.22454044748801322
0.16387369890051723 0.3070339114047392 -0.1984782122518453
0.15209099311667323 0.2943959385730131 -0.2058789782668981
0.15800466794806362 0.32905073469651774 -0.20719650913733573
0.15628453750449062 0.30403138702882365 -0.20425861109751792
0.14931305904227138 0.3498327881671293 -0.20223299194830985
0.13456350226240993 0.34108574694169597 -0.19958240319747061
0.11391830105620265 0.3120086938716276 -0.2319449089910421
0.11068179864722133 0.3161099106646879 -0.23389086653250785
0.13653689284163356 0.329230859933029 -0.20605370928305716
0.14618578214484096 0.33998765057099894 -0.2175265603210363
0.12658378143149257 0.31703622644914226 -0.22684157420653434
0.15819260139304042 0.3233239204264982 -0.20595436324137778
0.14662727374869228 0.29008312529100017 -0.20936181177157492
0.11815485019522548 0.34547860926164226 -0.23302418519515128
0.1438329483969772 0.3279108554698332 -0.2178631924535665
0.13191181082564235 0.2922192961551054 -0.20403060843009085
0.1262894536955917 0.3128127605296476 -0.2108519278909597
0.16221961040335536 0.34472002094758586 -0.20439900983828635
0.12581768293219447 0.3123130947924955 -0.21102306772727103
0.12110080976324916 0.28216458862794475 -0.20948155750292868
0.11318781633215785 0.33548726147187785 -0.2357501589204702
0.1206482913001144 0.3133889586306913 -0.214128171696845
0.1307605173094833 0.3395159990168913 -0.2034203611757192
0.16126122732001186 0.33514262741578654 -0.20586671461123557
0.1467393602831924 0.3311577588893278 -0.21629620124358268
0.11786102909880519 0.3016922623492582 -0.22857308913725943
0.1160163845522964 0.3274905235148771 -0.23335001398581595
0.13988822359877467 0.348819688019882 -0.20151295293826194
0.16125324029761195 0.30449129646791057 -0.20030721057910056
0.13946473259764552 0.2968249470568998 -0.21553598870295615
0.1375738944514358 0.3209625036097868 -0.22149918009299369
0.1388193335040176 0.3468468934871061 -0.22044687499064536
0.12125539440947414 0.32423330849183635 -0.23043534685629935
0.12989297170477748 0.30799014872087077 -0.22421734560984702
0.12693711776572109 0.3448192030764921 -0.2045992218400869
0.13119372386771083 0.3452081829882963 -0.20189001192111106
0.12106552381354213 0.3479526192523344 -0.227114593281928
0.14187195558386684 0.3201137334681852 -0.2006142341043386
0.13208713788824916 0.34990341967118815 -0.21716699530142874
0.1645851399405563 0.327999010739456 -0.2020628653909597
0.14085811037855983 0.34700764721406535 -0.2184466474201116
0.16420152444678188 0.3475096375323637 -0.19947618772048087
0.11278476972418666 0.2720554024554594 -0.22654146482009024
0.1581710841162765 0.3358390480853422 -0.20809786547679038
0.13356101174193263 0.32071597879899577 -0.2073195927287969
0.1366929974063003 0.3456444293834074 -0.2232992105628881
0.142073061655339 0.34802003210557536 -0.19823855687636466
0.14759906787711025 0.3333456069804533 -0.21591108073252768
0.12239211458998561 0.32837064569963054 -0.21573094059485526
0.11955508251028896 0.3182173520900114 -0.23039542664546103
0.1301433708174789 0.3055477291919096 -0.22387257744330497
0.15658160705405116 0.3315607458926542 -0.20870085586566062
0.11168139834242702 0.3483181149340971 -0.21737166275042624
0.13638436455565334 0.3060924560405119 -0.21985196103114218
0.12091415781813503 0.3158801347590788 -0.22938082148093314
0.15145876664954067 0.3086190969325407 -0.20863979090708823
0.11139392514067531 0.34272308653367595 -0.21300104786414237
0.1242081787093246 0.3381371051646574 -0.21094838310736747
0.1317249502642715 0.3119421154834135 -0.2072050773050222
0.11291625757056117 0.3342892081118925 -0.23572789658564658
0.1290893222792709 0.3481063992358549 -0.22408678163546653
0.13271125812369228 0.31471325462831096 -0.2236874454166326
0.16780081052618862 0.3317477256633146 -0.20037231375235648
0.13015630502539516 0.34854705637467936 -0.22283377279299826
0.13827633519011379 0.3260472566462858 -0.2218699358846578
0.11324232477980495 0.3329156190730436 -0.21973088909644217
0.11071374673682094 0.2738019377566679 -0.21296094883936972
0.1278523470862472 0.3067590147830351 -0.20928960074442954
0.11112749237852931 0.3354624659396513 -0.21894790758151145
0.12807672877150417 0.336775854287277 -0.20976211656588645
0.12709542770224452 0.2721710950709684 -0.2197845630790624
0.11842465061980129 0.31423713272584514 -0.23030743528861136
0.12913569469290614 0.3258297592975004 -0.2270303272153768
0.13990816135245204 0.335566833672653 -0.22200127471942038
0.1337148811324203 0.32148279255403117 -0.22416709889430136
0.12710046429472804 0.35015071934236125 -0.21435939301508994
0.14158352870779872 0.3260051757670744 -0.21925648082751364
0.15146460790472865 0.2929178029872282 -0.2060669713165197
0.15179159898596645 0.34946693485749797 -0.20402959515112967
0.16069915551977992 0.3430501968242033 -0.20606877435702414
0.13310438055830837 0.34226746862901286 -0.22709607113856406
0.11402392048674465 0.34947378939164714 -0.22306129862326712
0.14054244417982936 0.3107734472133024 -0.20003386367816062
0.13281976837950588 0.34996111696733073 -0.2157063834812078
0.11966457624274135 0.3287090808726652 -0.217106824412528
0.1209561194880569 0.30358143156541423 -0.22749943067092032
0.12459900636511684 0.33562316006196574 -0.2309339546110067
0.13464900512534023 0.29991008347047404 -0.21999566782969565
0.14460551400023341 0.3249772936679228 -0.199134355082694
0.14563232321577907 0.3291664273120268 -0.2167151622917089
0.1222606267436111 0.3229962736941679 -0.2298381679202947
0.1203663613303268 0.3457189947940214 -0.2099128716136846
0.1498640443785751 0.31722469633592204 -0.2111326359655294
0.16492148895102382 0.33549208944810466 -0.20271008242625327
0.13504439253645778 0.32723392551911906 -0.20735382069605918
0.13886612315016628 0.32613338535798625 -0.20397158493060202
0.12988319654303432 0.3018373400546415 -0.20704657365340323
0.16079762239294887 0.3479640037394865 -0.20157103766459555
0.1318373050196731 0.3210900575496061 -0.2086229078914556
0.15142026204901576 0.33720912045014934 -0.21336652864474387
0.1341864432795608 0.33893628424180583 -0.2261375986482534
0.12069829959708095 0.32753045862687663 -0.21649407376307578
0.1320441629393661 0.33546938007844523 -0.22714484263915152
0.16076114435034633 0.31028993433488444 -0.20167857934493155
0.15479036826926112 0.3337760121203764 -0.21070355702895255
0.1246448721392715 0.34186716383470134 -0.20643498529452414
0.14861395616370082 0.32571579521668986 -0.21358365346449942
0.11760192770796657 0.31795956200135783 -0.23117578555602164
0.11522355336981654 0.3103050739146574 -0.23116252352255912
0.1691157485945785 0.34323997801316813 -0.19826497663516135
0.11832359094458461 0.34198875731004313 -0.21108697880763144
0.1691167618735397 0.3419522792674406 -0.19874138165968985
0.12220343608694911 0.34969629353059367 -0.22147229839819998
0.11861148137884975 0.3270168454028471 -0.2321739845420751
0.13198366422491908 0.2982174307681425 -0.22157756020087332
0.15210523862677455 0.3472921401835783 -0.20968755115527243
0.13869639892416835 0.33929367369187907 -0.19943166305083365
0.13785469193297267 0.341686263737808 -0.22321868468779654
0.11250826377707362 0.3428309709407194 -0.23574948836821646
0.11418729681807399 0.33623494213594035 -0.21684071947592826
0.1582541729910934 0.3473587781764372 -0.2057237379695806
0.12466054816084743 0.2910741121150358 -0.2088786714221868
0.1493052508338058 0.30407930916322307 -0.2095948808338079
0.1271129216654861 0.29617531603349284 -0.20816454817313285
0.12569430131750942 0.3493540436602934 -0.21250382591742606
0.11062365431624294 0.33062215155137614 -0.22065912713069052
0.1152791347010696 0.3211549670077665 -0.217993756427947
0.15038051862555385 0.29134209459794597 -0.20656109382170768
0.14964279193716884 0.29795815056336955 -0.20849122632998557
0.1505496766074264 0.33817113941682414 -0.2140773140336904
0.1446963514788711 0.34525384014619426 -0.2166739903833303
0.11962940950232387 0.29135258501542644 -0.2264020942594442
0.13233276862936855 0.28164596861375407 -0.21808718670863242
0.15718105096655727 0.33550693100465373 -0.2091242574598226
0.14866426248389125 0.3043989092685087 -0.2101390712406072
0.11122589964705348 0.31191457813752727 -0.21807957221526236
0.11147090453940273 0.3019017726756437 -0.21635202099341483
0.12442341108160854 0.31000263994706706 -0.21159264971274466
0.11566984314757228 0.3483699709750517 -0.22900109519023032
0.12454333562689662 0.34491379564775065 -0.2290331028844747
0.12296089191275478 0.28572572773469523 -0.20906186629790396
0.12262981791334987 0.34824241703523234 -0.2117724918271932
0.12140887636977077 0.3389644772387846 -0.21175614525336356
0.13206997175055385 0.32187111681474284 -0.20861769248503775
0.16818633336859584 0.3336429745532377 -0.20018445481318564
0.16081651706534267 0.30231751507295207 -0.20039015044230551
0.12559663910704494 0.3415390402652128 -0.20568682779330344
0.15861680764990688 0.3344462067462309 -0.20759876598376364
0.12762185592490077 0.3377490789271696 -0.2296606354858312
0.11448174376326442 0.3479116708613737 -0.21509984661597342
0.12225669283705592 0.33622457092774943 -0.21456468631285758
0.14115711707907558 0.3270133883334501 -0.2198320828821096
0.1437939371569717 0.29613794392121867 -0.21239415337103934
0.11407521028357387 0.3424008638240202 -0.23514746655482383
0.12284010310011745 0.30607683962358073 -0.22700180639285178
0.12069829959708095 0.33098323648942546 -0.23215687800902457
0.1252402033312881 0.34884358948243693 -0.2236082606460485
0.11164226789313197 0.3491192609645231 -0.2192418329860601
0.11329969425040126 0.3495441824771269 -0.22571282614726157
0.13275617022353053 0.3268731386042936 -0.22542812456149192
0.14969756860571742 0.3039881140567167 -0.20926027525920005
0.11494186181860805 0.2926182300425871 -0.21359892715472312
0.12694760818320155 0.3119859845019682 -0.2103687279369268
0.16537364978628993 0.3437324911929472 -0.2016641550208959
0.12905847687559963 0.3500682265139921 -0.2126500361110601
0.11416941542464137 0.3241413385249479 -0.23345156539935202
0.14240723509627223 0.26990373438371257 -0.20923413862246604
0.14874025840597987 0.3483057767726286 -0.2094696216728124
0.13738488812285304 0.32653106754792766 -0.22246106494921775
0.13920315761404872 0.29332210129273967 -0.21516210366744132
0.14315905828314662 0.3005086929179533 -0.21351473559397788
0.14096656102972865 0.3355755359507902 -0.20003475774783225
0.11894046921568752 0.313666358647476 -0.2299903087760839
0.16352846879797817 0.3480333239413603 -0.1984123342182073
0.12212395329314113 0.30203689640534953 -0.21187028814810843
0.12728169221716762 0.3382564336634977 -0.2086364530469808
0.15498259324866176 0.3495094329692228 -0.20189080168265433
0.13414635915594936 0.3340019137240751 -0.22581621040362448
0.1123729314311111 0.3495358378268583 -0.22754638422984214
0.12272730130988002 0.3359197527743681 -0.2153758012201223
0.13188257474738002 0.336732342896591 -0.206467797651473
0.1550062562926376 0.3234101683474882 -0.20841518570441336
0.16401186246710658 0.3357541114665373 -0.20342140425700278
0.11205738444167018 0.3408129960872038 -0.21378024448412986
0.13534962792235256 0.33499975508225993 -0.22522512604254813
0.1324735846026504 0.286456361470352 -0.20269533027667136
0.1304260458453262 0.3184796721316679 -0.20935063590067954
0.13074350018339992 0.31525118654740886 -0.20850369860190482
0.1436742808325851 0.34879072016252116 -0.2106503896858129
0.12684052843886257 0.33401180809510783 -0.21344799329299063
0.1271744634612167 0.34959949558747844 -0.21196586419600577
0.15737411041098476 0.32929851120484904 -0.2076776229288015
0.1374797191126907 0.34690953796876506 -0.20016788472193808
0.11222701926070094 0.34590514009965495 -0.23452333141821952
0.1543993021948898 0.31887282436860637 -0.20797034133929343
0.15251233835059047 0.3366967589236601 -0.21250257421988578
0.1368458833201492 0.33440317219270305 -0.2046650551702413
0.13754853267508388 0.3361028582431181 -0.22383378972071738
0.11701795120077968 0.286087229905258 -0.211867948665801
0.14309557933646083 0.3166642934657438 -0.21639282037276358
0.14069863815146327 0.32955308264268474 -0.20212610591906638
0.1281311478121841 0.33215744799150065 -0.21235614050883383
0.15595945377188564 0.3145482093669279 -0.2061667196895513
0.14056524295645595 0.3081733733989103 -0.21680291522997946
0.11966791410284877 0.3340351731158598 -0.23294410635489554
0.12085106630164028 0.34582711761964396 -0.2311589472438726
0.1521353985770309 0.278002455887924 -0.2029015772487554
0.11929016966658473 0.3117166311122282 -0.2143355213548574
0.12733271379309535 0.29798240965379313 -0.22411644984740348
0.14843657274084926 0.2948699743129118 -0.20881985653895468
0.15453895587759853 0.3498264700747831 -0.19841297496813864
0.12346377630072475 0.33819819992555217 -0.23154247333067984
0.1454006697638595 0.32486452168000773 -0.2159224503185186
0.13326638598280788 0.3498636037684782 -0.2096418343927297
0.139778938482579 0.33384050434602336 -0.20202655126113028
0.13730427284079433 0.3465292007304533 -0.19979912568587394
0.1348082091315353 0.349457636532913 -0.20600651730555625
0.1264672245486343 0.3132207543231352 -0.2264941238309774
0.15879323739844203 0.3453637511111601 -0.20635569621581168
0.14749109406309963 0.34991140669358806 -0.2010099791433248
0.13855623860197902 0.3183345944262846 -0.20297842253703208
0.13235947151022792 0.3499713689662321 -0.21063930322188468
0.11892375011282802 0.34842349594606 -0.21472488869685263
0.13199364800291896 0.3244691044665678 -0.22533454526919455
0.12216177244025112 0.34189374750627116 -0.23133230735320182
0.13622495193320155 0.3209927827693327 -0.22248802114981742
0.1581601764662826 0.3393725306369169 -0.20882332850951285
0.14537399668532253 0.3197055012561186 -0.21505566467303366
0.11519270796614528 0.34764416521562175 -0.21423093010443778
0.1443304087622726 0.34117229288590983 -0.21851678718585105
0.13130360503035426 0.34317554539216594 -0.22730704177874655
0.1669872667296493 0.3252855688907011 -0.19957666625041098
0.1211772527201736 0.332242801842819 -0.21667112936038108
0.12061479348975063 0.31887169188035563 -0.2152091019298467
0.13855445046263576 0.3311888129092558 -0.22261636485118003
0.14027356762724758 0.30061824625505046 -0.1987199537898931
0.11103877086478114 0.3193934709407194 -0.21950649251002402
0.15295555848914028 0.3280308992244108 -0.21090429057139487
0.155331757257756 0.3265820295192106 -0.20875822533625693
0.14819916744070888 0.30799283092988566 -0.21100770463008017
0.14870562810736537 0.343031957802902 -0.21443030764121146
0.15297624130087734 0.34810407465470866 -0.20742390085715384
0.14142039079504848 0.30254860228074626 -0.21516369809168906
0.13792431015807033 0.32759876554978923 -0.2050261997129354
0.14024239439803005 0.33558727806581096 -0.22174300779360862
0.1153963472350204 0.2923740298129423 -0.2133662157203588
0.15870186347800136 0.3413641602374418 -0.20830493201274008
0.15874769944983363 0.31348021334184245 -0.20381075669783683
0.14400952715712428 0.27174253767503337 -0.20824331571120352
0.12828677553969264 0.3222228438235624 -0.22679667700785727
0.12586670775252223 0.30337865656388835 -0.21005173553485007
0.12710794467764736 0.3346132785655363 -0.22975695659178824
0.11080208082037807 0.3024853021479948 -0.2320972435619268
0.13104271550017238 0.3341520578242643 -0.22760153342742057
0.1346427764399612 0.3329648525096281 -0.20736815561312766
0.1237993504508102 0.31415160006059245 -0.22770664621848197
0.12187385220366359 0.29929418867600993 -0.21164891649741263
0.11195313591795802 0.27203322952760295 -0.2268915825035009
0.126864161680516 0.3299905807353361 -0.22919351388472647
0.13432824272948146 0.3498339802600248 -0.21667476524371238
0.13350316543417812 0.3460244685984953 -0.20141120780963034
0.1347805823786819 0.33631898468507365 -0.20460603167075248
0.1149160530074203 0.34911967819703654 -0.2174441867019567
0.15427252311545253 0.3468711525775297 -0.20922682215231986
0.13592204112845302 0.2962231189586027 -0.2180581890489492
0.12945902008849025 0.3256068975306852 -0.22682463158625693
0.14708822626906276 0.34698154037965373 -0.21361554194945426
0.12134343046980739 0.3481863886691435 -0.2127209656383428
0.11617815155821681 0.2993421704150541 -0.2290399127151403
0.1392233039839828 0.34990508860124186 -0.2089995496417913
0.11617463488417507 0.3448923975802763 -0.23391177286166281
0.13347693939047695 0.33755280083192424 -0.22644894351023764
0.11976658959227443 0.2862879187442167 -0.22559439171809287
0.11516850848036647 0.295585349259506 -0.21385577847022147
0.1408818926318252 0.33892853563798503 -0.22143167783278556
0.14142015237646938 0.3497788459636076 -0.2053756617452535
0.1329703595145309 0.3496424705363615 -0.21841404367941947
0.12255778570013881 0.3455043584681852 -0.22944045592803092
0.12696766514616847 0.2985642105914457 -0.22438358296412558
0.13520714301901698 0.30154974764360026 -0.2028848730470571
0.130182352255162 0.31156851356996135 -0.2083247803594503
0.14453133601981044 0.30416269606126384 -0.2131186776306066
0.15417274494009853 0.3005765230037077 -0.2053892814065847
0.11590963263350368 0.3017574698306425 -0.2143267892743978
0.1662028099997604 0.33864505594743327 -0.20163913597125144
0.1588574912055099 0.28079278772843913 -0.1985874377633962
0.13965183157759548 0.3474454433299406 -0.19883727063197226
0.13677903671103359 0.3402391821719511 -0.19945170511263938
0.13403451104002834 0.3499450237132414 -0.21049869586485953
0.12354299087363124 0.326175645051132 -0.21482298304099173
0.13227992911177516 0.3498667628146513 -0.21827050079363913
0.1403049792750442 0.2976020128108366 -0.19836304117697806
0.11446377296286464 0.3042449504710539 -0.2306616656925115
0.11408552188712001 0.3191530258036955 -0.23281278242129416
0.14374801177817226 0.31610669201387004 -0.21577071179408164
0.12498983402090907 0.34580488508714274 -0.2285404555942449
0.1592404510481918 0.3241428286410673 -0.20530866612452597
0.12809112329321742 0.2959745675898893 -0.22335556675452323
0.11289599199133754 0.3391455561496122 -0.21523805488604636
0.1274391378863418 0.3477944881297453 -0.22535202433127494
0.14115774292784572 0.3448953182078703 -0.2207366876747045
0.13315108079748988 0.2946521789409025 -0.21971716512698264
0.1609326865180099 0.3176092058993681 -0.2027882092143926
0.15298279781180263 0.3497746736384733 -0.19950585593241782
0.11275115270453334 0.3192856461383207 -0.2334208690072927
0.14114382524329067 0.31143577402604655 -0.19963489998835654
0.12299388308363796 0.3002492935038908 -0.22641283799666495
0.12035578150587917 0.34344388550294475 -0.23255870272177787
0.14992519874411464 0.3340879828311308 -0.21420269240397544
0.12005483765440822 0.34138752525819377 -0.21100915004271598
0.1525287296279037 0.3189342767573698 -0.20942101408499808
0.12881555814581752 0.3010932952739103 -0.20777632822054953
0.13528877158003688 0.30843438213838176 -0.20402962495345206
0.1241410936816299 0.2863206416941984 -0.2235225044633779
0.14594375748473049 0.3476466686107023 -0.21243581701773734
0.14043160934286952 0.31077094381822185 -0.21739554931181998
0.11601844091254115 0.2910140306331022 -0.22793485750216574
0.13299175758200527 0.29051108664048747 -0.20292345215338797
0.15415325422125697 0.3286962062693937 -0.21008134414214225
0.12606337327795863 0.3297829777575834 -0.22958788801688285
0.15484937686758876 0.31449528044236735 -0.20696861077803702
0.13823774118262172 0.31712968653215007 -0.22032306124228568
0.11883291263419032 0.3498604447223051 -0.22294810940283866
0.1264032389624679 0.33835269516481 -0.20956746269721122
0.12165102023917079 0.31909592455400065 -0.22955278088111014
0.13707437772589565 0.3080077320910795 -0.20255709220427603
0.14417290348845363 0.33882333343995646 -0.2190126829292211
0.1322660412295425 0.34980209177507 -0.2186445348407659
0.1469399001105392 0.29985101526750163 -0.21074423719901175
0.13891315121489406 0.3391988427020414 -0.19941570390719504
0.1434686746104324 0.3090872318126066 -0.21473768879431815
0.15139785070258022 0.31096519535554484 -0.20899676312464804
0.16026207465964198 0.29604400700105266 -0.19991636802214713
0.1326077844603622 0.30115987366212443 -0.20477928747195334
0.13593136925536037 0.2876181752063139 -0.21661386419791312
0.11543401737051845 0.3350570351458891 -0.21697328020590873
0.11428725380736232 0.34946121281159953 -0.22741389800566764
0.12867742438155055 0.33193124836457805 -0.21190034379023642
0.14008173007803798 0.29656673973573283 -0.19835828770655722
0.12863668460684657 0.31332685059083537 -0.22571720708865256
0.14556023139792323 0.34078569715989665 -0.21760093201655478
0.11045115847426296 0.3414918333865507 -0.2371200077678594
0.14177283305960536 0.3065128476001127 -0.1982747666980657
0.1269576813681686 0.3066506535388334 -0.22538926233309836
0.15042575855093837 0.2963863760806425 -0.2075642697955999
0.11390271444159389 0.3476941139079435 -0.21495807696837516
0.13567968864279628 0.3170122057772978 -0.20501031507510276
0.12990927357512355 0.3398192078448637 -0.20348914493579
0.1591023470862472 0.3475610167361601 -0.20475602675932975
0.16064872999029994 0.34753198927415446 -0.20320204426306815
0.1323219503863418 0.33550836151612834 -0.20695807565707297
0.11779796738463283 0.3025092036105497 -0.22873703171271415
0.11304458637076259 0.3178949505664213 -0.21842712689894767
0.12812730331259609 0.3409497887469633 -0.22933146883505912
0.11960887570219875 0.32482965296281413 -0.2165780567075643
0.1302303339942062 0.3069551140643461 -0.20764652420538993
0.157226231287297 0.3198129088260038 -0.20608163405913443
0.1185992326243484 0.3406211287356718 -0.21216139723319144
0.12166502733069301 0.327024832425247 -0.21596807767409415
0.12559860606032253 0.3254354745723112 -0.21353182722586722
0.1376824345095718 0.3238340765811308 -0.20454134573000998
0.1494658257468307 0.3172623664714201 -0.21144933034438224
0.1412212218745315 0.3479044586993559 -0.21583104659575553
0.11691289801436305 0.3358709961749418 -0.23426387239951224
0.16639598865347743 0.33099849527848796 -0.2012872897531423
0.13754358548956752 0.3160818964816435 -0.22067578662890525
0.16034623641806484 0.3232426196910246 -0.20430268873232932
0.13005369562941432 0.3420922309733732 -0.20190261830348105
0.12046774883108974 0.3008368760920866 -0.21240187217253775
0.13375103134947658 0.33391852682603435 -0.2073767833854589
0.11750551719504237 0.3434994966365202 -0.21125157703417868
0.1594000126822555 0.32760353392137126 -0.20594834317225547
0.12331074137526393 0.3184965998507841 -0.22863960792082877
0.11185797710257411 0.3436455280162199 -0.21320382286566825
0.153103974054631 0.3385859281398161 -0.212241923108283
0.11493852395850063 0.3463332206584318 -0.2332646601344976
0.14131649989920497 0.3229330331660612 -0.21884491075533957
0.13867431540327907 0.3164802939273222 -0.21989690293330283
0.1343279149039352 0.32716859882844523 -0.20786896873969168
0.11678135056334377 0.3147927672244413 -0.23107401062506766
0.15181389112311244 0.3410941511966093 -0.21314761568564505
0.14090558547812343 0.3421738297320707 -0.22132602859992118
0.1612935926421249 0.3144837767459257 -0.20193841089266867
0.13810985941725612 0.34857733553422526 -0.21649396945494742
0.12908216972189784 0.3500532061435087 -0.21313229729193778
0.13344600457983852 0.3452847749568327 -0.20056517948168845
0.1384998824103439 0.350020483193527 -0.2123542778636846
0.12289020080405116 0.2711361796237333 -0.22167921592253775
0.14100965518790126 0.3145699650622709 -0.21767268110770316
0.12946048040228725 0.3476302773333891 -0.20547317494410605
0.14021542329626918 0.30324788397325114 -0.2162271343614492
0.12044864554243923 0.34006978577149943 -0.23294330169219107
0.13327395577269435 0.32864232367051677 -0.22549655069369406
0.13356801528769374 0.2976381332255705 -0.22019479204672904
0.12518331069785 0.34786309307588176 -0.20901218582648368
0.15090867538290859 0.3498345167018278 -0.2006680123950872
0.12294295091467738 0.3381121904231413 -0.2115414493228826
0.12689825553732753 0.3334034830905302 -0.22979951430815787
0.15157362480002284 0.3151055724002226 -0.20941184987086386
0.13686680455046535 0.29136945312989787 -0.20000081290263266
0.11301773447829128 0.32641889160646037 -0.2197572194482717
0.15746274251776576 0.3130698353625639 -0.2047682606126699
0.12274667281943202 0.3363908678866728 -0.21278681386965842
0.15426537055807948 0.33936347073091105 -0.21155663360613913
0.11628859896498561 0.2963481098986967 -0.21352157522696585
0.16949537057715297 0.3300787360049589 -0.19869128395575614
0.12804391641455531 0.3049850613452299 -0.22476558913249106
0.12525385279494167 0.3458916694499357 -0.2057266734983358
0.11495005745726466 0.33870150154603557 -0.23541063596266837
0.13222476501303554 0.34178693598283366 -0.19992600907343955
0.11079990525084377 0.2979771644450529 -0.21598631669539542
0.12616088647681117 0.33353318279756144 -0.21403269995707602
0.144848700950917 0.3295117766238554 -0.19866487909812064
0.14929368753271938 0.3490843922473295 -0.20652846027869315
0.13452353734808803 0.34339345997346477 -0.19837414254206748
0.12290891666251064 0.3102367669917448 -0.2122343831207189
0.11463260311919093 0.3365610987521513 -0.21640670825499625
0.14923265237646938 0.3146993071414335 -0.2111675195838842
0.14760723371344447 0.3474849016047819 -0.2123125993158254
0.13095697421866298 0.342597559151779 -0.22754446198004813
0.11874159831839443 0.30531729763520793 -0.2287637941982183
0.13625359196501613 0.3099485785342558 -0.22067890097159476
0.14547946710425258 0.3185702115870817 -0.21479093064326377
0.1546817090018356 0.34850181644929484 -0.2055650704051885
0.14358532090025783 0.3465424329615934 -0.21695066024321646
0.11138829250174404 0.32730253046525554 -0.22054663826483817
0.16308137435751796 0.32347835606111125 -0.2022588007594976
0.12811070341902614 0.34554590290559367 -0.20432971943873496
0.13586914200621486 0.3292365819789274 -0.2240844123508367
0.14447894353705287 0.33205963676942424 -0.21826603044528098
0.12057846445876003 0.3340441138125761 -0.23258323003310294
0.11213361878233791 0.3013506085254057 -0.21599615146178336
0.13165309686499477 0.32810951775086955 -0.21019517411250205
0.1152982677920425 0.34776861971391276 -0.23032305170554251
0.1349157657130325 0.31898279493821696 -0.22307278741854758
0.14219891686278224 0.3220436722613676 -0.21797325243014426
0.11151727695303798 0.31465442484391765 -0.21849789251345725
0.1126936044200027 0.32954968517793254 -0.22007848848361106
0.12486830015021205 0.3252704889155729 -0.21394442547816367
0.14375340599852443 0.3492244035579069 -0.20890327323931784
0.135747697542485 0.3261376768924101 -0.20655079711932273
0.14271959323721767 0.33157815044892863 -0.21954319407004447
0.11613085527258754 0.3358433992244108 -0.23464312185305686
0.11709579486685634 0.3480773717738493 -0.21416843463439078
0.1218338574870193 0.30768044298661784 -0.2277133517410192
0.1644390489562118 0.34259088343156413 -0.20298301209467978
0.13746040720778346 0.28736878937257365 -0.21557161737937064
0.122242477129277 0.3289622217990263 -0.2158459030534658
0.14694001931982875 0.32228256767762736 -0.2142185025360021
0.1253400113089645 0.32169498508943156 -0.21296434630412192
0.12029137868719936 0.32363070553315715 -0.21610807408351035
0.16913720626669765 0.33075411623490886 -0.19910751809138388
0.12611937184172511 0.3293654472209318 -0.2294487409736547
0.1378781463606918 0.3494271785594328 -0.20526847769278617
0.12772008437949062 0.31071664398683146 -0.22559314002055258
0.11662155051070094 0.32021243875993327 -0.23186168600577445
0.11380350251036525 0.32995732134355144 -0.23476975192088217
0.12608274478751064 0.3501621634341581 -0.21637668241519065
0.11780440468626857 0.2986836582995756 -0.21323124100226493
0.1444604958994949 0.2924209982730253 -0.21134809185523123
0.15509822625952602 0.3433912546016081 -0.21099874903220267
0.12671383876639247 0.32737560575975017 -0.21322925914782614
0.11202892322378993 0.3055593520976408 -0.21654661525744529
0.12169530649023891 0.3125968129016264 -0.21336734820860953
0.11464193124609828 0.3233825713969572 -0.23313561607855887
0.11188345808821559 0.28781856602204875 -0.2141388111259374
