ply
format ascii 1.0
element vertex 764
property float x
property float y
property float z
element face 0
property list uchar int vertex_indices
end_header
-0.2001215670396549 -0.03527173079188468 -0.15927701304990655
-0.19977530875699345 -0.037686016928511874 -0.15986070643503075
-0.20171877780453984 -0.034701373946028964 -0.15658537159997826
-0.20145289638535802 -0.037587073218184726 -0.15703400086004143
-0.19821654298798863 -0.03645020402606131 -0.1622380525930584
-0.19812831321255986 -0.035901781689482944 -0.1623513759239376
-0.198320269971059 -0.031358536850768344 -0.16210561107236748
-0.2003911141444904 -0.029912259947615878 -0.15882391344148522
-0.2022824589301807 -0.03120550192530753 -0.15564281354982262
-0.2028698329021198 -0.03857448376353385 -0.1547171981199444
-0.1992888603498203 -0.028676476847487704 -0.16068345914918786
-0.19647897818581883 -0.031962927948790805 -0.1644782186611355
-0.19762763419644658 -0.029575016867476718 -0.16300114105779534
-0.1962094906856281 -0.032617774378615634 -0.16482468556005364
-0.20182405450837437 -0.028555717837172763 -0.15640980611879235
-0.1947433952380878 -0.037972685467559116 -0.16655840586263543
-0.19444702604310338 -0.035153564583617465 -0.16687788675863152
-0.19643743374841038 -0.028135058056670444 -0.16453716765481835
-0.19414915183083836 -0.03582554734881522 -0.16719779978830224
-0.19515776672856633 -0.04098659433062674 -0.16611734639245873
-0.1938574317981464 -0.033229258429366366 -0.16751449416715508
-0.19857637622849766 -0.024357077252227084 -0.16178420792657738
-0.19485618212716405 -0.027910795580703036 -0.166446066008395
-0.19751343169705693 -0.024642315279799716 -0.16314978014070397
-0.1926660839606983 -0.03801479614909293 -0.16879369925100213
-0.20153522530095402 -0.02317818678553702 -0.15689848970014458
-0.19979548492924992 -0.022849645983535068 -0.1598327220543087
-0.19537638166444127 -0.025624421011763827 -0.16588244448739892
-0.19943334200875584 -0.02224778808291556 -0.1604433120353878
-0.19203572013871495 -0.030042674910384433 -0.16947588931161767
-0.20218604841725651 -0.02183437026675345 -0.15580091487008935
-0.19736121633546178 -0.022011902701216952 -0.1633437038524807
-0.19175104835526768 -0.030033227574187533 -0.16975233565408593
-0.20282289424435918 -0.021432545554000156 -0.15479186783868676
-0.1854273531724674 -0.033864852558928744 -0.1543436707122982
-0.1950330738116962 -0.021752324473220126 -0.1662486703260601
-0.18950463870065037 -0.0354678598755181 -0.17181130360204583
-0.1960546825219852 -0.020359155308562533 -0.165021962033099
-0.18953987994687382 -0.03758066571887137 -0.17177895318109399
-0.20204398074643437 -0.018829998146849887 -0.15604051064092522
-0.18321827092664067 -0.034854468476134555 -0.15695241700250512
-0.18956857958333317 -0.02988546765978934 -0.17176910351354485
-0.18536904492871586 -0.027527388703185336 -0.1544200093610943
-0.18272827604310338 -0.03259718097384574 -0.15751475702363854
-0.18305113950269047 -0.030830260884124057 -0.15714420984823113
-0.20226617196099583 -0.01789864576991202 -0.15567032109338647
-0.19877913632886235 -0.017482873570281283 -0.1615230650766552
-0.18841618338124577 -0.033343967568236606 -0.17282222817975884
-0.18331576922433201 -0.02849563635523917 -0.1568405390842617
-0.18895858564870183 -0.02797904289897086 -0.1723318756683529
-0.1878149513293964 -0.03635736979182364 -0.17335677753526574
-0.18440023103253667 -0.02563991821940543 -0.15559602390367394
-0.18142773249642674 -0.03798916615183951 -0.15900722752649193
-0.1854711774875385 -0.023984756838637607 -0.1542863161428631
-0.18097376862065617 -0.03669687784846427 -0.15942951153356438
-0.1883204136182529 -0.027463492523986117 -0.17291597138482934
-0.19369486012952153 -0.01852205074961783 -0.1676956475837887
-0.18798117378251378 -0.028073993098098056 -0.17322500656682854
-0.18287074604527775 -0.025206771265822665 -0.15735124658185845
-0.18664337733285252 -0.0357153979652703 -0.17441082607347375
-0.1807504151155216 -0.02902811444934012 -0.15963495384294396
-0.20105099716679875 -0.014677133929091708 -0.1577146859033764
-0.17913301327721898 -0.03617405570681693 -0.16112264107305413
-0.18299305477635686 -0.02293508924182059 -0.1572108776434124
-0.19828084149854008 -0.014213052164870517 -0.16216119240362054
-0.17868191042439763 -0.0344208148830712 -0.1615375937088192
-0.1890078339864475 -0.02142470754321219 -0.1722706020935238
-0.19574970045583073 -0.01455828226740958 -0.16541971872884637
-0.17810414770142857 -0.035067435871917026 -0.1620689989193142
-0.2007718537141544 -0.01308542169268729 -0.1581838489635647
-0.1782171879102451 -0.03819906390841605 -0.16196504841882592
-0.19932025709645573 -0.013000216852980868 -0.16063014279443627
-0.18569770494000737 -0.028828766714888827 -0.1752697886093319
-0.20267978349225346 -0.013306644331771152 -0.15501781414586907
-0.17942705789105717 -0.026117679249602573 -0.160852199898547
-0.17825901546971623 -0.02920025266345145 -0.1619265587194622
-0.1789161715795261 -0.026625570427733676 -0.16132210801679497
-0.18953116276757542 -0.018999007117110507 -0.17179617892343407
-0.18453496733205144 -0.031456407677489535 -0.17631082843381768
-0.19561907687680546 -0.012974020611602084 -0.16558607529241448
-0.18824225702779118 -0.02008753694232108 -0.17297673832017785
-0.17675375977055852 -0.03421067870791556 -0.16332397471506005
-0.2007542107393009 -0.011469897400695102 -0.1582123697860897
-0.18762975969807927 -0.020577129494506137 -0.1735259355171383
-0.18464639821545903 -0.017359760176497714 -0.15531352768976098
-0.1835163537551624 -0.035324004065352695 -0.17723934959012871
-0.18355964162843053 -0.03780966676409842 -0.17719783495504265
-0.2004567388583881 -0.01074072397883536 -0.1587133021219433
-0.1971763227273685 -0.01100000418360831 -0.16357947002488976
-0.193514943509267 -0.01285499013598563 -0.16788612912732964
-0.17882181742684666 -0.022099581133681552 -0.16140889237958794
-0.18489120939271275 -0.024019923579055087 -0.17598511885244256
-0.1765745733072025 -0.026275631558257358 -0.16349234293538933
-0.18280008473889653 -0.03106516278918387 -0.17789662490922814
-0.1797866527129871 -0.01943915761645438 -0.16052143882352715
-0.19002369084851567 -0.014675733219939487 -0.1713489801748455
-0.18690773883359257 -0.018438723456221835 -0.17417942594129449
-0.1992876235534412 -0.009165432822066562 -0.160682624684161
-0.19260688164727513 -0.012116816412764804 -0.16886164854604607
-0.18215423861043278 -0.0319130388611138 -0.1784879327877224
-0.17541849651830022 -0.026946004998046176 -0.16457860778409844
-0.18001207747952763 -0.017774966132003085 -0.16031408916551476
-0.17403981128232304 -0.03691434539492728 -0.1658740253313244
-0.18320232668416325 -0.01441719807322623 -0.15697071562845116
-0.1741457287360889 -0.032066371809798495 -0.16577450047571068
-0.17404538431660954 -0.03269695914919974 -0.16586878012258416
-0.17581433096425358 -0.02373486436541678 -0.1642066598995388
-0.19502890148656193 -0.009200390946227328 -0.16625249992448693
-0.1736019853641254 -0.03186288155253531 -0.1662835986478985
-0.18521797695653264 -0.018629219900923984 -0.1756951124532879
-0.18525520005719487 -0.012309697043257968 -0.15456900607187157
-0.1821053031970722 -0.013899382721740024 -0.15822967003423577
-0.17302851417558018 -0.03137737191851737 -0.1667839498384655
-0.18090841212765996 -0.03051289595301749 -0.1796284825666607
-0.18047174850003544 -0.035846408974486606 -0.1800271482332409
-0.19177632072465245 -0.009850618016082065 -0.16972542415696984
-0.1906804446269733 -0.01054417766268851 -0.17073545466501122
-0.1807908270646793 -0.02876549638445975 -0.1797357560260952
-0.18013709822194401 -0.037188794981795566 -0.18032757054407006
-0.18100681939618413 -0.026292231451827304 -0.17953770469266778
-0.1802647415687305 -0.04027154720957877 -0.18021302531797295
-0.17603597083585087 -0.019220766197997348 -0.1639984012706936
-0.17997102478043858 -0.032960441481429355 -0.18047632883626824
-0.17232845762269322 -0.030302014719802157 -0.16739473353464013
-0.19823613801495854 -0.0060970751159966155 -0.16221254180509453
-0.17209923306004826 -0.038601425062972324 -0.16759473692018395
-0.18227642813222233 -0.021642800938445346 -0.17837489257890587
-0.18536514082448308 -0.009954687725859897 -0.15442512045938378
-0.17176194527642552 -0.037686642777282016 -0.16788903485376244
-0.18357829788224522 -0.01051625288661124 -0.1565392674072445
-0.1797973517467243 -0.029603120457488315 -0.18063228438932305
-0.17487151959435765 -0.019928273331481235 -0.16509253393251305
-0.17155629435078923 -0.03914132393534781 -0.16806844483453637
-0.1715008769323093 -0.03067943133051993 -0.1681167842014492
-0.17955161669747655 -0.012785580527144687 -0.1607376248701275
-0.2022025589038593 -0.004938748251754062 -0.15577032278615838
-0.19689787962930028 -0.004867192875701205 -0.16393487762052422
-0.18588683047787968 -0.012758460413771884 -0.1750980527265728
-0.18331837692754094 -0.009097245108443515 -0.15683755885202294
-0.1733220074464542 -0.021035071980315463 -0.16652785848218804
-0.1804454330493671 -0.010998990904647128 -0.15991548310357934
-0.1712272022058231 -0.02629217184718253 -0.16835557530958062
-0.19960315564172093 -0.0033802060001671477 -0.16015044461328393
-0.18961942234532658 -0.00770681775744559 -0.17170592259008294
-0.17201402822034184 -0.022135790955382602 -0.16766907881338006
-0.1818894449760181 -0.017118599783736484 -0.1787303746803463
-0.18361121454732243 -0.013488110672789828 -0.17715156684953576
-0.19277778306500737 -0.004540201794463412 -0.16867448996145135
-0.17920108178155247 -0.009604450833159701 -0.16106005619603997
-0.18264628985421483 -0.014057931076842563 -0.17803581665593987
-0.19289657512204472 -0.004139271151381747 -0.1685467423065365
-0.17794016042249028 -0.025761928927260654 -0.1822997094257534
-0.18813309112088505 -0.007363077771025912 -0.17306990037996178
-0.19585290589825932 -0.0023014513366997405 -0.16528548906881219
-0.18485312202470128 -0.010138508450347201 -0.17602028559286004
-0.17748004236714665 -0.025704201828795688 -0.18271272491056328
-0.1777708087255222 -0.00985055841143729 -0.1623756350143612
-0.18306884208218877 -0.005849358212310092 -0.1571239144666851
-0.17921589353577916 -0.01928177155192496 -0.18115367601949578
-0.18172156849400822 -0.0064085093849480315 -0.15867002914983636
-0.17762681880490605 -0.02376940525706412 -0.18258087943632012
-0.16784973481194798 -0.033417668711501376 -0.1714228601320446
-0.19398891964452092 -0.002185788523513095 -0.16737563024598962
-0.20095777550237004 -0.0006056097858727141 -0.15786889802057152
-0.1790487025071842 -0.007756051194030063 -0.1612002165182293
-0.17257955708997075 -0.015667703520613925 -0.16717564176160699
-0.18918234148518864 -0.004920747649031894 -0.17211154709894066
-0.2030008737136585 -0.0009357599132836028 -0.15451215814191704
-0.18668329754369084 -0.006857302557784335 -0.17437424372274285
-0.17581519523160283 -0.03743186272318961 -0.18422152708608514
-0.1849417094279987 -0.008509781729537265 -0.17594007264215356
-0.16757056155698125 -0.038576689135390536 -0.17168525467950707
-0.16983971038358037 -0.02095144666369559 -0.1695661456449688
-0.1985220614959461 -0.0002206233852684661 -0.16184805940229302
-0.17252402046220128 -0.014483865868407504 -0.16722410033780938
-0.1757345948507053 -0.029235866438704745 -0.18429975818235284
-0.17401990333096806 -0.012116727005797641 -0.16589272628862267
-0.17616003790395085 -0.00942808068926932 -0.16388184438783532
-0.18233343997495 -0.011035617958861606 -0.1783213080032528
-0.20108488240735356 0.000495258200806363 -0.1576553494795025
-0.193664685278104 -0.0010470715874016448 -0.1677256287201107
-0.17506067493455235 -0.035038468014556186 -0.18491109322149163
-0.18343649843232457 -0.009160217415648715 -0.17731002579767113
-0.17420980372922246 -0.011127230297881381 -0.16571428488332635
-0.16635854580895726 -0.03639357961352469 -0.17282443355161553
-0.18300160804288212 -0.002925839793044345 -0.15720105777818566
-0.18941959777371709 -0.0025267866962731048 -0.17190041254598504
-0.16639292278783147 -0.030027773749190585 -0.17279212783414727
-0.16956242957608525 -0.017806169163543002 -0.16981307278711205
-0.1777461026002628 -0.01761030830081107 -0.18247210095960503
-0.17445668616788212 -0.03905713237460257 -0.1854675323827923
-0.1660832915593845 -0.040678795945006625 -0.1730831475122631
-0.16689389982716862 -0.025011804472762363 -0.17232125114042168
-0.16565637329118077 -0.036509659659224765 -0.1734748245342434
-0.20139107146756474 0.0020113023406684236 -0.15714075277883416
-0.16582311728493992 -0.03034180082018973 -0.17332767556745415
-0.1657006148387653 -0.03913473762210013 -0.17343599210817223
-0.17884434798257176 -0.013837632309752719 -0.18148770044881707
-0.17626585104958836 -0.019796010624724643 -0.18380807946760064
-0.17375552692906682 -0.035626855265456454 -0.18610610674459344
-0.17375232317941014 -0.033943739306288974 -0.18611382554609185
-0.1654566977311832 -0.03903776086505057 -0.17365004728872185
-0.1650497917224628 -0.03346886910136344 -0.17400712381441003
-0.1716544632007343 -0.011388090025740878 -0.16798279295999413
-0.17676755824582402 -0.005285826098281161 -0.1633110107048214
-0.1750855151702625 -0.021168616186934726 -0.18488801132280236
-0.18383902349965398 -0.004809674393492953 -0.17694381486017113
-0.17121985593335454 -0.010989424359160678 -0.16836198280889397
-0.18056041040913884 -0.008650746714431064 -0.17994703959066277
-0.18008030989663426 -0.009301301609832065 -0.1803785772188366
-0.17296154835717503 -0.02942832983668448 -0.1868521631820858
-0.18511968889729802 -0.003043499361830966 -0.17578463862974053
-0.1784056130935413 -0.0026848582142174407 -0.16179171811181908
-0.17911422291295354 -0.010389026772338168 -0.18124579499799615
-0.1666788909723026 -0.019446101557570712 -0.17252334068853264
-0.1893892888118488 0.00040337764088509837 -0.1719351173504055
-0.20208132305638615 0.004020038474243863 -0.1559771211012066
-0.16372239628331486 -0.03403854049380423 -0.17517197738725548
-0.1721602086116535 -0.035690602433043735 -0.18755660067636376
-0.18268495836751286 -0.00473627127345206 -0.17800167809564477
-0.16630487182633702 -0.018741723667937533 -0.1728748739822567
-0.19283494391934697 0.003012064326447232 -0.1686206222637356
-0.16368579903142277 -0.04075932182009818 -0.17520407448846703
-0.17410126367108647 -0.00541269458468558 -0.16581626843053704
-0.17392066159741704 -0.005583491694289462 -0.16598597775537377
-0.1816663894941074 0.000516000617188199 -0.1587333590849102
-0.1681081358482105 -0.013892170559722201 -0.17117998610574608
-0.16370856800572697 -0.02854180015261771 -0.17518410693246728
-0.17959381678597752 -0.0006172922962486907 -0.16069879244405633
-0.16435027161137883 -0.024450835358458774 -0.17462097714979058
-0.17181704977052037 -0.03896608627970816 -0.18786641071874505
-0.1852713380147678 -0.001407888304549472 -0.17565277825433617
-0.16643892267243687 -0.01739149964984061 -0.17274888466436272
-0.17926994004742924 -0.008347746502715366 -0.18110602210599785
-0.16520834007756535 -0.0205006865375817 -0.17386799167234307
-0.17562739589707677 -0.014784541498976962 -0.1843984038694561
-0.19794467130200688 0.0052121313697516755 -0.16259526322919732
-0.16486689486996953 -0.02126878179247977 -0.17416762422162896
-0.1766772870113117 -0.0020911661499321624 -0.16339584301549798
-0.17553205826775853 -0.014551368128615634 -0.18448626111585503
-0.17120966353909794 -0.032191809784728305 -0.18841758977014428
-0.1853895489265186 0.0033517511970221833 -0.15439317236978417
-0.16959348359601323 -0.008599278103667514 -0.16978392611581689
-0.1619333777715427 -0.03444289840396048 -0.1767419041259945
-0.17232468762891118 -0.004732426773864047 -0.16739802669126397
-0.17109994628922764 -0.02560355938609244 -0.1885170848234356
-0.17314004936711613 -0.017486569058257358 -0.18668102334577447
-0.16160334685342137 -0.03385093487437369 -0.17705195258695489
-0.18877935448186223 0.003441068757218106 -0.17248945544797784
-0.18401595988766972 0.0040413173324286775 -0.15603699396688347
-0.19384929576413457 0.0060763093120276765 -0.16752468656141167
-0.16998529472844426 -0.03399651921923758 -0.18950991939145928
-0.17619682887093846 -0.009791758429366366 -0.18387325714666253
-0.20223030486600224 0.007269028056305631 -0.15572649847108727
-0.17525884547726933 -0.0008740691059410735 -0.1647286177738369
-0.172227740674184 -0.01901876605685355 -0.18750313531000024
-0.16191393175618474 -0.026571270596343295 -0.1767595620020092
-0.18627713659303013 0.0024660559779822663 -0.17475674162942773
-0.20206558743016545 0.007654014456909879 -0.15600410710412865
-0.19861060419575993 0.007830593217056973 -0.16173990677434807
-0.17109826245801274 -0.022259887825804965 -0.18851291249830132
-0.20073875823514287 0.007937911379975064 -0.15824185918409234
-0.17055106201665227 -0.00524446047480704 -0.16894549738008385
-0.1820078794051868 0.004056784737747891 -0.15834144364435082
-0.16805303135411565 -0.008600798022109286 -0.1712317974432171
-0.16946263649957005 -0.03734302200015189 -0.18997769664365655
-0.16100826898114506 -0.04038697160418631 -0.17761219154435998
-0.19875523486630742 0.008217963803452237 -0.16155420850355035
-0.1611023996164066 -0.028593477379637973 -0.17752355943757897
-0.16386580505864445 -0.016563859354811923 -0.17504612217981225
-0.17821894624726597 0.0024956794864356355 -0.16196343909341698
-0.18041089215771977 0.003789994347733243 -0.15994725237924462
-0.16957500615613286 -0.028254148136931674 -0.18988545845586663
-0.17168268600003544 -0.017978724610167758 -0.1879963339431942
-0.19893664160268132 0.008676383126419766 -0.16128074239332085
-0.18870636859433476 0.005511585105103238 -0.17254974554616814
-0.16974197366730992 -0.004392441880065219 -0.1696514249904812
-0.17610938885705296 0.002013716328781827 -0.16392942379552727
-0.18153718152539555 0.00022539817158578196 -0.17906399677831536
-0.15998323300378148 -0.03930300153430106 -0.17857719074327355
-0.15980996230141942 -0.03793885983164908 -0.1787403137548626
-0.19286882915990178 0.008408549655121549 -0.16858420382577782
-0.16786167064206425 -0.0058379737251579925 -0.17141163955766564
-0.18517321386830632 0.007272842753571256 -0.15467630933362847
-0.177896246700452 -0.003088620077925937 -0.18234079192716485
-0.16985663810269658 -0.019817051064330356 -0.1896348209245861
-0.1735572073747379 -0.009787228476363437 -0.18629255007345086
-0.1838375333835346 0.0037550064212500886 -0.1769555420740307
-0.1591572914411289 -0.04059374011691214 -0.1793547780378521
-0.16258111634747807 -0.014848825108367221 -0.17617349933225518
-0.1904884133626682 0.008134725917023404 -0.17091508816320305
-0.1827076528360111 0.003012064326447232 -0.1779911876781643
-0.1622237716008884 -0.015161242853957431 -0.1764870793684185
-0.18489307203786198 0.005046460259598477 -0.17599525164205437
-0.17794887760178868 0.005251410830658658 -0.16221182654935723
-0.17542584279076878 -0.005242702137786166 -0.18457793305951958
-0.15871274509923283 -0.040212389599639194 -0.1797732920511425
-0.172635153322385 0.00141871296231149 -0.167127138481921
-0.15957632699506108 -0.023668971430617587 -0.178960269795245
-0.2004475597430927 0.011365804303330167 -0.15873252461988335
-0.1588598344613773 -0.026555892597991244 -0.1796348006590069
-0.19805863538281743 0.011448922980469449 -0.16244862090188866
-0.18534489014642064 0.0062520834094703034 -0.1755878240926922
-0.1856549982120258 0.006510260928314908 -0.175307846175021
-0.1580605510761005 -0.03555673040087821 -0.1803795606954754
-0.1628961715985996 -0.011699375283080356 -0.17589702318746453
-0.15812166073815648 -0.0399982599132836 -0.18032588671285515
-0.16661846676366154 -0.032874968420821445 -0.19256435941297417
-0.1579193923761112 -0.031684514653044955 -0.1805035681589306
-0.16490529516236607 -0.007192727696257846 -0.17413391779500847
-0.16666236558453862 -0.029617991816359775 -0.19252928207952386
-0.16591574290292088 -0.0052314368599236175 -0.1732406229837597
-0.16801472046868626 -0.002198096882659213 -0.17126778374750024
-0.19263955989377324 0.010807278979462369 -0.16883338104326134
-0.20298361816899602 0.012107256282013638 -0.15453756462175255
-0.1588506404449207 -0.0227134493702233 -0.17968302081663018
-0.17051531413094823 -0.012542006146270053 -0.18904154609281426
-0.2021427158405048 0.012321087945145352 -0.155873915658778
-0.16958454289929692 -0.014973011385756747 -0.18988077949125176
-0.16804581919209782 -0.020056900154906528 -0.19127208601076012
-0.16095760503308598 -0.01493882812197806 -0.17773886631566888
-0.19484329262273137 0.0118305119163215 -0.16645861278612023
-0.17291553357140843 -0.007018264901000278 -0.1868756921156109
-0.19925674834744755 0.01267129503552316 -0.16074038158494836
-0.1801463369418842 0.008348468173187955 -0.16019058834154015
-0.18889893630044285 0.009575459588211759 -0.1723737479313076
-0.16012093463437382 -0.01686724699671866 -0.17857941101629143
-0.16629095414178197 -0.028331038128691928 -0.19286908815938836
-0.18266265132920567 0.009789678681534512 -0.15759006749231225
-0.1620649401237232 -0.01099353707965018 -0.17662646483022576
-0.16574166753785435 -0.03721445478137137 -0.19335683296758538
-0.18234306612508122 0.009951117861908658 -0.15795679997045403
-0.1837723855067951 0.00697562419239877 -0.1770151169164837
-0.17864020207421605 0.00225070439640878 -0.18168365071851617
-0.16652345695988957 -0.02387517369921805 -0.19265081595022088
-0.15751132407681767 -0.0253704158180535 -0.1808620006902874
-0.15735144951836888 -0.02607023395236136 -0.18100244413453942
-0.16604730525510136 -0.025980826985198276 -0.19308704744417077
-0.16867402234570805 -0.014727440249282138 -0.1906995982988537
-0.172803730158971 0.004656228650253995 -0.16698004911977654
-0.17534074225919072 0.006721618998688443 -0.16465166817743188
-0.17799057105080907 0.0019895764476477937 -0.18226473640043145
-0.1687766019393665 0.0014132591373145417 -0.1705516786440075
-0.17381268778340642 -0.002831038605529086 -0.18606441329557305
-0.1648819450427753 -0.03759991801913382 -0.1941378922327221
-0.16481530704991643 -0.03447293914492728 -0.19420122216779595
-0.16662797370450322 -0.0008510617130577727 -0.17257120321828728
-0.17683571615712468 0.008699837554138883 -0.16324698041517144
-0.16980031171338383 -0.009504791867095248 -0.18967380236226922
-0.16804327109353367 -0.01394700683291556 -0.1912714452608288
-0.16982151606576268 0.003307673562210782 -0.16958203028280144
-0.1913443211604816 0.012988153327149136 -0.17013587664205437
-0.18130932786958043 0.006852928031128629 -0.17926480482656365
-0.16666816213624303 -0.017650303017455356 -0.1925245733125866
-0.16607259252564732 -0.0008065966480553313 -0.17309320579606896
-0.15790690520303075 -0.018063214194136874 -0.18074513088304406
-0.1764881018687946 0.002026233304184659 -0.18361409615117913
-0.17067804971234624 -0.007011320959883945 -0.18888633559781914
-0.18448679187791173 0.012770536769074185 -0.15549667786199456
-0.15635128357903783 -0.023558076989012973 -0.18198796223241692
-0.19928389826314274 0.01540416799847482 -0.1606923402412594
-0.15853083172337834 -0.015181836258727328 -0.18024023483831292
-0.18351627924935643 0.012698117125672086 -0.15661043535310631
-0.19821876326100651 0.015539649356049283 -0.16224082420904046
-0.16107270160214726 -0.00821295059855582 -0.1776710213287533
-0.15570186117188756 -0.02588715828593375 -0.1825058669908703
-0.19729727545277898 0.015484515059632047 -0.1634270609481991
-0.1770338121940357 0.0034824343806922273 -0.18312331150609856
-0.19379600921170537 0.014856043685120328 -0.1675871373279751
-0.16361072698132817 -0.00291478313143851 -0.17526998232442742
-0.1699658189107639 -0.006772038113433139 -0.18952625106412774
-0.17233860531346623 -0.0024864343517601653 -0.18740882586080437
-0.17818711736695592 0.005307439196747525 -0.18208616088468438
-0.15464946666257207 -0.03642090834315421 -0.1833758563860119
-0.18849256673352544 0.013061645854157193 -0.1727561862333477
-0.163817957430051 -0.02779253996546866 -0.19510798762876397
-0.17883348503606145 0.011724266637009366 -0.16139816354352837
-0.17393054106728856 0.0087424250728309 -0.16597669433195
-0.18716745117204014 0.01257676206890939 -0.17395398627359276
-0.15758769252793614 -0.015508529316741244 -0.1811194927557171
-0.1939199272681934 0.015478316176575406 -0.16745263944703942
-0.165018827109502 -0.019400682818251865 -0.19401842962343102
-0.16429676154153172 -0.0008217660301506682 -0.1746679307087124
-0.16315634587304417 -0.03946619905169608 -0.1956933350427807
-0.1681350324441654 -0.009398308169204013 -0.19117883454400902
-0.17154710033433263 -0.002454277645903842 -0.1881172121627987
-0.17843924501435582 0.012210223305863126 -0.16176078330118066
-0.1629758481075031 -0.03134283102687003 -0.1958599598272503
-0.15636909046666447 -0.017619904648619907 -0.18217243860799676
-0.16555543282525365 0.0015381606704413728 -0.17356341193754082
-0.16643917599217717 -0.01278152741129996 -0.1927280486686886
-0.18339568415181462 0.011135044921082242 -0.17736247788507348
-0.19582891502873723 0.016963485110443814 -0.1653155000074566
-0.1622969363023502 -0.03542908705409171 -0.19646607945997124
-0.18425804415242497 0.012438002455872281 -0.17657496641713982
-0.16019134262101475 -0.005839255225020663 -0.17861083756524926
-0.18317541518704716 0.011776301491898282 -0.17756462703782921
-0.167976111560033 0.005450758565109952 -0.17130406807500725
-0.17171849349038426 0.008971128094834073 -0.1679269285066784
-0.16228380837933842 -0.026567783724623935 -0.19648866962034112
-0.18124632576005284 0.015168461430710538 -0.1591788143976391
-0.19781588056580846 0.01847040973965524 -0.16275630007821923
-0.2016353313018543 0.018727782595795377 -0.15672757338125115
-0.15856237748162572 -0.007708456885176913 -0.18037827919561272
-0.18519365826146428 0.014139417040985806 -0.17572862516481286
-0.17219162025945012 0.010417077172440274 -0.16751412163812524
-0.16124062278764073 -0.0021075872295677825 -0.17748149345952874
-0.17403729298608128 0.004249665368241055 -0.1858584494455517
-0.15645179191129033 -0.012578305374938266 -0.18225141476232415
-0.16168808975713078 -0.0012236801498711272 -0.1770025105341137
-0.1878835264732105 0.016142609942597134 -0.17330887030202752
-0.20070312955872838 0.0194143684989631 -0.15829794715482598
-0.1797629151632053 0.010827633965653165 -0.18067123602468377
-0.1899788383533222 0.017252835858505948 -0.17138516019422417
-0.16099277177350346 -0.03894051588709952 -0.197641870485133
-0.16175212004678075 -0.02373632467921378 -0.19696663926679497
-0.16348293462292973 0.0024729999190985993 -0.17538211356241112
-0.17134447434441868 0.01080480538670419 -0.16825324903566247
-0.15787994900243107 -0.007440414797621982 -0.18107890199262505
-0.16491358020798985 -0.011125471960860507 -0.19411360333997613
-0.17644709387318913 0.014308455813568814 -0.16361213337022668
-0.1865155402709705 0.01593175851170419 -0.1745378286703289
-0.1704170260717136 0.0003540547973334626 -0.18913268159467583
-0.179253086834119 0.010903391469162686 -0.1811296404464901
-0.1681282524158222 0.008100810874146207 -0.1711610765321911
-0.17782850602166478 0.00964254461590646 -0.18240957568723565
-0.16541394629971806 -0.009503242146331088 -0.1936573893888653
-0.16248525717751805 -0.019035216938811557 -0.19630616019803887
-0.15596158841149632 -0.011282321583586948 -0.18278711150724297
-0.1779866073419315 0.0101387234813392 -0.18226744841176873
-0.17179793158070866 0.00303536974255441 -0.18789350102979546
-0.16037793496148411 -0.03591283835108878 -0.19819944213468438
-0.1657975319911701 -0.007608291279631869 -0.19330606471139794
-0.17597760298745457 0.008353653777283414 -0.1840833337171734
-0.1718915555764896 0.01197663270298837 -0.16777592013913994
-0.1792281571914417 0.016337874758881314 -0.16103515635568505
-0.1952162090827686 0.019821498025101407 -0.1660517663820446
-0.1632085744430286 -0.012918141257125156 -0.1956506879194439
-0.16544054487244908 0.006950083602112515 -0.1736642182930172
-0.16530372241036717 -0.00639494932826163 -0.1937569291456402
-0.15746176281468693 -0.00482445634539725 -0.18148685108262902
-0.16827780046956364 -0.00030404008563162527 -0.1910560787780941
-0.17050944307343785 0.0032455953246772126 -0.18905078481275445
-0.18213962057130162 0.01894137584034799 -0.15819027136403924
-0.1741876904060108 0.008333358395737393 -0.18571513007718926
-0.16051615813271825 0.0016678901797950105 -0.17825489352781182
-0.1590780768682224 -0.033531722199279086 -0.19938262413579827
-0.19449560382859532 0.02144265495602487 -0.1668243915899456
-0.1884793494035465 0.019553187716644986 -0.17275798927385216
-0.16040916779534642 -0.019461598765212314 -0.1981819481714428
-0.17429128327863042 0.016229871142548306 -0.16563773761827355
-0.15877805688874547 -0.029256132017928378 -0.1996683240993679
-0.15674065092103306 -0.0038628546112358733 -0.1822084249122799
-0.1974389109899265 0.02282059513394235 -0.16323844204980736
-0.16542921998994176 0.009304437268418057 -0.1736741573675335
-0.17874795237080876 0.01899954997364877 -0.16156481813032036
-0.19365483561055485 0.02225706301991342 -0.16772968183595544
-0.17351718285577122 0.00927582703892587 -0.1863295049532116
-0.1952278617908222 0.022655639279526456 -0.16603692482549554
-0.19087524750726048 0.02151143871609567 -0.17055252801019555
-0.1632270220805866 -0.007606383930999057 -0.19562806795675164
-0.1841409806300861 0.02119836531941293 -0.15590261529523736
-0.1897622946788532 0.021299574006241544 -0.17157418142396813
-0.1580767784406406 -0.03846841729815604 -0.20028798888761407
-0.16140776911275212 0.005184415209931119 -0.1773016215427578
-0.15788997748391453 -0.0005282429569542571 -0.18103717874128228
-0.16693912485139195 0.011592659581345303 -0.17227873812753564
-0.15842212775246922 -0.026096787821608798 -0.1999861211641491
-0.1579821113635761 -0.029472228657561557 -0.20039407025415307
-0.17793174126641575 0.014520350325745328 -0.18231687556344872
-0.16142639556424443 -0.011268940340834872 -0.1972525925501049
-0.17518436947362248 0.01824555121724008 -0.16481030593950158
-0.16175629237191502 0.00655937515560983 -0.17692916701871758
-0.1650495831062061 -0.0020805863254845305 -0.19399600337583428
-0.17023058274285618 0.015228513110321744 -0.1692251027687252
-0.18785694280164067 0.02126458607975839 -0.17331843684751397
-0.15808193424241368 -0.025477942597228305 -0.2002922506197155
-0.19505025485055272 0.02366796456639169 -0.16622938822347527
-0.2005466375638706 0.02452609263722299 -0.15856059502202874
-0.16025014260308568 -0.01373198307688834 -0.19832549105722314
-0.1854488853503925 0.02045482717816232 -0.17548443983632928
-0.16597828307645146 0.0005326303130805329 -0.19315365563470727
-0.16758483686940495 0.003502401936691983 -0.19169004868108636
-0.16198387780682866 -0.007775959145385043 -0.19674792002279168
-0.16290140190617863 0.008954140771073087 -0.17589243362981682
-0.18483036795155827 0.022879991162461026 -0.15515179048616295
-0.1822992865134937 0.022467765439194425 -0.1581559837921322
-0.1668021533776981 0.013484809029740079 -0.17240748416025048
-0.20040389934079472 0.025241765607041104 -0.15880109976369744
-0.15780314841763798 -0.02149897493060233 -0.20053612302381402
-0.19800072947041814 0.025448623526734097 -0.16251472245294457
-0.15601259508626286 -0.0006410149448692962 -0.18292059610921746
-0.15677160063283269 -0.02775790966685416 -0.20140563558179742
-0.1565116945792896 -0.031017181050139682 -0.2016149372919262
-0.18256317117707554 0.023190650571030362 -0.15789822350580102
-0.180466026454137 0.018769058812302335 -0.18003798137742882
-0.1960370097448093 0.025528672564667447 -0.16504584859449273
-0.1672274474193317 0.004791173566025479 -0.19201259921628838
-0.1850567761947376 0.02403363906208871 -0.15489896248418694
-0.17550908067719762 0.014945599663895352 -0.18451309810716515
-0.1729623232175571 0.019444617856186612 -0.16685139249402886
-0.18002358117596928 0.022928121913117154 -0.16054526578027611
-0.15793450215356175 -0.016851332556563632 -0.20042963932592278
-0.15470790901677434 -0.0015187827461540862 -0.18423940847951775
-0.20180422106282536 0.02656945906941293 -0.15644206713277703
-0.17159423270718877 0.011656943190735562 -0.18807609985906487
-0.1692704711248142 0.008817824948471768 -0.1901625902517498
-0.17200602629678075 0.01218831859890817 -0.18770734082300072
-0.1812374744703037 0.020340416062515958 -0.17932914804059868
-0.17366416790978734 0.02044320427243112 -0.1662695021494091
-0.17485076227681462 0.015292677510422452 -0.18511646102506524
-0.18035067656533543 0.02365285478894113 -0.16028646241266137
-0.15673095026509587 -0.020873632799941318 -0.20142348717290764
-0.16053165534035985 0.00902250729863046 -0.17823722075063592
-0.16045469084279362 -0.0063866046779930755 -0.1981298835142315
-0.178946450739072 0.019411745894592984 -0.18139882992345696
-0.19762317874924962 0.027308437455338223 -0.1630036891563595
-0.15505211093919102 -0.03966134465869071 -0.20277692984182244
-0.1592390988160831 -0.009252425801116244 -0.1992331356867016
-0.1568999294330341 0.004344079125565274 -0.18202596019346123
-0.19127200582520787 0.026227864850205167 -0.17018902908403283
-0.15553458073632542 -0.02328991569216849 -0.20238619159299737
-0.17645873168008153 0.023274514306229337 -0.16396390508252984
-0.18438993433015172 0.023628744710129483 -0.17644002150136834
-0.15447051861779515 -0.03166412986453177 -0.2032495350702465
-0.16155333855645482 -0.0019096998089134856 -0.19713800262052422
-0.16597265043752019 0.01681548677746652 -0.17318714271623498
-0.20201349297063176 0.02845976077381967 -0.15609004210073357
-0.17170937397973363 0.02136013232533334 -0.16808502982694512
-0.15543282070653264 -0.019983079802352206 -0.20247023414213067
-0.17697395422952 0.02428710781399606 -0.16354190419752007
-0.18434390464322392 0.0268565448409736 -0.15590642999250298
-0.17814779320256535 0.02502692066494821 -0.16245109449464684
-0.1836381856490833 0.024399045336884244 -0.17712946842748528
-0.1577091518928272 -0.009530541073638217 -0.20062347363073235
-0.15981803873078648 -0.0037474898212731048 -0.19870962809163933
-0.17376652398602788 0.02330369077984689 -0.1664724857671917
-0.17340904512898747 0.016943547356766446 -0.1864348859651745
-0.16341966429250065 0.0037925871497809724 -0.19546385716039544
-0.1627016369392139 0.0025063487178504304 -0.19611268352109795
-0.16232489088074986 0.014373067248505338 -0.17639832805234795
-0.165715888528989 0.007636878121536954 -0.19338326762754326
-0.18171405830876652 0.02397767030064462 -0.17889209698278313
-0.1636380110074741 0.00497401081387399 -0.19526479254800683
-0.15564523675935094 -0.014870998036223666 -0.20230748365957146
-0.16781666913525883 0.02006727777783273 -0.17155168067056542
-0.19654236772553746 0.02977922879521249 -0.16440053890783196
-0.1553486291457874 -0.015355852019149081 -0.2025452465875805
-0.16895808318154637 0.013145897019547208 -0.19044508646566277
-0.16569763460652653 0.01863256417576669 -0.17343859981138116
-0.18144397476212804 0.027774813998383267 -0.15953276167947655
-0.18300595918195073 0.02553886495892404 -0.1777092875106991
-0.19701999464528386 0.030331763852280362 -0.16378577660161858
-0.15562121608750645 0.006943407881897672 -0.1833048672540844
-0.1558046642829639 0.007287356484574063 -0.18312095712262993
-0.18054229059712712 0.02795544587437509 -0.16038942943651086
-0.20103637912766759 0.030916455615204556 -0.15773809562761193
-0.18778198996083562 0.02830833517376779 -0.1734055639370144
-0.15907771924035374 0.012800130475205167 -0.17978998135167962
-0.16730320492284123 0.021090987551850064 -0.17206144939500695
-0.15942694285409276 0.01342439972226022 -0.1794150979383648
-0.18469771781461064 0.02735957824055551 -0.17616649578649407
-0.1556186977912647 -0.010053094994384067 -0.2023209841116131
-0.1643786583234531 0.019206109870117886 -0.17463870953161126
-0.20023570993439976 0.031785461533707364 -0.15908879648286706
-0.16316659787194554 0.007243517268341763 -0.1956889242990673
-0.16943995693223302 0.01586515032116769 -0.1900069029195965
-0.16802920439736668 0.022887024510544522 -0.1715752543075741
-0.17645062544839207 0.023146900761765225 -0.18363898109037285
-0.17545323112504307 0.027434739697617276 -0.16525039683420067
-0.15998545327679936 0.002471092570465787 -0.19857006381589776
-0.16401425042645756 0.019885930646103604 -0.17500417541105157
-0.1663216505338413 0.013000819314163907 -0.1928404034240902
-0.1583516899635059 -0.0007524160259545012 -0.20005573938924676
-0.1896714870025379 0.030693176615875943 -0.1716760010584057
-0.17673672774331395 0.023810807097595914 -0.18337812136251336
-0.17000351884858433 0.017880770791214688 -0.1894972534044445
-0.1601582620431644 0.016515764821213468 -0.1785768033130825
-0.19262480774419133 0.03187212668721078 -0.16884577880937462
-0.17071214356915776 0.025686595070999844 -0.16930547963220482
-0.17374859788911168 0.027588013041657193 -0.16691096733648186
-0.18290606179730717 0.03113764845196603 -0.15786468099195367
-0.1933044795085651 0.032463821995896085 -0.16811596463758355
-0.157444626479314 0.013762507069748624 -0.1814270676239193
-0.15658040383355443 -0.002762880694228427 -0.20155530284482842
-0.17523679175870244 0.023685786355179532 -0.18474949012834435
-0.20302909651295964 0.03359055839840768 -0.15446596454221612
-0.15512158015267674 -0.0057651964538872405 -0.20272040973741418
-0.1611569229652149 0.007257405150574429 -0.1975052268369854
-0.16341018715398137 0.010962340462845548 -0.1954717249735058
-0.17193670609490697 0.0212812753802955 -0.1877548457248867
-0.15902783015267674 0.0035149785167395906 -0.19943711768228417
-0.17546807268159215 0.029370817769211514 -0.16535457085210686
-0.19088883736626927 0.03263932787243722 -0.17055366049844628
-0.17374376991288487 0.028524342406433804 -0.16696769605714684
-0.19986347892777745 0.03419381700817941 -0.15971798311311608
-0.1562980715324146 0.013525846827667935 -0.18254767964918023
-0.16615022757546727 0.015440854657334073 -0.19299351285535699
-0.18745419421689336 0.03177115641896127 -0.17369513820249444
-0.17750860789315526 0.02660179458920358 -0.18268536637861138
-0.1554619524766666 -0.0029094485157311126 -0.20245217393476372
-0.15441972055928532 -0.005211350094634311 -0.20328693698484307
-0.1728291664411289 0.028861466277283414 -0.16774118553239709
-0.19892129340665166 0.03491780482594369 -0.16130707274515038
-0.17507183590428654 0.030023995268982633 -0.16578902910787469
-0.16826395729081456 0.026196184981507047 -0.17163514207441216
-0.19595938959615056 0.034898999560517056 -0.16514534364778405
-0.18991622367398564 0.03349879704777597 -0.17144472013551598
-0.1718060676147205 0.02278876625363229 -0.1878725797994793
-0.15977303722398106 0.007201615203064664 -0.19875531505185967
-0.18293938079373662 0.030751589167755826 -0.1777676106556118
-0.1671354029466373 0.018001499999207242 -0.19209214161474114
-0.1678124223043186 0.026381674636048062 -0.17209761451322442
-0.17337791660325352 0.024450782168549283 -0.18645540486413842
-0.1564356390525562 0.015511933196228726 -0.1823714436157406
-0.1917929355193836 0.034389648068588956 -0.1697192252739132
-0.1596762839843494 0.019574436772507413 -0.17912656675416833
-0.1620658639957172 0.011777433980149014 -0.1966863484247387
-0.16335591712491337 0.02357653104130624 -0.17589232932168847
-0.16796721556680028 0.019784245122116788 -0.19133206318456536
-0.2016987804462177 0.036125275719803555 -0.15662266920644646
-0.1816872362186176 0.030955019820374234 -0.17891418050367242
-0.19820731916920964 0.03613725625340341 -0.16225775192815667
-0.17988009789483372 0.029998842108887418 -0.18055821071702843
-0.18355181851880376 0.034466597664993985 -0.1571701974733532
-0.18695575037495915 0.03364372574154733 -0.17413622747499352
-0.17617480495469395 0.032119217742127164 -0.1648216606243313
-0.18986293712155644 0.03478196584050058 -0.17148940871793633
-0.18495389857785527 0.03306657396618722 -0.17593326281148797
-0.1730602089454395 0.02553999744717477 -0.18675040315229302
-0.16444858947293584 0.016565832722824796 -0.19453453134137993
-0.16135755219952885 0.012363615859192593 -0.19732620428640252
-0.18487864771382634 0.03551373206440805 -0.15554586659509545
-0.17884726861016575 0.03424498759571908 -0.1624260158403576
-0.15518359878556554 0.002139005292099698 -0.20267694305021172
-0.15495134928719823 0.016328516829651578 -0.18376394222814446
-0.19567535856263463 0.03751656733815072 -0.16550824652749901
-0.17119762340085332 0.025348726142090543 -0.18842368434507256
-0.15594182947175328 0.004490289319199307 -0.20206310461599236
-0.15750974455373112 0.020217600691956265 -0.1811894835098446
-0.18179100790517155 0.03575697861973642 -0.1594159216745556
-0.15931898394124333 0.010928932059448941 -0.1991701633794964
-0.2027201656390888 0.0380032094604194 -0.1549540520771206
-0.16307623723046605 0.025985810387772305 -0.17615488778192406
-0.15572439172761265 0.005064848292511685 -0.20223588358003503
-0.18543332853810612 0.03530308924977182 -0.17549832771856194
-0.16895441749589268 0.024318072426956876 -0.19043569873411065
-0.17150850632684056 0.026835564006012662 -0.18814956258375054
-0.17906630077855412 0.03587186657254098 -0.16236535321313744
-0.17822244802014653 0.03213012539212106 -0.18204577873784905
-0.1842828992892963 0.035529408085983975 -0.17653550814229851
-0.19264440277116124 0.03851035558049081 -0.16882677982885247
-0.16911286154286687 0.025312397111099942 -0.19029372047025567
-0.19461101332204167 0.039021614421051724 -0.1667060018642605
-0.1581874940683109 0.023072156537216885 -0.1805277676447094
-0.17338369825379674 0.029296878207367642 -0.18646287034589654
-0.19378981032864873 0.038990202773255093 -0.16759138415891534
-0.16818401256100957 0.024712893593949063 -0.19113670896131402
-0.15968927779691044 0.02488503180806039 -0.17910104106504326
-0.20295324960248295 0.039674255479019864 -0.15458584438402062
-0.16027732232110325 0.015286001790207608 -0.19830170880395775
-0.16888470986382786 0.03218689881626962 -0.17138855765897637
-0.1988150779296619 0.040005687106293424 -0.1614770651920498
-0.15908429065244023 0.024555626738709195 -0.17967117439348107
-0.1997122470428211 0.040154937136811 -0.15997253964979058
-0.18127054014699284 0.03794330679242013 -0.16005084525186425
-0.16670618989960972 0.031057778227967008 -0.17344049225885277
-0.16254346111314122 0.02818185411755441 -0.17657226930696374
-0.1863401834060413 0.037702355015915616 -0.17468377064306145
-0.18199861088292424 0.03849435173336862 -0.1592289419038952
-0.18230855503575627 0.036192777980011685 -0.17834497104722863
-0.17425359824197117 0.03597387992207406 -0.16692527245122796
-0.1801797304441196 0.035506668914002164 -0.18028925965864068
-0.15865896680848424 0.014646682370346768 -0.1997747034891308
-0.16667492726342503 0.024971488345307095 -0.19251080463964348
-0.17891705074803654 0.03484732233349679 -0.18142243336278802
-0.16502556243436162 0.030988368619126065 -0.17478959868986016
-0.18825210669534032 0.03928354703251718 -0.17296870659429436
-0.15433019438283269 0.008074704039734586 -0.203358343349284
-0.16206042507188145 0.020165476430100186 -0.19667877863485222
-0.20190250912205998 0.04179099522892831 -0.15627897392351037
-0.15902024546162907 0.026838663447540982 -0.17972188304502373
-0.18768692055241887 0.039714727032822354 -0.1734781921966732
-0.1717643890668613 0.03619116865460275 -0.16919901083547478
-0.188467011242078 0.040200683701676114 -0.17277384410936242
-0.15479315855996434 0.022853586304825528 -0.18361648033697014
-0.17568793931500737 0.03429755889241098 -0.1843390674455822
-0.15582919159428898 0.024461779225510343 -0.1826329738958538
-0.18071809449689213 0.03770646773640512 -0.17980273674566155
-0.15849368312852208 0.027624044049423917 -0.18019633601743584
-0.15860237219827 0.017764333117645963 -0.1998184831007183
-0.18332180419461552 0.041567239392441495 -0.15760455142099267
-0.19756588378445927 0.043277237046402676 -0.1630830974443615
-0.1703380797197086 0.03680199705426095 -0.17050216208536034
-0.17795425692097966 0.040259632695358975 -0.1636082292659939
-0.17609335520760838 0.09206742369000315 -0.16528362642366295
-0.17079228201405827 0.044630888331574185 -0.18879785250265008
-0.1856397692252857 0.09001064621273874 -0.15448088060457116
-0.16254040637509648 0.0720075698978126 -0.17664763938028222
-0.17315550187127415 0.03702548466984628 -0.1866533369882763
-0.1739575866748554 0.06536072813336252 -0.16726881872255212
-0.1825240556289417 0.04726192675892709 -0.17814653228361016
-0.17239183226125065 0.04323530517880319 -0.18736583601076012
-0.18325759509103123 0.08775493823353647 -0.15765795718271142
-0.15656381884114567 0.08074489556614756 -0.20155574987966424
-0.17783312538163487 0.092885467637223 -0.16366059194642907
-0.18029356041447941 0.09454009257618784 -0.16111925850946313
-0.17454218903081242 0.0781534644252479 -0.16674113880235558
-0.1566623304177982 0.06971454941098093 -0.1815939457281292
-0.16020111778275792 0.03455740534130929 -0.17873794447023278
-0.16170263329045598 0.09537172638241648 -0.17699437450010186
-0.19826664069192235 0.07019794308010935 -0.16218096624452477
-0.16061356702344243 0.0241368445045173 -0.1979860277040661
-0.17012731769578282 0.09555438481633066 -0.18938817690450555
-0.1852211956073505 0.0566874774581611 -0.15510355542737847
-0.16988356450097386 0.03539964877430795 -0.1896067769392193
-0.18044969478146855 0.08168539725605845 -0.16095618020135766
-0.16036091783540074 0.0748967858440101 -0.19822446118432885
-0.18208456078069035 0.053056571114701016 -0.15917400132257348
-0.17227199712292973 0.08317849360768198 -0.18745904277402764
-0.1778788421441776 0.0748798283225715 -0.18235405396062737
-0.16170263329045598 0.09537172638241648 -0.17699437450010186
-0.16094662287728612 0.06371826254193186 -0.177933281765765
-0.17336504199998204 0.03949329577748178 -0.16780625890333062
-0.17012731769578282 0.09555438481633066 -0.18938817690450555
-0.17657828369633977 0.10676774703328012 -0.1648432077034176
-0.163047790913747 0.10577279650036692 -0.19579412649709588
-0.16328010001675908 0.09425065242115854 -0.17574212561685448
-0.17369054296510045 0.07800269447628855 -0.1861723424061001
-0.17089863160149876 0.03247252427403329 -0.18870051811773186
-0.1819974932958347 0.059807065356415494 -0.17862998555738335
-0.1852211956073505 0.0566874774581611 -0.15510355542737847
-0.16845610776440922 0.09868753277127146 -0.19090076397497063
-0.1894360188533527 0.10103747569386362 -0.1718890876634777
-0.16211085060136143 0.025463226664704068 -0.19663395594198113
-0.18925465682046239 0.10683250747982859 -0.1720487536056698
-0.1996756795932514 0.06045678578678964 -0.1600320548875988
-0.2002080235769016 0.04641753755871652 -0.15913363407689934
-0.1763076786090595 0.04462606035534738 -0.1651084334715069
-0.1870176348973972 0.055466059077423795 -0.17408268760282403
-0.17089863160149876 0.03247252427403329 -0.18870051811773186
-0.20162726977364842 0.08319580875698923 -0.1567395390136898
-0.1553708765794498 0.0519855948573768 -0.18268012116987115
-0.15770421960847203 0.06880429707829355 -0.18066988001901513
-0.17789077797429387 0.07341870986286997 -0.16360739480096703
-0.16573192217843358 0.043925616372269376 -0.1933764130933941
-0.19300088325040166 0.08941364609066843 -0.16844046722490197
-0.17187763789193455 0.05313268624607919 -0.18781051646310692
-0.19214838781850163 0.08557921968762278 -0.16935246299344903
-0.1588254276801807 0.1002629729396522 -0.19961979101735955
-0.18388325014607732 0.051520082581681 -0.17690188299257165
-0.17313717344300572 0.10853454791371225 -0.16787057231504326
-0.1604608003188831 0.07760775410000681 -0.1981281847818554
-0.19625684657590214 0.05919674359623788 -0.16476844857770806
-0.17004740276830022 0.07694012247387766 -0.18945818255979424
-0.18441002109544102 0.08485138737027048 -0.15617129813272362
-0.19721305408971135 0.10709664546315073 -0.16353206943113213
-0.17625796833531682 0.04296273313824533 -0.18381748210031396
-0.1650878194858295 0.10563531838719248 -0.19395833324033623
-0.16933590212361638 0.05771476351086496 -0.17124935101110345
-0.18274994233147923 0.06503627024952768 -0.15831255029279595
-0.18533489146725957 0.046524915326279385 -0.17559175799924737
-0.16102121809022252 0.03381699644390939 -0.17800942669946557
-0.1813665334274036 0.04354510032002328 -0.16002217541772729
