ply
format ascii 1.0
element vertex 720
property float x
property float y
property float z
element face 0
property list uchar int vertex_indices
end_header
-0.1824416820098621 0.31845259987179636 0.18758846212785835
-0.16251824834840123 0.3209828170425117 0.17826218296449775
-0.16737505832211796 0.29312426172558664 0.1932725696698963
-0.2011269185830814 0.33561605535809397 0.16672564436357612
-0.15654817262189213 0.32671904884640574 0.21059695769708747
-0.1758053455640537 0.287333789694947 0.16385746885698432
-0.1645627472688419 0.3396014007217109 0.18540523339670295
-0.1779725853492481 0.3091701301223457 0.18712894011896247
-0.18942844906346623 0.2960070403701484 0.16949755836885566
-0.1657301787425739 0.33611554228131174 0.19962529231470222
-0.1910137239982349 0.32716179214779734 0.1792541532651722
-0.21251125672356908 0.3129229577666938 0.15153706957262153
-0.1557177160073978 0.28248888574902414 0.18461341549318427
-0.2117531303455097 0.33188540064160227 0.15455941249292487
-0.16097773650185887 0.2845569285041511 0.1986916451589405
-0.20420926847951237 0.3186714681274116 0.16609118272226447
-0.1869500581313831 0.33773339115445017 0.15680078555505866
-0.196181118874715 0.32877630316082834 0.1737677245275318
-0.1811923984576923 0.335107329714936 0.16045192767542
-0.18760696092145268 0.3380358847266853 0.1572100310460865
-0.1772384200383884 0.3091223271972358 0.1880436926023304
-0.19172573128239934 0.32359940134350657 0.14626256514948005
-0.20810943880574528 0.3173407348281562 0.16014570881288642
-0.15449252763287846 0.3149063619262397 0.18553698946397895
-0.1644804332544071 0.3401875527984321 0.18830762196939582
-0.19919249454037968 0.31561154447857737 0.1710942773954212
-0.1953751150657398 0.339188459742707 0.1651799767152607
-0.15449278095261876 0.328304293978852 0.21246806670587653
-0.1548533443500263 0.2941663297301948 0.18526501346986884
-0.20512047448651616 0.31433517061535715 0.16422409702699775
-0.1620637033273441 0.3184120091087043 0.20641801644724006
-0.1666444692899448 0.33353126369778513 0.20099250365656013
-0.16528859773175542 0.27536326967541574 0.19512040306490058
-0.18932086267964665 0.2983140977508247 0.17000693966310615
-0.16740344503419224 0.3094546230918586 0.19779966164987678
-0.20581053236024205 0.3375841411239326 0.1591839580671131
-0.18934455552594487 0.2839477690345466 0.1693649976388752
-0.18838289418713872 0.3301991256362617 0.1500679342881977
-0.1587910805036289 0.3346951635963142 0.20770607282083625
-0.179153308658765 0.30337572418515085 0.16054568578165168
-0.18085001447694127 0.30940103851620554 0.18417928506296272
-0.16270414033429448 0.3230890067702949 0.1779474406377613
-0.16636309066312138 0.3392558129913032 0.18213937570016975
-0.19912186303632085 0.3234234484321296 0.17161808301370735
-0.19211515822903935 0.3284717234260261 0.14586348225038642
-0.1907032434035999 0.32185054146115183 0.17972607304018134
-0.1659752581407291 0.32058108173672556 0.2030249028341114
-0.16279426255719487 0.31495565496746897 0.17800883342187995
-0.2097769979526264 0.307036462653321 0.15073502947252387
-0.1641485992957813 0.281296614039582 0.17646885801714057
-0.1941255781938297 0.3308525713569343 0.17523075033586616
-0.15528799632088963 0.3354756864196479 0.1874757199422657
-0.17661251166360203 0.3199458750373542 0.19304195929926032
-0.21048912444608037 0.3369127544051826 0.15373311330240363
-0.17301090100304906 0.3211343916541755 0.16676453639429206
-0.17593701222436253 0.3364629777557075 0.16726643730562324
-0.1787572953988773 0.3031907709724128 0.1609309702054798
-0.1622157845784885 0.3254357608443916 0.20643816281717414
-0.17783705928819005 0.3369337948447883 0.18816570331018562
-0.18494892159001652 0.28526938282315134 0.1743371873037159
-0.17274710574643437 0.2960828574783027 0.16707805682581062
-0.15438720622556035 0.32073003374401926 0.21203009177606696
-0.1956090334941608 0.30429971538845896 0.16498435427110786
-0.19522146919267003 0.32496863924328684 0.17537228156488532
-0.2146672610332233 0.31547063909832834 0.1487459926740467
-0.19572269955174748 0.33815658413235544 0.16952956606310005
-0.19040742555157963 0.3375685843116462 0.15312338758867378
-0.17769464889066044 0.3403732808715522 0.17809934307497138
-0.16513595023648564 0.30589342438046335 0.17539162327211494
-0.17533758321301762 0.3055539163238227 0.18772066522997016
-0.18399390616910283 0.32479328237835764 0.1549258320466816
-0.17957469859616582 0.3174538644439399 0.160111853374654
-0.19541728535191838 0.29422605358425974 0.16272349049013252
-0.16796456316010777 0.32187521778408884 0.20117292691629524
-0.1641747359325153 0.3376618655807197 0.17953423549097175
-0.2107924971868259 0.3381974133140266 0.14968926597993965
-0.18209578135506932 0.2972011002189338 0.15774128724496955
-0.15689091423051182 0.314477446902436 0.2093502669469654
-0.19023716488377873 0.30448967539135813 0.17114509035509223
-0.17141644695298497 0.30683321081463694 0.1685061543123066
-0.19551567771928136 0.3243895801192939 0.17503724385660285
-0.16067560055749242 0.3388937743789375 0.18604279447954292
-0.1823453012992603 0.2995652588493049 0.1575035541192829
-0.18668745496766392 0.32587319933239817 0.15190560509126777
-0.17829215565221135 0.2869019540435493 0.18167678405206794
-0.20172047653691594 0.328639987338227 0.16864774514597053
-0.19457688966290776 0.3373659285194099 0.1705393879548847
-0.17138887980477635 0.28132707201306223 0.16853723813455695
-0.17039638796346013 0.3347849281913459 0.19692323495309944
-0.21456813850896184 0.3197274240142524 0.1506974189416706
-0.1577209983159763 0.2978315981513679 0.201001563562566
-0.1816213432838184 0.29739070259396433 0.1781828789846241
-0.17764200308816258 0.33186388336483835 0.16270891715448493
-0.16141235867039982 0.3119343551284492 0.17958007146280403
-0.18652856388585393 0.3404852779990852 0.16827032853525276
-0.17049177029626195 0.2983806761390388 0.16954941440981025
-0.16271029451386754 0.26143420063320993 0.17810429026048774
-0.16559571066396062 0.3387433322555244 0.18061865259569282
-0.1648654792596561 0.2817364963180244 0.17567936469476814
-0.19955301323430363 0.33472478710476755 0.16907114674013252
-0.1786885116388065 0.3148945006019294 0.1894382922784626
-0.17244243660466496 0.2943195732719123 0.18814040113847846
-0.16211210229890172 0.29359555565182566 0.19794885207574958
-0.19399297276036565 0.33976483665768503 0.16369975496690864
-0.1948168281604511 0.33689326368634104 0.14637036014955634
-0.16791974046723668 0.3143541844970405 0.20045862485330695
-0.1838769618560535 0.2969930800086677 0.15599895407121772
-0.1749026183177692 0.2962914141303718 0.18548870970171089
-0.18856930771367375 0.3162201079017341 0.15086127211015815
-0.1833763722469074 0.3340137632972419 0.18452198196809882
-0.18532642760770146 0.3211388023978889 0.1538904099599659
-0.16306646206872288 0.2596617969161689 0.17769927669923896
-0.15926520565049473 0.30797857366864084 0.20363996316354865
-0.2069388035823566 0.3384701641685188 0.154629835380727
-0.18191874065892522 0.2813264163619697 0.15791452814500923
-0.20332378187672917 0.2832896741515815 0.15396506477754707
-0.17573769429223363 0.3395949038154304 0.17363459755342597
-0.18919852414624516 0.2949386867171943 0.1504159956113636
-0.21033051648633305 0.3344066175109565 0.15520838786523933
-0.18126207628743474 0.2911540301925361 0.17830450226228828
-0.18777486720578496 0.2888698013908088 0.17108736325662727
-0.16382603385941807 0.3351288469916999 0.17876107384126777
-0.16507610717313115 0.30830848537747263 0.19904879619043464
-0.19327050486104314 0.34000718914334177 0.15916500379007453
-0.16723586657540623 0.33754909359280466 0.17645151306551093
-0.18598094621198002 0.284174028266114 0.17314974357050056
-0.16683916786210362 0.28780520283047556 0.17357999969881172
-0.19299936333195988 0.3281132610923469 0.1771707027093708
-0.20612281599538151 0.3394885095245063 0.1513482122556507
-0.19144046345250432 0.3379434975272834 0.15252814580362434
-0.18533185163037602 0.3392480643874824 0.1761280088559925
-0.19307020345227544 0.2894545229560554 0.1653053848878681
-0.19237700143353764 0.33812558971707224 0.15225685526292915
-0.21014261284367863 0.29475981317822336 0.14599219848077888
-0.19597268143193547 0.3142355712539375 0.17231849719446296
-0.18196539619462315 0.32247978769604563 0.15746400643747444
-0.1806765351583225 0.314739111293 0.15907920290392036
-0.1585655663301212 0.31910175405804514 0.1822325079576313
-0.19374951758878056 0.2689888509399116 0.16451249410074348
-0.19339552560345952 0.3278896840697944 0.17683050919931526
-0.20579141417043034 0.2853257092124641 0.15148130942743415
-0.15716581085221593 0.2836341889983833 0.2014019279615223
-0.1957606677104694 0.2981091173774421 0.16273263980310554
-0.1629613343765003 0.31758380256955027 0.17781851579111213
-0.1553992185880405 0.3392846616393745 0.19340331245821113
-0.18081185260312382 0.32326597296063303 0.18919236351411933
-0.16948983111874882 0.31278920494381784 0.17067975689333076
-0.1571484659005863 0.3142311009055793 0.2091703205243885
-0.2129357759048206 0.3382837804443061 0.14576504517953986
-0.16494753995435063 0.33839637361828684 0.19842264939706916
-0.18635241725938145 0.30865675531689524 0.1535469679967701
-0.16997081079976384 0.3249304326659858 0.1994734792844593
-0.17340272703664128 0.3382409843093574 0.17095012356203193
-0.19283571877972905 0.3042160304671943 0.14591673900049323
-0.17328524628178898 0.28140932642285227 0.1870087473527729
-0.17512890735165898 0.3189822467452705 0.16454405476015205
-0.1724251661588413 0.3254761131889045 0.19717023660104865
-0.1821716133643848 0.30289393984143137 0.15766952325265998
-0.21221604981915776 0.3162738712913215 0.1544312327043354
-0.18321682551400487 0.3091904553062141 0.15665749598901862
-0.17034859993951146 0.33943105064694284 0.1883345632688343
-0.1875138882686359 0.33868646942440866 0.1764881699220478
-0.18645849862592045 0.31875759683911203 0.18376705933969611
-0.18385702410237614 0.3123901518470466 0.18364823748033637
-0.157956660180257 0.3055667909270942 0.20322886992853278
-0.2109351609040958 0.326554182398957 0.15670774270456428
-0.1739435497810108 0.32454955898587107 0.16567326475542182
-0.18444629052178685 0.26443869196240305 0.15516591955583686
-0.17336808183686558 0.3123667272216499 0.19350496817987556
-0.19054783919350926 0.31860912166897654 0.17988766123216743
-0.18555313387410466 0.2902140649444282 0.17364332963388557
-0.17571561077134434 0.3372402223235786 0.19031755019586677
-0.1565644744922382 0.30461991154019236 0.20330397178094978
-0.17140446641938512 0.2753596933967292 0.1685196845666706
-0.15913197436826054 0.3106904061919868 0.2055038600103199
-0.1994007233669025 0.31566918217007517 0.17073009301584358
-0.17210753300683324 0.30032402597729563 0.167758235229665
-0.19909139016167943 0.3315258654243171 0.17060763527315254
-0.15567599275605504 0.3399557503349006 0.1964224367276966
-0.1755258444835407 0.30684000574414133 0.16413457085054511
-0.15506245234505955 0.3366366060859382 0.18825424600999946
-0.16287761965291325 0.31959289633099436 0.2059751539365589
-0.15640015938775365 0.33892172895733713 0.20392463494699592
-0.1981669370223743 0.297205034125489 0.15994817902010078
-0.18779772558705632 0.2715915473586738 0.1517480700151264
-0.1834471080590946 0.33979124151532053 0.16726125170152778
-0.19186674097077672 0.2893793614989936 0.16669992495935554
-0.1670254472781879 0.2796218427306831 0.17338184405725593
-0.16376653352277104 0.29884803615872263 0.1769033162729084
-0.1992048327018482 0.2943605812675178 0.15870980311792487
-0.20671981611745183 0.3349515827781379 0.16078359772127265
-0.16611023285882298 0.2975535424834907 0.19459251452844734
-0.18703372815148656 0.3397501739150703 0.1717235534326374
-0.15718631485001866 0.33042806707684397 0.1840030341283619
-0.21507188716428105 0.31845236145321726 0.14951858807962531
-0.17435687819020573 0.30085170589749216 0.18698153783243293
-0.19090437927739445 0.33756363712612986 0.17557449032228584
-0.2051855329562885 0.29407322727505564 0.1522184400693714
-0.17617428341405217 0.33930045687023996 0.18453035642068977
-0.17935714164273564 0.326504829753083 0.15994940091531867
-0.16825848856465642 0.33190650068585276 0.17285213757913703
-0.18537581005589787 0.3392734559661567 0.17594874788683051
-0.18826434054868046 0.3084102305061042 0.15145082165163154
-0.18313178458707158 0.28388762794796824 0.15674675394456977
-0.17609480062024419 0.2857228549606025 0.1635705022947132
-0.16778519788281743 0.2905589374190986 0.17257372428339118
-0.16403543987767522 0.29884875141445993 0.17659754444521064
-0.18020117321507756 0.3399072917586982 0.1779624312059223
-0.16995723584191624 0.3402901919967353 0.18426377464693183
-0.15491271057622258 0.28502035461727976 0.20286331464212531
-0.16732682326333348 0.32657510362927317 0.20180497456949348
-0.2088362578441364 0.28205633484188913 0.14783755828302497
-0.162150636701749 0.33707362734143137 0.20418296147745246
-0.18908487298981969 0.3399416836387336 0.16851521421831245
-0.16184833684460942 0.3379653128272712 0.18315244604509467
-0.17039608994023625 0.30071002565686106 0.16965735842149848
-0.15893377402322117 0.28246659361187815 0.1819030730859577
-0.18051306942002598 0.28288150154415964 0.17913103987138862
-0.1736291501809818 0.31256807171170115 0.16613996912401313
-0.17702110150353734 0.3119584950095832 0.16265220333498115
-0.20338004866139714 0.33846760116879343 0.15886894751947517
-0.15446150341527287 0.3384080561286628 0.19009334732454414
-0.16253450551526372 0.3306844862586677 0.20585475255411262
-0.1667718742181522 0.3343604239112556 0.17487935115259284
-0.16029331126706425 0.2916567953712165 0.18068904568117256
-0.16046114304559056 0.31276548229519724 0.2059482722417652
-0.1583054069568378 0.33935112081829905 0.19067893315713996
-0.18063321748273198 0.28948170267407297 0.17899436642091865
-0.16036604383485142 0.3024465473777473 0.19970879842203254
-0.1879595819999439 0.3030290635711372 0.17284528304498786
-0.1849986020614368 0.2963768871909797 0.1745006530420124
-0.1943415854264957 0.34013146482769846 0.1612795381681263
-0.1793051365901691 0.31381535850827097 0.18802047659319038
-0.18532455006139104 0.3364362748748481 0.15617466856401557
-0.17299373486535374 0.33584398351971506 0.16881583024423713
-0.15550988951222722 0.31909513794247507 0.18477074195306892
-0.16229531207578007 0.3286879690772712 0.20643863965433235
-0.20667997041241948 0.2914716037398994 0.15044612575929756
-0.1579067859937412 0.29327440582577585 0.20085541297357673
-0.20245449283616368 0.33892554365460276 0.15759531546991462
-0.18303254285352055 0.3220315011626899 0.1870368211404621
-0.21131238379971806 0.3199819954520881 0.15615559507768745
-0.17628420928017918 0.33741319500271677 0.1899626641408741
-0.20044426658646886 0.3385856779700935 0.1620298712388813
-0.1873923245956165 0.32518029533688425 0.1510672955648243
-0.1826558116962177 0.3211935790664375 0.1873921542302906
-0.16798768976228062 0.2879147561675727 0.19261274625223274
-0.18999511042134587 0.3230977090484321 0.14830432225626106
-0.17718702593343083 0.31313455425564646 0.16248757530611152
-0.21624214985863988 0.31761074386898874 0.14684964109819526
-0.16494481304185216 0.3106262119895637 0.17559496451776618
-0.20815449991719548 0.3316401871329963 0.15980745245378608
-0.2110175643254978 0.3192924889213264 0.15663782645624275
-0.1698926542093021 0.30257231317822336 0.19197593022745246
-0.15462453701989476 0.31642759167019724 0.1854375689164936
-0.1569747779657108 0.33823651396099924 0.18746686865251655
-0.2101458314944965 0.322254124510926 0.15804354239862556
-0.16696961262719456 0.3267591031676948 0.2021289854184925
-0.16623988786237065 0.32054287515942453 0.20276437093179817
-0.16698086300389592 0.2906359466201484 0.1935968785421192
-0.18858259954945866 0.290211203921479 0.15109212089937324
-0.185042739300893 0.3183733256942451 0.15452031184595222
-0.173929497986005 0.32160729490582346 0.16577712584894294
-0.21343818345563237 0.3100701602584541 0.1471535055772602
-0.18238037863271062 0.3399480613357246 0.17548481513422126
-0.17845563629166905 0.2930131586677253 0.18158564855020637
-0.210236192135976 0.32458353363339304 0.15787515927713508
-0.1588218066980106 0.30659634195629953 0.18200308967989082
-0.1942696873237354 0.30940294586483835 0.1701771109239399
-0.15997223594682042 0.32368588768307566 0.18084643174570197
-0.19723537602917973 0.2744869025832832 0.16065494109552497
-0.17799927332894627 0.3265132936126411 0.16138131309908027
-0.19287902155415837 0.3379105957633674 0.17208258201044196
-0.1717144999791843 0.33177131735150217 0.19656733561914558
-0.16688871422307316 0.29699415289227366 0.19379005719583625
-0.18460825124280278 0.3316231998092353 0.1546760885850727
-0.16215533056752507 0.32889980398480295 0.17858765412729377
-0.19809593298928563 0.338575187552613 0.14686302234094734
-0.18497170546548192 0.30559575878445505 0.15490854669969673
-0.19149151483075444 0.26775473676983713 0.14729852367799873
-0.18741351404683415 0.3267915876990974 0.18276441980760688
-0.20447421112553898 0.33452809177700876 0.1629935889379322
-0.18400336840646092 0.3044540914184272 0.17753551293771858
-0.20262852349774663 0.32683211885754465 0.16810847212236518
-0.1564857516576511 0.2795248659736335 0.20184210826318855
-0.20071283021466557 0.320103827346009 0.1699377982751667
-0.1679494831849796 0.3084158929473579 0.17239893366258735
-0.17586584427850072 0.2900393637305915 0.18422199179094428
-0.17071123459832493 0.3082661660796821 0.19387415934961433
-0.18735520580308263 0.30159819446865915 0.15243444730203742
-0.156911299019025 0.3342536123878181 0.210406282438451
-0.17652016916768376 0.3271476062423408 0.19308696080606574
-0.16492623129384343 0.30383789860073923 0.19694516946237678
-0.17021897473828618 0.28936040722195505 0.1698571531907856
-0.17547306457059209 0.2808548244125068 0.1846276610032856
-0.1559042636443836 0.31111479126278757 0.20824448157709236
-0.17507013717191044 0.3387173446304023 0.17031551290910835
-0.19796261230008427 0.32725209318463205 0.17245701838892097
-0.20783066788213078 0.33422220074002146 0.15966273237627143
-0.18876025119321171 0.32743567549054026 0.1495575993196308
-0.19264939466016118 0.329797271121186 0.1770515232221424
-0.16657461264626805 0.33942139469448923 0.19247193027895088
-0.19578352609174077 0.3117444547301948 0.1713452129499256
-0.18857440391080205 0.3211430939323127 0.18178428102892036
-0.20780123808877293 0.33702862583462595 0.15731448818605537
-0.18499726095692937 0.3161498936301887 0.1848885207311451
-0.1896031204749805 0.32256377064053415 0.1488487212793171
-0.1886983070661289 0.31433326326672434 0.17958469082277412
-0.1866429153968555 0.294286492694062 0.17253352095049018
-0.15860366859929387 0.3178072603828132 0.18219847370546455
-0.16755938568608586 0.30248391949002146 0.172813931001836
-0.17724269667165105 0.2912232907897651 0.18284536291521186
-0.18726909199254338 0.3358799847251594 0.17922858287256355
-0.1631885174800617 0.2996178897506416 0.17756054688852424
-0.16864356437222783 0.2847734125739753 0.17163456369798774
-0.16618029811875645 0.3279536994582832 0.17425055195253486
-0.15575586298005406 0.30975169264141916 0.20741526175897712
-0.19197513201730076 0.27234089695279 0.14696405221384162
-0.1559403095533115 0.30012053572003244 0.18444559861581916
-0.17841236331956212 0.3343737753516853 0.1628521173135578
-0.15473386683957402 0.31985932909314035 0.18535382439058418
-0.20357516446606938 0.32043624244992136 0.1669889478818714
-0.1878306869556171 0.3401830228454292 0.16472719003122444
-0.2075482312728626 0.324696067202729 0.1625195830003559
-0.17448575833337132 0.283768001425904 0.16522897173326606
-0.16550706365601842 0.27546644531552195 0.19492185999315376
-0.1781098995496494 0.2946044834739387 0.16157276321809882
-0.16161170640485112 0.3315728338844001 0.17940110851686591
-0.19676160851018254 0.337417903769654 0.16943312574785346
-0.1576764587451679 0.2946403058654487 0.20100680877130622
-0.21232292094724003 0.30863851629559397 0.14798120547693366
-0.19215512314336125 0.28351360880200266 0.14678991724413032
-0.19788798728482548 0.2924265297538459 0.16005317260187263
-0.15687722006337468 0.3389399679786384 0.2034649639264881
-0.16697952189938847 0.33109104954068064 0.20121113349359626
-0.16826392748849217 0.3258391650802314 0.17192465950410957
-0.16815117040173833 0.3399754198676765 0.18742890049379463
-0.20699594953553502 0.3126565250045478 0.15920559455316657
-0.1886670593311054 0.3319271834975898 0.1499240486757099
-0.1580331776429874 0.33837408148114084 0.20446059991281623
-0.15858247914807622 0.3394866617805183 0.2001380710737049
-0.1577815417339069 0.26187759958569407 0.18293205787103767
-0.17799040713803593 0.3278616102821052 0.19153735925119514
-0.18200151660935704 0.3022048505431831 0.17917747188966865
-0.1555099640180332 0.29385203443829416 0.2024116306440174
-0.20419314542310063 0.33989656292263865 0.1504193930761158
-0.1569011662294132 0.3108153971320808 0.20756826688211555
-0.17481128910081212 0.33129442058865427 0.16543296863000984
-0.1854963604499561 0.3267774613982856 0.18463505197923774
-0.15436026492612187 0.30129206501309275 0.20368019629877204
-0.18564516344563786 0.3261959584838569 0.15308923412721748
-0.19144699016110722 0.3083967002517402 0.17340452362459297
-0.2073142234374744 0.3295629056579292 0.1617445438043415
-0.20247714260117833 0.3395183714515388 0.1492836861745655
-0.19480246344106023 0.30363411032025217 0.16540394116800422
-0.2039018426229221 0.31691927038494944 0.1663076667920887
-0.1727310720969898 0.2925096186286628 0.1877339272634327
-0.15607842841641728 0.3130070599204719 0.20946208526056403
-0.17273938694493596 0.3273454936629951 0.16697166253488654
-0.1763810668279392 0.28043663822476267 0.16328672458093757
-0.19104146996037785 0.3008727463370979 0.16888184238832588
-0.16939364412324254 0.2821350725776374 0.19120333482187385
-0.19982859530942265 0.3071987661010444 0.16238627721231574
-0.15818816462056462 0.3372002276069343 0.18478880216043586
-0.1671482626487476 0.32504558883969187 0.17313505102556342
-0.18045915701882664 0.28519237362210154 0.17919302870195503
-0.2131372694064838 0.3246064218169868 0.1533766477243244
-0.1941253546764118 0.3120586308128059 0.17221490432184333
-0.15978206732766453 0.3259922894126594 0.20794079591196174
-0.18958991804616276 0.277454856265229 0.1500410823957264
-0.17848910429971043 0.3401473792678535 0.17308104921739692
-0.18194454947011296 0.3292791875487983 0.1873543350831806
-0.1828442666818363 0.2980221542007148 0.15702781964700813
-0.16422814169423405 0.31265354477230906 0.2019178061620533
-0.18687558212773625 0.33909708582226633 0.16205740858476753
-0.16997972169415776 0.3128942283279121 0.19746641208093757
-0.16173176506058995 0.3304348024017036 0.1791572361127674
-0.16062980928914372 0.33383566461865305 0.18097997595232124
-0.19150307813184086 0.3048216136581123 0.1476091234819233
-0.18671762981908147 0.311093452799958 0.15315643836420173
-0.15880428293244664 0.3210179837829292 0.20819685746591682
-0.16194081345097844 0.3250522645599067 0.17873374511163825
-0.17854301670090977 0.30599224888150095 0.1611434011594593
-0.1860001091052753 0.32918489300076365 0.15291825820367927
-0.15958008208768193 0.28089320980374216 0.19968340684335822
-0.1635169390727741 0.3182408841735542 0.20517198134821052
-0.16423369982735936 0.3239860566741645 0.20484051991861457
-0.18021819034116093 0.305083874095124 0.15953109551828498
-0.2176260355998737 0.3241450222617805 0.1459635882512867
-0.21216112413899724 0.3086434634811103 0.1482792883054554
-0.20414435902135197 0.328684571612519 0.1660106866494953
-0.1694903526593906 0.3322607310897529 0.1715525775090992
-0.180211276202367 0.3371464642173469 0.16221398998659248
-0.16725060382382695 0.3392202290183723 0.19279260326784248
-0.18975217679040257 0.27797806583706736 0.16893393684785957
-0.160253242044614 0.2996834548598945 0.18072486807268257
-0.17638778725163762 0.3153586419707954 0.1632796614305317
-0.18041914740102116 0.3190737398750007 0.18948681045930976
-0.17165137866036717 0.29719126545254587 0.16824338723581428
-0.17742584684388463 0.33346051298443674 0.1635247259275257
-0.21150040665166203 0.3250268133765876 0.155873754514867
-0.17066231408612553 0.3089172276145637 0.1693569808141529
-0.17337255218522374 0.32594472490612864 0.16624499250810737
-0.20176255741612736 0.28041440569226145 0.15562660385530586
-0.18320405521886174 0.31720304809872507 0.1565393595830738
-0.1584607217599613 0.2867091330177009 0.1823255210058033
-0.20309618154065434 0.3398118647224128 0.15290979434412116
-0.156199247031377 0.2815001042968452 0.18425042320650215
-0.17741273382203404 0.30070108496014475 0.16226390887659187
-0.199656278281377 0.2792982491141975 0.15803868462007636
-0.18867325821416203 0.2919964822417915 0.15099258114259834
-0.18904644289510075 0.3086270722037971 0.1757974116937458
-0.16542443671719853 0.3273609908706367 0.20354483415048713
-0.2077477876235706 0.3147935303336799 0.158917286886388
-0.1908626411248905 0.30339563213650583 0.1697343378202259
-0.18484225907819096 0.2730624111777961 0.17445085336130256
-0.18829244413869206 0.3332214983588874 0.15162322808664436
-0.1938748810579044 0.33732319198910593 0.14751470972459907
-0.1723173562576038 0.3354643615371406 0.19386366893213386
-0.20087203422086064 0.31543207489315866 0.16786099363725776
-0.19667723813550297 0.33914912067715525 0.16367314149301643
-0.18233215847508732 0.33081466280285715 0.15757218886774177
-0.15617279747025792 0.3199096354133308 0.18426863242548103
-0.1872821454097492 0.29137504421536325 0.17169339348238105
-0.16557377615468327 0.31117904506985544 0.20007840682428474
-0.20104277172581975 0.31141609274212717 0.16424582292001838
-0.17150618174569432 0.31809324346844553 0.1684041409627735
-0.2082324627925617 0.3383352192527473 0.15352193404596443
-0.1812391284991962 0.3332968982345283 0.187055030359441
-0.20703631678120915 0.32883316599194407 0.16239354897897834
-0.1615950469066364 0.2951848539001167 0.19833532859247321
-0.18211466112630192 0.29228455148999094 0.17742435027521247
-0.1980262700607044 0.30516583048169016 0.16315192867677802
-0.19184446373479191 0.30684507213894724 0.1471828310624897
-0.18633282223241154 0.31846177898709177 0.18382970382135505
-0.19430857935445134 0.2956358226424873 0.1640619425908863
-0.16454538741605107 0.32819259487454294 0.17602256823938484
-0.18747729101674382 0.27752489172284006 0.17142824222009773
-0.20877042451398198 0.30516225420300364 0.15100277353685493
-0.2009614709903461 0.2978763612395942 0.1569227962629139
-0.20774012842671696 0.31936931930844187 0.16178772736948127
-0.20986643472211186 0.31318372808758616 0.15552700449388618
-0.1934081617881519 0.3196199568397224 0.1771499006883442
-0.15976001360909764 0.33005339227978586 0.18132693458955879
-0.16069051661984746 0.3398140700942695 0.19634340096872444
-0.2157325152446491 0.32433569752041697 0.14903075386446113
-0.160855368166135 0.3105503352767646 0.180187114967519
-0.17867656090752904 0.3334429892188728 0.18946427990358466
-0.17051944175259892 0.2938386829978645 0.16951815177362556
-0.16969026663796727 0.3395748170501411 0.1881005852357685
-0.16490179338948552 0.30223185144726633 0.1756407110826313
-0.17369627991216008 0.33528966032330393 0.16782809187334174
-0.21459785142438237 0.31795901380841135 0.1501635997430622
-0.18366006055371586 0.2871521743423164 0.17570812393587226
-0.1559570435573322 0.330005589354676 0.1849245517389118
-0.18932816424863164 0.3404964240676582 0.16520742465417976
-0.15710245111481969 0.3035952480918586 0.2023024349347889
-0.19092737176911656 0.313218000758332 0.17797786880891914
-0.1867904368926746 0.3309025200492561 0.18228639055650825
-0.16745896676080052 0.31532556139294504 0.17292032529276008
-0.1935721639682514 0.3381400140411079 0.15068087865274543
-0.17175537386433903 0.3400523694640815 0.1841194718019306
-0.20632234254376713 0.3061239155418098 0.15431458641450996
-0.18893486300008122 0.3354967864638984 0.1527779190675556
-0.16662566402451817 0.3202166589385688 0.17379547048967475
-0.17734313049809758 0.32267564855877756 0.19243130971353645
-0.19032180347935979 0.33832854353253244 0.15538600970667
-0.16085977890984837 0.33949137054745554 0.19764540482919807
-0.17866765001313512 0.34002465330426096 0.17890275408189887
-0.1863477233936054 0.31740916096035837 0.18322376300256843
-0.19197596648232762 0.3220528396255195 0.17853201319139594
-0.19932089784638707 0.31831819139782785 0.1711965291635334
-0.19193632939355199 0.3057925137168586 0.14706201244752998
-0.18381249943272893 0.2793672116882026 0.1560699432031452
-0.1852248612930042 0.2760689290649116 0.15466401864450569
-0.1746980104734165 0.27735585295025705 0.18542830039423103
-0.1939627830077869 0.2977967294341743 0.16466344286363715
-0.17835520246522252 0.2962724598533332 0.1818122952119648
-0.17943844237820927 0.3389126690513313 0.18361164022844428
-0.17147529163853947 0.3389080198890388 0.17547441412370796
-0.18770021238820378 0.31502324663464426 0.15188486267488593
-0.18092608490483586 0.3220068844443977 0.15863571454446906
-0.18085897007481877 0.29790705763165354 0.15892005850237007
-0.17013999858395878 0.3403646381980598 0.18323431302469367
-0.19260424414174382 0.29645985685650705 0.14621151377122993
-0.1781736020137531 0.33985638939206003 0.17206970740717048
-0.17293284872071568 0.3193351062423408 0.16687960316103095
-0.18239572682874028 0.3123450907355964 0.1574563174382984
-0.18146255651013676 0.3247628840095222 0.1885636537210285
-0.20345853307740513 0.3317540320045173 0.16600421954553718
-0.1982999447871906 0.26915240608517527 0.15953413535516853
-0.17146739402310673 0.3378866943008125 0.19227121163766975
-0.2078344825793964 0.32791358553234934 0.1614052145616352
-0.20909488239781682 0.28968912683789133 0.1475313394204914
-0.20565092602269475 0.3119234474784553 0.16034592081468696
-0.16732767262952153 0.2974818977004707 0.1934615461961567
-0.18007738926904027 0.3348971041328132 0.18703890730302924
-0.1963577125360233 0.3402628930694282 0.1574771492616474
-0.15634158292310063 0.290571573603791 0.18414313484590644
-0.21402484217183415 0.3138852747565925 0.14921895553033943
-0.20066741147534672 0.3024014266616523 0.1582740037576496
-0.17998352685468022 0.31948590599362253 0.1596695869104206
-0.17773115673558537 0.32306605898205637 0.19208953668039436
-0.17991933265225712 0.29903835378949045 0.18042240430276985
-0.1861152056743366 0.33230758034054636 0.18257872153680915
-0.18244211414353673 0.3392654689437568 0.17898387600343818
-0.1758588854362232 0.29501974903408884 0.1638044505254566
-0.16287343242661778 0.3205301793700874 0.2060001282827198
-0.1758152399350864 0.32442772709195017 0.16370848704736823
-0.1801805202056629 0.32944578253094553 0.1889899759427845
-0.16563142874734227 0.31638306700055 0.17486406256120796
-0.17152719238297764 0.327214959490937 0.1977952509061634
-0.15587852933900181 0.3113438519126594 0.18449217964571113
-0.21579781213300053 0.33049327455822824 0.14841932941835517
-0.21152974703805272 0.31631905161206125 0.15578291703622932
-0.16011501887337987 0.2842077048904121 0.18084824968736762
-0.16237609127061192 0.2837273510581672 0.17848429967325324
-0.20265008547799412 0.29478991352383493 0.15482387830179328
-0.18457821050183598 0.2688912185317695 0.1551622240678608
-0.15955370703236882 0.30034911953274607 0.1998687176839649
-0.19107028880612675 0.32873773895565866 0.14700106669824714
-0.204751253514455 0.3203116687423408 0.16561869670312995
-0.16098886766927067 0.31105739198986887 0.2040789513723194
-0.17272800245778386 0.32839143596951365 0.1672033159868061
-0.18626442590253178 0.3368637593871772 0.17940587688844795
-0.18135172167317692 0.3180988463050544 0.1882670014039814
-0.20358532705800358 0.30029738270108103 0.15482814003389472
-0.17274296322362248 0.32307118498150705 0.19681052256982917
-0.1673800353099567 0.3326702746040046 0.17389667917650337
-0.17544096746938054 0.3079149159080207 0.1891614585058033
-0.19806806781785313 0.3120600017196357 0.16934082795541877
-0.1734472219039661 0.3328042658454597 0.16725251962106819
-0.17655234077470128 0.31762111507717966 0.19311509419839973
-0.18409489133851353 0.30218649231259226 0.15578238059442634
-0.18175660112397496 0.32631111465756296 0.15740028907220954
-0.21632719078557316 0.31985205732647776 0.1477527408735096
-0.17846621611611668 0.3141809733993232 0.1612136452333271
-0.20303514638440434 0.3209236892348945 0.16756243397157783
-0.16178186276452367 0.3063218029624641 0.1791598885194599
-0.18766000905530278 0.31937277637783884 0.1826372234956562
-0.2056902948905689 0.28168934904400705 0.15158239890497321
-0.1717767719318134 0.2818708451873481 0.16811005164545173
-0.19820250609414403 0.3296788962966621 0.17176560450952644
-0.1682423059035999 0.3318782480842292 0.19985441256921882
-0.15536014774339024 0.32469445787732004 0.18478272248666877
-0.18392363229291264 0.33293831669155954 0.1564059345857441
-0.1614850763370258 0.29068965040509104 0.17949734021585578
-0.17122229972379033 0.31584889017407297 0.19679693271082038
-0.173278406648801 0.30713469110791086 0.1665130047933399
-0.18120467701451604 0.2982960971481025 0.178863713039571
-0.15561065116422002 0.32508391462628244 0.21179793168466682
-0.17503668406503026 0.31243217312161325 0.1921749203340351
-0.1991619173576099 0.3392087849265754 0.14941439916055793
-0.20260840693013493 0.3332295449859321 0.16656879474084968
-0.18939381876485173 0.3000438841468513 0.15020052482050056
-0.2040379349281055 0.3025853069907844 0.15486509491365547
-0.18892276325719182 0.3353148730880439 0.1781082837716877
-0.19057032504575078 0.33833259664837717 0.15515817095201606
-0.18457183280484502 0.339943173754853 0.16677663613718147
-0.18335051873223607 0.31579792820279 0.18670169402521247
-0.16471044757859532 0.3002744945174873 0.17584426094453925
-0.18341249266164128 0.2849524649268806 0.17597089101236457
-0.1618929509212238 0.3067345055228889 0.20085845281046028
-0.16506706216828648 0.3249864610320747 0.17534051228922004
-0.20261707940594975 0.3076281579620063 0.16007823635500068
-0.18685677686230961 0.3002349170333564 0.17306093264978523
-0.17988988795773808 0.30695116840664743 0.18341482569139594
-0.15974612572686497 0.34005326353375315 0.1925799040929615
-0.2132022086669666 0.3361204894668281 0.15114561606805915
-0.2081179026653034 0.30019539915387033 0.14973835040491218
-0.17440477052228276 0.31142199360195993 0.1653151302472889
-0.1697909239818317 0.3391909035331428 0.17857623983781928
-0.16913370826737706 0.33733254991833567 0.17518208314340705
-0.18966525831715886 0.27968466602627634 0.16902581740778083
-0.20589944758908574 0.31122720562283396 0.15898669649522895
-0.16429451146619145 0.3346669705993354 0.2030818252698719
-0.18773303964631383 0.3142679365760505 0.15190700580042
-0.1791736338426334 0.3264539273864448 0.19073597480219
-0.1953375641395313 0.3157848151809394 0.17336333681505317
-0.1637460742284519 0.3358541163093269 0.20309142161768073
-0.1560522321750385 0.33454197965924143 0.2113542347089588
-0.1803941432525379 0.3291385205871284 0.15935538102548713
-0.17711377182500188 0.33939612232510447 0.17110750962656135
-0.21504773238198582 0.33053106390301584 0.14955745030801887
-0.18211385646359746 0.30319673143689035 0.17932609607141609
-0.17955371776120488 0.32561338268582224 0.1597962765828907
-0.18202167788045232 0.3387694986945808 0.18168736387651557
-0.1813280288268787 0.3032130631095588 0.1801430373327076
-0.15878774264352147 0.3203077348357856 0.18201650072496528
-0.18481096663968388 0.33794123255078196 0.15988529611986274
-0.1967965964366657 0.30017292820279 0.16227100182932014
-0.16308009663121525 0.33958334051434397 0.18686521936815376
-0.16895031967656438 0.33695698105160593 0.1972887902395069
-0.18374508657948796 0.2773966225272834 0.17561701823633308
-0.16498461404340092 0.3046127589828193 0.1972791342870533
-0.20632404127614323 0.3307474287635505 0.1627239971296131
-0.20422306695477788 0.3024879726058662 0.15463111688058967
-0.1918369684507114 0.31491935573880075 0.17854730178278083
-0.18614634910123173 0.2951484950668037 0.15373823930185432
-0.208064139275716 0.3119730981475532 0.15649924565713996
-0.19220793285863225 0.3169774445182502 0.14636544276636237
-0.189171761660741 0.3059487374908149 0.1737147061960041
-0.18401682415501897 0.3082755836135566 0.18104270984094734
-0.2042612735320789 0.3069604667312324 0.15837312628191108
-0.21505667307870213 0.3263761433250129 0.15014583755891914
-0.15661139824883763 0.3316503795272529 0.18478933860223884
-0.2064643655111057 0.315218094218415 0.16248984028261299
-0.19857037106053654 0.31037563406292795 0.16629252721231574
-0.184971481948064 0.33380031906430124 0.1549175470010578
-0.17043095865742985 0.3305393489486396 0.19807682324808235
-0.18698529937760655 0.3027638229018867 0.15283975888651008
-0.19862550535695378 0.3389925392753303 0.1620937972204029
-0.16178216078774754 0.3169859679824531 0.17915956069391364
-0.17944313624398534 0.30890548549954294 0.1849989085332691
-0.16980414131181065 0.303205314505738 0.19217328120630378
-0.18692860045926396 0.29738897405926584 0.17234978963297004
-0.1847004596282703 0.32077366434399485 0.154664733900243
-0.2053320709754688 0.3102790745383918 0.1586719541684925
-0.16256521680848424 0.3158150943404853 0.20541290332239265
-0.20588776507870976 0.29217607103649973 0.1514080255166828
-0.18439525404469792 0.2967252167350471 0.17517093707483405
-0.18035370150105778 0.3394134672767341 0.168213078273946
-0.16524925866620366 0.2730222972518623 0.17527113248270149
-0.15521812477605168 0.2898390921241462 0.20267144729059333
-0.1733801368762714 0.2972422870284736 0.18720413137834663
-0.17423990407483403 0.32956683956448435 0.19468713690202827
-0.1716428551961643 0.3155089648849189 0.1682520299093067
-0.17690214553372685 0.3230235608703315 0.16265488554399604
-0.1695707742263538 0.33975512110058664 0.18724448372285957
-0.17146757283704106 0.3355910214072883 0.17069424082201118
-0.1669096801568729 0.29262703977887033 0.1936974315778553
-0.18226468601720158 0.2909017237312019 0.15758112956445808
-0.17087622025506322 0.3361057075149238 0.19565669585626716
-0.16609823742406193 0.30041790329281687 0.1951702623502552
-0.1775196496535999 0.3387464316970527 0.16798383881013984
-0.17411078551308934 0.27718609892193674 0.18607128549974555
-0.15530400016801182 0.32187909208599924 0.2114969282285511
-0.20506911018388096 0.3241956862098396 0.16559765626352424
-0.1726317558576328 0.3158664735442817 0.19543189693849677
-0.18797978797452275 0.3045271071082771 0.1735257892743885
-0.2123031322051746 0.3383134039527595 0.1466821818486988
-0.18579629102246586 0.33442789636914133 0.18218390036981696
-0.16312556007401768 0.2918518217689216 0.1776320724622547
-0.15585379341142003 0.33159625850979685 0.21089641143243903
-0.18339023032681767 0.32055545173947214 0.15610618282716865
-0.1799136106063587 0.3337413700706184 0.16084105659883613
-0.19830563703076665 0.33916825376812815 0.1615498154298603
-0.17134170272843663 0.3212409647590339 0.16855133463304633
-0.15529093184964482 0.314480903971833 0.21089909364145393
-0.21307824590699498 0.32922488771740793 0.15293575216692085
-0.18089482226865117 0.3119795950538337 0.18593607236307258
-0.15912547746198002 0.3269637855178535 0.1814923374788105
-0.17329409757153813 0.2891214522010505 0.18699885298174018
-0.16388486364381138 0.3075618775970161 0.17676878858965034
-0.1665236506749851 0.3181540998107612 0.1739147691861927
-0.16298063138024632 0.3161285551673591 0.1777967898980915
-0.1570462439347965 0.32104057394329905 0.18354610492151374
-0.1769458804418308 0.26047993027035593 0.16272673894327278
-0.18488085308568303 0.2927581699973762 0.15499935437601203
-0.1982774142314655 0.32634115539852976 0.1723513393537342
-0.17629693487183873 0.3128939303046882 0.19128570844095344
-0.17727056184308354 0.32895213686291574 0.19197569180887336
-0.17471428254144017 0.2983039053565681 0.18598941852014655
-0.21724586227433507 0.3267869981414497 0.14653379608553047
-0.16002927759187047 0.3268639477378547 0.2079125433103382
-0.15688560941712681 0.31044727884594797 0.18373210121553535
-0.1756464693834049 0.3305318387633979 0.16445440937440986
-0.1682931933690769 0.3076897891647041 0.17202989150446052
-0.1782484058429462 0.27947444044415354 0.18172670294206733
-0.20209033825890843 0.28628588043515085 0.1552520184652149
-0.164346442012952 0.3394541176444709 0.19439540196817512
-0.19260400572316472 0.3183536561614692 0.1779350726739704
-0.170167073993848 0.3179920347816169 0.19903067637842292
-0.17513935306565587 0.25959241710965036 0.18497238446634406
-0.16531756558911626 0.336079123843354 0.20006314803522224
-0.1608173106004459 0.33505273186032175 0.2057252316610157
-0.21342051067845647 0.33312768064801096 0.1517539410726368
-0.1728613529493076 0.32088536344830393 0.1966193704740345
-0.16363254228131596 0.32613647304837107 0.20549569417398567
-0.18341743984715764 0.33604306303326487 0.18338097025316352
-0.17751646080510441 0.2988912495261848 0.18315500904482002
-0.18415814676778142 0.32557142101590036 0.18601630021494026
-0.21479956844346348 0.3341365488654792 0.14935333420198554
-0.19783075192467992 0.33405608259503244 0.17051608253877754
-0.19343470075623814 0.3110808762199104 0.17255536605280036
-0.15642200449006383 0.3338243397361457 0.18550310422342414
-0.1824416820098621 0.31845259987179636 0.18758846212785835
-0.16251824834840123 0.3209828170425117 0.17826218296449775
-0.16737505832211796 0.29312426172558664 0.1932725696698963
-0.2011269185830814 0.33561605535809397 0.16672564436357612
-0.15654817262189213 0.32671904884640574 0.21059695769708747
-0.1758053455640537 0.287333789694947 0.16385746885698432
-0.1645627472688419 0.3396014007217109 0.18540523339670295
-0.1779725853492481 0.3091701301223457 0.18712894011896247
-0.18942844906346623 0.2960070403701484 0.16949755836885566
-0.1657301787425739 0.33611554228131174 0.19962529231470222
-0.16535081007973973 0.27760166250531076 0.1751630990640461
-0.1910137239982349 0.32716179214779734 0.1792541532651722
-0.21251125672356908 0.3129229577666938 0.15153706957262153
-0.2117531303455097 0.33188540064160227 0.15455941249292487
-0.16097773650185887 0.2845569285041511 0.1986916451589405
-0.20420926847951237 0.3186714681274116 0.16609118272226447
-0.1869500581313831 0.33773339115445017 0.15680078555505866
-0.196181118874715 0.32877630316082834 0.1737677245275318
-0.1811923984576923 0.335107329714936 0.16045192767542
-0.18760696092145268 0.3380358847266853 0.1572100310460865
-0.1772384200383884 0.3091223271972358 0.1880436926023304
-0.19172573128239934 0.32359940134350657 0.14626256514948005
-0.20810943880574528 0.3173407348281562 0.16014570881288642
-0.15449252763287846 0.3149063619262397 0.18553698946397895
-0.1644804332544071 0.3401875527984321 0.18830762196939582
-0.19919249454037968 0.31561154447857737 0.1710942773954212
-0.1953751150657398 0.339188459742707 0.1651799767152607
-0.15449278095261876 0.328304293978852 0.21246806670587653
-0.1548533443500263 0.2941663297301948 0.18526501346986884
-0.20512047448651616 0.31433517061535715 0.16422409702699775
-0.1666444692899448 0.33353126369778513 0.20099250365656013
-0.18932086267964665 0.2983140977508247 0.17000693966310615
-0.16740344503419224 0.3094546230918586 0.19779966164987678
-0.18431168833272282 0.28816438041989206 0.15556866814058418
