ply
format ascii 1.0
element vertex 181
property float x
property float y
property float z
element face 0
property list uchar int vertex_indices
end_header
0.2222015856613872 0.3102132510805526 -0.03623575607730581
0.17774945486686206 0.30748127218727256 -0.11170116702510549
0.22216325987479663 0.3055840563440719 -0.0439930621762438
0.2229570149292705 0.30912826773170615 -0.03217510024501516
0.2171935438027141 0.3129012417459884 -0.03285709659053518
0.19570040691993212 0.30945066925529624 -0.08394537011577322
0.2063399552216289 0.3052516412401595 -0.03227741161777212
0.18593746412894702 0.3087009024286666 -0.13014795521690084
0.19689732779166674 0.30786786791328574 -0.07585734764529897
0.18905335653922534 0.307040913071672 -0.12318681816055013
0.2225190996041057 0.310608549084703 -0.02816907206966115
0.21934568871161914 0.3117642831468978 -0.039483076729313865
0.20933920134208178 0.3105118703508773 -0.07832793036891653
0.18943834293982958 0.3112878632212081 -0.11531961599780752
0.19541978825232958 0.3074937891626754 -0.11418280641032888
0.17941176880500292 0.3052437138224044 -0.10521853605701162
0.21945542086265063 0.3118796181345382 -0.026069796480671894
0.1934404372086284 0.31178520437721396 -0.09565431515170766
0.20404112328193164 0.3036429714823165 -0.04149178306056692
0.18527257431647753 0.3064784240389266 -0.0966673556943102
0.20743429649970507 0.31249491688255454 -0.05559203664256765
0.19974178064963793 0.30921809193138267 -0.06404254476024343
0.16427916277549243 0.31193272587303306 -0.1425471667428179
0.18099784840247607 0.31292937513832236 -0.11990143994285299
0.20926636446616625 0.3115620445871749 -0.04619959632350637
0.21724480379722094 0.3123838138246932 -0.017197645105855
0.20220130671164965 0.31176511761192466 -0.06992576161815359
0.22336083639762377 0.30515853878502036 -0.04005793372585012
0.19119578589103198 0.3114965986872115 -0.09235588351680471
0.2126888035645244 0.31220714565757895 -0.03980097810222341
0.20512914646766162 0.31276087280754233 -0.06126896182491018
0.21985405672690844 0.3085705470705428 -0.046247101225392356
0.20417428005835986 0.30450723883155967 -0.041286981501118675
0.19447642553946948 0.3112258147859969 -0.0875106219430132
0.21854853619239306 0.3112418484354415 -0.04374993483020498
0.19961172331473803 0.3037413191461959 -0.10614595452739431
0.2029210327973125 0.30875865932945395 -0.05352467934085561
0.20143210877082324 0.3113387655878463 -0.07860300580455495
0.2149912117829082 0.31244037863258506 -0.01704595128490163
0.20216232527396655 0.31157479998115684 -0.07645041386081411
0.19013977039954638 0.31292865988258506 -0.10694248119785024
0.20290273417136645 0.3085105847978988 -0.0982898835320635
0.1828407048096416 0.3113048505449691 -0.1060335997719927
0.16391235579154467 0.307173593010942 -0.15440646449519826
0.20370900620124316 0.3102892470026412 -0.09599546233607961
0.21515554178855395 0.31098495241645957 -0.05299813190890981
0.20985275496146655 0.31163511988166953 -0.07038781682445241
0.1600242256035564 0.30647735115532065 -0.1360435400386019
0.21171170462272143 0.3061625790262618 -0.0805046621937914
0.1995233892311809 0.30626426455024863 -0.059344834484593406
0.2027081250061748 0.30517600294593955 -0.04938173929645254
0.21033310879371142 0.31100611206535483 -0.026987767614857685
0.22323441494605517 0.30899433609489585 -0.016860342421071064
0.22343230236670947 0.3088418078089156 -0.02845591942264272
0.2103852628578899 0.3118170928621688 -0.0397094551701708
0.19335359324119067 0.30836097713951255 -0.08679283300830556
0.22456103552482104 0.30546741005424644 -0.032903290190236106
0.18638402212760424 0.31213567968849326 -0.10403845349742605
0.20877623547217822 0.30679075237754966 -0.08494634071780874
0.21701824654242968 0.3129886817598739 -0.03398800531818105
0.19607090939185595 0.30931399580482627 -0.08227897325946523
0.20900046814582324 0.30852983709816123 -0.020435250200764667
0.21158397186896777 0.31206326004509116 -0.054910993971364036
0.21145415295264697 0.3116788100862899 -0.04874945322467519
0.22380816925666308 0.30417202230934287 -0.039352870382802024
0.1993420122971294 0.306853814091722 -0.060935891069905296
0.19537377346656298 0.30619273897651816 -0.0770910743851824
0.20045477141044116 0.3066252898836532 -0.056356853642003074
0.1832802890648601 0.3123301100397506 -0.11756247917606069
0.19786256540915942 0.3044620585108199 -0.06311026851131155
0.17939352978370166 0.30768285509590293 -0.10794881621791555
0.16773772228858447 0.31181280132774497 -0.13482422272159292
0.2073758839478252 0.3038798999452987 -0.016427791513936054
0.20967060316703295 0.310483558144609 -0.0235474769253893
0.2144377826561687 0.3123002481127181 -0.04060540238811208
0.21554446209571337 0.3129694294596114 -0.023291683592335712
0.1981285213341472 0.3071169089937606 -0.10736647883845998
0.21950060118339038 0.30547581430915977 -0.050517893232838645
0.20491999376914477 0.30771593567375327 -0.0469237033505602
0.1994262932648418 0.3108274173403182 -0.09873176256610586
0.19993978727958178 0.3100232910776534 -0.06548968593074514
0.22586399305961108 0.30460856672767783 -0.01967278758479787
0.17472136009833789 0.3119395804071822 -0.12433557847930624
0.2022837995400188 0.31088517424110557 -0.057683712639348045
0.18291568745276904 0.311612172093431 -0.11437184254123403
0.20977288473746752 0.31150530096534873 -0.07153678575946523
0.1819787024368999 0.3062977027559676 -0.10080427566959096
0.21854376782081103 0.3120210599565902 -0.039294159807698265
0.19686776388785815 0.30727974888328696 -0.07267752925349905
0.2078822850098369 0.308338029351274 -0.03214866558505727
0.20179700840613818 0.31143061634544517 -0.06432068983508779
0.22505462158820605 0.3059366178179183 -0.01978114882899953
0.20191305864951586 0.30577371832374717 -0.05293390790416433
0.20651686180732226 0.31310985800270225 -0.06879920402957632
0.20905321825644946 0.30935160633567954 -0.024317866959111225
0.2018625735153911 0.3115046453142562 -0.07672167459918691
0.21740347136161303 0.3087146711016097 -0.049686676659123435
0.17563092697761035 0.31002686735633994 -0.14068405965758993
0.1894949673523662 0.30804805275444175 -0.08981511632396413
0.2053992747177837 0.3032937478685775 -0.034267819323079124
0.20679086435935473 0.30468116518501426 -0.02667362133456899
0.17756634939811206 0.31130228754524375 -0.11605299154712392
0.19397485245368457 0.30365691896919395 -0.07789126674129201
0.19827425469062304 0.3068430256510177 -0.10724843183948232
0.1893087028374431 0.30906383511070395 -0.12041684130622579
0.2050853370537517 0.3049695920610824 -0.037283218302266136
0.21363908041617846 0.30960468765739585 -0.06657392422153188
0.21399056900641894 0.3104348015451827 -0.06126556436015798
0.2136891483177898 0.3105971645975509 -0.06338245312167837
0.20277142513892626 0.3116801809931197 -0.08803493420077993
0.20030218351981616 0.3115870189333358 -0.08351544181300832
0.1996655463089702 0.31179497953895713 -0.09025344888164236
0.22017198790214038 0.3041692208910384 -0.04916653672649099
0.21739053715369677 0.30519346710685874 -0.05764097610904409
0.19182515133521533 0.3126151394510665 -0.10042891541911794
0.2101926802506206 0.3115610909128585 -0.044229096569554344
0.19215393055579638 0.3050973844194808 -0.11915393809272481
0.16209161270759082 0.30681155439857627 -0.15703446308566762
0.22558671225211596 0.30466233011726523 -0.025796032347218525
0.21754127730033374 0.3127282690668502 -0.03024158517314626
0.22080427397391772 0.31141440388206626 -0.03126863280727102
0.21018648136756396 0.3122818898821273 -0.06262267271472646
0.1987192629685161 0.3110740613603988 -0.10028070846988393
0.1959409712662456 0.31043956991676475 -0.10932395497752859
0.2257288097252605 0.3034656476641097 -0.02742386499835683
0.20859301079413867 0.3106816243791976 -0.03821987549258901
0.20739734161994433 0.306415421929399 -0.08964911738826467
0.20783424366614794 0.30785791393760825 -0.029725945391194355
0.2198681830277202 0.31138948914055015 -0.01837516466571523
0.20344507683417773 0.30755899664405967 -0.09849811235858633
0.21228027332923388 0.31122843739036704 -0.0652349952836199
0.2178739308228252 0.3124698233271041 -0.02370706836177541
0.214433193098521 0.31184629913810874 -0.04891929665996267
0.21324145783088183 0.3104181718492904 -0.06742975751353933
0.20847100008628344 0.3114300202989974 -0.04341009894801809
0.20743459452292895 0.30471996780876304 -0.09087438026858999
0.2159796356072185 0.3118529152536788 -0.045192337431447044
0.21483296145102954 0.31290493723396445 -0.032849258579747215
0.21581119288108325 0.31114820953849937 -0.04999709764911367
0.19574701775214648 0.3123622965479293 -0.10113022366954519
0.19401299942634082 0.3115581106806197 -0.10794324318362905
0.18902742851874804 0.3112983536386886 -0.09531286994411184
0.21277612436912036 0.31217829700950767 -0.0318833951134844
0.20364660013816333 0.31221054312233115 -0.06689486543132497
0.20163691033027148 0.3100665044451156 -0.056851840414540306
0.18450188625953173 0.3066525888109603 -0.09784207383586599
0.18104803551337695 0.3103577923441329 -0.10831010977222158
0.22344958771369433 0.3062737416887679 -0.03839433828784658
0.20548647631309008 0.3073534798288741 -0.043465054430501
0.16568678606650805 0.3119253945017257 -0.14312031010581686
0.1642332075943706 0.31067471024040366 -0.13301835099651052
0.19134485710761523 0.3098622989321151 -0.11541820208026601
0.20834761847159838 0.3100102376604476 -0.034416115679280296
0.2134137152542827 0.3034596871996322 -0.07765025536014272
0.19597238291404223 0.30751810785774375 -0.11336583534671499
0.2126098870148418 0.30663619753364707 -0.07789087931110097
0.18924146879813647 0.31142101999763633 -0.11621449033214284
0.21599942434928393 0.31328056570533896 -0.029775089420811664
0.20768523205420947 0.31034676548484946 -0.08137772122813894
0.21288394917151904 0.3124981355333724 -0.03740922252132131
0.2222015856613872 0.3102132510805526 -0.03623575607730581
0.17774945486686206 0.30748127218727256 -0.11170116702510549
0.22216325987479663 0.3055840563440719 -0.0439930621762438
0.2229570149292705 0.30912826773170615 -0.03217510024501516
0.19406402100226855 0.30617295023445273 -0.08098754922343923
0.2171935438027141 0.3129012417459884 -0.03285709659053518
0.19534146774909472 0.30553178307060386 -0.07499215642406179
0.19166541088721728 0.311759455170671 -0.09396169225169851
0.19570040691993212 0.30945066925529624 -0.08394537011577322
0.2063399552216289 0.3052516412401595 -0.03227741161777212
0.1765853165497539 0.3106794786119857 -0.11573535839511587
0.18905335653922534 0.307040913071672 -0.12318681816055013
0.2225190996041057 0.310608549084703 -0.02816907206966115
0.21934568871161914 0.3117642831468978 -0.039483076729313865
0.20933920134208178 0.3105118703508773 -0.07832793036891653
0.19541978825232958 0.3074937891626754 -0.11418280641032888
0.17941176880500292 0.3052437138224044 -0.10521853605701162
0.20646941651008105 0.30513439890388633 -0.09363005200816824
0.21945542086265063 0.3118796181345382 -0.026069796480671894
0.2032458185066936 0.3047389816904464 -0.09973380605174734
0.1934404372086284 0.31178520437721396 -0.09565431515170766
