ply
format ascii 1.0
element vertex 219
property float x
property float y
property float z
element face 0
property list uchar int vertex_indices
end_header
0.19512289751670336 0.3113919925356307 0.09901967009113596
0.16852307308814501 0.31154720303062583 0.13917645176456736
0.1805414556374309 0.3127019238138595 0.12500973900364207
0.22310221184394335 0.30918465372566367 -0.015672094025151264
0.16597092140815234 0.311831099953691 0.13373967369602488
0.1826822756638286 0.31126259085182334 0.1133093174319105
0.19065153587958789 0.3130203914308944 0.10589151938961314
0.1658731697907207 0.3115892243051925 0.13738169630573557
0.19420599926612353 0.30820695873741294 0.11350362857387827
0.1977688669075725 0.31246195551399375 0.09175434073017405
0.2013510464539287 0.31149338003639365 0.08136140664623545
0.16225767124793505 0.30669586178306724 0.15540912111805247
0.17699664820334887 0.31215362068657065 0.12631823977039622
0.2082870601525066 0.3092504572534957 0.083582543931468
0.1676153539528606 0.31033734795097495 0.14267530401752757
0.18937516201636767 0.31196377989296104 0.09775125344799326
0.16050654638907885 0.3123802375460067 0.1440853114943342
0.16098493326804614 0.31043152328972007 0.13890668114231394
0.20527726400992846 0.30670307394508506 0.09462183078335093
0.187178075205302 0.3035512399340072 0.1286058958391981
0.21014577139518237 0.31147156473640586 0.07141964992092417
0.19059205044410205 0.3123181891107955 0.10856061538265513
0.17664545763633227 0.3085371684694686 0.14034529884861277
0.2105002998223064 0.3115075659418502 0.05023234447048472
0.19486618031165576 0.3113804292345443 0.09846022089527415
0.20570260275504565 0.3124017548227706 0.07754459341572092
0.1628463267197368 0.3100756239557662 0.1518939371924238
0.21132224787375903 0.30993597027305747 0.07481577356861399
0.19731342781684374 0.30609206673149253 0.0740458007674055
0.2248408793320415 0.3066645097399154 0.01333352287815379
0.18373429764411425 0.30490939136985923 0.13359954317615794
0.1965101360192058 0.30536006208900596 0.07457133492039011
0.1881003974785564 0.3109146189356246 0.096538447938426
0.18401348580024218 0.30946855064872886 0.10333096345470713
0.20842915762565112 0.30624191280845786 0.016538464627726544
0.1842251418938396 0.31076972004417563 0.10482042392299937
0.18553334463736987 0.3051618766451278 0.0950503583769636
0.20039153088233447 0.3085725736284652 0.06505366524265574
0.20316851128241992 0.31057880636696006 0.0933961208681898
0.19591402996680712 0.30811558481697227 0.10981994231746958
0.18403172482154345 0.30406264778618003 0.09725665410564707
0.17960089434287524 0.3133495282793441 0.11981182654903696
0.1930391191353557 0.30438928123954917 0.11794202884243296
0.19060915697715258 0.30438308235649253 0.12248583992527293
0.2083231209625957 0.3063313793802657 0.030140363774760235
0.19015240658423876 0.30771772381309653 0.12002589663074778
0.1750732659210918 0.30510257002357627 0.14409222563312815
0.17759245623252368 0.3061258029604354 0.14089783390568064
0.1609680651535747 0.30708090778831626 0.13647612293766306
0.17282521713874316 0.3086330723429122 0.12169113119648264
0.17367821921012377 0.3083165120745101 0.14330508669422434
0.16920793045661425 0.31161324497703696 0.13079341610477732
0.163945972811198 0.3045418095255294 0.1297047968725996
0.19789278496406054 0.31280009266380454 0.08398454745815562
0.2102730869164226 0.3041623067522445 0.08606471975849436
0.21336251486442065 0.3064421248102584 0.07403936346576975
0.1790323256363628 0.31158225056175376 0.1303669448714094
0.18108099688193774 0.31248305555824424 0.12497755249546336
0.1805952190270183 0.30625699278358604 0.10677387674854563
0.20846831787726855 0.3120159339571395 0.07223113735721873
0.20058989514014697 0.30588613268379355 0.10427674015568064
0.16720241297385668 0.31021557566169883 0.14671488960789011
0.20380318153998828 0.3099303674364486 0.09424992760227488
0.21421217907569384 0.30671153780464316 0.07163112720058726
0.20113128412864184 0.31151012894157554 0.07094457109974192
0.20261067141196704 0.3040230106974044 0.10133379062221812
0.1913309096207378 0.30839054104332114 0.09000005682514475
0.18785071362159228 0.30878482576851035 0.12296130617664622
0.20529335726401782 0.3103539180422225 0.08753001054333018
0.18270832289359545 0.3043582272196212 0.09977438410328196
0.1654165982117412 0.306538565125505 0.1285940047125654
0.20654404152533984 0.308649046387712 0.08825674017475413
0.1929374336113689 0.3121324014330306 0.10579150279568003
0.17100393761298632 0.3049826454782882 0.12043207248256968
0.1646810172905681 0.3063796591425338 0.15363767107532786
0.1938517092575786 0.30669967648033286 0.07965045531795786
0.18852466334006762 0.3032966684961715 0.09028603991077708
0.20446515072486376 0.3096241783762374 0.09372415503071116
0.17294073094031787 0.31168131348137046 0.13703443964527415
0.1637499927391765 0.31068710800651694 0.14925142487095164
0.17952716339728808 0.31303964373115684 0.12421193083332346
0.20385950792930102 0.31136862751487876 0.08319109042690562
0.18817794312140917 0.3082322907114425 0.1231323417048292
0.1799882649292705 0.30914620872978354 0.11076831182049082
0.1642850636353252 0.3115460705423751 0.14335056503818797
0.19728481758735156 0.3114758562708297 0.10152074059055613
0.19591402996680712 0.3119515609407821 0.09236254652546214
0.19087129820487475 0.31052844044212485 0.11323201020763682
0.1698206066002605 0.30643229004387046 0.1489015456061201
0.17103189219138598 0.31174044128898765 0.13889982660816477
0.19338053454062915 0.3123881649637618 0.10114731749103831
0.17642050970694995 0.3119054269457259 0.1216183241228895
0.20729655016562915 0.3034748863840499 0.09329315384434031
0.2210712431778667 0.3106591534281173 -0.00897223392917348
0.202334165464854 0.30610464331154014 0.05167674382732676
0.1714009641518352 0.3122218084001937 0.13539251049564646
0.18099749077460742 0.30830715414528037 0.13449492414997385
0.18584173906943774 0.3046127390528121 0.09439876040027903
0.18121498812339282 0.30888168331627036 0.1089908417086439
0.19950371969840502 0.31113759991172935 0.07709332665012644
0.18576180924079394 0.31181208607200767 0.1101880606036024
0.20769345749518847 0.30432782885078574 -0.0033367041726274607
0.19945067156455493 0.3105459642076888 0.073633813462718
0.17351496208808398 0.3085023593569198 0.11997675260113047
0.19465929258964038 0.30978147503379966 0.08204197248028086
0.18265086401603198 0.31307421442512656 0.12028818687008189
0.18088448036811328 0.3082158398294845 0.13464053829716013
0.18759959925315356 0.30619732853416587 0.12607567866848277
0.2049158214440105 0.3035417031908431 0.09759213884876536
0.19940894831321215 0.30771361109260703 0.10361745317982005
0.1852661370148418 0.30948166367057944 0.0998578604082899
0.1986734866013286 0.30737595077995444 0.10537432988689707
0.21524417389533496 0.30360488411430503 0.07191883882091807
0.17538893211982226 0.30883930441383506 0.11544060071514414
0.1660468577255962 0.31143645760063315 0.13279517849491404
0.1892908214440105 0.3048702311182418 0.09046217163608836
0.19048327196738696 0.31039552208427573 0.11474078258083628
0.18422746647498583 0.3051245641374984 0.1327764030318098
0.18887668837211108 0.3112944197321334 0.11543887218044566
0.1913141607155559 0.31259374138359214 0.10003470738933848
0.212660252939677 0.3046510648394027 0.07811158259914683
0.2230510114540813 0.30945746418480063 -0.001525408424870503
0.18722426880500292 0.31187556501869346 0.11391189058826731
0.1739079951157329 0.30923150297645713 0.14229723175571726
0.18787795294425463 0.3123516273165145 0.10614376624630259
0.17427527893683886 0.30775813576225425 0.11658185084865855
0.19389998901984667 0.3108409475946822 0.08776616414593028
0.17660295952460742 0.30889092203621055 0.1129283245425062
0.17189306009910083 0.30547319170478965 0.11896812280224131
0.20144951332709765 0.3115829062128463 0.07013582547710703
0.19389027346274829 0.3093986940050521 0.08543153961704539
0.16325187672278857 0.3072973322534957 0.13176318367527293
0.1761575936188457 0.3112559151316085 0.13065888842151926
0.17506301392219042 0.3049848508501449 0.11300855239437388
0.1694141625275371 0.30632428642753745 0.1259615059714155
0.17542749632499194 0.30476347919944907 0.14384254177616404
0.16018003214499926 0.3033465575838485 0.13328542669819163
0.1667550205101726 0.3037366699839034 0.15318407972858714
0.21198582638404345 0.3065949511194625 0.07758563121364878
0.17577362049720263 0.30708263632301475 0.11249487956569956
0.1900222300400493 0.30997888561729575 0.09439032634304331
0.2053362726082561 0.31292484518531943 0.06379800399349497
0.2119467257370708 0.3110720944071212 -3.603736354542965e-05
0.18341755856177783 0.30898760077003623 0.13138725718067454
0.220042586218333 0.31129531380180503 -0.004465705551640523
0.19748371828696704 0.31009612795356895 0.10339712461040781
0.18491291988990283 0.31158421751503135 0.10917084773586558
0.17323821772239184 0.31172101017479087 0.13593306501911448
0.1780804394592998 0.31194315668586875 0.12941964825199412
0.21634572733542895 0.3130152654314437 0.024379247031672466
0.2137673496117351 0.3044190239572921 0.07524892052219675
0.1860210894455669 0.31095711704734946 0.10023342927501963
0.17917186010978198 0.3124269675875106 0.1156838770727949
0.1756109594216106 0.3065755200052657 0.11259075363682078
0.19190448511741137 0.3032658528948226 0.12068163713024424
0.160178244005656 0.3115652632379928 0.14059987028644846
0.20011758793494677 0.3048621844911971 0.10555916389034556
0.20868843783042407 0.3079353403711715 0.0850887831072645
0.18725067366263842 0.3117070626879134 0.11589601000355051
0.19193673123023486 0.3110052179956832 0.092996948562129
0.20382440079352832 0.3112997245455184 0.08845853169964121
0.16114979971549487 0.3053161334658065 0.1340990300993757
0.1683363913407085 0.31021557566169883 0.14319899042652415
0.18621367205283618 0.3073428105974593 0.0951172049860792
0.18523907650611376 0.3093596529627242 0.12797316273258494
0.1973493694176433 0.3084821533823409 0.07647713383243845
0.1970754264702556 0.3124976586962142 0.08612626155422495
0.20032066095969653 0.3123754095697799 0.09103866776035593
0.21957868326804614 0.3112872075701156 -0.01229698101474477
0.17782342423102832 0.3081600498819747 0.13826622923420237
0.2073962091316936 0.31218872782234336 0.0742167766909437
0.2132749556412456 0.3110057544374862 0.06484612186954783
0.20806288708350634 0.31093166586403037 0.07794594129131602
0.16890233744285083 0.3054890465402999 0.15037229021595286
0.1947229503502605 0.3095016312265792 0.11118283232258128
0.17496734846732592 0.30632959124092246 0.11363037785099314
0.20415949810645556 0.3126166295671859 0.07067375739620493
0.1700392960419414 0.3081789445543685 0.12700795491741465
0.19512289751670336 0.3113919925356307 0.09901967009113596
0.16852307308814501 0.31154720303062583 0.13917645176456736
0.1805414556374309 0.3127019238138595 0.12500973900364207
0.22479379166266894 0.3062794041300216 -0.005148148931996358
0.16597092140815234 0.311831099953691 0.13373967369602488
0.1826822756638286 0.31126259085182334 0.1133093174319105
0.2147962449898479 0.31362257715706016 0.0326365764956312
0.19065153587958789 0.3130203914308944 0.10589151938961314
0.1658731697907207 0.3115892243051925 0.13738169630573557
0.19420599926612353 0.30820695873741294 0.11350362857387827
0.1977688669075725 0.31246195551399375 0.09175434073017405
0.2013510464539287 0.31149338003639365 0.08136140664623545
0.16225767124793505 0.30669586178306724 0.15540912111805247
0.17699664820334887 0.31215362068657065 0.12631823977039622
0.2082870601525066 0.3092504572534957 0.083582543931468
0.21167027939460253 0.3109131288195052 -0.005263811745183003
0.1676153539528606 0.31033734795097495 0.14267530401752757
0.18937516201636767 0.31196377989296104 0.09775125344799326
0.16050654638907885 0.3123802375460067 0.1440853114943342
0.16098493326804614 0.31043152328972007 0.13890668114231394
0.20527726400992846 0.30670307394508506 0.09462183078335093
0.187178075205302 0.3035512399340072 0.1286058958391981
0.21014577139518237 0.31147156473640586 0.07141964992092417
0.19059205044410205 0.3123181891107955 0.10856061538265513
0.17664545763633227 0.3085371684694686 0.14034529884861277
0.2105002998223064 0.3115075659418502 0.05023234447048472
0.19486618031165576 0.3113804292345443 0.09846022089527415
0.20570260275504565 0.3124017548227706 0.07754459341572092
0.1628463267197368 0.3100756239557662 0.1518939371924238
0.21355408419272875 0.3118479084635177 0.014804714522822369
0.21132224787375903 0.30993597027305747 0.07481577356861399
0.19731342781684374 0.30609206673149253 0.0740458007674055
0.18373429764411425 0.30490939136985923 0.13359954317615794
0.1965101360192058 0.30536006208900596 0.07457133492039011
0.1881003974785564 0.3109146189356246 0.096538447938426
0.18401348580024218 0.30946855064872886 0.10333096345470713
0.2207171319832561 0.30593351837639 0.04544543584392832
0.1842251418938396 0.31076972004417563 0.10482042392299937
0.18553334463736987 0.3051618766451278 0.0950503583769636
0.20441496361396289 0.31191704985145713 0.05422505100773142
0.20316851128241992 0.31057880636696006 0.0933961208681898
