ply
format ascii 1.0
element vertex 817
property float x
property float y
property float z
element face 0
property list uchar int vertex_indices
end_header
0.1872048672149914 0.3386265667564094 0.1604569642679035
0.15023049673540767 0.3373472126609504 0.19279001046579475
0.15093350371821102 0.33181423269574045 0.21391365815561408
0.20608720144732173 0.3394374283439338 0.15119312096994514
0.18591412863238033 0.2669834526664436 0.15364933897417182
0.18554308971865352 0.3081774743682563 0.15410027791422004
0.197685509533717 0.3024797471648872 0.16441185165804023
0.16905236205561336 0.32718646847073435 0.20201579619806403
0.1602564152191418 0.3118759425765693 0.20557669688623542
0.1645589168976086 0.3025349410659492 0.17420292784135932
0.17226275763018306 0.3190355332976997 0.19855968047540778
0.1990372236679333 0.33697408758465647 0.16616214205186958
0.19626852831347164 0.3385469349509895 0.16513434935968513
0.19219341835482295 0.33154422365490793 0.17680127312105293
0.205975144715144 0.30026126228634714 0.1505763321058094
0.21650692781908687 0.32885837875668406 0.14919052411478156
0.18946382364733394 0.3382203611022651 0.15686623145502204
0.20559284052355464 0.312472048628968 0.16050733019273872
0.17820227107508357 0.33744401060406565 0.16764549304407234
0.18336608967287715 0.31305587612454294 0.18416036058824653
0.1731207962940472 0.31354701839749216 0.1938659935132801
0.1897214051197308 0.3242613109237373 0.18035901476305122
0.15212699732287105 0.33432007156674265 0.21215967227380866
0.1865575011680859 0.3398247989303291 0.16967079926889533
0.15164598783953365 0.3367937835342109 0.19166932393472785
0.15854883155329402 0.3107955487853706 0.17967430640619392
0.18672695717318233 0.3384497197753608 0.16042859245699043
0.18367606362803157 0.3325847419387519 0.18469650436800117
0.16326355895502742 0.3267974289542854 0.20673171569269294
0.16604006251795467 0.2600154312736213 0.17285443235796089
0.18997287711603816 0.3056796821242988 0.1483746855394184
0.2092044647644299 0.33639186941449045 0.15530816604059333
0.21140256485445674 0.31247455202404856 0.15302116562288398
0.15030366143686946 0.3386946352607429 0.19425193358820075
0.1995081003616589 0.30970180355374216 0.16539741445940132
0.175179987759425 0.32309633814160227 0.1956588118211567
0.15599665007097896 0.2987366350776374 0.20238826562326545
0.2100388105819958 0.33928937040631174 0.14573723961275215
0.15457862576945003 0.3219034703857124 0.212345340742284
0.21197226604921993 0.3148610623962104 0.15486107160013313
0.15332972964747127 0.31495547615353464 0.18443153191965217
0.18129166922075923 0.32216775738064646 0.1588071375028431
0.16168063840372737 0.31111413561169504 0.17684237052362556
0.15953743419153865 0.3095985087043464 0.20515839148920173
0.15810844263537105 0.3060025604850471 0.1800727932588398
0.19229078254206355 0.33296734415356516 0.14735788990419502
0.20645210108263667 0.3347947033530891 0.16030869771402473
0.1674859519909161 0.33166772447888254 0.20178298045557136
0.17431762775881465 0.3315399321204841 0.16666228462617988
0.17094224652750667 0.3124788435584724 0.16844818879526252
0.18956384024126705 0.3095784815437019 0.1760301380292713
0.1943360861252087 0.30246091209713816 0.16822091628473396
0.1545297797630566 0.3284717234260261 0.18344695259492988
0.1460294421623486 0.33961415611569284 0.20469627667825813
0.16986551842196163 0.3341442974693 0.19743345071237678
0.15084528884394344 0.2902365955001533 0.20659742642801399
0.155837684483363 0.2866936358100593 0.202130713953191
0.19579431375963863 0.3109715613013923 0.17021674801271552
0.17592823466761287 0.31178284012143015 0.19098482419412727
0.173375606150462 0.33743548713986277 0.17172033478181953
0.2015183862159985 0.27023649536435007 0.15649316598337287
0.18229269942743953 0.3173420461303413 0.18696744133394355
0.15574991664393123 0.3020391496307075 0.2038529901639759
0.21578571161730464 0.3311509522086799 0.14985660602014655
0.1693373020599621 0.3335983785278022 0.17185572673242683
0.18666711410982784 0.33507496439282297 0.15558407594125861
0.16739478668673213 0.33175808512036203 0.17276371408861274
0.18718159160120662 0.3386161359435737 0.16039151836794013
0.18250319323046382 0.30631345831219553 0.18094725300233955
0.15013781151278194 0.3130957516318977 0.2129641561643421
0.20604082903368648 0.3247088822013557 0.16337881375711555
0.1950275894115704 0.33764404379193186 0.14809776235979194
0.20316442808611568 0.3003049524909675 0.1546467630998432
0.15361484846575435 0.28285461984936594 0.18417094041269416
0.1532434221218365 0.32020515524212717 0.2130794911519825
0.15222263297541316 0.2999106677657783 0.20638368417184944
0.17401748857004817 0.33633178793255686 0.17046133567255134
0.18019154629213985 0.33762300335232615 0.18308038402956123
0.20311126074297603 0.3394885691291511 0.15272034098070258
0.17460921368105586 0.30379957281414866 0.18743036080759162
0.1928700502823132 0.33913719974820017 0.15827388454836006
0.21594968399508174 0.32653642021481394 0.15049345184724922
0.18405607304079707 0.33332705818478464 0.1838922886983692
0.16526043376429256 0.3156209024078071 0.20201680947702522
0.21299412807924922 0.32082623564068674 0.1550188152925312
0.19360136947138484 0.30986672960583567 0.17143327881258125
0.17066988310320552 0.30604040943447947 0.19216335703294868
0.2113329466293591 0.323852721083802 0.15718347717683906
0.1888683434437054 0.3390765222198188 0.16386265446107978
0.1750913854549664 0.3034058245307624 0.1868098764554798
0.1849167939136761 0.32268876158062815 0.1548519222871601
0.1470904942463177 0.3244724901801765 0.19013110686700935
0.15458577832682308 0.3088859947807014 0.20740453292291755
0.16023042759401973 0.3102234634048164 0.17815146733682746
0.20824375709994014 0.3117936285621345 0.15557886053484077
0.17302370032770809 0.33869570814434885 0.1843094020025074
0.18459531626208003 0.2611090572959602 0.1552152125970661
0.17407861313326534 0.33873254381482004 0.18069899965685005
0.20902141890032466 0.3098378213531196 0.15242088724535102
0.14929774364931758 0.3197580011970222 0.2155300765172779
0.2031982835243481 0.30694264494244455 0.15839541841905708
0.18696352800829585 0.32403785311047434 0.152352163089925
0.1845418806980389 0.338908496726197 0.17648918320100898
0.1997463997314709 0.30263656698529123 0.16170618821542854
0.162968575568034 0.3116672071105659 0.17566595364969367
0.16800701579554256 0.3135145338660896 0.19982186843317146
0.19346597752077754 0.33400637232128977 0.17449478198450202
0.16141408643229183 0.3393795522338569 0.18976626683633918
0.20308223328097041 0.30343461357418894 0.1559011428491413
0.17913109025461849 0.33603847347561716 0.16396925736826057
0.18613454660875972 0.3207807572967231 0.15337679673593635
0.1856155689667004 0.3131070169097602 0.18168214847009773
0.18080750069124873 0.3384936483985603 0.1808677106038868
0.17196488341791805 0.26906311832730173 0.18749854852121467
0.19052749833567317 0.3395565780288398 0.16387406875055427
0.158809959502055 0.3199200662261665 0.17943636466425056
0.16547015270693477 0.33858192287747263 0.19463051248949165
0.1470086570690411 0.3133713039046943 0.19016338278215522
0.17531278690798457 0.30514407478634714 0.1644736914769947
0.15670543870432552 0.32382256113354563 0.21101532269876594
0.1650980707119244 0.3262870343810737 0.17384243894975776
0.20861145815355953 0.31467962585751413 0.15728864957254524
0.16516497692568477 0.31993365608517527 0.17364306141298408
0.20727243980868038 0.3162807258254707 0.16096014667909736
0.201189189762904 0.32713556610409616 0.16835028816621894
0.18124321064455684 0.3377320798522651 0.18245012451570625
0.20481488069994624 0.3251234921104133 0.1646490185396015
0.2077434357116955 0.3383858235961616 0.15278775383394355
0.15651458463175472 0.3389271529800117 0.19395698000352973
0.2146140631149548 0.3162271412498176 0.15104822207849616
0.17818003854258235 0.33349079214398264 0.18917507816713447
0.17552915176851924 0.3257266315108955 0.1642559259073078
0.15358102282984432 0.3245872887260139 0.21296701718729133
0.1801666911552685 0.25913125597302317 0.18006778646867866
0.16856068334086116 0.3378067048675239 0.1893585710660755
0.19015046915514644 0.3357576163894355 0.15398989011209602
0.19050872287256893 0.30415225349728464 0.17257047583025092
0.18439960441096004 0.33051532827679514 0.15592194487016792
0.1522126193950909 0.33262509428326487 0.18717894841592903
0.1640987094352978 0.3386360438949287 0.1961955218450367
0.14673268756373103 0.30233282171551584 0.2106106667653858
0.2018378075073498 0.32256204210583567 0.16781930018823737
0.18623444399340328 0.3207672866470039 0.1839545755521595
0.19254893025858577 0.3363058003074348 0.15144697715204353
0.18424436411364253 0.3092369469291389 0.1811118512288868
0.18084818086130794 0.33332413755719065 0.16101540018480415
0.20629045328600581 0.3224561842567146 0.16315276314180488
0.17412164768679317 0.32972938143078684 0.19567943502824897
0.17234685978396114 0.3199819954520881 0.19858221103113288
0.1750872131298321 0.30001253210369944 0.18557111312311286
0.19116473159296687 0.33219254337612986 0.14873907853525276
0.19082087239725765 0.26244652592007517 0.1470578699247181
0.18356803020937618 0.3262379201537788 0.1865739910737812
0.14668056330187496 0.33733553015057444 0.1979928999082386
0.16632825097544368 0.3082041772491157 0.19810465861719245
0.159342825026347 0.3034375938064277 0.17895461012285346
0.14617055615885433 0.31243437849346994 0.19094903160493965
0.20181617102129634 0.3370239170676887 0.1630872874395191
0.17126327714426692 0.3379725845939338 0.1888044564859211
0.16631281337244685 0.3195690544730842 0.17260287095468635
0.18523740729792293 0.3333883913642585 0.1830474822656452
0.15286213120920833 0.2632876070625007 0.18484846640985603
0.1564952727268475 0.3314679893142402 0.21047852326791877
0.1794544156502026 0.3229236038810432 0.1605793326036274
0.16874602398379024 0.3267223271018684 0.20235244323175544
0.17058429083330806 0.3111770185119331 0.19551713158052558
0.20301529726488765 0.3297624620086372 0.16613055159013862
0.1568888421962994 0.31697708689038157 0.20941452075403327
0.16037839612467464 0.3389363320953071 0.19657740880411262
0.15593805870516475 0.3396193417197883 0.1960085420743763
0.1461694236706036 0.3328684600478828 0.19301892210405464
0.1938751336048382 0.3365400465614021 0.14909301091592903
0.15855315289004024 0.32786023937527536 0.20984069396417732
0.18757072052462276 0.32712298952404856 0.18242875625055427
0.16444981059534725 0.3072038324958503 0.19857797910135383
0.20730826220019039 0.33529562078778147 0.15933010865610236
0.17440625986559566 0.3129808934814155 0.1652949838773548
0.21003791651232417 0.33415925823513865 0.15724036981027717
0.14766919574244197 0.33214652859036325 0.21584413339059944
0.19968637785418208 0.3126841815597236 0.16680032898347968
0.16249668559534725 0.3104428084975898 0.20255897332590217
0.1509502824257153 0.31150603615109324 0.18655733157556648
0.2072304781387585 0.32480001770321726 0.16207353164117927
0.15829223355753597 0.3287880452758491 0.2099945335523426
0.196742385239436 0.3169997366553962 0.1717344312803089
0.2011984284828442 0.3197133573180854 0.1681622057096302
0.16668286880953487 0.3240972789413154 0.20421163131158943
0.1521832939098614 0.33730352245633005 0.20999512959879035
0.1864480074356335 0.3290305169707954 0.1533178477422535
0.18920785150034602 0.3184430035239875 0.17995522309702033
0.19632461628420528 0.32397193037335276 0.1734906821386158
0.15816941818697627 0.31265360437695383 0.18001840402048225
0.18743783196909602 0.3129302891380012 0.15179599214952583
0.15606692394716914 0.32828003488842844 0.1822436540262043
0.19115295967562373 0.30662101827923655 0.17270878840845222
0.17613491377337154 0.33705675922695993 0.1886944859163105
0.2040663059662121 0.338661435473603 0.15725857902925605
0.16728010735018428 0.30427021108929514 0.19471553851526374
0.19958308300478633 0.27536207758252024 0.15994057942789192
0.17886963448031123 0.31758255087201 0.19101108004015083
0.18317773899538692 0.3193019660598457 0.18704543401163215
0.160144507498576 0.3218336733466804 0.20878563214700813
0.1764348443458813 0.3125170501357734 0.16346312452715034
0.169212609143092 0.3326094778663337 0.1992690353528797
0.17737016043169673 0.30418587051693796 0.16261086751382942
0.14562314710123714 0.3007610472327888 0.2110016136304676
0.19973227343065914 0.33997869812313913 0.15123931456964607
0.15087309441073116 0.3008208902961433 0.18663472820680732
0.17312616071207698 0.33364016138378977 0.19344923783701057
0.16611781677706416 0.3358038695937812 0.17721364785593147
0.17168515881998714 0.2655751737243354 0.16776941110056037
0.17455336412890132 0.3385124834663093 0.17225963760774726
0.21101936659319576 0.33675062977139353 0.15227604795854682
0.20122161468966182 0.3085446985847175 0.16203168918054695
0.184554725498988 0.3135640653258979 0.15525824715059394
0.15747997126085933 0.30596149288479685 0.2041959552900135
0.17866343221171077 0.324423256743592 0.19193387915056342
0.19358083567125972 0.3375926049834907 0.1695713489190876
0.16539737543566402 0.30094981514279245 0.17343551803987617
0.18331459125979122 0.31978541933361887 0.15662358094614143
0.16189900001986202 0.3326615723258674 0.20689759541910285
0.1534519489715832 0.30614722095791697 0.18431378294389839
0.1940035220096844 0.3176397117263496 0.17471418668192024
0.14608839115603145 0.2640151413566291 0.1910312264100849
0.16819176039202388 0.3269065650588691 0.1709138839380085
0.16756787857515987 0.30362445436779856 0.17148558188837165
0.19878748020632442 0.3220056327468574 0.17100069810312385
0.1475545462082165 0.29471695743862986 0.1896550743715107
0.1920438703010815 0.30403161369625925 0.17106021334093208
0.1736190315197247 0.3271142276412666 0.16650594164293403
0.1762762065838116 0.3345590265876472 0.1905955462590992
0.17313232979281123 0.33219713293377756 0.1680044918195545
0.15975058040125545 0.3387677701598823 0.20026079703729743
0.16510659417612727 0.3247001203185737 0.17367128421228523
0.19916483721239742 0.3242039116508186 0.17069644619386787
0.1703707869957226 0.32370889507595896 0.20104155827921028
0.19762560686571773 0.3328671487456977 0.17069713164728278
0.17825853785975154 0.3178383144027412 0.19178173829477424
0.15944758018953975 0.31980091654126047 0.17886430908601875
0.18297663292391475 0.3329112561828315 0.18516237427156562
0.21311232408983882 0.33860242687527536 0.1458448856012165
0.18601268491251643 0.30299818836514353 0.15352932502191657
0.18316650351984676 0.2701115044242561 0.15678576518457527
0.1801005896042126 0.3092311652785957 0.1599781303541004
0.15969446262819942 0.33459186874691843 0.20745132256906623
0.18945780357821163 0.3070355089790046 0.1747636883394062
0.16249707302553829 0.3091472419387519 0.20159570266168708
0.1831860240410107 0.33048457228009104 0.18627105046671028
0.19910153707964595 0.3389893802291572 0.14650819589059944
0.20307216009600337 0.3354587587005317 0.16388041664522285
0.20619013866884883 0.31494629703823923 0.16181177784364814
0.19392681083185848 0.30497670494381784 0.16953689743440742
0.15976941546900447 0.30207604490582346 0.2004936127797901
0.20645311436159786 0.3052597674018562 0.151767024292165
0.19394874534113582 0.3028990062362373 0.16879514743250007
0.17178416213495906 0.31318158232037424 0.16767905045908088
0.14986601433260616 0.33886063419644236 0.20036367465417976
0.1953225429962414 0.31725877844159006 0.17281729866426582
0.1536847349117535 0.30981248937909006 0.20868901301782722
0.19120812377436336 0.33760792337719797 0.172228792204076
0.17660665473444637 0.3357334765083015 0.16808546472948188
0.15762299260599788 0.31130278431240915 0.18051339079301948
0.17229962310297664 0.32176083647076487 0.16719452430170173
0.16291135510904964 0.3212935360557258 0.1757201342717945
0.18692770561678584 0.33953273617092966 0.16862223435800666
0.14563372692568477 0.3263490828162849 0.19157568503778571
0.1830724175880688 0.32720506511990427 0.1568958549634754
0.1913640197227734 0.31572884641949533 0.17730213095110053
0.17771646341784175 0.30063057266537546 0.18344456840913886
0.14868232569201167 0.33912295423809885 0.2023029117719471
0.1786466535042065 0.3079481752998054 0.16137839247148628
0.16166406831247981 0.3068020375854194 0.20091865350168342
0.15580731591684993 0.3270758422500312 0.2115133791105091
0.1854697462032574 0.3098491462356269 0.15418971468370551
0.16461518368227657 0.33188832126919626 0.20473662902277107
0.15582594236834224 0.3179095419532478 0.18216280032556648
0.1888547535846966 0.3146704467422187 0.15007222582262153
0.1491020019958752 0.29732716404263376 0.188236454023534
0.16482326349718746 0.3288289936668098 0.1743863313333332
0.1690527792881268 0.3247376712447822 0.1701541035310566
0.1864416893432873 0.32451904140774607 0.18381659079950446
0.1528595086048382 0.33671373449627756 0.2106792717115223
0.14984106978876766 0.33920461260144114 0.19754354049127693
0.14605107864840206 0.3225074442512214 0.19107739020746345
0.21502736172182735 0.32810277067486643 0.15191332389276618
0.15562990269167598 0.2733208569175422 0.2023251443044483
0.16431289872629817 0.3119791778213203 0.20093850184839362
0.15844386777384456 0.31680012070004343 0.1797751276628315
0.1759174760292309 0.3053498300201118 0.186871924890691
0.1792233582447308 0.3154513867980659 0.1890020756856739
0.16032451352579768 0.32298571192089914 0.17806262661378974
0.15772089323504146 0.3011150988227546 0.20171246816080207
0.1696209605644482 0.30806500040356516 0.19419119645517463
0.20979264339907344 0.3236513765937507 0.15918458391588325
0.1749963756511944 0.30357575737301706 0.1647604494230091
0.1675685342262524 0.30087179266278147 0.19266096640985603
0.14592155775530513 0.319310906756562 0.19119919229906196
0.16273492536051448 0.31126481615368723 0.20267472554605598
0.18305125793917354 0.31455892645184397 0.18533427406709785
0.19007971844179805 0.33543837391201853 0.15375075627725715
0.1502291854332226 0.3328706058150947 0.18916372348230476
0.16805836519701656 0.3138108881599128 0.17105115343492622
0.18443706593020137 0.31323486887280344 0.15538699318330879
0.16401869019968685 0.3066555293685615 0.19873372603815193
0.19560199937327083 0.3342330487853706 0.172259309782201
0.1800461109588879 0.31971544348065256 0.19029528786104316
0.19000941476328548 0.2908784183150947 0.17119247604768867
0.1834456618736523 0.28911316715542673 0.1564822285310566
0.14740192851526912 0.3389435442573249 0.20111964036386604
0.1641888316581982 0.3312190803176582 0.17543221403520698
0.19395354351504024 0.338741842139405 0.1557078747884571
0.16691806873781856 0.3378793629295051 0.1924904971257984
0.17111515960200008 0.32981407963101267 0.16871140290659065
0.1859510239074963 0.3153411182052314 0.1824889569417774
0.18873596152765926 0.32370120607678293 0.15018776942651862
0.18032374939425166 0.32742482744519114 0.18982205678384895
0.1517863567779797 0.3204967411643684 0.18581459809702033
0.1888092454384106 0.26418197475735544 0.1501275389329731
0.16121706327898677 0.3041623266822517 0.20025203515451545
0.1826638277481335 0.3394987615234077 0.16791329671304817
0.20357957443697627 0.3391807111388862 0.14665610481660957
0.16046911439402278 0.3390063675529182 0.1959486990110218
0.18863457402689632 0.3070917161590278 0.1503399400846302
0.16793602666361507 0.33863640152279734 0.17917765070360298
0.15255600175364192 0.33073479257885813 0.18594760586183662
0.21638789734347041 0.3199813398009956 0.14928165961664314
0.17597499451143916 0.32637632213894724 0.16385261107843513
0.15397909244997676 0.33612424455944895 0.18925947834413642
0.20077100357515987 0.3117013605720222 0.16453997184198493
0.1905378397415417 0.3216275604850471 0.1474809436933338
0.1538627739856976 0.31402898155514597 0.21124277402322883
0.14699491819842037 0.33143472992245554 0.21640769530695075
0.1692394610355633 0.3211440476066291 0.16999558497827644
0.20683816036684688 0.26254105888668894 0.1474501876966297
0.17030462584002193 0.3094118269569099 0.19488213349741096
0.17580717763407405 0.33957153879467844 0.17952723194521064
0.20642265638811763 0.3281134399062812 0.16254464675348396
0.19324502310259517 0.32206607185665964 0.17683021117609138
0.16564765533907588 0.3257599505073249 0.2049940018789112
0.20855501255495723 0.3007907899505317 0.1471602707044422
0.18993782958491023 0.3300198944694221 0.1795285432473957
0.2060323055694836 0.30913502298657297 0.15635804225366706
0.21172180733187373 0.3068492444640815 0.14684430648248786
0.17207246980173763 0.313292566168946 0.1946100084916889
0.18184027037127193 0.3162535461074531 0.1582505195276081
0.21265569290621456 0.3134081991798103 0.1523518948690235
0.19173473081095393 0.3101289304382026 0.1456387429372608
0.18011155685885127 0.3387326630241096 0.16707120229166145
0.1731098588417309 0.3038300307876289 0.18883342434328193
0.17397907337649043 0.301468733180207 0.16568074513834113
0.1639611419151562 0.33868944965664743 0.18412954498689765
0.14791843256457027 0.3163468273765266 0.18933374573152656
0.19037494024737056 0.278172675002259 0.14775038649004096
0.14573818406565364 0.329882982600373 0.19184402514856452
0.2024360593269604 0.3324062856322944 0.1658610491887867
0.18117222151262935 0.3389409812575996 0.17394361783426399
0.17014253100855525 0.315221551287812 0.16917909075182075
0.18184587320788081 0.31304908119503855 0.1582331149713337
0.15426823458178218 0.313797834742707 0.1835854737893879
0.18453741034968074 0.2879259022361457 0.17620013047617072
0.161463528485133 0.3341499003059089 0.17931137372415656
0.16643980106814082 0.30662006460492014 0.17249295998972053
0.1867316063354748 0.3305166395789802 0.1534774093763172
0.18837004861338313 0.325580540526551 0.18162203718584174
0.1711223419616955 0.29013932071987986 0.18829063464563484
0.18453392347796138 0.30984956346814035 0.18125868727129096
0.21421501001818355 0.32170081459347605 0.15317312766473884
0.17316162547571834 0.33097917162243723 0.19562933732431526
0.15574026069147762 0.33363056503598093 0.18443305183809394
0.17896574697001155 0.3234602841026008 0.191742131008321
0.15495297274096187 0.30778330885235666 0.20672766257684821
0.18620860537989314 0.30526638351742624 0.1532906680242359
0.18644866308672603 0.324040594924134 0.1529814093248188
0.17283490261538204 0.3152067693359077 0.16671878982942695
0.1768752034614819 0.3026571901923835 0.16306416083734626
0.16034999451143916 0.3322696717864692 0.17953512956064338
0.20861050447924312 0.3393420609122932 0.1477447240487873
0.16272005400164302 0.3386042150146186 0.18725783516328925
0.1721815463016766 0.3051427634841621 0.16731272031229133
0.19487404784662898 0.30931312166516184 0.1702938168184101
0.19108867606623348 0.3174742492324531 0.17819104482095832
0.1799484785507458 0.33102149092022776 0.1606418280736744
0.17116492948038753 0.33125669084851145 0.19780025769632453
0.15845629534228023 0.3345642717963874 0.18331787873666877
0.18906804880602535 0.2634583743697822 0.1497797160283863
0.18832102379305538 0.33792430483166574 0.17536322165887946
0.20906838736040767 0.32133561693493723 0.15990222383897895
0.18395197352869685 0.3332731755859077 0.1575500755445301
0.21172055563433345 0.3230533631927192 0.15660954405229682
0.1743211742351788 0.3238916429168403 0.19651410867136115
0.17825832924349483 0.3028227122909248 0.18358550359171028
0.16280275544626888 0.31722754560772776 0.20651564885538215
0.15981066188318904 0.3326203855163276 0.20812670279901618
0.16492718419535335 0.3100199731475532 0.17386422444742317
0.14919447860224422 0.3378002079612434 0.2109654932157337
0.20026287397844966 0.31387067161862253 0.16659204055231208
0.20819392761690791 0.3311790259963691 0.16020468760889167
0.1960321958969372 0.33275854908291697 0.1723782210485279
0.18074595889551814 0.3287057312614143 0.15957338501375312
0.16235664448244747 0.3385224374419868 0.19789496947687263
0.20464709362490352 0.3051676186210334 0.15399716187875861
0.15591779312594112 0.33276975475613474 0.18386066843431587
0.19997730812533077 0.3350076111442268 0.16709271956842536
0.16785734853251155 0.3381859692222297 0.18816442181032295
0.15485331377489742 0.30201405607525705 0.20459792901437873
0.18392121753199275 0.339762452471894 0.17322678257387275
0.17199206313593562 0.3384615810996711 0.17402405430238838
0.17849269470675166 0.3265824946052253 0.16149277378481025
0.20609834751589473 0.3089169295913398 0.15601737190645332
0.211193650574519 0.3188705476409614 0.15689180184763069
0.18140649756891902 0.33911276184384226 0.17472464729707832
0.15684542021258052 0.3390373619682014 0.20321146537225837
0.20384892782671626 0.32393080316845774 0.16563377667825813
0.17205840310557063 0.33847630344693064 0.1814763634340107
0.17337882480127986 0.3161268862373054 0.1948401122228443
0.2006517346809643 0.3388254078513801 0.16065374900262946
0.20389643272860225 0.3156383069640815 0.16379896689813728
0.14979970416529353 0.3150454791671455 0.213862994207555
0.1840441223095196 0.33834982239071726 0.17826051403444404
0.18514028152926143 0.3119015725738227 0.18149093676965827
0.1974474485824841 0.33826679312054514 0.16534436632555122
0.1508005555580395 0.3251224788314521 0.18674747039239997
0.16996064743502315 0.32522780023877024 0.16933680464189643
0.17612397632105525 0.3399596842414558 0.17629421640794868
0.15860804876787837 0.28439450584713816 0.19963298131387824
0.16086450180514034 0.3296739491111457 0.17789904166620368
0.18114149531824764 0.32371324621502756 0.1589402942792713
0.17533698639376338 0.339854541648072 0.17787919331949348
0.16599720677836116 0.3381233247405708 0.19768343259256477
0.14700347146494563 0.337621453631562 0.212409296526128
0.19037762245638545 0.30151880108181833 0.1477461843625843
0.18217399677736934 0.3283617528564155 0.18777791549127693
0.20588877758486446 0.3028265865928352 0.15143678475778694
0.19039386472208675 0.3316968711501777 0.17856953431528205
0.1726298328350323 0.3385846050864875 0.18274078656595344
0.18290573319895442 0.3366516264564216 0.16257549215715522
0.17663255295260127 0.31247991644207834 0.16328431059282417
0.21553048452837642 0.31655812584225534 0.14872501183908576
0.17024546823008235 0.3259623082763374 0.20092437554758186
0.17614382466776546 0.30984759651486277 0.18980998684328193
0.21431121191485103 0.33328444086377024 0.15116451074045295
0.16625031790239986 0.3135921987182319 0.17266488958757514
0.18265208563311275 0.32585555635754465 0.1875583319799244
0.14684072098238643 0.33998620830838083 0.20622966576974983
0.19154503902895625 0.3355464371329963 0.1749952225820362
0.18070942124827083 0.32699245535199045 0.15949342538278694
0.16986092886431392 0.3041330011970222 0.16942656923692817
0.19013100823862727 0.3256282242423713 0.14810834218423957
0.14782458505137142 0.30271745048825144 0.18941024829309577
0.15251380166514095 0.3219761284476936 0.18515996028345222
0.17078047952158626 0.33504641376797556 0.19483254243295783
0.21200689634783443 0.3360359700805366 0.1524320929185688
0.14749830922587093 0.32591802202526926 0.2167449979917347
0.20641854366762813 0.2688754829055488 0.14798019219797248
0.16894653400881465 0.33480811439816355 0.17354238916795844
0.18589669427378352 0.33900451980893015 0.16616634417932624
0.17252510747416194 0.27214879118267893 0.16700185228746528
0.14793115815622981 0.30542427622143625 0.18930898000162238
0.18346402010424312 0.33355224453274607 0.15884594012659187
0.14654087981684383 0.30630803428952097 0.19057501245897407
0.181005924553706 0.3124965461379707 0.15911380340021247
0.17704054674608882 0.33941847406689524 0.17448399354379768
0.1712144013355511 0.3089627059585273 0.16819483925264472
0.21151933035357173 0.3270409735328376 0.15704999257486457
0.15872967204554256 0.31680029951397776 0.17951721836488838
0.14904406628115352 0.3140039476043403 0.18829903890054817
0.2147658761451977 0.31107491575543283 0.1461844830648243
0.15439790448649104 0.31701147877041697 0.2121196179525196
0.18799817523462947 0.28581840120617746 0.17294169355791206
0.14908909759028133 0.3307210835105598 0.18915132571619148
0.17468142470820125 0.33803397737805246 0.18657941509645576
0.19541788062555965 0.32709420048062204 0.17450947452943916
0.15214708408816036 0.2806434067374885 0.20549700547617072
0.169624328226878 0.33593100630108713 0.19327632476251716
0.15212863645060237 0.33937800251309275 0.20446155358713264
0.16695204338534053 0.31807083212201 0.20226273824136848
0.16412880978090938 0.31192457996670603 0.20109007646005744
0.14789646825297054 0.3054655822402656 0.21072027970712776
0.20890203079683956 0.3036686810142219 0.14829687167566413
0.16751810869677242 0.33315462194744944 0.1737120239869892
0.18188726863367732 0.309101584780854 0.18360466648500556
0.14687946400149043 0.32294786297146677 0.21708349276941413
0.17354840001566585 0.33456546388928293 0.19276655603807563
0.18464902004702266 0.3193029197341621 0.15515411783617133
0.16823324522478755 0.3070347937232673 0.1708879559175312
0.14773586353762325 0.3397339614516914 0.20668784667413825
0.16651415786249812 0.32248407923046946 0.20439569045465583
0.20220079979403194 0.26315141044918894 0.15534127642076606
0.1929741795967358 0.33004343830410837 0.17643962193887824
0.14963322839243587 0.3335311444884956 0.214240351213628
0.15916565021975215 0.3148947390205085 0.2072728662626087
0.1998547013710278 0.3012656005508125 0.16108075667780036
0.15100130400164302 0.3078370126372993 0.18651033331316108
0.2128023799370068 0.3268755706435859 0.15520391751688117
0.21486821732027706 0.336492303240937 0.14655975390833015
0.14691388568384822 0.30839073978726267 0.19023532558839912
0.16446891388399776 0.30518859945599436 0.1742824404374897
0.17102000078661617 0.2998578580505073 0.189200410141164
0.18368670305712398 0.30568009935681223 0.15621534873407478
0.15263047775728877 0.31946653448407053 0.21341935683649177
0.1787609752128857 0.3394686611777961 0.17964712668817634
0.17843720278246578 0.33594012581173777 0.16456321765344734
0.16980215868456539 0.33710182033841013 0.1906567900316059
0.15417876800997432 0.319357338774842 0.1836694865361988
0.2072885926674145 0.3021970423347175 0.14958659697931403
0.17258217892153438 0.323241296637696 0.16692967106264228
0.1753899749229687 0.317162993777436 0.164405146135503
0.1509885188053387 0.3339886697417915 0.1895995526449024
0.15501061043245967 0.2717831762916267 0.18289990116518134
0.19979473909838374 0.307630363333863 0.1638664691583454
0.16415786704523738 0.3125304611808479 0.2014789371625721
0.1574146445701855 0.3287969859725654 0.21049169589441413
0.15570673307879146 0.3065732153541267 0.18226391960542793
0.191057353825404 0.32202661358181833 0.14666140962999458
0.21781930288775142 0.32405942999188303 0.14723057438295478
0.18028840383989986 0.30536711536709665 0.18269474197786445
0.20763215383989986 0.30840236269299387 0.15310091663759345
0.15240597686274227 0.30079043232266306 0.18525595356386299
0.20213630756838497 0.32554847322766184 0.16745702315729255
0.21745535692675289 0.31821066461865305 0.14564351130884284
0.1667254265259045 0.3103604348785102 0.19916943599146003
0.1883037980507153 0.3039630087501228 0.1745447306768238
0.1883355077217358 0.305356148112458 0.1507037072316944
0.17168858608706172 0.3128142388946235 0.19495219875734443
0.1919137831638592 0.33047563158337473 0.1773414402143299
0.1529244180629986 0.30578589760128855 0.20747945596140022
0.14838892182810481 0.3136856588012397 0.21406272937219734
0.14866301378710445 0.32818484627072214 0.2157623558179676
0.17795547804339107 0.30532014690701365 0.1620487659112751
0.17509469351275142 0.3245613011008918 0.19566891480844611
0.16418680510027583 0.3381235631591499 0.18094814707201118
0.1834817524860638 0.299446347582978 0.17790762473505134
0.1757929917286175 0.32058012806240915 0.19489181925218696
0.18658059796793636 0.3181100519782722 0.1528373150960743
0.15418574175341304 0.30154466949765085 0.1836518137590229
0.1736010607193249 0.32010931097332834 0.16601077605646247
0.17720207533343013 0.31525945984188913 0.1920025138990223
0.2081287797401684 0.3325160177833259 0.15990916778009528
0.17249086460573848 0.3291876944190681 0.16765958954256172
0.18069782814486202 0.31874543749157785 0.18880389024179572
0.1851551528881329 0.31508577190701365 0.15457273413103217
0.17386078795893367 0.3236541184074104 0.1970919160978138
0.15666434130175289 0.3122341664916694 0.2073436169759571
0.17772251328928645 0.315659943450135 0.16227538277071113
0.19427856764300044 0.3396399053222358 0.16102317859094734
0.1466634865711468 0.2678870590812385 0.19047985364359016
0.21557417473299678 0.3205105098373115 0.1507354765073597
0.15666538438303645 0.31067502819363474 0.20679811526697273
0.1685133870552319 0.3212584289199531 0.20250550795953864
0.18300980290873226 0.33889645658795237 0.178112843527013
0.15361997446520503 0.3284775646812141 0.21268651772897834
0.19895240625841792 0.3033939632064521 0.16323638845842475
0.14947044810755428 0.31174260698620676 0.21271506835382575
0.15026283225519832 0.32389277540509104 0.1871695904866993
0.2035000618408459 0.3208698662406623 0.16595856238763923
0.15624692997439082 0.3030169638282478 0.18177322436731452
0.18380343875391658 0.3010802897102058 0.15608853985231513
0.1656526919315594 0.30330020510022043 0.1957036047117054
0.15463933310015376 0.33832753025357126 0.20618543912332649
0.14631429275973018 0.3372772368079841 0.21321717788141364
0.19113251528246578 0.3114014896041572 0.17525572468202705
0.1913618441532391 0.32390678249661325 0.17883274842661018
0.1481082435558575 0.31823516212765574 0.21590022136133308
0.1482707556198376 0.30987936579052805 0.2126209526197254
0.19584515652163204 0.3019151719695747 0.1664285152093708
0.17352813443644222 0.3173628481513679 0.1952908723489582
0.1964074071357983 0.3385316165572822 0.14765808869760627
0.16210979184611018 0.33593023144070505 0.18073306371133918
0.16675093731386836 0.33092224918667673 0.17300016571443672
0.16116109451754268 0.33439880930249094 0.17998019744318122
0.1793396171043652 0.3053782018310249 0.1836079745427906
0.2032276090095776 0.33923971973721384 0.15639326859872932
0.17510837277872737 0.3140737446433723 0.16466120768945808
0.15474837979777034 0.338220122683686 0.19144488264482612
0.15178018769724544 0.3166109951621711 0.18582404543321723
0.19168916306002315 0.30948388897244333 0.1457094936506092
0.20363435110552486 0.31418675504986643 0.16342464972894782
0.19444131812555965 0.31482994877163767 0.17259264875810737
0.1865075822780865 0.302204075682801 0.17563141275804633
0.19223242959482845 0.32176107488934397 0.17785070229929084
0.1933372612903851 0.32630068384472727 0.17661053825777168
0.21703699192507442 0.33053076587979197 0.14773146201532478
0.19785276016695674 0.3192771705276191 0.17155770350854987
0.1818446811149853 0.33089000307385324 0.15866247702997321
0.16734915933115657 0.30449396692578196 0.1947752325670063
0.16323491892321285 0.33616781555477976 0.20300922681253547
0.21058633884890254 0.3097755344993293 0.15023202587526435
0.19354540070994075 0.31529015623394846 0.17416409541528816
0.1884185965965527 0.29972285353009104 0.15060279656808967
0.1575834449241894 0.3390898736602485 0.1877808957235157
0.1835859116028088 0.2987135084754646 0.17772374440591926
0.178118437142207 0.3240762385017097 0.16186816383760566
0.1668254431198376 0.3385362657195747 0.17951489378374214
0.18041723927958186 0.30459451996151804 0.15968588878076667
0.2116957004974621 0.33859420143429636 0.1473869769708454
0.1579487319896954 0.29106504045788645 0.18021486092966194
0.16979232391817745 0.3033813866264045 0.16948906470697517
0.1989372070740002 0.3274003895408332 0.17058781672876472
0.18484741410715755 0.30673384987179636 0.15493700791757697
0.15929788312418636 0.338469568122071 0.20272682000558967
0.17713889440996822 0.2797740729934394 0.18289873887460822
0.15883120855791744 0.33944416366879343 0.1905022947923481
0.15631052813036617 0.31912058912579416 0.18171955038469428
0.17901948055727657 0.33113020979229807 0.16165364672105903
0.21157696804506954 0.31900745951001047 0.15667799998682136
0.15753290018541988 0.3354052337295234 0.18428499390047187
0.1554249521206158 0.3110725315696418 0.1825238554612934
0.1554106470058697 0.339937868941468 0.20155040313165778
0.16398301681978877 0.31348991714779734 0.2024351148740589
0.15905213317377742 0.30659681879345774 0.1792151122228443
0.15743264517290767 0.3390564950591743 0.18790719796579475
0.18341743907435115 0.3038064273482978 0.17915976931017036
0.20019867977602657 0.2996835144645393 0.15999735285204048
0.1770442422340649 0.33051574550930857 0.1634566574231922
0.2025506194542187 0.3375351461059272 0.16171357919138069
0.1528636809299725 0.27769232117001413 0.1848393468992054
0.18474203309519466 0.31650019012753366 0.18502877046030158
0.16496902665598567 0.316603067744416 0.17383391548555488
0.19219520649416622 0.3346391352302253 0.1495699970857441
0.1516325469921368 0.3396169575339973 0.19915030290048713
0.20102480015261348 0.32562017761532663 0.1686686663762867
0.1901524957130688 0.3110194834357917 0.1480957059995472
0.18687441906435664 0.30712646566693186 0.17707155038278694
0.17295226416094478 0.31919348560635447 0.19769094277780647
0.18386763295633968 0.3059616120940864 0.17952091385286445
0.19070729574663814 0.3131210836059272 0.17659051109712715
0.15149655899508174 0.3012083204871833 0.20719168473642463
0.1771529611061352 0.3256735833770454 0.19317213584344978
0.19455531200869258 0.3384933503753364 0.1522719650403797
0.17971003016932185 0.31016612373654245 0.16035530854623908
0.1564179655025738 0.3244763644820869 0.21121124316614265
0.21113911232454952 0.32986688934628366 0.1571451215879261
0.18677455148203548 0.3143692644721687 0.1805133609906971
0.19109725913508113 0.30122685753170847 0.1466286568776905
0.20790252050860103 0.3365936907416999 0.15645904232423896
0.19673958382113155 0.33469206415478586 0.1704999594823658
0.1641750033806103 0.3145394357330024 0.17456279088419074
0.19987061581118282 0.34039843403164743 0.15433744479578132
0.1854777332256573 0.3315947087890327 0.18368730832498664
0.1629569526623028 0.3386878403312385 0.18815124918382758
0.16290840467913326 0.2990672620422065 0.17571086574953193
0.18668231329424556 0.3389740618354499 0.17293686558168525
0.16430476269228633 0.3321955236083686 0.17576170851152534
0.15466991028292354 0.339582267630738 0.1949628977910816
0.17086863479120906 0.2850270303374946 0.16851661492746467
0.15555718502505 0.3122329147941291 0.20840344716470832
0.18924057445032771 0.3039352925903022 0.1495118527547657
0.14785039386255916 0.331875923503083 0.19081548739832038
0.17879286369784053 0.339374485839051 0.17478368569772834
0.1512331362674969 0.30646765552822947 0.18630553175371284
0.14877682885630306 0.324392739165467 0.1885573952333271
0.18023034891588863 0.33260238491360544 0.18773833800714607
0.19212382993204768 0.3401402863151252 0.16230023790758247
0.19877871832354244 0.3400551112777412 0.1544673233167469
0.16157913169367488 0.29867792450253366 0.1769277541772663
0.1845735903690594 0.33915758453671335 0.1757487445012867
0.15720155796511348 0.30577326141659616 0.20433674146097297
0.17484059891207393 0.30790061079327463 0.1897480278150379
0.19182813128931697 0.30213320576016306 0.17067632962625617
0.1874265368889111 0.32896477304760813 0.18232686211031074
0.21756365856630977 0.3224623831397712 0.14748282123964424
0.20701608023150142 0.3121016653663337 0.1577086835042774
0.18117278775675472 0.3181756170875251 0.18802399326723213
0.1580407615612286 0.33685183845822214 0.2065063505307972
0.2052552994201916 0.31308925472561716 0.16150299598138923
0.20481267532808956 0.3394144805556953 0.1515652625696003
0.1691394742439526 0.3099039825088203 0.1700804321901142
0.1929751332710522 0.3395932348853767 0.16397748280923957
0.20261010488970455 0.3109324010497749 0.16247586299341316
0.15409958323939021 0.327583018172425 0.18383235622804756
0.15093460640413936 0.3101649912482917 0.1865683882371723
0.162480830759837 0.3252549799567878 0.20746574689310188
0.19141763410074886 0.33911854349438547 0.1672858982221424
0.20855721792681392 0.33946228348080515 0.14708779145639533
0.1626403923939007 0.3315239580756843 0.20661334086816902
0.1995572741935986 0.3107986482268989 0.1658995239869892
0.1548019941757458 0.326903942454499 0.18316797305505866
0.1629141267250317 0.3367049726134956 0.20214877416055793
0.19123920759661373 0.2592058213836372 0.17001114179056281
0.18993979653818782 0.31325590931240915 0.1484260647432148
0.16341465672953304 0.319812718260926 0.17526120830934638
0.2091901596496838 0.3012350233680427 0.1464193849698841
0.18858864864809688 0.33640134655300974 0.17801097918909187
0.16978865823252376 0.3078675302154243 0.19389835883539314
0.21453377565844234 0.33567911707226633 0.14836917210977668
0.1653630431602734 0.33504647337262033 0.17691026021402473
0.17159062585337337 0.32953709684674143 0.19834659387033576
0.16528484186632808 0.28046286426846384 0.1735442071096241
0.1775165494392651 0.3166499765998542 0.1624716608659565
0.14764258226854976 0.319699409831208 0.18958316136758918
0.19381672105295833 0.3387028010970771 0.15568337727945442
0.15160235723955806 0.3397128018027961 0.19733975221078986
0.1553675826500195 0.3363273771888435 0.20915148545663947
0.1695991750667828 0.2888468536025703 0.1897223978177845
0.1872048672149914 0.3386265667564094 0.1604569642679035
0.15023049673540767 0.3373472126609504 0.19279001046579475
0.15093350371821102 0.33181423269574045 0.21391365815561408
0.20608720144732173 0.3394374283439338 0.15119312096994514
0.18554308971865352 0.3081774743682563 0.15410027791422004
0.197685509533717 0.3024797471648872 0.16441185165804023
0.16905236205561336 0.32718646847073435 0.20201579619806403
0.1602564152191418 0.3118759425765693 0.20557669688623542
0.1645589168976086 0.3025349410659492 0.17420292784135932
0.17226275763018306 0.3190355332976997 0.19855968047540778
0.1990372236679333 0.33697408758465647 0.16616214205186958
0.19626852831347164 0.3385469349509895 0.16513434935968513
0.19219341835482295 0.33154422365490793 0.17680127312105293
0.205975144715144 0.30026126228634714 0.1505763321058094
0.14996969661219295 0.28952271066967844 0.20730105925958747
0.21650692781908687 0.32885837875668406 0.14919052411478156
0.18946382364733394 0.3382203611022651 0.15686623145502204
0.20559284052355464 0.312472048628968 0.16050733019273872
0.17820227107508357 0.33744401060406565 0.16764549304407234
0.18336608967287715 0.31305587612454294 0.18416036058824653
0.1731207962940472 0.31354701839749216 0.1938659935132801
0.17304092607004817 0.26208401047055124 0.1865316121713459
0.1897214051197308 0.3242613109237373 0.18035901476305122
0.15212699732287105 0.33432007156674265 0.21215967227380866
0.1865575011680859 0.3398247989303291 0.16967079926889533
0.15164598783953365 0.3367937835342109 0.19166932393472785
0.1551476117084759 0.2927862437850654 0.18278116871278877
0.15854883155329402 0.3107955487853706 0.17967430640619392
0.18672695717318233 0.3384497197753608 0.16042859245699043
0.18367606362803157 0.3325847419387519 0.18469650436800117
0.16326355895502742 0.3267974289542854 0.20673171569269294
0.18997287711603816 0.3056796821242988 0.1483746855394184
0.2092044647644299 0.33639186941449045 0.15530816604059333
0.21140256485445674 0.31247455202404856 0.15302116562288398
0.15030366143686946 0.3386946352607429 0.19425193358820075
0.1995081003616589 0.30970180355374216 0.16539741445940132
0.175179987759425 0.32309633814160227 0.1956588118211567
0.2100388105819958 0.33928937040631174 0.14573723961275215
0.15457862576945003 0.3219034703857124 0.212345340742284
0.21197226604921993 0.3148610623962104 0.15486107160013313
0.15332972964747127 0.31495547615353464 0.18443153191965217
0.18129166922075923 0.32216775738064646 0.1588071375028431
0.16168063840372737 0.31111413561169504 0.17684237052362556
0.15953743419153865 0.3095985087043464 0.20515839148920173
0.15810844263537105 0.3060025604850471 0.1800727932588398
0.19229078254206355 0.33296734415356516 0.14735788990419502
0.20645210108263667 0.3347947033530891 0.16030869771402473
0.1674859519909161 0.33166772447888254 0.20178298045557136
0.17431762775881465 0.3315399321204841 0.16666228462617988
0.17094224652750667 0.3124788435584724 0.16844818879526252
0.18956384024126705 0.3095784815437019 0.1760301380292713
0.1943360861252087 0.30246091209713816 0.16822091628473396
0.1545297797630566 0.3284717234260261 0.18344695259492988
0.1460294421623486 0.33961415611569284 0.20469627667825813
0.16986551842196163 0.3341442974693 0.19743345071237678
0.15084528884394344 0.2902365955001533 0.20659742642801399
0.19579431375963863 0.3109715613013923 0.17021674801271552
0.17592823466761287 0.31178284012143015 0.19098482419412727
0.173375606150462 0.33743548713986277 0.17172033478181953
0.18229269942743953 0.3173420461303413 0.18696744133394355
0.15574991664393123 0.3020391496307075 0.2038529901639759
0.21578571161730464 0.3311509522086799 0.14985660602014655
0.1693373020599621 0.3335983785278022 0.17185572673242683
0.18666711410982784 0.33507496439282297 0.15558407594125861
0.16739478668673213 0.33175808512036203 0.17276371408861274
0.18718159160120662 0.3386161359435737 0.16039151836794013
0.18250319323046382 0.30631345831219553 0.18094725300233955
0.15013781151278194 0.3130957516318977 0.2129641561643421
0.20604082903368648 0.3247088822013557 0.16337881375711555
0.1950275894115704 0.33764404379193186 0.14809776235979194
0.20316442808611568 0.3003049524909675 0.1546467630998432
0.1532434221218365 0.32020515524212717 0.2130794911519825
0.15222263297541316 0.2999106677657783 0.20638368417184944
0.17401748857004817 0.33633178793255686 0.17046133567255134
0.18019154629213985 0.33762300335232615 0.18308038402956123
0.20311126074297603 0.3394885691291511 0.15272034098070258
0.17460921368105586 0.30379957281414866 0.18743036080759162
0.1928700502823132 0.33913719974820017 0.15827388454836006
0.21594968399508174 0.32653642021481394 0.15049345184724922
0.18405607304079707 0.33332705818478464 0.1838922886983692
0.17062523922426875 0.29277962766949533 0.1888102381364643
0.16526043376429256 0.3156209024078071 0.20201680947702522
0.21299412807924922 0.32082623564068674 0.1550188152925312
0.19360136947138484 0.30986672960583567 0.17143327881258125
0.17066988310320552 0.30604040943447947 0.19216335703294868
0.2113329466293591 0.323852721083802 0.15718347717683906
0.1888683434437054 0.3390765222198188 0.16386265446107978
0.1750913854549664 0.3034058245307624 0.1868098764554798
0.1849167939136761 0.32268876158062815 0.1548519222871601
0.1470904942463177 0.3244724901801765 0.19013110686700935
0.15458577832682308 0.3088859947807014 0.20740453292291755
0.16023042759401973 0.3102234634048164 0.17815146733682746
0.20824375709994014 0.3117936285621345 0.15557886053484077
0.17302370032770809 0.33869570814434885 0.1843094020025074
0.17407861313326534 0.33873254381482004 0.18069899965685005
0.20902141890032466 0.3098378213531196 0.15242088724535102
0.14929774364931758 0.3197580011970222 0.2155300765172779
0.2031982835243481 0.30694264494244455 0.15839541841905708
0.18696352800829585 0.32403785311047434 0.152352163089925
0.1845418806980389 0.338908496726197 0.17648918320100898
0.1997463997314709 0.30263656698529123 0.16170618821542854
0.162968575568034 0.3116672071105659 0.17566595364969367
0.16800701579554256 0.3135145338660896 0.19982186843317146
0.19346597752077754 0.33400637232128977 0.17449478198450202
0.16141408643229183 0.3393795522338569 0.18976626683633918
0.20308223328097041 0.30343461357418894 0.1559011428491413
0.17913109025461849 0.33603847347561716 0.16396925736826057
0.18613454660875972 0.3207807572967231 0.15337679673593635
0.1856155689667004 0.3131070169097602 0.18168214847009773
0.18080750069124873 0.3384936483985603 0.1808677106038868
0.19052749833567317 0.3395565780288398 0.16387406875055427
0.158809959502055 0.3199200662261665 0.17943636466425056
0.16547015270693477 0.33858192287747263 0.19463051248949165
0.1470086570690411 0.3133713039046943 0.19016338278215522
0.17531278690798457 0.30514407478634714 0.1644736914769947
0.15670543870432552 0.32382256113354563 0.21101532269876594
0.1650980707119244 0.3262870343810737 0.17384243894975776
0.20861145815355953 0.31467962585751413 0.15728864957254524
0.16516497692568477 0.31993365608517527 0.17364306141298408
0.20727243980868038 0.3162807258254707 0.16096014667909736
0.201189189762904 0.32713556610409616 0.16835028816621894
0.18124321064455684 0.3377320798522651 0.18245012451570625
0.20481488069994624 0.3251234921104133 0.1646490185396015
