ply
format ascii 1.0
element vertex 182
property float x
property float y
property float z
element face 0
property list uchar int vertex_indices
end_header
-0.21759665196666048 -0.0617857472449085 -0.02813804599656
-0.22358684426078126 -0.06920893950755803 -0.019148533076180363
-0.22714409416446016 -0.06181507273013799 -0.02647319886101618
-0.21936945801505373 -0.06614961190517156 -0.024117295473946476
-0.22402021473178194 -0.06977786584193914 -0.018154059380425358
-0.22802208548316286 -0.06437890692050664 -0.02408957931412592
-0.21663169747123048 -0.06968339247997014 -0.020328436821831608
-0.23227037673720644 -0.06477104587848394 -0.022719477146996403
-0.22596365397700593 -0.06659682555492132 -0.02210152599228754
-0.21439279800185487 -0.06608923240001409 -0.02524793598069086
-0.2320991921974115 -0.06704985065753667 -0.019914035529030705
-0.2319723237110071 -0.06794454617793767 -0.01858348104370966
-0.21167297845610902 -0.06420092745120733 -0.027400706738366032
-0.22551934605368898 -0.06354977650935857 -0.025399599999321842
-0.2108294684244089 -0.06912501616771428 -0.022580717533959294
-0.21601626461276338 -0.06994940800960271 -0.02012786719216242
-0.2308252621246271 -0.06339942379291265 -0.024467860192192936
-0.21501511519679353 -0.06864776177699773 -0.022109602421654606
-0.22447788899668977 -0.06554030342395513 -0.023649488419426823
-0.2163780797077112 -0.06695349974925725 -0.02378622147454157
-0.21885107641944215 -0.06474505825336187 -0.025583480328453923
-0.21225097959765718 -0.07139899297054021 -0.019183819025887394
-0.21796566432246492 -0.06360237760837285 -0.026726965636147404
-0.22335364108809755 -0.06262566609676092 -0.026547585457695866
-0.23018497412928865 -0.06822319789226262 -0.018693451613320256
-0.21250699644812868 -0.06554849906261175 -0.026094232529534245
-0.2279171366048746 -0.06502335233981817 -0.02347484681023493
-0.21765802984961793 -0.06809519691760747 -0.0220897540749444
-0.21196846848258302 -0.06689359708125799 -0.024900560110939884
-0.2295461464477472 -0.063336570694997 -0.024767731160057926
-0.21167439406642244 -0.062488098576619314 -0.028512869805230046
-0.22735700195559785 -0.06527065201099126 -0.023327712744606877
-0.22545482402571962 -0.06487156911189763 -0.024153266877068424
-0.22173547929057405 -0.06735919876392095 -0.022145037382973576
-0.23053492789992616 -0.06850310130412786 -0.018137459486855412
-0.22592891937026308 -0.0689411358385822 -0.01889113041771784
-0.2263285238099985 -0.06566222472484319 -0.02311829182518854
-0.225799771006196 -0.06784068508441655 -0.02051669809235468
-0.256030546481698 -0.06228061480815618 -0.01858088824166193
-0.21643898075351045 -0.06518681807811467 -0.025648866623772526
-0.22967979496249483 -0.06815560622508733 -0.018940810889138127
-0.21738331204184816 -0.06780712766940801 -0.022525702446831608
-0.24520778840312288 -0.06361712975795476 -0.021102373331917668
-0.22921762054690645 -0.06569953723247259 -0.022355948418511296
-0.21444350665339754 -0.07138677401836126 -0.018488590449227238
-0.21311932986506746 -0.06644119782741277 -0.025154684513939762
-0.2202746588540964 -0.06595103903110235 -0.024131302565468693
-0.23409578388461397 -0.06650032563502996 -0.020063762396706486
-0.2179014999223642 -0.0631430344134113 -0.027081523865593815
-0.21118833308944032 -0.06885971589381902 -0.022828821867836857
-0.21305330281981752 -0.07005762024219243 -0.02081618163002863
-0.23151363616713808 -0.06315969391162603 -0.024577920168770695
-0.21905209308394716 -0.06621607108409612 -0.02410534474266901
-0.2156213987422876 -0.0686488048582813 -0.02192461940659418
-0.21714568322428987 -0.06630124612148015 -0.024416451186074162
-0.22974732702502534 -0.06652091903979986 -0.021295373171700382
-0.2258530724597864 -0.06586306257541387 -0.022991721362008
-0.21823197787532136 -0.06888331933315008 -0.020971928566826725
-0.2139686066461496 -0.07114632888133733 -0.018989060849083805
-0.23313509112128541 -0.06422751112277715 -0.023137901753319645
-0.22183814829119966 -0.06398182077701299 -0.025680069655312443
-0.21141600793132112 -0.0636269645243427 -0.027804140776528263
-0.21214424258002565 -0.06840070052440374 -0.02318531724823847
-0.2161198872877054 -0.06238536997134893 -0.027919058531655216
-0.21074818259009645 -0.06862278743083684 -0.023207072943581486
-0.21818965857753084 -0.0631074504404804 -0.027059291333092594
-0.22007394021281526 -0.0638231532126209 -0.02617744061364069
-0.21511335855254457 -0.06865697069461553 -0.022067461937798405
-0.23135136252173708 -0.06531106396014898 -0.022308383911980534
-0.21416367774733827 -0.07176541252429693 -0.01803946945084467
-0.23155979996451662 -0.0629115001707813 -0.024823103875054264
-0.22904516940841005 -0.06684966845805852 -0.021054987639321232
-0.2166815716577463 -0.0640149907618305 -0.02663919779671564
-0.21494411116370485 -0.067719955876424 -0.023295824259652043
-0.21899257784613893 -0.06954370899493902 -0.019957189291848088
-0.2135241795135431 -0.07032864256198613 -0.02029529663933649
-0.21786767428645418 -0.06425481005008428 -0.02619967314614191
-0.2108003664565973 -0.07054685516650884 -0.020856623381508732
-0.22684738224276826 -0.0647776917963764 -0.023972873419655705
-0.22877854293116853 -0.06742088957126348 -0.020272766083611393
-0.22289876824149416 -0.0685136513262531 -0.020321343869103337
-0.21192811613807008 -0.06254880590732305 -0.028438155383004093
-0.2193724382472925 -0.0678253070860645 -0.0220725581349267
-0.22584028726348207 -0.06192641420657842 -0.026635263890160465
-0.22972579484710023 -0.06457339687640874 -0.02352008673561945
-0.21357900088557527 -0.06298257870967595 -0.027926598519219303
-0.21166667526492403 -0.06873421831424444 -0.02288258525742426
-0.21975648587474153 -0.06718014641101568 -0.022787039011849308
-0.2249457258535318 -0.06327300234134405 -0.025776778191460514
-0.23199559932479188 -0.06807981891925542 -0.01836389753235712
-0.22326155191191957 -0.06831942959125249 -0.020506386488808537
-0.221517162377923 -0.06266163749988286 -0.026801203221215153
-0.21772578542956636 -0.06571238203342168 -0.024938945502175236
-0.2293267268491678 -0.06451218290622442 -0.023668442696465397
-0.22644367998370454 -0.0680278138666889 -0.020078097313774967
-0.23029467647799776 -0.06511290831859319 -0.02277410480393305
-0.2102544475150995 -0.07168706221873967 -0.019358401030434513
-0.21879933958777711 -0.0678192572146198 -0.022199843853844548
-0.2125411052061014 -0.06644691987331121 -0.025270019501580143
-0.22039975410231874 -0.06227247877414434 -0.027292911738289738
-0.2258642185283594 -0.06565483374889104 -0.02322951409233942
-0.2222536671710901 -0.0696486131697437 -0.018832568854226017
-0.21719080394038484 -0.06811123056705205 -0.02217627021683588
-0.24169662779101656 -0.06352325244243352 -0.02207297536744013
-0.2105596232963495 -0.07065313024814336 -0.020773832529915714
-0.22059224730262086 -0.06950684352214544 -0.01955253335846796
-0.22330787962207124 -0.0694950716048023 -0.01878583881272211
-0.21186310237178133 -0.07146688266093938 -0.019204084605111027
-0.24979886596926973 -0.06258805556590764 -0.02104750725640192
-0.21595680897959993 -0.06700395508105962 -0.02382216307534113
-0.22182502036818788 -0.06676580472285955 -0.02280694696320429
-0.21501311844119356 -0.06532444520290105 -0.02580592486275568
-0.21208055501708314 -0.06784849329288213 -0.023817305296791935
-0.22605833595523164 -0.06924285455043523 -0.018353734940422917
-0.22831128721961305 -0.06504916115100591 -0.023344968289269352
-0.21696743553408906 -0.06417860551173894 -0.026436273783577824
-0.23195019548663423 -0.0622514979391834 -0.025412653416527653
-0.21799154763945863 -0.06595521135623662 -0.024653171032799626
-0.2148655075384073 -0.06341322226817815 -0.02739838215721979
-0.22408783620127962 -0.06768025918300359 -0.021199260682000065
-0.22360919600257204 -0.06826241774852483 -0.020499412745369816
-0.2121727037979059 -0.06961419148738592 -0.021684293478859806
-0.22296570425757692 -0.06246249838168828 -0.026721094578637028
-0.22030964678057954 -0.06709249778087346 -0.022780124873055363
-0.2119566667629175 -0.06561919017131536 -0.02613491269959345
-0.22690995221862123 -0.06828906102473943 -0.019565556973351383
-0.22266593759784029 -0.06992792053516118 -0.018298064202202702
-0.2264602351737909 -0.06503378315265386 -0.023808364600075627
-0.22617048209437654 -0.06414275331790655 -0.02470872256173029
-0.2404178995443277 -0.062139977648808645 -0.02376744601143732
-0.23202116971740053 -0.06492074294383733 -0.02260429117096796
-0.22558580523261354 -0.06845303340251653 -0.019707416027916813
-0.22713908737429903 -0.06806914968784063 -0.019815866679085636
-0.22676740771064088 -0.06693064136798589 -0.021517400473488713
-0.21459701841601656 -0.06272967620189397 -0.027921889752282048
-0.25177924519309325 -0.06257753534610479 -0.020281259745491886
-0.24088570659884737 -0.0662681953459522 -0.018274848193062687
-0.21683883851298616 -0.07030167146022527 -0.019394074410332585
-0.21811649387606905 -0.06595330400760381 -0.02462774965180292
-0.21611197477111146 -0.06356539292628972 -0.027064178913964176
-0.22654193824061677 -0.06575878424937932 -0.02295381280793085
-0.22942355459460542 -0.06324483914668767 -0.024883602589501286
-0.23101492410430238 -0.06841142936046331 -0.01813540312661066
-0.22029841130503938 -0.065938790276601 -0.02413985583199396
-0.2178835887266092 -0.06984411640460698 -0.019825701445473576
-0.22724315708407686 -0.06919365091617315 -0.018052165240181828
-0.21879731302985475 -0.06989200873668401 -0.019475762575997257
-0.2124102879119806 -0.06971298618610113 -0.021478031605614567
-0.22136081939467714 -0.0683162705450794 -0.020958726138008976
-0.21576878612765596 -0.062480081751897024 -0.027902428835762882
-0.21478524988421724 -0.06675653620059697 -0.02442321631325617
-0.2174929398847513 -0.0695536927729389 -0.020294849604500675
-0.21834176963099763 -0.06534423394496648 -0.025145326584710026
-0.221745775992959 -0.06541251106555669 -0.024372343748940373
-0.22147946244010255 -0.06318571133907049 -0.026433889597786808
-0.211839171106904 -0.0664735929518482 -0.02538592073334589
-0.2233726251674585 -0.06417014165218084 -0.025215540856255436
-0.21304178422221468 -0.06878571672733037 -0.022527460783852482
-0.21337506359347627 -0.06392188830669134 -0.02731886956108942
-0.22037834113368318 -0.06902145309741704 -0.02027851793183222
-0.23159647172221468 -0.06259586377437322 -0.025139485329522038
-0.22602383976706789 -0.06880946917827337 -0.019075785607232
-0.21026455050238893 -0.06583534641559331 -0.026262734860314274
-0.21211952155360506 -0.07154854102428167 -0.019009505242241764
-0.22257474249133394 -0.06620978279407232 -0.023281429737938786
-0.24234849398860261 -0.06314795179660528 -0.022329960793389225
-0.21993500178584383 -0.06879331631953924 -0.020709548920525456
-0.22282007520922945 -0.06389837427432744 -0.02557743045700922
-0.22509238308200166 -0.06816848082835882 -0.020243023365868473
-0.21865508144625947 -0.06868266029651372 -0.021137450665367985
-0.22669390028247163 -0.0684775607138416 -0.019356821507347965
-0.2228720355583124 -0.0670844213515064 -0.022214387387169743
-0.22406065648326204 -0.06528641743953435 -0.024019692868126774
-0.22323017006644533 -0.0686187641173145 -0.020092700451744938
-0.25008984094390196 -0.06442665024097173 -0.018272583216561222
-0.2432032543970041 -0.06427483721072881 -0.020636771649254704
-0.21108119374045656 -0.06720291538531988 -0.024736706942452336
-0.21359630113372133 -0.06639270944888799 -0.025107567042244816
-0.22204134052523897 -0.06443708105380742 -0.025209490984810734
-0.23140879159697816 -0.06637104316051214 -0.021086011856926823
-0.2111249286485605 -0.07179280085857122 -0.018947456807030583
-0.22207854872474 -0.06522854132945745 -0.024469797343148136
