ply
format ascii 1.0
element vertex 263
property float x
property float y
property float z
element face 0
property list uchar int vertex_indices
end_header
-0.33530919438132567 0.10478372411434443 0.0031812444029913904
-0.3580689895702295 0.10834316448871882 0.0023055031596289637
-0.3403808940006189 0.10828093723957331 -0.0006400391758812902
-0.34721832161673827 0.10778603987400324 0.003152127534018612
-0.33336673861274047 0.10492489771549494 0.0010465040503607752
-0.34703697448500914 0.10829071240131648 -0.0019836470784081457
-0.33836223369368834 0.10592801408474238 -0.0036766872109307287
-0.3489414918971948 0.10843918757145198 0.0017108872233496668
-0.3354549575401239 0.10545427636806758 0.002744461566077328
-0.34573196058997435 0.10792402462665827 -0.002815906733406925
-0.33795990234145445 0.10734621720020564 -0.001402114361657047
-0.3508241344047479 0.10401395992939265 0.005643840104209042
-0.36073084359893126 0.10409695939724238 0.004931415587531186
-0.3521436322284631 0.10568086342518122 0.004718150168524838
-0.3574251699996881 0.10846595005695613 0.002061511546240902
-0.3580548334670953 0.10608337359134944 -0.00409085008515253
-0.36950101142653746 0.10786561207477839 0.002123440772162533
-0.3527264166427545 0.10535998182003291 0.004851515561209775
-0.3562070596767358 0.10767821507160456 -0.0034182712735070227
-0.3363864291263513 0.10521958307926448 -0.0035572991074456213
-0.3529102373672418 0.10447360114757807 0.005298788815604306
-0.35531182771453185 0.10570640401546748 -0.0045155033768548005
-0.33982657080420775 0.10538459853832514 -0.004350905150307559
-0.34702553039321227 0.10834680037205012 -0.0018416092099083898
-0.34665011053809447 0.10578538016979487 0.004699553519354916
-0.3367534447265558 0.1053272886723736 0.0033932879267798426
-0.3532875943733148 0.10808954672519953 -0.002921943396462345
-0.3585669565750055 0.10762224631016047 0.0034817114173041346
-0.34435965305098815 0.10738388733570368 -0.0039464280308617585
-0.3593797553134851 0.10886494354908259 -0.0004941866101159094
-0.3638854790283136 0.10770110325519831 0.0030795886813269617
-0.33523945694693846 0.10640088753406794 -0.0013294264973534582
-0.3451062608314447 0.10865656571094783 0.00029775050269231816
-0.35585095172652526 0.10789070563022883 0.0034380808173285486
-0.3435691762519769 0.10789630846683772 -0.0025433644951714514
-0.36398031001815123 0.1085992260426739 0.0015308215914832117
-0.3549013603282861 0.10817984776203425 -0.0027687296570672033
-0.35344319229850096 0.10834596590702326 -0.0022895977200402258
-0.3388041127277307 0.10691789822284968 -0.002733175486458683
-0.35135369187125487 0.10385776595775874 -0.005731974572075748
-0.3479007947994165 0.10859737829868586 0.001043583422766781
-0.3479109275890283 0.10628081397716792 0.004378731518851376
-0.357416169698327 0.10433481173221858 -0.005053792923821353
-0.33747865443953795 0.10636160807316096 -0.002906207770241642
-0.345388935859292 0.10700563625995906 -0.004240785569085025
-0.35668026095160765 0.10636470751468928 -0.004063968390358829
-0.354597019012063 0.10504458384220393 -0.004898224800957584
-0.3449935782504968 0.10776994661991389 0.002858813077078915
-0.3336994219375543 0.10445849137012751 0.0021861746607886316
-0.34199215656050963 0.1059909267873028 0.00421186831580267
-0.3621268737865381 0.10727749304477961 0.003379847079382992
-0.3435747790885858 0.1066196961850384 0.003922487765418149
-0.33425517564544005 0.10496772365276606 0.002217645913230038
-0.3485411274982385 0.10723132924740107 0.003844644099341488
-0.34409149175414366 0.10444803075496943 -0.005483453005684757
-0.3347118068290643 0.10589621500675471 -0.0010690436066521643
-0.3344420958114557 0.10563148097698481 0.0011960223017798426
-0.3390995729518823 0.10494805411999018 0.004421944886313534
-0.35762240176924986 0.10653374628727229 -0.003892724245919132
-0.3363825846267633 0.10431728796665461 -0.003932629555596256
-0.3379990327907495 0.10771457390491755 0.00023322847472295784
-0.3448245096755914 0.10814396576587947 -0.002121631831063175
-0.3654716778350763 0.10476915077869685 0.004217083722220517
-0.34093947892913146 0.10820619301502497 0.00018274334059820198
-0.3550816345764093 0.10874346928303034 -0.0011003360451592443
-0.35353331452140135 0.10396827296917231 -0.005530034035576724
-0.3331341612888269 0.10389260487262995 -0.0005627319516076086
-0.36030487900504393 0.10514004068081172 -0.004375939101113223
-0.3570323753906183 0.10830626921360285 0.002459521561728573
-0.3625436294628076 0.10609106259052546 0.0038586809931860926
-0.3514185417247705 0.10837707953159602 -0.002047781676186466
-0.3403946924758844 0.10584099130337031 0.004021818905936337
-0.34354292040595336 0.1086948914975384 -0.00038382861031427363
-0.3598934579444818 0.10737482742969783 0.003503854542838192
-0.3669037688327722 0.10651899413769038 0.003394509821997738
-0.36041478997000975 0.10671500401203425 0.0037704363165961268
-0.3567028511119775 0.10472999052707942 0.004971082478629208
-0.3511635530544214 0.10745320753757746 0.0037901356516943934
-0.33784030562171263 0.10670287446682246 0.0027196362315283777
-0.35824300533065123 0.10801736550037654 0.0030385210810767176
-0.3430424798084192 0.107650498911784 0.002885009318457699
-0.34869481807479186 0.10763220028583796 0.0036314680873023035
-0.34640388375052733 0.1074126763791302 0.003658200770484066
-0.35380168443450255 0.10903541283314021 -0.00028396102799310664
-0.34742255693206114 0.1071409090012768 0.0038849964438544275
-0.33859665876158995 0.10673363046352656 0.0029905989466773035
-0.3505596387935571 0.10674552159015925 -0.0042674884499444
-0.3495848644329004 0.10584671334926875 -0.0047686443032158845
-0.33672468548545165 0.10476241545383723 0.003829981356726742
-0.3702919054580621 0.10406936244671137 -0.003685091465844059
-0.3360377121520929 0.1068810327500561 -0.0006168231667412756
-0.3476091194702081 0.10841504769031794 -0.0017030582131279943
-0.3605649042678766 0.10583112673465998 0.004159237414466
-0.34397788530120177 0.10541553334896357 0.004731680422888852
-0.35108252053984923 0.10803584294025691 0.002737815648184872
-0.3628284502578668 0.1084190412015179 0.0019511535464392664
-0.35356362348326964 0.10695124702160151 -0.003977809876336002
-0.34192694907912535 0.10607178048794062 -0.004471664160622501
-0.3712740409923486 0.10724262432758601 -0.0020944819153679846
-0.36239044552573485 0.10536665754024775 0.00419389751540289
-0.36301745658644957 0.1078128023595074 0.0030816748438941004
-0.3497046697688989 0.10891161398594172 -0.0005784079731835363
-0.3735787141872339 0.10723106102649958 -0.0014419898690117834
-0.34524150377044005 0.1052488191575268 -0.0051511869133843416
-0.3551603425098352 0.10410002903644831 -0.00535345527542963
-0.34311621075400633 0.1078055305928448 0.0023995294867621424
-0.35123293286093993 0.10904256539051325 0.0003374173937903406
-0.3503646421981744 0.10560570196811946 0.004770512848960019
-0.3477297890735559 0.10594327287380488 0.004582340985404111
-0.35557849889525694 0.10835955576603205 0.0022638395129309656
-0.3428871799064569 0.10701246099178584 0.0036306038199530604
-0.35863505488166136 0.10886196331684382 0.0010421827136145594
-0.3337415624214105 0.10376311378185542 -0.0019854054154290197
-0.3375231493068628 0.10427312092487605 0.004535759955512143
-0.346077160890191 0.10812501148884089 0.0019995823203192713
-0.336876379306405 0.107267837092326 -2.1164149178409347e-05
-0.34129451399573607 0.10595447854702265 0.004108454257117367
-0.3504233527732782 0.10839174227421076 -0.001930509537590885
-0.3655149806095056 0.10500682429973872 0.004112537175284482
-0.34738718157538695 0.10545347170536311 0.004879887372122861
-0.35126586442717833 0.10802529291813166 -0.002920095652474308
-0.33412294274100585 0.1038263841122845 -0.0028083965481652258
-0.3619085419727258 0.10776148276035578 -0.002894823283089542
-0.3540278244567804 0.10413752035801203 0.005410368710623837
-0.34352670794257445 0.10784177021686824 -0.002672199934853458
-0.3429806995941095 0.10848579840366633 -0.0009752855004204748
-0.3374145794464044 0.10670117573444636 -0.0022317216099633215
-0.34342469459304137 0.10762695507709773 0.0030342295466528895
-0.33441870098838133 0.10384849743549616 -0.003014270991219425
-0.3541822898937158 0.10715250210468562 0.00390100029097662
-0.3593102264953546 0.10606957511608393 0.004142309695349789
-0.3655210900855951 0.10743347840015681 0.0030907347498999598
-0.3552550840927057 0.10685942606632502 0.004019404917822934
-0.3484822977138452 0.10905079083149226 -0.00015449973954095818
-0.334898577983468 0.10503081516926081 -0.002868448227776432
-0.3423107433868341 0.10516084270183833 -0.004975442618264102
-0.3389714229656152 0.10477430658046992 0.004522259503470517
-0.3412280250144891 0.10846678452198298 -0.0005199060143364904
-0.34758649950751586 0.10545993880932124 -0.005040143460167789
-0.35081725006827635 0.10590551333133967 0.004619474679099179
-0.3424065876556329 0.10483674244587214 -0.005151544541252994
-0.3417074251724176 0.10789607004825862 0.0015271261035071375
-0.354694800431817 0.10885528759662898 -0.0007936701477898596
-0.33417110329398436 0.10446230606739314 0.0026081755457983973
-0.34344123488196654 0.10387001471226008 -0.005734418362511539
-0.34438260083922667 0.10614697174732478 0.004284943610297299
-0.3586357403350763 0.10888652043049128 0.0009854390917883875
-0.34083287602195067 0.10654504136745722 -0.004015867442025089
-0.3519245553565912 0.10512254671757014 0.005018468171225644
-0.3376919496608667 0.10763488249485285 -0.0006845042408837316
-0.34060035830268187 0.1067463858575085 -0.0038485572041405676
-0.352002488429635 0.10670862631504328 -0.004194621771706485
-0.3386086690975122 0.10726151899997981 0.001999492913352108
-0.34660531764754576 0.10843376354877741 0.001208300858603573
-0.3680303264213495 0.10380424098675044 -0.004037354916466617
-0.3636076319766931 0.10768739418689997 0.003104294806586361
-0.35722665673026366 0.1082514329404095 -0.002415542334450626
-0.3361485767913751 0.10535390214626582 -0.00342128130806818
-0.360328482444375 0.10873256163303645 -0.0008207902611626623
-0.3442812431407861 0.1067955298871258 -0.004269127577675723
-0.34220086222419066 0.10720671252910884 -0.003899847000969791
-0.3497286308360986 0.10852710442249568 0.001520808011160946
-0.33881198054084105 0.10771326260273249 0.0007253244219885828
-0.3469505477500848 0.10447202162449153 -0.00558245632065668
-0.3398927617622308 0.10382551984493525 -0.005212192267311954
-0.3389603066993646 0.10801980929081233 -0.0005821332634819982
-0.34054251199492735 0.10563654737179072 0.004193003445731259
-0.34139605050811095 0.10775385336582453 0.0018366232215033533
-0.35412894373664183 0.10894707874958308 -0.0005362674893273352
-0.3422412741733484 0.1045551701039532 0.005208070546256161
-0.3514864016128473 0.10681871609394343 -0.00416985604180231
-0.3380387890888147 0.10757527785007746 0.0006482854186163904
-0.35803638582953734 0.10880337195102961 -0.0007501289547814367
-0.34560842996367735 0.10784850554172785 0.0027253582774268152
-0.3425491023612909 0.10739413933460505 0.003327693015204525
-0.3561858106208734 0.10868583159153254 0.0014668062029944422
-0.34989564305075926 0.10782192187015803 -0.0033335730732811926
-0.3608514237953119 0.10414985851948054 -0.004839633435143375
-0.340647565181344 0.10722635225956233 -0.0033281192482842443
-0.36082656865844054 0.10708899335567744 -0.003286962241066837
-0.34729825144538207 0.1057591541260937 0.0047021761237250334
-0.34738837366828246 0.10462189750377925 -0.005487774342430972
-0.34433008914717955 0.10871575312320979 -0.00017306658638849235
-0.3437935579372339 0.1086750431508282 -0.0006273135842217443
-0.34095882063636107 0.1080223126858929 0.0007811739741431238
-0.34701807981261534 0.10809896425907405 0.002234663039313412
-0.3340370226455621 0.10527635650341303 0.0017296924887763025
-0.3631331492019586 0.10912368731205256 0.0005606069861517908
-0.3650414515090875 0.10649315552418025 -0.0032326326073540686
-0.3428953457427911 0.10847357945148738 -0.000992570847405338
-0.34724454766043944 0.10740158991520198 -0.004035805195702457
-0.3508530128551416 0.10846434073154719 0.0017020359336005213
-0.36081831341513915 0.1050461037606457 0.004491533309088803
-0.3631120789600305 0.10842792229358943 -0.0015169129074944494
-0.34890262966880126 0.10836933092777522 -0.0018956408203972814
-0.35824664121398253 0.10892532305424006 -0.00038308355225458125
-0.3348847795082025 0.10395197109882624 -0.0032344803513421057
-0.34805803185233397 0.10877899365131648 -0.0008134290875329016
-0.3386151958061151 0.1077718539685467 -0.001026217669381046
-0.339881705100625 0.10565228299801142 0.004062111645804501
-0.34467430597075743 0.10549656586353572 -0.00497934672249689
-0.3471734393192224 0.10534221963588984 0.004951025515662289
-0.3464912045551233 0.10375634865467341 -0.005975191325081729
-0.3355678189350061 0.1063145204037884 0.0016207650004492762
-0.36082674747237486 0.10914025740330012 0.00045221593962774297
-0.3393536377502374 0.10743341879551203 0.0019036784468756678
-0.3447486925674371 0.10381678776447566 -0.005862568348778629
-0.33489890580901427 0.1046559019536236 0.0030861451922522547
-0.35529364829787535 0.10747406916324885 -0.0036055490673913
-0.36849926596411986 0.10458151535694392 -0.003766749829186344
-0.3476564455581598 0.1087745829076031 -0.0008004054726494787
-0.34517543202170653 0.10554612712566645 0.00472756770239935
-0.34443332439193053 0.10395468311016352 0.005711729794608212
-0.3422588873458795 0.10456059412662776 0.005205388337241269
-0.3477266598297052 0.10582829551403315 -0.004841481179131412
-0.34830855017432494 0.10797921852772029 -0.0028443083466423986
-0.3643693495346002 0.10660616593067439 -0.0032547459305657385
-0.3346440065456323 0.10598735050861628 -0.0007702753247155187
-0.3337517250133447 0.10467363433544428 -0.0006340489090813635
-0.3443558681560449 0.10756794647877009 -0.003487800091637516
-0.34098483806380553 0.1076224251240948 0.002065534859763241
-0.33989145046004576 0.10756073431675227 -0.002217476099862003
-0.35550601964721007 0.10620726184551509 0.004329617291556454
-0.37224133497008605 0.10745040611927302 -0.001762275427712345
-0.3413835633350305 0.10465417341892512 -0.00514939877404108
-0.35217605715522093 0.10533438162510188 -0.004903022974862003
-0.35577906852492613 0.10884449915592463 -0.0007571623028649328
-0.3575078118396692 0.10903296904270442 -0.00011015388382806755
-0.35211496239432616 0.1082787914723614 0.002196098834143734
-0.357643322999566 0.10612387494747431 0.004239465266333676
-0.3387394714904718 0.1054360671490887 0.0040117159186469084
-0.35034324413070006 0.10861078934376033 0.0013363316355811121
-0.34041293149718566 0.1080198688954571 -0.0013178929985894201
-0.35587080007323546 0.10822419361774714 0.002621914416419125
-0.3387203682018213 0.10732422308628352 0.0019250169097052576
-0.35948492770919127 0.10859725908939631 -0.0012688383759392736
-0.3491674829078607 0.10825500921909602 -0.0021994456948174475
-0.339654939229577 0.10403351025287898 -0.005038772553337955
-0.3618093300414972 0.10873256163303645 -0.0007100150288475988
-0.33530919438132567 0.10478372411434443 0.0031812444029913904
-0.3580689895702295 0.10834316448871882 0.0023055031596289637
-0.3403808940006189 0.10828093723957331 -0.0006400391758812902
-0.34721832161673827 0.10778603987400324 0.003152127534018612
-0.33336673861274047 0.10492489771549494 0.0010465040503607752
-0.34703697448500914 0.10829071240131648 -0.0019836470784081457
-0.33836223369368834 0.10592801408474238 -0.0036766872109307287
-0.3489414918971948 0.10843918757145198 0.0017108872233496668
-0.3607627320838861 0.10813162760441096 0.0025755718051062586
-0.35649956947097106 0.10880277590458186 -0.0008367345036400793
-0.3354549575401239 0.10545427636806758 0.002744461566077328
-0.34573196058997435 0.10792402462665827 -0.002815906733406925
-0.33795990234145445 0.10734621720020564 -0.001402114361657047
-0.3508241344047479 0.10401395992939265 0.005643840104209042
-0.36073084359893126 0.10409695939724238 0.004931415587531186
-0.3621549177719049 0.10728857950870783 -0.003102992504967594
-0.3521436322284631 0.10568086342518122 0.004718150168524838
-0.3580548334670953 0.10608337359134944 -0.00409085008515253
-0.3527264166427545 0.10535998182003291 0.004851515561209775
-0.3562070596767358 0.10767821507160456 -0.0034182712735070227
-0.3363864291263513 0.10521958307926448 -0.0035572991074456213
-0.3640537131381921 0.10834459500019343 -0.0016273007096184729
-0.364830093438714 0.10849599079792292 0.0016511633692847254
-0.3529102373672418 0.10447360114757807 0.005298788815604306
