ply
format ascii 1.0
element vertex 382
property float x
property float y
property float z
element face 0
property list uchar int vertex_indices
end_header
-0.20604546172194393 -0.3188051672278428 -0.03868636101319861
-0.20617212159209164 -0.3185248763857865 -0.03867435067727637
-0.20286974114947232 -0.32130748942480325 -0.03820445746018958
-0.20875395638518246 -0.3149499686060929 -0.03467690557077002
-0.20787209076456936 -0.31653417065725564 -0.03305691093041968
-0.20363043052725704 -0.3196615667639756 -0.0323963722570188
-0.20945749980978878 -0.31347856834516763 -0.03606369703843665
-0.20847980482153805 -0.3160300643740678 -0.031124975381637335
-0.21047214967780026 -0.31256080582723855 -0.03357207387521338
-0.2093496750073901 -0.309832015782454 -0.04098617642953467
-0.2111351917462817 -0.31226069644079446 -0.031800832448745486
-0.20925891203455838 -0.31630764320478677 -0.027937199769759894
-0.21030673188738735 -0.30686590984449624 -0.03706621736123633
-0.20994132561259182 -0.3065208585558915 -0.03890078872277808
-0.20886616212897213 -0.31719417288885354 -0.02577814072206092
-0.20553806228213223 -0.3201758356390977 -0.025270934997344733
-0.21193584603838833 -0.3103609772025132 -0.028729732929015876
-0.2097652832942477 -0.30487204506979226 -0.03975432723596167
-0.21139833135180386 -0.30541143730268716 -0.032693799434448
-0.20469191474490078 -0.3204010517893815 -0.022707965074325324
-0.20865398449473294 -0.31853453233824014 -0.022119935451293708
-0.20378599865012081 -0.320333907157042 -0.022047813831115485
-0.21149155301623257 -0.30379156187162637 -0.03265428155496192
-0.2114820609765521 -0.30296302750692605 -0.0328638216836698
-0.21268437606863888 -0.31384322956190347 -0.022603567539001227
-0.21156503064207943 -0.3013113828002 -0.03272357195451331
-0.2099328915553561 -0.2981906028090501 -0.03878879159524512
-0.20578619641833218 -0.32117260411367654 -0.01759928077294898
-0.2105490694718829 -0.29815045908079385 -0.03641169875695777
-0.21359821958117398 -0.30905739381895303 -0.0213119646890409
-0.21112642986349972 -0.3175649137793565 -0.017786856590057135
-0.21325363022856625 -0.30310354545698404 -0.02553385108544898
-0.20667135519556912 -0.32144845440969705 -0.017141725717330695
-0.2137798200326434 -0.3100943656264329 -0.01913126915528846
-0.20849844617419155 -0.32081852272138833 -0.01573890060021949
-0.21412503523402127 -0.3059440048037553 -0.02070679873063636
-0.21187352938227566 -0.2969531805811906 -0.03112956493928504
-0.2108973394113055 -0.3187773318587327 -0.015035685001159428
-0.21307296855025204 -0.31591505721197366 -0.015723910032058478
-0.2094639967160693 -0.29472354963407754 -0.04009925931527686
-0.2121282647328845 -0.2966288121043229 -0.030093725620055915
-0.2116479705052844 -0.2946877868472123 -0.03169318646028113
-0.21370756430201443 -0.312862017899611 -0.014646019635940312
-0.21452155513338955 -0.3058008046446824 -0.017659451661849738
-0.21311066848807247 -0.297028163224318 -0.025741960702682257
-0.20983643633894833 -0.29262537673101663 -0.03837772816255164
-0.2132108489947787 -0.2970313818751359 -0.02521496623590064
-0.2120177875237933 -0.31823972776518106 -0.0122903844697721
-0.213971657581853 -0.29946202948675393 -0.021460499463821173
-0.2116796950774661 -0.2929533512888932 -0.031228180824065924
-0.21446750862173947 -0.3010388703642869 -0.018065389095092536
-0.21365253431372555 -0.31613890245542764 -0.011325891910339116
-0.21467000050120266 -0.3067684562502885 -0.01426302999093604
-0.21405343515448483 -0.2977136464415574 -0.020854141412521125
-0.21240840656332882 -0.29275904014692544 -0.0281842312200315
-0.2145478109794131 -0.31102550938711404 -0.011839266715789555
-0.208274556227254 -0.3209774287043595 -0.00956746548249793
-0.2100775222259036 -0.2897952587901139 -0.03608151882722449
-0.2110552619176379 -0.3189131410418534 -0.009695198236251592
-0.2146936784463397 -0.30429495289907693 -0.013753469882751225
-0.21412581009440335 -0.3145596475897813 -0.00986215084626746
-0.21463806731276425 -0.30155871227369546 -0.014909025131011723
-0.21365213198237332 -0.2934898824988389 -0.022272672353530646
-0.2052966336684695 -0.32049489930258035 -0.007597055135513066
-0.2098655681090823 -0.28757832363233804 -0.035774733720565555
-0.21432874900870236 -0.29532370880232095 -0.01873388498857093
-0.2125903497415057 -0.2900318892298722 -0.026221182046676398
-0.21060240072779568 -0.286910930424788 -0.03269618362023902
-0.21336187226347836 -0.3139911086855912 -0.006722148357177495
-0.21457299394183071 -0.3088767619429612 -0.007752474246764897
-0.21432201368384274 -0.29317975953207254 -0.01818650573327613
-0.21084692878298672 -0.2859704287348771 -0.031325753627563235
-0.20885780257754238 -0.28465268924818277 -0.038572277723098514
-0.2148282806354037 -0.3008077235518479 -0.010569657979751347
-0.21479885084204586 -0.3023428113757157 -0.009361263213897466
-0.21282060248427304 -0.28728882387266397 -0.023933943210387946
-0.21340651614241513 -0.3128225298224473 -0.004522140918517827
-0.20259673697523983 -0.3199694545565629 -0.0032883247716672414
-0.21212880117468746 -0.2855899424849534 -0.02624779552056861
-0.21421752674155148 -0.3096355588732743 -0.004407312570358037
-0.20854256851248654 -0.3199210555850053 -0.0019479653222806445
-0.21036906344466122 -0.31755040004835366 -0.0020855030400998586
-0.21465255124144467 -0.2949745447932267 -0.011484589277053594
-0.2096599618869296 -0.2823000939188981 -0.032574530540252444
-0.21183258099131497 -0.3153058381377244 -0.002004381118560552
-0.21463933391146572 -0.29289583280668496 -0.011970486341262578
-0.2113393525557986 -0.28286353662595987 -0.0264292320592649
-0.21135613126330288 -0.2825534136591935 -0.0257903000695951
-0.2144730220513812 -0.30602274253950357 -0.0027568003518826955
-0.21466949386172207 -0.29413930490598916 -0.009342547355437993
-0.2070696036296359 -0.31988013699636697 0.0006506779806368358
-0.21173192364745053 -0.31479678466902017 0.0003560224191896923
-0.2073180506902209 -0.2791809828578019 -0.04048746436669898
-0.20858099860720547 -0.27886066749677896 -0.03664105743005347
-0.2146963308530322 -0.2990808875857377 -0.0043427011354215134
-0.2146614472346774 -0.2963672073184037 -0.005869772134567021
-0.21454120976500424 -0.3049981983004594 -0.0012167355401761523
-0.2140326480346194 -0.2871168048678422 -0.013811495004440068
-0.20999669832758816 -0.27935279324636697 -0.027921553550506354
-0.2146296928601733 -0.30392746046171426 -0.0013200303895719043
-0.207390470333623 -0.27751214221105813 -0.03900399416520667
-0.21435944540076168 -0.28929121211157083 -0.010580058990264653
-0.21439675790839108 -0.3052374811469102 -0.0002557000501401417
-0.2133092115598193 -0.28440497234449624 -0.01596426576211524
-0.21118660075240048 -0.2801359684763932 -0.022686984239364386
-0.2138076554017535 -0.3079349191485429 0.001574609579300166
-0.20943628055624874 -0.2775897772608781 -0.029090609250808478
-0.2093608061748019 -0.2771631570158982 -0.029339309631133795
-0.2142215947585574 -0.2888085038958573 -0.008841778932357549
-0.2127904425340167 -0.28238282516584634 -0.016007121501708747
-0.2123379985766879 -0.2811292798815751 -0.01736241191461158
-0.21395844025187405 -0.2863233478365922 -0.01024803131654334
-0.21121176881365689 -0.31460134103880166 0.004860285820221187
-0.2147202621179095 -0.2957353980837846 -0.0019353589399106494
-0.20752380592398556 -0.2742930443583512 -0.036709155736709354
-0.21447598738245877 -0.291746774464705 -0.00286277741029334
-0.20704334778361233 -0.31962854579077005 0.007295016350006343
-0.21467901570372494 -0.2929185421763444 -0.0014607271535642139
-0.2130638788419238 -0.2822223992644334 -0.011343594489837407
-0.21281526786856564 -0.3122330398856187 0.006682489217972041
-0.21467394930891903 -0.2983308227358842 0.0021441915647737986
-0.20859832865767391 -0.2736156673728013 -0.02725421994760108
-0.21374086839728268 -0.2852779419718766 -0.007105465827728032
-0.21129958135657223 -0.2773840518294358 -0.01773169249131751
-0.20508849424891384 -0.31949291542158365 0.008460316957687617
-0.2138471434789172 -0.2870996387301469 -0.004564788041854619
-0.2043457756715289 -0.3194450826941514 0.008761469425415279
-0.2133750895934573 -0.30810255721197366 0.007234160007690669
-0.21122850281767758 -0.3141650946436906 0.008601460756515742
-0.21295571131281765 -0.28131882265196084 -0.009828474221969365
-0.20769800049834164 -0.2716494591532731 -0.02998244374826026
-0.20726221603922756 -0.2706479223071122 -0.035868223605895755
-0.21449658078722866 -0.29910085514173745 0.004618290962433101
-0.21148524982504757 -0.27671448305235147 -0.01511364787652564
-0.21367819411330136 -0.3058223815260911 0.007625762523864986
-0.2114258090930453 -0.3137703032790208 0.009540204109405757
-0.2140358517842761 -0.3035554082690263 0.007267210783218623
-0.21448465985827359 -0.29704193189726114 0.004516426624511958
-0.21445202631525906 -0.2980377466975236 0.0050801971571199905
-0.2112703750806323 -0.2756901772318864 -0.014958795009399175
-0.20727707249693783 -0.26934913709745645 -0.03531041353776526
-0.2065686712937823 -0.2691624851523423 -0.03707834690644812
-0.20874549252562435 -0.27122406080351114 -0.023550536332870246
-0.20722172958426388 -0.26936704829321145 -0.029354091583038092
-0.21302421195082577 -0.28206009581671 -0.0049527546746976365
-0.21288789612822445 -0.2815502674876237 -0.005359198747421025
-0.2100249360280505 -0.2723392041026139 -0.01903763025834632
-0.20806202096514614 -0.2700918407736802 -0.024853583274627448
-0.2046191821771136 -0.3194053263960862 0.01220527678892541
-0.20719469887785824 -0.26844326570616006 -0.030703272519851447
-0.2075239549355975 -0.26921320870504617 -0.025893773732925177
-0.20843912465147885 -0.3170925469695115 0.012696866096710445
-0.20601583821349057 -0.26691571786985635 -0.037929978070998904
-0.21404653591685208 -0.28974358156309366 0.0037338772432558543
-0.20953358513884457 -0.270469257384398 -0.01962834209039283
-0.20769145888857754 -0.31798277214155435 0.013862941564773799
-0.2131910155492297 -0.28498456791029214 0.0009605923311464794
-0.2131479213910571 -0.30716891005621194 0.012134049238418819
-0.21059378785662564 -0.27229962661848306 -0.013954218326354741
-0.21169502837233456 -0.27625704720602273 -0.007620807586456059
-0.2139730582910052 -0.28942368343458413 0.0050111451761477
-0.21109291715197476 -0.27367750719175576 -0.010644253192687749
-0.21411858303122433 -0.2916118891535783 0.006842527689193965
-0.21285463673643978 -0.30832729652509927 0.013776395620559932
-0.21290916008524807 -0.28086052253828286 -0.0009681841714627735
-0.20550417704157742 -0.31954617217169046 0.015406999887680293
-0.21407332820467861 -0.2972982020674729 0.010306928457473994
-0.20708925826125058 -0.2662090750037217 -0.025135870872283698
-0.20961482626967343 -0.31541396096334695 0.015552703441833736
-0.20916692716650875 -0.26821924164877176 -0.01855605453088355
-0.2069828639703265 -0.26555112913236856 -0.025548811851287604
-0.2055889646487704 -0.2639011831580186 -0.03873475998475623
-0.20722310049109371 -0.2639484198390031 -0.03400063127114844
-0.21089580459170254 -0.2724027724562669 -0.009337629972244023
-0.20871618194155606 -0.3165982158480668 0.016820613445495843
-0.2139529566245547 -0.2960816414652848 0.011735562385772945
-0.21313406331114682 -0.2849458844958329 0.005633477272247554
-0.2126422057824603 -0.2812120707331681 0.00300461441442895
-0.21332829994730862 -0.30399898603544473 0.015471492113327266
-0.20813023848109158 -0.2652307839690232 -0.0204804798944242
-0.21271276278071316 -0.30806813552961587 0.01665279656813073
-0.21378986341528805 -0.2904068620501542 0.009871039690231563
-0.2135133723693362 -0.30264908984289407 0.015573863090729
-0.20651362640433224 -0.26161412313566446 -0.03638025730683875
-0.21075294715933712 -0.27117634728536844 -0.006910439430022954
-0.20685682994894894 -0.2628478200732255 -0.0253039559705503
-0.20682149929575833 -0.26167956903562783 -0.031248207984710456
-0.2074806223588458 -0.3182363004981065 0.019121412338470697
-0.2094303349929324 -0.26684884145841836 -0.013392772374892949
-0.2124161998706332 -0.2804002554713273 0.004689786733841182
-0.20697033209376248 -0.26047454193220376 -0.03345793098046851
-0.21204337281756314 -0.3120932073889756 0.019455019535278558
-0.2137083838658801 -0.29058260634527444 0.012435559334015132
-0.2101661543326846 -0.2682764919100785 -0.007770951686645268
-0.20872509283594998 -0.26399479225263833 -0.01506229847505164
-0.21287753982119473 -0.2835842759905839 0.009250793756698848
-0.20698472661547573 -0.2588589282332444 -0.033899333177352664
-0.21126900417380245 -0.31307403162107705 0.021036688389038324
-0.2073064575868121 -0.3184091837702775 0.02156731873915124
-0.21165491444640072 -0.27374241664991616 0.0011052528040163526
-0.21326482100062283 -0.2867028506098771 0.012049559654449702
-0.2112851421313754 -0.31302944734678506 0.021454457344269037
-0.2115161548333636 -0.2730290682612443 0.0011917987482302197
-0.20913634998373898 -0.2646529169379258 -0.010669763980651616
-0.21333205503992947 -0.30172417476759195 0.01957035452291894
-0.21306487721972378 -0.3034342916308427 0.02026343733236718
-0.21346717876963528 -0.2901849837599778 0.015310142339920283
-0.2085983882623187 -0.26285419777021646 -0.013011988101745366
-0.20747464699320706 -0.25971842721090554 -0.020409073529983283
-0.20425547463469418 -0.2569707424937272 -0.04125362247064185
-0.21344108683638485 -0.2954497726260209 0.018246892990326165
-0.21084919375948818 -0.2701521010695481 -0.0005731245858914845
-0.2134765814023486 -0.2936112375556016 0.01772997170851159
-0.20951790911726864 -0.2648691625891709 -0.007504846750045537
-0.20450980765395077 -0.3199408145247483 0.02377334624693322
-0.21206219298415097 -0.31089712098226785 0.023052755893921136
-0.207809029050397 -0.2596178145705247 -0.018367227016235114
-0.20577482683234127 -0.2557819874583268 -0.03784998863771033
-0.21268512112669857 -0.2834837229548478 0.01325387150213647
-0.20678931278757962 -0.2556096108256364 -0.03556233256890845
-0.21334972781710537 -0.2942165227232957 0.01945475131437707
-0.2114795873837939 -0.2749344499407792 0.007038328947281123
-0.21332102818064602 -0.2946604879199052 0.019883040489410638
-0.21208469373755368 -0.3102362842856431 0.02457148224279809
-0.20651441616587551 -0.2552416713534379 -0.02627005785539222
-0.21308970255427273 -0.3013283105193162 0.023341778816437005
-0.20984582407050045 -0.2635564596949601 -0.004479702411437749
-0.21287917894892605 -0.28495789483175515 0.016499255003189325
-0.20848297876887234 -0.3171853514014268 0.02653560429975915
-0.21115474206976803 -0.2742601127921128 0.009012911619400264
-0.206595091052579 -0.25369168236837625 -0.031089003978515387
-0.21043963534407528 -0.26526922896490335 -0.0009415110929257862
-0.21309707862906369 -0.2976737411318803 0.02316648155615258
-0.21309160990290554 -0.29049519613371133 0.020744923652862787
-0.20792126459650906 -0.25650463417158365 -0.01626285523011756
-0.2115813325124255 -0.277705231457808 0.013051454128479243
-0.2105555961804858 -0.266095021515944 0.0013424196855776319
-0.2080039809422961 -0.2570198865233445 -0.014547731576705693
-0.21136048240237149 -0.31272135093794107 0.027354870142196893
-0.21167850298457058 -0.278593161851027 0.01416203767225671
-0.2118802349048129 -0.2800120504199052 0.015278283657287837
-0.20868608159594448 -0.2597759754954362 -0.006816174684310674
-0.2073401491122714 -0.2539027126132035 -0.021340127883697272
-0.20843647224478634 -0.2588337154685044 -0.008097942767883061
-0.21039928299956234 -0.26756865695104837 0.004849348367904903
-0.21287426156573208 -0.2870164604483628 0.020363364519333123
-0.2121221999602786 -0.3085483701525712 0.02774298578665185
-0.2105073909240237 -0.26617629244909524 0.0035709777490847117
-0.2052145580726138 -0.2508860619364762 -0.03888463586404395
-0.20953807038836392 -0.3154782743750596 0.029186431469177484
-0.20812764567904385 -0.25613332703695535 -0.011932518182540654
-0.21049229604773434 -0.2644262106715226 0.0023129323141329295
-0.20804135305457028 -0.2552339525519395 -0.013837423024917363
-0.21013603908591183 -0.26926920726881265 0.008734826149200679
-0.20435918671660336 -0.320248195677855 0.030013118089889764
-0.20665159625582608 -0.251143792420485 -0.025421645341659308
-0.2110010365920535 -0.2746083827315354 0.014058623613571406
-0.20677186352782162 -0.2499153704939866 -0.03344887107446265
-0.2129163275437823 -0.29190907791242837 0.024635974468445062
-0.20684873861842068 -0.24968908146009683 -0.03536524981095862
-0.20727270645670803 -0.3193026573954606 0.03108361751005578
-0.2067806403117648 -0.2502132298050904 -0.024647500215316535
-0.2119298706727496 -0.30867654994116067 0.030746553243850946
-0.2127213905530444 -0.28974235966787576 0.025204930605148553
-0.20630068881087216 -0.2488540203867936 -0.02822562664582801
-0.21268307966761502 -0.2991416843234086 0.029062245191787957
-0.21251131398253353 -0.3024649710951829 0.030225727857803582
-0.21085800034575375 -0.27484397009001016 0.01712286859915185
-0.21115204495959194 -0.27717007115469217 0.018885318340515374
-0.20985989076666745 -0.2667601497469926 0.009848151506637813
-0.21268780333571347 -0.29705590918646096 0.028959307970260858
-0.20857676667742642 -0.25427536085233926 -0.00761484712197852
-0.21224821908049496 -0.30439666822538614 0.03145012647077966
-0.20988945467047604 -0.2691613526640916 0.013219151796554805
-0.2117416690068713 -0.3099545629321122 0.03255847484037805
-0.20805477900080593 -0.250949153452971 -0.013610359130645512
-0.20660951537661465 -0.2461772353945756 -0.031842376886153934
-0.20774927539400967 -0.31862000539884805 0.034246686996673825
-0.2082432786899081 -0.25167489960775613 -0.009774561820770024
-0.21023478908114346 -0.25960821822271585 0.0042842963354341995
-0.2123278210835925 -0.285410264283278 0.026370916666244745
-0.20674678487353237 -0.24664042308912515 -0.024854566751266242
-0.20875666839651974 -0.25234047487364053 -0.006838109193588017
-0.2111676315742007 -0.27784995153532266 0.02275088817045617
-0.21040139896445187 -0.2566996605692887 0.00165188700125146
-0.21061503691248806 -0.3133842439948106 0.035328511299347165
-0.20662043792776974 -0.24560474768266916 -0.025615420041824103
-0.21253479821257504 -0.29397363379583596 0.031176541151260614
-0.2080037574248782 -0.24828747823820352 -0.014589037595535039
-0.21152142984442623 -0.31061468437299966 0.03528553635046411
-0.20835289163165005 -0.25035847142324685 -0.008763458429122685
-0.20668969852499874 -0.24418211892233133 -0.032976802287841556
-0.20989280743174465 -0.2692298980055833 0.017417911590790033
-0.2124219964223376 -0.2964227588473344 0.0328547993318789
-0.2091428170876971 -0.25133741810903787 -0.005017962156081914
-0.20403657657675656 -0.24337060168371438 -0.041540350614333865
-0.20805300576262387 -0.247289428263762 -0.013558443485046147
-0.2103947679477206 -0.254160264283278 0.0010758081094973096
-0.2103184740024081 -0.2729514928160691 0.022039506735061883
-0.21210363311343106 -0.28630940034971475 0.0299997070448153
-0.2113120387273303 -0.31020397856817483 0.03706217199728418
-0.21019652289919766 -0.2564609141646409 0.005601380171036006
-0.20958190960459622 -0.26376975491628885 0.014807526172851802
-0.2035014758782855 -0.3216672928629899 0.03805378467008996
-0.20938679379992398 -0.25036496832952737 -0.0038699170930631154
-0.2095500062184802 -0.26411534264669656 0.015288535656189204
-0.21069356603197964 -0.31250748947248697 0.03787792116568017
-0.21023624939494046 -0.2726574631033921 0.02290591985151696
-0.21107330722384365 -0.27850637748823404 0.026997123064255
-0.21217845184378537 -0.28986496642217874 0.032698813976501706
-0.20970018012099179 -0.26201687172041177 0.013741556705688716
-0.2065694461541644 -0.32014656975851297 0.03874656945631433
-0.2116934935527316 -0.30447919085607766 0.03726902991697717
-0.20963761014513882 -0.26754594758138894 0.019611749948715448
-0.205473242230939 -0.2410054148732209 -0.03840508669450354
-0.20470161540083798 -0.24074151530847787 -0.04011195510461402
-0.21113769514136227 -0.2800718338786149 0.029298130573486566
-0.20650639934115322 -0.24042094662771463 -0.03613665312364173
-0.209960250087308 -0.25771636679754495 0.010506037773346187
-0.21201529902987393 -0.2889686317740464 0.03397581368849206
-0.20790795785956295 -0.24304656103239297 -0.016448762117172003
-0.2080325464683047 -0.2437084408103013 -0.013901170192504643
-0.20993296606116207 -0.25717795804128885 0.011029336752151729
-0.20857836110167416 -0.3160924704371476 0.04064509660170007
-0.20949071449808987 -0.26681081369505166 0.02141172081396508
-0.21189194721751126 -0.29591221526251077 0.037434760631775144
-0.20979131562285336 -0.27035281971082925 0.02454793840811181
-0.20950555605463894 -0.26231775596723794 0.018532399238800287
-0.20684931976370724 -0.2384461106358552 -0.034350212512756106
-0.20656680864863308 -0.2386316300927186 -0.031299229560638187
-0.21159118217997464 -0.2849158437548661 0.034227285684799436
-0.21042461497359188 -0.24953470543012857 0.0024171808378450877
-0.21176753742270382 -0.2885387332736039 0.035874996484970334
-0.21017211479716214 -0.27499491885290384 0.029231313766693353
-0.20822885436587246 -0.24294314697370767 -0.009901102481628178
-0.20934150917105587 -0.2658401818572068 0.022847924532150506
-0.21039676470332058 -0.2767209203539872 0.03070706516668725
-0.2114485780673495 -0.30038289144621133 0.040531102718567136
-0.21067206365637692 -0.278951683789351 0.03231162220404077
-0.210571600027608 -0.31095955684767007 0.04251534134313989
-0.20631965798907193 -0.23768717959509134 -0.028467770515228034
-0.20980784101061734 -0.31301910594091653 0.04304471999571252
-0.20750686330370816 -0.23881241098032235 -0.02031251400544715
-0.20982186300330075 -0.24553159788236856 -0.0018386206014401904
-0.20717729432158383 -0.23835931137190103 -0.022290047107482672
-0.2078186850028506 -0.23912540987119912 -0.018300231395507575
-0.21116965813212307 -0.3024767728148484 0.041959379018997434
-0.2107455114799014 -0.30701966002569436 0.042804662288879636
-0.21014164192252072 -0.22512630537138223 0.008033190073227168
-0.2081601898150912 -0.2322473616896653 -0.011373128591323613
-0.20965757770113858 -0.21921362891779184 0.015770737232422113
-0.20433322889380368 -0.250990742593863 0.03303447753355432
-0.21008877260260495 -0.21399589791879892 0.009062979521011592
-0.20445906920008572 -0.21682837024317025 -0.041061784921432254
-0.20306518477969082 -0.2484905065594697 0.037767443956588986
-0.20703069669775875 -0.22333008959875345 -0.02318945139482093
-0.20937877697520169 -0.31036577537641763 0.046443496050094846
-0.20915290517382534 -0.25302896812544107 0.02169660121366906
-0.20574708087019833 -0.22813146725282907 -0.03805240601136756
-0.20819304687552365 -0.21129555419073343 -0.01078337043359351
-0.20900320810847195 -0.20828058734522104 -0.005721326766753911
-0.2062165717559329 -0.21659899666891336 0.028594855369781732
-0.2062165717559329 -0.21659899666891336 0.028594855369781732
-0.20262433392577084 -0.23479422345743417 0.04120371133253503
-0.20572934848837765 -0.22518553748712777 -0.038100655971313235
-0.20384119255118283 -0.23394335225210428 0.050246033968185666
-0.20317119164042385 -0.2636178226767564 0.05386099606916833
-0.20854076547198208 -0.23439302459345102 0.027018521131729364
-0.2070758621173373 -0.2368148805199647 0.029327009023880243
-0.20427448851637753 -0.2123281599579835 0.04178384334013391
-0.20891479951910885 -0.22242254927740335 0.024178777040695428
-0.2102291266398898 -0.2386502565442109 0.006340239347671748
-0.20821395320467861 -0.22907201364622354 -0.010291632114196538
-0.20854076547198208 -0.23439302459345102 0.027018521131729364
-0.20359694761805447 -0.21012266889200448 0.03256118685171533
-0.20566175682120236 -0.2736573012171769 0.04634598285124231
-0.20982472402624996 -0.24319023802862405 0.013225738109802486
-0.21008877260260495 -0.21399589791879892 0.009062979521011592
-0.20653052432112606 -0.22391516879186868 0.03059170037672448
-0.207300377913045 -0.2891485781966233 0.05385148912832666
-0.2039499710278979 -0.23002865329370736 0.04939785987303186
-0.20291612846426876 -0.22775616660700082 0.055554960073684934
