ply
format ascii 1.0
element vertex 647
property float x
property float y
property float z
element face 0
property list uchar int vertex_indices
end_header
-0.03498588306479366 -0.3174832852183366 -0.20812029748990607
-0.030999435015248367 -0.31776089385137796 -0.20821478575303626
-0.0398383269982806 -0.31161595299825906 -0.21084875970914435
-0.03779972893767269 -0.3119323642550492 -0.21095287412240576
-0.038566572495030475 -0.3107495100794816 -0.2112831434591062
-0.03568468792014034 -0.30829511001692056 -0.2117053380592115
-0.039527637787388874 -0.3102021010218644 -0.21119753628804755
-0.03910691840224178 -0.30764017418012857 -0.21134693533017707
-0.03551010591559322 -0.30028746440992593 -0.21191273242070746
-0.03627784354262264 -0.29720369890318155 -0.21169170349671912
-0.040435923166798664 -0.29523385480032205 -0.2108200749738462
-0.040739787645863605 -0.29344324186430215 -0.21068995803430152
-0.038466734715031696 -0.2857350499926591 -0.21063446611001563
-0.033121777601765705 -0.2773707301913285 -0.2064749261720426
-0.035349799223469806 -0.2826997430621171 -0.20967599361970496
-0.03457514745764644 -0.2766076119242692 -0.20626946896150183
-0.036290032692479206 -0.27748710826025247 -0.20682681709363532
-0.036472363300847126 -0.2784854562579179 -0.20712129384114814
-0.03674061400465877 -0.27336589410887 -0.2063892295940168
-0.038599533863591266 -0.2748243005572343 -0.20674703627660346
-0.03489111167960079 -0.2690070064364457 -0.20594878107144904
-0.037388665504979206 -0.27096168115720987 -0.2064262738807447
-0.03196386797003658 -0.26332888916120767 -0.20403124004437995
-0.04036287767462642 -0.26362107112989663 -0.20583751410081458
-0.0327797959523669 -0.2666470201312089 -0.20524642973973822
-0.03758714897208126 -0.25962061598882913 -0.20587902873590064
-0.03461991054587276 -0.25981066539869546 -0.20500544816091132
-0.038927478619145466 -0.25368250325308084 -0.20575303941800666
-0.032171351738499714 -0.2579606266318345 -0.2043050488813169
-0.03218985898070247 -0.2579030187426591 -0.20430983215406012
-0.036495013065861774 -0.2549018950758958 -0.20549204557969641
-0.023099554606007645 -0.3197264464198136 -0.20348362237050605
-0.025168640442418167 -0.31352863624677896 -0.21117347091271949
-0.024880273170994827 -0.31443763688192605 -0.2106427511556394
-0.029896689482258865 -0.3142624290286088 -0.21038475245072913
-0.026482386417912552 -0.3102357776461625 -0.21212704092099738
-0.029983682461308548 -0.3113356621562028 -0.21193268507554602
-0.02679936391882808 -0.30925164535627603 -0.21216894298627448
-0.029362780876683304 -0.30359665468321084 -0.21235505848958564
-0.03307734233908565 -0.30313382461652993 -0.21214337259366584
-0.01961712343268306 -0.31999571040258645 -0.20570517688825202
-0.015653354950474808 -0.3199001641570115 -0.20386828094556403
-0.020819825954960892 -0.320013740807631 -0.20753545671536994
-0.020639253683613846 -0.31953630760298013 -0.20784733801915717
-0.0191481242852679 -0.31591124251470803 -0.21021569877698493
-0.02300341231398494 -0.31581939175710916 -0.2099408617599256
-0.02097926837973506 -0.31215629890547036 -0.21237565189435553
-0.019065452642964432 -0.3063596279917741 -0.21297147482469153
-0.023931128807591507 -0.31058661058531045 -0.212304275332237
-0.01852883202605159 -0.31122309878454446 -0.2127530536039121
-0.02482901317648799 -0.31021241262541055 -0.21224538594319892
-0.025341702528523514 -0.3077699036894822 -0.21234531313016486
-0.02957023484282405 -0.3007309825716996 -0.21242285877301764
-0.027068687506245682 -0.29564050748930215 -0.21253007262780738
-0.033616615362691 -0.2990871758757615 -0.21214958637788367
-0.028584344215916702 -0.29326114967451333 -0.21239424854352545
-0.029767108984517166 -0.2922340424357438 -0.21227433889939856
-0.0309584270196429 -0.2889708073435807 -0.2119831255061872
-0.03200961453490169 -0.28947595670805215 -0.2119240125997312
-0.02207027179770381 -0.29802424624548196 -0.21291806906297278
-0.021578682489918777 -0.2999924810229325 -0.21299789458348822
-0.023367864914464066 -0.29503519251928567 -0.21278041213586402
-0.024917287655400345 -0.2977414520083451 -0.21269389599397254
-0.025220794506596634 -0.29197237804517984 -0.2125847449882276
-0.01726235253386409 -0.2856672497092271 -0.21237569659783911
-0.02120350105338008 -0.28655327275381326 -0.21232615023686957
-0.01067109210066707 -0.3200726599989915 -0.20442425817086768
-0.009672356672810625 -0.3200033695994401 -0.2065090796334989
-0.008666409082936357 -0.3199136944113755 -0.20778126627042365
-0.0114785264211169 -0.318683037310698 -0.2085854819400556
-0.009713185854481768 -0.31485302165136575 -0.21121862143113684
-0.015455616541432451 -0.3147960396109605 -0.21098944157197547
-0.0119803677278033 -0.31330368831739663 -0.2121487966163404
-0.011560780830906938 -0.30989922001943826 -0.21316185206010413
-0.00936324698500545 -0.3048697800932908 -0.21368743091657233
-0.013907713718937944 -0.30869937852010965 -0.21320783704354834
-0.016379101105259964 -0.30213836744413614 -0.21341171473100257
-0.010862065382527422 -0.3023965747653031 -0.21381520837380957
-0.011035455294179033 -0.3033453316985154 -0.2137517145259626
-0.0035047958569994673 -0.3198861868678117 -0.20504687338903022
-0.002164406605290483 -0.32027647808180093 -0.20744199663236212
0.0009818841738232866 -0.31861157134161233 -0.20970260709359717
-0.0015443096833697065 -0.31611050084219217 -0.2115881106240995
-0.002753896542119096 -0.3157003314791703 -0.2116825392825849
-0.005788190193699907 -0.31550619915113687 -0.2111838570220716
-0.00408951742224605 -0.3111648352442765 -0.21350966006352973
-0.003166271276997636 -0.30683849170789956 -0.21401224642827582
-0.0038657019811144575 -0.3060641081629777 -0.214024867711807
-0.005738688536213945 -0.30797199323759317 -0.21367407947614264
-0.004661692209767412 -0.3054306598006272 -0.21401485413148474
-0.014722866840886186 -0.30105713918791055 -0.2135547658784635
-0.016563100643681595 -0.30104983761892556 -0.21341606587007117
-0.012239230700062822 -0.2997830303011918 -0.2137073835714109
-0.0135348270612231 -0.29529387667761087 -0.21349969118669104
-0.018257452078389236 -0.2967491836844468 -0.21320512503221106
-0.011705083675908159 -0.2887186796961808 -0.21308360606267523
-0.010752363033818315 -0.292522707730391 -0.21361083894803595
-0.011102629728840898 -0.28624884203062295 -0.21282197147443366
-0.014656824894475054 -0.2858674617110276 -0.21255997925832343
-0.002006513901280473 -0.3007448108492875 -0.21453211814000678
-0.002505285568760942 -0.29696194246397256 -0.21436091869905066
-0.0038856397347918257 -0.2981939406691575 -0.2142927458865888
-0.004483206100987505 -0.29405556038007974 -0.21412868410184455
-0.008381737299489092 -0.29861305072889566 -0.21396499484613013
-0.001787913866566728 -0.29092700198278665 -0.21421324819161963
6.778734154789601e-05 -0.2870962114630723 -0.2141910454614408
-0.00859473449759395 -0.29157076194868325 -0.21367603152825904
-0.0032381544785967573 -0.28686479642973184 -0.21379907041623664
-0.027032269068287918 -0.27591578081236123 -0.2042907735688932
-0.029458178110646317 -0.2848948629199052 -0.21180210620000434
-0.027472359962987015 -0.2843393774329209 -0.21172247439458441
-0.03166238767676265 -0.2848022373019242 -0.2115849664790876
-0.03241647584013851 -0.2797111959754014 -0.20835956543519568
-0.0329706500249377 -0.27883476927862405 -0.20751830547883582
-0.01735003096632869 -0.2803705127535844 -0.211671169696594
-0.02013011080794246 -0.2813158126173997 -0.2117593249662168
-0.02406014306120784 -0.2771213443575883 -0.20922359436585974
-0.02492214543394954 -0.28457454755888223 -0.2121337464435346
-0.023373318739461014 -0.2786943705378556 -0.21009577423169684
-0.025062603779362747 -0.27011860325918435 -0.2070707640035398
-0.025280905790852615 -0.2706743867693925 -0.2066563627107389
-0.02684797150664241 -0.2759272249041581 -0.20360354691579413
-0.020069224663304398 -0.27575297072515725 -0.20989271610810828
-0.018665833302067825 -0.27563045337782144 -0.21032927542760443
-0.02179913026862056 -0.2679534645377183 -0.2080271950347669
-0.022760076351689407 -0.2690646143256211 -0.20788253456189704
-0.023354275055455277 -0.26709783986196756 -0.20725686460568976
-0.025795442886876175 -0.2645868451891923 -0.20356663673951697
-0.01783324582152278 -0.2629739435015702 -0.2093092015369184
-0.016518188543843338 -0.26850045636282205 -0.2102535775287397
-0.019011361427830765 -0.2604437263308549 -0.20868971556260657
-0.023613823481129715 -0.26363630011663675 -0.2069179078920133
-0.02549396259360225 -0.2543878646193528 -0.20468657821252417
-0.025596840210484573 -0.2556681723891282 -0.20442165046765876
-0.025119436808156082 -0.2580315859614396 -0.20560982435777259
-0.018257571287678787 -0.25373844221220254 -0.2090975007398374
-0.01717065078787715 -0.25525940373525857 -0.20952872544362616
-0.01830394370131404 -0.25289116218672036 -0.20907874017789435
-0.01234309179358394 -0.2830775471030259 -0.21214167386128974
-0.010655356474446367 -0.2844460399447465 -0.21258802324369025
-0.013555837698506426 -0.2768492491541886 -0.21103062838151526
-0.011729432173298906 -0.27592320159063577 -0.21073589831426215
-0.011937005348729204 -0.2766387851534867 -0.2109021803720243
-0.015629721708821365 -0.27252922371015786 -0.2105788102729566
-0.0047837923245898 -0.2843460233508134 -0.21307889729573798
-0.00135676366858394 -0.2796394617854142 -0.21185099690988135
-0.006338132448720049 -0.2792384417353654 -0.21145104974343848
-0.008796406813191484 -0.2791381867228532 -0.2113330772502668
-0.00031645400099665965 -0.27545920923338174 -0.2110394945724256
-0.0011283288674822554 -0.27175084665403604 -0.2106720617397077
-0.005030019112156938 -0.27193758800611734 -0.21026099830701422
-0.0006341467576494917 -0.2690586240588212 -0.2103179654462583
-0.006733192034291338 -0.2753156812487626 -0.21075267702176642
-0.012380791731404375 -0.2659961970149064 -0.2098764589412458
-0.015664262600468704 -0.26864043787107705 -0.21026874691083502
-0.015914900131749222 -0.26132077887640237 -0.20963297396733832
-0.015980644054936478 -0.26270453050718545 -0.20976031929090094
-0.01181085211806209 -0.2599307389555955 -0.209573682246948
-0.013973189421223711 -0.258709767609694 -0.20956918209626746
-0.01424087388090999 -0.25285945251569986 -0.20959588497712683
-0.0017815361695757612 -0.26389137819395303 -0.20929398745133948
-0.0045459399896136034 -0.2680335731802964 -0.20951251298024726
-0.0074995885568133105 -0.26584396675215005 -0.209114458261276
-0.003314001389073442 -0.26113695815191507 -0.2089713177068479
-0.005757016964482378 -0.25834248378858804 -0.20952492564752173
-0.002400113173054765 -0.2566807658968949 -0.20938373714521002
-0.0038314889150133833 -0.2525686712561631 -0.2096836677177198
-0.0398426781373492 -0.24691987946615457 -0.2055441847427137
-0.03271128041319759 -0.25208736374960183 -0.2044254204614408
-0.03786887032561214 -0.24713067129240274 -0.20586913436486792
-0.037406129665898395 -0.2483064325152421 -0.20573900252416205
-0.03451810581259639 -0.24092415884123086 -0.20493374377324652
-0.036899609394597126 -0.23765542522058725 -0.20560212045743537
-0.037666810579823566 -0.23718605354414224 -0.20581696539952826
-0.03192455870680721 -0.2311240227519059 -0.20387957602574897
-0.039834363289403034 -0.231919714957335 -0.2055453917367704
-0.04057185155920894 -0.2338030280171418 -0.2053806444986112
-0.032131118603276325 -0.23367113783941507 -0.20426690190866065
-0.033194972105549884 -0.22938797786817788 -0.20456292837693762
-0.03176228506140621 -0.2228615076838517 -0.20353176802232337
-0.039083970614003254 -0.21902702167616128 -0.205725084839607
-0.03211881024413021 -0.22472072556600808 -0.20426429420545172
-0.03305734498076351 -0.22679626360521554 -0.2045259436948545
-0.03793816072516353 -0.22387131467447519 -0.2058953306062467
-0.03187800747923763 -0.2203636707364106 -0.2037745973451383
-0.038847191162633014 -0.2118897677956605 -0.2057815453393705
-0.04030914408736141 -0.2120791764555955 -0.20545100778176856
-0.034744782276677204 -0.21591263428316354 -0.20499714821412635
-0.034113986321019245 -0.2196962179242158 -0.20482392221524787
-0.03713552457861812 -0.2117940427361512 -0.20566869884564948
-0.03180788261465938 -0.20647881343946695 -0.20398941248490882
-0.03223694665007503 -0.21091649845228433 -0.2042958399636991
-0.038026554413365436 -0.20916693821535348 -0.20591973870828223
-0.025876922436284134 -0.2454096765814805 -0.20381684213712287
-0.017121327944325516 -0.24843589380369424 -0.20959293454721045
-0.024541778393315384 -0.244016745835402 -0.20641479998662543
-0.020619196720646927 -0.24540838018045663 -0.20808954149320197
-0.02564032179884822 -0.23743686988935708 -0.20448609798982215
-0.01736552817397029 -0.2417473138867402 -0.2095109334571607
-0.017951143808888504 -0.23895415082559823 -0.20927840083673072
-0.02222780687384517 -0.23768430367098092 -0.20745604842736792
-0.02324341041617305 -0.23651722982511758 -0.20703112691476416
-0.02568702203802974 -0.22954157903776407 -0.20444787651135993
-0.026006979771184036 -0.23152131751165628 -0.20361892491414618
-0.01798738343291194 -0.23195838347063302 -0.20935046285226416
-0.021503312416600296 -0.2307408691941285 -0.20782303422525
-0.02342869145445735 -0.2280003817378068 -0.2069598397596128
-0.025130523272084305 -0.22640413954839944 -0.20586518555715155
-0.02599595291190059 -0.22223878815756082 -0.203615989385391
-0.01799697978072078 -0.22403145745382547 -0.20934618621900153
-0.017702443428563187 -0.22383453860864877 -0.20947563260629248
-0.02225972516112239 -0.2236736507712388 -0.207468967734123
-0.023111088104771683 -0.2194714488087678 -0.20711446910932135
-0.01088781458907039 -0.25048221066580056 -0.20959996789529395
-0.014500422306584429 -0.25026134565458535 -0.20960335045888495
-0.016072137184666702 -0.2459260614214921 -0.20960449784829688
-0.009672207661198686 -0.24109897926435708 -0.20962418228223395
-0.012125564642476152 -0.24140141323194741 -0.20962078481748175
-0.010166747398900102 -0.23741267040357827 -0.20963650554254126
-0.01223937971167476 -0.23972798302755594 -0.209626491962219
-0.005380196400212358 -0.24919449701891183 -0.2096388152225263
-0.004265678949879717 -0.25069470122442483 -0.20966736584737372
-0.008633447714375566 -0.24995529070482492 -0.2096005937440641
-0.005386037655400347 -0.24175592675791024 -0.20965545981957984
-0.0033669303136339888 -0.2417570294438386 -0.20967605322434973
-0.008501572437810015 -0.23650808051214456 -0.2096434196813352
-0.008258862324284624 -0.23993522837743997 -0.2096337488277204
-0.010075343676137041 -0.2301835657654786 -0.2097187748534925
-0.011135352678822588 -0.2334291280804658 -0.20967715591027808
-0.015602452583836626 -0.2307581098376298 -0.209715586004997
-0.01657078964285762 -0.23182139709577798 -0.20970163851811957
-0.012384695835637163 -0.22615681007490396 -0.20984121769502234
-0.010130984612034868 -0.2257965447007203 -0.20984430223538947
-0.014426750965642046 -0.2218353541193986 -0.209829430876518
-0.016990495749043533 -0.2257488460837388 -0.20973606020047736
-0.001313907928990434 -0.22920779302702188 -0.20978821426465583
-0.0018065403180590376 -0.22961623385534524 -0.20977916925981116
-0.0077895055490008105 -0.2286896498499894 -0.20974528401925635
-0.008701844044255327 -0.23232520535574197 -0.209692369995857
-0.0027376244740954145 -0.2223945797978425 -0.2099672815187223
-0.003435267038868974 -0.22046583309755563 -0.21003861337735724
-0.005527926512288164 -0.22478061333284616 -0.2098762056215055
-0.025342447586583206 -0.21359711304292917 -0.2051568439586408
-0.025581402607487747 -0.21184111550436258 -0.20453455656602454
-0.02154554230742366 -0.21796242311582803 -0.20777281731202674
-0.02018712265067012 -0.2189339937268281 -0.2083704432828672
-0.022997779675053665 -0.21431306913480996 -0.2071041873080976
-0.019529743023442337 -0.21285557165727853 -0.20858288913800788
-0.024931801386403152 -0.20670550480470895 -0.20614499956204962
-0.017679614849614212 -0.2109560312329316 -0.20937661439015937
-0.019950581617878983 -0.20643937006578683 -0.20838149994447303
-0.013097418375538896 -0.21764066234216928 -0.20985793679788184
-0.01251353127531917 -0.21742048278436898 -0.2098790815456159
-0.01160977584891231 -0.2138993234931016 -0.20988189786508155
-0.011749518938588213 -0.21316426411257028 -0.20986663907601905
-0.011008007355259966 -0.20989965811357736 -0.20978065937593054
-0.011185301371144365 -0.2086086215077424 -0.20972074180677008
-0.014559281893300127 -0.20774945035562753 -0.20963534325196814
-0.0018878410535326704 -0.21870712354765176 -0.2100001981837995
-0.005862129755543779 -0.2164581806956315 -0.2099626621587522
-0.008047563858555864 -0.21873965278253793 -0.21001395195558142
-0.0029623935895434126 -0.2072711826859498 -0.20999590664937567
-0.0018385182099810347 -0.20942825987921 -0.20993299394681525
-0.00542931062750728 -0.20848480775938272 -0.20997833818032813
0.01633463995881169 -0.3141347558794999 -0.21260259657933783
0.01712282197899907 -0.3157436938582444 -0.21103897303178382
0.014887468985987593 -0.3094920010863328 -0.21404862016275
0.009879963569117476 -0.31403169944868325 -0.21338891595437598
0.009222196511698652 -0.31670252397642373 -0.2126135489328153
0.014448540381861616 -0.31897626236067056 -0.20985906928613257
0.012479769162608076 -0.3186695964633012 -0.21057292431428504
0.012710588149500776 -0.314633497744658 -0.21356428772046637
0.011762486867381025 -0.30900336220846414 -0.2143622747047193
0.01720066564507573 -0.30365673616514444 -0.21401612073018622
0.012788074187708784 -0.30270142272100686 -0.21406432598664832
0.009836690597010542 -0.29907543376074075 -0.21370887368753028
0.007194684915018965 -0.3103316815196061 -0.21400203913285804
0.009713308982325483 -0.3066870065032029 -0.21428057163789344
0.005177216700983931 -0.32107211068258523 -0.20557835310533118
0.0057224501890668165 -0.32082695677862405 -0.2044745793922193
0.004706250600291182 -0.317177990227797 -0.21150248855187964
0.00376217263169377 -0.3154653699694657 -0.2128119429929502
0.0032617916388043657 -0.3177407474814439 -0.2107931932790525
0.0022210945410260454 -0.3116739185153031 -0.21378889292314124
0.005872504882288862 -0.3086016567050004 -0.2140847256763227
0.0001650621218213335 -0.30990848854170083 -0.21398457497193885
0.0024640430731305376 -0.3059337528048539 -0.2143586537225492
0.011916117839289595 -0.32089231327162027 -0.20369897395207953
0.01217751400895207 -0.3209223242102647 -0.20629392176702094
0.01370780365891545 -0.3204773755370164 -0.2068314513547666
0.01663066642708867 -0.29903910472975015 -0.2140202930553205
0.01670770543046086 -0.2938812763987565 -0.2138172945363767
0.010207431487513472 -0.2943382652102494 -0.21339305847718787
0.008684503011179854 -0.2971433193980241 -0.21374046414926123
0.01098875897355168 -0.29649938061819314 -0.21351636558606696
0.016934888534022263 -0.28827000573263406 -0.21332768708303046
0.009437726907206465 -0.28790355637655496 -0.2129594346864469
0.013694392613840986 -0.2900704832373643 -0.21295226722791266
0.00586827295250981 -0.3037292154131913 -0.21444929748609137
0.005808847121668745 -0.30121193245039224 -0.2142869791372068
0.0007753242773541704 -0.2985982091723466 -0.21465126782491278
0.003444658688975264 -0.2976198883353257 -0.21431356280877661
0.006772773436976362 -0.28964281991110086 -0.21354232340886664
0.005607353620005537 -0.29330692604170083 -0.2138982525451429
0.004771279267741133 -0.2875226528941178 -0.21370674282147956
0.01863564746804326 -0.3196996541319871 -0.20561760276391577
0.021278815440607956 -0.3198694081603074 -0.20432680457665992
0.026311801843119553 -0.32003227785215616 -0.20611874371602606
0.026771562270594528 -0.3186092765627885 -0.20768975823953223
0.020542787484599045 -0.31870118692503213 -0.2087286373956449
0.023949490956736496 -0.31726242020712137 -0.20911307245328498
0.019760923556757858 -0.3122792334853196 -0.21237311869695258
0.020122932366801193 -0.3142669887839341 -0.21134386569097113
0.020344661645365646 -0.3077563138304734 -0.21340103059842658
0.025799142293406418 -0.30639235094175576 -0.2128344586475141
0.01839755671448796 -0.3074650259314561 -0.2136083206517942
0.01924015777535527 -0.30138916686163186 -0.21394176393582892
0.02774320738740056 -0.3201763422785783 -0.20355698078706336
0.030874030761195114 -0.31681943848715066 -0.20822466522290778
0.033238576821757244 -0.31404356077299356 -0.20972133785321784
0.02841003435082524 -0.31276110723600625 -0.21140050500466895
0.02990941899247258 -0.3120571763812089 -0.21160809308126044
0.027106361560297897 -0.31495592907057046 -0.210136066971565
0.03018771307892888 -0.3107420296965623 -0.21171222239568305
0.03201855915017216 -0.30926922872648477 -0.2115350624902494
0.02758144038148015 -0.30162433698759317 -0.21296301096513343
0.026314364842844894 -0.3083572180567765 -0.21257061868741584
0.026244150571299484 -0.30630568578825235 -0.21277144163682532
0.019303785733653 -0.2999487610159898 -0.2139592728002317
0.02436064379639714 -0.2996538968382859 -0.21346813052728247
0.01897828476853459 -0.29259089544401407 -0.21372100323274207
0.022458182744456223 -0.29521275475607156 -0.2136097362621076
0.02293642061181157 -0.29106215551481485 -0.21336470156743598
0.01904969113297551 -0.2884181530772233 -0.2133246621473081
0.017379151753855637 -0.2900058420001054 -0.21356731265618872
0.02938260333962529 -0.2997418136893296 -0.21266530066564154
0.03322218554444401 -0.2942545504866624 -0.2119577190263517
0.02801047461457341 -0.29611886456594705 -0.21288454145028662
0.02996452348656743 -0.29634744837866067 -0.21255118757321906
0.030845420531702927 -0.29175607278928994 -0.2123059591634519
0.03353668945260136 -0.2901354224978471 -0.21176047235562873
0.029776441029978683 -0.28603977873907327 -0.21218084901406836
0.014986382893992354 -0.28281469061956643 -0.21155677348210883
0.0126456190866956 -0.28020326212034463 -0.21153875797822547
0.010536389522028853 -0.28198365285978555 -0.2111560216529615
0.010032581262064863 -0.2804125638304734 -0.2111295869930036
0.007710175685358931 -0.2848451824484849 -0.21267310887410712
0.009523825816584517 -0.2819355221091294 -0.21160663276746344
0.0007661451620587603 -0.2838744314013505 -0.21350226908757758
0.0094945599359998 -0.278889575749495 -0.2107239326818235
0.009430306128931929 -0.2775448949633622 -0.21061452835633826
0.006941842011881758 -0.2750028164683366 -0.2105798235519178
0.010413812570048262 -0.27785728290663003 -0.2105761578662641
0.0015372504515179888 -0.2710220904646897 -0.21059766024186682
0.00471623437829106 -0.2703606577216172 -0.21035949498250556
0.014484392575694014 -0.27319143131361245 -0.21077124386861396
0.014429705314112593 -0.2729577811060929 -0.21076610296800208
0.010906146935892988 -0.27709547594175576 -0.21059469491078925
0.013228016070795942 -0.2736539335547471 -0.21068802088334632
0.007483707837534834 -0.26742769196615457 -0.20974798112943244
0.005231486730051924 -0.2624237032233262 -0.20900414496495795
0.0009525288862714068 -0.2663975746928239 -0.20994515329434943
-0.0010227690415850386 -0.2615342827139878 -0.20900818317964148
0.002838926486445357 -0.25846303418264627 -0.2089572659118421
0.006643520764780928 -0.25939084008322 -0.20879698902204108
0.00024239914841740285 -0.2578710706530595 -0.20907486587598395
-0.0004059503751269087 -0.25791258528814553 -0.2090868464095838
0.014897750787211348 -0.2627957256136918 -0.20999623447492194
0.01614467995591252 -0.26151118591413736 -0.2099636158330686
0.008647726945353438 -0.2661068232356095 -0.20968053847386908
0.013811128310633589 -0.2625114412604356 -0.2098199984414823
0.013036953381968428 -0.26129350975141763 -0.20951695352628302
0.012482123546076704 -0.2583217711745286 -0.20936235397889685
0.013413803748560835 -0.2607987017928147 -0.20949722438886237
0.007279293708277632 -0.2576729448138261 -0.20896948486402106
0.010223077706767012 -0.25517491415128946 -0.20935655742719245
0.024086462430430344 -0.2853642494975114 -0.2127831241472013
0.024252848796320847 -0.2796806783972764 -0.21103374272420478
0.022479580811930588 -0.2778380306063676 -0.21046943574979377
0.01731352703995793 -0.27926931694135904 -0.21089891701772284
0.023880617789698532 -0.2754154296217942 -0.2097219189985044
0.01806836026139348 -0.277797320633986 -0.2104356548173673
0.01801039474434941 -0.2692870588599229 -0.21012484639718604
0.019884871415568283 -0.27098790720091104 -0.20901231080129218
0.03163244026131718 -0.2842573912440324 -0.21103618651464057
0.03227190869278996 -0.28581244662389993 -0.2116917631013639
0.027991490535212448 -0.27901349380598306 -0.20959251731469702
0.02818142073578923 -0.27818683698759317 -0.2092004379613645
0.032546477488947796 -0.27330426290617227 -0.2066926619394071
0.03129698532052128 -0.2714784534274125 -0.20660969227387976
0.027537034921122482 -0.27412102535352945 -0.20843036085202765
0.02536942260689824 -0.2759408743678117 -0.20962635785176825
0.025968955926371506 -0.2732250483332658 -0.20865241795613837
0.021885054282618454 -0.2681002409754777 -0.2078666499240644
0.02005650299019902 -0.26303730323896646 -0.20841055720880103
0.01883970396943181 -0.26481092885122537 -0.20924245923593116
0.017367052010966232 -0.2603207023440385 -0.20943918436601233
0.018768238000346115 -0.25677756384001016 -0.20871810227468085
0.016557233504725388 -0.2561428637801194 -0.20978961497380805
0.0320417155546674 -0.2645001502333665 -0.20496084898545813
0.02919818656869023 -0.26350329235182046 -0.20540895670487952
0.025899546317530563 -0.2642981500922227 -0.20614932089879584
0.024946736268473556 -0.268580475598433 -0.20724741726949286
0.023706035785151413 -0.2611174376307511 -0.20648687690332007
0.02856742041535466 -0.2587100656329179 -0.20477957635953498
0.03177194493241398 -0.25593976095304727 -0.20416617005899024
0.028335886172724655 -0.2537204416094804 -0.20477352648809027
0.025286214522791794 -0.25601951196775674 -0.20573439806535315
0.026436047725153854 -0.2526835592089677 -0.20525319486692023
0.0427136589807996 -0.32058403804884195 -0.20400523751809668
0.03828849094338505 -0.32097009733305215 -0.2043239584548719
0.04227839606232731 -0.3191599638758683 -0.2063586673124082
0.037662761382533 -0.31844217494116067 -0.20699290543630194
0.04000370400376408 -0.3129625709353471 -0.20912094026639533
0.03635348575539677 -0.3145361335574174 -0.20917231947019171
0.03767354982323735 -0.31140888646230935 -0.2103881797178037
0.0417114366812238 -0.3023843260108018 -0.21009252577855658
0.03823442953057377 -0.30179176643476724 -0.21088867991998267
0.03528808253235905 -0.30472598388777017 -0.21130720883443427
0.045707451276255535 -0.31725854590521096 -0.20657196253373694
0.04509939449257939 -0.31756273820982217 -0.2065580448491819
0.04232911961503117 -0.3111624212561631 -0.20950181394651007
0.043879764251185345 -0.3118781240283036 -0.20880606382920813
0.04438735740609257 -0.30778671219930887 -0.2091544231755979
0.04478143351502507 -0.30591548398123025 -0.20911599308087897
0.042814480237437176 -0.3085212798415208 -0.20954361170365882
0.038902836017085 -0.29643593147382974 -0.21079080909326148
0.0418666769785413 -0.296634355336287 -0.21014785379006934
0.0359615256113538 -0.2933021576701188 -0.2113977482898481
0.04151074784226506 -0.293139824420073 -0.2102409264428861
0.035018013886881756 -0.2919070811568284 -0.21156030505731177
0.03958435552544682 -0.29257784202680825 -0.21063299089505744
0.034254180364085125 -0.28893662407980203 -0.21156610160901618
0.03591899769730656 -0.28992257431135415 -0.2112877628190763
0.04534028666443913 -0.2970924170313859 -0.20934755712583136
0.04283796446747868 -0.29313615873441934 -0.20994300752713752
0.04660572307534306 -0.2944678755103135 -0.20907009750440192
0.044623451404047894 -0.29241267755613565 -0.20953137785031867
0.04909067051835148 -0.2872454316912675 -0.20842963069512915
0.042303340606165814 -0.2915321977435136 -0.21003099888398719
0.057001667193842816 -0.3129499049483323 -0.20555643349721503
0.055758224896861004 -0.3114831240473771 -0.2064378520829923
0.05260671871132939 -0.3142982514201188 -0.20658631235196662
0.050664501361323284 -0.3133228810130143 -0.2069133332355268
0.05518724220223515 -0.30955336406812906 -0.20673444479539466
0.058300243787241864 -0.30973480060682534 -0.20590762406423163
0.05407192008919804 -0.30444968655691385 -0.20721467941834998
0.052248703412486004 -0.3026478679476762 -0.20752934723928046
0.049212323598338055 -0.30312699988470315 -0.20814993589952063
0.04915343420929997 -0.3056394846735978 -0.20811739176347327
0.059620367459727215 -0.3121003301440263 -0.20478273540570807
0.059453057221842694 -0.3144196362792039 -0.20365069418981147
0.06496910946793645 -0.3042647035418534 -0.20494731873109412
0.06345989005990117 -0.308299908190825 -0.20492383450105262
0.06257097619004338 -0.3037312121687913 -0.20549222439363074
0.06383483307786077 -0.3018376024065995 -0.20537910967900824
0.057833151988459515 -0.29424200370893716 -0.20641710966661048
0.05528263943619816 -0.2993296177683854 -0.20698119312360358
0.05518649714417546 -0.2928216250239396 -0.20699070006444525
0.05187283652253239 -0.29528496578321695 -0.2077029159648664
0.0514412094873914 -0.2949244172869706 -0.20781340807511878
0.057776885203791546 -0.2911730201540971 -0.206348966656471
0.05889924066491215 -0.28485158994779824 -0.205432977376724
0.054502980880213665 -0.2853200824557328 -0.20652293771340918
0.050402002505732464 -0.2875139506159806 -0.20796586185529303
0.06159849660821049 -0.2983092458544755 -0.20581462591722083
0.0637298692984113 -0.29324347689733743 -0.2053249290569074
0.061158673934412884 -0.296122858077147 -0.2058595231158979
0.0633462240023145 -0.2889058978854203 -0.20518503695561957
0.05856527584023564 -0.29001871660337686 -0.20605443030431342
0.03850843208260624 -0.2775419743357682 -0.2074732890708692
0.03466679351754277 -0.27682013228521585 -0.20739331453874182
0.04159505861229985 -0.28233806207762 -0.20891649633481574
0.04026709692902653 -0.28293989017591714 -0.20934946447446418
0.03824244635529606 -0.2818876595793748 -0.20928993433549475
0.03516863482422917 -0.2805257232485795 -0.20884987324311804
0.036487417392207074 -0.2715963812171006 -0.20608023911550116
0.045818017892313885 -0.27769593313322305 -0.2067883422954328
0.04370121853776066 -0.27621681407079934 -0.2065314015729673
0.0483555366320142 -0.27578202798948526 -0.20574788361623358
0.04640694158501713 -0.2848384173213029 -0.20866895824506354
0.0443344880861768 -0.2825735004244828 -0.2084537407739408
0.04629831211991398 -0.27225891664610147 -0.20531345516278815
0.042693184785319256 -0.27446983173475503 -0.2062448522432096
0.041072147063685345 -0.27275309875593423 -0.20596031457021308
0.041624831132365155 -0.2745526821909928 -0.2063986620290525
0.038617925815058636 -0.26891706302747964 -0.20516514390542578
0.037038134507609295 -0.26416648343191385 -0.20534656554296088
0.03604091899819462 -0.2633993418513322 -0.20510327428414893
0.03861467736191838 -0.25841898635015725 -0.20490339010789466
0.03661753433175175 -0.25695220544920205 -0.20468656331136298
0.03721536891884892 -0.25494388654814004 -0.20476439207627845
0.03744135992951481 -0.25525192335233926 -0.20479149728849005
0.0482351650518903 -0.26319135144338845 -0.20446988552644324
0.03959278958268254 -0.2688542397318864 -0.20504162818028998
0.041759329013300824 -0.2644295783339524 -0.2049434742315061
0.04604800241417973 -0.26303056791410684 -0.20468110948636603
0.043647663764429974 -0.2585024924574876 -0.20486750811173987
0.04195724623627751 -0.2603499682246232 -0.2049664667232282
0.041823851041270184 -0.25500074937925576 -0.20501923173501563
0.041913854054881024 -0.25722230389700174 -0.20499281197621894
0.05714296000428288 -0.28020296409712075 -0.20365410655572486
0.05071644680924504 -0.2802216799555802 -0.20645640402867865
0.05401815669961064 -0.2778650613127732 -0.2041086217744596
0.050733791760874676 -0.28405008628950357 -0.20762464016511512
0.06018491285271733 -0.28160853102789163 -0.20365725070073676
0.05059029357857792 -0.2667645008860612 -0.20342309385373664
0.06812153952546209 -0.30258373334989785 -0.20407208412721228
0.06622402565903752 -0.3108827264605546 -0.204084362684036
0.07000665562577336 -0.2989946992693925 -0.2035556843860395
0.06487320559449285 -0.2928786070643449 -0.2050825318677671
0.06752650635666936 -0.29223681405172586 -0.20425435513093543
0.06791384714074224 -0.2921809644995713 -0.20413435607984137
0.0649367739481458 -0.29126379802809 -0.2050110957010038
0.007033782176447798 -0.249171295910933 -0.20950091987683844
0.006411211661768843 -0.25196794584379434 -0.20953981190755439
0.0030690302176007525 -0.24588722899542093 -0.2095901480300672
0.0033741165918835894 -0.2476028145848298 -0.20959120601251197
0.007214235238505293 -0.23675676599130868 -0.20946505278184485
0.0011853744310864702 -0.242347040921309 -0.2096376082284696
0.0034226943773755327 -0.2377238364516282 -0.2095807155950315
0.01488660471863835 -0.2514450640975022 -0.20981628805234503
0.014696495704127241 -0.25263811066732644 -0.2098081073148496
0.010845290593577315 -0.24892292335615396 -0.20964723437860083
0.010808037690592695 -0.24671397522077798 -0.2096296510083921
0.011450456551981856 -0.24437501445398568 -0.20964434355332923
0.012415127925349165 -0.24404714420423745 -0.2096906414611585
0.014492677621317793 -0.23675049260244607 -0.20979295283391547
0.01336188810296147 -0.23681152775869607 -0.2097393682582624
0.006771700553370405 -0.22907006159410714 -0.2095036616904981
0.0064032246393689405 -0.23540730193243264 -0.20949428886010718
-5.091530852229442e-05 -0.23447900429353952 -0.20970747977330756
-0.0005992780404558882 -0.2311487586794877 -0.2097642979009397
0.004734354190302778 -0.22745410516844033 -0.2096005490405805
-0.00018228394560725536 -0.22078257217989206 -0.20998790472581458
0.0003292729181775347 -0.22211998119936227 -0.20992120712831092
0.014647530488444258 -0.23400693550691842 -0.20980067163541388
0.012811826638651777 -0.23255940690622567 -0.20971399158074927
0.007824407987070967 -0.23112272635088205 -0.20949314147069525
0.009984748534632612 -0.23197583273039102 -0.2095869889838941
0.013661014012766768 -0.22438991978750467 -0.20976294189527106
0.01597260134644597 -0.22427561297998666 -0.20986595362260413
0.011377291850520064 -0.22263764753923654 -0.2096908947808988
0.007848637275172163 -0.22043711855993509 -0.20959853738381934
0.019109504394007614 -0.2507031948863053 -0.20848968237474036
0.016735093764735153 -0.2523877711592698 -0.20965270310475898
0.017341243199778488 -0.24731711462126016 -0.20935371130540442
0.01880307691521733 -0.24144087150678872 -0.20864016920163703
0.01748450296349614 -0.2405384720860505 -0.20928307980134558
0.01716380017228215 -0.2389050514994645 -0.20943982511594367
0.028591530494166306 -0.2512355537711167 -0.20470681398942542
0.02835558550782292 -0.2462578506766343 -0.20473675042226386
0.023192154340220383 -0.25117279008016824 -0.2065689077956922
0.0230211188120374 -0.2456097395716691 -0.20664411395623755
0.03102164166398137 -0.24190872326479196 -0.20427070170476508
0.02803324358887761 -0.2419999183712983 -0.20478888958528113
0.026021467618418625 -0.2381707073746705 -0.20541491716935706
0.024031745366526535 -0.2386960180102372 -0.20623245447709632
0.020465569667292526 -0.2317215891181016 -0.20783693700864386
0.021054642371607712 -0.23549717083559274 -0.20754532128408026
0.018074320725871017 -0.2299101443587327 -0.20900025576188636
0.017507450751734665 -0.2282958270607972 -0.20927741736009192
0.01970954435296147 -0.2260290624199891 -0.20821596294477057
0.018765913419199875 -0.22148721829042672 -0.20867961257531714
0.031451987199259686 -0.2341177107392335 -0.20419545084073615
0.028788970879984787 -0.23290915206060647 -0.20465740173890662
0.025639759473277023 -0.23049269035444497 -0.20557674377992224
0.022824781112147263 -0.23082899466142892 -0.2067355623824842
0.023697571925593307 -0.2292728663979554 -0.20637791961267066
0.030119584969950607 -0.22577076569185495 -0.20443065076901984
0.028654920033884933 -0.2247906567154908 -0.20468839615418982
0.026022898129893234 -0.22433623090372323 -0.2054334989173658
0.025135414771510056 -0.2200405688582444 -0.20581580310895514
0.006377058200312544 -0.22033032193765878 -0.20964653402402472
0.0028725137037762896 -0.21405426576719522 -0.20990293830468726
-6.399852805049266e-05 -0.21726090624914407 -0.20996911436154914
0.006785797051859785 -0.20844162419424295 -0.20985406249597144
0.006711410455180098 -0.20604484692201852 -0.20983844607904029
0.014600144795847822 -0.21602670267210244 -0.20982491582467627
0.015467422179652144 -0.21921610251055001 -0.2098534515483625
0.00822355049080937 -0.2151398302613282 -0.20978448897435736
0.014713214806986738 -0.21387230768785714 -0.20984123259618354
0.013472156695795942 -0.2079704196749711 -0.2098824939115293
0.01133634345955937 -0.21054629400358438 -0.20988207667901587
0.019406901769114426 -0.21755404189214944 -0.20841613024308753
0.017455237082911423 -0.2163039089737916 -0.20933355003430915
0.017244177035761764 -0.21177429869756936 -0.20963221400811743
0.020744221381617477 -0.20967707946882486 -0.20836965352132392
0.018806474379969528 -0.20813479438410043 -0.20924344271256995
0.029627727441264084 -0.21889918461427926 -0.20453299194409919
0.027618752889109543 -0.2134420217572236 -0.20495068639352393
0.023682491950465134 -0.21942001000032663 -0.20642394929959845
0.02616737978882878 -0.2135909886656785 -0.20546869546010565
0.02334104674286931 -0.21570331767187356 -0.20661721736028266
0.03035994070000737 -0.20777022257433175 -0.20450007527902198
0.028208511046839645 -0.21014940157518625 -0.20492860287263465
0.026868688039256027 -0.20953088417635202 -0.20565157741143775
0.025333272389841965 -0.2080118151007676 -0.206588800845886
0.036913739613963055 -0.25003225520239114 -0.20472374170854163
0.03458248274750798 -0.2487651200591111 -0.2044416776283033
0.034349339179469036 -0.24856633856878518 -0.20441318660810065
0.03741486566491215 -0.24157393887624978 -0.20477059095933509
0.03818924920983403 -0.23941458180532693 -0.2048630675657041
0.039938228301478314 -0.2366586567460084 -0.20507274180486273
0.046398358516169476 -0.25091187074766397 -0.20473213106229377
0.047014402322245526 -0.24929619744405984 -0.20469149559571814
0.04723756211228459 -0.24536910071954965 -0.20467553645207953
0.046813862494898724 -0.24634466484174966 -0.20470551758840155
0.048839794568491864 -0.2383252473174119 -0.2045705279691465
0.047796474866343426 -0.24427987053976297 -0.20463776200845313
0.0426993836683759 -0.23854016676531076 -0.20496779292657447
0.04161645667977421 -0.23680875614271402 -0.20503706842496466
0.03493415015168278 -0.2334789873658204 -0.20447080939843726
0.032806025914622235 -0.22820197954759835 -0.2042151799781568
0.038410024814082074 -0.22923956230268716 -0.20488835483625006
0.03955133455224125 -0.22640962317571878 -0.20502549022271704
0.040027814082575726 -0.22204549029455423 -0.2050827255828626
0.03366790907807438 -0.221502536684134 -0.2043227067573316
0.048103856019450116 -0.23680038169012307 -0.20461803287103247
0.04880573051400273 -0.2352497519551301 -0.20457309096887183
0.04471238153405278 -0.23036685004816293 -0.20483769088819098
0.041099684409571575 -0.23257633462534189 -0.20507007449700904
0.04764296310372441 -0.22456451669321298 -0.20465027898385596
0.04656799333520024 -0.22333268240080117 -0.20471964388921332
0.046160416774226116 -0.22219243064508676 -0.20474576562478614
0.04685996668763249 -0.2223274500666642 -0.20470097273423743
0.0503326525015363 -0.24763823464498758 -0.20385321587159705
0.05013214247651188 -0.2310283572970414 -0.2039848229272611
0.05005257027573674 -0.22379734531030893 -0.2040347418172605
0.05074872272439091 -0.22623676970587014 -0.203611608444
0.03917415636010258 -0.2143219353257203 -0.20498181491925788
0.035723017625285076 -0.2167219461499238 -0.20456957429483008
0.035988496713114666 -0.21424826398477792 -0.20460734873845648
0.03613351481385319 -0.214565360694983 -0.20462345689370703
0.0339965392870435 -0.21159462049589395 -0.20437982290818762
0.03731335895485966 -0.20854594722376107 -0.204767431913162
0.035499977044535565 -0.20725087240324258 -0.20457249492242408
0.04873164194054692 -0.2191587181387925 -0.2045813909156568
0.04796855347580998 -0.21434021905050515 -0.20463086277082038
0.040943609647227215 -0.2169209958611512 -0.20508016258313727
0.040775375537348675 -0.2134519757329011 -0.20509136825635504
0.0476054419798383 -0.21270395234213113 -0.20465434700086188
0.04897429244942753 -0.21140425816164254 -0.20456705599858832
0.04211552637047856 -0.20881026402101754 -0.20500610381200385
0.04109113114304631 -0.20891728416071176 -0.20507144540383887
0.05101229446358769 -0.21911762073621988 -0.2034534326179273
0.04934866922326176 -0.21043806686983346 -0.20446474462583136
