ply
format ascii 1.0
element vertex 489
property float x
property float y
property float z
element face 0
property list uchar int vertex_indices
end_header
-0.20442347032599362 -0.20311633661375283 -0.04115289062097144
-0.20525204939417752 -0.20261777356252908 -0.03922766059472632
-0.20637585026793392 -0.20133555844412088 -0.0366170069558866
-0.2068496475892535 -0.20361530199632882 -0.03343855947091651
-0.2068045864778033 -0.1970058770476365 -0.03562351673677039
-0.20492981178336056 -0.19423151925192117 -0.03998154014184546
-0.20675173205904873 -0.20519679203615426 -0.03248977273538184
-0.20660427016787442 -0.2001477421818757 -0.031052317319656134
-0.20661747259669216 -0.1967057974635148 -0.031172271667266608
-0.20436596674494656 -0.19009450986967324 -0.041293378768707034
-0.20666858357958706 -0.1939943076668763 -0.03165676802232337
-0.20539462370448025 -0.18940086081609964 -0.038903023896957156
-0.20648330254130276 -0.19889246836290597 -0.02647798865869117
-0.20633315844111355 -0.19437519624815225 -0.028407241998458625
-0.20659038228564175 -0.1983421088753724 -0.025837924180770636
-0.20670184297137173 -0.1894513012467408 -0.031971927581573245
-0.20436915559344204 -0.1862041296063447 -0.04128744810655188
-0.20693981451563748 -0.20223147585973977 -0.02374043673112464
-0.20674681467585476 -0.1964110226927781 -0.024903651176238776
-0.20651893121771725 -0.18929641857729196 -0.03019269913270545
-0.20690057975821408 -0.19607796683893441 -0.023983236251617194
-0.20448054177336605 -0.18412956014261483 -0.041029956041122195
-0.20660762292914303 -0.18639295712099313 -0.03105210870339942
-0.20633624298148068 -0.18815585389719247 -0.02841469257905555
-0.2069153021054736 -0.18475363567457437 -0.034038837848449466
-0.2065486143308154 -0.1886162401734376 -0.02611147969796729
-0.20685443086199673 -0.18223156943903207 -0.033441688714767215
-0.20715185803942593 -0.19094487443552255 -0.02247783154084754
-0.20771054727606686 -0.19866336300955056 -0.01913162678315711
-0.20628253919653805 -0.18081202521906137 -0.03684487551286292
-0.2078363726811877 -0.2011267037688279 -0.01805212706163001
-0.2047851513104907 -0.17882303312406778 -0.040325339732909915
-0.2078577111440173 -0.19649762824163675 -0.01766573995187354
-0.20685073537402066 -0.1796418817339921 -0.03340142577722144
-0.207150248714017 -0.18623376801595926 -0.022505309282088996
-0.20798975033335598 -0.20554649248705148 -0.014916773734832524
-0.20505161387495907 -0.17652919307337045 -0.03970700114801001
-0.20651411814265164 -0.18100000336752176 -0.026329483686233283
-0.20565205616526516 -0.17588319793329477 -0.038311954437041995
-0.20683452291064175 -0.17691696599111795 -0.03324082106187415
-0.2063628564553729 -0.1782526166735673 -0.0286611279828794
-0.20806970996432217 -0.2005311341582322 -0.0132802686078794
-0.20792105598025235 -0.18919745996580362 -0.01635428875520301
-0.20792752308421047 -0.1886413784323716 -0.016220506130004645
-0.2076399604754916 -0.18330877438173532 -0.01957362502648902
-0.20573229891829403 -0.17343215063200235 -0.038126375375533816
-0.20816108388476284 -0.20291481330976724 -0.011436130700851201
-0.20810319287352474 -0.19400244370088815 -0.012636657653594731
-0.2075515667872897 -0.18160093739614724 -0.020110364852691413
-0.2079773823695651 -0.1873993815480256 -0.015213843284393071
-0.2065965811686984 -0.17660039082155465 -0.025838728843475104
-0.20690592927508267 -0.1767751367388749 -0.023984398542190314
-0.2075108419137469 -0.17925995007143258 -0.020356442628646613
-0.2083021680789462 -0.2016934694348359 -0.009017225204253911
-0.2082140128093234 -0.19237878337488412 -0.010367628036285161
-0.207950008936452 -0.18207318499670266 -0.01583084076478553
-0.20825354558997067 -0.1936184258757615 -0.00955336898400855
-0.20700509650282772 -0.17055326119051217 -0.03489026039674353
-0.2052918056922427 -0.1695763708649659 -0.03915127724244666
-0.2084041367249957 -0.19496407523737191 -0.008532639442229985
-0.2062872926669589 -0.17158613517866372 -0.02791979521348548
-0.2085412125068179 -0.19477962866411447 -0.007889356313491582
-0.20873938304953488 -0.19867839828119516 -0.006960954366470097
-0.20494429571204098 -0.16822112515554666 -0.03995942681863379
-0.20676119429640683 -0.17185374513254403 -0.024856503902221442
-0.20818669898085507 -0.18417453184709787 -0.010975476203704594
-0.20610430640749844 -0.16752908542738199 -0.03726404517724585
-0.20755560500197323 -0.17417984619722604 -0.020092245040679694
-0.2081420700030795 -0.18257067516432046 -0.011904533801818608
-0.2064914534764758 -0.16976728454218148 -0.02647551506593299
-0.2078620622830859 -0.17432253971681833 -0.01766174644067359
-0.2080344836192599 -0.1774847896395707 -0.014139082132125615
-0.2079885284381381 -0.17638600781545877 -0.015080209670806645
-0.20721518797449978 -0.1709031702576661 -0.02213683336808753
-0.2075532655196658 -0.17109049275503396 -0.020109977422500373
-0.20819736821226986 -0.17977177515611886 -0.01080211609437537
-0.20670221550040158 -0.1654529066382432 -0.03194278091027808
-0.2078359107451907 -0.17140536919222116 -0.018204387126708747
-0.2084058056550494 -0.18143602624521493 -0.008549060521865605
-0.2069366405683032 -0.16442141845808267 -0.03421848624780249
-0.20983488661818417 -0.20108803525552987 -0.001816954313064336
-0.20633613867335232 -0.1658019216357255 -0.027409311233306647
-0.20979521972708615 -0.19347920432672738 -0.002004202304626226
-0.20926898521952542 -0.1860469372569108 -0.004479911027694463
-0.20654238564543637 -0.1629841418562913 -0.030387785135055304
-0.21023672623209866 -0.20183456853018045 7.340699598717767e-05
-0.20934742493204983 -0.18202840700731515 -0.004121687112594365
-0.20657069785170468 -0.16053996399030923 -0.036184396444106814
-0.20803193552069577 -0.1698382289706254 -0.014212842880035161
-0.20987082821898373 -0.18640750065431833 -0.0016547402723081103
-0.21050396365694912 -0.1951765359936738 0.001352194847320796
-0.20672365827135952 -0.1602455021439576 -0.03214346974923682
-0.2103587071376315 -0.19026508346185922 0.00063872724935937
-0.20772221488528164 -0.16439963296041726 -0.019107248483443976
-0.20590348345808895 -0.15841100528822183 -0.037736262975478885
-0.21039873165659817 -0.2009794504939103 0.0033002236501925
-0.20797508759074124 -0.16646712437258004 -0.01538803785874915
-0.20998540324740322 -0.18317008927450418 -0.001120712457442998
-0.21040284437708767 -0.19674653723821878 0.0032427647726290232
-0.20812879306845578 -0.16826359346494912 -0.012243475614333867
-0.21037085158400448 -0.1992777229844117 0.003830347360824824
-0.21035258276038082 -0.19650022104368448 0.004185024799560786
-0.21038640839629086 -0.1906846107541108 0.0035654047147982127
-0.20689001483492764 -0.15954133287058114 -0.02409645527436805
-0.20848820907645138 -0.16985146120176553 -0.008175577817703008
-0.2104959915357104 -0.18352908804998636 0.001542333664154292
-0.20993730229906948 -0.17768982961759805 -0.001354690490508794
-0.20797906620078 -0.16335458472357034 -0.015322919784332036
-0.20775289637617977 -0.1609675379096055 -0.018926080165649176
-0.20435283882193478 -0.1549611331521058 -0.04134046643807959
-0.20998918814234646 -0.1766715140639329 -0.0011113843305356494
-0.20794191760592373 -0.16124927416429757 -0.016089286504531623
-0.2050980160909167 -0.15415103152380227 -0.039609338937545535
-0.20989449126295956 -0.1745880486069703 -0.0015580019338376514
-0.2104454020934573 -0.1785442323981309 0.0010340848581545361
-0.20993253392748745 -0.17454774096594095 -0.0013790687902219287
-0.21013885540537747 -0.20016022935495614 0.008172098697876216
-0.2060431073384753 -0.15345191374407052 -0.03741365283563208
-0.21024334234766873 -0.1877246291934037 0.006255362333511592
-0.20900384885840328 -0.16766963317976236 -0.005752917228484868
-0.21040364903979214 -0.1802262903748536 0.003286305965637446
-0.20731068951659115 -0.1566585095225358 -0.021578933892989875
-0.21009294492773922 -0.20203785017118692 0.009022984804367305
-0.2081982324796191 -0.16243922129259347 -0.010852869449401616
-0.21005417210631283 -0.20495493128881692 0.009735796751236201
-0.20990155441336544 -0.17087226524935006 -0.0015290340764768115
-0.2063557784038058 -0.15330701485262155 -0.02855950206353736
-0.20647920472197445 -0.15275206580744027 -0.029755081830764533
-0.20789319080881985 -0.15700037196264505 -0.017092998920226813
-0.2057578097062579 -0.1509778441487336 -0.038077529369140384
-0.21031686467699917 -0.17840258195982217 0.004916224779342891
-0.2050072382169238 -0.15027288511381387 -0.03982227653100562
-0.2065202425199023 -0.15129280999288797 -0.03014978378846717
-0.21042448086314114 -0.17422150984392404 0.0029103496687166697
-0.20886760754160794 -0.1632592768965745 -0.006395902333999394
-0.21038833064608486 -0.17471628800020456 0.00358599811956811
-0.21039539379649075 -0.1703448684512162 0.000792686046814204
-0.21011374694876583 -0.16835191264734506 -0.0005340537412412159
-0.20753297013811978 -0.1536607535182023 -0.02025174707009864
-0.2104906867223254 -0.1711267472802186 0.00168162971899438
-0.2101421932654849 -0.1821782381831193 0.008176360429977656
-0.20655362112097653 -0.15032793000326394 -0.030472960172439337
-0.20743502480559262 -0.15324961557970285 -0.0208391806466825
-0.206565571852254 -0.1513033749161744 -0.026050951181197882
-0.2100777159409991 -0.1828554065524125 0.009380791486953975
-0.20993354720644863 -0.18864401593790292 0.011768046917175532
-0.2103911320643893 -0.17131721392259835 0.00354552656576562
-0.20666673583559902 -0.1484875471888566 -0.031569387613082645
-0.20799174708895596 -0.15407435014829873 -0.015092518029952763
-0.20974680585436734 -0.19931801572427987 0.014505688251709224
-0.20783461434416683 -0.152038225680449 -0.018310602603698493
-0.20988595289759548 -0.1876074315606141 0.012474034132217647
-0.20977623564772518 -0.1947468610106492 0.014083746971344234
-0.2104265074210635 -0.168552616387465 0.002896133960937739
-0.20431931120924862 -0.1466504128275895 -0.041423197685027835
-0.21029481095843228 -0.17150057271108865 0.0053492823259584914
-0.2068845610099307 -0.14923622623071908 -0.02414324492051673
-0.20990522009901913 -0.18499181583509683 0.012198452057098628
-0.2097805867867938 -0.19063719525919198 0.01402703315184045
-0.20988264483981045 -0.18498472288236856 0.012531731428360225
-0.2097250948625079 -0.19310460403547525 0.014843437971328975
-0.20948187810950192 -0.15998382285223245 -0.0035105606897122854
-0.20964488191180142 -0.19885856822118997 0.016015116276001214
-0.20994554264120968 -0.17916069343672036 0.011623446048950435
-0.21026782495551022 -0.16231764271841287 0.0001856723444216259
-0.2095749358611575 -0.20397221460924386 0.017030690016006707
-0.20674894554190548 -0.14495148673639535 -0.03236379831864905
-0.20788503987364682 -0.14933969989404916 -0.017295118270660163
-0.2061688135343066 -0.14399375930414438 -0.03712555378511023
-0.20692552430205258 -0.14633088722810983 -0.023900683818603278
-0.20948956710867794 -0.2008649052678132 0.018305365146850824
-0.2081880698876849 -0.1516081036625886 -0.011098947225356816
-0.20697909397654446 -0.1456622572241807 -0.023580428062225104
-0.20972758335642727 -0.15732521727667093 -0.0023581346853024953
-0.20662082535796078 -0.14472390130148172 -0.025727536378646613
-0.20944766504340084 -0.19582849159822702 0.018873516620849847
-0.2098156641202441 -0.1773263902960801 0.0135483184473269
-0.20646256012492092 -0.1435245217381501 -0.029580887256408454
-0.2083760182338229 -0.15133256629095315 -0.00871851652696204
-0.20786899132304104 -0.1466165424881959 -0.01763370245530677
-0.2096548656898013 -0.17955821171388864 0.01591572553083825
-0.2099266330676547 -0.17157683685407876 0.011918042005752803
-0.20580862266592892 -0.14104620531187295 -0.037963714299941775
-0.20927296382956417 -0.19544936135397195 0.020629201235031366
-0.20475204093031796 -0.14065095201120614 -0.04041954487397742
-0.20923015279345425 -0.19904899016008615 0.021051827968811273
-0.20943498415522488 -0.15299532726392984 -0.003739174304748296
-0.2101726661401263 -0.1557662279902482 -0.00026672690942358896
-0.2103197107987872 -0.1607066930829072 0.004923824371551753
-0.20985413891844662 -0.17098548427210092 0.012991223634933711
-0.2071817050652972 -0.14270813181982278 -0.022368933854842902
-0.2086598704534045 -0.14948318317518472 -0.00738519042565894
-0.20914302570395382 -0.19513043180094003 0.021935168804382562
-0.20978352231554898 -0.1713878156243348 0.014035377802109004
-0.20816756588988217 -0.14642193332300424 -0.011541094480300664
-0.20812250477843197 -0.14578958764658212 -0.01246431082322669
-0.20655518574290188 -0.13949801936731576 -0.030475850997710944
-0.2095216642098895 -0.1768388541041398 0.01789302021429467
-0.20897407633833798 -0.20513633802519082 0.023615662159179925
-0.20925286216311367 -0.18418087974176645 0.020848903955673456
-0.20896523994975003 -0.1999794037638688 0.02371141702101159
-0.20905187530093106 -0.1919399590788865 0.022855017484878778
-0.20652231378130825 -0.1396383883057618 -0.02632277816369605
-0.21029247147612484 -0.15756886616335153 0.005441729130005122
-0.20987860662512692 -0.16600892856703042 0.012648139299606563
-0.20944568318896206 -0.1766564936934495 0.018924120964264154
-0.20918404860072048 -0.18339509680853128 0.02154219538137841
-0.2101419101434222 -0.15981572285280465 0.008256796898102046
-0.20803803009562405 -0.14301847830400705 -0.014199044404769658
-0.20582130355410488 -0.13716588333235025 -0.03793659418656897
-0.20669093532137783 -0.1389328630267167 -0.025313552318359137
-0.2046640346723071 -0.13689650014028787 -0.04062607496812415
-0.20886203450732144 -0.14673007443533181 -0.006436463294769048
-0.20875353915266903 -0.20236040070638894 0.02583796173498559
-0.21003903252653988 -0.15972256079302072 0.010184411110138179
-0.20896437568240078 -0.1845466883479142 0.02374929577276635
-0.21046554846339138 -0.15102406755075692 0.0022288897649996287
-0.2103720138745776 -0.14957370772943734 0.000663671793197871
-0.20930090350680264 -0.14562729910001992 -0.004373963771606206
-0.21030270857386502 -0.15307855024919748 0.005269888939117671
-0.2079010586219302 -0.1385363580285096 -0.01700314491822791
-0.2057442198472491 -0.1341236920653367 -0.038117732702041385
-0.20702564520411404 -0.1362434418498063 -0.023312117753768683
-0.2083672712522021 -0.14199426189050912 -0.00876882284715247
-0.2100946883635989 -0.14717812255010843 -0.0006414017064816944
-0.20990203125052365 -0.15936129704103708 0.01231998592779565
-0.20651845438055905 -0.13443774893865823 -0.03011229246690345
-0.21023048264555844 -0.15256969049558877 0.006625417770599605
-0.209876922793912 -0.15879234090433358 0.012692336143707515
-0.20854039294295224 -0.18633624330148935 0.026707772316192865
-0.20678974492125424 -0.1350534947215104 -0.024725582299972296
-0.20751920146517666 -0.1998633982239747 0.0291524866239779
-0.20825265152029904 -0.14012538805589914 -0.009833123384261845
-0.20751748783163937 -0.1989878506957078 0.02915698677465844
-0.20876008076243313 -0.18147035852060556 0.025809470714782953
-0.20672921640448483 -0.13301449432955026 -0.032152976690078494
-0.20920540196471127 -0.1425162346659684 -0.004826452432418584
-0.20894302231841 -0.17552092090234994 0.023977223934387445
-0.20777356428675564 -0.19173113420591592 0.028752956690048456
-0.2073103318887225 -0.13428583160028695 -0.02160927265718055
-0.20882205469183834 -0.17651226535425424 0.0251929500715487
-0.21013180715613278 -0.1517233790455842 0.008478168548797847
-0.2080660144763461 -0.13702466502771615 -0.013643707929397344
-0.20891891223959835 -0.17402824178323983 0.024222824873184442
-0.20995330614619168 -0.15473168507204293 0.01157269269392419
-0.20938224894575985 -0.16483845725641488 0.019582960905288934
-0.2102652172523013 -0.148036042004683 0.005993727745270015
-0.20661867959074887 -0.13095309749231576 -0.031078453956390143
-0.20935739380888851 -0.14046826377496957 -0.004114027915740727
-0.21047705215983303 -0.14413573756799936 0.0020344594137423045
-0.20644621355109127 -0.19594084635362863 0.03185448438093591
-0.20951457125716122 -0.15993134096250772 0.018046740593170404
-0.20639194352202328 -0.19624457672224283 0.031967822612976315
-0.20870092315249356 -0.13797042682752847 -0.007203664479995488
-0.20619286400847348 -0.19807169750318765 0.032293442787384274
-0.2069651613908282 -0.13150557294473886 -0.02367823928430152
-0.20890727443270596 -0.16942296341047525 0.024351809324478387
-0.20654924017958554 -0.12960592821226358 -0.030403520761276007
-0.20812213224940213 -0.13458646252737283 -0.012508924899841069
-0.2035867254214755 -0.20337174251661538 0.03326756149694848
-0.2088160793261996 -0.1696102710066819 0.025267336668228387
-0.20757135552935513 -0.17975609913454293 0.029578987659668207
-0.20896884603075894 -0.16668265476808786 0.023739162983154535
-0.20710487467818173 -0.13077261462793588 -0.022842313943649054
-0.2042922507005206 -0.12843247666940927 -0.04149466365411353
-0.20864471597247036 -0.17127555027590036 0.02629533797666955
-0.20971327824168118 -0.15413259878740548 0.015122149290298701
-0.20993785364203366 -0.1504152508078599 0.011817071737503291
-0.20670777363352688 -0.12878782466039895 -0.03194027751519751
-0.2058881352620593 -0.19239012315855264 0.03300047308370996
-0.20656467778258236 -0.129632020145514 -0.02607774346902442
-0.20875973803572567 -0.13644070342169046 -0.0069280824048764695
-0.20662581724696072 -0.12883450999841928 -0.0257123073919065
-0.20960050625376614 -0.15419937089071512 0.01679051309988427
-0.20649613244109066 -0.18451213255510568 0.03264004379675317
-0.20661799413733395 -0.1817882747946763 0.031946752371048215
-0.20822565061621578 -0.17294701352701425 0.028815958799576043
-0.20266721946768673 -0.20539706364259958 0.035097036661361936
-0.20424751741461666 -0.19185509696588754 0.034364495577072385
-0.20794871253542813 -0.13089686050997018 -0.016069736181045294
-0.20949007374815853 -0.13666265621767282 -0.003494437633300542
-0.20684937936835202 -0.12647698238477945 -0.03555264681413245
-0.20942929191164883 -0.1554382981358552 0.019131753744339227
-0.20307497484259518 -0.19830816403017282 0.036037001909469846
-0.20474551422171505 -0.18585764780626535 0.034265969099258664
-0.2100561986642352 -0.14503892675028085 0.009917084278320552
-0.20697237355284603 -0.1678700388966584 0.02801230937406945
-0.20335697931818875 -0.196466514617064 0.036297831835006955
-0.21028540832571896 -0.13746241644010782 0.0002470949308626659
-0.20996387106947811 -0.14588498488054513 0.011445347370361568
-0.20820666653685482 -0.13118832722292184 -0.010800208745742558
-0.20551435453467282 -0.12496812060461283 -0.03865569442346167
-0.20383533639483364 -0.18887115433798074 0.03574833661482263
-0.20859341127447995 -0.1629061491786027 0.026316587032531976
-0.21014904779963406 -0.14210217609987497 0.008184377254699947
-0.20722803277544888 -0.17137537315473794 0.030983749927734613
-0.20644090873770626 -0.12440710678682566 -0.03650265544488501
-0.2066353390889636 -0.1797440589962983 0.0342043676988833
-0.20892542404704006 -0.15868554428205728 0.024186972679352044
-0.20660492581896694 -0.18085516408071756 0.03479564577505517
-0.2088826875167361 -0.1586036475001359 0.024616513551925897
-0.20961496038012417 -0.14762442722902536 0.016595844330047845
-0.20901965899042996 -0.13109573140726327 -0.0057091376168973435
-0.20821703774504574 -0.15931243613348245 0.026584658922409295
-0.20570991737418087 -0.1740886361895585 0.034295682014679196
-0.2079025189357272 -0.12598630204782724 -0.017024423776412726
-0.2070240358787051 -0.12416599109754801 -0.0233319362981565
-0.20856115026049526 -0.12884710147962808 -0.007867719827438115
-0.202649636097478 -0.2050649763642335 0.04060051232740808
-0.20530228120856198 -0.17003338947878122 0.03383568316862512
-0.21043002409510525 -0.13426358416662454 0.002955321373199702
-0.21018571955733212 -0.13720775559530496 0.007518354953979732
-0.206615922875928 -0.12152282312498332 -0.031036939321304084
-0.20561529500059994 -0.12069826737032176 -0.03842269986703467
-0.20895531577639492 -0.15256636753664254 0.02389711529180932
-0.20537870926432522 -0.16930286005125283 0.034105722011780026
-0.20813034278921994 -0.125706860571959 -0.012382741866851567
-0.20876148147158535 -0.15472587361917733 0.025841657222961664
-0.20514537198119076 -0.1656420321761155 0.032990310491775754
-0.2048814873176089 -0.17835111334905862 0.03815263897344995
-0.2100351135211459 -0.13028253033743142 -0.0009357294423825733
-0.2042127828078738 -0.18059230759725808 0.03921932369635034
-0.21022532684378537 -0.1349324078856492 0.006786707939361812
-0.20314556164317044 -0.1982229740916276 0.04230976492330957
-0.20643096966318997 -0.12031824305639506 -0.029240544734740973
-0.2096071223693362 -0.14283991768942117 0.016729030908798456
-0.2101150433497897 -0.13608049765215158 0.008847359718536616
-0.2073766718583575 -0.12166250661001445 -0.021222408710265876
-0.20487408144049557 -0.16095286026582956 0.03202116877005029
-0.20331994993262203 -0.1912830860911393 0.0427519419805758
-0.20479872626833828 -0.17339211121187448 0.038256768287872556
-0.20897467238478573 -0.12597591593847512 -0.0059261879308469285
-0.20413996083311947 -0.18688512757406472 0.04232135802671838
-0.2048650513368121 -0.11787942960844279 -0.04016813248231482
-0.21029658419661434 -0.13191605523214578 0.005463663639282466
-0.2048299591022006 -0.16236730828867196 0.03395674020216394
-0.2041604797320834 -0.18418554380522012 0.04232773572370935
-0.2081439773517123 -0.12260093703851939 -0.012112732826019048
-0.20407680971197995 -0.19921464636907815 0.04447454601690698
-0.21009474796824368 -0.12769105449304818 -0.0006567499025113575
-0.2082512806134692 -0.12313630595789195 -0.009924795327926396
-0.20397284431033047 -0.19432524755583047 0.044346068205093625
-0.20402742726378353 -0.1549083234368348 0.030038599075531244
-0.2093208710628024 -0.14312338247881173 0.020244632066940545
-0.20871814889483364 -0.12422796502695323 -0.007134731708312749
-0.20675584477953823 -0.11860064581022502 -0.024945046602035285
-0.2058701793628207 -0.11709893658743144 -0.037832345662856814
-0.20835199756197842 -0.15010985150919198 0.02658135086462426
-0.20666427714400204 -0.11745358422384501 -0.03150063365533423
-0.20979130072169216 -0.1368688137827897 0.014017407001709224
-0.20434783203177365 -0.178708666711905 0.041726324857925656
-0.2096235881524554 -0.1388761939106965 0.016493175329422235
-0.2079109827952853 -0.11997997179613352 -0.016867186723495246
-0.20427340073161038 -0.19330565050230264 0.04501983910963464
-0.2044908682780734 -0.1989178003369355 0.045500967802261594
-0.20799638135008724 -0.1491470725832963 0.026921663583969354
-0.21051353020243557 -0.12729522004709481 0.0014103987829439649
-0.20439137322478207 -0.17543228879556894 0.041548673214172605
-0.2091185877995959 -0.14340946987257241 0.022275988163208246
-0.2043082396464816 -0.15870336607084512 0.033945921959137204
-0.2056977431254855 -0.11583710625753642 -0.03823390215470862
-0.204514590926694 -0.17098086491213083 0.04009175688192773
-0.20720040602259548 -0.11775963917360545 -0.022282745538497687
-0.21042859358363064 -0.12765411451444864 0.0030005612985842234
-0.20628224117331417 -0.11645571306333781 -0.027786012588287116
-0.2068586478906146 -0.11546377256498576 -0.03338610738351416
-0.20509449941687496 -0.16690186575041055 0.03922200590536523
-0.2041544447617999 -0.15515674069509744 0.0331476369516604
-0.20439873439841183 -0.18100077822790384 0.04449034124777246
-0.203094331450986 -0.1522881628571534 0.031435076297973874
-0.20806467337183865 -0.11870073690996409 -0.013738777337814092
-0.20919196111731442 -0.1399791778622651 0.021546397508835077
-0.208658678360509 -0.14505071356878518 0.02631006032392907
-0.20533108515314968 -0.16153360322103738 0.03806946069166589
-0.20557609004549893 -0.16264470830545663 0.0387936273233645
-0.20406789881758602 -0.14958975628004312 0.030731920303558587
-0.2044603059964648 -0.18089377298937082 0.04568234473631311
-0.20883491439394863 -0.1429287435112977 0.025127086939071893
-0.20964796645216854 -0.134311893731215 0.01614356428549218
-0.20971414250903042 -0.12218671455965281 -0.002452548442626714
-0.20689286095671566 -0.11463011220083476 -0.024130400119567633
-0.20758478147559078 -0.11539063766584635 -0.01998343676164222
-0.20445832414202603 -0.17506063893423318 0.04470551401541162
-0.20838893754057797 -0.11882613018141032 -0.008686300216460942
-0.21013253731303128 -0.12728806748972177 0.008547756971573115
-0.20440670651965054 -0.1755287738142991 0.04602694899008203
-0.20685699386172207 -0.11198187783346415 -0.03336220592095923
-0.20480939549975308 -0.15908650472746133 0.039159123005127194
-0.20950706107191952 -0.11972921505556346 -0.003428842721725225
-0.21040870053343685 -0.1231122107802415 0.0033888855592958934
-0.20632372600607785 -0.11134956195936442 -0.03678187340333533
-0.21016941768698605 -0.12541555777178048 0.007861290277694942
-0.2036671171861163 -0.19832917466745614 0.050772491993164304
-0.20363843245081814 -0.2021415771542573 0.05095848828718591
-0.20908112628035458 -0.1365968079863572 0.02266440183088708
-0.20449705225996884 -0.1667009384928727 0.04378837734625268
-0.20820094449095639 -0.11577836588011027 -0.01097178071572852
-0.20396628779940518 -0.1816887350379014 0.04885173231527734
-0.20357152623705776 -0.20365736797437906 0.051382426323150876
-0.20608457727007778 -0.1433407457171464 0.02957454711363244
-0.20520473820738705 -0.16026618495569467 0.04108673721716333
-0.20971502167754086 -0.12944232836351632 0.015165213646148921
-0.20899250907473477 -0.11731962278471232 -0.005849417148376225
-0.2097408155875674 -0.12905695453272104 0.014784876407837154
-0.20674831969313534 -0.11060426548109294 -0.03230508774354529
-0.20337070328764828 -0.14566243603811502 0.03223249703810144
-0.21010453803114804 -0.1247945518790269 0.00907916218206811
-0.2037208954768649 -0.1856223286686921 0.05042431146070886
-0.20813299519591244 -0.11438778951750041 -0.01236342996194434
-0.2046722601132861 -0.16422147467718362 0.04418111235067773
-0.20934478742651852 -0.13189479127512216 0.020023230613922357
-0.2079945485072604 -0.11263609841451884 -0.015194114146972417
-0.20345987183623226 -0.18962488487348794 0.05209386736318994
-0.20897145373396786 -0.11499703839407206 -0.0059497615678555955
-0.20870235366396817 -0.11448488548383952 -0.00721579402520728
-0.20415766341261776 -0.14223138406858682 0.03192603975698877
-0.2078494857030383 -0.13795004203901529 0.028409753145431756
-0.20398738784365567 -0.1711240948735261 0.048721078933929685
-0.21010790569357785 -0.12207336142645121 0.00902912408277917
-0.20882490081362637 -0.13457162097082376 0.02524117022917199
-0.2032345066743365 -0.19052947476492166 0.05353925019667077
-0.2031058947520724 -0.20117437258348703 0.05435485035345483
-0.204622594543027 -0.10754779890165568 -0.040736403165603396
-0.20312669677309902 -0.1968353630600953 0.05422374993727136
-0.20978157026343258 -0.12524581864462137 0.01419034987852502
-0.20655906004481228 -0.1085257621108079 -0.026135083137298346
-0.20653807920985134 -0.10741076782331706 -0.036285396514678714
-0.20727851790957363 -0.10920388415441752 -0.021826471982742072
-0.20928998095564755 -0.12968931511030435 0.02057779222891259
-0.203016308970975 -0.19535073056802987 0.05493072062895227
-0.20367446345858486 -0.17392290547476053 0.05072790771887231
-0.2030172477441302 -0.19505677536115884 0.05492499858305383
-0.20403510136179837 -0.16726874724016427 0.048419002594208005
-0.20387849015765103 -0.1695851178465867 0.04942292362615991
-0.20278076631598385 -0.14943216159925699 0.039198938907837155
-0.20321208042673977 -0.18435701146707772 0.05368733793661523
-0.21047700745634945 -0.11593086436376811 0.0011290648596041211
-0.20545492870383175 -0.13845821633920907 0.03150341302320886
-0.20886613232664974 -0.13163232222185373 0.024832371772979974
-0.20777918202452572 -0.10832483485327006 -0.01882919281556678
-0.20662408871226223 -0.10617099121198893 -0.03109338491990638
-0.204412354059743 -0.15942304745302438 0.04599896460935998
-0.20307065350584896 -0.1492720486222291 0.04019785314962793
-0.20809037787489804 -0.10951829865560771 -0.013257291017318486
-0.20290957195334347 -0.18922627881155252 0.055619094671463254
-0.20945013863615902 -0.09904701426611186 0.019027147592758416
-0.20331702930502804 -0.15052702441797494 0.053049508632873776
-0.20449363989405545 -0.07749096468076945 0.045488808454727414
-0.2046376000123492 -0.054713437110044956 0.03348249584600854
-0.21048521799616726 -0.09748960450277568 0.002048794330810786
-0.20919923288397702 -0.10244263127432109 0.02154145032331872
-0.21016862792544277 -0.05964104250059366 -0.0003680846078641407
-0.2066297213511935 -0.09281317308531047 -0.03113269418313575
-0.20424756211810025 -0.12174757733927012 0.04308697968885827
-0.21001103324465664 -0.06599039748296977 0.01096493393347192
-0.20763523680739315 -0.05107004359350443 -0.019754882751250983
-0.20879135829977902 -0.06754026725874186 -0.00683819860055518
-0.2048405687289706 -0.06366471365080119 0.030650738777374505
-0.20814069909624966 -0.06150729373083353 -0.012411352096343755
-0.20466129285864743 -0.11806055322275401 0.04229671150610376
-0.20875757736735256 -0.06525535300359965 -0.0069995781762845505
-0.2036603371577731 -0.04387883260832071 0.041375909151291135
-0.20649011237196835 -0.048055717497923374 -0.02970945447518897
-0.2095715234952441 -0.11674521282301188 0.017323229612564325
-0.20905670327715786 -0.06594244554624797 0.02303871900007653
-0.2098622004466525 -0.09777621343717814 0.013073120416855098
-0.21009729606680783 -0.10774446442709208 0.009273741544937373
-0.2089960406499377 -0.1172847838698411 0.02355432897970605
-0.207763520904111 -0.09526894405470133 0.02866003304884362
-0.2074035833554736 -0.09916786268339396 -0.021087016759658576
-0.20786271793417843 -0.10272393539533854 -0.017916586099410773
-0.20978502733282955 -0.12245478644953013 0.014149371685241939
-0.20886422497801693 -0.1153646202384019 0.02488336354658532
-0.21012554866843136 -0.08940620139227153 0.008807245792602779
-0.20468522412352474 -0.07748253062353373 0.04298845321104455
-0.2051077465491763 -0.07592217043028117 0.03669813662931848
-0.21031160456709774 -0.048330614119627476 0.005475703777527095
-0.20602911514811428 -0.08043334797010661 0.031681422294830563
-0.2033447454648486 -0.15044749692068338 0.05287138015196252
-0.2059748153167239 -0.10088888719663859 -0.037597264943862674
-0.20317975980811032 -0.0472665520010972 0.04181373506948877
-0.20750789148383053 -0.07272730186567546 -0.020493324695373297
-0.20906276804976376 -0.05321631744489908 0.02300447613165307
-0.20679448349051388 -0.08406938031301738 -0.024752344785476447
-0.20643639368586453 -0.09755162313566447 -0.03652572244241309
-0.2031027953105441 -0.09972853377447367 0.05448261290953088
-0.20679448349051388 -0.08406938031301738 -0.024752344785476447
-0.21037959856562527 -0.09835095122442485 0.0006566682474367626
-0.20964529914431485 -0.06698692753896952 0.01636261135504174
