ply
format ascii 1.0
element vertex 654
property float x
property float y
property float z
element face 0
property list uchar int vertex_indices
end_header
-0.20561764938406857 0.16920300409211875 -0.0385551115854032
-0.21323495907359036 0.26879592821016074 0.01773837596342492
-0.21194205982260617 0.23378088161363364 0.005500678123687984
-0.20924605233244808 0.26965137407197715 -0.038412686286712405
-0.20500391525797756 0.27058072969331504 0.060858909191345456
-0.21036585969500454 0.2167213766278243 0.005403820575927974
-0.20736059350542935 0.2678853480519271 0.05391839534208703
-0.21038259369902523 0.2196971385182357 0.004295114578460933
-0.2075595240073672 0.18378224059953452 0.03110301882193017
-0.20923349065356167 0.26839091464891196 -0.03915780395104956
-0.20329758328967007 0.2059973685444808 0.053565476240371945
-0.21410284740500363 0.2467385737599349 -0.020620312391067267
-0.2041089217143527 0.24052639886750937 0.06104571014807153
-0.2145277242141238 0.24639376088990927 -0.010648872552657842
-0.20407585603766354 0.16124185010804892 0.03489059597418237
-0.20895640356116207 0.20725568220033408 0.024550352396225213
-0.2078818957286349 0.20924158975496054 -0.017821755109573127
-0.2037930468993655 0.2050460188092208 0.05030623465940881
-0.20370679897837551 0.23186286374940634 0.058019105495666745
-0.2094847987370959 0.2757947055996871 -0.03302689999177527
-0.20334800881915005 0.14814736530198813 0.05320114284918237
-0.21350402934126766 0.25276013299836875 0.01534974962637353
-0.20984945995383175 0.23448010370149375 0.03313967973158288
-0.21093290848307522 0.23183782979860068 0.01414639145300317
-0.2068004588561526 0.18098672315492392 -0.03241970747544837
-0.21447285813860806 0.26612420961274863 0.0004938879625551708
-0.2061683217959872 0.21966364070787192 0.03281644374296594
-0.2070148120599261 0.2116266696156478 -0.035327162442947146
-0.2069017420487872 0.21484198257341147 -0.024326648412490607
-0.20813400847487362 0.24565770313157798 0.04952761918470788
-0.21302965087466152 0.261816879958055 -0.02624752729966712
-0.21067678732447537 0.2394361703099227 -0.03314417213037085
-0.21196308536105068 0.2443100421132064 -0.03032886594369483
-0.21190704209380062 0.23445441409959555 0.007991168798660518
-0.2114912102895251 0.2564407794178939 0.040283624233459714
-0.21074516875319393 0.2519064752758956 -0.036507274804855105
-0.21202753288321408 0.2702048628033614 0.032120559515213254
-0.21150539619498165 0.27145846769227744 0.036460641922210935
-0.20354427201323422 0.21881326124086142 0.0356977918760531
-0.21182432574801358 0.26639129802598716 -0.030087407527709723
-0.20902468068175228 0.21138151571168662 0.023873422445511102
-0.2049542049842349 0.26536878034486533 0.06212017327711511
-0.20973396105341824 0.2061274258793807 0.015796844066833734
-0.20818526846938046 0.21748467370881797 -0.011696006952071904
-0.21210509342722805 0.24140401765718222 0.0210481324808352
-0.21119628650717648 0.2289647667111373 0.0031277874128572947
-0.21232011718325527 0.2783933489026046 0.000708762706970454
-0.20843761963419827 0.22954054757966758 -0.031636383233810184
-0.21011936468653591 0.2105331031979537 -0.000802244840408086
-0.20842487914137753 0.1660798995198226 -0.008765633998656987
-0.20530842048697384 0.23288085147752524 -0.041183974443221805
-0.21449766857199581 0.2495331375302291 -0.0017360112054593555
-0.2042905668693057 0.1996422021092391 0.037211928667282346
-0.2145972232299319 0.2564543692769027 -0.014180775581146
-0.2034956197219363 0.2039585320652938 0.03154218584463525
-0.21322747869067105 0.25972976371659995 0.020723734201645135
-0.20292193991713436 0.20999558851136924 0.05604342013761926
-0.20963808698229702 0.21753891393556357 0.017236028017257928
-0.20542190773062619 0.2441763488949752 0.05721214801237512
-0.2048587630467883 0.2606855838002181 0.06166214138433862
-0.21289472086005123 0.27453394815339804 0.007726643385147334
-0.21144215566687496 0.23520698234452964 -0.006061877904678105
-0.21317530972533139 0.24153383657350302 -0.021488424239898444
-0.20947038931422146 0.24749829456224204 0.04588830858633447
-0.2101169805007449 0.1581375806035018 0.009837690891479732
-0.20992307169012936 0.24783786222352744 -0.04023828714921546
-0.20919884545378598 0.2722016780079818 0.049081478418564084
-0.20804875893168362 0.27774580404176474 -0.03932973354890418
-0.20826381249003323 0.24913170024766684 0.05015382558271814
-0.21458740336470516 0.2662713138760543 -0.015992011724258185
-0.21049831611685665 0.14951767608537436 0.0026878455297701365
-0.20760488314204129 0.19935824558152915 -0.02006721108987403
-0.2103378604131213 0.22164024993791342 0.004799787105774165
-0.2129836807923785 0.2462030856312728 0.017441574634765863
-0.2139224986510745 0.26742865726365805 0.007868740858291865
-0.21115815443568142 0.27525355502977134 -0.02704915016725135
-0.2143768201547137 0.25002857133760215 -0.018128480611587287
-0.21454165679984005 0.2594210712613082 -0.01631599277093482
-0.2101736496167651 0.21111991092576743 0.008959118427490474
-0.2091299871879092 0.19991620466127158 -0.005436178146148442
-0.2048398832755557 0.25318183586015464 0.06155327350065637
-0.203445477314519 0.2518098561467147 0.0667317250387423
-0.2121270130353442 0.23769470140352011 -0.009204294381881474
-0.21003155214362057 0.21560527965440512 -0.001215305028701543
-0.21152253253035458 0.2342498509587264 0.012533638776993037
-0.2086029778199664 0.13459243461503745 -0.007903363405013799
-0.21295399767928036 0.25601508304490805 0.024371717275833368
-0.20972576541476162 0.20346208497895957 -0.0026485285146481984
-0.20651206178240689 0.21960951969041587 -0.03655352800920081
-0.2122432867961398 0.2360022275151229 0.00740173846647668
-0.20707259876303585 0.20002987071885825 -0.023226614890838385
-0.21289808852248104 0.27493914052858115 -0.0018019041402585498
-0.21022736830286892 0.21762236043824912 0.007988844217514278
-0.21085260612540158 0.23273189947023154 -0.015066142974639653
-0.20674805147223385 0.2769043056668258 0.05363938599989343
-0.2043992708402148 0.17282005235566855 0.04630610734388757
-0.2121229003148547 0.24492808267488242 0.0276665726320498
-0.2083597759681216 0.27277847215547324 0.05108225733206201
-0.21357026500277432 0.24205817863359214 0.0014036932604067334
-0.20538620454840573 0.23243059799089194 0.044293824733947995
-0.21299414140753659 0.24464245721711875 -0.02581652611329627
-0.20332981450133236 0.2576718537510848 0.06720686346456933
-0.20935591859393032 0.2375397293271041 -0.03703495472505164
-0.21266418499522122 0.25768842384233237 0.029230211080765008
-0.20986883146338375 0.2638945190609908 -0.038493748603606937
-0.21369957727961453 0.2548862902821517 0.013625655473922969
-0.2040483335929385 0.22107346937074424 0.04840782672331262
-0.20667643649153622 0.20320197030915976 -0.031380083261276004
-0.21028414172701748 0.20675130769624472 -4.4759212280034245e-05
-0.20579603118472012 0.26055570527925254 0.05786189824507165
-0.20662623447947415 0.17864283010377646 -0.03073620408608985
-0.21458962363772305 0.25486143514528037 -0.00015428274705481452
-0.20307606262736233 0.18705477401628257 0.054998252691482785
-0.2064711133914462 0.2364611832798934 0.04928312093183923
-0.21279170913271817 0.2583292333783126 -0.02774846166207862
-0.20800922615103634 0.21819796249284507 -0.015948917566085578
-0.21328541440539273 0.2723724453152633 0.008228574098800899
-0.21421813768916043 0.2568089573086715 -0.020476575790191413
-0.2054567764478198 0.24160804435624839 0.05611947566435266
-0.21051068408064755 0.25691678211107016 0.044773433508133176
-0.21284690303378018 0.24355568572892905 -0.02565866321160865
-0.20356790525488766 0.22331740543260337 0.051364991964554074
-0.21036079330019863 0.20516940042390586 0.005454484523987056
-0.21114913923315914 0.2778234688939071 -0.0216038188321836
-0.20890053910784634 0.20200099632158042 0.025103692115997552
-0.21114072007708462 0.25160171672715903 -0.034894760547424075
-0.21024371487669857 0.2745018212498641 0.03987464696333337
-0.21194301349692257 0.2537489740551925 0.036725465358947995
-0.20774522227816494 0.22329290792360068 0.029284928144668817
-0.2079872618394366 0.22707225963487387 0.03172934442922998
-0.20986030799918087 0.20315303489579917 0.013925496639465572
-0.20859557194285305 0.22884865686311484 -0.024541225133682013
-0.214444411821889 0.24413331434144736 -0.012536790071273564
-0.20676375729613217 0.2241327969731307 -0.03054689973428321
-0.20896084410719784 0.16853567048921347 0.024433586897110223
-0.2136986683087817 0.2632115690411544 -0.022625442443633795
-0.2112340162473193 0.2713735310734725 0.03854999333784509
-0.2144308219628802 0.2450339405240035 -0.00952931850984168
-0.21195971769862088 0.2789528577031112 0.011908564867233516
-0.2099198083358279 0.20117225334062339 0.013043437303756953
-0.20685793263487728 0.20375617429628134 -0.024466182885909796
-0.20286232037119778 0.23606117650880576 0.06342915088102746
-0.2090149651246539 0.2276306955517745 -0.009490098653579472
-0.21313467425875576 0.2453456728161788 0.014210436643814326
-0.21389713687472256 0.26684661790742636 0.00933546215460229
-0.20919577581458004 0.21153529569520713 0.022154722513412713
-0.21247356934122952 0.2586763112248397 0.032143060268615964
-0.20382217866949948 0.22792818233384848 0.040891233982300046
-0.21082240147166165 0.26273526832475425 -0.03499066442086768
-0.2043503801303378 0.13795157358064414 0.046835068763946774
-0.2119964490609637 0.24488343879594565 0.029601905645584344
-0.21239109141402157 0.25228061363115073 0.03145647436544824
-0.20536269051604183 0.254238447398088 0.059157941641067746
-0.20421239537768276 0.2073902694882369 0.04755038410589624
-0.21108233732752713 0.2542406527699447 -0.03496151774957251
-0.2067333887296191 0.2129527537526107 -0.03170546501710486
-0.21167853278689297 0.2674564330281234 -0.030223514734054328
-0.20369164449744137 0.21231462642564536 0.05098304540083337
-0.21449687881045254 0.25167848750962973 -0.01423588007524085
-0.2091777156072131 0.21636809989824057 0.022343639435028314
-0.21290176910929592 0.25484236165895224 0.02448627740309167
-0.21350584728293331 0.24170895501985312 -0.01760473459794593
-0.2083551715093127 0.22454394981279135 -0.009998854099059819
-0.20692728263907345 0.21301480218782187 -0.03553112953736853
-0.2097187916713229 0.12951918527498008 0.01581553012297082
-0.20822204453520687 0.22013249084367514 -0.011242057977462529
-0.21272352141909512 0.25374277517213584 0.026875201763366937
-0.20929144126944454 0.21426286384477378 -0.004636939464355229
-0.20735305351786526 0.24520274087800742 0.0519888439790957
-0.20915837389998349 0.2312467901410079 0.03127396494314599
-0.20965331596903714 0.14117302581681967 0.016804192365860223
-0.20804266435675534 0.2058661191166854 0.027212564052795648
-0.2099845091777316 0.20482113048448325 0.012100730241989375
-0.20558716160826596 0.253960332125566 0.05815107017919946
-0.2036079893784991 0.26003422424211264 0.06635788470671106
-0.20919137997202786 0.2326641885937667 -0.03365277856423926
-0.20420473618082913 0.2071042267979598 0.04251829177305627
-0.2032096068339816 0.27343048736467124 0.06588557750151086
-0.21010425490908535 0.231410762518785 0.024461750091766595
-0.20409202379755886 0.2137122957409835 0.03344446808264184
-0.20941865248255642 0.2294501273335433 0.02754459172651696
-0.2060683350043765 0.2609968392552352 0.05711770445272851
-0.20893764299921902 0.13035880610360862 -0.00632625430657935
-0.2042958865838519 0.2259030549229598 0.04431176573202539
-0.20501553816370877 0.15757139608278037 0.042138341964935544
-0.2120909373240939 0.26564045831575156 0.03574324041769433
-0.21098546487860592 0.2745382396878219 0.035510454477524045
-0.20908401710562619 0.2010085193814254 0.023257319034790277
-0.21029251617960842 0.1809969751538253 0.006642256082748653
-0.21327201826147946 0.25214203283204795 0.01771924287245202
-0.20573586029581936 0.16031607076539756 0.028877321781372308
-0.21056200367979916 0.20797820970430136 0.0017117002622835645
-0.2079838941770068 0.15968730136766196 -0.016415413318420172
-0.20865919990115078 0.2266583053769088 -0.01666473954751563
-0.2065027932601443 0.20652814790620566 -0.026547189651275397
-0.21035130126051815 0.232806345671556 0.02438888341352868
-0.21030701500945004 0.24491121456041098 0.04224369317457605
-0.20901863081030758 0.2273347584904647 -0.018456157146239997
-0.2090999762492648 0.2214070765675521 0.022122506202911615
-0.2097095976548663 0.27298434659852744 -0.034824695287490604
-0.2119528780656329 0.23529650852098227 0.009725842775558711
-0.21328894598059567 0.27056010648622275 0.014747653307174922
-0.20967557830386074 0.22460468694581748 -0.002956505714202642
-0.21462033493094357 0.26374479219331504 0.0020499268190615184
-0.21415141028933438 0.2686027495564437 -0.007932718692565678
-0.21462951404623898 0.26555158779039145 -0.010387714801574468
-0.21406641406588467 0.2580417601765609 -0.021268751321578742
-0.21221388680510433 0.23728480026139975 -0.005645092426086186
-0.20361223620943936 0.14498629257097007 0.05150756627485681
-0.20808723372988613 0.20516594335450888 -0.013853993116164922
-0.20993596119456204 0.21253415033235312 0.012832407058929683
-0.20899089974932583 0.2564986555279708 0.049683425726150754
-0.20441153449587735 0.2140913216771102 0.04624659210607934
-0.20379167599253567 0.22429063007249594 0.04266310125753808
-0.2031112591701022 0.1678378193081832 0.03434840232298303
-0.2127163092570773 0.26196237489595176 0.02837127834722924
-0.20996422869734677 0.22906877681627036 0.02160054832861352
-0.2129752318339816 0.2702884285153365 0.01996991425917077
-0.20889083845190914 0.20162155315294028 -0.006545718608642339
-0.20686124069266232 0.21391822978868247 -0.032890315948272464
-0.20394427878432186 0.22156896278276206 0.03694248587057519
-0.21308271390967282 0.24676384612931967 0.017187062801574945
-0.2101300637202731 0.2320565192402816 -0.008685227332854985
-0.20940816206507595 0.2672200410069442 0.04941177755758691
-0.2064226399140826 0.22483482047929526 -0.03695347517564368
-0.2125535140710345 0.2708947269619918 0.025253538192962884
-0.21160790128283413 0.2519474236668563 0.03880343228743005
-0.21256318492464932 0.2733820883931136 0.02153522163793969
-0.20331719321780117 0.2162820307911849 0.03510576874182153
-0.21097552580408963 0.2298836915196395 0.00803834587500024
-0.2089912275748721 0.20652981683625937 -0.0060597917421109666
-0.2109729031997195 0.2758049575985885 -0.027176555095458747
-0.2113786022143832 0.27792086288347007 -0.01950677841737342
-0.20427462262682827 0.16025479719056845 0.03754470139906335
-0.20498220426611813 0.23174800559892417 0.048278186620926145
-0.20434899432234677 0.20280452653779746 0.030499819816803216
-0.21012900573782833 0.12712769791497947 0.009503875078415156
-0.21435826820902737 0.2622809617222762 -0.018941785989547492
-0.2096919099765292 0.20624764844789267 -0.0028079709394223684
-0.2040149102883807 0.20075072929277182 0.037023011745666745
-0.21150001687579068 0.24467690870179892 0.03596631080076623
-0.21150614125304135 0.24272414132966758 0.03217935949728418
-0.21136702401213558 0.2765535919369674 -0.02265759914949012
-0.21240541142992886 0.24464770242585898 0.023383412660812616
-0.2145725320058337 0.26439972803010703 -0.006661858258987187
-0.20412277979426297 0.16264893695726157 0.03443915039465356
-0.2130648027139178 0.27200796291246176 -0.02120864003732276
-0.21282523674540432 0.2763958780468917 -0.013720419107223271
-0.21195913655333432 0.2333922593296981 0.0008591452257387646
-0.210605962105321 0.2591003982724166 -0.036328311858916995
-0.2100869248586169 0.21963401719941855 0.009819064439987422
-0.20676845116190823 0.20811851903810263 0.028865847887253045
-0.20470383567385586 0.1997400729359603 0.04106533914968896
-0.21352942091994198 0.2591408102215743 0.016623560489868402
-0.21422539455466183 0.26876421853914023 -0.009210403857970952
-0.21078105074934872 0.26008774921312094 0.04422790199682641
-0.21055932147078427 0.20583381339921714 0.0017565825597994336
-0.2064170966821185 0.2215392796696639 -0.027866866288924933
-0.2069990764337054 0.21232452079667807 -0.023650254903579474
-0.2127005438285342 0.24735124990358115 0.023890737594818353
-0.21015095514826687 0.23104598209275962 -0.019598360954070807
-0.21331639391951474 0.24146082088365317 -0.018539603648925543
-0.2100605200009814 0.25470789358033896 -0.03902324646546912
-0.20888356668524655 0.20132645055665732 -0.006580766139770268
-0.2103284279780856 0.25638951942338706 -0.037770535646224734
-0.20832875175051602 0.166497489661119 -0.009432401357436894
-0.20622268123202236 0.21451183244600058 0.03138092547819543
-0.21451189918093594 0.2508400289715743 -0.005622144637847661
-0.20713972849421414 0.12763013526811362 -0.0229143759591825
-0.21404111189417752 0.2583769170941329 0.00997350007460046
-0.20693017346434506 0.23611911222352744 0.04728269964620996
-0.2029623220639697 0.2123142687977767 0.05578193456098962
-0.21084038717322262 0.23346301004304648 0.020408723654007196
-0.20827619535498532 0.20164289161576987 -0.01023172944619727
-0.21125076515250119 0.25898178502931357 0.04200005918905664
-0.21293659312300595 0.26829572603120566 -0.02456870287492347
-0.20999097628168972 0.17304869577302695 0.01191860824987817
-0.20372828645281704 0.22558858081712485 0.05100074798033166
-0.20692288679652127 0.16879375860109092 -0.02423855274751258
-0.21077008349471005 0.22997369453325034 0.011006239952301265
-0.21458966834120663 0.2557841150464034 -0.0015633365495450488
-0.20815814835600766 0.26194276496782065 0.052007142605041745
-0.20748488409094723 0.2270295827092147 -0.0356142780168302
-0.21229447228484066 0.23767455503358603 0.011571798624252559
-0.2142654190736285 0.26940848514451743 -0.01722803324296546
-0.21126822931342037 0.24153520748033286 0.03388882070944238
-0.2102928142028323 0.2244428603352523 0.0061451831476442825
-0.2053211013751498 0.27549286767854453 0.057773683370804074
-0.2098113427834979 0.229987582415483 0.024988476337646722
-0.20676840645842465 0.23224075719728232 0.03986746460363794
-0.2108876834588519 0.2564301697911239 0.043382439913009885
-0.2100350837188235 0.22504152938737632 0.011649463476394893
-0.21148417694144162 0.27891316100969077 0.022335712017273187
-0.20409126383833798 0.22879101917161704 0.052199814619278195
-0.20973752243094357 0.21299256965532065 0.01575860768721032
-0.20716249746851834 0.20260497018708945 -0.02266639083459449
-0.2138275484519473 0.24806859180345298 0.009441230596756221
-0.20853839618735226 0.2265582291783309 -0.015678968129897834
-0.20448836488299282 0.23297729179277182 0.05443552524015832
-0.20803293389849575 0.2231923548878646 -0.016394432483459235
-0.2057568113284579 0.2497251836956954 0.05759323030874658
-0.21338952881865414 0.2721743194760299 -0.002407934366012334
-0.2108949254231921 0.2336383073033309 0.020167980493759393
-0.20641962987952145 0.21973796769990683 -0.02825057118966651
-0.21215374571852597 0.27803357526674033 0.011363122762893916
-0.20822275979094418 0.22335745975389243 -0.011778768001342534
-0.20665246052317532 0.2656020729245162 0.05621642261907983
-0.2092033605056277 0.20729227945222617 0.022068802417968988
-0.20444038314394863 0.2164225189389205 -0.04131233304574561
-0.21227563721709164 0.2659234611691451 0.03407839328215051
-0.20976546210818203 0.20058425351991416 0.015314374269699336
-0.2088688890414706 0.2697551457585311 -0.03982457130982947
-0.20997352702193173 0.25120927974595786 0.045755807460998776
-0.20687717003397854 0.21730699226274253 0.030648443998550653
-0.20952127677969845 0.23828121110810996 0.038226369919037106
-0.20258354944758328 0.23764570638551474 0.06531617432997155
-0.21205028695635708 0.2567113249005294 -0.030890580116058112
-0.20427445871405514 0.21637274906053305 0.044893834890579465
-0.20978387994341763 0.2247896997632003 0.014696452917312862
-0.21217852634959133 0.26118971988572837 0.035392020048355344
-0.21309612495474728 0.2610779611767745 0.022669736446594476
-0.2074800859170428 0.21220101997270346 -0.020792420802856208
-0.2083430866675845 0.23626538202180625 0.03967267662451196
-0.20713922185473355 0.2553878633679366 0.05417767554685998
-0.2137943486648074 0.24375381156816245 1.389175817895013e-05
-0.20436605615191372 0.2285418717564559 0.039955947698807004
-0.21402302188448818 0.24968179151429892 -0.02137869208886695
-0.21238879663519772 0.23837103530778647 -0.012105550466323613
-0.20643225116305264 0.20974656030549765 -0.02923762410714698
-0.20481134755186947 0.19969608470811606 0.0434497335569613
-0.21413822276167782 0.24603464290513755 -0.0037716886384732717
-0.21236215335898312 0.2733490078152633 -0.022709991632247687
-0.21409994167857083 0.26371594354524375 0.008970562519287349
-0.2135003040509692 0.274704059809587 -0.0097060760839231
-0.20303395194582852 0.2653313486279464 0.06835875302717614
-0.21121662659220608 0.26431026145829917 0.04213476568624902
-0.2138435373979083 0.24551095649614096 0.0049456992761843215
-0.21365189356379422 0.27468146964921714 -0.012143548427367925
-0.20561082465224179 0.21790834352388144 -0.0385916790349729
-0.20470742685370358 0.21135594531907798 -0.04069253414704871
-0.21450128955416592 0.2548194734753585 -0.01669075697496009
-0.20879860026411923 0.16576947852983237 0.026061181129669427
-0.20907316906027706 0.27389212533845664 -0.03696974724366736
-0.20311869484953793 0.21757557079210044 0.04230329781935144
-0.21284365458063992 0.26479592010392905 0.026509557069992303
-0.20371599299483212 0.2294273583592391 0.056098971666549924
-0.20318625671439083 0.1997238604725814 0.05428660303518701
-0.21293942434363278 0.23971386834993125 -0.011760052142883061
-0.2128134201245776 0.275194725245378 0.0031516888754122264
-0.21346844536833676 0.2453485934437728 0.010153535904144527
-0.20532971424631985 0.19684132024659873 -0.03923776358201575
-0.21189150018267544 0.23640145942582846 -0.012692715822005986
-0.21153405112795742 0.274276813715837 0.03235984236166406
-0.21247733933501156 0.25087138101472617 0.02931011110708642
-0.20637939674429806 0.14142861053361655 -0.028372730909133673
-0.20284236771635922 0.23891999408616782 0.06519899159834314
-0.20888382000498684 0.16219129249467612 0.025199566187118768
-0.20913570923380764 0.22634502336396933 0.02527428060934472
-0.20571481985621365 0.19990434333696128 -0.038344140945220706
-0.2109649310784808 0.24418898507966758 -0.03445759028031897
-0.2081556449609271 0.1995519010724044 -0.012686218915725469
-0.21451841098837765 0.2536718456448531 0.0011271873132936963
-0.2109217922168246 0.2533686964215255 0.042973164619659665
-0.20973732871584805 0.2232606618107772 0.013828490080093623
-0.20822387737803372 0.20318134710206748 -0.011217173038268803
-0.20649841231875332 0.21456303283586264 -0.02950721591546607
-0.20956074995570095 0.23008056566133261 -0.021403189597869635
-0.20368978185229214 0.21968104526414634 0.05093849092886377
-0.2116610537248126 0.2746956555546737 0.030096683801864862
-0.20670270723872097 0.11950915142907857 -0.03600847333505225
-0.2100966106133929 0.2420968024434066 -0.037029977737212894
-0.21235242290072354 0.2387693731488204 -0.02007263511254859
-0.20405018133692654 0.25881185218705893 0.06500089556143213
-0.21393959028296383 0.2622778622807479 0.011268500389312984
-0.21445157928042324 0.26843597576036216 -0.011756028829360722
-0.20659845871500881 0.20196046516313315 -0.03064322084024024
-0.2045433948712817 0.15998085424318076 0.04537412911817956
-0.20966996056609066 0.23288138791932822 -0.027778263984466315
-0.2042808811145297 0.22623141691102744 0.04740822702810693
-0.2036625127273074 0.23130728885545493 0.05786991506979394
-0.2097384463029376 0.23314269468202353 -0.029479231534744025
-0.21449062032275112 0.25861152097596884 -0.006754632888580083
-0.20368227166705044 0.20207621738328696 0.035910818876480344
-0.21277461750082882 0.2603774873913741 -0.027621533571029425
-0.21366750998072537 0.2589335648716903 0.014848444761490108
-0.20862534446291836 0.22491671726121665 -0.00824626892640662
-0.21232230765395077 0.266997715681932 0.031971845926498654
-0.20337928635649594 0.2743391005696273 0.06487885505125451
-0.20947667760424526 0.2026283352078414 0.01931107431814599
-0.20443008644156369 0.24823918029680014 0.06303713113233972
-0.2129519562201968 0.23991396114244223 0.005894426407074214
-0.20956177813582333 0.273215076178453 0.045746777357315305
-0.20775587660841854 0.23267879173173667 0.03785738736555505
-0.21025754315428646 0.2127083747090316 0.007403079570984126
-0.20816549462847622 0.18051972076310874 -0.012736286817336797
-0.20899827582411679 0.2768003551663375 -0.035729195771957156
-0.20710868937544735 0.21818532630815268 -0.02323507875039649
-0.21436430317931088 0.25925215169801474 0.004634145797943355
-0.21309929890208157 0.27297999545945884 0.011265430750107051
-0.20747318667941006 0.17356415674104453 -0.020954873262191535
-0.20863939625792416 0.21421738550081015 -0.007640119491363286
-0.21188784939818295 0.26396687909974814 -0.030704047380233527
-0.2068234960513583 0.1794025509060836 0.03184518605635095
-0.20717821819357785 0.22674193069352866 0.03400543719694543
-0.2045334706979266 0.20665409252061606 -0.04109468668534827
-0.20704331798128994 0.26384087488069297 0.05516773849890161
-0.20387610597186 0.2703194229306197 0.06506905347273279
-0.21428802413515957 0.25686468765153647 0.005941603483413936
-0.20906573338084133 0.2240029780568099 -0.005560722051406621
-0.2137839178519717 0.25295122548951865 -0.022904720006728888
-0.2116602937655917 0.23784073278321982 0.01999059707090783
-0.21463620466761502 0.2548778860272384 -0.009775366483474492
-0.21152527434401425 0.23397477552308799 -0.002065982518935918
-0.21353609664015683 0.2676121799649215 0.014663938583587886
-0.21274672252707394 0.27842708513154746 -0.007085617481017827
-0.21399166984133633 0.2653080432118392 -0.020491715369964362
-0.2069520781713 0.15217425510301352 -0.033883418737197635
-0.20822189552359494 0.22380401775254966 0.02779910355970788
-0.20627946955733212 0.21685834810151816 0.03202248007223535
-0.21270642978720578 0.25312950298204184 -0.0284475049360044
-0.20448945266775997 0.21758469030275107 0.045448843540405515
-0.2104819844441882 0.2724043338002181 0.042752180399154904
-0.2126940022187701 0.2491262166203475 0.024948481621002435
-0.21041653854422482 0.2727642266453719 -0.03237181514337134
-0.2029930482583514 0.22185935661210776 0.0554143229143374
-0.20382299823336514 0.2485502569378829 0.06545648366377282
-0.21050542397074612 0.20033570215120078 0.002744529546951533
-0.2125702778773776 0.24432255908860923 0.019747916759704828
-0.21179137928061398 0.2778076140583968 0.020276669563507318
-0.21264646751456173 0.2732470242680526 0.02070698529646325
-0.21451242072157772 0.252257725447557 -0.007202770410323857
-0.20854666633181485 0.27266969367875815 -0.039915408788467166
-0.21184015078120144 0.24852540180101157 0.03664952904150415
-0.2066537122207156 0.1848952381314254 -0.0361536702497251
-0.2146401087718478 0.26303680822267295 -0.008615787921691655
-0.21469208402209194 0.26492770597352744 -0.0014133414609677783
-0.20340038640074642 0.2041990368069625 0.035178516210769895
-0.20278557939104946 0.2272809951008773 0.05836815029547143
-0.2060813884215823 0.2742340175808883 0.056235138477539304
-0.21453423602156552 0.25728132411851645 -0.004095103441024541
-0.2039381544070712 0.22051425859346152 0.044436190427994016
-0.20526416403822811 0.24384554311647177 0.0577641764299624
-0.20667150420718106 0.22432639285936118 -0.02649363487794471
-0.21112756235175045 0.23708458825959922 -0.028820153175140143
-0.21029859585337551 0.2061877457798934 0.0066158512251131545
-0.21104912263922604 0.23335047647371054 0.017100516857361078
-0.21149305803351315 0.23470487281694175 0.014102909864639522
-0.21237008077673825 0.2737282125653243 -0.021890070138717414
-0.20951552493147763 0.21841253921403647 0.01876694351599145
-0.20970825655035885 0.2791505067051864 0.03661907106802392
-0.208193613119649 0.19906946107759238 -0.011938419042373418
-0.21105336947016629 0.2667449919880843 0.042392019333099606
-0.21117318970732601 0.25770082160844565 0.04245633274481225
-0.2065502981620303 0.22602387353791953 -0.03711682170465064
-0.20977432829909237 0.24743690177812339 0.045187626184677365
-0.20999957425169857 0.21054949447526694 0.011889312566971065
-0.2074568401055804 0.269477328509233 0.05355692297384668
-0.21308027011923703 0.27369155570878745 0.0027487912790529734
-0.21025351984076412 0.16780455991639853 0.0073222556726686965
-0.21438038153223904 0.24324907943620444 -0.013883527217651128
-0.20377988917403134 0.19897862359895468 0.05038655191824365
-0.20680467588477047 0.24749221488847495 0.05436933428213525
-0.2043970952706805 0.206744333952806 0.04435858518049646
-0.20363555652670773 0.208713909834764 0.051346872152542355
-0.20727869672350796 0.27971752569093467 0.046066705288147214
-0.20474305553011807 0.21213426277055503 0.03243130833074975
-0.21145577532820614 0.23570760175599814 -0.01870038717820716
-0.21390813393168362 0.25457104131593467 0.010813716949676753
-0.20416901809744747 0.1328988282383895 0.04445913821623254
-0.208613170214223 0.22360660716905356 -0.007750358281875371
-0.2092898319440356 0.24088921234025717 -0.039815481601501224
-0.20707069141440304 0.13948782369508506 -0.03504883855416846
-0.20614020330481442 0.13305225059404135 -0.03732341140344214
-0.2067723999696246 0.16315599367036582 -0.025133874116683722
-0.21047144932322415 0.24312647268190146 0.040083680452560666
-0.20393194062285336 0.236710211485765 0.05980351954863
-0.21462717456393154 0.25785126373185874 -0.00030886739327979013
-0.2075539807754031 0.23413111850633384 0.0398595669882052
-0.20490807098917874 0.25893124029054404 0.06126577049658227
-0.20347881121210964 0.20761366769685508 0.040522698463653806
-0.2122253308969012 0.23785372659578086 0.012789849342560054
-0.2093952427583209 0.2568801848591781 0.04852572471067834
-0.20813174349837216 0.21451290532960654 -0.012619759736800908
-0.20805336339049252 0.2281446664036727 -0.029424365459228278
-0.20657197935156735 0.2325062362851119 -0.04057696074082923
-0.21365017993025692 0.24465038463487387 0.005804572405075313
-0.20755466622881802 0.21654697343721152 -0.02051254719331336
-0.21248011095099362 0.2788401453198409 -0.009266104398513554
-0.21336109740309628 0.2608476488293624 0.018903289140915155
-0.2043181489186755 0.17320539638414145 0.046838436426376584
-0.21073587042860897 0.2388076393307662 -0.032326485811019656
-0.21055501503519924 0.20455016776933432 0.001833919586395503
-0.21366424662642391 0.2706568448246932 -0.0009184142930753224
-0.2074689994531146 0.21923091098680259 -0.021146144567275763
-0.21394634050898464 0.2526001541317916 0.009586695732330562
-0.21343187791876705 0.24237050697221518 -0.0037724038942105764
-0.20901407105498226 0.2205896584691024 0.023195956052994012
-0.2112168203073016 0.2417714802922225 0.03489599019453454
-0.2081047425942889 0.20743187353029013 -0.0134253463132627
-0.20827759606413754 0.21062692090883017 -0.009865876136565923
-0.214323801823186 0.2619245259465194 0.00533146053717065
-0.21235483688883694 0.25374617263688803 0.03275821000502038
-0.2047490159945956 0.22067334339036704 0.0344833770410769
-0.20764976543955715 0.22764786168946982 -0.027631785569930793
-0.21406599683337124 0.2560116259755111 0.009275738300537349
-0.21231916350893887 0.2498211471737838 -0.030031140743041754
-0.20862580639891537 0.2354247777165389 -0.0371660849435575
-0.21144428653292568 0.2768464295567489 0.028346572221969842
-0.210257200427579 0.25891282245530844 -0.037696953712249515
-0.20717970830969723 0.23797442600145102 0.04681584626600671
-0.2041878233628741 0.20361890479936362 0.04770800858900476
-0.21054914397768887 0.2202466933430648 0.0013649502413027295
-0.21373469931654843 0.24412407562150717 -0.0031410118921048635
-0.20796276433043392 0.21271725580110312 -0.016179796157623053
-0.20348283452563198 0.2707377879322982 0.06625876218244958
-0.2113015930133334 0.23986019775285483 0.027153019012665033
-0.21049348814062985 0.23034056112184287 -0.0039934775216825
-0.207609934635686 0.2001370398701644 -0.020031060872817755
-0.20910148126654537 0.20945658370866538 -0.005525108276153325
-0.21058381897978695 0.26521690770997763 0.04503235608503747
-0.2072241286712161 0.20988055154695273 -0.022233512101913214
-0.2073691616731158 0.23962517663850547 0.04723266154692102
-0.2095882574992648 0.22317471191301108 0.015894565881942987
-0.21236857575945767 0.27011181995286704 0.02823433667585778
-0.20358580154948147 0.200224718302629 0.05166232973501611
-0.21206219298415097 0.2769722549618697 0.017658803762649774
-0.20701335174612912 0.1572573988141036 -0.03446730583741736
-0.20447428328566464 0.21177156850709677 0.045831356348251584
-0.20669939918093594 0.23451985999955893 0.042685333790039304
-0.21216709715895565 0.27655967161073447 0.017061893047546624
-0.20415301425032528 0.2767468301953292 0.06053248435423303
-0.21157032055430325 0.23707099840059043 -0.025239582954192877
-0.20574824316077145 0.23557653114213706 0.050382737220978024
-0.20885234875254544 0.2758630721272445 0.04481846481726098
-0.20847977501921566 0.25103469774141074 0.04987955480978418
-0.21462806863360318 0.2639190165699935 -0.011752601562286137
-0.21019151610903652 0.18538942024125815 0.008542124332641841
-0.21273283464484127 0.2692455856503463 -0.02502345651223731
-0.2065413425641528 0.20450135156526328 -0.036424781976485965
-0.21292198998503598 0.2697854845227218 0.021158997120117425
-0.20960235399775418 0.26232953950776816 0.04881281048223901
-0.21033125919871243 0.23470022365464926 0.029610131086563348
-0.21416117054991635 0.267410895079515 0.004400942625259639
-0.21334187490515621 0.25431724473848105 -0.025347824989104987
-0.20561764938406857 0.16920300409211875 -0.0385551115854032
-0.21323495907359036 0.26879592821016074 0.01773837596342492
-0.21194205982260617 0.23378088161363364 0.005500678123687984
-0.20924605233244808 0.26965137407197715 -0.038412686286712405
-0.20500391525797756 0.27058072969331504 0.060858909191345456
-0.21036585969500454 0.2167213766278243 0.005403820575927974
-0.20736059350542935 0.2678853480519271 0.05391839534208703
-0.21038259369902523 0.2196971385182357 0.004295114578460933
-0.2075595240073672 0.18378224059953452 0.03110301882193017
-0.20923349065356167 0.26839091464891196 -0.03915780395104956
-0.20329758328967007 0.2059973685444808 0.053565476240371945
-0.21410284740500363 0.2467385737599349 -0.020620312391067267
-0.2041089217143527 0.24052639886750937 0.06104571014807153
-0.2145277242141238 0.24639376088990927 -0.010648872552657842
-0.20895640356116207 0.20725568220033408 0.024550352396225213
-0.2078818957286349 0.20924158975496054 -0.017821755109573127
-0.2037930468993655 0.2050460188092208 0.05030623465940881
-0.20370679897837551 0.23186286374940634 0.058019105495666745
-0.2094847987370959 0.2757947055996871 -0.03302689999177527
-0.21350402934126766 0.25276013299836875 0.01534974962637353
-0.20984945995383175 0.23448010370149375 0.03313967973158288
-0.21093290848307522 0.23183782979860068 0.01414639145300317
-0.21447285813860806 0.26612420961274863 0.0004938879625551708
-0.2061683217959872 0.21966364070787192 0.03281644374296594
-0.2070148120599261 0.2116266696156478 -0.035327162442947146
-0.2069017420487872 0.21484198257341147 -0.024326648412490607
-0.20813400847487362 0.24565770313157798 0.04952761918470788
-0.21302965087466152 0.261816879958055 -0.02624752729966712
-0.21067678732447537 0.2394361703099227 -0.03314417213037085
-0.21196308536105068 0.2443100421132064 -0.03032886594369483
-0.21190704209380062 0.23445441409959555 0.007991168798660518
-0.2114912102895251 0.2564407794178939 0.040283624233459714
-0.21074516875319393 0.2519064752758956 -0.036507274804855105
-0.21202753288321408 0.2702048628033614 0.032120559515213254
-0.21150539619498165 0.27145846769227744 0.036460641922210935
-0.20354427201323422 0.21881326124086142 0.0356977918760531
-0.21182432574801358 0.26639129802598716 -0.030087407527709723
-0.20902468068175228 0.21138151571168662 0.023873422445511102
-0.2049542049842349 0.26536878034486533 0.06212017327711511
-0.20973396105341824 0.2061274258793807 0.015796844066833734
-0.20818526846938046 0.21748467370881797 -0.011696006952071904
-0.21210509342722805 0.24140401765718222 0.0210481324808352
-0.21119628650717648 0.2289647667111373 0.0031277874128572947
-0.21232011718325527 0.2783933489026046 0.000708762706970454
-0.20843761963419827 0.22954054757966758 -0.031636383233810184
-0.21011936468653591 0.2105331031979537 -0.000802244840408086
-0.20530842048697384 0.23288085147752524 -0.041183974443221805
-0.21449766857199581 0.2495331375302291 -0.0017360112054593555
-0.20744202835135372 0.13076712772264243 -0.021111961303497077
-0.2042905668693057 0.1996422021092391 0.037211928667282346
-0.2145972232299319 0.2564543692769027 -0.014180775581146
-0.2034956197219363 0.2039585320652938 0.03154218584463525
-0.21322747869067105 0.25972976371659995 0.020723734201645135
-0.20292193991713436 0.20999558851136924 0.05604342013761926
-0.20564706427626522 0.16695745870485068 0.03029171019956994
-0.20963808698229702 0.21753891393556357 0.017236028017257928
-0.20542190773062619 0.2441763488949752 0.05721214801237512
-0.2048587630467883 0.2606855838002181 0.06166214138433862
-0.21289472086005123 0.27453394815339804 0.007726643385147334
-0.21144215566687496 0.23520698234452964 -0.006061877904678105
-0.21317530972533139 0.24153383657350302 -0.021488424239898444
-0.20947038931422146 0.24749829456224204 0.04588830858633447
-0.20992307169012936 0.24783786222352744 -0.04023828714921546
-0.20919884545378598 0.2722016780079818 0.049081478418564084
-0.20804875893168362 0.27774580404176474 -0.03932973354890418
-0.2100121210294238 0.1660455076397872 -0.0013013145311124316
-0.20826381249003323 0.24913170024766684 0.05015382558271814
-0.21458740336470516 0.2662713138760543 -0.015992011724258185
-0.21049831611685665 0.14951767608537436 0.0026878455297701365
-0.20760488314204129 0.19935824558152915 -0.02006721108987403
-0.2103378604131213 0.22164024993791342 0.004799787105774165
-0.2129836807923785 0.2462030856312728 0.017441574634765863
-0.2139224986510745 0.26742865726365805 0.007868740858291865
-0.21115815443568142 0.27525355502977134 -0.02704915016725135
-0.2143768201547137 0.25002857133760215 -0.018128480611587287
-0.21454165679984005 0.2594210712613082 -0.01631599277093482
-0.21027771932654293 0.14270766660585166 -3.0334888244389714e-05
-0.2101736496167651 0.21111991092576743 0.008959118427490474
-0.2091299871879092 0.19991620466127158 -0.005436178146148442
-0.2048398832755557 0.25318183586015464 0.06155327350065637
-0.203445477314519 0.2518098561467147 0.0667317250387423
-0.2121270130353442 0.23769470140352011 -0.009204294381881474
-0.21003155214362057 0.21560527965440512 -0.001215305028701543
-0.21152253253035458 0.2342498509587264 0.012533638776993037
-0.21295399767928036 0.25601508304490805 0.024371717275833368
-0.20972576541476162 0.20346208497895957 -0.0026485285146481984
-0.20651206178240689 0.21960951969041587 -0.03655352800920081
-0.2122432867961398 0.2360022275151229 0.00740173846647668
-0.20707259876303585 0.20002987071885825 -0.023226614890838385
-0.21289808852248104 0.27493914052858115 -0.0018019041402585498
-0.21022736830286892 0.21762236043824912 0.007988844217514278
-0.21085260612540158 0.23273189947023154 -0.015066142974639653
-0.20674805147223385 0.2769043056668258 0.05363938599989343
-0.2121229003148547 0.24492808267488242 0.0276665726320498
-0.20444439155630978 0.12280290409936666 0.043569628299927
-0.2083597759681216 0.27277847215547324 0.05108225733206201
-0.20408162278704556 0.1471457092465377 0.0391523280756228
-0.2092629800515643 0.14182676956071616 0.021349106134628534
-0.21357026500277432 0.24205817863359214 0.0014036932604067334
-0.20538620454840573 0.23243059799089194 0.044293824733947995
-0.21299414140753659 0.24464245721711875 -0.02581652611329627
-0.20332981450133236 0.2576718537510848 0.06720686346456933
-0.20935591859393032 0.2375397293271041 -0.03703495472505164
-0.21266418499522122 0.25768842384233237 0.029230211080765008
-0.20986883146338375 0.2638945190609908 -0.038493748603606937
-0.21369957727961453 0.2548862902821517 0.013625655473922969
-0.2040483335929385 0.22107346937074424 0.04840782672331262
-0.20667643649153622 0.20320197030915976 -0.031380083261276004
-0.21028414172701748 0.20675130769624472 -4.4759212280034245e-05
-0.20579603118472012 0.26055570527925254 0.05786189824507165
