ply
format ascii 1.0
element vertex 100
property float x
property float y
property float z
element face 0
property list uchar int vertex_indices
end_header
-0.0442127416806689 0.21604236051454306 -0.20533835500314307
-0.056823475189732624 0.25185771867646933 -0.20662299901082587
-0.05970532996230037 0.2580765692891097 -0.20589378088548255
-0.05070768100790889 0.23573102638139487 -0.20516791552140784
-0.05280090672545345 0.26833619758500815 -0.20757566004827094
-0.04278297526411922 0.1843543855847335 -0.20571308940484595
-0.043828649349736286 0.1727339236439681 -0.205457653699661
-0.05501059991888912 0.24756827041520835 -0.2068472167833097
-0.04872871739439876 0.26014878436937094 -0.2088371625526197
-0.04628099305205257 0.27846880838289023 -0.2074321171624906
-0.05404530269675167 0.2381382195652938 -0.20489126056268286
-0.04125667912535579 0.22139312908067466 -0.20590813070371222
-0.046323103733586384 0.24240746185197592 -0.20848001152112555
-0.06188528043799312 0.26462467595948935 -0.20491160064771247
-0.045594943590687824 0.17001726314439536 -0.2049628755433805
-0.05129878027014644 0.2516625730694747 -0.20833280294969153
-0.06192524535231502 0.26452269241227866 -0.2049093505723722
-0.05383048755698116 0.24068321868791342 -0.206049170194412
-0.06149194938712032 0.24414189741029502 -0.20513668268754554
-0.0489289293961993 0.2590527145565963 -0.20880256205632758
-0.06150166494421871 0.2735616175831771 -0.2034575900419004
-0.058875901527928425 0.2454198209942794 -0.205876212416435
-0.06454221708350093 0.2595716921986556 -0.2041871210916288
-0.04405228597693355 0.2105728594960189 -0.20511781781747412
-0.045832974739598346 0.2640561072529769 -0.209493275581146
-0.056948227711247516 0.25978620931520224 -0.20650535434320044
-0.05541764003806026 0.2673199979962325 -0.2069600930793531
-0.060292912550496174 0.245743414610765 -0.20558307677342963
-0.04610074860625179 0.276244005412004 -0.20803270846440863
-0.0533941815572253 0.2588085143269515 -0.2075364848954923
-0.05818725926451595 0.2726589648426986 -0.20507876187398505
-0.05014483434729488 0.27703758165254355 -0.20700403660371375
-0.045467926092671467 0.24286445066346884 -0.20879950731828284
-0.06307567460112483 0.25540496990098716 -0.20478042572572303
-0.042107147999333454 0.24474277183427573 -0.21006361752584052
-0.04563958746962459 0.25272860214128257 -0.20975787550046515
-0.051468415089177204 0.23394074127092124 -0.20387981444432807
-0.052116883822011066 0.2559013573826766 -0.2079807332141645
-0.04786442024283321 0.2680558769406295 -0.2087938001735456
-0.0428566466050616 0.1756733267010665 -0.20570952802732062
-0.06225864393286617 0.2506157962979293 -0.2051227352006681
-0.04280338985495479 0.2134632675351119 -0.20570845514371466
-0.056420637198018146 0.26989158079042197 -0.20626392572953772
-0.05526171428732784 0.24085046932115317 -0.2054012826068647
-0.047018004484700275 0.1465764848889327 -0.20391349106862616
-0.047253472633885456 0.2752179710568404 -0.20805467277600836
-0.047125978298710895 0.2524088232220626 -0.20938028007581305
-0.06090999943785579 0.2604838816822982 -0.20557051509454322
-0.054567081757115436 0.2663921920956588 -0.20721238463952613
-0.050608975716160846 0.23594959661378623 -0.2052644154412992
-0.05953852636389644 0.2725455968083358 -0.20432887583806586
-0.06331835491232783 0.24778457567109824 -0.2046722134931333
-0.044903380699681354 0.16290642902269126 -0.204671036301399
-0.0494140516000262 0.2333743183316207 -0.20437462240293097
-0.049573583431767536 0.254763087481401 -0.20872677475049567
-0.044247759409474445 0.2725685445965743 -0.20926843195989203
-0.05487082702689083 0.2507231442631698 -0.20717434197499823
-0.04464609725050838 0.18407084628953696 -0.20452604800298285
-0.050451381035374714 0.26814486667527915 -0.20820654541089606
-0.04237542850546749 0.22343107149019004 -0.20574967175557685
-0.04114873511366756 0.2738783566655135 -0.20931849986150336
-0.043501509256886554 0.20063122197999717 -0.20543384164407325
-0.0517348478513232 0.26366969034089804 -0.20800402372911048
-0.06668658358626277 0.2498005239666915 -0.2034830263240583
-0.05068482262663753 0.24652656003846884 -0.20822253435685706
-0.04218642217688472 0.21081258937730551 -0.2057882806642301
-0.04578624469809444 0.19287600204362632 -0.2044428548200376
-0.04133115512900264 0.2064641325177169 -0.2058980128152616
-0.04260505539946468 0.17420329734697104 -0.2057405522449262
-0.04404483539633663 0.22506853029145957 -0.20495886713101935
-0.04116906029753597 0.24921550437822104 -0.2109571656568296
-0.05592892868094356 0.2792214362324691 -0.2035919985158689
-0.04551975233130367 0.24658121749772788 -0.20959956556394171
-0.059400243588017536 0.24039514943971396 -0.20357320815160346
-0.047580761738347126 0.2668584196270919 -0.20896458238198828
-0.05853430730872066 0.268406292647264 -0.20568395763471198
-0.046569926567601276 0.2606687156857467 -0.20935695975854468
-0.04215155345969112 0.2720207779110885 -0.20978548735215735
-0.065443528719472 0.2541111914814925 -0.20388257115914893
-0.042328132219838215 0.23056956216706992 -0.20654867201879096
-0.04747246009879024 0.2134182660283065 -0.20384032636716437
-0.05097718340926082 0.24660672828569175 -0.20816833883359503
-0.04156912667326839 0.2730864493550277 -0.2097303828580625
-0.049695921965169025 0.25497265741243125 -0.20869224876000952
-0.04567675096564205 0.2375002710522628 -0.2076782247407682
-0.0442127416806689 0.21604236051454306 -0.20533835500314307
-0.056823475189732624 0.25185771867646933 -0.20662299901082587
-0.05970532996230037 0.2580765692891097 -0.20589378088548255
-0.05070768100790889 0.23573102638139487 -0.20516791552140784
-0.05280090672545345 0.26833619758500815 -0.20757566004827094
-0.043828649349736286 0.1727339236439681 -0.205457653699661
-0.05501059991888912 0.24756827041520835 -0.2068472167833097
-0.04872871739439876 0.26014878436937094 -0.2088371625526197
-0.04628099305205257 0.27846880838289023 -0.2074321171624906
-0.04428206188254268 0.20391138479127646 -0.20502523690297675
-0.05404530269675167 0.2381382195652938 -0.20489126056268286
-0.046323103733586384 0.24240746185197592 -0.20848001152112555
-0.06188528043799312 0.26462467595948935 -0.20491160064771247
-0.045594943590687824 0.17001726314439536 -0.2049628755433805
-0.05129878027014644 0.2516625730694747 -0.20833280294969153
