ply
format ascii 1.0
element vertex 592
property float x
property float y
property float z
element face 0
property list uchar int vertex_indices
end_header
-0.014812542028950762 0.26251043960466147 -0.213373388944412
0.02945383089013188 0.21002348348512412 -0.20711828380658698
0.05543397562928288 0.23920347377671958 -0.2036438396556623
-0.0020430515485277876 0.24220814391984702 -0.21372565239503455
-0.003656251259373735 0.24233784362687827 -0.2136903813464887
0.014347152881098677 0.2595296113194442 -0.21383665114476752
-0.0008991788106432661 0.2596661655606246 -0.21441980808808875
0.03828077214188664 0.19404335901155234 -0.20544248431756568
0.03335501449532597 0.17633410379304648 -0.20616232961251807
0.04545100229210942 0.1950527040661788 -0.20458392411305976
0.03584568398423283 0.26240315124406577 -0.21137752741410804
-0.03804977042250545 0.27719428226365805 -0.20792954772546363
-0.032499922342824054 0.174326440543077 -0.20446714371278357
0.015672134332133224 0.27823581382646323 -0.21195560306146216
-0.034065348930882526 0.18808110639467002 -0.20518388956620764
-0.02206139070563228 0.2169749943913436 -0.20751121252610755
-0.006977273054646562 0.20695837423219443 -0.2103492429836042
-0.035132301874684406 0.26292010232820273 -0.21181031673982215
-0.02881263000540645 0.2746457068623519 -0.2110869398696668
0.02731891172356694 0.21357192680253745 -0.207718413172508
-0.011730505056904863 0.18613662406816245 -0.2101314625127561
0.06498824255890935 0.25701268598451377 -0.205147635041023
0.001294450931025435 0.22054632589235068 -0.21029269307687354
-0.01544813615851314 0.16020717307939292 -0.20981984942987036
0.03501047389931767 0.2786774842442489 -0.20957107454373908
0.024071412257624557 0.1686319915951705 -0.20886011034085822
0.04533739583916752 0.22107323095216513 -0.2045540472848661
-0.01100678546004207 0.1877091138066268 -0.21019257217481208
0.011064635686350752 0.2776374427975631 -0.21239500850274634
0.028788881473017624 0.19591339513673545 -0.2072761169059522
0.011189745835734297 0.2499245612324691 -0.2143731823547132
-0.0021677742677202925 0.25590296670808554 -0.21437359958722663
0.030606376103831223 0.19050212785615683 -0.20681146889760565
-0.025237722225712845 0.2108574120701766 -0.20542662948205542
0.035731034450007366 0.23007567808046103 -0.20731873422696662
-0.01614187461905391 0.22248818561448813 -0.20977890103890967
0.020260380677653244 0.25516255781068564 -0.2138415536268003
0.008056895904017378 0.23447509691133261 -0.2125011941774137
0.04071934717125981 0.2231620757283187 -0.20513401537969184
-0.04053582055144222 0.27316548511399985 -0.20988355189397406
0.0077997912687787305 0.17246832534684897 -0.21015700310304236
-0.02598105175070674 0.17676653549089194 -0.20353926330640387
-0.022651595898198196 0.22916891261949301 -0.20774688929154944
0.0039652456564435255 0.24271913453950644 -0.21419737845494818
-0.03638396961264522 0.22366108581437827 -0.20635734110906195
0.04486082690186589 0.2366208045186019 -0.20762209206655097
0.011236297063303877 0.19830032274141074 -0.2100598028285749
0.04098533289856999 0.24860998079194785 -0.21036380141809058
-0.03864206177763851 0.26316251441850425 -0.21108127742841315
0.013177471332026411 0.25519134685411216 -0.2140333762748487
0.018661664895487717 0.27950873062028647 -0.21170712619855475
0.029679583482218674 0.2425252406300521 -0.2117736300809629
0.04545520441956608 0.274024984091661 -0.20860388487413
-0.008261037893818926 0.2503604499997115 -0.2140563687665708
-0.017957342691945145 0.2761737911404586 -0.21167984217240882
0.049026118688059735 0.21684755966081382 -0.2042074462754972
-0.016442222424077103 0.2469631044568038 -0.2132508268935926
-0.026462985106038162 0.2414505688847518 -0.21037679523065161
0.03249298232026188 0.27396478340043784 -0.21130437761380744
0.008534835748148848 0.20591714069261313 -0.2101224920137174
0.04705859916634648 0.118889531344316 -0.20453060775830817
-0.03252075416617305 0.20604159519090415 -0.20448034614160132
-0.0149861107545367 0.17936613246812583 -0.2098635843379743
-0.018675429649876663 0.23493542358293296 -0.21087354034020972
0.015417890719843794 0.18240579053773642 -0.2099793514592893
0.026746498517466476 0.24271120712175132 -0.21237238854005408
0.0344981421751508 0.2057089416684127 -0.20600835591390204
-0.025626940556096146 0.22821571514024497 -0.20519992321565222
-0.04035256607108028 0.21557887479676963 -0.20598411172463965
0.030055569581461838 0.21422054454698325 -0.20695778339936804
-0.006496740408467363 0.23546399757280112 -0.21256169289186072
0.008952515296412398 0.1952828375996566 -0.21010706931188178
-0.01214124066405208 0.16405840799226523 -0.21012433975770545
-0.03464941484503658 0.23930021211519004 -0.20837010055615973
0.025984184913111618 0.2553099004925704 -0.2133806607110746
-0.03200708133749874 0.26131769105806113 -0.21216247588231635
0.031128602199030807 0.16735424682512046 -0.20667650908067298
0.004325913361979414 0.22000285074128867 -0.21020617693498206
0.019327359370661667 0.21369697734727622 -0.20965389519765448
0.023538516931010178 0.2341914980114913 -0.2112681528909452
-0.00861723525099666 0.26560678169145346 -0.2137282153947599
0.04969217079110234 0.17790176555528403 -0.203835379181648
-0.004722846575306963 0.21942885801210166 -0.21038017779424262
-0.032106025047825885 0.217533489912889 -0.20425617307260108
-0.027995152302311966 0.2705631463231063 -0.2119465580566175
-0.03273801309637935 0.21357824489488364 -0.20456498473718238
-0.013690335579442095 0.2580792514981246 -0.21355075746610236
-0.04073317153029354 0.27180816814317466 -0.2100990524871595
0.01874683993287175 0.17092003509416342 -0.20969654232099127
0.020538287333918503 0.16248407050981284 -0.2095095029456861
0.06262822645135015 0.2723528353871322 -0.20499392956330847
0.03192560570664494 0.26019748136415244 -0.21217846482827735
-0.008849663563298296 0.21682753250016928 -0.2103247305734403
0.008915828637553145 0.2522227971257186 -0.2139762005193479
0.035427676610423016 0.22599138900651694 -0.20623260348870825
-0.0314479301648608 0.20985366985215903 -0.20342474788262915
0.06568898456521123 0.25203736707582236 -0.20480025917127204
-0.011451734133290361 0.24313952609910727 -0.21326274782254767
0.006592111758662153 0.20036794826402426 -0.2101620247943647
-0.00115154487662227 0.20387437030687094 -0.21038804560735297
-0.021786225863026688 0.1580864994229293 -0.20762696474626136
-0.015285653896855425 0.2603465525807357 -0.21337852984502387
0.0013629068655499712 0.1909800975026107 -0.21033808201387
0.009237932137919356 0.21515961572541953 -0.21011007934644294
0.03900398509926884 0.20601995870485068 -0.20534711688592505
0.025645779542399338 0.192520758360765 -0.2083037903888471
0.001527743510676314 0.18418755218400717 -0.21036766081883979
0.046609776191187786 0.15766390249147177 -0.20444944113328528
-0.020869804449605057 0.22757204458131552 -0.2083847036941297
0.003456907443476607 0.17582537814988852 -0.21032803863122534
0.02155782478280156 0.1850729791821456 -0.20940836876466346
0.05055357711739628 0.27270825788392783 -0.2077818772180326
-0.01979414922766597 0.2687937824429488 -0.2124905547483213
0.032161401681376385 0.252997836321733 -0.21214091390206885
-0.013414425678776811 0.183609625548265 -0.20998902231290412
0.038934098653269696 0.21692260190858603 -0.20537648707463813
-0.02460740310721309 0.258718153685472 -0.21269169062211585
0.016133861712885788 0.2699818222226119 -0.21312594026162696
-0.02129430872969539 0.24074753209962607 -0.21134718864991736
-0.028523636885212967 0.2748523561657882 -0.21102094262673926
0.01644961731858342 0.2409513799847579 -0.21330688506200385
0.0021143724245557085 0.26977106019868613 -0.21373045056893897
-0.020041746922062943 0.18898304387941123 -0.208382498322273
0.0037652422708997027 0.19662370368852378 -0.21024128407075476
0.03432850735612004 0.22914650127305747 -0.20747075587346625
-0.0037135909276476606 0.2491640059651351 -0.2143855354173429
0.008088069133234907 0.25843521043672324 -0.21383675545289588
-0.012495709486531328 0.2536924688519454 -0.2136323115213163
0.007280396394205977 0.18037583515062094 -0.21022292584016394
0.023078279666377 0.21965249463929892 -0.20930158704354834
0.04784171479172795 0.25213768169297934 -0.20844365268781256
0.026523726157618454 0.20472916051759482 -0.20799739271237921
0.01118065612740605 0.17861570999040366 -0.21010669678285193
-0.016300452776478836 0.19185086175813437 -0.209747101960922
0.0674358178896436 0.273777922839067 -0.20360497742726874
0.012750970296336104 0.15951951429261924 -0.2100234290941007
-0.036706430740880085 0.22658892557039023 -0.20627835005357337
-0.0030945668893328413 0.1617246477307296 -0.21038621276452613
-0.022505743332432816 0.26363702699556113 -0.2127933165414579
0.0034965743345746294 0.2022369711102462 -0.2102528026683576
-0.03489018780760677 0.23902722284211875 -0.20830370098187995
0.050009416512919354 0.16207309648408652 -0.2036499044282682
-0.017417980261372635 0.24590941354646445 -0.21304405838086676
-0.00845844847731502 0.22492279693498374 -0.21052299052312445
-0.014955861397313188 0.23749001905336142 -0.2122141680104978
-0.03272636038832576 0.2009896247090316 -0.2045724353177793
0.0019292105955609575 0.25596638605012656 -0.21447811633184027
-0.0259574185090533 0.20206155464067221 -0.20360318928792548
0.041464733056498455 0.2130598036946273 -0.20504226893022132
-0.03333814246230037 0.17789812967195273 -0.20485056549146247
0.05030031698174565 0.2592988221348739 -0.2079734763486631
-0.016634089775609085 0.14519759103669883 -0.20971056431367469
0.06543143289513677 0.2663468925656295 -0.2048664501292951
-0.018832100458668777 0.26995923206224204 -0.21237536877229285
0.038254188470316815 0.18190594598665 -0.2054443618638761
0.031288432053996014 0.2212661115826583 -0.206806730328346
0.012567745618296553 0.26608200952424765 -0.2134157827480085
0.028126793078852585 0.18200870439424277 -0.20744210094049048
-0.028145206995534012 0.24897672817125083 -0.2124534657581098
-0.01442231041960628 0.198438247889421 -0.2099074384553678
0.03403340475983708 0.2194164006413436 -0.20607201367452216
-0.02172593576483638 0.20101972505464316 -0.20765561967923712
0.051237331799937176 0.2389795987309432 -0.20600975662305426
0.0659012367052564 0.270223280638597 -0.2046373447759397
0.020488368443919113 0.1553895680607772 -0.20951379448010993
-0.033533228464650226 0.19825955316438437 -0.2049403598888166
0.021496968440485886 0.22632946655168296 -0.20988714307382178
0.02257187860436528 0.2595452873410201 -0.21367624014451575
0.018632756642771652 0.23791494056596518 -0.2125849685056455
0.06022311943001835 0.2618534772099471 -0.20600831121041846
0.04285998838372319 0.25964208528413535 -0.20989815503194403
0.03992267148919194 0.18687202617540122 -0.2052006831748731
-0.012895030804204058 0.27102096959962607 -0.21275510996415686
0.019614325932932785 0.18320645973100425 -0.2096110096557386
0.058388279847575116 0.2561096160115218 -0.20639119654729438
0.04069291251130192 0.26640441104783774 -0.21034830421044898
0.005888896159602095 0.18030430957689048 -0.21025777965619635
0.027247743777705124 0.20166446849717856 -0.2077387532575376
-0.02131496173911006 0.2281778661908126 -0.20827592521741461
0.002062099151087691 0.23892649099244834 -0.2134278377874143
-0.007200522251652788 0.26133390352144004 -0.21396907776429724
-0.00932664973311336 0.2048335878552413 -0.21032495409085822
-0.02651579482130916 0.2502738444508529 -0.21254874378278327
0.026957558564616135 0.22341819688691855 -0.20811163991525244
-0.032711191006230426 0.2559907047451949 -0.21216559022500586
-0.023604793377446243 0.21082188770189048 -0.20684294015004706
0.0448077489656934 0.2269089429081893 -0.2048441728933103
-0.008915705509709429 0.22879697963609458 -0.21131817608907294
0.033898310832453656 0.20096667692079306 -0.20608946293428015
0.022252785138560226 0.24927910253419638 -0.21365423112943244
-0.016482515163945267 0.22360696479692221 -0.20974625259473395
0.037726329736185955 0.25090386554612876 -0.21103784054353308
0.01017008917756169 0.2684036104382491 -0.21367843061521125
-0.027577234335469315 0.26051863119020224 -0.21247413366868567
0.03374751108117192 0.2528302876652694 -0.21184569209649634
0.00951667325921147 0.27972414180650473 -0.21238502472474646
0.023252533845377853 0.17081632301225425 -0.20915072768762183
0.018884139232111862 0.22168137714280844 -0.20973124712541175
0.0661017765326032 0.26535441562547446 -0.20473175853326392
0.024810360841227463 0.25867279455079795 -0.21349718779161048
0.04790400164551823 0.24338074609651328 -0.20777986556127143
-0.016323996611165115 0.26076008960618735 -0.21329626053407263
-0.03158817989401729 0.21169438049211264 -0.20366155713632178
-0.006175322361516069 0.2731137482823348 -0.2129953166826017
-0.012591792173909258 0.1329555122555709 -0.2100495806319959
-0.021886451073216507 0.2486057488621688 -0.21287788063123297
0.04115884201951115 0.2771249620617843 -0.208643626271034
-0.026226920910405228 0.22517569944276572 -0.20354981332852912
-0.01731680137686641 0.18554492875947715 -0.20956126957967353
0.020565645865870407 0.26009835883989096 -0.21383460968568396
0.028494196109248093 0.27398582384004355 -0.21198147147729468
0.04098586934037297 0.23448135539903403 -0.20715760797097754
-0.024368328877018997 0.18935581132783652 -0.2065090796334989
0.004913317136240889 0.26230897590532065 -0.21395857244565558
0.027970718316508224 0.2594935505093551 -0.2129843792302854
-0.012176884241627764 0.2326361148060775 -0.2116442880018003
0.051402615479899334 0.2684695927800155 -0.20763325303628516
-0.027798456974553177 0.2650391666592574 -0.2124192973954923
0.01531048314995854 0.2516367046536422 -0.2143111488206632
0.02646921770997136 0.2432562319935775 -0.21251807719304633
-0.015222890205906938 0.19881989642991782 -0.20984005540444922
0.024827050141764572 0.2690965740384078 -0.2131088933332212
-0.037430060930775715 0.26942827388658286 -0.21098491161897254
0.04378439681954472 0.18687387391938926 -0.20476600140168738
-0.010780854054020952 0.22222020313157798 -0.21028217285707068
0.031211542062235764 0.17000730916871787 -0.20665524512364936
-0.0319345126824847 0.2320078222455001 -0.20502909630372596
0.027488725356532028 0.24954613134279013 -0.2130522093160398
-0.022525412865208694 0.2591795532406783 -0.21284928530290198
0.016731070451212814 0.24107625171556235 -0.21330038815572333
-0.02554307682089717 0.17322446987046958 -0.20464683681562018
0.0185580422205457 0.23272701188935996 -0.21155307799413275
-0.025714648790883133 0.2120377032460189 -0.20421945661141944
0.005016969613505293 0.23322375699891806 -0.2123030683381803
0.03662245171494572 0.2741857378186202 -0.21035071819856238
-0.03144080740981014 0.20839961454286338 -0.20342790692880225
0.011791424922419478 0.22878654882325888 -0.2110106608255155
-0.024033171959446976 0.17522194072618247 -0.20665348678662848
-0.0341475139337054 0.15053417369737387 -0.2052172085626371
-0.01578701836638362 0.2542825548352218 -0.21338945239617896
-0.014921201296376299 0.20403494521989585 -0.20986704140737128
0.024525182418299606 0.17900814697160483 -0.20870048910214972
-0.029755247660206863 0.24704607412233115 -0.212218027411247
-0.03157202703528316 0.17032774373903037 -0.2035202941282041
-0.0338423381524554 0.24025203868760825 -0.2086084744317777
-0.02974559170775325 0.2706648914517379 -0.21182943492963385
0.02621911662049382 0.22703524515046836 -0.20919626563623023
0.006080554894877363 0.2683465091885543 -0.21347297340467047
-0.0287366936879626 0.23880859300508261 -0.2057769259794004
-0.022096348829793045 0.22258122846498252 -0.2074856272323377
0.03944938080735295 0.15203638955964804 -0.20526189714505744
0.016073512010050705 0.2069344727696395 -0.2099590113742597
-0.03982315761618526 0.25576325342073203 -0.21098872631623816
-0.018114192314671585 0.17639156267060996 -0.20922620206906867
0.016882496051264694 0.27203681156053305 -0.21307167023255896
0.030889676980448654 0.24088557645692588 -0.21130208283498358
-0.009412659235524248 0.1706149189175582 -0.21040293186738562
0.043819116525126385 0.19024338409318686 -0.20476260393693518
0.010209040812922407 0.1934953539074874 -0.21008371919229102
0.05502285259194462 0.24402185365571738 -0.20672894626691413
-0.02690307600073726 0.23864819690599204 -0.20641757160260749
0.03882427709527104 0.2051152794064498 -0.20537191241815161
-0.032541943617390705 0.2070916502179122 -0.20449037462308478
0.020774351529551437 0.27822508499040366 -0.211971964536453
-0.018707198925541946 0.24361302539720298 -0.21252582579686713
0.06254704492516606 0.24922301456346274 -0.2053489646299131
0.026801990441752365 0.26217987224473716 -0.2132161965949781
0.04838325279183476 0.26802011415376426 -0.20858846217229438
0.0034909118933209673 0.20105346128358603 -0.2102523407323606
-0.028708947725819656 0.23976226732148886 -0.2088218739612348
-0.006486905642079424 0.21715285465135337 -0.21034806579186988
0.015285628013087202 0.20996834918870688 -0.2099769672734983
0.001254158191157271 0.27779736205949546 -0.21250147729947638
0.0005193521303662554 0.2506061403454757 -0.21461017042234015
0.012498872451258589 0.20125862047090293 -0.21003476887776923
-0.022392464705037186 0.1673338024319625 -0.2073693683727033
-0.035728586741017414 0.253652772158525 -0.2118567040546186
0.05445714490838139 0.2526495663823104 -0.20707977920606208
-0.01250795824103267 0.24931260034456015 -0.21365871637895179
0.0380306710524091 0.25796796962632895 -0.21091261118486
-0.0257590542512408 0.21994229242219687 -0.20423569887712073
0.034072117976618695 0.2346465794743514 -0.20916378110482764
0.027973817758036545 0.18237795516862632 -0.20748120158746314
-0.00887779695563228 0.19753052875413657 -0.2103261759860761
0.028572695426417282 0.2343489734829879 -0.2104884794337995
-0.02641515237860591 0.2773658840359664 -0.21011392384603095
0.009468780927134443 0.2508378832043624 -0.2140745183809049
-0.006674392052220415 0.26891680642976523 -0.21346024781301093
0.03237481611199467 0.20673592969789267 -0.20637608676984381
-0.025206072159337112 0.24660648986711264 -0.21250208824708533
-0.001944703884648393 0.26934566184892417 -0.21373289435937476
-0.018996609278248856 0.17145617887391806 -0.20884912818505835
0.02467824714608281 0.22794761344804526 -0.20982443898751807
0.03459678786225407 0.2717818824948287 -0.21135058611466956
0.008090185098124434 0.2615388838948226 -0.21360480397775244
-0.01735286218695552 0.22423144266023398 -0.20951090365483832
0.00829531448311894 0.2653933374585128 -0.21342464893891883
0.00209094779915898 0.23772843763246299 -0.21321345478131842
-0.03571985466055782 0.26545878335847617 -0.21164868384435248
0.03515927689499943 0.25761338159456015 -0.2115079423768766
0.01012779968209355 0.22668697521104575 -0.21056072026326728
0.00727285640664189 0.24445422574891806 -0.2146056851728208
0.011309819392634321 0.14690067455186606 -0.21005256086423468
0.0628375877661237 0.2668351738156295 -0.2054155728204496
0.05780284302659123 0.27143253967180014 -0.20581121355130744
-0.039914144106434894 0.2369542925061202 -0.2087501993758924
-0.0038407574372759565 0.22558583900346518 -0.21069405585362982
-0.0068636069970598925 0.24314250633134604 -0.2136092892272718
0.06528584855027288 0.25396796152009726 -0.20496631771161627
0.013650046758128096 0.22717352792634726 -0.21060962587430548
-0.03571711284689815 0.24683006688966513 -0.2116791865213163
-0.03401045305304439 0.24856509849443198 -0.21212763696744513
0.032072292737437176 0.26321043655290366 -0.21215463787152838
-0.019622219629811356 0.2032209841908431 -0.20856740683152747
-0.009174359865712236 0.18220897600068808 -0.21036429315640998
0.03798614638276188 0.24392898961915732 -0.21031899362638068
-0.004854811258839678 0.22394569799318076 -0.21044770985677314
0.025217520169688156 0.24654777929200888 -0.21325413495137763
0.05074952738709538 0.23132785245790244 -0.20402057081296515
-0.002221418448018144 0.20247604534044028 -0.21039516836240363
-0.0001674423890581831 0.21848239585771323 -0.21034958571031165
0.0049113799852856885 0.26510938093080283 -0.21386015027597022
0.059414910249186444 0.243789753168962 -0.20417220502927375
-0.03913511139922054 0.24590726777925254 -0.21087683349683356
-0.013171894379185747 0.20238264486207724 -0.21001389235093665
0.026298539809657028 0.2744914500416732 -0.2123035451753385
0.008622335366679121 0.24657960817231894 -0.21432560294702124
-0.02947078449301631 0.2566281764210677 -0.21237697809770179
-0.024463308878468582 0.18108989879503012 -0.206466730533386
-0.02408705455832393 0.2503176538647628 -0.2127424439771421
0.037422316245509075 0.17362972185029746 -0.20556489735677314
0.004968958072138716 0.23020740434541465 -0.21153224617078376
0.018369184903574875 0.13540132924928427 -0.20973142593934607
0.03294785516686528 0.22944035217180014 -0.20788864403798651
0.002030478887034346 0.12706451699151755 -0.21028253048493933
0.003756390981150557 0.2633840648831344 -0.21410086363389563
0.018172668389750412 0.2262106744946456 -0.21020157247617316
0.04356934326119511 0.2538404075802779 -0.20967645555570197
-0.015489680595921587 0.20571627303972007 -0.20981919377877783
0.019898282460642746 0.2669782845677352 -0.21365268140866828
0.019789951018763473 0.21074148103608847 -0.20959600418641638
0.010391252212000776 0.2404480783642745 -0.21367400497033667
-0.020023239679860184 0.1987705437840438 -0.2083929291351087
0.06895967023797124 0.25418212100877524 -0.20377789050176215
0.030136065654231003 0.2658983080090499 -0.21250998586251807
0.010242061786127974 0.23157729789628745 -0.21169170349671912
-0.02285082442335994 0.17538132354631186 -0.20716718941762519
0.04676519530243962 0.23265751287355185 -0.20622238129212928
0.045478450231028485 0.1473939625920272 -0.20457061737611365
0.034386234454585 0.25213040992631675 -0.21172427743508887
0.021413194112254074 0.24354036733522177 -0.21321637540891242
0.012241290978861738 0.2722769586743331 -0.21306137353017401
-0.01684184176497371 0.1464663355053878 -0.20969327896668982
0.04560499089188664 0.22413351222886801 -0.2045012226684339
0.06127055185265629 0.24406196758165122 -0.20406512528493476
-0.026260210104512283 0.2294964401425338 -0.20428837448194098
-0.02130694491438777 0.24548055812730551 -0.2123069277389295
-0.002751959391163896 0.1342784373463607 -0.21037798732354712
0.04489647047944157 0.27880515739335776 -0.207403551636482
0.05078698890633671 0.2652131526173568 -0.20804531484677863
0.04114343421883671 0.20005645439042807 -0.20506012052133155
0.04503183262772648 0.24163671419038535 -0.20806797951295447
0.02573846476502507 0.25452985450639487 -0.21340408533647132
-0.02103476030402095 0.2787118165196395 -0.21112140625550818
-0.015405131407307695 0.239270767420671 -0.2124677559716947
-0.02086381418280513 0.27623709127321006 -0.2116602471454389
-0.01924781305365474 0.219597539156816 -0.2087216338498838
-0.027397258110570023 0.2593978254498458 -0.2124944290502317
0.034298943452311444 0.18476679012193442 -0.2060247173888929
-0.0018280873971453413 0.17446227952852011 -0.2104400357587583
0.03255634205765812 0.19990058824434043 -0.20631859808995795
0.020006047658396652 0.2553246824444747 -0.2138621619327314
-0.001306874580906938 0.26104714557542563 -0.21438346415593695
-0.010804189272450518 0.2300815789402938 -0.21139613896443915
-0.040391160078572345 0.2052911131085372 -0.206008966861511
-0.032299233503865314 0.21972074195756675 -0.20431091993882727
0.042843448094798016 0.20054431840791465 -0.20487306624486518
0.01952670710511296 0.24232246562852622 -0.21323640256955695
0.046287791900111126 0.22854789182557822 -0.20481206089093756
0.017795847825480392 0.20472618028535605 -0.20980007558896613
-0.011897517271565508 0.17077805683030844 -0.21018145590856147
0.02275939481682866 0.27914257928743125 -0.21180469900205207
0.035864489249659466 0.2443579642476058 -0.21086224526002478
0.0036564637941846148 0.23525705024614096 -0.21284234136178565
-0.040534062214421344 0.25139041826143027 -0.2110184541328199
0.020940916709376266 0.2648079006375289 -0.21375858396127295
0.03346191542573063 0.2709889619053817 -0.21160691588952613
-0.007737768717335771 0.19021531030549765 -0.2103342077119596
-0.03170753819518001 0.1863132922352767 -0.2040528914315946
-0.03846837384276302 0.23015483304872275 -0.20696049541070533
0.046366440228892254 0.17807753965272666 -0.2044799438102491
-0.003247184582280229 0.19952531740083457 -0.21038353055551123
0.05170057909913151 0.2750427334012008 -0.207101758418823
-0.01746241552405269 0.21311916992082358 -0.20950498789384436
0.011031584910822798 0.22249438449754477 -0.2100290468318708
0.012585150174570967 0.23297305986299277 -0.21194757133557868
0.03921710150666325 0.23748978063478232 -0.2085583469255216
-0.01245106560759456 0.2175027339161849 -0.2100723496063001
0.010381924085093428 0.19407912179841758 -0.21007585137918067
0.04519878523774235 0.2647888271512008 -0.20938199370935034
0.04712201850838749 0.2555685250462508 -0.20869369417264533
0.05822660224862187 0.25450666829957724 -0.20637918621137213
0.0571865011972913 0.26046003982438803 -0.2065798452480085
-0.007770163841771196 0.2587378232182479 -0.21398628860547614
-0.019441468544529984 0.2724319903553939 -0.21197595804765296
0.008800523452235151 0.2166867463292098 -0.21012001842095923
0.039064185790491986 0.24605353757753134 -0.21043245106771064
-0.015669537611531326 0.2588100044430709 -0.2133825531585462
-0.02451608879141719 0.15886994287385703 -0.2064414879663236
0.04091368811554997 0.27233864948167563 -0.21000954121186804
0.023177282981348923 0.2213949768246627 -0.20931973665788245
-0.004938734598683428 0.2735647766293502 -0.21298475175931525
0.04915483491845219 0.2687069384755111 -0.20836853593423438
0.008139597348643232 0.1434096901120162 -0.21012095719411444
-0.03571004969649227 0.1919387190045333 -0.20593784361913275
-0.00686014992766292 0.2488717047871566 -0.2141636422260053
0.004627065829707075 0.2723583786190963 -0.21321440845563483
0.04429875510163395 0.2715327350796676 -0.20939644783570838
0.03538911240525334 0.25979348108186484 -0.2114664724452741
0.011345760993433882 0.22337146684541465 -0.21001246183946204
0.012986289433909346 0.17230167076005698 -0.21002527683808875
0.051759230069590496 0.24862357065095664 -0.20750104993417334
-0.006481541224049639 0.23458780929460288 -0.212429728208328
-0.01369659406714351 0.2039929239453292 -0.20997026175096106
0.02822022335953801 0.2379974929989791 -0.21130078643395972
-0.015663100309895584 0.1713206975163436 -0.2098204901798017
-0.0034265051560869917 0.23090179845704795 -0.21181387811734748
-0.03574742180876644 0.23577996179475547 -0.20790505021646094
0.009522603921366621 0.2043860165776229 -0.21010039359166693
-0.039696497746037555 0.21888919755830527 -0.20605952650144171
0.013151513509226729 0.2197937576474166 -0.21001094192102027
0.005352394751978804 0.21562649890794516 -0.21020356923177314
-0.03549016816191585 0.26852997228517295 -0.21145696550443244
-0.038503480978535724 0.22332425996675254 -0.20615286737515998
-0.03498591286711605 0.22672500297441245 -0.2057555875165708
0.013599472217036177 0.24274398967637778 -0.21428560823037696
0.041880207232905316 0.24712743446244956 -0.20990554600789618
0.05033053653664677 0.19193550035371543 -0.2034696897847898
0.01551763909287541 0.2161369530858016 -0.20997348040177893
0.04830749528832524 0.20774676486863852 -0.2042750379426725
0.0055123438162335645 0.2492414920033431 -0.21451496690347266
0.041018085650874066 0.20989390298738242 -0.20508682340219092
0.012121932677699019 0.16644450113191367 -0.21003836005761695
0.02714742916054814 0.13353033944978476 -0.20780670255258155
-0.03507651192717464 0.1291776506604171 -0.20563870280816626
0.049578027896357464 0.2531830875576949 -0.20806978255345893
-0.02494980198912532 0.18413295432939292 -0.2061501702649839
0.015434341601801802 0.24377389833345176 -0.21396103113725257
-0.005479378529118608 0.19563516065492392 -0.21035928636624884
0.004716562203837324 0.15132995530977011 -0.2102099618299253
-0.00996880037360103 0.21477230474366904 -0.21028153210713935
-0.038673384018467975 0.1810088364781356 -0.20619992524221015
-0.0006825159268847212 0.217106243819139 -0.21037095397546363
0.0584069659037122 0.26743443891420127 -0.20613108187749457
0.028462516240549973 0.27013798639192343 -0.2125377616269834
0.04341323869652836 0.24027725145234824 -0.2081861010177381
-0.028797907658146927 0.2438636629284835 -0.21058182030751776
-0.01037005884222896 0.27639331504716635 -0.21221406370236945
0.04502992527909367 0.2684915272892928 -0.20933162778451514
-0.0069756041245928515 0.2456034033001876 -0.21390829592778754
-0.036462915964650226 0.2318017093838668 -0.20718563705518317
-0.014132691450642656 0.2492366640271163 -0.2135005107505567
0.05031971829362004 0.1834231226147628 -0.20347432404592108
-0.01467962367110164 0.15508790895356894 -0.20987948387696814
0.04511605399079411 0.22923537179841758 -0.20503252357080054
-0.033176077433156086 0.2718399970234847 -0.21158580094411444
-0.024806750841664383 0.21812733098878623 -0.20631981998517585
0.04385043876595585 0.1658832637967086 -0.20475443810060096
-0.011284185476826738 0.26821555778398276 -0.21323763936593604
-0.011648638077305864 0.19700201436891318 -0.21014037340715003
0.03003059523530095 0.22230931207551718 -0.20717906564309668
-0.013526869841145586 0.2679889409245467 -0.2131129762513883
0.0042799283785352 0.24703981563462973 -0.21465554445817542
0.006747650079203535 0.20753498956575156 -0.21016206949784827
-0.019777102299260208 0.2007585375012374 -0.20849993437364173
0.03237395184464543 0.21359886810197592 -0.20637620597913336
0.021399842671824387 0.17613001748933554 -0.20942249506547522
0.033931689433527874 0.20113839790239096 -0.20608469456269812
-0.00890870196394832 0.20042069837465049 -0.21032729357316565
0.022091524772120407 0.23179753705873252 -0.21098650604322028
0.014683352879954268 0.18661650106324912 -0.21000033229425025
0.008736448459101607 0.15666707441224814 -0.21011027306153846
-0.011363966293858599 0.27217050477876426 -0.21272201448514533
-0.013648224897908281 0.2118177621067977 -0.20997327178552222
0.03799183862633793 0.21551390573396445 -0.2055128923042066
-0.016558093853520462 0.2292762605847335 -0.2106250634773023
-0.012529862947987627 0.23844083234681845 -0.2125786653144605
-0.034498942919301105 0.2373924462498641 -0.20785581677987647
-0.02189095122389705 0.2656851021946883 -0.21281964689328742
0.019397722653819015 0.2732770650090194 -0.2128523549421079
0.034610943965388226 0.278158923834703 -0.20979208856656623
0.04999990957207768 0.27799352094545127 -0.20642500728204322
-0.001484407015370439 0.2786447612942672 -0.21218965560033393
-0.0019956062512865766 0.19268896266832114 -0.2104032447917707
-0.00901086432509334 0.16213955566301108 -0.2103312721832044
-0.03365821940474422 0.16950263664140464 -0.204996045528198
-0.02431331378989131 0.24834313079728842 -0.2127058616264112
-0.037366552181767536 0.25998987838639975 -0.2113952597959287
0.03446467416710942 0.14336063548936606 -0.2059995195253141
-0.014228446312474321 0.2392048446835494 -0.2125515601022489
0.015124993495417524 0.18622871324434043 -0.2099873533828504
7.607238717167531e-05 0.20129611179246665 -0.2103513738496549
-0.020710242815541336 0.27971418783082724 -0.210800226627136
-0.008676184244679521 0.17353167220964194 -0.21040258914067816
0.03571893470711796 0.232223591059587 -0.20802907258107733
0.0383990575594434 0.25684317037477256 -0.2108377626521833
-0.03865729076437862 0.27931644603624106 -0.2076287975890882
0.048207448892069744 0.19462140485658408 -0.20428075998857093
-0.0014044473844042524 0.27038373634233237 -0.2136395385844953
0.049867408446741986 0.2161442248524642 -0.20375991970136237
0.04796289103455632 0.20708032533540488 -0.20431263357236457
-0.017336619921254227 0.15251114055528403 -0.2095472922904737
-0.018424315281437943 0.21564491674318076 -0.20908885806634497
0.02112089293427556 0.26970662757768393 -0.21325549095704627
0.007360058001948286 0.27418925449266196 -0.21289394408299994
-0.014774663277196001 0.25650866910829306 -0.21349416285588813
0.044939981870127606 0.2582723109425521 -0.20932498186662268
0.053633736543131756 0.2467093078793502 -0.20707814007833075
0.00828872816987126 0.23126383706941367 -0.2116689494235761
0.008019643001032759 0.16512229129686118 -0.2101302406175382
0.0015668143553265825 0.21085061714067221 -0.210311945377136
0.026495354346705368 0.2671669332684493 -0.2131234368665464
-0.0015000830369463667 0.14264955207719565 -0.2103877326829679
0.05356912510819523 0.2594700066746688 -0.20725439101293158
0.0031458904070386187 0.20591779634370566 -0.21026441067292762
0.050672369174433636 0.2526795475186324 -0.2078295758350141
0.005891012124491621 0.24511154577150107 -0.21470106750562262
0.011640118531657149 0.2560597269238448 -0.21382923036649298
0.05943228500313847 0.2481041161717391 -0.20595916718080115
0.057255910806132244 0.25469585344209433 -0.20658012837007117
0.01898683803505986 0.2736243812741256 -0.21281665175988745
0.044097529820872235 0.2795149891079879 -0.20737371951177191
-0.03470165831618221 0.18569602653398276 -0.20547480493619513
0.01754747527070134 0.2639885155858016 -0.21396477132871222
0.05349858301110356 0.23893346473588706 -0.2046019992215879
-0.010337186880635332 0.2787621824444747 -0.21189345031812262
0.04193125861115544 0.17690672561540366 -0.2049672266824491
0.018411712817622116 0.27003522798433066 -0.21332919210031104
-0.03263564211897762 0.2744090764225936 -0.21080873519017768
0.021049128941965988 0.1870006529988265 -0.20946140199735236
-0.01902888519339473 0.19797887489213706 -0.20882345348432135
0.015910433701945236 0.2465702502430892 -0.21422862618997168
0.059170352391673016 0.26284303352250815 -0.2061787059886701
0.0333198179525861 0.21584816858186484 -0.20618027061059546
0.055355684928370404 0.27752443239106894 -0.20479124396874976
-0.019133401938008377 0.233721873015306 -0.2103441616876371
-0.014812542028950762 0.26251043960466147 -0.213373388944412
0.02945383089013188 0.21002348348512412 -0.20711828380658698
0.05543397562928288 0.23920347377671958 -0.2036438396556623
-0.0020430515485277876 0.24220814391984702 -0.21372565239503455
-0.003656251259373735 0.24233784362687827 -0.2136903813464887
0.018883364371729782 0.19844605609788657 -0.20968585818841529
0.014347152881098677 0.2595296113194442 -0.21383665114476752
-0.0008991788106432661 0.2596661655606246 -0.21441980808808875
0.03828077214188664 0.19404335901155234 -0.20544248431756568
0.03335501449532597 0.17633410379304648 -0.20616232961251807
0.04545100229210942 0.1950527040661788 -0.20458392411305976
-0.008085084982441973 0.18185915634050132 -0.21039034038617682
0.03584568398423283 0.26240315124406577 -0.21137752741410804
0.020347403459025314 0.2180789320172286 -0.2095555475337751
-0.03804977042250545 0.27719428226365805 -0.20792954772546363
-0.032499922342824054 0.174326440543077 -0.20446714371278357
0.015672134332133224 0.27823581382646323 -0.21195560306146216
-0.02206139070563228 0.2169749943913436 -0.20751121252610755
-0.006977273054646562 0.20695837423219443 -0.2103492429836042
-0.035132301874684406 0.26292010232820273 -0.21181031673982215
-0.02881263000540645 0.2746457068623519 -0.2110869398696668
-0.011730505056904863 0.18613662406816245 -0.2101314625127561
0.06498824255890935 0.25701268598451377 -0.205147635041023
0.001294450931025435 0.22054632589235068 -0.21029269307687354
-0.007398886509465288 0.12941711232080222 -0.21033028870656562
-0.005260152645634722 0.15305539056672812 -0.21035679787232947
0.03501047389931767 0.2786774842442489 -0.20957107454373908
0.024071412257624557 0.1686319915951705 -0.20886011034085822
0.04533739583916752 0.22107323095216513 -0.2045540472848661
-0.006873143740223955 0.12687729880227805 -0.21033529549672675
0.03436480658478825 0.17742939874543906 -0.20601419716909003
0.011064635686350752 0.2776374427975631 -0.21239500850274634
0.011189745835734297 0.2499245612324691 -0.2143731823547132
-0.0021677742677202925 0.25590296670808554 -0.21437359958722663
0.030606376103831223 0.19050212785615683 -0.20681146889760565
-0.025237722225712845 0.2108574120701766 -0.20542662948205542
0.035731034450007366 0.23007567808046103 -0.20731873422696662
0.020260380677653244 0.25516255781068564 -0.2138415536268003
0.008056895904017378 0.23447509691133261 -0.2125011941774137
0.04071934717125981 0.2231620757283187 -0.20513401537969184
-0.04053582055144222 0.27316548511399985 -0.20988355189397406
0.0077997912687787305 0.17246832534684897 -0.21015700310304236
0.040148334674311566 0.1859197227658248 -0.20516743868424964
-0.02598105175070674 0.17676653549089194 -0.20353926330640387
-0.022651595898198196 0.22916891261949301 -0.20774688929154944
0.0039652456564435255 0.24271913453950644 -0.21419737845494818
