ply
format ascii 1.0
element vertex 511
property float x
property float y
property float z
element face 0
property list uchar int vertex_indices
end_header
-0.20669039887957485 0.35228355810060263 -0.1425980290754087
-0.2056996802764407 0.34675039932145835 -0.1377636602504499
-0.20637926263384732 0.34845670148744345 -0.14031028359963965
-0.20275705856852444 0.3442200033368087 -0.13510368376805854
-0.20298056108527096 0.34678312227144004 -0.14271533101632666
-0.20368148190550717 0.3485849110783553 -0.1444302907569654
-0.20797140700392636 0.3480514495076156 -0.13600198536946845
-0.2059927712159625 0.3451097814740157 -0.12917106956079077
-0.20385031206183346 0.34402753993882895 -0.1280498763902433
-0.20339454514555844 0.34433056995286704 -0.13444868832662177
-0.2113485912757388 0.3595485298336959 -0.13405926137998175
-0.21341761750750454 0.359251281470201 -0.12956375986173224
-0.21457993788294705 0.3535410968960738 -0.12844167262151313
-0.21203976673655422 0.3503314463795638 -0.1322590669973142
-0.2102698366122714 0.34826000615968467 -0.13343174367978644
-0.20963270766310604 0.35780765697374106 -0.13665154188706946
-0.20930887562804135 0.355669578761003 -0.1372421494109876
-0.20651776892714413 0.3590476720036483 -0.14197475820615363
-0.20825147432856472 0.35120042249574424 -0.13962368279531073
-0.2089258114772311 0.35436548873796225 -0.1380065491779096
-0.2036899010615817 0.3557689993084884 -0.14701905459001136
-0.20503502888255032 0.3560475318135238 -0.14566729575231147
-0.2042910437064639 0.36564024373903037 -0.1379344275577314
-0.20737343830637844 0.36071844980134726 -0.13950223833158087
-0.20336568159632595 0.36446847602739096 -0.14157369345262122
-0.20310152871184262 0.36653425380601645 -0.12800515800550055
-0.2086037228780261 0.36254855081453086 -0.1322448214872129
-0.20938519937567623 0.36131062194719077 -0.13300205379560065
-0.20321582061819943 0.2817517130078292 -0.053599979577804324
-0.20306552750639828 0.282086929530046 -0.059000816045547244
-0.2029920647817126 0.2816301195324874 -0.06002759545877051
-0.20578260523848446 0.28164859697236777 -0.04235481828286719
-0.2047856132464877 0.2858514992894149 -0.04292594998910498
-0.20336861712508114 0.28898372337236167 -0.04275852054193091
-0.20438168747000607 0.30511059448137046 -0.04184433430268836
-0.20271411342196377 0.313954970091722 -0.06181597322061133
-0.20309194726519497 0.3127004711331344 -0.05799570292069983
-0.20267258388571652 0.3149821965397811 -0.055995222030425784
-0.2026072571950427 0.3135737387837386 -0.055800344644332645
-0.20513373417429837 0.3098980991543746 -0.04169296830728125
-0.23136435253195675 0.34866090700044394 -0.09215840309693885
-0.22929779989294918 0.34569098636522055 -0.08902418225839209
-0.22230185372404965 0.3431363908947921 -0.08860092967584204
-0.2252732942777148 0.3438845483960128 -0.08796643823220801
-0.22814106745295437 0.346187910288713 -0.09372856825425696
-0.22665688199572476 0.3467087952794051 -0.09750073760583472
-0.2255419026093951 0.3463988511265731 -0.09801512569024634
-0.22857534689478787 0.3477641551197982 -0.09636029213502478
-0.23287445110850247 0.3481676189602828 -0.08780663817956519
-0.23088583154253872 0.34525038883104087 -0.08424606531694007
-0.22942870659403714 0.34338953182115317 -0.07997750848367285
-0.22514548701815518 0.3421740739048934 -0.08192395776345801
-0.22390325171523007 0.3421268074215865 -0.0834433397634275
-0.23690014881663235 0.3464698402585006 -0.07004487126901221
-0.2391902784781924 0.34786762878312827 -0.06390961617066931
-0.2371400277095309 0.34633578941240073 -0.06853770822122168
-0.23301857513956936 0.3431155292691207 -0.06478857606484961
-0.23082472188048275 0.34274168893708945 -0.071585800348068
-0.23240414065890225 0.34364827558412314 -0.07170244663789344
-0.2353060672955981 0.34520276471986533 -0.07121979802682471
-0.2375568578916064 0.3481806723774886 -0.07231810301377845
-0.2336099724250308 0.34538843318834067 -0.07807722300126624
-0.23090538186602505 0.34322317525758506 -0.07429423540666175
-0.2301619480329028 0.34251769468202353 -0.07209568828179908
-0.2267493138986102 0.3413173763455367 -0.07351737826898169
-0.22617178959422024 0.3419229595364547 -0.07865383833482337
-0.22941165966563137 0.3415625302494979 -0.06776684135034156
-0.2258645276504031 0.34014262840165854 -0.0690678617341764
-0.22711510760359677 0.3404563276471114 -0.06787469595506262
-0.2291059623437396 0.3556815592946029 -0.10181751459672522
-0.23094722432665737 0.3540613858403182 -0.09757190555169654
-0.22937662703566464 0.35196401759996176 -0.09993648141458106
-0.22626501125864895 0.34974958583726645 -0.10454278796746802
-0.22750200135283383 0.3543653099240279 -0.10516550749375891
-0.22884416384272488 0.35599621221437217 -0.10219403713777137
-0.2235938589053622 0.3644587008656478 -0.10111939519479346
-0.22639553052954586 0.3645866124333358 -0.09745028227403235
-0.22779622478060635 0.3623215167225814 -0.09914216011598181
-0.22502049607806118 0.36054404661073447 -0.10445835798814368
-0.22487517995409878 0.36156400129213095 -0.10381310790612769
-0.2350779305177203 0.35888960048570395 -0.0875232478959806
-0.2373037616687289 0.358130892962358 -0.08432450502946448
-0.2372957597451678 0.3545712439717269 -0.08365168779923987
-0.23455542130045803 0.34853901550187827 -0.08477347701623511
-0.23410270912222775 0.34959485217942954 -0.0878727397306211
-0.23568184477858456 0.3517489044369674 -0.08749577015473914
-0.2339611182885638 0.35328163787736655 -0.089697714744354
-0.23497149152331265 0.35813733026399375 -0.0879810115678556
-0.2323485742288104 0.3554189412297225 -0.09373557180001807
-0.23308597309164913 0.3510324566067672 -0.09163871019914221
-0.23227551383547695 0.352812608927629 -0.09405317514970374
-0.22359594506792935 0.3665300814808822 -0.09320929258897376
-0.22733211321406277 0.36607815906419516 -0.0885504147393949
-0.22818815512232693 0.36474563762559653 -0.09298818915917945
-0.22940778536372097 0.36477996990098716 -0.0898510476930387
-0.23140509230666073 0.36056592151536704 -0.09280982225968909
-0.23191441399626644 0.35923041984452964 -0.09408297747209143
-0.22659520608954342 0.36650689527406455 -0.08508962005212378
-0.22587573332362088 0.3668396084012008 -0.0820397695882566
-0.22556327087454708 0.366961619109056 -0.08101677506997657
-0.23260733289294155 0.3614788858593917 -0.08717691510751319
-0.2325628678279391 0.36283828899278403 -0.08356833070352149
-0.2329848389106265 0.36256237909211875 -0.08326211184098792
-0.23858876330428036 0.3574791161717391 -0.07584738343789649
-0.23767125410609158 0.3544874994458175 -0.07945853084161353
-0.23880386156611355 0.35237940236940146 -0.07511037200524878
-0.23759814900927456 0.34984209224595786 -0.07757991164758277
-0.23490856391959103 0.3474061696232772 -0.08116447537972998
-0.2398929427342883 0.35692151471986533 -0.06978636592462134
-0.24002028805785092 0.35571672603502036 -0.06900691598489356
-0.24048714143805416 0.35494073316468955 -0.06690010040834021
-0.23163555366568478 0.36627944394960166 -0.07402219980790686
-0.2318287621217242 0.3663984744252181 -0.07229122131898474
-0.23632339937262448 0.3612541167439437 -0.07919358819558692
-0.23642715615801724 0.3626828400792098 -0.07376408189370703
-0.2363238017039767 0.3604632823170638 -0.08067813128068518
-0.23634108705096157 0.36111958906068564 -0.07941352933480811
-0.2317369858699313 0.3664549796284652 -0.0709221622331388
-0.23346455199294003 0.36592265054597617 -0.06591492503717017
-0.23521785242133053 0.36489524528398276 -0.06801962464883399
-0.2367781828122607 0.36426069423570395 -0.06681137889459204
-0.2392789403872958 0.3604153601826644 -0.0661839207990415
-0.23996586901717099 0.35880680963411093 -0.06770318358972144
-0.22645558220915707 0.3666968552769637 -0.07917630284860205
-0.22706745369009884 0.3665884344281173 -0.07552510112359595
-0.22720484239630612 0.36669554397477866 -0.07381441801621985
-0.22070255679659756 0.36404367372407676 -0.061884190736556766
-0.21955130798392208 0.36306812450303794 -0.060790862737441775
-0.22335201305918606 0.3662830202282882 -0.06509551018312049
-0.22708384496741207 0.3673224656285262 -0.07127025335862708
-0.22857312662176998 0.36708166286363364 -0.06781842917039466
-0.21486471397452267 0.3485452143849349 -0.1243281623704679
-0.21404038173727902 0.3459122388066268 -0.12047317236497473
-0.21576131684355648 0.34856744691743613 -0.12248700469567847
-0.21243916256003292 0.3456666676701522 -0.12326563507154059
-0.207104666061925 0.3446981517971969 -0.1255309095962293
-0.2071378956513873 0.3441918699444747 -0.12321179717614722
-0.20856344503931912 0.3454951851071334 -0.12710193902089667
-0.20827884776167782 0.3452894894780135 -0.12661002188756537
-0.2132905702071658 0.34963967487230063 -0.12864271908834052
-0.21669587297015103 0.3490655033291793 -0.12178240328862738
-0.21709987325243862 0.3462890593708968 -0.11647441595628333
-0.20973053378634365 0.342070957869432 -0.11500072091653418
-0.20926408273749264 0.34272446319474936 -0.11688443630769324
-0.2096853683667651 0.34283270522966147 -0.11684327930047583
-0.221710516043233 0.3468522636593795 -0.10971188157632422
-0.22290764553122433 0.3475379554928756 -0.10833951443269324
-0.22023811740450772 0.34463377878083945 -0.10566639512612891
-0.21585494083933743 0.3431682793797469 -0.10881182163789344
-0.21646843654684933 0.3435013501347518 -0.1088322660310514
-0.21711966199450405 0.3452604620160079 -0.11346068590715003
-0.2224911431746951 0.3500618545712447 -0.11226141065194678
-0.22330656451754483 0.3462658135594344 -0.10369896501138282
-0.22493918044142636 0.3463179080189681 -0.09874760716989112
-0.219611106343793 0.3432918994130111 -0.09845488875939917
-0.21818482679896267 0.3427166549862838 -0.09881743401124549
-0.21689048213534268 0.3420725671948409 -0.09761565536096167
-0.21322764260344418 0.3419602720440841 -0.10910722225740027
-0.213002858586835 0.3422768323124862 -0.1106286606176145
-0.21616013152174862 0.34209521695985556 -0.10302218407228064
-0.21208300990633877 0.34033908531083823 -0.10411837309434485
-0.2130716274457446 0.34052117750062705 -0.10268002360894751
-0.20450313193373593 0.34253509923829795 -0.11553106814458441
-0.20519630415015133 0.34237839862718344 -0.11595825463368964
-0.2074340711312762 0.3396058289708114 -0.10966080039575171
-0.20886194510035427 0.33853580638780356 -0.1049596628530271
-0.20349775058798703 0.33618505880250693 -0.10579159468247962
-0.20536415082983883 0.33624555751695395 -0.10342460483148169
-0.2040733079390994 0.33992632314576865 -0.11053877681329322
-0.20298231942229183 0.34249587938203574 -0.11285546034410071
-0.20950294835143002 0.338763376921556 -0.10443824142053199
-0.2092206160502902 0.3376546113194442 -0.10020976871087622
-0.21068118316702755 0.3384111730755782 -0.09918132036759925
-0.20453282994799526 0.33398993894471884 -0.09969642370774817
-0.20311766666941555 0.3350576965512252 -0.10395073503091407
-0.2174857686238757 0.34411450311555625 -0.08905082553460669
-0.21679679853491696 0.34245612308397055 -0.09435742705895972
-0.21863412661127957 0.34350999280824424 -0.09311082571580481
-0.21436914605669888 0.3440703360737777 -0.08430131882264685
-0.20944961709551724 0.35115679189576865 -0.08208769172265601
-0.21744569940142544 0.34239586278810263 -0.08465957254006934
-0.21996404034666928 0.34234394714250327 -0.08642720788552832
-0.21536852223448666 0.3433857767285323 -0.08457630485131812
-0.21323431832365902 0.34633036538972617 -0.08610623687341284
-0.20993323428206356 0.34449644967927695 -0.08663320153787207
-0.21060968739561947 0.3445667831601119 -0.08663254588677954
-0.2131934444385043 0.34345163986100913 -0.08776366323068213
-0.21121720773749264 0.34261884376420737 -0.08773380130364966
-0.21398572427801998 0.34093781396760703 -0.09586420267655921
-0.22417668802313717 0.33943881675615073 -0.07027485579087805
-0.22365426821284207 0.3386095373333907 -0.0673828384263761
-0.22317908508353146 0.3384124247731185 -0.06577628463342261
-0.22030243081622036 0.3368017880619979 -0.06255474299027991
-0.21677215201430233 0.33478268072023154 -0.07148557513787818
-0.2168318013625613 0.3353967277707076 -0.07288589685990882
-0.22271093530230435 0.33943857833757163 -0.07328116506173682
-0.2218306343036166 0.3401970474423385 -0.07840492933824134
-0.22425092560820492 0.3405142037571883 -0.07478201001718116
-0.21638187570147427 0.34101231977357627 -0.07958513110711646
-0.2154493163304797 0.3386315910519576 -0.07798227280213904
-0.2138088921981326 0.33736958190812827 -0.07795744746759009
-0.21441611451678189 0.3357288448513961 -0.07598891466691565
-0.21025509936385067 0.332110008448503 -0.07625725477769446
-0.210988698430585 0.33800395414247275 -0.0807885488851316
-0.21116637987666043 0.33885314151658774 -0.08122798412873816
-0.21351650161318692 0.3307520954312301 -0.06831681340768408
-0.21230520112090023 0.33099891826524497 -0.07142272203996253
-0.20962294740252407 0.3455794660748458 -0.08038627713754248
-0.21332338256411465 0.3430784551800704 -0.08108445614411902
-0.20355801088385495 0.3293085305394149 -0.08616551369264197
-0.20285852057509335 0.3279051391781783 -0.08664995044305396
-0.20544019145541104 0.3234060017765975 -0.06956550091340613
-0.20441560251288327 0.3206711022557235 -0.06722205489709449
-0.20493587655596646 0.3215882985295272 -0.06768029540612769
-0.20368437273077877 0.3188211528958297 -0.06645044296815467
-0.20894463164381893 0.3310521452130294 -0.07613864153459143
-0.2046015243010989 0.32632472202195884 -0.075299259124542
-0.20593374771647366 0.3293220607937789 -0.07950463503434729
-0.20967854363493832 0.32991852447404624 -0.07365193575456214
-0.20727653605513485 0.3265408484639144 -0.07118963807656836
-0.20673642856650265 0.3262988536061263 -0.07161554306581092
-0.209511248298215 0.33777095958604575 -0.0937202236039884
-0.210507644243764 0.34021814748658896 -0.09270286172463965
-0.20852033597998532 0.3380690424145675 -0.08899941652848792
-0.20790546936564358 0.3358079998196578 -0.08860811203553748
-0.20574699146323117 0.33244874164476157 -0.08950435727670264
-0.20592187149100216 0.33292814180269004 -0.0922256073339231
-0.2039914260583392 0.3324920146168685 -0.09604155629708838
-0.2082934359984866 0.33803226634874106 -0.08590897530152869
-0.2076949308591357 0.33407421991243125 -0.08336168140008521
-0.20433813137583645 0.3306088654698348 -0.08566516250207495
-0.20419794125132473 0.3302075473965621 -0.08388319223954749
-0.2036629895644656 0.3505754081906295 -0.08317684739663672
-0.2072425018029681 0.34758963271989585 -0.08134966701104712
-0.20717622143797787 0.34802993223085166 -0.0798785647733457
-0.20973609191946896 0.3412045447529769 -0.08305826395585608
-0.20284804505877407 0.34982564136399985 -0.07917403787210059
-0.20443166596465023 0.34951349183931113 -0.07727437823846411
-0.2026365230756274 0.3519607393444991 -0.06856724232270789
-0.21950466734938534 0.35838361665620566 -0.11910253375604224
-0.2218606601434222 0.3561996428669906 -0.11480441301896643
-0.22204260332159909 0.35859849140062094 -0.11290278643205237
-0.22125364644102963 0.3529960124196029 -0.11764163881375861
-0.21775065166525753 0.34998913690461875 -0.12131367236211371
-0.22080217105917843 0.354191741198442 -0.11838937908246588
-0.2199390660005084 0.3580754606427169 -0.11875715464189124
-0.2146844099240771 0.3556497304142928 -0.12758417039945197
-0.21767195863299282 0.35806753322496176 -0.12140324324204993
-0.2163323591428271 0.3526052443684554 -0.1245669683797605
-0.20840175253920468 0.36620291158571006 -0.12353124826982093
-0.21011486453585537 0.3661969511212325 -0.12278517693116736
-0.21204086942248257 0.36426194593324424 -0.12488761156632971
-0.21452471417956265 0.36096872970475913 -0.12476206928327155
-0.21372489435248287 0.3618181554974532 -0.12531096845700812
-0.21228505475096615 0.36038371011628867 -0.13191534191205573
-0.21295748455099972 0.3652952520550704 -0.11975907891824317
-0.21158936423830899 0.3659255115689254 -0.11784141868188452
-0.2116094212012759 0.3664961068333602 -0.11273368805482459
-0.21583741707377346 0.3652313558758712 -0.11294868200852942
-0.21646283371024044 0.3611984460057235 -0.11963022857739997
-0.21620242101721676 0.3644426672162032 -0.11492478459909033
-0.21779291135840328 0.3623498289288497 -0.11539674907758307
-0.22516496283583554 0.35628225490464926 -0.10894965737893653
-0.2252166400628558 0.3531802503766036 -0.10907786696984839
-0.21794962687067898 0.365317126959703 -0.11024385303094458
-0.22043826980166348 0.3648427931965804 -0.10386719912126136
-0.2217151056008807 0.3609068600834823 -0.11140119641854834
-0.22495862645678433 0.359024664610765 -0.10578611105516028
-0.22384032411150845 0.3596402613820052 -0.107790794072891
-0.2198428790050021 0.36179067775621176 -0.11321132987573218
-0.21870775324873837 0.3643003313244796 -0.11109026878907752
-0.21973687214426907 0.36519177839174033 -0.10313355535104346
-0.2205217461066714 0.3647895066441512 -0.10213186949327063
-0.2208659182267657 0.36638917610063315 -0.09695553392007422
-0.20983135504298123 0.36691471025361777 -0.10661166518762183
-0.21156401736311825 0.36651148483171225 -0.11070146769120764
-0.21250951094202908 0.36672653839006186 -0.1053273341043241
-0.21226307553820523 0.3662479130925155 -0.10725536554887366
-0.20788934630923184 0.36470850393190146 -0.09734233826234412
-0.2063429485040179 0.3644257991017318 -0.10030385464265418
-0.20698642534785183 0.36448254272355796 -0.09835245817735266
-0.21127114994101437 0.36658199712648154 -0.10160073250367713
-0.2161943147855273 0.3669470755757308 -0.09574168532922339
-0.20499262017779263 0.3656413762272811 -0.12499340981080603
-0.20778204304747494 0.3655715791882491 -0.12567303687169623
-0.20470867855124386 0.3656951992215133 -0.12354622393682074
-0.2038030157762042 0.366029104441545 -0.11610118657186103
-0.20378427011542233 0.36592443868531943 -0.1152930071933515
-0.20528554720454129 0.366493245810411 -0.11574887841775489
-0.2026607523637286 0.361721357554338 -0.0983511468751676
-0.20462608141474636 0.361410876959703 -0.09392034619882178
-0.20436821682028683 0.3609981147946334 -0.09333833664491248
-0.20298573178820523 0.3654582111538863 -0.1118522843702085
-0.20741173429064663 0.36691357776536704 -0.10991265982225012
-0.2037300596909991 0.36438252612962485 -0.10397228211000037
-0.20552110476069363 0.36443169996156455 -0.1017829439027555
-0.20303940577082547 0.3627657501400924 -0.10067975133493018
-0.21035395366721066 0.3549859134854293 -0.08106642573907447
-0.21128515703253659 0.35730435535325766 -0.0812303087098844
-0.21799795133643063 0.36650689527406455 -0.09210303038194251
-0.21850169999174984 0.3663730828465438 -0.09026750534608435
-0.21337941093020352 0.36010690614595176 -0.08028530686929297
-0.21692785424761685 0.3638819663228011 -0.08090459912850928
-0.21626423103384884 0.3654558865727401 -0.08723920196130347
-0.21872442764811428 0.36602469369783164 -0.08578633874490332
-0.22227838439516934 0.36695273801698447 -0.08393543571069312
-0.22035361630492123 0.36604334995164634 -0.08205842584207129
-0.2102732042747012 0.357138416022203 -0.08350559681489539
-0.2091004381852618 0.36200775787248374 -0.08971955984666419
-0.20743998689227017 0.3623503057660079 -0.09192704766824317
-0.21363840801291378 0.3653720824421859 -0.09332960456445288
-0.21086388630442532 0.36355634614839316 -0.09055256455972266
-0.21622693342738064 0.36683215782060385 -0.09482583015992713
-0.215206889339017 0.3650910465420699 -0.088106956182266
-0.2121907453017703 0.3616651503743148 -0.08457761615350318
-0.2112812529283038 0.3624951450528121 -0.08752581089570594
-0.2134811858611575 0.36058457776918174 -0.06834190696313452
-0.21776602966360958 0.36185826942338706 -0.06080901235177588
-0.21392835480742367 0.36050655528917075 -0.07289594024255347
-0.215826926656293 0.3621883003415084 -0.0741923710687406
-0.21471960646681698 0.36056246444597007 -0.07674917191102576
-0.21699671251349362 0.36365981981172324 -0.07961576789453101
-0.2184925953822604 0.36503042861833335 -0.07467493027284217
-0.2218223790603152 0.36623223707093955 -0.07276567429139685
-0.22192525667719754 0.36642893239869834 -0.07509958356454444
-0.21882840795092495 0.3651027290524459 -0.07338782757356238
-0.2181961665826312 0.3646246401967025 -0.07241755336358618
-0.2050261030869952 0.35356183931245566 -0.06978773683145117
-0.20738634271197232 0.3510607092083907 -0.07806726902558875
-0.20644962591700466 0.35091211482896567 -0.07605853289201331
-0.21155017418436917 0.357492944449327 -0.07774892061784339
-0.20995293361716183 0.3577331511677718 -0.0747140905244596
-0.2078286389785281 0.35042073413743735 -0.07958677023484778
-0.20899416310362728 0.354746362418077 -0.07810166090562415
-0.20664654476218136 0.35439862892045737 -0.06469598024919104
-0.2068344335036746 0.35557355567826987 -0.07110070794656348
-0.20956782800726803 0.3575486151875472 -0.06974404662683081
-0.2140447775798312 0.36011537000550986 -0.06433808415963721
-0.21186408204607876 0.3590715734662032 -0.06702005475595069
-0.21165606183581265 0.35738958999528647 -0.06187069028451514
-0.2073822597938052 0.35384454414262534 -0.060922887025619266
-0.20792777640395077 0.3537697403134322 -0.05958565682008338
-0.20276172263197811 0.3578964082898116 -0.09003954738214087
-0.2027440796571246 0.3584760634602523 -0.09106853216722083
-0.20614367527537258 0.3600822894276595 -0.09001740425660681
-0.2045850436168185 0.35574092552079917 -0.08718618362977576
-0.2426046262460223 0.3463857381047225 -0.042960312066817996
-0.24463522238306912 0.34855713531389 -0.042546387611175296
-0.2401225398259631 0.3491004316510177 -0.06250723808839392
-0.24019188983015927 0.34834726735963584 -0.05908748119905066
-0.23810702366404446 0.34574790880098105 -0.06060048550202918
-0.2337741385179034 0.34322222158326865 -0.057334478793884036
-0.2331219146924487 0.34305288478746176 -0.062170740066314456
-0.24116174680762203 0.3498802988232589 -0.058411147294784305
-0.24018144411616238 0.34628095313920737 -0.05041560143067908
-0.23809695047907742 0.3441181986035323 -0.048615243135238406
-0.23363405270152005 0.3424330560864425 -0.0507275125367887
-0.233122168012189 0.3428055255116439 -0.05644076675012183
-0.22935698730521115 0.3430655805767989 -0.06100317448213172
-0.2259168307261935 0.3438453285397506 -0.05724235981538367
-0.2274543474393359 0.3430879323185897 -0.06034233778550696
-0.22677635950617703 0.3420586197079635 -0.062037553487563846
-0.2230978439527026 0.3448438255490279 -0.05451449364259314
-0.2220207582192889 0.346678039282701 -0.04924705236985755
-0.22269178731017025 0.34578784391298056 -0.05485409110620093
-0.23115296465926083 0.34251107856645346 -0.05360459893777442
-0.2265291194396487 0.34329827711000205 -0.05252080768182349
-0.22412980897002133 0.34379740640535117 -0.05225032180383277
-0.2425375114160052 0.34907217904939414 -0.05125507324769568
-0.2404427061753741 0.34607877418412925 -0.048658069072509524
-0.24175454480223568 0.34616424724473716 -0.04506259769036841
-0.23592728180460842 0.34166481181993247 -0.04165005296304297
-0.23591631454996975 0.3428161351384139 -0.0471780261380918
-0.23148736161761196 0.34080942556276084 -0.0467866322381742
-0.2310057858901492 0.3419251649083114 -0.0487005075795896
-0.22914120358996304 0.34248759433641196 -0.048834707437301395
-0.24462689263396176 0.36093266889467 -0.04621994107797217
-0.24641561312251004 0.3558474390210128 -0.042912985978866336
-0.24634392363600643 0.35477580711259604 -0.043495561776901004
-0.24612657529883297 0.35146345779313803 -0.04254805654122901
-0.24270908338599118 0.3492703644932723 -0.051225151716018436
-0.24381331903510006 0.35450383111848593 -0.05219968765809607
-0.24467418891959103 0.35242470189943076 -0.048722054658675906
-0.2451363782363406 0.3554504124821639 -0.04848950713708472
-0.24070349139742764 0.36509116575135947 -0.0465386173112638
-0.24429742795996578 0.36225982591523886 -0.041882272659087894
-0.24427091879420193 0.3595434038342452 -0.048972036538863895
-0.2411356399732104 0.3645872680844283 -0.04675778359010291
-0.2414713929372302 0.3552511541546798 -0.06190174430444312
-0.2417607734876147 0.35680933877839804 -0.060100998578811404
-0.24162341458372982 0.3528176753224349 -0.059841211734557864
-0.2422260473447314 0.3548338024319625 -0.057808812557006595
-0.24215595228247555 0.3506610600651717 -0.05590292423799109
-0.23280325336031826 0.3666791526974654 -0.059285309015060184
-0.23249833089880856 0.3668877093495345 -0.0578727385385282
-0.23468880159430416 0.36617048665895224 -0.05678811281755042
-0.23777018291525753 0.3648329584301925 -0.05890321343972754
-0.2385618071036807 0.36270620509996176 -0.06290569513871741
-0.24148796302847775 0.35937138482942343 -0.058548983035827395
-0.24086360437445553 0.3590985147656417 -0.06248116105630469
-0.2362877110915652 0.36574711486711264 -0.05409401267602515
-0.23534783525042446 0.36618354007615805 -0.05207714050843787
-0.23783068162970455 0.36520697757615805 -0.05324309676721167
-0.24033826393656643 0.36295863077058554 -0.0521596631391294
-0.23947496516280087 0.3633380143345809 -0.05669420569970679
-0.24393476349882992 0.3568530885876632 -0.053192254005218265
-0.2409910689073077 0.36227103158845664 -0.05068096130921912
-0.21945735616259487 0.3506753651799178 -0.04968514650895667
-0.22032615346484097 0.3587761132420516 -0.047757264076019046
-0.2205602656083575 0.3613912670315719 -0.053646918235564944
-0.22177533609442623 0.36378063842668296 -0.058265413938308475
-0.22567298812441738 0.3658593504132247 -0.05741753786637854
-0.22714996141962918 0.3668661324681258 -0.06310948341920447
-0.22936978740267666 0.3669163195790267 -0.058968718944335696
-0.22139067751936825 0.36073662921800376 -0.04983055203988623
-0.22059413594775112 0.35909696504487754 -0.047376956640029666
-0.22201019329600247 0.3622243611515975 -0.05296599477365088
-0.22811499042086514 0.36602999851121665 -0.05316927641465735
-0.22716507119707974 0.36589988157167197 -0.054214086232925174
-0.23198383850626858 0.36725308582200766 -0.05022823422982764
-0.23448760611586483 0.3667094914616561 -0.042545642553115604
-0.23666927022509487 0.3658707349003768 -0.044600006042266604
-0.23899283809237393 0.36511351749315024 -0.04690867274835181
-0.22070064944796475 0.35913231059922934 -0.042237575946594
-0.22276444537215145 0.36083420202150107 -0.04487302511766028
-0.22598890764288815 0.3643881885708785 -0.04557898253038001
-0.2295804302173129 0.3661468832196212 -0.047177817521835086
-0.23152234954409512 0.36690648481263877 -0.04269152492120337
-0.23024493259959133 0.3664617745579696 -0.044713165460372684
-0.2172309587674609 0.33449300214662314 -0.057716872392440555
-0.21681374115519436 0.3331985084713912 -0.06316339582040381
-0.21646334034972103 0.3330379931630111 -0.05680694788529944
-0.21564230126910122 0.33155961915864707 -0.05666261523797583
-0.20965963406138333 0.3238204924763656 -0.059205498395705936
-0.20889897448592099 0.32426132842912436 -0.06302103012635779
-0.21169730824999722 0.32815041229142905 -0.06549065917565894
-0.21275278729967984 0.32871302053346396 -0.06359085053041053
-0.21323117417864712 0.32934935972108603 -0.06419208258225989
-0.21672507924609097 0.33165504619493247 -0.05198663085534644
-0.21590596241526516 0.33127381488694907 -0.05415093511178565
-0.21700978083186062 0.33130564376725913 -0.049749310909057376
-0.21225362820200833 0.3268102018536544 -0.05166178554132056
-0.20860993666224392 0.3235055415333724 -0.05751135557725501
-0.20834108991198452 0.32359721347703696 -0.056334014831329104
-0.211706055231618 0.32572617217912436 -0.056315626798415896
-0.2110325376468173 0.32251872703447104 -0.041763659415984866
-0.21731687886290463 0.3300419060887313 -0.04480254262521338
-0.21382504505686672 0.32572474166764975 -0.04258551806047034
-0.21241992516093167 0.3251958696545577 -0.04445448130204749
-0.2222552279906741 0.3414634077252364 -0.05599322527482581
-0.21930916411452206 0.3379994241894698 -0.05584212750032019
-0.22351956171564968 0.3416093198956466 -0.059652294812942264
-0.22174848420195492 0.3388844339550948 -0.06082984417512488
-0.22104023201041134 0.33792092487230063 -0.060904260574126956
-0.2195674757438174 0.33655651494874717 -0.05995475858285498
-0.2173508535104266 0.3505807130040145 -0.052652235923553226
-0.2184812257962695 0.3511331288517928 -0.052490081487441775
-0.218877686090993 0.3453382460774398 -0.05344214647843909
-0.21853385669760617 0.34347363397493125 -0.05227896183564734
-0.21844908399157437 0.33512653991594077 -0.05106931537225318
-0.2188149820046893 0.33865698263063193 -0.05167081564500403
-0.21143378121428402 0.35273816272630454 -0.0556045135839231
-0.21295565170817288 0.3518989889325118 -0.05459293335511756
-0.2042694817262164 0.34768553659333945 -0.05144816249444556
-0.2073398659902087 0.349838337153337 -0.050606395898605105
-0.21050540906958493 0.3498836962880111 -0.05058627933099341
-0.2138454745488635 0.3497427313031173 -0.051118727622771976
-0.21769083840422543 0.3454206196965194 -0.051339592633987186
-0.2171328942256442 0.34595956489457846 -0.05193951338365149
-0.2178388665395251 0.3443960754574752 -0.04998263329103064
-0.22485366267733486 0.3379546014965987 -0.045054133830810306
-0.22313648266367825 0.3366733996571517 -0.04473232835366797
-0.22126953107886227 0.33349975034608603 -0.04223382085397315
-0.21951499385409268 0.33355786487474204 -0.046823378501678226
-0.22154649896197232 0.33571829482927085 -0.04577201217248511
-0.22399273318819912 0.34240480348481894 -0.04850875943734717
-0.22110970122389706 0.3412747590245223 -0.04943582027986121
-0.21875579459242733 0.3436799256504989 -0.048804458080077884
-0.22138197524123104 0.346842846125505 -0.04887592404916358
-0.20611612302832516 0.34840293809785605 -0.04353364914491248
-0.21095536453299435 0.34959968015565634 -0.047067250905776736
-0.21306498152785214 0.3502646891774154 -0.0434589943273313
-0.21479496163897427 0.34978815004243613 -0.04588719814851355
-0.20806278092436703 0.3224795667828536 -0.061649497447753665
-0.2064539323525897 0.31994869396104575 -0.05637916534974646
-0.20511220199637326 0.3176113574208236 -0.0575174352510221
-0.20525638563208493 0.3182238547505355 -0.06069305151536536
-0.20418728692107113 0.3171603290738082 -0.0635008177144773
-0.2039005885797015 0.3222507445515609 -0.04944890349938941
-0.20673426789812954 0.32047696992769004 -0.054495569167876956
-0.20620746714644345 0.3201813308896041 -0.0537262222154386
-0.20432911617331417 0.3180339543522811 -0.05435406774118018
-0.2058743069844714 0.319127043932817 -0.05477416127755713
-0.2081180642323962 0.32234676763429404 -0.04464196771218848
-0.2060172091203204 0.3240516988934493 -0.04818626850678992
-0.20469686193041714 0.3246415464581466 -0.04869824260308814
-0.20320261818938168 0.35087563678636313 -0.06210988372399878
-0.20467988950781735 0.35102917835130454 -0.05885579794480872
-0.20493234498076351 0.34965636417283774 -0.055372711120391604
-0.2123275379615298 0.3539121954144454 -0.056173678336883304
-0.2131609748082629 0.3575499264897323 -0.05937701076104712
-0.21656915349535855 0.36056836530580283 -0.060153093038345096
-0.21655578715376766 0.35792543575181723 -0.056986387668395755
-0.22014628154807003 0.36149354860200644 -0.054896201787734744
-0.21846166057162197 0.35521735832109214 -0.05306014031007361
-0.21805360717348965 0.35377427026643515 -0.05259361475541663
-0.2146648446994296 0.3509832231701827 -0.04358610123231482
-0.2174985687213412 0.35578723832978965 -0.0448877474649198
-0.21671105725340756 0.3530302850903487 -0.0459263285978086
-0.2195936272817126 0.3554557769001937 -0.046597238479400394
-0.20296492976717861 0.3270097582043624 -0.08200230806901526
