ply
format ascii 1.0
element vertex 168
property float x
property float y
property float z
element face 0
property list uchar int vertex_indices
end_header
0.11995606320328801 -0.128253886252501 0.1029936411993258
0.10760896103806585 -0.08724732115850688 0.11641455084249902
0.10600500004716008 -0.10377866938696147 0.11762544900343347
0.10605986612267583 -0.09584022477255107 0.11760080248281884
0.11584739582963079 -0.06449670508489848 0.10818893104956079
0.10670174854226201 -0.11398763373480082 0.11705312520430017
0.10292421477265447 -0.05423534825430155 0.12002176433966089
0.1092177798075208 -0.08887786582098246 0.11495924383566308
0.11818741457886785 -0.07920900896177531 0.10524842530653405
0.10323484437890142 -0.07329518511877299 0.11979353815481592
0.10671360986657231 -0.10050840094671488 0.11708048373625207
0.11644180314965337 -0.09306315496549845 0.10746780425474572
0.12029533284134954 -0.1962775827942872 0.10256064325735498
0.11932189958520024 -0.08854324534521342 0.10380807906553674
0.11359907882638066 -0.18838290289030313 0.11070520073339868
0.11006866591401189 -0.05959142163381815 0.11417755872175622
0.10863225357956975 -0.08698780253515483 0.11549333125517297
0.11931847231812566 -0.11479748204336405 0.10382533461019922
0.11779649751610845 -0.12448205962763072 0.10574114710256982
0.12023951309151738 -0.09507561638937236 0.10263309270307946
0.1053793598932752 -0.10958168819532633 0.11808857709333825
0.11093493001885503 -0.10474065855131388 0.11337891608641076
0.11406074660248845 -0.10055548861608744 0.11019102126524377
0.10986875193543523 -0.04648486688719034 0.11436179667875696
0.10938574569649785 -0.09039781406507731 0.11480206638739038
0.11432121890015691 -0.10337830498800517 0.10990608126089502
0.12015269892640203 -0.07321448042974711 0.10274169236586023
0.10378067391343206 -0.08163011983022929 0.11936036139891076
0.11409674780793279 -0.07795799687490702 0.11012325078413415
0.10329021709389775 -0.045748928338148594 0.11974594384596277
0.11338858502335637 -0.05042515113935709 0.11089370042250085
0.1123567392153272 -0.051927933245756626 0.11202773839399743
0.1070190538687238 -0.058770486861326694 0.1168643572942965
0.1127629150671491 -0.09359146073446513 0.11158970385954309
0.1105092038435468 -0.055429318696119785 0.1137757936136477
0.12079788940377324 -0.046715238839247226 0.10191440969870019
0.11801292198128789 -0.20214260533437967 0.10549605280325342
0.11624174015946477 -0.09553218796835185 0.10771003753111291
0.12073989408440679 -0.07731280639753581 0.10198840886518884
0.115097003154231 -0.11839952483759165 0.10904616505072046
0.11515452163643926 -0.19497094467268228 0.10897806674406457
0.11355124609894841 -0.13134739711866616 0.11072433382437158
0.10987176196999639 -0.07692907169447184 0.11436280995771814
0.11050082939095586 -0.0688715668021226 0.11378893643782068
0.11517237322754949 -0.11204479053602458 0.10896793395445276
0.11824770467705815 -0.04556689575300455 0.10517245918676782
0.11068488853402227 -0.06856192067251445 0.11362076193258691
0.11424513357110112 -0.08732811525449992 0.10996616274282861
0.11377103822655767 -0.18725047424421548 0.11052281052038598
0.1036337782663831 -0.06747902348623515 0.11948803454801965
0.12015085118241399 -0.05613146141157389 0.10274532824919153
0.11703692572541326 -0.11218563631162883 0.10679349690840173
0.10351102250046819 -0.06518260553465129 0.1195804217474215
0.11342691080994695 -0.10576210334882975 0.11088300138876367
0.11170818107552617 -0.060051033049681186 0.11268231660292077
0.10706819789834111 -0.09153349116430522 0.11682546526358056
0.12070386307664006 -0.0826006026564622 0.10203448325560022
0.1072225143236646 -0.12243894651518107 0.11670104056761194
0.1121862103266248 -0.1119367273150468 0.11223033458158899
0.10646189945168584 -0.05064565852270365 0.11729219943449426
0.11486973064370244 -0.047882148772337436 0.10926786452696252
0.10324664609856694 -0.06245473936186075 0.11977962047026086
0.1060013343615064 -0.1795517446099305 0.11762646228239465
0.11139728324837773 -0.06726361230001689 0.11296961099073816
0.11688263910241216 -0.057798960953810215 0.10692447811529565
0.10611863630242437 -0.0899219007788682 0.11756018191740442
0.12103237407631963 -0.11938377633676768 0.10161492616102624
0.11568997996277898 -0.14505032613859414 0.10837027818128991
0.10960500138230413 -0.10457340791807414 0.11459044009611535
0.11933012502617925 -0.08253634884939433 0.10379645615980554
0.11562995808549016 -0.08440298750982524 0.10844406873152185
0.11034734743065923 -0.09595848038778544 0.11391541749403405
0.11165227191872686 -0.0776012928782487 0.11273622900412011
0.1115540732664594 -0.12023916259393931 0.11280593663618493
0.10957227843232244 -0.10535768583402873 0.11461830526754785
0.10802521007485479 -0.047498235255339145 0.11604157477781701
0.10458143251366704 -0.07463825657949687 0.11875242382452417
0.11535830991692632 -0.09199340060339213 0.10873562485144067
0.11415298479027837 -0.15373373940572976 0.11007246762678552
0.11047317283578008 -0.05711601093397379 0.11381125837728906
0.10944096939988225 -0.12332932069883586 0.11474529296324182
0.10348276989884465 -0.046774336844542026 0.11959508449003625
0.12084479825921148 -0.12093807175741435 0.10185492426321435
0.11171300905175298 -0.06428469136343241 0.11267945557997155
0.11332829492516606 -0.10408336833105326 0.11099210769102502
0.11320384042687505 -0.06320754602537394 0.11110192924902368
0.11803294914193242 -0.10409266665563822 0.10548803597853113
0.10776435034699529 -0.1883338035641694 0.11626136690542627
0.11635004179902166 -0.10301924660787821 0.10765546947882104
0.11479963558144658 -0.058607527762510776 0.10935572177336145
0.11274261968560308 -0.11241711094961405 0.11162874490187097
0.107518958024455 -0.10622380092725993 0.11642989903852868
0.1059172918123731 -0.04493440106497049 0.11771703154013086
0.11215080516762822 -0.10888645961866618 0.11226728946134973
0.10793738263077825 -0.048749068528273105 0.11612099796698022
0.10869951742119878 -0.12385267928228617 0.11542585879728723
0.11242027776665776 -0.0786001177130723 0.11196586877272058
0.11121495264000981 -0.09925673320875407 0.11312291413710046
0.11892970102257817 -0.050739059001066684 0.10430705934927392
0.1126880516333112 -0.06490502670393229 0.11167085558340478
0.1192171444220075 -0.06563893869505168 0.10393858343527246
0.10404096739716619 -0.12167032971964122 0.11914676815435815
0.1189112235826978 -0.10670430377111674 0.10435715705320764
0.1066295971197614 -0.06786904647932292 0.11716792375013757
0.11269591944642156 -0.0718048901854539 0.11167246490881372
0.11778421895928472 -0.053558179885008335 0.10577616483137536
0.10904209511704534 -0.08571086242780925 0.1151166299001925
0.10386623638100713 -0.05053133681402445 0.1192927101270907
0.1136668195051679 -0.11482361868009806 0.11061519771978784
0.1161435713095197 -0.10240174248800517 0.10790339499876428
0.11782069700188726 -0.12083134964094401 0.10574451476499963
0.11432661312050908 -0.07549555018530131 0.1098777690546267
0.11212758915848821 -0.05306390836820841 0.11228016406462121
0.11911164420075505 -0.1535204888878846 0.10408968120977807
0.11561180847115606 -0.050048002749540806 0.10845590025350976
0.10426421659417241 -0.10884604766950846 0.118968878092026
0.10531641738839238 -0.09865335538969279 0.11817282825872827
0.12050037281937688 -0.07258654549703837 0.10229483634397912
0.12064005630440801 -0.06728083804235697 0.10211512833998132
0.10867522852845281 -0.1145573647318864 0.11542603761122155
0.11725153224892705 -0.06631649449453593 0.10644105464384485
0.11430765884347051 -0.18236645475015878 0.10991779357359338
0.11767660277314275 -0.07656947687254191 0.10590094715521264
0.11963944333024114 -0.06458703592405558 0.10340190321371484
0.10317485230393499 -0.11216018512830973 0.11981541305944848
0.10458545582718938 -0.08653993323431254 0.11874160558149743
0.1183246244711408 -0.077642211466887 0.1050739327089541
0.10465569990105718 -0.05222693994627237 0.1186862328665011
0.10645325677819341 -0.063799837380507 0.11729684859678674
0.11509542363114446 -0.04389939621076822 0.10903150230810571
0.11122997301049321 -0.07783181384191752 0.11312103659079004
0.11835567849106877 -0.06973431423292399 0.10504469663069177
0.10654913084931462 -0.12345261290655375 0.11722246200010705
0.10760896103806585 -0.08724732115850688 0.11641455084249902
0.10600500004716008 -0.10377866938696147 0.11762544900343347
0.10605986612267583 -0.09584022477255107 0.11760080248281884
0.11584739582963079 -0.06449670508489848 0.10818893104956079
0.10670174854226201 -0.11398763373480082 0.11705312520430017
0.10292421477265447 -0.05423534825430155 0.12002176433966089
0.1092177798075208 -0.08887786582098246 0.11495924383566308
0.11818741457886785 -0.07920900896177531 0.10524842530653405
0.10323484437890142 -0.07329518511877299 0.11979353815481592
0.10671360986657231 -0.10050840094671488 0.11708048373625207
0.11644180314965337 -0.09306315496549845 0.10746780425474572
0.11932189958520024 -0.08854324534521342 0.10380807906553674
0.11006866591401189 -0.05959142163381815 0.11417755872175622
0.10863225357956975 -0.08698780253515483 0.11549333125517297
0.11931847231812566 -0.11479748204336405 0.10382533461019922
0.11779649751610845 -0.12448205962763072 0.10574114710256982
0.12023951309151738 -0.09507561638937236 0.10263309270307946
0.1053793598932752 -0.10958168819532633 0.11808857709333825
0.11093493001885503 -0.10474065855131388 0.11337891608641076
0.11406074660248845 -0.10055548861608744 0.11019102126524377
0.10462723868317693 -0.15682936623678445 0.11869645506308008
0.10986875193543523 -0.04648486688719034 0.11436179667875696
0.10938574569649785 -0.09039781406507731 0.11480206638739038
0.11432121890015691 -0.10337830498800517 0.10990608126089502
0.12015269892640203 -0.07321448042974711 0.10274169236586023
0.10378067391343206 -0.08163011983022929 0.11936036139891076
0.11409674780793279 -0.07795799687490702 0.11012325078413415
0.10329021709389775 -0.045748928338148594 0.11974594384596277
0.11338858502335637 -0.05042515113935709 0.11089370042250085
0.1123567392153272 -0.051927933245756626 0.11202773839399743
0.1070190538687238 -0.058770486861326694 0.1168643572942965
0.1127629150671491 -0.09359146073446513 0.11158970385954309
0.1105092038435468 -0.055429318696119785 0.1137757936136477
0.12079788940377324 -0.046715238839247226 0.10191440969870019
0.11624174015946477 -0.09553218796835185 0.10771003753111291
