ply
format ascii 1.0
element vertex 164
property float x
property float y
property float z
element face 0
property list uchar int vertex_indices
end_header
0.1123816837591657 0.11372931882753133 0.11190838009283471
0.11648528473801702 0.04759331628694296 0.10741323620245385
0.10277046459145635 0.06765919014825582 0.12014204651281762
0.11076648729271978 -0.034703740626432895 0.11354306727812219
0.1199117769522199 0.046241810768983364 0.10305217296049524
0.1180494894308576 0.07476197764291524 0.10543612033293176
0.11553035872407048 0.06472699925317525 0.10853833347723413
0.10759093063302129 0.08253230735673665 0.11642292529508996
0.11479117172188848 0.057376703471086025 0.10937244087622094
0.11766089694924443 -0.04018894746885538 0.10593414694235254
0.10774685638375371 0.055368891209504605 0.11630344778463769
0.11241628425545781 0.07610159203424215 0.11196187526152063
0.11310760872788518 0.09998541161432027 0.11120957523748803
0.11437164442963689 0.020414849966905117 0.10982895285055566
0.11782871382660955 0.09256117627038717 0.10570884138510156
0.11290882723755925 0.024503102749726773 0.11143824845716882
0.11336775320000737 0.10473828598870992 0.11092350274488855
0.1142008771223554 0.05301984235658407 0.11001903206274438
0.1190475990099439 0.1026406197251296 0.10415885240003991
0.11672519343323796 0.084525278061769 0.1071222463266604
0.1106349100393781 0.07198010966195821 0.11366096526548791
0.11729951398797124 0.04296164795770407 0.10639146357939172
0.1081564595026502 0.10721503779306173 0.11591256052420068
0.11156757371850103 0.10805129095926046 0.11280629426405359
0.10644887583680242 0.1013634710015273 0.11730501443312097
0.1209530104918012 0.07241146847619771 0.1017145851270907
0.11588908927865117 0.05646573588266134 0.10816795021459985
0.11047543781228154 0.08471088692559957 0.1138155201093905
0.10938681858010381 0.010915717333695887 0.11479938417837549
0.10425718324608892 0.04423349186792135 0.11899257093832422
0.11377926366753667 0.06443994328393697 0.11046749741003442
0.11205388801522344 0.03871362492456198 0.11236474305555749
0.10386885898537725 0.055396160334489346 0.11930507809088159
0.10897229807801335 0.06969051644220113 0.11518156916067529
0.10732411044068425 0.11573492571725606 0.11642831951544214
0.10792939560837835 0.057709953040025234 0.1161338725702517
0.10839773910470098 0.11528994724168538 0.11552182227537561
0.11327140229172795 0.11540161654367208 0.1109081247465365
0.11773525374360173 0.06017201229943991 0.10582995802328515
0.11674325364060491 0.05249770566835165 0.10709864288732934
0.10592933195061773 0.0727636723221755 0.1177067497389071
0.115641014747096 0.045792451352021694 0.1084233561174624
0.11835615532822698 0.08976246997728109 0.10504421979353357
0.1170707215590009 0.11318906232728719 0.1065947154180758
0.11675085323281377 0.06947352573289632 0.10709146052763391
0.11899872320122808 0.05770575091256857 0.10422212273046899
0.1062980164808759 0.07505529209985494 0.11742082625791955
0.10687773125596135 0.10053690359010457 0.11697307616636682
0.10318030612893193 0.0600603727997756 0.11983794361517358
0.11743436949677556 0.09680806681527852 0.10620266586706567
0.12016888158745855 0.06159298703088522 0.10272071153089929
0.11631559031434148 0.1113454012574172 0.10756996661589074
0.10915695326752752 0.07541679427041768 0.11500874549314904
0.11790554421372502 0.09015729114427327 0.10562074572012353
0.10367120998330205 0.03258987352266073 0.11945194393560815
0.11195834176964849 -0.03488961771116495 0.11245742827818322
0.1163014938158521 0.08833401486291646 0.10767177134916711
0.10777370827622502 0.09900524303331136 0.11627111226484704
0.10506238239235967 0.06430288240327596 0.11837408334181238
0.12071944969124883 0.09851240202798604 0.10201305538580346
0.11546914475388616 0.08624341174974202 0.10862845570013452
0.11623259084649175 0.05059229418649435 0.10774392277166772
0.1199270357412824 0.09279622718705892 0.1030319073812716
0.1168709267897138 -0.016891727000334263 0.1069233754293673
0.11204450028367131 0.014084240645310877 0.11236650139257837
0.11967267291970342 0.09080176636590719 0.10335925609037805
0.11923833387322515 0.07216509267701864 0.10391569525167871
0.11289017098374456 0.038884362429521084 0.11145159989759851
0.11314143436379522 0.09395440503968953 0.11117098122999597
0.11895390050835698 0.08135565206422567 0.10427445560858178
0.11083670156426519 0.10453244134797811 0.11347747236654687
0.11211084025330632 0.07736950203790426 0.1122956910745852
0.11149241226143926 0.042235842198274136 0.11287320047781396
0.10446922676987737 0.10597469493760824 0.11882943302557397
0.119626211099101 0.11118631646051168 0.10338390261099267
0.1145876516623029 0.0774200169743514 0.1095786729471438
0.11095385449357122 0.049904695004365444 0.11337331324980188
0.10655568736023992 0.04921655938043356 0.1172213891165011
0.11511241095490544 0.05535354301347494 0.10902265101835656
0.11703990595765203 0.07230406090631246 0.1067286470548861
0.1057031621260175 0.08878608629121541 0.11788851410314966
0.11368887322373479 0.0902846364678359 0.1105801799909823
0.10550834434456914 0.0922982899846053 0.11803573757574487
0.11559580462403386 0.09019248768701314 0.10848370582029748
0.10803108113236516 0.09527592942132711 0.11603087574407983
0.11086107986397832 0.053869625777146816 0.11346534282133508
0.10706319110817998 0.04440869972123861 0.11682942897245813
0.1198550929350385 0.06096424743547201 0.10312441378996301
0.1138118972105512 0.046743145436189175 0.11042842656538415
0.12017308371491521 0.1026113240422225 0.10271492988035608
0.10429193275399297 0.037282696217439175 0.11896679192945886
0.1061686744017133 0.10986380860223531 0.11750400453970361
0.11391993062920659 0.1125028936566329 0.11023971826002527
0.1117924024385938 0.06862836167230367 0.1126052179949038
0.11515067713685125 0.04267390653505087 0.10897004991934228
0.12078066366143315 0.07840462610139608 0.10193625480101037
0.10613472955651372 0.08563419267549276 0.11755314856932092
0.11698036091752141 0.07351650878801107 0.10680297404692102
0.11140714781708806 0.057521036118409634 0.11296350151464868
0.10500599639840215 0.0939339010418868 0.11842212468550134
0.10912932651467412 0.07840081140413045 0.11503044158384729
0.11073489683098882 0.11072935745134115 0.1135314145700686
0.10555874007172673 0.11034949705018758 0.11797187119886804
0.1176743079943189 0.10640456363572835 0.1059085467474215
0.10398976700730413 0.06831847712411641 0.11919817716047693
0.11248661773629277 0.015715291947267056 0.11188838273451257
0.1208212544245252 0.10550185129060506 0.10187897473738122
0.11403970616288274 0.10509358927621602 0.11018792182371545
0.1152854432386884 0.02631866022958517 0.10882532984182763
0.10482801692910283 0.04187511488809347 0.11855405956671167
0.107442932300044 -0.015228459387876989 0.11653441578314233
0.10456802146859258 0.07449792906656026 0.11875388413832116
0.11820252435631841 0.0662588088215804 0.10522744447157312
0.11084349649376958 0.09528716489686727 0.11347091585562158
0.10862000482506841 0.04668330237283468 0.1154964008943789
0.11634482639260381 0.10058419987573385 0.10760626584455896
0.10640679495759099 0.049178591221711636 0.11733630687162805
0.11517851250596135 0.0706308393181777 0.10894596964285302
0.11744611161179631 0.03986509725465536 0.10620895415708947
0.11569006936974614 0.05751048609628439 0.10838294416830468
0.11824239986367314 0.003258755654237269 0.10516947895452905
0.10910372631974309 0.0810680894555068 0.11506012469694543
0.11069162385888189 0.08451383396997213 0.1136183777467959
0.12060116427369207 0.05634146019830465 0.1021657922880404
0.12087156074471563 0.03925504371537924 0.1018192210809939
0.1131785382551679 0.038302561491868496 0.11113697678015161
0.11590416925377935 0.11045231506242513 0.10808870583937097
0.11029385226197332 0.09389140293016195 0.11397177368566919
0.12075476544327825 -0.003726640492537023 0.10196659356520105
0.10915379422135442 -0.021675446778395176 0.11501324564382959
0.10673649805016606 0.08051105424775838 0.11708057314321924
0.10926406281418889 0.08914323732270955 0.11491838485166955
0.10761057036347478 0.05730613157167196 0.1164119282381289
0.1123816837591657 0.11372931882753133 0.11190838009283471
0.11648528473801702 0.04759331628694296 0.10741323620245385
0.10277046459145635 0.06765919014825582 0.12014204651281762
0.1199117769522199 0.046241810768983364 0.10305217296049524
0.1180494894308576 0.07476197764291524 0.10543612033293176
0.11553035872407048 0.06472699925317525 0.10853833347723413
0.10759093063302129 0.08253230735673665 0.11642292529508996
0.11479117172188848 0.057376703471086025 0.10937244087622094
0.11766089694924443 -0.04018894746885538 0.10593414694235254
0.10774685638375371 0.055368891209504605 0.11630344778463769
0.11241628425545781 0.07610159203424215 0.11196187526152063
0.11310760872788518 0.09998541161432027 0.11120957523748803
0.11902396576829045 0.035347303599259854 0.10418442279264856
0.11782871382660955 0.09256117627038717 0.10570884138510156
0.10572396414704412 0.010974487513444422 0.11785966545507837
0.11336775320000737 0.10473828598870992 0.11092350274488855
0.1142008771223554 0.05301984235658407 0.11001903206274438
0.1190475990099439 0.1026406197251296 0.10415885240003991
0.11672519343323796 0.084525278061769 0.1071222463266604
0.1106349100393781 0.07198010966195821 0.11366096526548791
0.11729951398797124 0.04296164795770407 0.10639146357939172
0.1081564595026502 0.10721503779306173 0.11591256052420068
0.11156757371850103 0.10805129095926046 0.11280629426405359
0.11471431153245061 -0.03169889166937113 0.10943660527632165
0.10644887583680242 0.1013634710015273 0.11730501443312097
0.1209530104918012 0.07241146847619771 0.1017145851270907
0.11588908927865117 0.05646573588266134 0.10816795021459985
0.11047543781228154 0.08471088692559957 0.1138155201093905
0.10425718324608892 0.04423349186792135 0.11899257093832422
0.11377926366753667 0.06443994328393697 0.11046749741003442
0.11205388801522344 0.03871362492456198 0.11236474305555749
