ply
format ascii 1.0
element vertex 830
property float x
property float y
property float z
element face 0
property list uchar int vertex_indices
end_header
0.1241098810953626 -0.001158782988646032 0.16966089993879724
0.1371829976362714 0.05121310636415243 0.15644315272734094
0.12603335278458683 -0.010997840911009313 0.1683371403829806
0.13051580088563053 0.10791235253228902 0.16340372353956628
0.12490435140557378 0.009596845358750819 0.16920462638304162
0.162045644692851 0.03998844906701803 0.13191870242521692
0.1318506469053754 0.07596077606096029 0.1621391513960116
0.12925927536912052 0.07879008933915853 0.13967255145475793
0.13087614076562015 0.08010979577913045 0.13834277182981897
0.13463123338646976 0.01315548107042074 0.12083992749617029
0.1344935466570386 0.017300835102937222 0.1597914436475985
0.1502142419142255 0.11790095850839376 0.14664957314894128
0.13046442168183414 0.028330197781465054 0.13855621606275964
0.13054527538247196 0.10022466465844869 0.13719669372007776
0.16602240698762027 0.034636995047471524 0.12878895193502832
0.13751177685685245 0.11178435966386556 0.12216538578436303
0.15034656422562687 0.04189940378083944 0.14648995191023279
0.1298456956667432 -0.0017194838820481315 0.13887611419126916
0.16029654639191715 0.07171924993409871 0.1336771288530581
0.14009754555649845 0.013246407956025599 0.1537502148763888
0.14427428143448917 0.06756754800691366 0.15158501655027795
0.1683050860685834 0.09529929444207906 0.12630051762030053
0.12792240279145328 0.010391285866639613 0.1269879677908175
0.1418378819746503 0.0652522055806136 0.12650850802824426
0.13130067484803287 0.0028923659028029427 0.13747761041090417
0.14707295792527286 0.11712112113847493 0.149491761030411
0.15112529890961734 0.11643393918885946 0.14564547330305505
0.13023971217103092 0.08812629267587423 0.1246177890913241
0.12253315942711919 0.074039837569139 0.14489028245375085
0.15795509713120548 0.059632828682801724 0.13659510404035974
0.17206786768860904 0.0996510891617751 0.12093213588163781
0.13890283005662052 0.07742165610208272 0.15470019370481897
0.13047604458756534 0.07743676587953328 0.12436959535047937
0.13767622607178776 0.09560789749040365 0.1559721568243258
0.1528215874952802 0.0879793374241805 0.14376905948088098
0.15647076266236393 0.11569108650102376 0.138133917154526
0.1578150858206281 -0.011918553858854772 0.13678911715910363
0.13707767622895328 0.03731926366700888 0.1563688853399508
0.16794477599091617 0.10677849337472677 0.12665528446600366
0.16967492001481144 0.10791613742723226 0.1246427336351626
0.1273108293337354 0.04956721350564718 0.166867409052109
0.12561290162034122 0.09605466410531759 0.13014707356855798
0.12447549598641484 0.01780580565347433 0.1316872277872317
0.1321441699785718 0.05427303001298666 0.13685927182600427
0.12268291609711736 0.07032378599061727 0.13390019923613
0.13867949145264713 0.08858319208039998 0.1549340823309176
0.13396100895829288 0.07853519007577657 0.12141654282972741
0.12734757559723942 0.08634733244790792 0.12754857927725244
0.1375167240423688 0.06943320319070577 0.15612772494718957
0.1419831980986127 0.10395791217698812 0.15285537034437585
0.12301109927125066 0.07361566111459493 0.13358986765310693
0.16128467219300358 0.08050807401551961 0.13290706664488244
0.12541805403657047 0.11377476736917257 0.16826573401853967
0.15324233668274967 0.005160263031861781 0.14328560620710779
0.12150381701417058 0.06289907380952596 0.135035190881943
0.147496448926402 0.034630766362092495 0.14916351825163293
0.1247958113474378 0.029719492644212246 0.16921982556745935
0.1361797918600568 0.05788173362626791 0.1575549581663363
0.14702581065125553 0.09327416703119039 0.14952114612028528
0.13741587298340885 0.09967984840287923 0.15624192744657922
0.14789281981415836 0.11515533015146016 0.14887407809660363
0.14636622565217106 0.0048387555779433235 0.12340358287260461
0.13743262188859073 0.08544912025346517 0.12997547179624963
0.13481824295945255 0.09118573948755025 0.12073421865866113
0.16698782341904728 0.006418666094682215 0.1279630699770205
0.13295205133385746 0.0478950051964736 0.13557830840513635
0.1264047493261823 0.0466939119996047 0.14202985555097986
0.12176595824189275 0.03516232058419943 0.17094085008070398
0.164036976270152 0.03972249314203024 0.13046935588285852
0.14330266612000553 0.07751210615052938 0.12566131740972925
0.16438256400055973 0.10408636018647908 0.1297718623296969
0.12661864059395878 0.025003900975129605 0.14164063722059655
0.13932012217469303 0.03538649365319967 0.15398255378172326
0.12733055847115604 0.06196232721223593 0.14126661807463098
0.12394620674080938 0.03507291361703634 0.13129514843389917
0.17069219248719303 0.10885997697725057 0.12351218253538537
0.14891927140183536 0.0846919028462386 0.148066196741318
0.14635603325791446 0.09717764541520833 0.12308761865065027
0.14036266701645939 0.011564722508332728 0.12743696957991052
0.14052944081254093 0.11388214513673543 0.12801072389051843
0.12367941635079473 0.032783290594956875 0.14404842645094323
0.13390155332512943 0.07704444810762166 0.13410988837644983
0.1373057832045087 0.09269630000009298 0.15635356694624353
0.14340476887650577 0.06738363787545919 0.12559745103285241
0.1695335377974042 0.05877774044885397 0.12403783589765954
0.1596270074171552 0.09638192340745687 0.13465932399198938
0.1520653833670148 0.09950347825898885 0.14460501462385583
0.12193443077035039 0.047809591740510464 0.1333467701093905
0.14595721857972233 0.09747307583703756 0.1236831286566012
0.13529409664101688 0.049957325905702114 0.12027830273077417
0.13499258654542057 0.06744145438089132 0.12054592758581567
0.1320308317465314 0.06751181766404867 0.13704488068983484
0.13112993734307377 0.0735578446091628 0.12373942524359155
0.14639948504395572 0.052280536145112515 0.12337887674734521
0.16900591748185245 0.018610945195100308 0.12569517284796167
0.14599572318024723 0.028764507025620938 0.15028271466658044
0.13303022282548038 0.09881033584489583 0.12240884095594812
0.12731825011200992 0.11607818886651754 0.1664558985845797
0.14676837819047062 0.003778210133454798 0.1228419283048861
0.14613561528153507 0.026510020941636563 0.12374645859167505
0.1296173204702863 0.06815748497857808 0.1252022126333468
0.14708654778428165 0.09615560457124471 0.12210721165106225
0.1456070412916669 -0.026362338811018467 0.12431520611212182
0.13870899575181095 0.06487288162126302 0.12880033642218042
0.1722975839895734 0.10233410283937215 0.12064066916868615
0.1681954135221967 0.08479212805642843 0.12666672855780053
0.14471827643342106 0.08658321782960653 0.15125659495756555
0.15860985415406315 0.08622800394906759 0.13588729888365197
0.15842919247574894 0.008026739806077479 0.13596168548033166
0.1460146774572858 0.10238110110177755 0.12232190758154321
0.15888200896210758 0.09263803645982503 0.13538840800688196
0.13344006436295597 0.029253086298844815 0.16065332681105066
0.1268334259314069 0.07404099985971212 0.16704872638151574
0.16926710503525821 0.06212731286897421 0.1248357632772677
0.14087276356644718 0.07619770452394246 0.12707135468885827
0.13424061434693424 0.0368745236100173 0.13349214583799768
0.14155470030732242 0.02051555201425314 0.12671801835462976
0.13354037898011295 -0.030972936898329258 0.1607498863355868
0.16806034939713566 0.07667954847230672 0.12679475933477807
0.14643596308655826 0.0754002837838149 0.14996061116621423
0.12765215533204166 0.09816595003022908 0.1400235632078402
0.12539477842278568 0.057987442463777066 0.12919479996130395
0.14693831103272526 0.06348433181657552 0.14957979709074426
0.13468034761376468 0.010747155398271082 0.13284668713972497
0.1406566967291364 0.07853340193643331 0.15337726861402917
0.13314642208047 -0.0012998671828293815 0.1356474497930758
0.17090915339417545 -0.03397137835607767 0.12214187175199914
0.13497309582657901 0.04281448408975363 0.1587783435003512
0.13960133688874332 0.01868965312852621 0.12798259049818445
0.13978587286896793 0.01696645304574728 0.15406015902922082
0.15833203690476505 0.0831582753361678 0.13619813710615564
0.12747560637421695 0.11323680564775228 0.16630474120542932
0.1347830166143903 0.10307591244592428 0.15903243810102868
0.12436478035874456 0.07792418286218404 0.16884133607313562
0.1418827046675214 0.03440859004869223 0.1527983286993258
0.13380857007927982 0.07114078685655355 0.13425636679098535
0.13074173229165165 0.1052171795071578 0.12621423989698816
0.13087146180100528 0.03665428444757223 0.16326043397352624
0.13141669528908817 0.041394015997788906 0.13788625985548425
0.14410095112748234 0.09564705774202108 0.12510407358572412
0.15254776375718204 0.015172293633363245 0.14405957251951623
0.13665168183274357 0.010538717955491541 0.13088265448973108
0.12507270472474186 0.08674805447473287 0.13088634997770715
0.1482923497480878 0.06603901669397115 0.12074193746015954
0.1399712433142194 0.09323706313981771 0.15365323811933923
0.12867458360619632 0.050868204087159634 0.14015868693754602
0.15546755688614933 0.08341535016908407 0.1403714159147494
0.13892559903092472 0.07426606699838399 0.12859261423513818
0.1285288502497205 0.06989761278047323 0.14027914792463708
0.14886860745377628 0.09179632946862935 0.14812389403746057
0.16416286127991764 0.08679403945817708 0.13041475802824426
0.1550335754675397 0.06823210999383687 0.14102504044935632
0.1373631824774274 0.024742832631013394 0.1561795213834994
0.14780180352158634 0.0574283508957839 0.12142491728231836
0.16904638903565494 0.039599051922700405 0.12520522266790796
0.13646213906235782 0.004737397879502772 0.1311621108667605
0.1689023842138776 0.0011167137326216683 0.1250290611402743
0.13313542502350895 0.11054568573846578 0.13361090809271264
0.12926460998482792 0.03241174504174948 0.12483656793997217
0.13016887205071537 0.07238127872361898 0.12466127067968774
0.1380229462904462 0.08298786565675496 0.12942710906431604
0.1324728597921857 0.041709562987229824 0.12212518245146203
0.15849475758500187 0.03105562016381979 0.13592729360029626
0.13891701596207706 0.07374509260072469 0.15468392163679529
0.17077695029206363 0.05670805856599569 0.1214095690862887
0.13589839833207218 0.043589374274156094 0.1315157452242129
0.12621669667191593 0.10730521962060689 0.13246679693624902
0.13075579898781864 0.11372887179269552 0.1358056405203097
0.13022975819535343 0.0866571573914504 0.16366824895307946
0.14186363118119327 0.0873411504925704 0.15289947778150964
0.12593041556305973 0.08580636069192647 0.1420578697340243
0.13650231259293644 0.03022285386934042 0.13088515788481164
0.13840703862137882 0.036529829949281216 0.1290735641138308
0.14589522974915592 0.021626791209123135 0.15039286405012536
0.14054058688111393 0.0965964405240035 0.12675261885092187
0.15154795544571964 0.10343628212823629 0.14517590791151452
0.13209112184472172 0.07298933550729512 0.13695058614180017
0.14514677422471134 0.08318319007768392 0.12459972888395715
0.15019022124238102 0.07617693230523824 0.1466642954962008
0.12944551008172123 0.02874403283014059 0.12513468057081628
0.1336066295427808 0.06621023103608846 0.16048279792234826
0.1355306674761304 0.04877053782357931 0.15826210767195154
0.13563232319779484 0.008490910977265833 0.158472690881943
0.16429381268448917 0.00012814089669942706 0.13021335393354821
0.12775947349495975 0.10179268404855489 0.12868351131842065
0.14207999604172794 0.07923062726869344 0.15281185895368982
0.1610727180761823 0.1129928438366866 0.1320277491228335
0.15775697129197208 0.05399142786874533 0.1368892529623263
0.13050650256104557 0.07456963345422506 0.1386505106107943
0.13980572121567814 0.10355245158090352 0.15377626210615564
0.16615013974137394 0.06975167080774068 0.12874451667234826
0.17085854905076114 0.11555733367814779 0.12347048908636499
0.12175788181252568 0.0013216046990370735 0.13491323977873254
0.15464185374207584 0.07069342419519185 0.14161935836241174
0.1291186084074506 0.030008098334214688 0.16543713599607873
0.15653555291123478 0.08705442234887838 0.1387542226927035
0.1224653293413648 0.0230386762322402 0.13408869892523217
0.1407281030935773 0.1113843826951003 0.15335652619764734
0.13793413536973087 0.11410271212472677 0.15571114808485437
0.13370357649750797 0.009875824898622034 0.13411686211988855
0.15765087502427189 0.0623317568005538 0.13705358296797204
0.12532703774399845 0.036924502104661465 0.1295729914324038
0.13930861847825138 0.11516170784845113 0.12061497956678796
0.1285612751764783 0.09209465071573018 0.12625974804327417
0.14008198874421207 0.042122563570878506 0.127530250848984
0.12217100160546392 0.04914309665574789 0.1705840566770785
0.123031573466731 0.06948607251062154 0.16969672233030725
0.1392828692717084 0.10595115110292196 0.12851041942999292
0.12256907122559636 0.062186321467301846 0.17000511676237512
0.14717297451920597 0.0036054460705733284 0.1493946650640719
0.14647309678025333 0.054435244053742886 0.14992770940229821
0.14042382138199894 0.05581121727838278 0.15347269565031457
0.15689699547715275 -0.005534926205732824 0.13818124324247766
0.13501854436822025 0.04660402819528341 0.15880921870634485
0.12236391203827947 0.06956311151399373 0.14502033978865075
0.14836774962372867 0.07080169603242635 0.14850679427549768
0.14708005087800113 0.08996271178140401 0.12252965957090783
0.13261755006737797 0.09971742913141012 0.16136053592131067
0.13706194060273258 0.07878162547960042 0.13039100557730127
0.158324884347392 -0.018433460742094517 0.13609275609419275
0.13541262047715275 0.044712444991014004 0.1583057978765719
0.15810655253357975 0.0062314181031203255 0.13642475396559167
0.14862095015473453 0.11525954887284993 0.14832595378324914
0.16777216093964664 0.04807212039842367 0.12712690621778894
0.12790747182793705 0.10134690091027974 0.13944539815351892
0.1287170519155988 0.09388386294259786 0.1393229106085055
0.15783749716706363 0.018675467223069668 0.13675800353453088
0.16632931130356876 0.08326863333596944 0.12853479772970605
0.16958581107087223 -0.040112593918898105 0.12314799815580774
0.1653689016623029 0.07315303966417074 0.12928495198652673
0.12746538417763797 0.10695089980973958 0.13950226098463464
0.16119341748185245 0.071620723456285 0.13263535887167383
0.1570223440451154 0.013701727837464808 0.13799265414640832
0.15921299355454532 0.09925516530885457 0.13507751017973352
0.14274792569108097 0.11368252918138265 0.1525539496557467
0.12147115366883367 0.06627418681993245 0.17053553849623132
0.135468678645564 0.09734760805978536 0.13151806980535913
0.14910899298615543 0.08927290722741842 0.14785847455427575
0.15985743897385685 0.027471533268830776 0.13408846050665307
0.14013754027314274 0.02518447324647665 0.15373286992475915
0.13138582008309452 0.09214287087335347 0.13748243838713098
0.14172010319657413 0.04889880701913595 0.15294495612547326
0.14096074002213566 0.11001723095788717 0.1271013358251803
0.12410028474755376 0.10254170581712484 0.1332840660230868
0.1707019676489362 0.08242761179818868 0.12359002620146203
0.1297422816080579 0.034815034121415615 0.16458014041349817
0.13189022438950626 0.07070868298425435 0.13726571589872766
0.12956102388329593 0.05417596384896994 0.1647457221166842
0.14351938860840885 0.11211456939592122 0.15216574460432458
0.14379398720688907 0.017537286728761196 0.15203598529264856
0.12560869949288456 0.10276358410730123 0.14151296407148767
0.1333898772520551 0.06677680298700094 0.12187037259504724
0.13297160165734379 0.09927680179490804 0.1342170277254336
0.12952394979424564 0.06605859681977987 0.16457698136732507
0.13390927212662784 0.05556534811868429 0.13409012943670678
0.12543504136033146 0.021493247002503872 0.13033199697897363
0.13419123189873783 0.1053753404320693 0.13290167242453027
0.1367070545477399 0.008867701739213465 0.15722296029493738
0.14860765831894962 0.008051177710435389 0.1483243444578402
0.1493422855658063 0.08211808487787008 0.14759961158201623
0.13188754218049137 -0.006340691596128942 0.16262588292524743
0.1330471505445966 0.11053468868150472 0.13370684176847863
0.12724407213158695 0.015716096609971524 0.1277811864034884
0.13261367576546756 0.1104393212498641 0.1269453206674807
0.14404814141221134 0.10450317546739339 0.15176520139143396
0.12672068374581424 0.006994417160890101 0.16781548053190637
0.16263072388596622 0.05305411502732992 0.13169533401892114
0.1727323402685651 0.08274297997369527 0.12032789379522729
0.15232204096741764 0.04872699663057089 0.14430824309751916
0.1309755911154279 0.08436827942743062 0.12393066674635339
0.13084759014077274 0.061024209708116055 0.16349515706465173
0.13429768579430668 0.08928765937700033 0.15954968720838952
0.17146758931107609 0.06084152147187948 0.12082156926557946
0.14297144310898868 0.059898158759019375 0.1258491018430941
0.12279994981713384 -0.03344077780828714 0.13350269586012292
0.14925466673798649 0.0030577687920546517 0.14767989903852868
0.12812136309571354 0.09877600356950521 0.1275697687284701
0.13352798121399967 0.07480384990586995 0.13469627887175012
0.12158738272614568 0.08820827886476278 0.14522573739454675
0.13858519690461246 0.02995206996812582 0.1288945713655703
0.12944691079087345 0.06312649533166646 0.13952473193571496
0.1217082013411054 0.11425711795701742 0.13944653064176965
0.14079438345856754 0.04200600668802023 0.15324315816328454
0.13356538312859623 0.09879984542741536 0.12202105313703943
0.15390669005341617 0.07096921488656759 0.14256999284193445
0.1218593289179334 0.07636388227357625 0.1453847625868075
0.16366778510041324 0.09594147488488912 0.13061404615805078
0.13057415383286564 0.09372445032014608 0.1633433440344088
0.12734486358590213 -0.02598936274633646 0.12687766939566064
0.14686565297074405 0.10026656672372579 0.14964333564207483
0.13619803088135807 0.06219380185022116 0.15753087788984704
0.1589979996008405 0.02549313589944601 0.1352163293974154
0.13221524851746647 0.018067976683518887 0.16247132808134485
0.1573323478025922 0.08480300590409993 0.13754555970594812
0.14485852616257755 0.08789937779321431 0.12477130085394311
0.12748305695481388 0.10960428997888326 0.16629675418302942
0.1270136405748853 0.025806388110063076 0.12774476796553064
0.12305106418557256 0.0822199790181136 0.14449301749632287
0.13136778967804996 0.11236398503198385 0.16259220630094934
0.15190319912858097 0.07153536960496663 0.14477685481474328
0.12863846319146244 -0.015438595563032629 0.12595776111051965
0.164789306096507 0.07779600307359456 0.12970051556990075
0.14741926091141788 0.04510368987931967 0.12195900470182824
0.13293881910271732 0.06320347473039388 0.13561919719145227
0.1468587388319501 0.07558142229928731 0.12274784237310815
0.13869296210236637 0.09466799184694051 0.1285642424242251
0.12472640173859685 0.07174440309419393 0.1313859263078921
0.14207469122834293 0.008001586645982264 0.1264023223535769
0.1568237413687238 0.10043229743852376 0.13820276051924157
0.15671579735703556 0.10817595407380819 0.13810131341383386
0.12760786908097355 0.08271416112794637 0.1661613920347445
0.13730417387909977 -0.027457395344831943 0.13044941812918115
0.16674392121262638 0.014842083901307581 0.12799984604284692
0.15821425812668888 0.11134021565332174 0.13557485133573938
0.15084426300950138 0.053149393052003384 0.14593461543486047
0.1622890104574689 0.08162220403566121 0.13210612923071313
0.15734921591706363 0.07345723196878194 0.13751539975569177
0.13529555695481388 0.11512218996896505 0.15848467141554284
0.14860098259873478 0.05553825780763388 0.12031180054113794
0.15839164154954044 0.06965573713197469 0.13612911492750573
0.16940306322999088 0.09978812024011373 0.12474671393797326
0.1537157763762006 0.05873264953508139 0.14277580768034387
0.16970055001206485 0.07725911423578023 0.12481826931402612
0.1428517569822797 0.025649121254823208 0.12593338281080652
0.12715558903641788 0.0378205685318923 0.16724226266310144
0.1466206778807172 0.0048189072312331185 0.1498126724378817
0.14505849974579899 0.11515366122140645 0.15100786477491784
0.12358977096505254 0.10234918281450033 0.1428941825048678
0.13333599465317814 0.08953519746675252 0.12192717582151819
0.12643604176468937 -0.006622830182173254 0.16803029567167688
0.14246998923249332 0.06310259386911153 0.15265307218000818
0.15537230866379825 0.06547283217324971 0.1405101755277865
0.1336817313951978 0.08094220444574117 0.12165907412931848
0.15581332343049137 0.08547087594880819 0.13984814673826623
0.12441106336541265 -0.017346897870161533 0.1695078948156588
0.12619482176728336 0.022404184788606167 0.1292591133730166
0.1363888253492841 0.07568909809007406 0.1572962740080111
0.15851567881531803 0.0724575130642867 0.13586369544432092
0.13117669718690006 0.03597762271775961 0.1380622127668612
0.15434877770371525 0.032745650261781216 0.14205167085096765
0.13190622823662845 0.0032390563191390023 0.16260281592771936
0.14511285918183414 0.10533594176187276 0.12316581994459558
0.14368574517197696 0.06411670729532003 0.12543404489920068
0.13154782550759403 0.08023565098657369 0.1377911904470675
0.16030590432114689 0.07959189102067708 0.13390031844541955
0.12917562025017826 0.05371477291002035 0.16511103898451257
0.14874427216477482 0.05143707081689596 0.1482165792600863
0.13525630729622928 0.05481212422265768 0.15865376979277063
0.16096715825028507 0.11521061345948934 0.13229936748907495
0.1403674949926862 0.005060425251863001 0.1535871961729281
0.1288633515162 0.10062446281327962 0.16497764378950525
0.13290225165314762 0.04720627352609396 0.12195322305128503
0.16316078799195377 0.002720883339784144 0.13134393483564782
0.1615398992819318 0.1107260791958785 0.13176626354620385
0.1517672409338483 -0.040085324793913364 0.14497790128157068
0.12664772766060917 0.055345108956239224 0.14182928592131067
0.13270689742989628 0.05441375657930136 0.12242067247793603
0.1293198932928571 0.017218699902436733 0.13883480817243982
0.12398870485253423 0.11464207455529928 0.14162531882688928
0.1323909928125867 0.08081533595933675 0.13647738486692834
0.13586585419602482 0.10745253250016927 0.12158069402143884
0.1286988724989423 0.07505892798318624 0.165214155019974
0.1406799425405988 0.06575777217759847 0.15336499005720544
0.16673676865525333 0.09187965676202535 0.12804571181700158
0.16408555405564396 0.09805431053056478 0.13022900015280175
0.12149556177086919 0.04342942520990133 0.1456613281385653
0.15272353785462467 0.11502375289811849 0.14388457328245569
0.13973383801407901 0.11621426627053975 0.12292176872656274
0.16591565506882755 0.07720430776490926 0.12870309144422937
0.16957675116486637 -0.0009566338358902946 0.12453994542524743
0.15366403954453556 -0.001051464825727941 0.14281806737348962
0.1461665500921735 0.038293263167283535 0.1501731017248385
0.14568834202714054 0.0468787162007308 0.15052661687300134
0.16650425093598453 0.10789456054582357 0.12812692314550805
0.13189272778458683 0.059971859902284146 0.13725915938780237
0.12332727210946172 0.07289721652879476 0.16950360328123498
0.13460751073784916 0.09647055551423787 0.1592193582670443
0.12950574057526676 0.011427154988191126 0.16527924329206872
0.1271364261431226 0.07919444724931478 0.1666046121732943
0.12748037474579899 0.09466525003328084 0.16629395276472497
0.1369095315260419 0.03567906305207968 0.13050818830892968
0.13789443867631046 0.08967035099878072 0.12953809291288781
0.14163194792695133 0.050471207350633145 0.1266287603990786
0.14989666836686222 0.05632572457208395 0.14697888881132531
0.12812878387398807 0.09216221258058309 0.13982656985685754
0.1321708132547864 0.04451077267541647 0.1620526650564425
0.1614091266912946 0.06181966349496603 0.13256118089125085
0.13070668476052372 0.04619466349496603 0.123440895380234
0.14843265908188907 0.07650973483934163 0.12056109696791101
0.12258751886315435 0.09892176672830343 0.14366105586454797
0.12377281682915776 0.07807361170663595 0.16914782315657068
0.12432466643281072 0.08723681256189107 0.13189781099722314
0.12184034483857244 0.03593330666436911 0.13433072358534265
0.1358051170629987 0.11216553136720418 0.1265089252607577
0.1366460193914899 0.047173639983079434 0.15695062667295862
0.14233546154923526 0.06750675126924276 0.1262191870825045
0.1217387189192304 0.09968783542527913 0.13552162438795495
0.14358477490372745 0.006369939297578333 0.15216443330213952
0.13594137328095524 0.04866372630014181 0.13148269444868493
0.15629266398377506 0.053994676321885586 0.13910940677092004
0.14397613900132267 0.06156851932420492 0.15180752068922448
0.16404698985047428 0.09105609938516378 0.13035983234808374
0.1439193953794965 0.10171698614969014 0.1518614628927462
0.1261046399397382 0.095682105273149 0.16760620862409997
0.14746152060456363 0.06074147507562399 0.12189889341757226
0.1442417372984418 0.045968940705201626 0.12511217981741357
0.1332600583357343 0.03673978731050253 0.12158227354452539
0.14552705185837833 0.08849938794984578 0.15064838916227746
0.14525084393448917 0.10093708917512655 0.12379897028372217
0.128531502656413 0.06983800813569783 0.16551176101133752
0.12909297841019718 0.08847840711488485 0.1395004132406466
0.12492321627564519 0.047694375962159634 0.14312997847959924
0.12506081359810917 0.02890970394029379 0.1305580475942843
0.14509134190507023 0.053496053666017056 0.1246172824518435
0.13000999587006656 0.014635702818772791 0.12490228206083703
0.12413613694138616 0.05931930825128317 0.14371070653364587
0.1257740129751691 0.100961646288774 0.13070294648573327
0.12219207184739202 -0.03049291089163065 0.14497778207228113
0.13730685608811466 0.08360644266023397 0.15634933501646447
0.16576145785279361 0.05019100591554403 0.12902671486303735
0.1709395517630109 0.09737061545266866 0.12276673704550195
0.14409659998841373 0.10500343725099325 0.1517287829534762
0.12453116672463506 0.0027050583065962776 0.13160011559889245
0.16193835633225528 0.03373616024865866 0.13240027815267968
0.1387909521383771 0.039875915497682095 0.15458014995024133
0.13103835480637638 0.11545689985170125 0.13191837459967065
0.1465908755583295 0.07393299624337911 0.1498439648763888
0.16464428799576847 0.05951886460199118 0.12981748968527246
0.16382609503693668 0.0587287454308486 0.13053229838774133
0.13407464521355716 0.0039588420094466194 0.1338498035089724
0.12429110901780217 0.10875239059343099 0.1348200777189486
0.13400547402329532 0.10916661307229757 0.12450910002157617
0.15398858683533756 0.07783698126687764 0.14248094350264
0.12600793140359012 0.09077503368272542 0.12953216225073266
0.13016914027161686 0.07041605398072957 0.16392913848326135
0.13110907571740238 0.0694081990422225 0.1381564477102511
0.1464169492048749 0.020672073811433316 0.12334481269285608
0.1239020695013532 0.025533845871827603 0.16979065925047326
0.13401387827820865 0.04416625782861471 0.13389677196905542
0.13342116969056217 0.05393268749131918 0.13485387355253625
0.13478432791657535 0.040917894095323086 0.1589464285986178
0.12175335185952275 0.09320159837617635 0.17024752885267663
0.16175513165421573 0.0027328638733839974 0.13260528832838464
0.13973932164139835 0.05831038042917013 0.15383604556486535
0.12157233255333989 0.08707173749818563 0.13510558396742273
0.12161435382790654 0.1052479355038619 0.136640940012192
0.17090819971985904 0.11350747033967733 0.12332481533453393
0.12962438362069217 0.06929715558900594 0.16446754723951745
0.1592581142706403 0.020147940367600918 0.135173712076401
0.1233883668703565 0.046027800291917324 0.13093385487959314
0.1298384239000806 0.021600267142198086 0.12507230431005883
0.16832427876420109 0.010474940985581873 0.12610760718748498
0.12652538912720768 0.08980294153108358 0.1672021487371676
0.13634698288865177 0.004306605309388636 0.1575128176824801
0.12413834231324285 0.06466790124788045 0.1437077263014071
0.14323310749955265 0.01508881732835531 0.15244827062055993
0.13605003254838077 0.1006814448536849 0.1576690414564364
0.15656344788498966 0.05819582030191183 0.1387006977216952
0.17185060875840275 -0.001927295476057531 0.12096694499418664
0.12212149994797795 0.11331372544183492 0.13824597388670373
0.16328840153641788 0.08472882792367696 0.13119122773573327
0.12859757440514652 -0.025925138741590976 0.1400930622236483
0.15193353789277164 0.024243137091538906 0.14473727733061242
0.12463407414383977 0.0407657532395339 0.14334592610762048
0.14773087399430362 0.05648889228715658 0.14897993594572473
0.13878457444138614 0.11768328234567403 0.15483460217878747
0.14548300402588932 0.026838174313447476 0.12439322859213281
0.1692729462904462 0.05384679719819784 0.12331894427702356
0.1461754907888898 0.08055081054582357 0.15015820056364465
0.1346551050467023 0.03635262534036398 0.12070155531332422
0.1273887624067792 -0.007403651028730871 0.140933308901047
0.14158414500184147 -0.003807464390852453 0.1529906132833712
0.13941531079239933 0.026027044505021572 0.1281147339956515
0.12660579579300968 0.03393968030824423 0.12767646104261804
0.13176913755364505 0.03075431868448019 0.13726744443342614
0.16855959790177433 0.11685927793397664 0.12611443191931176
0.145476983956767 0.07809548661126851 0.12439820557997155
0.12634287970490543 0.10851435944452047 0.13315517097876
0.13330535786576359 0.10996710345163106 0.16062352448866296
0.15517561333603946 0.013600608557603358 0.1407910922186129
0.13479323881096927 0.10551570937051534 0.12224343806669641
0.1423883904737958 0.09843861147775411 0.12561503440306115
0.126435475520564 0.07405607983484029 0.1419987419264071
0.13029019730515567 0.02849044486894369 0.13870594293043542
0.12650238173432438 0.07221998855485677 0.12881437331602502
0.1380309333128461 0.021388342827699185 0.12941524774000573
0.14107196228928653 0.10033767506494283 0.15321693211958337
0.13530291812844364 0.0703273324669814 0.13211727529928613
0.13230546014733402 0.10342912957086324 0.13492116719648767
0.14630083935685245 0.07020821258439779 0.12351558000013757
0.1659346689505109 0.10996868297471761 0.12849477321073938
0.13024722235627262 0.01753579661264181 0.16452673465177942
0.17056571143097965 0.0861197023095107 0.12370044380590844
0.155295418672038 0.04237308189286947 0.1406172254698031
0.14416293995804874 0.07583635136499166 0.15167120486662317
0.13763027089066593 0.10513158723726033 0.12856969624922204
0.13501636879868595 -0.03333322122678995 0.12051579743788171
0.1552970876020917 0.07824819371118306 0.14062807351515222
0.12139858501381963 0.04012410923852682 0.13486352950498987
0.1348343660158643 0.020962139815232754 0.13252291470930505
0.16584615605301944 0.09862255141153096 0.1287366488592379
0.12505163448281376 0.04441519662751913 0.1688474157469027
0.12644802229828922 0.05885355755700827 0.16765115052626062
0.15797214405961124 0.10881640598191976 0.1360076406614535
0.14981709616608707 0.029820462912461758 0.14707270652220178
0.1333569158834943 -0.03284997656927347 0.12179899603292871
0.15218268530793277 0.10759322926416158 0.14447823554441858
0.15425650971360294 0.10906421229257345 0.14219430476591516
0.12937431233353702 0.04959376737489462 0.16488215714857507
0.12647576826043216 0.019056311100862026 0.14129421502516198
0.12775154607720463 0.06183921381845236 0.1269361117498629
0.12290780442185491 0.08026604935540914 0.1336214283125155
0.17157010930008976 0.06995182320489644 0.12247777372763086
0.12667833464570133 0.009779146164796351 0.12858197480604577
0.16485439436860172 0.02710567995919943 0.12964454680845666
0.1352444161695966 0.06264122411622762 0.13217300564215112
0.16739820139832584 0.0209559707344985 0.12756011277601648
0.13411928909249393 0.10930006787194967 0.13115102440283227
0.1369492878241071 0.10555182978524923 0.1567252019064181
0.1700702776236066 0.10576542302980184 0.12417310863897729
0.12887625592179386 0.079388639181993 0.1649467685835116
0.13448126810021488 0.07368945166482686 0.12098443895742822
0.1211780180258283 0.04182936832322836 0.1349448302404635
0.1466259826941022 0.06640391632928609 0.14981565267012048
0.15378950732178776 0.0499873964489913 0.14269188434050012
0.12646191018052189 0.10818891808404683 0.14041361600325036
0.14151232140488712 0.10798101708307027 0.12648240119383264
0.1432688106817731 0.11490180179490804 0.12453779965803552
0.14839779036469547 0.07536052748574971 0.1206069031374209
0.13630943196244327 0.05101128503694296 0.15735528260633874
0.13076110380120365 0.05477493092431784 0.16360286265776086
0.13017176287598697 0.02598246023072958 0.1644361951963656
0.15777985947556583 0.09457721397294759 0.13686970263883996
0.1539121736807355 0.10774298593415975 0.14257333070204187
0.12246345179505437 0.050984820574662686 0.17035147935316491
0.12257106798119634 0.00556798860444784 0.13396129399702478
0.1548105348867902 0.04881816193475485 0.14135459453031946
0.12643446224160282 0.03208046242608786 0.1419687011854403
0.15947620766587345 -0.009584704190351965 0.1348120906965487
0.1715227832121381 0.0834092108906722 0.12239328414366174
0.13382624285645572 0.08341102883233785 0.12153053671286035
0.16027830737061588 0.009064426869294642 0.13358733445570398
0.14922790425248234 0.06881668254747152 0.14772287398741174
0.13493134277291385 0.10319479390992879 0.12153825551435876
0.13693867819733707 0.10502185508622884 0.12937420994207788
0.13068787949509708 0.06990366265191793 0.12412968665525842
0.12177689569420903 0.01713173672570944 0.13489917308256555
0.1559537519735822 0.01038329884423971 0.13961145669386316
0.13730101483292667 0.08777534052743673 0.15635660678312707
0.14230518238968937 0.10244511649026632 0.12568241745397973
0.16917495625443546 0.062196543663880825 0.12498709947035241
0.15353201525635807 0.039906045645616055 0.1429745891706698
0.12655104892678348 0.0010742752255415901 0.1410609224455111
0.15256320136017887 0.05587225243463278 0.1440434196607821
0.13890151875443546 0.08364795729532003 0.1285874882356875
0.14117984669633 0.048440119475266934 0.12689176589415002
0.12319754260010808 0.0681012479962325 0.1331857183592074
0.1533926595968732 0.08662440463914632 0.14313969403669763
0.12925194399781315 0.08228628918542623 0.1256146767751925
0.16999773877091495 0.09260945603265523 0.12420380503103662
0.1275484134478101 0.11193253681077718 0.13257956892416406
0.14055465357728092 0.11521618649377584 0.12896088153288293
0.17221264737076847 0.09105431124582052 0.12087601810858178
0.15748332636780826 0.06524392053498983 0.13730892926618982
0.12601797478623478 0.05126248881234884 0.12743252903387475
0.1608103980345258 0.10456728026284932 0.1322919467108004
0.12251512902207463 0.11211719200029134 0.1419590452329867
0.14687608378357975 0.08779739424600362 0.12278861195013452
0.12730927961297123 0.10348336979760885 0.16646096497938562
0.14782457249589054 0.07203554198159932 0.12139785677359033
0.1522516478819379 0.060424586981675625 0.1443893054144137
0.14376770155854313 0.0862185268105483 0.1519719699041598
0.13922994034714786 0.04086261078729391 0.12828782588407922
0.14854340451188175 0.03933065220727682 0.12039223700926233
0.12256477969117253 0.08718844339265584 0.1445733645574801
0.14661328690476505 0.08220996543779134 0.12311402350828576
0.13525732057519047 0.053918918818376065 0.13215589910910058
0.1415889133734235 0.06795661732568502 0.1266532579080813
0.15517120259232609 0.10883625432862996 0.14065561086103845
0.12822719114251224 0.0833099095524764 0.14051035434172082
0.1231979896349439 0.11155965015306234 0.13656869918272424
0.12490023868508428 0.07946692988290548 0.14313260108396936
0.17085848944611637 0.02443419978036642 0.1234726348535769
0.15248112576432316 0.0649085251988387 0.14413848906919885
0.13906018631882755 0.07984491273774862 0.12846267610952783
0.12573294537491886 0.09155028149499654 0.1417557933943026
0.15579961436219303 0.09541623875512838 0.1398716905729525
0.12502549784607975 -0.025003382712461948 0.16910502702162195
0.1688611974043378 0.04483472391977072 0.12512869030401635
0.13211159604020206 0.11235459730043172 0.16188273221418786
0.14696417944855777 0.04100587055101156 0.14957175046369958
0.16955249207444278 -0.002134660035231115 0.12484842926428247
0.1673631538671979 0.11117490217103719 0.12734029084608484
0.1286818851751813 0.1005022136868453 0.16515061646864343
0.12787313955254642 0.11626421496286153 0.1395936945097201
0.12754394309945194 0.017912736386201382 0.16718730718061853
0.15202103751130192 0.04434703871621847 0.14463910848066736
0.12978775995202152 0.08839865610017537 0.16409060746595788
0.1440322269720563 0.023231974095246792 0.15177932769224572
0.16467587845749942 0.1151487140358901 0.1290363112108462
0.13824378149933902 0.11236538574113607 0.12087777644560266
0.12487857239670842 0.10489114210023641 0.168557021917557
0.15333883660264103 0.03106158062829733 0.14318547040388513
0.14745347397751896 0.09757839724435567 0.14920023471281457
0.16500394242234317 0.007270863503358363 0.12967649489805627
0.151242422036601 0.06615935847177266 0.14550313741133142
0.13461838858552067 0.08981876656427144 0.13289425164625573
0.12791066067643253 0.10835703298463582 0.13903227836058069
0.15974353449769108 0.06201600119485617 0.13440171271727014
0.12375478642411321 0.028458049744508267 0.1325646975652926
0.13186975019402591 0.05837636277093649 0.13729450494215417
0.1505061258596906 0.003506293743989466 0.14630094558165002
0.13306538956589786 0.10832362458123922 0.16088119536802697
0.15988503592438785 0.10003708884134054 0.13428932815954614
0.1253395249170789 0.07858507916345357 0.14280978232786584
0.13649355071015445 0.01309444591417074 0.1309920588152163
0.130451189450694 0.11109613463296651 0.12943175822660852
0.12403677599854558 0.09534793183221578 0.13230282455847192
0.1523325313848981 0.061394414156816006 0.1443006733076327
0.1252920200151929 0.06321211740388631 0.14285633355543542
0.13533850210137455 0.08024831697358846 0.15842697411940027
0.1236857940477857 0.011752983778855799 0.13265461117193628
0.16860585110612003 0.0715720264615035 0.12619805723593164
0.12236558096833318 0.00780495092286825 0.13420498758718896
0.12434180276818364 0.0911383835972762 0.1688425877706759
0.1358343829435834 0.06561659857644796 0.13159671813414026
0.13053451674409 0.0012909977139449105 0.16410109788343835
0.13093958990998356 0.009658267945191859 0.16372976094648767
0.13522999184556095 0.06706183239831685 0.15861151009962488
0.1405641307158002 0.0999340026082015 0.1267806628362887
0.12435697215027898 0.060231378525636196 0.16909340411589074
0.13780193226761905 0.055619618147752285 0.12967342525885034
0.12994624870247928 0.10522391483201742 0.12704131394789148
0.14258448975510685 0.02710293814553976 0.15257832795545984
0.13423328297562687 0.04008882328881979 0.15954932958052087
0.1375930179876813 0.09583177253618001 0.1294955053941958
0.12443693178124517 0.056925406903169155 0.13067976027891565
0.123562978677226 0.08524008676423787 0.13278639704153467
0.15766702788300602 0.10062431380166768 0.13689247161314416
0.13189535038895694 0.05139686748399496 0.12310308605596948
0.15244893925614444 0.09426828309907674 0.14418110639021325
0.13172941105790226 0.10559781476869344 0.16224560529158044
0.1349293162149915 0.06917031690492391 0.158952210249161
0.1546845902723798 0.11084627196206807 0.14149186402723718
0.1225815882009992 0.058634003847978115 0.144858930410599
0.1366903652472028 0.07235606595887899 0.13076070338652063
0.13753013508744327 0.1123016087712264 0.15612748652861047
0.12944372194237797 0.06873126909150838 0.16463885098860193
0.12994907992310611 -0.011624345332243444 0.16474154979154992
0.14350091116852848 0.08503966614618062 0.12555829078123498
0.1627346743864545 0.07422276422395467 0.13133055359289575
0.1618205775541791 0.09449075743570089 0.13219997674391198
0.13653080361313907 0.10511558339013814 0.12054884821340967
0.12339665191598027 0.00824617430581808 0.13299206286833215
0.13549573915429203 -0.02772135451421976 0.15836784631178308
0.16365228789277164 0.06765808746232747 0.13096934944555688
0.14440779583878605 0.031120440215013027 0.15148786097929406
0.14276676075883 0.0696964173020339 0.15253618747160363
0.14971636431641666 -0.029035726338484287 0.14721182376310754
0.1441516746801862 0.08951800152673482 0.12517592698500085
0.1438150276464948 0.03594284340753317 0.12536129743025232
0.1438038815779218 0.10865511581315755 0.12405768424436975
0.15998940365738956 0.02347897574319601 0.13407814890310693
0.15702466862626163 0.10321044012918233 0.13784137755796838
0.14310275214142887 0.04519694134607077 0.15241286546156335
0.13042108910508243 0.04910363838090658 0.12396589309141565
0.13559626238770572 0.03722648903741598 0.13179007560179162
0.12407721775002568 0.041557243317506314 0.16951135188505578
0.1677858104033002 0.07991050764932393 0.12711990267202783
0.13044618266053287 0.11779533907785177 0.13263583570883203
0.12121437685914128 0.08394756004228353 0.17052552491590905
0.12676091688103763 0.08450951263322591 0.16697171718046594
0.13222427862114994 0.09386085554971456 0.12291053325102258
0.13456578748650638 0.11222272202386617 0.159268532098984
0.12385292547173589 0.08727346941842794 0.16910353690550256
0.1681645979208478 0.028753897398850918 0.1266561785356753
0.1677141656202802 0.0684405772389388 0.12725067526266504
0.14532600539155094 0.07973708793534993 0.1507972219602816
0.1559590567869672 0.030258467644593716 0.139606986345505
0.13246916430420963 0.03820036932840109 0.1362878420965426
0.1356895436567792 0.10439251944436788 0.13116664081976342
0.13069622414536564 -0.00019050553426981122 0.12421170264646936
0.12293119924492925 0.11252292081727742 0.13678637534544397
0.12186278598733037 0.09350489661111593 0.13487348348066736
0.13938610451645939 0.017104855030915737 0.12820643574163842
0.13767533200211612 0.07330190226449727 0.1559651234762423
0.15276400940842716 0.03281440421952963 0.14382020026609826
0.1655282844824323 0.06463428422822713 0.12916961699888635
0.13474513786263553 0.08217467948808431 0.13278890043661523
0.15481494563050358 0.03986858412637472 0.1413457730428927
0.15206186669297306 0.09599201962365865 0.14460787564680505
0.1281660069746503 0.07343195959939718 0.12668553382322717
0.1356587876600751 0.08547516748323201 0.15808460503981042
0.12182189720101445 0.052498182505509854 0.14542273074552942
0.1479217876715192 0.06046356841935873 0.14883861333296228
0.12351559298462957 0.11644848272218465 0.1404593327657931
0.12544717090554325 0.006660958975694178 0.14207581073210168
0.13373334901757328 -0.014328786879637243 0.13496485740110803
0.12473537223763555 0.018179824799439907 0.14264330655500818
0.12690256731934635 0.036604961604020596 0.16756675034925866
0.13186086910195438 0.10535248205079793 0.13534847289488244
0.16408853428788273 0.0475399403275466 0.13038158804342675
0.1535738577169904 0.10077383205308675 0.14294389277861047
0.12473543184228032 0.08493961974992513 0.16862234860823083
0.16042338507599918 0.052070548981568814 0.13384485632345605
0.15366845028824894 0.04078074380769491 0.1428241470472567
0.1348582972807416 0.029314926117799282 0.12065706044599939
0.13132877843804447 0.09527107164277791 0.13717106372282434
0.13064916627831547 0.097341200560472 0.12431481868193078
0.13763962881989567 0.1138161031903243 0.126243207754349
0.12489618556923955 0.030867180079362393 0.16911277562544275
0.15728990929551212 0.01584558770074606 0.13758764058515954
0.14399723904557316 0.016286334246537686 0.15188131123945642
0.13077713745064823 -0.0031705589591050163 0.1638360360281222
0.13297586338944523 0.09566410467042684 0.1347694733755343
0.12731225984521 0.07927205249681234 0.12773260861799646
0.15679620402283756 0.10796540066613912 0.13798198491499353
0.12303339140839666 0.07150598451509237 0.13350111633703637
0.14380954401917545 0.03101499959840536 0.12536985069677758
0.15983800785966007 0.11069681331529378 0.13344636947081018
0.13015611665673343 0.03488703653230429 0.13890573769972253
0.12427546279854863 0.09995379135026693 0.16888234406874109
0.13139002221055118 0.07647054478540181 0.16256949693128991
0.14768539565034 0.027350237816712857 0.14901301652357507
0.1314355303568372 0.0623625127972579 0.16290823012754846
0.1251617242617139 -0.0300313921271348 0.16900006324217248
0.12391911642975896 0.10619743749513387 0.1424700954572909
0.1598291863722333 0.04499935194864035 0.1341992953436129
0.14697049754090397 0.04361422941102743 0.14956471711561609
0.143243895940257 0.08608069106950521 0.15235081702635217
0.13705764906830875 0.11153199359788656 0.12261465579435754
0.1545840372366437 0.039239695519349575 0.14169612914488244
0.15021656649537174 0.07237600371255636 0.14663479119703698
0.1393899788183698 0.06735586211099386 0.1541941502706759
0.15945480959839908 0.050994148701570034 0.13496825486586023
0.1308980752748975 0.06049292370691061 0.12395677358076501
0.13352684872574894 0.03419320866479635 0.16041741162702966
0.12383409040398687 0.005703171938798426 0.16980019599363733
0.1689386834425458 0.04962696716203451 0.12371379524633813
0.1352286507410535 0.09070422336473226 0.1585492232458346
0.12129990952439397 0.10104294702424764 0.17049786836073327
0.17027066843934147 -0.02093587234602213 0.12413028270170617
0.17055003540940372 0.001648148745439051 0.12256417066023279
0.12233786480851262 0.10831677004709005 0.14286086350843835
0.1371829976362714 0.05121310636415243 0.15644315272734094
0.12444158094353765 0.02867486163987875 0.16950264960691858
0.13051580088563053 0.10791235253228902 0.16340372353956628
0.162045644692851 0.03998844906701803 0.13191870242521692
0.13487951653428165 0.05676101729287863 0.12060636669561792
0.1318506469053754 0.07596077606096029 0.1621391513960116
0.12925927536912052 0.07879008933915853 0.13967255145475793
0.12541718976922123 -0.006602773219206335 0.1298367419855349
0.13087614076562015 0.08010979577913045 0.13834277182981897
0.13463123338646976 0.01315548107042074 0.12083992749617029
0.1502142419142255 0.11790095850839376 0.14664957314894128
0.13046442168183414 0.028330197781465054 0.13855621606275964
0.13054527538247196 0.10022466465844869 0.13719669372007776
0.16602240698762027 0.034636995047471524 0.12878895193502832
0.13751177685685245 0.11178435966386556 0.12216538578436303
0.15034656422562687 0.04189940378083944 0.14648995191023279
0.16029654639191715 0.07171924993409871 0.1336771288530581
0.14009754555649845 0.013246407956025599 0.1537502148763888
0.14427428143448917 0.06756754800691366 0.15158501655027795
0.14145212071366398 0.03389959618463278 0.1267365852014773
0.1683050860685834 0.09529929444207906 0.12630051762030053
0.12792240279145328 0.010391285866639613 0.1269879677908175
0.1418378819746503 0.0652522055806136 0.12650850802824426
0.13130067484803287 0.0028923659028029427 0.13747761041090417
0.14707295792527286 0.11712112113847493 0.149491761030411
0.15112529890961734 0.11643393918885946 0.14564547330305505
0.13023971217103092 0.08812629267587423 0.1246177890913241
0.12253315942711919 0.074039837569139 0.14489028245375085
0.15795509713120548 0.059632828682801724 0.13659510404035974
0.17206786768860904 0.0996510891617751 0.12093213588163781
0.13890283005662052 0.07742165610208272 0.15470019370481897
0.13047604458756534 0.07743676587953328 0.12436959535047937
0.13767622607178776 0.09560789749040365 0.1559721568243258
0.1528215874952802 0.0879793374241805 0.14376905948088098
0.16979979174561588 0.05244951531305075 0.12178105503485132
0.15647076266236393 0.11569108650102376 0.138133917154526
0.13707767622895328 0.03731926366700888 0.1563688853399508
0.14123331206269352 -0.004825303107359411 0.15312984973356653
0.1451761593145856 -0.0030717642603898063 0.15089032441542077
0.16794477599091617 0.10677849337472677 0.12665528446600366
0.16967492001481144 0.10791613742723226 0.1246427336351626
0.15302215712494938 0.018324425667665005 0.14353511125013757
0.1273108293337354 0.04956721350564718 0.166867409052109
0.12561290162034122 0.09605466410531759 0.13014707356855798
0.12447549598641484 0.01780580565347433 0.1316872277872317
0.1321441699785718 0.05427303001298666 0.13685927182600427
0.12268291609711736 0.07032378599061727 0.13390019923613
0.13867949145264713 0.08858319208039998 0.1549340823309176
0.13396100895829288 0.07853519007577657 0.12141654282972741
0.12734757559723942 0.08634733244790792 0.12754857927725244
0.1375167240423688 0.06943320319070577 0.15612772494718957
0.12565954225487797 0.03325446531190634 0.14257535725996423
0.1419831980986127 0.10395791217698812 0.15285537034437585
0.12301109927125066 0.07361566111459493 0.13358986765310693
0.16128467219300358 0.08050807401551961 0.13290706664488244
0.12541805403657047 0.11377476736917257 0.16826573401853967
0.12150381701417058 0.06289907380952596 0.135035190881943
0.147496448926402 0.034630766362092495 0.14916351825163293
0.1247958113474378 0.029719492644212246 0.16921982556745935
0.1361797918600568 0.05788173362626791 0.1575549581663363
0.14702581065125553 0.09327416703119039 0.14952114612028528
0.14173846142716495 0.009967496842286585 0.12661928326055932
0.12794445651002018 0.03847711369409323 0.14075509101316858
0.13741587298340885 0.09967984840287923 0.15624192744657922
0.14066718714661686 -0.010924735814192297 0.15336081773207116
0.14789281981415836 0.11515533015146016 0.14887407809660363
0.14636622565217106 0.0048387555779433235 0.12340358287260461
0.13743262188859073 0.08544912025346517 0.12997547179624963
0.13481824295945255 0.09118573948755025 0.12073421865866113
0.13295205133385746 0.0478950051964736 0.13557830840513635
0.1264047493261823 0.0466939119996047 0.14202985555097986
0.14330266612000553 0.07751210615052938 0.12566131740972925
0.16438256400055973 0.10408636018647908 0.1297718623296969
0.13909433978028385 -0.009934583455183508 0.15448555737898279
0.12661864059395878 0.025003900975129605 0.14164063722059655
0.13932012217469303 0.03538649365319967 0.15398255378172326
0.12733055847115604 0.06196232721223593 0.14126661807463098
0.1270826329512128 -0.0028662176428818718 0.16753682881758142
0.12394620674080938 0.03507291361703634 0.13129514843389917
0.13641320364899723 0.026540359705827236 0.15718564778730798
0.14376466172165958 0.04853042051210165 0.12538937121794153
0.17069219248719303 0.10885997697725057 0.12351218253538537
0.13143076198525516 0.06063907429589987 0.13789126664564538
0.14891927140183536 0.0846919028462386 0.148066196741318
0.14635603325791446 0.09717764541520833 0.12308761865065027
0.14052944081254093 0.11388214513673543 0.12801072389051843
