ply
format ascii 1.0
element vertex 116
property float x
property float y
property float z
element face 0
property list uchar int vertex_indices
end_header
-0.22084479160976928 -0.0385246372831317 0.12806581354068206
-0.22053022809696715 -0.03851521974925719 0.1276854166977255
-0.21990566082668822 -0.03838867908839903 0.12793599462436125
-0.22104911633205931 -0.038308987678334336 0.13015477752612517
-0.22130197413635772 -0.03847623831157408 0.12962834930346892
-0.21940817065907042 -0.03825486666087828 0.12756883001254485
-0.21963633723927062 -0.03821958071117125 0.12871306037829802
-0.21784325071049254 -0.03682134515170775 0.1299245843880026
-0.2170946759767584 -0.03538031345729552 0.1307226905815451
-0.2195111376829199 -0.03774515754108153 0.13048731183932707
-0.21821397669983428 -0.0370406604421588 0.13032125329898284
-0.21899800129604857 -0.037541548074528794 0.1300798544876425
-0.22147546835613768 -0.03502870565776549 0.13619201278613494
-0.22094640262795012 -0.03757805591945372 0.13229345178531096
-0.22045813627911132 -0.03733004099254332 0.13243465518878386
-0.22025048859787505 -0.0375616348398181 0.13187514638827727
-0.21922662981224578 -0.0347496665132495 0.13430135345385955
-0.2198691678829245 -0.03570366865520201 0.13434158658908293
-0.22114616759491484 -0.03473297721271239 0.1361833701126425
-0.22120748587322753 -0.035320977033421616 0.1358089337341635
-0.22103732951355498 -0.03720496064548216 0.13370459175036833
-0.2186765236444525 -0.03648973471049986 0.13228141164706633
-0.21819087989998381 -0.03579396969203673 0.13223486041949675
-0.2191241098232321 -0.035261521400258164 0.13371621465609954
-0.21936576195431273 -0.03652275568370543 0.13296197748111174
-0.21909761555862944 -0.037052879394337754 0.13198225593493865
-0.21918650098515075 -0.03718991047267638 0.1317784080498068
-0.21668331452084105 -0.0365567303312274 0.12825589275287078
-0.21622364350033324 -0.03633613354091368 0.12725250816272185
-0.2165645075626425 -0.035661081136509995 0.12972973680423186
-0.21656508870792907 -0.03607005840663634 0.12869100665973113
-0.21722905464840453 -0.0371765292299243 0.1279896388046591
-0.2201220107860617 -0.02580086356525145 0.12724809741900847
-0.2203903508968405 -0.025845567048832993 0.1282831916801779
-0.22116434701157134 -0.025721768201634507 0.12820093727038787
-0.2211574179716162 -0.025804171623036484 0.12945394611285613
-0.22149813302231353 -0.025786022008702378 0.12976967191623137
-0.21708926685524504 -0.02941433555011473 0.13141386604236052
-0.2173146320171408 -0.027995834411427598 0.13024150228427336
-0.2173042310066275 -0.02738479739551268 0.1289729962341635
-0.2176958186216406 -0.026668707193181138 0.12769870853351042
-0.21876381464672606 -0.026240239204213242 0.1281584987633078
-0.21933682389927428 -0.02604667312030516 0.12792252397464202
-0.21750801928711455 -0.02779395347957335 0.1302300581924765
-0.2180845750160269 -0.026981452764317612 0.12959437465594695
-0.21858659513664763 -0.026555070937916855 0.12922381257937834
-0.21992446609211486 -0.026132086576268296 0.12996851301120207
-0.22002309687805693 -0.026219228566929917 0.1307906994812338
-0.21795652933788817 -0.027860621274754624 0.13115774488376067
-0.22107300289345305 -0.03357679611568175 0.1366571078293173
-0.22108252473545592 -0.03108103042964659 0.13672338819430754
-0.2215601814575247 -0.02707717782382689 0.1345131287567465
-0.22145788498592894 -0.02683884865169249 0.13385694122241423
-0.22129170723629515 -0.02866614824657164 0.13600556945727751
-0.21948878594112914 -0.03450275427226744 0.13479541635440276
-0.21925930805874388 -0.03268502122287474 0.13500808572696135
-0.21926722057533782 -0.03262294298534117 0.13502316570208953
-0.2207262975759558 -0.03283763891582213 0.13640992736743376
-0.220914260823255 -0.034135470451161484 0.1364318618767111
-0.21942600734901946 -0.031019846261784653 0.13521258926318572
-0.21896754332256835 -0.03142581349734984 0.13472770547793791
-0.21949581928921263 -0.030301014245793442 0.13519256210254119
-0.22079280145836394 -0.030136535228535752 0.1362717638008444
-0.21997626252842467 -0.03144870168094359 0.13576494550631926
-0.21825881429386657 -0.0355322158945056 0.13268439865039275
-0.21786446996403258 -0.034115145267293076 0.1328903923027365
-0.21687123306465667 -0.03252739673976622 0.1318855175964682
-0.2169956130571417 -0.033371219695851426 0.13170193529055998
-0.21847678847981017 -0.03374309307460509 0.13398282623217986
-0.2180850816555075 -0.033693859638020615 0.13347123956607268
-0.21766668685150664 -0.03271166449908934 0.13305370902942107
-0.2172591698951773 -0.0306302703035327 0.13241582012103484
-0.21821178622913878 -0.03102339273814879 0.1337855944626181
-0.2187637252397589 -0.029992917836949448 0.13414536809848235
-0.21796363719177764 -0.031637141765400986 0.13349889612124846
-0.2194152338094763 -0.02913115388278685 0.13451294994281218
-0.21993269153309386 -0.028429845632359604 0.13454793786929534
-0.219964833337789 -0.028247783244893174 0.1344065556518881
-0.22102812059593718 -0.027368942560002427 0.13446145152972624
-0.2202419055290274 -0.029031167091176133 0.135280717372164
-0.21940954156590026 -0.027747312845036606 0.1332093367569296
-0.2201135171241812 -0.026737908185765366 0.13227741813586638
-0.22067284711075347 -0.02626056438808165 0.13149010038302825
-0.22144208975506346 -0.026369372667119126 0.13282727098391936
-0.22152663894367736 -0.026396910013005356 0.13304190730975554
-0.21771432586384337 -0.030346909822270493 0.13299148178027556
-0.21734428532791655 -0.029751399816319565 0.13213293647693083
-0.2174805564470343 -0.02878279453639708 0.13151602840350554
-0.21824425585938018 -0.028250107826039414 0.1321630368225424
-0.21862772234154265 -0.02815018063907347 0.13260583972857878
-0.2188835901804022 -0.029350886405751328 0.13408045864032195
-0.21833773084354918 -0.02928764587764464 0.13329010105060027
-0.21566414960098784 -0.034314284385487656 0.12851487493441985
-0.21533548958969634 -0.03337023621921263 0.12856476402209685
-0.2151629043407492 -0.03311497932796202 0.12812631225512908
-0.21520806976032775 -0.0338786936414691 0.12754045820163176
-0.21559433766079467 -0.033494869531437974 0.129151988982424
-0.2161544872112326 -0.035067299665257554 0.12908278798983977
-0.21685338147354644 -0.03453640109424315 0.1310385355942099
-0.21649342902374785 -0.03457180625323973 0.1305425057403891
-0.2150931073017172 -0.032137969793126206 0.12793885564731047
-0.2149611128158621 -0.032200167239949326 0.12737916803286956
-0.21509488053989928 -0.03175372845058165 0.12789021825717375
-0.21581047900391143 -0.03163803583507262 0.13023589944766448
-0.2154211116619162 -0.030998656810567002 0.1290408263199179
-0.2156276715583853 -0.030970642627522568 0.12960844135211394
-0.21577052899075072 -0.030675480426594834 0.129751194476351
-0.21623061724377196 -0.030796239436909775 0.13080566024707244
-0.21666230388355773 -0.03189865714435301 0.13176624870227263
-0.21622651942444365 -0.03315118914966307 0.13085286712573455
-0.2152963293380789 -0.030256131948277573 0.1280487666122763
-0.21552993484211486 -0.029209474386021714 0.12760566568301604
-0.21584580965710204 -0.028540799678608994 0.12764411067889617
-0.21677847333622496 -0.02770484453563414 0.12847350931094573
-0.21610249705982726 -0.028960893214985947 0.12909709310458586
-0.21556003518772643 -0.03028009301547728 0.12894283628390715
