ply
format ascii 1.0
element vertex 786
property float x
property float y
property float z
element face 0
property list uchar int vertex_indices
end_header
0.15557448761887638 0.3597858159245467 0.19611695796415735
0.160702334813548 0.3657704798878646 0.1844915488378756
0.12113057272858709 0.3337773887814498 0.15568533927366662
0.13073106306023685 0.3537061421574569 0.21315792590544153
0.13561748164124576 0.34238400146379233 0.1955578067915194
0.18805085318513004 0.36595608875169516 0.15543803960249353
0.16552715199418155 0.3624440042675948 0.1533633807317965
0.1299874057096967 0.3369870989026046 0.15314630061552453
0.1396307219786176 0.32743497774019004 0.17095467835829187
0.12408738034195989 0.35096909686937094 0.1745743492262118
0.1228426565451154 0.2956374494732833 0.16982970029280114
0.1695115436834821 0.3659922687710738 0.17468801528379846
0.12424577968545049 0.31929042026414634 0.17573598414823938
0.15836863415665714 0.32444693729295493 0.15095726043150354
0.19266675608582584 0.3615980355442977 0.1574653127805941
0.1618552674574384 0.3114688007534957 0.13670769721434045
0.1396057476324567 0.3415422050656295 0.19300994664595056
0.14540617363877384 0.341144284457109 0.1666196325437777
0.1230393518728742 0.319934567660234 0.14716139823362756
0.13688706057496158 0.29670127317323447 0.15929916888639856
0.12632350819535343 0.33815534994020224 0.1565423348562472
0.1389498581213483 0.3636273948849654 0.1811074951307528
0.14334087269730655 0.3411774842442489 0.190962229074692
0.1718308796209821 0.3664270846547103 0.16950342446730066
0.15625946419663517 0.3048604933918929 0.1414653995649569
0.12212242381997197 0.3583261577786422 0.21769586593077112
0.1622604598326215 0.3529156057538009 0.1433856228010409
0.19955407278962223 0.34491696044816733 0.1428472140447848
0.18357925312943546 0.35582520648851157 0.16897526770994592
0.14784400361008732 0.3587722389401412 0.20131394654676843
0.1408109535498151 0.35153438732042075 0.16579696923658777
0.12454031603760808 0.34035571500673056 0.15984264403746057
0.14619903462357609 0.36448987409486533 0.19782832652494836
0.15922580855317203 0.3270018307866073 0.15231475621626306
0.1762118210119733 0.36477073118104697 0.14848575383589196
0.14261929886765567 0.3261823265255904 0.1547950842993014
0.14621804850525943 0.3253741471470809 0.1560508945600741
0.16713337796158878 0.36595686361207724 0.16044602185652185
0.16399155753083317 0.3425765840710616 0.1766565182821505
0.1798642148298749 0.3534639088810897 0.1737796404974215
0.15243391888566105 0.333232006281755 0.1273909845964663
0.14803479807801334 0.3282339183987594 0.16021487504408288
0.16508929627366153 0.36604448243989707 0.16171130925581384
0.1532316078466901 0.34680636808290244 0.14026639253065515
0.14022539751954166 0.30963446781053305 0.1279432216303103
0.143837260178996 0.3658148257435775 0.19667950660154748
0.15657846825547306 0.35993739053621054 0.15938637048170495
0.12984504001565067 0.29705443069352866 0.16549685985014367
0.13242511647172062 0.3636000363530135 0.20909563094541955
0.18736200230546085 0.3566832153500533 0.16596916705534387
0.12803758876748172 0.3419941870869613 0.2016421893255465
0.1675281395239362 0.3359429447354293 0.1558133104459994
0.13845120566315738 0.30575098678483725 0.15755042821333337
0.1439300646109113 0.35429575130357505 0.20422974616453576
0.14270268576569645 0.36156084224595786 0.20367393285200525
0.1682004799170026 0.3213821856678939 0.13139444977209497
0.1227314938826093 0.3464574424923873 0.18568644315168786
0.13102556961007206 0.3375300972165084 0.18669596702024865
0.15734146731324283 0.3671047298611617 0.1830656865255587
0.1275069584173688 0.367344817370317 0.20289031058714319
0.16572945015854923 0.3451951353253341 0.12530601412222314
0.16377411978669254 0.34621944114579917 0.18457904845640588
0.16275881426758854 0.3609527556599593 0.190202210249161
0.1666341294569501 0.3559102027119613 0.18823048859999109
0.12677632468171207 0.3320127336682296 0.1827496626989596
0.13670556443162052 0.3414191214741683 0.1938771942274325
0.12579472558922855 0.3596407978238082 0.18693450480863977
0.13835518258042423 0.3022694794835067 0.15810826808378625
0.16816954510636417 0.36412866994752646 0.18019482880995202
0.12309433715767949 0.3666464893521285 0.19934741050169397
0.15155999558396427 0.3433337418736434 0.190629992784714
0.1250677575392255 0.3328490464390731 0.1844807007925265
0.17314373152680484 0.3482712714375472 0.17914984017774988
0.13520623939461796 0.3670448867978072 0.1949872115270846
0.1519890894217023 0.36212541744127036 0.19668135434553552
0.12498717205948918 0.3323556987942672 0.1524377205984347
0.14495448964066593 0.3667577116192794 0.18926021844313073
0.1616067756933698 0.3392952291668868 0.1701151469366305
0.1642547716421613 0.3640002219380355 0.18532672912046838
0.14800684349961368 0.33191039249315024 0.1631833055631869
0.1489489545149335 0.3037214486302352 0.14819518119261194
0.13906680243439762 0.3400005905331588 0.18967959672377038
0.14323197501130192 0.30028500244035483 0.1537605860845797
0.1480712165159711 0.34710111305131675 0.14660928040907312
0.12462012665696233 0.30921860620393515 0.14279666930601526
0.12328387992806523 0.2894184200467086 0.16951844483778405
0.13099141614861576 0.3554446904362655 0.1743604877607577
0.12553371684975712 0.36599971935167075 0.1952771285192721
0.1661822070402631 0.3512506692112899 0.14280620604917932
0.14666925566620914 0.36298163816346884 0.17401853591368127
0.12745996015496341 0.34552874252214194 0.18660971909925866
0.12121953266091436 0.3492524830998397 0.2161070445196383
0.18042139904923526 0.3656987755001998 0.16552481442854333
0.13626645701356022 0.3470658271016097 0.20443830281660486
0.13614992993302433 0.34331639692201377 0.19776001960203576
0.13074155347771732 0.3480652181805587 0.2102096417562716
0.15389560358948795 0.3525529710949874 0.19743022710249353
0.16208212273545353 0.3533461897076583 0.19114306956694055
0.15965204136796085 0.3588991968335128 0.19352361947462488
0.1274367739481458 0.36733235999955893 0.20291123181745935
0.15831588404603092 0.36162235423936606 0.19301513225004602
0.13322262661881534 0.34308250829591513 0.20074853688642907
0.1607735623640546 0.3427653519810653 0.18067673236296106
0.17250423329300968 0.34100242540254355 0.16327473908827234
0.18701814310975162 0.3493309228123641 0.16426632195875573
0.15175281660981266 0.309127887934587 0.14742371827528405
0.16388647454209415 0.34841289207353354 0.13502052813932824
0.1321509649080762 0.35947116300477744 0.2120160201208346
0.12436084645218938 0.35001917764558554 0.21521762401029992
0.14441316025681583 0.36068161413087607 0.1720423439161532
0.13524399893708317 0.33044960185899497 0.17843500167295862
0.1556926240248212 0.33574076578035117 0.162295613588547
0.17404692070908634 0.3567757217587447 0.13921419173643518
0.12152643697686284 0.3077906577290511 0.14501557141706872
0.1333895792288312 0.3133068291844344 0.16533318549559045
0.14088897602982609 0.32619144603624106 0.15934691220686364
0.13351284163422672 0.34793599531068564 0.20736477166578698
0.1392368544859418 0.3094011752308822 0.15420654803678918
0.1370202173513898 0.3521021811665511 0.20745882779524255
0.12779705422349064 0.35591509029283286 0.21496513873503137
0.126083331279231 0.3596136181057906 0.21548274547026086
0.13518549697823612 0.3505801765622115 0.2089351752416842
0.15323005812592594 0.3194802014531112 0.15141651421949792
0.16563622849412052 0.2821244208516097 0.13237327724859643
0.14442478316254703 0.35291763231172324 0.20326719075605798
0.13043420212693302 0.3001196591557479 0.16511163503096032
0.14129112856812565 0.34823097869767905 0.20336363107130456
0.13179610865540592 0.30433340951814414 0.1638522484915011
0.12528069513268558 0.3431707231701827 0.19169399529859948
0.12406437294907659 0.34232266828431845 0.19131240636274743
0.12592427628464786 0.3415959088505721 0.20250967532560754
0.17367802756257145 0.3615842668713546 0.17735860139295984
0.13883887427277652 0.36179824754609824 0.20615074426100183
0.16802333491273014 0.35778006002321006 0.1447872260229342
0.1266026069445142 0.34213807269944907 0.19432691127226281
0.1526973118109235 0.3185304610432601 0.1511913278715365
0.13581054108567325 0.36331953689470053 0.2063871958868258
0.14474682705826847 0.29855849429979087 0.15237686425611902
0.18226783173508732 0.3433547823132491 0.1583091953413241
0.12463985579438298 0.3619155494870162 0.19075283795759607
0.1668932904524335 0.36351015254869223 0.1825856903211825
0.1400273908895978 0.32856937333955527 0.17199990540907312
0.14643411534257023 0.35439284726991416 0.1663169005529635
0.12209274070687383 0.29984631225480796 0.17043760806486535
0.14479260342545597 0.30727978631868125 0.15212873011991906
0.13244773643441288 0.3476224152745223 0.16206488400862146
0.20178638594575016 0.3437416164578414 0.13688525945112634
0.12589933174080936 0.3311817257107711 0.18291542321607995
0.16956369774766056 0.30921526834382773 0.12685487061903405
0.15373866455979435 0.35591467306031943 0.15578285247251916
0.13310276167817203 0.3546080796421981 0.21235713750288415
0.15348510640091984 0.35165204688920737 0.14828023702070642
0.14813535111374942 0.33898492738618613 0.16581485063002038
0.12970735328621952 0.35886271879091025 0.18044737368986535
0.18256955044694034 0.3393889872731185 0.14695451051161218
0.15732906954712955 0.3628614155949569 0.16372600585386682
0.17350749867386905 0.353586158007524 0.18091890603468347
0.14062820570893375 0.3667109815777755 0.194744024576401
0.15722809927888004 0.36670186206712485 0.1809815505163424
0.1768703927320966 0.36678131505861045 0.16364160567686487
0.1432579030317792 0.35047694131746054 0.20379785090849328
0.14119182722992984 0.3266973106564498 0.1629280188696139
0.14522330658860294 0.34766395971193076 0.16572901994154382
0.14804612296052067 0.28581430599107505 0.1509200671331637
0.17599110501237003 0.3471714465321517 0.1732809284345858
0.13757835524506656 0.33977272197618247 0.18967578202650476
0.20120261805481998 0.34873398229493857 0.14657923966810632
0.12354250448174565 0.35156103059663535 0.18771276265547204
0.1470871438307294 0.3623909561337447 0.17251477033064294
0.15477650063462345 0.30900742694749594 0.14440754443571496
0.18375824587769596 0.35218348190202475 0.16803446799681115
0.1595175136847028 0.34992595598115683 0.1923265793936007
0.13447655933327762 0.3064885942639327 0.16102698832914758
0.14043973582215397 0.31193103477372885 0.15413758546278405
0.13783733742661564 0.28433181926622153 0.1594586709158175
0.12671406763024418 0.3103701083363509 0.16917226106092859
0.15925596850342838 0.32846190616502524 0.12554282337591577
0.18443601029343692 0.3651509492100692 0.16111383229658532
0.16375862257905094 0.32852747127427817 0.14908770114347863
0.13956909077591984 0.33275803014650107 0.15464672833845544
0.12396054165787786 0.3197334615887618 0.17625096827909875
0.12394909756608098 0.3213814704121566 0.1772005298750155
0.15813099043793766 0.35411234781160117 0.19517311841413904
0.1314180959982404 0.2869551984967208 0.16392913848326135
0.12180514829583257 0.3475163786114669 0.17182830363676477
0.20719693797059147 0.36130942985429526 0.13981369525358606
0.14824144738144962 0.34693523332490683 0.19777891427442956
0.12379925148911565 0.3657161800564742 0.21030298262998987
0.14457319872803776 0.3349186389149642 0.17293420821592737
0.12349765198655217 0.3405995576085067 0.19624242574140954
0.1549706329626569 0.3132053820790267 0.14593592673704553
0.13525013821549503 0.34445842191591025 0.15875205785200525
0.14193342822022526 0.3489550559224105 0.16109416276380945
0.12668337123818485 0.3107515780629134 0.16945836335585046
0.16356776850648014 0.35275360032930136 0.19037625581190515
0.13914255993790714 0.29694738075151206 0.15729353219435144
0.14753966229386417 0.348684510439775 0.16175023108885217
0.1319886912626752 0.3163971512021041 0.16833213359281946
0.12852795618004886 0.3433805315197921 0.19187483579084802
0.13090320127434818 0.34386166021241904 0.20395902186796594
0.17376940148301212 0.3441320268811202 0.17054495603010583
0.15381549494690983 0.3665082065762496 0.19036141425535608
0.12916957037873356 0.35393484517946006 0.17377785235807824
0.15144978659577457 0.36661102458848716 0.19124690085813928
0.14363418715424625 0.3329912631215072 0.17319396525785852
0.174466298989726 0.3437310068310714 0.1685444453375094
0.14020244973130314 0.3315496055783248 0.1754387357847445
0.17600684063859073 0.36721118375673056 0.15883198768064904
0.12190620797104924 0.3337779252232528 0.18809983521864343
0.1947377194685468 0.36601813718690634 0.14623257905409265
0.14938281672425358 0.3250106184185958 0.12425768762991357
0.14453809159226505 0.36199637338533164 0.2016671636717074
0.13571624653763859 0.36062713548555136 0.1780792215482943
0.17448727982468692 0.3642993776501632 0.14944586545393396
0.14897380965180484 0.3436817733944869 0.161288533510422
0.16430191891617862 0.3665029017628646 0.1699225643293612
0.13835363285966007 0.2926026789845443 0.15749189645216394
0.15567670958466617 0.3277790157498336 0.15635297089979577
0.15103875296540348 0.35249735996141196 0.198933158220505
0.1255376507563123 0.29360260650529624 0.16838863879606653
0.15229098694748966 0.3667721955479598 0.180853221716141
0.15918533699936954 0.3376887051762557 0.16762861997053552
0.15145497219987003 0.35383649751558066 0.15920928508207727
0.12376992600388616 0.3643747179211593 0.19336262732908654
0.1434243191999921 0.3268937675656295 0.15735885888502527
0.15231757061905948 0.3465121595562911 0.19523659736082483
0.12454773681588262 0.3372041194142318 0.1862579324857943
0.134256200961543 0.36406626388444663 0.20698485165998864
0.1667961944860944 0.3388038484753585 0.16398486882612634
0.17790745394654361 0.34160967752351523 0.1592896321432345
0.20540027516312687 0.3589885441960311 0.14340368300840783
0.1329434682650098 0.3627904264630294 0.18423983842298913
0.18460993664689151 0.3509896008671737 0.1672169306890719
0.14771382706589786 0.3371517269314742 0.17865041285917688
0.13072331445641605 0.3492570726574874 0.16484520226881433
0.16463689701981632 0.3109213916958785 0.13284212738439966
0.15351443188614933 0.28180344983949424 0.14583591014311242
0.1413837541861066 0.28106155082597495 0.15814558059141565
0.1352436711115369 0.364298364371202 0.1850747802870028
0.14252071278519718 0.2892413346470809 0.1541282871381991
0.14853315251298038 0.32180084869279624 0.1548062303678744
0.1538448800367841 0.3049438206852889 0.14357582122251916
0.12203623550362676 0.28635754272355796 0.17080942183897424
0.15623162882752506 0.35957141801728965 0.15920398026869226
0.15538691180176822 0.36084302350892783 0.16205671817228723
0.1590006222052106 0.3436649052800155 0.18520114213392663
0.15496705668397037 0.28474791929139853 0.14372507125303674
0.12515633004136173 0.3488145677746749 0.18708017856047082
0.15951030152268497 0.34666027709855796 0.1890820601598971
0.14384250538773624 0.33484663650407553 0.17726996928617883
0.1514025201124677 0.31011184141053916 0.14825377255842614
0.14727418320603458 0.2998528091610885 0.15003034860060144
0.17370437281556217 0.35515900537385703 0.1808151939527743
0.13587139742798893 0.3077964989842391 0.15954432279035974
0.12295444505639165 0.3573197929562545 0.18786892682478357
0.1519212593359479 0.3655570952595687 0.19248250514433313
0.12689261334366886 0.2828472463788009 0.16785809785292077
0.1794290413183698 0.353234013766191 0.17403462916777063
0.149219499997569 0.338954707831285 0.18158880263731408
0.1384654511732587 0.332093557566545 0.17811057359144616
0.12284176247544377 0.3463748304547286 0.21333364039823938
0.1713498105329999 0.35021849557771445 0.18207320958540368
0.14395879404969303 0.29089882060899497 0.15319863349363733
0.13037572997040836 0.36673988983049155 0.20293257028028894
0.1476006378454694 0.3403423039616561 0.18702486545011926
0.13329895036645023 0.32737275049104453 0.17614564687178064
0.1744199861807355 0.3636191694439864 0.1739995816366427
0.1482841243071088 0.32319518014802695 0.15550658494398523
0.20721106427140323 0.36177059099092246 0.13898054152891565
0.12841503518052189 0.35687979146852256 0.21491578608915735
0.20172731774277775 0.3419374434651351 0.12683648258612085
0.18957089083619205 0.33711310312165976 0.1345594564096682
0.13111858265824405 0.3659290878476119 0.192177627386307
0.18899707692093937 0.35381062909974814 0.16412261516020227
0.150970148019267 0.3493755666913009 0.19809970647261071
0.17257814305253116 0.33855452224626303 0.15781441718504358
0.17258112328476993 0.31988789722337485 0.12872803598806787
0.17241274016327945 0.36662097856416465 0.16869715243742395
0.12773402231164066 0.31668671056642295 0.1715244987623446
0.13305039899773685 0.35287644550218344 0.16884252816603113
0.15226386683411686 0.36699976608171225 0.1891212800161593
0.16517912047333805 0.3640554158390975 0.1844375470297091
0.1814884414000043 0.3412357775868392 0.1532597282545321
0.16094909804291813 0.3668102829159713 0.17942980319425988
0.18411551611847965 0.3565703837574935 0.1682671049253695
0.16037307875580875 0.33300950214280844 0.156888161005234
0.1977281441015729 0.3564037291707015 0.15452048570082116
0.19004051583237735 0.3398502080143905 0.14078012496397424
0.183191405705882 0.36723878070726157 0.15009352952406335
0.1305524577421674 0.3643841354550338 0.188168678583359
0.16413890021271793 0.3639832942189193 0.1854419448988192
0.18670474188752262 0.3410554139317489 0.14726224929258752
0.1541006435675153 0.36361452028169394 0.16955069095060754
0.13380761640496341 0.3227119056881881 0.1707947590963595
0.17425100701279728 0.34503003045930625 0.17176083117887903
0.12918345826096622 0.36242338106050254 0.2121090033666842
0.18693255083985416 0.34838112279786826 0.1631895640508883
0.14005290167756168 0.3274398653210616 0.1561039426939242
0.12119235294289678 0.31373717471971274 0.17352417498991418
0.14398561613984195 0.34594555780305625 0.19877133160993982
0.1321054567617902 0.32468887254609824 0.14186492949888635
0.1435013284010419 0.36678900405778647 0.18987724572584558
0.15744708674378483 0.34033246919526816 0.17719802647993493
0.1267682780546674 0.30571897909059287 0.16853168994352746
0.15039287703461734 0.3452750651539779 0.14104524642393518
0.1749473084730634 0.3561380116642928 0.17920199424192834
0.16574619906373111 0.3510005085171676 0.18797108918592859
0.12148817079491704 0.35155816957368613 0.18036786109373498
0.1880916227621564 0.36562379285707236 0.156791303457474
0.13314940231270878 0.28671701833619834 0.16263315469191003
0.1262872387690076 0.34447266742601157 0.20871201545164514
0.13761793272919742 0.3146484105290389 0.15993383914396692
0.13103617923684208 0.32490291282548667 0.17501250296995569
0.15884606736130802 0.36704625770463706 0.17720750361845422
0.13887779610581485 0.32974364444627524 0.15673616916105676
0.14952109950013248 0.3408811895550704 0.18661943465635705
0.1487932075781354 0.3367775289715743 0.16585728913710046
0.19784002201981632 0.3587179391087508 0.15346202641889978
0.13632349865861026 0.3630932180584884 0.18186214953825403
0.1284694840235242 0.3452193348111129 0.20858344823286462
0.14866869347519962 0.29995795175447226 0.14869717151091028
0.14982198374695865 0.33753820344819785 0.16738871127531457
0.16033958094544498 0.31848212167634726 0.14244482308790613
0.15855144160218326 0.3395853845776534 0.17343661576673913
0.13132013576455204 0.3088583557309127 0.1368008592741244
0.16163151162095157 0.33450659200563193 0.15957329064772058
0.19674234288163273 0.36070277377977134 0.15367350369856286
0.12870262759156315 0.3480944840611434 0.1654110887663119
0.1350261439604291 0.33574690505876303 0.1844421365873568
0.1378860940260419 0.34962167426957846 0.20617607623503137
0.1506357063574323 0.3663459031285262 0.17862365037367273
0.16448925631470768 0.36674352571382285 0.17638275414869714
0.15635036127991764 0.33970805093660117 0.176408264936661
0.17903314726777164 0.3664622513951278 0.16278830558226037
0.16302262442536442 0.3407682983578658 0.172743234934067
0.13391731875367252 0.3235190717877364 0.17149940520689416
0.12888314025826542 0.31905933305635215 0.1722511389868014
0.15088455574936954 0.3264776079358077 0.15759995967314172
0.1213742067141065 0.34824015781297446 0.18802163392469812
0.15778134959168522 0.3597916571797347 0.156877014936661
0.16916386979050724 0.33619513198747397 0.15452775746748376
0.18080608742661564 0.36636014863862754 0.16256186753675866
0.19034271138138859 0.34212579414262534 0.146540317835068
0.12495507495827764 0.3528390137852645 0.1853509286062472
0.14531676667161075 0.3375919072331405 0.18232301265165735
0.1500791181845197 0.35935731813325644 0.19921425372526574
0.157600687913371 0.36384340211763144 0.1666346529142611
0.14136688607163517 0.36083545371904135 0.17416480571196008
0.13282592790551273 0.28159221097841025 0.13439289122984338
0.1338059772772321 0.35935994073762656 0.21100637704298425
0.131465034656001 0.30144806787385703 0.16421017438337732
0.12448807256646245 0.34752740547075034 0.18839398414060998
0.14933656351990787 0.3669963090123153 0.18476179629728723
0.1300716866774091 0.3429351060093856 0.19429067164823938
0.14713226454682438 0.31334771797075034 0.1515260675565951
0.1345233489794263 0.35487075731172324 0.21081111222670007
0.20000045197434513 0.3410287706555343 0.12957281261846948
0.18012617724366276 0.3655943481625533 0.16586670667097497
0.14259098666138736 0.355303904265306 0.20580706387922693
0.13292439477868168 0.3414634077252364 0.15678128987715173
0.12244187491364568 0.3592229692639327 0.18929812699720788
0.125446306638194 0.29123767301454306 0.1684870460645907
0.1641176809591779 0.3242004124821639 0.14087793618605066
0.12204294102616399 0.338003894537828 0.18838784486219812
0.1303274204058179 0.34187891170396567 0.19956204682753015
0.1384150852484235 0.34620084449662925 0.15854213029310632
0.12994559305138675 0.35157706424607993 0.1693466046468966
0.14371960061020939 0.34280343934907676 0.19412610322401452
0.17761282818741886 0.3593905775250411 0.17536065370008874
0.12608181136078922 0.3540984003247237 0.18123212844297815
0.19255404370255558 0.3660841791333175 0.15035829335615564
0.1863216032309064 0.36573644563569785 0.15844199448988366
0.15647296803422062 0.3566117493809676 0.15314755231306482
0.121577875785304 0.3471738903225875 0.18714145213529992
0.1317646970076093 0.29677858039750815 0.16397634536192346
0.12312253015465825 0.3037212102116561 0.17009362965986657
0.15214477675385563 0.3445497958363509 0.19300392657682824
0.15642492669053165 0.3524180261792159 0.19620237142012048
0.16555087464280216 0.30210991784944297 0.13012493044302392
0.12767540114350406 0.31584896728410483 0.14136287957594323
0.12307052510209172 0.28245516702546836 0.17095551282331872
0.13401590483613102 0.3367005793751693 0.1858672836439364
0.1474565138144025 0.33614768669023276 0.17586449176237512
0.1387643684668073 0.3563875763119674 0.16954508811399865
0.15314798253007023 0.3378890363873458 0.17222401887342859
0.13894508974976627 0.31758358165635825 0.15620503217146325
0.1600278486532697 0.36677696391954184 0.17324456960127282
0.13485939996666996 0.34945460245027304 0.207780335249161
0.14360194104142276 0.29889686986818076 0.12342438489363122
0.13669912712998478 0.36572798177613974 0.2018671968595736
0.16729556220002262 0.3432533352078414 0.17529383689329553
0.18160508768982975 0.3462116329373336 0.16614702731535363
0.17371802227921573 0.35370548650636435 0.1365932562963717
0.1494956483168134 0.34659465238466025 0.1438848117010348
0.13052912252373783 0.3658576218785262 0.19449463874266076
0.15002684491105167 0.34090825006379843 0.16178927213118005
0.1411388983053693 0.362808844298265 0.1775735357420199
0.1373004783911237 0.3202069608868575 0.16546157390043664
0.1321516801638135 0.32359405443086386 0.17304811269209314
0.13269506590790836 0.2899000851811385 0.13491216689512658
0.13870905535645572 0.33710219547166587 0.18503854066297937
0.1671924461645612 0.3275879232586837 0.13790241271421838
0.12778906720109073 0.30850317165269614 0.16810211926863122
0.18345622914261905 0.3502714841069198 0.16822287827894616
0.13072230117745487 0.3307801692189193 0.18094608575270105
0.13058604495949833 0.35711230918779135 0.17730650693342614
0.15713773863740055 0.3471961228550887 0.19172570496962
0.1563022603315839 0.36656191036119223 0.1752835252897494
0.13617269890732853 0.3671534268559432 0.19486651212141443
0.13465847270913212 0.3509617058934188 0.16502610236570764
0.14489047425217716 0.3486663906277633 0.15870556622908044
0.1332658101839551 0.30751355573549033 0.16345134765074182
0.13943658965058414 0.3298049776257491 0.15655461341307092
0.12381039755768865 0.3571564762295699 0.2170102337019198
0.12826176183648197 0.3508967964352584 0.21358529120848108
0.1301297714037427 0.3672239391507125 0.19939074307844568
0.16546224253602115 0.33985926792039634 0.16861245423719812
0.1516314019484052 0.35557897970094443 0.16101017981932092
0.15660338299698917 0.3469510881604171 0.1919553020612948
0.17115746634430973 0.35605265781297446 0.18341783076689172
0.1399245132727155 0.3641091792286849 0.20252541095182824
0.13309271829552738 0.3656450121106124 0.18850008040831018
0.12559123533196537 0.35200109168901206 0.18465873986647058
0.1498455871862897 0.3669608442486739 0.19145092755720544
0.14977954523987858 0.3670757023991561 0.18405989200041223
0.1816999186796674 0.3453738896550155 0.16520652562544275
0.17220233576722233 0.3623506037892318 0.1785236933843844
0.1664914955420026 0.3599229662121749 0.1871824601309054
0.16917912857956974 0.3433873264492965 0.17413840085432458
0.13491977947182743 0.33284022495164634 0.18148669988081384
0.19215206997819034 0.34778293058290244 0.1561949589864962
0.13607500689454166 0.33722843810930014 0.18601856023237634
0.19367765086121647 0.35121746942415 0.15777549535200525
0.14856706755585758 0.35168840572252036 0.16237834483549524
0.15254531996674625 0.3374896256627059 0.1637219527380221
0.12477655904717534 0.3523643223942733 0.18135241061613488
0.15621690648026554 0.360832890719316 0.19545594245359826
0.16547154086060611 0.3442575542630172 0.18026325494215417
0.1353049744886884 0.2857650129498458 0.13123825580046106
0.1267007161898145 0.3641494123639083 0.21181586772367883
0.1484350432676801 0.36210694000139 0.19908801108763147
0.1452742685598859 0.36688806697740317 0.19019839555189538
0.16912798779435245 0.3354705779255843 0.1454261878149264
0.13965086834855167 0.31994869396104575 0.15831151992247033
0.14463757174439518 0.356840392798326 0.1680183747427218
0.16448693173356144 0.35702463075532676 0.19009909421369958
0.13533072369523136 0.31164642259492636 0.16131523639128137
0.1417724956793317 0.2862510888279891 0.15621647626326013
0.14954202073044864 0.3573687283696151 0.16610923797056604
0.18210356133408634 0.36338200256242514 0.16679630071089196
0.16280578272767154 0.33584006711854697 0.16068026811048913
0.14681230681367008 0.34401251956834555 0.14350852757856775
0.13621430294938175 0.32183541938676596 0.16747156173155237
0.1388537158293256 0.35961671754731894 0.20750311404631067
0.130897807053996 0.36677303001298667 0.20214811355040002
0.1271868218702802 0.3571773974598861 0.18248406440184045
0.12286304133362859 0.3673343865574813 0.20752248555586267
0.14589993851609317 0.3106687872113204 0.15133789569303918
0.19335876601166813 0.3445936648549056 0.14997586995527673
0.12706099646515934 0.3415829150380111 0.19626799613401819
0.14981202977128116 0.34095348998918296 0.18653580933973718
0.12286319034524053 0.2975191681088424 0.16992846518919397
0.1832894553465375 0.36722507163896323 0.155731413664078
0.14470140831894962 0.36568369552507163 0.18110272675917077
0.17197500365204899 0.35750707075013877 0.18178692847654748
0.13797871964402286 0.3598439900578475 0.1751713493482821
0.16683118241257755 0.32731380149736167 0.13721314460203576
0.1531126965803632 0.33678277418031455 0.16946736365721154
0.170435058049632 0.357357343882463 0.14344165116712976
0.15462951558060734 0.326595625132463 0.1558711865560763
0.15853338139481632 0.360539397448442 0.19384315997526574
0.1400986184401044 0.3424192278088546 0.19459090024397302
0.17487625973649112 0.35399057552232505 0.1289248505251162
0.13810633318848697 0.3407460062207198 0.15616074592039514
0.17843662398285953 0.3428253738583541 0.16278472930357385
0.1383220423979291 0.36598201677217246 0.18773195535108972
0.13851164477295963 0.2920213548840499 0.1290699282304995
0.133054869346095 0.31107773467912436 0.16424426824018884
0.18258522646851627 0.35635932371034384 0.12112337738439966
0.12300618188805669 0.34032257482423545 0.2020677664892428
0.12991725104279606 0.33255656644716025 0.1825636366026156
0.14938990967698185 0.36224844142808676 0.17129335194990564
0.14929203885026066 0.33537556812181235 0.16336980849668908
0.15196810858674137 0.3614040224255538 0.16819087058470178
0.14943646090455143 0.350268503874681 0.15827122718260217
0.14248494999833194 0.36247517749681235 0.2033342459814303
0.16355703967042057 0.3283489553631759 0.14911339074537683
0.17737744944520084 0.3322164623440719 0.13422724992201257
0.1223047246260175 0.33909316942109824 0.19275644809172082
0.13808624642319767 0.3350489346684432 0.18251625091001916
0.1733593811316022 0.3384296505154586 0.15602341681883264
0.14065174954362003 0.33833213731660605 0.15240541488096643
0.16625152724213688 0.36656113550081015 0.1764361599104159
0.17354051964707462 0.33692755386247397 0.1505453923361056
0.13630972998566715 0.2804237215222335 0.16097781449720788
0.2009073366446027 0.34366717025651694 0.13885984212324548
0.14935164349503605 0.3460238783062911 0.16076556235716272
0.1335378159803876 0.33682437822236777 0.15073219329283166
0.16355054276414005 0.3629967777432418 0.15685019284651208
0.12822883027024357 0.28469117566957236 0.16668537646696496
0.13766317265458194 0.3512910811604476 0.16424200326368738
0.16561489003129093 0.29984631225480796 0.1297405996935122
0.12623970406479923 0.3382620422543502 0.18552735835478235
0.13806520598359195 0.348168632239244 0.15990242749617029
0.15178327458329288 0.3190851418675399 0.15195176392958093
0.13037474649376957 0.3425461260975814 0.19275543481275964
0.12950135963387577 0.29261078521623374 0.16501835376188684
0.15531133311219303 0.36674376413240195 0.18603113681242395
0.1259828080458173 0.3587017266453719 0.18564793855116296
0.13045866983361332 0.36639179870500327 0.19671133548185754
0.1426707972807416 0.334801396578691 0.17853477984831262
0.13443456786103336 0.366004964560411 0.18917462617323327
0.1519905795378217 0.3499204127491927 0.14717612058088708
0.1252126266283521 0.34047528192415 0.20057055741712976
0.15290980236954776 0.34246649429216147 0.1874255874769442
0.13686429160065738 0.3382007090748763 0.15487590819761682
0.1440669168753156 0.3582422940434432 0.16895535975859094
0.18328820364899723 0.3413498608769393 0.1516536811010592
0.14545653956360904 0.3365559785069442 0.1674879530088656
0.15092085497803776 0.33942278310670615 0.16357502728865075
0.18062685625977604 0.3430678455533004 0.15991083175108362
0.17145936387009708 0.36651100799455405 0.16156331092283654
0.17060302393860904 0.36613049194230796 0.1711616852895968
0.13755206959672062 0.35899980947389365 0.20827356368467737
0.16350726979203312 0.33839007303132773 0.16616562396452356
0.17666463749833194 0.3425477950276351 0.16372439652845788
0.1419929136557111 0.3446191756428695 0.1551421621458285
0.178416596822215 0.361213704794786 0.13735941440031457
0.14712266819901554 0.3307649104298568 0.16428617030546594
0.16250179903931705 0.3250171749295211 0.14642128735945154
0.12305559413857549 0.34037347719087363 0.20214125901625085
0.17034749882645694 0.34727205917253257 0.18067101031706262
0.15758137600846378 0.3570857851208663 0.15253010779783654
0.18885134356446354 0.3628366796673751 0.1266387441770785
0.1447402109426984 0.3475321142376876 0.19965359956190515
0.1293988098425397 0.33338006421937705 0.15040794402525354
0.17263941662736026 0.3468101231755233 0.17652425557539392
0.1461050380987653 0.28679182216539145 0.15198812276289392
0.16250197785325138 0.2845164148510909 0.13470948130056787
0.1832206715864667 0.36098309442415 0.12990367800161767
0.15557448761887638 0.3597858159245467 0.19611695796415735
0.160702334813548 0.3657704798878646 0.1844915488378756
0.12304286854691594 0.34558608219041587 0.16717926055357385
0.13073106306023685 0.3537061421574569 0.21315792590544153
0.13561748164124576 0.34238400146379233 0.1955578067915194
0.1974777449888715 0.34505542203798056 0.14647385865614343
0.1396307219786176 0.32743497774019004 0.17095467835829187
0.20315210717148868 0.3518394438923812 0.14700368434355188
0.12408738034195989 0.35096909686937094 0.1745743492262118
0.1228426565451154 0.2956374494732833 0.16982970029280114
0.1695115436834821 0.3659922687710738 0.17468801528379846
0.12424577968545049 0.31929042026414634 0.17573598414823938
0.15836863415665714 0.32444693729295493 0.15095726043150354
0.19266675608582584 0.3615980355442977 0.1574653127805941
0.1396057476324567 0.3415422050656295 0.19300994664595056
0.14540617363877384 0.341144284457109 0.1666196325437777
0.18698345320649234 0.3609624712170577 0.1648399570600741
0.1389498581213483 0.3636273948849654 0.1811074951307528
0.14334087269730655 0.3411774842442489 0.190962229074692
0.1718308796209821 0.3664270846547103 0.16950342446730066
0.15625946419663517 0.3048604933918929 0.1414653995649569
0.16033308403916446 0.36252166911973716 0.15888569146559167
0.12212242381997197 0.3583261577786422 0.21769586593077112
0.18357925312943546 0.35582520648851157 0.16897526770994592
0.14784400361008732 0.3587722389401412 0.20131394654676843
0.17511157887406437 0.3356276361645675 0.14525851994917321
0.1408109535498151 0.35153438732042075 0.16579696923658777
0.14619903462357609 0.36448987409486533 0.19782832652494836
0.15922580855317203 0.3270018307866073 0.15231475621626306
0.14621804850525943 0.3253741471470809 0.1560508945600741
0.1418931354803571 0.3434444276989913 0.1539292076246493
0.16713337796158878 0.36595686361207724 0.16044602185652185
0.16399155753083317 0.3425765840710616 0.1766565182821505
0.1798642148298749 0.3534639088810897 0.1737796404974215
0.14803479807801334 0.3282339183987594 0.16021487504408288
0.143837260178996 0.3658148257435775 0.19667950660154748
0.15657846825547306 0.35993739053621054 0.15938637048170495
0.12122176783509343 0.343343397826097 0.16672948390409875
0.12984504001565067 0.29705443069352866 0.16549685985014367
0.13242511647172062 0.3636000363530135 0.20909563094541955
0.15195147889084903 0.30091854020967246 0.14533183366224695
0.18736200230546085 0.3566832153500533 0.16596916705534387
0.1579329838079938 0.3331944553555465 0.16026118785307336
0.12803758876748172 0.3419941870869613 0.2016421893255465
0.13876776593155948 0.33834787294282676 0.15583923846647668
0.14192031519837467 0.339149495810411 0.149025771917557
0.1675281395239362 0.3359429447354293 0.1558133104459994
0.13845120566315738 0.30575098678483725 0.15755042821333337
0.1439300646109113 0.35429575130357505 0.20422974616453576
0.14270268576569645 0.36156084224595786 0.20367393285200525
0.1682004799170026 0.3213821856678939 0.13139444977209497
0.1443696488661298 0.3345204798878646 0.17455771953031946
0.1227314938826093 0.3464574424923873 0.18568644315168786
0.13102556961007206 0.3375300972165084 0.18669596702024865
0.15734146731324283 0.3671047298611617 0.1830656865255587
0.13494749563164798 0.3549143879116988 0.17032841235563684
0.1275069584173688 0.367344817370317 0.20289031058714319
0.12515430348343937 0.3238255588711715 0.17784765750334192
0.14950810568757145 0.31580551549806357 0.1513141134397738
0.16377411978669254 0.34621944114579917 0.18457904845640588
0.16275881426758854 0.3609527556599593 0.190202210249161
0.1666341294569501 0.3559102027119613 0.18823048859999109
0.17369876997895328 0.3669730632008529 0.15762862950727868
0.12677632468171207 0.3320127336682296 0.1827496626989596
0.13670556443162052 0.3414191214741683 0.1938771942274325
0.12579472558922855 0.3596407978238082 0.18693450480863977
0.13835518258042423 0.3022694794835067 0.15810826808378625
0.16816954510636417 0.36412866994752646 0.18019482880995202
0.12309433715767949 0.3666464893521285 0.19934741050169397
0.13536851304001896 0.33507837936296225 0.1471150258199923
0.15155999558396427 0.3433337418736434 0.190629992784714
0.1250677575392255 0.3328490464390731 0.1844807007925265
0.17314373152680484 0.3482712714375472 0.17914984017774988
0.17765723364777652 0.339658996313951 0.1522797682897799
0.13520623939461796 0.3670448867978072 0.1949872115270846
0.1519890894217023 0.36212541744127036 0.19668135434553552
0.12274955408997625 0.3505521027745223 0.17576608449385095
0.1292692591471204 0.3233432976902938 0.14394304543898034
0.1616067756933698 0.3392952291668868 0.1701151469366305
0.1642547716421613 0.3640002219380355 0.18532672912046838
0.13407315509743778 0.2925091592968917 0.161363635362839
0.14800684349961368 0.33191039249315024 0.1631833055631869
0.1489489545149335 0.3037214486302352 0.14819518119261194
0.12352909343667119 0.33231606170549155 0.18524292498991418
0.13906680243439762 0.3400005905331588 0.18967959672377038
0.12462012665696233 0.30921860620393515 0.14279666930601526
0.12328387992806523 0.2894184200467086 0.16951844483778405
0.13099141614861576 0.3554446904362655 0.1743604877607577
0.16622947352356998 0.34702702447786093 0.12833959251806665
0.12606688039727298 0.3101928441227889 0.16944924384519983
0.12553371684975712 0.36599971935167075 0.1952771285192721
0.18292032378144352 0.3371505348385787 0.13958886653349328
0.12745996015496341 0.34552874252214194 0.18660971909925866
0.12146391170449346 0.3352385966481185 0.15655014306471277
0.12121953266091436 0.3492524830998397 0.2161070445196383
0.1537622679991254 0.35526528045549155 0.15447965651915002
0.17736344235367862 0.3427156417073226 0.16350940257475305
0.13626645701356022 0.3470658271016097 0.20443830281660486
0.13614992993302433 0.34331639692201377 0.19776001960203576
0.13074155347771732 0.3480652181805587 0.2102096417562716
0.15389560358948795 0.3525529710949874 0.19743022710249353
0.17177729504532901 0.29396375104799033 0.12140357881948877
0.16208212273545353 0.3533461897076583 0.19114306956694055
0.15965204136796085 0.3588991968335128 0.19352361947462488
0.1461433042807111 0.33524628564729453 0.16664961368009973
0.1274367739481458 0.36733235999955893 0.20291123181745935
0.15831588404603092 0.36162235423936606 0.19301513225004602
0.13322262661881534 0.34308250829591513 0.20074853688642907
0.2149327863974103 0.3634097783268905 0.12078503161833215
0.13535915511078922 0.3397760002316451 0.18950966388151574
0.1607735623640546 0.3427653519810653 0.18067673236296106
0.1401015390676984 0.32615800783052207 0.16269216329023767
0.1321509649080762 0.35947116300477744 0.2120160201208346
0.12436084645218938 0.35001917764558554 0.21521762401029992
0.14441316025681583 0.36068161413087607 0.1720423439161532
0.13524399893708317 0.33044960185899497 0.17843500167295862
0.1556926240248212 0.33574076578035117 0.162295613588547
0.1333895792288312 0.3133068291844344 0.16533318549559045
0.13351284163422672 0.34793599531068564 0.20736477166578698
0.1557814945501813 0.2889896838368392 0.14178494006559778
0.1370202173513898 0.3521021811665511 0.20745882779524255
0.12779705422349064 0.35591509029283286 0.21496513873503137
0.126083331279231 0.3596136181057906 0.21548274547026086
0.13518549697823612 0.3505801765622115 0.2089351752416842
0.14442478316254703 0.35291763231172324 0.20326719075605798
0.13043420212693302 0.3001196591557479 0.16511163503096032
0.14129112856812565 0.34823097869767905 0.20336363107130456
0.13179610865540592 0.30433340951814414 0.1638522484915011
0.12528069513268558 0.3431707231701827 0.19169399529859948
0.12406437294907659 0.34232266828431845 0.19131240636274743
0.12592427628464786 0.3415959088505721 0.20250967532560754
0.1468354930204877 0.3290621845425582 0.16287091761991906
0.17367802756257145 0.3615842668713546 0.17735860139295984
0.13883887427277652 0.36179824754609824 0.20615074426100183
0.1266026069445142 0.34213807269944907 0.19432691127226281
0.13581054108567325 0.36331953689470053 0.2063871958868258
0.12362541454262822 0.34694322034730674 0.18369004517958093
0.17593948738999454 0.3153488843144393 0.12143355995581079
0.12463985579438298 0.3619155494870162 0.19075283795759607
0.18958936827607242 0.36597021505250693 0.1356910207884066
0.1668932904524335 0.36351015254869223 0.1825856903211825
0.1404699553770551 0.34853424713029624 0.15904733926222253
0.14813260930008976 0.29398210927858115 0.14897266417906213
0.17594723599381534 0.3444926945866561 0.16846052199766565
0.1400273908895978 0.32856937333955527 0.17199990540907312
0.13244773643441288 0.3476224152745223 0.16206488400862146
0.1551740636152753 0.33950932905092 0.17760154992506433
0.13919989960618107 0.33266963645829917 0.1548521855489962
0.12589933174080936 0.3311817257107711 0.18291542321607995
0.13310276167817203 0.3546080796421981 0.21235713750288415
0.1788227428717145 0.3585085479916549 0.13036045819685388
0.14813535111374942 0.33898492738618613 0.16581485063002038
0.12970735328621952 0.35886271879091025 0.18044737368986535
0.18256955044694034 0.3393889872731185 0.14695451051161218
0.14030413525528995 0.32066847965135337 0.15520736962721277
0.1256231536192426 0.28157236263170005 0.14085957795545984
0.17350749867386905 0.353586158007524 0.18091890603468347
0.14062820570893375 0.3667109815777755 0.194744024576401
0.15722809927888004 0.36670186206712485 0.1809815505163424
0.1768703927320966 0.36678131505861045 0.16364160567686487
0.1432579030317792 0.35047694131746054 0.20379785090849328
0.14119182722992984 0.3266973106564498 0.1629280188696139
0.15231786864228336 0.33432634755983115 0.12821719438002038
0.14522330658860294 0.34766395971193076 0.16572901994154382
0.17599110501237003 0.3471714465321517 0.1732809284345858
0.20332633154816715 0.3442909328640914 0.13559231549665857
0.17160450118012516 0.3646958677472091 0.1523567774908297
0.20120261805481998 0.34873398229493857 0.14657923966810632
0.12354250448174565 0.35156103059663535 0.18771276265547204
0.1470871438307294 0.3623909561337447 0.17251477033064294
0.1595175136847028 0.34992595598115683 0.1923265793936007
0.13447655933327762 0.3064885942639327 0.16102698832914758
0.14043973582215397 0.31193103477372885 0.15413758546278405
0.12251092689461797 0.31114943906678916 0.1717914083616488
0.16996120112366764 0.33832724973573447 0.14195695907041955
0.12671406763024418 0.3103701083363509 0.16917226106092859
0.1403095592779645 0.3450495807827926 0.15588412076399255
0.18443601029343692 0.3651509492100692 0.16111383229658532
0.1323832442087659 0.358788749426744 0.17767468482420373
0.12396054165787786 0.3197334615887618 0.17625096827909875
0.12394909756608098 0.3213814704121566 0.1772005298750155
0.15813099043793766 0.35411234781160117 0.19517311841413904
0.19876949685044376 0.3668576686085677 0.1378546693937533
0.1314180959982404 0.2869551984967208 0.16392913848326135
0.14824144738144962 0.34693523332490683 0.19777891427442956
0.12379925148911565 0.3657161800564742 0.21030298262998987
0.14457319872803776 0.3349186389149642 0.17293420821592737
0.13539727228112308 0.3007116524876571 0.16095927745268274
0.12349765198655217 0.3405995576085067 0.19624242574140954
0.18049632208771793 0.36697890445604087 0.15032580882475305
0.1549706329626569 0.3132053820790267 0.14593592673704553
0.13525013821549503 0.34445842191591025 0.15875205785200525
0.12668337123818485 0.3107515780629134 0.16945836335585046
0.1522344817442426 0.36271228477372885 0.17022183925077844
0.16356776850648014 0.35275360032930136 0.19037625581190515
0.12852795618004886 0.3433805315197921 0.19187483579084802
0.13090320127434818 0.34386166021241904 0.20395902186796594
0.17376940148301212 0.3441320268811202 0.17054495603010583
0.15381549494690983 0.3665082065762496 0.19036141425535608
0.12916957037873356 0.35393484517946006 0.17377785235807824
0.15144978659577457 0.36661102458848716 0.19124690085813928
0.14363418715424625 0.3329912631215072 0.17319396525785852
0.174466298989726 0.3437310068310714 0.1685444453375094
0.1362708677572736 0.3211333958806014 0.16704312354490686
0.14020244973130314 0.3315496055783248 0.1754387357847445
0.17600684063859073 0.36721118375673056 0.15883198768064904
0.14752851622529117 0.3399809210003829 0.16576311379835534
0.12190620797104924 0.3337779252232528 0.18809983521864343
0.1431988348288068 0.3564830033482528 0.16839126140043664
0.14453809159226505 0.36199637338533164 0.2016671636717074
0.19558064835496036 0.36491712018861533 0.12208891302511621
0.19592945473618595 0.35523941203965903 0.15680155545637536
0.13571624653763859 0.36062713548555136 0.1780792215482943
0.17448727982468692 0.3642993776501632 0.14944586545393396
0.17667280333466617 0.36468048974885703 0.14761147290632654
0.16430191891617862 0.3665029017628646 0.1699225643293612
0.14592789309449283 0.33538236305131675 0.17578587323591638
0.15567670958466617 0.3277790157498336 0.15635297089979577
0.19893233673997013 0.34126033470048667 0.13250831157133508
0.15103875296540348 0.35249735996141196 0.198933158220505
0.1255376507563123 0.29360260650529624 0.16838863879606653
0.15229098694748966 0.3667721955479598 0.180853221716141
0.15918533699936954 0.3376887051762557 0.16762861997053552
0.15145497219987003 0.35383649751558066 0.15920928508207727
0.12376992600388616 0.3643747179211593 0.19336262732908654
0.1434243191999921 0.3268937675656295 0.15735885888502527
0.20107476609177677 0.3673033325375533 0.1276845374719851
0.15231757061905948 0.3465121595562911 0.19523659736082483
0.12454773681588262 0.3372041194142318 0.1862579324857943
0.18169568674988834 0.36709811374559165 0.1561739185468905
0.160306142739726 0.3412844745816207 0.12660146147177148
0.134256200961543 0.36406626388444663 0.20698485165998864
0.17888300316758243 0.33794125005616904 0.1462104061262362
0.20240746634430973 0.3428493945301986 0.13187873751089502
0.1329434682650098 0.3627904264630294 0.18423983842298913
0.18460993664689151 0.3509896008671737 0.1672169306890719
0.14771382706589786 0.3371517269314742 0.17865041285917688
0.13072331445641605 0.3492570726574874 0.16484520226881433
0.1413837541861066 0.28106155082597495 0.15814558059141565
0.18461446659989444 0.34451802656068564 0.1591813305036776
0.1951080431265363 0.3397113291920638 0.13357714206144738
0.14252071278519718 0.2892413346470809 0.1541282871381991
0.14853315251298038 0.32180084869279624 0.1548062303678744
0.12203623550362676 0.28635754272355796 0.17080942183897424
0.1287695934099683 0.34403141424073935 0.1873197892324679
0.15623162882752506 0.35957141801728965 0.15920398026869226
