ply
format ascii 1.0
element vertex 136
property float x
property float y
property float z
element face 0
property list uchar int vertex_indices
end_header
0.1872329790554629 0.3129159977852081 0.1571070016669701
0.1872329790554629 0.29032202271806945 0.1571070016669701
0.15472001623731715 0.3129159977852081 0.1843884946155022
0.1800414998493777 0.29032202271806945 0.15107301486010058
0.15472001623731715 0.29032202271806945 0.1843884946155022
0.14752850722890956 0.29032202271806945 0.1783544780063103
0.14283496927839381 0.29032202271806945 0.1702244640635918
0.1872329790554629 0.3016190102516388 0.1571070016669701
0.15472001623731715 0.3016190102516388 0.1843884946155022
0.18049097847562892 0.3129159977852081 0.15144974601740344
0.16423452686887843 0.3129159977852081 0.1650904477881859
0.17097652744871242 0.3129159977852081 0.17074773324007494
0.15075049590688808 0.3129159977852081 0.153775966291375
0.15749243688207729 0.3129159977852081 0.15943328154558642
0.1479779560528384 0.3129159977852081 0.17873123896593554
0.16378498863798244 0.29032202271806945 0.16471374643320544
0.16018921923261745 0.29032202271806945 0.1616967381286095
0.18363720965009792 0.29032202271806945 0.15408996356005175
0.17097652744871242 0.29032202271806945 0.17074773324007494
0.16738069843870265 0.29032202271806945 0.16773078454012377
0.15112424683195216 0.29032202271806945 0.18137148631090624
0.1451817233524905 0.29032202271806945 0.17428950083727343
0.15784249496084315 0.29032202271806945 0.15763176095957263
0.18049097847562892 0.31580497531282653 0.15144974601740344
0.15075049590688808 0.3215829899727081 0.153775966291375
0.15749243688207729 0.3186940124450897 0.15943328154558642
0.1479779560528384 0.31580497531282653 0.17873123896593554
0.16423452686887843 0.31580497531282653 0.1650904477881859
0.1872329790554629 0.30726750401842345 0.1571070016669701
0.1872329790554629 0.2959705164848541 0.1571070016669701
0.17097652744871242 0.30726750401842345 0.17074773324007494
0.15472001623731715 0.30726750401842345 0.1843884946155022
0.17097652744871242 0.3016190102516388 0.17074773324007494
0.15472001623731715 0.2959705164848541 0.1843884946155022
0.17097652744871242 0.2959705164848541 0.17074773324007494
0.1838620383701907 0.3129159977852081 0.15427837384218676
0.17573375296217067 0.3129159977852081 0.1610986949252556
0.17910475325208766 0.3129159977852081 0.16392732275003893
0.16899175238233669 0.3129159977852081 0.15544149888033373
0.17236275267225368 0.3129159977852081 0.15827012670511706
0.1594772715530978 0.3129159977852081 0.17473945630068285
0.1628482420406924 0.3129159977852081 0.17756811392778857
0.16760546755415065 0.3129159977852081 0.16791910541529162
0.1656207520924197 0.3129159977852081 0.1526128710555504
0.14599324059110744 0.3129159977852081 0.16342500460619433
0.14936424088102443 0.3129159977852081 0.16625363243097765
0.15412146639448268 0.3129159977852081 0.1566046537208031
0.1446069855652438 0.3129159977852081 0.1759026409434746
0.14659170102697475 0.3129159977852081 0.19120881569857104
0.1513489563427554 0.3129159977852081 0.18155989659304125
0.14322073053938014 0.3129159977852081 0.1883802176761101
0.16086352657896144 0.3129159977852081 0.16226190937036974
0.15273521136861903 0.3129159977852081 0.1690822304534386
0.15610618185621364 0.3129159977852081 0.17191085827822192
0.1437931437454806 0.3129159977852081 0.15961415184015734
0.1683174450359927 0.29032202271806945 0.15487635744089587
0.16651959013563258 0.29032202271806945 0.15336788309092028
0.17191321444135768 0.29032202271806945 0.15789336574549181
0.17011535954099757 0.29032202271806945 0.15638486159319384
0.1556567330322848 0.29032202271806945 0.17153415692324145
0.15385890793424709 0.29032202271806945 0.1700255931662987
0.16198713373762233 0.29032202271806945 0.16320527208322985
0.18183941435438258 0.29032202271806945 0.15258151901239855
0.17550898384672267 0.29032202271806945 0.16091037405008776
0.17371112894636256 0.29032202271806945 0.1594018698977898
0.18543506455045802 0.29032202271806945 0.15559846771234973
0.17910475325208766 0.29032202271806945 0.16392732275003893
0.17730683874708278 0.29032202271806945 0.16241887820238574
0.1628482420406924 0.29032202271806945 0.17756811392778857
0.16105032753568752 0.29032202271806945 0.17605963957781298
0.16917861294370753 0.29032202271806945 0.16923922908777697
0.14659170102697475 0.29032202271806945 0.19120881569857104
0.14479384612661464 0.29032202271806945 0.18970034134859545
0.15292210173231227 0.29032202271806945 0.18287996066088183
0.14932636212926967 0.29032202271806945 0.17986301196093066
0.14299602102857692 0.29032202271806945 0.18819186699861987
0.16558290314298732 0.29032202271806945 0.1662222505855034
0.1592525024376498 0.29032202271806945 0.17455110562319262
0.1574545879326449 0.29032202271806945 0.17304263127321703
0.1590158719978915 0.29032202271806945 0.15966421974176867
0.16534627270322902 0.29032202271806945 0.15133536470407946
0.14635513019186122 0.29032202271806945 0.17632201922411425
0.15268550109487636 0.29032202271806945 0.16799313438410265
0.14400840592008693 0.29032202271806945 0.1722569824504326
0.1503386874161349 0.29032202271806945 0.1639281274127434
0.15151209425550563 0.29032202271806945 0.16596061599726183
0.1838620383701907 0.31436045674669494 0.15427837384218676
0.14599324059110744 0.3201385310112213 0.16342500460619433
0.14936424088102443 0.3186940124450897 0.16625363243097765
0.15412146639448268 0.3201385310112213 0.1566046537208031
0.1656207520924197 0.3186940124450897 0.1526128710555504
0.1446069855652438 0.3172494938789581 0.1759026409434746
0.1513489563427554 0.31436045674669494 0.18155989659304125
0.14322073053938014 0.31436045674669494 0.1883802176761101
0.16760546755415065 0.31436045674669494 0.16791910541529162
0.1594772715530978 0.31436045674669494 0.17473945630068285
0.17573375296217067 0.31436045674669494 0.1610986949252556
0.16899175238233669 0.3172494938789581 0.15544149888033373
0.17236275267225368 0.31580497531282653 0.15827012670511706
0.15273521136861903 0.3172494938789581 0.1690822304534386
0.15610618185621364 0.31580497531282653 0.17191085827822192
0.16086352657896144 0.3172494938789581 0.16226190937036974
0.1872329790554629 0.3100917509018158 0.1571070016669701
0.1872329790554629 0.3044432571350311 0.1571070016669701
0.1872329790554629 0.29879476336824645 0.1571070016669701
0.1872329790554629 0.2931462696014618 0.1571070016669701
0.1437931437454806 0.3215829899727081 0.15961415184015734
0.14659170102697475 0.29879476336824645 0.19120881569857104
0.14659170102697475 0.3016190102516388 0.19120881569857104
0.1628482420406924 0.3044432571350311 0.17756811392778857
0.1628482420406924 0.30726750401842345 0.17756811392778857
0.15472001623731715 0.3044432571350311 0.1843884946155022
0.17910475325208766 0.3100917509018158 0.16392732275003893
0.17097652744871242 0.3100917509018158 0.17074773324007494
0.15472001623731715 0.3100917509018158 0.1843884946155022
0.1628482420406924 0.3100917509018158 0.17756811392778857
0.14659170102697475 0.3100917509018158 0.19120881569857104
0.14659170102697475 0.3044432571350311 0.19120881569857104
0.14659170102697475 0.30726750401842345 0.19120881569857104
0.17910475325208766 0.30726750401842345 0.16392732275003893
0.1628482420406924 0.3016190102516388 0.17756811392778857
0.17097652744871242 0.3044432571350311 0.17074773324007494
0.17910475325208766 0.3016190102516388 0.16392732275003893
0.17910475325208766 0.3044432571350311 0.16392732275003893
0.14659170102697475 0.2959705164848541 0.19120881569857104
0.15472001623731715 0.29879476336824645 0.1843884946155022
0.15472001623731715 0.2931462696014618 0.1843884946155022
0.14659170102697475 0.2931462696014618 0.19120881569857104
0.17097652744871242 0.2931462696014618 0.17074773324007494
0.1628482420406924 0.2931462696014618 0.17756811392778857
0.17910475325208766 0.2931462696014618 0.16392732275003893
0.17910475325208766 0.29879476336824645 0.16392732275003893
0.17910475325208766 0.2959705164848541 0.16392732275003893
0.1628482420406924 0.29879476336824645 0.17756811392778857
0.1628482420406924 0.2959705164848541 0.17756811392778857
0.17097652744871242 0.29879476336824645 0.17074773324007494
