ply
format ascii 1.0
element vertex 589
property float x
property float y
property float z
element face 0
property list uchar int vertex_indices
end_header
0.13887796592336757 0.20133801011430968 0.14642495525354846
0.13887796592336757 0.21982802657472839 0.14642495525354846
0.13887796592336757 0.20133801011430968 0.14642495525354846
0.13887796592336757 0.21982802657472839 0.14642495525354846
0.13887796592336757 0.2198289802490448 0.14642495525354846
0.13613197993856532 0.144839005750296 0.148570990686364
0.13582096290212733 0.14374001530992736 0.14881501210207446
0.13642597984891994 0.19579096345293273 0.14834195983881457
0.13491896581274135 0.14350994138109435 0.149519956235833
0.13429794501882655 0.14437099007951965 0.15000600231165392
0.13710603904348476 0.19812096862184753 0.1478110016631554
0.13795296144109828 0.1450489929138397 0.14714897287363513
0.13888398599248988 0.19915802983629455 0.1464199782657097
0.13841799687963588 0.14404101876604308 0.14678496730799181
0.13888398599248988 0.20133801011430968 0.1464199782657097
0.13887796592336757 0.14403404502260436 0.14642495525354846
0.1411960203610049 0.144839005750296 0.1438119770335625
0.14094901871305568 0.19579096345293273 0.1440909863757561
0.14145798277479274 0.14374001530992736 0.14351702344889147
0.14037696313482387 0.19812096862184753 0.1447359682368706
0.13966197561842067 0.1450489929138397 0.14554098856920702
0.13887796592336757 0.19915802983629455 0.14642495525354846
0.1392709989510165 0.14404101876604308 0.14598194373125536
0.13887796592336757 0.20133801011430968 0.14642495525354846
0.13888294291120631 0.14403404502260436 0.1464199782657097
0.12086457800489529 0.20133902339327087 0.14316252482408984
0.13887796592336757 0.21058298854219665 0.14642495525354846
0.13887796592336757 0.21058298854219665 0.14642495525354846
0.13887796592336757 0.26637245921480407 0.14642495525354846
0.13597647142034633 0.1442895105301117 0.14869297159189684
0.13627899479490382 0.17031504420625915 0.1484564603614281
0.13536999415975673 0.14362497834551086 0.14916751397127612
0.13460848521810634 0.143940465730307 0.14976299417490466
0.13642597984891994 0.14263190535890807 0.14834195983881457
0.13336498331647975 0.14403303174364318 0.15073550355905993
0.13676596474271877 0.14379699735033263 0.14807648075098498
0.13676596474271877 0.19695599583971252 0.14807648075098498
0.1371894855461703 0.17041994838106383 0.14774552596086962
0.1375295300446139 0.11842601208078612 0.14747995746607287
0.13799498271566493 0.19863946942674865 0.14711553466791613
0.13818547916036708 0.144544976037619 0.14696697009081347
0.13776198815923793 0.11792199520456542 0.14729795468325121
0.13888398599248988 0.20024796037065734 0.1464199782657097
0.1386480112038241 0.14403750209200133 0.14660496128077014
0.13799200248342616 0.11791847853052367 0.1471180082606743
0.13888094615560634 0.11843718795168151 0.1464224518584679
0.1410725195370303 0.17031504420625915 0.14395151150698168
0.14132697176557643 0.1442895105301117 0.1436644853400658
0.14183799218755824 0.14362497834551086 0.1430884958552788
0.14094901871305568 0.14263190535890807 0.1440909863757561
0.14066300582510097 0.14379699735033263 0.14441347730631335
0.14066300582510097 0.19695599583971252 0.14441347730631335
0.14001951408010585 0.11842601208078612 0.1451385082053612
0.1403054673634158 0.17041994838106383 0.14481592786783679
0.13962746452909572 0.19863946942674865 0.14558047664637072
0.13982404064756496 0.11792199520456542 0.14535898578638537
0.13946650218587978 0.144544976037619 0.14576149595255358
0.13887796592336757 0.20024796037065734 0.14642495525354846
0.13962996792417628 0.11791847853052367 0.14557800305361254
0.13907701563459499 0.14403750209200133 0.14620099080080493
0.13888046931844814 0.11843718795168151 0.1464224518584679
0.1334982891045199 0.20133902339327087 0.13256171954149706
0.13887796592336757 0.20596046952593078 0.14642495525354846
0.13887796592336757 0.21520544795381774 0.14642495525354846
0.13887796592336757 0.20596046952593078 0.14642495525354846
0.13887796592336757 0.21520544795381774 0.14642495525354846
0.13887796592336757 0.2431007793365692 0.14642495525354846
0.13613197993856532 0.11825950650560607 0.148570990686364
0.13528824638944728 0.12455232648241271 0.1492309929179619
0.1358987767658816 0.14401473311769714 0.14875397694582446
0.1351327080689059 0.12400283126222839 0.14935303342813952
0.1350549538097964 0.12372817305910339 0.14941397917742236
0.13605422567945583 0.14456428794252624 0.14863196623796923
0.13521049213033778 0.12427757887232055 0.14929199827188952
0.13620547246557338 0.1575769951759552 0.14851374042505724
0.1363524575195895 0.18305303363191833 0.14839923990244372
0.13514450978857143 0.1435674598633026 0.14934373510355456
0.1346039552651034 0.1236131062923645 0.14976645124430163
0.13437853049856288 0.12355561761247863 0.14994276178354723
0.13559547853094203 0.1436824968277191 0.1489912332343529
0.1348294992409335 0.12367062477457275 0.1495902301120232
0.13444421481710536 0.15742446688997497 0.14989045870775683
0.1345177669487582 0.17016245631563415 0.14983323824877245
0.1346647520027743 0.19563849477159728 0.14971873772615893
0.13459125947576625 0.18290044574129333 0.1497759581851433
0.13642597984891994 0.1426320841728424 0.14834195983881457
0.13445324492078883 0.1441557577072357 0.1498844982432793
0.1340679902992831 0.12398614196169128 0.15018568051332934
0.1339127500019656 0.1242014041362976 0.15030724418634875
0.13476375531774623 0.14372523335802306 0.14964149010653002
0.1342232305966006 0.12377087978708495 0.15006426585192187
0.1343717057667361 0.1961361935554718 0.14994797718996508
0.13642597984891994 0.1692114642082428 0.14834195983881457
0.13383147906881435 0.14420195130693664 0.15037078273767931
0.1334462244473086 0.12403236536371459 0.15067196500772936
0.13659603190046413 0.11663495210993041 0.14820925009722216
0.13659603190046413 0.16979398040163268 0.14820925009722216
0.13659603190046413 0.14321448115694274 0.14820925009722216
0.13693598699194057 0.11780001429903258 0.1479436816024254
0.13676596474271877 0.1172174683033203 0.14807648075098498
0.13659603190046413 0.19637347964632262 0.14820925009722216
0.13693598699194057 0.19753845242845763 0.1479436816024254
0.13680771779638393 0.18310554532396545 0.1480437279986809
0.13697771024328334 0.15710850266802062 0.14791095865244372
0.13757128309827907 0.15773453025209655 0.14744726431841357
0.1377412159405337 0.1317375173984741 0.14731449497217639
0.13735947799306972 0.14442296532976379 0.14761272681231005
0.13714773249250514 0.13111148981439819 0.1477782489108513
0.13755051087957484 0.1983801892219757 0.14746326816553576
0.13843945455175502 0.1988987496315216 0.14676774156565173
0.13806927990537746 0.14479698447572936 0.1470579863833855
0.1378574748001681 0.13148547915804137 0.14722344887728198
0.1383017082176791 0.14429296759950866 0.14687598360056384
0.1380899925194369 0.13098146228182067 0.1470415056991051
0.1379737336598025 0.13123347071993102 0.14713249218935473
0.13764572929960353 0.11817403344499816 0.14738897097582324
0.13888398599248988 0.2007929852424835 0.1464199782657097
0.13888398599248988 0.19970299510347594 0.1464199782657097
0.13853300404173 0.14403923062669982 0.14669499409670336
0.13820494007688625 0.13097973374712218 0.14695147288317187
0.13876295876127345 0.14403571395265807 0.14651498806948168
0.13843498420339687 0.13097621707308044 0.1467714668559502
0.13831994723898036 0.13097794560777892 0.14686146986956103
0.13787699532133205 0.11792020706522216 0.14720798147196276
0.13887948584180934 0.13123558668482055 0.14642373335833056
0.13843647431951625 0.11817784814226379 0.1467702151584099
0.1411960203610049 0.11825950650560607 0.1438119770335625
0.14190674614530666 0.12455232648241271 0.1430107415961693
0.1410107393227206 0.18305303363191833 0.1440212191390465
0.1411342401466952 0.1575769951759552 0.1438817442702721
0.14126149606329066 0.14456428794252624 0.14373824608797534
0.1419722516499148 0.12427757887232055 0.14293698084825976
0.14139250707250697 0.14401473311769714 0.14359072459215624
0.14203775715452296 0.12400283126222839 0.1428632499026726
0.14094901871305568 0.1426320841728424 0.1440909863757561
0.14164800238233669 0.1436824968277191 0.14330274475092394
0.1420280117951022 0.1435674598633026 0.14287421715731127
0.14094901871305568 0.1692114642082428 0.1440909863757561
0.1405200142822848 0.11780001429903258 0.14457473767275317
0.14066300582510097 0.1172174683033203 0.14441347730631335
0.14080596756559474 0.16979398040163268 0.14425224674219592
0.14080596756559474 0.14321448115694274 0.14425224674219592
0.14080596756559474 0.11663495210993041 0.14425224674219592
0.1405200142822848 0.19753845242845763 0.14457473767275317
0.14080596756559474 0.19637347964632262 0.14425224674219592
0.14034123015028102 0.13111148981439819 0.14477599275583727
0.13984072994810207 0.1317375173984741 0.14533973348612292
0.13998375129324062 0.15773453025209655 0.1451784731196831
0.14016247582059962 0.14442296532976379 0.14497724783892138
0.14062721323591335 0.18310554532396545 0.14445350182528002
0.14048425149541957 0.15710850266802062 0.14461473238939745
0.13925275992971523 0.1988987496315216 0.1460027159499596
0.14000225853544337 0.1983801892219757 0.14515826714510424
0.1399217624626742 0.11817403344499816 0.14524874699587328
0.13954750489812953 0.13098146228182067 0.14567047965998156
0.13936875056844814 0.14429296759950866 0.14587173474306567
0.13964525651556117 0.13123347071993102 0.14556024086946948
0.13956422400098903 0.14479698447572936 0.1456512273597191
0.13974297833067043 0.13148547915804137 0.1454500020789574
0.13887796592336757 0.19970299510347594 0.14642495525354846
0.13887796592336757 0.2007929852424835 0.14642495525354846
0.13972697448354823 0.11792020706522216 0.14546847951883776
0.1392564852200137 0.13097621707308044 0.14599899065966113
0.13898000907522304 0.14403571395265807 0.1463105143355797
0.13935349177938564 0.13097794560777892 0.14588949692720873
0.13917399239164455 0.14403923062669982 0.14609149706835253
0.1394504387341128 0.13097973374712218 0.14577997339243395
0.1392552335224734 0.11817784814226379 0.1460002423572014
0.13888172101598842 0.13123558668482055 0.14642122996325
0.13981512975317104 0.13622512130129089 0.12726134670252306
0.13981512975317104 0.20133902339327087 0.12726134670252306
0.1334982891045199 0.13622512130129089 0.13256171954149706
0.1271814484558688 0.20133902339327087 0.13786215198511584
0.12086457800489529 0.13622512130129089 0.14316252482408984
0.1271814484558688 0.13622512130129089 0.13786215198511584
0.11454776715856656 0.20133902339327087 0.14846283805841906
0.11454776715856656 0.13622512130129089 0.14846283805841906
0.1340980012379275 0.20133801011430968 0.1499338806914757
0.14047250938039882 0.21982802657472839 0.14812160146707995
0.1340980012379275 0.21982802657472839 0.1499338806914757
0.14047250938039882 0.20133801011430968 0.14812160146707995
0.1340980012379275 0.20364923982012023 0.1499338806914757
0.1340980012379275 0.20596046952593078 0.1499338806914757
0.13887796592336757 0.20364923982012023 0.14642495525354846
0.1340980012379275 0.21058298854219665 0.1499338806914757
0.13887796592336757 0.2082717588363861 0.14642495525354846
0.1340980012379275 0.2082717588363861 0.1499338806914757
0.13887796592336757 0.21751673726427306 0.14642495525354846
0.1340980012379275 0.21751673726427306 0.1499338806914757
0.13887796592336757 0.2128942182480072 0.14642495525354846
0.1340980012379275 0.2128942182480072 0.1499338806914757
0.1340980012379275 0.21520544795381774 0.1499338806914757
0.1340980012379275 0.20133801011430968 0.1499338806914757
0.14047250938039882 0.20133801011430968 0.14812160146707995
0.1340980012379275 0.21982802657472839 0.1499338806914757
0.14047250938039882 0.21982802657472839 0.14812160146707995
0.1340980012379275 0.21751673726427306 0.1499338806914757
0.1340980012379275 0.20364923982012023 0.1499338806914757
0.13887796592336757 0.20364923982012023 0.14642495525354846
0.1340980012379275 0.2082717588363861 0.1499338806914757
0.13887796592336757 0.2082717588363861 0.14642495525354846
0.1340980012379275 0.20596046952593078 0.1499338806914757
0.13887796592336757 0.21751673726427306 0.14642495525354846
0.1340980012379275 0.21520544795381774 0.1499338806914757
0.13887796592336757 0.2128942182480072 0.14642495525354846
0.1340980012379275 0.21058298854219665 0.1499338806914757
0.1340980012379275 0.2128942182480072 0.1499338806914757
0.13887796592336757 0.25473661927568664 0.14642495525354846
0.13887796592336757 0.23146482018816222 0.14642495525354846
0.1340980012379275 0.26637245921480407 0.1499338806914757
0.1340980012379275 0.2198289802490448 0.1499338806914757
0.1340980012379275 0.23146482018816222 0.1499338806914757
0.1340980012379275 0.25473661927568664 0.1499338806914757
0.1340980012379275 0.2431007793365692 0.1499338806914757
0.13613197993856532 0.13154922632562865 0.148570990686364
0.1357101280651675 0.13469563631403197 0.14890096199984057
0.1357101280651675 0.12140594629633178 0.14890096199984057
0.1358598251305209 0.14387740401613464 0.14878452432627184
0.13547683548551662 0.13387145308840026 0.14908394825930102
0.13543797325712306 0.13373409418451537 0.14911446583742602
0.13593763899427516 0.1441521218239044 0.14872351897234423
0.1355546493492709 0.13414614109384765 0.1490229727076958
0.13551578712087733 0.13400884179460754 0.1490534902858208
0.13509384584051234 0.12386544255602111 0.14938346159929736
0.13601536345106227 0.14442689923631896 0.14866248381609423
0.135632373806058 0.1344208887039398 0.14896196735376818
0.13559348177534206 0.1342835894046997 0.14899248493189318
0.13609311771017177 0.14470161704408874 0.148601508264489
0.13567123603445155 0.13455833701479186 0.14893147957796557
0.13524935435873134 0.12441496757852782 0.14926148069376452
0.13517165970426662 0.12414021996843566 0.14932248604769213
0.13616872620206935 0.15120794085848083 0.14854232085222704
0.13620547246557338 0.11770777611124267 0.14851374042505724
0.1362422187290774 0.16394598988878478 0.14848513019556506
0.13627899479490382 0.13044576553690185 0.1484564603614281
0.1362422187290774 0.12407671121942748 0.14848513019556506
0.13631571125608546 0.17668397931444396 0.1484278501319359
0.1363524575195895 0.14318378476488341 0.14839923990244372
0.13631571125608546 0.13681473044740905 0.1484278501319359
0.1363892633877383 0.18942202834474792 0.14837059987062914
0.13642597984891994 0.1559217741905426 0.14834195983881457
0.1363892633877383 0.14955271987306823 0.14837059987062914
0.13503176760297878 0.14353873042452087 0.14943189037317736
0.13476152014356715 0.13356153873789062 0.1496432484435509
0.1346487779579745 0.1335327794967865 0.14973131430620654
0.1352571923695193 0.14359618930208434 0.14925557983393176
0.13498700451475246 0.13361902741777648 0.14946702731127245
0.13487420272451503 0.13359029797899474 0.1495550931739281
0.13449121307951076 0.12358437685358276 0.14985460651392443
0.13548273634534938 0.14365376738893737 0.14907935870165331
0.13521248888593776 0.13367657570230712 0.14929071677202685
0.1350997467003451 0.1336477866588806 0.14937887204164965
0.13570828032117946 0.14371128587114562 0.14890310776705248
0.1353252906761752 0.13370533494341125 0.14920262110704882
0.13494221162420375 0.12369941381799926 0.14950210464472277
0.13471675705534084 0.12364186553346862 0.149678385381646
0.13528812718015773 0.15113176612245788 0.14923072469706042
0.13532490324598415 0.1575007012306427 0.14920214426989062
0.13360036205869777 0.16371722726213683 0.15055025232309802
0.13363713812452419 0.17008622197496642 0.15052164209360583
0.13448099088293178 0.16379346160280456 0.14986190808290942
0.13539836597066982 0.17023875026094665 0.14914486420626147
0.1353616197071658 0.16386969594347228 0.14917350423807604
0.1337840933762179 0.19556226043092956 0.15040711176866992
0.13462800573927028 0.1892695000587677 0.1497473777579735
0.13374734711271388 0.1891932061134552 0.15043578160280688
0.13554535102468593 0.195714729112265 0.14903033388132556
0.1355085749588595 0.1893457940040802 0.14905897391314013
0.13543511223417384 0.176607804578421 0.1491161943721245
0.13547185849767787 0.18297673968660583 0.1490876437472771
0.13367385458570583 0.176455216687796 0.15049297225946887
0.13371057104688747 0.18282427100527038 0.15046436202997668
0.1345545430145846 0.1765315106331085 0.14980459821695788
0.13642597984891994 0.16921152381288757 0.14834195983881457
0.13642597984891994 0.12934227494585265 0.14834195983881457
0.1343756098709689 0.1442633440910553 0.1499452353763054
0.13418293785673244 0.13417856602060546 0.15009585631365283
0.13410536241155727 0.13428618220674743 0.15015659344667895
0.1345308501682864 0.14404811171877135 0.14982373130793078
0.1343382675610171 0.13396330384599914 0.1499743522452782
0.13426060270887477 0.1340709498344635 0.1500351489829491
0.13399035524946315 0.12409375814783324 0.15024647725100024
0.1346860904656039 0.14383287934648742 0.14970222723955615
0.13449347805601222 0.13374804167139281 0.14985287797922595
0.13441584300619228 0.13385568765985717 0.14991361511225207
0.13484139036756618 0.1436175873695587 0.1495807231711815
0.13457111310583217 0.13364042548525085 0.14979211104387744
0.13430086564642055 0.1236632337986206 0.15000346911425097
0.13414562534910304 0.12387849597322692 0.1501249731826256
0.13334459852796657 0.1963088682113861 0.15075100076670153
0.13349110674482448 0.19606001881944884 0.15063638103479846
0.1353988726101504 0.19596357850420226 0.14914495361322863
0.13451818418127162 0.1958874037681793 0.149833357458062
0.1336376149616824 0.1958111098228668 0.150521731500573
0.13642597984891994 0.12934227494585265 0.14834195983881457
0.13642597984891994 0.18250121383058776 0.14834195983881457
0.13642597984891994 0.1559217741905426 0.14834195983881457
0.13642597984891994 0.15592165498125304 0.14834195983881457
0.13642597984891994 0.12934221534120788 0.14834195983881457
0.13642597984891994 0.14263196496355285 0.14834195983881457
0.13642597984891994 0.1293421855388855 0.14834195983881457
0.1331723411045657 0.1339481642662262 0.15088615429872973
0.13359827589613063 0.1441174915252899 0.15055311334604723
0.13363889646154506 0.1341171732364868 0.15052134407038195
0.13340560388189418 0.1340326836525177 0.15070370448107226
0.13406474184614284 0.14428653029787292 0.15018839252466662
0.13387212943655116 0.13420163301813354 0.15033904326433642
0.1336794574223147 0.12411682514536132 0.15048957479471667
0.1332129914723025 0.12394784597742309 0.15085435522074206
0.1332253892384158 0.19648434428560485 0.15084401381487353
0.13651097607236964 0.12963341383325805 0.14827564967150195
0.13651097607236964 0.15621300248491515 0.14827564967150195
0.13651097607236964 0.1429231932579254 0.14827564967150195
0.13651097607236964 0.1827925017296051 0.14827564967150195
0.13651097607236964 0.16950275210726012 0.14827564967150195
0.13668102812391383 0.15679551867830505 0.14814285052294238
0.13668102812391383 0.1435057094513153 0.14814285052294238
0.13659603190046413 0.1565042307792877 0.14820925009722216
0.13685099076849086 0.13079847602236022 0.1480100811767052
0.13685099076849086 0.11750872640001525 0.1480100811767052
0.13676596474271877 0.13050724772798766 0.14807648075098498
0.13659603190046413 0.12992470173227538 0.14820925009722216
0.13668102812391383 0.13021593002664794 0.14814285052294238
0.13668102812391383 0.11692618040430297 0.14814285052294238
0.13368082832914455 0.14744664935457458 0.15048820388788683
0.13344762515646083 0.14736212996828307 0.15067059410089953
0.13321436237913234 0.14727761058199157 0.15085298431391223
0.13331032585722072 0.19677563218462218 0.15077761424059374
0.13651097607236964 0.19608225135195007 0.14827564967150195
0.1334803779087649 0.19735814837801208 0.15064484489435656
0.13668102812391383 0.19666470794069518 0.14814285052294238
0.1333953816853152 0.19706686047899474 0.15071121466631396
0.13382039260488612 0.1985230615555023 0.15037936580652697
0.13702098321539027 0.19782974032747497 0.14787740123743517
0.13373533677679164 0.19823183326112975 0.15044573557848437
0.13685099076849086 0.19724722413408508 0.1480100811767052
0.13356537413221461 0.19764937667238464 0.15057844532007678
0.1336504001579867 0.1979406049667572 0.15051213515276415
0.1366168935261355 0.1894482543884491 0.14819285881990893
0.13670185994726283 0.17644973306047668 0.14812645924562914
0.13699860167127711 0.17676271705019225 0.14789459717745287
0.13708356809240443 0.16376419572221984 0.14782825720781786
0.1368927736244784 0.17010696439134826 0.14797732842440112
0.13687191199880702 0.15045275000917663 0.14799371970171435
0.13678685617071254 0.16345121173250426 0.14806011927599413
0.13738039922338588 0.1640772393165802 0.14759633553499682
0.1374653358421908 0.15107871798860778 0.14752996576303942
0.13727445196729762 0.1574214866577362 0.14767912638658984
0.1377620775662051 0.15139176158296813 0.14729813349718554
0.1378471035919772 0.13839324025499572 0.14723173392290576
0.137656219717084 0.14473600892412414 0.14738086474413378
0.1376353580914126 0.12508173493730773 0.14739722621912463
0.13744447421651942 0.13142447380411376 0.14754635704035265
0.1375503618679629 0.13808025626528014 0.14746356618875964
0.13723272871595485 0.11811299828874816 0.14771187913889391
0.13733861636739833 0.12476878074991454 0.1476290882873009
0.13695684861761195 0.13745422868120422 0.14792734992975695
0.13704184484106166 0.1244557073532318 0.14786100996012194
0.13716859411817653 0.1507657339988922 0.14776185763353808
0.13725359034162624 0.1377672126709198 0.14769548786158068
0.13706270646673305 0.1441099813400482 0.14784455907816393
0.13404262852293117 0.19865276126253356 0.15020546925539477
0.1373282749615298 0.198250608724234 0.1476371051120232
0.13448715996366603 0.1989120414673065 0.14985773575777514
0.1377727467976199 0.19850988892900695 0.14728937161440356
0.1342648644409762 0.19878234176027526 0.15003163230890734
0.1353761036358462 0.19943048266756286 0.1491622091578911
0.13866172027212245 0.19902838973390807 0.14659384501451952
0.13515386771780116 0.19930084256517638 0.14933616531366808
0.13821721863370998 0.19876910952913512 0.14694160831446154
0.13470939588171107 0.1990416219650482 0.1496838988112877
0.13493163179975612 0.1991712024627899 0.14950994265551074
0.1380110759697543 0.14492298869478454 0.14710346472734911
0.1379052181206332 0.13826723603594054 0.14718619597429736
0.13812736463171107 0.1446709802566742 0.14701250803942187
0.13802153658491237 0.1380152275978302 0.1470952392863701
0.1379633326492892 0.13814123181688537 0.1471407772349785
0.13769347262006862 0.12495570091593017 0.14735171807283862
0.1377993602715121 0.13161145357477416 0.14726898682589037
0.1382435936890231 0.14441897181856383 0.14692152154917223
0.138137735839902 0.13776321915971984 0.1470042229937981
0.138079621311246 0.13788922337877502 0.1470497311400841
0.13835988235097987 0.14416702298509826 0.1468305052566002
0.1382539946995364 0.13751127032625426 0.14691323650354846
0.138195850368558 0.13763721494066466 0.14695877445215685
0.13792599033933742 0.12445174364435424 0.14716974509233935
0.1378678758106814 0.12457771806108703 0.14721525323862536
0.1380318481884585 0.13110749630319823 0.14708698404306872
0.13770384382825954 0.1180479994236206 0.1473434926318596
0.13758761477094753 0.11830000786173095 0.14743450892443163
0.1379156191311465 0.1313594749389862 0.14717800033564074
0.13780970167738063 0.1247037222801422 0.14726076138491137
0.13775158714872462 0.12482969669687499 0.147306239728875
0.13888398599248988 0.2010654976783966 0.1464199782657097
0.1353761036358462 0.2010654976783966 0.1491622091578911
0.1353761036358462 0.20133801011430968 0.1491622091578911
0.13888398599248988 0.20052047280657043 0.1464199782657097
0.1353761036358462 0.20052047280657043 0.1491622091578911
0.1353761036358462 0.2007929852424835 0.1491622091578911
0.13888398599248988 0.19997550753938903 0.1464199782657097
0.1353761036358462 0.19997550753938903 0.1491622091578911
0.1353761036358462 0.20024796037065734 0.1491622091578911
0.13888398599248988 0.19943048266756286 0.1464199782657097
0.1353761036358462 0.19970299510347594 0.1491622091578911
0.13847551536184413 0.14404012469637145 0.14673999560350878
0.13831151318174464 0.13751031665193786 0.14686823499674304
0.13859049272161586 0.1440383365570282 0.14664996278757556
0.13842649054151637 0.13750858811723937 0.1467782319831322
0.1383690018616305 0.137509482186911 0.14682326329226
0.13798347901922328 0.124450879377005 0.14712471378321154
0.13814748119932277 0.13098059801447143 0.14699650419229968
0.1387054700813876 0.1440366080223297 0.1465599895762871
0.1385414977036105 0.13750685958254089 0.14668822896952136
0.13848400902372462 0.13750775365221252 0.14673323047632678
0.13882044744115932 0.14403481988298644 0.14646995676035388
0.1386565048657046 0.1375051310478424 0.14659822595591052
0.13859898638349635 0.13750596551286925 0.14664319766039355
0.13821346354108913 0.12444739250528564 0.14694470775598986
0.13815600466352565 0.12444822697031249 0.14698973906511767
0.138377495523511 0.13097708134042968 0.146816498165078
0.1379344840012179 0.11791934279787292 0.14716297996515734
0.1378194768391238 0.11792113093721618 0.14725298297876818
0.1382624585590945 0.13097886947977294 0.14690647137636645
0.1380984861813174 0.12444909123766174 0.1470347405719231
0.13804099750143153 0.12444998530733337 0.14707971227640612
0.13843578886610133 0.1245770624099945 0.14677087080950244
0.1382142384014712 0.11804817823755492 0.1469441117095421
0.13887874078374965 0.13763477115022887 0.1464243592071007
0.1386572499237643 0.1311059167801117 0.14659760010714037
0.13888026070219142 0.12483637241708984 0.1464231373118828
0.1386587102375613 0.11830748824465026 0.14659637821192248
0.13865802478414638 0.12470670251238097 0.14659697425837023
0.1411960203610049 0.13154922632562865 0.1438119770335625
0.1415513534508334 0.13469563631403197 0.1434113742160271
0.1415513534508334 0.12140594629633178 0.1434113742160271
0.14097986411672694 0.18942202834474792 0.14405605805391772
0.14097986411672694 0.14955271987306823 0.14405605805391772
0.14094901871305568 0.1559217741905426 0.1440909863757561
0.14104161452871425 0.17668397931444396 0.1439863802241753
0.14104161452871425 0.13681473044740905 0.1439863802241753
0.1410107393227206 0.14318378476488341 0.1440212191390465
0.14110336494070155 0.16394598988878478 0.1439166129874657
0.14110336494070155 0.12407671121942748 0.1439166129874657
0.1410725195370303 0.13044576553690185 0.14395151150698168
0.14116511535268886 0.15120794085848083 0.14384687555307848
0.1411342401466952 0.11770777611124267 0.1438817442702721
0.14193949889761073 0.12441496757852782 0.14297384632105334
0.14122877311330898 0.14470161704408874 0.14377511156076891
0.14158407640081508 0.13455833701479186 0.14337447894091113
0.14129424881559474 0.14442689923631896 0.14370135081285937
0.14164961170774562 0.1342835894046997 0.14330074799532397
0.14161685895544154 0.1344208887039398 0.14333761346811755
0.1413597543202029 0.1441521218239044 0.1436276496695946
0.1417150874100314 0.13400884179460754 0.14322698724741442
0.1416823644600497 0.13414614109384765 0.143263852720208
0.14142525982481105 0.14387740401613464 0.14355388892168505
0.14178062271696193 0.13373409418451537 0.14315322649950488
0.14174784016233546 0.13387145308840026 0.14319015157694323
0.14200503420454128 0.12414021996843566 0.14290011537546618
0.14169070911031825 0.195714729112265 0.14325476301187975
0.1417215843163119 0.1893457940040802 0.14321983469004138
0.14178339433294398 0.176607804578421 0.14315012705797656
0.14175251912695033 0.18297673968660583 0.14318496597284777
0.1419068951569186 0.15113176612245788 0.14301062238687975
0.14187601995092494 0.1575007012306427 0.14304546130175097
0.14181420993429286 0.17023875026094665 0.14311525834078295
0.14184508514028651 0.16386969594347228 0.14308033001894457
0.14094901871305568 0.16921152381288757 0.1440909863757561
0.14094901871305568 0.12934227494585265 0.1440909863757561
0.1415530521832095 0.14371128587114562 0.14340985429758532
0.1418756325207339 0.13370533494341125 0.1430460871505211
0.14174298238378627 0.14365376738893737 0.14319563520426257
0.1419705827198611 0.13367657570230712 0.14293897760385973
0.14193300199133022 0.14359618930208434 0.14298138630861743
0.1418141205273257 0.19596357850420226 0.14311558616632922
0.14094901871305568 0.1293421855388855 0.1440909863757561
0.14094901871305568 0.15592165498125304 0.1440909863757561
0.14094901871305568 0.14263196496355285 0.1440909863757561
0.14094901871305568 0.12934221534120788 0.1440909863757561
0.14094901871305568 0.18250121383058776 0.1440909863757561
0.14094901871305568 0.1559217741905426 0.1440909863757561
0.14094901871305568 0.12934227494585265 0.1440909863757561
0.1405914802513705 0.13079847602236022 0.14449412239069445
0.14066300582510097 0.13050724772798766 0.14441347730631335
0.1405914802513705 0.11750872640001525 0.14449412239069445
0.14073447179418666 0.15679551867830505 0.14433283222193224
0.14080596756559474 0.1565042307792877 0.14425224674219592
0.14073447179418666 0.1435057094513153 0.14433283222193224
0.1408775229416476 0.1827925017296051 0.1441716016578148
0.1408775229416476 0.16950275210726012 0.1441716016578148
0.1408775229416476 0.1429231932579254 0.1441716016578148
0.1408775229416476 0.15621300248491515 0.1441716016578148
0.1408775229416476 0.12963341383325805 0.1441716016578148
0.14073447179418666 0.13021593002664794 0.14433283222193224
0.14080596756559474 0.12992470173227538 0.14425224674219592
0.14073447179418666 0.11692618040430297 0.14433283222193224
0.14044851851087672 0.19782974032747497 0.14465535295481188
0.1405914802513705 0.19724722413408508 0.14449412239069445
0.1408775229416476 0.19608225135195007 0.1441716016578148
0.14073447179418666 0.19666470794069518 0.14433283222193224
0.14018035721403224 0.12476878074991454 0.14495722067827685
0.14026973437887294 0.11811299828874816 0.1448565782355736
0.1405021030865298 0.13745422868120422 0.14459470522875292
0.14043057751279933 0.1244557073532318 0.14467535031313403
0.13993010711294276 0.12508173493730773 0.14523912084574206
0.14000166248899562 0.13808025626528014 0.14515847576136096
0.14009098004919154 0.13142447380411376 0.1450578631209801
0.13975135278326137 0.13839324025499572 0.14544034612650378
0.13982284855466945 0.15139176158296813 0.14535976064676745
0.13991222571951015 0.14473600892412414 0.1452591182040642
0.1401446242294894 0.1640772393165802 0.14499724519724352
0.1402340013943301 0.1574214866577362 0.14489660275454028
0.14007312845808131 0.15107871798860778 0.14507780087465746
0.14046637010198695 0.17676271705019225 0.1446347297477196
0.14055574726682765 0.17010696439134826 0.14453411710733874
0.14039484452825648 0.16376419572221984 0.1447153748321007
0.14078808617216212 0.1894482543884491 0.14427224410051806
0.14071659040075404 0.17644973306047668 0.14435285938257678
0.14057362866026027 0.15045275000917663 0.1445141197490166
0.14064512443166835 0.16345121173250426 0.1444334746646355
0.14025185298544032 0.1377672126709198 0.14487660539621813
0.14032331895452602 0.1507657339988922 0.14479599011415942
0.14041269611936671 0.1441099813400482 0.14469534767145617
0.14183259796720607 0.19943048266756286 0.14309400928492053
0.1420199949703799 0.19930084256517638 0.1428828598308037
0.13906539272886378 0.19902838973390807 0.1462138654040764
0.13944012713056667 0.19876910952913512 0.14579162610048754
0.14018962573629482 0.198250608724234 0.14494711769098742
0.13981483172994716 0.19850988892900695 0.1453693569945763
0.139872856851636 0.1180479994236206 0.14530388129229052
0.13997060846906764 0.11830000786173095 0.14519364250177844
0.13968575787168605 0.12445174364435424 0.14551470292086108
0.13959638070684535 0.13110749630319823 0.14561534536356432
0.13973460387807948 0.12457771806108703 0.14545959842676623
0.13940922212225063 0.13751127032625426 0.14582622659677966
0.13931984495740993 0.14416702298509826 0.14592683923716052
0.13945812773328883 0.13763721494066466 0.1457711221026848
0.13941759657484157 0.14441897181856383 0.14581660044664843
0.13955587935072047 0.13788922337877502 0.14566088331217272
0.13950694393735988 0.13776321915971984 0.14571598780626757
0.1395153779945956 0.1446709802566742 0.14570636165613635
0.13965360116582973 0.13814123181688537 0.14555064452166064
0.13960478496175868 0.1380152275978302 0.14560577881807787
0.13961309980970485 0.14492298869478454 0.14559609306330187
0.13970244717222316 0.13826723603594054 0.14549545062059863
0.13988123130422694 0.12495570091593017 0.1452942551421593
0.13979185413938625 0.13161145357477416 0.14539489758486254
0.1397834796867953 0.1247037222801422 0.145404464130349
0.1396941025219546 0.1313594749389862 0.14550510657305224
0.13983235549551112 0.12482969669687499 0.14534935963625414
0.13887796592336757 0.19943048266756286 0.14642495525354846
0.14183259796720607 0.19970299510347594 0.14309400928492053
0.13887796592336757 0.19997550753938903 0.14642495525354846
0.14183259796720607 0.20024796037065734 0.14309400928492053
0.14183259796720607 0.19997550753938903 0.14309400928492053
0.13887796592336757 0.20052047280657043 0.14642495525354846
0.14183259796720607 0.2007929852424835 0.14309400928492053
0.14183259796720607 0.20052047280657043 0.14309400928492053
0.13887796592336757 0.2010654976783966 0.14642495525354846
0.14183259796720607 0.20133801011430968 0.14309400928492053
0.14183259796720607 0.2010654976783966 0.14309400928492053
0.13967845630270107 0.11791934279787292 0.14552319658274157
0.1397755224667178 0.11792113093721618 0.14541376245493395
0.13944325637441737 0.12444739250528564 0.14578846705431445
0.13930497359853847 0.13097708134042968 0.14594421399111254
0.13949177455526454 0.12444822697031249 0.14573374999041064
0.13906977367025478 0.1375051310478424 0.14620948446268542
0.13893146109205348 0.14403481988298644 0.14636523139948351
0.13911823224645717 0.13750596551286925 0.1461547673987816
0.1390285272560702 0.1440366080223297 0.14625570786470873
0.13921523880582912 0.13750775365221252 0.14604527366632922
0.13916672062498195 0.13750685958254089 0.14609999073023303
0.13912547421079738 0.1440383365570282 0.14614621413225634
0.13931224536520107 0.137509482186911 0.14593572032923205
0.1392637271843539 0.13750858811723937 0.14599043739313586
0.13922248077016933 0.14404012469637145 0.14603675020212634
0.13936076354604823 0.13751031665193786 0.14588100326532824
0.1396372098885165 0.124450879377005 0.14556950939173205
0.13949898671728236 0.13098059801447143 0.14572522652620776
0.13954020332914455 0.12444909123766174 0.14567897332186205
0.1394020099602328 0.13097886947977294 0.14583472025866015
0.1395887513123141 0.12444998530733337 0.14562425625795825
0.13906914782148463 0.1311059167801117 0.14621008050913317
0.13888234686475856 0.13763477115022887 0.14642063391680224
0.13944266032796962 0.11804817823755492 0.1457890631007622
0.13925588917356593 0.1245770624099945 0.14599958670610888
0.13906786632162196 0.11830748824465026 0.14621139181131823
0.13888109516721828 0.12483637241708984 0.14642182600969775
0.13906846236806972 0.12470670251238097 0.14621070635790331
