ply
format ascii 1.0
element vertex 357
property float x
property float y
property float z
element face 0
property list uchar int vertex_indices
end_header
0.1280540128226361 -0.3938890006196986 0.2016519819022321
0.14325403170538756 -0.39086498876934156 0.2016519819022321
0.12352403001738402 -0.3604829814088832 0.2016519819022321
0.11050104098273131 -0.32938899656658277 0.2016519819022321
0.0898726184840283 -0.30272399445896253 0.2016519819022321
0.06304781632376524 -0.28230597635631666 0.2016519819022321
0.03185283141089292 -0.26952900549297437 0.2016519819022321
-0.0015880267147937218 -0.26526000162487134 0.2016519819022321
0.1333890159602246 -0.37567399999027357 0.2016519819022321
0.12578900651884886 -0.3771859910142909 0.2016519819022321
0.13565396265936705 -0.3923769797933589 0.2016519819022321
0.15059106545401427 -0.388374498094369 0.2016519819022321
0.14072601990652892 -0.37318347951297864 0.2016519819022321
0.14767502741766783 -0.36975698729877576 0.2016519819022321
0.1541169782157025 -0.3654515053880702 0.2016519819022321
0.1534310479636273 -0.3447959925783168 0.2016519819022321
0.11701249079657408 -0.3449359740865718 0.2016519819022321
0.15595733122778746 -0.3122469987524043 0.2016519819022321
0.10018681483221861 -0.31605651041393384 0.2016519819022321
0.1465469499106488 -0.2871014680517207 0.2016519819022321
0.07646020250273558 -0.2925150003088008 0.2016519819022321
0.14705388741446349 -0.27937000056629285 0.2016519819022321
0.13145639495802733 -0.2729815151346217 0.2016519819022321
0.04745032386732908 -0.2759174909246455 0.2016519819022321
0.12381144361449095 -0.250594010556985 0.2016519819022321
0.10709102945280882 -0.24845949372177228 0.2016519819022321
0.015132417249210795 -0.26739450355892286 0.2016519819022321
-1.5000824847618416e-06 -0.24068949183349714 0.2016519819022321
0.13832150893164488 -0.38326947947864637 0.2016519819022321
0.13452150421095702 -0.3840255047929774 0.2016519819022321
0.1394539971823773 -0.3916209842813502 0.2016519819022321
0.1284565229888043 -0.3680784906995784 0.2016519819022321
0.12465648846579405 -0.36883448621158704 0.2016519819022321
0.12958904104185912 -0.37642999550228223 0.2016519819022321
0.12692152457190367 -0.38553749581699476 0.2016519819022321
0.13185398774100157 -0.39313300510768995 0.2016519819022321
0.13072152929259154 -0.3847815003049861 0.2016519819022321
0.13705747322989317 -0.3744287397516261 0.2016519819022321
0.13212501006079527 -0.3668332304609309 0.2016519819022321
0.14692251877737852 -0.3896197285306941 0.2016519819022321
0.14198999600363585 -0.3820242490423213 0.2016519819022321
0.15425955252600523 -0.38712923785572156 0.2016519819022321
0.14932702975226256 -0.3795337285650264 0.2016519819022321
0.14565848307562682 -0.38077898880367383 0.2016519819022321
0.14420049385977599 -0.3714702334058772 0.2016519819022321
0.13559951381636473 -0.3651199843538295 0.2016519819022321
0.1528015633101544 -0.37782048245792493 0.2016519819022321
0.15627603726340147 -0.3761072363508235 0.2016519819022321
0.15089600281668517 -0.367604246343423 0.2016519819022321
0.13882045941305968 -0.3629672433984767 0.2016519819022321
0.14173327879858824 -0.3604129757535945 0.2016519819022321
0.13847755389166685 -0.3526394869936 0.2016519819022321
0.12026827530814024 -0.3527094926488887 0.2016519819022321
0.1566867728705487 -0.3525694813383113 0.2016519819022321
0.13196598486853453 -0.3370924796712886 0.2016519819022321
0.1137567658896527 -0.3371624853265773 0.2016519819022321
0.1352217693801007 -0.3448659982336055 0.2016519819022321
0.1570297379965863 -0.362897237743188 0.2016519819022321
0.15598528580618712 -0.3418835010183345 0.2016519819022321
0.13452022271109434 -0.3341799881113063 0.2016519819022321
0.13667272524786803 -0.33095850607280836 0.2016519819022321
0.13838623957587096 -0.327484240735818 0.2016519819022321
0.1332291265006146 -0.32081799765949354 0.2016519819022321
0.10534389810515257 -0.3227227534902583 0.2016519819022321
0.1229149301524243 -0.3074855115068446 0.2016519819022321
0.09502970175696226 -0.309390237535287 0.2016519819022321
0.12807204322768065 -0.3141517247808467 0.2016519819022321
0.15720259146643492 -0.30857851168041334 0.2016519819022321
0.12416022019339415 -0.30381699463253126 0.2016519819022321
0.12491597728682372 -0.3000172581327449 0.2016519819022321
0.11820976929617735 -0.2949127461565028 0.2016519819022321
0.08316641049338194 -0.29761948248272047 0.2016519819022321
0.153253068494328 -0.2922059800279628 0.2016519819022321
0.10479735331488463 -0.2847037222040187 0.2016519819022321
0.06975399451208922 -0.2874104883325587 0.2016519819022321
0.11150356130553099 -0.28980823418026075 0.2016519819022321
0.14680038886023375 -0.283235749210168 0.2016519819022321
0.10505085186911436 -0.28083797356014356 0.2016519819022321
0.09725212054205748 -0.277643730844308 0.2016519819022321
0.055249025392063576 -0.2791117336404811 0.2016519819022321
0.1392551560874066 -0.2761757429492961 0.2016519819022321
0.08165459828329893 -0.27125526031379804 0.2016519819022321
0.03965153293562742 -0.27272324820880994 0.2016519819022321
0.08945335941267821 -0.2744494881284724 0.2016519819022321
0.12763391928625914 -0.26178776284580335 0.2016519819022321
0.07783212261153075 -0.2600615080249797 0.2016519819022321
0.06947191553068968 -0.2589942570579539 0.2016519819022321
0.02349259452772947 -0.2684617545259486 0.2016519819022321
0.1154512067313275 -0.24952674468879804 0.2016519819022321
0.052751501369007546 -0.2568597551239024 0.2016519819022321
0.00677221016836973 -0.2663272525918971 0.2016519819022321
0.061111738252171 -0.257926991189767 0.2016519819022321
-0.0007947186951556603 -0.25297473927860364 0.2016519819022321
0.10788427786780211 -0.23617423137550458 0.2016519819022321
0.05354477958632322 -0.24457447787647352 0.2016519819022321
-0.009939591122142355 -0.26639275809650526 0.2016519819022321
0.1110300322051129 -0.22487897237663373 0.2016519819022321
0.003144284057148417 -0.2293942328346263 0.2016519819022321
0.14078777031851622 -0.38706724902515516 0.2016519819022321
0.1388877530570111 -0.3874452318799983 0.2016519819022321
0.14135395483923766 -0.3912430014265071 0.2016519819022321
0.13585527734709593 -0.37947173973445997 0.2016519819022321
0.1339552898879132 -0.3798497225893031 0.2016519819022321
0.13642149167013976 -0.3836474921358119 0.2016519819022321
0.13508774833632323 -0.38820125719432935 0.2016519819022321
0.13755397992087218 -0.39199899693851575 0.2016519819022321
0.13698779540015074 -0.3878232445371638 0.2016519819022321
0.13092278437567564 -0.3718762304437648 0.2016519819022321
0.12902273731184813 -0.3722542431009303 0.2016519819022321
0.13148902850104185 -0.3760519828451167 0.2016519819022321
0.12599026160193297 -0.3642807211530696 0.2016519819022321
0.12409027414275023 -0.3646587338102351 0.2016519819022321
0.1265564759249768 -0.3684564735544215 0.2016519819022321
0.12522279219580504 -0.37301023861293897 0.2016519819022321
0.1276889939780316 -0.3768079783571254 0.2016519819022321
0.1271227498526654 -0.37263222595577344 0.2016519819022321
0.12635528044653746 -0.38136174341564283 0.2016519819022321
0.1288215120310864 -0.38515948315982923 0.2016519819022321
0.1282552381033978 -0.3809837307584773 0.2016519819022321
0.1274877388949475 -0.3897132482183467 0.2016519819022321
0.12995400028181883 -0.3935109879625331 0.2016519819022321
0.12938772635413023 -0.38933523556118116 0.2016519819022321
0.1337540348048291 -0.3927549924505244 0.2016519819022321
0.1331877608771405 -0.3885792400491725 0.2016519819022321
0.13128777341795775 -0.388957252706338 0.2016519819022321
0.13205524282408568 -0.38022773524646863 0.2016519819022321
0.13015525536490294 -0.38060574790363416 0.2016519819022321
0.13262151675177428 -0.38440348764782056 0.2016519819022321
0.1302907367224774 -0.36745586058025465 0.2016519819022321
0.12782453494025084 -0.36365812083606824 0.2016519819022321
0.13522325949622008 -0.37505136987094984 0.2016519819022321
0.13275699810934874 -0.37125360032444105 0.2016519819022321
0.13889174656821104 -0.3738061096323024 0.2016519819022321
0.13642554478598448 -0.3700083400857936 0.2016519819022321
0.1345912714476666 -0.3706309702051173 0.2016519819022321
0.14015572266531798 -0.38264684935932264 0.2016519819022321
0.13768952088309142 -0.37884910961513624 0.2016519819022321
0.14508824543906065 -0.39024235865001783 0.2016519819022321
0.1426220436568341 -0.3864446189058314 0.2016519819022321
0.1487567921156964 -0.38899709841137037 0.2016519819022321
0.14629053072882506 -0.38519935866718397 0.2016519819022321
0.1444562573905072 -0.3858219887865077 0.2016519819022321
0.15242527918768736 -0.3877518679750453 0.2016519819022321
0.14995901780081602 -0.3839540984285365 0.2016519819022321
0.14812474446249815 -0.38457672854786024 0.2016519819022321
0.15609376625967833 -0.38650660773639783 0.2016519819022321
0.153627504872807 -0.38270883818988904 0.2016519819022321
0.15179323153448912 -0.3833314683092128 0.2016519819022321
0.14502649502707335 -0.3763586189401637 0.2016519819022321
0.14319222168875548 -0.37698121925716505 0.2016519819022321
0.1474927564139447 -0.3801563586843501 0.2016519819022321
0.1395237346167645 -0.3782264794958125 0.2016519819022321
0.14382426934195372 -0.38140161892299757 0.2016519819022321
0.14135800795508238 -0.3776038493764888 0.2016519819022321
0.1338622470374188 -0.3659766223085414 0.2016519819022321
0.12956177191687437 -0.36280148288135633 0.2016519819022321
0.14246325688315245 -0.37232684155826673 0.2016519819022321
0.13816278176260802 -0.36915173193340406 0.2016519819022321
0.14593773083639952 -0.3706136252534877 0.2016519819022321
0.1416372557158551 -0.3674384858263026 0.2016519819022321
0.13990001873923155 -0.36829509397869215 0.2016519819022321
0.1510642667288861 -0.37867712041263685 0.2016519819022321
0.14676373200369688 -0.3755019809854518 0.2016519819022321
0.15536474184943053 -0.3818522300374995 0.2016519819022321
0.15710203843069884 -0.3809955920827876 0.2016519819022321
0.1537127395148358 -0.3720754887712489 0.2016519819022321
0.15197550253821226 -0.37293209692363843 0.2016519819022321
0.1485010285849652 -0.37464537283306226 0.2016519819022321
0.15453874068213316 -0.3769638743055354 0.2016519819022321
0.15023826556158873 -0.37378873487835035 0.2016519819022321
0.1372100015158734 -0.3640436138761531 0.2016519819022321
0.13117228941870543 -0.36172511240367994 0.2016519819022321
0.14928554491949889 -0.36868061682109937 0.2016519819022321
0.14324777321768614 -0.3663621153486262 0.2016519819022321
0.15250652031851622 -0.3665278758657466 0.2016519819022321
0.14646880822134825 -0.36420937439327344 0.2016519819022321
0.1448582907195172 -0.36528574487094984 0.2016519819022321
0.15532331662131163 -0.3709991182935725 0.2016519819022321
0.1569337745184979 -0.3699227478158961 0.2016519819022321
0.13262863950682494 -0.36044796368007764 0.2016519819022321
0.13100077705336424 -0.3565612342012416 0.2016519819022321
0.12189616756392332 -0.3565962519300471 0.2016519819022321
0.15083782868338438 -0.36037798782711133 0.2016519819022321
0.14921002583456847 -0.3564912285459529 0.2016519819022321
0.14010535674048277 -0.35652621647243604 0.2016519819022321
0.12774502234412047 -0.3487877454412471 0.2016519819022321
0.11864038305235716 -0.34882273336773023 0.2016519819022321
0.12937291459990355 -0.35267447492008314 0.2016519819022321
0.15505885081244322 -0.3486827518594752 0.2016519819022321
0.14269845681143614 -0.3409442510259639 0.2016519819022321
0.1335938771243176 -0.34097923895244703 0.2016519819022321
0.1443263788695416 -0.34483098050479993 0.2016519819022321
0.12123351292563292 -0.3332407381189357 0.2016519819022321
0.11212887363386961 -0.3332757558477412 0.2016519819022321
0.12286134557677122 -0.3371274974000941 0.2016519819022321
0.11538465814543578 -0.3410492446077357 0.2016519819022321
0.1261171300883374 -0.34490098616008863 0.2016519819022321
0.1244892378325543 -0.3410142268789302 0.2016519819022321
0.14758216338110777 -0.35260449906711683 0.2016519819022321
0.1459542413230023 -0.3487177397859584 0.2016519819022321
0.13684963183356139 -0.34875272771244153 0.2016519819022321
0.14027689890814635 -0.3616900946748744 0.2016519819022321
0.1555733581061444 -0.3641743566644679 0.2016519819022321
0.14792512850714537 -0.36293222566967115 0.2016519819022321
0.14938150839758726 -0.36165510674839124 0.2016519819022321
0.13324310378981444 -0.3356362487924586 0.2016519819022321
0.12251063184691283 -0.3317845072401057 0.2016519819022321
0.15470813708258482 -0.34333973189716444 0.2016519819022321
0.1439756651396832 -0.33948799034481153 0.2016519819022321
0.15726237492514464 -0.34042724033718214 0.2016519819022321
0.14652990298224303 -0.33657549878482923 0.2016519819022321
0.14525269465399596 -0.3380317296636592 0.2016519819022321
0.13559647397948119 -0.3325692619932185 0.2016519819022321
0.12358688311529967 -0.33017375131969556 0.2016519819022321
0.14760612444830748 -0.3349647428644191 0.2016519819022321
0.14975862698508116 -0.33174326082592115 0.2016519819022321
0.1486824055190167 -0.3333540167463313 0.2016519819022321
0.12444361047697874 -0.3284366335523616 0.2016519819022321
0.12186508374167296 -0.32510348221187696 0.2016519819022321
0.10792245464278075 -0.32605587502842054 0.2016519819022321
0.15232883887244078 -0.3265318777215968 0.2016519819022321
0.14975034193945738 -0.3231987561834346 0.2016519819022321
0.13580771284056517 -0.32415111919765577 0.2016519819022321
0.116708000468739 -0.3184372391355525 0.2016519819022321
0.10276537136984679 -0.3193896319520961 0.2016519819022321
0.11928655700636717 -0.3217703904760371 0.2016519819022321
0.13943617539358946 -0.30986624022846326 0.2016519819022321
0.12549351649237486 -0.31081863304500684 0.2016519819022321
0.14201467232657286 -0.3131993617666255 0.2016519819022321
0.10639380412054869 -0.30510475298290357 0.2016519819022321
0.09245114521933409 -0.30605711599712476 0.2016519819022321
0.10897233085585448 -0.3084378745210658 0.2016519819022321
0.09760822849226805 -0.3127233590734492 0.2016519819022321
0.11412941412878844 -0.31510411759739027 0.2016519819022321
0.11155088739348265 -0.31177099605922803 0.2016519819022321
0.1471717854018292 -0.31986563464527235 0.2016519819022321
0.14459322886420103 -0.3165325131071101 0.2016519819022321
0.1306506295676312 -0.3174848761213313 0.2016519819022321
0.1375294824118695 -0.32922138830547437 0.2016519819022321
0.15061538414908263 -0.3300061132562648 0.2016519819022321
0.1514721413130841 -0.3282689954889308 0.2016519819022321
0.12353759007407042 -0.30565123816852674 0.2016519819022321
0.10701643423987242 -0.3032704796445857 0.2016519819022321
0.1565799613471112 -0.3104127552164088 0.2016519819022321
0.14005874590826842 -0.3080319966924678 0.2016519819022321
0.14130400614691588 -0.3043635096204768 0.2016519819022321
0.14068137602759215 -0.3061977531564723 0.2016519819022321
0.10739429788542601 -0.3013706411970149 0.2016519819022321
0.10404117898894163 -0.2988183703077327 0.2016519819022321
0.08651949958754393 -0.3001717533720027 0.2016519819022321
0.14243762688589903 -0.29866387506847486 0.2016519819022321
0.13908450798941466 -0.29611160417919263 0.2016519819022321
0.12156285839033934 -0.29746498724346265 0.2016519819022321
0.09733497099829527 -0.2937138583314906 0.2016519819022321
0.07981332139921996 -0.2950672413957606 0.2016519819022321
0.10068808989477965 -0.29626609941845045 0.2016519819022321
0.15660624699545714 -0.2947582211149226 0.2016519819022321
0.1499000092024884 -0.28965373894100294 0.2016519819022321
0.12567212181044432 -0.2859026100290309 0.2016519819022321
0.108150472211369 -0.2872559930933009 0.2016519819022321
0.1290252407069287 -0.28845485111599073 0.2016519819022321
0.08392258481932494 -0.28350486418132886 0.2016519819022321
0.06640090541792723 -0.2848582174432765 0.2016519819022321
0.08727567391348692 -0.2860571052682887 0.2016519819022321
0.07310711340857359 -0.28996272941951856 0.2016519819022321
0.09398188190413329 -0.29116161724453077 0.2016519819022321
0.09062876300764891 -0.28860934635524854 0.2016519819022321
0.13573141889525267 -0.2935593630922328 0.2016519819022321
0.13237832980109068 -0.29100712200527296 0.2016519819022321
0.11485665039969298 -0.292360505069543 0.2016519819022321
0.12453811364127013 -0.30191712638263807 0.2016519819022321
0.14168189959479185 -0.30246361156826124 0.2016519819022321
0.14205973343802306 -0.30056374331836805 0.2016519819022321
0.10492413239432188 -0.2827708627832423 0.2016519819022321
0.0840493340964398 -0.2815719749582301 0.2016519819022321
0.14667366938544127 -0.28516860863094434 0.2016519819022321
0.12579890088988158 -0.28396972080593214 0.2016519819022321
0.146927167939671 -0.2813028599870692 0.2016519819022321
0.1260523994441113 -0.280103972162057 0.2016519819022321
0.12592562036467406 -0.28203686138515577 0.2016519819022321
0.08014990882826659 -0.2799748685014735 0.2016519819022321
0.059148420857914406 -0.28070886989956007 0.2016519819022321
0.12215300397826048 -0.2785068657053004 0.2016519819022321
0.10115145640326353 -0.27924086710338697 0.2016519819022321
0.07235120730353209 -0.27678061088447675 0.2016519819022321
0.05134968953085752 -0.2775146122825633 0.2016519819022321
0.07625057296706053 -0.27837773224239454 0.2016519819022321
0.14315449194861266 -0.2777728643072139 0.2016519819022321
0.15635727839423033 -0.27384462019329175 0.2016519819022321
0.13535579042387816 -0.2745786215913783 0.2016519819022321
0.10655551152182433 -0.2721183802736293 0.2016519819022321
0.08555402355147215 -0.27285236677055463 0.2016519819022321
0.11045490698767516 -0.27371548673038587 0.2016519819022321
0.056753714847095925 -0.2703921403539668 0.2016519819022321
0.035752197074421364 -0.27112612685089216 0.2016519819022321
0.06065308051062437 -0.2719892468107234 0.2016519819022321
0.04355092840147825 -0.2743203844678889 0.2016519819022321
0.06845181183768126 -0.27518348952655897 0.2016519819022321
0.0645524759764752 -0.2735863681686412 0.2016519819022321
0.11825360851240965 -0.27690974434738264 0.2016519819022321
0.11435424284888121 -0.27531262298946485 0.2016519819022321
0.09335272507620665 -0.2760466243875514 0.2016519819022321
0.07974337534857603 -0.26565838416938886 0.2016519819022321
0.054842491912373025 -0.26479524930839643 0.2016519819022321
0.12954514222098204 -0.26738463899021253 0.2016519819022321
0.10464425878477904 -0.2665215041292201 0.2016519819022321
0.12572266654921385 -0.25619088670139417 0.2016519819022321
0.10082178311301085 -0.25532775184040174 0.2016519819022321
0.10273303585005614 -0.2609246279848109 0.2016519819022321
0.15444605545950743 -0.26824775895004377 0.2016519819022321
0.14680104451132628 -0.24586025437240705 0.2016519819022321
0.14871232705069395 -0.25145711561565504 0.2016519819022321
0.15253483252478453 -0.2626508828056346 0.2016519819022321
0.15062354998541685 -0.2570540066612254 0.2016519819022321
0.050662358569630105 -0.26426163872604475 0.2016519819022321
0.027672698068150002 -0.2689953800094615 0.2016519819022321
0.09664167957259032 -0.25479411145572767 0.2016519819022321
0.07365201907111021 -0.2595278676403056 0.2016519819022321
0.04230218129111143 -0.2631943728578578 0.2016519819022321
0.019312520789631325 -0.26792811414127454 0.2016519819022321
0.04648225502920957 -0.26372801324253187 0.2016519819022321
0.14262091116858336 -0.24532661398773298 0.2016519819022321
0.11963134007407042 -0.2500603701723109 0.2016519819022321
0.13426076369238707 -0.24425936302070722 0.2016519819022321
0.11127110319090697 -0.24899311920528516 0.2016519819022321
0.13844083743048521 -0.2447930034053813 0.2016519819022321
0.07992126541090819 -0.25265962442283735 0.2016519819022321
0.056931634711750466 -0.2573933657062541 0.2016519819022321
0.08410139875365111 -0.2531932499063502 0.2016519819022321
0.02558173732710691 -0.2610598858249675 0.2016519819022321
0.002592106627949198 -0.2657936271083842 0.2016519819022321
0.02976187066984983 -0.26159349640731916 0.2016519819022321
0.010952313708790263 -0.26686087807541 0.2016519819022321
0.038122077750690896 -0.2626607473743449 0.2016519819022321
0.03394197421027036 -0.26212713679199323 0.2016519819022321
0.09246157603216978 -0.254260500873376 0.2016519819022321
0.08828144268942686 -0.2537268604887019 0.2016519819022321
0.06529181199026915 -0.25846061667327985 0.2016519819022321
-0.0011913578038134972 -0.2591173704517375 0.2016519819022321
0.053148110675342995 -0.25071712395076856 0.2016519819022321
0.025978376435764748 -0.2549172546518336 0.2016519819022321
0.10748763875914427 -0.24231686254863843 0.2016519819022321
0.08031787471724364 -0.2465170081508647 0.2016519819022321
0.1346574028010449 -0.23811674674873456 0.2016519819022321
0.05394135909033628 -0.23843186160450086 0.2016519819022321
0.026771624850758034 -0.24263199230556592 0.2016519819022321
0.08071451382590147 -0.24037437697773084 0.2016519819022321
0.026374985742100197 -0.24877462347869977 0.2016519819022321
-0.00039810938882021106 -0.246832123006631 0.2016519819022321
-0.014115343523494283 -0.266959121431161 0.2016519819022321
-0.0057637791161456505 -0.2658263649595271 0.2016519819022321
0.055514266061314065 -0.23278424700622663 0.2016519819022321
0.0015714068884930214 -0.2350418772352229 0.2016519819022321
0.10945712523413512 -0.23052661677723035 0.2016519819022321
0.058660020398624856 -0.22148900290851697 0.2016519819022321
0.004717131423481425 -0.22374661823635206 0.2016519819022321
0.05708717303229185 -0.22713660260563 0.2016519819022321
