ply
format ascii 1.0
element vertex 348
property float x
property float y
property float z
element face 0
property list uchar int vertex_indices
end_header
0.1579280395979962 -0.3858839776170741 -0.20165199892509944
0.17182605462027403 -0.37903099318866834 -0.20165199892509944
0.19636099533987852 -0.3602029885900508 -0.20165199892509944
0.18471001582098814 -0.3704199995649348 -0.20165199892509944
0.20657800631476256 -0.3485529925477992 -0.20165199892509944
0.22204195456457945 -0.3217700030458461 -0.20165199892509944
0.21518801646185728 -0.3356670047891627 -0.20165199892509944
0.22702305512381407 -0.30709599515323743 -0.20165199892509944
0.2296160359854779 -0.2940599825037013 -0.20165199892509944
0.23004602389288756 -0.29189698954944715 -0.20165199892509944
0.2310600181098065 -0.27643399497394666 -0.20165199892509944
0.2157699962134442 -0.23165898581867322 -0.20165199892509944
0.16487698750449034 -0.3824574854028712 -0.20165199892509944
0.15994249777747008 -0.3603429999006282 -0.20165199892509944
0.1782680054183087 -0.3747255112779628 -0.20165199892509944
0.19053553538275572 -0.3653114940774928 -0.20165199892509944
0.15853952364874693 -0.3389710094583522 -0.20165199892509944
0.20146947102499815 -0.3543780054700862 -0.20165199892509944
0.16627149777365538 -0.32557948490505323 -0.20165199892509944
0.16284446911764952 -0.33252801557903394 -0.20165199892509944
0.21088301138830992 -0.34210999866848096 -0.20165199892509944
0.21861498551321837 -0.3287185039175044 -0.20165199892509944
0.1584477921004376 -0.3049099948061 -0.20165199892509944
0.22453247504187437 -0.31443299909954175 -0.20165199892509944
0.1597443123335919 -0.2983919884813319 -0.20165199892509944
0.2283195157523236 -0.30057798882846937 -0.20165199892509944
0.22983102993918272 -0.2929784860265742 -0.20165199892509944
0.23055302100134703 -0.2841654922616969 -0.20165199892509944
0.22341500716162535 -0.25404649039630994 -0.20165199892509944
0.22853450970602843 -0.2994964923513423 -0.20165199892509944
0.16140251355124327 -0.38417073150997266 -0.20165199892509944
0.15975051121664854 -0.37439399024372205 -0.20165199892509944
0.1683514614577374 -0.3807442392957698 -0.20165199892509944
0.1781517763609967 -0.3602729942453395 -0.20165199892509944
0.17489599184943053 -0.3524994756830226 -0.20165199892509944
0.16297148661566588 -0.37224124928836927 -0.20165199892509944
0.17504703001929137 -0.37687825223331556 -0.20165199892509944
0.16941349701834532 -0.3679357375753413 -0.20165199892509944
0.1814890404219708 -0.3725727405202876 -0.20165199892509944
0.1661924620146832 -0.3700884785306941 -0.20165199892509944
0.1723262567992291 -0.3653814997327815 -0.20165199892509944
0.18762277560187193 -0.3678657319200526 -0.20165199892509944
0.19344823555899474 -0.362757256234933 -0.20165199892509944
0.1752390165801129 -0.3628272320878993 -0.20165199892509944
0.17745022969199034 -0.3495869841230403 -0.20165199892509944
0.19891523318243834 -0.3572904970300685 -0.20165199892509944
0.18255876498175475 -0.3437620010030757 -0.20165199892509944
0.20402376847220274 -0.3514654841077815 -0.20165199892509944
0.18000452713919493 -0.346674492563058 -0.20165199892509944
0.1941567559714398 -0.32367475887661085 -0.20165199892509944
0.16111438469839903 -0.31891324182872877 -0.20165199892509944
0.18899970250082823 -0.3170085158002864 -0.20165199892509944
0.18471126751852843 -0.3405404891622554 -0.20165199892509944
0.20873050885153624 -0.3453315105093013 -0.20165199892509944
0.16069202618552061 -0.33574949761753187 -0.20165199892509944
0.1890162725920758 -0.33409749528293714 -0.20165199892509944
0.21303557352972838 -0.33888848682766065 -0.20165199892509944
0.1868637700553021 -0.33731900712375745 -0.20165199892509944
0.19072972731543394 -0.33062325974826917 -0.20165199892509944
0.21690153078986021 -0.33219273945217237 -0.20165199892509944
0.16455798344565245 -0.3290537502420436 -0.20165199892509944
0.2203284998412213 -0.32524426838283643 -0.20165199892509944
0.19244330124808165 -0.3271489944112788 -0.20165199892509944
0.19024490313483092 -0.31333999892597303 -0.20165199892509944
0.2232872744078717 -0.3181014861715327 -0.20165199892509944
0.19273536400748106 -0.3060029949796687 -0.20165199892509944
0.22577773528052184 -0.3107645120275508 -0.20165199892509944
0.19149016337347838 -0.3096714820516597 -0.20165199892509944
0.1933836241240582 -0.3027439918172847 -0.20165199892509944
0.22767125563574644 -0.3038369919908534 -0.20165199892509944
0.15909605221701476 -0.30165099164371595 -0.20165199892509944
0.1946801443572125 -0.2962259854925166 -0.20165199892509944
0.22896777586890074 -0.29731898566608533 -0.20165199892509944
0.19403188424063536 -0.29948498865490064 -0.20165199892509944
0.18797396616888853 -0.29112147351627454 -0.20165199892509944
0.18808149294806334 -0.2905807103765498 -0.20165199892509944
0.22972350316000792 -0.29351921936397657 -0.20165199892509944
0.18829648690176817 -0.2894992437017451 -0.20165199892509944
0.22993849711371275 -0.2924377526891719 -0.20165199892509944
0.18818896012259337 -0.29003997703914747 -0.20165199892509944
0.1890569229598126 -0.27790199777011976 -0.20165199892509944
0.18125819163275572 -0.2747077550542842 -0.20165199892509944
0.1885499854559979 -0.28563349505787 -0.20165199892509944
0.2302995224471173 -0.28803124090557203 -0.20165199892509944
0.23080651955557677 -0.2802997436178218 -0.20165199892509944
0.18880348401022765 -0.2817677464139949 -0.20165199892509944
0.17743568615866515 -0.26351398786430463 -0.20165199892509944
0.22723745303107115 -0.2652402426851283 -0.20165199892509944
0.169790675210484 -0.24112648328666791 -0.20165199892509944
0.21959250168753477 -0.24285273810749158 -0.20165199892509944
0.17361324028921934 -0.2523202355754863 -0.20165199892509944
0.16143046812964293 -0.24005923231964216 -0.20165199892509944
0.22929029660178038 -0.2956967260492335 -0.20165199892509944
0.22918276982260558 -0.29623748918895826 -0.20165199892509944
0.22777878241492125 -0.30329622885112867 -0.20165199892509944
0.2284270425314984 -0.30003722568874464 -0.20165199892509944
0.22907530264807555 -0.2967782225263606 -0.20165199892509944
0.15966527657461974 -0.3850273396623622 -0.20165199892509944
0.15883933501196715 -0.3801389839303981 -0.20165199892509944
0.1631397505278668 -0.38331412335758314 -0.20165199892509944
0.158013274240025 -0.3752505983961116 -0.20165199892509944
0.1657882829184613 -0.3767124917161952 -0.20165199892509944
0.17008875803900572 -0.37988763114338026 -0.20165199892509944
0.16405098633719298 -0.3775690998685847 -0.20165199892509944
0.16661428408575865 -0.3816008474481593 -0.20165199892509944
0.1605765123839459 -0.37928234597568616 -0.20165199892509944
0.16231368975592467 -0.37842573782329664 -0.20165199892509944
0.1872563858504376 -0.36023797651653394 -0.20165199892509944
0.17652385430289122 -0.35638623496418104 -0.20165199892509944
0.1856285233969769 -0.3563512470376979 -0.20165199892509944
0.169047107266911 -0.36030798217182264 -0.20165199892509944
0.15831463532400938 -0.35645624061946973 -0.20165199892509944
0.16741930441809508 -0.3564212526929866 -0.20165199892509944
0.16416351990652892 -0.3486477341306697 -0.20165199892509944
0.1657913823599896 -0.35253449341182813 -0.20165199892509944
0.16739874081564757 -0.3756361212385188 -0.20165199892509944
0.1734365125174603 -0.37795462271099195 -0.20165199892509944
0.16136096911383482 -0.37331761976604566 -0.20165199892509944
0.17061977581930968 -0.373483380283166 -0.20165199892509944
0.17665748791647765 -0.37580188175563917 -0.20165199892509944
0.16900925831747862 -0.3745597507608424 -0.20165199892509944
0.1617652674193463 -0.36669363638286695 -0.20165199892509944
0.16780297951651427 -0.3690121378553401 -0.20165199892509944
0.16015474991751524 -0.36777000686054334 -0.20165199892509944
0.17706178622198912 -0.36917786857013807 -0.20165199892509944
0.18309955792380186 -0.3714963700426112 -0.20165199892509944
0.17545126872015807 -0.37025423904781446 -0.20165199892509944
0.17987846331549498 -0.373649110997964 -0.20165199892509944
0.17223029332114073 -0.37240700980548963 -0.20165199892509944
0.1738408108229718 -0.37133060952549085 -0.20165199892509944
0.15854429202032896 -0.36884637733821973 -0.20165199892509944
0.16458194451285216 -0.3711648788106929 -0.20165199892509944
0.17851810650778624 -0.36790074964885816 -0.20165199892509944
0.18616639571143004 -0.3691428806436549 -0.20165199892509944
0.1632216473097882 -0.36541648765926465 -0.20165199892509944
0.170869936513432 -0.3666586186540614 -0.20165199892509944
0.18143086628867003 -0.36534648200397596 -0.20165199892509944
0.1890792150969586 -0.3665886129987727 -0.20165199892509944
0.1799745460028729 -0.36662360092525587 -0.20165199892509944
0.15848617749167296 -0.3616201188219081 -0.20165199892509944
0.1766953964705548 -0.3615501131666194 -0.20165199892509944
0.1675907273764691 -0.36158510109310255 -0.20165199892509944
0.1949046750540814 -0.3614801075113307 -0.20165199892509944
0.1858000059599957 -0.36151512524013624 -0.20165199892509944
0.19199185566855284 -0.3640343751562129 -0.20165199892509944
0.18288724617911192 -0.36406936308269605 -0.20165199892509944
0.1843436856741986 -0.36279224416141614 -0.20165199892509944
0.1646780272002301 -0.36413936873798475 -0.20165199892509944
0.16613440709067198 -0.36286224981670484 -0.20165199892509944
0.17378257708502623 -0.3641043510091792 -0.20165199892509944
0.18690561251593443 -0.35489498635654554 -0.20165199892509944
0.19763814406348082 -0.35874672790889844 -0.20165199892509944
0.1654406686301312 -0.34719150325183973 -0.20165199892509944
0.17617314057303282 -0.35104324480419263 -0.20165199892509944
0.18945990996313902 -0.35198249479656324 -0.20165199892509944
0.2001924415106854 -0.35583423634891614 -0.20165199892509944
0.18818276123953673 -0.3534387554777156 -0.20165199892509944
0.17054914431525084 -0.34136649032955274 -0.20165199892509944
0.18128161625815245 -0.34521826168422803 -0.20165199892509944
0.16927199559164854 -0.3428227510107051 -0.20165199892509944
0.19456832604361388 -0.34615748187427625 -0.20165199892509944
0.20530091719580504 -0.35000925322895154 -0.20165199892509944
0.19329123692465636 -0.3476137425554286 -0.20165199892509944
0.20274667935324522 -0.35292174478893384 -0.20165199892509944
0.19073699908209654 -0.3505262341154109 -0.20165199892509944
0.19201408820105406 -0.34907000323658094 -0.20165199892509944
0.16671775774908873 -0.3457352425706874 -0.20165199892509944
0.16799490647269102 -0.34427898188953504 -0.20165199892509944
0.17872737841559264 -0.34813075324421033 -0.20165199892509944
0.2080994148726544 -0.32272236606006727 -0.20165199892509944
0.19157819943381163 -0.3203416373384486 -0.20165199892509944
0.20552085833502623 -0.31938924452190504 -0.20165199892509944
0.1802140970702252 -0.32462712189083204 -0.20165199892509944
0.1636929412360272 -0.3222463931692134 -0.20165199892509944
0.1776356001372418 -0.3212940003526698 -0.20165199892509944
0.15853588776541563 -0.31558012029056653 -0.20165199892509944
0.17247842745734068 -0.31462772747402296 -0.20165199892509944
0.17505704359961363 -0.3179608788145076 -0.20165199892509944
0.1956446071143231 -0.3445467557561885 -0.20165199892509944
0.207654227780827 -0.34694223662738904 -0.20165199892509944
0.1716253657813153 -0.3397557344091426 -0.20165199892509944
0.1836349864478192 -0.34215124508266553 -0.20165199892509944
0.19779716925574156 -0.34132524391536817 -0.20165199892509944
0.2098067303176007 -0.3437207545888911 -0.20165199892509944
0.19672088818503233 -0.3429359998357783 -0.20165199892509944
0.15961580471945616 -0.337360253537942 -0.20165199892509944
0.16176830725622984 -0.3341387416971217 -0.20165199892509944
0.17593037085486266 -0.33331274052982435 -0.20165199892509944
0.18793999152136656 -0.3357082512033473 -0.20165199892509944
0.17485408978415343 -0.3349234964502345 -0.20165199892509944
0.20210217432928893 -0.33488225003604993 -0.20165199892509944
0.21411179499579283 -0.3372777607095729 -0.20165199892509944
0.2010258932585797 -0.3364930059564601 -0.20165199892509944
0.21195923285437437 -0.3404992427480708 -0.20165199892509944
0.19887339072180601 -0.339714487994958 -0.20165199892509944
0.19994967179251524 -0.33810376187687025 -0.20165199892509944
0.17270158724737975 -0.3381450082910548 -0.20165199892509944
0.17377786831808897 -0.33653425237064466 -0.20165199892509944
0.18578748898459288 -0.3389297332418452 -0.20165199892509944
0.20295887188864561 -0.33314513226871595 -0.20165199892509944
0.21604477362585875 -0.33392988702182874 -0.20165199892509944
0.17678706841421934 -0.33157562276249036 -0.20165199892509944
0.18987297015143248 -0.33236037751560316 -0.20165199892509944
0.20467232661200377 -0.3296708669317256 -0.20165199892509944
0.2177582283492169 -0.3304556216848384 -0.20165199892509944
0.20381562905264708 -0.3314079846990596 -0.20165199892509944
0.16370128588629576 -0.33079086800937757 -0.20165199892509944
0.16541474060965392 -0.3273166324747096 -0.20165199892509944
0.19329999880743834 -0.32541187664394483 -0.20165199892509944
0.17935739951086851 -0.326364239658166 -0.20165199892509944
0.22118525700522276 -0.32350712081318006 -0.20165199892509944
0.20724259810400816 -0.32445951362972364 -0.20165199892509944
0.2194718022818646 -0.3269813861501704 -0.20165199892509944
0.20552914338065 -0.3279337491643916 -0.20165199892509944
0.20638590054465147 -0.3261966313970576 -0.20165199892509944
0.17764388518286559 -0.3298385049951564 -0.20165199892509944
0.17850064234686705 -0.3281013574255 -0.20165199892509944
0.19158654408408018 -0.3288861121786128 -0.20165199892509944
0.20614348845434996 -0.31755500098590955 -0.20165199892509944
0.22266464428854796 -0.3199357595098506 -0.20165199892509944
0.1731011171813092 -0.31279351374034986 -0.20165199892509944
0.1896222730155072 -0.3151742424619685 -0.20165199892509944
0.20738868908835265 -0.3138864841115962 -0.20165199892509944
0.22390990452719542 -0.31626724263553724 -0.20165199892509944
0.20676605896902892 -0.31572075744991407 -0.20165199892509944
0.15782516198111388 -0.30674423834209547 -0.20165199892509944
0.17559157805395934 -0.30545647999172315 -0.20165199892509944
0.19211273388815733 -0.3078372385156642 -0.20165199892509944
0.1749689479346356 -0.307290753330041 -0.20165199892509944
0.20987920956564757 -0.30654950996761426 -0.20165199892509944
0.22640042500449034 -0.3089302386892329 -0.20165199892509944
0.2092566390509686 -0.30838375350360975 -0.20165199892509944
0.2251551051611981 -0.31259875556354627 -0.20165199892509944
0.20801131920767638 -0.3120522405756007 -0.20165199892509944
0.20863400893164488 -0.31021799703960523 -0.20165199892509944
0.17372374730063292 -0.310959240402032 -0.20165199892509944
0.17434637741995665 -0.3091249968660365 -0.20165199892509944
0.19086753325415465 -0.31150575538997755 -0.20165199892509944
0.21020333962393614 -0.30491997858409986 -0.20165199892509944
0.22734718518210265 -0.3054664935720454 -0.20165199892509944
0.1759157081122479 -0.3038270082128535 -0.20165199892509944
0.19305949406576964 -0.3043734933984767 -0.20165199892509944
0.21085154013586851 -0.3016610052240382 -0.20165199892509944
0.22799538569403502 -0.3022074904096614 -0.20165199892509944
0.21052741007757994 -0.30329050680523023 -0.20165199892509944
0.15877192215872618 -0.30328049322490797 -0.20165199892509944
0.15942018227530333 -0.30002149006252393 -0.20165199892509944
0.1772122283454022 -0.29730900188808546 -0.20165199892509944
0.19435601429892393 -0.2978554870737086 -0.20165199892509944
0.17688809828711363 -0.2989384736669551 -0.20165199892509944
0.2121480603690228 -0.29514296909694776 -0.20165199892509944
0.22929190592718932 -0.2956894840848933 -0.20165199892509944
0.211823989915379 -0.29677250048046216 -0.20165199892509944
0.22864370541525694 -0.29894848724727735 -0.20165199892509944
0.21117578940344664 -0.3000315036428462 -0.20165199892509944
0.21149980025244566 -0.2984019722593318 -0.20165199892509944
0.17623989777518126 -0.3021975066316615 -0.20165199892509944
0.17656396822882506 -0.3005680050504695 -0.20165199892509944
0.1937077541823468 -0.30111449023609266 -0.20165199892509944
0.1913270850653729 -0.29367374440555677 -0.20165199892509944
0.2087950010771832 -0.2925907280099879 -0.20165199892509944
0.1738591690535626 -0.29475673099880323 -0.20165199892509944
0.16715293126059386 -0.28965224882488355 -0.20165199892509944
0.17050605015707823 -0.2922044899118434 -0.20165199892509944
0.20884876446677061 -0.29232036134128675 -0.20165199892509944
0.2296697993750653 -0.29378961583500013 -0.20165199892509944
0.16720669465018126 -0.2893818821561824 -0.20165199892509944
0.18802772955847594 -0.29085110684757337 -0.20165199892509944
0.20895623164130064 -0.291779598201562 -0.20165199892509944
0.22977726654959532 -0.2932488526952754 -0.20165199892509944
0.20890246825171324 -0.2920499648702632 -0.20165199892509944
0.1674216886038861 -0.2883003558767329 -0.20165199892509944
0.18824272351218077 -0.2897696103704463 -0.20165199892509944
0.1673679252142987 -0.2885707225454341 -0.20165199892509944
0.20917122559500548 -0.29069810172443494 -0.20165199892509944
0.22999226050330016 -0.2921673562181483 -0.20165199892509944
0.20911746220541808 -0.2909684981954585 -0.20165199892509944
0.22988479332877013 -0.29270811935787305 -0.20165199892509944
0.20900999503088805 -0.29150923153286085 -0.20165199892509944
0.20906375842047545 -0.2912388648641597 -0.20165199892509944
0.16726039843512389 -0.2891114856851588 -0.20165199892509944
0.1673141618247113 -0.28884111901645765 -0.20165199892509944
0.18813519673300597 -0.29031034370784864 -0.20165199892509944
0.21005844073248717 -0.2771679963720332 -0.20165199892509944
0.18515758709860655 -0.2763048615110408 -0.20165199892509944
0.2061591048712811 -0.2755708750141154 -0.20165199892509944
0.16805540518713805 -0.2786359842670451 -0.20165199892509944
0.16415600972128722 -0.2770388629091273 -0.20165199892509944
0.16025667386008116 -0.27544175645237073 -0.20165199892509944
0.20929800467444273 -0.2887652423036586 -0.20165199892509944
0.23017274336768004 -0.2899641003263484 -0.20165199892509944
0.16754846768332335 -0.28636749645595655 -0.20165199892509944
0.18842320637656065 -0.28756635447864637 -0.20165199892509944
0.20955150322867247 -0.28489949365978345 -0.20165199892509944
0.23042624192190977 -0.2860983516824733 -0.20165199892509944
0.20942472414923521 -0.2868323530805598 -0.20165199892509944
0.18893020348502013 -0.2798348571908961 -0.20165199892509944
0.16792868571234557 -0.2805688585889827 -0.20165199892509944
0.23093323903036925 -0.2783668841970454 -0.20165199892509944
0.2099317212576947 -0.2791008557928096 -0.20165199892509944
0.2306797404761395 -0.28223263284092054 -0.20165199892509944
0.20967822270346495 -0.2829666342390071 -0.20165199892509944
0.2098050017829022 -0.28103374501590833 -0.20165199892509944
0.16767518715811583 -0.2844346072328578 -0.20165199892509944
0.16780196623755309 -0.28250171800975904 -0.20165199892509944
0.1886767049307904 -0.28370060583477125 -0.20165199892509944
0.20424782233191344 -0.26997399886970624 -0.20165199892509944
0.22914873557043883 -0.2708371188295375 -0.20165199892509944
0.17934690909338805 -0.269110878909875 -0.20165199892509944
0.20042531685782286 -0.2587802316797267 -0.20165199892509944
0.22532623009634825 -0.2596433665407191 -0.20165199892509944
0.20233659939719054 -0.26437710782413587 -0.20165199892509944
0.17170195774985167 -0.2467233594310771 -0.20165199892509944
0.19278036551428648 -0.23639274200325117 -0.20165199892509944
0.2176812191481671 -0.2372558619630824 -0.20165199892509944
0.19469164805365416 -0.24198961814766035 -0.20165199892509944
0.22150378422690245 -0.24844961425190076 -0.20165199892509944
0.19851409392309996 -0.2531833704364787 -0.20165199892509944
0.19660287098837706 -0.24758649429206953 -0.20165199892509944
0.17552446322394225 -0.25791712662105665 -0.20165199892509944
0.16561060147238585 -0.24059287270431623 -0.20165199892509944
0.18860023217154356 -0.2358591165197383 -0.20165199892509944
0.16182713704062315 -0.2339166011465083 -0.20165199892509944
0.16340004401160094 -0.22826898654823408 -0.20165199892509944
0.16182713704062315 -0.22256787678127393 -0.20165199892509944
0.2141971488471112 -0.2259578462493907 -0.20165199892509944
0.22966813044501158 -0.29379685779934034 -0.20165199892509944
0.22961436705542418 -0.2940672542703639 -0.20165199892509944
0.2289124031539044 -0.2975966241014491 -0.20165199892509944
0.22885869936896178 -0.2978669907701503 -0.20165199892509944
0.22923653321219298 -0.2959671225202571 -0.20165199892509944
0.22950689988089415 -0.29460798760776624 -0.20165199892509944
0.22956066327048155 -0.29433762093906507 -0.20165199892509944
0.22815667586279723 -0.3013963606012355 -0.20165199892509944
0.22810291247320982 -0.30166675707225904 -0.20165199892509944
0.2284808059210858 -0.29976685902004346 -0.20165199892509944
0.22740094857169005 -0.30519612690334424 -0.20165199892509944
0.22772501902533385 -0.30356659551982984 -0.20165199892509944
0.228373279141911 -0.3003076221597682 -0.20165199892509944
0.22804914908362242 -0.3019371237409602 -0.20165199892509944
0.22902153925848814 -0.2970485891950618 -0.20165199892509944
0.22869740920019957 -0.2986781205785762 -0.20165199892509944
0.22934566931677672 -0.29541911741619215 -0.20165199892509944
0.22945313649130675 -0.2948783542764674 -0.20165199892509944
0.22939937310171934 -0.295148750747491 -0.20165199892509944
0.22880493597937437 -0.29813735743885145 -0.20165199892509944
0.22875117258978697 -0.2984077241075526 -0.20165199892509944
0.22912900643301817 -0.29650785585765943 -0.20165199892509944
