ply
format ascii 1.0
element vertex 526
property float x
property float y
property float z
element face 0
property list uchar int vertex_indices
end_header
-0.03499425454186587 -0.2697909977090846 -0.20165199892509944
-0.06608761353539613 -0.2828130032670985 -0.20165199892509944
-0.09275201959656862 -0.3034399952543269 -0.20165199892509944
-0.11316997809456972 -0.3302659895074855 -0.20165199892509944
-0.12594799203919557 -0.3614610042226802 -0.20165199892509944
-0.1302179942850986 -0.3949019815576564 -0.20165199892509944
-0.1433799962525287 -0.3940389957082759 -0.20165199892509944
-0.1563179741625705 -0.3914659824026118 -0.20165199892509944
-0.18063899381207613 -0.38139097949390516 -0.20165199892509944
-0.16880799336480287 -0.387225976194192 -0.20165199892509944
-0.10868049664544252 -0.257489984835435 -0.20165199892509944
-0.12538364036130098 -0.2597554977787028 -0.20165199892509944
-0.01829115552949099 -0.267525499666978 -0.20165199892509944
-0.14093030495690492 -0.2662665005577098 -0.20165199892509944
-0.050540934038631004 -0.27630200048809156 -0.20165199892509944
-0.1485737959866443 -0.2884364928853999 -0.20165199892509944
-0.16190599901723055 -0.2987500037801753 -0.20165199892509944
-0.0794197718624988 -0.2931264843595515 -0.20165199892509944
-0.1614744911913791 -0.30533101221447095 -0.20165199892509944
-0.17039697868870882 -0.32521297594432935 -0.20165199892509944
-0.16018798453854707 -0.31179999371891126 -0.20165199892509944
-0.10296098394440797 -0.3168530072820674 -0.20165199892509944
-0.16827697558449892 -0.33145799299602613 -0.20165199892509944
-0.1680844823841968 -0.3584549929750453 -0.20165199892509944
-0.16169549031304506 -0.34285750051860914 -0.20165199892509944
-0.11955898506688264 -0.34586348196392164 -0.20165199892509944
-0.16535949213551668 -0.33737348576908216 -0.20165199892509944
-0.16373599572228578 -0.36341350337391004 -0.20165199892509944
-0.13466399414586214 -0.37774999996547803 -0.20165199892509944
-0.12808298571156648 -0.3781815077913295 -0.20165199892509944
-0.13679898781823305 -0.39447047373180494 -0.20165199892509944
-0.15877748532342104 -0.36776199003582105 -0.20165199892509944
-0.1498489926581302 -0.39275248905544385 -0.20165199892509944
-0.14113299055146364 -0.376463493312646 -0.20165199892509944
-0.15329348547505525 -0.37142600675945386 -0.20165199892509944
-0.18612297875928072 -0.37772696277027235 -0.20165199892509944
-0.1625629912142673 -0.3893459941995631 -0.20165199892509944
-0.14737799270199922 -0.3743435051095973 -0.20165199892509944
-0.1747234712366977 -0.3843084778440486 -0.20165199892509944
-0.05513424677895693 -0.26137500068073377 -0.20165199892509944
-0.16222674651192812 -0.2536049987924586 -0.20165199892509944
-0.10788724823044923 -0.2452047522914897 -0.20165199892509944
-0.054340998363963645 -0.24908973833446607 -0.20165199892509944
-0.08018896980332521 -0.2647732402933131 -0.20165199892509944
-0.07183740539597658 -0.2636404987228404 -0.20165199892509944
-0.026642719936839622 -0.2686582412374507 -0.20165199892509944
-0.17057832582043794 -0.25473774036293134 -0.20165199892509944
-0.11703206105279115 -0.2586227413070689 -0.20165199892509944
-0.06348581118630556 -0.2625077571523677 -0.20165199892509944
-0.10474149389313844 -0.23390949329261884 -0.20165199892509944
-0.10159573955582765 -0.2226142491949092 -0.20165199892509944
-0.10350892944382814 -0.27453975936298475 -0.20165199892509944
-0.09573561949776796 -0.27128425797348127 -0.20165199892509944
-0.058314243984691184 -0.27955748697643384 -0.20165199892509944
-0.17835163576649812 -0.2579932417524348 -0.20165199892509944
-0.13315696520852235 -0.2630109991682063 -0.20165199892509944
-0.04276762409257082 -0.2730464990985881 -0.20165199892509944
-0.08796230955170778 -0.2680287565839778 -0.20165199892509944
-0.10733071966218141 -0.285624733175088 -0.20165199892509944
-0.1447520504717746 -0.27735150417213544 -0.20165199892509944
-0.1898168872122684 -0.2912482227933894 -0.20165199892509944
-0.1859951416973987 -0.28016324898128614 -0.20165199892509944
-0.1821733812813678 -0.2690782453668605 -0.20165199892509944
-0.1273289869551578 -0.3010949995172511 -0.20165199892509944
-0.12066289289044527 -0.2959382440698634 -0.20165199892509944
-0.0860858957295337 -0.2982832398069392 -0.20165199892509944
-0.15523989005135683 -0.2935932483327876 -0.20165199892509944
-0.07275370760010866 -0.2879697587144862 -0.20165199892509944
-0.11399678392457155 -0.2907815184247981 -0.20165199892509944
-0.12711323304223207 -0.30438550373439893 -0.20165199892509944
-0.16169024510430482 -0.30204047819500074 -0.20165199892509944
-0.14178348584221986 -0.3277394976270686 -0.20165199892509944
-0.136678988767139 -0.32103299161319837 -0.20165199892509944
-0.10806546611832765 -0.32355948349361524 -0.20165199892509944
-0.16529249651478914 -0.3185064997327815 -0.20165199892509944
-0.12646999461697725 -0.3076200093877803 -0.20165199892509944
-0.09785647196816591 -0.31014650126819715 -0.20165199892509944
-0.13157449169205812 -0.31432648559932813 -0.20165199892509944
-0.1608312229638019 -0.3085654880655299 -0.20165199892509944
-0.1407234917406955 -0.330862006152917 -0.20165199892509944
-0.16933699948834566 -0.32833548447017774 -0.20165199892509944
-0.14701623721169618 -0.35995801350002393 -0.20165199892509944
-0.14382172627495912 -0.35215925237064466 -0.20165199892509944
-0.12275348110245851 -0.3536622430933009 -0.20165199892509944
-0.1891527275566974 -0.35695197245006666 -0.20165199892509944
-0.18595823152112154 -0.34915324112300977 -0.20165199892509944
-0.16488997144745973 -0.350656231845666 -0.20165199892509944
-0.13743274910496858 -0.3365617301118861 -0.20165199892509944
-0.11636450393246797 -0.33806475063686475 -0.20165199892509944
-0.14062724514054445 -0.3443604912412654 -0.20165199892509944
-0.1392647276644626 -0.3338197376382838 -0.20165199892509944
-0.1668182413105884 -0.33441572448139295 -0.20165199892509944
-0.14484197897957948 -0.3624372686994563 -0.20165199892509944
-0.1659102241520801 -0.36093424817447767 -0.20165199892509944
-0.1826299826626697 -0.3643897380483638 -0.20165199892509944
-0.1848042408947864 -0.3619104828489314 -0.20165199892509944
-0.1869784842257419 -0.35943122764949903 -0.20165199892509944
-0.16352748377370027 -0.34011547824268445 -0.20165199892509944
-0.18779023988293794 -0.3464112188470851 -0.20165199892509944
-0.18962223334359316 -0.3436692263734828 -0.20165199892509944
-0.13902198774861482 -0.38589449783687696 -0.20165199892509944
-0.135731483531467 -0.3861102368486415 -0.20165199892509944
-0.14008949203538087 -0.3942547347200404 -0.20165199892509944
-0.13030598564194826 -0.3696055020940791 -0.20165199892509944
-0.12701548142480043 -0.36982124110584363 -0.20165199892509944
-0.1313735048298755 -0.37796573897724256 -0.20165199892509944
-0.12915050489949373 -0.3865417446744929 -0.20165199892509944
-0.13350848360108522 -0.39468624254589185 -0.20165199892509944
-0.13244099421548036 -0.386325975860406 -0.20165199892509944
-0.1423627535824695 -0.3646114971292506 -0.20165199892509944
-0.1612567405228534 -0.36558773180370435 -0.20165199892509944
-0.17519223196553377 -0.3709124829423915 -0.20165199892509944
-0.17767148716496614 -0.3687382247102748 -0.20165199892509944
-0.18015072746323732 -0.3665639962804805 -0.20165199892509944
-0.1378984848980823 -0.377106746639062 -0.20165199892509944
-0.1335405061964908 -0.3689622487676631 -0.20165199892509944
-0.14661448700474886 -0.39339574238185987 -0.20165199892509944
-0.14225649340199617 -0.38525124451046094 -0.20165199892509944
-0.15308348341035036 -0.39210923572902784 -0.20165199892509944
-0.14872548980759767 -0.3839647378576289 -0.20165199892509944
-0.14549096925305513 -0.38460799118404493 -0.20165199892509944
-0.139620746207706 -0.366443505491067 -0.20165199892509944
-0.15603550775097993 -0.36959399839763746 -0.20165199892509944
-0.1669662396435657 -0.3764084782255183 -0.20165199892509944
-0.18338098628567842 -0.37955897113208875 -0.20165199892509944
-0.16970823211716798 -0.3745764698637019 -0.20165199892509944
-0.1888649861340442 -0.3758949842107783 -0.20165199892509944
-0.17245025439309267 -0.3727444913042079 -0.20165199892509944
-0.14425548417615083 -0.37540348430996046 -0.20165199892509944
-0.136662999821178 -0.36790223976497755 -0.20165199892509944
-0.1594404826884189 -0.3904059733999263 -0.20165199892509944
-0.15184799833344606 -0.38290472885494337 -0.20165199892509944
-0.16568548483895448 -0.38828598519687757 -0.20165199892509944
-0.15809298558282045 -0.38078474065189466 -0.20165199892509944
-0.15497047705697206 -0.3818447496545802 -0.20165199892509944
-0.15033575398968843 -0.3728847410333644 -0.20165199892509944
-0.1717657397513309 -0.3857672419202815 -0.20165199892509944
-0.16105074687050966 -0.37932597657566175 -0.20165199892509944
-0.17768123252438692 -0.38284974357013807 -0.20165199892509944
-0.16400850815819887 -0.3778672423017512 -0.20165199892509944
-0.028361121845714134 -0.26331750115280256 -0.20165199892509944
-0.08190734190987733 -0.2594325151098262 -0.20165199892509944
-0.05473763747262148 -0.2552323695075999 -0.20165199892509944
-0.027964482737056297 -0.2571748699796687 -0.20165199892509944
-0.13545362157868532 -0.2555474992645274 -0.20165199892509944
-0.10828385753678468 -0.25134738346462354 -0.20165199892509944
-0.08151073260354189 -0.25328986903553113 -0.20165199892509944
-0.1889998714451709 -0.25166249832038984 -0.20165199892509944
-0.16183010740327028 -0.24746236761932477 -0.20165199892509944
-0.13505701227234987 -0.24940486809139356 -0.20165199892509944
-0.053944389057628196 -0.24294710716133222 -0.20165199892509944
-0.0271712641243854 -0.244889607633401 -0.20165199892509944
-0.08111412329720644 -0.24714723786239728 -0.20165199892509944
-0.027567873430720848 -0.25103223880653486 -0.20165199892509944
-0.05759159727143435 -0.26728211900119886 -0.20165199892509944
-0.05341584487008242 -0.2667157407653819 -0.20165199892509944
-0.03081850214051394 -0.26922461947326765 -0.20165199892509944
-0.10278631253289369 -0.26226437648658857 -0.20165199892509944
-0.09861053032921938 -0.2616979982507716 -0.20165199892509944
-0.0760131875996509 -0.26420687695865736 -0.20165199892509944
-0.0450642506604114 -0.2655829991949092 -0.20165199892509944
-0.022466907930842918 -0.26809186300163373 -0.20165199892509944
-0.0492400626664081 -0.26614937743072614 -0.20165199892509944
-0.14798098309086946 -0.2572466190708171 -0.20165199892509944
-0.14380518598603395 -0.2566802557361613 -0.20165199892509944
-0.12120785815762666 -0.25918913444404706 -0.20165199892509944
-0.16640252871560243 -0.2541713770282756 -0.20165199892509944
-0.11285627884911684 -0.25805637797241315 -0.20165199892509944
-0.13962940378235963 -0.2561138625991832 -0.20165199892509944
-0.05931002898263125 -0.2619413789165507 -0.20165199892509944
-0.08608315391587404 -0.25999887844448194 -0.20165199892509944
-0.03253690404938845 -0.2638838793886195 -0.20165199892509944
-0.04088849825905947 -0.2650166358602534 -0.20165199892509944
-0.036712686253062767 -0.2644502427232753 -0.20165199892509944
-0.09443471832322267 -0.26113162001495466 -0.20165199892509944
-0.09025896592187074 -0.2605652566802989 -0.20165199892509944
-0.06766162319230226 -0.26307412048702344 -0.20165199892509944
-0.10631437106179384 -0.23955710789089307 -0.20165199892509944
-0.05237148208665041 -0.237299492563058 -0.20165199892509944
-0.16025723023461488 -0.24181475302105054 -0.20165199892509944
-0.1571114907984653 -0.2305194940221797 -0.20165199892509944
-0.15868436796712068 -0.23616712352161512 -0.20165199892509944
-0.1555386136298099 -0.22487186452274427 -0.20165199892509944
-0.05079860491799502 -0.23165186306362257 -0.20165199892509944
-0.10316861672448305 -0.22826186379318342 -0.20165199892509944
-0.04922572774933962 -0.22600423356418714 -0.20165199892509944
-0.08479825658845094 -0.27867638131504163 -0.20165199892509944
-0.08091158671425966 -0.2770486380708705 -0.20165199892509944
-0.062200943661204856 -0.2811852600229274 -0.20165199892509944
-0.12221961720036653 -0.27040312250976667 -0.20165199892509944
-0.11833296222733644 -0.2687753792655955 -0.20165199892509944
-0.09962228937195924 -0.2729120012176524 -0.20165199892509944
-0.07313827676819948 -0.2737931217802058 -0.20165199892509944
-0.05442760391282229 -0.2779297586334239 -0.20165199892509944
-0.07702494664239076 -0.27542087992553815 -0.20165199892509944
-0.15964097781228212 -0.2621298786056529 -0.20165199892509944
-0.15575429303692964 -0.26050212046032056 -0.20165199892509944
-0.13704360528039125 -0.26463875731353864 -0.20165199892509944
-0.17446496589230684 -0.2563654985082637 -0.20165199892509944
-0.12927031023549226 -0.26138324102287397 -0.20165199892509944
-0.15186765296506075 -0.2588743772161494 -0.20165199892509944
-0.08407560987519411 -0.26640099843864545 -0.20165199892509944
-0.10667295260476259 -0.2638921197307597 -0.20165199892509944
-0.03888095421837954 -0.27141875585441694 -0.20165199892509944
-0.06147829694794802 -0.2689098771465312 -0.20165199892509944
-0.04665429396676211 -0.2746742572439204 -0.20165199892509944
-0.0692516068940082 -0.2721653785360347 -0.20165199892509944
-0.0653649668221393 -0.27053762039070234 -0.20165199892509944
-0.11444629235314516 -0.2671476211202632 -0.20165199892509944
-0.11055962247895387 -0.26551987787609205 -0.20165199892509944
-0.09184894962357668 -0.26965649982814893 -0.20165199892509944
-0.08670915169762758 -0.28421886822109327 -0.20165199892509944
-0.10541982455300478 -0.2800822462690364 -0.20165199892509944
-0.12795225782441286 -0.28703062793140516 -0.20165199892509944
-0.14666290087746767 -0.2828939761770259 -0.20165199892509944
-0.12604136271523622 -0.28148811122303113 -0.20165199892509944
-0.14284115536259798 -0.2718090023649226 -0.20165199892509944
-0.12413048250722078 -0.2759456243169795 -0.20165199892509944
-0.16919533414887575 -0.28984235783939466 -0.20165199892509944
-0.18790602190541414 -0.28570576568966016 -0.20165199892509944
-0.1672844688420215 -0.284299870933343 -0.20165199892509944
-0.16155184311913637 -0.26767238041286573 -0.20165199892509944
-0.18026251597451357 -0.26353575846080884 -0.20165199892509944
-0.16537358863400606 -0.2787573691261302 -0.20165199892509944
-0.18408426148938326 -0.2746207322729121 -0.20165199892509944
-0.1634627233271518 -0.27321486731891736 -0.20165199892509944
-0.11004049582528261 -0.3022674824846278 -0.20165199892509944
-0.10670743389176515 -0.29968913456325635 -0.20165199892509944
-0.08941892786072878 -0.30086161753063306 -0.20165199892509944
-0.14461750788735536 -0.299922486747552 -0.20165199892509944
-0.1412844310526767 -0.29734410902385816 -0.20165199892509944
-0.12399593992280153 -0.29851662179355726 -0.20165199892509944
-0.10004133982705263 -0.29453237911586866 -0.20165199892509944
-0.08275286359833864 -0.29570486208324537 -0.20165199892509944
-0.10337440176057008 -0.2971107568395625 -0.20165199892509944
-0.17919449014710573 -0.2975774910104762 -0.20165199892509944
-0.17586142821358827 -0.29499911328678236 -0.20165199892509944
-0.1585729370837131 -0.29617162605648145 -0.20165199892509944
-0.15190684301900056 -0.29101487060909376 -0.20165199892509944
-0.1725283960823932 -0.2924207355630885 -0.20165199892509944
-0.11066372199105409 -0.28820311089878187 -0.20165199892509944
-0.13128527505444673 -0.289609005655099 -0.20165199892509944
-0.06942061586426881 -0.28539138099079236 -0.20165199892509944
-0.09004218382882265 -0.2867972459447871 -0.20165199892509944
-0.07608673973130373 -0.29054813643818006 -0.20165199892509944
-0.09670830769585756 -0.2919540013921748 -0.20165199892509944
-0.0933752457623401 -0.28937562366848096 -0.20165199892509944
-0.13795139892148164 -0.2947657313001643 -0.20165199892509944
-0.13461835188912538 -0.29218735357647047 -0.20165199892509944
-0.11732983095692781 -0.29335986634616956 -0.20165199892509944
-0.10993261141823915 -0.3039127494943629 -0.20165199892509944
-0.12722111744927553 -0.3027402367246638 -0.20165199892509944
-0.144293854666225 -0.30485822817211256 -0.20165199892509944
-0.16158237559842256 -0.30368574520473585 -0.20165199892509944
-0.14440172417210725 -0.30321299096469984 -0.20165199892509944
-0.1617981146101871 -0.300395240987588 -0.20165199892509944
-0.1445096234803119 -0.3015677537572871 -0.20165199892509944
-0.17865511281537202 -0.3058037366521846 -0.20165199892509944
-0.1787629674200931 -0.30415849944477186 -0.20165199892509944
-0.17908662064122347 -0.2992227282178889 -0.20165199892509944
-0.17887086672829774 -0.30251323243503675 -0.20165199892509944
-0.17897872133301881 -0.30086799522762403 -0.20165199892509944
-0.1274767319683948 -0.32900272866611585 -0.20165199892509944
-0.12492449088143495 -0.3256494905603419 -0.20165199892509944
-0.11061773700760988 -0.32691275140171155 -0.20165199892509944
-0.15609025461720613 -0.326476236785699 -0.20165199892509944
-0.1535379986290851 -0.32312299867992506 -0.20165199892509944
-0.13923122985409883 -0.3243862297189723 -0.20165199892509944
-0.11981999380635408 -0.3189429845464717 -0.20165199892509944
-0.10551322503136781 -0.3202062453878413 -0.20165199892509944
-0.12237223489331392 -0.322296252454568 -0.20165199892509944
-0.18470374746369508 -0.3239497449052821 -0.20165199892509944
-0.18215147657441286 -0.3205964769971858 -0.20165199892509944
-0.16784473760174898 -0.3218597378385554 -0.20165199892509944
-0.17704697949933199 -0.31389000078563795 -0.20165199892509944
-0.1627402554278293 -0.3151532616270076 -0.20165199892509944
-0.1795992503886142 -0.31724323889141187 -0.20165199892509944
-0.14332898957776216 -0.3097099866521846 -0.20165199892509944
-0.1290222357039371 -0.3109732474935542 -0.20165199892509944
-0.145881230664722 -0.3130632247579585 -0.20165199892509944
-0.10961098475503114 -0.3055300023210536 -0.20165199892509944
-0.09530423088120607 -0.30679323336010084 -0.20165199892509944
-0.11216325564431337 -0.3088832404268275 -0.20165199892509944
-0.10040874285744814 -0.3134997393739711 -0.20165199892509944
-0.11726773781823305 -0.31558974644069776 -0.20165199892509944
-0.11471549673127321 -0.31223650833492383 -0.20165199892509944
-0.15098572773980287 -0.31976973077182874 -0.20165199892509944
-0.14843348665284303 -0.3164164926660548 -0.20165199892509944
-0.13412673277901796 -0.31767972370510206 -0.20165199892509944
-0.12679162128018526 -0.3060027565610896 -0.20165199892509944
-0.16050962610291628 -0.3101827408922206 -0.20165199892509944
-0.14365061624097017 -0.3080927338254939 -0.20165199892509944
-0.1611528794293323 -0.30694823523883924 -0.20165199892509944
-0.14397222800301698 -0.30647548099880323 -0.20165199892509944
-0.1773686210637012 -0.31227274795894727 -0.20165199892509944
-0.17833348615216402 -0.30742098947887525 -0.20165199892509944
-0.1776902477269092 -0.3106554951322566 -0.20165199892509944
-0.178011859488956 -0.3090382423055659 -0.20165199892509944
-0.12694672746705202 -0.33056398292904005 -0.20165199892509944
-0.14125349624203828 -0.3293007518899928 -0.20165199892509944
-0.1545002411131778 -0.33115999957447156 -0.20165199892509944
-0.16880699498700288 -0.32989673873310194 -0.20165199892509944
-0.15503024561452058 -0.32959874531154737 -0.20165199892509944
-0.16986698908852724 -0.32677423020725355 -0.20165199892509944
-0.15556025011586336 -0.3280374910486232 -0.20165199892509944
-0.1820537547593036 -0.3317559864175807 -0.20165199892509944
-0.18258374435948518 -0.3301947321546565 -0.20165199892509944
-0.18417372806119112 -0.3255109991682063 -0.20165199892509944
-0.18311373395966676 -0.3286335076940547 -0.20165199892509944
-0.18364372355984834 -0.3270722236288081 -0.20165199892509944
-0.13648211462544588 -0.36070950886135206 -0.20165199892509944
-0.13488484425591615 -0.3568101133955012 -0.20165199892509944
-0.12435072166966585 -0.35756163855915174 -0.20165199892509944
-0.1575503597979465 -0.3592064883363734 -0.20165199892509944
-0.15595308942841676 -0.355307122672845 -0.20165199892509944
-0.14541899664448885 -0.3560586180341731 -0.20165199892509944
-0.13169036312150148 -0.34901138206844434 -0.20165199892509944
-0.12115624053525118 -0.34976287742977247 -0.20165199892509944
-0.13328760368870882 -0.3529107477319728 -0.20165199892509944
-0.1786186049704471 -0.35770349761371717 -0.20165199892509944
-0.17702136440323976 -0.3538041319501887 -0.20165199892509944
-0.16648722691582826 -0.35455562731151685 -0.20165199892509944
-0.18755547208832887 -0.3530526067865382 -0.20165199892509944
-0.1738268534665027 -0.34600537082080945 -0.20165199892509944
-0.1632927308802524 -0.3467568661821376 -0.20165199892509944
-0.17542412383603243 -0.3499047364843379 -0.20165199892509944
-0.14956411225842622 -0.33970960041408643 -0.20165199892509944
-0.13902998967217592 -0.34046112557773694 -0.20165199892509944
-0.15116135282563356 -0.34360899587993726 -0.20165199892509944
-0.12530135614918855 -0.3334138598096858 -0.20165199892509944
-0.11476723356293825 -0.3341653551710139 -0.20165199892509944
-0.12689862651871828 -0.3373132552755366 -0.20165199892509944
-0.11796174449967531 -0.3419641163003932 -0.20165199892509944
-0.13009310765313295 -0.3451119866025935 -0.20165199892509944
-0.1284958670859256 -0.34121262093906507 -0.20165199892509944
-0.15435584886120943 -0.35140772720699415 -0.20165199892509944
-0.1527586082940021 -0.3475083615434657 -0.20165199892509944
-0.14222448570775179 -0.34825985690479383 -0.20165199892509944
-0.12621736033009676 -0.33204286357288465 -0.20165199892509944
-0.13999412460374025 -0.3323408569944392 -0.20165199892509944
-0.15231212480115083 -0.335596611703683 -0.20165199892509944
-0.16608885927247194 -0.33589460512523756 -0.20165199892509944
-0.1530414919381061 -0.3341177310598384 -0.20165199892509944
-0.16754760844754366 -0.33293687363987073 -0.20165199892509944
-0.15377085907506136 -0.33263888021831617 -0.20165199892509944
-0.17840685946988252 -0.33915035983448133 -0.20165199892509944
-0.17913624150799898 -0.3376714791906367 -0.20165199892509944
-0.18132437272118715 -0.3332348670614253 -0.20165199892509944
-0.17986560864495424 -0.3361926283491145 -0.20165199892509944
-0.1805949906830707 -0.3347137477052699 -0.20165199892509944
-0.13539498550938753 -0.36194913646106824 -0.20165199892509944
-0.14592910809563783 -0.36119761129741773 -0.20165199892509944
-0.15428900225209383 -0.362925371135522 -0.20165199892509944
-0.16482312483834413 -0.36217387577419385 -0.20165199892509944
-0.1553761015658298 -0.3616857435358058 -0.20165199892509944
-0.16699735326813844 -0.3596946205747615 -0.20165199892509944
-0.15646323068188814 -0.3604461159360896 -0.20165199892509944
-0.17318298919247774 -0.3639016356122981 -0.20165199892509944
-0.18371712667988924 -0.36315014025097 -0.20165199892509944
-0.1742701034073749 -0.3626620080125819 -0.20165199892509944
-0.17753149075554994 -0.35894312521343336 -0.20165199892509944
-0.18806561334180025 -0.35819162985210523 -0.20165199892509944
-0.17535723252343324 -0.36142238041286573 -0.20165199892509944
-0.18589135510968355 -0.3606708552492152 -0.20165199892509944
-0.1764443616394916 -0.36018275281314954 -0.20165199892509944
-0.1383487234835544 -0.33519073387508497 -0.20165199892509944
-0.16261147959279207 -0.3414864744794856 -0.20165199892509944
-0.15048011643933443 -0.3383386041772853 -0.20165199892509944
-0.16444348795460847 -0.3387444820058833 -0.20165199892509944
-0.15139612062024263 -0.33696760794048414 -0.20165199892509944
-0.18687423570202974 -0.3477822448862086 -0.20165199892509944
-0.1747428427462497 -0.3446343745840083 -0.20165199892509944
-0.17749085528897432 -0.3405213560712825 -0.20165199892509944
-0.1756588618283191 -0.34326334854488477 -0.20165199892509944
-0.18870622916268495 -0.34504022261028394 -0.20165199892509944
-0.1765748660092273 -0.3418923523080836 -0.20165199892509944
-0.14120098454999117 -0.3899667467725764 -0.20165199892509944
-0.13955574734257845 -0.3900746013772975 -0.20165199892509944
-0.1417347292427936 -0.39414688011531934 -0.20165199892509944
-0.13684299094723848 -0.3818222489011775 -0.20165199892509944
-0.13519773883866457 -0.38193013330822095 -0.20165199892509944
-0.1373767505412021 -0.3860023822439204 -0.20165199892509944
-0.1362652580265918 -0.3902903701913844 -0.20165199892509944
-0.13844423992680696 -0.39436261912708387 -0.20165199892509944
-0.13791049523400453 -0.39018248578434095 -0.20165199892509944
-0.1324849824433246 -0.37367775102977857 -0.20165199892509944
-0.13083974523591188 -0.37378563543682203 -0.20165199892509944
-0.13301872713612703 -0.3778578843725215 -0.20165199892509944
-0.1281270037417331 -0.36553325315837965 -0.20165199892509944
-0.126481736731998 -0.3656411375654231 -0.20165199892509944
-0.12866074843453554 -0.36971338650112257 -0.20165199892509944
-0.12754925591992525 -0.37400137444858655 -0.20165199892509944
-0.1297282378201404 -0.378073623384286 -0.20165199892509944
-0.12919449312733797 -0.3738934900415431 -0.20165199892509944
-0.1286167304043689 -0.38236161133175 -0.20165199892509944
-0.13079572720574525 -0.38643386026744947 -0.20165199892509944
-0.13026198251294283 -0.38225372692470655 -0.20165199892509944
-0.12968424959229616 -0.39072184821491346 -0.20165199892509944
-0.1318632463936725 -0.3947940971506129 -0.20165199892509944
-0.13132948679970888 -0.3906139936101924 -0.20165199892509944
-0.13515375061082033 -0.3945783581388484 -0.20165199892509944
-0.1346199761156955 -0.39039825459842786 -0.20165199892509944
-0.1329747389082828 -0.39050610920314893 -0.20165199892509944
-0.13355250163125185 -0.382037987912942 -0.20165199892509944
-0.13190721972035555 -0.3821458723199855 -0.20165199892509944
-0.13408624632405428 -0.38621812125568494 -0.20165199892509944
-0.13415535790967134 -0.3630362357748042 -0.20165199892509944
-0.14360238118218568 -0.36352436801319227 -0.20165199892509944
-0.15057011945294527 -0.36618672868137464 -0.20165199892509944
-0.16001711292313722 -0.3666748609197627 -0.20165199892509944
-0.15180974705266145 -0.3650996293676387 -0.20165199892509944
-0.1624963681225696 -0.3645006324899684 -0.20165199892509944
-0.15304937465237764 -0.36401250025158033 -0.20165199892509944
-0.166984866095058 -0.36933725139026746 -0.20165199892509944
-0.17643185956524995 -0.36982535382633314 -0.20165199892509944
-0.16822449369477419 -0.3682501222742091 -0.20165199892509944
-0.18339961273717073 -0.3724877442968379 -0.20165199892509944
-0.18463924033688692 -0.37140061518077955 -0.20165199892509944
-0.1871184955363193 -0.36922635694866285 -0.20165199892509944
-0.1858788679366031 -0.3703134860647212 -0.20165199892509944
-0.18959775073575166 -0.36705212851886854 -0.20165199892509944
-0.18835812313603548 -0.3681392278326045 -0.20165199892509944
-0.17194336159276155 -0.36498873492603406 -0.20165199892509944
-0.1813903848652759 -0.3654768671644221 -0.20165199892509944
-0.16946410639332918 -0.36716299315815076 -0.20165199892509944
-0.17891112966584352 -0.3676511253965388 -0.20165199892509944
-0.17070373399304536 -0.3660758640420924 -0.20165199892509944
-0.13192322356747774 -0.3692838754308711 -0.20165199892509944
-0.1297442416672626 -0.36521162649517164 -0.20165199892509944
-0.1362812469725528 -0.37742837330227 -0.20165199892509944
-0.13410223527001527 -0.37335612436657056 -0.20165199892509944
-0.13951573772477296 -0.376785119975854 -0.20165199892509944
-0.13733675582455782 -0.37271287104015455 -0.20165199892509944
-0.13571948809670595 -0.37303449770336256 -0.20165199892509944
-0.1406392256741443 -0.38557287117366895 -0.20165199892509944
-0.13846024377392915 -0.3815006222379695 -0.20165199892509944
-0.14499723417805818 -0.3937173690450679 -0.20165199892509944
-0.14281823737668184 -0.3896451201093684 -0.20165199892509944
-0.14823173983143953 -0.39307411571865186 -0.20165199892509944
-0.14605275793122438 -0.3890018667829524 -0.20165199892509944
-0.1444354902033725 -0.3893234934461604 -0.20165199892509944
-0.15146623058365968 -0.39243086239223585 -0.20165199892509944
-0.14928723378228334 -0.3883586134565364 -0.20165199892509944
-0.14766998095559267 -0.3886802401197444 -0.20165199892509944
-0.15470073623704103 -0.39178760906581983 -0.20165199892509944
-0.15252175433682588 -0.38771536013012037 -0.20165199892509944
-0.15090447170781282 -0.3880369867933284 -0.20165199892509944
-0.14492924017953066 -0.38021411558513746 -0.20165199892509944
-0.14331198735283998 -0.38053574224834547 -0.20165199892509944
-0.1471082518820682 -0.3842863645208369 -0.20165199892509944
-0.14007749660061983 -0.3811789955747615 -0.20165199892509944
-0.14387373132752565 -0.38492961784725294 -0.20165199892509944
-0.1416947196249881 -0.3808573689115535 -0.20165199892509944
-0.1327843616728702 -0.3639522399557124 -0.20165199892509944
-0.14099172754334596 -0.3655275013101588 -0.20165199892509944
-0.14645711584138063 -0.36893474122409925 -0.20165199892509944
-0.1546644817118564 -0.37051000257854566 -0.20165199892509944
-0.14782811207818178 -0.36801873704319105 -0.20165199892509944
-0.1574064890866199 -0.36867799421672925 -0.20165199892509944
-0.14919910831498293 -0.36710276266460523 -0.20165199892509944
-0.16012987000989107 -0.3739172424924861 -0.20165199892509944
-0.16833723588036684 -0.3754924740446101 -0.20165199892509944
-0.16150085134553102 -0.3730012383115779 -0.20165199892509944
-0.1738026092772403 -0.37889974376087293 -0.20165199892509944
-0.18201000495003847 -0.38047497531299695 -0.20165199892509944
-0.17517362041520265 -0.37798373957996473 -0.20165199892509944
-0.18475198252247957 -0.37864296695118055 -0.20165199892509944
-0.17791561288880495 -0.3761517312181483 -0.20165199892509944
-0.1765446017508426 -0.3770677353990565 -0.20165199892509944
-0.18749397499608186 -0.37681098839168653 -0.20165199892509944
-0.18065762026356844 -0.3743197228563319 -0.20165199892509944
-0.1792866091256061 -0.3752357270372401 -0.20165199892509944
-0.18202861650036958 -0.3734037484777461 -0.20165199892509944
-0.16561386985825685 -0.3702532257688533 -0.20165199892509944
-0.17382125062989381 -0.3718284871232997 -0.20165199892509944
-0.16287187738465456 -0.3720852341306697 -0.20165199892509944
-0.17107924325513033 -0.3736604954851161 -0.20165199892509944
-0.1642428736214557 -0.3711692299497615 -0.20165199892509944
-0.1351017455582538 -0.3684322442663203 -0.20165199892509944
-0.13130549593018678 -0.36468162199382886 -0.20165199892509944
-0.14269422991322664 -0.37593348881130323 -0.20165199892509944
-0.13889798028515962 -0.3721828665388118 -0.20165199892509944
-0.14581673843907503 -0.3748734798086177 -0.20165199892509944
-0.142020488811008 -0.3711228575361262 -0.20165199892509944
-0.14045923454808382 -0.371652862037469 -0.20165199892509944
-0.15028674407052187 -0.38343473335628614 -0.20165199892509944
-0.14649049444245485 -0.3796841110837947 -0.20165199892509944
-0.1578792284254947 -0.39093597790126905 -0.20165199892509944
-0.15408299369858888 -0.3871853556287776 -0.20165199892509944
-0.1610017369513431 -0.3898759688985835 -0.20165199892509944
-0.15720548732327608 -0.38612534662609205 -0.20165199892509944
-0.15564423306035188 -0.3866553511274348 -0.20165199892509944
-0.1641242305760303 -0.38881598969822034 -0.20165199892509944
-0.16032798094796327 -0.3850653674257289 -0.20165199892509944
-0.15876672668503908 -0.38559537192707166 -0.20165199892509944
-0.16724672420071748 -0.3877559806955348 -0.20165199892509944
-0.16345048947381166 -0.38400535842304334 -0.20165199892509944
-0.16188923521088747 -0.3845353629243861 -0.20165199892509944
-0.15273549659299043 -0.377564122880746 -0.20165199892509944
-0.15117424233006624 -0.37809412738208875 -0.20165199892509944
-0.15653173131989626 -0.38131474515323743 -0.20165199892509944
-0.14805174870537904 -0.3791541065824519 -0.20165199892509944
-0.15340925259637025 -0.3823747243536006 -0.20165199892509944
-0.14961298806714204 -0.37862410208110914 -0.20165199892509944
-0.1381418655638614 -0.3671728577268611 -0.20165199892509944
-0.14885685844468263 -0.37361412307148084 -0.20165199892509944
-0.1434993843560138 -0.37039350530033216 -0.20165199892509944
-0.15181461973237184 -0.37215535899524793 -0.20165199892509944
-0.14497825009869722 -0.3696641232622157 -0.20165199892509944
-0.15957185132550386 -0.3800553586137782 -0.20165199892509944
-0.15421436233567384 -0.3768347408426295 -0.20165199892509944
-0.17028685910748628 -0.38649659415607557 -0.20165199892509944
-0.16492935521649507 -0.3832759763849269 -0.20165199892509944
-0.1732446203951755 -0.38503785988216505 -0.20165199892509944
-0.16788711650418428 -0.38181724211101636 -0.20165199892509944
-0.16640823586033968 -0.38254659434681043 -0.20165199892509944
-0.1762023518805423 -0.38357909580593214 -0.20165199892509944
-0.1708448777918735 -0.38035847803478345 -0.20165199892509944
-0.1693659822468677 -0.3810878600728999 -0.20165199892509944
-0.17916011316823152 -0.3821203615320216 -0.20165199892509944
-0.1723237286333957 -0.379629095996667 -0.20165199892509944
-0.15865098936604646 -0.37464662453060255 -0.20165199892509944
-0.16548737390088228 -0.37713786026363477 -0.20165199892509944
-0.15569322807835725 -0.37610535880451307 -0.20165199892509944
-0.16252961261319307 -0.3785965945375453 -0.20165199892509944
-0.15717210872220186 -0.3753759767663966 -0.20165199892509944
