ply
format ascii 1.0
element vertex 106
property float x
property float y
property float z
element face 0
property list uchar int vertex_indices
end_header
-0.18630399806546358 -0.11231397649173842 -0.20165199892509944
-0.18206300838040498 -0.06560551186924087 -0.20165199892509944
-0.1898284952168384 -0.13549800773983106 -0.20165199892509944
-0.1841834883217731 -0.08895974418048964 -0.20165199892509944
-0.09844998521851686 -0.21131899019603834 -0.20165199892509944
-0.10159573955582765 -0.19991674085979566 -0.20165199892509944
-0.09913651151703981 -0.18845250269298658 -0.20165199892509944
-0.09421799583481935 -0.16552398165588483 -0.20165199892509944
-0.09667725367592958 -0.1769882347238551 -0.20165199892509944
-0.0966767172341266 -0.1539540048492442 -0.20165199892509944
-0.09491447610901979 -0.14236198922519788 -0.20165199892509944
-0.18806625409173158 -0.12390600701694594 -0.20165199892509944
-0.09138999385880617 -0.11917798777942763 -0.20165199892509944
-0.09315223498391298 -0.13076998850231275 -0.20165199892509944
-0.09315250320481447 -0.10748173853283034 -0.20165199892509944
-0.18524373574303774 -0.10063683053379165 -0.20165199892509944
-0.09209222598122743 -0.09580462237720595 -0.20165199892509944
-0.18312324090050844 -0.07728259822254287 -0.20165199892509944
-0.08997173113869814 -0.07245039006595717 -0.20165199892509944
-0.09103197855996278 -0.08412750622158156 -0.20165199892509944
-0.09103197855996278 -0.06066977044468032 -0.20165199892509944
-0.18170898659276155 -0.053885480369378194 -0.20165199892509944
-0.09067798657464174 -0.04894973894481765 -0.20165199892509944
-0.1539657364611545 -0.21922423502330884 -0.20165199892509944
-0.1508199821238437 -0.20792900582676038 -0.20165199892509944
-0.1523928592924991 -0.2135766204250346 -0.20165199892509944
-0.04607997341202883 -0.21470898946647748 -0.20165199892509944
-0.047652880383006614 -0.22035660406475172 -0.20165199892509944
-0.10002283258484987 -0.21696663459663496 -0.20165199892509944
-0.047652880383006614 -0.20900787969951734 -0.20165199892509944
-0.1523928592924991 -0.20222786625747785 -0.20165199892509944
-0.10002283258484987 -0.205617865527917 -0.20165199892509944
-0.05079860491799502 -0.19760560056095228 -0.20165199892509944
-0.04922572774933962 -0.2033067401302348 -0.20165199892509944
-0.10036609573411134 -0.19418462177639112 -0.20165199892509944
-0.0495689908986011 -0.19187349637870893 -0.20165199892509944
-0.15116323037194399 -0.1964957471740733 -0.20165199892509944
-0.14870398743199495 -0.18503149410610303 -0.20165199892509944
-0.14993360145138887 -0.19076361318950757 -0.20165199892509944
-0.14624472959088472 -0.17356724103813276 -0.20165199892509944
-0.14747435851143983 -0.1792993601215373 -0.20165199892509944
-0.14378548665093568 -0.16210298797016248 -0.20165199892509944
-0.1450151006703296 -0.16783510705356702 -0.20165199892509944
-0.044650505018703025 -0.16894499024276838 -0.20165199892509944
-0.045880119038096946 -0.17467710932617292 -0.20165199892509944
-0.09544760985421327 -0.17125611564045057 -0.20165199892509944
-0.048339376879207176 -0.1861413623941432 -0.20165199892509944
-0.09790683789300111 -0.18272036870842084 -0.20165199892509944
-0.04710973305749087 -0.18040924331073865 -0.20165199892509944
-0.04587985081719546 -0.16315998693828687 -0.20165199892509944
-0.1450148473505893 -0.15631798466568098 -0.20165199892509944
-0.09544737143563417 -0.15973900815372571 -0.20165199892509944
-0.048338602018825096 -0.15159001013164625 -0.20165199892509944
-0.047109226418010276 -0.15737498363380537 -0.20165199892509944
-0.09579564137505678 -0.14815800448780164 -0.20165199892509944
-0.047457496357432884 -0.1457939948690425 -0.20165199892509944
-0.1441337267880359 -0.1505219992053996 -0.20165199892509944
-0.1423714856629291 -0.13893001338367567 -0.20165199892509944
-0.14325263602780489 -0.14472596904163465 -0.20165199892509944
-0.1889473597531238 -0.1297019924772273 -0.20165199892509944
-0.14060924453782228 -0.12733798285846815 -0.20165199892509944
-0.1414903651003757 -0.1331339981210719 -0.20165199892509944
-0.18718511862801698 -0.1181099619520198 -0.20165199892509944
-0.13884700341271547 -0.11574601193790542 -0.20165199892509944
-0.13972812397526888 -0.12154199739818679 -0.20165199892509944
-0.04393298430489687 -0.12260999342327224 -0.20165199892509944
-0.04481411976861147 -0.1284059788835536 -0.20165199892509944
-0.09227112932252077 -0.12497400304203139 -0.20165199892509944
-0.046576360893718284 -0.13999800940876111 -0.20165199892509944
-0.09403337044762758 -0.1365660037649165 -0.20165199892509944
-0.04569525523232607 -0.13420196434383497 -0.20165199892509944
-0.04481423897790102 -0.11676188370113479 -0.20165199892509944
-0.13972824318455843 -0.10989787241344558 -0.20165199892509944
-0.09227124853181032 -0.11332987805729018 -0.20165199892509944
-0.046576748323909324 -0.10506560465221511 -0.20165199892509944
-0.045695493650905174 -0.11091374417667495 -0.20165199892509944
-0.09262234969185976 -0.10164316555385695 -0.20165199892509944
-0.04604659481095461 -0.09922703167324172 -0.20165199892509944
-0.18577388925599245 -0.10647543331508742 -0.20165199892509944
-0.1391981194739261 -0.10405932923679458 -0.20165199892509944
-0.1847136269335666 -0.09479831715946303 -0.20165199892509944
-0.13813787205266145 -0.0923821832788478 -0.20165199892509944
-0.13866799576329378 -0.0982207264554988 -0.20165199892509944
-0.18365336461114076 -0.08312120100383864 -0.20165199892509944
-0.13707759482907442 -0.08070503732090102 -0.20165199892509944
-0.13760774834202913 -0.08654361029987441 -0.20165199892509944
-0.18259311718987611 -0.07144402524356948 -0.20165199892509944
-0.13601736230897096 -0.06902792116527663 -0.20165199892509944
-0.13654750092076448 -0.07486649414425002 -0.20165199892509944
-0.043926099968425315 -0.07587279936199294 -0.20165199892509944
-0.04445622367905764 -0.08171137234096633 -0.20165199892509944
-0.09050185484933046 -0.07828893324260817 -0.20165199892509944
-0.04551647110032229 -0.0933885182989131 -0.20165199892509944
-0.09156210227059511 -0.08996604939823256 -0.20165199892509944
-0.04498637719201235 -0.08754994531993972 -0.20165199892509944
-0.04445622367905764 -0.06998248955135451 -0.20165199892509944
-0.13654750092076448 -0.0631376113546382 -0.20165199892509944
-0.09050185484933046 -0.06656008025531875 -0.20165199892509944
-0.04551647110032229 -0.05820192953472243 -0.20165199892509944
-0.04498637719201235 -0.06409220954303847 -0.20165199892509944
-0.09085498256730226 -0.05480976959591018 -0.20165199892509944
-0.045339475107661766 -0.0523418988836299 -0.20165199892509944
-0.18188599748658327 -0.059745481218148336 -0.20165199892509944
-0.13637049002694276 -0.05727761050586806 -0.20165199892509944
-0.18153199060010103 -0.048025449718285665 -0.20165199892509944
-0.13619349403428224 -0.05141760965709792 -0.20165199892509944
