ply
format ascii 1.0
element vertex 120
property float x
property float y
property float z
element face 0
property list uchar int vertex_indices
end_header
-0.18064698083447603 -0.018725385869790178 0.2016519819022321
-0.18206300838040498 0.028153190408896345 0.2016519819022321
-0.18630399806546358 0.07486159542674913 0.2016519819022321
-0.1813549946074405 -0.042165419067193136 0.2016519819022321
-0.1813549946074405 0.004713902269553084 0.2016519819022321
-0.1841834883217731 0.051507392917822734 0.2016519819022321
-0.1898284952168384 0.09804529884929551 0.2016519819022321
-0.0927653710369983 0.09843001702899827 0.1850330148459577
-0.08996997280167726 -0.025509675945092302 0.2016519819022321
-0.18100098772095827 -0.03044541736965285 0.2016519819022321
-0.0903239945893207 -0.037229707444954976 0.2016519819022321
-0.0903234879498401 -0.013686379398156267 0.2016519819022321
-0.09067747993516115 -0.001966735328484636 0.2016519819022321
-0.18100098772095827 -0.007005741800118547 0.2016519819022321
-0.09138549370812563 0.021472552810858626 0.2016519819022321
-0.18170898659276155 0.016433516536902327 0.2016519819022321
-0.0910314719204822 0.009752938543509383 0.2016519819022321
-0.09103197855996278 0.033295491729926005 0.2016519819022321
-0.09209222598122743 0.044972607885550395 0.2016519819022321
-0.18312324090050844 0.03983030656452073 0.2016519819022321
-0.09421272082375673 0.06832675078983201 0.2016519819022321
-0.18524373574303774 0.06318450907344712 0.2016519819022321
-0.09315250320481447 0.05664966443653001 0.2016519819022321
-0.09315250320481447 0.08010760882968797 0.2016519819022321
-0.09491471452759889 0.09169946054096116 0.2016519819022321
-0.18806625409173158 0.08645344713802232 0.2016519819022321
-0.0984392265801349 0.11488313416118516 0.2016519819022321
-0.09667698545502809 0.10329131225223435 0.2016519819022321
-0.040711293650142234 0.09843001702899827 0.1850330148459577
-0.13601648314046053 -0.04555757900600539 0.2016519819022321
-0.044631491137019676 -0.028901835883904558 0.2016519819022321
-0.09014699859666017 -0.031369706596184835 0.2016519819022321
-0.044808516932002586 -0.03476186653499709 0.2016519819022321
-0.13530848426865724 -0.022117545808602434 0.2016519819022321
-0.18082399172829774 -0.02458538671856032 0.2016519819022321
-0.13548549516247896 -0.027977546657372575 0.2016519819022321
-0.18117799861477998 -0.036305418218422994 0.2016519819022321
-0.1358394722466388 -0.03969757815723525 0.2016519819022321
-0.13566249115513948 -0.03383757730846511 0.2016519819022321
-0.04516250891732363 -0.046481868232537374 0.2016519819022321
-0.04498551292466311 -0.04062189718608962 0.2016519819022321
-0.09050099058198122 -0.043089738096047506 0.2016519819022321
-0.09014676017808107 -0.019598027671624284 0.2016519819022321
-0.13548525674389986 -0.01620586773281203 0.2016519819022321
-0.0448082487111011 -0.02299018761043654 0.2016519819022321
-0.04516176385926394 -0.011166891063500505 0.2016519819022321
-0.04498500628518252 -0.017078509534646135 0.2016519819022321
-0.13566223783539919 -0.010346075500298601 0.2016519819022321
-0.18082399172829774 -0.012865563834954363 0.2016519819022321
-0.04533875985192446 -0.00530706902866469 0.2016519819022321
-0.09050048394250063 -0.007826557363320451 0.2016519819022321
-0.13601622982072023 0.0013735983716954177 0.2016519819022321
-0.18117799861477998 -0.0011459197652827317 0.2016519819022321
-0.1358392487292209 -0.004486223663140398 0.2016519819022321
-0.04604674382256655 0.018132219110678572 0.2016519819022321
-0.09120846791314272 0.015612700973700423 0.2016519819022321
-0.04586974782990603 0.012272397075842757 0.2016519819022321
-0.1367242435936847 0.024812916313361067 0.2016519819022321
-0.18188599748658327 0.022293398176382918 0.2016519819022321
-0.13654724760102419 0.018953034673880476 0.2016519819022321
-0.18153199060010103 0.010573754106711287 0.2016519819022321
-0.13619322581338075 0.007233420406531233 0.2016519819022321
-0.13637023670720247 0.013093242441367049 0.2016519819022321
-0.045515726042262596 0.000552723203848738 0.2016519819022321
-0.04569272203492312 0.006412604843329329 0.2016519819022321
-0.09085447592782167 0.0038930867063511794 0.2016519819022321
-0.09120876593636659 0.027384022270392317 0.2016519819022321
-0.13654750092076448 0.030724326168249983 0.2016519819022321
-0.04586998624848513 0.024043688570212263 0.2016519819022321
-0.04551647110032229 0.035866597686957255 0.2016519819022321
-0.0456932584767261 0.029955158029745955 0.2016519819022321
-0.13707759482907442 0.03656289914722337 0.2016519819022321
-0.18259311718987611 0.03399173358554734 0.2016519819022321
-0.04604659481095461 0.04170520046825303 0.2016519819022321
-0.09156210227059511 0.039134034906577006 0.2016519819022321
-0.13813787205266145 0.04823998550052537 0.2016519819022321
-0.18365336461114076 0.04566884974117173 0.2016519819022321
-0.13760774834202913 0.04240144232387437 0.2016519819022321
-0.0481671194558063 0.06505940297717942 0.2016519819022321
-0.09368262691544679 0.0624882374155034 0.2016519819022321
-0.04763699574517397 0.05922080019588365 0.2016519819022321
-0.14025838179635194 0.07159421781177415 0.2016519819022321
-0.18577388925599245 0.06902305225009812 0.2016519819022321
-0.13972824318455843 0.06575564483280076 0.2016519819022321
-0.1847136269335666 0.057345936094473735 0.2016519819022321
-0.13866799576329378 0.05407855847949876 0.2016519819022321
-0.1391981194739261 0.05991710165614976 0.2016519819022321
-0.046576748323909324 0.04754368404025926 0.2016519819022321
-0.04710684223221926 0.05338228682155503 0.2016519819022321
-0.09262234969185976 0.050811151062201396 0.2016519819022321
-0.09368262691544679 0.07421717980975999 0.2016519819022321
-0.13972824318455843 0.07748464683170213 0.2016519819022321
-0.04763699574517397 0.07094977239246263 0.2016519819022321
-0.046576748323909324 0.0827306006299962 0.2016519819022321
-0.04710684223221926 0.0768402014123906 0.2016519819022321
-0.14060937864827303 0.08328054288501634 0.2016519819022321
-0.18718511862801698 0.08065755108470811 0.2016519819022321
-0.047457853985301536 0.08852655628795518 0.2016519819022321
-0.09403363866852907 0.08590356448764695 0.2016519819022321
-0.14237161977337984 0.09487239459628953 0.2016519819022321
-0.1889473597531238 0.0922494027959813 0.2016519819022321
-0.14149048430966524 0.08907643893833055 0.2016519819022321
-0.05098236603783755 0.11171025971050157 0.2016519819022321
-0.09755812091874269 0.10908723810787095 0.2016519819022321
-0.050101260376445335 0.10591436365718736 0.2016519819022321
-0.14589611692475465 0.11805606821651353 0.2016519819022321
-0.14501498146104005 0.11226011255855455 0.2016519819022321
-0.14325274033593324 0.10066832045192613 0.2016519819022321
-0.14413386089848665 0.10646421650524034 0.2016519819022321
-0.048338989449016136 0.09432245234126939 0.2016519819022321
-0.049220124912730735 0.10011837819690599 0.2016519819022321
-0.09579587979363588 0.09749535659427537 0.2016519819022321
-0.09755800170945314 0.12073124388332261 0.2016519819022321
-0.1450148473505893 0.1239041183340062 0.2016519819022321
-0.05010108156251101 0.11755830982799424 0.2016519819022321
-0.049219886494151634 0.12340630034084214 0.2016519819022321
-0.0927653710369983 0.024312028680991072 0.1850330148459577
-0.06673834724473146 0.09843001702899827 0.1850330148459577
-0.06673834724473146 0.024312028680991072 0.1850330148459577
-0.040711293650142234 0.024312028680991072 0.1850330148459577
