ply
format ascii 1.0
element vertex 359
property float x
property float y
property float z
element face 0
property list uchar int vertex_indices
end_header
0.1453729768271527 0.390962967668723 -0.20165199892509944
0.13054200010252806 0.3939129803525914 -0.20165199892509944
0.1154509683127484 0.3949020002233495 -0.20165199892509944
0.004769017266758402 0.3019575569974889 -0.20165199892509944
0.003294010924824198 0.3093735072957982 -0.20165199892509944
0.0008630056853375038 0.31653297880763903 -0.20165199892509944
0.004863490628727396 0.32464499214763537 -0.20165199892509944
0.0015195210452160438 0.33142651060695544 -0.20165199892509944
0.0065444906230053505 0.338946947847556 -0.20165199892509944
0.0023440320963940223 0.34523398617381945 -0.20165199892509944
0.008307506608494242 0.35203451851482287 -0.20165199892509944
0.003321518468388041 0.3577190134870519 -0.20165199892509944
0.010122021007069071 0.3636829946386327 -0.20165199892509944
0.0044374962325176796 0.3686689827787389 -0.20165199892509944
0.01195852951956602 0.37369353512401476 -0.20165199892509944
0.00567202763510557 0.3778935168134679 -0.20165199892509944
0.01378350453329893 0.3818940017568578 -0.20165199892509944
0.007002045678623637 0.3852384779798497 -0.20165199892509944
0.015567024516590556 0.38814652899379626 -0.20165199892509944
0.008407016562946757 0.3905769679891576 -0.20165199892509944
0.15253304438544127 0.3885325286733617 -0.20165199892509944
0.01727851228667112 0.39234102705593005 -0.20165199892509944
0.009863009023197611 0.39381600359554186 -0.20165199892509944
0.13795750336600157 0.3924380634176244 -0.20165199892509944
0.01888831453276487 0.39440752009029284 -0.20165199892509944
0.011342813539036234 0.3949020002233495 -0.20165199892509944
0.12299649910879942 0.39440752009029284 -0.20165199892509944
0.011342813539036234 0.3949020002233495 -0.19254348533142573
0.1154509683127484 0.3949020002233495 -0.19254348533142573
0.11668248968077513 0.3018787596570958 -0.20165199892509944
0.004031499194630106 0.30566550234432116 -0.20165199892509944
0.11520751314116331 0.3092947695600499 -0.20165199892509944
0.11594500141096922 0.30558676460857287 -0.20165199892509944
0.11399199562025877 0.31287450531597033 -0.20165199892509944
0.002078523206242045 0.3129532430517186 -0.20165199892509944
0.11156099038077208 0.3200340364324559 -0.20165199892509944
0.11277650790167662 0.3164543006765355 -0.20165199892509944
0.00286324815703245 0.3205890152799596 -0.20165199892509944
0.11356126265478941 0.3240900133001317 -0.20165199892509944
0.11188926296187254 0.32748074272746935 -0.20165199892509944
0.003191520738132914 0.3280357811796178 -0.20165199892509944
0.1085452635760388 0.3342623207914342 -0.20165199892509944
0.11021726326895567 0.3308715317594518 -0.20165199892509944
0.004032005834110697 0.3351867888319005 -0.20165199892509944
0.11105774836493346 0.3380225394117345 -0.20165199892509944
0.10895751910162779 0.3411660287725438 -0.20165199892509944
0.004444261359699686 0.34209043720836535 -0.20165199892509944
0.10475700097037169 0.34745300749416247 -0.20165199892509944
0.10685726003599974 0.34430951813335314 -0.20165199892509944
0.005325754451282938 0.34863425234432116 -0.20165199892509944
0.10773875312758299 0.3508532736646642 -0.20165199892509944
0.10524575905752989 0.3536955211507787 -0.20165199892509944
0.0058145125384411415 0.35487676600093737 -0.20165199892509944
0.1002597411151013 0.35938007572765246 -0.20165199892509944
0.10275276498747679 0.3565377686368932 -0.20165199892509944
0.006721754836567362 0.36070103386516467 -0.20165199892509944
0.10366000728560301 0.3623619768964757 -0.20165199892509944
0.10081772999716612 0.3648550007688512 -0.20165199892509944
0.0072797437186321815 0.36617601851100817 -0.20165199892509944
0.0951332648272595 0.3698409889089574 -0.20165199892509944
0.09797551231337401 0.3673480246412267 -0.20165199892509944
0.00819801287604185 0.3711812589513768 -0.20165199892509944
0.09889375166846129 0.37235326508159533 -0.20165199892509944
0.09575053052855345 0.3744532559263219 -0.20165199892509944
0.008815248775013407 0.3757935259687413 -0.20165199892509944
0.08946399884177061 0.378653237615775 -0.20165199892509944
0.09260724978400084 0.37655324677104846 -0.20165199892509944
0.00972776608420225 0.3798937890874852 -0.20165199892509944
0.09351979689551207 0.38065350988979235 -0.20165199892509944
0.09012900786352965 0.38232571819896594 -0.20165199892509944
0.010392775105961283 0.38356626967067614 -0.20165199892509944
0.08334751920653197 0.3856701944219579 -0.20165199892509944
0.08673824863386961 0.38399804571742907 -0.20165199892509944
0.011284520196445902 0.3866925332891454 -0.20165199892509944
0.08763002352667662 0.38712424973125353 -0.20165199892509944
0.08405001954985472 0.388339528833579 -0.20165199892509944
0.15611301855994078 0.38731724957103625 -0.20165199892509944
0.011987020539768656 0.3893617484914769 -0.20165199892509944
0.07689001159621092 0.3907700274335851 -0.20165199892509944
0.14895301060629698 0.3897478077756871 -0.20165199892509944
0.08046998577071043 0.3895548079359044 -0.20165199892509944
0.01284276442480894 0.3914589975225438 -0.20165199892509944
0.08132578926039549 0.39165199736232653 -0.20165199892509944
0.07761802272749754 0.39238948563213244 -0.20165199892509944
0.14166526989889952 0.3917004559385289 -0.20165199892509944
0.013570745753773173 0.39307851532573596 -0.20165199892509944
0.07020248966170164 0.39386452177638903 -0.20165199892509944
0.13424973683310362 0.3931754920827855 -0.20165199892509944
0.0739102263922772 0.39312697390193835 -0.20165199892509944
0.014375646876820048 0.39411176184291735 -0.20165199892509944
0.07471512751532408 0.39416022041911974 -0.20165199892509944
0.07094242172194334 0.39440752009029284 -0.20165199892509944
0.12676926450682494 0.39416022041911974 -0.20165199892509944
0.01511554913473936 0.39465476015682116 -0.20165199892509944
0.06339689092589232 0.3949020002233495 -0.20165199892509944
0.11922373371077391 0.39465476015682116 -0.20165199892509944
0.06716965632391783 0.39465476015682116 -0.20165199892509944
0.011342813539036234 0.3949020002233495 -0.1970977421282626
0.06339689092589232 0.3949020002233495 -0.19254348533142573
0.1154509683127484 0.3949020002233495 -0.1970977421282626
0.06339689092589232 0.3949020002233495 -0.1970977421282626
0.060725768374927956 0.3019180987226476 -0.20165199892509944
0.00440024332953306 0.30381149986858264 -0.20165199892509944
0.0036627550597271522 0.3075195048200597 -0.20165199892509944
0.05925076203299375 0.30933416823024645 -0.20165199892509944
0.11557625727606627 0.3074407670843114 -0.20165199892509944
0.059619506167896706 0.30748016575450793 -0.20165199892509944
0.060357024240025 0.3037721011983861 -0.20165199892509944
0.05998828010512205 0.3056261632787694 -0.20165199892509944
0.11631374554587218 0.30373276213283434 -0.20165199892509944
0.05864303307486387 0.31112403610820666 -0.20165199892509944
0.11459975438071104 0.3110846374380101 -0.20165199892509944
0.0026862521643719276 0.3111633751737584 -0.20165199892509944
0.0014707644457897743 0.3147431109296788 -0.20165199892509944
0.056212027835377175 0.3182835076200475 -0.20165199892509944
0.11216874914122435 0.3182441685544957 -0.20165199892509944
0.05681975679350706 0.3164935801374425 -0.20165199892509944
0.0580352743144116 0.3129138443815221 -0.20165199892509944
0.05742751555395933 0.3147037122594823 -0.20165199892509944
0.1133842368598065 0.31466437319393054 -0.20165199892509944
0.11256112651778075 0.32206196526164904 -0.20165199892509944
0.0018631418223461708 0.3185609672414769 -0.20165199892509944
0.057212134170063454 0.32031149605388537 -0.20165199892509944
0.003863384294041117 0.3226170037137975 -0.20165199892509944
0.05921234683943601 0.32436747292156115 -0.20165199892509944
0.05821227030707212 0.32233948448772326 -0.20165199892509944
0.05837639169646116 0.32606286743755236 -0.20165199892509944
0.11272527770949217 0.32578534821147814 -0.20165199892509944
0.004027505683430155 0.3263403866636266 -0.20165199892509944
0.0023555357928356727 0.3297311160909642 -0.20165199892509944
0.05503239231062742 0.33284438589687243 -0.20165199892509944
0.10938124852133604 0.332566926275443 -0.20165199892509944
0.05586837725592466 0.3311489913808812 -0.20165199892509944
0.05754040675116392 0.3277582023488988 -0.20165199892509944
0.05670439200354429 0.32945359686489 -0.20165199892509944
0.1110532780165753 0.32917613724346056 -0.20165199892509944
0.10980152087164732 0.33614237049693957 -0.20165199892509944
0.0027757485385021766 0.33330667952175036 -0.20165199892509944
0.05628864960623594 0.33472455481166735 -0.20165199892509944
0.005288263129719218 0.33706689814205065 -0.20165199892509944
0.058801104592808205 0.33848477343196764 -0.20165199892509944
0.05754487709952207 0.3366046641218175 -0.20165199892509944
0.05775101976347776 0.3400564883100499 -0.20165199892509944
0.11000763373328062 0.33959425428981677 -0.20165199892509944
0.005494405793674906 0.3405187223302831 -0.20165199892509944
0.0033941169257244667 0.3436622116910924 -0.20165199892509944
0.053550531434544045 0.34634352663631335 -0.20165199892509944
0.10580714540434691 0.3458812330114354 -0.20165199892509944
0.05460061626387449 0.3447717521535863 -0.20165199892509944
0.1559635301108441 0.3485624883520116 -0.20165199892509944
0.15701358513785216 0.3469907734739293 -0.20165199892509944
0.05670090513182493 0.34162826279277697 -0.20165199892509944
0.0556507905001721 0.34319997767085925 -0.20165199892509944
0.10790737466765257 0.3427377436506261 -0.20165199892509944
0.10624786214781615 0.34915311077709094 -0.20165199892509944
0.15745436148596617 0.35026259163494006 -0.20165199892509944
0.0038348634715160927 0.3469341490613927 -0.20165199892509944
0.0550413926119885 0.34804357031459704 -0.20165199892509944
0.006816615628727396 0.3503344152318944 -0.20165199892509944
0.05802311496687742 0.35144383648509875 -0.20165199892509944
0.05653228359175535 0.3497437332021703 -0.20165199892509944
0.15620784954977843 0.3516837451803197 -0.20165199892509944
0.05677666263533445 0.35286504963512316 -0.20165199892509944
0.10649224119139525 0.35227436760539904 -0.20165199892509944
0.15371488528204771 0.3545259926664342 -0.20165199892509944
0.15496139721823546 0.35310489872569933 -0.20165199892509944
0.007061024474628886 0.35345561245555773 -0.20165199892509944
0.004568000602253397 0.356297919546317 -0.20165199892509944
0.05179064469290586 0.3585494850027074 -0.20165199892509944
0.10150628285361143 0.35795886257762805 -0.20165199892509944
0.05303712682677122 0.3571283910619725 -0.20165199892509944
0.1487288971419415 0.360210547243308 -0.20165199892509944
0.14997534947348448 0.35878939369792834 -0.20165199892509944
0.15246837334585997 0.35594714621181384 -0.20165199892509944
0.15122186140967223 0.3573682401525487 -0.20165199892509944
0.05553012089682432 0.354286143575858 -0.20165199892509944
0.05428363876295896 0.3557072375165929 -0.20165199892509944
0.10399927692366454 0.3551166746961583 -0.20165199892509944
0.10195990400267455 0.3608710263120641 -0.20165199892509944
0.15042900042486998 0.3617014978277196 -0.20165199892509944
0.005021651553638895 0.3592099640714635 -0.20165199892509944
0.053490777778156716 0.36004055479640856 -0.20165199892509944
0.008421858119495829 0.3621919844495763 -0.20165199892509944
0.05689098434401365 0.3630225155698766 -0.20165199892509944
0.05519088106108518 0.3615315053808202 -0.20165199892509944
0.14900790648413512 0.36294800976390734 -0.20165199892509944
0.055469920205601174 0.36426896790141955 -0.20165199892509944
0.10223891334486815 0.3636085484373082 -0.20165199892509944
0.14616559939337584 0.36544097403163806 -0.20165199892509944
0.14758675293875548 0.3641945217000951 -0.20165199892509944
0.00870089726401182 0.36492944697017565 -0.20165199892509944
0.005858649777897318 0.3674225304471959 -0.20165199892509944
0.04978539543104978 0.3692550156461705 -0.20165199892509944
0.09655438857031676 0.3685945365774144 -0.20165199892509944
0.05120651917410703 0.3680085037099828 -0.20165199892509944
0.1404811640257916 0.37042702177638903 -0.20165199892509944
0.14190225796652647 0.3691805098402013 -0.20165199892509944
0.14474450545264098 0.3666874859678258 -0.20165199892509944
0.1433234115119061 0.36793399790401354 -0.20165199892509944
0.05404873685789915 0.3655154798376073 -0.20165199892509944
0.0526276131148419 0.36676199177379504 -0.20165199892509944
0.09939660625410887 0.36610145310039416 -0.20165199892509944
0.09701352314902159 0.37109715679759875 -0.20165199892509944
0.1423613925452313 0.3716831300603856 -0.20165199892509944
0.006317724751957377 0.36992515066738024 -0.20165199892509944
0.05166565375281187 0.3705111239301671 -0.20165199892509944
0.010078271197803934 0.3724373672353734 -0.20165199892509944
0.05542614059401365 0.37302340010280505 -0.20165199892509944
0.053545882272251565 0.3717672322141637 -0.20165199892509944
0.14078979687643858 0.3727331254827489 -0.20165199892509944
0.05385451512289854 0.37407339552516833 -0.20165199892509944
0.09732215599966856 0.3734032605039586 -0.20165199892509944
0.13764648632956358 0.37483311632747546 -0.20165199892509944
0.13921814160300108 0.3737831209051122 -0.20165199892509944
0.01038687424612852 0.37474353054637805 -0.20165199892509944
0.007243623303898295 0.3768435213911046 -0.20165199892509944
0.04756801323843809 0.37827337721462145 -0.20165199892509944
0.09103562431288573 0.37760324219341174 -0.20165199892509944
0.04913960890723081 0.37722338179225817 -0.20165199892509944
0.13135998444510313 0.3790330980169286 -0.20165199892509944
0.13293160991621825 0.3779831025945653 -0.20165199892509944
0.13607486085844847 0.37588311174983874 -0.20165199892509944
0.13450323538733336 0.3769331667768468 -0.20165199892509944
0.05228285984946104 0.3751233909475316 -0.20165199892509944
0.050711234378345925 0.3761733863698949 -0.20165199892509944
0.09417890505743834 0.3755032513486852 -0.20165199892509944
0.09149189786864134 0.3796534035551061 -0.20165199892509944
0.13338788347197386 0.38003326395625964 -0.20165199892509944
0.00769989685965391 0.37889362314815417 -0.20165199892509944
0.049595912265308816 0.37927348354930773 -0.20165199892509944
0.01175563530875059 0.3808938954221715 -0.20165199892509944
0.053651650714405495 0.38127375582332507 -0.20165199892509944
0.05162375168753477 0.3802736494886388 -0.20165199892509944
0.13169248895598265 0.3808693979131688 -0.20165199892509944
0.051956256198414284 0.38210983017558947 -0.20165199892509944
0.09182440237952086 0.38148964384670153 -0.20165199892509944
0.1283017893309674 0.3825416062223424 -0.20165199892509944
0.12999712424231383 0.381705531870078 -0.20165199892509944
0.012088110017307719 0.38273019531841174 -0.20165199892509944
0.00869741039229246 0.3844024036275853 -0.20165199892509944
0.045174767541416604 0.3854543660032262 -0.20165199892509944
0.08504291372252318 0.3848341200696935 -0.20165199892509944
0.04687013225508543 0.384618232046317 -0.20165199892509944
0.12152024106932494 0.3858861420499791 -0.20165199892509944
0.12321563558531615 0.38505000809306994 -0.20165199892509944
0.12660639481497618 0.3833777401792516 -0.20165199892509944
0.12491103010130736 0.38421387413616076 -0.20165199892509944
0.05026092128706785 0.3829460237371434 -0.20165199892509944
0.04856552677107664 0.3837821576940526 -0.20165199892509944
0.08843364314986082 0.3831619117605199 -0.20165199892509944
0.0854887564654431 0.3863972518789281 -0.20165199892509944
0.12366150813055846 0.38661313990230456 -0.20165199892509944
0.009143253135212382 0.38596547583217516 -0.20165199892509944
0.047316034602650124 0.3861814234601964 -0.20165199892509944
0.013425757455357035 0.3874195311414708 -0.20165199892509944
0.05159853892279478 0.3876354191648473 -0.20165199892509944
0.04945727186156126 0.38690842131252184 -0.20165199892509944
0.1218715210433087 0.3872207496511449 -0.20165199892509944
0.049808522033222634 0.38824296930904284 -0.20165199892509944
0.08584000663710448 0.38773185948009387 -0.20165199892509944
0.11829154686880919 0.38843596914882556 -0.20165199892509944
0.15432303147269102 0.3879248593198766 -0.20165199892509944
0.12008150415373656 0.38782841900463 -0.20165199892509944
0.013777007627018412 0.3887541387426366 -0.20165199892509944
0.010197003650196513 0.38996935824031725 -0.20165199892509944
0.04264848427725645 0.39067346790904894 -0.20165199892509944
0.07868002848578307 0.39016235808009997 -0.20165199892509944
0.04443850116682859 0.3900658581602086 -0.20165199892509944
0.111131509112843 0.39086652735347643 -0.20165199892509944
0.14716302351904723 0.3903553579198827 -0.20165199892509944
0.11292152600241515 0.3902589176046361 -0.20165199892509944
0.15074299769354674 0.389140138422202 -0.20165199892509944
0.11650152997923705 0.38904363850231066 -0.20165199892509944
0.1147115130896649 0.389651248251151 -0.20165199892509944
0.04801850514365049 0.38885063866252795 -0.20165199892509944
0.046228518056400734 0.3894582484113683 -0.20165199892509944
0.08226000266028258 0.3889471385824193 -0.20165199892509944
0.07910790042830321 0.3912109825956334 -0.20165199892509944
0.1133493681426129 0.3913074825155248 -0.20165199892509944
0.010624875592716654 0.3910179827558507 -0.20165199892509944
0.04486637310934873 0.39111448267574206 -0.20165199892509944
0.015060653256901224 0.39189995268459216 -0.20165199892509944
0.0493021507735333 0.3919965122091283 -0.20165199892509944
0.04708426194144102 0.3915554974424352 -0.20165199892509944
-0.01474512620019106 0.39268548229808703 -0.20165199892509944
0.11149551467848631 0.3916762564527501 -0.20165199892509944
0.1435191531653485 0.39133174160594836 -0.20165199892509944
0.04744826750708433 0.39236522654170886 -0.20165199892509944
0.07947187619162413 0.3920207712995519 -0.20165199892509944
0.10778774814558836 0.392413744722556 -0.20165199892509944
0.13981138663245055 0.39206922987575427 -0.20165199892509944
0.10964160160971495 0.39204503038997546 -0.20165199892509944
0.015424629020222147 0.3927097413885106 -0.20165199892509944
0.011716892289646586 0.3934472296583165 -0.20165199892509944
0.04003276424361082 0.39384026268596545 -0.20165199892509944
0.07205637292815062 0.39349580744380847 -0.20165199892509944
0.04188664751005979 0.3934714887487401 -0.20165199892509944
0.10037224488211485 0.3938887808668126 -0.20165199892509944
0.13239588336897704 0.39354426602001086 -0.20165199892509944
0.10222609834624144 0.3935200069295873 -0.20165199892509944
0.13610364990187498 0.3928067181455602 -0.20165199892509944
0.10593386487913939 0.39278251865978137 -0.20165199892509944
0.1040800114150128 0.39315123299236193 -0.20165199892509944
0.04559441404295774 0.3927340004789342 -0.20165199892509944
0.04374050097418638 0.39310277441615954 -0.20165199892509944
0.07576413946104857 0.392758199964713 -0.20165199892509944
0.07245882348967406 0.394012341295432 -0.20165199892509944
0.10262857871008726 0.39403665999050036 -0.20165199892509944
0.012119313048847636 0.3939638827192296 -0.20165199892509944
0.04228906826926084 0.3939881418096532 -0.20165199892509944
0.016631980704792458 0.3942596409666051 -0.20165199892509944
0.04680170612288328 0.3942839000570287 -0.20165199892509944
0.044545402097233254 0.39413602093334094 -0.20165199892509944
-0.009025106859675924 0.394531140123557 -0.20165199892509944
-0.011281440687648336 0.3943832013952245 -0.20165199892509944
-0.015794078541270774 0.39408750275249377 -0.20165199892509944
-0.013537774515620748 0.3942353818761815 -0.20165199892509944
0.10074218110991331 0.39416022041911974 -0.20165199892509944
0.1286556025023541 0.39403665999050036 -0.20165199892509944
0.044915338325031716 0.39440752009029284 -0.20165199892509944
0.07282875971747252 0.3942839000570287 -0.20165199892509944
0.09696947531653258 0.39440752009029284 -0.20165199892509944
0.12488289670897337 0.3942839000570287 -0.20165199892509944
0.09885584311438414 0.3942839000570287 -0.20165199892509944
-0.010911474657527486 0.39465476015682116 -0.20165199892509944
0.017001946734913308 0.394531140123557 -0.20165199892509944
-0.014684240055553 0.3949020002233495 -0.20165199892509944
0.013229181336887797 0.39477832058544055 -0.20165199892509944
-0.012797842455379049 0.39477832058544055 -0.20165199892509944
0.037369867133625466 0.3949020002233495 -0.20165199892509944
0.06528328852606627 0.39477832058544055 -0.20165199892509944
0.03925623493147703 0.39477832058544055 -0.20165199892509944
0.08942394452048155 0.3949020002233495 -0.20165199892509944
0.11733736591292235 0.39477832058544055 -0.20165199892509944
0.09131031231833311 0.39477832058544055 -0.20165199892509944
0.12111013131094786 0.394531140123557 -0.20165199892509944
0.09508307771635863 0.394531140123557 -0.20165199892509944
0.09319670991850706 0.39465476015682116 -0.20165199892509944
0.043028940724857766 0.394531140123557 -0.20165199892509944
0.04114263253165098 0.39465476015682116 -0.20165199892509944
0.06905605392409178 0.394531140123557 -0.20165199892509944
-0.014684240055553 0.3949020002233495 -0.19482062118042476
0.011342813539036234 0.3949020002233495 -0.19482062118042476
-0.014684240055553 0.3949020002233495 -0.1970977421282626
0.011342813539036234 0.3949020002233495 -0.1993748779772616
-0.014684240055553 0.3949020002233495 -0.1993748779772616
0.037369867133625466 0.3949020002233495 -0.19254348533142573
0.08942394452048155 0.3949020002233495 -0.19254348533142573
0.1154509683127484 0.3949020002233495 -0.19482062118042476
0.08942394452048155 0.3949020002233495 -0.1970977421282626
0.08942394452048155 0.3949020002233495 -0.19482062118042476
0.1154509683127484 0.3949020002233495 -0.1993748779772616
0.08942394452048155 0.3949020002233495 -0.1993748779772616
0.037369867133625466 0.3949020002233495 -0.1993748779772616
0.06339689092589232 0.3949020002233495 -0.1993748779772616
0.037369867133625466 0.3949020002233495 -0.19482062118042476
0.06339689092589232 0.3949020002233495 -0.19482062118042476
0.037369867133625466 0.3949020002233495 -0.1970977421282626
-0.014684240055553 0.3949020002233495 -0.19254348533142573
