ply
format ascii 1.0
element vertex 120
property float x
property float y
property float z
element face 0
property list uchar int vertex_indices
end_header
0.1154509683127484 0.3949020002233495 -0.18343498663891322
0.011342813539036234 0.3949020002233495 -0.18343498663891322
0.06339689092589232 0.3949020002233495 -0.18798922853458888
0.1154509683127484 0.3949020002233495 -0.18798922853458888
0.011342813539036234 0.3949020002233495 -0.18798922853458888
0.06339689092589232 0.3949020002233495 -0.18343498663891322
0.1154509683127484 0.3949020002233495 -0.09131798999298579
0.14895301060629698 0.3897478077756871 -0.10082597391594417
0.15253304438544127 0.3885325286733617 -0.10082597391594417
0.15611301855994078 0.38731724957103625 -0.10082597391594417
0.1453729768271527 0.390962967668723 -0.10082597391594417
0.13424973683310362 0.3931754920827855 -0.10082597391594417
0.13795750336600157 0.3924380634176244 -0.10082597391594417
0.14166526989889952 0.3917004559385289 -0.10082597391594417
0.13054200010252806 0.3939129803525914 -0.10082597391594417
0.11922373371077391 0.39465476015682116 -0.10082597391594417
0.12299649910879942 0.39440752009029284 -0.10082597391594417
0.12676926450682494 0.39416022041911974 -0.10082597391594417
0.11922373371077391 0.39465476015682116 -0.08716324822891719
0.11922373371077391 0.39465476015682116 -0.09171751992691524
0.11922373371077391 0.39465476015682116 -0.09627173202026851
0.037369867133625466 0.3949020002233495 -0.1902663643835879
0.06339689092589232 0.3949020002233495 -0.1902663643835879
0.08942394452048155 0.3949020002233495 -0.18571210758675105
0.1154509683127484 0.3949020002233495 -0.18571210758675105
0.08942394452048155 0.3949020002233495 -0.18798922853458888
0.1154509683127484 0.3949020002233495 -0.1902663643835879
0.08942394452048155 0.3949020002233495 -0.1902663643835879
0.06339689092589232 0.3949020002233495 -0.18571210758675105
0.08942394452048155 0.3949020002233495 -0.18343498663891322
0.011342813539036234 0.3949020002233495 -0.1902663643835879
0.037369867133625466 0.3949020002233495 -0.18798922853458888
0.011342813539036234 0.3949020002233495 -0.18571210758675105
0.037369867133625466 0.3949020002233495 -0.18343498663891322
0.037369867133625466 0.3949020002233495 -0.18571210758675105
-0.014684240055553 0.3949020002233495 -0.18343498663891322
-0.014684240055553 0.3949020002233495 -0.18571210758675105
-0.014684240055553 0.3949020002233495 -0.1902663643835879
-0.014684240055553 0.3949020002233495 -0.18798922853458888
0.1154509683127484 0.32078404167766467 -0.1373764808653689
0.1154509683127484 0.32078404167766467 -0.09131798999298579
0.1154509683127484 0.3949020002233495 -0.1373764808653689
0.1154509683127484 0.3949020002233495 -0.045259484219441475
0.1154509683127484 0.32078404167766467 -0.045259484219441475
0.08942394452048155 0.32078404167766467 -0.18343498663891322
0.06339689092589232 0.32078404167766467 -0.18343498663891322
0.011342813539036234 0.32078404167766467 -0.18343498663891322
0.037369867133625466 0.32078404167766467 -0.18343498663891322
-0.014684240055553 0.32078404167766467 -0.18343498663891322
0.1154509683127484 0.32078404167766467 -0.18343498663891322
0.14716302351904723 0.3903553579198827 -0.151239001321683
0.14895301060629698 0.3897478077756871 -0.151239001321683
0.15074299769354674 0.389140138422202 -0.05041299121368891
0.15253304438544127 0.3885325286733617 -0.05041299121368891
0.15074299769354674 0.389140138422202 -0.10082597391594417
0.15253304438544127 0.3885325286733617 -0.151239001321683
0.15074299769354674 0.389140138422202 -0.151239001321683
0.15432303147269102 0.3879248593198766 -0.151239001321683
0.15611301855994078 0.38731724957103625 -0.151239001321683
0.15432303147269102 0.3879248593198766 -0.05041299121368891
0.15611301855994078 0.38731724957103625 -0.05041299121368891
0.15432303147269102 0.3879248593198766 -0.10082597391594417
0.14895301060629698 0.3897478077756871 -0.05041299121368891
0.1453729768271527 0.390962967668723 -0.151239001321683
0.14716302351904723 0.3903553579198827 -0.10082597391594417
0.1453729768271527 0.390962967668723 -0.05041299121368891
0.14716302351904723 0.3903553579198827 -0.05041299121368891
0.13239588336897704 0.39354426602001086 -0.151239001321683
0.13424973683310362 0.3931754920827855 -0.151239001321683
0.13610364990187498 0.3928067181455602 -0.05041299121368891
0.13795750336600157 0.3924380634176244 -0.05041299121368891
0.13610364990187498 0.3928067181455602 -0.10082597391594417
0.13795750336600157 0.3924380634176244 -0.151239001321683
0.13610364990187498 0.3928067181455602 -0.151239001321683
0.1435191531653485 0.39133174160594836 -0.10082597391594417
0.1435191531653485 0.39133174160594836 -0.05041299121368891
0.1435191531653485 0.39133174160594836 -0.151239001321683
0.13981138663245055 0.39206922987575427 -0.151239001321683
0.14166526989889952 0.3917004559385289 -0.151239001321683
0.13981138663245055 0.39206922987575427 -0.05041299121368891
0.14166526989889952 0.3917004559385289 -0.05041299121368891
0.13981138663245055 0.39206922987575427 -0.10082597391594417
0.13424973683310362 0.3931754920827855 -0.05041299121368891
0.13054200010252806 0.3939129803525914 -0.151239001321683
0.13239588336897704 0.39354426602001086 -0.10082597391594417
0.13054200010252806 0.3939129803525914 -0.05041299121368891
0.13239588336897704 0.39354426602001086 -0.05041299121368891
0.11733736591292235 0.39477832058544055 -0.151239001321683
0.11922373371077391 0.39465476015682116 -0.151239001321683
0.12111013131094786 0.394531140123557 -0.05041299121368891
0.12299649910879942 0.39440752009029284 -0.05041299121368891
0.12111013131094786 0.394531140123557 -0.10082597391594417
0.12299649910879942 0.39440752009029284 -0.151239001321683
0.12111013131094786 0.394531140123557 -0.151239001321683
0.1286556025023541 0.39403665999050036 -0.10082597391594417
0.1286556025023541 0.39403665999050036 -0.05041299121368891
0.1286556025023541 0.39403665999050036 -0.151239001321683
0.12488289670897337 0.3942839000570287 -0.151239001321683
0.12676926450682494 0.39416022041911974 -0.151239001321683
0.12488289670897337 0.3942839000570287 -0.05041299121368891
0.12676926450682494 0.39416022041911974 -0.05041299121368891
0.12488289670897337 0.3942839000570287 -0.10082597391594417
0.11733736591292235 0.39477832058544055 -0.1352991099833346
0.11733736591292235 0.39477832058544055 -0.13757623093117244
0.12111013131094786 0.394531140123557 -0.03902737157333857
0.12111013131094786 0.394531140123557 -0.041304477620015205
0.11922373371077391 0.39465476015682116 -0.08944035427559383
0.11733736591292235 0.39477832058544055 -0.14213050262917049
0.11733736591292235 0.39477832058544055 -0.13985336678017146
0.11922373371077391 0.39465476015682116 -0.09854886786926753
0.12111013131094786 0.394531140123557 -0.04813585536468989
0.11733736591292235 0.39477832058544055 -0.14896185057152278
0.11733736591292235 0.39477832058544055 -0.1444076384781695
0.11733736591292235 0.39477832058544055 -0.14668474452484614
0.12111013131094786 0.394531140123557 -0.04358161346901423
0.12111013131094786 0.394531140123557 -0.04585874931801325
0.11922373371077391 0.39465476015682116 -0.09399462597359187
0.11922373371077391 0.39465476015682116 -0.04110474245537287
0.11733736591292235 0.39477832058544055 -0.08924061911095149
0.11733736591292235 0.39477832058544055 -0.04318211333740717
