ply
format ascii 1.0
element vertex 186
property float x
property float y
property float z
element face 0
property list uchar int vertex_indices
end_header
-0.0927653710369983 0.3949020002233495 -0.18343498663891322
-0.0927653710369983 0.3949020002233495 -0.10082597391594417
-0.0927653710369983 0.3949020002233495 -0.10498077528465755
-0.0927653710369983 0.3949020002233495 -0.10042647378433711
-0.0927653710369983 0.3949020002233495 -0.09131798999298579
-0.0927653710369983 0.3949020002233495 -0.18798922853458888
-0.0927653710369983 0.3949020002233495 -0.09587223188866145
-0.040711293650142234 0.3949020002233495 -0.18343498663891322
-0.040711293650142234 0.3949020002233495 -0.18798922853458888
-0.18715473516034273 0.35737902859325305 -0.10082597391594417
-0.1837544838910022 0.36036104897136584 -0.10082597391594417
-0.17695399625348238 0.3663249705183019 -0.10082597391594417
-0.1803542475228229 0.3633429501401891 -0.10082597391594417
-0.1731934796099582 0.3688372466909398 -0.10082597391594417
-0.16943297786759523 0.37134952286357775 -0.10082597391594417
-0.16191197438286928 0.37637401560420886 -0.10082597391594417
-0.16567247612523225 0.3738617990362157 -0.10082597391594417
-0.1578562359337726 0.3783742878782262 -0.10082597391594417
-0.15380049748467592 0.3803745601522435 -0.10082597391594417
-0.14568897588299898 0.38437498549098864 -0.10082597391594417
-0.14974472923325685 0.3823747728216161 -0.10082597391594417
-0.1414065013651767 0.3858289811956395 -0.10082597391594417
-0.13712399704503206 0.3872830365049352 -0.10082597391594417
-0.12855895860242036 0.39019102791423693 -0.10082597391594417
-0.1328414927248874 0.38873703220958605 -0.10082597391594417
-0.12412322564171938 0.39107305744762316 -0.10082597391594417
-0.1196874777798572 0.39195496777171984 -0.10082597391594417
-0.11081598205613283 0.3937189672338475 -0.10082597391594417
-0.1152517448191562 0.3928369377004613 -0.10082597391594417
-0.10630334420251039 0.3940147850858678 -0.10082597391594417
-0.10179067654656557 0.3943105433332433 -0.10082597391594417
-0.09727806849526552 0.394606241975974 -0.10082597391594417
-0.0927653710369983 0.3949020002233495 -0.151239001321683
-0.0927653710369983 0.3949020002233495 -0.10290340440262324
-0.0927653710369983 0.3949020002233495 -0.1533163573025561
-0.0927653710369983 0.3949020002233495 -0.05041299121368891
-0.0927653710369983 0.3949020002233495 -0.0524903918980456
-0.0927653710369983 0.3949020002233495 -0.056645133662114204
-0.0927653710369983 0.3949020002233495 -0.0545677627800799
-0.0927653710369983 0.3949020002233495 -0.15103922145355708
-0.0927653710369983 0.3949020002233495 -0.05436799781311518
-0.0927653710369983 0.3949020002233495 -0.10270363943565852
-0.0927653710369983 0.3949020002233495 -0.1464850093602038
-0.0927653710369983 0.3949020002233495 -0.14876211540688045
-0.0927653710369983 0.3949020002233495 -0.045259484219441475
-0.0927653710369983 0.3949020002233495 -0.09359509603966243
-0.0927653710369983 0.3949020002233495 -0.04753659026611811
-0.0927653710369983 0.3949020002233495 -0.1373764808653689
-0.0927653710369983 0.3949020002233495 -0.18571210758675105
-0.0927653710369983 0.3949020002233495 -0.13965361671436793
-0.0927653710369983 0.3949020002233495 -0.1902663643835879
-0.0927653710369983 0.3949020002233495 -0.1442078586100436
-0.0927653710369983 0.3949020002233495 -0.14193075256336696
-0.0927653710369983 0.3949020002233495 -0.05209086196411616
-0.0927653710369983 0.3949020002233495 -0.04981375591743952
-0.0927653710369983 0.3949020002233495 -0.09814936773766048
-0.0927653710369983 0.32078404167766467 -0.18343498663891322
-0.0927653710369983 0.32078404167766467 -0.1373764808653689
-0.0927653710369983 0.32078404167766467 -0.045259484219441475
-0.0927653710369983 0.32078404167766467 -0.09131798999298579
-0.06673834724473146 0.3949020002233495 -0.18798922853458888
-0.06673834724473146 0.3949020002233495 -0.1902663643835879
-0.06673834724473146 0.3949020002233495 -0.18343498663891322
-0.06673834724473146 0.3949020002233495 -0.18571210758675105
-0.040711293650142234 0.3949020002233495 -0.18571210758675105
-0.040711293650142234 0.3949020002233495 -0.1902663643835879
-0.040711293650142234 0.32078404167766467 -0.18343498663891322
-0.06673834724473146 0.32078404167766467 -0.18343498663891322
-0.18545463187741426 0.35887003878230944 -0.05041299121368891
-0.18715473516034273 0.35737902859325305 -0.05041299121368891
-0.18885486824559358 0.35588801840419665 -0.151239001321683
-0.18885486824559358 0.35588801840419665 -0.10082597391594417
-0.18885486824559358 0.35588801840419665 -0.05041299121368891
-0.18715473516034273 0.35737902859325305 -0.151239001321683
-0.1837544838910022 0.36036104897136584 -0.05041299121368891
-0.18545463187741426 0.35887003878230944 -0.10082597391594417
-0.1837544838910022 0.36036104897136584 -0.151239001321683
-0.18545463187741426 0.35887003878230944 -0.151239001321683
-0.17695399625348238 0.3663249705183019 -0.05041299121368891
-0.17865412933873323 0.36483401993389025 -0.10082597391594417
-0.17865412933873323 0.36483401993389025 -0.05041299121368891
-0.17695399625348238 0.3663249705183019 -0.151239001321683
-0.17865412933873323 0.36483401993389025 -0.151239001321683
-0.18205436570691255 0.36185199955577746 -0.151239001321683
-0.1803542475228229 0.3633429501401891 -0.151239001321683
-0.18205436570691255 0.36185199955577746 -0.05041299121368891
-0.1803542475228229 0.3633429501401891 -0.05041299121368891
-0.18205436570691255 0.36185199955577746 -0.10082597391594417
-0.1713132510905185 0.3700933549749364 -0.05041299121368891
-0.1731934796099582 0.3688372466909398 -0.05041299121368891
-0.17507375283288149 0.36758113840694323 -0.151239001321683
-0.17507375283288149 0.36758113840694323 -0.10082597391594417
-0.17507375283288149 0.36758113840694323 -0.05041299121368891
-0.1731934796099582 0.3688372466909398 -0.151239001321683
-0.16943297786759523 0.37134952286357775 -0.05041299121368891
-0.1713132510905185 0.3700933549749364 -0.10082597391594417
-0.16943297786759523 0.37134952286357775 -0.151239001321683
-0.1713132510905185 0.3700933549749364 -0.151239001321683
-0.16191197438286928 0.37637401560420886 -0.05041299121368891
-0.16379223270463136 0.3751179073202123 -0.10082597391594417
-0.16379223270463136 0.3751179073202123 -0.05041299121368891
-0.16191197438286928 0.37637401560420886 -0.151239001321683
-0.16379223270463136 0.3751179073202123 -0.151239001321683
-0.16755274934815553 0.37260557154292956 -0.151239001321683
-0.16567247612523225 0.3738617990362157 -0.151239001321683
-0.16755274934815553 0.37260557154292956 -0.05041299121368891
-0.16567247612523225 0.3738617990362157 -0.05041299121368891
-0.16755274934815553 0.37260557154292956 -0.10082597391594417
-0.15582836670922426 0.3793743346082677 -0.05041299121368891
-0.1578562359337726 0.3783742878782262 -0.05041299121368891
-0.15988410515832094 0.37737412193889514 -0.151239001321683
-0.15988410515832094 0.37737412193889514 -0.10082597391594417
-0.15988410515832094 0.37737412193889514 -0.05041299121368891
-0.1578562359337726 0.3783742878782262 -0.151239001321683
-0.15380049748467592 0.3803745601522435 -0.05041299121368891
-0.15582836670922426 0.3793743346082677 -0.10082597391594417
-0.15380049748467592 0.3803745601522435 -0.151239001321683
-0.15582836670922426 0.3793743346082677 -0.151239001321683
-0.14568897588299898 0.38437498549098864 -0.05041299121368891
-0.1477168749098697 0.38337493876094714 -0.10082597391594417
-0.1477168749098697 0.38337493876094714 -0.05041299121368891
-0.14568897588299898 0.38437498549098864 -0.151239001321683
-0.1477168749098697 0.38337493876094714 -0.151239001321683
-0.1517725984578052 0.3813746664869298 -0.151239001321683
-0.14974472923325685 0.3823747728216161 -0.151239001321683
-0.1517725984578052 0.3813746664869298 -0.05041299121368891
-0.14974472923325685 0.3823747728216161 -0.05041299121368891
-0.1517725984578052 0.3813746664869298 -0.10082597391594417
-0.139265219402782 0.38655597904796496 -0.05041299121368891
-0.1414065013651767 0.3858289811956395 -0.05041299121368891
-0.14354772372292665 0.3851019833433141 -0.151239001321683
-0.14354772372292665 0.3851019833433141 -0.10082597391594417
-0.14354772372292665 0.3851019833433141 -0.05041299121368891
-0.1414065013651767 0.3858289811956395 -0.151239001321683
-0.13712399704503206 0.3872830365049352 -0.05041299121368891
-0.139265219402782 0.38655597904796496 -0.10082597391594417
-0.13712399704503206 0.3872830365049352 -0.151239001321683
-0.139265219402782 0.38655597904796496 -0.151239001321683
-0.12855895860242036 0.39019102791423693 -0.05041299121368891
-0.13070024056481508 0.3894640300619115 -0.10082597391594417
-0.13070024056481508 0.3894640300619115 -0.05041299121368891
-0.12855895860242036 0.39019102791423693 -0.151239001321683
-0.13070024056481508 0.3894640300619115 -0.151239001321683
-0.13498274488495973 0.3880100343572606 -0.151239001321683
-0.1328414927248874 0.38873703220958605 -0.151239001321683
-0.13498274488495973 0.3880100343572606 -0.05041299121368891
-0.1328414927248874 0.38873703220958605 -0.05041299121368891
-0.13498274488495973 0.3880100343572606 -0.10082597391594417
-0.12190536661194948 0.3915140126096715 -0.05041299121368891
-0.12412322564171938 0.39107305744762316 -0.05041299121368891
-0.12634109957265047 0.39063198307628527 -0.151239001321683
-0.12634109957265047 0.39063198307628527 -0.10082597391594417
-0.12634109957265047 0.39063198307628527 -0.05041299121368891
-0.12412322564171938 0.39107305744762316 -0.151239001321683
-0.1196874777798572 0.39195496777171984 -0.05041299121368891
-0.12190536661194948 0.3915140126096715 -0.10082597391594417
-0.1196874777798572 0.39195496777171984 -0.151239001321683
-0.12190536661194948 0.3915140126096715 -0.151239001321683
-0.11081598205613283 0.3937189672338475 -0.05041299121368891
-0.11303387088822511 0.3932780120717992 -0.10082597391594417
-0.11303387088822511 0.3932780120717992 -0.05041299121368891
-0.11081598205613283 0.3937189672338475 -0.151239001321683
-0.11303387088822511 0.3932780120717992 -0.151239001321683
-0.1174696038489261 0.39239598253841296 -0.151239001321683
-0.1152517448191562 0.3928369377004613 -0.151239001321683
-0.1174696038489261 0.39239598253841296 -0.05041299121368891
-0.1152517448191562 0.3928369377004613 -0.05041299121368891
-0.1174696038489261 0.39239598253841296 -0.10082597391594417
-0.10404701037453798 0.39416260460491076 -0.05041299121368891
-0.10630334420251039 0.3940147850858678 -0.05041299121368891
-0.10855964822816042 0.39386690596218005 -0.151239001321683
-0.10855964822816042 0.39386690596218005 -0.10082597391594417
-0.10855964822816042 0.39386690596218005 -0.05041299121368891
-0.10630334420251039 0.3940147850858678 -0.151239001321683
-0.10179067654656557 0.3943105433332433 -0.05041299121368891
-0.10404701037453798 0.39416260460491076 -0.10082597391594417
-0.10179067654656557 0.3943105433332433 -0.151239001321683
-0.10404701037453798 0.39416260460491076 -0.151239001321683
-0.09502170486497072 0.39475412109966174 -0.10082597391594417
-0.09502170486497072 0.39475412109966174 -0.05041299121368891
-0.09502170486497072 0.39475412109966174 -0.151239001321683
-0.09953437252091554 0.394458422456931 -0.151239001321683
-0.09727806849526552 0.394606241975974 -0.151239001321683
-0.09953437252091554 0.394458422456931 -0.05041299121368891
-0.09727806849526552 0.394606241975974 -0.05041299121368891
-0.09953437252091554 0.394458422456931 -0.10082597391594417
