ply
format ascii 1.0
element vertex 136
property float x
property float y
property float z
element face 0
property list uchar int vertex_indices
end_header
0.1154509683127484 -0.1980419959676753 0.1850330148459577
0.006290038394459208 -0.21809898873691663 0.2016519819022321
-1.5000824847618416e-06 -0.19529450496559247 0.2016519819022321
0.004917015599735697 -0.17236598392849073 0.2016519819022321
-4.86803523580201e-07 -0.1492260005128871 0.2016519819022321
0.0035240252490124305 -0.12604199906711683 0.2016519819022321
-9.934430041710213e-07 -0.10264950057392226 0.2016519819022321
0.002119501399525126 -0.0792952384603511 0.2016519819022321
-9.934430041710213e-07 -0.05573405882244216 0.2016519819022321
0.011342813539036234 -0.1980419959676753 0.1850330148459577
0.003144284057148417 -0.20669673940067396 0.2016519819022321
0.10788427786780211 -0.21347673794155225 0.2016519819022321
0.10159273939085814 -0.1906722392690669 0.2016519819022321
0.10473852353049132 -0.20207448860530958 0.2016519819022321
0.10405199723196837 -0.17920798620109663 0.2016519819022321
0.0024577577586254677 -0.183830236996461 0.2016519819022321
0.0024582643981060585 -0.1607959922206889 0.2016519819022321
0.10159327583266112 -0.1676379795921336 0.2016519819022321
0.09667574362707945 -0.14449798127536878 0.2016519819022321
0.09913449482870909 -0.1560679878843318 0.2016519819022321
0.09843801455450865 -0.13290601035480604 0.2016519819022321
0.0017617543215832313 -0.13763399979000196 0.2016519819022321
0.0017615159030041298 -0.11434574982051955 0.2016519819022321
0.09667547540617796 -0.12120973130588637 0.2016519819022321
0.09315051631880614 -0.09781723281269179 0.2016519819022321
0.09491299586249205 -0.10951348205928908 0.2016519819022321
0.09421076374007079 -0.08614008685474502 0.2016519819022321
0.0010592837805828651 -0.09097235461597548 0.2016519819022321
0.0010592837805828651 -0.06751461883907424 0.2016519819022321
0.09315051631880614 -0.07435949703579055 0.2016519819022321
0.09103002147627684 -0.050798287595559224 0.2016519819022321
0.0920902390952191 -0.06257890721683608 0.2016519819022321
0.1154509683127484 -0.04980598946933852 0.1850330148459577
0.06339689092589232 -0.04980598946933852 0.1850330148459577
0.06339689092589232 -0.1980419959676753 0.1850330148459577
0.011342813539036234 -0.04980598946933852 0.1850330148459577
0.004717131423481425 -0.2123978640687953 0.2016519819022321
0.0015714068884930214 -0.20099561473255262 0.2016519819022321
0.10945712523413512 -0.2191778626096736 0.2016519819022321
0.05708717303229185 -0.21578787824039564 0.2016519819022321
0.15553562836600157 -0.1997633632076274 0.2016519819022321
0.15710853533697935 -0.20546448787574872 0.2016519819022321
0.15238993363333556 -0.1883611138713847 0.2016519819022321
0.15396278099966856 -0.19406223853950605 0.2016519819022321
0.05079563455534788 -0.1929833646667491 0.2016519819022321
0.052368511724003274 -0.19868448933487043 0.2016519819022321
0.10316561655951353 -0.19637336393718824 0.2016519819022321
0.055514266061314065 -0.2100867386711131 0.2016519819022321
0.10631137089682433 -0.20777561327343091 0.2016519819022321
0.05394135909033628 -0.20438561400299177 0.2016519819022321
0.05202527837706419 -0.18725124558334455 0.2016519819022321
0.0012281437392315468 -0.18956237098102674 0.2016519819022321
0.1536195178504071 -0.18262899478798017 0.2016519819022321
0.10282241301489684 -0.18494012018566236 0.2016519819022321
0.05448450641585203 -0.17578699251537427 0.2016519819022321
0.0036874015803417762 -0.17809811791305646 0.2016519819022321
0.05325489239645811 -0.18151911159877882 0.2016519819022321
0.003687639998920878 -0.16658099552517042 0.2016519819022321
0.0012288887972912391 -0.1550109889162074 0.2016519819022321
0.10282265143347594 -0.17342298289661512 0.2016519819022321
0.05325513081503721 -0.17000198921089277 0.2016519819022321
0.15239011244726988 -0.17684399148349866 0.2016519819022321
0.14993142085028502 -0.16527401467685804 0.2016519819022321
0.15116082625342223 -0.17105898817901716 0.2016519819022321
0.1474726100440106 -0.15370397826557264 0.2016519819022321
0.14870195584250304 -0.15948898157005414 0.2016519819022321
0.14501385884238097 -0.142134001458932 0.2016519819022321
0.14624326424551817 -0.14791900476341352 0.2016519819022321
0.04833762841177793 -0.14686197599296674 0.2016519819022321
0.04956700401259275 -0.15264700909977064 0.2016519819022321
0.09790514903021666 -0.1502829845798503 0.2016519819022321
0.05202578501654478 -0.16421698590641126 0.2016519819022321
0.10036387042952391 -0.1618529762876521 0.2016519819022321
0.05079640941572996 -0.15843201240425214 0.2016519819022321
0.049218734073170144 -0.14106600543384656 0.2016519819022321
0.0008806486601910194 -0.14342998525028333 0.2016519819022321
0.14589499430609557 -0.13633798619632825 0.2016519819022321
0.09755687909079405 -0.1387019958150874 0.2016519819022321
0.050980975198276955 -0.12947400471096143 0.2016519819022321
0.002642889785297831 -0.1318380143297206 0.2016519819022321
0.05009989933920713 -0.1352699901712428 0.2016519819022321
0.00264277057600828 -0.120193859542657 0.2016519819022321
0.0008802612299999794 -0.10849761029605971 0.2016519819022321
0.09755673007918211 -0.12705790063266859 0.2016519819022321
0.05009978012991758 -0.12362586518650161 0.2016519819022321
0.14501373963309142 -0.1304898764741908 0.2016519819022321
0.1432512898917279 -0.11879362722759353 0.2016519819022321
0.14413248496008726 -0.12464173694973098 0.2016519819022321
0.1414887805457196 -0.10709737798099624 0.2016519819022321
0.14237003521872374 -0.1129454579008113 0.2016519819022321
0.1397262711997113 -0.09540109893207656 0.2016519819022321
0.14060746626807066 -0.1012492384565364 0.2016519819022321
0.04657476143790098 -0.10023336669330703 0.2016519819022321
0.04745601611090513 -0.10608147641544448 0.2016519819022321
0.09403177099181029 -0.10366537233715163 0.2016519819022321
0.04921849565459104 -0.11777775546436416 0.2016519819022321
0.0957942505354962 -0.11536162158374892 0.2016519819022321
0.04833730058623167 -0.11192958613758193 0.2016519819022321
0.0471048851485333 -0.09439479371433364 0.2016519819022321
0.0005291302676281532 -0.09681092759494887 0.2016519819022321
0.1402563949103436 -0.08956255575542556 0.2016519819022321
0.09368064002943846 -0.0919786598337184 0.2016519819022321
0.04816513256979795 -0.08271767755870925 0.2016519819022321
0.0015893776888928016 -0.08513381143932448 0.2016519819022321
0.04763500885916563 -0.08855622073536025 0.2016519819022321
0.0015893776888928016 -0.07340492864971267 0.2016519819022321
0.0005291302676281532 -0.0616243388307582 0.2016519819022321
0.09368064002943846 -0.08024983664875136 0.2016519819022321
0.04763500885916563 -0.07682736774807082 0.2016519819022321
0.1397262711997113 -0.08367224594478713 0.2016519819022321
0.13866602377844664 -0.07189165612583266 0.2016519819022321
0.13919614748907896 -0.07778196593647109 0.2016519819022321
0.13760571675253722 -0.060111066306878194 0.2016519819022321
0.13813590006781432 -0.06600134631519423 0.2016519819022321
0.13654546933127257 -0.04833044668560134 0.2016519819022321
0.13707565264654967 -0.054220756496239766 0.2016519819022321
0.04551451401663633 -0.053266188110161886 0.2016519819022321
0.046044637727268654 -0.059156468118477926 0.2016519819022321
0.09156014518690916 -0.05668859740619765 0.2016519819022321
0.0471048851485333 -0.07093708773975478 0.2016519819022321
0.09262039260817381 -0.06846921702747451 0.2016519819022321
0.04657476143790098 -0.06504677792911635 0.2016519819022321
0.04569151000929685 -0.047406187261391744 0.2016519819022321
0.00017600254965635144 -0.04987402817134963 0.2016519819022321
0.1154509683127484 -0.12392397781734572 0.1850330148459577
0.08942394452048155 -0.12392397781734572 0.1850330148459577
0.08942394452048155 -0.04980598946933852 0.1850330148459577
0.037369867133625466 -0.04980598946933852 0.1850330148459577
0.08942394452048155 -0.1980419959676753 0.1850330148459577
0.06339689092589232 -0.12392397781734572 0.1850330148459577
0.037369867133625466 -0.1980419959676753 0.1850330148459577
0.011342813539036234 -0.12392397781734572 0.1850330148459577
0.037369867133625466 -0.12392397781734572 0.1850330148459577
-0.014684240055553 -0.1980419959676753 0.1850330148459577
-0.014684240055553 -0.12392397781734572 0.1850330148459577
-0.014684240055553 -0.04980598946933852 0.1850330148459577
