ply
format ascii 1.0
element vertex 135
property float x
property float y
property float z
element face 0
property list uchar int vertex_indices
end_header
-4.86803523580201e-07 0.13192946652049914 -0.20165199892509944
-0.004919002485744039 0.15485853890056506 -0.20165199892509944
-1.5000824847618416e-06 0.1779984925138463 -0.20165199892509944
-0.006292978954783956 0.20058907011623278 -0.20165199892509944
-1.5000824847618416e-06 0.22339350918407336 -0.20165199892509944
-0.007644991112224142 0.24556357601756945 -0.20165199892509944
1.9835957010619354e-08 0.26795108059520617 -0.20165199892509944
0.0005915065283855995 0.2769764755117406 -0.20165199892509944
0.002356012629993876 0.28584749439830676 -0.20165199892509944
0.0018615026946148475 0.2933924887525548 -0.20165199892509944
0.09667574362707945 0.1372798178541173 -0.20165199892509944
-0.0024597446446338097 0.1433940027105321 -0.20165199892509944
0.09421651558829161 0.1487442348348607 -0.20165199892509944
0.09667523698759886 0.1603142712461461 -0.20165199892509944
-0.0024602512841144005 0.16642851570720568 -0.20165199892509944
0.10159273939085814 0.18345428446407214 -0.20165199892509944
0.09913401799155089 0.17188424805278674 -0.20165199892509944
-0.003147224617473165 0.18929375151271716 -0.20165199892509944
0.09844698505354735 0.1947494838582982 -0.20165199892509944
0.10159273939085814 0.2061517331945409 -0.20165199892509944
-0.003147224617473165 0.21199125984783068 -0.20165199892509944
0.10788427786780211 0.22895629147167101 -0.20165199892509944
0.10473852353049132 0.21755404213542834 -0.20165199892509944
-0.0038232604985156456 0.23447848299617663 -0.20165199892509944
0.10406254725409361 0.24004126528377429 -0.20165199892509944
0.1078850229258618 0.25123501757259264 -0.20165199892509944
-0.0038225154404559532 0.25675726870174304 -0.20165199892509944
0.11552997426939818 0.2736224625455846 -0.20165199892509944
0.11170749859762999 0.262428769861411 -0.20165199892509944
0.0002957482810101112 0.272463748251151 -0.20165199892509944
0.11582576231909605 0.27813524941081896 -0.20165199892509944
0.0014737446780285438 0.28141201475734606 -0.20165199892509944
0.116708000468739 0.28257078865642443 -0.20165199892509944
0.11646076040221068 0.2863432262289037 -0.20165199892509944
0.0021087725634655555 0.28962005118007556 -0.20165199892509944
0.11596628026915404 0.2938882205831517 -0.20165199892509944
0.11621346073103758 0.2901157234060277 -0.20165199892509944
0.003315259980686625 0.29767496327037707 -0.20165199892509944
0.11741997795058104 0.29817075470561877 -0.20165199892509944
0.04833762841177793 0.13460458258266345 -0.20165199892509944
0.0957944889540753 0.13143170813197985 -0.20165199892509944
0.04745640354109617 0.12875659206981555 -0.20165199892509944
0.14501385884238097 0.13995481470699206 -0.20165199892509944
0.14413260416937682 0.13410682419414416 -0.20165199892509944
0.14325140910101744 0.12825883368129626 -0.20165199892509944
0.09544612960768553 0.14301199654216662 -0.20165199892509944
0.14378427462530943 0.1456871722089757 -0.20165199892509944
-0.001230100822917501 0.137661764417838 -0.20165199892509944
0.04710798459006162 0.1403368804800023 -0.20165199892509944
-0.0036893586640277306 0.1491262410032262 -0.20165199892509944
0.04464878635359617 0.1518013570653905 -0.20165199892509944
0.0458783705706677 0.14606917837734118 -0.20165199892509944
0.14501362042380186 0.15147210100765124 -0.20165199892509944
0.0458781321520886 0.1575863454687108 -0.20165199892509944
0.09544589118910643 0.1545292828428258 -0.20165199892509944
0.1474723716254315 0.16304213741893664 -0.20165199892509944
0.14624302582693907 0.15725708941097155 -0.20165199892509944
-0.003689597082606832 0.16064352730388537 -0.20165199892509944
-0.0012308458809771935 0.172213504110526 -0.20165199892509944
0.05079563455534788 0.18072635868663683 -0.20165199892509944
0.1003634233946881 0.17766923645610705 -0.20165199892509944
0.04956625895453306 0.17494131067867175 -0.20165199892509944
0.15238993363333556 0.1861820910322179 -0.20165199892509944
0.15116052823019835 0.18039710262889758 -0.20165199892509944
0.14870171742392393 0.16882712582225695 -0.20165199892509944
0.14993112282706114 0.17461211422557726 -0.20165199892509944
0.04710753755522581 0.1633713934766759 -0.20165199892509944
0.04833685355139585 0.1691563818799962 -0.20165199892509944
0.09790464239073607 0.1660993192541112 -0.20165199892509944
0.10001989202452513 0.18910188416118517 -0.20165199892509944
0.15081702666235777 0.19182969072933093 -0.20165199892509944
-0.0015743772511401573 0.18364609221095934 -0.20165199892509944
0.049222727584370095 0.18637401798839465 -0.20165199892509944
-0.004720131588450948 0.1949413512098302 -0.20165199892509944
0.04607703285170408 0.1976692769872655 -0.20165199892509944
0.04764988021803709 0.19202161768550768 -0.20165199892509944
0.15238993363333556 0.19753087500209704 -0.20165199892509944
0.04764988021803709 0.20337040165538683 -0.20165199892509944
0.10001989202452513 0.20045060852641955 -0.20165199892509944
0.15553562836600157 0.2089331839429845 -0.20165199892509944
0.15396278099966856 0.20323205927486315 -0.20165199892509944
-0.004720131588450948 0.20629013517970934 -0.20165199892509944
-0.0015743772511401573 0.21769238451595202 -0.20165199892509944
0.05394135909033628 0.2261748407232274 -0.20165199892509944
0.10631137089682433 0.22325516680354968 -0.20165199892509944
0.052368511724003274 0.22047377565975085 -0.20165199892509944
0.15710853533697935 0.21463424900646105 -0.20165199892509944
0.049222727584370095 0.2090714667188634 -0.20165199892509944
0.05079563455534788 0.21477259138698473 -0.20165199892509944
0.10316561655951353 0.211852917467307 -0.20165199892509944
0.10597335295630309 0.23449874857540026 -0.20165199892509944
-0.0019123653893390099 0.22893602589244738 -0.20165199892509944
0.05203049378348203 0.23171735743160143 -0.20165199892509944
-0.005734155607692281 0.24002099970455065 -0.20165199892509944
0.04820876316977354 0.24280239084834948 -0.20165199892509944
0.050119628476627785 0.23725993374462023 -0.20165199892509944
0.050120015906818825 0.24839920738811389 -0.20165199892509944
0.10597377018881651 0.24563814142818347 -0.20165199892509944
-0.005733738375178854 0.25116039255733386 -0.20165199892509944
-0.0019112329010882775 0.2623541448461522 -0.20165199892509944
0.05776499705267759 0.2707867119657506 -0.20165199892509944
0.11361872153235289 0.2680256460058202 -0.20165199892509944
0.05585377411795469 0.2651898358213414 -0.20165199892509944
0.052031238841541726 0.25399614313716784 -0.20165199892509944
0.0539425213809094 0.259593019281577 -0.20165199892509944
0.1097962458605847 0.2568318937170018 -0.20165199892509944
0.11567788319540831 0.27587891558284655 -0.20165199892509944
0.00014789895964475476 0.2702073548185338 -0.20165199892509944
0.057912876176365334 0.2730431053983678 -0.20165199892509944
0.00044362740469785535 0.2747201416837682 -0.20165199892509944
0.05820866422606321 0.27755595186824694 -0.20165199892509944
0.058060785102375466 0.275299498830985 -0.20165199892509944
0.11626689629507872 0.2803530190336217 -0.20165199892509944
0.0010326405043682655 0.27919424513454333 -0.20165199892509944
0.05864976839972349 0.2797736022817601 -0.20165199892509944
0.0019148488516888221 0.283629724775504 -0.20165199892509944
0.05953200654936643 0.28420920113201037 -0.20165199892509944
0.05909084277106138 0.28199137190456286 -0.20165199892509944
0.05940838651610227 0.2860953901159276 -0.20165199892509944
0.11658438043547484 0.28445703724498644 -0.20165199892509944
0.0022323925967297157 0.28773374298686877 -0.20165199892509944
0.0019851227278790077 0.29150629976863757 -0.20165199892509944
0.05891384677840086 0.29364038447017565 -0.20165199892509944
0.1160899003024182 0.2920019719945897 -0.20165199892509944
0.05903752641630979 0.29175407627696887 -0.20165199892509944
0.05928476648283811 0.2879816387044896 -0.20165199892509944
0.05916114644957395 0.28986782768840685 -0.20165199892509944
0.11633714036894652 0.28822953442211047 -0.20165199892509944
0.11669312910986754 0.29602945784206286 -0.20165199892509944
0.0025883515353283485 0.29553372601146594 -0.20165199892509944
0.05964075522375913 0.2957816217290868 -0.20165199892509944
0.0040421386237225135 0.299816260133933 -0.20165199892509944
0.06109451250983091 0.3000641558515538 -0.20165199892509944
0.06036766366911741 0.2979228589879979 -0.20165199892509944
0.11705123381567809 0.3000247571813573 -0.20165199892509944
