ply
format ascii 1.0
element vertex 228
property float x
property float y
property float z
element face 0
property list uchar int vertex_indices
end_header
-0.0927653710369983 0.3949020002233495 -8.51143366355743e-09
-0.0927653710369983 0.3949020002233495 -0.008309462237248483
-0.0927653710369983 0.3949020002233495 0.0007989917517804478
-0.1837544838910022 0.36036104897136584 -8.51143366355743e-09
-0.17695399625348238 0.3663249705183019 -8.51143366355743e-09
-0.16943297786759523 0.37134952286357775 -8.51143366355743e-09
-0.16191197438286928 0.37637401560420886 -8.51143366355743e-09
-0.15380049748467592 0.3803745601522435 -8.51143366355743e-09
-0.14568897588299898 0.38437498549098864 -8.51143366355743e-09
-0.13712399704503206 0.3872830365049352 -8.51143366355743e-09
-0.12855895860242036 0.39019102791423693 -8.51143366355743e-09
-0.1196874777798572 0.39195496777171984 -8.51143366355743e-09
-0.11081598205613283 0.3937189672338475 -8.51143366355743e-09
-0.10179067654656557 0.3943105433332433 -8.51143366355743e-09
-0.0927653710369983 0.3949020002233495 -0.004154750275502267
-0.0927653710369983 0.3949020002233495 0.10082598669539922
-0.0927653710369983 0.3949020002233495 0.09667124493133061
-0.0927653710369983 0.3949020002233495 0.0883617614031934
-0.0927653710369983 0.3949020002233495 0.09251650316726201
-0.0927653710369983 0.3949020002233495 0.09291600329886907
-0.0927653710369983 0.3949020002233495 -0.0037552501438952116
-0.1803542475228229 0.3633429501401891 0.10082598669539922
-0.1837544838910022 0.36036104897136584 0.10082598669539922
-0.18715473516034273 0.35737902859325305 -8.51143366355743e-09
-0.18715473516034273 0.35737902859325305 0.10082598669539922
-0.17695399625348238 0.3663249705183019 0.10082598669539922
-0.1803542475228229 0.3633429501401891 -8.51143366355743e-09
-0.16567247612523225 0.3738617990362157 0.10082598669539922
-0.16943297786759523 0.37134952286357775 0.10082598669539922
-0.1731934796099582 0.3688372466909398 -8.51143366355743e-09
-0.1731934796099582 0.3688372466909398 0.10082598669539922
-0.16191197438286928 0.37637401560420886 0.10082598669539922
-0.16567247612523225 0.3738617990362157 -8.51143366355743e-09
-0.14974472923325685 0.3823747728216161 0.10082598669539922
-0.15380049748467592 0.3803745601522435 0.10082598669539922
-0.1578562359337726 0.3783742878782262 -8.51143366355743e-09
-0.1578562359337726 0.3783742878782262 0.10082598669539922
-0.14568897588299898 0.38437498549098864 0.10082598669539922
-0.14974472923325685 0.3823747728216161 -8.51143366355743e-09
-0.1328414927248874 0.38873703220958605 0.10082598669539922
-0.13712399704503206 0.3872830365049352 0.10082598669539922
-0.1414065013651767 0.3858289811956395 -8.51143366355743e-09
-0.1414065013651767 0.3858289811956395 0.10082598669539922
-0.12855895860242036 0.39019102791423693 0.10082598669539922
-0.1328414927248874 0.38873703220958605 -8.51143366355743e-09
-0.1152517448191562 0.3928369377004613 0.10082598669539922
-0.1196874777798572 0.39195496777171984 0.10082598669539922
-0.12412322564171938 0.39107305744762316 -8.51143366355743e-09
-0.12412322564171938 0.39107305744762316 0.10082598669539922
-0.11081598205613283 0.3937189672338475 0.10082598669539922
-0.1152517448191562 0.3928369377004613 -8.51143366355743e-09
-0.09727806849526552 0.394606241975974 0.10082598669539922
-0.10179067654656557 0.3943105433332433 0.10082598669539922
-0.10630334420251039 0.3940147850858678 -8.51143366355743e-09
-0.10630334420251039 0.3940147850858678 0.10082598669539922
-0.09727806849526552 0.394606241975974 -8.51143366355743e-09
-0.0927653710369983 0.3949020002233495 -0.0020773793934679655
-0.0927653710369983 0.3949020002233495 -0.006232091355214181
-0.0927653710369983 0.3949020002233495 0.050413003993143975
-0.0927653710369983 0.3949020002233495 0.09874861581336492
-0.0927653710369983 0.3949020002233495 0.04833563311110967
-0.0927653710369983 0.3949020002233495 0.15123902900229924
-0.0927653710369983 0.3949020002233495 0.14916168792258733
-0.0927653710369983 0.3949020002233495 0.14500682694922917
-0.0927653710369983 0.3949020002233495 0.14708428723823064
-0.0927653710369983 0.3949020002233495 0.14085208518516057
-0.0927653710369983 0.3949020002233495 0.14292948586951726
-0.0927653710369983 0.3949020002233495 0.13669734342109197
-0.0927653710369983 0.3949020002233495 0.13877474410544866
-0.0927653710369983 0.3949020002233495 0.04002611978065008
-0.0927653710369983 0.3949020002233495 0.042103550267329155
-0.0927653710369983 0.3949020002233495 0.09043913228522771
-0.0927653710369983 0.3949020002233495 0.04625829203139776
-0.0927653710369983 0.3949020002233495 0.09459387404929631
-0.0927653710369983 0.3949020002233495 0.04418092114936346
-0.0927653710369983 0.3949020002233495 0.042303225827326714
-0.0927653710369983 0.3949020002233495 -0.006032356190571847
-0.0927653710369983 0.3949020002233495 0.13897453887473576
-0.0927653710369983 0.3949020002233495 0.09063886744987004
-0.0927653710369983 0.3949020002233495 0.04685749752532476
-0.0927653710369983 0.3949020002233495 -0.001478114294896188
-0.0927653710369983 0.3949020002233495 0.044580391478648125
-0.0927653710369983 0.32078404167766467 0.13897453887473576
-0.0927653710369983 0.32078404167766467 0.09291600329886907
-0.0927653710369983 0.32078404167766467 0.0007989917517804478
-0.0927653710369983 0.32078404167766467 0.04685749752532476
-0.17865412933873323 0.36483401993389025 0.15123902900229924
-0.1803542475228229 0.3633429501401891 0.15123902900229924
-0.18205436570691255 0.36185199955577746 0.050413003993143975
-0.1837544838910022 0.36036104897136584 0.050413003993143975
-0.18205436570691255 0.36185199955577746 0.10082598669539922
-0.1837544838910022 0.36036104897136584 0.15123902900229924
-0.18205436570691255 0.36185199955577746 0.15123902900229924
-0.18545463187741426 0.35887003878230944 -8.51143366355743e-09
-0.18885486824559358 0.35588801840419665 -8.51143366355743e-09
-0.18885486824559358 0.35588801840419665 0.10082598669539922
-0.18885486824559358 0.35588801840419665 0.050413003993143975
-0.18885486824559358 0.35588801840419665 0.15123902900229924
-0.18545463187741426 0.35887003878230944 0.15123902900229924
-0.18715473516034273 0.35737902859325305 0.15123902900229924
-0.18545463187741426 0.35887003878230944 0.050413003993143975
-0.18715473516034273 0.35737902859325305 0.050413003993143975
-0.18545463187741426 0.35887003878230944 0.10082598669539922
-0.1803542475228229 0.3633429501401891 0.050413003993143975
-0.18205436570691255 0.36185199955577746 -8.51143366355743e-09
-0.17695399625348238 0.3663249705183019 0.15123902900229924
-0.17865412933873323 0.36483401993389025 0.10082598669539922
-0.17695399625348238 0.3663249705183019 0.050413003993143975
-0.17865412933873323 0.36483401993389025 -8.51143366355743e-09
-0.17865412933873323 0.36483401993389025 0.050413003993143975
-0.16379223270463136 0.3751179073202123 0.15123902900229924
-0.16567247612523225 0.3738617990362157 0.15123902900229924
-0.16755274934815553 0.37260557154292956 0.050413003993143975
-0.16943297786759523 0.37134952286357775 0.050413003993143975
-0.16755274934815553 0.37260557154292956 0.10082598669539922
-0.16943297786759523 0.37134952286357775 0.15123902900229924
-0.16755274934815553 0.37260557154292956 0.15123902900229924
-0.1713132510905185 0.3700933549749364 -8.51143366355743e-09
-0.17507375283288149 0.36758113840694323 -8.51143366355743e-09
-0.17507375283288149 0.36758113840694323 0.10082598669539922
-0.17507375283288149 0.36758113840694323 0.050413003993143975
-0.17507375283288149 0.36758113840694323 0.15123902900229924
-0.1713132510905185 0.3700933549749364 0.15123902900229924
-0.1731934796099582 0.3688372466909398 0.15123902900229924
-0.1713132510905185 0.3700933549749364 0.050413003993143975
-0.1731934796099582 0.3688372466909398 0.050413003993143975
-0.1713132510905185 0.3700933549749364 0.10082598669539922
-0.16567247612523225 0.3738617990362157 0.050413003993143975
-0.16755274934815553 0.37260557154292956 -8.51143366355743e-09
-0.16191197438286928 0.37637401560420886 0.15123902900229924
-0.16379223270463136 0.3751179073202123 0.10082598669539922
-0.16191197438286928 0.37637401560420886 0.050413003993143975
-0.16379223270463136 0.3751179073202123 -8.51143366355743e-09
-0.16379223270463136 0.3751179073202123 0.050413003993143975
-0.1477168749098697 0.38337493876094714 0.15123902900229924
-0.14974472923325685 0.3823747728216161 0.15123902900229924
-0.1517725984578052 0.3813746664869298 0.050413003993143975
-0.15380049748467592 0.3803745601522435 0.050413003993143975
-0.1517725984578052 0.3813746664869298 0.10082598669539922
-0.15380049748467592 0.3803745601522435 0.15123902900229924
-0.1517725984578052 0.3813746664869298 0.15123902900229924
-0.15582836670922426 0.3793743346082677 -8.51143366355743e-09
-0.15988410515832094 0.37737412193889514 -8.51143366355743e-09
-0.15988410515832094 0.37737412193889514 0.10082598669539922
-0.15988410515832094 0.37737412193889514 0.050413003993143975
-0.15988410515832094 0.37737412193889514 0.15123902900229924
-0.15582836670922426 0.3793743346082677 0.15123902900229924
-0.1578562359337726 0.3783742878782262 0.15123902900229924
-0.15582836670922426 0.3793743346082677 0.050413003993143975
-0.1578562359337726 0.3783742878782262 0.050413003993143975
-0.15582836670922426 0.3793743346082677 0.10082598669539922
-0.14974472923325685 0.3823747728216161 0.050413003993143975
-0.1517725984578052 0.3813746664869298 -8.51143366355743e-09
-0.14568897588299898 0.38437498549098864 0.15123902900229924
-0.1477168749098697 0.38337493876094714 0.10082598669539922
-0.14568897588299898 0.38437498549098864 0.050413003993143975
-0.1477168749098697 0.38337493876094714 -8.51143366355743e-09
-0.1477168749098697 0.38337493876094714 0.050413003993143975
-0.13070024056481508 0.3894640300619115 0.15123902900229924
-0.1328414927248874 0.38873703220958605 0.15123902900229924
-0.13498274488495973 0.3880100343572606 0.050413003993143975
-0.13712399704503206 0.3872830365049352 0.050413003993143975
-0.13498274488495973 0.3880100343572606 0.10082598669539922
-0.13712399704503206 0.3872830365049352 0.15123902900229924
-0.13498274488495973 0.3880100343572606 0.15123902900229924
-0.139265219402782 0.38655597904796496 -8.51143366355743e-09
-0.14354772372292665 0.3851019833433141 -8.51143366355743e-09
-0.14354772372292665 0.3851019833433141 0.10082598669539922
-0.14354772372292665 0.3851019833433141 0.050413003993143975
-0.14354772372292665 0.3851019833433141 0.15123902900229924
-0.139265219402782 0.38655597904796496 0.15123902900229924
-0.1414065013651767 0.3858289811956395 0.15123902900229924
-0.139265219402782 0.38655597904796496 0.050413003993143975
-0.1414065013651767 0.3858289811956395 0.050413003993143975
-0.139265219402782 0.38655597904796496 0.10082598669539922
-0.1328414927248874 0.38873703220958605 0.050413003993143975
-0.13498274488495973 0.3880100343572606 -8.51143366355743e-09
-0.12855895860242036 0.39019102791423693 0.15123902900229924
-0.13070024056481508 0.3894640300619115 0.10082598669539922
-0.12855895860242036 0.39019102791423693 0.050413003993143975
-0.13070024056481508 0.3894640300619115 -8.51143366355743e-09
-0.13070024056481508 0.3894640300619115 0.050413003993143975
-0.11303387088822511 0.3932780120717992 0.15123902900229924
-0.1152517448191562 0.3928369377004613 0.15123902900229924
-0.1174696038489261 0.39239598253841296 0.050413003993143975
-0.1196874777798572 0.39195496777171984 0.050413003993143975
-0.1174696038489261 0.39239598253841296 0.10082598669539922
-0.1196874777798572 0.39195496777171984 0.15123902900229924
-0.1174696038489261 0.39239598253841296 0.15123902900229924
-0.12190536661194948 0.3915140126096715 -8.51143366355743e-09
-0.12634109957265047 0.39063198307628527 -8.51143366355743e-09
-0.12634109957265047 0.39063198307628527 0.10082598669539922
-0.12634109957265047 0.39063198307628527 0.050413003993143975
-0.12634109957265047 0.39063198307628527 0.15123902900229924
-0.12190536661194948 0.3915140126096715 0.15123902900229924
-0.12412322564171938 0.39107305744762316 0.15123902900229924
-0.12190536661194948 0.3915140126096715 0.050413003993143975
-0.12412322564171938 0.39107305744762316 0.050413003993143975
-0.12190536661194948 0.3915140126096715 0.10082598669539922
-0.1152517448191562 0.3928369377004613 0.050413003993143975
-0.1174696038489261 0.39239598253841296 -8.51143366355743e-09
-0.11081598205613283 0.3937189672338475 0.15123902900229924
-0.11303387088822511 0.3932780120717992 0.10082598669539922
-0.11081598205613283 0.3937189672338475 0.050413003993143975
-0.11303387088822511 0.3932780120717992 -8.51143366355743e-09
-0.11303387088822511 0.3932780120717992 0.050413003993143975
-0.09502170486497072 0.39475412109966174 0.15123902900229924
-0.09727806849526552 0.394606241975974 0.15123902900229924
-0.09953437252091554 0.394458422456931 0.050413003993143975
-0.10179067654656557 0.3943105433332433 0.050413003993143975
-0.09953437252091554 0.394458422456931 0.10082598669539922
-0.10179067654656557 0.3943105433332433 0.15123902900229924
-0.09953437252091554 0.394458422456931 0.15123902900229924
-0.10404701037453798 0.39416260460491076 -8.51143366355743e-09
-0.10855964822816042 0.39386690596218005 -8.51143366355743e-09
-0.10855964822816042 0.39386690596218005 0.10082598669539922
-0.10855964822816042 0.39386690596218005 0.050413003993143975
-0.10855964822816042 0.39386690596218005 0.15123902900229924
-0.10404701037453798 0.39416260460491076 0.15123902900229924
-0.10630334420251039 0.3940147850858678 0.15123902900229924
-0.10404701037453798 0.39416260460491076 0.050413003993143975
-0.10630334420251039 0.3940147850858678 0.050413003993143975
-0.10404701037453798 0.39416260460491076 0.10082598669539922
-0.09727806849526552 0.394606241975974 0.050413003993143975
-0.09953437252091554 0.394458422456931 -8.51143366355743e-09
-0.09502170486497072 0.39475412109966174 0.10082598669539922
-0.09502170486497072 0.39475412109966174 -8.51143366355743e-09
-0.09502170486497072 0.39475412109966174 0.050413003993143975
