ply
format ascii 1.0
element vertex 268
property float x
property float y
property float z
element face 0
property list uchar int vertex_indices
end_header
0.13565396265936705 -0.3923769797933589 -8.51143366355743e-09
0.1280540128226361 -0.3938890006196986 -8.51143366355743e-09
0.14325403170538756 -0.39086498876934156 -8.51143366355743e-09
0.12578900651884886 -0.3771859910142909 -8.51143366355743e-09
0.15059106545401427 -0.388374498094369 -8.51143366355743e-09
0.12352403001738402 -0.3604829814088832 -8.51143366355743e-09
0.11701249079657408 -0.3449359740865718 -8.51143366355743e-09
0.11050104098273131 -0.32938899656658277 -8.51143366355743e-09
0.10018681483221861 -0.31605651041393384 -8.51143366355743e-09
0.0898726184840283 -0.30272399445896253 -8.51143366355743e-09
0.07646020250273558 -0.2925150003088008 -8.51143366355743e-09
0.06304781632376524 -0.28230597635631666 -8.51143366355743e-09
0.04745032386732908 -0.2759174909246455 -8.51143366355743e-09
0.03185283141089292 -0.26952900549297437 -8.51143366355743e-09
0.015132417249210795 -0.26739450355892286 -8.51143366355743e-09
-0.0015880267147937218 -0.26526000162487134 -8.51143366355743e-09
0.13185398774100157 -0.39313300510768995 0.10082598669539922
0.1280540128226361 -0.3938890006196986 0.10082598669539922
0.13185398774100157 -0.39313300510768995 -8.51143366355743e-09
0.13565396265936705 -0.3923769797933589 0.10082598669539922
0.1394539971823773 -0.3916209842813502 -8.51143366355743e-09
0.14325403170538756 -0.39086498876934156 0.10082598669539922
0.1394539971823773 -0.3916209842813502 0.10082598669539922
0.12692152457190367 -0.38553749581699476 0.10082598669539922
0.12692152457190367 -0.38553749581699476 -8.51143366355743e-09
0.14692251877737852 -0.3896197285306941 0.10082598669539922
0.14692251877737852 -0.3896197285306941 -8.51143366355743e-09
0.12465648846579405 -0.36883448621158704 -8.51143366355743e-09
0.12578900651884886 -0.3771859910142909 0.10082598669539922
0.12352403001738402 -0.3604829814088832 0.10082598669539922
0.12465648846579405 -0.36883448621158704 0.10082598669539922
0.15059106545401427 -0.388374498094369 0.10082598669539922
0.15425955252600523 -0.38712923785572156 -8.51143366355743e-09
0.15425955252600523 -0.38712923785572156 0.10082598669539922
0.12026827530814024 -0.3527094926488887 0.10082598669539922
0.12026827530814024 -0.3527094926488887 -8.51143366355743e-09
0.1137567658896527 -0.3371624853265773 -8.51143366355743e-09
0.11701249079657408 -0.3449359740865718 0.10082598669539922
0.11050104098273131 -0.32938899656658277 0.10082598669539922
0.1137567658896527 -0.3371624853265773 0.10082598669539922
0.10534389810515257 -0.3227227534902583 0.10082598669539922
0.10534389810515257 -0.3227227534902583 -8.51143366355743e-09
0.09502970175696226 -0.309390237535287 -8.51143366355743e-09
0.10018681483221861 -0.31605651041393384 0.10082598669539922
0.0898726184840283 -0.30272399445896253 0.10082598669539922
0.09502970175696226 -0.309390237535287 0.10082598669539922
0.06975399451208922 -0.2874104883325587 0.10082598669539922
0.07646020250273558 -0.2925150003088008 0.10082598669539922
0.08316641049338194 -0.29761948248272047 -8.51143366355743e-09
0.08316641049338194 -0.29761948248272047 0.10082598669539922
0.06304781632376524 -0.28230597635631666 0.10082598669539922
0.06975399451208922 -0.2874104883325587 -8.51143366355743e-09
0.03965153293562742 -0.27272324820880994 0.10082598669539922
0.04745032386732908 -0.2759174909246455 0.10082598669539922
0.055249025392063576 -0.2791117336404811 -8.51143366355743e-09
0.055249025392063576 -0.2791117336404811 0.10082598669539922
0.03185283141089292 -0.26952900549297437 0.10082598669539922
0.03965153293562742 -0.27272324820880994 -8.51143366355743e-09
0.00677221016836973 -0.2663272525918971 0.10082598669539922
0.015132417249210795 -0.26739450355892286 0.10082598669539922
0.02349259452772947 -0.2684617545259486 -8.51143366355743e-09
0.02349259452772947 -0.2684617545259486 0.10082598669539922
-0.0015880267147937218 -0.26526000162487134 0.10082598669539922
0.00677221016836973 -0.2663272525918971 -8.51143366355743e-09
-0.009939591122142355 -0.26639275809650526 -8.51143366355743e-09
-0.009939591122142355 -0.26639275809650526 0.10082598669539922
0.1337540348048291 -0.3927549924505244 0.050413003993143975
0.13185398774100157 -0.39313300510768995 0.050413003993143975
0.1337540348048291 -0.3927549924505244 -8.51143366355743e-09
0.12995400028181883 -0.3935109879625331 0.15123902900229924
0.1280540128226361 -0.3938890006196986 0.15123902900229924
0.12995400028181883 -0.3935109879625331 0.10082598669539922
0.1280540128226361 -0.3938890006196986 0.050413003993143975
0.12995400028181883 -0.3935109879625331 -8.51143366355743e-09
0.12995400028181883 -0.3935109879625331 0.050413003993143975
0.13185398774100157 -0.39313300510768995 0.15123902900229924
0.13565396265936705 -0.3923769797933589 0.050413003993143975
0.1337540348048291 -0.3927549924505244 0.10082598669539922
0.13565396265936705 -0.3923769797933589 0.15123902900229924
0.1337540348048291 -0.3927549924505244 0.15123902900229924
0.13755397992087218 -0.39199899693851575 -8.51143366355743e-09
0.14135395483923766 -0.3912430014265071 -8.51143366355743e-09
0.14325403170538756 -0.39086498876934156 0.050413003993143975
0.14135395483923766 -0.3912430014265071 0.10082598669539922
0.14135395483923766 -0.3912430014265071 0.050413003993143975
0.14325403170538756 -0.39086498876934156 0.15123902900229924
0.14135395483923766 -0.3912430014265071 0.15123902900229924
0.13755397992087218 -0.39199899693851575 0.15123902900229924
0.1394539971823773 -0.3916209842813502 0.15123902900229924
0.13755397992087218 -0.39199899693851575 0.050413003993143975
0.1394539971823773 -0.3916209842813502 0.050413003993143975
0.13755397992087218 -0.39199899693851575 0.10082598669539922
0.1274877388949475 -0.3897132482183467 0.15123902900229924
0.1274877388949475 -0.3897132482183467 0.10082598669539922
0.12635528044653746 -0.38136174341564283 0.050413003993143975
0.12635528044653746 -0.38136174341564283 -8.51143366355743e-09
0.12692152457190367 -0.38553749581699476 0.050413003993143975
0.1274877388949475 -0.3897132482183467 -8.51143366355743e-09
0.1274877388949475 -0.3897132482183467 0.050413003993143975
0.1487567921156964 -0.38899709841137037 0.050413003993143975
0.14692251877737852 -0.3896197285306941 0.050413003993143975
0.1487567921156964 -0.38899709841137037 -8.51143366355743e-09
0.14508824543906065 -0.39024235865001783 0.15123902900229924
0.14508824543906065 -0.39024235865001783 0.10082598669539922
0.14508824543906065 -0.39024235865001783 -8.51143366355743e-09
0.14508824543906065 -0.39024235865001783 0.050413003993143975
0.12522279219580504 -0.37301023861293897 -8.51143366355743e-09
0.12409027414275023 -0.3646587338102351 -8.51143366355743e-09
0.12635528044653746 -0.38136174341564283 0.10082598669539922
0.12578900651884886 -0.3771859910142909 0.050413003993143975
0.12692152457190367 -0.38553749581699476 0.15123902900229924
0.12578900651884886 -0.3771859910142909 0.15123902900229924
0.12635528044653746 -0.38136174341564283 0.15123902900229924
0.12465648846579405 -0.36883448621158704 0.15123902900229924
0.12522279219580504 -0.37301023861293897 0.15123902900229924
0.12352403001738402 -0.3604829814088832 0.15123902900229924
0.12409027414275023 -0.3646587338102351 0.15123902900229924
0.12352403001738402 -0.3604829814088832 0.050413003993143975
0.12409027414275023 -0.3646587338102351 0.050413003993143975
0.12409027414275023 -0.3646587338102351 0.10082598669539922
0.12522279219580504 -0.37301023861293897 0.050413003993143975
0.12522279219580504 -0.37301023861293897 0.10082598669539922
0.12465648846579405 -0.36883448621158704 0.050413003993143975
0.14692251877737852 -0.3896197285306941 0.15123902900229924
0.15059106545401427 -0.388374498094369 0.050413003993143975
0.1487567921156964 -0.38899709841137037 0.10082598669539922
0.15059106545401427 -0.388374498094369 0.15123902900229924
0.1487567921156964 -0.38899709841137037 0.15123902900229924
0.15242527918768736 -0.3877518679750453 -8.51143366355743e-09
0.15609376625967833 -0.38650660773639783 -8.51143366355743e-09
0.15609376625967833 -0.38650660773639783 0.10082598669539922
0.15609376625967833 -0.38650660773639783 0.050413003993143975
0.15609376625967833 -0.38650660773639783 0.15123902900229924
0.15242527918768736 -0.3877518679750453 0.15123902900229924
0.15425955252600523 -0.38712923785572156 0.15123902900229924
0.15242527918768736 -0.3877518679750453 0.050413003993143975
0.15425955252600523 -0.38712923785572156 0.050413003993143975
0.15242527918768736 -0.3877518679750453 0.10082598669539922
0.12189616756392332 -0.3565962519300471 0.15123902900229924
0.12189616756392332 -0.3565962519300471 0.10082598669539922
0.11864038305235716 -0.34882273336773023 0.050413003993143975
0.11864038305235716 -0.34882273336773023 -8.51143366355743e-09
0.12026827530814024 -0.3527094926488887 0.050413003993143975
0.12189616756392332 -0.3565962519300471 -8.51143366355743e-09
0.12189616756392332 -0.3565962519300471 0.050413003993143975
0.11538465814543578 -0.3410492446077357 -8.51143366355743e-09
0.11212887363386961 -0.3332757558477412 -8.51143366355743e-09
0.11864038305235716 -0.34882273336773023 0.10082598669539922
0.11701249079657408 -0.3449359740865718 0.050413003993143975
0.12026827530814024 -0.3527094926488887 0.15123902900229924
0.11701249079657408 -0.3449359740865718 0.15123902900229924
0.11864038305235716 -0.34882273336773023 0.15123902900229924
0.1137567658896527 -0.3371624853265773 0.15123902900229924
0.11538465814543578 -0.3410492446077357 0.15123902900229924
0.11050104098273131 -0.32938899656658277 0.15123902900229924
0.11212887363386961 -0.3332757558477412 0.15123902900229924
0.11050104098273131 -0.32938899656658277 0.050413003993143975
0.11212887363386961 -0.3332757558477412 0.050413003993143975
0.11212887363386961 -0.3332757558477412 0.10082598669539922
0.11538465814543578 -0.3410492446077357 0.050413003993143975
0.11538465814543578 -0.3410492446077357 0.10082598669539922
0.1137567658896527 -0.3371624853265773 0.050413003993143975
0.10792245464278075 -0.32605587502842054 0.15123902900229924
0.10792245464278075 -0.32605587502842054 0.10082598669539922
0.10276537136984679 -0.3193896319520961 0.050413003993143975
0.10276537136984679 -0.3193896319520961 -8.51143366355743e-09
0.10534389810515257 -0.3227227534902583 0.050413003993143975
0.10792245464278075 -0.32605587502842054 -8.51143366355743e-09
0.10792245464278075 -0.32605587502842054 0.050413003993143975
0.09760822849226805 -0.3127233590734492 -8.51143366355743e-09
0.09245114521933409 -0.30605711599712476 -8.51143366355743e-09
0.10276537136984679 -0.3193896319520961 0.10082598669539922
0.10018681483221861 -0.31605651041393384 0.050413003993143975
0.10534389810515257 -0.3227227534902583 0.15123902900229924
0.10018681483221861 -0.31605651041393384 0.15123902900229924
0.10276537136984679 -0.3193896319520961 0.15123902900229924
0.09502970175696226 -0.309390237535287 0.15123902900229924
0.09760822849226805 -0.3127233590734492 0.15123902900229924
0.0898726184840283 -0.30272399445896253 0.15123902900229924
0.09245114521933409 -0.30605711599712476 0.15123902900229924
0.0898726184840283 -0.30272399445896253 0.050413003993143975
0.09245114521933409 -0.30605711599712476 0.050413003993143975
0.09245114521933409 -0.30605711599712476 0.10082598669539922
0.09760822849226805 -0.3127233590734492 0.050413003993143975
0.09760822849226805 -0.3127233590734492 0.10082598669539922
0.09502970175696226 -0.309390237535287 0.050413003993143975
0.06640090541792723 -0.2848582174432765 0.15123902900229924
0.06975399451208922 -0.2874104883325587 0.15123902900229924
0.07310711340857359 -0.28996272941951856 0.050413003993143975
0.07646020250273558 -0.2925150003088008 0.050413003993143975
0.07310711340857359 -0.28996272941951856 0.10082598669539922
0.07646020250273558 -0.2925150003088008 0.15123902900229924
0.07310711340857359 -0.28996272941951856 0.15123902900229924
0.07981332139921996 -0.2950672413957606 -8.51143366355743e-09
0.08651949958754393 -0.3001717533720027 -8.51143366355743e-09
0.08651949958754393 -0.3001717533720027 0.10082598669539922
0.08651949958754393 -0.3001717533720027 0.050413003993143975
0.08651949958754393 -0.3001717533720027 0.15123902900229924
0.07981332139921996 -0.2950672413957606 0.15123902900229924
0.08316641049338194 -0.29761948248272047 0.15123902900229924
0.07981332139921996 -0.2950672413957606 0.050413003993143975
0.08316641049338194 -0.29761948248272047 0.050413003993143975
0.07981332139921996 -0.2950672413957606 0.10082598669539922
0.06975399451208922 -0.2874104883325587 0.050413003993143975
0.07310711340857359 -0.28996272941951856 -8.51143366355743e-09
0.06304781632376524 -0.28230597635631666 0.15123902900229924
0.06640090541792723 -0.2848582174432765 0.10082598669539922
0.06304781632376524 -0.28230597635631666 0.050413003993143975
0.06640090541792723 -0.2848582174432765 -8.51143366355743e-09
0.06640090541792723 -0.2848582174432765 0.050413003993143975
0.035752197074421364 -0.27112612685089216 0.15123902900229924
0.03965153293562742 -0.27272324820880994 0.15123902900229924
0.04355092840147825 -0.2743203844678889 0.050413003993143975
0.04745032386732908 -0.2759174909246455 0.050413003993143975
0.04355092840147825 -0.2743203844678889 0.10082598669539922
0.04745032386732908 -0.2759174909246455 0.15123902900229924
0.04355092840147825 -0.2743203844678889 0.15123902900229924
0.05134968953085752 -0.2775146122825633 -8.51143366355743e-09
0.059148420857914406 -0.28070886989956007 -8.51143366355743e-09
0.059148420857914406 -0.28070886989956007 0.10082598669539922
0.059148420857914406 -0.28070886989956007 0.050413003993143975
0.059148420857914406 -0.28070886989956007 0.15123902900229924
0.05134968953085752 -0.2775146122825633 0.15123902900229924
0.055249025392063576 -0.2791117336404811 0.15123902900229924
0.05134968953085752 -0.2775146122825633 0.050413003993143975
0.055249025392063576 -0.2791117336404811 0.050413003993143975
0.05134968953085752 -0.2775146122825633 0.10082598669539922
0.03965153293562742 -0.27272324820880994 0.050413003993143975
0.04355092840147825 -0.2743203844678889 -8.51143366355743e-09
0.03185283141089292 -0.26952900549297437 0.15123902900229924
0.035752197074421364 -0.27112612685089216 0.10082598669539922
0.03185283141089292 -0.26952900549297437 0.050413003993143975
0.035752197074421364 -0.27112612685089216 -8.51143366355743e-09
0.035752197074421364 -0.27112612685089216 0.050413003993143975
0.002592106627949198 -0.2657936271083842 0.15123902900229924
0.00677221016836973 -0.2663272525918971 0.15123902900229924
0.010952313708790263 -0.26686087807541 0.050413003993143975
0.015132417249210795 -0.26739450355892286 0.050413003993143975
0.010952313708790263 -0.26686087807541 0.10082598669539922
0.015132417249210795 -0.26739450355892286 0.15123902900229924
0.010952313708790263 -0.26686087807541 0.15123902900229924
0.019312520789631325 -0.26792811414127454 -8.51143366355743e-09
0.027672698068150002 -0.2689953800094615 -8.51143366355743e-09
0.027672698068150002 -0.2689953800094615 0.10082598669539922
0.027672698068150002 -0.2689953800094615 0.050413003993143975
0.027672698068150002 -0.2689953800094615 0.15123902900229924
0.019312520789631325 -0.26792811414127454 0.15123902900229924
0.02349259452772947 -0.2684617545259486 0.15123902900229924
0.019312520789631325 -0.26792811414127454 0.050413003993143975
0.02349259452772947 -0.2684617545259486 0.050413003993143975
0.019312520789631325 -0.26792811414127454 0.10082598669539922
0.00677221016836973 -0.2663272525918971 0.050413003993143975
0.010952313708790263 -0.26686087807541 -8.51143366355743e-09
-0.0015880267147937218 -0.26526000162487134 0.15123902900229924
0.002592106627949198 -0.2657936271083842 0.10082598669539922
-0.0015880267147937218 -0.26526000162487134 0.050413003993143975
0.002592106627949198 -0.2657936271083842 -8.51143366355743e-09
0.002592106627949198 -0.2657936271083842 0.050413003993143975
-0.014115343523494283 -0.266959121431161 -8.51143366355743e-09
-0.0057637791161456505 -0.2658263649595271 -8.51143366355743e-09
-0.0057637791161456505 -0.2658263649595271 0.10082598669539922
-0.0057637791161456505 -0.2658263649595271 0.050413003993143975
-0.0057637791161456505 -0.2658263649595271 0.15123902900229924
-0.014115343523494283 -0.266959121431161 0.15123902900229924
-0.009939591122142355 -0.26639275809650526 0.15123902900229924
-0.014115343523494283 -0.266959121431161 0.050413003993143975
-0.009939591122142355 -0.26639275809650526 0.050413003993143975
-0.014115343523494283 -0.266959121431161 0.10082598669539922
