ply
format ascii 1.0
element vertex 332
property float x
property float y
property float z
element face 0
property list uchar int vertex_indices
end_header
-0.01829115552949099 -0.267525499666978 -8.51143366355743e-09
-0.03499425454186587 -0.2697909977090846 -8.51143366355743e-09
-0.050540934038631004 -0.27630200048809156 -8.51143366355743e-09
-0.06608761353539613 -0.2828130032670985 -8.51143366355743e-09
-0.0794197718624988 -0.2931264843595515 -8.51143366355743e-09
-0.09275201959656862 -0.3034399952543269 -8.51143366355743e-09
-0.10296098394440797 -0.3168530072820674 -8.51143366355743e-09
-0.11316997809456972 -0.3302659895074855 -8.51143366355743e-09
-0.11955898506688264 -0.34586348196392164 -8.51143366355743e-09
-0.12594799203919557 -0.3614610042226802 -8.51143366355743e-09
-0.12808298571156648 -0.3781815077913295 -8.51143366355743e-09
-0.1302179942850986 -0.3949019815576564 -8.51143366355743e-09
-0.13679898781823305 -0.39447047373180494 -8.51143366355743e-09
-0.1433799962525287 -0.3940389957082759 -8.51143366355743e-09
-0.1498489926581302 -0.39275248905544385 -8.51143366355743e-09
-0.1563179741625705 -0.3914659824026118 -8.51143366355743e-09
-0.18612297875928072 -0.37772696277027235 -8.51143366355743e-09
-0.18063899381207613 -0.38139097949390516 -8.51143366355743e-09
-0.1625629912142673 -0.3893459941995631 -8.51143366355743e-09
-0.16880799336480287 -0.387225976194192 -8.51143366355743e-09
-0.1747234712366977 -0.3843084778440486 -8.51143366355743e-09
-0.026642719936839622 -0.2686582412374507 0.10082598669539922
-0.01829115552949099 -0.267525499666978 0.10082598669539922
-0.03499425454186587 -0.2697909977090846 0.10082598669539922
-0.026642719936839622 -0.2686582412374507 -8.51143366355743e-09
-0.058314243984691184 -0.27955748697643384 0.10082598669539922
-0.050540934038631004 -0.27630200048809156 0.10082598669539922
-0.04276762409257082 -0.2730464990985881 -8.51143366355743e-09
-0.04276762409257082 -0.2730464990985881 0.10082598669539922
-0.06608761353539613 -0.2828130032670985 0.10082598669539922
-0.058314243984691184 -0.27955748697643384 -8.51143366355743e-09
-0.0860858957295337 -0.2982832398069392 0.10082598669539922
-0.0794197718624988 -0.2931264843595515 0.10082598669539922
-0.07275370760010866 -0.2879697587144862 -8.51143366355743e-09
-0.07275370760010866 -0.2879697587144862 0.10082598669539922
-0.09275201959656862 -0.3034399952543269 0.10082598669539922
-0.0860858957295337 -0.2982832398069392 -8.51143366355743e-09
-0.09785647196816591 -0.31014650126819715 0.10082598669539922
-0.09785647196816591 -0.31014650126819715 -8.51143366355743e-09
-0.10806546611832765 -0.32355948349361524 -8.51143366355743e-09
-0.10296098394440797 -0.3168530072820674 0.10082598669539922
-0.11316997809456972 -0.3302659895074855 0.10082598669539922
-0.10806546611832765 -0.32355948349361524 0.10082598669539922
-0.11636450393246797 -0.33806475063686475 0.10082598669539922
-0.11636450393246797 -0.33806475063686475 -8.51143366355743e-09
-0.12275348110245851 -0.3536622430933009 -8.51143366355743e-09
-0.11955898506688264 -0.34586348196392164 0.10082598669539922
-0.12594799203919557 -0.3614610042226802 0.10082598669539922
-0.12275348110245851 -0.3536622430933009 0.10082598669539922
-0.12701548142480043 -0.36982124110584363 0.10082598669539922
-0.12701548142480043 -0.36982124110584363 -8.51143366355743e-09
-0.12915050489949373 -0.3865417446744929 -8.51143366355743e-09
-0.12808298571156648 -0.3781815077913295 0.10082598669539922
-0.1302179942850986 -0.3949019815576564 0.10082598669539922
-0.12915050489949373 -0.3865417446744929 0.10082598669539922
-0.14008949203538087 -0.3942547347200404 0.10082598669539922
-0.13679898781823305 -0.39447047373180494 0.10082598669539922
-0.13350848360108522 -0.39468624254589185 -8.51143366355743e-09
-0.13350848360108522 -0.39468624254589185 0.10082598669539922
-0.1433799962525287 -0.3940389957082759 0.10082598669539922
-0.14008949203538087 -0.3942547347200404 -8.51143366355743e-09
-0.15308348341035036 -0.39210923572902784 0.10082598669539922
-0.1563179741625705 -0.3914659824026118 0.10082598669539922
-0.15308348341035036 -0.39210923572902784 -8.51143366355743e-09
-0.1498489926581302 -0.39275248905544385 0.10082598669539922
-0.14661448700474886 -0.39339574238185987 -8.51143366355743e-09
-0.14661448700474886 -0.39339574238185987 0.10082598669539922
-0.1888649861340442 -0.3758949842107783 0.10082598669539922
-0.1888649861340442 -0.3758949842107783 -8.51143366355743e-09
-0.18612297875928072 -0.37772696277027235 0.10082598669539922
-0.18338098628567842 -0.37955897113208875 -8.51143366355743e-09
-0.18063899381207613 -0.38139097949390516 0.10082598669539922
-0.18338098628567842 -0.37955897113208875 0.10082598669539922
-0.16568548483895448 -0.38828598519687757 0.10082598669539922
-0.1625629912142673 -0.3893459941995631 0.10082598669539922
-0.1594404826884189 -0.3904059733999263 -8.51143366355743e-09
-0.1594404826884189 -0.3904059733999263 0.10082598669539922
-0.16880799336480287 -0.387225976194192 0.10082598669539922
-0.16568548483895448 -0.38828598519687757 -8.51143366355743e-09
-0.17768123252438692 -0.38284974357013807 0.10082598669539922
-0.17768123252438692 -0.38284974357013807 -8.51143366355743e-09
-0.1747234712366977 -0.3843084778440486 0.10082598669539922
-0.1717657397513309 -0.3857672419202815 -8.51143366355743e-09
-0.1717657397513309 -0.3857672419202815 0.10082598669539922
-0.03081850214051394 -0.26922461947326765 0.15123902900229924
-0.026642719936839622 -0.2686582412374507 0.15123902900229924
-0.022466907930842918 -0.26809186300163373 0.050413003993143975
-0.01829115552949099 -0.267525499666978 0.050413003993143975
-0.022466907930842918 -0.26809186300163373 0.10082598669539922
-0.01829115552949099 -0.267525499666978 0.15123902900229924
-0.022466907930842918 -0.26809186300163373 0.15123902900229924
-0.026642719936839622 -0.2686582412374507 0.050413003993143975
-0.022466907930842918 -0.26809186300163373 -8.51143366355743e-09
-0.03499425454186587 -0.2697909977090846 0.15123902900229924
-0.03081850214051394 -0.26922461947326765 0.10082598669539922
-0.03499425454186587 -0.2697909977090846 0.050413003993143975
-0.03081850214051394 -0.26922461947326765 -8.51143366355743e-09
-0.03081850214051394 -0.26922461947326765 0.050413003993143975
-0.062200943661204856 -0.2811852600229274 0.15123902900229924
-0.058314243984691184 -0.27955748697643384 0.15123902900229924
-0.05442760391282229 -0.2779297586334239 0.050413003993143975
-0.050540934038631004 -0.27630200048809156 0.050413003993143975
-0.05442760391282229 -0.2779297586334239 0.10082598669539922
-0.050540934038631004 -0.27630200048809156 0.15123902900229924
-0.05442760391282229 -0.2779297586334239 0.15123902900229924
-0.04665429396676211 -0.2746742572439204 -8.51143366355743e-09
-0.03888095421837954 -0.27141875585441694 -8.51143366355743e-09
-0.03888095421837954 -0.27141875585441694 0.10082598669539922
-0.03888095421837954 -0.27141875585441694 0.050413003993143975
-0.03888095421837954 -0.27141875585441694 0.15123902900229924
-0.04665429396676211 -0.2746742572439204 0.15123902900229924
-0.04276762409257082 -0.2730464990985881 0.15123902900229924
-0.04665429396676211 -0.2746742572439204 0.050413003993143975
-0.04276762409257082 -0.2730464990985881 0.050413003993143975
-0.04665429396676211 -0.2746742572439204 0.10082598669539922
-0.058314243984691184 -0.27955748697643384 0.050413003993143975
-0.05442760391282229 -0.2779297586334239 -8.51143366355743e-09
-0.06608761353539613 -0.2828130032670985 0.15123902900229924
-0.062200943661204856 -0.2811852600229274 0.10082598669539922
-0.06608761353539613 -0.2828130032670985 0.050413003993143975
-0.062200943661204856 -0.2811852600229274 -8.51143366355743e-09
-0.062200943661204856 -0.2811852600229274 0.050413003993143975
-0.08941892786072878 -0.30086161753063306 0.15123902900229924
-0.0860858957295337 -0.2982832398069392 0.15123902900229924
-0.08275286359833864 -0.29570486208324537 0.050413003993143975
-0.0794197718624988 -0.2931264843595515 0.050413003993143975
-0.08275286359833864 -0.29570486208324537 0.10082598669539922
-0.0794197718624988 -0.2931264843595515 0.15123902900229924
-0.08275286359833864 -0.29570486208324537 0.15123902900229924
-0.07608673973130373 -0.29054813643818006 -8.51143366355743e-09
-0.06942061586426881 -0.28539138099079236 -8.51143366355743e-09
-0.06942061586426881 -0.28539138099079236 0.10082598669539922
-0.06942061586426881 -0.28539138099079236 0.050413003993143975
-0.06942061586426881 -0.28539138099079236 0.15123902900229924
-0.07608673973130373 -0.29054813643818006 0.15123902900229924
-0.07275370760010866 -0.2879697587144862 0.15123902900229924
-0.07608673973130373 -0.29054813643818006 0.050413003993143975
-0.07275370760010866 -0.2879697587144862 0.050413003993143975
-0.07608673973130373 -0.29054813643818006 0.10082598669539922
-0.0860858957295337 -0.2982832398069392 0.050413003993143975
-0.08275286359833864 -0.29570486208324537 -8.51143366355743e-09
-0.09275201959656862 -0.3034399952543269 0.15123902900229924
-0.08941892786072878 -0.30086161753063306 0.10082598669539922
-0.09275201959656862 -0.3034399952543269 0.050413003993143975
-0.08941892786072878 -0.30086161753063306 -8.51143366355743e-09
-0.08941892786072878 -0.30086161753063306 0.050413003993143975
-0.09530423088120607 -0.30679323336010084 0.15123902900229924
-0.09530423088120607 -0.30679323336010084 0.10082598669539922
-0.10040874285744814 -0.3134997393739711 0.050413003993143975
-0.10040874285744814 -0.3134997393739711 -8.51143366355743e-09
-0.09785647196816591 -0.31014650126819715 0.050413003993143975
-0.09530423088120607 -0.30679323336010084 -8.51143366355743e-09
-0.09530423088120607 -0.30679323336010084 0.050413003993143975
-0.10551322503136781 -0.3202062453878413 -8.51143366355743e-09
-0.11061773700760988 -0.32691275140171155 -8.51143366355743e-09
-0.10040874285744814 -0.3134997393739711 0.10082598669539922
-0.10296098394440797 -0.3168530072820674 0.050413003993143975
-0.09785647196816591 -0.31014650126819715 0.15123902900229924
-0.10296098394440797 -0.3168530072820674 0.15123902900229924
-0.10040874285744814 -0.3134997393739711 0.15123902900229924
-0.10806546611832765 -0.32355948349361524 0.15123902900229924
-0.10551322503136781 -0.3202062453878413 0.15123902900229924
-0.11316997809456972 -0.3302659895074855 0.15123902900229924
-0.11061773700760988 -0.32691275140171155 0.15123902900229924
-0.11316997809456972 -0.3302659895074855 0.050413003993143975
-0.11061773700760988 -0.32691275140171155 0.050413003993143975
-0.11061773700760988 -0.32691275140171155 0.10082598669539922
-0.10551322503136781 -0.3202062453878413 0.050413003993143975
-0.10551322503136781 -0.3202062453878413 0.10082598669539922
-0.10806546611832765 -0.32355948349361524 0.050413003993143975
-0.11476723356293825 -0.3341653551710139 0.15123902900229924
-0.11476723356293825 -0.3341653551710139 0.10082598669539922
-0.11796174449967531 -0.3419641163003932 0.050413003993143975
-0.11796174449967531 -0.3419641163003932 -8.51143366355743e-09
-0.11636450393246797 -0.33806475063686475 0.050413003993143975
-0.11476723356293825 -0.3341653551710139 -8.51143366355743e-09
-0.11476723356293825 -0.3341653551710139 0.050413003993143975
-0.12115624053525118 -0.34976287742977247 -8.51143366355743e-09
-0.12435072166966585 -0.35756163855915174 -8.51143366355743e-09
-0.11796174449967531 -0.3419641163003932 0.10082598669539922
-0.11955898506688264 -0.34586348196392164 0.050413003993143975
-0.11636450393246797 -0.33806475063686475 0.15123902900229924
-0.11955898506688264 -0.34586348196392164 0.15123902900229924
-0.11796174449967531 -0.3419641163003932 0.15123902900229924
-0.12275348110245851 -0.3536622430933009 0.15123902900229924
-0.12115624053525118 -0.34976287742977247 0.15123902900229924
-0.12594799203919557 -0.3614610042226802 0.15123902900229924
-0.12435072166966585 -0.35756163855915174 0.15123902900229924
-0.12594799203919557 -0.3614610042226802 0.050413003993143975
-0.12435072166966585 -0.35756163855915174 0.050413003993143975
-0.12435072166966585 -0.35756163855915174 0.10082598669539922
-0.12115624053525118 -0.34976287742977247 0.050413003993143975
-0.12115624053525118 -0.34976287742977247 0.10082598669539922
-0.12275348110245851 -0.3536622430933009 0.050413003993143975
-0.126481736731998 -0.3656411375654231 0.15123902900229924
-0.126481736731998 -0.3656411375654231 0.10082598669539922
-0.12754925591992525 -0.37400137444858655 0.050413003993143975
-0.12754925591992525 -0.37400137444858655 -8.51143366355743e-09
-0.12701548142480043 -0.36982124110584363 0.050413003993143975
-0.126481736731998 -0.3656411375654231 -8.51143366355743e-09
-0.126481736731998 -0.3656411375654231 0.050413003993143975
-0.1286167304043689 -0.38236161133175 -8.51143366355743e-09
-0.12968424959229616 -0.39072184821491346 -8.51143366355743e-09
-0.12754925591992525 -0.37400137444858655 0.10082598669539922
-0.12808298571156648 -0.3781815077913295 0.050413003993143975
-0.12701548142480043 -0.36982124110584363 0.15123902900229924
-0.12808298571156648 -0.3781815077913295 0.15123902900229924
-0.12754925591992525 -0.37400137444858655 0.15123902900229924
-0.12915050489949373 -0.3865417446744929 0.15123902900229924
-0.1286167304043689 -0.38236161133175 0.15123902900229924
-0.1302179942850986 -0.3949019815576564 0.15123902900229924
-0.12968424959229616 -0.39072184821491346 0.15123902900229924
-0.1302179942850986 -0.3949019815576564 0.050413003993143975
-0.12968424959229616 -0.39072184821491346 0.050413003993143975
-0.12968424959229616 -0.39072184821491346 0.10082598669539922
-0.1286167304043689 -0.38236161133175 0.050413003993143975
-0.1286167304043689 -0.38236161133175 0.10082598669539922
-0.12915050489949373 -0.3865417446744929 0.050413003993143975
-0.1417347292427936 -0.39414688011531934 0.15123902900229924
-0.14008949203538087 -0.3942547347200404 0.15123902900229924
-0.13844423992680696 -0.39436261912708387 0.050413003993143975
-0.13679898781823305 -0.39447047373180494 0.050413003993143975
-0.13844423992680696 -0.39436261912708387 0.10082598669539922
-0.13679898781823305 -0.39447047373180494 0.15123902900229924
-0.13844423992680696 -0.39436261912708387 0.15123902900229924
-0.13515375061082033 -0.3945783581388484 -8.51143366355743e-09
-0.1318632463936725 -0.3947940971506129 -8.51143366355743e-09
-0.1318632463936725 -0.3947940971506129 0.10082598669539922
-0.1318632463936725 -0.3947940971506129 0.050413003993143975
-0.1318632463936725 -0.3947940971506129 0.15123902900229924
-0.13515375061082033 -0.3945783581388484 0.15123902900229924
-0.13350848360108522 -0.39468624254589185 0.15123902900229924
-0.13515375061082033 -0.3945783581388484 0.050413003993143975
-0.13350848360108522 -0.39468624254589185 0.050413003993143975
-0.13515375061082033 -0.3945783581388484 0.10082598669539922
-0.14008949203538087 -0.3942547347200404 0.050413003993143975
-0.13844423992680696 -0.39436261912708387 -8.51143366355743e-09
-0.1433799962525287 -0.3940389957082759 0.15123902900229924
-0.1417347292427936 -0.39414688011531934 0.10082598669539922
-0.1433799962525287 -0.3940389957082759 0.050413003993143975
-0.1417347292427936 -0.39414688011531934 -8.51143366355743e-09
-0.1417347292427936 -0.39414688011531934 0.050413003993143975
-0.15146623058365968 -0.39243086239223585 0.050413003993143975
-0.15308348341035036 -0.39210923572902784 0.050413003993143975
-0.15146623058365968 -0.39243086239223585 -8.51143366355743e-09
-0.15470073623704103 -0.39178760906581983 0.15123902900229924
-0.1563179741625705 -0.3914659824026118 0.15123902900229924
-0.15470073623704103 -0.39178760906581983 0.10082598669539922
-0.1563179741625705 -0.3914659824026118 0.050413003993143975
-0.15470073623704103 -0.39178760906581983 -8.51143366355743e-09
-0.15470073623704103 -0.39178760906581983 0.050413003993143975
-0.15308348341035036 -0.39210923572902784 0.15123902900229924
-0.1498489926581302 -0.39275248905544385 0.050413003993143975
-0.15146623058365968 -0.39243086239223585 0.10082598669539922
-0.1498489926581302 -0.39275248905544385 0.15123902900229924
-0.15146623058365968 -0.39243086239223585 0.15123902900229924
-0.14823173983143953 -0.39307411571865186 -8.51143366355743e-09
-0.14499723417805818 -0.3937173690450679 -8.51143366355743e-09
-0.14499723417805818 -0.3937173690450679 0.10082598669539922
-0.14499723417805818 -0.3937173690450679 0.050413003993143975
-0.14499723417805818 -0.3937173690450679 0.15123902900229924
-0.14823173983143953 -0.39307411571865186 0.15123902900229924
-0.14661448700474886 -0.39339574238185987 0.15123902900229924
-0.14823173983143953 -0.39307411571865186 0.050413003993143975
-0.14661448700474886 -0.39339574238185987 0.050413003993143975
-0.14823173983143953 -0.39307411571865186 0.10082598669539922
-0.18749397499608186 -0.37681098839168653 0.050413003993143975
-0.1888649861340442 -0.3758949842107783 0.050413003993143975
-0.18749397499608186 -0.37681098839168653 -8.51143366355743e-09
-0.1888649861340442 -0.3758949842107783 0.15123902900229924
-0.18612297875928072 -0.37772696277027235 0.050413003993143975
-0.18749397499608186 -0.37681098839168653 0.10082598669539922
-0.18612297875928072 -0.37772696277027235 0.15123902900229924
-0.18749397499608186 -0.37681098839168653 0.15123902900229924
-0.18475198252247957 -0.37864296695118055 -8.51143366355743e-09
-0.18201000495003847 -0.38047497531299695 -8.51143366355743e-09
-0.18063899381207613 -0.38139097949390516 0.050413003993143975
-0.18201000495003847 -0.38047497531299695 0.10082598669539922
-0.18201000495003847 -0.38047497531299695 0.050413003993143975
-0.18063899381207613 -0.38139097949390516 0.15123902900229924
-0.18201000495003847 -0.38047497531299695 0.15123902900229924
-0.18475198252247957 -0.37864296695118055 0.15123902900229924
-0.18338098628567842 -0.37955897113208875 0.15123902900229924
-0.18475198252247957 -0.37864296695118055 0.050413003993143975
-0.18338098628567842 -0.37955897113208875 0.050413003993143975
-0.18475198252247957 -0.37864296695118055 0.10082598669539922
-0.16724672420071748 -0.3877559806955348 0.15123902900229924
-0.16568548483895448 -0.38828598519687757 0.15123902900229924
-0.1641242305760303 -0.38881598969822034 0.050413003993143975
-0.1625629912142673 -0.3893459941995631 0.050413003993143975
-0.1641242305760303 -0.38881598969822034 0.10082598669539922
-0.1625629912142673 -0.3893459941995631 0.15123902900229924
-0.1641242305760303 -0.38881598969822034 0.15123902900229924
-0.1610017369513431 -0.3898759688985835 -8.51143366355743e-09
-0.1578792284254947 -0.39093597790126905 -8.51143366355743e-09
-0.1578792284254947 -0.39093597790126905 0.10082598669539922
-0.1578792284254947 -0.39093597790126905 0.050413003993143975
-0.1578792284254947 -0.39093597790126905 0.15123902900229924
-0.1610017369513431 -0.3898759688985835 0.15123902900229924
-0.1594404826884189 -0.3904059733999263 0.15123902900229924
-0.1610017369513431 -0.3898759688985835 0.050413003993143975
-0.1594404826884189 -0.3904059733999263 0.050413003993143975
-0.1610017369513431 -0.3898759688985835 0.10082598669539922
-0.16568548483895448 -0.38828598519687757 0.050413003993143975
-0.1641242305760303 -0.38881598969822034 -8.51143366355743e-09
-0.16880799336480287 -0.387225976194192 0.15123902900229924
-0.16724672420071748 -0.3877559806955348 0.10082598669539922
-0.16880799336480287 -0.387225976194192 0.050413003993143975
-0.16724672420071748 -0.3877559806955348 -8.51143366355743e-09
-0.16724672420071748 -0.3877559806955348 0.050413003993143975
-0.1762023518805423 -0.38357909580593214 0.050413003993143975
-0.17768123252438692 -0.38284974357013807 0.050413003993143975
-0.1762023518805423 -0.38357909580593214 -8.51143366355743e-09
-0.17916011316823152 -0.3821203615320216 0.15123902900229924
-0.17916011316823152 -0.3821203615320216 0.10082598669539922
-0.17916011316823152 -0.3821203615320216 -8.51143366355743e-09
-0.17916011316823152 -0.3821203615320216 0.050413003993143975
-0.17768123252438692 -0.38284974357013807 0.15123902900229924
-0.1747234712366977 -0.3843084778440486 0.050413003993143975
-0.1762023518805423 -0.38357909580593214 0.10082598669539922
-0.1747234712366977 -0.3843084778440486 0.15123902900229924
-0.1762023518805423 -0.38357909580593214 0.15123902900229924
-0.1732446203951755 -0.38503785988216505 -8.51143366355743e-09
-0.17028685910748628 -0.38649659415607557 -8.51143366355743e-09
-0.17028685910748628 -0.38649659415607557 0.10082598669539922
-0.17028685910748628 -0.38649659415607557 0.050413003993143975
-0.17028685910748628 -0.38649659415607557 0.15123902900229924
-0.1732446203951755 -0.38503785988216505 0.15123902900229924
-0.1717657397513309 -0.3857672419202815 0.15123902900229924
-0.1732446203951755 -0.38503785988216505 0.050413003993143975
-0.1717657397513309 -0.3857672419202815 0.050413003993143975
-0.1732446203951755 -0.38503785988216505 0.10082598669539922
