ply
format ascii 1.0
element vertex 120
property float x
property float y
property float z
element face 0
property list uchar int vertex_indices
end_header
0.2094785471434674 -0.20885450204734907 -8.51143366355743e-09
0.2031870384688458 -0.18604998847370252 -8.51143366355743e-09
0.19826947646094176 -0.1629099901569377 -8.51143366355743e-09
0.19335197405768248 -0.13976999184017286 -8.51143366355743e-09
0.18982701497031065 -0.11637749334697829 -8.51143366355743e-09
0.18630205588293883 -0.09298499485378371 -8.51143366355743e-09
0.18418150143576476 -0.06942378541355239 -8.51143366355743e-09
0.21262430148077818 -0.22025673648243055 -8.51143366355743e-09
0.20633273320151183 -0.1974522378099452 0.10082598669539922
0.2094785471434674 -0.20885450204734907 0.10082598669539922
0.21262430148077818 -0.22025673648243055 0.10082598669539922
0.20633273320151183 -0.1974522378099452 -8.51143366355743e-09
0.2031870384688458 -0.18604998847370252 0.10082598669539922
0.20072828726721617 -0.1744799818647395 -8.51143366355743e-09
0.19581072525931212 -0.15133998354797468 0.10082598669539922
0.19826947646094176 -0.1629099901569377 0.10082598669539922
0.20072828726721617 -0.1744799818647395 0.10082598669539922
0.19581072525931212 -0.15133998354797468 -8.51143366355743e-09
0.19335197405768248 -0.13976999184017286 0.10082598669539922
0.19158946471167418 -0.12807371279125318 -8.51143366355743e-09
0.18806450562430235 -0.104681244100381 0.10082598669539922
0.18982701497031065 -0.11637749334697829 0.10082598669539922
0.19158946471167418 -0.12807371279125318 0.10082598669539922
0.18806450562430235 -0.104681244100381 -8.51143366355743e-09
0.18630205588293883 -0.09298499485378371 0.10082598669539922
0.1852417488570294 -0.08120440503482924 -8.51143366355743e-09
0.18312131361914488 -0.05764319559459792 0.10082598669539922
0.18418150143576476 -0.06942378541355239 0.10082598669539922
0.1852417488570294 -0.08120440503482924 0.10082598669539922
0.18312131361914488 -0.05764319559459792 -8.51143366355743e-09
0.2110513945098004 -0.2145556118143092 -8.51143366355743e-09
0.2079056401724896 -0.20315336247806653 0.050413003993143975
0.2079056401724896 -0.20315336247806653 0.10082598669539922
0.2094785471434674 -0.20885450204734907 0.050413003993143975
0.20475988583517882 -0.19175111314182386 0.15123902900229924
0.20633273320151183 -0.1974522378099452 0.15123902900229924
0.2094785471434674 -0.20885450204734907 0.15123902900229924
0.2079056401724896 -0.20315336247806653 0.15123902900229924
0.21262430148077818 -0.22025673648243055 0.15123902900229924
0.2110513945098004 -0.2145556118143092 0.15123902900229924
0.2110513945098004 -0.2145556118143092 0.050413003993143975
0.2110513945098004 -0.2145556118143092 0.10082598669539922
0.21262430148077818 -0.22025673648243055 0.050413003993143975
0.20475988583517882 -0.19175111314182386 0.10082598669539922
0.2031870384688458 -0.18604998847370252 0.15123902900229924
0.2079056401724896 -0.20315336247806653 -8.51143366355743e-09
0.20633273320151183 -0.1974522378099452 0.050413003993143975
0.20475988583517882 -0.19175111314182386 -8.51143366355743e-09
0.2031870384688458 -0.18604998847370252 0.050413003993143975
0.20475988583517882 -0.19175111314182386 0.050413003993143975
0.19949888186407896 -0.1686949934614192 -8.51143366355743e-09
0.20195769267035338 -0.18026498516922101 -8.51143366355743e-09
0.19704013066244933 -0.15712498685245618 0.050413003993143975
0.19704013066244933 -0.15712498685245618 0.10082598669539922
0.19826947646094176 -0.1629099901569377 0.050413003993143975
0.1945813794608197 -0.14555498024349317 0.15123902900229924
0.19581072525931212 -0.15133998354797468 0.15123902900229924
0.19826947646094176 -0.1629099901569377 0.15123902900229924
0.19704013066244933 -0.15712498685245618 0.15123902900229924
0.20072828726721617 -0.1744799818647395 0.15123902900229924
0.19949888186407896 -0.1686949934614192 0.15123902900229924
0.20195769267035338 -0.18026498516922101 0.15123902900229924
0.20195769267035338 -0.18026498516922101 0.050413003993143975
0.20195769267035338 -0.18026498516922101 0.10082598669539922
0.19949888186407896 -0.1686949934614192 0.050413003993143975
0.19949888186407896 -0.1686949934614192 0.10082598669539922
0.20072828726721617 -0.1744799818647395 0.050413003993143975
0.1945813794608197 -0.14555498024349317 0.10082598669539922
0.19335197405768248 -0.13976999184017286 0.15123902900229924
0.19704013066244933 -0.15712498685245618 -8.51143366355743e-09
0.19581072525931212 -0.15133998354797468 0.050413003993143975
0.1945813794608197 -0.14555498024349317 -8.51143366355743e-09
0.19335197405768248 -0.13976999184017286 0.050413003993143975
0.1945813794608197 -0.14555498024349317 0.050413003993143975
0.1907082696433148 -0.12222560306911574 -8.51143366355743e-09
0.19247071938467833 -0.1339218821180354 -8.51143366355743e-09
0.1889457602973065 -0.11052935382251845 0.050413003993143975
0.1889457602973065 -0.11052935382251845 0.10082598669539922
0.18982701497031065 -0.11637749334697829 0.050413003993143975
0.18718331055594298 -0.09883310457592116 0.15123902900229924
0.18806450562430235 -0.104681244100381 0.15123902900229924
0.18982701497031065 -0.11637749334697829 0.15123902900229924
0.1889457602973065 -0.11052935382251845 0.15123902900229924
0.19158946471167418 -0.12807371279125318 0.15123902900229924
0.1907082696433148 -0.12222560306911574 0.15123902900229924
0.19247071938467833 -0.1339218821180354 0.15123902900229924
0.19247071938467833 -0.1339218821180354 0.050413003993143975
0.19247071938467833 -0.1339218821180354 0.10082598669539922
0.1907082696433148 -0.12222560306911574 0.050413003993143975
0.1907082696433148 -0.12222560306911574 0.10082598669539922
0.19158946471167418 -0.12807371279125318 0.050413003993143975
0.18718331055594298 -0.09883310457592116 0.10082598669539922
0.18630205588293883 -0.09298499485378371 0.15123902900229924
0.1889457602973065 -0.11052935382251845 -8.51143366355743e-09
0.18806450562430235 -0.104681244100381 0.050413003993143975
0.18718331055594298 -0.09883310457592116 -8.51143366355743e-09
0.18630205588293883 -0.09298499485378371 0.050413003993143975
0.18718331055594298 -0.09883310457592116 0.050413003993143975
0.18471168475104185 -0.07531409522419082 -8.51143366355743e-09
0.18577187256766173 -0.08709468504314528 -8.51143366355743e-09
0.18365137772513243 -0.06353350540523635 0.050413003993143975
0.18365137772513243 -0.06353350540523635 0.10082598669539922
0.18418150143576476 -0.06942378541355239 0.050413003993143975
0.18259113030386778 -0.05175291558628188 0.15123902900229924
0.18312131361914488 -0.05764319559459792 0.15123902900229924
0.18418150143576476 -0.06942378541355239 0.15123902900229924
0.18365137772513243 -0.06353350540523635 0.15123902900229924
0.1852417488570294 -0.08120440503482924 0.15123902900229924
0.18471168475104185 -0.07531409522419082 0.15123902900229924
0.18577187256766173 -0.08709468504314528 0.15123902900229924
0.18577187256766173 -0.08709468504314528 0.050413003993143975
0.18577187256766173 -0.08709468504314528 0.10082598669539922
0.18471168475104185 -0.07531409522419082 0.050413003993143975
0.18471168475104185 -0.07531409522419082 0.10082598669539922
0.1852417488570294 -0.08120440503482924 0.050413003993143975
0.18259113030386778 -0.05175291558628188 0.10082598669539922
0.18365137772513243 -0.06353350540523635 -8.51143366355743e-09
0.18312131361914488 -0.05764319559459792 0.050413003993143975
0.18259113030386778 -0.05175291558628188 -8.51143366355743e-09
0.18259113030386778 -0.05175291558628188 0.050413003993143975
