ply
format ascii 1.0
element vertex 120
property float x
property float y
property float z
element face 0
property list uchar int vertex_indices
end_header
0.18206100659323546 -0.045862575973321065 -8.51143366355743e-09
0.18135403590155455 -0.02221598287944899 -8.51143366355743e-09
0.18064700560522887 0.0014306102144230788 -8.51143366355743e-09
0.18135403590155455 0.025076458250235457 -8.51143366355743e-09
0.18206100659323546 0.04872233608837022 -8.51143366355743e-09
0.18418150143576476 0.07228396276111497 -8.51143366355743e-09
0.18630205588293883 0.09584558943385972 -8.51143366355743e-09
0.18982701497031065 0.11923778990383042 -8.51143366355743e-09
0.18206100659323546 -0.045862575973321065 0.10082598669539922
0.18170749144507262 -0.03403927942638503 -8.51143366355743e-09
0.1810005207533917 -0.010392686332512956 0.10082598669539922
0.18135403590155455 -0.02221598287944899 0.10082598669539922
0.18170749144507262 -0.03403927942638503 0.10082598669539922
0.1810005207533917 -0.010392686332512956 -8.51143366355743e-09
0.18064700560522887 0.0014306102144230788 0.10082598669539922
0.1810005207533917 0.013253549133490462 -8.51143366355743e-09
0.18170749144507262 0.036899397169302836 0.10082598669539922
0.18135403590155455 0.025076458250235457 0.10082598669539922
0.1810005207533917 0.013253549133490462 0.10082598669539922
0.18170749144507262 0.036899397169302836 -8.51143366355743e-09
0.18206100659323546 0.04872233608837022 0.10082598669539922
0.18312131361914488 0.06050310472125901 -8.51143366355743e-09
0.1852417488570294 0.08406476119632615 0.10082598669539922
0.18418150143576476 0.07228396276111497 0.10082598669539922
0.18312131361914488 0.06050310472125901 0.10082598669539922
0.1852417488570294 0.08406476119632615 -8.51143366355743e-09
0.18630205588293883 0.09584558943385972 0.10082598669539922
0.18806450562430235 0.10754168966884507 -8.51143366355743e-09
0.18982701497031065 0.11923778990383042 0.10082598669539922
0.18806450562430235 0.10754168966884507 0.10082598669539922
0.18206100659323546 -0.045862575973321065 0.15123902900229924
0.18206100659323546 -0.045862575973321065 0.050413003993143975
0.18153076367331358 -0.028127660955239397 -8.51143366355743e-09
0.18188427882147643 -0.039950957502175435 -8.51143366355743e-09
0.18117724852515074 -0.016304334605980974 0.050413003993143975
0.18117724852515074 -0.016304334605980974 0.10082598669539922
0.18135403590155455 -0.02221598287944899 0.050413003993143975
0.1808237333769879 -0.0044810678613673265 0.15123902900229924
0.1810005207533917 -0.010392686332512956 0.15123902900229924
0.18135403590155455 -0.02221598287944899 0.15123902900229924
0.18117724852515074 -0.016304334605980974 0.15123902900229924
0.18170749144507262 -0.03403927942638503 0.15123902900229924
0.18153076367331358 -0.028127660955239397 0.15123902900229924
0.18188427882147643 -0.039950957502175435 0.15123902900229924
0.18188427882147643 -0.039950957502175435 0.050413003993143975
0.18188427882147643 -0.039950957502175435 0.10082598669539922
0.18153076367331358 -0.028127660955239397 0.050413003993143975
0.18153076367331358 -0.028127660955239397 0.10082598669539922
0.18170749144507262 -0.03403927942638503 0.050413003993143975
0.1808237333769879 -0.0044810678613673265 0.10082598669539922
0.18064700560522887 0.0014306102144230788 0.15123902900229924
0.18117724852515074 -0.016304334605980974 -8.51143366355743e-09
0.1810005207533917 -0.010392686332512956 0.050413003993143975
0.1808237333769879 -0.0044810678613673265 -8.51143366355743e-09
0.18064700560522887 0.0014306102144230788 0.050413003993143975
0.1808237333769879 -0.0044810678613673265 0.050413003993143975
0.18117724852515074 0.019164958988379378 -8.51143366355743e-09
0.1808237333769879 0.00734207967395677 -8.51143366355743e-09
0.18153076367331358 0.030987927709769148 0.050413003993143975
0.18153076367331358 0.030987927709769148 0.10082598669539922
0.18135403590155455 0.025076458250235457 0.050413003993143975
0.18188427882147643 0.04281080702419175 0.15123902900229924
0.18170749144507262 0.036899397169302836 0.15123902900229924
0.18135403590155455 0.025076458250235457 0.15123902900229924
0.18153076367331358 0.030987927709769148 0.15123902900229924
0.1810005207533917 0.013253549133490462 0.15123902900229924
0.18117724852515074 0.019164958988379378 0.15123902900229924
0.1808237333769879 0.00734207967395677 0.15123902900229924
0.1808237333769879 0.00734207967395677 0.050413003993143975
0.1808237333769879 0.00734207967395677 0.10082598669539922
0.18117724852515074 0.019164958988379378 0.050413003993143975
0.18117724852515074 0.019164958988379378 0.10082598669539922
0.1810005207533917 0.013253549133490462 0.050413003993143975
0.18188427882147643 0.04281080702419175 0.10082598669539922
0.18206100659323546 0.04872233608837022 0.15123902900229924
0.18153076367331358 0.030987927709769148 -8.51143366355743e-09
0.18170749144507262 0.036899397169302836 0.050413003993143975
0.18188427882147643 0.04281080702419175 -8.51143366355743e-09
0.18206100659323546 0.04872233608837022 0.050413003993143975
0.18188427882147643 0.04281080702419175 0.050413003993143975
0.18365137772513243 0.06639353374118699 -8.51143366355743e-09
0.18259113030386778 0.05461270550365342 -8.51143366355743e-09
0.18471168475104185 0.07817439178104295 0.050413003993143975
0.18471168475104185 0.07817439178104295 0.10082598669539922
0.18418150143576476 0.07228396276111497 0.050413003993143975
0.18577187256766173 0.08995519021625413 0.15123902900229924
0.1852417488570294 0.08406476119632615 0.15123902900229924
0.18418150143576476 0.07228396276111497 0.15123902900229924
0.18471168475104185 0.07817439178104295 0.15123902900229924
0.18312131361914488 0.06050310472125901 0.15123902900229924
0.18365137772513243 0.06639353374118699 0.15123902900229924
0.18259113030386778 0.05461270550365342 0.15123902900229924
0.18259113030386778 0.05461270550365342 0.050413003993143975
0.18259113030386778 0.05461270550365342 0.10082598669539922
0.18365137772513243 0.06639353374118699 0.050413003993143975
0.18365137772513243 0.06639353374118699 0.10082598669539922
0.18312131361914488 0.06050310472125901 0.050413003993143975
0.18577187256766173 0.08995519021625413 0.10082598669539922
0.18630205588293883 0.09584558943385972 0.15123902900229924
0.18471168475104185 0.07817439178104295 -8.51143366355743e-09
0.1852417488570294 0.08406476119632615 0.050413003993143975
0.18577187256766173 0.08995519021625413 -8.51143366355743e-09
0.18630205588293883 0.09584558943385972 0.050413003993143975
0.18577187256766173 0.08995519021625413 0.050413003993143975
0.1889457602973065 0.11338979939098252 -8.51143366355743e-09
0.18718331055594298 0.1016936395513524 -8.51143366355743e-09
0.1907082696433148 0.1250858996259679 0.050413003993143975
0.1907082696433148 0.1250858996259679 0.10082598669539922
0.18982701497031065 0.11923778990383042 0.050413003993143975
0.18982701497031065 0.11923778990383042 0.15123902900229924
0.1907082696433148 0.1250858996259679 0.15123902900229924
0.18806450562430235 0.10754168966884507 0.15123902900229924
0.1889457602973065 0.11338979939098252 0.15123902900229924
0.18718331055594298 0.1016936395513524 0.15123902900229924
0.18718331055594298 0.1016936395513524 0.050413003993143975
0.18718331055594298 0.1016936395513524 0.10082598669539922
0.1889457602973065 0.11338979939098252 0.050413003993143975
0.1889457602973065 0.11338979939098252 0.10082598669539922
0.18806450562430235 0.10754168966884507 0.050413003993143975
0.1907082696433148 0.1250858996259679 -8.51143366355743e-09
