ply
format ascii 1.0
element vertex 152
property float x
property float y
property float z
element face 0
property list uchar int vertex_indices
end_header
0.19335197405768248 0.14263004997844592 -8.51143366355743e-09
0.19826947646094176 0.16577006319637194 -8.51143366355743e-09
0.2031870384688458 0.1889100168096532 -8.51143366355743e-09
0.2094785471434674 0.21171451548213854 -8.51143366355743e-09
0.2157699962134442 0.23451907375926867 -8.51143366355743e-09
0.22341500716162535 0.2569065783369054 -8.51143366355743e-09
0.2310600181098065 0.2792940829145421 -8.51143366355743e-09
0.23056553797674986 0.2868390176641454 -8.51143366355743e-09
0.23007099823904845 0.2943840120183934 -8.51143366355743e-09
0.19158946471167418 0.1309338901388158 0.10082598669539922
0.19158946471167418 0.1309338901388158 -8.51143366355743e-09
0.19335197405768248 0.14263004997844592 0.10082598669539922
0.19581072525931212 0.15420002678508654 -8.51143366355743e-09
0.20072828726721617 0.1773399803983678 0.10082598669539922
0.19826947646094176 0.16577006319637194 0.10082598669539922
0.19581072525931212 0.15420002678508654 0.10082598669539922
0.20072828726721617 0.1773399803983678 -8.51143366355743e-09
0.2031870384688458 0.1889100168096532 0.10082598669539922
0.20633273320151183 0.20031226614589587 -8.51143366355743e-09
0.21262430148077818 0.22311676481838122 0.10082598669539922
0.2094785471434674 0.21171451548213854 0.10082598669539922
0.20633273320151183 0.20031226614589587 0.10082598669539922
0.21262430148077818 0.22311676481838122 -8.51143366355743e-09
0.2157699962134442 0.23451907375926867 0.10082598669539922
0.21959250168753477 0.24571276644344225 -8.51143366355743e-09
0.22723745303107115 0.268100271021079 0.10082598669539922
0.22341500716162535 0.2569065783369054 0.10082598669539922
0.21959250168753477 0.24571276644344225 0.10082598669539922
0.22723745303107115 0.268100271021079 -8.51143366355743e-09
0.2310600181098065 0.2792940829145421 0.10082598669539922
0.23081277804327818 0.28306652048702136 -8.51143366355743e-09
0.23031823830557677 0.2906115148412694 0.10082598669539922
0.23056553797674986 0.2868390176641454 0.10082598669539922
0.23081277804327818 0.28306652048702136 0.10082598669539922
0.23031823830557677 0.2906115148412694 -8.51143366355743e-09
0.23007099823904845 0.2943840120183934 0.10082598669539922
0.22933350996924254 0.2980920169698705 -8.51143366355743e-09
0.22933350996924254 0.2980920169698705 0.10082598669539922
0.19247071938467833 0.13678194025630847 0.15123902900229924
0.19158946471167418 0.1309338901388158 0.15123902900229924
0.19247071938467833 0.13678194025630847 0.10082598669539922
0.19335197405768248 0.14263004997844592 0.15123902900229924
0.19158946471167418 0.1309338901388158 0.050413003993143975
0.19247071938467833 0.13678194025630847 -8.51143366355743e-09
0.19335197405768248 0.14263004997844592 0.050413003993143975
0.19247071938467833 0.13678194025630847 0.050413003993143975
0.19704013066244933 0.15998501518840685 -8.51143366355743e-09
0.1945813794608197 0.14841503838176623 -8.51143366355743e-09
0.19949888186407896 0.17155505159969225 0.050413003993143975
0.19949888186407896 0.17155505159969225 0.10082598669539922
0.19826947646094176 0.16577006319637194 0.050413003993143975
0.20195769267035338 0.18312502840633288 0.15123902900229924
0.20072828726721617 0.1773399803983678 0.15123902900229924
0.19826947646094176 0.16577006319637194 0.15123902900229924
0.19949888186407896 0.17155505159969225 0.15123902900229924
0.19581072525931212 0.15420002678508654 0.15123902900229924
0.19704013066244933 0.15998501518840685 0.15123902900229924
0.1945813794608197 0.14841503838176623 0.15123902900229924
0.1945813794608197 0.14841503838176623 0.050413003993143975
0.1945813794608197 0.14841503838176623 0.10082598669539922
0.19704013066244933 0.15998501518840685 0.050413003993143975
0.19704013066244933 0.15998501518840685 0.10082598669539922
0.19581072525931212 0.15420002678508654 0.050413003993143975
0.20195769267035338 0.18312502840633288 0.10082598669539922
0.2031870384688458 0.1889100168096532 0.15123902900229924
0.19949888186407896 0.17155505159969225 -8.51143366355743e-09
0.20072828726721617 0.1773399803983678 0.050413003993143975
0.20195769267035338 0.18312502840633288 -8.51143366355743e-09
0.2031870384688458 0.1889100168096532 0.050413003993143975
0.20195769267035338 0.18312502840633288 0.050413003993143975
0.2079056401724896 0.2060133908140172 -8.51143366355743e-09
0.20475988583517882 0.19461114147777453 -8.51143366355743e-09
0.2110513945098004 0.2174155805456151 0.050413003993143975
0.2110513945098004 0.2174155805456151 0.10082598669539922
0.2094785471434674 0.21171451548213854 0.050413003993143975
0.2141971488471112 0.22881788948650256 0.15123902900229924
0.21262430148077818 0.22311676481838122 0.15123902900229924
0.2094785471434674 0.21171451548213854 0.15123902900229924
0.2110513945098004 0.2174155805456151 0.15123902900229924
0.20633273320151183 0.20031226614589587 0.15123902900229924
0.2079056401724896 0.2060133908140172 0.15123902900229924
0.20475988583517882 0.19461114147777453 0.15123902900229924
0.20475988583517882 0.19461114147777453 0.050413003993143975
0.20475988583517882 0.19461114147777453 0.10082598669539922
0.2079056401724896 0.2060133908140172 0.050413003993143975
0.2079056401724896 0.2060133908140172 0.10082598669539922
0.20633273320151183 0.20031226614589587 0.050413003993143975
0.2141971488471112 0.22881788948650256 0.10082598669539922
0.2157699962134442 0.23451907375926867 0.15123902900229924
0.2110513945098004 0.2174155805456151 -8.51143366355743e-09
0.21262430148077818 0.22311676481838122 0.050413003993143975
0.2141971488471112 0.22881788948650256 -8.51143366355743e-09
0.2157699962134442 0.23451907375926867 0.050413003993143975
0.2141971488471112 0.22881788948650256 0.050413003993143975
0.22150378422690245 0.25130964258785143 -8.51143366355743e-09
0.2176812191481671 0.24011594990367785 -8.51143366355743e-09
0.22532623009634825 0.26250345448131457 0.050413003993143975
0.22532623009634825 0.26250345448131457 0.10082598669539922
0.22341500716162535 0.2569065783369054 0.050413003993143975
0.22914873557043883 0.27369714716548815 0.15123902900229924
0.22723745303107115 0.268100271021079 0.15123902900229924
0.22341500716162535 0.2569065783369054 0.15123902900229924
0.22532623009634825 0.26250345448131457 0.15123902900229924
0.21959250168753477 0.24571276644344225 0.15123902900229924
0.22150378422690245 0.25130964258785143 0.15123902900229924
0.2176812191481671 0.24011594990367785 0.15123902900229924
0.2176812191481671 0.24011594990367785 0.050413003993143975
0.2176812191481671 0.24011594990367785 0.10082598669539922
0.22150378422690245 0.25130964258785143 0.050413003993143975
0.22150378422690245 0.25130964258785143 0.10082598669539922
0.21959250168753477 0.24571276644344225 0.050413003993143975
0.22914873557043883 0.27369714716548815 0.10082598669539922
0.2310600181098065 0.2792940829145421 0.15123902900229924
0.22532623009634825 0.26250345448131457 -8.51143366355743e-09
0.22723745303107115 0.268100271021079 0.050413003993143975
0.22914873557043883 0.27369714716548815 -8.51143366355743e-09
0.2310600181098065 0.2792940829145421 0.050413003993143975
0.22914873557043883 0.27369714716548815 0.050413003993143975
0.23068915801001402 0.28495276907558337 -8.51143366355743e-09
0.23093639807654234 0.28118027189845934 -8.51143366355743e-09
0.23044185833884093 0.2887252662527074 0.050413003993143975
0.23044185833884093 0.2887252662527074 0.10082598669539922
0.23056553797674986 0.2868390176641454 0.050413003993143975
0.2301946182723126 0.2924978230344762 0.15123902900229924
0.23031823830557677 0.2906115148412694 0.15123902900229924
0.23056553797674986 0.2868390176641454 0.15123902900229924
0.23044185833884093 0.2887252662527074 0.15123902900229924
0.23081277804327818 0.28306652048702136 0.15123902900229924
0.23068915801001402 0.28495276907558337 0.15123902900229924
0.23093639807654234 0.28118027189845934 0.15123902900229924
0.23093639807654234 0.28118027189845934 0.050413003993143975
0.23093639807654234 0.28118027189845934 0.10082598669539922
0.23068915801001402 0.28495276907558337 0.050413003993143975
0.23068915801001402 0.28495276907558337 0.10082598669539922
0.23081277804327818 0.28306652048702136 0.050413003993143975
0.2301946182723126 0.2924978230344762 0.10082598669539922
0.23007099823904845 0.2943840120183934 0.15123902900229924
0.23044185833884093 0.2887252662527074 -8.51143366355743e-09
0.23031823830557677 0.2906115148412694 0.050413003993143975
0.2301946182723126 0.2924978230344762 -8.51143366355743e-09
0.23007099823904845 0.2943840120183934 0.050413003993143975
0.2301946182723126 0.2924978230344762 0.050413003993143975
0.22896479563666197 0.299946019445609 -8.51143366355743e-09
0.22970228390646788 0.29623801449413195 -8.51143366355743e-09
0.22933350996924254 0.2980920169698705 0.15123902900229924
0.22896479563666197 0.299946019445609 0.15123902900229924
0.22970228390646788 0.29623801449413195 0.15123902900229924
0.22970228390646788 0.29623801449413195 0.050413003993143975
0.22970228390646788 0.29623801449413195 0.10082598669539922
0.22896479563666197 0.299946019445609 0.050413003993143975
0.22896479563666197 0.299946019445609 0.10082598669539922
0.22933350996924254 0.2980920169698705 0.050413003993143975
