ply
format ascii 1.0
element vertex 172
property float x
property float y
property float z
element face 0
property list uchar int vertex_indices
end_header
-0.19827149314927248 0.14415801504726306 -8.51143366355743e-09
-0.20318997902917055 0.16708696821803942 -8.51143366355743e-09
-0.20948150260495332 0.1896775458204259 -8.51143366355743e-09
-0.21577298147725252 0.21226800421352282 -8.51143366355743e-09
-0.2234164874081531 0.23443801144237414 -8.51143366355743e-09
-0.23105997843789247 0.25660801867122546 -8.51143366355743e-09
-0.2304684768443027 0.26563353279704943 -8.51143366355743e-09
-0.2298769901518741 0.27465898731822863 -8.51143366355743e-09
-0.22811248405026582 0.2835300062047948 -8.51143366355743e-09
-0.22634797794865755 0.29240102509136096 -8.51143366355743e-09
-0.19581222040700105 0.1326934788572301 0.10082598669539922
-0.19581222040700105 0.1326934788572301 -8.51143366355743e-09
-0.2007307360892215 0.15562255123729601 -8.51143366355743e-09
-0.19827149314927248 0.14415801504726306 0.10082598669539922
-0.20318997902917055 0.16708696821803942 0.10082598669539922
-0.2007307360892215 0.15562255123729601 0.10082598669539922
-0.20633573336648134 0.17838222721691027 0.10082598669539922
-0.20633573336648134 0.17838222721691027 -8.51143366355743e-09
-0.21262724204110292 0.20097274521465197 -8.51143366355743e-09
-0.20948150260495332 0.1896775458204259 0.10082598669539922
-0.21577298147725252 0.21226800421352282 0.10082598669539922
-0.21262724204110292 0.20097274521465197 0.10082598669539922
-0.2195947418932834 0.22335303763027087 0.10082598669539922
-0.2195947418932834 0.22335303763027087 -8.51143366355743e-09
-0.22723824782418398 0.24552304485912219 -8.51143366355743e-09
-0.2234164874081531 0.23443801144237414 0.10082598669539922
-0.23105997843789247 0.25660801867122546 0.10082598669539922
-0.22723824782418398 0.24552304485912219 0.10082598669539922
-0.23076423509167818 0.26112074593181506 0.10082598669539922
-0.23076423509167818 0.26112074593181506 -8.51143366355743e-09
-0.2301727334980884 0.27014626005763903 -8.51143366355743e-09
-0.2304684768443027 0.26563353279704943 0.10082598669539922
-0.2298769901518741 0.27465898731822863 0.10082598669539922
-0.2301727334980884 0.27014626005763903 0.10082598669539922
-0.22723024590062288 0.2879654858457555 -8.51143366355743e-09
-0.22899475200223116 0.2790945265638341 0.10082598669539922
-0.22811248405026582 0.2835300062047948 0.10082598669539922
-0.22634797794865755 0.29240102509136096 0.10082598669539922
-0.22723024590062288 0.2879654858457555 0.10082598669539922
-0.22899475200223116 0.2790945265638341 -8.51143366355743e-09
-0.22489423556374696 0.2966834996091832 0.10082598669539922
-0.22489423556374696 0.2966834996091832 -8.51143366355743e-09
-0.19458260638760713 0.126961240564536 0.15123902900229924
-0.19458260638760713 0.126961240564536 0.10082598669539922
-0.19704186422871736 0.13842577675456896 0.050413003993143975
-0.19704186422871736 0.13842577675456896 -8.51143366355743e-09
-0.19581222040700105 0.1326934788572301 0.050413003993143975
-0.19458260638760713 0.126961240564536 -8.51143366355743e-09
-0.19458260638760713 0.126961240564536 0.050413003993143975
-0.1995011071686664 0.14989025333995715 -8.51143366355743e-09
-0.20196036500977663 0.16135472992534533 -8.51143366355743e-09
-0.19704186422871736 0.13842577675456896 0.10082598669539922
-0.19827149314927248 0.14415801504726306 0.050413003993143975
-0.19581222040700105 0.1326934788572301 0.15123902900229924
-0.19827149314927248 0.14415801504726306 0.15123902900229924
-0.19704186422871736 0.13842577675456896 0.15123902900229924
-0.2007307360892215 0.15562255123729601 0.15123902900229924
-0.1995011071686664 0.14989025333995715 0.15123902900229924
-0.20318997902917055 0.16708696821803942 0.15123902900229924
-0.20196036500977663 0.16135472992534533 0.15123902900229924
-0.20318997902917055 0.16708696821803942 0.050413003993143975
-0.20196036500977663 0.16135472992534533 0.050413003993143975
-0.20196036500977663 0.16135472992534533 0.10082598669539922
-0.1995011071686664 0.14989025333995715 0.050413003993143975
-0.1995011071686664 0.14989025333995715 0.10082598669539922
-0.2007307360892215 0.15562255123729601 0.050413003993143975
-0.20476287109898714 0.17273462751979723 0.15123902900229924
-0.20476287109898714 0.17273462751979723 0.10082598669539922
-0.20790861053513673 0.18402994612331286 0.050413003993143975
-0.20790861053513673 0.18402994612331286 -8.51143366355743e-09
-0.20633573336648134 0.17838222721691027 0.050413003993143975
-0.20476287109898714 0.17273462751979723 -8.51143366355743e-09
-0.20476287109898714 0.17273462751979723 0.050413003993143975
-0.21105436487244753 0.19532514551753893 -8.51143366355743e-09
-0.21420011920975832 0.206620344911765 -8.51143366355743e-09
-0.20790861053513673 0.18402994612331286 0.10082598669539922
-0.20948150260495332 0.1896775458204259 0.050413003993143975
-0.20633573336648134 0.17838222721691027 0.15123902900229924
-0.20948150260495332 0.1896775458204259 0.15123902900229924
-0.20790861053513673 0.18402994612331286 0.15123902900229924
-0.21262724204110292 0.20097274521465197 0.15123902900229924
-0.21105436487244753 0.19532514551753893 0.15123902900229924
-0.21577298147725252 0.21226800421352282 0.15123902900229924
-0.21420011920975832 0.206620344911765 0.15123902900229924
-0.21577298147725252 0.21226800421352282 0.050413003993143975
-0.21420011920975832 0.206620344911765 0.050413003993143975
-0.21420011920975832 0.206620344911765 0.10082598669539922
-0.21105436487244753 0.19532514551753893 0.050413003993143975
-0.21105436487244753 0.19532514551753893 0.10082598669539922
-0.21262724204110292 0.20097274521465197 0.050413003993143975
-0.21768387658642915 0.21781046131725207 0.15123902900229924
-0.21768387658642915 0.21781046131725207 0.10082598669539922
-0.22150562210129884 0.2288955543386449 0.050413003993143975
-0.22150562210129884 0.2288955543386449 -8.51143366355743e-09
-0.2195947418932834 0.22335303763027087 0.050413003993143975
-0.21768387658642915 0.21781046131725207 -8.51143366355743e-09
-0.21768387658642915 0.21781046131725207 0.050413003993143975
-0.22532736761616853 0.23998052815074816 -8.51143366355743e-09
-0.22914911313103822 0.25106550196285143 -8.51143366355743e-09
-0.22150562210129884 0.2288955543386449 0.10082598669539922
-0.2234164874081531 0.23443801144237414 0.050413003993143975
-0.2195947418932834 0.22335303763027087 0.15123902900229924
-0.2234164874081531 0.23443801144237414 0.15123902900229924
-0.22150562210129884 0.2288955543386449 0.15123902900229924
-0.22723824782418398 0.24552304485912219 0.15123902900229924
-0.22532736761616853 0.23998052815074816 0.15123902900229924
-0.23105997843789247 0.25660801867122546 0.15123902900229924
-0.22914911313103822 0.25106550196285143 0.15123902900229924
-0.23105997843789247 0.25660801867122546 0.050413003993143975
-0.22914911313103822 0.25106550196285143 0.050413003993143975
-0.22914911313103822 0.25106550196285143 0.10082598669539922
-0.22532736761616853 0.23998052815074816 0.050413003993143975
-0.22532736761616853 0.23998052815074816 0.10082598669539922
-0.22723824782418398 0.24552304485912219 0.050413003993143975
-0.23091211421536592 0.25886435249919787 0.15123902900229924
-0.23091211421536592 0.25886435249919787 0.10082598669539922
-0.23061637086915163 0.26337713936443224 0.050413003993143975
-0.23061637086915163 0.26337713936443224 -8.51143366355743e-09
-0.23076423509167818 0.26112074593181506 0.050413003993143975
-0.23091211421536592 0.25886435249919787 -8.51143366355743e-09
-0.23091211421536592 0.25886435249919787 0.050413003993143975
-0.23032061262177614 0.26788986662502184 -8.51143366355743e-09
-0.23002485437440065 0.2724026534902562 -8.51143366355743e-09
-0.23061637086915163 0.26337713936443224 0.10082598669539922
-0.2304684768443027 0.26563353279704943 0.050413003993143975
-0.23076423509167818 0.26112074593181506 0.15123902900229924
-0.2304684768443027 0.26563353279704943 0.15123902900229924
-0.23061637086915163 0.26337713936443224 0.15123902900229924
-0.2301727334980884 0.27014626005763903 0.15123902900229924
-0.23032061262177614 0.26788986662502184 0.15123902900229924
-0.2298769901518741 0.27465898731822863 0.15123902900229924
-0.23002485437440065 0.2724026534902562 0.15123902900229924
-0.2298769901518741 0.27465898731822863 0.050413003993143975
-0.23002485437440065 0.2724026534902562 0.050413003993143975
-0.23002485437440065 0.2724026534902562 0.10082598669539922
-0.23032061262177614 0.26788986662502184 0.050413003993143975
-0.23032061262177614 0.26788986662502184 0.10082598669539922
-0.2301727334980884 0.27014626005763903 0.050413003993143975
-0.22767136497544435 0.2857477758275975 -8.51143366355743e-09
-0.2267891119246402 0.2901832554685582 -8.51143366355743e-09
-0.2285536031250873 0.28131223658199206 0.050413003993143975
-0.2285536031250873 0.28131223658199206 0.10082598669539922
-0.22811248405026582 0.2835300062047948 0.050413003993143975
-0.22943587107705263 0.27687675694103137 0.15123902900229924
-0.22899475200223116 0.2790945265638341 0.15123902900229924
-0.22811248405026582 0.2835300062047948 0.15123902900229924
-0.2285536031250873 0.28131223658199206 0.15123902900229924
-0.22723024590062288 0.2879654858457555 0.15123902900229924
-0.22767136497544435 0.2857477758275975 0.15123902900229924
-0.22634797794865755 0.29240102509136096 0.15123902900229924
-0.2267891119246402 0.2901832554685582 0.15123902900229924
-0.22634797794865755 0.29240102509136096 0.050413003993143975
-0.2267891119246402 0.2901832554685582 0.050413003993143975
-0.2267891119246402 0.2901832554685582 0.10082598669539922
-0.22767136497544435 0.2857477758275975 0.050413003993143975
-0.22767136497544435 0.2857477758275975 0.10082598669539922
-0.22723024590062288 0.2879654858457555 0.050413003993143975
-0.22943587107705263 0.27687675694103137 0.10082598669539922
-0.2285536031250873 0.28131223658199206 -8.51143366355743e-09
-0.22899475200223116 0.2790945265638341 0.050413003993143975
-0.22943587107705263 0.27687675694103137 -8.51143366355743e-09
-0.22943587107705263 0.27687675694103137 0.050413003993143975
-0.22562111420678285 0.2945422623502721 0.15123902900229924
-0.22562111420678285 0.2945422623502721 0.10082598669539922
-0.22416735692071107 0.29882473686809435 0.050413003993143975
-0.22416735692071107 0.29882473686809435 -8.51143366355743e-09
-0.22489423556374696 0.2966834996091832 0.050413003993143975
-0.22562111420678285 0.2945422623502721 -8.51143366355743e-09
-0.22562111420678285 0.2945422623502721 0.050413003993143975
-0.22416735692071107 0.29882473686809435 0.10082598669539922
-0.22489423556374696 0.2966834996091832 0.15123902900229924
-0.22416735692071107 0.29882473686809435 0.15123902900229924
