ply
format ascii 1.0
element vertex 131
property float x
property float y
property float z
element face 0
property list uchar int vertex_indices
end_header
-0.0966767172341266 0.12657923439617053 0.2016519819022321
-0.09913597507523683 0.13804377058620348 0.2016519819022321
-0.10405449075745729 0.16097278336162463 0.2016519819022321
-0.10159523291634706 0.14950824717159167 0.2016519819022321
-0.10159573955582765 0.17254276016826525 0.2016519819022321
-0.10474149389313844 0.1838380191671361 0.2016519819022321
-0.11103300256776003 0.20642847756023303 0.2016519819022321
-0.10788724823044923 0.19513327816600695 0.2016519819022321
-0.10788724823044923 0.2178307268964757 0.2016519819022321
-0.11170897884415773 0.22891581991786852 0.2016519819022321
-0.1193524847750583 0.25108576754207507 0.2016519819022321
-0.11553073926018861 0.2400007937299718 0.2016519819022321
-0.11552997930096773 0.26227946022624865 0.2016519819022321
-0.11523425085591463 0.2667923066961278 0.2016519819022321
-0.11464273436116365 0.275817761217307 0.2016519819022321
-0.11493849260853914 0.2713050339567174 0.2016519819022321
-0.11376048131035951 0.28025330046291247 0.2016519819022321
-0.11199597520875124 0.28912425974483386 0.2016519819022321
-0.11287824316071657 0.2846887204992284 0.2016519819022321
-0.11224321527527956 0.2928967569219579 0.2016519819022321
-0.11078948779153017 0.29717923143978014 0.2016519819022321
-0.040711293650142234 0.2466659639226903 0.1850330148459577
-0.0927653710369983 0.2466659639226903 0.1850330148459577
-0.048338602018825096 0.12925435045833483 0.2016519819022321
-0.14624447627114442 0.1296364162313451 0.2016519819022321
-0.049568245840541404 0.1349866483556737 0.2016519819022321
-0.09790636105584291 0.1323115322935094 0.2016519819022321
-0.14870371921109346 0.1411008332120885 0.2016519819022321
-0.14747412009286073 0.1353685949193944 0.2016519819022321
-0.054486731720439475 0.15791560152645007 0.2016519819022321
-0.10282487673806337 0.15524048546428576 0.2016519819022321
-0.053257117701045555 0.15218342283840075 0.2016519819022321
-0.15362221999215273 0.1640299055921544 0.2016519819022321
-0.1523925910715976 0.15829760769481555 0.2016519819022321
-0.14993336303280977 0.14683319071407214 0.2016519819022321
-0.1511629770522037 0.15256536940212145 0.2016519819022321
-0.050797859859935325 0.14071894625301257 0.2016519819022321
-0.052027473879329246 0.14645112494106188 0.2016519819022321
-0.10036561889695314 0.14377600887889758 0.2016519819022321
-0.10282511515664247 0.16675777176494494 0.2016519819022321
-0.1523928592924991 0.16981483439082995 0.2016519819022321
-0.053257385921947044 0.16370064953441515 0.2016519819022321
-0.05079860491799502 0.175270566736411 0.2016519819022321
-0.05202798051880984 0.16948563793773547 0.2016519819022321
-0.1539657364611545 0.17546249369258776 0.2016519819022321
-0.05237148208665041 0.1809182856428136 0.2016519819022321
-0.10316861672448305 0.1781903598653783 0.2016519819022321
-0.1571114907984653 0.1867577526914586 0.2016519819022321
-0.1555386136298099 0.18111015299434557 0.2016519819022321
-0.058662990761271995 0.20350874403591052 0.2016519819022321
-0.10946009559678224 0.20078087786312 0.2016519819022321
-0.05709014339493899 0.19786114433879748 0.2016519819022321
-0.16340298457192567 0.20934821108455554 0.2016519819022321
-0.16183010740327028 0.2037006113874425 0.2016519819022321
-0.15868436796712068 0.19240535238857165 0.2016519819022321
-0.16025723023461488 0.19805301169032946 0.2016519819022321
-0.053944389057628196 0.18656588533992663 0.2016519819022321
-0.055517236423961204 0.19221354464168444 0.2016519819022321
-0.10631437106179384 0.18948567846889391 0.2016519819022321
-0.10946009559678224 0.21212960222835436 0.2016519819022321
-0.16183010740327028 0.21504939535732165 0.2016519819022321
-0.05709014339493899 0.20920992830867663 0.2016519819022321
-0.053944389057628196 0.2206121776449193 0.2016519819022321
-0.055517236423961204 0.2149109933721532 0.2016519819022321
-0.16374098761128572 0.22059191206569567 0.2016519819022321
-0.05585522456216006 0.22615457514400378 0.2016519819022321
-0.10979811353730348 0.22337324360484972 0.2016519819022321
-0.1675627331261554 0.23167688587779894 0.2016519819022321
-0.16565188272046236 0.22613436916942492 0.2016519819022321
-0.06349871559189943 0.24832464197749987 0.2016519819022321
-0.11744161946820406 0.24554325083370104 0.2016519819022321
-0.06158785028504519 0.24278212526912585 0.2016519819022321
-0.1752062241558948 0.25384689310665026 0.2016519819022321
-0.17329535884904054 0.24830443600292101 0.2016519819022321
-0.16947361333417085 0.23721940258617297 0.2016519819022321
-0.1713844935421863 0.24276185968990222 0.2016519819022321
-0.05776611967133669 0.23169715145702258 0.2016519819022321
-0.05967698497819094 0.2372396681653966 0.2016519819022321
-0.11361987395333437 0.234458217416953 0.2016519819022321
-0.11744124693917421 0.25668264368648425 0.2016519819022321
-0.1732949863200107 0.2594438288557042 0.2016519819022321
-0.061587492657176536 0.25392151812190905 0.2016519819022321
-0.05776495738076357 0.2651152704107274 0.2016519819022321
-0.05967623992013125 0.25951839426631823 0.2016519819022321
-0.17314712209748415 0.26170010307903185 0.2016519819022321
-0.057617108059398216 0.2673716638433446 0.2016519819022321
-0.11538211507844118 0.2645359132635106 0.2016519819022321
-0.17285136385010866 0.266212949548911 0.2016519819022321
-0.1729992429737964 0.26395649651164904 0.2016519819022321
-0.05702562136696963 0.2763971779691686 0.2016519819022321
-0.1147905985836902 0.2735613677846898 0.2016519819022321
-0.05717350049065737 0.2741407845365514 0.2016519819022321
-0.17225986225651888 0.2752384040700902 0.2016519819022321
-0.17240774138020662 0.272982010637473 0.2016519819022321
-0.1727034847264209 0.2684692833768834 0.2016519819022321
-0.17255560560273317 0.27072561720485583 0.2016519819022321
-0.05746922893571047 0.269627997671317 0.2016519819022321
-0.057321379614345115 0.2718843911039342 0.2016519819022321
-0.11508635683106569 0.2690486405241002 0.2016519819022321
-0.1718187431816974 0.27745611408824816 0.2016519819022321
-0.05658448739098696 0.27861488798732653 0.2016519819022321
-0.11420161528634218 0.27803547123546496 0.2016519819022321
-0.17093650503205446 0.28189165333385363 0.2016519819022321
-0.17137760920571474 0.27967394331569567 0.2016519819022321
-0.054819981289378684 0.2874859068738927 0.2016519819022321
-0.1124371091847339 0.2869065497266759 0.2016519819022321
-0.05526111526536135 0.28526813725108996 0.2016519819022321
-0.169171984029285 0.290762612615775 0.2016519819022321
-0.16961311800526765 0.28854490259761706 0.2016519819022321
-0.1704953561549106 0.2841093633520116 0.2016519819022321
-0.17005423708008913 0.2863271925794591 0.2016519819022321
-0.056143353415004295 0.28083265761012927 0.2016519819022321
-0.055702249241344017 0.2830503676282872 0.2016519819022321
-0.11331937713669923 0.28247101048107043 0.2016519819022321
-0.11211962504433778 0.29101050833339587 0.2016519819022321
-0.16929561896371034 0.29264886120433703 0.2016519819022321
-0.054943601322642845 0.2893721554624547 0.2016519819022321
-0.05519087119149355 0.29314459303493395 0.2016519819022321
-0.055067221355907005 0.2912584040510167 0.2016519819022321
-0.16856874032067445 0.29479009846324816 0.2016519819022321
-0.054463992548457664 0.29528588989848986 0.2016519819022321
-0.11151636643456606 0.295037994180869 0.2016519819022321
-0.16711499793576387 0.29907269219036 0.2016519819022321
-0.16784186167763857 0.29693139532680407 0.2016519819022321
-0.053737113905421775 0.297427127157401 0.2016519819022321
-0.05301023526238589 0.2995683644163121 0.2016519819022321
-0.11006260914849428 0.2993204686986913 0.2016519819022321
-0.0927653710369983 0.1725480053770055 0.1850330148459577
-0.06673834724473146 0.2466659639226903 0.1850330148459577
-0.040711293650142234 0.1725480053770055 0.1850330148459577
-0.06673834724473146 0.1725480053770055 0.1850330148459577
