ply
format ascii 1.0
element vertex 246
property float x
property float y
property float z
element face 0
property list uchar int vertex_indices
end_header
0.1579280395979962 -0.3858839776170741 -0.10082597391594417
0.1683514614577374 -0.3807442392957698 -0.10082597391594417
0.16487698750449034 -0.3824574854028712 -0.10082597391594417
0.16140251355124327 -0.38417073150997266 -0.10082597391594417
0.17182605462027403 -0.37903099318866834 -0.10082597391594417
0.1814890404219708 -0.3725727405202876 -0.10082597391594417
0.1782680054183087 -0.3747255112779628 -0.10082597391594417
0.17504703001929137 -0.37687825223331556 -0.10082597391594417
0.18471001582098814 -0.3704199995649348 -0.10082597391594417
0.19344823555899474 -0.362757256234933 -0.10082597391594417
0.19053553538275572 -0.3653114940774928 -0.10082597391594417
0.18762277560187193 -0.3678657319200526 -0.10082597391594417
0.19891523318243834 -0.3572904970300685 -0.10082597391594417
0.20146947102499815 -0.3543780054700862 -0.10082597391594417
0.20657800631476256 -0.3485529925477992 -0.10082597391594417
0.20402376847220274 -0.3514654841077815 -0.10082597391594417
0.19636099533987852 -0.3602029885900508 -0.10082597391594417
0.20873050885153624 -0.3453315105093013 -0.10082597391594417
0.21088301138830992 -0.34210999866848096 -0.10082597391594417
0.21518801646185728 -0.3356670047891627 -0.10082597391594417
0.21303557352972838 -0.33888848682766065 -0.10082597391594417
0.21690153078986021 -0.33219273945217237 -0.10082597391594417
0.21861498551321837 -0.3287185039175044 -0.10082597391594417
0.22204195456457945 -0.3217700030458461 -0.10082597391594417
0.2203284998412213 -0.32524426838283643 -0.10082597391594417
0.2232872744078717 -0.3181014861715327 -0.10082597391594417
0.22453247504187437 -0.31443299909954175 -0.10082597391594417
0.22702305512381407 -0.30709599515323743 -0.10082597391594417
0.22577773528052184 -0.3107645120275508 -0.10082597391594417
0.22777878241492125 -0.30329622885112867 -0.10082597391594417
0.2302995224471173 -0.28803124090557203 -0.10082597391594417
0.23004602389288756 -0.29189698954944715 -0.10082597391594417
0.22853450970602843 -0.2994964923513423 -0.10082597391594417
0.22929029660178038 -0.2956967260492335 -0.10082597391594417
0.23055302100134703 -0.2841654922616969 -0.10082597391594417
0.2310600181098065 -0.27643399497394666 -0.10082597391594417
0.23080651955557677 -0.2802997436178218 -0.10082597391594417
0.22723745303107115 -0.2652402426851283 -0.10082597391594417
0.22341500716162535 -0.25404649039630994 -0.10082597391594417
0.2157699962134442 -0.23165898581867322 -0.10082597391594417
0.21959250168753477 -0.24285273810749158 -0.10082597391594417
0.1579280395979962 -0.3858839776170741 -0.151239001321683
0.1579280395979962 -0.3858839776170741 -0.05041299121368891
0.17008875803900572 -0.37988763114338026 -0.151239001321683
0.1683514614577374 -0.3807442392957698 -0.151239001321683
0.16661428408575865 -0.3816008474481593 -0.05041299121368891
0.16487698750449034 -0.3824574854028712 -0.05041299121368891
0.16661428408575865 -0.3816008474481593 -0.10082597391594417
0.16487698750449034 -0.3824574854028712 -0.151239001321683
0.16661428408575865 -0.3816008474481593 -0.151239001321683
0.15966527657461974 -0.3850273396623622 -0.10082597391594417
0.15966527657461974 -0.3850273396623622 -0.05041299121368891
0.15966527657461974 -0.3850273396623622 -0.151239001321683
0.1631397505278668 -0.38331412335758314 -0.151239001321683
0.16140251355124327 -0.38417073150997266 -0.151239001321683
0.1631397505278668 -0.38331412335758314 -0.05041299121368891
0.16140251355124327 -0.38417073150997266 -0.05041299121368891
0.1631397505278668 -0.38331412335758314 -0.10082597391594417
0.1683514614577374 -0.3807442392957698 -0.05041299121368891
0.17182605462027403 -0.37903099318866834 -0.151239001321683
0.17008875803900572 -0.37988763114338026 -0.10082597391594417
0.17182605462027403 -0.37903099318866834 -0.05041299121368891
0.17008875803900572 -0.37988763114338026 -0.05041299121368891
0.18309955792380186 -0.3714963700426112 -0.151239001321683
0.1814890404219708 -0.3725727405202876 -0.151239001321683
0.17987846331549498 -0.373649110997964 -0.05041299121368891
0.1782680054183087 -0.3747255112779628 -0.05041299121368891
0.17987846331549498 -0.373649110997964 -0.10082597391594417
0.1782680054183087 -0.3747255112779628 -0.151239001321683
0.17987846331549498 -0.373649110997964 -0.151239001321683
0.1734365125174603 -0.37795462271099195 -0.10082597391594417
0.1734365125174603 -0.37795462271099195 -0.05041299121368891
0.1734365125174603 -0.37795462271099195 -0.151239001321683
0.17665748791647765 -0.37580188175563917 -0.151239001321683
0.17504703001929137 -0.37687825223331556 -0.151239001321683
0.17665748791647765 -0.37580188175563917 -0.05041299121368891
0.17504703001929137 -0.37687825223331556 -0.05041299121368891
0.17665748791647765 -0.37580188175563917 -0.10082597391594417
0.1814890404219708 -0.3725727405202876 -0.05041299121368891
0.18471001582098814 -0.3704199995649348 -0.151239001321683
0.18309955792380186 -0.3714963700426112 -0.10082597391594417
0.18471001582098814 -0.3704199995649348 -0.05041299121368891
0.18309955792380186 -0.3714963700426112 -0.05041299121368891
0.1949046750540814 -0.3614801075113307 -0.151239001321683
0.19344823555899474 -0.362757256234933 -0.151239001321683
0.19199185566855284 -0.3640343751562129 -0.05041299121368891
0.19053553538275572 -0.3653114940774928 -0.05041299121368891
0.19199185566855284 -0.3640343751562129 -0.10082597391594417
0.19053553538275572 -0.3653114940774928 -0.151239001321683
0.19199185566855284 -0.3640343751562129 -0.151239001321683
0.18616639571143004 -0.3691428806436549 -0.10082597391594417
0.18616639571143004 -0.3691428806436549 -0.05041299121368891
0.18616639571143004 -0.3691428806436549 -0.151239001321683
0.1890792150969586 -0.3665886129987727 -0.151239001321683
0.18762277560187193 -0.3678657319200526 -0.151239001321683
0.1890792150969586 -0.3665886129987727 -0.05041299121368891
0.18762277560187193 -0.3678657319200526 -0.05041299121368891
0.1890792150969586 -0.3665886129987727 -0.10082597391594417
0.2001924415106854 -0.35583423634891614 -0.05041299121368891
0.2001924415106854 -0.35583423634891614 -0.10082597391594417
0.20146947102499815 -0.3543780054700862 -0.05041299121368891
0.19763814406348082 -0.35874672790889844 -0.151239001321683
0.19891523318243834 -0.3572904970300685 -0.151239001321683
0.20146947102499815 -0.3543780054700862 -0.151239001321683
0.2001924415106854 -0.35583423634891614 -0.151239001321683
0.20402376847220274 -0.3514654841077815 -0.151239001321683
0.20274667935324522 -0.35292174478893384 -0.151239001321683
0.20657800631476256 -0.3485529925477992 -0.151239001321683
0.20530091719580504 -0.35000925322895154 -0.151239001321683
0.20657800631476256 -0.3485529925477992 -0.05041299121368891
0.20530091719580504 -0.35000925322895154 -0.05041299121368891
0.20530091719580504 -0.35000925322895154 -0.10082597391594417
0.20274667935324522 -0.35292174478893384 -0.05041299121368891
0.20274667935324522 -0.35292174478893384 -0.10082597391594417
0.20402376847220274 -0.3514654841077815 -0.05041299121368891
0.19344823555899474 -0.362757256234933 -0.05041299121368891
0.19636099533987852 -0.3602029885900508 -0.151239001321683
0.1949046750540814 -0.3614801075113307 -0.10082597391594417
0.19636099533987852 -0.3602029885900508 -0.05041299121368891
0.1949046750540814 -0.3614801075113307 -0.05041299121368891
0.19763814406348082 -0.35874672790889844 -0.10082597391594417
0.19891523318243834 -0.3572904970300685 -0.05041299121368891
0.19763814406348082 -0.35874672790889844 -0.05041299121368891
0.2098067303176007 -0.3437207545888911 -0.05041299121368891
0.2098067303176007 -0.3437207545888911 -0.10082597391594417
0.21088301138830992 -0.34210999866848096 -0.05041299121368891
0.207654227780827 -0.34694223662738904 -0.151239001321683
0.20873050885153624 -0.3453315105093013 -0.151239001321683
0.21088301138830992 -0.34210999866848096 -0.151239001321683
0.2098067303176007 -0.3437207545888911 -0.151239001321683
0.21303557352972838 -0.33888848682766065 -0.151239001321683
0.21195923285437437 -0.3404992427480708 -0.151239001321683
0.21518801646185728 -0.3356670047891627 -0.151239001321683
0.21411179499579283 -0.3372777607095729 -0.151239001321683
0.21518801646185728 -0.3356670047891627 -0.05041299121368891
0.21411179499579283 -0.3372777607095729 -0.05041299121368891
0.21411179499579283 -0.3372777607095729 -0.10082597391594417
0.21195923285437437 -0.3404992427480708 -0.05041299121368891
0.21195923285437437 -0.3404992427480708 -0.10082597391594417
0.21303557352972838 -0.33888848682766065 -0.05041299121368891
0.207654227780827 -0.34694223662738904 -0.10082597391594417
0.20873050885153624 -0.3453315105093013 -0.05041299121368891
0.207654227780827 -0.34694223662738904 -0.05041299121368891
0.2177582283492169 -0.3304556216848384 -0.05041299121368891
0.2177582283492169 -0.3304556216848384 -0.10082597391594417
0.21861498551321837 -0.3287185039175044 -0.05041299121368891
0.21604477362585875 -0.33392988702182874 -0.151239001321683
0.21690153078986021 -0.33219273945217237 -0.151239001321683
0.21861498551321837 -0.3287185039175044 -0.151239001321683
0.2177582283492169 -0.3304556216848384 -0.151239001321683
0.2203284998412213 -0.32524426838283643 -0.151239001321683
0.2194718022818646 -0.3269813861501704 -0.151239001321683
0.22204195456457945 -0.3217700030458461 -0.151239001321683
0.22118525700522276 -0.32350712081318006 -0.151239001321683
0.22204195456457945 -0.3217700030458461 -0.05041299121368891
0.22118525700522276 -0.32350712081318006 -0.05041299121368891
0.22118525700522276 -0.32350712081318006 -0.10082597391594417
0.2194718022818646 -0.3269813861501704 -0.05041299121368891
0.2194718022818646 -0.3269813861501704 -0.10082597391594417
0.2203284998412213 -0.32524426838283643 -0.05041299121368891
0.22390990452719542 -0.31626724263553724 -0.05041299121368891
0.22390990452719542 -0.31626724263553724 -0.10082597391594417
0.22453247504187437 -0.31443299909954175 -0.05041299121368891
0.22266464428854796 -0.3199357595098506 -0.151239001321683
0.2232872744078717 -0.3181014861715327 -0.151239001321683
0.22453247504187437 -0.31443299909954175 -0.151239001321683
0.22390990452719542 -0.31626724263553724 -0.151239001321683
0.22577773528052184 -0.3107645120275508 -0.151239001321683
0.2251551051611981 -0.31259875556354627 -0.151239001321683
0.22702305512381407 -0.30709599515323743 -0.151239001321683
0.22640042500449034 -0.3089302386892329 -0.151239001321683
0.22702305512381407 -0.30709599515323743 -0.05041299121368891
0.22640042500449034 -0.3089302386892329 -0.05041299121368891
0.22640042500449034 -0.3089302386892329 -0.10082597391594417
0.2251551051611981 -0.31259875556354627 -0.05041299121368891
0.2251551051611981 -0.31259875556354627 -0.10082597391594417
0.22577773528052184 -0.3107645120275508 -0.05041299121368891
0.21604477362585875 -0.33392988702182874 -0.10082597391594417
0.21690153078986021 -0.33219273945217237 -0.05041299121368891
0.21604477362585875 -0.33392988702182874 -0.05041299121368891
0.22266464428854796 -0.3199357595098506 -0.10082597391594417
0.2232872744078717 -0.3181014861715327 -0.05041299121368891
0.22266464428854796 -0.3199357595098506 -0.05041299121368891
0.22740094857169005 -0.30519612690334424 -0.151239001321683
0.22740094857169005 -0.30519612690334424 -0.10082597391594417
0.22815667586279723 -0.3013963606012355 -0.05041299121368891
0.22777878241492125 -0.30329622885112867 -0.05041299121368891
0.22740094857169005 -0.30519612690334424 -0.05041299121368891
0.23017274336768004 -0.2899641003263484 -0.151239001321683
0.23017274336768004 -0.2899641003263484 -0.10082597391594417
0.23004602389288756 -0.29189698954944715 -0.151239001321683
0.23042624192190977 -0.2860983516824733 -0.05041299121368891
0.2302995224471173 -0.28803124090557203 -0.05041299121368891
0.23004602389288756 -0.29189698954944715 -0.05041299121368891
0.23017274336768004 -0.2899641003263484 -0.05041299121368891
0.22815667586279723 -0.3013963606012355 -0.10082597391594417
0.22853450970602843 -0.2994964923513423 -0.05041299121368891
0.22777878241492125 -0.30329622885112867 -0.151239001321683
0.22853450970602843 -0.2994964923513423 -0.151239001321683
0.22815667586279723 -0.3013963606012355 -0.151239001321683
0.22929029660178038 -0.2956967260492335 -0.151239001321683
0.2289124031539044 -0.2975966241014491 -0.151239001321683
0.22966813044501158 -0.29379685779934034 -0.151239001321683
0.22966813044501158 -0.29379685779934034 -0.05041299121368891
0.22966813044501158 -0.29379685779934034 -0.10082597391594417
0.2289124031539044 -0.2975966241014491 -0.05041299121368891
0.2289124031539044 -0.2975966241014491 -0.10082597391594417
0.22929029660178038 -0.2956967260492335 -0.05041299121368891
0.23042624192190977 -0.2860983516824733 -0.10082597391594417
0.23055302100134703 -0.2841654922616969 -0.05041299121368891
0.2302995224471173 -0.28803124090557203 -0.151239001321683
0.23055302100134703 -0.2841654922616969 -0.151239001321683
0.23042624192190977 -0.2860983516824733 -0.151239001321683
0.23080651955557677 -0.2802997436178218 -0.151239001321683
0.2306797404761395 -0.28223263284092054 -0.151239001321683
0.2310600181098065 -0.27643399497394666 -0.151239001321683
0.23093323903036925 -0.2783668841970454 -0.151239001321683
0.2310600181098065 -0.27643399497394666 -0.05041299121368891
0.23093323903036925 -0.2783668841970454 -0.05041299121368891
0.23093323903036925 -0.2783668841970454 -0.10082597391594417
0.2306797404761395 -0.28223263284092054 -0.05041299121368891
0.2306797404761395 -0.28223263284092054 -0.10082597391594417
0.23080651955557677 -0.2802997436178218 -0.05041299121368891
0.22914873557043883 -0.2708371188295375 -0.151239001321683
0.22914873557043883 -0.2708371188295375 -0.10082597391594417
0.22532623009634825 -0.2596433665407191 -0.05041299121368891
0.22723745303107115 -0.2652402426851283 -0.05041299121368891
0.22914873557043883 -0.2708371188295375 -0.05041299121368891
0.22532623009634825 -0.2596433665407191 -0.10082597391594417
0.22341500716162535 -0.25404649039630994 -0.05041299121368891
0.22723745303107115 -0.2652402426851283 -0.151239001321683
0.22341500716162535 -0.25404649039630994 -0.151239001321683
0.22532623009634825 -0.2596433665407191 -0.151239001321683
0.21959250168753477 -0.24285273810749158 -0.151239001321683
0.22150378422690245 -0.24844961425190076 -0.151239001321683
0.2157699962134442 -0.23165898581867322 -0.151239001321683
0.2176812191481671 -0.2372558619630824 -0.151239001321683
0.2157699962134442 -0.23165898581867322 -0.05041299121368891
0.2176812191481671 -0.2372558619630824 -0.05041299121368891
0.2176812191481671 -0.2372558619630824 -0.10082597391594417
0.22150378422690245 -0.24844961425190076 -0.05041299121368891
0.22150378422690245 -0.24844961425190076 -0.10082597391594417
0.21959250168753477 -0.24285273810749158 -0.05041299121368891
0.2141971488471112 -0.2259578462493907 -0.151239001321683
0.2141971488471112 -0.2259578462493907 -0.10082597391594417
0.2141971488471112 -0.2259578462493907 -0.05041299121368891
