ply
format ascii 1.0
element vertex 249
property float x
property float y
property float z
element face 0
property list uchar int vertex_indices
end_header
-0.01829115552949099 -0.267525499666978 -0.10082597391594417
-0.03499425454186587 -0.2697909977090846 -0.10082597391594417
-0.026642719936839622 -0.2686582412374507 -0.10082597391594417
-0.04276762409257082 -0.2730464990985881 -0.10082597391594417
-0.050540934038631004 -0.27630200048809156 -0.10082597391594417
-0.06608761353539613 -0.2828130032670985 -0.10082597391594417
-0.058314243984691184 -0.27955748697643384 -0.10082597391594417
-0.07275370760010866 -0.2879697587144862 -0.10082597391594417
-0.0794197718624988 -0.2931264843595515 -0.10082597391594417
-0.09275201959656862 -0.3034399952543269 -0.10082597391594417
-0.0860858957295337 -0.2982832398069392 -0.10082597391594417
-0.10806546611832765 -0.32355948349361524 -0.10082597391594417
-0.10296098394440797 -0.3168530072820674 -0.10082597391594417
-0.09785647196816591 -0.31014650126819715 -0.10082597391594417
-0.11316997809456972 -0.3302659895074855 -0.10082597391594417
-0.12275348110245851 -0.3536622430933009 -0.10082597391594417
-0.11955898506688264 -0.34586348196392164 -0.10082597391594417
-0.11636450393246797 -0.33806475063686475 -0.10082597391594417
-0.12594799203919557 -0.3614610042226802 -0.10082597391594417
-0.12915050489949373 -0.3865417446744929 -0.10082597391594417
-0.12808298571156648 -0.3781815077913295 -0.10082597391594417
-0.12701548142480043 -0.36982124110584363 -0.10082597391594417
-0.1302179942850986 -0.3949019815576564 -0.10082597391594417
-0.13350848360108522 -0.39468624254589185 -0.10082597391594417
-0.13679898781823305 -0.39447047373180494 -0.10082597391594417
-0.1433799962525287 -0.3940389957082759 -0.10082597391594417
-0.14008949203538087 -0.3942547347200404 -0.10082597391594417
-0.14661448700474886 -0.39339574238185987 -0.10082597391594417
-0.1498489926581302 -0.39275248905544385 -0.10082597391594417
-0.1563179741625705 -0.3914659824026118 -0.10082597391594417
-0.15308348341035036 -0.39210923572902784 -0.10082597391594417
-0.18338098628567842 -0.37955897113208875 -0.10082597391594417
-0.18612297875928072 -0.37772696277027235 -0.10082597391594417
-0.1888649861340442 -0.3758949842107783 -0.10082597391594417
-0.18063899381207613 -0.38139097949390516 -0.10082597391594417
-0.1594404826884189 -0.3904059733999263 -0.10082597391594417
-0.1625629912142673 -0.3893459941995631 -0.10082597391594417
-0.16880799336480287 -0.387225976194192 -0.10082597391594417
-0.16568548483895448 -0.38828598519687757 -0.10082597391594417
-0.1717657397513309 -0.3857672419202815 -0.10082597391594417
-0.1747234712366977 -0.3843084778440486 -0.10082597391594417
-0.17768123252438692 -0.38284974357013807 -0.10082597391594417
-0.01829115552949099 -0.267525499666978 -0.05041299121368891
-0.01829115552949099 -0.267525499666978 -0.151239001321683
-0.03499425454186587 -0.2697909977090846 -0.05041299121368891
-0.03081850214051394 -0.26922461947326765 -0.10082597391594417
-0.03081850214051394 -0.26922461947326765 -0.05041299121368891
-0.03499425454186587 -0.2697909977090846 -0.151239001321683
-0.03081850214051394 -0.26922461947326765 -0.151239001321683
-0.022466907930842918 -0.26809186300163373 -0.151239001321683
-0.026642719936839622 -0.2686582412374507 -0.151239001321683
-0.022466907930842918 -0.26809186300163373 -0.05041299121368891
-0.026642719936839622 -0.2686582412374507 -0.05041299121368891
-0.022466907930842918 -0.26809186300163373 -0.10082597391594417
-0.04665429396676211 -0.2746742572439204 -0.05041299121368891
-0.04276762409257082 -0.2730464990985881 -0.05041299121368891
-0.03888095421837954 -0.27141875585441694 -0.151239001321683
-0.03888095421837954 -0.27141875585441694 -0.10082597391594417
-0.03888095421837954 -0.27141875585441694 -0.05041299121368891
-0.04276762409257082 -0.2730464990985881 -0.151239001321683
-0.050540934038631004 -0.27630200048809156 -0.05041299121368891
-0.04665429396676211 -0.2746742572439204 -0.10082597391594417
-0.050540934038631004 -0.27630200048809156 -0.151239001321683
-0.04665429396676211 -0.2746742572439204 -0.151239001321683
-0.06608761353539613 -0.2828130032670985 -0.05041299121368891
-0.062200943661204856 -0.2811852600229274 -0.10082597391594417
-0.062200943661204856 -0.2811852600229274 -0.05041299121368891
-0.06608761353539613 -0.2828130032670985 -0.151239001321683
-0.062200943661204856 -0.2811852600229274 -0.151239001321683
-0.05442760391282229 -0.2779297586334239 -0.151239001321683
-0.058314243984691184 -0.27955748697643384 -0.151239001321683
-0.05442760391282229 -0.2779297586334239 -0.05041299121368891
-0.058314243984691184 -0.27955748697643384 -0.05041299121368891
-0.05442760391282229 -0.2779297586334239 -0.10082597391594417
-0.07608673973130373 -0.29054813643818006 -0.05041299121368891
-0.07275370760010866 -0.2879697587144862 -0.05041299121368891
-0.06942061586426881 -0.28539138099079236 -0.151239001321683
-0.06942061586426881 -0.28539138099079236 -0.10082597391594417
-0.06942061586426881 -0.28539138099079236 -0.05041299121368891
-0.07275370760010866 -0.2879697587144862 -0.151239001321683
-0.0794197718624988 -0.2931264843595515 -0.05041299121368891
-0.07608673973130373 -0.29054813643818006 -0.10082597391594417
-0.0794197718624988 -0.2931264843595515 -0.151239001321683
-0.07608673973130373 -0.29054813643818006 -0.151239001321683
-0.09275201959656862 -0.3034399952543269 -0.05041299121368891
-0.08941892786072878 -0.30086161753063306 -0.10082597391594417
-0.08941892786072878 -0.30086161753063306 -0.05041299121368891
-0.09275201959656862 -0.3034399952543269 -0.151239001321683
-0.08941892786072878 -0.30086161753063306 -0.151239001321683
-0.08275286359833864 -0.29570486208324537 -0.151239001321683
-0.0860858957295337 -0.2982832398069392 -0.151239001321683
-0.08275286359833864 -0.29570486208324537 -0.05041299121368891
-0.0860858957295337 -0.2982832398069392 -0.05041299121368891
-0.08275286359833864 -0.29570486208324537 -0.10082597391594417
-0.10551322503136781 -0.3202062453878413 -0.05041299121368891
-0.10551322503136781 -0.3202062453878413 -0.10082597391594417
-0.10296098394440797 -0.3168530072820674 -0.05041299121368891
-0.11061773700760988 -0.32691275140171155 -0.151239001321683
-0.10806546611832765 -0.32355948349361524 -0.151239001321683
-0.10296098394440797 -0.3168530072820674 -0.151239001321683
-0.10551322503136781 -0.3202062453878413 -0.151239001321683
-0.09785647196816591 -0.31014650126819715 -0.151239001321683
-0.10040874285744814 -0.3134997393739711 -0.151239001321683
-0.09530423088120607 -0.30679323336010084 -0.151239001321683
-0.09530423088120607 -0.30679323336010084 -0.05041299121368891
-0.09530423088120607 -0.30679323336010084 -0.10082597391594417
-0.10040874285744814 -0.3134997393739711 -0.05041299121368891
-0.10040874285744814 -0.3134997393739711 -0.10082597391594417
-0.09785647196816591 -0.31014650126819715 -0.05041299121368891
-0.11061773700760988 -0.32691275140171155 -0.10082597391594417
-0.11316997809456972 -0.3302659895074855 -0.151239001321683
-0.10806546611832765 -0.32355948349361524 -0.05041299121368891
-0.11316997809456972 -0.3302659895074855 -0.05041299121368891
-0.11061773700760988 -0.32691275140171155 -0.05041299121368891
-0.12115624053525118 -0.34976287742977247 -0.05041299121368891
-0.12115624053525118 -0.34976287742977247 -0.10082597391594417
-0.11955898506688264 -0.34586348196392164 -0.05041299121368891
-0.12435072166966585 -0.35756163855915174 -0.151239001321683
-0.12275348110245851 -0.3536622430933009 -0.151239001321683
-0.11955898506688264 -0.34586348196392164 -0.151239001321683
-0.12115624053525118 -0.34976287742977247 -0.151239001321683
-0.11636450393246797 -0.33806475063686475 -0.151239001321683
-0.11796174449967531 -0.3419641163003932 -0.151239001321683
-0.11476723356293825 -0.3341653551710139 -0.151239001321683
-0.11476723356293825 -0.3341653551710139 -0.05041299121368891
-0.11476723356293825 -0.3341653551710139 -0.10082597391594417
-0.11796174449967531 -0.3419641163003932 -0.05041299121368891
-0.11796174449967531 -0.3419641163003932 -0.10082597391594417
-0.11636450393246797 -0.33806475063686475 -0.05041299121368891
-0.12435072166966585 -0.35756163855915174 -0.10082597391594417
-0.12594799203919557 -0.3614610042226802 -0.151239001321683
-0.12275348110245851 -0.3536622430933009 -0.05041299121368891
-0.12594799203919557 -0.3614610042226802 -0.05041299121368891
-0.12435072166966585 -0.35756163855915174 -0.05041299121368891
-0.1286167304043689 -0.38236161133175 -0.05041299121368891
-0.1286167304043689 -0.38236161133175 -0.10082597391594417
-0.12808298571156648 -0.3781815077913295 -0.05041299121368891
-0.12968424959229616 -0.39072184821491346 -0.151239001321683
-0.12915050489949373 -0.3865417446744929 -0.151239001321683
-0.12808298571156648 -0.3781815077913295 -0.151239001321683
-0.1286167304043689 -0.38236161133175 -0.151239001321683
-0.12701548142480043 -0.36982124110584363 -0.151239001321683
-0.12754925591992525 -0.37400137444858655 -0.151239001321683
-0.126481736731998 -0.3656411375654231 -0.151239001321683
-0.126481736731998 -0.3656411375654231 -0.05041299121368891
-0.126481736731998 -0.3656411375654231 -0.10082597391594417
-0.12754925591992525 -0.37400137444858655 -0.05041299121368891
-0.12754925591992525 -0.37400137444858655 -0.10082597391594417
-0.12701548142480043 -0.36982124110584363 -0.05041299121368891
-0.12968424959229616 -0.39072184821491346 -0.10082597391594417
-0.1302179942850986 -0.3949019815576564 -0.151239001321683
-0.12915050489949373 -0.3865417446744929 -0.05041299121368891
-0.1302179942850986 -0.3949019815576564 -0.05041299121368891
-0.12968424959229616 -0.39072184821491346 -0.05041299121368891
-0.13515375061082033 -0.3945783581388484 -0.05041299121368891
-0.13350848360108522 -0.39468624254589185 -0.05041299121368891
-0.1318632463936725 -0.3947940971506129 -0.151239001321683
-0.1318632463936725 -0.3947940971506129 -0.10082597391594417
-0.1318632463936725 -0.3947940971506129 -0.05041299121368891
-0.13350848360108522 -0.39468624254589185 -0.151239001321683
-0.13679898781823305 -0.39447047373180494 -0.05041299121368891
-0.13515375061082033 -0.3945783581388484 -0.10082597391594417
-0.13679898781823305 -0.39447047373180494 -0.151239001321683
-0.13515375061082033 -0.3945783581388484 -0.151239001321683
-0.1433799962525287 -0.3940389957082759 -0.05041299121368891
-0.1417347292427936 -0.39414688011531934 -0.10082597391594417
-0.1417347292427936 -0.39414688011531934 -0.05041299121368891
-0.1433799962525287 -0.3940389957082759 -0.151239001321683
-0.1417347292427936 -0.39414688011531934 -0.151239001321683
-0.13844423992680696 -0.39436261912708387 -0.151239001321683
-0.14008949203538087 -0.3942547347200404 -0.151239001321683
-0.13844423992680696 -0.39436261912708387 -0.05041299121368891
-0.14008949203538087 -0.3942547347200404 -0.05041299121368891
-0.13844423992680696 -0.39436261912708387 -0.10082597391594417
-0.14499723417805818 -0.3937173690450679 -0.151239001321683
-0.14661448700474886 -0.39339574238185987 -0.151239001321683
-0.14823173983143953 -0.39307411571865186 -0.05041299121368891
-0.1498489926581302 -0.39275248905544385 -0.05041299121368891
-0.14823173983143953 -0.39307411571865186 -0.10082597391594417
-0.1498489926581302 -0.39275248905544385 -0.151239001321683
-0.14823173983143953 -0.39307411571865186 -0.151239001321683
-0.1563179741625705 -0.3914659824026118 -0.05041299121368891
-0.15470073623704103 -0.39178760906581983 -0.10082597391594417
-0.15470073623704103 -0.39178760906581983 -0.05041299121368891
-0.1563179741625705 -0.3914659824026118 -0.151239001321683
-0.15470073623704103 -0.39178760906581983 -0.151239001321683
-0.15146623058365968 -0.39243086239223585 -0.151239001321683
-0.15308348341035036 -0.39210923572902784 -0.151239001321683
-0.15146623058365968 -0.39243086239223585 -0.05041299121368891
-0.15308348341035036 -0.39210923572902784 -0.05041299121368891
-0.15146623058365968 -0.39243086239223585 -0.10082597391594417
-0.14661448700474886 -0.39339574238185987 -0.05041299121368891
-0.14499723417805818 -0.3937173690450679 -0.10082597391594417
-0.14499723417805818 -0.3937173690450679 -0.05041299121368891
-0.18201000495003847 -0.38047497531299695 -0.151239001321683
-0.18338098628567842 -0.37955897113208875 -0.151239001321683
-0.18475198252247957 -0.37864296695118055 -0.05041299121368891
-0.18612297875928072 -0.37772696277027235 -0.05041299121368891
-0.18475198252247957 -0.37864296695118055 -0.10082597391594417
-0.18612297875928072 -0.37772696277027235 -0.151239001321683
-0.18475198252247957 -0.37864296695118055 -0.151239001321683
-0.18749397499608186 -0.37681098839168653 -0.151239001321683
-0.1888649861340442 -0.3758949842107783 -0.151239001321683
-0.18749397499608186 -0.37681098839168653 -0.05041299121368891
-0.1888649861340442 -0.3758949842107783 -0.05041299121368891
-0.18749397499608186 -0.37681098839168653 -0.10082597391594417
-0.18338098628567842 -0.37955897113208875 -0.05041299121368891
-0.18063899381207613 -0.38139097949390516 -0.151239001321683
-0.18201000495003847 -0.38047497531299695 -0.10082597391594417
-0.18063899381207613 -0.38139097949390516 -0.05041299121368891
-0.18201000495003847 -0.38047497531299695 -0.05041299121368891
-0.1610017369513431 -0.3898759688985835 -0.05041299121368891
-0.1594404826884189 -0.3904059733999263 -0.05041299121368891
-0.1578792284254947 -0.39093597790126905 -0.151239001321683
-0.1578792284254947 -0.39093597790126905 -0.10082597391594417
-0.1578792284254947 -0.39093597790126905 -0.05041299121368891
-0.1594404826884189 -0.3904059733999263 -0.151239001321683
-0.1625629912142673 -0.3893459941995631 -0.05041299121368891
-0.1610017369513431 -0.3898759688985835 -0.10082597391594417
-0.1625629912142673 -0.3893459941995631 -0.151239001321683
-0.1610017369513431 -0.3898759688985835 -0.151239001321683
-0.16880799336480287 -0.387225976194192 -0.05041299121368891
-0.16724672420071748 -0.3877559806955348 -0.10082597391594417
-0.16724672420071748 -0.3877559806955348 -0.05041299121368891
-0.16880799336480287 -0.387225976194192 -0.151239001321683
-0.16724672420071748 -0.3877559806955348 -0.151239001321683
-0.1641242305760303 -0.38881598969822034 -0.151239001321683
-0.16568548483895448 -0.38828598519687757 -0.151239001321683
-0.1641242305760303 -0.38881598969822034 -0.05041299121368891
-0.16568548483895448 -0.38828598519687757 -0.05041299121368891
-0.1641242305760303 -0.38881598969822034 -0.10082597391594417
-0.17028685910748628 -0.38649659415607557 -0.151239001321683
-0.1717657397513309 -0.3857672419202815 -0.151239001321683
-0.1732446203951755 -0.38503785988216505 -0.05041299121368891
-0.1747234712366977 -0.3843084778440486 -0.05041299121368891
-0.1732446203951755 -0.38503785988216505 -0.10082597391594417
-0.1747234712366977 -0.3843084778440486 -0.151239001321683
-0.1732446203951755 -0.38503785988216505 -0.151239001321683
-0.17916011316823152 -0.3821203615320216 -0.10082597391594417
-0.17916011316823152 -0.3821203615320216 -0.05041299121368891
-0.17916011316823152 -0.3821203615320216 -0.151239001321683
-0.1762023518805423 -0.38357909580593214 -0.151239001321683
-0.17768123252438692 -0.38284974357013807 -0.151239001321683
-0.1762023518805423 -0.38357909580593214 -0.05041299121368891
-0.17768123252438692 -0.38284974357013807 -0.05041299121368891
-0.1762023518805423 -0.38357909580593214 -0.10082597391594417
-0.1717657397513309 -0.3857672419202815 -0.05041299121368891
-0.17028685910748628 -0.38649659415607557 -0.10082597391594417
-0.17028685910748628 -0.38649659415607557 -0.05041299121368891
