ply
format ascii 1.0
element vertex 139
property float x
property float y
property float z
element face 0
property list uchar int vertex_indices
end_header
0.0429484004696958 -0.021414901396644474 0.13667094675258243
0.048932498188888306 -0.021962012431037785 0.13677400318339908
0.0453110987862699 -0.02162056722344196 0.13678503004268253
-0.044530803469742065 -0.06243437089623249 0.13705599275783145
-0.045436794070328 -0.061665381571662785 0.1365990635509833
0.04160768339244055 -0.021298672339332463 0.13661450115398013
0.0471217984875791 -0.021791304728401066 0.13677948681071841
0.0521552617272489 -0.02228727497757709 0.13664549556926334
0.044129734726821655 -0.02151774921120441 0.13672798839763248
-0.044959748295868164 -0.06288754501045979 0.13676953283504092
-0.044983798770035034 -0.06204989113510883 0.13682752815440738
0.04227802702990698 -0.021356816670310856 0.13664281336024844
0.042514508458053345 -0.02136751570404804 0.1365807053203925
0.040937280150329346 -0.021240617415321232 0.1365862485523566
0.04251391241160559 -0.021416093489539982 0.13659197059825504
0.04806957194415259 -0.021861161372077824 0.13662755457118594
0.04899454662409949 -0.021946604630363346 0.13659298387721622
0.04893190214244055 -0.02206280388535297 0.1366085406895026
0.04802698442546057 -0.021962280651939274 0.13664346901134097
0.04300690242854285 -0.02148088373841083 0.13657975164607608
0.045353537293349976 -0.021605099818122746 0.13663572040752017
0.046258872242843384 -0.021690453669441105 0.1366329785938605
0.04621646353808569 -0.02170592107476032 0.13678228822902286
0.0480271632393949 -0.021876658579719425 0.13677674499705875
0.04716423699465918 -0.021775807520759465 0.13663023678020084
0.04353887388316321 -0.021551992079627873 0.13656622139171207
0.04621625492182898 -0.021791602751624943 0.1366489526386603
0.04531091997233557 -0.021706248900306584 0.13665175405696475
0.047121619673644775 -0.021876926800620915 0.13664621082500064
0.05054390976039099 -0.022124673506629826 0.1367097493763312
0.0537666434964292 -0.022449906250846745 0.13658124176219547
0.044720416756545776 -0.021569158217323185 0.1367565390224799
0.044762855263625854 -0.02155369081200397 0.13660722938731754
0.04353911230174231 -0.02146631040276325 0.13669949737742984
0.04417217323390173 -0.021502281805885197 0.1365787383671149
0.04472023794261145 -0.02165481009186542 0.13662320343211734
0.04412955591288733 -0.021603401085746647 0.1365947124119147
-0.04474526098164392 -0.06266095795334614 0.1369127627964362
-0.04517423561009241 -0.06311413206757344 0.13662624326900089
-0.04475727131756616 -0.06224214591683185 0.13694173065379703
-0.04521029642018152 -0.06185763635338581 0.13671326605037296
0.04261324355212378 -0.021385814329994084 0.13665688005641544
0.04239625284281897 -0.02136218108834064 0.13661175934032047
0.04273143956271338 -0.021391208550346257 0.13662588564113223
0.04194284031001257 -0.021327759405982853 0.1366286274547919
0.04172587940303015 -0.021304036757362248 0.13658350673869693
0.04206109592524695 -0.02133312382401264 0.1365976330395087
0.04217929193583655 -0.021338488242042424 0.1365666386242255
0.041272466870223755 -0.021269674679649235 0.13660037485316837
0.04139069268313574 -0.021275009295356632 0.1365693208332404
0.040602093430434937 -0.02121153034867084 0.13657212225154483
0.04273117134181189 -0.021415497443092228 0.1366315480823859
0.04239595481959509 -0.021386440178764225 0.13661736217692935
0.042178695889388794 -0.02138703622521198 0.13657790390208804
0.04172561118212866 -0.021328355452430607 0.1365891691799506
0.042060768099700684 -0.02135741271675861 0.13660323587611758
0.04139042446223425 -0.021299298188102604 0.13657498327449405
0.04850104996768164 -0.021911616703880192 0.1367008086796149
0.04853207418528723 -0.02190389790238178 0.1366102096195563
0.048963522406493896 -0.02195432343186176 0.13668346372798526
0.04276645729151892 -0.02138727464379108 0.13657271829799258
0.042983388396178955 -0.0214109674900893 0.13661789861873233
0.04893217036334204 -0.022012408158195378 0.13669127193645084
0.048479413481628174 -0.022012557169807316 0.13662600485042178
0.04847974130717444 -0.021962131640327336 0.1367087957020148
0.047574197741424316 -0.021962429663551213 0.1365782615299567
0.04297760674563574 -0.021447892567527653 0.13662540880397403
0.04276040742007422 -0.021448488613975407 0.13658589092448795
0.049759065600311035 -0.022035087725532414 0.13664615122035587
0.04326493093577551 -0.021432872197044255 0.13661062685206973
0.045332318039809937 -0.021612848421943547 0.13671040502742374
0.04578498551455664 -0.021655525347602726 0.13670897451594913
0.0457637662610166 -0.02166324414910114 0.1367836591358527
0.04580620476809668 -0.021647806546104313 0.13663440910533511
0.046690350266372437 -0.021740909001243473 0.13670623270228946
0.0466691310128324 -0.021748627802741886 0.13678085771754825
0.046237652989303345 -0.021698202273261906 0.1367076036091193
0.047616904469405884 -0.021818514248741032 0.136628865873371
0.0484798307141416 -0.021919305703056217 0.1367753740902289
0.04804835269061255 -0.021868909975898625 0.13670211998179996
0.047574465962325806 -0.021833981654060246 0.13677811590388858
0.04714301774111914 -0.021783556124580265 0.13670486179545963
0.047595685215865845 -0.021826262852561833 0.13670355049327457
0.04671153971759009 -0.021733160397422673 0.13663166729167545
0.049737846346770996 -0.022090579649818302 0.1366533633823737
0.04973751852122473 -0.022140975376975895 0.13657063213542545
0.04324362227526831 -0.021483387133491398 0.13661861387446964
0.04327285835353064 -0.021516437909019352 0.13657301632121646
0.04576367685404944 -0.021706129691017033 0.1367170211429938
0.045311009379302734 -0.021663422963035465 0.13671839204982364
0.046669041605865234 -0.021791483542335392 0.13671427932933414
0.04621637413111853 -0.021748776814353825 0.1367155906315192
0.04576349804011511 -0.02179175176323688 0.1365838047619208
0.04531077096072363 -0.02174910463990009 0.13658511606410587
0.045763587447082275 -0.021748925825965763 0.13665038315013492
0.04757437655535864 -0.021876777789008976 0.13671153751567447
0.04712170908061194 -0.021834130665672184 0.13671284881785953
0.048027073832427734 -0.021919484516990544 0.13671010700419986
0.04712147066203284 -0.021919752737892033 0.13657963243678653
0.04757428714839148 -0.021919633528602482 0.13664489952281558
0.04666895219889807 -0.021834279677284123 0.13664764133647525
0.04666886279193091 -0.02187710561455524 0.13658100334361636
0.04621613571253943 -0.021834398886573674 0.1365823742504462
0.05056474158373999 -0.022116418263328434 0.13661396471217715
0.04973820397463965 -0.022043342968833805 0.13674187627986514
0.05134955594149756 -0.02220597424210346 0.13667762247279727
0.05137038776484656 -0.022197748801124455 0.136581897413288
0.052960937710677856 -0.0223686353176955 0.1366133686657294
0.04501575777140784 -0.021594877621543766 0.1367707845325812
0.045036977024947876 -0.021587129017722965 0.13669615951732242
0.044425075741683716 -0.021543468615424992 0.1367422339077338
0.044446294995223755 -0.02153572001160419 0.136667608892475
0.044741636010085815 -0.021561439415824772 0.13668185440257632
0.045058196278487915 -0.02157944001854694 0.13662147489741885
0.043834393711959595 -0.021492059609306217 0.13671374288753116
0.043855612965499634 -0.021484311005485417 0.13663911787227237
0.044150953980361694 -0.021510030409705998 0.1366533633823737
0.04324374148455786 -0.021440620800865055 0.13668519226268375
0.04356027195063757 -0.021458561798942448 0.13662487236217105
0.044467514248763794 -0.02152797140778339 0.13659298387721622
0.05054352233019995 -0.022171850582969548 0.13662123647883975
0.051349228115951294 -0.022253210923087956 0.1365891691799506
0.045015668364440674 -0.021637703558814884 0.13670414653972232
0.04501542994586157 -0.02172335543335712 0.13657087055400455
0.04501557895747351 -0.021680499693763615 0.13663750854686343
0.04442498633471655 -0.021586264750373722 0.13667565551951968
0.04472032734957861 -0.02161201395691669 0.136689901029621
0.04383421489802527 -0.021577681681526066 0.13658046690181339
0.04353896329013037 -0.021509136340034367 0.13663285938457095
0.04412964531985449 -0.02156054534615314 0.1366613504047736
0.04383430430499243 -0.021534855744254948 0.13664710489467227
0.04442489692774939 -0.02162909068764484 0.13660895792201602
-0.04463803222569299 -0.06254767932595051 0.1369844075794562
-0.044852519539917236 -0.06277423658074177 0.13684111801341617
-0.04506700685414148 -0.0630008534401778 0.1366978880520209
-0.04464402249249292 -0.06233828820885456 0.13699889150813663
-0.04487054994496179 -0.062146033427131535 0.1368846294041022
-0.045097047595108276 -0.06195377864540851 0.13677036730006778
-0.04532354524525476 -0.0617614940613631 0.13665616480067813
