ply
format ascii 1.0
element vertex 709
property float x
property float y
property float z
element face 0
property list uchar int vertex_indices
end_header
0.12667301842776466 -0.08828329600991047 -0.036388308132137406
0.12669900605288673 -0.08730098166168965 -0.0413253906612054
0.12673602053729224 -0.0854898945301894 -0.04600948127552425
0.1267019862851255 -0.08699789204300679 -0.041235715473140824
0.12667599866000342 -0.08797129549683369 -0.036350697601284135
0.12678102204409766 -0.08284228601158894 -0.050544977510418046
0.126739000769531 -0.08520540156067646 -0.04587459596439754
0.12667999217120338 -0.08765902676285542 -0.03631350430294429
0.12678203532305884 -0.08258610524834431 -0.05036067994877254
0.12674299428073096 -0.08492087878884114 -0.045736402595485795
0.12670603940097022 -0.08669441499413288 -0.041149974191631425
0.1267860288342588 -0.08233359017075337 -0.05018010767742549
0.12670055577365089 -0.08714943685234822 -0.04128053816601192
0.12668595263568092 -0.08779215373696125 -0.0388568642978326
0.12668750235644508 -0.08764060892761982 -0.03881198200031673
0.1266695017537229 -0.08805480160416401 -0.03375583919330989
0.12666604468432593 -0.08836593784989155 -0.0337378981952325
0.12671754309741187 -0.08639543809593953 -0.04366743596836482
0.12671897360888648 -0.0862438932865981 -0.04362261327549373
0.12667444893923926 -0.08812728085221089 -0.03636950286671077
0.12668905207720924 -0.08748459376992024 -0.03879320653721248
0.12667105147448707 -0.08789878644646443 -0.033737033927883256
0.12673751065341163 -0.08534764804543293 -0.04594203861996089
0.12672052332965064 -0.08610164680184162 -0.04355514081760799
0.1266780252179258 -0.08781513132752217 -0.036332071149791825
0.12669101903048682 -0.0873284594029311 -0.03877458008572017
0.12667301842776466 -0.0877426222771529 -0.033718437278713334
0.12675902793017554 -0.08403801479042805 -0.04818508061214839
0.12676051804629493 -0.0838957385033492 -0.04811763795658504
0.1267409677228086 -0.08506315507592 -0.04580551418110286
0.126722549887573 -0.08595940031708516 -0.04348605903431331
0.12670395323840308 -0.08684613861740864 -0.04119285973354732
0.1266930455884092 -0.08717670597733296 -0.038731724346126664
0.12678149888125587 -0.08271419562996662 -0.05045282872959529
0.1267625446042173 -0.08375349201859272 -0.04804852637096797
0.1267245168408506 -0.08580764689148701 -0.043443203294719804
0.12678400227633643 -0.08245983280838765 -0.05027037891193782
0.12676451155749488 -0.08362727918328083 -0.047958225334133256
0.12675855109301734 -0.08416610517205037 -0.04827722939297115
0.1234610433301084 -0.08700498499573506 -0.033601671779598344
0.12347844788638282 -0.0865032927006606 -0.0383557382468835
0.1234915609082334 -0.08602100171746052 -0.04077398809238826
0.12346700379458594 -0.08695807614029682 -0.03604015740200435
0.123509978743469 -0.08513423361481465 -0.04306718739315425
0.12355050990191627 -0.08302434839905537 -0.04743191632076656
0.12357196757403541 -0.08173071899117268 -0.04965382846638118
0.12352702567187476 -0.08427699961365498 -0.045287043178524125
0.12670121142474342 -0.0870736793488387 -0.04125812681957637
0.12669405886737037 -0.08739500798882283 -0.04004627498432552
0.12669477412310767 -0.0873192504853133 -0.04002386363788997
0.1266997809132688 -0.08722522415818013 -0.041302949512447465
0.12669244954196143 -0.08754658260048664 -0.040091127479519
0.1266932244023435 -0.08747079529465474 -0.040068686330761064
0.12667951533404517 -0.08803772487343586 -0.03762257131382381
0.12668023058978248 -0.08796196736992634 -0.03760013016506587
0.126686727496063 -0.08771639623345173 -0.038834393346752275
0.12667128989306617 -0.08816903390587605 -0.03507208856388484
0.1266695017537229 -0.0883246318310622 -0.03506308826252376
0.12666771361437965 -0.08821036972702778 -0.033746868694271195
0.12672672221270728 -0.08594268121422566 -0.04483848842426692
0.1267181987485044 -0.08631965079010762 -0.043645024621929276
0.12672749707308936 -0.08586689390839375 -0.04481604727550899
0.1267083043774717 -0.08684822477997578 -0.04249641331478511
0.126709019633209 -0.08677243747414387 -0.04247397216602718
0.12671050974932838 -0.08662089266480244 -0.04242914947315608
0.12670979449359107 -0.08669667997063435 -0.04245159062191402
0.12668827721682716 -0.08756258644760884 -0.03880262407108699
0.12669548937884498 -0.0872412578076247 -0.04001444610401546
0.12667379328814674 -0.08820530333222187 -0.036378890598262895
0.12668094584551978 -0.08788394488991536 -0.03759074243351375
0.12667522379962134 -0.08804931797684468 -0.03636008533283626
0.12668255517092872 -0.08772795953453816 -0.0375719669704095
0.12668178031054664 -0.08780592240990437 -0.03758132489963924
0.126670276614105 -0.08797677912415303 -0.03374642165943538
0.12667349526492286 -0.08793505587281025 -0.035043865764583695
0.12667272040454078 -0.08801301874817646 -0.03505325349613582
0.12667206475344825 -0.08809104122818745 -0.03506267103001033
0.12673822590914893 -0.0852765099018935 -0.04590833219334041
0.12672904679385352 -0.08572461762131489 -0.044748604619945634
0.12672970244494605 -0.08565350928009785 -0.04471486839100276
0.12673679539767432 -0.08541875638664997 -0.045975774848903764
0.12672827193347144 -0.08579575576485432 -0.04478231104656612
0.12671128460971046 -0.0865497843235854 -0.04239541324421321
0.12671974846926856 -0.08617278494538105 -0.04358884724422847
0.12669000575152564 -0.08740651168526448 -0.03878390821262752
0.12669656226245093 -0.08716314592064656 -0.040005177581752885
0.1266770119389646 -0.08789321341217793 -0.036341399276699174
0.12668350884524512 -0.0876498774498824 -0.03756266864582454
0.1266789788922422 -0.08773707904518879 -0.03632280262752925
0.1266855354031675 -0.08749374308289326 -0.03754404219433223
0.1266845221242063 -0.08757179536522663 -0.03755334051891719
0.12667552182284522 -0.08777889170349873 -0.035025269115413774
0.12667647549716163 -0.08770083942116536 -0.03501597079082881
0.12667444893923926 -0.08785697378815449 -0.035034567439998734
0.12667206475344825 -0.08782070436180867 -0.033727735603298295
0.12677047202197242 -0.08331206001938618 -0.04927289518162166
0.12675974318591285 -0.08396690644921101 -0.04815134438320552
0.1267712468823545 -0.08324095167816914 -0.049239188755001176
0.1267475242337339 -0.08476393975914753 -0.047097295844997514
0.12674829909411597 -0.0846928016156081 -0.04706358941837703
0.12674978921023536 -0.08455055513085163 -0.046996146762813676
0.12674901434985328 -0.08462169327439106 -0.04702985318943416
0.12674198100176978 -0.08499201693238057 -0.04577097328945552
0.1267317886075132 -0.08551129259766377 -0.044645786607708085
0.12673280188647437 -0.08544012465180195 -0.04461121591373836
0.1267400140484922 -0.08513426341713703 -0.0458400550727502
0.126730775328552 -0.08558240093888081 -0.044680327499355424
0.12671223828402686 -0.08647864618004597 -0.04236087235256587
0.12672153660861182 -0.08603053846062458 -0.04352059992596065
0.12670496651736426 -0.08677026190460957 -0.041171431863750566
0.12669852921572852 -0.0870114222973708 -0.03996229203983699
0.1266995424946897 -0.08693557538689412 -0.039940893972362626
0.1267029399594419 -0.08692198552788533 -0.041214257801021684
0.12669751593676734 -0.08708726920784748 -0.039983719909633744
0.1266864890774839 -0.0874178365677718 -0.037522644126857865
0.126692032309448 -0.08725258269013203 -0.038753182018245805
0.1267959828099363 -0.081984724184883 -0.05156520041271602
0.12678126046267676 -0.08277824082077778 -0.05049890312000667
0.1267962212285154 -0.08192067899407185 -0.05151912602230464
0.12678173729983497 -0.08265015043915547 -0.050406754339183915
0.12679675767031837 -0.08179258861244953 -0.05142697724148189
0.12679651925173926 -0.0818566040009383 -0.051473051631893266
0.1267615313252561 -0.08382460035980976 -0.0480830970649377
0.12677226016131568 -0.08316978373230732 -0.04920461806103145
0.12675080248919654 -0.0844794467896346 -0.04696157606884395
0.12675276944247413 -0.08433717050255574 -0.046892464483226884
0.12675175616351295 -0.08440830864609516 -0.04692703517719661
0.1267235035618894 -0.0858834938019637 -0.04346463116451656
0.12673375556079078 -0.08536427774132527 -0.044589788043941606
0.12671325156298804 -0.08640273966492451 -0.04233944448276912
0.12671521851626563 -0.08625101604164875 -0.042296588743175614
0.12671426484194923 -0.08632689275444783 -0.04231801661297237
0.12679699608889747 -0.08173805036248005 -0.05137020381733333
0.1267634982785337 -0.08369037069977558 -0.048003375852550614
0.1267537827214353 -0.08427407898606099 -0.046847313964809525
0.12678298899737525 -0.08252295412720478 -0.05031552943035518
0.12677327344027686 -0.08310666241349018 -0.04915946754261409
0.12678495595065284 -0.0823967114895705 -0.05022525819584285
0.12677524039355445 -0.08298041977585591 -0.049069166505779374
0.12677428671923804 -0.08304357089699543 -0.04911431702419673
0.12679729411212134 -0.08168354191483296 -0.05131423505588924
0.12341973731127906 -0.08829834618271626 -0.03639665278240596
0.12348679253665137 -0.08803367175759114 -0.037631780231441606
0.12330625006762672 -0.0883183435410384 -0.03507238658710872
0.12349328944293189 -0.08778810062111653 -0.03886604341312801
0.12350622365084815 -0.08729692854584492 -0.0413345995788232
0.12349972674456763 -0.08754249968231953 -0.040100336397136796
0.12353393981066871 -0.08593862809838093 -0.04484766753956233
0.12356952378359962 -0.08545684375466145 -0.04601749810024654
0.12330273339358497 -0.08835964955986775 -0.03374719651981746
0.12351552197543311 -0.08684417166413105 -0.04250562223240291
0.1235247606953733 -0.08639135517777241 -0.04367664488598262
0.12358949133959937 -0.08478575505913533 -0.04715135725780879
0.1267472858151548 -0.08482798494995869 -0.04714337023540889
0.12360075661746192 -0.084123875281227 -0.04828521641537105
0.12676975676623511 -0.08350419559181965 -0.04941111835285579
0.12362322756854224 -0.08280005612076557 -0.05055296453281795
0.12361202189532447 -0.08346196570099629 -0.04941910537525569
0.1267702932080381 -0.08337607540787495 -0.049318969572033036
0.12676999518481422 -0.0834401504010085 -0.04936504396244441
0.12675878951159644 -0.08410205998123921 -0.04823115500255977
0.12363824793902564 -0.08194249429405964 -0.05157318743511592
0.1250704879483335 -0.08733200587929524 -0.03495758804127132
0.12506697127429175 -0.08737381853760517 -0.03366008433147823
0.12507924983111549 -0.087081159731758 -0.03733459147259151
0.125085746737396 -0.08683999933899678 -0.03854376109882747
0.12348500439730811 -0.08626216211022175 -0.03956484826847469
0.12509874054995704 -0.08635767855347432 -0.04096198114200984
0.12509224364367652 -0.08659883894623555 -0.039752871120418656
0.12507352778521705 -0.08730855145157612 -0.03617683085247432
0.12346402356234717 -0.08698153056801594 -0.03482091459080135
0.12350079962817359 -0.08557763256729878 -0.04192060264393245
0.12512651631442237 -0.08502757110298909 -0.044401794994320024
0.1251172179898374 -0.08547091045082844 -0.04325521024509822
0.125108038874542 -0.08591430940331257 -0.04210859569355403
0.12347272584048438 -0.0867307142228011 -0.03719791802212154
0.12514672228900123 -0.08397262849510945 -0.046584159458126176
0.12515751072970557 -0.08332579889000691 -0.047695070827449906
0.12356123873797584 -0.08237751879395283 -0.048542857492412675
0.12517896840182471 -0.08203213967980183 -0.04991695317074214
0.12516823956576514 -0.08267893948258198 -0.048806011999096025
0.12513498017398048 -0.08459895410240925 -0.04551172288700496
0.12351850220767188 -0.08470561661423481 -0.044177145088161576
0.12353876778689551 -0.08365067400635517 -0.04635950955196773
0.12670162865725684 -0.08703580059708393 -0.04124689134403621
0.12669799277392554 -0.087196464917076 -0.04064098032757198
0.12669841000643897 -0.08715855636299885 -0.0406297746543542
0.12670085379687476 -0.08711155810059346 -0.041269332492794145
0.12669721791354346 -0.08727225222290791 -0.040663391674007524
0.1266976351460569 -0.08723437347115315 -0.04065218600078975
0.12669078061190772 -0.08751779355706013 -0.03942912849232112
0.12669113823977637 -0.08747991480530537 -0.03941792281910335
0.12669435689059425 -0.08735712923706807 -0.04003506931110774
0.12670013854113746 -0.08718731560410298 -0.04129177364155208
0.12669656226245093 -0.08734800972641743 -0.04068583282276546
0.1266968602856748 -0.08731013097466267 -0.040674627149547685
0.12669936368075538 -0.0872630731076125 -0.041314184987987626
0.12669578740206885 -0.08742379703224934 -0.040708244169201005
0.1266961450299375 -0.08738588847817219 -0.04069706829830562
0.12668929049578834 -0.08766936816872395 -0.03947401078983699
0.126689648123657 -0.0876314596146468 -0.03946274551197444
0.12669286677447486 -0.0875086740464095 -0.04007989200397884
0.12668273398486304 -0.08791493930519856 -0.0382397178058282
0.12668315121737647 -0.0878770605534438 -0.03822851213261043
0.12668636986819434 -0.0877542451828841 -0.038845628822292436
0.12667623707858253 -0.08816048063935078 -0.03700542482181941
0.12667665431109595 -0.08812263168991841 -0.03699421914860164
0.12667987296191383 -0.08799981631935871 -0.037611365640606034
0.12668386647311378 -0.0878012434452895 -0.038206070983852494
0.12668714472857642 -0.08767848767937458 -0.0388231876735345
0.12668350884524512 -0.08783915199936665 -0.03821724685474788
0.12669364163485694 -0.08743291654289997 -0.0400574508552209
0.12669000575152564 -0.08759358086289204 -0.03945156964107906
0.1266903633793943 -0.08755567230881489 -0.039440334165538896
0.12666860768405128 -0.0879976705521468 -0.033097744310344804
0.12666771361437965 -0.08807545461357869 -0.033093214357341874
0.12667039582339454 -0.08811190285385884 -0.03441393407627498
0.1266695017537229 -0.08818968691529072 -0.03440949353023921
0.12666860768405128 -0.0881325856655959 -0.03375133904262935
0.12667212435809302 -0.08822619476021565 -0.03573018344684993
0.12667128989306617 -0.08830394901932515 -0.03572568329616939
0.12667039582339454 -0.08824681796730793 -0.0350675884132043
0.12666771361437965 -0.08834528484047688 -0.03440049322887813
0.1266668791493528 -0.08828818359078205 -0.03374239834591304
0.12666860768405128 -0.088267500779045 -0.03440496357723628
0.12666431614962745 -0.08838662066162861 -0.03307527335926448
0.1266651506146543 -0.08830883660019673 -0.03307980331226741
0.1266668791493528 -0.08815323867501057 -0.03308877381130611
0.12666604468432593 -0.08823105253876484 -0.03308424385830318
0.12673137137499976 -0.08571630277336872 -0.045423984849895585
0.1267271394452207 -0.08590477266014851 -0.04482725294872676
0.1267317886075132 -0.08567836441696919 -0.045412749374355424
0.12672213265505958 -0.08616905965508259 -0.04425296219631587
0.12671784112063575 -0.08635758914650715 -0.04365623029514705
0.126722549887573 -0.08613118090332783 -0.0442417565230981
0.12671861598101783 -0.08628177203835286 -0.0436338189487115
0.1267232651433103 -0.08605539359749592 -0.04421934517666255
0.12672284791079688 -0.08609327234925068 -0.04423052104755794
0.1267128939351194 -0.08662181653679646 -0.04308193954273616
0.12670860240069556 -0.08681034602822102 -0.04248520764156734
0.12671325156298804 -0.0865839377850417 -0.043070704067196
0.12670359561053443 -0.08707460322083271 -0.04191091688915645
0.12670395323840308 -0.08703672446907795 -0.04189968141361629
0.12670472809878516 -0.08696093716324604 -0.04187727006718074
0.1267043704709165 -0.08699884571732319 -0.041888475740398515
0.12670550295916724 -0.08688517965973652 -0.041854858720745194
0.1267051453312986 -0.08692305841149128 -0.04186606439396297
0.12670627781954932 -0.08680939235390461 -0.04183241757198726
0.1267058605870359 -0.08684730090798176 -0.04184362324520503
0.1267148012837522 -0.08643239297570027 -0.043025881374324906
0.12671438405123878 -0.08647027172745503 -0.04303708704754268
0.12671015212145972 -0.0866587714165572 -0.04244035514637386
0.12671366879550147 -0.08654605903328694 -0.04305949839397823
0.12670937726107764 -0.0867345885247115 -0.04246279629513179
0.12671402642337012 -0.08650818028153218 -0.04304829272076045
0.12669513175097633 -0.08728023924530781 -0.040019125068630326
0.12669876763430762 -0.08711957492531575 -0.04062506588741695
0.12668785998431373 -0.08760159768761433 -0.03880730303570186
0.12669149586764503 -0.08744090356529988 -0.03941324385448848
0.1266886348446958 -0.08752360500992573 -0.03879788550182735
0.1266922707280271 -0.08736291088761128 -0.03940382632061397
0.12669185349551368 -0.08740192212761677 -0.03940850528522884
0.1266806478222959 -0.08792295612992085 -0.037595451200451005
0.1266842837056272 -0.0877622620076064 -0.038201392019237626
0.1266733760556333 -0.08824431457222737 -0.03638359936520015
0.1266770119389646 -0.08808362044991291 -0.036989510381664384
0.1266741509160154 -0.08816632189453877 -0.03637418183132564
0.1266777867993467 -0.08800559796990193 -0.03698012265011226
0.12667736956683326 -0.08804460920990742 -0.03698480161472713
0.1266748661717527 -0.08808829941452778 -0.0363648239020959
0.12667844245043922 -0.08792763509453572 -0.03697070511623775
0.12667814442721534 -0.08796661653221882 -0.036975413883175004
0.12667564103213477 -0.08801030673683918 -0.03635540636822139
0.1266792173108213 -0.08784961261452473 -0.036961317384685624
0.12667885968295264 -0.08788862385453022 -0.03696602615162288
0.1266857142171018 -0.08760624684990681 -0.0381825569514886
0.12668535658923316 -0.08764528789223469 -0.03818726571842586
0.1266821379384153 -0.08776691116989888 -0.03757664593502437
0.12668464133349586 -0.0877232507676009 -0.03819668325230037
0.1266813630780332 -0.08784493364990986 -0.03758606346889888
0.12668493935671973 -0.0876842693299178 -0.038191974485363114
0.126669740172302 -0.08788066663445271 -0.033083647811855424
0.12667063424197364 -0.08793779768646992 -0.03374174269482051
0.12666938254443336 -0.0879196778744582 -0.03308832677647029
0.12666985938159156 -0.08801579036415852 -0.033751160228695024
0.1266690249165647 -0.08795865931214131 -0.03309300574108516
0.12667224356738258 -0.08791690625847615 -0.034390449846233476
0.1266731376370542 -0.08797403731049336 -0.03504857453152095
0.12667188593951392 -0.08795591749848164 -0.03439515861317073
0.12667468735781837 -0.08795317568482197 -0.0356973114852563
0.1266743893345945 -0.08799218692482746 -0.03570199044987117
0.1266736144742124 -0.08807017960251606 -0.035711378181423295
0.12667403170672584 -0.08803119816483296 -0.03570666941448604
0.1266728992184751 -0.08814820208252705 -0.03572076591297542
0.12667325684634376 -0.08810916104019917 -0.03571608694836055
0.12667248198596168 -0.08818718352021016 -0.035725474679912675
0.12667069384661842 -0.08807292141617573 -0.03440925511166011
0.12667164752093482 -0.08813005246819294 -0.03506737979694759
0.1266714687070005 -0.08799489893616474 -0.03439986738010799
0.12667236277667213 -0.08805205979050434 -0.035057962263073075
0.12667111107913184 -0.08803391017617024 -0.03440457614704524
0.12673864314166236 -0.08524098553360737 -0.045891464078868974
0.12673399397936988 -0.08546500959099568 -0.045311600292171586
0.12673435160723853 -0.08542945542038716 -0.04529473217770015
0.12673786828128028 -0.08531209387482441 -0.04592517050548946
0.12673327872363258 -0.0855361477345351 -0.04534530671879207
0.12673363635150123 -0.0855005637616042 -0.04532846840664302
0.1267247552594297 -0.08591314711273945 -0.04415187271877681
0.12672511288729835 -0.08587756313980854 -0.04413503440662776
0.1267293448170774 -0.08568906345070637 -0.044731766307796586
0.1267370934208982 -0.08538320221604145 -0.045958936536754716
0.12673244425860572 -0.08560725607575215 -0.04537904294773494
0.12673286149111915 -0.08557170190514363 -0.04536220463558589
0.12673643776980567 -0.08545434035958088 -0.0459926429633752
0.12673214623538184 -0.08564281024636067 -0.045395911062206376
0.12672362277117896 -0.0860198394268874 -0.04420247706219112
0.12672785470095801 -0.08583133973778523 -0.04479920896335994
0.12671509930697608 -0.08639683880509175 -0.04300901325985347
0.1267193908413999 -0.08620833911598957 -0.043605745161022294
0.12670663544741798 -0.08677383818329609 -0.04181557925983821
0.12671086737719703 -0.08658530869187153 -0.04241228135868465
0.12671587416735816 -0.08632570066155232 -0.04297530683323299
0.12672010609713721 -0.08613720097245015 -0.04357200893207942
0.1267155165394895 -0.08636125483216084 -0.042992145145382035
0.1267286295613401 -0.08576017179192341 -0.04476547273441707
0.12672398039904761 -0.08598425545395649 -0.044185579145397294
0.12672439763156104 -0.08594873108567036 -0.044168740833248246
0.12669602582064796 -0.08720221676529682 -0.04000979694172298
0.12669918486682105 -0.08708053388298787 -0.04062041672512447
0.12668946930972266 -0.08744552292526997 -0.03878852757259761
0.12669280716983009 -0.08732389964760578 -0.0393991473559991
0.12669048258868384 -0.0873674706429366 -0.03877925905033504
0.1266937608441465 -0.08724578776062764 -0.03938984903141414
0.1266932244023435 -0.0872848586052779 -0.03939452799602901
0.12668297240344215 -0.08768888868988789 -0.03756728800579463
0.12668631026354957 -0.08756723560990132 -0.03817790778919612
0.12667647549716163 -0.08793225445450581 -0.036346048438991654
0.12667975375262427 -0.08781057157219685 -0.036956668222393144
0.12667754838076759 -0.08785420217217244 -0.03633675011440669
0.12668076703158546 -0.08773251928986348 -0.03694736989780818
0.12668023058978248 -0.08777156033219136 -0.03695201906010066
0.12667856165972877 -0.08777609028519429 -0.03632745178982173
0.12668178031054664 -0.08765443720520771 -0.03693807157322322
0.12668130347338843 -0.0876934782475356 -0.0369427207355157
0.12667951533404517 -0.08769800820053852 -0.03631815346523677
0.12668273398486304 -0.08757635512055195 -0.03692877324863826
0.12668231675234962 -0.08761536636055745 -0.036933392608608354
0.12668827721682716 -0.0874110714405898 -0.0381593111400262
0.12668774077502418 -0.08745011248291767 -0.03816396030231868
0.12668505856600928 -0.08753275432289875 -0.03754869135662471
0.126686727496063 -0.08752819456757344 -0.03817325862690364
0.12668398568240333 -0.08761083640755452 -0.03755798968120967
0.12668726393786597 -0.08748918332756794 -0.03816860946461116
0.1266777867993467 -0.08771895923317707 -0.03566938670917903
0.12667820403186011 -0.0876798883885268 -0.03566473754688655
0.1266767735203855 -0.08779701151551045 -0.03567868503376399
0.12667719075289893 -0.08775797047318257 -0.03567403587147151
0.12667421052066016 -0.08776074208916462 -0.03437188299938594
0.12667480656710792 -0.08772173084915913 -0.03436720403477107
0.12667599866000342 -0.08773985066117085 -0.03502064975544368
0.12667576024142432 -0.08787509360016621 -0.035687983358348954
0.12667623707858253 -0.08783608236016072 -0.035683334196056474
0.12667522379962134 -0.08791413464249409 -0.035692632520641435
0.12667272040454078 -0.08787789501847065 -0.03438583048626338
0.12667403170672584 -0.08789601483048237 -0.035039216602291215
0.126670276614105 -0.08784165539444722 -0.033078968847240556
0.1266714687070005 -0.08785977520645893 -0.03373241456791316
0.12667128989306617 -0.08776354350746907 -0.033069670522655595
0.12667248198596168 -0.08778166331948078 -0.033723086441005815
0.12667069384661842 -0.08780258454979695 -0.03307434948727046
0.12667504498568702 -0.08781793274582661 -0.035029918277706254
0.12667325684634376 -0.08783882417382038 -0.034381151521648515
0.12667379328814674 -0.08779981293381489 -0.03437653216167842
0.12677625367251563 -0.08294909753502644 -0.0498167875651971
0.12677088925448585 -0.08327650584877766 -0.049256027067150224
0.12677661130038428 -0.08291351356209553 -0.04979991945072566
0.12676474997607398 -0.08367499270142353 -0.04872900279804622
0.1267593855580442 -0.08400243081749714 -0.048168242299999345
0.1267651672085874 -0.0836394683331374 -0.048712134683574784
0.1267601008137815 -0.0839313224762801 -0.048134506071056474
0.12676588246432471 -0.08356833018959797 -0.0486784282569543
0.12676552483645606 -0.08360388436020649 -0.04869526656910335
0.12675324627963233 -0.08440097727478779 -0.04764118822857295
0.12674794146624732 -0.08472838558853901 -0.047080457532848466
0.12675366351214576 -0.08436542310417927 -0.04762432011410152
0.12674174258319068 -0.08512690224350727 -0.04655337365909969
0.1267421598157041 -0.08509137787522114 -0.04653653534695064
0.1267428750714414 -0.08502023973168171 -0.04650279911800777
0.12674251744357276 -0.08505579390229023 -0.0465196672324792
0.12674359032717872 -0.0849490717858199 -0.046469092691387284
0.12674329230395484 -0.08498468556107319 -0.04648593100353633
0.1267443651875608 -0.08487796344460286 -0.04643535646244441
0.12674394795504737 -0.08491354741753376 -0.04645222457691585
0.12675509402362037 -0.0842231766194228 -0.04755687745853816
0.1267547960003965 -0.08425870098770893 -0.0475737455730096
0.12674937197772193 -0.08458613910378254 -0.047012985074962724
0.1267540211400144 -0.08432983913124836 -0.04760745199963008
0.12674859711733985 -0.08465727724732197 -0.04704669150158321
0.12675437876788306 -0.08429428496063984 -0.04759058388515865
0.12674251744357276 -0.08495646276177204 -0.04575365814014827
0.12673739144412208 -0.08521607079209126 -0.045191079700435746
0.12673786828128028 -0.08518051662148274 -0.04517379435345088
0.12674150416461158 -0.08502760090531147 -0.04578819903179561
0.12673643776980567 -0.08528720893563069 -0.04522565039440547
0.1267368550023191 -0.08525162496269978 -0.04520836504742061
0.1267271394452207 -0.08573531665505207 -0.0440659228210107
0.1267276162823789 -0.08569976248444355 -0.044048637474025834
0.1267322654446714 -0.08547570862473286 -0.04462850126072322
0.12674055049029517 -0.08509870924652851 -0.045822769725765336
0.12673536488619971 -0.08535831727684773 -0.04526019128605281
0.12673584172335792 -0.0853227929085616 -0.04524290593906795
0.126739537211334 -0.08516981758774556 -0.045857310617412675
0.1267348880490415 -0.08539390124977864 -0.04527744683071529
0.12672558972445655 -0.08584203877152241 -0.04411771925732051
0.1267302984913938 -0.08561795510948933 -0.0446975830440179
0.12671635100451636 -0.0862901464909438 -0.042957991683925736
0.12672100016680884 -0.08606606282891072 -0.04353788527294551
0.12670711228457618 -0.08673828401268757 -0.04179829391285335
0.12671176144686866 -0.08651420035065449 -0.042378157699550736
0.12671742388812232 -0.08621903814972676 -0.0429234507922784
0.12672195384112525 -0.08599495448769368 -0.043503314578975785
0.12671688744631934 -0.08625459232033528 -0.04294073613926326
0.1267312521657102 -0.08554684676827229 -0.04466304215237056
0.12672612616625953 -0.08580642499626912 -0.044100463712658036
0.12672660300341773 -0.08577090062798298 -0.04408317836567317
0.12670550295916724 -0.08673235335053242 -0.04116073283001338
0.12670228430834937 -0.08685293354691304 -0.04055613311573421
0.12670276114550758 -0.08681496538819111 -0.040545434081997025
0.12670454928485084 -0.0868082002610091 -0.04118213089748775
0.1267012710293882 -0.08692878045738972 -0.04057759078785335
0.1267017478665464 -0.08689084210099018 -0.04056686195179378
0.12669578740206885 -0.08709403433502949 -0.03934702309414302
0.12669620463458228 -0.08705612578095234 -0.03933629425808345
0.12669900605288673 -0.08697348394097126 -0.03995159300609981
0.12670353600588966 -0.08688407697380818 -0.0412035587672845
0.126700257750427 -0.0870046273678664 -0.040598988855327714
0.12670079419223 -0.08696671881378926 -0.04058828982159053
0.12670252272692847 -0.08695995368660725 -0.04122501643940364
0.1266997809132688 -0.08704259552658833 -0.0406096878890649
0.1266942376813047 -0.0872078494042281 -0.03937914999767696
0.12669703909960914 -0.08712523736656941 -0.03999441894337093
0.12668869444934058 -0.08737313308419026 -0.03814858230396663
0.12669149586764503 -0.08729052104653157 -0.03876388105198299
0.12668327042666602 -0.08753841676415242 -0.03691807421490108
0.12668595263568092 -0.08745577492417134 -0.03753334316059505
0.12668970772830176 -0.08729728617371357 -0.038127184236492265
0.12669244954196143 -0.0872146145314101 -0.03874242337986385
0.12668929049578834 -0.08733519472779072 -0.038137913072551835
0.12669799277392554 -0.08704936065377034 -0.03997302087589656
0.12669477412310767 -0.08716994085015095 -0.039368450963939775
0.12669525096026588 -0.08713197269142903 -0.03935775193020259
0.12679610201922584 -0.08195265688599385 -0.05154216321751033
0.12678853222933936 -0.08241351999939717 -0.05105510386272823
0.12678108164874244 -0.08281024851502217 -0.05052194031521236
0.12678859183398414 -0.0823814825028304 -0.05103206666752254
0.12678137967196632 -0.0827462331265334 -0.05047586592480098
0.12678888985720801 -0.08231740750969685 -0.05098599227711116
0.1267887110432737 -0.08234944500626362 -0.05100899966999446
0.12678161809054542 -0.08268218793572224 -0.05042982133671199
0.12678912827578712 -0.08225339212120808 -0.050939917886699784
0.12678900906649757 -0.08228539981545246 -0.050962925279583085
0.12678185650912452 -0.08261814274491108 -0.05038371714397823
0.12678936669436622 -0.08218931712807453 -0.05089381369396602
0.12678924748507667 -0.08222135462464131 -0.050916880691494096
0.12679663846102882 -0.08182459630669392 -0.05145001443668758
0.12679640004244971 -0.08188864149750508 -0.051496059024776566
0.12677178332415748 -0.08320536770523823 -0.049221873605693925
0.1267770881375425 -0.08287792958916462 -0.04978266390606319
0.12676099488345313 -0.08386018433274067 -0.04810038241192256
0.12676635930148292 -0.08353277601898945 -0.04866114290996944
0.1267620081624143 -0.08378907599152363 -0.048065811717952836
0.1267673725804441 -0.08346163787545002 -0.0486266020183221
0.12676695534793067 -0.08349722184838093 -0.048643857562984574
0.12675026604739356 -0.08451497115792073 -0.046978831613506425
0.12675563046542335 -0.0841875926464919 -0.04753962191387569
0.126744842024719 -0.08484240927399433 -0.04641807111545955
0.12674591490832496 -0.0847713009327773 -0.04638350042148982
0.12674537846652198 -0.08480685510338581 -0.046400815570797074
0.12674686858264136 -0.08470016278923787 -0.046348959529842484
0.12674639174548316 -0.08473574676216877 -0.04636624487682735
0.12674794146624732 -0.08462905444802082 -0.04631444844051753
0.12674734541979957 -0.08466460861862934 -0.04633170398518001
0.12675759741870093 -0.08404534616173542 -0.04747051032825862
0.12675712058154273 -0.08408090033234394 -0.0474877658729211
0.12675229260531592 -0.08437275447548664 -0.04690974983021175
0.12675610730258155 -0.08415200867356099 -0.047522336566890824
0.12675127932635474 -0.08444386281670369 -0.046944290721859086
0.12675664374438453 -0.08411645450295246 -0.04750508102222835
0.12673327872363258 -0.08540218629540242 -0.044600516880001176
0.12673840472308326 -0.0851425782650832 -0.0451630953197137
0.12672296712008643 -0.08592143215836323 -0.04347530039593135
0.12672809311953712 -0.08566182412804402 -0.044037908637966264
0.12672398039904761 -0.08584558524788655 -0.043453902328456986
0.1267291063984983 -0.08558597721756733 -0.0440165105704919
0.1267286295613401 -0.08562388577164448 -0.04402720960422908
0.12671277472582984 -0.08644067802132405 -0.04235017331882869
0.12671784112063575 -0.08618106999100483 -0.042912751758541215
0.12670758912173438 -0.08670034565628804 -0.04178756507679378
0.12670860240069556 -0.08662443914116658 -0.04176616700931941
0.12670812556353736 -0.08666237749756611 -0.041776866043056596
0.12670961567965675 -0.08654859223068989 -0.04174470933720027
0.12670913884249854 -0.08658653058708943 -0.04175543817325984
0.12671062895861793 -0.08647271551789082 -0.04172328146740352
0.12671015212145972 -0.08651062407196797 -0.0417339805011407
0.1267198676785581 -0.08602931656540669 -0.0428699258212701
0.1267193908413999 -0.08606728472412861 -0.04288062485500728
0.1267148012837522 -0.08628895439804829 -0.042307317579235185
0.12671837756243873 -0.0861431316346053 -0.042902022922481645
0.12671378800479102 -0.08636483111084736 -0.04232871564670955
0.12671885439959693 -0.08610522308052815 -0.04289132388874446
0.12678948590365577 -0.0821620480030898 -0.050865441883052934
0.12679687687960792 -0.0817652896851424 -0.0513986054305688
0.12675324627963233 -0.08430560984314717 -0.04686987432285701
0.12674835869876075 -0.08459746398628987 -0.04629185828014766
0.1267630214413755 -0.08372190155686177 -0.04802596601292049
0.1267581338605039 -0.08401381530464924 -0.04744792016788875
0.1267639751156919 -0.08365881004036702 -0.04798078569218074
0.12675908753482032 -0.08395066418350972 -0.04740279945179378
0.12675861069766212 -0.08398222484291828 -0.04742538961216365
0.12677279660311866 -0.08313825287522114 -0.049182027900661576
0.12676790902224708 -0.08343010701836384 -0.048604011857952226
0.12678251216021705 -0.08255451478661335 -0.05033811959072505
0.12677762457934547 -0.08284639873207844 -0.049760073745693315
0.12678352543917823 -0.08249139346779621 -0.050292969072307694
0.12677863785830665 -0.08278324761093891 -0.049714923227275956
0.12677810141650367 -0.08281483807266987 -0.04973751338764583
0.1267845387181394 -0.08242830195130146 -0.050247848356212724
0.12677959153262305 -0.08272009648979939 -0.049669802511180985
0.12677911469546485 -0.08275171675385273 -0.04969233306690608
0.12678549239245582 -0.08236515083016194 -0.050202697837795365
0.12678060481158424 -0.08265703477562703 -0.04962462219044124
0.12678012797442603 -0.0826885656327132 -0.04964721235081111
0.12676987597552467 -0.08330383457840718 -0.04851371082111751
0.1267693395337217 -0.08333536543549336 -0.048536271179164994
0.12677476355639625 -0.08301198043526448 -0.04909172686382686
0.12676838585940528 -0.08339851655663288 -0.04858145149990474
0.12677375027743507 -0.08307510175408162 -0.049136907184566606
0.12676892230120826 -0.08336695589722432 -0.04855886133953487
0.1267896647175901 -0.08213483848274983 -0.05083745750233089
0.12679711529818702 -0.0817108110398177 -0.05134224923893367
0.12679777094927955 -0.08165198125542439 -0.05129167469784175
0.12679008195010352 -0.08210327782334126 -0.050814867341961015
0.1267910952290647 -0.08204015650452412 -0.050769716823543656
0.1267906183919065 -0.08207171716393269 -0.05079230698391353
0.12679210850802589 -0.08197703518570698 -0.0507245663051263
0.12679169127551246 -0.08200856604279316 -0.05074715646549617
0.12679312178698707 -0.08191391386688984 -0.05067944558903133
0.1267925853451841 -0.08194544472397602 -0.0507020357494012
0.12504640767184425 -0.08829080619515217 -0.036392480457271684
0.12507990548220801 -0.0881584838837508 -0.037010044181789506
0.1234532947262876 -0.08816602387131489 -0.03701421650692378
0.1249896044453733 -0.08830081977547444 -0.03573033245846187
0.12336299368945289 -0.08830832996071614 -0.035734534585918534
0.1250830645283811 -0.0880356983155135 -0.03762716087147151
0.1250896210393064 -0.08779012717903889 -0.0388614538554803
0.12508640238848853 -0.08791288294495381 -0.03824430736347591
0.12348995158282447 -0.08791088618935383 -0.038248926723446
0.1250961775502317 -0.08754455604256428 -0.040095687234844316
0.12509289929476905 -0.08766734161080159 -0.03947857054516231
0.12510267445651221 -0.08729898490608967 -0.04133001002117549
0.1250993365964048 -0.08742174067200459 -0.0407128635291711
0.12350300500003028 -0.08741974391640461 -0.0407174530868188
0.12349650809374976 -0.08766528525055683 -0.039483160102810014
0.12513498017398048 -0.08571424641312397 -0.04542857440754329
0.12515274235812354 -0.08547338404358662 -0.046013504589046586
0.12355176159945655 -0.08569773592652119 -0.04543256791874324
0.12498269030657935 -0.0883834914177779 -0.03307992252155696
0.12498608777133155 -0.08834212579430378 -0.03440514239117061
0.12498441884127784 -0.08836280860604084 -0.03374254735752498
0.12498787591067481 -0.0883215025872115 -0.03506770762249385
0.12330452153292823 -0.08833902635277546 -0.03440979155346309
0.12330100485888648 -0.08838033237160481 -0.03308460148617183
0.12351087281314063 -0.08707055010498799 -0.04192009600445186
0.12510726401415992 -0.08707257666291035 -0.041915506446804154
0.1251165027341001 -0.08661981978119648 -0.043086529100383866
0.1251119131764524 -0.08684616841973103 -0.042501032674755204
0.1251257414540403 -0.08616703309716023 -0.04425755175396358
0.1251210922917478 -0.08639344134033955 -0.043672055328334916
0.12513039061633277 -0.0859406546563033 -0.04484307798191463
0.123529350253021 -0.08616500653923787 -0.04426217111393367
0.12352011153308082 -0.08661776342095173 -0.04309111865803157
0.1251627559384458 -0.08513783969582356 -0.046580404365505326
0.1235794777592771 -0.08512129940689839 -0.046584427679027665
0.12674162337390113 -0.08515893974007405 -0.04657644065662776
0.12516841837969947 -0.08480685510338581 -0.04714736374660884
0.12675288865176368 -0.08449705996216572 -0.04771029981419002
0.12517962405291724 -0.08414497532547749 -0.0482812229041711
0.12517402121630836 -0.08447593011559285 -0.04771429332538997
0.12359515378085303 -0.08445483007134236 -0.04771828683658992
0.12676415392962623 -0.08383512057961262 -0.04884421857639705
0.1251908893307798 -0.08348309554756916 -0.04941511186405574
0.1251852864941709 -0.08381402053536213 -0.04884818228527461
0.126775359602844 -0.08317321099938191 -0.049978077733959306
0.12520215460864234 -0.08282115616501606 -0.050548971021618
0.12519649216738868 -0.08315211095513142 -0.04998207124515926
0.12361762473193336 -0.08313101091088093 -0.04998603495403682
0.12360641905871558 -0.08379289068878926 -0.048852175796474565
0.12677613446322608 -0.08298107542694844 -0.049839854562725175
0.1267758364400022 -0.08304515042008198 -0.049885899150814164
0.12677601525393653 -0.08301311292351521 -0.04986289175793086
0.12676463076678443 -0.0837070301979903 -0.04875203999325191
0.12677035281268287 -0.08334403791130818 -0.04929593237682735
0.12677565762606788 -0.08310919561089314 -0.04993197354122554
0.12677577683535743 -0.08307715811432637 -0.04990896614834224
0.12677553841677833 -0.08314120330513752 -0.04995501073643123
0.12676427313891578 -0.08380311288536824 -0.048821151578868974
0.12676987597552467 -0.08347218789757527 -0.0493880811576501
0.12675300786105323 -0.08446502246559895 -0.04768729242130672
0.12675861069766212 -0.08413406767548359 -0.048254222000087846
0.12674734541979957 -0.08479594745339192 -0.0471203330402032
0.12675884911624122 -0.08406999268235005 -0.04820811780735408
0.12675312707034278 -0.08443298496903218 -0.04766425522610103
0.12677011439410377 -0.08340814270676411 -0.049342006767238725
0.12676439234820533 -0.08377110519112385 -0.048798114383663285
0.12676451155749488 -0.08373906769455708 -0.04877504738613521
0.12363073775378394 -0.0823712901085738 -0.05106306108280574
0.12520960518923926 -0.08239239015282429 -0.05105909737392818
0.12521711537448096 -0.08196362414063252 -0.05156919392391597
0.12345925519076514 -0.08702587642372883 -0.03295296462818538
0.12426576563922095 -0.08716851033867634 -0.034279644811596025
0.12506875941363502 -0.0873529271096114 -0.034308851087535966
0.12426403710452247 -0.08718940176667012 -0.033630878055538285
0.12587521025744605 -0.08749553122223652 -0.03563553127094661
0.12587348172274757 -0.0875164226502303 -0.03498679431721126
0.1258700246533506 -0.08755823530854023 -0.03368923100277339
0.12587175318804908 -0.08753731407822407 -0.03433799775883113
0.12586823651400733 -0.08757912673653401 -0.03304052385136043
0.1242622489651792 -0.08721029319466389 -0.032982111299480546
0.12506524273959327 -0.08739470996559895 -0.0330112877730981
0.12587962100115943 -0.08737006344498432 -0.0368240478877679
0.12588289925662208 -0.08724948324860371 -0.03742861779972469
0.12427887866107154 -0.0867922262162093 -0.03784519466205989
0.12428209731188941 -0.08667164601982869 -0.03844973477169429
0.12508252808657813 -0.08696057953537739 -0.037939161384548295
0.1258893961629026 -0.08700835265816487 -0.03863775762363826
0.12588617751208472 -0.0871289030522231 -0.038033187711681474
0.12348178574649024 -0.08638274230660237 -0.03896030815884029
0.12348822304812598 -0.08614158191384114 -0.040169418180431474
0.12429515072909522 -0.08618932523430622 -0.04086798461719905
0.12509552189913917 -0.08647825874985493 -0.04035744103237544
0.12429187247363258 -0.08630993523300923 -0.04026344450756465
0.12590238997546363 -0.0865260318726424 -0.041055977666820634
0.12589911172000098 -0.08664661206902302 -0.040451437557186234
0.12589261481372047 -0.08688774265946186 -0.03924229773327266
0.1258958930691831 -0.08676719226540364 -0.03984686764522945
0.12428537556735206 -0.08655106582344807 -0.03905430468365108
0.12428859421816993 -0.08643048562706745 -0.039658874595607865
0.12508902499285865 -0.08671941914261616 -0.03914830120846187
0.12427029559222388 -0.08713331379593647 -0.03610846432491695
0.12426874587145972 -0.08714502610863484 -0.03549885782047664
0.12346557328311134 -0.08696981825531758 -0.03543055089756404
0.1258767599782102 -0.08748378910721577 -0.036245167577709306
0.12507203766909766 -0.08732026376427449 -0.03556722434803401
0.12346247384158301 -0.0869932726830367 -0.03421133788868343
0.12426725575534034 -0.08715676822365559 -0.03488925131603633
0.1235053891858213 -0.08535590328873432 -0.04249388011738216
0.12349615046588111 -0.08579930224121846 -0.04134732517048274
0.12431827733126807 -0.08508088745774067 -0.04373449119373714
0.12512192675677467 -0.08524924077690876 -0.04382848771854793
0.12431362816897559 -0.08530261673630513 -0.04316121372028743
0.12593481490222144 -0.0849742547482375 -0.04506906899258052
0.12593016573992896 -0.08519592442215718 -0.044495791519130815
0.125920867415344 -0.08563929357231892 -0.043349176967586625
0.12592551657763648 -0.08541762389839924 -0.04392248424335872
0.12591162869540382 -0.08608266272248066 -0.04220262202068721
0.12591621825305152 -0.08586099304856099 -0.04277589949413692
0.1259070391377561 -0.08630433239640034 -0.04162928494259273
0.1242997998913877 -0.08596765556038655 -0.04144129189297115
0.12510338971224952 -0.08613600887955464 -0.04153528841778194
0.12430897900668311 -0.0855242864102248 -0.042587906444515336
0.1251126284321897 -0.0856926397293929 -0.04268187316700374
0.12430432984439063 -0.08574598588646687 -0.04201459916874324
0.12427601763812232 -0.08690592207611836 -0.03726628454967891
0.12347564646807838 -0.08661698856056965 -0.03777682813450252
0.1250763292035215 -0.08719482578934468 -0.036755711162532914
0.12346986481753516 -0.08684438028038777 -0.03661903771206294
0.1242731566151731 -0.08701961793602742 -0.036687404239620316
0.12594488808718848 -0.08444675364197529 -0.046160281026805985
0.12595025250521827 -0.08412336864174641 -0.04671576651379024
0.12434861609545875 -0.08349847354592121 -0.047008037889446366
0.12435404011813331 -0.08317508854569233 -0.04756352337643062
0.1251521463116758 -0.08364918389023579 -0.04713964494511043
0.12596098134127784 -0.08347650923432148 -0.04782664808079158
0.12595561692324805 -0.08379992403687275 -0.047271192396129716
0.12355593392459083 -0.0827009335965041 -0.04798740180775081
0.12356660315600562 -0.08205410399140156 -0.04909834297939693
0.12437549779025245 -0.08188142933548725 -0.04978537591740047
0.12517360398379493 -0.08235558428467549 -0.04936149748608028
0.12437019297686744 -0.08220481433571614 -0.0492299202327386
0.12598255822268653 -0.0821828500241164 -0.05004850062176143
0.12597713420001197 -0.08250629462899006 -0.04949307473942195
0.1259664053639524 -0.08315309443177021 -0.048382103765453446
0.12597176978198218 -0.08282970943154133 -0.04893761905476009
0.12435934493151832 -0.08285167374314106 -0.048118979061092484
0.12436476895419288 -0.0825282291382674 -0.04867446454807674
0.12516287514773536 -0.08300238408745564 -0.04825055631443416
0.12433097312060523 -0.08443799175919331 -0.04539936813160335
0.12432674119082618 -0.08465227045716084 -0.044844419086422074
0.12352279374209571 -0.0844913081139449 -0.04473206433102046
0.12593898722735572 -0.0847599164456252 -0.045624047840084184
0.12513074824420142 -0.08481326260269917 -0.044956773841823686
0.12351427027789283 -0.08491995491684712 -0.043622166240657914
0.12432250926104713 -0.08486660875977314 -0.04428944023891841
0.12598959157077003 -0.08176317372025288 -0.05054786833568965
0.12434277484027076 -0.08381163634957112 -0.04647186430736934
0.1235446090420835 -0.08333751120270527 -0.04689574273868953
0.12514088103381324 -0.08428579129875935 -0.04604795607372676
0.12353286692706275 -0.08396383681000508 -0.04582327636524593
0.12433693358508277 -0.08412482895554341 -0.04593560131832515
