ply
format ascii 1.0
element vertex 222
property float x
property float y
property float z
element face 0
property list uchar int vertex_indices
end_header
-0.3222360136504059 -0.011347954859625885 -0.1345700304938705
-0.334713024138916 -0.011301105608832428 -0.1350210290385635
-0.34719000482510376 -0.011254733195197174 -0.1354719977809341
-0.338550013541687 -0.011286919703375885 -0.1351600270701797
-0.2994184913630371 -0.014877414097678253 -0.07818266562952114
-0.32847450399349976 -0.011324530234229156 -0.1347955446673782
-0.30565701150845337 -0.014854019274603912 -0.07840817980302883
-0.2828995110983734 -0.01686007319916446 -0.08122902922166897
-0.33415250205944824 -0.0174955183171149 -0.07508057169450832
-0.3237410011286621 -0.013630574335944244 -0.09770977310670925
-0.31942100548695374 -0.013646637787711212 -0.09755378775133206
-0.3428700091833954 -0.01127082644928653 -0.1353160124255569
-0.31750251078556824 -0.013653760542761871 -0.09748425893320156
-0.3366315188403015 -0.011294012656104156 -0.13509049825204922
-0.3216755213732605 -0.017542129149329254 -0.07462957314981533
-0.32791401171635437 -0.017518704523932525 -0.07485505752100063
-0.3409515144820099 -0.011277949204337188 -0.1352465134097488
-0.30253775143574524 -0.014865731587302276 -0.07829543761743618
-0.3108272674078827 -0.013112699379813263 -0.10637634806169582
-0.325355273723114 -0.01133624254692752 -0.13468277267946316
-0.3139465274805908 -0.013100987067114898 -0.10648912004961086
-0.3315937640662079 -0.011312817921530792 -0.13490825705064846
-0.3201850178236847 -0.01307756244171817 -0.10671460442079617
-0.31706575775097656 -0.013089274754416534 -0.10660186223520352
-0.30256776237438965 -0.014103984227072784 -0.10789951495660854
-0.29115901613186645 -0.015868728747260162 -0.07970583252443386
-0.340671253442276 -0.014375095953833648 -0.1052763145400436
-0.3289467515940552 -0.015563046326529571 -0.0863951425982864
-0.33546550297688293 -0.012442653765570709 -0.11659088544382168
-0.3120164992804413 -0.014818465103995392 -0.07882863096727444
-0.3098565163607483 -0.014826571335684845 -0.07875063828958584
-0.3215810182089691 -0.013638620962988922 -0.09763178042902065
-0.3289854946131592 -0.012466793646704742 -0.1163568776084335
-0.3407100262637024 -0.011278873076331207 -0.1352380197478683
-0.33114550733517456 -0.012458747019660064 -0.1164348702861221
-0.3450299921030884 -0.011262750019919464 -0.1353940349055679
-0.33330552005718994 -0.012450670590292999 -0.11651289276613308
-0.30889726901005554 -0.014830088009726593 -0.07871588878168179
-0.3261077823634033 -0.01247743307579715 -0.11625265888704372
-0.3115797462458496 -0.014253889908682892 -0.087946204466954
-0.3270669999117737 -0.012473916401755401 -0.11628740839494778
-0.33567227148960876 -0.01129758893479068 -0.13505577854646755
-0.318461758136261 -0.013650243868720123 -0.097519038243428
-0.33759076619099426 -0.01129046617974002 -0.13512524775995327
-0.3280262770647888 -0.012470369925391266 -0.11632212810052944
-0.32819427275608826 -0.014421587576758453 -0.10482531599535061
-0.3313135328287964 -0.014409934868704864 -0.10493802837862087
-0.321955752610672 -0.014445012202155182 -0.10459977201952053
-0.3250750126833801 -0.014433359494101593 -0.10471251420511318
-0.32479475164364624 -0.01753041683663089 -0.07474231533540798
-0.30228750133465576 -0.01720107137192447 -0.07792928628458096
-0.344070774554718 -0.011266326298605987 -0.13535925559534145
-0.33755202317189026 -0.01438671885956485 -0.10516354255212856
-0.33783228421162415 -0.011289512505423614 -0.13513377122415615
-0.33443276309918213 -0.01439834176529605 -0.10505080036653591
-0.3310332419867401 -0.0175071412228461 -0.07496779970659329
-0.33975074911068726 -0.01128244935501773 -0.13520327023996426
-0.3387915017599945 -0.011285966029059478 -0.1351685207320602
-0.34191076183270264 -0.011274372925650665 -0.13528126291765286
-0.30097813630055237 -0.014871572842490265 -0.07823905162347866
-0.3040973963732605 -0.014859890332114288 -0.07835179380907131
-0.3051228942866211 -0.013995056738745758 -0.09227949194444729
-0.31238688254307556 -0.013106828322302887 -0.10643273405565334
-0.30668250942181396 -0.013989185681235382 -0.09233587793840481
-0.3165316405291443 -0.012230282416235992 -0.12047317437662197
-0.32379562878559875 -0.011342053999793121 -0.13462641648782803
-0.31809125566433716 -0.012224411358725616 -0.12052956037057949
-0.3269148888583069 -0.011330401291739532 -0.13473915867342068
-0.3212105157370453 -0.012212758650672027 -0.12064230255617214
-0.3196509006018524 -0.012218599905860016 -0.12058591656221462
-0.330034148931015 -0.011318688979041168 -0.13485190085901333
-0.3243297758097534 -0.012201046337973663 -0.12075507454408718
-0.32277013087223816 -0.012206887593161651 -0.12069868855012966
-0.33315340900372314 -0.011306976666342804 -0.13496464304460598
-0.32744900608013916 -0.012189334025275299 -0.12086778692735745
-0.3258893909449463 -0.012195205082785675 -0.12081143073572231
-0.3129210295672302 -0.013965790858161041 -0.0925613921119125
-0.31136138462971497 -0.01397163211334903 -0.09250500611795498
-0.3186254026884918 -0.013083403696906158 -0.10665821842683865
-0.30824212455700684 -0.013983344426047394 -0.09239223413003994
-0.3155061426157837 -0.01309514581192691 -0.106545476241246
-0.3098017694945221 -0.013977503170859405 -0.09244862012399746
-0.2927336516375427 -0.015482043614279815 -0.09456425718797756
-0.29686338925312805 -0.014986401190650055 -0.0938026886416824
-0.28702924871395874 -0.01636440097321231 -0.08046743087305142
-0.31240187311123657 -0.01272595464218814 -0.12123474292291714
-0.306697499989975 -0.013608341803443023 -0.10713791660799099
-0.2952887537474518 -0.015373086323630401 -0.0789442639781387
-0.3009931268687134 -0.014490699162375519 -0.09304109029306484
-0.3439306142325287 -0.012814914574515411 -0.12037414125932766
-0.33806837820957947 -0.013408904662024566 -0.11093359999193264
-0.34132773899983215 -0.011848693480383941 -0.1260314565135391
-0.3374118628497009 -0.015935307135474273 -0.09017845801843716
-0.3315496268267517 -0.01652929722298343 -0.08073785714639736
-0.3348089876170044 -0.014969056239020416 -0.09583571366800381
-0.32634387636135864 -0.014596795430075714 -0.09205245785249783
-0.3296032669539337 -0.013036614050757477 -0.10715034417642666
-0.33220611238430786 -0.014002864947211334 -0.10149302892221523
-0.3178787651057129 -0.014224504818808624 -0.08826920203699185
-0.3204816403384094 -0.015190755715262481 -0.08261191658510281
-0.3146193745131378 -0.01578471600044925 -0.0731713455153854
-0.32308451557110596 -0.01615700661171634 -0.07695460133089138
-0.3109364929194336 -0.01482248841751773 -0.07878964952959133
-0.3146387460226898 -0.014236604561698028 -0.08815219811929775
-0.3205010118479614 -0.01364264427651126 -0.09759276918901516
-0.3157187523836975 -0.01423258124817569 -0.08819120935930325
-0.3226609947676544 -0.013634597649466583 -0.09767076186670376
-0.3167987587447052 -0.01422855793465335 -0.08823019079698635
-0.32420326495121765 -0.013056730618369171 -0.10695531777872158
-0.33006550097416687 -0.012462770333182403 -0.11639588884843899
-0.32528324150990295 -0.01305273710716922 -0.10699432901872707
-0.3337677540774231 -0.011876886477362701 -0.1257584374381454
-0.3396300199026947 -0.011282866587531158 -0.1351990383101852
-0.3348477604384308 -0.011872833361517975 -0.1257974486781509
-0.3417900028223877 -0.011274849762808868 -0.1352770309878738
-0.33700777316044617 -0.011864786734473297 -0.1258754711581619
-0.3359277667994385 -0.011868810047995636 -0.1258364599181564
-0.3439500155444031 -0.01126680313576419 -0.1353550236655624
-0.33916775608013916 -0.011856769909751007 -0.1259534638358505
-0.33808774971913147 -0.01186073361862857 -0.12591448239816738
-0.34610999846409607 -0.011258726706397125 -0.1354329865409286
-0.34024776244114685 -0.01185271679390628 -0.1259924452735336
-0.328523260592926 -0.013040637364279815 -0.10711133293642117
-0.33438549661587524 -0.012446677079093048 -0.11655190400613857
-0.32636324787091064 -0.01304871379364688 -0.10703334025873257
-0.33222551369618225 -0.012454693903815338 -0.11647388152612759
-0.32744325423191833 -0.013044660677802154 -0.10707232169641567
-0.3131998898978119 -0.014241939177405426 -0.08810007385744167
-0.31023852252911377 -0.014541988959204742 -0.08333107642664028
-0.30593587183903503 -0.015130167593848297 -0.07394686154855801
-0.3218051316733246 -0.013065641512763092 -0.10686844400896145
-0.31884376430462646 -0.01336566149224002 -0.10209941677583767
-0.3145411434168701 -0.013953840126883575 -0.09271526150240017
-0.33041040325115967 -0.011889284243475982 -0.1256368439628036
-0.3231463851923828 -0.012777512659918853 -0.11148363165391995
-0.3086183788771515 -0.014553969492804596 -0.08317717723383022
-0.31588239693592834 -0.013665741076361725 -0.09733041934503628
-0.30727712535809326 -0.014842068543326446 -0.07856201939119412
-0.30431575798939514 -0.015142118325125763 -0.07379299215807034
-0.33089001202534485 -0.01188749610413272 -0.12565421871675564
-0.3351926329131012 -0.011299347271811554 -0.13503840379251553
-0.32228477024983215 -0.01306385337341983 -0.10688581876291348
-0.3265873911375885 -0.012475674738776275 -0.11627003364099575
-0.3318492593760376 -0.011883949627768585 -0.1256889384223373
-0.33615188026379395 -0.011295800795447418 -0.1350731234980972
-0.3313696506018524 -0.011885707964789459 -0.12567156366838528
-0.31367949867199707 -0.014240180840384552 -0.08811747841371609
-0.3179821493620758 -0.013652002205740997 -0.09750163368715359
-0.3093768777842407 -0.014828329672705719 -0.07873326353563381
-0.31894139671276855 -0.013648455729376861 -0.09753641299738003
-0.31415913724850464 -0.014238362898718902 -0.08813482336534573
-0.328505885838974 -0.012468611588370392 -0.11633953265680386
-0.3237236263747101 -0.013058518757712433 -0.10693794302476956
-0.33807037496517944 -0.011288707842719146 -0.1351426225139053
-0.3332881453032379 -0.011878644814383575 -0.12574109248651577
-0.3371111574168091 -0.011292254319083282 -0.13510787300600124
-0.33232889795254517 -0.011882191290747711 -0.12570634297861172
-0.33280850672673035 -0.01188040315140445 -0.12572371773256374
-0.32276437902401733 -0.01306203543175418 -0.1069031935168655
-0.3232440176005249 -0.013060277094733307 -0.10692056827081753
-0.32754663848828125 -0.01247212826241214 -0.1163047831488998
-0.33145363354634094 -0.01286134659279544 -0.11992317251695706
-0.3330132784838562 -0.012855505337607452 -0.11997955851091457
-0.3283344032759552 -0.01287311851013858 -0.11981040052904202
-0.32989401841114807 -0.012867217650305816 -0.11986678652299954
-0.3280541422362213 -0.015970175852667877 -0.08984020165933682
-0.3296137573714142 -0.0159643047951575 -0.08989655785097195
-0.32975388789128113 -0.014415776123892853 -0.10488170198930813
-0.32521514320324707 -0.012884771218192169 -0.11969765834344936
-0.32677475833843994 -0.01287892996300418 -0.11975404433740688
-0.32209588313053894 -0.012896483530890533 -0.11958491615785671
-0.3236554982657318 -0.012890642275702545 -0.11964127234949185
-0.32181562209080505 -0.015993600478064605 -0.08961468748582913
-0.3233752670283203 -0.01598772942055423 -0.08967104367746426
-0.32351539754818726 -0.014439170946967193 -0.10465615801347805
-0.32323513650845337 -0.017536317696463653 -0.07468592934145046
-0.3263543965811615 -0.017524545779120514 -0.07479867152704311
-0.326634627818573 -0.014427488436591217 -0.1047689001990707
-0.3249348821635132 -0.01598188816536624 -0.08972742967142178
-0.32649449729870605 -0.015976017107855865 -0.0897838156653793
-0.3121216418738251 -0.015823071589362213 -0.09126454405321194
-0.31198151135395813 -0.01737160026062686 -0.07627942971719814
-0.31226174259136963 -0.014274513115775177 -0.10624965838922573
-0.2925935211176758 -0.017030572285544464 -0.07957914285196377
-0.3024276318545227 -0.01565254270065982 -0.09291440062059475
-0.3456303896899109 -0.011260514845740387 -0.13541564158929897
-0.3423709990973358 -0.012820696225058624 -0.12031778506769253
-0.34251112961720276 -0.011272167553793976 -0.13530289940370632
-0.3392517688269501 -0.012832319130789825 -0.12020501307977749
-0.34081138396214294 -0.012826537480246612 -0.12026139907373501
-0.33585224771450806 -0.015941088786017486 -0.09012207202447964
-0.33911163830708313 -0.014380937209021637 -0.10521992854608608
-0.339391899346817 -0.011283730854880401 -0.13519015721811367
-0.33613250875424194 -0.012843942036521026 -0.12009230069650723
-0.3376921238894348 -0.012838100781333038 -0.12014865688814236
-0.3362726392741089 -0.011295323958289215 -0.13507738523019863
-0.33457289361904907 -0.01284972368706424 -0.1200359147025497
-0.33117340230892944 -0.015958523144614288 -0.08995291404260708
-0.33287314796398926 -0.014404153218161651 -0.10499441437257839
-0.32947362685154724 -0.017512922873389312 -0.07491144351495815
-0.33259288692425537 -0.01750129996765811 -0.0750241857005508
-0.335992378234375 -0.01439253031243045 -0.10510715655817104
-0.3327330174441223 -0.015952711691748687 -0.09000932983888699
-0.3342926325793152 -0.015946930041205475 -0.09006565622819973
-0.33915038132618713 -0.011284684529196808 -0.1351816337539108
-0.3381911339754944 -0.011288231005560943 -0.13514688424600674
-0.33867077255200195 -0.01128647266854007 -0.13516425899995876
-0.3413103940482025 -0.011276608099829742 -0.13525965623392178
-0.3402303876871948 -0.011280631413352081 -0.13522064499391628
-0.33723188662480164 -0.011291747679602691 -0.13511213473810268
-0.3377115252013092 -0.011289989342581817 -0.1351295094920547
-0.33675227785061645 -0.01129356562126834 -0.13509475998415066
-0.3398715081210022 -0.011281972517859527 -0.1352075319720657
-0.3383118929858093 -0.01128775416840274 -0.13515114597810818
-0.3429907681937103 -0.011270349612128326 -0.13532024435533596
-0.34143112325619507 -0.011276131262671539 -0.13526388816370083
-0.3445503833289032 -0.011264567961585113 -0.13537663034929348
-0.3423904004092102 -0.011272584786307403 -0.13529863767160488
-0.3434703769678955 -0.011268561472785064 -0.13533764891161038
-0.3392711403365021 -0.011284207692038604 -0.13518589548601223
-0.34035114669750977 -0.011280184378516266 -0.13522490672601772
-0.34083075547169495 -0.011278366436850616 -0.13524228147996975
